<?xml version="1.0" encoding="utf-8"?>
<!-- Generator: Adobe Illustrator 25.2.1, SVG Export Plug-In . SVG Version: 6.00 Build 0)  -->
<svg version="1.1" id="Layer_1" xmlns="http://www.w3.org/2000/svg" xmlns:xlink="http://www.w3.org/1999/xlink" x="0px" y="0px"
	 width="49px" height="49px" viewBox="0 0 49 49" style="enable-background:new 0 0 49 49;" xml:space="preserve">
<style type="text/css">
	.st0{fill:#7879F1;}
	.st1{display:none;}
	.st2{display:inline;fill:none;stroke:#F5F5F5;stroke-width:2;stroke-linecap:round;stroke-linejoin:round;}
	.st3{fill:none;stroke:#F5F5F5;stroke-width:2;stroke-linecap:round;stroke-linejoin:round;}
</style>
<circle class="st0" cx="24.5" cy="24.5" r="24.5"/>
<g class="st1">
	<path class="st2" d="M73.8,10.2l-8.5,14.1c-0.2,0.3-0.3,0.6-0.3,1c0,0.3,0.1,0.7,0.3,1s0.4,0.6,0.7,0.7c0.3,0.2,0.6,0.3,1,0.3H84
		c0.3,0,0.7-0.1,1-0.3c0.3-0.2,0.6-0.4,0.7-0.7c0.2-0.3,0.3-0.6,0.3-1c0-0.3-0.1-0.7-0.3-1l-8.5-14.1c-0.2-0.3-0.4-0.5-0.7-0.7
		c-0.3-0.2-0.6-0.3-1-0.3c-0.3,0-0.7,0.1-1,0.3C74.3,9.7,74,10,73.8,10.2L73.8,10.2z"/>
	<path class="st2" d="M75.5,15.4v4"/>
	<path class="st2" d="M75.5,23.4L75.5,23.4"/>
</g>
<g>
	<path class="st3" d="M24.5,34.5c5.5,0,10-4.5,10-10c0-5.5-4.5-10-10-10c-5.5,0-10,4.5-10,10C14.5,30,19,34.5,24.5,34.5z"/>
	<path class="st3" d="M24.5,18.5v6l4,2"/>
</g>
</svg>
