<?xml version="1.0" encoding="utf-8"?>
<!-- Generator: Adobe Illustrator 25.2.1, SVG Export Plug-In . SVG Version: 6.00 Build 0)  -->
<svg version="1.1" id="Layer_1" xmlns="http://www.w3.org/2000/svg" xmlns:xlink="http://www.w3.org/1999/xlink" x="0px" y="0px"
	 width="1440px" height="938px" viewBox="0 0 1440 938" style="enable-background:new 0 0 1440 938;" xml:space="preserve">
<style type="text/css">
	.st0{fill:#4281FF;}
	.st1{fill:#DDE8FF;}
	.st2{fill:#0D51D9;}
	.st3{fill:#FFFFFF;}
	.st4{fill:none;stroke:#AFC3EC;stroke-linecap:round;}
	.st5{fill:none;stroke:#AFC3EC;stroke-width:18;}
	.st6{fill:none;stroke:#AFC3EC;stroke-width:3;}
	.st7{fill:none;stroke:#AFC3EC;stroke-width:2.9998;stroke-miterlimit:3.9998;}
</style>
<path class="st0" d="M1443,141.9C1431-73,1342.8-21.4-6,147.5l6,790h1443V141.9z"/>
<path class="st1" d="M0,184.2c12-203.4,94-159.9,1440,0v753.3H0V184.2z"/>
<path class="st2" d="M0,120.8c1088-77.3,1376-151.3,1440,0v816.7H0V120.8z"/>
<path class="st3" d="M1312.2,117.3c0,2.6-0.2,5.2-1.7,6.7c-0.9,0.9-2.2,1.4-3.6,1.4s-2.6-0.5-3.5-1.4c-1.5-1.5-1.7-4-1.7-6.7
	s0.2-5.2,1.7-6.7c0.9-0.9,2.1-1.4,3.5-1.4s2.7,0.5,3.6,1.4C1312.1,112.1,1312.2,114.6,1312.2,117.3z"/>
<path class="st4" d="M-174.3,234.6C-252.8,282.9-277,386-228.5,464.8C-179.9,543.7-77,568.4,1.4,520.1
	C80,471.8,104.2,368.8,55.6,290"/>
<path class="st5" d="M7,229.8c-12.3,7.6-28.2,3.8-35.6-8.2s-3.6-27.9,8.7-35.4c12.3-7.6,28.2-3.8,35.6,8.2
	C23.2,206.3,19.4,222.1,7,229.8z"/>
<circle class="st6" cx="111.4" cy="416.4" r="7.9"/>
<path class="st4" d="M1593.2,432.8c79.8-46.1,107-148.4,60.7-228.6s-148.5-107.8-228.3-61.8c-79.8,46.1-107,148.4-60.7,228.6"/>
<path class="st5" d="M1411.7,432.6c12.5-7.2,28.3-3,35.4,9.2c7,12.2,2.8,28-9.7,35.2s-28.3,3-35.4-9.2
	C1395,455.6,1399.2,439.8,1411.7,432.6z"/>
<ellipse transform="matrix(0.866 -0.5 0.5 0.866 54.373 688.903)" class="st7" cx="1312.7" cy="243" rx="7.9" ry="7.9"/>
</svg>
