<?xml version="1.0" encoding="utf-8"?>
<!-- Generator: Adobe Illustrator 25.2.1, SVG Export Plug-In . SVG Version: 6.00 Build 0)  -->
<svg version="1.1" id="Layer_1" xmlns="http://www.w3.org/2000/svg" xmlns:xlink="http://www.w3.org/1999/xlink" x="0px" y="0px"
	 width="548.1px" height="408.1px" viewBox="0 0 548.1 408.1" style="enable-background:new 0 0 548.1 408.1;" xml:space="preserve"
	>
<style type="text/css">
	.st0{display:none;fill:#000DFF;}
	.st1{clip-path:url(#SVGID_2_);}
	.st2{fill:none;stroke:#B2B2B2;stroke-width:3;stroke-linecap:round;stroke-miterlimit:10;stroke-opacity:0.6;}
	.st3{clip-path:url(#SVGID_4_);}
	.st4{fill:none;stroke:#BFBFBF;stroke-miterlimit:10;stroke-opacity:0.6;}
	.st5{fill:none;stroke:#BFBFBF;stroke-width:2;stroke-miterlimit:10;}
	.st6{fill:none;stroke:#000000;stroke-miterlimit:10;}
	.st7{fill:none;stroke:#000000;stroke-width:2;stroke-miterlimit:10;stroke-opacity:0.6;}
	.st8{fill:none;stroke:#B2B2B2;stroke-miterlimit:10;}
</style>
<rect x="-75" y="-44" class="st0" width="721" height="523"/>
<g>
	<g>
		<g>
			<defs>
				<rect id="SVGID_1_" x="124.7" y="293" width="68.5" height="133.9"/>
			</defs>
			<clipPath id="SVGID_2_">
				<use xlink:href="#SVGID_1_"  style="overflow:visible;"/>
			</clipPath>
			<g class="st1">
				<path class="st2" d="M180.5,310.8c-22.5,5.1-39.3,25.2-39.3,49.2c0,26,19.6,47.3,44.8,50.1"/>
				<path class="st2" d="M178.1,296c-29.7,6.2-51.9,32.5-51.9,64c0,33.8,25.7,61.7,58.6,65.1"/>
				<path class="st2" d="M182.5,325.5c-15.2,4.1-26.5,18-26.5,34.5c0,18.1,13.5,33.1,31,35.4"/>
				<path class="st2" d="M184.6,340.3c-8.1,3-13.8,10.7-13.8,19.7c0,10.3,7.5,18.9,17.3,20.7"/>
			</g>
		</g>
	</g>
</g>
<g>
	<g>
		<g>
			<defs>
				<rect id="SVGID_3_" x="447.9" y="37.4" width="100.2" height="57.2"/>
			</defs>
			<clipPath id="SVGID_4_">
				<use xlink:href="#SVGID_3_"  style="display:none;overflow:visible;"/>
			</clipPath>
			<g class="st3">
				<path class="st4" d="M452.8,94.6v-9.8 M457.7,89.7h-9.8H457.7z"/>
				<path class="st4" d="M452.8,70.5v-9.8 M457.7,65.6h-9.8H457.7z"/>
				<path class="st4" d="M452.8,47.2v-9.8 M457.7,42.3h-9.8H457.7z"/>
				<path class="st5" d="M452.8,94.6v-9.8 M457.7,89.7h-9.8H457.7z"/>
				<path class="st5" d="M452.8,70.5v-9.8 M457.7,65.6h-9.8H457.7z"/>
				<path class="st5" d="M452.8,47.2v-9.8 M457.7,42.3h-9.8H457.7z"/>
				<path class="st4" d="M475.4,94.6v-9.8 M480.3,89.7h-9.8H480.3z"/>
				<path class="st4" d="M475.4,70.5v-9.8 M480.3,65.6h-9.8H480.3z"/>
				<path class="st4" d="M475.4,47.2v-9.8 M480.3,42.3h-9.8H480.3z"/>
				<path class="st5" d="M475.4,94.6v-9.8 M480.3,89.7h-9.8H480.3z"/>
				<path class="st5" d="M475.4,70.5v-9.8 M480.3,65.6h-9.8H480.3z"/>
				<path class="st5" d="M475.4,47.2v-9.8 M480.3,42.3h-9.8H480.3z"/>
				<path class="st4" d="M498,70.5v-9.8 M502.9,65.6h-9.8H502.9z"/>
				<path class="st4" d="M498,47.2v-9.8 M502.9,42.3h-9.8H502.9z"/>
				<path class="st5" d="M498,70.5v-9.8 M502.9,65.6h-9.8H502.9z"/>
				<path class="st5" d="M498,47.2v-9.8 M502.9,42.3h-9.8H502.9z"/>
				<path class="st4" d="M520.6,70.5v-9.8 M525.5,65.6h-9.8H525.5z"/>
				<path class="st4" d="M520.6,47.2v-9.8 M525.5,42.3h-9.8H525.5z"/>
				<path class="st5" d="M520.6,70.5v-9.8 M525.5,65.6h-9.8H525.5z"/>
				<path class="st5" d="M520.6,47.2v-9.8 M525.5,42.3h-9.8H525.5z"/>
				<path class="st4" d="M543.2,70.5v-9.8 M548.1,65.6h-9.8H548.1z"/>
				<path class="st4" d="M543.2,47.2v-9.8 M548.1,42.3h-9.8H548.1z"/>
				<path class="st5" d="M543.2,70.5v-9.8 M548.1,65.6h-9.8H548.1z"/>
				<path class="st5" d="M543.2,47.2v-9.8 M548.1,42.3h-9.8H548.1z"/>
			</g>
		</g>
	</g>
</g>
<path class="st6" d="M169.6,181.6v-9.8 M164.7,176.7h9.8H164.7z"/>
<path class="st6" d="M169.6,158.2v-9.8 M164.7,153.3h9.8H164.7z"/>
<path class="st7" d="M169.6,181.6v-9.8 M164.7,176.7h9.8H164.7z"/>
<path class="st7" d="M169.6,158.2v-9.8 M164.7,153.3h9.8H164.7z"/>
<path class="st6" d="M147,181.6v-9.8 M142.1,176.7h9.8H142.1z"/>
<path class="st6" d="M147,158.2v-9.8 M142.1,153.3h9.8H142.1z"/>
<path class="st8" d="M124.4,181.6v-9.8 M119.5,176.7h9.8H119.5z"/>
<path class="st8" d="M124.4,158.2v-9.8 M119.5,153.3h9.8H119.5z"/>
</svg>
