<svg width="20" height="18" viewBox="0 0 20 18" fill="none" xmlns="http://www.w3.org/2000/svg">
<path fill-rule="evenodd" clip-rule="evenodd" d="M6.21481 17.1429C5.97957 17.1427 5.74754 17.0898 5.53663 16.9882C5.32573 16.8866 5.14162 16.7391 4.99853 16.5571L0.314819 10.5881C0.0681663 10.2736 -0.0402402 9.87653 0.0134465 9.48418C0.0671331 9.09182 0.278516 8.73632 0.601093 8.49589C0.92367 8.25545 1.33102 8.14978 1.73352 8.20211C2.13603 8.25445 2.50073 8.4605 2.74738 8.77494L5.95226 12.86C7.71966 9.75909 11.5599 4.06832 17.6673 0.220493C18.0082 0.0165644 18.4174 -0.0492692 18.8075 0.0370644C19.1976 0.123398 19.5375 0.355049 19.7546 0.682496C19.9718 1.00994 20.0489 1.4072 19.9695 1.78935C19.8901 2.1715 19.6605 2.50821 19.3298 2.72751C11.5162 7.64828 7.65689 16.1602 7.61862 16.2453C7.51231 16.4837 7.34394 16.6909 7.1302 16.8464C6.91647 17.0018 6.66477 17.1002 6.40004 17.1317L6.21481 17.1429Z" fill="#4B9A30"/>
</svg>
