<?xml version="1.0" encoding="utf-8"?>
<!-- Generator: Adobe Illustrator 25.2.1, SVG Export Plug-In . SVG Version: 6.00 Build 0)  -->
<svg version="1.1" id="Layer_1" xmlns="http://www.w3.org/2000/svg" xmlns:xlink="http://www.w3.org/1999/xlink" x="0px" y="0px"
	 width="24px" height="24px" viewBox="0 0 24 24" style="enable-background:new 0 0 24 24;" xml:space="preserve">
<style type="text/css">
	.st0{fill-rule:evenodd;clip-rule:evenodd;fill:#231F20;}
	.st1{fill-rule:evenodd;clip-rule:evenodd;fill:#FFFFFF;filter:url(#Adobe_OpacityMaskFilter);}
	.st2{mask:url(#mask0_1316_8819_1_);}
	.st3{fill:#80C6FF;}
</style>
<path class="st0" d="M21,11L21,11c0.6,0,1,0.4,1,1c0,2.7-1,5.2-2.9,7.1C17.2,20.9,14.7,22,12,22h0c-2.7,0-5.2-1-7.1-2.9
	C3.1,17.2,2,14.7,2,12c0-2.7,1-5.2,2.9-7.1C6.8,3.1,9.3,2,12,2c0.8,0,1.6,0.1,2.4,0.3c0.5,0.1,0.9,0.7,0.7,1.2
	C15,4,14.4,4.4,13.9,4.2C13.3,4.1,12.6,4,12,4C9.8,4,7.8,4.8,6.3,6.4C4.8,7.9,4,9.9,4,12c0,2.1,0.8,4.1,2.4,5.6
	C7.9,19.2,9.9,20,12,20h0c2.1,0,4.1-0.8,5.7-2.4c1.5-1.5,2.3-3.5,2.3-5.7C20,11.4,20.4,11,21,11z M8.3,11.3c0.4-0.4,1-0.4,1.4,0
	l2.2,2.2l6.3-7.2c0.4-0.4,1-0.5,1.4-0.1c0.4,0.4,0.5,1,0.1,1.4l-7,8C12.6,15.9,12.3,16,12,16h0c-0.3,0-0.5-0.1-0.7-0.3l-3-3
	C7.9,12.3,7.9,11.7,8.3,11.3z"/>
<defs>
	<filter id="Adobe_OpacityMaskFilter" filterUnits="userSpaceOnUse" x="0" y="0" width="24" height="24">
		<feColorMatrix  type="matrix" values="1 0 0 0 0  0 1 0 0 0  0 0 1 0 0  0 0 0 1 0"/>
	</filter>
</defs>
<mask maskUnits="userSpaceOnUse" x="0" y="0" width="24" height="24" id="mask0_1316_8819_1_">
	<path class="st1" d="M21,11L21,11c0.6,0,1,0.4,1,1c0,2.7-1,5.2-2.9,7.1C17.2,20.9,14.7,22,12,22h0c-2.7,0-5.2-1-7.1-2.9
		C3.1,17.2,2,14.7,2,12c0-2.7,1-5.2,2.9-7.1C6.8,3.1,9.3,2,12,2c0.8,0,1.6,0.1,2.4,0.3c0.5,0.1,0.9,0.7,0.7,1.2
		C15,4,14.4,4.4,13.9,4.2C13.3,4.1,12.6,4,12,4C9.8,4,7.8,4.8,6.3,6.4C4.8,7.9,4,9.9,4,12c0,2.1,0.8,4.1,2.4,5.6
		C7.9,19.2,9.9,20,12,20h0c2.1,0,4.1-0.8,5.7-2.4c1.5-1.5,2.3-3.5,2.3-5.7C20,11.4,20.4,11,21,11z M8.3,11.3c0.4-0.4,1-0.4,1.4,0
		l2.2,2.2l6.3-7.2c0.4-0.4,1-0.5,1.4-0.1c0.4,0.4,0.5,1,0.1,1.4l-7,8C12.6,15.9,12.3,16,12,16h0c-0.3,0-0.5-0.1-0.7-0.3l-3-3
		C7.9,12.3,7.9,11.7,8.3,11.3z"/>
</mask>
<g class="st2">
	<rect class="st3" width="24" height="24"/>
</g>
</svg>
