<?xml version="1.0" encoding="utf-8"?>
<!-- Generator: Adobe Illustrator 25.2.1, SVG Export Plug-In . SVG Version: 6.00 Build 0)  -->
<svg version="1.1" id="Capa_1" xmlns="http://www.w3.org/2000/svg" xmlns:xlink="http://www.w3.org/1999/xlink" x="0px" y="0px"
	 width="16px" height="11.6px" viewBox="0 0 16 11.6" style="enable-background:new 0 0 16 11.6;" xml:space="preserve">
<style type="text/css">
	.st0{fill:#FFFFFF;}
</style>
<g>
	<g>
		<path class="st0" d="M15.5,0H0.5C0.2,0,0,0.2,0,0.5v10.5c0,0.3,0.2,0.5,0.5,0.5h14.9c0.3,0,0.5-0.2,0.5-0.5V0.5
			C16,0.2,15.8,0,15.5,0z M14.9,10.5H1.1V1.1h13.8V10.5z"/>
		<path class="st0" d="M2.5,3.6l5.2,3.2C7.8,6.9,7.9,6.9,8,6.9c0.1,0,0.2,0,0.3-0.1l5.2-3.2c0.3-0.2,0.3-0.5,0.2-0.7
			c-0.2-0.3-0.5-0.3-0.7-0.2L8,5.8l-4.9-3C2.8,2.6,2.5,2.6,2.3,2.9C2.2,3.1,2.3,3.5,2.5,3.6z"/>
	</g>
</g>
</svg>
