<?xml version="1.0" encoding="utf-8"?>
<!-- Generator: Adobe Illustrator 25.2.1, SVG Export Plug-In . SVG Version: 6.00 Build 0)  -->
<svg version="1.1" id="Layer_1" xmlns="http://www.w3.org/2000/svg" xmlns:xlink="http://www.w3.org/1999/xlink" x="0px" y="0px"
	 width="1351.5px" height="242px" viewBox="0 0 1351.5 242" style="enable-background:new 0 0 1351.5 242;" xml:space="preserve">
<style type="text/css">
	.st0{fill:#EAF1FF;}
	.st1{fill:none;stroke:#27AE60;stroke-width:4;stroke-linecap:round;stroke-linejoin:round;}
	.st2{fill:#231F20;}
	.st3{fill:none;stroke:#0D51D9;stroke-width:2;stroke-dasharray:2,5;}
	.st4{fill:none;stroke:url(#SVGID_1_);stroke-width:2;stroke-dasharray:7,12;}
	.st5{fill:none;stroke:url(#SVGID_2_);stroke-width:2;stroke-dasharray:7,12;}
	.st6{fill:#6FCF97;}
</style>
<g>
	<path class="st0" d="M85,0h162c5,0,9,4,9,9v162c0,5-4,9-9,9H85c-5,0-9-4-9-9V9C76,4,80,0,85,0z"/>
	<path class="st0" d="M289,0h162c5,0,9,4,9,9v162c0,5-4,9-9,9H289c-5,0-9-4-9-9V9C280,4,284,0,289,0z"/>
	<path class="st0" d="M493,0h162c5,0,9,4,9,9v162c0,5-4,9-9,9H493c-5,0-9-4-9-9V9C484,4,488,0,493,0z"/>
	<path class="st0" d="M697,0h162c5,0,9,4,9,9v162c0,5-4,9-9,9H697c-5,0-9-4-9-9V9C688,4,692,0,697,0z"/>
	<path class="st0" d="M901,0h162c5,0,9,4,9,9v162c0,5-4,9-9,9H901c-5,0-9-4-9-9V9C892,4,896,0,901,0z"/>
	<path class="st0" d="M1105,0h162c5,0,9,4,9,9v162c0,5-4,9-9,9h-162c-5,0-9-4-9-9V9C1096,4,1100,0,1105,0z"/>
	<path class="st1" d="M180.2,59.7V61c0,3.1-1,6-2.8,8.5c-1.8,2.4-4.4,4.2-7.3,5.1c-2.9,0.9-6.1,0.8-8.9-0.3c-2.9-1.1-5.3-3-7-5.6
		c-1.7-2.6-2.5-5.6-2.3-8.6c0.2-3,1.4-6,3.4-8.3c2-2.3,4.7-3.9,7.6-4.6c3-0.7,6.1-0.4,8.9,0.9"/>
	<path class="st1" d="M180.2,49.7L166,63.8l-4.2-4.2"/>
	<path class="st1" d="M384.2,59.7V61c0,3.1-1,6-2.8,8.5c-1.8,2.4-4.4,4.2-7.3,5.1c-2.9,0.9-6.1,0.8-8.9-0.3c-2.9-1.1-5.3-3-7-5.6
		c-1.7-2.6-2.5-5.6-2.3-8.6c0.2-3,1.4-6,3.4-8.3c2-2.3,4.7-3.9,7.6-4.6c3-0.7,6.1-0.4,8.9,0.9"/>
	<path class="st1" d="M384.2,49.7L370,63.8l-4.2-4.2"/>
	<path class="st1" d="M588.2,59.7V61c0,3.1-1,6-2.8,8.5c-1.8,2.4-4.4,4.2-7.3,5.1c-2.9,0.9-6.1,0.8-8.9-0.3c-2.9-1.1-5.3-3-7-5.6
		c-1.7-2.6-2.5-5.6-2.3-8.6c0.2-3,1.4-6,3.4-8.3c2-2.3,4.7-3.9,7.6-4.6c3-0.7,6.1-0.4,8.9,0.9"/>
	<path class="st1" d="M588.2,49.7L574,63.8l-4.2-4.2"/>
	<path class="st1" d="M792.2,59.7V61c0,3.1-1,6-2.8,8.5c-1.8,2.4-4.4,4.2-7.3,5.1c-2.9,0.9-6.1,0.8-8.9-0.3c-2.9-1.1-5.3-3-7-5.6
		c-1.7-2.6-2.5-5.6-2.3-8.6c0.2-3,1.4-6,3.4-8.3c2-2.3,4.7-3.9,7.6-4.6c3-0.7,6.1-0.4,8.9,0.9"/>
	<path class="st1" d="M792.2,49.7L778,63.8l-4.2-4.2"/>
	<path class="st1" d="M996.2,59.7V61c0,3.1-1,6-2.8,8.5c-1.8,2.4-4.4,4.2-7.3,5.1c-2.9,0.9-6.1,0.8-8.9-0.3c-2.9-1.1-5.3-3-7-5.6
		c-1.7-2.6-2.5-5.6-2.3-8.6c0.2-3,1.4-6,3.4-8.3c2-2.3,4.7-3.9,7.7-4.6c3-0.7,6.1-0.4,8.9,0.9"/>
	<path class="st1" d="M996.2,49.7L982,63.8l-4.2-4.2"/>
	<path class="st1" d="M1200.2,59.7V61c0,3.1-1,6-2.8,8.5c-1.8,2.4-4.4,4.2-7.3,5.1c-2.9,0.9-6.1,0.8-8.9-0.3c-2.9-1.1-5.3-3-7-5.6
		c-1.7-2.6-2.5-5.6-2.3-8.6c0.2-3,1.4-6,3.4-8.3c2-2.3,4.7-3.9,7.7-4.6c3-0.7,6.1-0.4,8.9,0.9"/>
	<path class="st1" d="M1200.2,49.7L1186,63.8l-4.2-4.2"/>
	<path class="st2" d="M145.5,109.8c0-0.3,0-0.6-0.1-0.8c-0.1-0.2-0.2-0.4-0.5-0.6c-0.2-0.2-0.5-0.4-0.9-0.5
		c-0.4-0.2-0.9-0.3-1.5-0.5c-0.6-0.2-1.2-0.4-1.7-0.6c-0.5-0.2-0.9-0.5-1.3-0.8c-0.4-0.3-0.6-0.6-0.8-1c-0.2-0.4-0.3-0.8-0.3-1.3
		c0-0.5,0.1-1,0.3-1.4c0.2-0.4,0.5-0.8,0.9-1.1c0.4-0.3,0.8-0.6,1.4-0.7c0.5-0.2,1.1-0.3,1.8-0.3c1,0,1.8,0.2,2.4,0.6
		c0.7,0.4,1.2,0.8,1.5,1.4c0.4,0.6,0.5,1.2,0.5,1.9h-1.7c0-0.5-0.1-0.9-0.3-1.3c-0.2-0.4-0.5-0.7-0.9-0.9c-0.4-0.2-0.9-0.3-1.6-0.3
		c-0.6,0-1.1,0.1-1.5,0.3c-0.4,0.2-0.7,0.4-0.9,0.7c-0.2,0.3-0.3,0.7-0.3,1.1c0,0.3,0.1,0.5,0.2,0.7c0.1,0.2,0.3,0.4,0.5,0.6
		c0.2,0.2,0.6,0.4,0.9,0.5c0.4,0.2,0.8,0.3,1.4,0.5c0.7,0.2,1.4,0.4,1.9,0.7c0.5,0.3,1,0.5,1.3,0.9c0.3,0.3,0.6,0.7,0.8,1.1
		c0.2,0.4,0.3,0.8,0.3,1.3c0,0.5-0.1,1-0.3,1.4s-0.5,0.8-0.9,1.1c-0.4,0.3-0.9,0.5-1.4,0.7c-0.5,0.2-1.2,0.2-1.8,0.2
		c-0.6,0-1.2-0.1-1.7-0.2c-0.6-0.2-1.1-0.4-1.6-0.7c-0.5-0.3-0.8-0.7-1.1-1.2c-0.3-0.5-0.4-1-0.4-1.7h1.7c0,0.4,0.1,0.8,0.3,1.1
		c0.2,0.3,0.4,0.6,0.7,0.8c0.3,0.2,0.6,0.4,1,0.5c0.4,0.1,0.8,0.1,1.2,0.1c0.6,0,1.1-0.1,1.5-0.2c0.4-0.2,0.7-0.4,0.9-0.7
		C145.4,110.5,145.5,110.2,145.5,109.8z M153.1,113.2c-0.7,0-1.3-0.1-1.8-0.3c-0.5-0.2-1-0.5-1.4-1c-0.4-0.4-0.7-0.9-0.9-1.5
		c-0.2-0.6-0.3-1.2-0.3-1.8v-0.4c0-0.8,0.1-1.5,0.3-2.1c0.2-0.6,0.5-1.1,0.9-1.5c0.4-0.4,0.8-0.7,1.3-1c0.5-0.2,1-0.3,1.5-0.3
		c0.7,0,1.3,0.1,1.8,0.4c0.5,0.2,0.9,0.6,1.2,1c0.3,0.4,0.6,0.9,0.7,1.5c0.2,0.6,0.2,1.2,0.2,1.8v0.7h-7.1v-1.3h5.5v-0.1
		c0-0.4-0.1-0.8-0.3-1.2c-0.1-0.4-0.4-0.7-0.7-1c-0.3-0.3-0.8-0.4-1.3-0.4c-0.4,0-0.7,0.1-1,0.2c-0.3,0.2-0.6,0.4-0.8,0.7
		c-0.2,0.3-0.4,0.7-0.5,1.1c-0.1,0.4-0.2,0.9-0.2,1.5v0.4c0,0.5,0.1,0.9,0.2,1.3c0.1,0.4,0.3,0.7,0.6,1c0.2,0.3,0.5,0.5,0.9,0.7
		c0.4,0.2,0.8,0.3,1.2,0.3c0.6,0,1.1-0.1,1.5-0.4c0.4-0.2,0.7-0.5,1-0.9l1,0.8c-0.2,0.3-0.5,0.6-0.8,0.9c-0.3,0.3-0.7,0.5-1.2,0.7
		C154.3,113.1,153.7,113.2,153.1,113.2z M160.3,105v8h-1.6v-9.5h1.6L160.3,105z M163.3,103.4l0,1.5c-0.1,0-0.3,0-0.4-0.1
		c-0.1,0-0.3,0-0.4,0c-0.4,0-0.7,0.1-1,0.2c-0.3,0.1-0.5,0.3-0.7,0.5c-0.2,0.2-0.4,0.5-0.5,0.8c-0.1,0.3-0.2,0.6-0.2,0.9l-0.5,0.3
		c0-0.6,0.1-1.1,0.2-1.6c0.1-0.5,0.3-0.9,0.5-1.3c0.2-0.4,0.5-0.7,0.9-0.9c0.4-0.2,0.8-0.3,1.3-0.3c0.1,0,0.3,0,0.4,0
		C163.1,103.4,163.2,103.4,163.3,103.4z M167.8,111.5l2.6-8h1.7l-3.4,9.5h-1.1L167.8,111.5z M165.7,103.5l2.7,8.1l0.2,1.4h-1.1
		l-3.4-9.5H165.7z M175.4,103.5v9.5h-1.6v-9.5H175.4z M173.7,101c0-0.3,0.1-0.5,0.2-0.7c0.2-0.2,0.4-0.3,0.7-0.3
		c0.3,0,0.5,0.1,0.7,0.3c0.2,0.2,0.3,0.4,0.3,0.7c0,0.3-0.1,0.5-0.3,0.7c-0.2,0.2-0.4,0.3-0.7,0.3c-0.3,0-0.6-0.1-0.7-0.3
		C173.8,101.4,173.7,101.2,173.7,101z M181.9,111.8c0.4,0,0.7-0.1,1.1-0.2c0.3-0.2,0.6-0.4,0.8-0.7c0.2-0.3,0.3-0.6,0.4-1h1.5
		c0,0.6-0.2,1.1-0.6,1.6c-0.3,0.5-0.8,0.9-1.4,1.2c-0.6,0.3-1.2,0.4-1.9,0.4c-0.7,0-1.3-0.1-1.9-0.4c-0.5-0.3-1-0.6-1.3-1
		c-0.3-0.4-0.6-0.9-0.8-1.5c-0.2-0.6-0.3-1.2-0.3-1.8v-0.4c0-0.6,0.1-1.2,0.3-1.8c0.2-0.6,0.4-1.1,0.8-1.5c0.4-0.4,0.8-0.8,1.3-1
		c0.5-0.3,1.2-0.4,1.9-0.4c0.7,0,1.4,0.2,2,0.5c0.6,0.3,1,0.7,1.3,1.2c0.3,0.5,0.5,1.1,0.5,1.8h-1.5c0-0.4-0.1-0.7-0.3-1.1
		c-0.2-0.3-0.4-0.6-0.8-0.8c-0.3-0.2-0.7-0.3-1.1-0.3c-0.5,0-0.9,0.1-1.3,0.3c-0.3,0.2-0.6,0.5-0.8,0.8c-0.2,0.3-0.3,0.7-0.4,1.1
		c-0.1,0.4-0.1,0.8-0.1,1.2v0.4c0,0.4,0,0.8,0.1,1.2c0.1,0.4,0.2,0.8,0.4,1.1c0.2,0.3,0.5,0.6,0.8,0.8
		C180.9,111.7,181.4,111.8,181.9,111.8z M191.4,113.2c-0.7,0-1.3-0.1-1.8-0.3c-0.5-0.2-1-0.5-1.4-1c-0.4-0.4-0.7-0.9-0.9-1.5
		c-0.2-0.6-0.3-1.2-0.3-1.8v-0.4c0-0.8,0.1-1.5,0.3-2.1c0.2-0.6,0.5-1.1,0.9-1.5c0.4-0.4,0.8-0.7,1.3-1c0.5-0.2,1-0.3,1.5-0.3
		c0.7,0,1.3,0.1,1.8,0.4c0.5,0.2,0.9,0.6,1.2,1c0.3,0.4,0.5,0.9,0.7,1.5c0.2,0.6,0.2,1.2,0.2,1.8v0.7H188v-1.3h5.5v-0.1
		c0-0.4-0.1-0.8-0.3-1.2c-0.1-0.4-0.4-0.7-0.7-1c-0.3-0.3-0.8-0.4-1.3-0.4c-0.4,0-0.7,0.1-1,0.2c-0.3,0.2-0.6,0.4-0.8,0.7
		c-0.2,0.3-0.4,0.7-0.5,1.1c-0.1,0.4-0.2,0.9-0.2,1.5v0.4c0,0.5,0.1,0.9,0.2,1.3c0.1,0.4,0.3,0.7,0.6,1c0.2,0.3,0.5,0.5,0.9,0.7
		c0.4,0.2,0.8,0.3,1.2,0.3c0.6,0,1.1-0.1,1.5-0.4c0.4-0.2,0.7-0.5,1-0.9l1,0.8c-0.2,0.3-0.5,0.6-0.8,0.9c-0.3,0.3-0.7,0.5-1.2,0.7
		C192.6,113.1,192,113.2,191.4,113.2z M135,132.9h1.7c-0.1,0.8-0.3,1.5-0.7,2.2c-0.4,0.6-0.9,1.1-1.6,1.5c-0.7,0.4-1.5,0.6-2.6,0.6
		c-0.8,0-1.4-0.1-2-0.4c-0.6-0.3-1.1-0.7-1.6-1.2c-0.4-0.5-0.8-1.1-1-1.9c-0.2-0.7-0.4-1.5-0.4-2.4V130c0-0.9,0.1-1.7,0.4-2.4
		c0.2-0.7,0.6-1.4,1-1.9c0.5-0.5,1-0.9,1.6-1.2c0.6-0.3,1.3-0.4,2.1-0.4c1,0,1.8,0.2,2.5,0.5c0.7,0.4,1.2,0.9,1.6,1.5
		c0.4,0.6,0.6,1.4,0.7,2.2H135c-0.1-0.6-0.2-1.1-0.5-1.5c-0.2-0.4-0.5-0.8-0.9-1c-0.4-0.2-0.9-0.4-1.6-0.4c-0.6,0-1.1,0.1-1.5,0.3
		c-0.4,0.2-0.8,0.5-1.1,0.9c-0.3,0.4-0.5,0.9-0.6,1.4c-0.1,0.6-0.2,1.2-0.2,1.9v1.3c0,0.6,0.1,1.2,0.2,1.8c0.1,0.6,0.3,1,0.6,1.4
		c0.3,0.4,0.6,0.7,1,1c0.4,0.2,0.9,0.4,1.5,0.4c0.7,0,1.3-0.1,1.7-0.3c0.4-0.2,0.8-0.6,1-1C134.7,134,134.9,133.5,135,132.9z
		 M144.4,135.4v-4.9c0-0.4-0.1-0.7-0.2-1c-0.1-0.3-0.4-0.5-0.7-0.6c-0.3-0.2-0.7-0.2-1.1-0.2c-0.4,0-0.8,0.1-1.1,0.2
		c-0.3,0.1-0.5,0.3-0.7,0.6c-0.2,0.2-0.3,0.5-0.3,0.7h-1.6c0-0.3,0.1-0.7,0.3-1c0.2-0.3,0.4-0.6,0.8-0.9c0.3-0.3,0.7-0.5,1.2-0.6
		c0.5-0.2,1-0.2,1.6-0.2c0.7,0,1.3,0.1,1.8,0.4c0.5,0.2,0.9,0.6,1.2,1.1c0.3,0.5,0.5,1.1,0.5,1.8v4.4c0,0.3,0,0.7,0.1,1
		c0.1,0.4,0.1,0.7,0.3,0.9v0.1h-1.7c-0.1-0.2-0.1-0.4-0.2-0.7C144.4,135.9,144.4,135.6,144.4,135.4z M144.6,131.2l0,1.1H143
		c-0.5,0-0.9,0-1.2,0.1c-0.4,0.1-0.7,0.2-0.9,0.3c-0.2,0.1-0.4,0.3-0.6,0.6c-0.1,0.2-0.2,0.5-0.2,0.8c0,0.3,0.1,0.6,0.2,0.8
		c0.1,0.2,0.3,0.4,0.6,0.6c0.3,0.1,0.6,0.2,1,0.2c0.5,0,0.9-0.1,1.3-0.3c0.4-0.2,0.7-0.5,0.9-0.8c0.2-0.3,0.4-0.6,0.4-0.9l0.7,0.8
		c0,0.2-0.2,0.5-0.3,0.8c-0.2,0.3-0.4,0.6-0.7,0.9c-0.3,0.3-0.7,0.5-1.1,0.7c-0.4,0.2-0.9,0.3-1.4,0.3c-0.6,0-1.2-0.1-1.7-0.4
		c-0.5-0.3-0.9-0.6-1.1-1c-0.3-0.4-0.4-0.9-0.4-1.4c0-0.5,0.1-1,0.3-1.3c0.2-0.4,0.5-0.7,0.9-1c0.4-0.3,0.8-0.5,1.4-0.6
		c0.5-0.1,1.1-0.2,1.8-0.2H144.6z M152.5,127.5v1.2h-5.1v-1.2H152.5z M149.1,125.2h1.6v9.5c0,0.3,0.1,0.6,0.1,0.7
		c0.1,0.2,0.2,0.3,0.4,0.3c0.2,0.1,0.3,0.1,0.5,0.1c0.1,0,0.3,0,0.4,0c0.2,0,0.3-0.1,0.3-0.1l0,1.3c-0.1,0-0.3,0.1-0.5,0.1
		c-0.2,0-0.5,0.1-0.7,0.1c-0.4,0-0.8-0.1-1.1-0.2c-0.3-0.2-0.6-0.4-0.8-0.8c-0.2-0.4-0.3-0.9-0.3-1.5V125.2z M160,135.4v-4.9
		c0-0.4-0.1-0.7-0.2-1c-0.1-0.3-0.4-0.5-0.7-0.6c-0.3-0.2-0.7-0.2-1.1-0.2c-0.4,0-0.8,0.1-1.1,0.2c-0.3,0.1-0.5,0.3-0.7,0.6
		c-0.2,0.2-0.3,0.5-0.3,0.7h-1.6c0-0.3,0.1-0.7,0.3-1c0.2-0.3,0.4-0.6,0.8-0.9c0.3-0.3,0.7-0.5,1.2-0.6c0.5-0.2,1-0.2,1.6-0.2
		c0.7,0,1.3,0.1,1.8,0.4c0.5,0.2,0.9,0.6,1.2,1.1c0.3,0.5,0.5,1.1,0.5,1.8v4.4c0,0.3,0,0.7,0.1,1c0.1,0.4,0.1,0.7,0.3,0.9v0.1h-1.7
		c-0.1-0.2-0.1-0.4-0.2-0.7C160.1,135.9,160,135.6,160,135.4z M160.3,131.2l0,1.1h-1.6c-0.5,0-0.9,0-1.2,0.1
		c-0.4,0.1-0.7,0.2-0.9,0.3c-0.2,0.1-0.4,0.3-0.6,0.6c-0.1,0.2-0.2,0.5-0.2,0.8c0,0.3,0.1,0.6,0.2,0.8c0.1,0.2,0.3,0.4,0.6,0.6
		c0.3,0.1,0.6,0.2,1,0.2c0.5,0,0.9-0.1,1.3-0.3c0.4-0.2,0.7-0.5,0.9-0.8c0.2-0.3,0.4-0.6,0.4-0.9l0.7,0.8c0,0.2-0.2,0.5-0.3,0.8
		c-0.2,0.3-0.4,0.6-0.7,0.9c-0.3,0.3-0.7,0.5-1.1,0.7c-0.4,0.2-0.9,0.3-1.4,0.3c-0.6,0-1.2-0.1-1.7-0.4c-0.5-0.3-0.9-0.6-1.1-1
		c-0.3-0.4-0.4-0.9-0.4-1.4c0-0.5,0.1-1,0.3-1.3c0.2-0.4,0.5-0.7,0.9-1c0.4-0.3,0.8-0.5,1.4-0.6c0.5-0.1,1.1-0.2,1.8-0.2H160.3z
		 M166,123.5V137h-1.6v-13.5H166z M168.2,132.4v-0.2c0-0.7,0.1-1.3,0.3-1.9c0.2-0.6,0.5-1.1,0.9-1.5c0.4-0.4,0.8-0.8,1.4-1
		c0.5-0.2,1.1-0.4,1.8-0.4c0.7,0,1.3,0.1,1.8,0.4c0.5,0.2,1,0.6,1.4,1c0.4,0.4,0.7,0.9,0.9,1.5c0.2,0.6,0.3,1.2,0.3,1.9v0.2
		c0,0.7-0.1,1.3-0.3,1.9c-0.2,0.6-0.5,1.1-0.9,1.5c-0.4,0.4-0.8,0.8-1.4,1c-0.5,0.2-1.1,0.4-1.8,0.4s-1.3-0.1-1.8-0.4
		c-0.5-0.2-1-0.6-1.4-1c-0.4-0.4-0.7-1-0.9-1.5C168.3,133.7,168.2,133,168.2,132.4z M169.8,132.1v0.2c0,0.5,0.1,0.9,0.2,1.3
		c0.1,0.4,0.3,0.8,0.5,1.1c0.2,0.3,0.5,0.6,0.9,0.8c0.3,0.2,0.7,0.3,1.2,0.3c0.4,0,0.8-0.1,1.2-0.3c0.3-0.2,0.6-0.4,0.8-0.8
		c0.2-0.3,0.4-0.7,0.5-1.1c0.1-0.4,0.2-0.9,0.2-1.3v-0.2c0-0.5-0.1-0.9-0.2-1.3c-0.1-0.4-0.3-0.8-0.5-1.1c-0.2-0.3-0.5-0.6-0.8-0.8
		c-0.3-0.2-0.7-0.3-1.2-0.3c-0.4,0-0.8,0.1-1.2,0.3c-0.3,0.2-0.6,0.4-0.8,0.8c-0.2,0.3-0.4,0.7-0.5,1.1
		C169.9,131.2,169.8,131.7,169.8,132.1z M185,127.5h1.5v9.3c0,0.8-0.2,1.6-0.5,2.1c-0.3,0.6-0.8,1-1.4,1.3c-0.6,0.3-1.3,0.5-2.1,0.5
		c-0.3,0-0.7-0.1-1.2-0.2c-0.4-0.1-0.9-0.3-1.3-0.5c-0.4-0.2-0.8-0.6-1.1-1l0.9-1c0.4,0.5,0.8,0.8,1.2,1c0.4,0.2,0.9,0.3,1.3,0.3
		c0.5,0,1-0.1,1.3-0.3c0.4-0.2,0.7-0.5,0.9-0.9c0.2-0.4,0.3-0.8,0.3-1.4v-7.3L185,127.5z M178.5,132.4v-0.2c0-0.7,0.1-1.4,0.3-2
		c0.2-0.6,0.4-1.1,0.7-1.5c0.3-0.4,0.7-0.8,1.2-1c0.5-0.2,1-0.4,1.6-0.4c0.6,0,1.1,0.1,1.6,0.3c0.5,0.2,0.8,0.5,1.1,0.9
		c0.3,0.4,0.6,0.9,0.7,1.4c0.2,0.6,0.3,1.2,0.4,1.9v0.8c-0.1,0.7-0.2,1.3-0.4,1.9c-0.2,0.6-0.4,1-0.7,1.4c-0.3,0.4-0.7,0.7-1.1,0.9
		c-0.5,0.2-1,0.3-1.6,0.3c-0.6,0-1.1-0.1-1.5-0.4c-0.5-0.2-0.9-0.6-1.2-1c-0.3-0.4-0.6-0.9-0.8-1.5
		C178.6,133.7,178.5,133,178.5,132.4z M180.1,132.2v0.2c0,0.5,0,0.9,0.1,1.3c0.1,0.4,0.2,0.8,0.4,1.1c0.2,0.3,0.5,0.6,0.8,0.7
		c0.3,0.2,0.7,0.3,1.1,0.3c0.5,0,1-0.1,1.3-0.3c0.4-0.2,0.6-0.5,0.8-0.9c0.2-0.4,0.4-0.8,0.5-1.2v-2.1c-0.1-0.3-0.2-0.6-0.3-0.9
		c-0.1-0.3-0.3-0.6-0.5-0.8c-0.2-0.2-0.5-0.4-0.8-0.6c-0.3-0.1-0.7-0.2-1.1-0.2c-0.4,0-0.8,0.1-1.2,0.3c-0.3,0.2-0.6,0.4-0.8,0.8
		c-0.2,0.3-0.3,0.7-0.4,1.1C180.2,131.2,180.1,131.7,180.1,132.2z M194.8,134.8v-7.3h1.6v9.5h-1.6L194.8,134.8z M195.1,132.8l0.7,0
		c0,0.6-0.1,1.2-0.2,1.8c-0.1,0.5-0.3,1-0.6,1.4c-0.3,0.4-0.7,0.7-1.2,0.9c-0.5,0.2-1.1,0.3-1.7,0.3c-0.5,0-0.9-0.1-1.3-0.2
		c-0.4-0.1-0.7-0.3-1-0.6c-0.3-0.3-0.5-0.6-0.6-1.1c-0.1-0.5-0.2-1-0.2-1.6v-6.1h1.6v6.2c0,0.4,0,0.8,0.1,1.1
		c0.1,0.3,0.2,0.5,0.4,0.7c0.2,0.2,0.4,0.3,0.6,0.3c0.2,0.1,0.4,0.1,0.7,0.1c0.7,0,1.2-0.1,1.6-0.4c0.4-0.3,0.7-0.6,0.9-1.1
		C195,133.9,195.1,133.4,195.1,132.8z M202.9,137.2c-0.7,0-1.3-0.1-1.8-0.3c-0.5-0.2-1-0.5-1.4-1c-0.4-0.4-0.7-0.9-0.9-1.5
		c-0.2-0.6-0.3-1.2-0.3-1.8v-0.4c0-0.8,0.1-1.5,0.3-2.1c0.2-0.6,0.5-1.1,0.9-1.5c0.4-0.4,0.8-0.7,1.3-1c0.5-0.2,1-0.3,1.5-0.3
		c0.7,0,1.3,0.1,1.8,0.4c0.5,0.2,0.9,0.6,1.2,1c0.3,0.4,0.6,0.9,0.7,1.5c0.2,0.6,0.2,1.2,0.2,1.8v0.7h-7.1v-1.3h5.5v-0.1
		c0-0.4-0.1-0.8-0.3-1.2c-0.1-0.4-0.4-0.7-0.7-1c-0.3-0.3-0.8-0.4-1.3-0.4c-0.4,0-0.7,0.1-1,0.2c-0.3,0.2-0.6,0.4-0.8,0.7
		c-0.2,0.3-0.4,0.7-0.5,1.1c-0.1,0.4-0.2,0.9-0.2,1.5v0.4c0,0.5,0.1,0.9,0.2,1.3c0.1,0.4,0.3,0.7,0.6,1c0.2,0.3,0.5,0.5,0.9,0.7
		c0.4,0.2,0.8,0.3,1.2,0.3c0.6,0,1.1-0.1,1.5-0.4c0.4-0.2,0.7-0.5,1-0.9l1,0.8c-0.2,0.3-0.5,0.6-0.8,0.9c-0.3,0.3-0.7,0.5-1.2,0.7
		C204,137.1,203.5,137.2,202.9,137.2z"/>
	<path class="st2" d="M335.8,101.3l-4.2,11.7h-1.7l4.9-12.8h1.1L335.8,101.3z M339.3,113l-4.2-11.7l0-1.1h1.1l4.9,12.8H339.3z
		 M339.1,108.3v1.4h-7.2v-1.4H339.1z M347.5,108h-3.4v-1.4h3.4c0.7,0,1.2-0.1,1.6-0.3s0.7-0.5,0.9-0.9c0.2-0.4,0.3-0.8,0.3-1.3
		c0-0.4-0.1-0.9-0.3-1.2c-0.2-0.4-0.5-0.7-0.9-0.9c-0.4-0.2-0.9-0.4-1.6-0.4h-3V113h-1.7v-12.8h4.7c1,0,1.8,0.2,2.5,0.5
		c0.7,0.3,1.2,0.8,1.5,1.4c0.3,0.6,0.5,1.3,0.5,2c0,0.8-0.2,1.5-0.5,2.1c-0.3,0.6-0.9,1-1.5,1.3C349.3,107.8,348.5,108,347.5,108z
		 M356,100.2V113h-1.7v-12.8H356z M362.2,106.9v1.3h-4.3v-1.3H362.2z M363.8,99.5h1.6v11.7l-0.1,1.8h-1.5V99.5z M371.8,108.2v0.2
		c0,0.7-0.1,1.3-0.2,1.9c-0.2,0.6-0.4,1.1-0.7,1.5c-0.3,0.4-0.7,0.8-1.2,1c-0.5,0.2-1,0.4-1.6,0.4c-0.6,0-1.1-0.1-1.6-0.3
		c-0.5-0.2-0.8-0.5-1.1-0.9c-0.3-0.4-0.6-0.9-0.7-1.4c-0.2-0.6-0.3-1.2-0.4-1.9v-0.8c0.1-0.7,0.2-1.3,0.4-1.9c0.2-0.6,0.4-1,0.7-1.4
		c0.3-0.4,0.7-0.7,1.1-0.9c0.5-0.2,1-0.3,1.6-0.3c0.6,0,1.1,0.1,1.6,0.4c0.5,0.2,0.8,0.6,1.2,1c0.3,0.4,0.6,0.9,0.7,1.5
		C371.7,106.8,371.8,107.4,371.8,108.2z M370.2,108.4v-0.2c0-0.5,0-0.9-0.1-1.3c-0.1-0.4-0.2-0.8-0.4-1.1c-0.2-0.3-0.4-0.6-0.8-0.8
		c-0.3-0.2-0.7-0.3-1.2-0.3c-0.4,0-0.8,0.1-1.1,0.2c-0.3,0.1-0.6,0.3-0.8,0.6c-0.2,0.2-0.4,0.5-0.5,0.8c-0.1,0.3-0.2,0.6-0.3,0.9
		v2.1c0.1,0.4,0.2,0.8,0.5,1.2c0.2,0.4,0.5,0.7,0.9,0.9c0.4,0.2,0.8,0.4,1.3,0.4c0.4,0,0.8-0.1,1.1-0.3c0.3-0.2,0.6-0.4,0.8-0.7
		c0.2-0.3,0.3-0.7,0.4-1.1C370.1,109.3,370.2,108.8,370.2,108.4z M379.5,111.4v-4.9c0-0.4-0.1-0.7-0.2-1c-0.1-0.3-0.4-0.5-0.7-0.6
		c-0.3-0.2-0.7-0.2-1.1-0.2c-0.4,0-0.8,0.1-1.1,0.2c-0.3,0.1-0.5,0.3-0.7,0.6c-0.2,0.2-0.3,0.5-0.3,0.7h-1.6c0-0.3,0.1-0.7,0.3-1
		c0.2-0.3,0.4-0.6,0.8-0.9c0.3-0.3,0.7-0.5,1.2-0.6c0.5-0.2,1-0.2,1.6-0.2c0.7,0,1.3,0.1,1.8,0.4c0.5,0.2,0.9,0.6,1.2,1.1
		c0.3,0.5,0.5,1.1,0.5,1.8v4.4c0,0.3,0,0.7,0.1,1c0.1,0.4,0.1,0.7,0.3,0.9v0.1h-1.7c-0.1-0.2-0.1-0.4-0.2-0.7
		C379.5,111.9,379.5,111.6,379.5,111.4z M379.8,107.2l0,1.1h-1.6c-0.5,0-0.9,0-1.2,0.1c-0.4,0.1-0.7,0.2-0.9,0.3
		c-0.2,0.1-0.4,0.3-0.6,0.6c-0.1,0.2-0.2,0.5-0.2,0.8c0,0.3,0.1,0.6,0.2,0.8c0.1,0.2,0.3,0.4,0.6,0.6c0.3,0.1,0.6,0.2,1,0.2
		c0.5,0,0.9-0.1,1.3-0.3c0.4-0.2,0.7-0.5,0.9-0.8c0.2-0.3,0.4-0.6,0.4-0.9l0.7,0.8c0,0.2-0.2,0.5-0.3,0.8c-0.2,0.3-0.4,0.6-0.7,0.9
		c-0.3,0.3-0.7,0.5-1.1,0.7c-0.4,0.2-0.9,0.3-1.4,0.3c-0.6,0-1.2-0.1-1.7-0.4c-0.5-0.3-0.9-0.6-1.1-1c-0.3-0.4-0.4-0.9-0.4-1.4
		c0-0.5,0.1-1,0.3-1.3c0.2-0.4,0.5-0.7,0.9-1c0.4-0.3,0.8-0.5,1.4-0.6c0.5-0.1,1.1-0.2,1.8-0.2H379.8z M389.2,110.5
		c0-0.2-0.1-0.5-0.2-0.7c-0.1-0.2-0.3-0.4-0.6-0.6c-0.3-0.2-0.8-0.3-1.4-0.4c-0.5-0.1-1-0.2-1.4-0.4c-0.4-0.2-0.8-0.3-1.1-0.6
		c-0.3-0.2-0.5-0.5-0.7-0.8c-0.2-0.3-0.2-0.6-0.2-1c0-0.4,0.1-0.7,0.2-1.1c0.2-0.3,0.4-0.6,0.7-0.9c0.3-0.3,0.7-0.5,1.1-0.6
		c0.4-0.1,0.9-0.2,1.4-0.2c0.8,0,1.4,0.1,2,0.4c0.5,0.3,1,0.6,1.2,1.1c0.3,0.4,0.4,0.9,0.4,1.5h-1.6c0-0.3-0.1-0.5-0.2-0.8
		c-0.2-0.3-0.4-0.5-0.7-0.6c-0.3-0.2-0.7-0.2-1.1-0.2c-0.5,0-0.8,0.1-1.1,0.2c-0.3,0.1-0.5,0.3-0.6,0.5c-0.1,0.2-0.2,0.4-0.2,0.7
		c0,0.2,0,0.3,0.1,0.5c0.1,0.1,0.2,0.3,0.3,0.4c0.2,0.1,0.4,0.2,0.7,0.3c0.3,0.1,0.7,0.2,1.1,0.3c0.8,0.2,1.4,0.4,1.9,0.6
		c0.5,0.2,0.9,0.5,1.1,0.9c0.2,0.4,0.4,0.8,0.4,1.3c0,0.4-0.1,0.8-0.3,1.1c-0.2,0.3-0.4,0.6-0.7,0.9c-0.3,0.2-0.7,0.4-1.2,0.6
		c-0.4,0.1-0.9,0.2-1.5,0.2c-0.8,0-1.5-0.1-2.1-0.4c-0.6-0.3-1-0.7-1.3-1.2c-0.3-0.5-0.4-1-0.4-1.5h1.6c0,0.4,0.2,0.8,0.4,1.1
		c0.2,0.3,0.5,0.4,0.9,0.6c0.3,0.1,0.7,0.2,1,0.2c0.4,0,0.8-0.1,1.1-0.2c0.3-0.1,0.5-0.3,0.7-0.5C389.1,111,389.2,110.7,389.2,110.5
		z M396.9,113.2c-0.7,0-1.3-0.1-1.8-0.3c-0.5-0.2-1-0.5-1.4-1c-0.4-0.4-0.7-0.9-0.9-1.5c-0.2-0.6-0.3-1.2-0.3-1.8v-0.4
		c0-0.8,0.1-1.5,0.3-2.1c0.2-0.6,0.5-1.1,0.9-1.5c0.4-0.4,0.8-0.7,1.3-1c0.5-0.2,1-0.3,1.5-0.3c0.7,0,1.3,0.1,1.8,0.4
		c0.5,0.2,0.9,0.6,1.2,1c0.3,0.4,0.6,0.9,0.7,1.5c0.2,0.6,0.2,1.2,0.2,1.8v0.7h-7.1v-1.3h5.5v-0.1c0-0.4-0.1-0.8-0.3-1.2
		c-0.1-0.4-0.4-0.7-0.7-1c-0.3-0.3-0.8-0.4-1.3-0.4c-0.4,0-0.7,0.1-1,0.2c-0.3,0.2-0.6,0.4-0.8,0.7c-0.2,0.3-0.4,0.7-0.5,1.1
		c-0.1,0.4-0.2,0.9-0.2,1.5v0.4c0,0.5,0.1,0.9,0.2,1.3c0.1,0.4,0.3,0.7,0.6,1c0.2,0.3,0.5,0.5,0.9,0.7c0.4,0.2,0.8,0.3,1.2,0.3
		c0.6,0,1.1-0.1,1.5-0.4c0.4-0.2,0.7-0.5,1-0.9l1,0.8c-0.2,0.3-0.5,0.6-0.8,0.9c-0.3,0.3-0.7,0.5-1.2,0.7
		C398.1,113.1,397.5,113.2,396.9,113.2z M408.5,111.2V99.5h1.6V113h-1.5L408.5,111.2z M402.1,108.4v-0.2c0-0.7,0.1-1.4,0.3-2
		c0.2-0.6,0.4-1.1,0.8-1.5c0.3-0.4,0.7-0.8,1.2-1c0.5-0.2,1-0.4,1.5-0.4c0.6,0,1.1,0.1,1.6,0.3c0.5,0.2,0.8,0.5,1.1,0.9
		c0.3,0.4,0.6,0.9,0.7,1.4c0.2,0.6,0.3,1.2,0.4,1.9v0.8c-0.1,0.7-0.2,1.3-0.4,1.9c-0.2,0.6-0.4,1-0.7,1.4c-0.3,0.4-0.7,0.7-1.1,0.9
		c-0.5,0.2-1,0.3-1.6,0.3c-0.6,0-1.1-0.1-1.5-0.4c-0.5-0.2-0.9-0.6-1.2-1c-0.3-0.4-0.6-0.9-0.8-1.5
		C402.2,109.7,402.1,109,402.1,108.4z M403.7,108.2v0.2c0,0.5,0,0.9,0.1,1.3c0.1,0.4,0.3,0.8,0.5,1.1c0.2,0.3,0.5,0.6,0.8,0.7
		c0.3,0.2,0.7,0.3,1.1,0.3c0.5,0,1-0.1,1.3-0.3c0.4-0.2,0.6-0.5,0.8-0.9s0.4-0.8,0.5-1.2v-2.1c-0.1-0.3-0.2-0.6-0.3-0.9
		c-0.1-0.3-0.3-0.6-0.5-0.8c-0.2-0.2-0.5-0.4-0.8-0.6c-0.3-0.1-0.7-0.2-1.1-0.2c-0.4,0-0.8,0.1-1.2,0.3c-0.3,0.2-0.6,0.4-0.8,0.8
		c-0.2,0.3-0.4,0.7-0.5,1.1C403.8,107.2,403.7,107.7,403.7,108.2z M330.6,124.2V137h-1.7v-12.8H330.6z M335.1,129.5v7.5h-1.6v-9.5
		h1.5L335.1,129.5z M334.7,131.9l-0.7,0c0-0.6,0.1-1.3,0.3-1.8c0.2-0.6,0.5-1,0.8-1.5c0.3-0.4,0.7-0.7,1.2-0.9
		c0.5-0.2,1-0.3,1.6-0.3c0.5,0,0.9,0.1,1.3,0.2c0.4,0.1,0.7,0.3,1,0.6c0.3,0.3,0.5,0.6,0.6,1.1c0.1,0.4,0.2,1,0.2,1.6v6.2h-1.6v-6.2
		c0-0.5-0.1-0.9-0.2-1.2c-0.1-0.3-0.4-0.5-0.6-0.7c-0.3-0.1-0.6-0.2-1-0.2c-0.4,0-0.8,0.1-1.1,0.3c-0.3,0.2-0.6,0.4-0.9,0.7
		c-0.2,0.3-0.4,0.6-0.6,1C334.7,131.1,334.7,131.5,334.7,131.9z M347.4,127.5v1.2h-5.1v-1.2H347.4z M344,125.2h1.6v9.5
		c0,0.3,0,0.6,0.1,0.7c0.1,0.2,0.2,0.3,0.4,0.3c0.2,0.1,0.3,0.1,0.5,0.1c0.1,0,0.3,0,0.4,0c0.2,0,0.3-0.1,0.3-0.1l0,1.3
		c-0.1,0-0.3,0.1-0.5,0.1c-0.2,0-0.5,0.1-0.7,0.1c-0.4,0-0.8-0.1-1.1-0.2c-0.3-0.2-0.6-0.4-0.8-0.8c-0.2-0.4-0.3-0.9-0.3-1.5V125.2z
		 M353.2,137.2c-0.7,0-1.3-0.1-1.8-0.3c-0.5-0.2-1-0.5-1.4-1c-0.4-0.4-0.7-0.9-0.9-1.5c-0.2-0.6-0.3-1.2-0.3-1.8v-0.4
		c0-0.8,0.1-1.5,0.3-2.1c0.2-0.6,0.5-1.1,0.9-1.5c0.4-0.4,0.8-0.7,1.3-1c0.5-0.2,1-0.3,1.5-0.3c0.7,0,1.3,0.1,1.8,0.4
		c0.5,0.2,0.9,0.6,1.2,1c0.3,0.4,0.6,0.9,0.7,1.5c0.2,0.6,0.2,1.2,0.2,1.8v0.7h-7.1v-1.3h5.5v-0.1c0-0.4-0.1-0.8-0.3-1.2
		c-0.1-0.4-0.4-0.7-0.7-1c-0.3-0.3-0.8-0.4-1.3-0.4c-0.4,0-0.7,0.1-1,0.2c-0.3,0.2-0.6,0.4-0.8,0.7c-0.2,0.3-0.4,0.7-0.5,1.1
		c-0.1,0.4-0.2,0.9-0.2,1.5v0.4c0,0.5,0.1,0.9,0.2,1.3c0.1,0.4,0.3,0.7,0.6,1c0.2,0.3,0.5,0.5,0.9,0.7c0.4,0.2,0.8,0.3,1.2,0.3
		c0.6,0,1.1-0.1,1.5-0.4c0.4-0.2,0.7-0.5,1-0.9l1,0.8c-0.2,0.3-0.5,0.6-0.8,0.9c-0.3,0.3-0.7,0.5-1.2,0.7
		C354.4,137.1,353.8,137.2,353.2,137.2z M365,127.5h1.5v9.3c0,0.8-0.2,1.6-0.5,2.1c-0.3,0.6-0.8,1-1.4,1.3c-0.6,0.3-1.3,0.5-2.1,0.5
		c-0.3,0-0.7-0.1-1.2-0.2c-0.4-0.1-0.9-0.3-1.3-0.5c-0.4-0.2-0.8-0.6-1.1-1l0.9-1c0.4,0.5,0.8,0.8,1.2,1c0.4,0.2,0.9,0.3,1.3,0.3
		c0.5,0,1-0.1,1.3-0.3c0.4-0.2,0.7-0.5,0.9-0.9c0.2-0.4,0.3-0.8,0.3-1.4v-7.3L365,127.5z M358.4,132.4v-0.2c0-0.7,0.1-1.4,0.3-2
		c0.2-0.6,0.4-1.1,0.7-1.5c0.3-0.4,0.7-0.8,1.2-1c0.5-0.2,1-0.4,1.6-0.4c0.6,0,1.1,0.1,1.6,0.3c0.5,0.2,0.8,0.5,1.1,0.9
		c0.3,0.4,0.6,0.9,0.7,1.4c0.2,0.6,0.3,1.2,0.4,1.9v0.8c-0.1,0.7-0.2,1.3-0.4,1.9c-0.2,0.6-0.4,1-0.7,1.4c-0.3,0.4-0.7,0.7-1.1,0.9
		c-0.5,0.2-1,0.3-1.6,0.3c-0.6,0-1.1-0.1-1.5-0.4c-0.5-0.2-0.9-0.6-1.2-1c-0.3-0.4-0.6-0.9-0.8-1.5
		C358.5,133.7,358.4,133,358.4,132.4z M360.1,132.2v0.2c0,0.5,0,0.9,0.1,1.3c0.1,0.4,0.2,0.8,0.4,1.1c0.2,0.3,0.5,0.6,0.8,0.7
		c0.3,0.2,0.7,0.3,1.1,0.3c0.5,0,1-0.1,1.3-0.3c0.4-0.2,0.6-0.5,0.8-0.9c0.2-0.4,0.4-0.8,0.5-1.2v-2.1c-0.1-0.3-0.2-0.6-0.3-0.9
		c-0.1-0.3-0.3-0.6-0.5-0.8c-0.2-0.2-0.5-0.4-0.8-0.6c-0.3-0.1-0.7-0.2-1.1-0.2c-0.4,0-0.8,0.1-1.2,0.3c-0.3,0.2-0.6,0.4-0.8,0.8
		c-0.2,0.3-0.3,0.7-0.4,1.1C360.1,131.2,360.1,131.7,360.1,132.2z M370.6,129v8h-1.6v-9.5h1.6L370.6,129z M373.5,127.4l0,1.5
		c-0.1,0-0.3,0-0.4-0.1c-0.1,0-0.3,0-0.4,0c-0.4,0-0.7,0.1-1,0.2c-0.3,0.1-0.5,0.3-0.7,0.5s-0.4,0.5-0.5,0.8
		c-0.1,0.3-0.2,0.6-0.2,0.9l-0.5,0.3c0-0.6,0.1-1.1,0.2-1.6c0.1-0.5,0.3-0.9,0.5-1.3c0.2-0.4,0.5-0.7,0.9-0.9
		c0.4-0.2,0.8-0.3,1.3-0.3c0.1,0,0.3,0,0.4,0C373.4,127.4,373.5,127.4,373.5,127.4z M380.3,135.4v-4.9c0-0.4-0.1-0.7-0.2-1
		c-0.1-0.3-0.4-0.5-0.7-0.6c-0.3-0.2-0.7-0.2-1.1-0.2c-0.4,0-0.8,0.1-1.1,0.2c-0.3,0.1-0.5,0.3-0.7,0.6c-0.2,0.2-0.3,0.5-0.3,0.7
		h-1.6c0-0.3,0.1-0.7,0.3-1c0.2-0.3,0.4-0.6,0.8-0.9c0.3-0.3,0.7-0.5,1.2-0.6c0.5-0.2,1-0.2,1.6-0.2c0.7,0,1.3,0.1,1.8,0.4
		c0.5,0.2,0.9,0.6,1.2,1.1c0.3,0.5,0.5,1.1,0.5,1.8v4.4c0,0.3,0,0.7,0.1,1c0.1,0.4,0.1,0.7,0.3,0.9v0.1h-1.7
		c-0.1-0.2-0.1-0.4-0.2-0.7C380.3,135.9,380.3,135.6,380.3,135.4z M380.6,131.2l0,1.1h-1.6c-0.5,0-0.9,0-1.2,0.1
		c-0.4,0.1-0.7,0.2-0.9,0.3c-0.2,0.1-0.4,0.3-0.6,0.6c-0.1,0.2-0.2,0.5-0.2,0.8c0,0.3,0.1,0.6,0.2,0.8c0.1,0.2,0.3,0.4,0.6,0.6
		c0.3,0.1,0.6,0.2,1,0.2c0.5,0,0.9-0.1,1.3-0.3c0.4-0.2,0.7-0.5,0.9-0.8c0.2-0.3,0.4-0.6,0.4-0.9l0.7,0.8c0,0.2-0.2,0.5-0.3,0.8
		c-0.2,0.3-0.4,0.6-0.7,0.9c-0.3,0.3-0.7,0.5-1.1,0.7c-0.4,0.2-0.9,0.3-1.4,0.3c-0.6,0-1.2-0.1-1.7-0.4c-0.5-0.3-0.9-0.6-1.1-1
		c-0.3-0.4-0.4-0.9-0.4-1.4c0-0.5,0.1-1,0.3-1.3c0.2-0.4,0.5-0.7,0.9-1c0.4-0.3,0.8-0.5,1.4-0.6c0.5-0.1,1.1-0.2,1.8-0.2H380.6z
		 M388.4,127.5v1.2h-5.1v-1.2H388.4z M385,125.2h1.6v9.5c0,0.3,0,0.6,0.1,0.7c0.1,0.2,0.2,0.3,0.4,0.3c0.2,0.1,0.3,0.1,0.5,0.1
		c0.1,0,0.3,0,0.4,0c0.2,0,0.3-0.1,0.3-0.1l0,1.3c-0.1,0-0.3,0.1-0.5,0.1c-0.2,0-0.5,0.1-0.7,0.1c-0.4,0-0.8-0.1-1.1-0.2
		c-0.3-0.2-0.6-0.4-0.8-0.8c-0.2-0.4-0.3-0.9-0.3-1.5V125.2z M392.1,127.5v9.5h-1.6v-9.5H392.1z M390.4,125c0-0.3,0.1-0.5,0.2-0.7
		c0.2-0.2,0.4-0.3,0.7-0.3c0.3,0,0.5,0.1,0.7,0.3c0.2,0.2,0.3,0.4,0.3,0.7c0,0.3-0.1,0.5-0.3,0.7c-0.2,0.2-0.4,0.3-0.7,0.3
		c-0.3,0-0.6-0.1-0.7-0.3C390.4,125.4,390.4,125.2,390.4,125z M394.3,132.4v-0.2c0-0.7,0.1-1.3,0.3-1.9c0.2-0.6,0.5-1.1,0.9-1.5
		c0.4-0.4,0.8-0.8,1.4-1c0.5-0.2,1.1-0.4,1.8-0.4c0.7,0,1.3,0.1,1.8,0.4c0.5,0.2,1,0.6,1.4,1c0.4,0.4,0.7,0.9,0.9,1.5
		c0.2,0.6,0.3,1.2,0.3,1.9v0.2c0,0.7-0.1,1.3-0.3,1.9s-0.5,1.1-0.9,1.5c-0.4,0.4-0.8,0.8-1.4,1c-0.5,0.2-1.1,0.4-1.8,0.4
		s-1.3-0.1-1.8-0.4c-0.5-0.2-1-0.6-1.4-1c-0.4-0.4-0.7-1-0.9-1.5C394.4,133.7,394.3,133,394.3,132.4z M395.9,132.1v0.2
		c0,0.5,0.1,0.9,0.2,1.3c0.1,0.4,0.3,0.8,0.5,1.1c0.2,0.3,0.5,0.6,0.9,0.8c0.3,0.2,0.7,0.3,1.2,0.3c0.4,0,0.8-0.1,1.2-0.3
		c0.3-0.2,0.6-0.4,0.8-0.8c0.2-0.3,0.4-0.7,0.5-1.1c0.1-0.4,0.2-0.9,0.2-1.3v-0.2c0-0.5-0.1-0.9-0.2-1.3c-0.1-0.4-0.3-0.8-0.5-1.1
		c-0.2-0.3-0.5-0.6-0.8-0.8c-0.3-0.2-0.7-0.3-1.2-0.3c-0.4,0-0.8,0.1-1.2,0.3c-0.3,0.2-0.6,0.4-0.8,0.8c-0.2,0.3-0.4,0.7-0.5,1.1
		C396,131.2,395.9,131.7,395.9,132.1z M406.6,129.5v7.5H405v-9.5h1.5L406.6,129.5z M406.2,131.9l-0.7,0c0-0.6,0.1-1.3,0.3-1.8
		c0.2-0.6,0.5-1,0.8-1.5c0.3-0.4,0.7-0.7,1.2-0.9c0.5-0.2,1-0.3,1.6-0.3c0.5,0,0.9,0.1,1.3,0.2c0.4,0.1,0.7,0.3,1,0.6
		c0.3,0.3,0.5,0.6,0.6,1.1c0.1,0.4,0.2,1,0.2,1.6v6.2h-1.6v-6.2c0-0.5-0.1-0.9-0.2-1.2c-0.1-0.3-0.4-0.5-0.6-0.7
		c-0.3-0.1-0.6-0.2-1-0.2c-0.4,0-0.8,0.1-1.1,0.3c-0.3,0.2-0.6,0.4-0.9,0.7c-0.2,0.3-0.4,0.6-0.6,1
		C406.3,131.1,406.2,131.5,406.2,131.9z"/>
	<path class="st2" d="M536.3,109.8c0-0.3,0-0.6-0.1-0.8c-0.1-0.2-0.2-0.4-0.5-0.6c-0.2-0.2-0.5-0.4-0.9-0.5
		c-0.4-0.2-0.9-0.3-1.5-0.5c-0.6-0.2-1.2-0.4-1.7-0.6c-0.5-0.2-0.9-0.5-1.3-0.8c-0.4-0.3-0.6-0.6-0.8-1c-0.2-0.4-0.3-0.8-0.3-1.3
		c0-0.5,0.1-1,0.3-1.4c0.2-0.4,0.5-0.8,0.9-1.1c0.4-0.3,0.8-0.6,1.4-0.7c0.5-0.2,1.1-0.3,1.8-0.3c1,0,1.8,0.2,2.4,0.6
		c0.7,0.4,1.2,0.8,1.5,1.4c0.4,0.6,0.5,1.2,0.5,1.9h-1.7c0-0.5-0.1-0.9-0.3-1.3c-0.2-0.4-0.5-0.7-0.9-0.9c-0.4-0.2-0.9-0.3-1.6-0.3
		c-0.6,0-1.1,0.1-1.5,0.3c-0.4,0.2-0.7,0.4-0.9,0.7c-0.2,0.3-0.3,0.7-0.3,1.1c0,0.3,0.1,0.5,0.2,0.7c0.1,0.2,0.3,0.4,0.5,0.6
		c0.2,0.2,0.6,0.4,0.9,0.5c0.4,0.2,0.8,0.3,1.4,0.5c0.7,0.2,1.4,0.4,1.9,0.7c0.5,0.3,1,0.5,1.3,0.9c0.3,0.3,0.6,0.7,0.8,1.1
		c0.2,0.4,0.3,0.8,0.3,1.3c0,0.5-0.1,1-0.3,1.4s-0.5,0.8-0.9,1.1c-0.4,0.3-0.9,0.5-1.4,0.7c-0.5,0.2-1.2,0.2-1.8,0.2
		c-0.6,0-1.2-0.1-1.7-0.2c-0.6-0.2-1.1-0.4-1.6-0.7c-0.5-0.3-0.8-0.7-1.1-1.2c-0.3-0.5-0.4-1-0.4-1.7h1.7c0,0.4,0.1,0.8,0.3,1.1
		c0.2,0.3,0.4,0.6,0.7,0.8c0.3,0.2,0.6,0.4,1,0.5c0.4,0.1,0.8,0.1,1.2,0.1c0.6,0,1.1-0.1,1.5-0.2c0.4-0.2,0.7-0.4,0.9-0.7
		C536.2,110.5,536.3,110.2,536.3,109.8z M543.9,113.2c-0.7,0-1.3-0.1-1.8-0.3c-0.5-0.2-1-0.5-1.4-1c-0.4-0.4-0.7-0.9-0.9-1.5
		c-0.2-0.6-0.3-1.2-0.3-1.8v-0.4c0-0.8,0.1-1.5,0.3-2.1c0.2-0.6,0.5-1.1,0.9-1.5c0.4-0.4,0.8-0.7,1.3-1c0.5-0.2,1-0.3,1.5-0.3
		c0.7,0,1.3,0.1,1.8,0.4c0.5,0.2,0.9,0.6,1.2,1c0.3,0.4,0.6,0.9,0.7,1.5c0.2,0.6,0.2,1.2,0.2,1.8v0.7h-7.1v-1.3h5.5v-0.1
		c0-0.4-0.1-0.8-0.3-1.2c-0.1-0.4-0.4-0.7-0.7-1c-0.3-0.3-0.8-0.4-1.3-0.4c-0.4,0-0.7,0.1-1,0.2c-0.3,0.2-0.6,0.4-0.8,0.7
		c-0.2,0.3-0.4,0.7-0.5,1.1c-0.1,0.4-0.2,0.9-0.2,1.5v0.4c0,0.5,0.1,0.9,0.2,1.3c0.1,0.4,0.3,0.7,0.6,1c0.2,0.3,0.5,0.5,0.9,0.7
		c0.4,0.2,0.8,0.3,1.2,0.3c0.6,0,1.1-0.1,1.5-0.4c0.4-0.2,0.7-0.5,1-0.9l1,0.8c-0.2,0.3-0.5,0.6-0.8,0.9c-0.3,0.3-0.7,0.5-1.2,0.7
		C545,113.1,544.5,113.2,543.9,113.2z M551.2,99.5V113h-1.6V99.5H551.2z M556.3,113h-1.6v-10.5c0-0.7,0.1-1.3,0.4-1.7
		c0.3-0.5,0.6-0.8,1.1-1.1c0.5-0.2,1-0.4,1.7-0.4c0.2,0,0.4,0,0.6,0c0.2,0,0.4,0.1,0.6,0.1l-0.1,1.3c-0.1,0-0.3,0-0.4-0.1
		c-0.2,0-0.3,0-0.5,0c-0.3,0-0.6,0.1-0.9,0.2c-0.2,0.1-0.4,0.3-0.6,0.6c-0.1,0.3-0.2,0.6-0.2,1V113z M558.3,103.5v1.2h-5.2v-1.2
		H558.3z M563.5,106.9v1.3h-4.3v-1.3H563.5z M570.6,110.5c0-0.2-0.1-0.5-0.2-0.7c-0.1-0.2-0.3-0.4-0.6-0.6c-0.3-0.2-0.8-0.3-1.4-0.4
		c-0.5-0.1-1-0.2-1.4-0.4c-0.4-0.2-0.8-0.3-1.1-0.6c-0.3-0.2-0.5-0.5-0.7-0.8c-0.2-0.3-0.2-0.6-0.2-1c0-0.4,0.1-0.7,0.2-1.1
		c0.2-0.3,0.4-0.6,0.7-0.9c0.3-0.3,0.7-0.5,1.1-0.6c0.4-0.1,0.9-0.2,1.5-0.2c0.8,0,1.4,0.1,2,0.4c0.5,0.3,1,0.6,1.2,1.1
		c0.3,0.4,0.4,0.9,0.4,1.5h-1.6c0-0.3-0.1-0.5-0.2-0.8c-0.2-0.3-0.4-0.5-0.7-0.6c-0.3-0.2-0.7-0.2-1.1-0.2c-0.5,0-0.8,0.1-1.1,0.2
		c-0.3,0.1-0.5,0.3-0.6,0.5c-0.1,0.2-0.2,0.4-0.2,0.7c0,0.2,0,0.3,0.1,0.5c0.1,0.1,0.2,0.3,0.3,0.4c0.2,0.1,0.4,0.2,0.7,0.3
		c0.3,0.1,0.7,0.2,1.1,0.3c0.8,0.2,1.4,0.4,1.9,0.6c0.5,0.2,0.9,0.5,1.1,0.9c0.2,0.4,0.4,0.8,0.4,1.3c0,0.4-0.1,0.8-0.3,1.1
		c-0.2,0.3-0.4,0.6-0.7,0.9c-0.3,0.2-0.7,0.4-1.2,0.6c-0.4,0.1-0.9,0.2-1.5,0.2c-0.8,0-1.5-0.1-2.1-0.4c-0.6-0.3-1-0.7-1.3-1.2
		c-0.3-0.5-0.4-1-0.4-1.5h1.6c0,0.4,0.2,0.8,0.4,1.1c0.2,0.3,0.5,0.4,0.9,0.6c0.3,0.1,0.7,0.2,1,0.2c0.4,0,0.8-0.1,1.1-0.2
		c0.3-0.1,0.5-0.3,0.7-0.5S570.6,110.7,570.6,110.5z M578.3,113.2c-0.7,0-1.3-0.1-1.8-0.3c-0.5-0.2-1-0.5-1.4-1
		c-0.4-0.4-0.7-0.9-0.9-1.5c-0.2-0.6-0.3-1.2-0.3-1.8v-0.4c0-0.8,0.1-1.5,0.3-2.1c0.2-0.6,0.5-1.1,0.9-1.5c0.4-0.4,0.8-0.7,1.3-1
		c0.5-0.2,1-0.3,1.5-0.3c0.7,0,1.3,0.1,1.8,0.4c0.5,0.2,0.9,0.6,1.2,1c0.3,0.4,0.6,0.9,0.7,1.5c0.2,0.6,0.2,1.2,0.2,1.8v0.7h-7.1
		v-1.3h5.5v-0.1c0-0.4-0.1-0.8-0.3-1.2c-0.1-0.4-0.4-0.7-0.7-1c-0.3-0.3-0.8-0.4-1.3-0.4c-0.4,0-0.7,0.1-1,0.2
		c-0.3,0.2-0.6,0.4-0.8,0.7c-0.2,0.3-0.4,0.7-0.5,1.1c-0.1,0.4-0.2,0.9-0.2,1.5v0.4c0,0.5,0.1,0.9,0.2,1.3c0.1,0.4,0.3,0.7,0.6,1
		c0.2,0.3,0.5,0.5,0.9,0.7c0.4,0.2,0.8,0.3,1.2,0.3c0.6,0,1.1-0.1,1.5-0.4c0.4-0.2,0.7-0.5,1-0.9l1,0.8c-0.2,0.3-0.5,0.6-0.8,0.9
		c-0.3,0.3-0.7,0.5-1.2,0.7C579.5,113.1,579,113.2,578.3,113.2z M585.5,105v8h-1.6v-9.5h1.6L585.5,105z M588.5,103.4l0,1.5
		c-0.1,0-0.3,0-0.4-0.1c-0.1,0-0.3,0-0.4,0c-0.4,0-0.7,0.1-1,0.2c-0.3,0.1-0.5,0.3-0.7,0.5c-0.2,0.2-0.4,0.5-0.5,0.8
		c-0.1,0.3-0.2,0.6-0.2,0.9l-0.5,0.3c0-0.6,0.1-1.1,0.2-1.6c0.1-0.5,0.3-0.9,0.5-1.3c0.2-0.4,0.5-0.7,0.9-0.9
		c0.4-0.2,0.8-0.3,1.3-0.3c0.1,0,0.3,0,0.4,0C588.4,103.4,588.5,103.4,588.5,103.4z M593.1,111.5l2.6-8h1.7l-3.4,9.5h-1.1
		L593.1,111.5z M590.9,103.5l2.7,8.1l0.2,1.4h-1.1l-3.4-9.5H590.9z M600.7,103.5v9.5H599v-9.5H600.7z M598.9,101
		c0-0.3,0.1-0.5,0.2-0.7c0.2-0.2,0.4-0.3,0.7-0.3c0.3,0,0.5,0.1,0.7,0.3c0.2,0.2,0.3,0.4,0.3,0.7c0,0.3-0.1,0.5-0.3,0.7
		c-0.2,0.2-0.4,0.3-0.7,0.3c-0.3,0-0.6-0.1-0.7-0.3C599,101.4,598.9,101.2,598.9,101z M607.1,111.8c0.4,0,0.7-0.1,1.1-0.2
		c0.3-0.2,0.6-0.4,0.8-0.7c0.2-0.3,0.3-0.6,0.4-1h1.5c0,0.6-0.2,1.1-0.6,1.6c-0.3,0.5-0.8,0.9-1.4,1.2c-0.6,0.3-1.2,0.4-1.9,0.4
		c-0.7,0-1.3-0.1-1.9-0.4c-0.5-0.3-1-0.6-1.3-1c-0.3-0.4-0.6-0.9-0.8-1.5c-0.2-0.6-0.3-1.2-0.3-1.8v-0.4c0-0.6,0.1-1.2,0.3-1.8
		c0.2-0.6,0.4-1.1,0.8-1.5c0.4-0.4,0.8-0.8,1.3-1c0.5-0.3,1.2-0.4,1.9-0.4c0.7,0,1.4,0.2,2,0.5c0.6,0.3,1,0.7,1.3,1.2
		c0.3,0.5,0.5,1.1,0.5,1.8h-1.5c0-0.4-0.1-0.7-0.3-1.1c-0.2-0.3-0.4-0.6-0.8-0.8c-0.3-0.2-0.7-0.3-1.1-0.3c-0.5,0-0.9,0.1-1.3,0.3
		c-0.3,0.2-0.6,0.5-0.8,0.8c-0.2,0.3-0.3,0.7-0.4,1.1c-0.1,0.4-0.1,0.8-0.1,1.2v0.4c0,0.4,0,0.8,0.1,1.2c0.1,0.4,0.2,0.8,0.4,1.1
		c0.2,0.3,0.5,0.6,0.8,0.8C606.2,111.7,606.6,111.8,607.1,111.8z M616.6,113.2c-0.7,0-1.3-0.1-1.8-0.3c-0.5-0.2-1-0.5-1.4-1
		c-0.4-0.4-0.7-0.9-0.9-1.5c-0.2-0.6-0.3-1.2-0.3-1.8v-0.4c0-0.8,0.1-1.5,0.3-2.1c0.2-0.6,0.5-1.1,0.9-1.5c0.4-0.4,0.8-0.7,1.3-1
		c0.5-0.2,1-0.3,1.5-0.3c0.7,0,1.3,0.1,1.8,0.4c0.5,0.2,0.9,0.6,1.2,1c0.3,0.4,0.6,0.9,0.7,1.5c0.2,0.6,0.2,1.2,0.2,1.8v0.7h-7.1
		v-1.3h5.5v-0.1c0-0.4-0.1-0.8-0.3-1.2c-0.1-0.4-0.4-0.7-0.7-1c-0.3-0.3-0.8-0.4-1.3-0.4c-0.4,0-0.7,0.1-1,0.2
		c-0.3,0.2-0.6,0.4-0.8,0.7c-0.2,0.3-0.4,0.7-0.5,1.1c-0.1,0.4-0.2,0.9-0.2,1.5v0.4c0,0.5,0.1,0.9,0.2,1.3c0.1,0.4,0.3,0.7,0.6,1
		c0.2,0.3,0.5,0.5,0.9,0.7c0.4,0.2,0.8,0.3,1.2,0.3c0.6,0,1.1-0.1,1.5-0.4c0.4-0.2,0.7-0.5,1-0.9l1,0.8c-0.2,0.3-0.5,0.6-0.8,0.9
		c-0.3,0.3-0.7,0.5-1.2,0.7C617.8,113.1,617.3,113.2,616.6,113.2z M556.7,132h-3.4v-1.4h3.4c0.7,0,1.2-0.1,1.6-0.3
		c0.4-0.2,0.7-0.5,0.9-0.9c0.2-0.4,0.3-0.8,0.3-1.3c0-0.4-0.1-0.9-0.3-1.2c-0.2-0.4-0.5-0.7-0.9-0.9c-0.4-0.2-0.9-0.4-1.6-0.4h-3
		V137h-1.7v-12.8h4.7c1,0,1.8,0.2,2.5,0.5c0.7,0.3,1.2,0.8,1.5,1.4c0.3,0.6,0.5,1.3,0.5,2c0,0.8-0.2,1.5-0.5,2.1
		c-0.3,0.6-0.9,1-1.5,1.3C558.4,131.8,557.6,132,556.7,132z M562.5,132.4v-0.2c0-0.7,0.1-1.3,0.3-1.9c0.2-0.6,0.5-1.1,0.9-1.5
		c0.4-0.4,0.8-0.8,1.4-1c0.5-0.2,1.1-0.4,1.8-0.4c0.7,0,1.3,0.1,1.8,0.4c0.5,0.2,1,0.6,1.4,1c0.4,0.4,0.7,0.9,0.9,1.5
		c0.2,0.6,0.3,1.2,0.3,1.9v0.2c0,0.7-0.1,1.3-0.3,1.9c-0.2,0.6-0.5,1.1-0.9,1.5c-0.4,0.4-0.8,0.8-1.4,1c-0.5,0.2-1.1,0.4-1.8,0.4
		c-0.7,0-1.3-0.1-1.8-0.4c-0.5-0.2-1-0.6-1.4-1c-0.4-0.4-0.7-1-0.9-1.5C562.6,133.7,562.5,133,562.5,132.4z M564.1,132.1v0.2
		c0,0.5,0.1,0.9,0.2,1.3c0.1,0.4,0.3,0.8,0.5,1.1c0.2,0.3,0.5,0.6,0.9,0.8c0.3,0.2,0.7,0.3,1.2,0.3c0.4,0,0.8-0.1,1.2-0.3
		c0.3-0.2,0.6-0.4,0.8-0.8c0.2-0.3,0.4-0.7,0.5-1.1c0.1-0.4,0.2-0.9,0.2-1.3v-0.2c0-0.5-0.1-0.9-0.2-1.3c-0.1-0.4-0.3-0.8-0.5-1.1
		c-0.2-0.3-0.5-0.6-0.8-0.8c-0.3-0.2-0.7-0.3-1.2-0.3c-0.4,0-0.8,0.1-1.2,0.3c-0.3,0.2-0.6,0.4-0.8,0.8c-0.2,0.3-0.4,0.7-0.5,1.1
		C564.2,131.2,564.1,131.7,564.1,132.1z M574.8,129v8h-1.6v-9.5h1.6L574.8,129z M577.8,127.4l0,1.5c-0.1,0-0.3,0-0.4-0.1
		c-0.1,0-0.3,0-0.4,0c-0.4,0-0.7,0.1-1,0.2c-0.3,0.1-0.5,0.3-0.7,0.5c-0.2,0.2-0.4,0.5-0.5,0.8c-0.1,0.3-0.2,0.6-0.2,0.9l-0.5,0.3
		c0-0.6,0.1-1.1,0.2-1.6c0.1-0.5,0.3-0.9,0.5-1.3c0.2-0.4,0.5-0.7,0.9-0.9c0.4-0.2,0.8-0.3,1.3-0.3c0.1,0,0.3,0,0.4,0
		C577.6,127.4,577.7,127.4,577.8,127.4z M583.7,127.5v1.2h-5.1v-1.2H583.7z M580.3,125.2h1.6v9.5c0,0.3,0,0.6,0.1,0.7
		c0.1,0.2,0.2,0.3,0.4,0.3c0.2,0.1,0.3,0.1,0.5,0.1c0.1,0,0.3,0,0.4,0c0.2,0,0.3-0.1,0.3-0.1l0,1.3c-0.1,0-0.3,0.1-0.5,0.1
		c-0.2,0-0.5,0.1-0.7,0.1c-0.4,0-0.8-0.1-1.1-0.2c-0.3-0.2-0.6-0.4-0.8-0.8c-0.2-0.4-0.3-0.9-0.3-1.5V125.2z M591.2,135.4v-4.9
		c0-0.4-0.1-0.7-0.2-1c-0.1-0.3-0.4-0.5-0.7-0.6c-0.3-0.2-0.7-0.2-1.1-0.2c-0.4,0-0.8,0.1-1.1,0.2c-0.3,0.1-0.5,0.3-0.7,0.6
		c-0.2,0.2-0.3,0.5-0.3,0.7h-1.6c0-0.3,0.1-0.7,0.3-1c0.2-0.3,0.4-0.6,0.8-0.9c0.3-0.3,0.7-0.5,1.2-0.6c0.5-0.2,1-0.2,1.6-0.2
		c0.7,0,1.3,0.1,1.8,0.4c0.5,0.2,1,0.6,1.2,1.1c0.3,0.5,0.5,1.1,0.5,1.8v4.4c0,0.3,0,0.7,0.1,1c0.1,0.4,0.1,0.7,0.3,0.9v0.1h-1.7
		c-0.1-0.2-0.1-0.4-0.2-0.7C591.2,135.9,591.2,135.6,591.2,135.4z M591.5,131.2l0,1.1h-1.6c-0.5,0-0.9,0-1.2,0.1
		c-0.4,0.1-0.7,0.2-0.9,0.3c-0.2,0.1-0.4,0.3-0.6,0.6c-0.1,0.2-0.2,0.5-0.2,0.8c0,0.3,0.1,0.6,0.2,0.8s0.3,0.4,0.6,0.6
		c0.3,0.1,0.6,0.2,1,0.2c0.5,0,0.9-0.1,1.3-0.3c0.4-0.2,0.7-0.5,0.9-0.8c0.2-0.3,0.4-0.6,0.4-0.9l0.7,0.8c0,0.2-0.2,0.5-0.3,0.8
		c-0.2,0.3-0.4,0.6-0.7,0.9c-0.3,0.3-0.7,0.5-1.1,0.7c-0.4,0.2-0.9,0.3-1.4,0.3c-0.6,0-1.2-0.1-1.7-0.4c-0.5-0.3-0.9-0.6-1.1-1
		c-0.3-0.4-0.4-0.9-0.4-1.4c0-0.5,0.1-1,0.3-1.3c0.2-0.4,0.5-0.7,0.9-1c0.4-0.3,0.8-0.5,1.4-0.6c0.5-0.1,1.1-0.2,1.8-0.2H591.5z
		 M597.2,123.5V137h-1.6v-13.5H597.2z"/>
	<path class="st2" d="M762.5,100.2h4.2c1,0,1.8,0.1,2.4,0.4c0.7,0.3,1.2,0.7,1.5,1.3c0.4,0.6,0.5,1.3,0.5,2.1c0,0.6-0.1,1.1-0.4,1.6
		c-0.2,0.5-0.6,0.9-1,1.2c-0.4,0.3-1,0.6-1.6,0.7l-0.5,0.2h-4l0-1.4h3c0.6,0,1.1-0.1,1.5-0.3c0.4-0.2,0.7-0.5,0.9-0.9
		c0.2-0.4,0.3-0.8,0.3-1.2c0-0.5-0.1-0.9-0.3-1.3c-0.2-0.4-0.5-0.7-0.9-0.9c-0.4-0.2-0.9-0.3-1.6-0.3h-2.5V113h-1.7V100.2z M770,113
		l-3.1-5.8l1.8,0l3.2,5.7v0.1H770z M779.2,110.8v-7.3h1.6v9.5h-1.6L779.2,110.8z M779.5,108.8l0.7,0c0,0.6-0.1,1.2-0.2,1.8
		c-0.1,0.5-0.3,1-0.6,1.4c-0.3,0.4-0.7,0.7-1.2,0.9c-0.5,0.2-1.1,0.3-1.7,0.3c-0.5,0-0.9-0.1-1.3-0.2c-0.4-0.1-0.7-0.3-1-0.6
		c-0.3-0.3-0.5-0.6-0.6-1.1c-0.1-0.5-0.2-1-0.2-1.6v-6.1h1.6v6.2c0,0.4,0,0.8,0.1,1.1c0.1,0.3,0.2,0.5,0.4,0.7
		c0.2,0.2,0.4,0.3,0.6,0.3c0.2,0.1,0.4,0.1,0.7,0.1c0.7,0,1.2-0.1,1.6-0.4c0.4-0.3,0.7-0.6,0.9-1.1
		C779.4,109.9,779.5,109.4,779.5,108.8z M785.1,99.5V113h-1.6V99.5H785.1z M791.6,113.2c-0.7,0-1.3-0.1-1.8-0.3
		c-0.5-0.2-1-0.5-1.4-1c-0.4-0.4-0.7-0.9-0.9-1.5c-0.2-0.6-0.3-1.2-0.3-1.8v-0.4c0-0.8,0.1-1.5,0.3-2.1c0.2-0.6,0.5-1.1,0.9-1.5
		c0.4-0.4,0.8-0.7,1.3-1c0.5-0.2,1-0.3,1.5-0.3c0.7,0,1.3,0.1,1.8,0.4c0.5,0.2,0.9,0.6,1.2,1c0.3,0.4,0.6,0.9,0.7,1.5
		c0.2,0.6,0.2,1.2,0.2,1.8v0.7h-7.1v-1.3h5.5v-0.1c0-0.4-0.1-0.8-0.3-1.2c-0.1-0.4-0.4-0.7-0.7-1c-0.3-0.3-0.8-0.4-1.3-0.4
		c-0.4,0-0.7,0.1-1,0.2c-0.3,0.2-0.6,0.4-0.8,0.7c-0.2,0.3-0.4,0.7-0.5,1.1c-0.1,0.4-0.2,0.9-0.2,1.5v0.4c0,0.5,0.1,0.9,0.2,1.3
		c0.1,0.4,0.3,0.7,0.6,1c0.2,0.3,0.5,0.5,0.9,0.7c0.4,0.2,0.8,0.3,1.2,0.3c0.6,0,1.1-0.1,1.5-0.4c0.4-0.2,0.7-0.5,1-0.9l1,0.8
		c-0.2,0.3-0.5,0.6-0.8,0.9c-0.3,0.3-0.7,0.5-1.2,0.7C792.8,113.1,792.2,113.2,791.6,113.2z M761,135.6v1.4h-6.8v-1.4H761z
		 M754.6,124.2V137h-1.7v-12.8H754.6z M760.1,129.7v1.4h-5.9v-1.4H760.1z M760.9,124.2v1.4h-6.7v-1.4H760.9z M764.5,129.5v7.5h-1.6
		v-9.5h1.5L764.5,129.5z M764.1,131.9l-0.7,0c0-0.6,0.1-1.3,0.3-1.8c0.2-0.6,0.5-1,0.8-1.5c0.3-0.4,0.7-0.7,1.2-0.9
		c0.5-0.2,1-0.3,1.6-0.3c0.5,0,0.9,0.1,1.3,0.2c0.4,0.1,0.7,0.3,1,0.6c0.3,0.3,0.5,0.6,0.6,1.1c0.1,0.4,0.2,1,0.2,1.6v6.2h-1.6v-6.2
		c0-0.5-0.1-0.9-0.2-1.2c-0.1-0.3-0.4-0.5-0.6-0.7c-0.3-0.1-0.6-0.2-1-0.2c-0.4,0-0.8,0.1-1.1,0.3c-0.3,0.2-0.6,0.4-0.9,0.7
		c-0.2,0.3-0.4,0.6-0.6,1C764.2,131.1,764.1,131.5,764.1,131.9z M779,127.5h1.5v9.3c0,0.8-0.2,1.6-0.5,2.1c-0.3,0.6-0.8,1-1.4,1.3
		c-0.6,0.3-1.3,0.5-2.1,0.5c-0.3,0-0.7-0.1-1.2-0.2c-0.4-0.1-0.9-0.3-1.3-0.5c-0.4-0.2-0.8-0.6-1.1-1l0.9-1c0.4,0.5,0.8,0.8,1.2,1
		c0.4,0.2,0.9,0.3,1.3,0.3c0.5,0,1-0.1,1.3-0.3c0.4-0.2,0.7-0.5,0.9-0.9c0.2-0.4,0.3-0.8,0.3-1.4v-7.3L779,127.5z M772.5,132.4v-0.2
		c0-0.7,0.1-1.4,0.3-2c0.2-0.6,0.4-1.1,0.7-1.5c0.3-0.4,0.7-0.8,1.2-1c0.5-0.2,1-0.4,1.6-0.4c0.6,0,1.1,0.1,1.6,0.3
		c0.5,0.2,0.8,0.5,1.1,0.9c0.3,0.4,0.6,0.9,0.7,1.4c0.2,0.6,0.3,1.2,0.4,1.9v0.8c-0.1,0.7-0.2,1.3-0.4,1.9c-0.2,0.6-0.4,1-0.7,1.4
		c-0.3,0.4-0.7,0.7-1.1,0.9c-0.5,0.2-1,0.3-1.6,0.3c-0.6,0-1.1-0.1-1.5-0.4c-0.5-0.2-0.9-0.6-1.2-1c-0.3-0.4-0.6-0.9-0.8-1.5
		C772.5,133.7,772.5,133,772.5,132.4z M774.1,132.2v0.2c0,0.5,0,0.9,0.1,1.3c0.1,0.4,0.2,0.8,0.4,1.1c0.2,0.3,0.5,0.6,0.8,0.7
		c0.3,0.2,0.7,0.3,1.1,0.3c0.5,0,1-0.1,1.3-0.3c0.4-0.2,0.6-0.5,0.8-0.9c0.2-0.4,0.4-0.8,0.5-1.2v-2.1c-0.1-0.3-0.2-0.6-0.3-0.9
		c-0.1-0.3-0.3-0.6-0.5-0.8c-0.2-0.2-0.5-0.4-0.8-0.6c-0.3-0.1-0.7-0.2-1.1-0.2c-0.4,0-0.8,0.1-1.2,0.3c-0.3,0.2-0.6,0.4-0.8,0.8
		c-0.2,0.3-0.3,0.7-0.4,1.1C774.1,131.2,774.1,131.7,774.1,132.2z M784.7,127.5v9.5h-1.6v-9.5H784.7z M783,125
		c0-0.3,0.1-0.5,0.2-0.7c0.2-0.2,0.4-0.3,0.7-0.3c0.3,0,0.5,0.1,0.7,0.3c0.2,0.2,0.3,0.4,0.3,0.7c0,0.3-0.1,0.5-0.3,0.7
		c-0.2,0.2-0.4,0.3-0.7,0.3c-0.3,0-0.6-0.1-0.7-0.3C783,125.4,783,125.2,783,125z M789,129.5v7.5h-1.6v-9.5h1.5L789,129.5z
		 M788.6,131.9l-0.7,0c0-0.6,0.1-1.3,0.3-1.8c0.2-0.6,0.5-1,0.8-1.5c0.3-0.4,0.7-0.7,1.2-0.9c0.5-0.2,1-0.3,1.6-0.3
		c0.5,0,0.9,0.1,1.3,0.2c0.4,0.1,0.7,0.3,1,0.6c0.3,0.3,0.5,0.6,0.6,1.1c0.1,0.4,0.2,1,0.2,1.6v6.2h-1.6v-6.2c0-0.5-0.1-0.9-0.2-1.2
		c-0.1-0.3-0.4-0.5-0.6-0.7c-0.3-0.1-0.6-0.2-1-0.2c-0.4,0-0.8,0.1-1.1,0.3c-0.3,0.2-0.6,0.4-0.9,0.7c-0.2,0.3-0.4,0.6-0.6,1
		C788.6,131.1,788.6,131.5,788.6,131.9z M801.2,137.2c-0.7,0-1.3-0.1-1.8-0.3c-0.5-0.2-1-0.5-1.4-1c-0.4-0.4-0.7-0.9-0.9-1.5
		c-0.2-0.6-0.3-1.2-0.3-1.8v-0.4c0-0.8,0.1-1.5,0.3-2.1c0.2-0.6,0.5-1.1,0.9-1.5s0.8-0.7,1.3-1c0.5-0.2,1-0.3,1.5-0.3
		c0.7,0,1.3,0.1,1.8,0.4c0.5,0.2,0.9,0.6,1.2,1c0.3,0.4,0.6,0.9,0.7,1.5c0.2,0.6,0.2,1.2,0.2,1.8v0.7h-7.1v-1.3h5.5v-0.1
		c0-0.4-0.1-0.8-0.3-1.2c-0.1-0.4-0.4-0.7-0.7-1c-0.3-0.3-0.8-0.4-1.3-0.4c-0.4,0-0.7,0.1-1,0.2c-0.3,0.2-0.6,0.4-0.8,0.7
		c-0.2,0.3-0.4,0.7-0.5,1.1c-0.1,0.4-0.2,0.9-0.2,1.5v0.4c0,0.5,0.1,0.9,0.2,1.3c0.1,0.4,0.3,0.7,0.6,1c0.2,0.3,0.5,0.5,0.9,0.7
		c0.4,0.2,0.8,0.3,1.2,0.3c0.6,0,1.1-0.1,1.5-0.4c0.4-0.2,0.7-0.5,1-0.9l1,0.8c-0.2,0.3-0.5,0.6-0.8,0.9c-0.3,0.3-0.7,0.5-1.2,0.7
		C802.4,137.1,801.8,137.2,801.2,137.2z"/>
	<path class="st2" d="M952.6,113h-2.7l0-1.4h2.7c0.9,0,1.7-0.2,2.3-0.6c0.6-0.4,1.1-0.9,1.4-1.6c0.3-0.7,0.5-1.5,0.5-2.4v-0.8
		c0-0.7-0.1-1.4-0.3-2c-0.2-0.6-0.4-1.1-0.8-1.5c-0.3-0.4-0.8-0.7-1.2-0.9c-0.5-0.2-1-0.3-1.7-0.3h-2.9v-1.4h2.9
		c0.8,0,1.6,0.1,2.3,0.4c0.7,0.3,1.3,0.7,1.8,1.2c0.5,0.5,0.9,1.2,1.2,1.9c0.3,0.7,0.4,1.6,0.4,2.5v0.8c0,0.9-0.1,1.8-0.4,2.5
		c-0.3,0.7-0.7,1.4-1.2,1.9c-0.5,0.5-1.1,0.9-1.8,1.2C954.3,112.9,953.5,113,952.6,113z M950.9,100.2V113h-1.7v-12.8H950.9z
		 M963.4,112l2.6-8.5h1.7l-3.8,11c-0.1,0.2-0.2,0.5-0.4,0.8c-0.1,0.3-0.3,0.5-0.5,0.8c-0.2,0.2-0.5,0.4-0.8,0.6
		c-0.3,0.2-0.7,0.2-1.1,0.2c-0.1,0-0.3,0-0.5-0.1c-0.2,0-0.3-0.1-0.4-0.1l0-1.3c0.1,0,0.1,0,0.2,0c0.1,0,0.2,0,0.2,0
		c0.4,0,0.7,0,0.9-0.1c0.3-0.1,0.5-0.3,0.7-0.5c0.2-0.2,0.3-0.5,0.5-0.9L963.4,112z M961.5,103.5l2.5,7.4l0.4,1.7l-1.2,0.6l-3.5-9.7
		H961.5z M970.9,105.5v7.5h-1.6v-9.5h1.5L970.9,105.5z M970.5,107.9l-0.7,0c0-0.6,0.1-1.3,0.3-1.8c0.2-0.6,0.5-1,0.8-1.5
		c0.3-0.4,0.7-0.7,1.2-0.9c0.5-0.2,1-0.3,1.6-0.3c0.5,0,0.9,0.1,1.3,0.2c0.4,0.1,0.7,0.3,1,0.6c0.3,0.3,0.5,0.6,0.6,1.1
		c0.1,0.4,0.2,1,0.2,1.6v6.2h-1.6v-6.2c0-0.5-0.1-0.9-0.2-1.2c-0.2-0.3-0.4-0.5-0.6-0.7c-0.3-0.1-0.6-0.2-1-0.2
		c-0.4,0-0.8,0.1-1.1,0.3c-0.3,0.2-0.6,0.4-0.9,0.7c-0.2,0.3-0.4,0.6-0.5,1C970.5,107.1,970.5,107.5,970.5,107.9z M984.8,111.4v-4.9
		c0-0.4-0.1-0.7-0.2-1c-0.1-0.3-0.4-0.5-0.7-0.6c-0.3-0.2-0.7-0.2-1.1-0.2c-0.4,0-0.8,0.1-1.1,0.2c-0.3,0.1-0.5,0.3-0.7,0.6
		c-0.2,0.2-0.3,0.5-0.3,0.7h-1.6c0-0.3,0.1-0.7,0.3-1c0.2-0.3,0.4-0.6,0.8-0.9c0.3-0.3,0.7-0.5,1.2-0.6c0.5-0.2,1-0.2,1.6-0.2
		c0.7,0,1.3,0.1,1.8,0.4c0.5,0.2,1,0.6,1.2,1.1c0.3,0.5,0.5,1.1,0.5,1.8v4.4c0,0.3,0,0.7,0.1,1c0.1,0.4,0.1,0.7,0.2,0.9v0.1h-1.7
		c-0.1-0.2-0.1-0.4-0.2-0.7C984.8,111.9,984.8,111.6,984.8,111.4z M985.1,107.2l0,1.1h-1.6c-0.5,0-0.9,0-1.2,0.1
		c-0.4,0.1-0.7,0.2-0.9,0.3c-0.2,0.1-0.4,0.3-0.6,0.6c-0.1,0.2-0.2,0.5-0.2,0.8c0,0.3,0.1,0.6,0.2,0.8c0.1,0.2,0.3,0.4,0.6,0.6
		c0.3,0.1,0.6,0.2,1,0.2c0.5,0,0.9-0.1,1.3-0.3c0.4-0.2,0.7-0.5,0.9-0.8c0.2-0.3,0.3-0.6,0.4-0.9l0.7,0.8c-0.1,0.2-0.2,0.5-0.3,0.8
		c-0.2,0.3-0.4,0.6-0.7,0.9c-0.3,0.3-0.7,0.5-1.1,0.7c-0.4,0.2-0.9,0.3-1.4,0.3c-0.6,0-1.2-0.1-1.7-0.4c-0.5-0.3-0.9-0.6-1.1-1
		c-0.3-0.4-0.4-0.9-0.4-1.4c0-0.5,0.1-1,0.3-1.3c0.2-0.4,0.5-0.7,0.9-1c0.4-0.3,0.8-0.5,1.4-0.6c0.5-0.1,1.1-0.2,1.8-0.2H985.1z
		 M990.6,105.4v7.6H989v-9.5h1.6L990.6,105.4z M990.3,107.9l-0.8,0c0-0.6,0.1-1.3,0.3-1.8c0.2-0.6,0.4-1,0.7-1.5
		c0.3-0.4,0.7-0.7,1.2-0.9c0.5-0.2,1-0.3,1.7-0.3c0.4,0,0.9,0.1,1.2,0.2c0.4,0.1,0.7,0.3,1,0.6c0.3,0.3,0.5,0.6,0.6,1
		s0.2,0.9,0.2,1.5v6.3h-1.6v-6.3c0-0.5-0.1-0.9-0.2-1.2c-0.2-0.3-0.4-0.5-0.7-0.7c-0.3-0.1-0.7-0.2-1.1-0.2c-0.5,0-0.9,0.1-1.2,0.3
		c-0.3,0.2-0.6,0.4-0.8,0.7c-0.2,0.3-0.3,0.6-0.4,1C990.3,107.1,990.3,107.5,990.3,107.9z M996.4,107l-1.1,0.3c0-0.5,0.1-1,0.3-1.5
		c0.2-0.5,0.4-0.9,0.7-1.3c0.3-0.4,0.7-0.7,1.2-0.9c0.5-0.2,1-0.3,1.6-0.3c0.5,0,1,0.1,1.3,0.2c0.4,0.1,0.7,0.3,1,0.6
		c0.3,0.3,0.5,0.6,0.6,1.1c0.1,0.4,0.2,0.9,0.2,1.5v6.2h-1.6v-6.3c0-0.5-0.1-0.9-0.3-1.2c-0.2-0.3-0.4-0.5-0.7-0.6
		c-0.3-0.1-0.7-0.2-1.1-0.2c-0.4,0-0.7,0.1-1,0.2c-0.3,0.1-0.5,0.3-0.7,0.5c-0.2,0.2-0.3,0.5-0.4,0.7
		C996.5,106.4,996.4,106.7,996.4,107z M1006.5,103.5v9.5h-1.6v-9.5H1006.5z M1004.8,101c0-0.3,0.1-0.5,0.2-0.7
		c0.2-0.2,0.4-0.3,0.7-0.3c0.3,0,0.6,0.1,0.7,0.3c0.2,0.2,0.3,0.4,0.3,0.7c0,0.3-0.1,0.5-0.3,0.7c-0.2,0.2-0.4,0.3-0.7,0.3
		c-0.3,0-0.6-0.1-0.7-0.3C1004.9,101.4,1004.8,101.2,1004.8,101z M1012.9,111.8c0.4,0,0.8-0.1,1.1-0.2c0.3-0.2,0.6-0.4,0.8-0.7
		c0.2-0.3,0.3-0.6,0.4-1h1.5c0,0.6-0.2,1.1-0.6,1.6c-0.3,0.5-0.8,0.9-1.4,1.2c-0.6,0.3-1.2,0.4-1.9,0.4c-0.7,0-1.3-0.1-1.9-0.4
		c-0.5-0.3-1-0.6-1.3-1c-0.3-0.4-0.6-0.9-0.8-1.5c-0.2-0.6-0.2-1.2-0.2-1.8v-0.4c0-0.6,0.1-1.2,0.2-1.8c0.2-0.6,0.4-1.1,0.8-1.5
		c0.4-0.4,0.8-0.8,1.3-1c0.5-0.3,1.2-0.4,1.9-0.4c0.8,0,1.4,0.2,2,0.5c0.5,0.3,1,0.7,1.3,1.2c0.3,0.5,0.5,1.1,0.5,1.8h-1.5
		c0-0.4-0.1-0.7-0.3-1.1c-0.2-0.3-0.4-0.6-0.8-0.8c-0.3-0.2-0.7-0.3-1.1-0.3c-0.5,0-0.9,0.1-1.2,0.3c-0.3,0.2-0.6,0.5-0.8,0.8
		c-0.2,0.3-0.3,0.7-0.4,1.1c-0.1,0.4-0.1,0.8-0.1,1.2v0.4c0,0.4,0,0.8,0.1,1.2c0.1,0.4,0.2,0.8,0.4,1.1c0.2,0.3,0.5,0.6,0.8,0.8
		C1012,111.7,1012.4,111.8,1012.9,111.8z M949.7,133.1l2.5-8.9h1.2l-0.7,3.5l-2.7,9.3h-1.2L949.7,133.1z M947.1,124.2l2,8.8l0.6,4
		h-1.2l-3.1-12.8H947.1z M956.8,132.9l2-8.7h1.7l-3.1,12.8h-1.2L956.8,132.9z M953.7,124.2l2.5,8.9l0.9,3.9h-1.2l-2.6-9.3l-0.7-3.5
		H953.7z M961.4,132.4v-0.2c0-0.7,0.1-1.3,0.3-1.9c0.2-0.6,0.5-1.1,0.9-1.5c0.4-0.4,0.8-0.8,1.4-1c0.5-0.2,1.1-0.4,1.8-0.4
		c0.7,0,1.3,0.1,1.8,0.4c0.5,0.2,1,0.6,1.4,1c0.4,0.4,0.7,0.9,0.9,1.5c0.2,0.6,0.3,1.2,0.3,1.9v0.2c0,0.7-0.1,1.3-0.3,1.9
		s-0.5,1.1-0.9,1.5c-0.4,0.4-0.8,0.8-1.4,1c-0.5,0.2-1.1,0.4-1.8,0.4c-0.7,0-1.3-0.1-1.8-0.4c-0.5-0.2-1-0.6-1.4-1
		c-0.4-0.4-0.7-1-0.9-1.5S961.4,133,961.4,132.4z M963,132.1v0.2c0,0.5,0.1,0.9,0.2,1.3c0.1,0.4,0.3,0.8,0.5,1.1
		c0.2,0.3,0.5,0.6,0.8,0.8c0.3,0.2,0.7,0.3,1.2,0.3c0.5,0,0.8-0.1,1.2-0.3c0.3-0.2,0.6-0.4,0.8-0.8c0.2-0.3,0.4-0.7,0.5-1.1
		c0.1-0.4,0.2-0.9,0.2-1.3v-0.2c0-0.5-0.1-0.9-0.2-1.3c-0.1-0.4-0.3-0.8-0.5-1.1c-0.2-0.3-0.5-0.6-0.8-0.8c-0.3-0.2-0.7-0.3-1.2-0.3
		c-0.4,0-0.8,0.1-1.2,0.3c-0.3,0.2-0.6,0.4-0.8,0.8c-0.2,0.3-0.4,0.7-0.5,1.1C963.1,131.2,963,131.7,963,132.1z M973.7,129v8h-1.6
		v-9.5h1.6L973.7,129z M976.7,127.4l0,1.5c-0.1,0-0.3,0-0.4-0.1c-0.1,0-0.2,0-0.4,0c-0.4,0-0.7,0.1-1,0.2c-0.3,0.1-0.5,0.3-0.7,0.5
		s-0.4,0.5-0.5,0.8c-0.1,0.3-0.2,0.6-0.2,0.9l-0.4,0.3c0-0.6,0-1.1,0.2-1.6c0.1-0.5,0.3-0.9,0.5-1.3c0.2-0.4,0.5-0.7,0.9-0.9
		c0.4-0.2,0.8-0.3,1.3-0.3c0.1,0,0.2,0,0.4,0C976.5,127.4,976.6,127.4,976.7,127.4z M979.8,123.5V137h-1.6v-13.5H979.8z
		 M985.6,127.5l-4.2,4.4l-2.3,2.4l-0.1-1.7l1.7-2l3-3.1H985.6z M984.2,137l-3.4-4.5l0.8-1.4l4.5,6H984.2z M989.7,137h-1.6v-10.5
		c0-0.7,0.1-1.3,0.4-1.7c0.3-0.5,0.6-0.8,1.1-1.1c0.5-0.2,1.1-0.4,1.8-0.4c0.3,0,0.6,0,1,0.1c0.4,0.1,0.8,0.1,1.2,0.2
		c0.5,0.1,0.9,0.2,1.3,0.3l-0.8,1.2c-0.6-0.1-1.1-0.2-1.5-0.2c-0.4-0.1-0.8-0.1-1.1-0.1c-0.4,0-0.7,0.1-1,0.2
		c-0.2,0.1-0.5,0.3-0.6,0.6c-0.1,0.3-0.2,0.6-0.2,1V137z M993.3,137v-13.1h1.6V137H993.3z M991.8,127.5v1.2h-5.2v-1.2H991.8z
		 M997.1,132.4v-0.2c0-0.7,0.1-1.3,0.3-1.9c0.2-0.6,0.5-1.1,0.9-1.5c0.4-0.4,0.8-0.8,1.4-1c0.5-0.2,1.1-0.4,1.8-0.4
		c0.7,0,1.3,0.1,1.8,0.4c0.5,0.2,1,0.6,1.4,1c0.4,0.4,0.7,0.9,0.9,1.5c0.2,0.6,0.3,1.2,0.3,1.9v0.2c0,0.7-0.1,1.3-0.3,1.9
		c-0.2,0.6-0.5,1.1-0.9,1.5c-0.4,0.4-0.8,0.8-1.4,1c-0.5,0.2-1.1,0.4-1.8,0.4c-0.7,0-1.3-0.1-1.8-0.4c-0.5-0.2-1-0.6-1.4-1
		c-0.4-0.4-0.7-1-0.9-1.5C997.2,133.7,997.1,133,997.1,132.4z M998.7,132.1v0.2c0,0.5,0.1,0.9,0.2,1.3c0.1,0.4,0.3,0.8,0.5,1.1
		c0.2,0.3,0.5,0.6,0.8,0.8c0.3,0.2,0.7,0.3,1.2,0.3c0.4,0,0.8-0.1,1.2-0.3c0.3-0.2,0.6-0.4,0.8-0.8c0.2-0.3,0.4-0.7,0.5-1.1
		c0.1-0.4,0.2-0.9,0.2-1.3v-0.2c0-0.5-0.1-0.9-0.2-1.3c-0.1-0.4-0.3-0.8-0.5-1.1c-0.2-0.3-0.5-0.6-0.8-0.8c-0.3-0.2-0.7-0.3-1.2-0.3
		c-0.4,0-0.8,0.1-1.2,0.3c-0.3,0.2-0.6,0.4-0.8,0.8c-0.2,0.3-0.4,0.7-0.5,1.1C998.8,131.2,998.7,131.7,998.7,132.1z M1010.2,135.3
		l2.4-7.8h1.1l-0.2,1.6l-2.5,8h-1.1L1010.2,135.3z M1008.6,127.5l2.1,7.9l0.2,1.6h-1.1l-2.8-9.5H1008.6z M1016.1,135.3l2-7.8h1.6
		l-2.8,9.5h-1.1L1016.1,135.3z M1014,127.5l2.4,7.7l0.3,1.8h-1l-2.6-8l-0.2-1.5H1014z"/>
	<path class="st2" d="M1158.7,111.6v1.4h-6.4v-1.4H1158.7z M1152.7,100.2V113h-1.7v-12.8H1152.7z M1162.2,103.5v9.5h-1.6v-9.5
		H1162.2z M1160.4,101c0-0.3,0.1-0.5,0.2-0.7c0.2-0.2,0.4-0.3,0.7-0.3c0.3,0,0.5,0.1,0.7,0.3c0.2,0.2,0.2,0.4,0.2,0.7
		c0,0.3-0.1,0.5-0.2,0.7c-0.2,0.2-0.4,0.3-0.7,0.3c-0.3,0-0.6-0.1-0.7-0.3C1160.5,101.4,1160.4,101.2,1160.4,101z M1167.7,111.5
		l2.6-8h1.7l-3.4,9.5h-1.1L1167.7,111.5z M1165.5,103.5l2.7,8.1l0.2,1.4h-1.1l-3.4-9.5H1165.5z M1177.4,113.2
		c-0.7,0-1.3-0.1-1.8-0.3c-0.5-0.2-1-0.5-1.4-1s-0.7-0.9-0.9-1.5c-0.2-0.6-0.3-1.2-0.3-1.8v-0.4c0-0.8,0.1-1.5,0.3-2.1
		c0.2-0.6,0.5-1.1,0.9-1.5c0.4-0.4,0.8-0.7,1.3-1c0.5-0.2,1-0.3,1.6-0.3c0.7,0,1.3,0.1,1.8,0.4c0.5,0.2,0.9,0.6,1.2,1
		c0.3,0.4,0.6,0.9,0.7,1.5c0.2,0.6,0.2,1.2,0.2,1.8v0.7h-7.1v-1.3h5.5v-0.1c0-0.4-0.1-0.8-0.3-1.2c-0.2-0.4-0.4-0.7-0.7-1
		c-0.3-0.3-0.8-0.4-1.3-0.4c-0.4,0-0.7,0.1-1,0.2c-0.3,0.2-0.6,0.4-0.8,0.7c-0.2,0.3-0.4,0.7-0.5,1.1c-0.1,0.4-0.2,0.9-0.2,1.5v0.4
		c0,0.5,0.1,0.9,0.2,1.3c0.1,0.4,0.3,0.7,0.5,1c0.2,0.3,0.6,0.5,0.9,0.7c0.3,0.2,0.8,0.3,1.2,0.3c0.6,0,1.1-0.1,1.5-0.4
		c0.4-0.2,0.7-0.5,1-0.9l1,0.8c-0.2,0.3-0.5,0.6-0.8,0.9c-0.3,0.3-0.7,0.5-1.2,0.7C1178.5,113.1,1178,113.2,1177.4,113.2z
		 M1195.4,108.9h1.7c-0.1,0.8-0.3,1.5-0.7,2.2c-0.4,0.6-0.9,1.1-1.6,1.5c-0.7,0.4-1.5,0.6-2.6,0.6c-0.8,0-1.4-0.1-2-0.4
		c-0.6-0.3-1.1-0.7-1.6-1.2c-0.4-0.5-0.8-1.1-1-1.9c-0.2-0.7-0.3-1.5-0.3-2.4V106c0-0.9,0.1-1.7,0.3-2.4c0.2-0.7,0.6-1.4,1-1.9
		c0.4-0.5,1-0.9,1.6-1.2c0.6-0.3,1.3-0.4,2.1-0.4c1,0,1.8,0.2,2.4,0.5c0.7,0.4,1.2,0.9,1.6,1.5c0.4,0.6,0.6,1.4,0.7,2.2h-1.7
		c-0.1-0.6-0.2-1.1-0.5-1.5c-0.2-0.4-0.5-0.8-0.9-1c-0.4-0.2-0.9-0.4-1.6-0.4c-0.6,0-1.1,0.1-1.5,0.3s-0.8,0.5-1.1,0.9
		c-0.3,0.4-0.5,0.9-0.7,1.4c-0.2,0.6-0.2,1.2-0.2,1.9v1.3c0,0.6,0.1,1.2,0.2,1.8s0.3,1,0.6,1.4c0.3,0.4,0.6,0.7,1,1
		c0.4,0.2,0.9,0.4,1.5,0.4c0.7,0,1.3-0.1,1.7-0.3c0.4-0.2,0.8-0.6,1-1C1195.1,110,1195.3,109.5,1195.4,108.9z M1200.8,99.5V113h-1.6
		V99.5H1200.8z M1200.4,107.9l-0.7,0c0-0.6,0.1-1.3,0.3-1.8c0.2-0.6,0.4-1,0.8-1.5c0.3-0.4,0.8-0.7,1.2-0.9c0.5-0.2,1-0.3,1.6-0.3
		c0.5,0,0.9,0.1,1.3,0.2c0.4,0.1,0.7,0.3,1,0.6c0.3,0.3,0.5,0.6,0.6,1.1c0.1,0.4,0.2,1,0.2,1.6v6.2h-1.6v-6.2c0-0.5-0.1-0.9-0.2-1.2
		c-0.1-0.3-0.4-0.5-0.6-0.7c-0.3-0.1-0.6-0.2-1-0.2c-0.4,0-0.8,0.1-1.1,0.3c-0.3,0.2-0.6,0.4-0.9,0.7c-0.2,0.3-0.4,0.6-0.6,1
		C1200.4,107.1,1200.4,107.5,1200.4,107.9z M1214.7,111.4v-4.9c0-0.4-0.1-0.7-0.2-1c-0.1-0.3-0.4-0.5-0.7-0.6
		c-0.3-0.2-0.7-0.2-1.1-0.2c-0.4,0-0.8,0.1-1.1,0.2c-0.3,0.1-0.5,0.3-0.7,0.6c-0.2,0.2-0.2,0.5-0.2,0.7h-1.6c0-0.3,0.1-0.7,0.3-1
		c0.2-0.3,0.4-0.6,0.8-0.9c0.3-0.3,0.7-0.5,1.2-0.6c0.5-0.2,1-0.2,1.6-0.2c0.7,0,1.3,0.1,1.8,0.4c0.5,0.2,1,0.6,1.2,1.1
		c0.3,0.5,0.5,1.1,0.5,1.8v4.4c0,0.3,0,0.7,0.1,1c0.1,0.4,0.2,0.7,0.3,0.9v0.1h-1.7c-0.1-0.2-0.1-0.4-0.2-0.7
		C1214.7,111.9,1214.7,111.6,1214.7,111.4z M1214.9,107.2l0,1.1h-1.7c-0.5,0-0.9,0-1.2,0.1c-0.4,0.1-0.7,0.2-0.9,0.3
		c-0.2,0.1-0.4,0.3-0.6,0.6c-0.1,0.2-0.2,0.5-0.2,0.8c0,0.3,0.1,0.6,0.2,0.8c0.1,0.2,0.3,0.4,0.6,0.6c0.3,0.1,0.6,0.2,1,0.2
		c0.5,0,0.9-0.1,1.3-0.3c0.4-0.2,0.7-0.5,0.9-0.8c0.2-0.3,0.4-0.6,0.4-0.9l0.7,0.8c0,0.2-0.2,0.5-0.3,0.8c-0.2,0.3-0.4,0.6-0.7,0.9
		c-0.3,0.3-0.7,0.5-1.1,0.7c-0.4,0.2-0.9,0.3-1.4,0.3c-0.7,0-1.2-0.1-1.7-0.4c-0.5-0.3-0.9-0.6-1.1-1c-0.3-0.4-0.4-0.9-0.4-1.4
		c0-0.5,0.1-1,0.3-1.3c0.2-0.4,0.5-0.7,0.9-1c0.4-0.3,0.8-0.5,1.4-0.6c0.5-0.1,1.1-0.2,1.8-0.2H1214.9z M1222.8,103.5v1.2h-5.1v-1.2
		H1222.8z M1219.4,101.2h1.6v9.5c0,0.3,0,0.6,0.1,0.7c0.1,0.2,0.2,0.3,0.4,0.3c0.2,0.1,0.3,0.1,0.5,0.1c0.1,0,0.3,0,0.4,0
		c0.2,0,0.3-0.1,0.3-0.1l0,1.3c-0.1,0-0.3,0.1-0.5,0.1c-0.2,0-0.5,0.1-0.8,0.1c-0.4,0-0.8-0.1-1.1-0.2c-0.3-0.2-0.6-0.4-0.8-0.8
		c-0.2-0.4-0.3-0.9-0.3-1.5V101.2z M1174.2,133.1l2.5-8.9h1.2l-0.7,3.5l-2.7,9.3h-1.2L1174.2,133.1z M1171.6,124.2l2,8.8l0.6,4h-1.2
		l-3.1-12.8H1171.6z M1181.3,132.9l2-8.7h1.7l-3.1,12.8h-1.2L1181.3,132.9z M1178.2,124.2l2.5,8.9l0.9,3.9h-1.2l-2.6-9.3l-0.7-3.5
		H1178.2z M1191.9,135.4v-4.9c0-0.4-0.1-0.7-0.2-1c-0.1-0.3-0.4-0.5-0.7-0.6c-0.3-0.2-0.7-0.2-1.1-0.2c-0.4,0-0.8,0.1-1.1,0.2
		c-0.3,0.1-0.5,0.3-0.7,0.6c-0.2,0.2-0.3,0.5-0.3,0.7h-1.6c0-0.3,0.1-0.7,0.3-1c0.2-0.3,0.4-0.6,0.8-0.9c0.3-0.3,0.7-0.5,1.2-0.6
		c0.5-0.2,1-0.2,1.6-0.2c0.7,0,1.3,0.1,1.8,0.4c0.5,0.2,1,0.6,1.2,1.1c0.3,0.5,0.5,1.1,0.5,1.8v4.4c0,0.3,0,0.7,0.1,1
		c0.1,0.4,0.1,0.7,0.2,0.9v0.1h-1.7c-0.1-0.2-0.2-0.4-0.2-0.7C1191.9,135.9,1191.9,135.6,1191.9,135.4z M1192.2,131.2l0,1.1h-1.6
		c-0.5,0-0.9,0-1.2,0.1c-0.4,0.1-0.7,0.2-0.9,0.3c-0.2,0.1-0.4,0.3-0.6,0.6c-0.1,0.2-0.2,0.5-0.2,0.8c0,0.3,0.1,0.6,0.2,0.8
		c0.1,0.2,0.3,0.4,0.6,0.6c0.3,0.1,0.6,0.2,1,0.2c0.5,0,0.9-0.1,1.3-0.3c0.4-0.2,0.7-0.5,0.9-0.8c0.2-0.3,0.4-0.6,0.4-0.9l0.7,0.8
		c0,0.2-0.2,0.5-0.3,0.8c-0.2,0.3-0.4,0.6-0.7,0.9c-0.3,0.3-0.6,0.5-1.1,0.7c-0.4,0.2-0.9,0.3-1.4,0.3c-0.6,0-1.2-0.1-1.7-0.4
		c-0.5-0.3-0.9-0.6-1.1-1c-0.3-0.4-0.4-0.9-0.4-1.4c0-0.5,0.1-1,0.3-1.3c0.2-0.4,0.5-0.7,0.9-1c0.4-0.3,0.8-0.5,1.4-0.6
		c0.5-0.1,1.1-0.2,1.8-0.2H1192.2z M1197.9,123.5V137h-1.6v-13.5H1197.9z M1202.2,123.5V137h-1.6v-13.5H1202.2z"/>
	<path class="st3" d="M166.5,181v43.5c0,6.1,4.9,11,11,11H1175c6.1,0,11-4.9,11-11V180"/>
	<path class="st3" d="M370,182v52"/>
	<path class="st3" d="M570,182v52"/>
	<path class="st3" d="M778,182v52"/>
	<path class="st3" d="M987,182v52"/>
	
		<linearGradient id="SVGID_1_" gradientUnits="userSpaceOnUse" x1="59" y1="17" x2="15.5" y2="17" gradientTransform="matrix(1 0 0 -1 0 112)">
		<stop  offset="0" style="stop-color:#0D51D9"/>
		<stop  offset="1" style="stop-color:#0D51D9;stop-opacity:0"/>
	</linearGradient>
	<path class="st4" d="M0,95h75.5"/>
	
		<linearGradient id="SVGID_2_" gradientUnits="userSpaceOnUse" x1="1287.5" y1="17" x2="1336.5" y2="17" gradientTransform="matrix(1 0 0 -1 0 112)">
		<stop  offset="0" style="stop-color:#0D51D9"/>
		<stop  offset="1" style="stop-color:#0D51D9;stop-opacity:0"/>
	</linearGradient>
	<path class="st5" d="M1276,95h75.5"/>
	<circle class="st6" cx="166" cy="230" r="12"/>
	<circle class="st6" cx="370" cy="230" r="12"/>
	<circle class="st6" cx="570" cy="230" r="12"/>
	<circle class="st6" cx="778" cy="230" r="12"/>
	<circle class="st6" cx="987" cy="230" r="12"/>
	<circle class="st6" cx="1186" cy="230" r="12"/>
</g>
</svg>
