<svg width="342" height="492" viewBox="0 0 342 492" fill="none" xmlns="http://www.w3.org/2000/svg">
<path d="M335.36 462.654L324.027 465.02L316.352 439.554L327.684 437.188L335.36 462.654Z" fill="#7F3E3B"/>
<path d="M323.319 463.805L335.692 461.237C335.917 461.194 336.151 461.225 336.356 461.326C336.561 461.428 336.727 461.593 336.827 461.797L341.177 471.277C341.285 471.506 341.338 471.755 341.334 472.007C341.33 472.259 341.267 472.507 341.152 472.732C341.037 472.956 340.871 473.152 340.668 473.305C340.465 473.457 340.23 473.562 339.979 473.612C335.487 474.468 328.946 475.542 323.382 476.725C316.826 478.095 315.911 479.48 308.109 480.461C303.381 481.053 301.49 476.507 303.381 475.791C312.129 472.678 314.099 471.479 320.719 465.222C321.432 464.515 322.334 464.024 323.319 463.805Z" fill="#263238"/>
<path opacity="0.2" d="M316.352 439.554L320.308 452.691L331.64 450.325L327.684 437.203L316.352 439.554Z" fill="black"/>
<path d="M253.274 98.3454C250.957 105.926 248.419 113.304 245.661 120.714C242.903 128.123 239.94 135.424 236.441 142.818L235.069 145.604L233.572 148.453C233.068 149.402 232.469 150.289 231.917 151.223C231.365 152.157 230.814 153.044 230.183 153.916C227.811 157.426 225.177 160.756 222.303 163.878C219.495 166.974 216.466 169.866 213.24 172.533C211.663 173.872 209.993 175.133 208.275 176.331C206.557 177.53 204.902 178.651 202.884 179.803L197.305 172.471C198.392 171.226 199.716 169.778 200.883 168.377C202.049 166.976 203.2 165.482 204.35 164.034C206.604 161.108 208.732 158.103 210.655 155.068C212.612 152.051 214.406 148.933 216.029 145.728C216.849 144.172 217.606 142.615 218.299 140.95L219.339 138.537L220.348 136C223.012 129.104 225.502 121.835 227.945 114.565L235.322 92.7727L253.274 98.3454Z" fill="#803E3C"/>
<path d="M261.551 86.0017C265.538 96.4777 244.339 133.743 244.339 133.743L220.508 115.593C224.584 105.716 229.537 96.215 235.308 87.2003C243.693 74.8564 257.169 74.514 261.551 86.0017Z" fill="#407BFF"/>
<path opacity="0.2" d="M256.885 96.353C249.351 99.4662 239.121 111.483 235.922 127.329L244.339 133.743C244.339 133.743 256.948 111.701 260.841 96.7577C260.292 96.3186 259.626 96.0466 258.924 95.9747C258.221 95.9028 257.513 96.0343 256.885 96.353Z" fill="black"/>
<path d="M247.475 78.0007C247.475 78.0007 233.495 104.121 246.782 169.934H310.159C310.584 160.314 304.469 122.66 313.863 77.3936C306.856 76.0629 299.769 75.179 292.648 74.7474C283.676 74.2333 274.682 74.2333 265.711 74.7474C259.555 75.3574 253.458 76.4452 247.475 78.0007Z" fill="#407BFF"/>
<path d="M176.973 180.441L183.419 186.201L192.971 183.694L186.493 172.316L176.973 180.441Z" fill="#7F3E3B"/>
<path d="M200.473 172.969L186.492 172.316L192.97 183.694C192.97 183.694 203.357 184.784 204.35 177.203L200.473 172.969Z" fill="#7F3E3B"/>
<path d="M289.968 44.7825C288.281 53.3438 286.579 69.0344 292.647 74.7471C292.647 74.7471 289.92 80.491 273.812 80.491C259.091 80.491 265.711 74.7471 265.711 74.7471C275.373 72.4745 275.168 65.4075 273.434 58.7297L289.968 44.7825Z" fill="#7F3E3B"/>
<path opacity="0.2" d="M283.237 50.48L273.449 58.73C273.855 60.2609 274.13 61.8231 274.269 63.3998C276.633 67.0267 283.08 61.7031 284.262 56.1305C284.352 54.195 284.002 52.2642 283.237 50.48Z" fill="black"/>
<path d="M251.082 25.9788C247.851 31.3491 254.959 46.2147 263.187 44.8604C271.414 43.5062 257.229 15.8142 251.082 25.9788Z" fill="#263238"/>
<path d="M286.028 31.3334C287.746 42.8212 289.338 49.4523 284.783 56.4882C277.942 67.0575 262.717 64.816 257.484 54.0754C252.834 44.3934 250.801 27.2396 261.078 20.3749C263.337 18.8506 265.954 17.9223 268.679 17.6783C271.404 17.4342 274.148 17.8826 276.648 18.9808C279.148 20.079 281.323 21.7904 282.964 23.9525C284.606 26.1146 285.661 28.6554 286.028 31.3334Z" fill="#7F3E3B"/>
<path d="M287.052 16.1877L277.012 23.4104C283.064 30.5241 276.192 46.0746 285.728 42.5411C290.094 41.0001 301.363 24.033 287.052 16.1877Z" fill="#263238"/>
<path d="M274.995 7.33075C259.753 10.9732 258.398 6.63028 259.422 0.995361C248.027 2.84772 239.5 11.7204 246.12 22.4454C253.465 34.3534 275.877 24.6869 279.834 24.6091L285.524 23.2393C298.448 19.519 294.035 2.80102 274.995 7.33075Z" fill="#263238"/>
<path d="M288.578 37.3419C285.694 37.3419 276.773 37.3419 276.679 37.3419C276.612 37.3419 276.547 37.3157 276.5 37.269C276.453 37.2223 276.426 37.1589 276.426 37.0929C276.424 37.0596 276.429 37.0262 276.441 36.9949C276.453 36.9636 276.471 36.9352 276.495 36.9116C276.519 36.888 276.548 36.8698 276.579 36.8581C276.611 36.8464 276.645 36.8415 276.679 36.8438C276.773 36.8438 285.694 36.8438 288.578 36.8438C288.645 36.8438 288.71 36.8701 288.757 36.9168C288.804 36.9635 288.831 37.0268 288.831 37.0929C288.831 37.1589 288.804 37.2223 288.757 37.269C288.71 37.3157 288.645 37.3419 288.578 37.3419Z" fill="white"/>
<path d="M293.907 42.7437C292.887 45.4922 290.807 47.7305 288.122 48.9701C284.545 50.5268 282.165 47.5536 282.669 43.9112C283.11 40.6423 285.506 35.8635 289.336 35.8013C290.168 35.8041 290.986 36.0114 291.717 36.4045C292.447 36.7976 293.067 37.3641 293.521 38.0529C293.974 38.7417 294.247 39.5312 294.314 40.3501C294.382 41.169 294.242 41.9916 293.907 42.7437Z" fill="#7F3E3B"/>
<path d="M271.494 477.068H259.925L259.531 450.574H271.116L271.494 477.068Z" fill="#7F3E3B"/>
<path d="M259.455 475.744H272.064C272.293 475.74 272.517 475.816 272.696 475.958C272.874 476.1 272.997 476.3 273.041 476.523L275.327 486.687C275.384 486.931 275.384 487.185 275.328 487.43C275.271 487.674 275.159 487.903 274.999 488.098C274.839 488.293 274.637 488.449 274.407 488.556C274.177 488.662 273.925 488.715 273.672 488.711C269.101 488.633 262.512 488.368 256.775 488.368C250.077 488.368 244.292 488.742 236.427 488.742C231.699 488.742 230.359 483.994 232.345 483.558C241.408 481.597 248.8 481.395 256.618 476.632C257.458 476.073 258.442 475.765 259.455 475.744Z" fill="#263238"/>
<path opacity="0.2" d="M259.531 450.59L259.736 464.241H271.321L271.116 450.59H259.531Z" fill="black"/>
<path d="M254.679 477.488C253.892 477.675 253.064 477.593 252.33 477.255C252.096 477.11 251.9 476.911 251.76 476.675C251.62 476.439 251.54 476.174 251.526 475.901C251.501 475.739 251.521 475.573 251.585 475.422C251.649 475.271 251.754 475.14 251.889 475.044C253.055 474.188 257.216 475.885 257.689 476.087C257.738 476.112 257.78 476.149 257.808 476.196C257.836 476.243 257.849 476.297 257.847 476.352C257.847 476.406 257.83 476.459 257.799 476.503C257.768 476.548 257.724 476.582 257.673 476.601C256.711 477.003 255.706 477.301 254.679 477.488ZM252.567 475.371C252.441 475.379 252.321 475.422 252.22 475.496C252.163 475.531 252.12 475.584 252.097 475.646C252.074 475.708 252.073 475.776 252.094 475.838C252.091 476.027 252.139 476.213 252.233 476.377C252.327 476.542 252.464 476.678 252.63 476.772C254.027 477.16 255.522 477.004 256.806 476.336C255.47 475.747 254.03 475.419 252.567 475.371Z" fill="#407BFF"/>
<path d="M257.658 476.616H257.532C256.208 476.165 253.465 473.985 253.512 472.662C253.517 472.455 253.595 472.255 253.734 472.099C253.872 471.943 254.061 471.839 254.269 471.806C254.477 471.749 254.695 471.734 254.91 471.764C255.124 471.793 255.33 471.866 255.514 471.977C257.09 472.865 257.863 476.149 257.894 476.289C257.903 476.34 257.899 476.392 257.883 476.441C257.866 476.49 257.838 476.534 257.8 476.57C257.757 476.597 257.708 476.613 257.658 476.616ZM254.505 472.304H254.379C254.032 472.413 254.017 472.584 254.017 472.647C254.017 473.441 255.798 475.122 257.169 475.76C256.879 474.46 256.198 473.277 255.215 472.367C255.107 472.31 254.988 472.275 254.866 472.264C254.745 472.254 254.622 472.267 254.505 472.304Z" fill="#407BFF"/>
<path d="M246.78 169.934C246.78 169.934 238.269 277.199 236.677 312.877C235.006 349.971 255.969 460.957 255.969 460.957H274.804C274.804 460.957 268.594 358.018 271.841 321.703C275.371 282.103 288.438 169.934 288.438 169.934H246.78Z" fill="#263238"/>
<path opacity="0.2" d="M265.772 254.255C267.252 268.719 270.102 283.014 274.283 296.953C277.183 268.794 281.439 230.953 284.528 203.915C277.278 208.6 262.903 222.158 265.772 254.255Z" fill="black"/>
<path d="M268.688 169.934C268.688 169.934 273.526 276.841 280.918 310.339C288.988 347.029 313.104 450.839 313.104 450.839L334.334 446.418C334.334 446.418 320.023 347.994 315.42 311.678C310.424 272.249 309.589 169.934 309.589 169.934H268.688Z" fill="#263238"/>
<path d="M335.802 446.589L312.932 451.337L309.117 443.227L334.288 437.265L335.802 446.589Z" fill="#407BFF"/>
<path d="M278.447 461.424H255.072L253.023 452.707L278.841 453.158L278.447 461.424Z" fill="#407BFF"/>
<path d="M270.029 37.9803C270.234 38.8987 269.903 39.7549 269.289 39.8794C268.674 40.0039 268.012 39.3657 267.823 38.4473C267.634 37.5289 267.965 36.6728 268.564 36.5482C269.162 36.4237 269.84 37.0619 270.029 37.9803Z" fill="#263238"/>
<path d="M259.469 40.1906C259.658 41.109 259.327 41.9652 258.712 42.0897C258.098 42.2142 257.451 41.576 257.247 40.6576C257.042 39.7392 257.388 38.8675 258.003 38.743C258.618 38.6185 259.232 39.2722 259.469 40.1906Z" fill="#263238"/>
<path d="M262.212 40.0977C261.706 43.1524 260.772 46.1228 259.438 48.9236C260.174 49.2419 260.971 49.3971 261.775 49.3783C262.578 49.3595 263.367 49.1671 264.087 48.8147L262.212 40.0977Z" fill="#630F0F"/>
<path d="M266.326 52.4723C266.287 52.4857 266.246 52.4905 266.205 52.4865C266.164 52.4825 266.124 52.4697 266.089 52.449C266.053 52.4283 266.023 52.4002 265.999 52.3667C265.976 52.3332 265.96 52.2951 265.953 52.255C265.946 52.2149 265.948 52.1738 265.959 52.1345C265.97 52.0952 265.989 52.0587 266.016 52.0276C266.042 51.9964 266.075 51.9713 266.112 51.954C266.15 51.9367 266.19 51.9277 266.232 51.9275C267.408 51.7575 268.527 51.3167 269.499 50.6407C270.471 49.9647 271.269 49.0725 271.827 48.036C271.855 47.9686 271.909 47.9146 271.976 47.8855C272.044 47.8565 272.12 47.8546 272.189 47.8803C272.224 47.8954 272.255 47.9172 272.28 47.9442C272.306 47.9712 272.326 48.0031 272.339 48.0378C272.353 48.0726 272.359 48.1096 272.357 48.1467C272.356 48.1838 272.347 48.2202 272.331 48.2539C271.748 49.3822 270.897 50.3548 269.852 51.0892C268.806 51.8235 267.597 52.298 266.326 52.4723Z" fill="#263238"/>
<path d="M274.994 29.87C274.911 29.8934 274.823 29.8971 274.738 29.8809C274.653 29.8646 274.574 29.8289 274.505 29.7767C273.945 29.3559 273.291 29.0718 272.598 28.9474C271.905 28.8229 271.192 28.8617 270.518 29.0606C270.38 29.1041 270.231 29.0941 270.1 29.0325C269.97 28.971 269.868 28.8627 269.816 28.7296C269.763 28.5965 269.765 28.4488 269.819 28.3165C269.873 28.1841 269.976 28.0773 270.108 28.0177C270.96 27.7535 271.865 27.6947 272.745 27.8464C273.625 27.998 274.456 28.3557 275.167 28.8894C275.226 28.9311 275.277 28.9841 275.315 29.0451C275.353 29.1061 275.379 29.174 275.391 29.2448C275.403 29.3157 275.4 29.3882 275.383 29.4581C275.367 29.528 275.336 29.5939 275.293 29.6521C275.216 29.7509 275.112 29.8264 274.994 29.87Z" fill="#263238"/>
<path d="M253.069 33.2174C252.984 33.2128 252.903 33.1859 252.832 33.1395C252.711 33.0574 252.627 32.9319 252.597 32.7896C252.568 32.6473 252.596 32.4993 252.675 32.3768C253.137 31.6237 253.777 30.9923 254.54 30.5369C255.303 30.0814 256.166 29.8154 257.056 29.7617C257.189 29.7837 257.309 29.8513 257.395 29.9525C257.482 30.0536 257.529 30.1818 257.529 30.3143C257.529 30.4468 257.482 30.575 257.395 30.6762C257.309 30.7773 257.189 30.8449 257.056 30.8669C256.353 30.9217 255.674 31.1408 255.074 31.5062C254.473 31.8716 253.97 32.3728 253.605 32.9683C253.55 33.0573 253.47 33.1283 253.375 33.1726C253.279 33.2169 253.173 33.2325 253.069 33.2174Z" fill="#263238"/>
<path d="M304.468 75.2453L301.473 74.9806C301.327 74.9739 301.184 75.0188 301.068 75.1072C300.953 75.1957 300.873 75.3219 300.843 75.4632C292.521 119.609 297.186 166.494 297.186 166.494H300.496C298.682 136.224 300.188 105.849 304.988 75.899C305.002 75.8218 304.998 75.7427 304.979 75.6667C304.96 75.5908 304.924 75.5197 304.875 75.4581C304.826 75.3965 304.765 75.3457 304.694 75.3091C304.624 75.2724 304.547 75.2507 304.468 75.2453Z" fill="#263238"/>
<path d="M300.968 166.525C300.968 166.246 300.857 165.98 300.66 165.782C300.462 165.583 300.193 165.47 299.912 165.466H297.626C297.343 165.47 297.073 165.583 296.873 165.781C296.673 165.978 296.559 166.245 296.555 166.525C296.556 166.758 296.639 166.984 296.788 167.165C296.937 167.346 297.143 167.471 297.374 167.521V170.323C297.411 170.663 297.574 170.977 297.831 171.206C298.089 171.435 298.423 171.561 298.769 171.561C299.116 171.561 299.45 171.435 299.707 171.206C299.965 170.977 300.127 170.663 300.164 170.323V167.521C300.392 167.468 300.595 167.341 300.741 167.161C300.887 166.98 300.967 166.756 300.968 166.525Z" fill="white"/>
<path d="M254.298 75.8685L251.335 76.4133C251.212 76.4357 251.1 76.4961 251.015 76.5857C250.93 76.6753 250.876 76.7894 250.862 76.9114C244.557 121.088 251.461 166.525 251.461 166.525H254.755C249.837 118.442 254.203 82.2194 254.975 76.5067C254.987 76.4175 254.976 76.3269 254.946 76.2423C254.915 76.1576 254.865 76.0813 254.799 76.0192C254.733 75.9572 254.654 75.9113 254.567 75.8851C254.479 75.8589 254.387 75.8532 254.298 75.8685Z" fill="#263238"/>
<path d="M255.243 166.525C255.224 166.242 255.098 165.977 254.891 165.781C254.684 165.586 254.411 165.473 254.124 165.466H251.839C251.701 165.466 251.564 165.493 251.438 165.547C251.311 165.601 251.197 165.68 251.102 165.779C251.008 165.879 250.935 165.996 250.888 166.124C250.841 166.252 250.821 166.389 250.83 166.525C250.842 166.76 250.931 166.985 251.085 167.165C251.239 167.345 251.448 167.47 251.681 167.521L251.823 170.323C251.843 170.69 252.004 171.037 252.274 171.291C252.543 171.546 252.9 171.689 253.273 171.692C253.454 171.695 253.633 171.661 253.8 171.592C253.966 171.523 254.117 171.422 254.243 171.293C254.368 171.165 254.466 171.013 254.529 170.846C254.593 170.679 254.621 170.501 254.613 170.323L254.471 167.521C254.697 167.47 254.899 167.343 255.04 167.161C255.181 166.979 255.253 166.754 255.243 166.525Z" fill="white"/>
<path d="M319.014 466.499C318.28 466.833 317.455 466.92 316.666 466.748C316.404 466.656 316.168 466.501 315.981 466.297C315.794 466.093 315.661 465.847 315.594 465.58C315.537 465.43 315.521 465.266 315.548 465.108C315.576 464.949 315.646 464.8 315.752 464.677C316.729 463.603 321.142 464.413 321.647 464.522C321.703 464.528 321.755 464.553 321.795 464.593C321.835 464.633 321.861 464.684 321.867 464.74C321.88 464.792 321.876 464.847 321.856 464.897C321.837 464.947 321.802 464.99 321.757 465.02C320.896 465.604 319.977 466.099 319.014 466.499ZM316.493 464.864C316.372 464.897 316.263 464.961 316.177 465.051C316.177 465.051 316.067 465.207 316.177 465.409C316.214 465.593 316.298 465.765 316.423 465.907C316.547 466.049 316.707 466.157 316.887 466.219C318.342 466.313 319.779 465.857 320.906 464.942C319.455 464.623 317.954 464.596 316.493 464.864Z" fill="#407BFF"/>
<path d="M321.694 465.051H321.552C320.181 464.864 317.028 463.307 316.823 461.938C316.791 461.731 316.831 461.519 316.937 461.338C317.043 461.157 317.209 461.017 317.407 460.941C317.597 460.843 317.805 460.784 318.019 460.768C318.233 460.752 318.449 460.779 318.652 460.848C320.338 461.408 321.804 464.459 321.883 464.584C321.909 464.629 321.923 464.68 321.923 464.732C321.923 464.784 321.909 464.835 321.883 464.88L321.694 465.051ZM317.753 461.455H317.627C317.312 461.626 317.343 461.797 317.343 461.86C317.485 462.638 319.597 463.914 321.063 464.35C320.59 463.463 319.487 461.766 318.431 461.408C318.207 461.345 317.967 461.361 317.753 461.455Z" fill="#407BFF"/>
<path d="M271.715 45.779C267.98 46.5573 264.134 43.4441 263.156 38.8521C262.29 34.7582 264.212 32.0186 268.578 31.069C272.944 30.1195 275.829 31.9096 276.711 35.9879C277.689 40.6266 275.45 45.0007 271.715 45.779ZM268.689 31.6606C265.836 32.2521 262.636 33.9799 263.677 38.8054C264.591 43.1327 268.169 46.0747 271.557 45.3431C274.946 44.6115 277.09 40.5176 276.16 36.1903C275.167 31.3025 271.542 30.9912 268.689 31.6606Z" fill="white"/>
<path d="M256.41 48.9698C253.258 49.6236 249.916 46.417 248.939 41.825C247.757 36.299 251.146 34.7424 253.274 34.291C255.401 33.8396 259.137 33.933 260.319 39.4434C261.296 44.1132 259.547 48.316 256.41 48.9698ZM253.384 34.7735C251.004 35.2717 248.403 36.875 249.428 41.7004C250.358 46.0278 253.447 49.0632 256.3 48.4561C259.153 47.849 260.744 43.7863 259.815 39.5368C258.79 34.7735 255.748 34.291 253.384 34.7735Z" fill="white"/>
<path d="M263.394 35.9879H263.268C262.566 35.7473 261.811 35.6999 261.083 35.8507C260.356 36.0015 259.683 36.3449 259.138 36.844C259.116 36.8676 259.09 36.8864 259.06 36.8993C259.03 36.9121 258.998 36.9188 258.965 36.9188C258.933 36.9188 258.9 36.9121 258.87 36.8993C258.841 36.8864 258.814 36.8676 258.792 36.844C258.767 36.8208 258.748 36.793 258.735 36.7622C258.722 36.7315 258.715 36.6984 258.715 36.665C258.715 36.6316 258.722 36.5985 258.735 36.5678C258.748 36.537 258.767 36.5092 258.792 36.486C259.4 35.9308 260.149 35.5493 260.96 35.382C261.77 35.2148 262.612 35.2682 263.394 35.5365C263.456 35.5546 263.508 35.5954 263.54 35.6504C263.573 35.7053 263.582 35.7704 263.568 35.8322C263.551 35.8689 263.528 35.9017 263.498 35.9286C263.468 35.9554 263.433 35.9756 263.394 35.9879Z" fill="white"/>
<path d="M274.789 80.4757L277.09 78.8257L282.024 83.4955L274.789 80.4757Z" fill="#263238"/>
<path d="M277.09 78.8256C277.09 78.8256 281.156 84.445 281.944 88.5077C286.815 86.5152 295.988 81.5341 297.217 74.4982C295.445 73.9406 293.755 73.1556 292.189 72.1633C292.189 72.1633 287.288 76.2728 277.09 78.8256Z" fill="white"/>
<path d="M274.79 80.4756L273.829 78.561L267.461 83.4955L274.79 80.4756Z" fill="#263238"/>
<path d="M273.826 78.5767C271.287 80.9585 269.623 84.1077 269.098 87.5272C264.243 85.5347 262.336 79.0437 263.597 74.7163C265.449 73.8967 267.382 73.2707 269.366 72.8484C269.292 74.1723 269.702 75.4783 270.52 76.5293C271.339 77.5804 272.512 78.3068 273.826 78.5767Z" fill="white"/>
<path d="M266.137 176.721L274.38 185.298L282.639 181.468L275.657 168.58L266.137 176.721Z" fill="#7F3E3B"/>
<path d="M289.637 169.233L275.656 168.58L282.639 181.468C282.639 181.468 292.521 181.048 293.514 173.483L289.637 169.233Z" fill="#7F3E3B"/>
<path d="M325.432 93.5042C327.497 101.957 329.325 110.409 330.964 118.955C331.784 123.22 332.551 127.506 333.265 131.812C334.006 136.124 334.652 140.451 335.188 144.966C335.312 145.817 335.38 146.674 335.393 147.534C335.425 148.523 335.362 149.514 335.204 150.491C334.922 152.356 334.353 154.167 333.518 155.862C332.085 158.669 330.128 161.183 327.749 163.271C323.889 166.6 319.529 169.315 314.824 171.319C306.342 174.978 297.407 177.512 288.251 178.853L285.934 169.98C289.716 168.424 293.688 166.711 297.424 164.859C301.115 163.103 304.704 161.144 308.173 158.991C311.301 157.147 314.155 154.884 316.653 152.266C317.484 151.397 318.128 150.369 318.544 149.246C318.629 148.985 318.661 148.71 318.639 148.437C318.657 148.349 318.657 148.259 318.639 148.172C318.555 147.963 318.501 147.743 318.481 147.518C316.81 139.455 314.746 131.034 312.839 122.722C310.931 114.409 308.977 105.973 307.212 97.598L325.432 93.5042Z" fill="#803E3C"/>
<path d="M313.863 77.3937C329.624 80.18 336.591 119.126 336.591 119.126L311.246 134.474C311.246 134.474 303.192 111.499 303.618 97.0381C304.059 83.2465 301.9 75.2456 313.863 77.3937Z" fill="#407BFF"/>
<path d="M207.016 189.453H44.7188V491.217H207.016V189.453Z" fill="#407BFF"/>
<path d="M237.135 185.78H59.6445V189.469H237.135V185.78Z" fill="#407BFF"/>
<path opacity="0.3" d="M237.135 185.78H59.6445V189.469H237.135V185.78Z" fill="black"/>
<path d="M207.032 491.233H252.078L252.078 189.469H207.032L207.032 491.233Z" fill="#407BFF"/>
<path opacity="0.2" d="M207.032 491.233H252.078L252.078 189.469H207.032L207.032 491.233Z" fill="black"/>
<path opacity="0.1" d="M193.916 203.852H184.837C184.027 203.852 183.371 204.5 183.371 205.3V214.328C183.371 215.128 184.027 215.776 184.837 215.776H193.916C194.725 215.776 195.381 215.128 195.381 214.328V205.3C195.381 204.5 194.725 203.852 193.916 203.852Z" fill="black"/>
<path opacity="0.3" d="M169.138 203.852H160.06C159.25 203.852 158.594 204.5 158.594 205.3V214.328C158.594 215.128 159.25 215.776 160.06 215.776H169.138C169.948 215.776 170.604 215.128 170.604 214.328V205.3C170.604 204.5 169.948 203.852 169.138 203.852Z" fill="black"/>
<path opacity="0.3" d="M144.38 203.852H135.302C134.492 203.852 133.836 204.5 133.836 205.3V214.328C133.836 215.128 134.492 215.776 135.302 215.776H144.38C145.19 215.776 145.846 215.128 145.846 214.328V205.3C145.846 204.5 145.19 203.852 144.38 203.852Z" fill="black"/>
<path opacity="0.1" d="M119.603 203.852H110.524C109.715 203.852 109.059 204.5 109.059 205.3V214.328C109.059 215.128 109.715 215.776 110.524 215.776H119.603C120.413 215.776 121.069 215.128 121.069 214.328V205.3C121.069 204.5 120.413 203.852 119.603 203.852Z" fill="black"/>
<path opacity="0.3" d="M94.8414 203.852H85.7627C84.9532 203.852 84.2969 204.5 84.2969 205.3V214.328C84.2969 215.128 84.9532 215.776 85.7627 215.776H94.8414C95.651 215.776 96.3073 215.128 96.3073 214.328V205.3C96.3073 204.5 95.651 203.852 94.8414 203.852Z" fill="black"/>
<path opacity="0.3" d="M70.064 203.852H60.9854C60.1758 203.852 59.5195 204.5 59.5195 205.3V214.328C59.5195 215.128 60.1758 215.776 60.9854 215.776H70.064C70.8735 215.776 71.5298 215.128 71.5298 214.328V205.3C71.5298 204.5 70.8735 203.852 70.064 203.852Z" fill="black"/>
<g opacity="0.1">
<path opacity="0.1" d="M201.721 222.609H50.0156V269.852H201.721V222.609Z" fill="black"/>
</g>
<path d="M193.129 229.365H188.858C187.726 229.365 186.809 230.271 186.809 231.389V261.089C186.809 262.206 187.726 263.112 188.858 263.112H193.129C194.261 263.112 195.178 262.206 195.178 261.089V231.389C195.178 230.271 194.261 229.365 193.129 229.365Z" fill="#407BFF"/>
<path opacity="0.1" d="M175.871 229.365H171.6C170.468 229.365 169.551 230.271 169.551 231.389V261.089C169.551 262.206 170.468 263.112 171.6 263.112H175.871C177.003 263.112 177.92 262.206 177.92 261.089V231.389C177.92 230.271 177.003 229.365 175.871 229.365Z" fill="black"/>
<path d="M158.594 229.365H154.322C153.191 229.365 152.273 230.271 152.273 231.389V261.089C152.273 262.206 153.191 263.112 154.322 263.112H158.594C159.725 263.112 160.643 262.206 160.643 261.089V231.389C160.643 230.271 159.725 229.365 158.594 229.365Z" fill="#407BFF"/>
<path d="M141.32 229.365H137.049C135.917 229.365 135 230.271 135 231.389V261.089C135 262.206 135.917 263.112 137.049 263.112H141.32C142.452 263.112 143.37 262.206 143.37 261.089V231.389C143.37 230.271 142.452 229.365 141.32 229.365Z" fill="#407BFF"/>
<path opacity="0.3" d="M93.4688 238.689C93.4688 237.612 93.7923 236.558 94.3985 235.662C95.0046 234.766 95.8662 234.068 96.8742 233.656C97.8822 233.243 98.9914 233.135 100.062 233.346C101.132 233.556 102.115 234.075 102.886 234.837C103.658 235.599 104.183 236.569 104.396 237.626C104.609 238.683 104.499 239.778 104.082 240.774C103.664 241.77 102.957 242.62 102.05 243.219C101.143 243.818 100.076 244.137 98.9853 244.137C97.5235 244.133 96.1228 243.558 95.0891 242.537C94.0555 241.516 93.4729 240.133 93.4688 238.689Z" fill="white"/>
<path opacity="0.1" d="M120.279 253.773C120.276 254.849 119.95 255.901 119.342 256.795C118.734 257.689 117.871 258.385 116.863 258.795C115.855 259.205 114.746 259.31 113.677 259.098C112.608 258.887 111.626 258.366 110.856 257.604C110.086 256.841 109.563 255.871 109.351 254.814C109.139 253.758 109.25 252.663 109.668 251.668C110.086 250.674 110.793 249.824 111.699 249.226C112.606 248.628 113.672 248.309 114.763 248.309C115.488 248.309 116.207 248.45 116.877 248.725C117.548 249 118.157 249.402 118.669 249.91C119.181 250.418 119.587 251.02 119.864 251.683C120.14 252.346 120.281 253.056 120.279 253.773Z" fill="black"/>
<path opacity="0.1" d="M109.246 238.689C109.246 237.612 109.57 236.558 110.176 235.662C110.782 234.766 111.644 234.068 112.652 233.656C113.66 233.243 114.769 233.135 115.839 233.346C116.909 233.556 117.892 234.075 118.663 234.837C119.435 235.599 119.96 236.569 120.173 237.626C120.386 238.683 120.277 239.778 119.859 240.774C119.442 241.77 118.735 242.62 117.827 243.219C116.92 243.818 115.854 244.137 114.763 244.137C113.301 244.133 111.9 243.558 110.866 242.537C109.833 241.516 109.25 240.133 109.246 238.689Z" fill="black"/>
<path opacity="0.1" d="M104.502 253.773C104.499 254.849 104.173 255.901 103.564 256.795C102.956 257.689 102.094 258.385 101.085 258.795C100.077 259.205 98.9685 259.31 97.8994 259.098C96.8303 258.887 95.8489 258.366 95.0789 257.604C94.309 256.841 93.7852 255.871 93.5736 254.814C93.362 253.758 93.4722 252.663 93.8902 251.668C94.3082 250.674 95.0152 249.824 95.9221 249.226C96.8289 248.628 97.8949 248.309 98.9853 248.309C99.711 248.309 100.43 248.45 101.1 248.725C101.77 249 102.379 249.402 102.892 249.91C103.404 250.418 103.81 251.02 104.086 251.683C104.363 252.346 104.504 253.056 104.502 253.773Z" fill="black"/>
<path opacity="0.3" d="M79.9399 254.593C84.6118 249.979 84.6118 242.499 79.9399 237.885C75.2681 233.271 67.6935 233.271 63.0216 237.885C58.3498 242.499 58.3498 249.979 63.0216 254.593C67.6935 259.207 75.2681 259.207 79.9399 254.593Z" fill="white"/>
<g opacity="0.1">
<path opacity="0.1" d="M201.721 276.328H50.0156V323.571H201.721V276.328Z" fill="black"/>
</g>
<path d="M193.129 283.083H188.858C187.726 283.083 186.809 283.99 186.809 285.107V314.807C186.809 315.925 187.726 316.831 188.858 316.831H193.129C194.261 316.831 195.178 315.925 195.178 314.807V285.107C195.178 283.99 194.261 283.083 193.129 283.083Z" fill="#407BFF"/>
<path opacity="0.1" d="M175.871 283.083H171.6C170.468 283.083 169.551 283.99 169.551 285.107V314.807C169.551 315.925 170.468 316.831 171.6 316.831H175.871C177.003 316.831 177.92 315.925 177.92 314.807V285.107C177.92 283.99 177.003 283.083 175.871 283.083Z" fill="black"/>
<path d="M158.594 283.083H154.322C153.191 283.083 152.273 283.99 152.273 285.107V314.807C152.273 315.925 153.191 316.831 154.322 316.831H158.594C159.725 316.831 160.643 315.925 160.643 314.807V285.107C160.643 283.99 159.725 283.083 158.594 283.083Z" fill="#407BFF"/>
<path d="M141.32 283.083H137.049C135.917 283.083 135 283.99 135 285.107V314.807C135 315.925 135.917 316.831 137.049 316.831H141.32C142.452 316.831 143.37 315.925 143.37 314.807V285.107C143.37 283.99 142.452 283.083 141.32 283.083Z" fill="#407BFF"/>
<path opacity="0.3" d="M93.4688 292.423C93.4688 291.346 93.7923 290.292 94.3985 289.396C95.0046 288.5 95.8662 287.802 96.8742 287.39C97.8822 286.977 98.9914 286.87 100.062 287.08C101.132 287.29 102.115 287.809 102.886 288.571C103.658 289.333 104.183 290.304 104.396 291.36C104.609 292.417 104.499 293.513 104.082 294.508C103.664 295.504 102.957 296.355 102.05 296.953C101.143 297.552 100.076 297.871 98.9853 297.871C97.5222 297.871 96.1191 297.297 95.0845 296.276C94.05 295.254 93.4688 293.868 93.4688 292.423Z" fill="white"/>
<path opacity="0.3" d="M114.763 312.939C117.809 312.939 120.279 310.5 120.279 307.491C120.279 304.482 117.809 302.043 114.763 302.043C111.716 302.043 109.246 304.482 109.246 307.491C109.246 310.5 111.716 312.939 114.763 312.939Z" fill="white"/>
<path opacity="0.1" d="M109.246 292.423C109.246 291.346 109.57 290.292 110.176 289.396C110.782 288.5 111.644 287.802 112.652 287.39C113.66 286.977 114.769 286.87 115.839 287.08C116.909 287.29 117.892 287.809 118.663 288.571C119.435 289.333 119.96 290.304 120.173 291.36C120.386 292.417 120.277 293.513 119.859 294.508C119.442 295.504 118.735 296.355 117.827 296.953C116.92 297.552 115.854 297.871 114.763 297.871C113.3 297.871 111.896 297.297 110.862 296.276C109.827 295.254 109.246 293.868 109.246 292.423Z" fill="black"/>
<path opacity="0.1" d="M98.9854 312.939C102.032 312.939 104.502 310.5 104.502 307.491C104.502 304.482 102.032 302.043 98.9854 302.043C95.9386 302.043 93.4688 304.482 93.4688 307.491C93.4688 310.5 95.9386 312.939 98.9854 312.939Z" fill="black"/>
<path opacity="0.3" d="M71.4826 311.772C78.0895 311.772 83.4456 306.482 83.4456 299.957C83.4456 293.432 78.0895 288.142 71.4826 288.142C64.8756 288.142 59.5195 293.432 59.5195 299.957C59.5195 306.482 64.8756 311.772 71.4826 311.772Z" fill="white"/>
<g opacity="0.1">
<path opacity="0.1" d="M201.721 330.062H50.0156V377.305H201.721V330.062Z" fill="black"/>
</g>
<path d="M193.129 336.802H188.858C187.726 336.802 186.809 337.708 186.809 338.825V368.525C186.809 369.643 187.726 370.549 188.858 370.549H193.129C194.261 370.549 195.178 369.643 195.178 368.525V338.825C195.178 337.708 194.261 336.802 193.129 336.802Z" fill="#407BFF"/>
<path opacity="0.1" d="M175.871 336.802H171.6C170.468 336.802 169.551 337.708 169.551 338.825V368.525C169.551 369.643 170.468 370.549 171.6 370.549H175.871C177.003 370.549 177.92 369.643 177.92 368.525V338.825C177.92 337.708 177.003 336.802 175.871 336.802Z" fill="black"/>
<path d="M158.594 336.802H154.322C153.191 336.802 152.273 337.708 152.273 338.825V368.525C152.273 369.643 153.191 370.549 154.322 370.549H158.594C159.725 370.549 160.643 369.643 160.643 368.525V338.825C160.643 337.708 159.725 336.802 158.594 336.802Z" fill="#407BFF"/>
<path d="M141.32 336.802H137.049C135.917 336.802 135 337.708 135 338.825V368.525C135 369.643 135.917 370.549 137.049 370.549H141.32C142.452 370.549 143.37 369.643 143.37 368.525V338.825C143.37 337.708 142.452 336.802 141.32 336.802Z" fill="#407BFF"/>
<path opacity="0.3" d="M93.4688 346.095C93.4719 345.018 93.7981 343.966 94.4061 343.072C95.0142 342.178 95.8768 341.483 96.8851 341.073C97.8934 340.663 99.0021 340.557 100.071 340.769C101.14 340.981 102.122 341.501 102.892 342.264C103.662 343.026 104.185 343.997 104.397 345.053C104.609 346.11 104.498 347.204 104.08 348.199C103.662 349.194 102.955 350.044 102.048 350.642C101.142 351.239 100.076 351.559 98.9853 351.559C98.2595 351.559 97.5409 351.417 96.8706 351.142C96.2003 350.868 95.5914 350.465 95.0789 349.957C94.5665 349.45 94.1605 348.847 93.8842 348.185C93.6079 347.522 93.4667 346.812 93.4688 346.095Z" fill="white"/>
<path opacity="0.3" d="M114.763 366.658C117.809 366.658 120.279 364.219 120.279 361.21C120.279 358.201 117.809 355.761 114.763 355.761C111.716 355.761 109.246 358.201 109.246 361.21C109.246 364.219 111.716 366.658 114.763 366.658Z" fill="white"/>
<path opacity="0.1" d="M109.246 346.095C109.249 345.018 109.575 343.966 110.183 343.072C110.792 342.178 111.654 341.483 112.662 341.073C113.671 340.663 114.779 340.557 115.849 340.769C116.918 340.981 117.899 341.501 118.669 342.264C119.439 343.026 119.963 343.997 120.174 345.053C120.386 346.11 120.276 347.204 119.858 348.199C119.44 349.194 118.733 350.044 117.826 350.642C116.919 351.239 115.853 351.559 114.763 351.559C114.037 351.559 113.318 351.417 112.648 351.142C111.978 350.868 111.369 350.465 110.856 349.957C110.344 349.45 109.938 348.847 109.662 348.185C109.385 347.522 109.244 346.812 109.246 346.095Z" fill="black"/>
<path opacity="0.1" d="M98.9854 366.658C102.032 366.658 104.502 364.219 104.502 361.21C104.502 358.201 102.032 355.761 98.9854 355.761C95.9386 355.761 93.4688 358.201 93.4688 361.21C93.4688 364.219 95.9386 366.658 98.9854 366.658Z" fill="black"/>
<path opacity="0.1" d="M71.4826 365.49C78.0895 365.49 83.4456 360.201 83.4456 353.675C83.4456 347.15 78.0895 341.861 71.4826 341.861C64.8756 341.861 59.5195 347.15 59.5195 353.675C59.5195 360.201 64.8756 365.49 71.4826 365.49Z" fill="black"/>
<g opacity="0.1">
<path opacity="0.1" d="M201.721 383.78H50.0156V431.023H201.721V383.78Z" fill="black"/>
</g>
<path d="M193.129 390.536H188.858C187.726 390.536 186.809 391.442 186.809 392.56V422.26C186.809 423.377 187.726 424.283 188.858 424.283H193.129C194.261 424.283 195.178 423.377 195.178 422.26V392.56C195.178 391.442 194.261 390.536 193.129 390.536Z" fill="#407BFF"/>
<path opacity="0.1" d="M175.871 390.536H171.6C170.468 390.536 169.551 391.442 169.551 392.56V422.26C169.551 423.377 170.468 424.283 171.6 424.283H175.871C177.003 424.283 177.92 423.377 177.92 422.26V392.56C177.92 391.442 177.003 390.536 175.871 390.536Z" fill="black"/>
<path d="M158.594 390.536H154.322C153.191 390.536 152.273 391.442 152.273 392.56V422.26C152.273 423.377 153.191 424.283 154.322 424.283H158.594C159.725 424.283 160.643 423.377 160.643 422.26V392.56C160.643 391.442 159.725 390.536 158.594 390.536Z" fill="#407BFF"/>
<path d="M141.32 390.536H137.049C135.917 390.536 135 391.442 135 392.56V422.26C135 423.377 135.917 424.283 137.049 424.283H141.32C142.452 424.283 143.37 423.377 143.37 422.26V392.56C143.37 391.442 142.452 390.536 141.32 390.536Z" fill="#407BFF"/>
<path opacity="0.3" d="M98.9854 405.324C102.032 405.324 104.502 402.885 104.502 399.876C104.502 396.867 102.032 394.427 98.9854 394.427C95.9386 394.427 93.4688 396.867 93.4688 399.876C93.4688 402.885 95.9386 405.324 98.9854 405.324Z" fill="white"/>
<path opacity="0.3" d="M114.763 420.392C117.809 420.392 120.279 417.952 120.279 414.943C120.279 411.935 117.809 409.495 114.763 409.495C111.716 409.495 109.246 411.935 109.246 414.943C109.246 417.952 111.716 420.392 114.763 420.392Z" fill="white"/>
<path opacity="0.3" d="M114.763 405.324C117.809 405.324 120.279 402.885 120.279 399.876C120.279 396.867 117.809 394.427 114.763 394.427C111.716 394.427 109.246 396.867 109.246 399.876C109.246 402.885 111.716 405.324 114.763 405.324Z" fill="white"/>
<path opacity="0.1" d="M98.9854 420.392C102.032 420.392 104.502 417.952 104.502 414.943C104.502 411.935 102.032 409.495 98.9854 409.495C95.9386 409.495 93.4688 411.935 93.4688 414.943C93.4688 417.952 95.9386 420.392 98.9854 420.392Z" fill="black"/>
<path opacity="0.3" d="M71.4826 419.224C78.0895 419.224 83.4456 413.935 83.4456 407.41C83.4456 400.885 78.0895 395.595 71.4826 395.595C64.8756 395.595 59.5195 400.885 59.5195 407.41C59.5195 413.935 64.8756 419.224 71.4826 419.224Z" fill="white"/>
<g opacity="0.1">
<path opacity="0.1" d="M201.721 437.499H50.0156V484.742H201.721V437.499Z" fill="black"/>
</g>
<path d="M193.129 444.254H188.858C187.726 444.254 186.809 445.16 186.809 446.278V475.978C186.809 477.096 187.726 478.002 188.858 478.002H193.129C194.261 478.002 195.178 477.096 195.178 475.978V446.278C195.178 445.16 194.261 444.254 193.129 444.254Z" fill="#407BFF"/>
<path opacity="0.1" d="M175.871 444.254H171.6C170.468 444.254 169.551 445.16 169.551 446.278V475.978C169.551 477.096 170.468 478.002 171.6 478.002H175.871C177.003 478.002 177.92 477.096 177.92 475.978V446.278C177.92 445.16 177.003 444.254 175.871 444.254Z" fill="black"/>
<path d="M158.594 444.254H154.322C153.191 444.254 152.273 445.16 152.273 446.278V475.978C152.273 477.096 153.191 478.002 154.322 478.002H158.594C159.725 478.002 160.643 477.096 160.643 475.978V446.278C160.643 445.16 159.725 444.254 158.594 444.254Z" fill="#407BFF"/>
<path d="M141.32 444.254H137.049C135.917 444.254 135 445.16 135 446.278V475.978C135 477.096 135.917 478.002 137.049 478.002H141.32C142.452 478.002 143.37 477.096 143.37 475.978V446.278C143.37 445.16 142.452 444.254 141.32 444.254Z" fill="#407BFF"/>
<path opacity="0.3" d="M98.9854 459.042C102.032 459.042 104.502 456.603 104.502 453.594C104.502 450.585 102.032 448.146 98.9854 448.146C95.9386 448.146 93.4688 450.585 93.4688 453.594C93.4688 456.603 95.9386 459.042 98.9854 459.042Z" fill="white"/>
<path opacity="0.3" d="M114.763 474.11C117.809 474.11 120.279 471.671 120.279 468.662C120.279 465.653 117.809 463.214 114.763 463.214C111.716 463.214 109.246 465.653 109.246 468.662C109.246 471.671 111.716 474.11 114.763 474.11Z" fill="white"/>
<path opacity="0.3" d="M114.763 459.042C117.809 459.042 120.279 456.603 120.279 453.594C120.279 450.585 117.809 448.146 114.763 448.146C111.716 448.146 109.246 450.585 109.246 453.594C109.246 456.603 111.716 459.042 114.763 459.042Z" fill="white"/>
<path opacity="0.1" d="M98.9854 474.11C102.032 474.11 104.502 471.671 104.502 468.662C104.502 465.653 102.032 463.214 98.9854 463.214C95.9386 463.214 93.4688 465.653 93.4688 468.662C93.4688 471.671 95.9386 474.11 98.9854 474.11Z" fill="black"/>
<path opacity="0.3" d="M71.4826 472.943C78.0895 472.943 83.4456 467.653 83.4456 461.128C83.4456 454.603 78.0895 449.313 71.4826 449.313C64.8756 449.313 59.5195 454.603 59.5195 461.128C59.5195 467.653 64.8756 472.943 71.4826 472.943Z" fill="white"/>
<path d="M49.2266 115.857H166.335L182.806 182.106H65.6974L49.2266 115.857Z" fill="#407BFF"/>
<path d="M98.7969 182.106L99.2539 185.764H224.369L223.912 182.106H98.7969Z" fill="#407BFF"/>
<path d="M162.836 115.857L179.307 182.106H179.322L179.779 185.764H66.1545L65.6974 182.106L49.2266 115.857H162.836Z" fill="#407BFF"/>
<path opacity="0.6" d="M162.836 115.857L179.307 182.106H179.322L179.779 185.764H66.1545L65.6974 182.106L49.2266 115.857H162.836Z" fill="white"/>
<path opacity="0.3" d="M115.647 76.662L114.906 76.2884C113.961 75.8058 91.8471 64.178 88.7106 48.9077C86.8329 39.1223 86.0611 29.1612 86.4094 19.2076V17.8378L87.7964 17.7444C87.9698 17.7444 104.456 16.4524 115.095 13.0746L115.584 12.9189L116.057 13.0746C126.696 16.4213 143.183 17.7444 143.356 17.7444L144.743 17.8378V19.2076C145.143 29.1555 144.424 39.1165 142.599 48.9077C139.447 64.178 117.381 75.8058 116.404 76.2884L115.647 76.662ZM89.5144 20.7642C89.3147 30.0021 90.0859 39.2355 91.8156 48.3162C94.3375 60.6756 111.817 71.0426 115.647 73.2219C119.461 71.1049 136.941 60.769 139.463 48.3162C141.201 39.2366 141.972 30.0023 141.764 20.7642C132.938 20.0541 124.196 18.5483 115.647 16.2657C107.093 18.5472 98.3458 20.053 89.5144 20.7642Z" fill="#407BFF"/>
<path d="M115.645 68.0075C109.041 64.0226 97.9131 55.7726 96.2108 47.4136C94.764 39.9424 94.0148 32.3559 93.9727 24.7494C101.287 24.0044 108.533 22.7034 115.645 20.8579C122.751 22.7046 129.992 24.0056 137.301 24.7494C137.253 32.3556 136.504 39.9416 135.063 47.4136C133.361 55.7726 122.233 64.0226 115.645 68.0075Z" fill="#407BFF"/>
<path opacity="0.3" d="M3.75387 491.232H0.601562V127.485C0.614072 118.53 4.22156 109.946 10.6331 103.614C17.0446 97.2816 25.7369 93.7188 34.8041 93.7065H105.101C107.475 93.6982 109.75 92.7619 111.427 91.1022C113.105 89.4426 114.049 87.1945 114.053 84.8494H117.206C117.206 88.0214 115.931 91.0637 113.661 93.3082C111.391 95.5526 108.313 96.8155 105.101 96.8197H34.8041C26.5717 96.8279 18.6787 100.061 12.8575 105.81C7.03624 111.559 3.76222 119.354 3.75387 127.485V491.232Z" fill="#407BFF"/>
</svg>
