<?xml version="1.0" encoding="utf-8"?>
<!-- Generator: Adobe Illustrator 25.2.1, SVG Export Plug-In . SVG Version: 6.00 Build 0)  -->
<svg version="1.1" id="Layer_1" xmlns="http://www.w3.org/2000/svg" xmlns:xlink="http://www.w3.org/1999/xlink" x="0px" y="0px"
	 width="30px" height="30px" viewBox="0 0 30 30" style="enable-background:new 0 0 30 30;" xml:space="preserve">
<style type="text/css">
	.st0{fill:#AFC3EC;}
</style>
<path class="st0" d="M27.3,0H2.7C1.2,0,0,1.2,0,2.7v24.6C0,28.8,1.2,30,2.7,30h13v-0.1h0v-10h-3.2c-0.3,0-0.5-0.2-0.5-0.5v-4.1
	c0-0.3,0.2-0.5,0.5-0.5h3.2v-2.8c0-3.7,2.3-6.1,5.9-6.1h3.2c0.3,0,0.5,0.2,0.5,0.5v3.8c0,0.3-0.2,0.5-0.5,0.5h-2.2
	c-1.5,0-1.8,0.6-1.8,1.7v2.4h3.8c0.1,0,0.2,0.1,0.3,0.2c0.1,0.1,0.2,0.2,0.2,0.3v4.1c0,0.3-0.2,0.5-0.5,0.5h-3.8v10h6.4
	c1.5,0,2.7-1.2,2.7-2.7V2.7C30,1.2,28.8,0,27.3,0z"/>
</svg>
