<?xml version="1.0" encoding="utf-8"?>
<!-- Generator: Adobe Illustrator 25.2.1, SVG Export Plug-In . SVG Version: 6.00 Build 0)  -->
<svg version="1.1" id="Layer_1" xmlns="http://www.w3.org/2000/svg" xmlns:xlink="http://www.w3.org/1999/xlink" x="0px" y="0px"
	 width="50px" height="51px" viewBox="0 0 50 51" style="enable-background:new 0 0 50 51;" xml:space="preserve">
<style type="text/css">
	.st0{fill:#FF492C;}
	.st1{fill:#FFFFFF;}
</style>
<circle class="st0" cx="25" cy="25.5" r="25.5"/>
<g id="surface1">
	<path class="st1" d="M32,32.9c1.3,2.2,2.6,4.4,3.8,6.6c-5.7,4.3-14.4,4.8-21-0.1C7.4,33.7,6.2,24,10.2,17c4.6-8,13.2-9.8,18.8-8.5
		c-0.1,0.3-3.5,7.2-3.5,7.2s-0.3,0-0.4,0c-1.6,0.1-2.9,0.4-4.2,1.1c-2.9,1.5-4.9,4.4-5.3,7.6c-0.2,1.6,0,3.3,0.7,4.8
		c0.5,1.3,1.3,2.4,2.3,3.4c1.5,1.5,3.4,2.4,5.5,2.7c2,0.3,3.9,0,5.7-0.9c0.7-0.3,1.3-0.7,1.9-1.2C31.8,33.1,31.9,33,32,32.9z"/>
	<path class="st1" d="M32,13.4c-0.3-0.3-0.6-0.6-0.9-0.9c-0.2-0.2-0.4-0.4-0.5-0.5c-0.1-0.1-0.1-0.1-0.1-0.1s0.1-0.1,0.1-0.2
		c0.4-0.7,0.9-1.2,1.6-1.6c0.7-0.5,1.6-0.7,2.4-0.7c1.1,0,2.1,0.3,3,1c0.6,0.5,1,1.2,1,2c0.1,1.4-0.5,2.4-1.6,3.2
		c-0.7,0.4-1.4,0.8-2.1,1.2c-0.4,0.2-0.7,0.4-1.1,0.8c-0.3,0.4-0.4,0.8-0.4,0.8l5.2,0v2.3h-8c0,0,0-0.2,0-0.2c0-1.1,0.1-2.2,0.6-3.2
		c0.5-0.9,1.2-1.6,2.1-2.2c0.7-0.4,1.4-0.8,2.1-1.2c0.4-0.3,0.7-0.6,0.7-1.2c0-0.5-0.3-0.9-0.8-1c-1.1-0.3-2.3,0.2-2.9,1.2
		C32.2,13.1,32.1,13.2,32,13.4z"/>
	<path class="st1" d="M42.1,30.5l-4.4-7.5H29l-4.4,7.6h8.7l4.3,7.5L42.1,30.5z"/>
</g>
</svg>
