<svg width="360" height="299" viewBox="0 0 360 299" fill="none" xmlns="http://www.w3.org/2000/svg">
<path d="M62.5 78C62.5 73.3056 66.3056 69.5 71 69.5H348C352.694 69.5 356.5 73.3056 356.5 78V295.5H62.5V78Z" fill="white" stroke="#0D51D9" stroke-width="7"/>
<circle cx="79.2168" cy="86.4603" r="5" fill="#091630"/>
<circle cx="96.2168" cy="86.4603" r="5" fill="#091630"/>
<circle cx="113.217" cy="86.4603" r="5" fill="#091630"/>
<rect x="38.052" y="21.9664" width="6.61536" height="35.912" rx="3.30768" transform="rotate(-25.3643 38.052 21.9664)" fill="#0D51D9"/>
<rect x="10.3838" y="61.9091" width="6.61536" height="35.912" rx="3.30768" transform="rotate(-70.3643 10.3838 61.9091)" fill="#231F20"/>
<rect x="88.5405" y="19.6804" width="6.61536" height="35.912" rx="3.30768" transform="rotate(19.6357 88.5405 19.6804)" fill="#231F20"/>
<path d="M96 151.5C96 146.806 99.8056 143 104.5 143H113V213H96V151.5Z" fill="#DBDBDB"/>
<path d="M174 151.5C174 146.806 177.806 143 182.5 143H191V213H174V151.5Z" fill="#DBDBDB"/>
<path d="M148 189.5C148 184.806 151.806 181 156.5 181H165V213H148V189.5Z" fill="#DBDBDB"/>
<path d="M122 125.5C122 120.806 125.806 117 130.5 117H139V213H122V125.5Z" fill="#0D51D9"/>
<mask id="path-12-inside-1_4252_66918" fill="white">
<path d="M321 168C321 177.494 318.185 186.774 312.911 194.667C307.636 202.561 300.14 208.713 291.369 212.346C282.598 215.979 272.947 216.93 263.636 215.078C254.325 213.226 245.772 208.654 239.059 201.941C232.346 195.228 227.774 186.675 225.922 177.364C224.07 168.053 225.021 158.402 228.654 149.631C232.287 140.86 238.439 133.364 246.333 128.089C254.226 122.815 263.506 120 273 120V168H321Z"/>
</mask>
<path d="M321 168C321 177.494 318.185 186.774 312.911 194.667C307.636 202.561 300.14 208.713 291.369 212.346C282.598 215.979 272.947 216.93 263.636 215.078C254.325 213.226 245.772 208.654 239.059 201.941C232.346 195.228 227.774 186.675 225.922 177.364C224.07 168.053 225.021 158.402 228.654 149.631C232.287 140.86 238.439 133.364 246.333 128.089C254.226 122.815 263.506 120 273 120V168H321Z" fill="#F2C94C" stroke="black" stroke-width="8" mask="url(#path-12-inside-1_4252_66918)"/>
<rect x="95" y="233" width="152" height="12" rx="6" fill="#C4C4C4"/>
<rect x="95" y="257" width="79" height="12" rx="6" fill="#F0F0F0"/>
</svg>
