<svg width="361" height="490" viewBox="0 0 361 490" fill="none" xmlns="http://www.w3.org/2000/svg">
<path d="M356.999 121.958L356.434 130.706L357.916 130.802L358.481 122.054L356.999 121.958Z" fill="#407BFF"/>
<path d="M359.252 86.4286L357.398 115.178L358.88 115.274L360.734 86.5242L359.252 86.4286Z" fill="#407BFF"/>
<path d="M341.628 44.6778H167.062C162.579 44.7564 158.287 46.5032 155.022 49.5773C151.757 52.6513 149.755 56.8321 149.404 61.3038L126.847 409.722C126.682 411.858 126.963 414.005 127.671 416.026C128.38 418.047 129.501 419.899 130.963 421.464C132.425 423.029 134.196 424.272 136.164 425.116C138.132 425.959 140.254 426.384 142.395 426.363H316.932C321.422 426.289 325.724 424.542 328.997 421.466C332.27 418.389 334.28 414.202 334.634 409.722L357.177 61.3038C357.342 59.1688 357.061 57.0228 356.352 55.0022C355.643 52.9817 354.522 51.1307 353.06 49.5671C351.597 48.0034 349.826 46.7612 347.858 45.9195C345.89 45.0778 343.768 44.6549 341.628 44.6778Z" fill="#407BFF"/>
<path opacity="0.7" d="M336.089 44.6778H167.062C162.579 44.7564 158.287 46.5032 155.022 49.5773C151.757 52.6513 149.755 56.8321 149.404 61.3038L126.847 409.722C126.682 411.858 126.963 414.005 127.671 416.026C128.38 418.047 129.501 419.899 130.963 421.464C132.425 423.029 134.196 424.272 136.164 425.116C138.132 425.959 140.254 426.384 142.395 426.363H311.393C315.883 426.289 320.185 424.542 323.458 421.466C326.731 418.389 328.74 414.202 329.094 409.722L351.637 61.3038C351.802 59.1688 351.521 57.0228 350.813 55.0022C350.104 52.9817 348.983 51.1307 347.52 49.5671C346.058 48.0034 344.287 46.7612 342.319 45.9195C340.351 45.0778 338.229 44.6549 336.089 44.6778Z" fill="white"/>
<path d="M321.833 400.615H135.906C135.21 400.616 134.522 400.475 133.884 400.199C133.245 399.923 132.67 399.52 132.194 399.013C131.718 398.506 131.351 397.906 131.116 397.251C130.88 396.597 130.782 395.901 130.827 395.206L151.231 79.9208C151.314 78.6331 151.884 77.4253 152.824 76.5423C153.765 75.6593 155.006 75.1674 156.295 75.1663H342.237C342.934 75.1669 343.622 75.3102 344.261 75.5874C344.899 75.8646 345.474 76.2698 345.95 76.778C346.426 77.2862 346.793 77.8866 347.028 78.5421C347.263 79.1977 347.361 79.8944 347.316 80.5894L326.912 395.86C326.829 397.15 326.257 398.36 325.314 399.244C324.37 400.127 323.125 400.617 321.833 400.615Z" fill="white"/>
<path d="M280.519 64.8549H212.934C212.587 64.858 212.242 64.7887 211.923 64.6516C211.603 64.5144 211.315 64.3122 211.078 64.058C210.841 63.8037 210.659 63.5029 210.544 63.1746C210.429 62.8463 210.383 62.4976 210.41 62.1507C210.478 61.4301 210.807 60.7593 211.335 60.2641C211.863 59.769 212.553 59.4836 213.276 59.4615H280.86C281.207 59.4563 281.551 59.5236 281.871 59.6591C282.191 59.7946 282.478 59.9953 282.716 60.2484C282.953 60.5015 283.136 60.8014 283.251 61.129C283.366 61.4566 283.412 61.8046 283.385 62.1507C283.32 62.874 282.992 63.5484 282.464 64.0467C281.936 64.5449 281.244 64.8324 280.519 64.8549Z" fill="white"/>
<path d="M227.77 413.853C227.661 415.634 226.883 417.307 225.59 418.537C224.298 419.766 222.589 420.46 220.805 420.48C219.949 420.487 219.1 420.319 218.312 419.984C217.524 419.649 216.813 419.156 216.223 418.534C215.634 417.912 215.179 417.176 214.887 416.37C214.594 415.565 214.471 414.708 214.524 413.853C214.636 412.075 215.416 410.405 216.708 409.179C218 407.952 219.708 407.26 221.489 407.241C222.344 407.231 223.193 407.398 223.981 407.731C224.769 408.064 225.48 408.557 226.07 409.177C226.659 409.798 227.115 410.533 227.407 411.338C227.7 412.142 227.823 412.999 227.77 413.853Z" fill="white"/>
<path opacity="0.2" d="M301.575 162.442H142.809L132.711 318.302H301.575C305.981 318.294 310.205 316.54 313.322 313.424C316.439 310.308 318.196 306.084 318.208 301.676V179.127C318.211 174.708 316.462 170.469 313.343 167.34C310.224 164.212 305.992 162.45 301.575 162.442Z" fill="#407BFF"/>
<path d="M286.785 148.639H92.2145C83.0287 148.639 75.582 156.089 75.582 165.28V287.873C75.582 297.063 83.0287 304.514 92.2145 304.514H286.785C295.971 304.514 303.417 297.063 303.417 287.873V165.28C303.417 156.089 295.971 148.639 286.785 148.639Z" fill="#0D51D9"/>
<path d="M70.2665 146.841C69.877 146.839 69.5036 146.685 69.227 146.41L66.5539 143.751C66.2743 143.471 66.1172 143.091 66.1172 142.696C66.1172 142.3 66.2743 141.921 66.5539 141.641C66.8336 141.361 67.2128 141.204 67.6083 141.204C68.0038 141.204 68.3831 141.361 68.6627 141.641L71.3209 144.315C71.5975 144.594 71.7528 144.97 71.7528 145.363C71.7528 145.755 71.5975 146.132 71.3209 146.41C71.1821 146.548 71.0176 146.657 70.8366 146.731C70.6557 146.805 70.462 146.842 70.2665 146.841Z" fill="#0D51D9"/>
<path d="M66.2422 156.172H62.485C62.0912 156.172 61.7135 156.015 61.435 155.737C61.1565 155.458 61 155.08 61 154.686C61 154.292 61.1565 153.914 61.435 153.635C61.7135 153.357 62.0912 153.2 62.485 153.2H66.2422C66.6361 153.2 67.0138 153.357 67.2923 153.635C67.5708 153.914 67.7272 154.292 67.7272 154.686C67.7272 155.08 67.5708 155.458 67.2923 155.737C67.0138 156.015 66.6361 156.172 66.2422 156.172Z" fill="#0D51D9"/>
<path d="M79.725 142.829C79.3485 142.83 78.9857 142.688 78.71 142.432C78.4343 142.175 78.2663 141.823 78.24 141.448L77.9726 137.689C77.9585 137.493 77.9831 137.297 78.0449 137.112C78.1067 136.926 78.2046 136.754 78.3329 136.607C78.4613 136.459 78.6175 136.338 78.7927 136.251C78.9679 136.164 79.1586 136.112 79.3537 136.099C79.7454 136.074 80.1307 136.206 80.4257 136.465C80.7206 136.724 80.9012 137.089 80.9279 137.481L81.21 141.24C81.2242 141.435 81.1996 141.631 81.1378 141.817C81.076 142.002 80.9781 142.174 80.8497 142.322C80.7214 142.469 80.5652 142.59 80.39 142.677C80.2148 142.765 80.0241 142.816 79.8289 142.829H79.725Z" fill="#0D51D9"/>
<path d="M206.117 288.482L265.86 348.24V288.482H206.117Z" fill="#0D51D9"/>
<path d="M222.499 262.302L219.529 249.688C218.779 246.372 218.779 242.93 219.529 239.614L223.657 221.651C225.346 213.991 224.431 205.986 221.058 198.904C217.685 191.823 212.046 186.071 205.035 182.56C205.166 182.229 205.28 181.892 205.376 181.549C205.62 180.46 205.647 179.332 205.455 178.232C205.264 177.132 204.857 176.081 204.259 175.138C203.662 174.195 202.884 173.379 201.971 172.736C201.058 172.094 200.028 171.638 198.938 171.394C197.849 171.15 196.723 171.123 195.623 171.315C194.524 171.507 193.473 171.913 192.53 172.511C191.588 173.109 190.772 173.887 190.13 174.801C189.488 175.714 189.032 176.745 188.788 177.835C188.714 178.182 188.67 178.535 188.655 178.89C180.817 179.074 173.265 181.868 167.194 186.831C161.123 191.793 156.88 198.64 155.137 206.288L151.113 224.266C150.373 227.576 148.902 230.678 146.806 233.344L138.802 243.522C138.019 244.52 137.501 245.7 137.297 246.953C137.093 248.205 137.209 249.489 137.635 250.685C138.06 251.88 138.781 252.948 139.73 253.79C140.68 254.631 141.826 255.219 143.064 255.497L213.603 271.306C214.836 271.573 216.117 271.524 217.326 271.164C218.535 270.804 219.634 270.145 220.521 269.247C221.408 268.349 222.054 267.242 222.4 266.028C222.745 264.814 222.779 263.533 222.499 262.302Z" fill="white"/>
<path d="M169.229 266.195C168.692 266.077 168.135 266.092 167.606 266.241C167.077 266.39 166.593 266.666 166.196 267.047C165.8 267.428 165.503 267.9 165.333 268.423C165.162 268.945 165.123 269.502 165.219 270.043C165.624 272.431 166.73 274.643 168.397 276.4C170.063 278.156 172.214 279.376 174.576 279.905C176.938 280.434 179.404 280.248 181.659 279.37C183.915 278.492 185.859 276.963 187.242 274.976C187.559 274.528 187.76 274.009 187.828 273.466C187.897 272.922 187.831 272.369 187.636 271.857C187.44 271.345 187.122 270.888 186.709 270.528C186.296 270.167 185.801 269.914 185.267 269.791L169.229 266.195Z" fill="white"/>
<path d="M115.056 241.189C114.688 241.192 114.325 241.102 114.001 240.928C113.676 240.754 113.401 240.502 113.2 240.194C106.186 229.68 103.633 216.809 106.103 204.413C108.574 192.016 115.864 181.109 126.372 174.091C126.864 173.763 127.466 173.645 128.045 173.762C128.625 173.88 129.134 174.222 129.461 174.715C129.788 175.207 129.906 175.809 129.789 176.389C129.672 176.969 129.329 177.478 128.837 177.805C119.325 184.179 112.731 194.071 110.503 205.306C108.275 216.542 110.597 228.203 116.957 237.727C117.285 238.218 117.406 238.819 117.291 239.398C117.177 239.978 116.838 240.488 116.348 240.818C115.965 241.07 115.514 241.199 115.056 241.189Z" fill="white"/>
<path d="M124.486 234.86C124.121 234.857 123.762 234.765 123.441 234.592C123.12 234.418 122.846 234.168 122.645 233.864C117.306 225.855 115.363 216.053 117.243 206.612C119.122 197.171 124.67 188.862 132.669 183.511C132.912 183.348 133.186 183.234 133.473 183.177C133.761 183.12 134.057 183.12 134.344 183.177C134.632 183.235 134.905 183.348 135.149 183.511C135.393 183.674 135.602 183.883 135.765 184.127C135.928 184.371 136.041 184.645 136.098 184.932C136.155 185.22 136.155 185.516 136.098 185.804C136.041 186.091 135.927 186.365 135.765 186.609C135.602 186.853 135.392 187.062 135.149 187.225C128.128 191.912 123.257 199.198 121.605 207.479C119.954 215.76 121.658 224.359 126.342 231.383C126.671 231.874 126.791 232.475 126.677 233.054C126.563 233.634 126.223 234.144 125.733 234.473C125.364 234.721 124.93 234.855 124.486 234.86Z" fill="white"/>
<path d="M133.932 228.545C133.568 228.547 133.209 228.458 132.888 228.287C132.566 228.116 132.293 227.868 132.091 227.564C130.271 224.838 129.007 221.78 128.37 218.565C127.733 215.35 127.736 212.041 128.379 208.826C129.022 205.612 130.292 202.557 132.116 199.834C133.94 197.112 136.283 194.776 139.011 192.96C139.502 192.655 140.091 192.553 140.655 192.675C141.22 192.796 141.715 193.132 142.036 193.612C142.358 194.092 142.481 194.677 142.379 195.246C142.277 195.815 141.959 196.321 141.491 196.66C139.254 198.154 137.333 200.075 135.838 202.312C134.342 204.549 133.302 207.059 132.777 209.699C132.251 212.338 132.251 215.055 132.775 217.695C133.3 220.335 134.339 222.845 135.833 225.083C136.158 225.575 136.276 226.175 136.162 226.753C136.048 227.331 135.711 227.842 135.224 228.173C134.841 228.426 134.391 228.555 133.932 228.545Z" fill="white"/>
<path d="M243.48 272.524C242.982 272.523 242.499 272.355 242.107 272.047C241.716 271.738 241.439 271.308 241.321 270.824C241.203 270.34 241.251 269.83 241.456 269.376C241.662 268.922 242.014 268.55 242.455 268.32C252.63 263.06 260.301 253.974 263.781 243.058C267.262 232.142 266.269 220.289 261.018 210.106C260.859 209.845 260.755 209.553 260.713 209.25C260.671 208.946 260.692 208.638 260.775 208.343C260.857 208.048 261 207.773 261.193 207.536C261.387 207.298 261.627 207.103 261.899 206.963C262.172 206.823 262.47 206.74 262.775 206.72C263.081 206.701 263.387 206.744 263.675 206.848C263.963 206.952 264.227 207.114 264.449 207.325C264.672 207.535 264.849 207.789 264.969 208.071C267.836 213.635 269.581 219.71 270.101 225.95C270.622 232.189 269.909 238.469 268.003 244.432C266.097 250.396 263.036 255.925 258.994 260.704C254.952 265.484 250.008 269.419 244.445 272.287C244.144 272.434 243.815 272.515 243.48 272.524Z" fill="white"/>
<path d="M238.269 262.436C237.771 262.435 237.288 262.267 236.896 261.958C236.505 261.65 236.228 261.219 236.11 260.735C235.992 260.251 236.04 259.741 236.245 259.287C236.451 258.833 236.803 258.462 237.244 258.231C240.961 256.314 244.263 253.683 246.962 250.489C249.661 247.294 251.704 243.598 252.974 239.613C254.244 235.628 254.717 231.431 254.365 227.263C254.013 223.095 252.843 219.037 250.922 215.321C250.65 214.795 250.598 214.183 250.778 213.619C250.957 213.054 251.354 212.585 251.88 212.313C252.405 212.041 253.018 211.989 253.582 212.169C254.145 212.348 254.615 212.745 254.887 213.271C257.076 217.506 258.408 222.132 258.809 226.883C259.21 231.634 258.671 236.418 257.223 240.961C255.775 245.503 253.446 249.716 250.37 253.357C247.293 256.999 243.529 259.998 239.294 262.183C238.979 262.352 238.626 262.439 238.269 262.436Z" fill="white"/>
<path d="M233.057 252.347C232.561 252.339 232.081 252.167 231.694 251.856C231.306 251.546 231.032 251.116 230.915 250.634C230.798 250.151 230.844 249.643 231.046 249.19C231.248 248.736 231.595 248.363 232.033 248.128C234.424 246.897 236.548 245.206 238.285 243.152C240.023 241.099 241.338 238.722 242.156 236.159C242.974 233.597 243.278 230.898 243.052 228.217C242.827 225.536 242.074 222.926 240.839 220.536C240.567 220.01 240.516 219.398 240.695 218.834C240.875 218.269 241.271 217.8 241.797 217.528C242.323 217.256 242.935 217.204 243.499 217.384C244.063 217.563 244.532 217.96 244.804 218.486C247.826 224.37 248.392 231.214 246.376 237.515C244.36 243.816 239.928 249.06 234.052 252.095C233.744 252.254 233.404 252.34 233.057 252.347Z" fill="white"/>
<path d="M167.682 59.6992H156.336C156.042 59.7068 155.76 59.8183 155.539 60.0141C155.319 60.2099 155.175 60.4773 155.133 60.769L152.757 83.4125C152.74 83.5489 152.753 83.6874 152.794 83.8187C152.835 83.9499 152.903 84.0709 152.994 84.1736C153.086 84.2763 153.198 84.3583 153.324 84.4141C153.449 84.4699 153.585 84.4982 153.723 84.4971H165.068C165.365 84.4891 165.649 84.3754 165.87 84.1766C166.09 83.9778 166.232 83.7069 166.271 83.4125L168.647 60.769C168.664 60.6333 168.652 60.4954 168.611 60.3649C168.57 60.2344 168.501 60.1142 168.41 60.0127C168.318 59.9111 168.206 59.8305 168.08 59.7765C167.955 59.7224 167.819 59.696 167.682 59.6992Z" fill="#407BFF"/>
<path opacity="0.4" d="M166.657 59.6992H156.336C156.042 59.7067 155.76 59.8182 155.539 60.014C155.319 60.2098 155.175 60.4772 155.133 60.7689L152.757 83.4124C152.74 83.5489 152.753 83.6873 152.794 83.8186C152.835 83.9499 152.903 84.0709 152.994 84.1735C153.086 84.2762 153.198 84.3582 153.324 84.414C153.449 84.4698 153.585 84.4981 153.723 84.497H164.118C164.413 84.4885 164.695 84.3744 164.913 84.1753C165.131 83.9763 165.271 83.7056 165.306 83.4124L167.682 60.7689C167.703 60.6274 167.692 60.4829 167.649 60.3466C167.605 60.2102 167.531 60.0855 167.432 59.9822C167.333 59.8789 167.212 59.7997 167.078 59.7506C166.943 59.7015 166.8 59.6839 166.657 59.6992Z" fill="white"/>
<path d="M110.82 478.396C112.305 478.396 113.79 478.173 114.31 477.49C114.436 477.306 114.504 477.089 114.504 476.866C114.504 476.643 114.436 476.425 114.31 476.242C114.094 475.909 113.759 475.67 113.374 475.573C111.355 475.023 107.256 477.43 107.078 477.534C107.032 477.563 106.995 477.606 106.974 477.657C106.953 477.707 106.948 477.763 106.959 477.817C106.97 477.876 106.999 477.93 107.041 477.972C107.083 478.015 107.138 478.043 107.197 478.054C108.393 478.27 109.605 478.384 110.82 478.396ZM112.632 476.063C112.814 476.04 112.999 476.04 113.181 476.063C113.417 476.121 113.624 476.264 113.761 476.464C113.968 476.821 113.909 476.999 113.761 477.088C113.241 477.876 110.196 477.891 107.954 477.579C109.394 476.761 110.986 476.245 112.632 476.063Z" fill="#407BFF"/>
<path d="M107.168 478.054H107.287C108.772 477.4 111.475 474.8 111.193 473.433C111.193 473.121 110.881 472.72 110.094 472.646C109.815 472.615 109.533 472.641 109.265 472.723C108.997 472.805 108.749 472.94 108.535 473.121C107.049 474.384 106.886 477.579 106.871 477.757C106.869 477.809 106.881 477.861 106.904 477.908C106.927 477.954 106.962 477.995 107.005 478.024C107.055 478.05 107.112 478.06 107.168 478.054ZM109.901 473.181H110.064C110.584 473.181 110.628 473.433 110.628 473.493C110.807 474.31 108.936 476.36 107.495 477.252C107.586 475.888 108.106 474.588 108.98 473.537C109.237 473.317 109.562 473.191 109.901 473.181Z" fill="#407BFF"/>
<path d="M105.951 449.913H93.9219V477.772H105.951V449.913Z" fill="#FF8B7B"/>
<path d="M6.69141 464.489L18.7054 465.797L26.5316 438.755L14.5176 437.448L6.69141 464.489Z" fill="#FF8B7B"/>
<path d="M24.2861 468.515C25.7711 468.902 27.2561 469.065 27.9244 468.515C28.0876 468.364 28.1986 468.164 28.2413 467.945C28.284 467.726 28.2562 467.499 28.162 467.297C28.1009 467.112 28.0039 466.94 27.8765 466.792C27.7491 466.644 27.5938 466.523 27.4195 466.435C25.5632 465.41 20.9596 466.703 20.7665 466.747C20.7099 466.763 20.6595 466.795 20.6222 466.84C20.585 466.886 20.5627 466.941 20.5586 467C20.5585 467.059 20.5752 467.117 20.6068 467.167C20.6383 467.217 20.6834 467.257 20.7368 467.282C21.8827 467.794 23.0701 468.206 24.2861 468.515ZM26.6324 466.732C26.8126 466.776 26.9871 466.841 27.1522 466.926C27.3722 467.03 27.5427 467.217 27.6274 467.446C27.7462 467.847 27.6274 467.995 27.6274 468.085C26.9146 468.694 23.9296 467.966 21.806 467.104C23.3763 466.672 25.0158 466.551 26.6324 466.747V466.732Z" fill="#407BFF"/>
<path d="M20.7957 467.312H20.9145C22.3996 467.03 25.8152 465.217 25.8746 463.85C25.8746 463.523 25.7558 463.077 24.9984 462.81C24.7316 462.714 24.4483 462.672 24.1652 462.688C23.8821 462.703 23.6049 462.775 23.35 462.899C21.5976 463.746 20.6175 466.807 20.573 466.926C20.5482 466.968 20.5352 467.017 20.5352 467.067C20.5352 467.116 20.5482 467.165 20.573 467.208C20.5982 467.243 20.6318 467.271 20.6708 467.289C20.7098 467.307 20.7528 467.315 20.7957 467.312ZM24.6568 463.315H24.835C25.3251 463.493 25.3102 463.701 25.3102 463.761C25.3102 464.593 22.9342 466.094 21.3006 466.584C21.7119 465.299 22.5238 464.179 23.6173 463.389C23.9435 463.24 24.3127 463.213 24.6568 463.315Z" fill="#407BFF"/>
<path d="M19.3421 464.682L6.19951 460.908C5.97369 460.84 5.73126 460.854 5.51427 460.946C5.29729 461.038 5.11941 461.204 5.01147 461.413L0.170233 471.026C0.0571618 471.27 -0.000956085 471.535 1.18958e-05 471.803C0.000979877 472.072 0.0610176 472.337 0.175842 472.579C0.290666 472.822 0.457463 473.036 0.66439 473.207C0.871317 473.377 1.1133 473.5 1.37312 473.567C5.97675 474.8 8.27857 475.187 14.0554 476.836C17.6046 477.861 24.8368 480.327 29.7523 481.739C34.6678 483.15 36.4795 478.53 34.5787 477.519C26.0545 472.988 23.322 469.333 21.0648 465.945C20.6599 465.332 20.0487 464.884 19.3421 464.682Z" fill="#263238"/>
<path d="M105.817 476.375H92.6893C92.4531 476.373 92.2239 476.455 92.0439 476.608C91.8638 476.761 91.7449 476.974 91.7091 477.207L89.7934 487.831C89.7505 488.096 89.7655 488.367 89.8375 488.626C89.9094 488.885 90.0366 489.125 90.2102 489.329C90.3839 489.534 90.5998 489.699 90.8432 489.812C91.0866 489.925 91.3516 489.984 91.62 489.985C96.3573 489.896 103.189 489.614 109.144 489.614C116.108 489.614 119.91 490 128.078 490C133.008 490 134.166 485.008 132.073 484.547C122.583 482.497 117.103 482.274 108.757 477.252C107.871 476.707 106.857 476.405 105.817 476.375Z" fill="#263238"/>
<path opacity="0.2" d="M105.951 449.913H93.9219V464.281H105.951V449.913Z" fill="black"/>
<path opacity="0.2" d="M14.5159 437.462L26.5299 438.755L22.1787 453.762L10.4766 451.399L14.5159 437.462Z" fill="black"/>
<path d="M86.1691 172.842C86.1691 172.842 79.5309 263.684 73.5908 298.125C67.0417 335.849 28.9356 451.354 28.9356 451.354L7.10547 447.358C7.10547 447.358 34.6233 338.895 37.6676 301.542C40.9793 261.009 44.9592 177.463 44.9592 177.463L86.1691 172.842Z" fill="#407BFF"/>
<path opacity="0.3" d="M74.9848 210.582C76.1728 205.589 78.9053 211.874 82.0833 222.765C79.6775 249.717 76.5441 280.934 73.5443 298.139C72.876 301.988 71.8662 306.653 70.5742 311.942C71.7177 273.49 71.7623 224.087 74.9848 210.582Z" fill="black"/>
<path d="M108.846 170.376C108.846 170.376 117.563 261.693 117.86 298.377C118.172 336.547 110.316 461.502 110.316 461.502H89.9268C89.9268 461.502 83.8084 338.776 81.269 301.289C78.492 260.43 66.8047 174.997 66.8047 174.997L108.846 170.376Z" fill="#407BFF"/>
<path d="M33.493 444C33.5821 444 30.0626 451.919 30.0626 451.919L5.5 447.462L6.98504 440.107L33.493 444Z" fill="#263238"/>
<path d="M113.88 453.375C113.969 453.375 113.093 461.844 113.093 461.844H88.3223L87.3125 454.296L113.88 453.375Z" fill="#263238"/>
<path d="M45.5534 88.9842C43.9199 92.1489 42.123 95.4771 40.4894 98.7607L35.4997 108.656C33.881 111.955 32.292 115.268 30.7624 118.581C29.2328 121.894 27.7923 125.193 26.5597 128.491L26.4409 123.291C27.309 125.961 28.3508 128.572 29.5595 131.106C30.1387 132.414 30.8812 133.662 31.5198 134.955C32.1583 136.247 33.0048 137.48 33.7622 138.699C35.3378 141.217 37.043 143.652 38.8707 145.994C39.7915 147.168 40.7122 148.371 41.6923 149.501C42.6724 150.63 43.7417 151.804 44.6624 152.769L44.9594 153.096C45.6436 153.848 46.0379 154.819 46.0718 155.835C46.1056 156.851 45.7768 157.846 45.1442 158.641C44.5117 159.437 43.6167 159.981 42.6195 160.177C41.6224 160.372 40.5882 160.206 39.7024 159.708C38.1673 158.843 36.6801 157.896 35.2472 156.87C33.7622 155.889 32.4554 154.864 31.1188 153.78C28.4433 151.584 25.9318 149.195 23.6045 146.633C21.2287 144.029 19.0683 141.237 17.1446 138.283C15.1679 135.274 13.449 132.102 12.0063 128.803C11.3708 127.403 11.2601 125.821 11.6945 124.346L11.9024 123.648C13.031 119.77 14.2933 116.011 15.6892 112.326C17.0852 108.641 18.5702 105.031 20.1444 101.48C21.7185 97.9286 23.3669 94.4222 25.1044 90.9603C26.8419 87.4984 28.5942 84.1107 30.5991 80.6488C31.707 78.6676 33.5516 77.2038 35.7322 76.5755C37.9127 75.9472 40.2529 76.2052 42.2444 77.2934C44.2359 78.3817 45.7177 80.2122 46.3679 82.3873C47.0181 84.5624 46.7841 86.9064 45.7168 88.9099L45.5534 88.9842Z" fill="#FF8B7B"/>
<path d="M54.0768 83.6948C54.6708 95.0314 41.8103 115.847 41.8103 115.847L15.332 102.609C18.5498 93.2191 23.5297 84.5301 30.0042 77.0087C44.0082 61.5267 53.5273 73.2942 54.0768 83.6948Z" fill="#263238"/>
<path d="M36.1367 157.583L41.468 166.498L52.5613 159.396C50.6238 155.922 47.5893 153.189 43.9332 151.625C43.0877 151.355 42.1735 151.397 41.3563 151.743C40.539 152.089 39.8726 152.717 39.4781 153.512L36.1367 157.583Z" fill="#FF8B7B"/>
<path d="M45.909 170.302L51.0621 169.336C51.4959 169.256 51.9095 169.09 52.2791 168.849C52.6487 168.608 52.9669 168.296 53.2154 167.932C53.4639 167.567 53.6378 167.157 53.727 166.725C53.8162 166.292 53.819 165.847 53.7352 165.413L52.562 159.47L41.4688 166.572L42.2113 168.37C42.5151 169.066 43.0474 169.637 43.7199 169.988C44.3925 170.339 45.1649 170.45 45.909 170.302Z" fill="#FF8B7B"/>
<path d="M77.2 26.7295C77.3039 27.6952 77.9128 28.453 78.5365 28.3936C79.1602 28.3341 79.576 27.5169 79.4572 26.5512C79.3384 25.5854 78.7444 24.8277 78.1207 24.8722C77.497 24.9168 77.0812 25.7488 77.2 26.7295Z" fill="#263238"/>
<path d="M77.8242 28.453C79.3262 31.3388 81.1983 34.016 83.3931 36.4169C81.9081 38.1552 78.938 37.6501 78.938 37.6501L77.8242 28.453Z" fill="#FF5652"/>
<path d="M73.0399 21.6034C73.1171 21.6149 73.1959 21.6089 73.2704 21.5857C73.345 21.5626 73.4134 21.5229 73.4705 21.4697C73.9854 20.9873 74.6108 20.6388 75.2918 20.4548C75.9728 20.2709 76.6886 20.2571 77.3762 20.4148C77.4464 20.4372 77.5204 20.4449 77.5937 20.4374C77.667 20.4298 77.7379 20.4072 77.8021 20.371C77.8662 20.3347 77.9222 20.2855 77.9665 20.2266C78.0107 20.1677 78.0423 20.1002 78.0593 20.0285C78.0965 19.8808 78.0756 19.7245 78.001 19.5918C77.9264 19.4591 77.8038 19.3601 77.6583 19.3153C76.7901 19.108 75.8843 19.116 75.0199 19.3387C74.1555 19.5614 73.3585 19.992 72.6983 20.5931C72.643 20.6458 72.599 20.7092 72.569 20.7794C72.5389 20.8497 72.5234 20.9253 72.5234 21.0017C72.5234 21.0781 72.5389 21.1537 72.569 21.2239C72.599 21.2941 72.643 21.3575 72.6983 21.4103C72.7395 21.4636 72.7909 21.5082 72.8496 21.5414C72.9082 21.5745 72.9729 21.5956 73.0399 21.6034Z" fill="#263238"/>
<path d="M47.2617 37.4866C50.0981 46.0893 53.8702 61.9427 48.4943 68.3019C48.4943 68.3019 52.0287 76.9641 68.3048 75.5823C86.2292 74.0965 75.73 65.9989 75.73 65.9989C65.6614 64.5132 64.9783 57.2476 65.8099 50.309L47.2617 37.4866Z" fill="#FF8B7B"/>
<path d="M44.6477 71.437C42.9696 68.7477 41.0984 65.6722 44.2764 64.5281C47.7663 63.2652 67.3688 61.2148 74.3485 62.9383C81.3282 64.6618 79.9026 70.3672 79.9026 70.3672L44.6477 71.437Z" fill="#407BFF"/>
<path d="M102.046 75.0623C104.6 77.4099 107.362 80.01 110.11 82.3873C112.857 84.7646 115.634 87.2013 118.426 89.5488C121.218 91.8964 124.069 94.1102 126.935 96.2646C129.801 98.419 132.712 100.38 135.623 102.208L129.682 101.643C132.151 100.984 134.487 99.9036 136.588 98.4487C139.043 96.7322 141.321 94.7763 143.389 92.6096C145.619 90.3271 147.706 87.9107 149.641 85.3737C150.636 84.0811 151.631 82.7736 152.612 81.4215C153.592 80.0695 154.483 78.6431 155.299 77.395L155.463 77.1573C156.027 76.2954 156.882 75.6651 157.872 75.3814C158.861 75.0977 159.92 75.1795 160.855 75.6119C161.789 76.0443 162.537 76.7985 162.962 77.7368C163.388 78.6751 163.461 79.735 163.17 80.7232C162.606 82.6547 162.012 84.304 161.329 86.0275C160.646 87.751 159.933 89.4448 159.131 91.1089C157.505 94.5034 155.602 97.7583 153.443 100.841C151.176 104.11 148.535 107.102 145.572 109.756C142.294 112.684 138.489 114.963 134.36 116.471C133.474 116.784 132.535 116.917 131.597 116.864C130.658 116.81 129.74 116.571 128.895 116.159L128.405 115.907C124.718 114.094 121.138 112.07 117.683 109.845C114.312 107.661 111.045 105.387 107.897 102.951C104.749 100.514 101.704 98.0476 98.7342 95.5217C95.7641 92.9959 92.9128 90.3512 90.017 87.3944C88.476 85.7864 87.6174 83.6437 87.6211 81.416C87.6248 79.1883 88.4907 77.0485 90.0371 75.4457C91.5834 73.8428 93.6901 72.9013 95.9152 72.8188C98.1402 72.7362 100.311 73.519 101.972 75.0029L102.046 75.0623Z" fill="#FF8B7B"/>
<path d="M92.9699 67.351C92.9699 67.351 107.939 81.8821 109.677 171.758C85.7377 177.567 62.7047 179.707 44.9139 177.448C44.0675 166.171 42.8052 127.035 31.3704 85.7749C30.8792 84.037 30.7544 82.216 31.004 80.4274C31.2536 78.6387 31.8721 76.9215 32.8202 75.3847C33.7684 73.8479 35.0255 72.5251 36.5117 71.5002C37.998 70.4753 39.6809 69.7707 41.4538 69.4311C43.7259 68.9854 46.1168 68.5842 48.4929 68.2722C57.5195 66.9804 66.6132 66.2115 75.7285 65.9692C81.5013 66.0164 87.2632 66.4781 92.9699 67.351Z" fill="#263238"/>
<path d="M81.3585 83.0113C82.8435 94.2588 102.149 115.877 102.149 115.877L125.063 92.1044C118.256 84.9546 110.898 78.3521 103.055 72.3582C86.2591 59.8032 80.022 72.581 81.3585 83.0113Z" fill="#263238"/>
<path d="M161.684 84.6754L169.347 77.6475L160.17 68.2128C157.134 70.799 155.044 74.322 154.23 78.227C154.14 79.1198 154.376 80.0148 154.895 80.7468C155.414 81.4787 156.179 81.9981 157.051 82.2089L161.684 84.6754Z" fill="#FF8B7B"/>
<path d="M172.168 72.5365L170.193 67.6779C170.026 67.2611 169.776 66.882 169.46 66.5632C169.144 66.2444 168.767 65.9923 168.351 65.8219C167.936 65.6515 167.491 65.5662 167.042 65.5711C166.593 65.576 166.149 65.671 165.738 65.8504L160.109 68.2128L169.287 77.6476L170.891 76.563C171.534 76.1415 172.013 75.5107 172.246 74.7771C172.478 74.0436 172.451 73.2522 172.168 72.5365Z" fill="#FF8B7B"/>
<path d="M44.9756 27.2346C47.1289 39.1209 47.7823 46.1636 54.465 51.8244C64.5188 60.338 78.389 53.7114 79.7107 41.5725C80.9582 30.637 77.2307 13.0304 65.1425 9.19702C53.0542 5.36367 42.8223 15.3482 44.9756 27.2346Z" fill="#FF8B7B"/>
<path d="M68.3922 31.5137C72.5652 32.4646 75.8175 27.6358 76.263 26.2688C74.2285 26.462 70.6198 25.4219 69.907 24.5007C72.1345 24.6939 74.2878 21.9452 74.5551 20.8903C72.1918 20.4337 70.0987 19.0749 68.7189 17.1015C72.3276 17.0272 76.6639 10.668 72.6988 4.97741C68.7338 -0.713183 52.1607 4.05622 49.8292 0C46.3542 2.02068 49.4431 4.70996 49.4431 4.70996C49.4431 4.70996 25.9943 9.16735 36.8054 18.2158C28.8753 18.929 27.7615 28.3044 34.3699 33.0738C40.9784 37.8432 41.3199 40.9931 38.6914 40.6068C39.7458 42.6274 44.4534 42.8949 44.7207 40.9336C45.8345 45.0493 49.0421 50.621 56.4377 49.7147C63.8332 48.8083 71.0802 38.4523 68.3922 31.5137Z" fill="#263238"/>
<path d="M38.8563 16.8341C33.2725 17.6067 30.7331 14.4568 32.1291 11.6783C25.2088 15.2145 32.7676 23.0298 38.8563 16.8341Z" fill="#263238"/>
<path d="M62.615 29.701C63.576 32.1912 65.2758 34.3273 67.4859 35.8225C70.456 37.7838 73.1439 35.8225 72.639 32.8509C72.1787 30.1171 70.0848 25.7934 66.9959 25.0208C66.3562 24.8107 65.6698 24.7879 65.0175 24.9549C64.3653 25.1219 63.7742 25.4718 63.314 25.9635C62.8538 26.4552 62.5435 27.0681 62.4197 27.7303C62.2958 28.3924 62.3636 29.0761 62.615 29.701Z" fill="#FF8B7B"/>
</svg>
