<?xml version="1.0" encoding="utf-8"?>
<!-- Generator: Adobe Illustrator 25.2.1, SVG Export Plug-In . SVG Version: 6.00 Build 0)  -->
<svg version="1.1" id="Layer_1" xmlns="http://www.w3.org/2000/svg" xmlns:xlink="http://www.w3.org/1999/xlink" x="0px" y="0px"
	 width="30px" height="30px" viewBox="0 0 30 30" style="enable-background:new 0 0 30 30;" xml:space="preserve">
<style type="text/css">
	.st0{fill:#AFC3EC;}
	.st1{display:none;}
	.st2{display:inline;fill:#AFC3EC;}
	.st3{display:none;fill:#AFC3EC;}
</style>
<path class="st0" d="M27.3,0H2.7C1.2,0,0,1.2,0,2.7v24.6C0,28.8,1.2,30,2.7,30h24.6c1.5,0,2.7-1.2,2.7-2.7V2.7C30,1.2,28.8,0,27.3,0
	z M9.3,25.9c0,0.4-0.4,0.8-0.8,0.8H5.1c-0.4,0-0.8-0.4-0.8-0.8V11.8c0-0.4,0.4-0.8,0.8-0.8h3.4c0.4,0,0.8,0.4,0.8,0.8V25.9z
	 M6.8,9.7C5,9.7,3.6,8.3,3.6,6.5S5,3.3,6.8,3.3S10,4.7,10,6.5S8.6,9.7,6.8,9.7z M26.9,26c0,0.4-0.3,0.7-0.7,0.7h-3.6
	c-0.4,0-0.7-0.3-0.7-0.7v-6.6c0-1,0.3-4.3-2.6-4.3c-2.2,0-2.7,2.3-2.8,3.3V26c0,0.4-0.3,0.7-0.7,0.7h-3.5c-0.4,0-0.7-0.3-0.7-0.7
	V11.7c0-0.4,0.3-0.7,0.7-0.7h3.5c0.4,0,0.7,0.3,0.7,0.7V13c0.8-1.2,2-2.2,4.7-2.2c5.8,0,5.7,5.4,5.7,8.4L26.9,26L26.9,26z"/>
<g class="st1">
	<path class="st2" d="M29.4,0.1H0.7c-0.3,0-0.6,0.3-0.6,0.6v28.6c0,0.3,0.3,0.6,0.6,0.6h15.2V20h-3.2c-0.3,0-0.5-0.2-0.5-0.5v-4
		c0-0.3,0.2-0.5,0.5-0.5h3.2v-2.8c0-3.7,2.3-6,5.9-6H25c0.3,0,0.5,0.2,0.5,0.5v3.8c0,0.3-0.2,0.5-0.5,0.5h-2.2
		c-1.5,0-1.8,0.6-1.8,1.7V15h3.8c0.1,0,0.3,0.1,0.3,0.2s0.2,0.2,0.2,0.3v4c0,0.3-0.2,0.5-0.5,0.5h-3.8v10h8.2c0.3,0,0.6-0.3,0.6-0.6
		V0.7C30,0.4,29.7,0.1,29.4,0.1z"/>
</g>
<path class="st3" d="M26.3,7.6c-0.4,0.2-0.8,0.3-1.1,0.4c0.5-0.5,0.8-1.1,1-1.8c0-0.2,0-0.3-0.1-0.4c-0.1-0.1-0.3-0.1-0.4,0
	c-0.8,0.5-1.7,0.8-2.7,1c-0.9-0.9-2.2-1.4-3.5-1.4c-2.8,0-5.1,2.3-5.1,5.1c0,0.2,0,0.4,0,0.7c-3.5-0.3-6.7-2-8.9-4.7
	C5.4,6.3,5.3,6.2,5.2,6.2c-0.1,0-0.2,0.1-0.3,0.2C4.4,7.2,4.2,8.1,4.2,9c0,1.2,0.4,2.4,1.2,3.3c-0.2-0.1-0.5-0.2-0.7-0.3
	c-0.1-0.1-0.3-0.1-0.4,0c-0.1,0.1-0.2,0.2-0.2,0.3c0,0,0,0,0,0.1c0,1.8,1,3.5,2.5,4.4c-0.1,0-0.3,0-0.4-0.1c-0.1,0-0.3,0-0.4,0.1
	c-0.1,0.1-0.1,0.2-0.1,0.4c0.6,1.7,2,3,3.7,3.4c-1.4,0.9-3.1,1.4-4.8,1.4c-0.4,0-0.7,0-1.1-0.1c-0.2,0-0.3,0.1-0.4,0.2
	c-0.1,0.2,0,0.4,0.2,0.4c2.2,1.4,4.8,2.2,7.4,2.2c5.2,0,8.4-2.4,10.2-4.5c2.2-2.5,3.5-5.9,3.5-9.2c0-0.1,0-0.3,0-0.4
	c0.9-0.7,1.6-1.5,2.3-2.4c0.1-0.1,0.1-0.3,0-0.5C26.7,7.6,26.5,7.5,26.3,7.6z"/>
</svg>
