<?xml version="1.0" encoding="utf-8"?>
<!-- Generator: Adobe Illustrator 25.2.1, SVG Export Plug-In . SVG Version: 6.00 Build 0)  -->
<svg version="1.1" id="Layer_1" xmlns="http://www.w3.org/2000/svg" xmlns:xlink="http://www.w3.org/1999/xlink" x="0px" y="0px"
	 width="482px" height="329.9px" viewBox="0 0 482 329.9" style="enable-background:new 0 0 482 329.9;" xml:space="preserve">
<style type="text/css">
	.st0{fill-rule:evenodd;clip-rule:evenodd;fill:#FFFFFF;}
	.st1{fill:#FFFFFF;stroke:#3A5CAA;stroke-width:4;}
	.st2{fill:#0C1830;}
	.st3{fill:#3A5CAA;}
	.st4{fill:#231F20;}
	.st5{fill:#EB5857;}
	.st6{fill:#33466B;}
	.st7{fill:#F29A4D;}
	.st8{fill:#486DB5;}
	.st9{fill:#FFFFFF;}
	.st10{fill:#338BCA;stroke:#F5F6F6;stroke-width:4;}
	.st11{fill-rule:evenodd;clip-rule:evenodd;fill:#F5F6F6;}
	.st12{fill:none;stroke:#3A5CAA;stroke-width:2;stroke-dasharray:2,6;}
	.st13{fill:none;stroke:#EB5857;stroke-width:2;}
	.st14{fill:#229753;stroke:#F5F6F6;stroke-width:4;}
	.st15{fill-rule:evenodd;clip-rule:evenodd;fill:#231F20;}
	.st16{fill:#EEEDEE;}
	.st17{fill:#EB5857;stroke:#F5F6F6;stroke-width:4;}
</style>
<g>
	<path class="st0" d="M127.4,216l4.3-4.3c0.4-0.4,0.4-1,0-1.4s-1-0.4-1.4,0l-4.3,4.3l-4.3-4.3c-0.4-0.4-1-0.4-1.4,0s-0.4,1,0,1.4
		l4.3,4.3l-4.3,4.3c-0.4,0.4-0.4,1,0,1.4c0.2,0.2,0.5,0.3,0.7,0.3s0.5-0.1,0.7-0.3l4.3-4.3l4.3,4.3c0.2,0.2,0.5,0.3,0.7,0.3
		s0.5-0.1,0.7-0.3c0.4-0.4,0.4-1,0-1.4L127.4,216z"/>
	<path class="st0" d="M198,310c1.1,0,2,0.9,2,2s-0.9,2-2,2s-2-0.9-2-2S196.9,310,198,310z M198,316c2.2,0,4-1.8,4-4s-1.8-4-4-4
		s-4,1.8-4,4S195.8,316,198,316z M209.7,309.2c-0.4-0.4-1-0.3-1.4,0.1l-1.9,2.1l-0.6-0.7c-0.4-0.4-1-0.4-1.4-0.1
		c-0.4,0.4-0.4,1-0.1,1.4l1.4,1.6c0.2,0.2,0.5,0.3,0.7,0.3l0,0c0.3,0,0.6-0.1,0.7-0.3l2.6-3C210.1,310.2,210.1,309.6,209.7,309.2z
		 M191,325c0-3.9,3.1-7,7-7s7,3.1,7,7c0,0.6-0.4,1-1,1s-1-0.4-1-1c0-2.8-2.2-5-5-5s-5,2.2-5,5c0,0.6-0.4,1-1,1S191,325.5,191,325z"
		/>
	<path class="st0" d="M198,262c1.1,0,2,0.9,2,2s-0.9,2-2,2s-2-0.9-2-2S196.9,262,198,262z M198,268c2.2,0,4-1.8,4-4s-1.8-4-4-4
		s-4,1.8-4,4S195.8,268,198,268z M209.7,261.2c-0.4-0.4-1-0.3-1.4,0.1l-1.9,2.1l-0.6-0.7c-0.4-0.4-1-0.4-1.4-0.1
		c-0.4,0.4-0.4,1-0.1,1.4l1.4,1.6c0.2,0.2,0.5,0.3,0.7,0.3l0,0c0.3,0,0.6-0.1,0.7-0.3l2.6-3C210.1,262.2,210.1,261.6,209.7,261.2z
		 M191,277c0-3.9,3.1-7,7-7s7,3.1,7,7c0,0.6-0.4,1-1,1s-1-0.4-1-1c0-2.8-2.2-5-5-5s-5,2.2-5,5c0,0.6-0.4,1-1,1S191,277.5,191,277z"
		/>
	<path class="st0" d="M198,166c1.1,0,2,0.9,2,2s-0.9,2-2,2s-2-0.9-2-2S196.9,166,198,166z M198,172c2.2,0,4-1.8,4-4c0-2.2-1.8-4-4-4
		s-4,1.8-4,4C194,170.2,195.8,172,198,172z M209.7,165.2c-0.4-0.4-1-0.3-1.4,0.1l-1.9,2.1l-0.6-0.7c-0.4-0.4-1-0.4-1.4-0.1
		c-0.4,0.4-0.4,1-0.1,1.4l1.4,1.6c0.2,0.2,0.5,0.3,0.7,0.3l0,0c0.3,0,0.6-0.1,0.7-0.3l2.6-3C210.1,166.2,210.1,165.6,209.7,165.2z
		 M191,181c0-3.9,3.1-7,7-7s7,3.1,7,7c0,0.6-0.4,1-1,1s-1-0.4-1-1c0-2.8-2.2-5-5-5s-5,2.2-5,5c0,0.6-0.4,1-1,1S191,181.5,191,181z"
		/>
	<path class="st0" d="M198,118c1.1,0,2,0.9,2,2s-0.9,2-2,2s-2-0.9-2-2S196.9,118,198,118z M198,124c2.2,0,4-1.8,4-4s-1.8-4-4-4
		s-4,1.8-4,4S195.8,124,198,124z M209.7,117.2c-0.4-0.4-1-0.3-1.4,0.1l-1.9,2.1l-0.6-0.7c-0.4-0.4-1-0.4-1.4-0.1
		c-0.4,0.4-0.4,1-0.1,1.4l1.4,1.6c0.2,0.2,0.5,0.3,0.7,0.3l0,0c0.3,0,0.6-0.1,0.7-0.3l2.6-3C210.1,118.2,210.1,117.6,209.7,117.2z
		 M191,133c0-3.9,3.1-7,7-7s7,3.1,7,7c0,0.6-0.4,1-1,1s-1-0.4-1-1c0-2.8-2.2-5-5-5s-5,2.2-5,5c0,0.6-0.4,1-1,1S191,133.5,191,133z"
		/>
	<g>
		<path class="st1" d="M198,103c0-5.5,4.5-10,10-10h277c5.5,0,10,4.5,10,10v242H198V103z"/>
		<circle class="st2" cx="216.2" cy="111.4" r="5"/>
		<circle class="st2" cx="233.2" cy="111.4" r="5"/>
		<circle class="st2" cx="250.2" cy="111.4" r="5"/>
		<path class="st3" d="M180,48.5L180,48.5c1.7-0.8,3.6-0.1,4.4,1.6l12.5,26.5c0.8,1.7,0.1,3.6-1.6,4.4l0,0c-1.7,0.8-3.6,0.1-4.4-1.6
			l-12.4-26.5C177.7,51.3,178.4,49.3,180,48.5z"/>
		<path class="st4" d="M150.5,86.8L150.5,86.8c0.6-1.7,2.5-2.6,4.2-2l27.6,9.8c1.7,0.6,2.6,2.5,2,4.2l0,0c-0.6,1.7-2.5,2.6-4.2,2
			L152.5,91C150.8,90.4,149.9,88.5,150.5,86.8z"/>
		<path class="st4" d="M230.7,48.8L230.7,48.8c1.7,0.6,2.6,2.5,2,4.2l-9.8,27.6c-0.6,1.7-2.5,2.6-4.2,2l0,0c-1.7-0.6-2.6-2.5-2-4.2
			l9.8-27.6C227,49.1,228.9,48.2,230.7,48.8z"/>
		<path class="st5" d="M32.5,186L32.5,186c17.9,0,32.5,14.6,32.5,32.5l0,0c0,17.9-14.6,32.5-32.5,32.5l0,0C14.6,251,0,236.4,0,218.5
			l0,0C0,200.5,14.6,186,32.5,186z"/>
		<path class="st6" d="M32.5,279L32.5,279c17.9,0,32.5,14.6,32.5,32.5l0,0c0,17.9-14.6,32.5-32.5,32.5l0,0C14.6,344,0,329.4,0,311.5
			l0,0C0,293.5,14.6,279,32.5,279z"/>
		<path class="st7" d="M32.5,93L32.5,93C50.4,93,65,107.6,65,125.5l0,0c0,17.9-14.6,32.5-32.5,32.5l0,0C14.6,158,0,143.4,0,125.5
			l0,0C0,107.5,14.6,93,32.5,93z"/>
		<path class="st8" d="M32.5,0L32.5,0C50.4,0,65,14.6,65,32.5l0,0C65,50.4,50.4,65,32.5,65l0,0C14.6,65,0,50.4,0,32.5l0,0
			C0,14.5,14.6,0,32.5,0z"/>
		<circle class="st9" cx="33" cy="209" r="7"/>
		<circle class="st9" cx="33" cy="302" r="7"/>
		<circle class="st9" cx="33" cy="116" r="7"/>
		<circle class="st9" cx="33" cy="23" r="7"/>
		<path class="st9" d="M49,235c0-2.1-0.4-4.2-1.2-6.1s-2-3.7-3.5-5.2s-3.2-2.7-5.2-3.5c-1.9-0.8-4-1.2-6.1-1.2s-4.2,0.4-6.1,1.2
			c-1.9,0.8-3.7,2-5.2,3.5s-2.7,3.2-3.5,5.2c-0.8,1.9-1.2,4-1.2,6.1H49z"/>
		<path class="st9" d="M49,328c0-2.1-0.4-4.2-1.2-6.1s-2-3.7-3.5-5.2s-3.2-2.7-5.2-3.5c-1.9-0.8-4-1.2-6.1-1.2s-4.2,0.4-6.1,1.2
			c-1.9,0.8-3.7,2-5.2,3.5s-2.7,3.2-3.5,5.2c-0.8,1.9-1.2,4-1.2,6.1H49z"/>
		<path class="st9" d="M49,142c0-2.1-0.4-4.2-1.2-6.1c-0.8-1.9-2-3.7-3.5-5.2s-3.2-2.7-5.2-3.5c-2-0.8-4-1.2-6.1-1.2
			s-4.2,0.4-6.1,1.2c-1.9,0.8-3.7,2-5.2,3.5s-2.7,3.2-3.5,5.2s-1.2,4-1.2,6.1H49z"/>
		<path class="st9" d="M49,49c0-2.1-0.4-4.2-1.2-6.1s-2-3.7-3.5-5.2s-3.2-2.7-5.2-3.5c-1.9-0.8-4-1.2-6.1-1.2s-4.2,0.4-6.1,1.2
			c-1.9,0.8-3.7,2-5.2,3.5s-2.7,3.2-3.5,5.2S17,46.9,17,49H49z"/>
		<path class="st10" d="M52.2,314.2L52.2,314.2c-0.4,0.9-1.5,1.3-2.4,1l0,0c-4.6-1.5-9,2.9-7.5,7.5l0,0c0.3,0.9-0.1,1.9-1,2.4l0,0
			c-4.3,2.2-4.3,8.4,0,10.7c0.9,0.4,1.3,1.5,1,2.4l0,0c-1.5,4.6,2.9,9,7.5,7.5c0.9-0.3,1.9,0.1,2.4,1l0,0c2.2,4.3,8.4,4.3,10.7,0
			l0,0c0.4-0.9,1.5-1.3,2.4-1c4.6,1.5,9-2.9,7.5-7.5c-0.3-0.9,0.1-1.9,1-2.4l0,0c4.3-2.2,4.3-8.4,0-10.7l0,0c-0.9-0.4-1.3-1.5-1-2.4
			c1.5-4.6-2.9-9-7.5-7.5l0,0c-0.9,0.3-1.9-0.1-2.4-1C60.6,309.9,54.4,309.9,52.2,314.2z"/>
		<path class="st11" d="M64.6,325.3c0.6,0.6,0.6,1.5,0,2.1l-8.9,9.2l-5.4-5.6c-0.6-0.6-0.6-1.6,0-2.1c0.6-0.6,1.6-0.6,2.1,0l3.2,3.4
			l6.7-7C63.1,324.8,64,324.8,64.6,325.3z"/>
		<path class="st10" d="M52.2,128.2L52.2,128.2c-0.4,0.9-1.5,1.3-2.4,1l0,0c-4.6-1.5-9,2.9-7.5,7.5l0,0c0.3,0.9-0.1,1.9-1,2.4l0,0
			c-4.3,2.2-4.3,8.4,0,10.7c0.9,0.4,1.3,1.5,1,2.4l0,0c-1.5,4.6,2.9,9,7.5,7.5c0.9-0.3,1.9,0.1,2.4,1l0,0c2.2,4.3,8.4,4.3,10.7,0
			l0,0c0.4-0.9,1.5-1.3,2.4-1c4.6,1.5,9-2.9,7.5-7.5c-0.3-0.9,0.1-1.9,1-2.4l0,0c4.3-2.2,4.3-8.4,0-10.7l0,0c-0.9-0.4-1.3-1.5-1-2.4
			c1.5-4.6-2.9-9-7.5-7.5l0,0c-0.9,0.3-1.9-0.1-2.4-1C60.6,123.9,54.4,123.9,52.2,128.2z"/>
		<path class="st11" d="M64.6,139.3c0.6,0.6,0.6,1.5,0,2.1l-8.9,9.2l-5.4-5.6c-0.6-0.6-0.6-1.6,0-2.1c0.6-0.6,1.6-0.6,2.1,0l3.2,3.4
			l6.7-7C63.1,138.8,64,138.8,64.6,139.3z"/>
		<path class="st10" d="M52.2,39.2L52.2,39.2c-0.4,0.9-1.5,1.3-2.4,1l0,0c-4.6-1.5-9,2.9-7.5,7.5l0,0c0.3,0.9-0.1,1.9-1,2.4l0,0
			c-4.3,2.2-4.3,8.4,0,10.7c0.9,0.4,1.3,1.5,1,2.4l0,0c-1.5,4.6,2.9,9,7.5,7.5c0.9-0.3,1.9,0.1,2.4,1l0,0c2.2,4.3,8.4,4.3,10.7,0
			l0,0c0.4-0.9,1.5-1.3,2.4-1c4.6,1.5,9-2.9,7.5-7.5c-0.3-0.9,0.1-1.9,1-2.4l0,0c4.3-2.2,4.3-8.4,0-10.7l0,0c-0.9-0.4-1.3-1.5-1-2.4
			c1.5-4.6-2.9-9-7.5-7.5l0,0c-0.9,0.3-1.9-0.1-2.4-1C60.6,34.9,54.4,34.9,52.2,39.2z"/>
		<path class="st11" d="M64.6,50.3c0.6,0.6,0.6,1.5,0,2.1l-8.9,9.2L50.3,56c-0.6-0.6-0.6-1.6,0-2.1c0.6-0.6,1.6-0.6,2.1,0l3.2,3.4
			l6.7-7C63.1,49.8,64,49.8,64.6,50.3z"/>
		<path class="st12" d="M68,28h49c4.4,0,8,3.6,8,8v83c0,4.4,3.6,8,8,8h63"/>
		<path class="st12" d="M66,121h35.4c4.4,0,8,3.6,8,8v39c0,4.4,3.6,8,8,8H194"/>
		<path class="st12" d="M65,309h35c4.4,0,8-3.6,8-8v-27c0-4.4,3.6-8,8-8h77"/>
		<path class="st12" d="M68,402h48c4.4,0,8-3.6,8-8v-69c0-4.4,3.6-8,8-8h63"/>
		<path class="st13" d="M66,216h77"/>
		<circle class="st14" cx="198.5" cy="124.5" r="19.5"/>
		<circle class="st14" cx="198.5" cy="172.5" r="19.5"/>
		<circle class="st14" cx="198.5" cy="268.5" r="19.5"/>
		<circle class="st14" cx="198.5" cy="316.5" r="19.5"/>
		<path class="st15" d="M198,118c1.1,0,2,0.9,2,2s-0.9,2-2,2s-2-0.9-2-2S196.9,118,198,118z M198,124c2.2,0,4-1.8,4-4s-1.8-4-4-4
			s-4,1.8-4,4S195.8,124,198,124z M209.7,117.2c-0.4-0.4-1-0.3-1.4,0.1l-1.9,2.1l-0.6-0.7c-0.4-0.4-1-0.4-1.4-0.1
			c-0.4,0.4-0.4,1-0.1,1.4l1.4,1.6c0.2,0.2,0.5,0.3,0.7,0.3l0,0c0.3,0,0.6-0.1,0.7-0.3l2.6-3C210.1,118.2,210.1,117.6,209.7,117.2z
			 M191,133c0-3.9,3.1-7,7-7s7,3.1,7,7c0,0.6-0.4,1-1,1s-1-0.4-1-1c0-2.8-2.2-5-5-5s-5,2.2-5,5c0,0.6-0.4,1-1,1S191,133.5,191,133z"
			/>
		<g>
			<rect x="188" y="113" class="st9" width="24" height="24"/>
		</g>
		<path class="st15" d="M198,166c1.1,0,2,0.9,2,2s-0.9,2-2,2s-2-0.9-2-2S196.9,166,198,166z M198,172c2.2,0,4-1.8,4-4
			c0-2.2-1.8-4-4-4s-4,1.8-4,4C194,170.2,195.8,172,198,172z M209.7,165.2c-0.4-0.4-1-0.3-1.4,0.1l-1.9,2.1l-0.6-0.7
			c-0.4-0.4-1-0.4-1.4-0.1c-0.4,0.4-0.4,1-0.1,1.4l1.4,1.6c0.2,0.2,0.5,0.3,0.7,0.3l0,0c0.3,0,0.6-0.1,0.7-0.3l2.6-3
			C210.1,166.2,210.1,165.6,209.7,165.2z M191,181c0-3.9,3.1-7,7-7s7,3.1,7,7c0,0.6-0.4,1-1,1s-1-0.4-1-1c0-2.8-2.2-5-5-5
			s-5,2.2-5,5c0,0.6-0.4,1-1,1S191,181.5,191,181z"/>
		<g>
			<rect x="188" y="161" class="st9" width="24" height="24"/>
		</g>
		<path class="st15" d="M198,262c1.1,0,2,0.9,2,2s-0.9,2-2,2s-2-0.9-2-2S196.9,262,198,262z M198,268c2.2,0,4-1.8,4-4s-1.8-4-4-4
			s-4,1.8-4,4S195.8,268,198,268z M209.7,261.2c-0.4-0.4-1-0.3-1.4,0.1l-1.9,2.1l-0.6-0.7c-0.4-0.4-1-0.4-1.4-0.1
			c-0.4,0.4-0.4,1-0.1,1.4l1.4,1.6c0.2,0.2,0.5,0.3,0.7,0.3l0,0c0.3,0,0.6-0.1,0.7-0.3l2.6-3C210.1,262.2,210.1,261.6,209.7,261.2z
			 M191,277c0-3.9,3.1-7,7-7s7,3.1,7,7c0,0.6-0.4,1-1,1s-1-0.4-1-1c0-2.8-2.2-5-5-5s-5,2.2-5,5c0,0.6-0.4,1-1,1S191,277.5,191,277z"
			/>
		<g>
			<rect x="188" y="257" class="st9" width="24" height="24"/>
		</g>
		<path class="st15" d="M198,310c1.1,0,2,0.9,2,2s-0.9,2-2,2s-2-0.9-2-2S196.9,310,198,310z M198,316c2.2,0,4-1.8,4-4s-1.8-4-4-4
			s-4,1.8-4,4S195.8,316,198,316z M209.7,309.2c-0.4-0.4-1-0.3-1.4,0.1l-1.9,2.1l-0.6-0.7c-0.4-0.4-1-0.4-1.4-0.1
			c-0.4,0.4-0.4,1-0.1,1.4l1.4,1.6c0.2,0.2,0.5,0.3,0.7,0.3l0,0c0.3,0,0.6-0.1,0.7-0.3l2.6-3C210.1,310.2,210.1,309.6,209.7,309.2z
			 M191,325c0-3.9,3.1-7,7-7s7,3.1,7,7c0,0.6-0.4,1-1,1s-1-0.4-1-1c0-2.8-2.2-5-5-5s-5,2.2-5,5c0,0.6-0.4,1-1,1S191,325.5,191,325z"
			/>
		<g>
			<rect x="188" y="305" class="st9" width="24" height="24"/>
		</g>
		<path class="st16" d="M231,127h43c5.5,0,10,4.5,10,10v181c0,5.5-4.5,10-10,10h-43c-5.5,0-10-4.5-10-10V137
			C221,131.5,225.5,127,231,127z"/>
		<path class="st16" d="M300,127h164c5.5,0,10,4.5,10,10v2c0,5.5-4.5,10-10,10H300c-5.5,0-10-4.5-10-10v-2
			C290,131.5,294.5,127,300,127z"/>
		<path class="st16" d="M300,155h164c5.5,0,10,4.5,10,10v32c0,5.5-4.5,10-10,10H300c-5.5,0-10-4.5-10-10v-32
			C290,159.5,294.5,155,300,155z"/>
		<path class="st16" d="M300,213h164c5.5,0,10,4.5,10,10v32c0,5.5-4.5,10-10,10H300c-5.5,0-10-4.5-10-10v-32
			C290,217.5,294.5,213,300,213z"/>
		<path class="st16" d="M300,271h164c5.5,0,10,4.5,10,10v32c0,5.5-4.5,10-10,10H300c-5.5,0-10-4.5-10-10v-32
			C290,275.5,294.5,271,300,271z"/>
		<circle class="st17" cx="125.5" cy="215.5" r="15.5"/>
		<path class="st0" d="M127.4,216l4.3-4.3c0.4-0.4,0.4-1,0-1.4s-1-0.4-1.4,0l-4.3,4.3l-4.3-4.3c-0.4-0.4-1-0.4-1.4,0s-0.4,1,0,1.4
			l4.3,4.3l-4.3,4.3c-0.4,0.4-0.4,1,0,1.4c0.2,0.2,0.5,0.3,0.7,0.3s0.5-0.1,0.7-0.3l4.3-4.3l4.3,4.3c0.2,0.2,0.5,0.3,0.7,0.3
			s0.5-0.1,0.7-0.3c0.4-0.4,0.4-1,0-1.4L127.4,216z"/>
		<g>
			<rect x="114" y="204" class="st9" width="24" height="24"/>
		</g>
	</g>
</g>
</svg>
