<?xml version="1.0" encoding="utf-8"?>
<!-- Generator: Adobe Illustrator 25.2.1, SVG Export Plug-In . SVG Version: 6.00 Build 0)  -->
<svg version="1.1" id="Layer_1" xmlns="http://www.w3.org/2000/svg" xmlns:xlink="http://www.w3.org/1999/xlink" x="0px" y="0px"
	 width="435.5px" height="337.3px" viewBox="0 0 435.5 337.3" style="enable-background:new 0 0 435.5 337.3;" xml:space="preserve"
	>
<style type="text/css">
	.st0{fill:#FFFFFF;stroke:#3A5CAA;stroke-width:7;}
	.st1{fill:#0C1830;}
	.st2{fill:#3A5CAA;}
	.st3{fill:#231F20;}
	.st4{fill:#F3CA4E;stroke:#0C1830;stroke-width:4;stroke-linecap:round;stroke-linejoin:round;}
	.st5{fill:none;stroke:#0C1830;stroke-width:4;stroke-linecap:round;stroke-linejoin:round;}
	.st6{opacity:0.5;fill:none;stroke:#BBC9E2;enable-background:new    ;}
	.st7{opacity:0.5;fill:#A8A5D2;enable-background:new    ;}
	.st8{fill:#A8A5D2;}
</style>
<g>
	<g>
		<path class="st0" d="M51.2,117.3c0-4.7,3.8-8.5,8.5-8.5h277c4.7,0,8.5,3.8,8.5,8.5v240.5h-294L51.2,117.3L51.2,117.3z"/>
		<circle class="st1" cx="67.9" cy="125.8" r="5"/>
		<circle class="st1" cx="84.9" cy="125.8" r="5"/>
		<circle class="st1" cx="101.9" cy="125.8" r="5"/>
		<path class="st2" d="M29.8,59.8L29.8,59.8c1.7-0.8,3.6-0.1,4.4,1.6l12.5,26.5c0.8,1.7,0.1,3.6-1.6,4.4l0,0
			c-1.7,0.8-3.6,0.1-4.4-1.6L28.2,64.3C27.4,62.6,28.1,60.6,29.8,59.8z"/>
		<path class="st3" d="M0.2,98.1L0.2,98.1c0.6-1.7,2.5-2.6,4.2-2l27.6,9.8c1.7,0.6,2.6,2.5,2,4.2l0,0c-0.6,1.7-2.5,2.6-4.2,2
			l-27.6-9.8C0.5,101.7-0.4,99.8,0.2,98.1z"/>
		<path class="st3" d="M80.4,60.1L80.4,60.1c1.7,0.6,2.6,2.5,2,4.2l-9.8,27.6c-0.6,1.7-2.5,2.6-4.2,2l0,0c-1.7-0.6-2.6-2.5-2-4.2
			l9.8-27.6C76.8,60.4,78.7,59.5,80.4,60.1z"/>
		<path class="st4" d="M161.1,188.7l29.2,70l10.4-30.5l30.5-10.4L161.1,188.7z"/>
		<path class="st5" d="M202.3,229.9l24.7,24.8"/>
		<circle class="st6" cx="344.2" cy="106.8" r="106"/>
		<circle class="st7" cx="344.2" cy="106.8" r="69.5"/>
		<circle class="st8" cx="344.2" cy="106.8" r="44.5"/>
		<circle class="st2" cx="344.2" cy="106.8" r="22.5"/>
	</g>
</g>
</svg>
