<?xml version="1.0" encoding="utf-8"?>
<!-- Generator: Adobe Illustrator 25.2.1, SVG Export Plug-In . SVG Version: 6.00 Build 0)  -->
<svg version="1.1" id="Layer_1" xmlns="http://www.w3.org/2000/svg" xmlns:xlink="http://www.w3.org/1999/xlink" x="0px" y="0px"
	 width="49px" height="49px" viewBox="0 0 49 49" style="enable-background:new 0 0 49 49;" xml:space="preserve">
<style type="text/css">
	.st0{fill:#EF5DA8;}
	.st1{fill-rule:evenodd;clip-rule:evenodd;fill:#F5F5F5;}
</style>
<circle class="st0" cx="24.5" cy="24.5" r="24.5"/>
<path class="st1" d="M18.9,23.1l5.2,1.1c0.4,0.1,0.7,0.4,0.8,0.8l1.1,5.2l3.5-10.6L18.9,23.1z M25.7,35C25.7,35,25.6,35,25.7,35
	c-0.5,0-0.9-0.4-1-0.8L23,26l-8.2-1.7c-0.4-0.1-0.8-0.5-0.8-0.9s0.2-0.9,0.7-1l16-5.3c0.4-0.1,0.8,0,1,0.2c0.3,0.3,0.4,0.7,0.2,1
	l-5.3,16C26.5,34.7,26.1,35,25.7,35z"/>
</svg>
