<svg width="152" height="68" viewBox="0 0 727 325" fill="none" xmlns="http://www.w3.org/2000/svg">
<path d="M231.802 210.722V151.421L223.783 150.134V143.105H238.93C240.712 143.105 242.89 143.006 245.464 142.808C249.688 142.544 253.153 142.412 255.859 142.412C264.637 142.412 271.369 144.095 276.055 147.461C280.741 150.827 283.084 156.536 283.084 164.588C283.084 169.604 281.83 173.96 279.322 177.656C276.814 181.352 273.415 184.19 269.125 186.17C264.901 188.15 260.248 189.14 255.166 189.14C250.48 189.14 247.279 189.206 245.563 189.338V210.722L257.839 212.504V218.147H223.09V212.504L231.802 210.722ZM245.563 181.814C247.807 182.21 250.711 182.408 254.275 182.408C258.895 182.408 262.525 180.956 265.165 178.052C267.871 175.148 269.224 170.528 269.224 164.192C269.224 159.374 267.805 155.678 264.967 153.104C262.129 150.53 258.301 149.243 253.483 149.243C250.447 149.243 247.807 149.54 245.563 150.134V181.814ZM312.028 162.509C318.298 162.509 323.182 164.258 326.68 167.756C330.178 171.254 332.092 176.237 332.422 182.705C332.488 184.949 332.389 187.028 332.125 188.942C331.927 190.856 331.795 192.044 331.729 192.506H297.376C297.64 198.38 299.191 202.934 302.029 206.168C304.933 209.336 309.025 210.92 314.305 210.92C316.681 210.92 319.189 210.689 321.829 210.227C324.535 209.699 326.845 208.973 328.759 208.049L331.036 213.197C328.792 215.111 325.657 216.629 321.631 217.751C317.605 218.873 313.645 219.434 309.751 219.434C301.303 219.434 294.769 216.992 290.149 212.108C285.595 207.224 283.318 200.492 283.318 191.912C283.318 186.236 284.539 181.187 286.981 176.765C289.423 172.277 292.822 168.779 297.178 166.271C301.534 163.763 306.484 162.509 312.028 162.509ZM309.355 168.746C305.989 168.746 303.25 170.198 301.138 173.102C299.026 175.94 297.772 180.032 297.376 185.378H318.463C318.595 183.794 318.661 182.573 318.661 181.715C318.661 177.953 317.935 175.181 316.483 173.399C315.427 170.297 313.051 168.746 309.355 168.746ZM366.776 162.509C373.046 162.509 377.93 164.258 381.428 167.756C384.926 171.254 386.84 176.237 387.17 182.705C387.236 184.949 387.137 187.028 386.873 188.942C386.675 190.856 386.543 192.044 386.477 192.506H352.124C352.388 198.38 353.939 202.934 356.777 206.168C359.681 209.336 363.773 210.92 369.053 210.92C371.429 210.92 373.937 210.689 376.577 210.227C379.283 209.699 381.593 208.973 383.507 208.049L385.784 213.197C383.54 215.111 380.405 216.629 376.379 217.751C372.353 218.873 368.393 219.434 364.499 219.434C356.051 219.434 349.517 216.992 344.897 212.108C340.343 207.224 338.066 200.492 338.066 191.912C338.066 186.236 339.287 181.187 341.729 176.765C344.171 172.277 347.57 168.779 351.926 166.271C356.282 163.763 361.232 162.509 366.776 162.509ZM364.103 168.746C360.737 168.746 357.998 170.198 355.886 173.102C353.774 175.94 352.52 180.032 352.124 185.378H373.211C373.343 183.794 373.409 182.573 373.409 181.715C373.409 177.953 372.683 175.181 371.231 173.399C370.175 170.297 367.799 168.746 364.103 168.746ZM398.556 211.415V176.666L391.824 172.211V167.459L407.565 162.707L410.535 163.697V172.31C411.459 169.934 413.472 167.756 416.574 165.776C419.742 163.796 422.679 162.806 425.385 162.806C427.959 162.806 429.609 162.938 430.335 163.202V176.468C429.345 175.874 428.058 175.379 426.474 174.983C424.89 174.587 423.306 174.389 421.722 174.389C417.96 174.389 414.858 175.181 412.416 176.765V211.118L424.692 212.603V218.147H391.824V212.603L398.556 211.415ZM463.095 219.434C458.871 219.434 454.383 219.005 449.631 218.147C444.879 217.289 441.48 216.299 439.434 215.177V197.258H445.374L449.334 207.851C450.918 209.831 452.931 211.184 455.373 211.91C457.815 212.636 460.653 212.999 463.887 212.999C467.451 212.999 470.421 212.009 472.797 210.029C475.239 208.049 476.46 205.244 476.46 201.614C476.46 198.776 475.206 196.202 472.698 193.892C470.256 191.582 466.791 189.14 462.303 186.566C457.089 183.728 452.964 181.253 449.928 179.141C446.892 177.029 444.384 174.587 442.404 171.815C440.49 168.977 439.533 165.71 439.533 162.014C439.533 157.856 440.721 154.325 443.097 151.421C445.539 148.451 448.641 146.207 452.403 144.689C456.165 143.171 460.059 142.412 464.085 142.412C467.913 142.412 471.972 142.775 476.262 143.501C480.552 144.227 483.555 145.052 485.271 145.976V160.826H478.935L474.678 151.124C473.754 150.398 472.302 149.804 470.322 149.342C468.342 148.814 466.428 148.55 464.58 148.55C461.478 148.55 458.706 149.342 456.264 150.926C453.822 152.51 452.601 154.952 452.601 158.252C452.601 161.684 454.02 164.687 456.858 167.261C459.762 169.769 464.217 172.64 470.223 175.874C476.559 179.24 481.443 182.606 484.875 185.972C488.307 189.338 490.023 193.43 490.023 198.248C490.023 202.868 488.802 206.795 486.36 210.029C483.984 213.197 480.75 215.573 476.658 217.157C472.566 218.675 468.045 219.434 463.095 219.434ZM525.967 162.509C532.699 162.509 537.979 164.786 541.807 169.34C545.701 173.894 547.648 180.56 547.648 189.338C547.648 194.816 546.361 199.832 543.787 204.386C541.279 208.94 537.781 212.57 533.293 215.276C528.871 217.916 523.954 219.236 518.542 219.236C517.288 219.236 515.836 219.104 514.186 218.84C512.536 218.642 511.546 218.51 511.216 218.444L511.711 228.641V235.967L521.215 237.254V242.897H491.614V237.254L497.95 235.967V176.666L491.317 172.211V167.459L507.058 162.707L509.83 163.697V169.637C511.084 167.789 513.262 166.139 516.364 164.687C519.532 163.235 522.733 162.509 525.967 162.509ZM520.225 170.33C518.509 170.33 516.859 170.759 515.275 171.617C513.757 172.409 512.536 173.3 511.612 174.29V208.445C512.206 209.699 513.361 210.656 515.077 211.316C516.793 211.91 518.74 212.207 520.918 212.207C523.426 212.207 525.637 211.349 527.551 209.633C529.531 207.851 531.082 205.376 532.204 202.208C533.326 198.974 533.887 195.179 533.887 190.823C533.887 184.355 532.633 179.339 530.125 175.775C527.617 172.145 524.317 170.33 520.225 170.33ZM580.746 162.41C589.194 162.344 595.662 164.786 600.15 169.736C604.638 174.686 606.849 181.451 606.783 190.031C606.783 195.839 605.595 200.987 603.219 205.475C600.843 209.897 597.609 213.329 593.517 215.771C589.425 218.147 584.772 219.335 579.558 219.335C570.912 219.335 564.312 216.761 559.758 211.613C555.27 206.399 553.026 199.535 553.026 191.021C553.026 185.213 554.214 180.197 556.59 175.973C559.032 171.683 562.332 168.383 566.49 166.073C570.714 163.763 575.466 162.542 580.746 162.41ZM580.053 168.845C575.631 168.845 572.463 170.66 570.549 174.29C568.701 177.92 567.777 183.002 567.777 189.536C567.777 195.806 568.833 201.251 570.945 205.871C573.057 210.491 576.126 212.801 580.152 212.801C584.64 212.801 587.775 210.887 589.557 207.059C591.339 203.165 592.23 197.72 592.23 190.724C592.23 184.256 591.24 179.009 589.26 174.983C587.28 170.891 584.211 168.845 580.053 168.845ZM628.558 164.093H644.596V171.716H628.954V192.11C628.954 197.126 629.053 200.855 629.251 203.297C629.449 205.739 629.944 207.587 630.736 208.841C631.528 210.029 632.815 210.623 634.597 210.623C635.917 210.623 637.501 210.425 639.349 210.029C641.263 209.633 642.616 209.204 643.408 208.742L645.586 213.791C643.936 215.507 641.395 216.86 637.963 217.85C634.531 218.84 631.264 219.335 628.162 219.335C623.674 219.335 620.44 218.081 618.46 215.573C616.48 212.999 615.49 208.94 615.49 203.396V171.716H608.263V167.063C611.167 166.403 613.18 165.809 614.302 165.281C615.49 164.753 616.48 163.862 617.272 162.608C618.394 160.892 619.945 157.064 621.925 151.124H628.558V164.093Z" fill="#08090D"/>
<path d="M132.625 192.02L81.125 243.5V140.539H184.125L132.625 192.02Z" fill="#FFD700"/>
<path d="M184.125 80.5H81.125V183.503H184.125V80.5Z" fill="#FFD700"/>
<path d="M162.666 101.971H141.208V162.032H162.666V101.971Z" fill="white"/>
</svg>
