<?xml version="1.0" encoding="utf-8"?>
<!-- Generator: Adobe Illustrator 25.2.1, SVG Export Plug-In . SVG Version: 6.00 Build 0)  -->
<svg version="1.1" id="Layer_1" xmlns="http://www.w3.org/2000/svg" xmlns:xlink="http://www.w3.org/1999/xlink" x="0px" y="0px"
	 width="394px" height="350.9px" viewBox="0 0 394 350.9" style="enable-background:new 0 0 394 350.9;" xml:space="preserve">
<style type="text/css">
	.st0{fill:none;stroke:#0D51D9;stroke-width:2;stroke-dasharray:2,6;}
	.st1{fill:#0D51D9;}
	.st2{fill:#FFFFFF;stroke:#0D51D9;stroke-width:2;}
	.st3{fill:#80C6FF;}
	.st4{fill:#F178B6;}
	.st5{fill:#FCDDEC;}
	.st6{fill:#27AE60;}
	.st7{fill:#231F20;}
	.st8{fill:#091630;}
	.st9{fill-rule:evenodd;clip-rule:evenodd;fill:#FFFFFF;}
	.st10{fill:#FFFFFF;}
</style>
<g>
	<path class="st0" d="M182.3,196.9h51.5"/>
	<path class="st0" d="M181.8,228.4h18.7c4.4,0,8,3.6,8,8v78c0,4.4,3.6,8,8,8h17.3"/>
	<path class="st1" d="M28.8,135.4h149c2.2,0,4,1.8,4,4v113c0,2.2-1.8,4-4,4h-149c-2.2,0-4-1.8-4-4v-113
		C24.8,137.2,26.6,135.4,28.8,135.4z"/>
	<path class="st0" d="M182.8,163.4h16.5c4.4,0,8-3.6,8-8v-86c0-4.4,3.6-8,8-8h19.5"/>
	<path class="st2" d="M238.8,1.4h149c2.8,0,5,2.2,5,5v113c0,2.8-2.2,5-5,5h-149c-2.8,0-5-2.2-5-5V6.4C233.8,3.6,236,1.4,238.8,1.4z"
		/>
	<path class="st2" d="M238.8,134.4h149c2.8,0,5,2.2,5,5v113c0,2.8-2.2,5-5,5h-149c-2.8,0-5-2.2-5-5v-113
		C233.8,136.6,236,134.4,238.8,134.4z"/>
	<path class="st2" d="M238.8,267.4h149c2.8,0,5,2.2,5,5v113c0,2.8-2.2,5-5,5h-149c-2.8,0-5-2.2-5-5v-113
		C233.8,269.6,236,267.4,238.8,267.4z"/>
	<circle class="st3" cx="35.3" cy="145.9" r="2.5"/>
	<circle class="st4" cx="245.3" cy="12.9" r="2.5"/>
	<circle class="st4" cx="245.3" cy="145.9" r="2.5"/>
	<circle class="st4" cx="245.3" cy="278.9" r="2.5"/>
	<circle class="st3" cx="44.3" cy="145.9" r="2.5"/>
	<circle class="st4" cx="254.3" cy="12.9" r="2.5"/>
	<circle class="st4" cx="254.3" cy="145.9" r="2.5"/>
	<circle class="st4" cx="254.3" cy="278.9" r="2.5"/>
	<circle class="st3" cx="53.3" cy="145.9" r="2.5"/>
	<circle class="st4" cx="263.3" cy="12.9" r="2.5"/>
	<circle class="st4" cx="263.3" cy="145.9" r="2.5"/>
	<circle class="st4" cx="263.3" cy="278.9" r="2.5"/>
	<circle class="st5" cx="103.8" cy="182.4" r="10"/>
	<path class="st3" d="M126.8,219.4c0-3-0.6-6-1.8-8.8s-2.8-5.3-5-7.5c-2.1-2.1-4.7-3.8-7.5-5s-5.8-1.8-8.8-1.8s-6,0.6-8.8,1.8
		s-5.3,2.8-7.5,5c-2.1,2.1-3.8,4.7-5,7.5s-1.8,5.8-1.8,8.8h23H126.8z"/>
	<circle class="st6" cx="313.8" cy="62.4" r="21"/>
	<circle class="st6" cx="313.8" cy="195.4" r="21"/>
	<circle class="st6" cx="313.8" cy="328.4" r="21"/>
	<path class="st1" d="M15.5,111.6L15.5,111.6c0.9-0.4,1.9,0,2.3,0.8l6.5,13.8c0.4,0.9,0,1.9-0.8,2.3l0,0c-0.9,0.4-1.9,0-2.3-0.8
		l-6.5-13.8C14.3,113,14.7,112,15.5,111.6z"/>
	<path class="st7" d="M0.1,131.5L0.1,131.5c0.3-0.9,1.3-1.4,2.2-1l14.4,5.1c0.9,0.3,1.4,1.3,1,2.2l0,0c-0.3,0.9-1.3,1.4-2.2,1
		l-14.4-5.1C0.3,133.4-0.2,132.4,0.1,131.5z"/>
	<path class="st7" d="M41.9,111.7L41.9,111.7c0.9,0.3,1.4,1.3,1,2.2l-5.1,14.4c-0.3,0.9-1.3,1.4-2.2,1l0,0c-0.9-0.3-1.4-1.3-1-2.2
		l5.1-14.4C40,111.8,41,111.4,41.9,111.7z"/>
	<circle class="st8" cx="187.3" cy="163.9" r="5.5"/>
	<circle class="st8" cx="187.3" cy="197.9" r="5.5"/>
	<circle class="st8" cx="187.3" cy="228.9" r="5.5"/>
	<path class="st9" d="M311.6,68.4c-0.3,0-0.5-0.1-0.7-0.3l-4.9-5.2c-0.4-0.4-0.4-1,0-1.4s1-0.4,1.4,0l4.1,4.4l8.4-9.2
		c0.4-0.4,1-0.4,1.4-0.1c0.4,0.4,0.4,1,0.1,1.4l-9.1,10C312.2,68.3,311.9,68.4,311.6,68.4L311.6,68.4z"/>
	<g>
		<rect x="301.8" y="50.4" class="st10" width="24" height="24"/>
	</g>
	<path class="st9" d="M311.6,201.4c-0.3,0-0.5-0.1-0.7-0.3l-4.9-5.2c-0.4-0.4-0.4-1,0-1.4s1-0.4,1.4,0l4.1,4.4l8.4-9.2
		c0.4-0.4,1-0.4,1.4-0.1c0.4,0.4,0.4,1,0.1,1.4l-9.1,10C312.2,201.3,311.9,201.4,311.6,201.4L311.6,201.4z"/>
	<g>
		<rect x="301.8" y="183.4" class="st10" width="24" height="24"/>
	</g>
	<path class="st9" d="M311.6,334.4c-0.3,0-0.5-0.1-0.7-0.3l-4.9-5.2c-0.4-0.4-0.4-1,0-1.4s1-0.4,1.4,0l4.1,4.4l8.4-9.2
		c0.4-0.4,1-0.4,1.4-0.1c0.4,0.4,0.4,1,0.1,1.4l-9.1,10C312.2,334.3,311.9,334.4,311.6,334.4L311.6,334.4z"/>
	<g>
		<rect x="301.8" y="316.4" class="st10" width="24" height="24"/>
	</g>
</g>
</svg>
