<?xml version="1.0" encoding="utf-8"?>
<!-- Generator: Adobe Illustrator 25.2.1, SVG Export Plug-In . SVG Version: 6.00 Build 0)  -->
<svg version="1.1" id="Layer_1" xmlns="http://www.w3.org/2000/svg" xmlns:xlink="http://www.w3.org/1999/xlink" x="0px" y="0px"
	 width="30px" height="30px" viewBox="0 0 30 30" style="enable-background:new 0 0 30 30;" xml:space="preserve">
<style type="text/css">
	.st0{fill:#AFC3EC;}
</style>
<path class="st0" d="M27.3,0H2.7C1.2,0,0,1.2,0,2.7v24.6C0,28.8,1.2,30,2.7,30h24.6c1.5,0,2.7-1.2,2.7-2.7V2.7C30,1.2,28.8,0,27.3,0
	z M26.8,8.2c-0.6,0.9-1.4,1.7-2.3,2.4c0,0.1,0,0.3,0,0.4c0,3.3-1.3,6.7-3.5,9.2c-1.8,2-5,4.5-10.2,4.5c-2.6,0-5.2-0.7-7.4-2.2
	c-0.1-0.1-0.2-0.3-0.2-0.4s0.2-0.3,0.4-0.2C4,21.9,4.3,22,4.7,22c1.7,0,3.4-0.5,4.8-1.4c-1.7-0.4-3.2-1.7-3.7-3.4
	c0-0.1,0-0.3,0.1-0.4s0.2-0.1,0.4-0.1c0.1,0,0.3,0,0.4,0.1c-1.5-0.9-2.5-2.5-2.5-4.4c0,0,0,0,0-0.1S4.3,12,4.4,12
	c0.1-0.1,0.3-0.1,0.4,0c0.2,0.1,0.4,0.2,0.7,0.3c-0.9-1-1.3-2.1-1.3-3.3c0-0.9,0.2-1.8,0.7-2.5C5,6.4,5.1,6.3,5.2,6.3
	c0.1,0,0.2,0,0.3,0.1c2.2,2.7,5.4,4.4,8.9,4.7c0-0.2,0-0.4,0-0.7c0-2.8,2.3-5.1,5.1-5.1c1.3,0,2.6,0.5,3.5,1.4
	c0.9-0.2,1.8-0.6,2.7-1c0.1-0.1,0.3-0.1,0.4,0s0.2,0.3,0.1,0.4c-0.2,0.7-0.6,1.3-1,1.8c0.4-0.1,0.8-0.3,1.1-0.4
	c0.2-0.1,0.3,0,0.4,0.1C26.9,7.8,26.9,8,26.8,8.2z"/>
<path class="st0" d="M24.7,3.1H5.3c-1.2,0-2.1,0.9-2.1,2.1v19.5c0,1.2,0.9,2.1,2.1,2.1h19.5c1.2,0,2.1-0.9,2.1-2.1V5.3
	C26.9,4.1,25.9,3.1,24.7,3.1z M24.3,9.6c-0.5,0.7-1.1,1.3-1.8,1.9c0,0.1,0,0.2,0,0.3c0,2.6-1,5.3-2.8,7.3c-1.4,1.6-4,3.6-8.1,3.6
	c-2.1,0-4.1-0.6-5.9-1.7c-0.1-0.1-0.2-0.2-0.2-0.3c0-0.1,0.2-0.2,0.3-0.2c0.3,0,0.6,0.1,0.9,0.1c1.3,0,2.7-0.4,3.8-1.1
	c-1.3-0.3-2.5-1.3-2.9-2.7c0-0.1,0-0.2,0.1-0.3c0.1-0.1,0.2-0.1,0.3-0.1c0.1,0,0.2,0,0.3,0.1c-1.2-0.7-2-2-2-3.5c0,0,0,0,0-0.1
	c0-0.1,0.1-0.2,0.2-0.2c0.1-0.1,0.2-0.1,0.3,0c0.2,0.1,0.3,0.2,0.6,0.2c-0.7-0.8-1-1.7-1-2.6c0-0.7,0.2-1.4,0.6-2
	c0.1-0.1,0.2-0.2,0.2-0.2c0.1,0,0.2,0,0.2,0.1c1.7,2.1,4.3,3.5,7,3.7c0-0.2,0-0.3,0-0.6c0-2.2,1.8-4,4-4c1,0,2.1,0.4,2.8,1.1
	C22,8.3,22.8,8,23.5,7.6c0.1-0.1,0.2-0.1,0.3,0c0.1,0.1,0.2,0.2,0.1,0.3c-0.2,0.6-0.5,1-0.8,1.4c0.3-0.1,0.6-0.2,0.9-0.3
	c0.2-0.1,0.2,0,0.3,0.1C24.4,9.3,24.4,9.5,24.3,9.6z"/>
</svg>
