<?xml version="1.0" encoding="utf-8"?>
<!-- Generator: Adobe Illustrator 25.2.1, SVG Export Plug-In . SVG Version: 6.00 Build 0)  -->
<svg version="1.1" id="Layer_1" xmlns="http://www.w3.org/2000/svg" xmlns:xlink="http://www.w3.org/1999/xlink" x="0px" y="0px"
	 width="570.6px" height="408.1px" viewBox="0 0 570.6 408.1" style="enable-background:new 0 0 570.6 408.1;" xml:space="preserve"
	>
<style type="text/css">
	.st0{clip-path:url(#SVGID_2_);}
	.st1{fill:none;stroke:#FFFFFF;stroke-width:3;stroke-linecap:round;stroke-miterlimit:10;stroke-opacity:0.6;}
	.st2{clip-path:url(#SVGID_4_);}
	.st3{fill:none;stroke:#FFFFFF;stroke-miterlimit:10;stroke-opacity:0.6;}
	.st4{fill:none;stroke:#FFFFFF;stroke-width:2;stroke-miterlimit:10;}
	.st5{opacity:0.62;}
	.st6{fill:none;stroke:#FFFFFF;stroke-miterlimit:10;}
	.st7{fill:none;stroke:#FFFFFF;stroke-width:2;stroke-miterlimit:10;stroke-opacity:0.6;}
</style>
<g>
	<g>
		<defs>
			<rect id="SVGID_1_" x="382.2" y="288" width="68.5" height="133.9"/>
		</defs>
		<clipPath id="SVGID_2_">
			<use xlink:href="#SVGID_1_"  style="overflow:visible;"/>
		</clipPath>
		<g class="st0">
			<path class="st1" d="M395,305.8c22.5,5.1,39.3,25.2,39.3,49.2c0,26-19.6,47.3-44.8,50.1"/>
			<path class="st1" d="M397.4,291c29.7,6.2,51.9,32.5,51.9,64c0,33.8-25.7,61.7-58.6,65.1"/>
			<path class="st1" d="M393,320.5c15.2,4.1,26.5,18,26.5,34.5c0,18.1-13.5,33.1-31,35.4"/>
			<path class="st1" d="M390.9,335.3c8.1,3,13.8,10.7,13.8,19.7c0,10.3-7.5,18.9-17.3,20.7"/>
		</g>
	</g>
</g>
<g>
	<g>
		<defs>
			<rect id="SVGID_3_" x="328.4" y="37.4" width="100.2" height="57.2"/>
		</defs>
		<clipPath id="SVGID_4_">
			<use xlink:href="#SVGID_3_"  style="overflow:visible;"/>
		</clipPath>
		<g class="st2">
			<path class="st3" d="M333.3,94.6v-9.8 M338.2,89.7h-9.8H338.2z"/>
			<path class="st3" d="M333.3,70.5v-9.8 M338.2,65.6h-9.8H338.2z"/>
			<path class="st3" d="M333.3,47.2v-9.8 M338.2,42.3h-9.8H338.2z"/>
			<path class="st4" d="M333.3,94.6v-9.8 M338.2,89.7h-9.8H338.2z"/>
			<path class="st4" d="M333.3,70.5v-9.8 M338.2,65.6h-9.8H338.2z"/>
			<path class="st4" d="M333.3,47.2v-9.8 M338.2,42.3h-9.8H338.2z"/>
			<path class="st3" d="M355.9,94.6v-9.8 M360.8,89.7H351H360.8z"/>
			<path class="st3" d="M355.9,70.5v-9.8 M360.8,65.6H351H360.8z"/>
			<path class="st3" d="M355.9,47.2v-9.8 M360.8,42.3H351H360.8z"/>
			<path class="st4" d="M355.9,94.6v-9.8 M360.8,89.7H351H360.8z"/>
			<path class="st4" d="M355.9,70.5v-9.8 M360.8,65.6H351H360.8z"/>
			<path class="st4" d="M355.9,47.2v-9.8 M360.8,42.3H351H360.8z"/>
			<path class="st3" d="M378.5,70.5v-9.8 M383.4,65.6h-9.8H383.4z"/>
			<path class="st3" d="M378.5,47.2v-9.8 M383.4,42.3h-9.8H383.4z"/>
			<path class="st4" d="M378.5,70.5v-9.8 M383.4,65.6h-9.8H383.4z"/>
			<path class="st4" d="M378.5,47.2v-9.8 M383.4,42.3h-9.8H383.4z"/>
			<path class="st3" d="M401.1,70.5v-9.8 M406,65.6h-9.8H406z"/>
			<path class="st3" d="M401.1,47.2v-9.8 M406,42.3h-9.8H406z"/>
			<path class="st4" d="M401.1,70.5v-9.8 M406,65.6h-9.8H406z"/>
			<path class="st4" d="M401.1,47.2v-9.8 M406,42.3h-9.8H406z"/>
			<path class="st3" d="M423.7,70.5v-9.8 M428.6,65.6h-9.8H428.6z"/>
			<path class="st3" d="M423.7,47.2v-9.8 M428.6,42.3h-9.8H428.6z"/>
			<path class="st4" d="M423.7,70.5v-9.8 M428.6,65.6h-9.8H428.6z"/>
			<path class="st4" d="M423.7,47.2v-9.8 M428.6,42.3h-9.8H428.6z"/>
		</g>
	</g>
</g>
<g>
	<g class="st5">
		<path class="st6" d="M4.9,187.6v-9.8 M9.8,182.7H0H9.8z"/>
		<path class="st6" d="M4.9,164.2v-9.8 M9.8,159.3H0H9.8z"/>
		<path class="st7" d="M4.9,187.6v-9.8 M9.8,182.7H0H9.8z"/>
		<path class="st7" d="M4.9,164.2v-9.8 M9.8,159.3H0H9.8z"/>
		<path class="st6" d="M27.5,187.6v-9.8 M32.4,182.7h-9.8H32.4z"/>
		<path class="st6" d="M27.5,164.2v-9.8 M32.4,159.3h-9.8H32.4z"/>
		<path class="st6" d="M50.1,187.6v-9.8 M55,182.7h-9.8H55z"/>
		<path class="st6" d="M50.1,164.2v-9.8 M55,159.3h-9.8H55z"/>
	</g>
</g>
</svg>
