<?xml version="1.0" encoding="utf-8"?>
<!-- Generator: Adobe Illustrator 25.2.1, SVG Export Plug-In . SVG Version: 6.00 Build 0)  -->
<svg version="1.1" id="Layer_1" xmlns="http://www.w3.org/2000/svg" xmlns:xlink="http://www.w3.org/1999/xlink" x="0px" y="0px"
	 width="588px" height="452px" viewBox="0 0 588 452" style="enable-background:new 0 0 588 452;" xml:space="preserve">
<style type="text/css">
	.st0{fill:#EAF1FF;}
	.st1{fill:none;stroke:#0D51D9;stroke-width:4;stroke-linecap:round;stroke-linejoin:round;}
	.st2{fill:#0D51D9;}
	.st3{fill:#56CCF2;}
	.st4{fill:#9B51E0;}
	.st5{fill:#F2994A;}
	.st6{fill:#314468;}
</style>
<g>
	<circle class="st0" cx="393" cy="334" r="66"/>
	<path class="st1" d="M397,299.1l-35.4,42.5h31.9l-3.5,28.3l35.4-42.5h-31.9L397,299.1z"/>
	<path class="st2" d="M435,154.2c0.2-0.1,0.4-0.2,0.7-0.2c0.2,0,0.5,0,0.7,0.1c0.2,0.1,0.4,0.2,0.6,0.4c0.2,0.2,0.3,0.3,0.4,0.6
		c0.2,0.4,0.2,0.9,0.1,1.4c-0.2,0.4-0.5,0.8-0.9,1c-0.4,0.2-0.9,0.2-1.4,0.1c-0.4-0.2-0.8-0.5-1-0.9c-0.2-0.4-0.2-0.9-0.1-1.4
		S434.6,154.4,435,154.2z"/>
	<path class="st3" d="M441.3,227c-0.3-0.7-0.4-1.5-0.1-2.2c0.3-0.7,0.8-1.3,1.5-1.6c0.7-0.3,1.5-0.3,2.2-0.1s1.3,0.8,1.6,1.5
		c0.2,0.3,0.2,0.7,0.3,1.1c0,0.4,0,0.7-0.2,1.1c-0.1,0.3-0.3,0.7-0.6,0.9c-0.3,0.3-0.6,0.5-0.9,0.7c-0.7,0.3-1.5,0.4-2.2,0.1
		C442.2,228.3,441.6,227.7,441.3,227z"/>
	<path class="st4" d="M469.3,405.7c1.8-0.8,3.9-0.9,5.7-0.2c1.9,0.7,3.4,2.1,4.2,3.9c0.8,1.8,0.9,3.9,0.2,5.7
		c-0.7,1.9-2.1,3.4-3.9,4.2c-1.8,0.8-3.9,0.9-5.7,0.2c-1.9-0.7-3.4-2.1-4.3-3.9c-0.8-1.8-0.9-3.9-0.2-5.7
		C466.1,408.1,467.5,406.5,469.3,405.7z"/>
	<path class="st5" d="M524.7,271l4.3,23l-23-8L524.7,271z"/>
	<path class="st6" d="M529.4,206.3l8.1,1.4l-5.3,6.3L529.4,206.3z"/>
</g>
</svg>
