<svg width="40" height="40" viewBox="0 0 40 40" fill="none" xmlns="http://www.w3.org/2000/svg">
<circle cx="20" cy="20" r="20" fill="#FFE7E7"/>
<path fill-rule="evenodd" clip-rule="evenodd" d="M17.8355 18.5281C17.8355 17.1913 18.9229 16.1038 20.2597 16.1038C21.5965 16.1038 22.684 17.1913 22.684 18.5281C22.684 19.6224 21.9498 20.5388 20.9524 20.8394V21.6449C20.9524 22.028 20.6428 22.3376 20.2597 22.3376C19.8767 22.3376 19.5671 22.028 19.5671 21.6449V20.2597C19.5671 19.8766 19.8767 19.567 20.2597 19.567C20.8325 19.567 21.2987 19.1009 21.2987 18.5281C21.2987 17.9552 20.8325 17.4891 20.2597 17.4891C19.6869 17.4891 19.2208 17.9552 19.2208 18.5281C19.2208 18.9111 18.9111 19.2207 18.5281 19.2207C18.1451 19.2207 17.8355 18.9111 17.8355 18.5281ZM19.5671 23.7229C19.5671 23.3398 19.8767 23.0302 20.2597 23.0302C20.6428 23.0302 20.9524 23.3398 20.9524 23.7229C20.9524 24.1059 20.6428 24.4155 20.2597 24.4155C19.8767 24.4155 19.5671 24.1059 19.5671 23.7229ZM20.2597 25.8008C17.2045 25.8008 14.7186 23.3149 14.7186 20.2597C14.7186 17.2044 17.2045 14.7185 20.2597 14.7185C23.315 14.7185 25.8008 17.2044 25.8008 20.2597C25.8008 23.3149 23.315 25.8008 20.2597 25.8008ZM20.2597 13.3333C16.4405 13.3333 13.3333 16.4404 13.3333 20.2597C13.3333 24.0789 16.4405 27.1861 20.2597 27.1861C24.0789 27.1861 27.1861 24.0789 27.1861 20.2597C27.1861 16.4404 24.0789 13.3333 20.2597 13.3333Z" fill="#FF5151"/>
<mask id="mask0_1228_5520" style="mask-type:alpha" maskUnits="userSpaceOnUse" x="13" y="13" width="15" height="15">
<path fill-rule="evenodd" clip-rule="evenodd" d="M17.8355 18.5281C17.8355 17.1913 18.9229 16.1038 20.2597 16.1038C21.5965 16.1038 22.684 17.1913 22.684 18.5281C22.684 19.6224 21.9498 20.5388 20.9524 20.8394V21.6449C20.9524 22.028 20.6428 22.3376 20.2597 22.3376C19.8767 22.3376 19.5671 22.028 19.5671 21.6449V20.2597C19.5671 19.8766 19.8767 19.567 20.2597 19.567C20.8325 19.567 21.2987 19.1009 21.2987 18.5281C21.2987 17.9552 20.8325 17.4891 20.2597 17.4891C19.6869 17.4891 19.2208 17.9552 19.2208 18.5281C19.2208 18.9111 18.9111 19.2207 18.5281 19.2207C18.1451 19.2207 17.8355 18.9111 17.8355 18.5281ZM19.5671 23.7229C19.5671 23.3398 19.8767 23.0302 20.2597 23.0302C20.6428 23.0302 20.9524 23.3398 20.9524 23.7229C20.9524 24.1059 20.6428 24.4155 20.2597 24.4155C19.8767 24.4155 19.5671 24.1059 19.5671 23.7229ZM20.2597 25.8008C17.2045 25.8008 14.7186 23.3149 14.7186 20.2597C14.7186 17.2044 17.2045 14.7185 20.2597 14.7185C23.315 14.7185 25.8008 17.2044 25.8008 20.2597C25.8008 23.3149 23.315 25.8008 20.2597 25.8008ZM20.2597 13.3333C16.4405 13.3333 13.3333 16.4404 13.3333 20.2597C13.3333 24.0789 16.4405 27.1861 20.2597 27.1861C24.0789 27.1861 27.1861 24.0789 27.1861 20.2597C27.1861 16.4404 24.0789 13.3333 20.2597 13.3333Z" fill="white"/>
</mask>
<g mask="url(#mask0_1228_5520)">
<rect x="11.9481" y="11.948" width="16.6234" height="16.6234" fill="#FF5151"/>
</g>
</svg>
