<?xml version="1.0" encoding="utf-8"?>
<!-- Generator: Adobe Illustrator 25.2.1, SVG Export Plug-In . SVG Version: 6.00 Build 0)  -->
<svg version="1.1" id="Layer_1" xmlns="http://www.w3.org/2000/svg" xmlns:xlink="http://www.w3.org/1999/xlink" x="0px" y="0px"
	 width="379.1px" height="384.6px" viewBox="0 0 379.1 384.6" style="enable-background:new 0 0 379.1 384.6;" xml:space="preserve"
	>
<style type="text/css">
	.st0{fill:#FFFFFF;}
	.st1{fill:#F5F5F5;}
	.st2{fill:#FFE7E7;}
	.st3{fill:#E4E4E4;}
	.st4{fill:#D1CBCB;}
	.st5{fill:#0D51D9;}
	.st6{fill:#6397FE;}
	.st7{fill:#999999;}
	.st8{fill:#FF5151;}
	.st9{fill:#231F20;}
</style>
<image style="display:none;overflow:visible;" width="1448" height="1448" xlink:href="C:\Users\91965\Downloads\Group 1712 1 (2).png"  transform="matrix(0.25 0 0 0.25 1.2102 10.5732)">
</image>
<g>
	
		<image style="overflow:visible;opacity:0.1;" width="388" height="389" xlink:href="AB37917D.png"  transform="matrix(1 0 0 1 -6.7898 13.5732)">
	</image>
	<g>
		<path class="st0" d="M304.6,315.4H59.7c-7.9,0-14.2-6.4-14.2-14.2V54.9c0-7.9,6.4-14.2,14.2-14.2h244.9c7.9,0,14.2,6.4,14.2,14.2
			v246.3C318.8,309.1,312.5,315.4,304.6,315.4z"/>
	</g>
</g>
<path class="st1" d="M279.8,312.4H55.2c-4.6,0-8.4-3.7-8.4-8.4V50.5c0-4.6,3.7-8.4,8.4-8.4h225.3c1.9,0,3.4,1.5,3.4,3.4v262.8
	C284,310.6,282.1,312.4,279.8,312.4z"/>
<path class="st2" d="M145.1,85H71.5c-2.3,0-4.2-1.9-4.2-4.2V66.3c0-2.3,1.9-4.2,4.2-4.2h73.6c2.3,0,4.2,1.9,4.2,4.2v14.4
	C149.4,83.1,147.5,85,145.1,85z"/>
<path class="st3" d="M199.4,131.3H71.2c-2.2,0-3.9-1.7-3.9-3.9v-2.1c0-2.2,1.7-3.9,3.9-3.9h128.2c2.2,0,3.9,1.7,3.9,3.9v2.1
	C203.3,129.6,201.5,131.3,199.4,131.3z"/>
<path class="st3" d="M105.2,166.3H70.4c-1.7,0-3.1-1.4-3.1-3.1v-3.6c0-1.7,1.4-3.1,3.1-3.1h34.8c1.7,0,3.1,1.4,3.1,3.1v3.6
	C108.3,164.9,106.9,166.3,105.2,166.3z"/>
<path class="st4" d="M245.7,188.4H71.2c-2.2,0-3.9-1.7-3.9-3.9V179c0-2.2,1.7-3.9,3.9-3.9h174.5c2.2,0,3.9,1.7,3.9,3.9v5.5
	C249.6,186.6,247.8,188.4,245.7,188.4z"/>
<path class="st3" d="M105.2,215.3H70.4c-1.7,0-3.1-1.4-3.1-3.1v-3.6c0-1.7,1.4-3.1,3.1-3.1h34.8c1.7,0,3.1,1.4,3.1,3.1v3.6
	C108.3,213.9,106.9,215.3,105.2,215.3z"/>
<path class="st4" d="M245.7,237.4H71.2c-2.2,0-3.9-1.7-3.9-3.9V228c0-2.2,1.7-3.9,3.9-3.9h174.5c2.2,0,3.9,1.7,3.9,3.9v5.5
	C249.6,235.6,247.8,237.4,245.7,237.4z"/>
<path class="st5" d="M292.6,292.3h-221c-2.3,0-4.2-1.9-4.2-4.2v-25c0-2.3,1.9-4.2,4.2-4.2h221c2.3,0,4.2,1.9,4.2,4.2v25
	C296.8,290.4,294.9,292.3,292.6,292.3z"/>
<path class="st6" d="M217.8,281.3h-71.3c-3.4,0-6.1-2.7-6.1-6.1v0c0-3.4,2.7-6.1,6.1-6.1h71.3c3.4,0,6.1,2.7,6.1,6.1v0
	C223.9,278.5,221.2,281.3,217.8,281.3z"/>
<circle class="st7" cx="295.8" cy="72.8" r="1.9"/>
<circle class="st7" cx="295.8" cy="85.9" r="1.9"/>
<circle class="st7" cx="295.8" cy="79.4" r="1.9"/>
<circle class="st8" cx="78.8" cy="73.7" r="3.8"/>
<g>
	<path class="st5" d="M24.8,0.3L24.8,0.3c1.4-0.7,3-0.1,3.7,1.3L39,23.7c0.7,1.4,0.1,3-1.3,3.7l0,0c-1.4,0.7-3,0.1-3.7-1.3L23.5,3.9
		C22.9,2.6,23.5,0.9,24.8,0.3z"/>
	<path class="st9" d="M0.2,32.2L0.2,32.2c0.5-1.4,2.1-2.2,3.5-1.7l23.1,8.2c1.4,0.5,2.2,2.1,1.7,3.5l0,0c-0.5,1.4-2.1,2.2-3.5,1.7
		L1.8,35.7C0.4,35.2-0.4,33.7,0.2,32.2z"/>
	<path class="st9" d="M67.1,0.5L67.1,0.5C68.6,1,69.3,2.6,68.8,4l-8.2,23.1c-0.5,1.4-2.1,2.2-3.5,1.7l0,0c-1.4-0.5-2.2-2.1-1.7-3.5
		l8.2-23.1C64.1,0.7,65.7,0,67.1,0.5z"/>
</g>
</svg>
