<svg width="624" height="564" viewBox="0 0 624 564" fill="none" xmlns="http://www.w3.org/2000/svg">
<path d="M203.33 107.68C204.183 107.281 205.159 107.237 206.044 107.558C206.929 107.878 207.651 108.537 208.05 109.39C208.247 109.813 208.359 110.27 208.38 110.736C208.4 111.203 208.328 111.668 208.168 112.107C208.009 112.545 207.764 112.947 207.449 113.291C207.133 113.635 206.753 113.913 206.33 114.11C205.908 114.307 205.451 114.419 204.986 114.439C204.52 114.459 204.056 114.387 203.618 114.228C203.18 114.068 202.779 113.823 202.436 113.508C202.093 113.193 201.816 112.813 201.62 112.39C201.224 111.538 201.182 110.565 201.502 109.682C201.823 108.799 202.48 108.079 203.33 107.68Z" fill="#EB5757"/>
<path d="M89.35 114C89.5613 113.901 89.7902 113.844 90.0234 113.834C90.2567 113.823 90.4897 113.859 90.709 113.939C90.9284 114.019 91.1298 114.141 91.3016 114.299C91.4734 114.457 91.6122 114.648 91.71 114.86C91.9075 115.286 91.9278 115.772 91.7665 116.213C91.6053 116.654 91.2756 117.012 90.85 117.21C90.4241 117.408 89.937 117.431 89.4949 117.271C89.0528 117.112 88.6916 116.784 88.49 116.36C88.2922 115.933 88.2716 115.445 88.4328 115.002C88.594 114.56 88.9238 114.2 89.35 114Z" fill="#0D51D9"/>
<path d="M421.06 75.9999C422.256 75.4529 423.62 75.3991 424.855 75.8502C426.09 76.3013 427.098 77.2209 427.66 78.4099C428.208 79.6047 428.263 80.967 427.814 82.2022C427.365 83.4374 426.447 84.446 425.26 85.0099C424.063 85.56 422.697 85.6155 421.46 85.1642C420.222 84.7129 419.212 83.7914 418.65 82.5999C418.103 81.4039 418.05 80.0406 418.501 78.8052C418.952 77.5699 419.871 76.562 421.06 75.9999Z" fill="#314468"/>
<path d="M151.34 165.22C152.023 164.902 152.804 164.868 153.513 165.125C154.221 165.382 154.799 165.908 155.12 166.59C155.434 167.275 155.466 168.056 155.207 168.764C154.949 169.472 154.422 170.049 153.74 170.37C153.062 170.678 152.289 170.707 151.59 170.451C150.89 170.194 150.319 169.673 150 169C149.678 168.321 149.638 167.542 149.889 166.833C150.14 166.125 150.662 165.544 151.34 165.22Z" fill="#0D51D9"/>
<path d="M421.66 192.51C422.513 192.115 423.488 192.074 424.371 192.396C425.253 192.719 425.973 193.378 426.37 194.23C426.567 194.652 426.68 195.108 426.701 195.573C426.721 196.038 426.65 196.502 426.492 196.94C426.333 197.377 426.089 197.779 425.775 198.122C425.461 198.466 425.082 198.743 424.66 198.94C423.807 199.339 422.831 199.383 421.946 199.063C421.061 198.742 420.339 198.083 419.94 197.23C419.743 196.807 419.631 196.35 419.61 195.884C419.59 195.417 419.662 194.952 419.822 194.514C419.981 194.075 420.226 193.673 420.541 193.329C420.857 192.985 421.237 192.707 421.66 192.51Z" fill="#27AE60"/>
<path d="M368 432.84C368.683 432.522 369.464 432.488 370.173 432.745C370.881 433.002 371.459 433.528 371.78 434.21C372.097 434.893 372.129 435.674 371.87 436.381C371.611 437.087 371.083 437.663 370.4 437.98C370.063 438.138 369.697 438.229 369.325 438.245C368.953 438.262 368.581 438.206 368.23 438.078C367.88 437.951 367.558 437.756 367.284 437.504C367.009 437.252 366.787 436.948 366.63 436.61C366.313 435.928 366.279 435.148 366.536 434.442C366.792 433.735 367.319 433.159 368 432.84Z" fill="#EB5757"/>
<path d="M82.4897 440.84C82.9168 440.642 83.4049 440.622 83.8472 440.783C84.2895 440.944 84.65 441.274 84.8497 441.7C85.0475 442.127 85.0681 442.615 84.9069 443.058C84.7458 443.5 84.416 443.86 83.9897 444.06C83.564 444.258 83.0773 444.278 82.6366 444.117C82.196 443.955 81.8374 443.626 81.6397 443.2C81.54 442.989 81.483 442.761 81.4718 442.528C81.4606 442.296 81.4955 442.063 81.5744 441.844C81.6534 441.624 81.7749 441.423 81.932 441.251C82.089 441.078 82.2786 440.939 82.4897 440.84Z" fill="#0D51D9"/>
<path d="M257.11 449.29C258.306 448.739 259.67 448.682 260.908 449.132C262.145 449.581 263.156 450.5 263.72 451.69C264.267 452.886 264.32 454.249 263.869 455.485C263.418 456.72 262.499 457.728 261.31 458.29C260.115 458.838 258.753 458.893 257.517 458.444C256.282 457.995 255.274 457.077 254.71 455.89C254.162 454.695 254.107 453.333 254.556 452.098C255.005 450.863 255.922 449.854 257.11 449.29Z" fill="#6FCF97"/>
<path d="M108.46 492.05C108.142 491.367 108.108 490.586 108.365 489.877C108.622 489.169 109.148 488.591 109.83 488.27C110.513 487.953 111.294 487.921 112.001 488.18C112.708 488.438 113.283 488.967 113.6 489.65C113.758 489.987 113.849 490.353 113.866 490.725C113.882 491.097 113.826 491.469 113.698 491.82C113.571 492.17 113.376 492.492 113.124 492.766C112.872 493.041 112.568 493.263 112.23 493.42C111.548 493.737 110.769 493.771 110.062 493.514C109.355 493.258 108.779 492.731 108.46 492.05Z" fill="#56CCF2"/>
<path d="M541.4 440.41C541.738 440.252 542.103 440.161 542.475 440.144C542.848 440.128 543.22 440.185 543.57 440.312C543.92 440.439 544.242 440.634 544.516 440.886C544.791 441.138 545.013 441.442 545.17 441.78C545.487 442.462 545.521 443.242 545.265 443.948C545.008 444.655 544.481 445.231 543.8 445.55C543.117 445.868 542.336 445.902 541.627 445.645C540.919 445.388 540.341 444.862 540.02 444.18C539.704 443.497 539.671 442.716 539.93 442.009C540.189 441.303 540.718 440.727 541.4 440.41Z" fill="#585357"/>
<path d="M430.5 456.86C431.694 456.312 433.057 456.257 434.292 456.706C435.527 457.155 436.536 458.073 437.1 459.26C437.647 460.455 437.703 461.817 437.254 463.052C436.804 464.288 435.887 465.296 434.7 465.86C433.504 466.411 432.139 466.468 430.902 466.018C429.664 465.569 428.654 464.65 428.09 463.46C427.543 462.264 427.489 460.901 427.94 459.665C428.391 458.43 429.311 457.422 430.5 456.86Z" fill="#9B51E0"/>
<path d="M174 457.71L175.43 465.78L167.73 462.97L174 457.71Z" fill="#F2994A"/>
<path d="M224.67 498.18L232.74 499.61L227.47 505.88L224.67 498.18Z" fill="#314468"/>
<path d="M331.38 169.56C333.341 169.56 334.93 167.971 334.93 166.01C334.93 164.049 333.341 162.46 331.38 162.46C329.419 162.46 327.83 164.049 327.83 166.01C327.83 167.971 329.419 169.56 331.38 169.56Z" fill="#2F80ED"/>
<path d="M517.06 162.22C520.324 162.22 522.97 159.574 522.97 156.31C522.97 153.046 520.324 150.4 517.06 150.4C513.796 150.4 511.15 153.046 511.15 156.31C511.15 159.574 513.796 162.22 517.06 162.22Z" fill="#314468"/>
<path d="M301.73 532.2C298.47 532.35 295.18 532.44 291.88 532.45V532H289.88V532.5C286.58 532.5 283.29 532.4 280.03 532.25V531.75L278.03 531.65V532.15C274.73 531.96 271.45 531.71 268.2 531.38V530.89L266.2 530.68V531.18C262.92 530.82 259.66 530.4 256.43 529.9L256.5 529.41L254.55 529.1L254.47 529.6C251.223 529.067 247.993 528.47 244.78 527.81L244.88 527.32L242.95 526.91L242.84 527.4C239.62 526.71 236.43 525.94 233.26 525.11L233.38 524.62L231.48 524.12L231.35 524.6C228.17 523.727 225.017 522.793 221.89 521.8L222.05 521.33L220.17 520.72L220.01 521.19C216.89 520.163 213.793 519.067 210.72 517.9L210.9 517.43L209.06 516.73L208.88 517.19C205.813 516.003 202.777 514.747 199.77 513.42L199.97 512.96L198.17 512.16L197.97 512.61C194.97 511.277 192.003 509.86 189.07 508.36L189.3 507.91L187.54 507.02L187.31 507.46C184.39 505.947 181.503 504.377 178.65 502.75L178.9 502.32L177.2 501.32L176.95 501.75C174.097 500.09 171.293 498.37 168.54 496.59L168.81 496.17L167.16 495.1L166.89 495.52C164.143 493.707 161.437 491.84 158.77 489.92L159.06 489.52L157.47 488.36L157.17 488.76C154.503 486.82 151.897 484.82 149.35 482.76L149.67 482.38L148.14 481.14L147.82 481.52C145.28 479.44 142.783 477.303 140.33 475.11L140.66 474.74C140.17 474.31 139.66 473.87 139.2 473.42L138.86 473.79C136.427 471.577 134.043 469.317 131.71 467.01L132.06 466.65L130.67 465.26L130.31 465.61C127.997 463.283 125.733 460.9 123.52 458.46L123.89 458.12C123.45 457.64 123.01 457.12 122.58 456.66L122.2 456.99C120.013 454.537 117.88 452.04 115.8 449.5L116.18 449.18L115 447.6L114.61 447.92C112.56 445.35 110.55 442.75 108.61 440.1L109.01 439.8L107.85 438.21L107.44 438.5C105.52 435.833 103.657 433.127 101.85 430.38L102.27 430.11C101.91 429.56 101.55 429.01 101.2 428.46L100.78 428.73C98.9999 425.97 97.2799 423.167 95.6199 420.32L96.0499 420.07L95.2899 418.76L95.0599 418.37L94.6299 418.62C92.9966 415.767 91.4265 412.88 89.9199 409.96L90.3599 409.73L89.4599 407.97L89.0199 408.2C87.5399 405.267 86.1232 402.3 84.7699 399.3L85.2199 399.1L84.4199 397.3L83.9599 397.5C82.6265 394.5 81.3699 391.463 80.1899 388.39L80.6499 388.21C80.4099 387.6 80.1799 386.99 79.9499 386.37L79.4799 386.55C78.3199 383.483 77.2232 380.383 76.1899 377.25L76.6599 377.1C76.4599 376.47 76.2499 375.85 76.0499 375.22L75.5799 375.38C74.5799 372.253 73.6465 369.1 72.7799 365.92L73.2599 365.79L72.7499 363.89L72.2699 364.01C71.4399 360.84 70.6699 357.65 69.9799 354.42L70.4699 354.32C70.3299 353.68 70.1899 353.03 70.0599 352.39L69.5699 352.49C68.8999 349.28 68.3099 346.05 67.7799 342.8L68.2799 342.72C68.1699 342.07 68.0699 341.42 67.9699 340.72L67.4699 340.79C66.9832 337.563 66.5599 334.307 66.1999 331.02L66.6999 330.96L66.4899 328.96L65.9999 329.01C65.6699 325.76 65.4199 322.48 65.2299 319.18H65.7299C65.7299 318.52 65.6599 317.87 65.6299 317.18H65.1299C64.9799 313.91 64.8899 310.63 64.8799 307.32H65.3799V305.32H64.8799C64.8799 302.02 64.9799 298.73 65.1299 295.46H65.6299C65.6299 294.8 65.6999 294.15 65.7299 293.46H65.2299C65.4199 290.17 65.6699 286.89 65.9999 283.63H66.4899L66.6999 281.63H66.1999C66.5599 278.35 66.9832 275.093 67.4699 271.86L67.9699 271.93C68.0699 271.28 68.1699 270.63 68.2799 269.98L67.7799 269.9C68.3099 266.65 68.8999 263.41 69.5699 260.21L70.0599 260.31C70.1899 259.66 70.3299 259.02 70.4699 258.38L69.9799 258.27C70.6699 255.05 71.4399 251.85 72.2699 248.68L72.7499 248.81L73.2599 246.91L72.7799 246.78C73.6465 243.6 74.5799 240.447 75.5799 237.32L76.0499 237.47L76.6599 235.6L76.1899 235.44C77.2165 232.313 78.3132 229.217 79.4799 226.15L79.9499 226.33C80.1799 225.71 80.4099 225.1 80.6499 224.49L80.1899 224.31C81.3965 221.377 82.6666 218.41 83.9999 215.41L84.4599 215.61L85.2599 213.81L84.8099 213.61C86.1432 210.597 87.5599 207.63 89.0599 204.71L89.5099 204.93L90.3999 203.18L89.9599 202.95C91.4665 200.03 93.0365 197.143 94.6699 194.29L95.0999 194.54L96.0999 192.84L95.6699 192.58C97.3299 189.74 99.0499 186.94 100.83 184.18L101.25 184.45C101.6 183.9 101.96 183.35 102.32 182.8L101.9 182.53C103.713 179.783 105.577 177.073 107.49 174.4L107.9 174.7L109 173.11L108.6 172.81C110.54 170.16 112.55 167.55 114.6 164.99L114.99 165.3L116.23 163.78L115.85 163.46C117.93 160.907 120.063 158.407 122.25 155.96L122.63 156.3L124 154.83L123.63 154.5C125.85 152.06 128.113 149.677 130.42 147.35L130.78 147.7C131.24 147.23 131.7 146.77 132.17 146.31L131.78 146C134.113 143.687 136.497 141.423 138.93 139.21L139.27 139.58L140.73 138.26L140.4 137.89C142.847 135.703 145.343 133.567 147.89 131.48L148.21 131.87L149.74 130.63L149.42 130.24C151.98 128.18 154.587 126.18 157.24 124.24L157.54 124.65L159.13 123.49L158.84 123.08C161.507 121.16 164.213 119.297 166.96 117.49L167.23 117.91L168.88 116.83L168.61 116.41C171.37 114.64 174.17 112.91 177.02 111.25L177.27 111.69C177.83 111.35 178.4 111.03 178.97 110.69L178.72 110.26C181.573 108.62 184.46 107.047 187.38 105.54L187.61 105.99L189.37 105.09L189.14 104.65C192.073 103.17 195.04 101.753 198.04 100.4L198.24 100.85L200 99.9999L199.8 99.5399C202.8 98.2066 205.837 96.9466 208.91 95.7599L209.09 96.2299L210.93 95.5199L210.75 95.0599C213.823 93.8866 216.92 92.7899 220.04 91.7699L220.2 92.2399L222.08 91.6299L221.92 91.1599C225.047 90.1599 228.2 89.2266 231.38 88.3599L231.51 88.8399L233.41 88.3299L233.29 87.8499C236.457 87.0166 239.65 86.2499 242.87 85.5499L243 85.9999L244.93 85.5899L244.83 85.1099C248.04 84.4399 251.27 83.8499 254.52 83.3199L254.6 83.8099L256.55 83.5099L256.48 83.0099C259.71 82.5199 262.97 82.0899 266.25 81.7399V82.2399L268.25 82.0299V81.5299C271.5 81.2099 274.78 80.9499 278.08 80.7699V81.2699L280.08 81.1699V80.6699C283.34 80.5099 286.63 80.4299 289.93 80.4199V80.9999H291.93V80.4999C295.23 80.4999 298.52 80.5899 301.78 80.7499V81.2499L303.78 81.3499V80.8499C307.07 81.0299 310.35 81.2899 313.6 81.6099V82.1099L315.6 82.3199L315.65 81.8199C318.93 82.1699 322.19 82.5999 325.42 83.0899L325.35 83.5899L327.3 83.8899L327.38 83.3999C330.63 83.9299 333.87 84.5199 337.07 85.1899L336.97 85.6699L338.9 86.0799L339.01 85.5899C342.23 86.2899 345.43 87.0599 348.59 87.8899L348.47 88.3699L350.37 88.8799L350.5 88.3999C353.68 89.2599 356.833 90.1933 359.96 91.1999L359.81 91.6699L361.68 92.2799L361.84 91.8099C364.96 92.8366 368.057 93.9333 371.13 95.0999L370.95 95.5599L372.79 96.2699L372.97 95.7999C376.037 96.9999 379.073 98.2599 382.08 99.5799L381.88 100.04L383.68 100.84L383.88 100.39C386.88 101.723 389.847 103.14 392.78 104.64L392.55 105.08L394.31 105.98L394.54 105.53C397.46 107.037 400.347 108.61 403.2 110.25L402.95 110.68C403.52 111.01 404.09 111.33 404.65 111.68L404.91 111.24C407.75 112.9 410.55 114.63 413.31 116.4L413.04 116.82L414.69 117.9L414.96 117.48C417.713 119.293 420.42 121.157 423.08 123.07L422.79 123.48L424.38 124.64L424.68 124.23C427.347 126.177 429.953 128.177 432.5 130.23L432.18 130.62C432.7 131.03 433.18 131.45 433.71 131.86L434.03 131.47C436.57 133.557 439.07 135.693 441.53 137.88L441.19 138.25L442.65 139.57L442.99 139.2C445.323 141.387 447.66 143.653 450 146L449.65 146.36C450.12 146.82 450.58 147.28 451.04 147.75L451.4 147.4C453.713 149.733 455.977 152.117 458.19 154.55L457.82 154.88L459.13 156.35L459.51 156.01C461.697 158.457 463.833 160.957 465.92 163.51L465.53 163.83L466.77 165.35L467.16 165.04C469.22 167.6 471.22 170.207 473.16 172.86L472.75 173.16L473.91 174.75L474.32 174.45C476.24 177.117 478.103 179.827 479.91 182.58L479.49 182.85C479.85 183.4 480.21 183.95 480.56 184.5L480.98 184.23C482.76 186.99 484.48 189.79 486.14 192.63L485.71 192.89L486.71 194.59L487.14 194.34C488.767 197.193 490.34 200.08 491.86 203L491.41 203.23L492.31 204.98L492.75 204.76C494.23 207.687 495.647 210.653 497 213.66L496.55 213.86L497.35 215.66L497.81 215.46C499.143 218.46 500.4 221.497 501.58 224.57L501.12 224.75C501.36 225.36 501.59 225.97 501.82 226.59L502.29 226.41C503.45 229.477 504.547 232.573 505.58 235.7L505.11 235.86L505.72 237.73L506.19 237.58C507.19 240.7 508.123 243.853 508.99 247.04L508.51 247.17L509 249L509.48 248.87C510.31 252.04 511.08 255.24 511.77 258.46L511.29 258.57C511.42 259.21 511.56 259.85 511.69 260.5L512.18 260.4C512.85 263.6 513.44 266.84 513.97 270.09L513.48 270.17L513.78 272.12L514.28 272.05C514.77 275.28 515.2 278.54 515.55 281.82H515.05L515.26 283.82H515.75C516.08 287.08 516.33 290.36 516.52 293.65H516.02C516.02 294.31 516.09 294.96 516.12 295.65H516.62C516.77 298.92 516.86 302.21 516.87 305.51H516.37C516.37 305.84 516.37 306.17 516.37 306.51C516.37 306.85 516.37 307.17 516.37 307.51H516.87C516.87 310.82 516.77 314.1 516.62 317.37H516.12C516.12 318.03 516.06 318.68 516.02 319.37H516.52C516.33 322.67 516.08 325.95 515.75 329.2L515.26 329.15L515.05 331.15L515.55 331.21C515.2 334.49 514.77 337.75 514.28 340.98L513.78 340.91L513.48 342.91L513.97 342.99C513.44 346.24 512.85 349.47 512.18 352.68L511.69 352.58C511.56 353.22 511.42 353.87 511.29 354.51L511.77 354.61C511.08 357.84 510.31 361.03 509.48 364.2L509 364.08L508.49 365.98L508.97 366.11C508.097 369.29 507.163 372.443 506.17 375.57L505.7 375.41C505.5 376.04 505.29 376.66 505.09 377.29L505.56 377.44C504.533 380.567 503.437 383.667 502.27 386.74L501.8 386.56C501.57 387.18 501.34 387.79 501.1 388.4L501.56 388.58C500.367 391.653 499.11 394.69 497.79 397.69L497.33 397.49L496.53 399.29L496.98 399.49C495.647 402.49 494.23 405.457 492.73 408.39L492.29 408.16L491.39 409.92L491.84 410.15C490.327 413.07 488.753 415.957 487.12 418.81L486.69 418.56L485.69 420.26L486.12 420.51C484.46 423.363 482.74 426.167 480.96 428.92L480.54 428.65C480.19 429.2 479.83 429.75 479.47 430.3L479.89 430.57C478.083 433.323 476.22 436.03 474.3 438.69L473.89 438.4L472.73 439.99L473.14 440.29C471.187 442.957 469.187 445.563 467.14 448.11L466.75 447.79L465.51 449.32L465.9 449.64C463.807 452.18 461.67 454.677 459.49 457.13L459.11 456.8C458.68 457.29 458.24 457.8 457.8 458.26L458.17 458.6C455.963 461.027 453.7 463.41 451.38 465.75L451.02 465.4L449.63 466.79L449.98 467.15C447.647 469.457 445.263 471.717 442.83 473.93L442.49 473.56C442.01 474.01 441.49 474.45 441.03 474.88L441.37 475.25C438.91 477.443 436.41 479.58 433.87 481.66L433.55 481.28L432 482.33L432.32 482.71C429.76 484.77 427.153 486.77 424.5 488.71L424.2 488.31L422.61 489.47L422.9 489.87C420.233 491.797 417.527 493.663 414.78 495.47L414.51 495.05L412.86 496.12L413.13 496.54C410.37 498.32 407.57 500.04 404.73 501.7L404.47 501.27L402.77 502.27L403.02 502.7C400.167 504.327 397.28 505.897 394.36 507.41L394.13 506.97L392.37 507.86L392.6 508.31C389.673 509.79 386.707 511.207 383.7 512.56L383.5 512.11L381.7 512.91L381.9 513.37C378.9 514.703 375.863 515.96 372.79 517.14L372.61 516.68L370.77 517.38L370.95 517.85C367.877 519.01 364.78 520.107 361.66 521.14L361.5 520.67L359.63 521.28L359.78 521.75C356.66 522.75 353.507 523.683 350.32 524.55L350.19 524.07L348.29 524.57L348.41 525.06C345.25 525.89 342.05 526.66 338.83 527.35L338.72 526.86L336.79 527.27L336.89 527.76C333.69 528.42 330.45 529.02 327.2 529.55L327.12 529.05L325.17 529.36L325.24 529.85C322.01 530.35 318.75 530.77 315.47 531.13L315.42 530.63L313.42 530.84V531.33C310.17 531.66 306.89 531.91 303.6 532.1V531.6L301.6 531.7L301.73 532.2Z" stroke="#0D1C2E" stroke-dasharray="2 10"/>
<path d="M291.39 479.95C386.935 479.95 464.39 402.495 464.39 306.95C464.39 211.405 386.935 133.95 291.39 133.95C195.845 133.95 118.39 211.405 118.39 306.95C118.39 402.495 195.845 479.95 291.39 479.95Z" fill="#EEF4FF" stroke="#CFDCF7"/>
<path d="M291.41 414.41C350.769 414.41 398.89 366.29 398.89 306.93C398.89 247.57 350.769 199.45 291.41 199.45C232.05 199.45 183.93 247.57 183.93 306.93C183.93 366.29 232.05 414.41 291.41 414.41Z" fill="#D0E0FF"/>
<path d="M242.94 300.45V274.82H237.94V300.45H242.94ZM263.05 300.45V288.45C263.126 287.477 262.995 286.499 262.666 285.58C262.337 284.662 261.817 283.823 261.14 283.12C260.554 282.559 259.86 282.122 259.1 281.837C258.34 281.552 257.531 281.423 256.72 281.46C255.845 281.456 254.978 281.631 254.173 281.975C253.368 282.319 252.642 282.824 252.04 283.46V281.7H247.46V300.45H252.14V289.11C252.14 286.56 253.8 285.69 255.28 285.69C256.76 285.69 258.37 286.56 258.37 289.11V300.45H263.05ZM275.73 285.8V282.24H272.28V280.19C272.28 279.11 272.78 278.49 273.9 278.49H275.73V274.49H273.07C272.347 274.438 271.621 274.54 270.94 274.79C270.26 275.04 269.64 275.432 269.123 275.94C268.605 276.448 268.202 277.06 267.939 277.736C267.677 278.412 267.561 279.136 267.6 279.86V282.2H265.65V285.76H267.6V300.41H272.28V285.8H275.73ZM292 283.25C291.436 282.649 290.747 282.179 289.981 281.874C289.216 281.568 288.393 281.433 287.57 281.48C286.689 281.468 285.815 281.64 285.005 281.985C284.194 282.329 283.463 282.838 282.86 283.48V281.68H278.29V300.43H282.97V289.13C282.97 286.75 284.55 285.67 285.97 285.67C286.441 285.657 286.909 285.751 287.338 285.945C287.768 286.139 288.148 286.428 288.45 286.79L292 283.25ZM307.42 300.45V288.11C307.42 283.71 304.69 281.48 299.42 281.48C296.29 281.48 294.49 282.06 292.65 284.07L295.65 286.99C296.067 286.444 296.617 286.015 297.247 285.744C297.878 285.472 298.567 285.368 299.25 285.44C301.73 285.44 302.74 286.34 302.74 288.39V289.33H298.31C293.96 289.33 291.91 291.78 291.91 294.77C291.866 296.319 292.417 297.825 293.45 298.98C294.095 299.565 294.853 300.012 295.676 300.296C296.499 300.579 297.371 300.693 298.24 300.63C299.094 300.696 299.952 300.568 300.75 300.256C301.549 299.945 302.266 299.457 302.85 298.83V300.45H307.42ZM302.74 293.54C302.795 293.962 302.763 294.391 302.646 294.8C302.529 295.21 302.33 295.591 302.06 295.92C301.661 296.272 301.192 296.535 300.683 296.69C300.174 296.845 299.637 296.89 299.11 296.82C297.27 296.82 296.41 295.95 296.41 294.66C296.41 293.37 297.34 292.53 299.03 292.53H302.74V293.54ZM326.47 291.06C326.47 287.67 326.04 285.55 324.35 283.79C323.593 283.02 322.683 282.417 321.679 282.019C320.675 281.621 319.599 281.438 318.52 281.48C317.445 281.436 316.373 281.619 315.374 282.017C314.375 282.415 313.47 283.019 312.72 283.79C311.03 285.55 310.6 287.67 310.6 291.06C310.6 294.45 311.03 296.6 312.72 298.37C313.472 299.137 314.377 299.739 315.376 300.135C316.375 300.531 317.446 300.713 318.52 300.67C319.598 300.712 320.673 300.529 321.677 300.133C322.68 299.737 323.591 299.137 324.35 298.37C326 296.6 326.43 294.48 326.43 291.06H326.47ZM321.79 291.06C321.79 293 321.68 294.66 320.71 295.63C320.419 295.908 320.076 296.125 319.699 296.268C319.323 296.41 318.922 296.476 318.52 296.46C318.122 296.479 317.724 296.415 317.353 296.272C316.981 296.129 316.643 295.911 316.36 295.63C315.36 294.63 315.28 293 315.28 291.06C315.28 289.12 315.38 287.49 316.36 286.52C316.643 286.239 316.981 286.021 317.353 285.878C317.724 285.735 318.122 285.671 318.52 285.69C318.922 285.674 319.323 285.74 319.699 285.882C320.076 286.025 320.419 286.242 320.71 286.52C321.64 287.49 321.75 289.11 321.75 291.06H321.79ZM345.44 300.45V288.45C345.516 287.477 345.385 286.499 345.056 285.58C344.727 284.662 344.207 283.823 343.53 283.12C342.944 282.559 342.25 282.122 341.49 281.837C340.73 281.552 339.921 281.423 339.11 281.46C338.235 281.456 337.368 281.631 336.563 281.975C335.758 282.319 335.032 282.824 334.43 283.46V281.7H329.85V300.45H334.53V289.11C334.53 286.56 336.19 285.69 337.67 285.69C339.15 285.69 340.76 286.56 340.76 289.11V300.45H345.44Z" fill="#0D51D9"/>
<path d="M244.85 320.6C244.85 316.13 241.64 312.82 236.64 312.82H226.92V338.45H230.81V328.37H236.64C241.64 328.37 244.85 325.06 244.85 320.6ZM240.96 320.6C240.96 323.3 239.12 324.85 236.42 324.85H230.81V316.31H236.42C239.12 316.31 241 317.9 241 320.6H240.96ZM255.21 338.45V335.32H253.59C252.11 335.32 251.59 334.6 251.59 333.2V312.82H247.92V333.41C247.92 336.11 249.43 338.41 252.92 338.41L255.21 338.45ZM271.57 338.45V326.25C271.57 322.11 269.05 319.99 264.05 319.99C261.05 319.99 259.23 320.6 257.5 322.61L259.91 324.88C260.358 324.255 260.965 323.762 261.669 323.453C262.373 323.143 263.147 323.028 263.91 323.12C266.75 323.12 267.91 324.23 267.91 326.54V327.83H263.09C258.91 327.83 256.79 330.03 256.79 333.09C256.743 334.534 257.26 335.94 258.23 337.01C258.886 337.61 259.659 338.068 260.501 338.353C261.342 338.639 262.234 338.747 263.12 338.67C264.022 338.747 264.929 338.618 265.774 338.294C266.619 337.97 267.38 337.46 268 336.8V338.45H271.57ZM267.9 331.87C268.005 332.839 267.72 333.81 267.11 334.57C266.642 334.967 266.095 335.261 265.506 335.434C264.917 335.606 264.298 335.652 263.69 335.57C261.39 335.57 260.34 334.63 260.34 332.98C260.34 331.33 261.46 330.35 263.62 330.35H267.9V331.87ZM283.79 338.45V335.32H282.28C282 335.346 281.718 335.308 281.456 335.209C281.193 335.11 280.956 334.952 280.763 334.747C280.57 334.543 280.427 334.298 280.343 334.03C280.259 333.761 280.238 333.478 280.28 333.2V323.33H283.81V320.53H280.28V315H276.61V320.55H274.5V323.35H276.59V333.4C276.542 334.072 276.638 334.747 276.871 335.379C277.104 336.011 277.47 336.586 277.943 337.066C278.416 337.546 278.986 337.919 279.615 338.161C280.244 338.403 280.917 338.509 281.59 338.47L283.79 338.45ZM295.26 323.33V320.53H291.63V317.9C291.588 317.622 291.61 317.338 291.693 317.069C291.777 316.801 291.921 316.555 292.113 316.35C292.306 316.145 292.542 315.986 292.805 315.886C293.068 315.785 293.35 315.746 293.63 315.77H295.25V312.64H293C292.327 312.603 291.653 312.709 291.024 312.953C290.396 313.196 289.826 313.57 289.353 314.051C288.88 314.531 288.514 315.107 288.281 315.74C288.048 316.372 287.952 317.047 288 317.72V320.53H285.91V323.33H288V338.45H291.67V323.33H295.26ZM311.91 329.33C311.91 326.27 311.48 323.97 309.75 322.17C309.036 321.452 308.182 320.89 307.241 320.518C306.299 320.147 305.291 319.974 304.28 320.01C303.275 319.974 302.273 320.148 301.338 320.52C300.403 320.891 299.556 321.453 298.85 322.17C297.12 323.97 296.69 326.27 296.69 329.33C296.69 332.39 297.12 334.73 298.85 336.53C299.557 337.245 300.405 337.806 301.339 338.178C302.273 338.55 303.275 338.724 304.28 338.69C305.291 338.725 306.299 338.551 307.24 338.179C308.181 337.808 309.035 337.246 309.75 336.53C311.48 334.71 311.91 332.41 311.91 329.31V329.33ZM308.24 329.33C308.24 331.33 308.1 333.22 306.98 334.33C306.625 334.682 306.204 334.959 305.74 335.145C305.276 335.33 304.779 335.421 304.28 335.41C303.786 335.421 303.296 335.331 302.838 335.145C302.381 334.959 301.966 334.682 301.62 334.33C300.5 333.22 300.36 331.33 300.36 329.33C300.36 327.33 300.5 325.44 301.62 324.33C301.968 323.983 302.384 323.71 302.841 323.53C303.299 323.349 303.788 323.264 304.28 323.28C304.778 323.264 305.273 323.349 305.737 323.529C306.201 323.709 306.624 323.982 306.98 324.33C308.1 325.42 308.24 327.33 308.24 329.31V329.33ZM328.62 321.73C328.06 321.148 327.383 320.694 326.632 320.397C325.881 320.1 325.076 319.968 324.27 320.01C323.346 319.98 322.429 320.162 321.586 320.542C320.744 320.922 319.999 321.489 319.41 322.2V320.2H315.81V338.45H319.48V327.37C319.48 324.85 321.13 323.26 323.11 323.26C323.63 323.242 324.148 323.343 324.623 323.556C325.098 323.769 325.518 324.089 325.85 324.49L328.62 321.73ZM356.47 338.47V326.79C356.517 325.839 356.364 324.889 356.019 324.002C355.675 323.114 355.147 322.31 354.47 321.64C353.201 320.52 351.551 319.93 349.86 319.99C348.764 319.949 347.674 320.169 346.68 320.631C345.685 321.094 344.815 321.786 344.14 322.65C343.587 321.8 342.822 321.109 341.921 320.644C341.02 320.18 340.013 319.958 339 320C338.092 319.989 337.192 320.166 336.356 320.518C335.52 320.871 334.766 321.393 334.14 322.05V320.2H330.54V338.45H334.21V327.33C334.21 324.52 335.94 323.26 337.99 323.26C340.04 323.26 341.66 324.49 341.66 327.33V338.45H345.33V327.15C345.289 326.638 345.359 326.124 345.533 325.641C345.707 325.158 345.982 324.718 346.34 324.35C346.697 323.982 347.13 323.694 347.607 323.506C348.085 323.318 348.597 323.234 349.11 323.26C351.16 323.26 352.78 324.49 352.78 327.33V338.45L356.47 338.47Z" fill="#231F20"/>
<path d="M269.36 78.9699C270.547 78.9699 271.51 78.0073 271.51 76.8199C271.51 75.6325 270.547 74.6699 269.36 74.6699C268.173 74.6699 267.21 75.6325 267.21 76.8199C267.21 78.0073 268.173 78.9699 269.36 78.9699Z" stroke="white" stroke-width="2"/>
<path d="M268.74 84.02H277.56" stroke="white" stroke-width="2"/>
<path d="M479.91 184.3C479.535 184.675 479.324 185.184 479.324 185.715C479.324 186.246 479.535 186.755 479.91 187.13C480.285 187.505 480.794 187.716 481.325 187.716C481.856 187.716 482.365 187.505 482.74 187.13L479.91 184.3ZM485.56 181.48L486.97 180.07C486.595 179.697 486.088 179.488 485.56 179.488C485.031 179.488 484.525 179.697 484.15 180.07L485.56 181.48ZM488.38 187.13C488.755 187.505 489.264 187.716 489.795 187.716C490.326 187.716 490.835 187.505 491.21 187.13C491.585 186.755 491.796 186.246 491.796 185.715C491.796 185.184 491.585 184.675 491.21 184.3L488.38 187.13ZM482.74 187.13L487 182.9L484.18 180.07L479.94 184.3L482.74 187.13ZM484.15 182.9L488.38 187.13L491.21 184.3L487 180.07L484.15 182.9Z" fill="white"/>
<path d="M475.73 200.1C476.105 200.475 476.614 200.686 477.145 200.686C477.676 200.686 478.185 200.475 478.56 200.1C478.935 199.725 479.146 199.216 479.146 198.685C479.146 198.154 478.935 197.645 478.56 197.27L475.73 200.1ZM472.91 194.45L471.5 193C471.314 193.186 471.167 193.406 471.066 193.649C470.965 193.892 470.914 194.152 470.914 194.415C470.914 194.678 470.965 194.938 471.066 195.181C471.167 195.424 471.314 195.644 471.5 195.83L472.91 194.45ZM478.56 191.63C478.904 191.249 479.089 190.75 479.075 190.237C479.062 189.724 478.851 189.235 478.487 188.873C478.124 188.51 477.635 188.302 477.121 188.29C476.608 188.278 476.11 188.464 475.73 188.81L478.56 191.63ZM478.56 197.27L474.33 193L471.5 195.83L475.73 200.06L478.56 197.27ZM474.33 195.87L478.56 191.63L475.73 188.81L471.5 193L474.33 195.87Z" fill="white"/>
<path d="M69 200.18L93.63 214.4" stroke="white" stroke-width="2" stroke-dasharray="2 2"/>
<path d="M133.48 128.73C133.294 128.916 133.147 129.136 133.046 129.379C132.946 129.622 132.894 129.882 132.894 130.145C132.894 130.408 132.946 130.668 133.046 130.911C133.147 131.154 133.294 131.374 133.48 131.56C133.666 131.746 133.887 131.893 134.129 131.994C134.372 132.094 134.632 132.146 134.895 132.146C135.158 132.146 135.418 132.094 135.661 131.994C135.904 131.893 136.124 131.746 136.31 131.56L133.48 128.73ZM139.13 125.91L140.54 124.5C140.165 124.128 139.659 123.918 139.13 123.918C138.602 123.918 138.095 124.128 137.72 124.5L139.13 125.91ZM142 131.56C142.375 131.935 142.884 132.146 143.415 132.146C143.946 132.146 144.455 131.935 144.83 131.56C145.205 131.185 145.416 130.676 145.416 130.145C145.416 129.614 145.205 129.105 144.83 128.73L142 131.56ZM136.36 131.56L140.59 127.33L137.77 124.5L133.53 128.73L136.36 131.56ZM137.77 127.33L142 131.56L144.83 128.73L140.59 124.5L137.77 127.33Z" fill="white"/>
<path d="M139.13 128.89V135.79" stroke="white" stroke-width="2" stroke-linecap="round" stroke-linejoin="round"/>
<path d="M306.75 125.75C325.942 125.75 341.5 110.192 341.5 91C341.5 71.8081 325.942 56.25 306.75 56.25C287.558 56.25 272 71.8081 272 91C272 110.192 287.558 125.75 306.75 125.75Z" fill="white" stroke="#9F9F9F" stroke-width="0.5"/>
<path d="M321.4 87.1499C321.97 89.0264 322.249 90.9789 322.23 92.9399C322.25 94.8967 321.991 96.8464 321.46 98.7299C322.707 98.6809 323.887 98.1522 324.753 97.254C325.62 96.3559 326.106 95.1578 326.11 93.9099V91.9999C326.113 90.7367 325.622 89.5224 324.742 88.6162C323.862 87.7101 322.663 87.1838 321.4 87.1499Z" fill="#0D51D9"/>
<path d="M314.49 81.26V77.26C315.135 77.0323 315.679 76.5838 316.026 75.9937C316.372 75.4037 316.499 74.7101 316.384 74.0357C316.268 73.3613 315.918 72.7494 315.395 72.3083C314.872 71.8672 314.209 71.6252 313.525 71.6252C312.841 71.6252 312.179 71.8672 311.656 72.3083C311.133 72.7494 310.782 73.3613 310.667 74.0357C310.551 74.7101 310.678 75.4037 311.024 75.9937C311.371 76.5838 311.915 77.0323 312.56 77.26V80.32C308.79 79.0532 304.71 79.0532 300.94 80.32V77.28C301.585 77.0523 302.129 76.6038 302.476 76.0137C302.822 75.4237 302.949 74.7301 302.834 74.0557C302.718 73.3813 302.368 72.7694 301.845 72.3283C301.322 71.8872 300.659 71.6452 299.975 71.6452C299.291 71.6452 298.629 71.8872 298.106 72.3283C297.583 72.7694 297.232 73.3813 297.117 74.0557C297.001 74.7301 297.128 75.4237 297.474 76.0137C297.821 76.6038 298.365 77.0523 299.01 77.28V81.28C295.12 83.54 293.2 87.73 293.2 92.96C293.2 99.39 294.78 104.01 300.94 105.74V109.41C300.94 109.675 301.046 109.93 301.233 110.117C301.421 110.305 301.675 110.41 301.94 110.41C302.108 110.411 302.273 110.37 302.42 110.29L309.42 106.38C317.25 105.46 320.37 100.22 320.37 92.99C320.3 87.71 318.38 83.52 314.49 81.26ZM301.91 87.62C303.59 87.62 304.82 88.62 304.82 90.04C304.857 90.1874 304.86 90.3414 304.829 90.4901C304.797 90.6388 304.732 90.7784 304.639 90.8983C304.545 91.0181 304.425 91.1151 304.289 91.1817C304.152 91.2484 304.002 91.2831 303.85 91.2831C303.698 91.2831 303.548 91.2484 303.412 91.1817C303.275 91.1151 303.155 91.0181 303.062 90.8983C302.968 90.7784 302.903 90.6388 302.872 90.4901C302.84 90.3414 302.843 90.1874 302.88 90.04C302.88 89.37 300.94 89.37 300.94 90.04C300.992 90.1921 301.006 90.3545 300.981 90.5132C300.957 90.672 300.894 90.8225 300.799 90.952C300.704 91.0815 300.579 91.1862 300.435 91.2573C300.291 91.3284 300.132 91.3637 299.972 91.3603C299.811 91.3568 299.654 91.3148 299.513 91.2377C299.372 91.1605 299.252 91.0506 299.162 90.9171C299.073 90.7837 299.017 90.6307 298.999 90.471C298.981 90.3114 299.002 90.1498 299.06 90C299.06 88.64 300.23 87.62 301.91 87.62ZM313.52 91C313.255 91 313.001 90.8946 312.813 90.7071C312.626 90.5196 312.52 90.2652 312.52 90C312.52 89.33 310.58 89.33 310.58 90C310.62 90.1483 310.626 90.3039 310.597 90.4547C310.567 90.6055 310.503 90.7475 310.41 90.8696C310.316 90.9917 310.196 91.0906 310.058 91.1587C309.92 91.2268 309.769 91.2622 309.615 91.2622C309.462 91.2622 309.31 91.2268 309.172 91.1587C309.034 91.0906 308.914 90.9917 308.821 90.8696C308.727 90.7475 308.663 90.6055 308.634 90.4547C308.604 90.3039 308.61 90.1483 308.65 90C308.65 88.6 309.87 87.58 311.55 87.58C313.23 87.58 314.45 88.58 314.45 90C314.45 90.2652 314.345 90.5196 314.157 90.7071C313.97 90.8946 313.715 91 313.45 91H313.52Z" fill="#0D51D9"/>
<path d="M287.4 91.9999V93.9399C287.409 95.185 287.9 96.3784 288.768 97.2709C289.636 98.1634 290.816 98.6861 292.06 98.7299C291.529 96.8464 291.27 94.8967 291.29 92.9399C291.27 90.9789 291.55 89.0264 292.12 87.1499C290.855 87.1787 289.651 87.703 288.769 88.61C287.886 89.517 287.394 90.7343 287.4 91.9999Z" fill="#0D51D9"/>
<path d="M306.75 563.5C325.942 563.5 341.5 547.942 341.5 528.75C341.5 509.558 325.942 494 306.75 494C287.558 494 272 509.558 272 528.75C272 547.942 287.558 563.5 306.75 563.5Z" fill="white" stroke="#9F9F9F" stroke-width="0.5"/>
<g filter="url(#filter0_d_4388_63518)">
<rect x="255" y="14" width="104" height="41" rx="20.5" fill="white"/>
<path d="M288.248 37.592H286.504C286.232 38.744 285.448 39.544 284.184 39.544C283.512 39.544 282.904 39.288 282.504 38.856C281.944 38.248 281.816 37.592 281.816 35.304C281.816 33.016 281.944 32.36 282.504 31.752C282.904 31.32 283.512 31.064 284.184 31.064C285.448 31.064 286.216 31.864 286.488 33.016H288.248C287.848 30.744 286.28 29.512 284.184 29.512C283 29.512 281.976 29.944 281.192 30.728C280.072 31.848 280.088 33.112 280.088 35.304C280.088 37.496 280.072 38.76 281.192 39.88C281.976 40.664 283 41.096 284.184 41.096C286.248 41.096 287.864 39.864 288.248 37.592ZM296.903 41V35.768C296.903 34.008 295.895 32.792 294.087 32.792C293.286 32.792 292.551 33.096 291.991 33.704V29.608H290.359V41H291.991V36.024C291.991 34.808 292.727 34.248 293.639 34.248C294.551 34.248 295.271 34.792 295.271 36.024V41H296.903ZM305.389 41V35.576C305.389 33.736 304.269 32.792 302.045 32.792C300.701 32.792 299.901 33.064 299.133 33.96L300.205 34.968C300.653 34.392 301.085 34.184 301.981 34.184C303.245 34.184 303.757 34.68 303.757 35.704V36.28H301.613C299.757 36.28 298.813 37.256 298.813 38.616C298.813 39.304 299.037 39.928 299.453 40.36C299.949 40.856 300.621 41.096 301.629 41.096C302.637 41.096 303.197 40.856 303.789 40.264V41H305.389ZM303.757 38.072C303.757 38.648 303.645 39.032 303.405 39.272C302.973 39.688 302.509 39.736 301.885 39.736C300.861 39.736 300.397 39.32 300.397 38.584C300.397 37.848 300.893 37.416 301.853 37.416H303.757V38.072ZM311.297 41V39.608H310.625C310.017 39.608 309.729 39.256 309.729 38.664V34.28H311.297V33.032H309.729V30.568H308.097V33.032H307.169V34.28H308.097V38.744C308.097 39.912 308.801 41 310.321 41H311.297ZM320.014 36.936C320.014 35.704 319.918 34.328 319.102 33.512C318.654 33.064 317.95 32.792 317.134 32.792C316.27 32.792 315.598 33 315.006 33.704V29.608H313.374V41H314.974V40.136C315.582 40.872 316.238 41.096 317.118 41.096C317.934 41.096 318.654 40.824 319.102 40.376C319.918 39.56 320.014 38.168 320.014 36.936ZM318.382 36.936C318.382 38.376 318.174 39.64 316.702 39.64C315.23 39.64 315.006 38.376 315.006 36.936C315.006 35.496 315.23 34.248 316.702 34.248C318.174 34.248 318.382 35.496 318.382 36.936ZM328.602 36.936C328.602 35.576 328.41 34.552 327.642 33.752C327.114 33.208 326.314 32.792 325.21 32.792C324.106 32.792 323.322 33.208 322.794 33.752C322.026 34.552 321.834 35.576 321.834 36.936C321.834 38.312 322.026 39.336 322.794 40.136C323.322 40.68 324.106 41.096 325.21 41.096C326.314 41.096 327.114 40.68 327.642 40.136C328.41 39.336 328.602 38.312 328.602 36.936ZM326.97 36.936C326.97 37.816 326.906 38.664 326.41 39.16C326.106 39.464 325.69 39.64 325.21 39.64C324.73 39.64 324.33 39.464 324.026 39.16C323.53 38.664 323.466 37.816 323.466 36.936C323.466 36.056 323.53 35.208 324.026 34.712C324.33 34.408 324.73 34.248 325.21 34.248C325.69 34.248 326.106 34.408 326.41 34.712C326.906 35.208 326.97 36.056 326.97 36.936ZM334.204 41V39.608H333.532C332.924 39.608 332.636 39.256 332.636 38.664V34.28H334.204V33.032H332.636V30.568H331.004V33.032H330.076V34.28H331.004V38.744C331.004 39.912 331.708 41 333.228 41H334.204Z" fill="#231F20"/>
</g>
<path d="M307 64L299.206 55L314.794 55L307 64Z" fill="white"/>
<path d="M468.06 177.73C487.252 177.73 502.81 162.172 502.81 142.98C502.81 123.788 487.252 108.23 468.06 108.23C448.868 108.23 433.31 123.788 433.31 142.98C433.31 162.172 448.868 177.73 468.06 177.73Z" fill="white" stroke="#9F9F9F" stroke-width="0.5"/>
<path d="M468.23 146.78H448.63V131.84C448.635 131.35 448.833 130.882 449.182 130.538C449.53 130.193 450 130 450.49 130H479.43C479.923 130 480.396 130.196 480.745 130.545C481.094 130.894 481.29 131.367 481.29 131.86V132.8H471C470.257 132.8 469.545 133.095 469.02 133.62C468.495 134.145 468.2 134.857 468.2 135.6L468.23 146.78ZM468.23 148.64H448.63V149.58C448.63 149.824 448.678 150.066 448.771 150.292C448.865 150.517 449.002 150.723 449.175 150.895C449.347 151.068 449.552 151.205 449.778 151.298C450.004 151.392 450.246 151.44 450.49 151.44H468.23V148.64ZM468.39 156.11C468.286 155.811 468.232 155.497 468.23 155.18V153.31H464.79L464.23 156.11H460.76C460.529 156.134 460.314 156.243 460.159 156.415C460.003 156.588 459.917 156.812 459.917 157.045C459.917 157.278 460.003 157.502 460.159 157.675C460.314 157.847 460.529 157.956 460.76 157.98H469.16C469.283 157.979 469.405 157.954 469.518 157.906C469.631 157.858 469.734 157.788 469.82 157.7C469.154 157.377 468.64 156.807 468.39 156.11ZM483.16 134.64H471C470.751 134.64 470.511 134.739 470.335 134.915C470.159 135.092 470.06 135.331 470.06 135.58V137.44H484.06V135.58C484.06 135.337 483.967 135.104 483.799 134.929C483.631 134.754 483.402 134.65 483.16 134.64ZM470.09 151.44H484.09V139.31H470.09V151.44ZM470.09 155.18C470.093 155.428 470.193 155.664 470.369 155.838C470.545 156.012 470.782 156.11 471.03 156.11H483.16C483.282 156.11 483.403 156.086 483.516 156.039C483.629 155.992 483.731 155.924 483.817 155.838C483.904 155.751 483.972 155.649 484.019 155.536C484.066 155.423 484.09 155.302 484.09 155.18V153.31H470.09V155.18Z" fill="#0D51D9"/>
<g filter="url(#filter1_d_4388_63518)">
<rect x="373" y="62" width="186" height="41" rx="20.5" fill="white"/>
<path d="M407.114 89L402.938 77.608H401.546L397.37 89H399.21L399.994 86.712H404.49L405.274 89H407.114ZM404.01 85.24H400.506L402.282 80.184L404.01 85.24ZM414.538 86.52C414.538 85.08 413.642 84.36 412.122 84.232L410.842 84.12C409.978 84.04 409.722 83.672 409.722 83.192C409.722 82.584 410.218 82.152 411.194 82.152C411.962 82.152 412.682 82.312 413.194 82.744L414.218 81.704C413.466 81.048 412.426 80.792 411.21 80.792C409.514 80.792 408.154 81.688 408.154 83.272C408.154 84.696 409.034 85.384 410.554 85.512L411.85 85.624C412.634 85.688 412.938 86.04 412.938 86.584C412.938 87.352 412.154 87.704 411.162 87.704C410.362 87.704 409.482 87.528 408.826 86.856L407.754 87.928C408.714 88.872 409.834 89.096 411.162 89.096C413.098 89.096 414.538 88.216 414.538 86.52ZM422.429 86.52C422.429 85.08 421.533 84.36 420.013 84.232L418.733 84.12C417.869 84.04 417.613 83.672 417.613 83.192C417.613 82.584 418.109 82.152 419.085 82.152C419.853 82.152 420.573 82.312 421.085 82.744L422.109 81.704C421.357 81.048 420.317 80.792 419.101 80.792C417.405 80.792 416.045 81.688 416.045 83.272C416.045 84.696 416.925 85.384 418.445 85.512L419.741 85.624C420.525 85.688 420.829 86.04 420.829 86.584C420.829 87.352 420.045 87.704 419.053 87.704C418.253 87.704 417.373 87.528 416.717 86.856L415.645 87.928C416.605 88.872 417.725 89.096 419.053 89.096C420.989 89.096 422.429 88.216 422.429 86.52ZM430.877 85.416V84.696C430.877 82.392 429.613 80.792 427.437 80.792C425.357 80.792 423.997 82.312 423.997 84.936C423.997 88.024 425.613 89.096 427.645 89.096C429.069 89.096 429.853 88.664 430.685 87.832L429.645 86.856C429.069 87.432 428.589 87.688 427.677 87.688C426.349 87.688 425.613 86.808 425.613 85.416H430.877ZM429.261 84.28H425.613C425.629 83.784 425.661 83.544 425.821 83.176C426.077 82.568 426.669 82.152 427.437 82.152C428.205 82.152 428.781 82.568 429.037 83.176C429.197 83.544 429.245 83.784 429.261 84.28ZM436.43 89V87.608H435.758C435.15 87.608 434.862 87.256 434.862 86.664V82.28H436.43V81.032H434.862V78.568H433.23V81.032H432.302V82.28H433.23V86.744C433.23 87.912 433.934 89 435.454 89H436.43ZM452.591 89V77.608H450.863L447.599 84.696L444.271 77.608H442.543V89H444.271V81.384L446.959 86.936H448.239L450.863 81.384V89H452.591ZM461.334 89V83.576C461.334 81.736 460.214 80.792 457.99 80.792C456.646 80.792 455.846 81.064 455.078 81.96L456.15 82.968C456.598 82.392 457.03 82.184 457.926 82.184C459.19 82.184 459.702 82.68 459.702 83.704V84.28H457.558C455.702 84.28 454.758 85.256 454.758 86.616C454.758 87.304 454.982 87.928 455.398 88.36C455.894 88.856 456.566 89.096 457.574 89.096C458.582 89.096 459.142 88.856 459.734 88.264V89H461.334ZM459.702 86.072C459.702 86.648 459.59 87.032 459.35 87.272C458.918 87.688 458.454 87.736 457.83 87.736C456.806 87.736 456.342 87.32 456.342 86.584C456.342 85.848 456.838 85.416 457.798 85.416H459.702V86.072ZM470.427 89V83.816C470.427 82.904 470.235 82.136 469.611 81.528C469.131 81.064 468.443 80.792 467.611 80.792C466.795 80.792 466.011 81.096 465.451 81.704V80.888H463.851V89H465.483V84.056C465.483 82.808 466.251 82.248 467.163 82.248C468.075 82.248 468.795 82.792 468.795 84.056V89H470.427ZM478.912 89V83.576C478.912 81.736 477.792 80.792 475.568 80.792C474.224 80.792 473.424 81.064 472.656 81.96L473.728 82.968C474.176 82.392 474.608 82.184 475.504 82.184C476.768 82.184 477.28 82.68 477.28 83.704V84.28H475.136C473.28 84.28 472.336 85.256 472.336 86.616C472.336 87.304 472.56 87.928 472.976 88.36C473.472 88.856 474.144 89.096 475.152 89.096C476.16 89.096 476.72 88.856 477.312 88.264V89H478.912ZM477.28 86.072C477.28 86.648 477.168 87.032 476.928 87.272C476.496 87.688 476.032 87.736 475.408 87.736C474.384 87.736 473.92 87.32 473.92 86.584C473.92 85.848 474.416 85.416 475.376 85.416H477.28V86.072ZM487.621 88.952V80.888H486.037V81.752C485.429 81.016 484.773 80.792 483.909 80.792C483.093 80.792 482.405 81.048 481.957 81.496C481.173 82.28 481.045 83.416 481.045 84.792C481.045 86.168 481.173 87.304 481.957 88.088C482.405 88.536 483.077 88.808 483.893 88.808C484.725 88.808 485.397 88.584 485.989 87.88V88.92C485.989 90.008 485.461 90.984 484.085 90.984C483.285 90.984 482.837 90.744 482.325 90.264L481.285 91.304C482.133 92.088 482.917 92.376 484.149 92.376C486.309 92.376 487.621 90.936 487.621 88.952ZM485.989 84.792C485.989 86.072 485.813 87.336 484.341 87.336C482.869 87.336 482.677 86.072 482.677 84.792C482.677 83.512 482.869 82.248 484.341 82.248C485.813 82.248 485.989 83.512 485.989 84.792ZM496.674 85.416V84.696C496.674 82.392 495.41 80.792 493.234 80.792C491.154 80.792 489.794 82.312 489.794 84.936C489.794 88.024 491.41 89.096 493.442 89.096C494.866 89.096 495.65 88.664 496.482 87.832L495.442 86.856C494.866 87.432 494.386 87.688 493.474 87.688C492.146 87.688 491.41 86.808 491.41 85.416H496.674ZM495.058 84.28H491.41C491.426 83.784 491.458 83.544 491.618 83.176C491.874 82.568 492.466 82.152 493.234 82.152C494.002 82.152 494.578 82.568 494.834 83.176C494.994 83.544 495.042 83.784 495.058 84.28ZM510.355 89V83.816C510.355 82.904 510.115 82.136 509.491 81.528C509.011 81.064 508.275 80.792 507.443 80.792C506.371 80.792 505.555 81.176 504.899 81.976C504.387 81.192 503.603 80.792 502.595 80.792C501.779 80.792 500.979 81.112 500.435 81.704V80.888H498.835V89H500.467V84.056C500.467 82.808 501.235 82.248 502.147 82.248C503.059 82.248 503.779 82.792 503.779 84.056V89H505.411V83.976C505.411 82.808 506.211 82.248 507.091 82.248C508.003 82.248 508.723 82.792 508.723 84.056V89H510.355ZM519.33 85.416V84.696C519.33 82.392 518.066 80.792 515.89 80.792C513.81 80.792 512.45 82.312 512.45 84.936C512.45 88.024 514.066 89.096 516.098 89.096C517.522 89.096 518.306 88.664 519.138 87.832L518.098 86.856C517.522 87.432 517.042 87.688 516.13 87.688C514.802 87.688 514.066 86.808 514.066 85.416H519.33ZM517.714 84.28H514.066C514.082 83.784 514.114 83.544 514.274 83.176C514.53 82.568 515.122 82.152 515.89 82.152C516.658 82.152 517.234 82.568 517.49 83.176C517.65 83.544 517.698 83.784 517.714 84.28ZM528.067 89V83.816C528.067 82.904 527.875 82.136 527.251 81.528C526.771 81.064 526.083 80.792 525.251 80.792C524.435 80.792 523.651 81.096 523.091 81.704V80.888H521.491V89H523.123V84.056C523.123 82.808 523.891 82.248 524.803 82.248C525.715 82.248 526.435 82.792 526.435 84.056V89H528.067ZM533.977 89V87.608H533.305C532.697 87.608 532.409 87.256 532.409 86.664V82.28H533.977V81.032H532.409V78.568H530.777V81.032H529.849V82.28H530.777V86.744C530.777 87.912 531.481 89 533.001 89H533.977Z" fill="#231F20"/>
</g>
<path d="M466 112L458.206 103L473.794 103L466 112Z" fill="white"/>
<path d="M112.75 488.5C131.942 488.5 147.5 472.942 147.5 453.75C147.5 434.558 131.942 419 112.75 419C93.5581 419 78 434.558 78 453.75C78 472.942 93.5581 488.5 112.75 488.5Z" fill="white" stroke="#9F9F9F" stroke-width="0.5"/>
<path d="M130.35 466.07L114.35 438.31C114.189 438.039 113.96 437.814 113.686 437.658C113.411 437.501 113.101 437.419 112.785 437.419C112.469 437.419 112.159 437.501 111.885 437.658C111.61 437.814 111.381 438.039 111.22 438.31L95.1702 466.07C95.008 466.345 94.922 466.658 94.9214 466.977C94.9207 467.296 95.0053 467.609 95.1665 467.885C95.3276 468.16 95.5594 468.387 95.8378 468.543C96.1163 468.699 96.4313 468.777 96.7502 468.77H128.84C129.152 468.762 129.456 468.672 129.723 468.511C129.99 468.35 130.21 468.122 130.363 467.849C130.515 467.577 130.594 467.27 130.592 466.958C130.59 466.646 130.506 466.34 130.35 466.07ZM112.73 463.85C112.385 463.85 112.048 463.748 111.761 463.557C111.474 463.366 111.25 463.095 111.116 462.777C110.983 462.459 110.947 462.108 111.012 461.77C111.077 461.431 111.241 461.119 111.483 460.873C111.724 460.627 112.033 460.458 112.371 460.387C112.708 460.317 113.059 460.347 113.379 460.475C113.7 460.603 113.975 460.822 114.171 461.106C114.367 461.39 114.474 461.725 114.48 462.07C114.486 462.303 114.444 462.534 114.359 462.751C114.273 462.967 114.145 463.164 113.981 463.33C113.818 463.496 113.623 463.628 113.409 463.717C113.194 463.806 112.963 463.852 112.73 463.85ZM115.16 449.07L114.16 457.07C114.16 457.46 114.005 457.834 113.73 458.11C113.454 458.385 113.08 458.54 112.69 458.54C112.3 458.54 111.926 458.385 111.651 458.11C111.375 457.834 111.22 457.46 111.22 457.07L110.27 449.07V448.75C110.27 447.75 111.38 446.97 112.73 446.97C114.08 446.97 115.19 447.76 115.19 448.75L115.16 449.07Z" fill="#0D51D9"/>
<g filter="url(#filter2_d_4388_63518)">
<rect x="56" y="377" width="114" height="41" rx="20.5" fill="white"/>
<path d="M83.3176 404V392.608H81.5896V404H83.3176ZM92.6767 404V398.816C92.6767 397.904 92.4847 397.136 91.8607 396.528C91.3807 396.064 90.6927 395.792 89.8607 395.792C89.0447 395.792 88.2607 396.096 87.7007 396.704V395.888H86.1007V404H87.7327V399.056C87.7327 397.808 88.5007 397.248 89.4127 397.248C90.3247 397.248 91.0447 397.792 91.0447 399.056V404H92.6767ZM101.066 402.944L99.9464 401.872C99.4344 402.432 99.0344 402.64 98.3944 402.64C97.7704 402.64 97.2424 402.384 96.8904 401.92C96.5384 401.472 96.4104 400.88 96.4104 399.936C96.4104 398.992 96.5384 398.416 96.8904 397.968C97.2424 397.504 97.7704 397.248 98.3944 397.248C99.0344 397.248 99.4344 397.456 99.9464 398.016L101.066 396.928C100.298 396.112 99.5144 395.792 98.3944 395.792C96.5704 395.792 94.7784 396.896 94.7784 399.936C94.7784 402.976 96.5704 404.096 98.3944 404.096C99.5144 404.096 100.298 403.76 101.066 402.944ZM104.592 404V395.888H102.96V404H104.592ZM104.64 394.288V392.56H102.912V394.288H104.64ZM113.435 404V392.608H111.803V396.704C111.211 396 110.539 395.792 109.675 395.792C108.859 395.792 108.155 396.064 107.707 396.512C106.891 397.328 106.795 398.704 106.795 399.936C106.795 401.168 106.891 402.56 107.707 403.376C108.155 403.824 108.875 404.096 109.691 404.096C110.571 404.096 111.227 403.872 111.835 403.136V404H113.435ZM111.803 399.936C111.803 401.376 111.595 402.64 110.123 402.64C108.651 402.64 108.427 401.376 108.427 399.936C108.427 398.496 108.651 397.248 110.123 397.248C111.595 397.248 111.803 398.496 111.803 399.936ZM122.487 400.416V399.696C122.487 397.392 121.223 395.792 119.047 395.792C116.967 395.792 115.607 397.312 115.607 399.936C115.607 403.024 117.223 404.096 119.255 404.096C120.679 404.096 121.463 403.664 122.295 402.832L121.255 401.856C120.679 402.432 120.199 402.688 119.287 402.688C117.959 402.688 117.223 401.808 117.223 400.416H122.487ZM120.871 399.28H117.223C117.239 398.784 117.271 398.544 117.431 398.176C117.687 397.568 118.279 397.152 119.047 397.152C119.815 397.152 120.391 397.568 120.647 398.176C120.807 398.544 120.855 398.784 120.871 399.28ZM131.224 404V398.816C131.224 397.904 131.032 397.136 130.408 396.528C129.928 396.064 129.24 395.792 128.408 395.792C127.592 395.792 126.808 396.096 126.248 396.704V395.888H124.648V404H126.28V399.056C126.28 397.808 127.048 397.248 127.96 397.248C128.872 397.248 129.592 397.792 129.592 399.056V404H131.224ZM137.133 404V402.608H136.461C135.853 402.608 135.565 402.256 135.565 401.664V397.28H137.133V396.032H135.565V393.568H133.933V396.032H133.005V397.28H133.933V401.744C133.933 402.912 134.637 404 136.157 404H137.133ZM145.21 401.52C145.21 400.08 144.314 399.36 142.794 399.232L141.514 399.12C140.65 399.04 140.394 398.672 140.394 398.192C140.394 397.584 140.89 397.152 141.866 397.152C142.634 397.152 143.354 397.312 143.866 397.744L144.89 396.704C144.138 396.048 143.098 395.792 141.882 395.792C140.186 395.792 138.826 396.688 138.826 398.272C138.826 399.696 139.706 400.384 141.226 400.512L142.522 400.624C143.306 400.688 143.61 401.04 143.61 401.584C143.61 402.352 142.826 402.704 141.834 402.704C141.034 402.704 140.154 402.528 139.498 401.856L138.426 402.928C139.386 403.872 140.506 404.096 141.834 404.096C143.77 404.096 145.21 403.216 145.21 401.52Z" fill="#231F20"/>
</g>
<path d="M113 427L105.206 418L120.794 418L113 427Z" fill="white"/>
<g filter="url(#filter3_d_4388_63518)">
<rect x="245" y="447" width="125" height="41" rx="20.5" fill="white"/>
<path d="M280.849 474V462.608H279.121L275.857 469.696L272.529 462.608H270.801V474H272.529V466.384L275.217 471.936H276.497L279.121 466.384V474H280.849ZM285.256 474V465.888H283.624V474H285.256ZM285.304 464.288V462.56H283.576V464.288H285.304ZM293.715 472.944L292.595 471.872C292.083 472.432 291.683 472.64 291.043 472.64C290.419 472.64 289.891 472.384 289.539 471.92C289.187 471.472 289.059 470.88 289.059 469.936C289.059 468.992 289.187 468.416 289.539 467.968C289.891 467.504 290.419 467.248 291.043 467.248C291.683 467.248 292.083 467.456 292.595 468.016L293.715 466.928C292.947 466.112 292.163 465.792 291.043 465.792C289.219 465.792 287.427 466.896 287.427 469.936C287.427 472.976 289.219 474.096 291.043 474.096C292.163 474.096 292.947 473.76 293.715 472.944ZM301.305 466.56C300.745 466 300.153 465.792 299.369 465.792C298.457 465.792 297.625 466.192 297.209 466.768V465.888H295.609V474H297.241V469.072C297.241 467.952 297.977 467.248 298.857 467.248C299.417 467.248 299.705 467.424 300.073 467.792L301.305 466.56ZM308.524 469.936C308.524 468.576 308.332 467.552 307.564 466.752C307.036 466.208 306.236 465.792 305.132 465.792C304.028 465.792 303.244 466.208 302.716 466.752C301.948 467.552 301.756 468.576 301.756 469.936C301.756 471.312 301.948 472.336 302.716 473.136C303.244 473.68 304.028 474.096 305.132 474.096C306.236 474.096 307.036 473.68 307.564 473.136C308.332 472.336 308.524 471.312 308.524 469.936ZM306.892 469.936C306.892 470.816 306.828 471.664 306.332 472.16C306.028 472.464 305.612 472.64 305.132 472.64C304.652 472.64 304.252 472.464 303.948 472.16C303.452 471.664 303.388 470.816 303.388 469.936C303.388 469.056 303.452 468.208 303.948 467.712C304.252 467.408 304.652 467.248 305.132 467.248C305.612 467.248 306.028 467.408 306.332 467.712C306.828 468.208 306.892 469.056 306.892 469.936ZM321.073 465.888H319.329L317.76 471.6L315.889 465.888H314.625L312.737 471.6L311.169 465.888H309.441L311.953 474H313.361L315.249 468.336L317.153 474H318.545L321.073 465.888ZM328.467 474V468.576C328.467 466.736 327.347 465.792 325.123 465.792C323.779 465.792 322.979 466.064 322.211 466.96L323.283 467.968C323.731 467.392 324.163 467.184 325.059 467.184C326.323 467.184 326.835 467.68 326.835 468.704V469.28H324.691C322.835 469.28 321.891 470.256 321.891 471.616C321.891 472.304 322.115 472.928 322.531 473.36C323.027 473.856 323.699 474.096 324.707 474.096C325.715 474.096 326.275 473.856 326.867 473.264V474H328.467ZM326.835 471.072C326.835 471.648 326.723 472.032 326.483 472.272C326.051 472.688 325.587 472.736 324.963 472.736C323.939 472.736 323.475 472.32 323.475 471.584C323.475 470.848 323.971 470.416 324.931 470.416H326.835V471.072ZM337.096 465.888H335.368L333.464 471.6L331.544 465.888H329.816L332.792 474H334.12L337.096 465.888ZM344.823 470.416V469.696C344.823 467.392 343.559 465.792 341.383 465.792C339.303 465.792 337.943 467.312 337.943 469.936C337.943 473.024 339.559 474.096 341.591 474.096C343.015 474.096 343.799 473.664 344.631 472.832L343.591 471.856C343.015 472.432 342.535 472.688 341.623 472.688C340.295 472.688 339.559 471.808 339.559 470.416H344.823ZM343.207 469.28H339.559C339.575 468.784 339.607 468.544 339.767 468.176C340.023 467.568 340.615 467.152 341.383 467.152C342.151 467.152 342.727 467.568 342.983 468.176C343.143 468.544 343.191 468.784 343.207 469.28Z" fill="#231F20"/>
</g>
<path d="M307.5 497L299.706 488L315.294 488L307.5 497Z" fill="white"/>
<path d="M132.46 178.63C151.652 178.63 167.21 163.072 167.21 143.88C167.21 124.688 151.652 109.13 132.46 109.13C113.268 109.13 97.71 124.688 97.71 143.88C97.71 163.072 113.268 178.63 132.46 178.63Z" fill="white" stroke="#9F9F9F" stroke-width="0.5"/>
<path d="M122.57 139.11L120.42 137.37C119.341 139.37 118.778 141.608 118.78 143.88C118.758 147.001 119.818 150.033 121.78 152.46L116.07 152.64L117.07 158.26C113.888 154.883 111.915 150.548 111.457 145.931C110.999 141.314 112.083 136.676 114.54 132.74L112.36 131L122.2 129.32L122.57 139.11ZM142.29 148.61L144.45 150.35C145.528 148.35 146.092 146.112 146.09 143.84C146.111 140.719 145.051 137.688 143.09 135.26L148.85 135.08L147.85 129.5C151.022 132.879 152.987 137.212 153.44 141.825C153.892 146.437 152.805 151.069 150.35 155L152.55 156.73L142.71 158.42L142.29 148.61ZM137.19 134L138.92 131.85C136.548 130.57 133.851 130.02 131.168 130.269C128.485 130.518 125.935 131.555 123.84 133.25L123.65 127.54L118.08 128.54C121.456 125.357 125.79 123.381 130.407 122.922C135.024 122.462 139.663 123.545 143.6 126L145.34 123.8L147 133.63L137.19 134ZM127.68 153.72L126 155.92C128 156.999 130.237 157.562 132.51 157.56C135.628 157.582 138.657 156.522 141.08 154.56L141.27 160.27L146.84 159.27C143.462 162.454 139.125 164.429 134.506 164.887C129.887 165.345 125.247 164.259 121.31 161.8L119.53 164L117.84 154.16L127.68 153.72Z" fill="#0D51D9"/>
<g filter="url(#filter4_d_4388_63518)">
<rect x="88" y="64" width="85" height="41" rx="20.5" fill="white"/>
<path d="M115.661 91V79.608H113.933V91H115.661ZM125.628 81.16V79.608H117.628V81.16H120.764V91H122.492V81.16H125.628ZM134.71 87.752C134.71 86.776 134.406 85.96 133.782 85.416C133.302 84.984 132.71 84.728 131.654 84.568L130.358 84.376C129.83 84.296 129.366 84.104 129.078 83.848C128.774 83.576 128.646 83.208 128.646 82.792C128.646 81.784 129.382 81.016 130.726 81.016C131.686 81.016 132.502 81.224 133.206 81.896L134.31 80.808C133.334 79.896 132.278 79.512 130.774 79.512C128.406 79.512 126.966 80.872 126.966 82.856C126.966 83.784 127.238 84.504 127.798 85.032C128.294 85.496 129.03 85.816 129.958 85.944L131.302 86.136C131.974 86.232 132.262 86.344 132.55 86.616C132.854 86.888 132.998 87.304 132.998 87.8C132.998 88.904 132.134 89.544 130.646 89.544C129.478 89.544 128.566 89.288 127.734 88.456L126.582 89.592C127.67 90.696 128.902 91.096 130.614 91.096C132.998 91.096 134.71 89.848 134.71 87.752ZM147.075 91V79.608H145.347L142.083 86.696L138.755 79.608H137.027V91H138.755V83.384L141.443 88.936H142.723L145.347 83.384V91H147.075Z" fill="#231F20"/>
</g>
<path d="M130.5 114L122.706 105L138.294 105L130.5 114Z" fill="white"/>
<path d="M66.75 332.5C85.9419 332.5 101.5 316.942 101.5 297.75C101.5 278.558 85.9419 263 66.75 263C47.5581 263 32 278.558 32 297.75C32 316.942 47.5581 332.5 66.75 332.5Z" fill="white" stroke="#9F9F9F" stroke-width="0.5"/>
<path d="M66.4201 319.57C78.4709 319.57 88.2401 309.801 88.2401 297.75C88.2401 285.699 78.4709 275.93 66.4201 275.93C54.3692 275.93 44.6001 285.699 44.6001 297.75C44.6001 309.801 54.3692 319.57 66.4201 319.57Z" fill="#0D51D9"/>
<path d="M63.5701 297.73L60.6801 294.83V296.56H52.6201V298.89H60.6801V300.62L63.5701 297.73Z" fill="white"/>
<path d="M69.27 297.73L72.17 300.62V298.89H80.23V296.56H72.17V294.83L69.27 297.73Z" fill="white"/>
<path d="M66.4203 311.27L69.3203 308.38H67.5903V300.32H65.2603V308.38H63.5303L66.4203 311.27Z" fill="white"/>
<path d="M66.4203 284.24L63.5303 287.13H65.2603V295.19H67.5903V287.13H69.3203L66.4203 284.24Z" fill="white"/>
<g filter="url(#filter5_d_4388_63518)">
<rect x="24" y="216" width="82" height="41" rx="20.5" fill="white"/>
<path d="M58.064 243V231.608H56.336V239.608L51.072 231.608H49.488V243H51.216V234.984L56.48 243H58.064ZM71.0829 243V231.608H69.3549L66.0909 238.696L62.7629 231.608H61.0349V243H62.7629V235.384L65.4509 240.936H66.7309L69.3549 235.384V243H71.0829ZM81.1705 239.752C81.1705 238.776 80.8665 237.96 80.2425 237.416C79.7625 236.984 79.1705 236.728 78.1145 236.568L76.8185 236.376C76.2905 236.296 75.8265 236.104 75.5385 235.848C75.2345 235.576 75.1065 235.208 75.1065 234.792C75.1065 233.784 75.8425 233.016 77.1865 233.016C78.1465 233.016 78.9625 233.224 79.6665 233.896L80.7705 232.808C79.7945 231.896 78.7385 231.512 77.2345 231.512C74.8665 231.512 73.4265 232.872 73.4265 234.856C73.4265 235.784 73.6985 236.504 74.2585 237.032C74.7545 237.496 75.4905 237.816 76.4185 237.944L77.7625 238.136C78.4345 238.232 78.7225 238.344 79.0105 238.616C79.3145 238.888 79.4585 239.304 79.4585 239.8C79.4585 240.904 78.5945 241.544 77.1065 241.544C75.9385 241.544 75.0265 241.288 74.1945 240.456L73.0425 241.592C74.1305 242.696 75.3625 243.096 77.0745 243.096C79.4585 243.096 81.1705 241.848 81.1705 239.752Z" fill="#231F20"/>
</g>
<path d="M64.9998 266L57.2056 257L72.794 257L64.9998 266Z" fill="white"/>
<path d="M517.46 327.39C536.652 327.39 552.21 311.832 552.21 292.64C552.21 273.448 536.652 257.89 517.46 257.89C498.268 257.89 482.71 273.448 482.71 292.64C482.71 311.832 498.268 327.39 517.46 327.39Z" fill="white" stroke="#9F9F9F" stroke-width="0.5"/>
<g filter="url(#filter6_d_4388_63518)">
<rect x="434" y="216" width="166" height="41" rx="20.5" fill="white"/>
<path d="M466.639 239.752C466.639 238.776 466.335 237.96 465.711 237.416C465.231 236.984 464.639 236.728 463.583 236.568L462.287 236.376C461.759 236.296 461.295 236.104 461.007 235.848C460.703 235.576 460.575 235.208 460.575 234.792C460.575 233.784 461.311 233.016 462.655 233.016C463.615 233.016 464.431 233.224 465.135 233.896L466.239 232.808C465.263 231.896 464.207 231.512 462.703 231.512C460.335 231.512 458.895 232.872 458.895 234.856C458.895 235.784 459.167 236.504 459.727 237.032C460.223 237.496 460.959 237.816 461.887 237.944L463.231 238.136C463.903 238.232 464.191 238.344 464.479 238.616C464.783 238.888 464.927 239.304 464.927 239.8C464.927 240.904 464.063 241.544 462.575 241.544C461.407 241.544 460.495 241.288 459.663 240.456L458.511 241.592C459.599 242.696 460.831 243.096 462.543 243.096C464.927 243.096 466.639 241.848 466.639 239.752ZM477.053 237.224C477.053 235.576 477.133 233.912 475.901 232.68C475.181 231.96 474.141 231.608 472.957 231.608H468.957V243H472.957C474.141 243 475.181 242.648 475.901 241.928C477.133 240.696 477.053 238.872 477.053 237.224ZM475.325 237.224C475.325 238.792 475.309 240.024 474.717 240.68C474.237 241.208 473.597 241.448 472.781 241.448H470.685V233.16H472.781C473.597 233.16 474.237 233.4 474.717 233.928C475.309 234.584 475.325 235.656 475.325 237.224ZM491.729 231.608H489.905L487.921 239.752L485.633 231.608H484.241L481.953 239.752L479.969 231.608H478.145L481.121 243H482.625L484.929 235.016L487.249 243H488.753L491.729 231.608ZM501.528 243L497.352 231.608H495.96L491.784 243H493.624L494.408 240.712H498.904L499.688 243H501.528ZM498.424 239.24H494.92L496.696 234.184L498.424 239.24ZM511.72 243V231.608H509.992V239.608L504.728 231.608H503.144V243H504.872V234.984L510.136 243H511.72ZM527.991 243L526.087 240.728C526.855 239.832 527.175 238.68 527.223 237.224H525.655C525.639 238.264 525.463 238.92 525.047 239.512L522.647 236.648C522.919 236.456 523.479 236.072 523.479 236.072C524.199 235.576 524.695 234.952 524.695 234.056C524.695 232.6 523.607 231.512 521.991 231.512C520.295 231.512 519.207 232.584 519.207 234.04C519.207 235.096 519.879 235.896 520.391 236.488C519.271 237.224 518.135 238.12 518.135 239.704C518.135 241.768 519.447 243.096 521.815 243.096C523.543 243.096 524.471 242.312 524.967 241.88L525.895 243H527.991ZM523.991 240.728C523.239 241.4 522.583 241.608 521.815 241.608C520.631 241.608 519.751 240.808 519.751 239.672C519.751 238.616 520.455 238.088 521.287 237.512L523.991 240.728ZM523.127 234.072C523.127 234.6 522.743 234.952 522.295 235.256C522.295 235.256 521.927 235.512 521.751 235.624C521.175 234.952 520.871 234.52 520.871 234.056C520.871 233.416 521.287 232.936 521.991 232.936C522.663 232.936 523.127 233.432 523.127 234.072ZM541.522 231.608H539.698L537.074 239.896L534.45 231.608H532.658L536.402 243H537.746L541.522 231.608ZM550.217 239.752C550.217 238.776 549.913 237.96 549.289 237.416C548.809 236.984 548.217 236.728 547.161 236.568L545.865 236.376C545.337 236.296 544.873 236.104 544.585 235.848C544.281 235.576 544.153 235.208 544.153 234.792C544.153 233.784 544.889 233.016 546.233 233.016C547.193 233.016 548.009 233.224 548.713 233.896L549.817 232.808C548.841 231.896 547.785 231.512 546.281 231.512C543.913 231.512 542.473 232.872 542.473 234.856C542.473 235.784 542.745 236.504 543.305 237.032C543.801 237.496 544.537 237.816 545.465 237.944L546.809 238.136C547.481 238.232 547.769 238.344 548.057 238.616C548.361 238.888 548.505 239.304 548.505 239.8C548.505 240.904 547.641 241.544 546.153 241.544C544.985 241.544 544.073 241.288 543.241 240.456L542.089 241.592C543.177 242.696 544.409 243.096 546.121 243.096C548.505 243.096 550.217 241.848 550.217 239.752ZM560.919 243L556.743 231.608H555.351L551.175 243H553.015L553.799 240.712H558.295L559.079 243H560.919ZM557.815 239.24H554.311L556.087 234.184L557.815 239.24ZM568.574 233.16V231.608H560.574V233.16H563.71V243H565.438V233.16H568.574ZM575.28 240.52C575.28 239.08 574.384 238.36 572.864 238.232L571.584 238.12C570.72 238.04 570.464 237.672 570.464 237.192C570.464 236.584 570.96 236.152 571.936 236.152C572.704 236.152 573.424 236.312 573.936 236.744L574.96 235.704C574.208 235.048 573.168 234.792 571.952 234.792C570.256 234.792 568.896 235.688 568.896 237.272C568.896 238.696 569.776 239.384 571.296 239.512L572.592 239.624C573.376 239.688 573.68 240.04 573.68 240.584C573.68 241.352 572.896 241.704 571.904 241.704C571.104 241.704 570.224 241.528 569.568 240.856L568.496 241.928C569.456 242.872 570.576 243.096 571.904 243.096C573.84 243.096 575.28 242.216 575.28 240.52Z" fill="#231F20"/>
</g>
<path d="M517 266L509.206 257L524.794 257L517 266Z" fill="white"/>
<path d="M528.257 303.317L524.964 300.057C525.609 299.184 525.92 298.109 525.84 297.027C525.761 295.945 525.296 294.927 524.531 294.158L522.491 292.058L518.718 288.285L516.671 286.245C515.514 285.171 513.881 284.776 512.36 285.204C510.84 285.632 509.652 286.82 509.224 288.34C508.796 289.86 509.191 291.494 510.265 292.651L512.279 294.724L516.078 298.524L518.125 300.563V300.564C518.894 301.329 519.912 301.794 520.994 301.873C522.076 301.953 523.151 301.642 524.024 300.997L527.317 304.257C526.883 304.998 526.839 305.904 527.199 306.684C527.559 307.464 528.277 308.018 529.123 308.169C529.968 308.32 530.834 308.048 531.441 307.441C532.048 306.833 532.32 305.968 532.169 305.122C532.019 304.277 531.464 303.558 530.684 303.199C529.905 302.839 528.998 302.883 528.257 303.317L528.257 303.317Z" fill="#0E51D7"/>
<path d="M497 307.028L501.619 302.409L504.528 305.317L499.908 309.936L497 307.028Z" fill="#0E51D7"/>
<path d="M500.84 310.875L505.46 306.255L508.368 309.164L503.749 313.783L500.84 310.875Z" fill="#0E51D7"/>
<path d="M509.299 285.306C510.043 284.555 510.979 284.025 512.005 283.773L510.452 279.393C509.419 279.393 507.659 280.473 506.052 282.059C504.446 283.646 503.386 285.392 503.346 286.446L507.752 287.999C508.011 286.976 508.546 286.044 509.299 285.306V285.306Z" fill="#0E51D7"/>
<path d="M511.024 300.698L506.405 305.317L509.311 308.223L513.931 303.604L511.024 300.698Z" fill="#0E51D7"/>
<path d="M526.399 277.619L531.019 273L533.927 275.908L529.308 280.528L526.399 277.619Z" fill="#0E51D7"/>
<path d="M523.751 286.085L528.363 281.466L525.457 278.566L520.844 283.179L522.317 284.659L523.751 286.085Z" fill="#0E51D7"/>
<path d="M510.078 299.757L508.652 298.324L507.172 296.851L502.559 301.464L505.459 304.37L510.078 299.757Z" fill="#0E51D7"/>
<path d="M530.25 281.47L534.87 276.851L537.778 279.759L533.159 284.378L530.25 281.47Z" fill="#0E51D7"/>
<path d="M526.117 288.458L527.596 289.938L532.209 285.319L529.309 282.412L524.69 287.032L526.117 288.458Z" fill="#0E51D7"/>
<path d="M524.704 288.932L523.277 287.499L521.851 286.073L520.104 287.819L522.964 290.672L524.704 288.932Z" fill="#0E51D7"/>
<path d="M510.065 297.858L511.492 299.285L512.925 300.711L514.665 298.971L511.812 296.112L510.065 297.858Z" fill="#0E51D7"/>
<g filter="url(#filter7_d_4388_63518)">
<rect x="395" y="377" width="145" height="41" rx="20.5" fill="white"/>
<path d="M427.582 394.16V392.608H419.582V394.16H422.718V404H424.446V394.16H427.582ZM434.422 396.56C433.862 396 433.27 395.792 432.486 395.792C431.574 395.792 430.742 396.192 430.326 396.768V395.888H428.726V404H430.358V399.072C430.358 397.952 431.094 397.248 431.974 397.248C432.534 397.248 432.822 397.424 433.19 397.792L434.422 396.56ZM441.569 404V398.576C441.569 396.736 440.449 395.792 438.225 395.792C436.881 395.792 436.081 396.064 435.313 396.96L436.385 397.968C436.833 397.392 437.265 397.184 438.161 397.184C439.425 397.184 439.937 397.68 439.937 398.704V399.28H437.793C435.937 399.28 434.993 400.256 434.993 401.616C434.993 402.304 435.217 402.928 435.633 403.36C436.129 403.856 436.801 404.096 437.809 404.096C438.817 404.096 439.377 403.856 439.969 403.264V404H441.569ZM439.937 401.072C439.937 401.648 439.825 402.032 439.585 402.272C439.153 402.688 438.689 402.736 438.065 402.736C437.041 402.736 436.577 402.32 436.577 401.584C436.577 400.848 437.073 400.416 438.033 400.416H439.937V401.072ZM450.661 404V398.816C450.661 397.904 450.469 397.136 449.845 396.528C449.365 396.064 448.677 395.792 447.845 395.792C447.029 395.792 446.245 396.096 445.685 396.704V395.888H444.085V404H445.717V399.056C445.717 397.808 446.485 397.248 447.397 397.248C448.309 397.248 449.029 397.792 449.029 399.056V404H450.661ZM459.179 401.52C459.179 400.08 458.283 399.36 456.763 399.232L455.483 399.12C454.619 399.04 454.363 398.672 454.363 398.192C454.363 397.584 454.859 397.152 455.835 397.152C456.603 397.152 457.323 397.312 457.835 397.744L458.859 396.704C458.107 396.048 457.067 395.792 455.851 395.792C454.155 395.792 452.795 396.688 452.795 398.272C452.795 399.696 453.675 400.384 455.195 400.512L456.491 400.624C457.275 400.688 457.579 401.04 457.579 401.584C457.579 402.352 456.795 402.704 455.803 402.704C455.003 402.704 454.123 402.528 453.467 401.856L452.395 402.928C453.355 403.872 454.475 404.096 455.803 404.096C457.739 404.096 459.179 403.216 459.179 401.52ZM472.683 404V398.816C472.683 397.904 472.443 397.136 471.819 396.528C471.339 396.064 470.603 395.792 469.771 395.792C468.699 395.792 467.883 396.176 467.227 396.976C466.715 396.192 465.931 395.792 464.923 395.792C464.107 395.792 463.307 396.112 462.763 396.704V395.888H461.163V404H462.795V399.056C462.795 397.808 463.563 397.248 464.475 397.248C465.387 397.248 466.107 397.792 466.107 399.056V404H467.739V398.976C467.739 397.808 468.539 397.248 469.419 397.248C470.331 397.248 471.051 397.792 471.051 399.056V404H472.683ZM476.826 404V395.888H475.194V404H476.826ZM476.874 394.288V392.56H475.146V394.288H476.874ZM485.413 401.52C485.413 400.08 484.517 399.36 482.997 399.232L481.717 399.12C480.853 399.04 480.597 398.672 480.597 398.192C480.597 397.584 481.093 397.152 482.069 397.152C482.837 397.152 483.557 397.312 484.069 397.744L485.093 396.704C484.341 396.048 483.301 395.792 482.085 395.792C480.389 395.792 479.029 396.688 479.029 398.272C479.029 399.696 479.909 400.384 481.429 400.512L482.725 400.624C483.509 400.688 483.813 401.04 483.813 401.584C483.813 402.352 483.029 402.704 482.037 402.704C481.237 402.704 480.357 402.528 479.701 401.856L478.629 402.928C479.589 403.872 480.709 404.096 482.037 404.096C483.973 404.096 485.413 403.216 485.413 401.52ZM493.304 401.52C493.304 400.08 492.408 399.36 490.888 399.232L489.608 399.12C488.744 399.04 488.488 398.672 488.488 398.192C488.488 397.584 488.984 397.152 489.96 397.152C490.728 397.152 491.448 397.312 491.96 397.744L492.984 396.704C492.232 396.048 491.192 395.792 489.976 395.792C488.28 395.792 486.92 396.688 486.92 398.272C486.92 399.696 487.8 400.384 489.32 400.512L490.616 400.624C491.4 400.688 491.704 401.04 491.704 401.584C491.704 402.352 490.92 402.704 489.928 402.704C489.128 402.704 488.248 402.528 487.592 401.856L486.52 402.928C487.48 403.872 488.6 404.096 489.928 404.096C491.864 404.096 493.304 403.216 493.304 401.52ZM496.92 404V395.888H495.288V404H496.92ZM496.968 394.288V392.56H495.24V394.288H496.968ZM505.891 399.936C505.891 398.576 505.699 397.552 504.931 396.752C504.403 396.208 503.603 395.792 502.499 395.792C501.395 395.792 500.611 396.208 500.083 396.752C499.315 397.552 499.123 398.576 499.123 399.936C499.123 401.312 499.315 402.336 500.083 403.136C500.611 403.68 501.395 404.096 502.499 404.096C503.603 404.096 504.403 403.68 504.931 403.136C505.699 402.336 505.891 401.312 505.891 399.936ZM504.259 399.936C504.259 400.816 504.195 401.664 503.699 402.16C503.395 402.464 502.979 402.64 502.499 402.64C502.019 402.64 501.619 402.464 501.315 402.16C500.819 401.664 500.755 400.816 500.755 399.936C500.755 399.056 500.819 398.208 501.315 397.712C501.619 397.408 502.019 397.248 502.499 397.248C502.979 397.248 503.395 397.408 503.699 397.712C504.195 398.208 504.259 399.056 504.259 399.936ZM514.677 404V398.816C514.677 397.904 514.485 397.136 513.861 396.528C513.381 396.064 512.693 395.792 511.861 395.792C511.045 395.792 510.261 396.096 509.701 396.704V395.888H508.101V404H509.733V399.056C509.733 397.808 510.501 397.248 511.413 397.248C512.325 397.248 513.045 397.792 513.045 399.056V404H514.677Z" fill="#231F20"/>
</g>
<path d="M467.5 427L459.706 418L475.294 418L467.5 427Z" fill="white"/>
<path d="M466.75 490.5C485.942 490.5 501.5 474.942 501.5 455.75C501.5 436.558 485.942 421 466.75 421C447.558 421 432 436.558 432 455.75C432 474.942 447.558 490.5 466.75 490.5Z" fill="white" stroke="#9F9F9F" stroke-width="0.5"/>
<path d="M481.498 439C479.013 439 476.999 441.014 476.999 443.5C476.999 445.164 477.905 446.614 479.249 447.392V454.749H470.249V447.392C470.673 447.147 471.052 446.834 471.374 446.469C472.072 445.676 472.499 444.639 472.499 443.5C472.499 441.014 470.484 439 467.999 439C465.514 439 463.499 441.014 463.499 443.5C463.499 445.164 464.405 446.614 465.749 447.392V454.749H456.75V447.392C458.093 446.614 459 445.164 459 443.5C459 441.014 456.985 439 454.5 439C452.014 439 450 441.014 450 443.5C450 445.164 450.906 446.614 452.25 447.392V466.605C450.906 467.383 450 468.833 450 470.498C450 472.983 452.014 474.997 454.5 474.997C456.985 474.997 459 472.983 459 470.498C459 468.833 458.093 467.383 456.75 466.605V459.249H465.749V466.606C464.405 467.384 463.499 468.834 463.499 470.498C463.499 472.984 465.514 474.998 467.999 474.998C470.484 474.998 472.499 472.984 472.499 470.498C472.499 469.359 472.072 468.322 471.374 467.529C471.052 467.164 470.673 466.851 470.249 466.606V459.249H481.498C482.741 459.249 483.748 458.241 483.748 456.999V447.393C485.092 446.614 485.998 445.165 485.998 443.5C485.998 441.015 483.984 439 481.498 439V439Z" fill="#0E51D7"/>
<path d="M309.672 527.858C310.872 529.041 310.872 530.962 309.672 532.142C308.471 533.326 306.527 533.326 305.327 532.142C304.126 530.962 304.126 529.041 305.327 527.858C306.527 526.674 308.471 526.674 309.672 527.858ZM314.017 523.573L311.844 525.715C313.005 526.858 313.645 528.382 313.645 530C313.645 531.619 313.005 533.14 311.844 534.285L314.017 536.427C315.757 534.711 316.717 532.429 316.717 530C316.717 527.571 315.757 525.289 314.017 523.573ZM318.365 519.285L316.192 521.428C320.985 526.153 320.985 533.844 316.192 538.569L318.365 540.711C324.354 534.805 324.354 525.194 318.365 519.285V519.285ZM322.71 515.001L320.537 517.143C327.724 524.23 327.724 535.767 320.537 542.857L322.71 544.999C331.097 536.726 331.097 523.271 322.71 515V515.001ZM300.981 523.573C299.241 525.289 298.281 527.571 298.281 530C298.281 532.43 299.241 534.711 300.981 536.427L303.154 534.285C301.993 533.14 301.353 531.619 301.353 530C301.353 528.382 301.993 526.857 303.154 525.715L300.981 523.573ZM298.806 521.428L296.633 519.285C290.644 525.195 290.644 534.805 296.633 540.712L298.806 538.57C294.014 533.844 294.014 526.154 298.806 521.428V521.428ZM294.461 517.143L292.288 515.001C283.904 523.271 283.904 536.726 292.288 545L294.461 542.858C287.274 535.768 287.274 524.231 294.461 517.144V517.143Z" fill="#0D51D9"/>
<defs>
<filter id="filter0_d_4388_63518" x="231" y="0" width="152" height="89" filterUnits="userSpaceOnUse" color-interpolation-filters="sRGB">
<feFlood flood-opacity="0" result="BackgroundImageFix"/>
<feColorMatrix in="SourceAlpha" type="matrix" values="0 0 0 0 0 0 0 0 0 0 0 0 0 0 0 0 0 0 127 0" result="hardAlpha"/>
<feOffset dy="10"/>
<feGaussianBlur stdDeviation="12"/>
<feComposite in2="hardAlpha" operator="out"/>
<feColorMatrix type="matrix" values="0 0 0 0 0 0 0 0 0 0 0 0 0 0 0 0 0 0 0.12 0"/>
<feBlend mode="normal" in2="BackgroundImageFix" result="effect1_dropShadow_4388_63518"/>
<feBlend mode="normal" in="SourceGraphic" in2="effect1_dropShadow_4388_63518" result="shape"/>
</filter>
<filter id="filter1_d_4388_63518" x="349" y="48" width="234" height="89" filterUnits="userSpaceOnUse" color-interpolation-filters="sRGB">
<feFlood flood-opacity="0" result="BackgroundImageFix"/>
<feColorMatrix in="SourceAlpha" type="matrix" values="0 0 0 0 0 0 0 0 0 0 0 0 0 0 0 0 0 0 127 0" result="hardAlpha"/>
<feOffset dy="10"/>
<feGaussianBlur stdDeviation="12"/>
<feComposite in2="hardAlpha" operator="out"/>
<feColorMatrix type="matrix" values="0 0 0 0 0 0 0 0 0 0 0 0 0 0 0 0 0 0 0.12 0"/>
<feBlend mode="normal" in2="BackgroundImageFix" result="effect1_dropShadow_4388_63518"/>
<feBlend mode="normal" in="SourceGraphic" in2="effect1_dropShadow_4388_63518" result="shape"/>
</filter>
<filter id="filter2_d_4388_63518" x="32" y="363" width="162" height="89" filterUnits="userSpaceOnUse" color-interpolation-filters="sRGB">
<feFlood flood-opacity="0" result="BackgroundImageFix"/>
<feColorMatrix in="SourceAlpha" type="matrix" values="0 0 0 0 0 0 0 0 0 0 0 0 0 0 0 0 0 0 127 0" result="hardAlpha"/>
<feOffset dy="10"/>
<feGaussianBlur stdDeviation="12"/>
<feComposite in2="hardAlpha" operator="out"/>
<feColorMatrix type="matrix" values="0 0 0 0 0 0 0 0 0 0 0 0 0 0 0 0 0 0 0.12 0"/>
<feBlend mode="normal" in2="BackgroundImageFix" result="effect1_dropShadow_4388_63518"/>
<feBlend mode="normal" in="SourceGraphic" in2="effect1_dropShadow_4388_63518" result="shape"/>
</filter>
<filter id="filter3_d_4388_63518" x="221" y="433" width="173" height="89" filterUnits="userSpaceOnUse" color-interpolation-filters="sRGB">
<feFlood flood-opacity="0" result="BackgroundImageFix"/>
<feColorMatrix in="SourceAlpha" type="matrix" values="0 0 0 0 0 0 0 0 0 0 0 0 0 0 0 0 0 0 127 0" result="hardAlpha"/>
<feOffset dy="10"/>
<feGaussianBlur stdDeviation="12"/>
<feComposite in2="hardAlpha" operator="out"/>
<feColorMatrix type="matrix" values="0 0 0 0 0 0 0 0 0 0 0 0 0 0 0 0 0 0 0.12 0"/>
<feBlend mode="normal" in2="BackgroundImageFix" result="effect1_dropShadow_4388_63518"/>
<feBlend mode="normal" in="SourceGraphic" in2="effect1_dropShadow_4388_63518" result="shape"/>
</filter>
<filter id="filter4_d_4388_63518" x="64" y="50" width="133" height="89" filterUnits="userSpaceOnUse" color-interpolation-filters="sRGB">
<feFlood flood-opacity="0" result="BackgroundImageFix"/>
<feColorMatrix in="SourceAlpha" type="matrix" values="0 0 0 0 0 0 0 0 0 0 0 0 0 0 0 0 0 0 127 0" result="hardAlpha"/>
<feOffset dy="10"/>
<feGaussianBlur stdDeviation="12"/>
<feComposite in2="hardAlpha" operator="out"/>
<feColorMatrix type="matrix" values="0 0 0 0 0 0 0 0 0 0 0 0 0 0 0 0 0 0 0.12 0"/>
<feBlend mode="normal" in2="BackgroundImageFix" result="effect1_dropShadow_4388_63518"/>
<feBlend mode="normal" in="SourceGraphic" in2="effect1_dropShadow_4388_63518" result="shape"/>
</filter>
<filter id="filter5_d_4388_63518" x="0" y="202" width="130" height="89" filterUnits="userSpaceOnUse" color-interpolation-filters="sRGB">
<feFlood flood-opacity="0" result="BackgroundImageFix"/>
<feColorMatrix in="SourceAlpha" type="matrix" values="0 0 0 0 0 0 0 0 0 0 0 0 0 0 0 0 0 0 127 0" result="hardAlpha"/>
<feOffset dy="10"/>
<feGaussianBlur stdDeviation="12"/>
<feComposite in2="hardAlpha" operator="out"/>
<feColorMatrix type="matrix" values="0 0 0 0 0 0 0 0 0 0 0 0 0 0 0 0 0 0 0.12 0"/>
<feBlend mode="normal" in2="BackgroundImageFix" result="effect1_dropShadow_4388_63518"/>
<feBlend mode="normal" in="SourceGraphic" in2="effect1_dropShadow_4388_63518" result="shape"/>
</filter>
<filter id="filter6_d_4388_63518" x="410" y="202" width="214" height="89" filterUnits="userSpaceOnUse" color-interpolation-filters="sRGB">
<feFlood flood-opacity="0" result="BackgroundImageFix"/>
<feColorMatrix in="SourceAlpha" type="matrix" values="0 0 0 0 0 0 0 0 0 0 0 0 0 0 0 0 0 0 127 0" result="hardAlpha"/>
<feOffset dy="10"/>
<feGaussianBlur stdDeviation="12"/>
<feComposite in2="hardAlpha" operator="out"/>
<feColorMatrix type="matrix" values="0 0 0 0 0 0 0 0 0 0 0 0 0 0 0 0 0 0 0.12 0"/>
<feBlend mode="normal" in2="BackgroundImageFix" result="effect1_dropShadow_4388_63518"/>
<feBlend mode="normal" in="SourceGraphic" in2="effect1_dropShadow_4388_63518" result="shape"/>
</filter>
<filter id="filter7_d_4388_63518" x="371" y="363" width="193" height="89" filterUnits="userSpaceOnUse" color-interpolation-filters="sRGB">
<feFlood flood-opacity="0" result="BackgroundImageFix"/>
<feColorMatrix in="SourceAlpha" type="matrix" values="0 0 0 0 0 0 0 0 0 0 0 0 0 0 0 0 0 0 127 0" result="hardAlpha"/>
<feOffset dy="10"/>
<feGaussianBlur stdDeviation="12"/>
<feComposite in2="hardAlpha" operator="out"/>
<feColorMatrix type="matrix" values="0 0 0 0 0 0 0 0 0 0 0 0 0 0 0 0 0 0 0.12 0"/>
<feBlend mode="normal" in2="BackgroundImageFix" result="effect1_dropShadow_4388_63518"/>
<feBlend mode="normal" in="SourceGraphic" in2="effect1_dropShadow_4388_63518" result="shape"/>
</filter>
</defs>
</svg>
