<svg width="608" height="565" viewBox="0 0 608 565" fill="none" xmlns="http://www.w3.org/2000/svg">
<path d="M147.09 164.97C147.773 164.652 148.554 164.618 149.263 164.875C149.971 165.132 150.549 165.658 150.87 166.34C151.184 167.025 151.216 167.806 150.957 168.514C150.699 169.222 150.172 169.799 149.49 170.12C148.812 170.428 148.039 170.457 147.34 170.201C146.64 169.944 146.069 169.423 145.75 168.75C145.428 168.071 145.388 167.292 145.639 166.583C145.89 165.875 146.412 165.294 147.09 164.97Z" fill="#0D51D9"/>
<path d="M417.41 192.26C418.263 191.865 419.238 191.824 420.121 192.146C421.004 192.469 421.723 193.128 422.12 193.98C422.318 194.402 422.43 194.858 422.451 195.323C422.472 195.788 422.401 196.252 422.242 196.69C422.083 197.127 421.84 197.529 421.525 197.872C421.211 198.216 420.832 198.493 420.41 198.69C419.558 199.089 418.581 199.133 417.696 198.813C416.811 198.492 416.09 197.833 415.69 196.98C415.493 196.557 415.381 196.1 415.361 195.634C415.34 195.167 415.412 194.702 415.572 194.264C415.732 193.825 415.976 193.423 416.292 193.079C416.607 192.735 416.987 192.457 417.41 192.26Z" fill="#27AE60"/>
<path d="M363.75 432.59C364.434 432.272 365.215 432.238 365.923 432.495C366.632 432.752 367.209 433.278 367.53 433.96C367.847 434.643 367.879 435.424 367.621 436.131C367.362 436.837 366.833 437.413 366.15 437.73C365.813 437.888 365.448 437.979 365.075 437.995C364.703 438.012 364.331 437.956 363.981 437.828C363.63 437.701 363.309 437.506 363.034 437.254C362.759 437.002 362.537 436.698 362.38 436.36C362.063 435.678 362.029 434.898 362.286 434.192C362.543 433.485 363.069 432.909 363.75 432.59Z" fill="#EB5757"/>
<path d="M252.86 449.04C254.056 448.489 255.42 448.432 256.658 448.882C257.895 449.331 258.906 450.25 259.47 451.44C260.017 452.636 260.07 453.999 259.619 455.235C259.168 456.47 258.249 457.478 257.06 458.04C255.865 458.588 254.503 458.643 253.267 458.194C252.032 457.745 251.024 456.827 250.46 455.64C249.912 454.445 249.857 453.083 250.306 451.848C250.755 450.613 251.672 449.604 252.86 449.04Z" fill="#6FCF97"/>
<path d="M327.13 169.31C329.091 169.31 330.68 167.721 330.68 165.76C330.68 163.799 329.091 162.21 327.13 162.21C325.169 162.21 323.58 163.799 323.58 165.76C323.58 167.721 325.169 169.31 327.13 169.31Z" fill="#2F80ED"/>
<path d="M199.08 107.43C199.933 107.031 200.909 106.987 201.794 107.308C202.679 107.628 203.401 108.287 203.8 109.14C203.997 109.563 204.109 110.02 204.13 110.486C204.15 110.953 204.078 111.418 203.918 111.857C203.759 112.295 203.514 112.697 203.199 113.041C202.883 113.385 202.503 113.663 202.08 113.86C201.658 114.057 201.201 114.169 200.736 114.189C200.27 114.209 199.806 114.137 199.368 113.978C198.93 113.818 198.529 113.573 198.186 113.258C197.843 112.943 197.566 112.563 197.37 112.14C196.974 111.288 196.932 110.315 197.252 109.432C197.573 108.549 198.23 107.829 199.08 107.43Z" fill="#EB5757"/>
<path d="M85.1 113.75C85.3113 113.651 85.5402 113.594 85.7734 113.584C86.0067 113.573 86.2397 113.609 86.459 113.689C86.6784 113.769 86.8798 113.891 87.0516 114.049C87.2234 114.207 87.3622 114.398 87.46 114.61C87.6575 115.036 87.6778 115.522 87.5165 115.963C87.3553 116.404 87.0256 116.762 86.6 116.96C86.1741 117.158 85.687 117.181 85.2449 117.021C84.8028 116.862 84.4416 116.534 84.24 116.11C84.0422 115.683 84.0216 115.195 84.1828 114.752C84.344 114.31 84.6738 113.95 85.1 113.75Z" fill="#0D51D9"/>
<path d="M416.81 75.7499C418.006 75.2029 419.37 75.1491 420.605 75.6002C421.84 76.0513 422.848 76.9709 423.41 78.1599C423.958 79.3547 424.013 80.717 423.564 81.9522C423.115 83.1874 422.197 84.196 421.01 84.7599C419.813 85.31 418.447 85.3655 417.21 84.9142C415.972 84.4629 414.962 83.5414 414.4 82.3499C413.853 81.1539 413.8 79.7906 414.251 78.5552C414.702 77.3199 415.621 76.312 416.81 75.7499Z" fill="#314468"/>
<path d="M78.2397 440.59C78.6668 440.392 79.1549 440.372 79.5972 440.533C80.0395 440.694 80.4 441.024 80.5997 441.45C80.7975 441.877 80.8181 442.365 80.6569 442.808C80.4958 443.25 80.166 443.61 79.7397 443.81C79.314 444.008 78.8273 444.028 78.3866 443.867C77.946 443.705 77.5874 443.376 77.3897 442.95C77.29 442.739 77.233 442.511 77.2218 442.278C77.2106 442.046 77.2455 441.813 77.3244 441.594C77.4034 441.374 77.5249 441.173 77.682 441.001C77.839 440.828 78.0286 440.689 78.2397 440.59Z" fill="#0D51D9"/>
<path d="M104.21 491.8C103.892 491.117 103.858 490.336 104.115 489.627C104.372 488.919 104.898 488.341 105.58 488.02C106.263 487.703 107.044 487.671 107.751 487.93C108.458 488.188 109.033 488.717 109.35 489.4C109.508 489.737 109.599 490.103 109.616 490.475C109.632 490.847 109.576 491.219 109.448 491.57C109.321 491.92 109.126 492.242 108.874 492.516C108.622 492.791 108.318 493.013 107.98 493.17C107.298 493.487 106.519 493.521 105.812 493.264C105.105 493.008 104.529 492.481 104.21 491.8Z" fill="#56CCF2"/>
<path d="M537.149 440.16C537.487 440.002 537.852 439.911 538.224 439.894C538.597 439.878 538.969 439.935 539.319 440.062C539.669 440.189 539.991 440.384 540.266 440.636C540.54 440.888 540.762 441.192 540.919 441.53C541.237 442.212 541.27 442.992 541.014 443.698C540.757 444.405 540.23 444.981 539.549 445.3C538.866 445.618 538.085 445.652 537.376 445.395C536.668 445.138 536.09 444.612 535.769 443.93C535.453 443.247 535.42 442.466 535.679 441.759C535.938 441.053 536.467 440.477 537.149 440.16Z" fill="#585357"/>
<path d="M426.25 456.61C427.444 456.062 428.807 456.007 430.042 456.456C431.277 456.905 432.286 457.823 432.85 459.01C433.397 460.205 433.453 461.567 433.004 462.802C432.554 464.038 431.637 465.046 430.45 465.61C429.254 466.161 427.889 466.218 426.652 465.768C425.414 465.319 424.404 464.4 423.84 463.21C423.293 462.014 423.239 460.651 423.69 459.415C424.141 458.18 425.061 457.172 426.25 456.61Z" fill="#9B51E0"/>
<path d="M169.749 457.46L171.179 465.53L163.479 462.72L169.749 457.46Z" fill="#F2994A"/>
<path d="M220.42 497.93L228.49 499.36L223.22 505.63L220.42 497.93Z" fill="#314468"/>
<path d="M512.809 161.97C516.073 161.97 518.719 159.324 518.719 156.06C518.719 152.796 516.073 150.15 512.809 150.15C509.545 150.15 506.899 152.796 506.899 156.06C506.899 159.324 509.545 161.97 512.809 161.97Z" fill="#314468"/>
<path d="M297.48 531.95C294.22 532.1 290.93 532.19 287.63 532.2V531.75H285.63V532.25C282.33 532.25 279.04 532.15 275.78 532V531.5L273.78 531.4V531.9C270.48 531.71 267.2 531.46 263.95 531.13V530.64L261.95 530.43V530.93C258.67 530.57 255.41 530.15 252.18 529.65L252.25 529.16L250.3 528.85L250.22 529.35C246.973 528.817 243.743 528.22 240.53 527.56L240.63 527.07L238.7 526.66L238.59 527.15C235.37 526.46 232.18 525.69 229.01 524.86L229.13 524.37L227.23 523.87L227.1 524.35C223.92 523.477 220.767 522.543 217.64 521.55L217.8 521.08L215.92 520.47L215.76 520.94C212.64 519.913 209.543 518.817 206.47 517.65L206.65 517.18L204.81 516.48L204.63 516.94C201.563 515.753 198.527 514.497 195.52 513.17L195.72 512.71L193.92 511.91L193.72 512.36C190.72 511.027 187.753 509.61 184.82 508.11L185.05 507.66L183.29 506.77L183.06 507.21C180.14 505.697 177.253 504.127 174.4 502.5L174.65 502.07L172.95 501.07L172.7 501.5C169.847 499.84 167.043 498.12 164.29 496.34L164.56 495.92L162.91 494.85L162.64 495.27C159.893 493.457 157.187 491.59 154.52 489.67L154.81 489.27L153.22 488.11L152.92 488.51C150.253 486.57 147.647 484.57 145.1 482.51L145.42 482.13L143.89 480.89L143.57 481.27C141.03 479.19 138.533 477.053 136.08 474.86L136.41 474.49C135.92 474.06 135.41 473.62 134.95 473.17L134.61 473.54C132.177 471.327 129.793 469.067 127.46 466.76L127.81 466.4L126.42 465.01L126.06 465.36C123.747 463.033 121.483 460.65 119.27 458.21L119.64 457.87C119.2 457.39 118.76 456.87 118.33 456.41L117.95 456.74C115.763 454.287 113.63 451.79 111.55 449.25L111.93 448.93L110.75 447.35L110.36 447.67C108.31 445.1 106.3 442.5 104.36 439.85L104.76 439.55L103.6 437.96L103.19 438.25C101.27 435.583 99.4066 432.877 97.5999 430.13L98.0199 429.86C97.6599 429.31 97.2999 428.76 96.9499 428.21L96.5299 428.48C94.7499 425.72 93.0299 422.917 91.3699 420.07L91.7999 419.82L91.0399 418.51L90.8099 418.12L90.3799 418.37C88.7466 415.517 87.1765 412.63 85.6699 409.71L86.1099 409.48L85.2099 407.72L84.7699 407.95C83.2899 405.017 81.8732 402.05 80.5199 399.05L80.9699 398.85L80.1699 397.05L79.7099 397.25C78.3765 394.25 77.1199 391.213 75.9399 388.14L76.3999 387.96C76.1599 387.35 75.9299 386.74 75.6999 386.12L75.2299 386.3C74.0699 383.233 72.9732 380.133 71.9399 377L72.4099 376.85C72.2099 376.22 71.9999 375.6 71.7999 374.97L71.3299 375.13C70.3299 372.003 69.3965 368.85 68.5299 365.67L69.0099 365.54L68.4999 363.64L68.0199 363.76C67.1899 360.59 66.4199 357.4 65.7299 354.17L66.2199 354.07C66.0799 353.43 65.9399 352.78 65.8099 352.14L65.3199 352.24C64.6499 349.03 64.0599 345.8 63.5299 342.55L64.0299 342.47C63.9199 341.82 63.8199 341.17 63.7199 340.47L63.2199 340.54C62.7332 337.313 62.3099 334.057 61.9499 330.77L62.4499 330.71L62.2399 328.71L61.7499 328.76C61.4199 325.51 61.1699 322.23 60.9799 318.93H61.4799C61.4799 318.27 61.4099 317.62 61.3799 316.93H60.8799C60.7299 313.66 60.6399 310.38 60.6299 307.07H61.1299V305.07H60.6299C60.6299 301.77 60.7299 298.48 60.8799 295.21H61.3799C61.3799 294.55 61.4499 293.9 61.4799 293.21H60.9799C61.1699 289.92 61.4199 286.64 61.7499 283.38H62.2399L62.4499 281.38H61.9499C62.3099 278.1 62.7332 274.843 63.2199 271.61L63.7199 271.68C63.8199 271.03 63.9199 270.38 64.0299 269.73L63.5299 269.65C64.0599 266.4 64.6499 263.16 65.3199 259.96L65.8099 260.06C65.9399 259.41 66.0799 258.77 66.2199 258.13L65.7299 258.02C66.4199 254.8 67.1899 251.6 68.0199 248.43L68.4999 248.56L69.0099 246.66L68.5299 246.53C69.3965 243.35 70.3299 240.197 71.3299 237.07L71.7999 237.22L72.4099 235.35L71.9399 235.19C72.9665 232.063 74.0632 228.967 75.2299 225.9L75.6999 226.08C75.9299 225.46 76.1599 224.85 76.3999 224.24L75.9399 224.06C77.1465 221.127 78.4166 218.16 79.7499 215.16L80.2099 215.36L81.0099 213.56L80.5599 213.36C81.8932 210.347 83.3099 207.38 84.8099 204.46L85.2599 204.68L86.1499 202.93L85.7099 202.7C87.2165 199.78 88.7865 196.893 90.4199 194.04L90.8499 194.29L91.8499 192.59L91.4199 192.33C93.0799 189.49 94.7999 186.69 96.5799 183.93L96.9999 184.2C97.3499 183.65 97.7099 183.1 98.0699 182.55L97.6499 182.28C99.4632 179.533 101.327 176.823 103.24 174.15L103.65 174.45L104.75 172.86L104.35 172.56C106.29 169.91 108.3 167.3 110.35 164.74L110.74 165.05L111.98 163.53L111.6 163.21C113.68 160.657 115.813 158.157 118 155.71L118.38 156.05L119.75 154.58L119.38 154.25C121.6 151.81 123.863 149.427 126.17 147.1L126.53 147.45C126.99 146.98 127.45 146.52 127.92 146.06L127.53 145.75C129.863 143.437 132.247 141.173 134.68 138.96L135.02 139.33L136.48 138.01L136.15 137.64C138.597 135.453 141.093 133.317 143.64 131.23L143.96 131.62L145.49 130.38L145.17 129.99C147.73 127.93 150.337 125.93 152.99 123.99L153.29 124.4L154.88 123.24L154.59 122.83C157.257 120.91 159.963 119.047 162.71 117.24L162.98 117.66L164.63 116.58L164.36 116.16C167.12 114.39 169.92 112.66 172.77 111L173.02 111.44C173.58 111.1 174.15 110.78 174.72 110.44L174.47 110.01C177.323 108.37 180.21 106.797 183.13 105.29L183.36 105.74L185.12 104.84L184.89 104.4C187.823 102.92 190.79 101.503 193.79 100.15L193.99 100.6L195.75 99.7499L195.55 99.2899C198.55 97.9566 201.587 96.6966 204.66 95.5099L204.84 95.9799L206.68 95.2699L206.5 94.8099C209.573 93.6366 212.67 92.5399 215.79 91.5199L215.95 91.9899L217.83 91.3799L217.67 90.9099C220.797 89.9099 223.95 88.9766 227.13 88.1099L227.26 88.5899L229.16 88.0799L229.04 87.5999C232.207 86.7666 235.4 85.9999 238.62 85.2999L238.75 85.7499L240.68 85.3399L240.58 84.8599C243.79 84.1899 247.02 83.5999 250.27 83.0699L250.35 83.5599L252.3 83.2599L252.23 82.7599C255.46 82.2699 258.72 81.8399 262 81.4899V81.9899L264 81.7799V81.2799C267.25 80.9599 270.53 80.6999 273.83 80.5199V81.0199L275.83 80.9199V80.4199C279.09 80.2599 282.38 80.1799 285.68 80.1699V80.7499H287.68V80.2499C290.98 80.2499 294.27 80.3399 297.53 80.4999V80.9999L299.53 81.0999V80.5999C302.82 80.7799 306.1 81.0399 309.35 81.3599V81.8599L311.35 82.0699L311.4 81.5699C314.68 81.9199 317.94 82.3499 321.17 82.8399L321.1 83.3399L323.05 83.6399L323.13 83.1499C326.38 83.6799 329.62 84.2699 332.82 84.9399L332.72 85.4199L334.65 85.8299L334.76 85.3399C337.98 86.0399 341.18 86.8099 344.34 87.6399L344.22 88.1199L346.12 88.6299L346.25 88.1499C349.43 89.0099 352.583 89.9433 355.71 90.9499L355.56 91.4199L357.43 92.0299L357.59 91.5599C360.71 92.5866 363.807 93.6833 366.88 94.8499L366.7 95.3099L368.54 96.0199L368.72 95.5499C371.787 96.7499 374.823 98.0099 377.83 99.3299L377.63 99.7899L379.43 100.59L379.63 100.14C382.63 101.473 385.597 102.89 388.53 104.39L388.3 104.83L390.06 105.73L390.29 105.28C393.21 106.787 396.097 108.36 398.95 110L398.7 110.43C399.27 110.76 399.84 111.08 400.4 111.43L400.66 110.99C403.5 112.65 406.3 114.38 409.06 116.15L408.79 116.57L410.44 117.65L410.71 117.23C413.463 119.043 416.17 120.907 418.83 122.82L418.54 123.23L420.13 124.39L420.43 123.98C423.097 125.927 425.703 127.927 428.25 129.98L427.93 130.37C428.45 130.78 428.93 131.2 429.46 131.61L429.78 131.22C432.32 133.307 434.82 135.443 437.28 137.63L436.94 138L438.4 139.32L438.74 138.95C441.073 141.137 443.41 143.403 445.75 145.75L445.4 146.11C445.87 146.57 446.33 147.03 446.79 147.5L447.15 147.15C449.463 149.483 451.727 151.867 453.94 154.3L453.57 154.63L454.88 156.1L455.26 155.76C457.447 158.207 459.583 160.707 461.67 163.26L461.28 163.58L462.52 165.1L462.91 164.79C464.97 167.35 466.97 169.957 468.91 172.61L468.5 172.91L469.66 174.5L470.07 174.2C471.99 176.867 473.853 179.577 475.66 182.33L475.24 182.6C475.6 183.15 475.96 183.7 476.31 184.25L476.73 183.98C478.51 186.74 480.23 189.54 481.89 192.38L481.46 192.64L482.46 194.34L482.89 194.09C484.517 196.943 486.09 199.83 487.61 202.75L487.16 202.98L488.06 204.73L488.5 204.51C489.98 207.437 491.397 210.403 492.75 213.41L492.3 213.61L493.1 215.41L493.56 215.21C494.893 218.21 496.15 221.247 497.33 224.32L496.87 224.5C497.11 225.11 497.34 225.72 497.57 226.34L498.04 226.16C499.2 229.227 500.297 232.323 501.33 235.45L500.86 235.61L501.47 237.48L501.94 237.33C502.94 240.45 503.873 243.603 504.74 246.79L504.26 246.92L504.75 248.75L505.23 248.62C506.06 251.79 506.83 254.99 507.52 258.21L507.04 258.32C507.17 258.96 507.31 259.6 507.44 260.25L507.93 260.15C508.6 263.35 509.19 266.59 509.72 269.84L509.23 269.92L509.53 271.87L510.03 271.8C510.52 275.03 510.95 278.29 511.3 281.57H510.8L511.01 283.57H511.5C511.83 286.83 512.08 290.11 512.27 293.4H511.77C511.77 294.06 511.84 294.71 511.87 295.4H512.37C512.52 298.67 512.61 301.96 512.62 305.26H512.12C512.12 305.59 512.12 305.92 512.12 306.26C512.12 306.6 512.12 306.92 512.12 307.26H512.62C512.62 310.57 512.52 313.85 512.37 317.12H511.87C511.87 317.78 511.81 318.43 511.77 319.12H512.27C512.08 322.42 511.83 325.7 511.5 328.95L511.01 328.9L510.8 330.9L511.3 330.96C510.95 334.24 510.52 337.5 510.03 340.73L509.53 340.66L509.23 342.66L509.72 342.74C509.19 345.99 508.6 349.22 507.93 352.43L507.44 352.33C507.31 352.97 507.17 353.62 507.04 354.26L507.52 354.36C506.83 357.59 506.06 360.78 505.23 363.95L504.75 363.83L504.24 365.73L504.72 365.86C503.847 369.04 502.913 372.193 501.92 375.32L501.45 375.16C501.25 375.79 501.04 376.41 500.84 377.04L501.31 377.19C500.283 380.317 499.187 383.417 498.02 386.49L497.55 386.31C497.32 386.93 497.09 387.54 496.85 388.15L497.31 388.33C496.117 391.403 494.86 394.44 493.54 397.44L493.08 397.24L492.28 399.04L492.73 399.24C491.397 402.24 489.98 405.207 488.48 408.14L488.04 407.91L487.14 409.67L487.59 409.9C486.077 412.82 484.503 415.707 482.87 418.56L482.44 418.31L481.44 420.01L481.87 420.26C480.21 423.113 478.49 425.917 476.71 428.67L476.29 428.4C475.94 428.95 475.58 429.5 475.22 430.05L475.64 430.32C473.833 433.073 471.97 435.78 470.05 438.44L469.64 438.15L468.48 439.74L468.89 440.04C466.937 442.707 464.937 445.313 462.89 447.86L462.5 447.54L461.26 449.07L461.65 449.39C459.557 451.93 457.42 454.427 455.24 456.88L454.86 456.55C454.43 457.04 453.99 457.55 453.55 458.01L453.92 458.35C451.713 460.777 449.45 463.16 447.13 465.5L446.77 465.15L445.38 466.54L445.73 466.9C443.397 469.207 441.013 471.467 438.58 473.68L438.24 473.31C437.76 473.76 437.24 474.2 436.78 474.63L437.12 475C434.66 477.193 432.16 479.33 429.62 481.41L429.3 481.03L427.75 482.08L428.07 482.46C425.51 484.52 422.903 486.52 420.25 488.46L419.95 488.06L418.36 489.22L418.65 489.62C415.983 491.547 413.277 493.413 410.53 495.22L410.26 494.8L408.61 495.87L408.88 496.29C406.12 498.07 403.32 499.79 400.48 501.45L400.22 501.02L398.52 502.02L398.77 502.45C395.917 504.077 393.03 505.647 390.11 507.16L389.88 506.72L388.12 507.61L388.35 508.06C385.423 509.54 382.457 510.957 379.45 512.31L379.25 511.86L377.45 512.66L377.65 513.12C374.65 514.453 371.613 515.71 368.54 516.89L368.36 516.43L366.52 517.13L366.7 517.6C363.627 518.76 360.53 519.857 357.41 520.89L357.25 520.42L355.38 521.03L355.53 521.5C352.41 522.5 349.257 523.433 346.07 524.3L345.94 523.82L344.04 524.32L344.16 524.81C341 525.64 337.8 526.41 334.58 527.1L334.47 526.61L332.54 527.02L332.64 527.51C329.44 528.17 326.2 528.77 322.95 529.3L322.87 528.8L320.92 529.11L320.99 529.6C317.76 530.1 314.5 530.52 311.22 530.88L311.17 530.38L309.17 530.59V531.08C305.92 531.41 302.64 531.66 299.35 531.85V531.35L297.35 531.45L297.48 531.95Z" stroke="#0D1C2E" stroke-dasharray="2 10"/>
<path d="M287.141 479.7C382.686 479.7 460.141 402.245 460.141 306.7C460.141 211.155 382.686 133.7 287.141 133.7C191.595 133.7 114.141 211.155 114.141 306.7C114.141 402.245 191.595 479.7 287.141 479.7Z" fill="#EEF4FF" stroke="#CFDCF7"/>
<path d="M287.16 414.16C346.519 414.16 394.64 366.04 394.64 306.68C394.64 247.32 346.519 199.2 287.16 199.2C227.8 199.2 179.68 247.32 179.68 306.68C179.68 366.04 227.8 414.16 287.16 414.16Z" fill="white"/>
<path d="M238.689 300.2V274.57H233.689V300.2H238.689ZM258.799 300.2V288.2C258.876 287.227 258.745 286.249 258.415 285.33C258.086 284.412 257.566 283.573 256.889 282.87C256.303 282.309 255.609 281.872 254.85 281.587C254.09 281.302 253.28 281.173 252.469 281.21C251.594 281.206 250.727 281.381 249.922 281.725C249.117 282.069 248.391 282.574 247.789 283.21V281.45H243.209V300.2H247.889V288.86C247.889 286.31 249.549 285.44 251.029 285.44C252.509 285.44 254.119 286.31 254.119 288.86V300.2H258.799ZM271.479 285.55V281.99H268.029V279.94C268.029 278.86 268.529 278.24 269.649 278.24H271.479V274.24H268.819C268.096 274.188 267.37 274.29 266.69 274.54C266.009 274.79 265.39 275.182 264.872 275.69C264.355 276.198 263.952 276.81 263.689 277.486C263.426 278.162 263.311 278.886 263.349 279.61V281.95H261.399V285.51H263.349V300.16H268.029V285.55H271.479ZM287.749 283C287.185 282.399 286.496 281.929 285.731 281.624C284.965 281.318 284.142 281.183 283.319 281.23C282.439 281.218 281.565 281.39 280.754 281.735C279.943 282.079 279.213 282.588 278.609 283.23V281.43H274.039V300.18H278.719V288.88C278.719 286.5 280.299 285.42 281.719 285.42C282.191 285.407 282.658 285.501 283.088 285.695C283.518 285.889 283.898 286.178 284.199 286.54L287.749 283ZM303.169 300.2V287.86C303.169 283.46 300.439 281.23 295.169 281.23C292.039 281.23 290.239 281.81 288.399 283.82L291.399 286.74C291.816 286.194 292.366 285.765 292.997 285.494C293.627 285.222 294.317 285.118 294.999 285.19C297.479 285.19 298.489 286.09 298.489 288.14V289.08H294.059C289.709 289.08 287.659 291.53 287.659 294.52C287.616 296.069 288.167 297.575 289.199 298.73C289.845 299.315 290.602 299.762 291.425 300.046C292.249 300.329 293.121 300.443 293.989 300.38C294.844 300.446 295.702 300.318 296.5 300.006C297.298 299.695 298.016 299.207 298.599 298.58V300.2H303.169ZM298.489 293.29C298.544 293.712 298.513 294.141 298.396 294.55C298.279 294.96 298.079 295.341 297.809 295.67C297.411 296.022 296.941 296.285 296.432 296.44C295.923 296.595 295.387 296.64 294.859 296.57C293.019 296.57 292.159 295.7 292.159 294.41C292.159 293.12 293.089 292.28 294.779 292.28H298.489V293.29ZM322.219 290.81C322.219 287.42 321.789 285.3 320.099 283.54C319.342 282.77 318.433 282.167 317.429 281.769C316.425 281.371 315.349 281.188 314.269 281.23C313.195 281.186 312.123 281.369 311.123 281.767C310.124 282.165 309.22 282.769 308.469 283.54C306.779 285.3 306.349 287.42 306.349 290.81C306.349 294.2 306.779 296.35 308.469 298.12C309.222 298.887 310.127 299.489 311.126 299.885C312.125 300.281 313.196 300.463 314.269 300.42C315.348 300.462 316.423 300.279 317.426 299.883C318.43 299.487 319.34 298.887 320.099 298.12C321.749 296.35 322.179 294.23 322.179 290.81H322.219ZM317.539 290.81C317.539 292.75 317.429 294.41 316.459 295.38C316.169 295.658 315.825 295.875 315.449 296.018C315.073 296.16 314.671 296.226 314.269 296.21C313.872 296.229 313.474 296.165 313.102 296.022C312.73 295.879 312.392 295.661 312.109 295.38C311.109 294.38 311.029 292.75 311.029 290.81C311.029 288.87 311.129 287.24 312.109 286.27C312.392 285.989 312.73 285.771 313.102 285.628C313.474 285.485 313.872 285.421 314.269 285.44C314.671 285.424 315.073 285.49 315.449 285.632C315.825 285.775 316.169 285.992 316.459 286.27C317.389 287.24 317.499 288.86 317.499 290.81H317.539ZM341.189 300.2V288.2C341.266 287.227 341.135 286.249 340.805 285.33C340.476 284.412 339.956 283.573 339.279 282.87C338.693 282.309 337.999 281.872 337.24 281.587C336.48 281.302 335.67 281.173 334.859 281.21C333.984 281.206 333.117 281.381 332.312 281.725C331.507 282.069 330.781 282.574 330.179 283.21V281.45H325.599V300.2H330.279V288.86C330.279 286.31 331.939 285.44 333.419 285.44C334.899 285.44 336.509 286.31 336.509 288.86V300.2H341.189Z" fill="#0D51D9"/>
<path d="M240.6 320.35C240.6 315.88 237.39 312.57 232.39 312.57H222.67V338.2H226.56V328.12H232.39C237.39 328.12 240.6 324.81 240.6 320.35ZM236.71 320.35C236.71 323.05 234.87 324.6 232.17 324.6H226.56V316.06H232.17C234.87 316.06 236.75 317.65 236.75 320.35H236.71ZM250.96 338.2V335.07H249.34C247.86 335.07 247.34 334.35 247.34 332.95V312.57H243.67V333.16C243.67 335.86 245.18 338.16 248.67 338.16L250.96 338.2ZM267.32 338.2V326C267.32 321.86 264.8 319.74 259.8 319.74C256.8 319.74 254.98 320.35 253.25 322.36L255.66 324.63C256.108 324.005 256.715 323.512 257.419 323.203C258.123 322.893 258.897 322.778 259.66 322.87C262.5 322.87 263.66 323.98 263.66 326.29V327.58H258.84C254.66 327.58 252.54 329.78 252.54 332.84C252.493 334.284 253.01 335.69 253.98 336.76C254.636 337.36 255.409 337.818 256.251 338.103C257.092 338.389 257.984 338.497 258.87 338.42C259.772 338.497 260.679 338.368 261.524 338.044C262.369 337.72 263.13 337.21 263.75 336.55V338.2H267.32ZM263.65 331.62C263.755 332.589 263.47 333.56 262.86 334.32C262.392 334.717 261.845 335.011 261.256 335.184C260.667 335.356 260.048 335.402 259.44 335.32C257.14 335.32 256.09 334.38 256.09 332.73C256.09 331.08 257.21 330.1 259.37 330.1H263.65V331.62ZM279.54 338.2V335.07H278.03C277.75 335.096 277.468 335.058 277.206 334.959C276.943 334.86 276.706 334.702 276.513 334.497C276.32 334.293 276.177 334.048 276.093 333.78C276.009 333.511 275.988 333.228 276.03 332.95V323.08H279.56V320.28H276.03V314.75H272.36V320.3H270.25V323.1H272.34V333.15C272.292 333.822 272.388 334.497 272.621 335.129C272.854 335.761 273.22 336.336 273.693 336.816C274.166 337.296 274.736 337.669 275.365 337.911C275.994 338.153 276.667 338.259 277.34 338.22L279.54 338.2ZM291.01 323.08V320.28H287.38V317.65C287.338 317.372 287.36 317.088 287.443 316.819C287.527 316.551 287.671 316.305 287.863 316.1C288.056 315.895 288.292 315.736 288.555 315.636C288.818 315.535 289.1 315.496 289.38 315.52H291V312.39H288.75C288.077 312.353 287.403 312.459 286.774 312.703C286.146 312.946 285.576 313.32 285.103 313.801C284.63 314.281 284.264 314.857 284.031 315.49C283.798 316.122 283.702 316.797 283.75 317.47V320.28H281.66V323.08H283.75V338.2H287.42V323.08H291.01ZM307.66 329.08C307.66 326.02 307.23 323.72 305.5 321.92C304.786 321.202 303.932 320.64 302.991 320.268C302.049 319.897 301.041 319.724 300.03 319.76C299.025 319.724 298.023 319.898 297.088 320.27C296.153 320.641 295.306 321.203 294.6 321.92C292.87 323.72 292.44 326.02 292.44 329.08C292.44 332.14 292.87 334.48 294.6 336.28C295.307 336.995 296.155 337.556 297.089 337.928C298.023 338.3 299.025 338.474 300.03 338.44C301.041 338.475 302.049 338.301 302.99 337.929C303.931 337.558 304.785 336.996 305.5 336.28C307.23 334.46 307.66 332.16 307.66 329.06V329.08ZM303.99 329.08C303.99 331.08 303.85 332.97 302.73 334.08C302.375 334.432 301.954 334.709 301.49 334.895C301.026 335.08 300.529 335.171 300.03 335.16C299.536 335.171 299.046 335.081 298.588 334.895C298.131 334.709 297.716 334.432 297.37 334.08C296.25 332.97 296.11 331.08 296.11 329.08C296.11 327.08 296.25 325.19 297.37 324.08C297.718 323.733 298.134 323.46 298.591 323.28C299.049 323.099 299.538 323.014 300.03 323.03C300.528 323.014 301.023 323.099 301.487 323.279C301.951 323.459 302.374 323.732 302.73 324.08C303.85 325.17 303.99 327.08 303.99 329.06V329.08ZM324.37 321.48C323.81 320.898 323.133 320.444 322.382 320.147C321.631 319.85 320.826 319.718 320.02 319.76C319.096 319.73 318.179 319.912 317.336 320.292C316.494 320.672 315.749 321.239 315.16 321.95V319.95H311.56V338.2H315.23V327.12C315.23 324.6 316.88 323.01 318.86 323.01C319.38 322.992 319.898 323.093 320.373 323.306C320.848 323.519 321.268 323.839 321.6 324.24L324.37 321.48ZM352.22 338.22V326.54C352.267 325.589 352.114 324.639 351.769 323.752C351.425 322.864 350.897 322.06 350.22 321.39C348.951 320.27 347.301 319.68 345.61 319.74C344.514 319.699 343.424 319.919 342.43 320.381C341.435 320.844 340.565 321.536 339.89 322.4C339.337 321.55 338.572 320.859 337.671 320.394C336.77 319.93 335.763 319.708 334.75 319.75C333.842 319.739 332.942 319.916 332.106 320.268C331.27 320.621 330.516 321.143 329.89 321.8V319.95H326.29V338.2H329.96V327.08C329.96 324.27 331.69 323.01 333.74 323.01C335.79 323.01 337.41 324.24 337.41 327.08V338.2H341.08V326.9C341.039 326.388 341.109 325.874 341.283 325.391C341.457 324.908 341.732 324.468 342.09 324.1C342.447 323.732 342.88 323.444 343.357 323.256C343.835 323.068 344.347 322.984 344.86 323.01C346.91 323.01 348.53 324.24 348.53 327.08V338.2L352.22 338.22Z" fill="#231F20"/>
<path d="M265.11 78.7199C266.297 78.7199 267.26 77.7573 267.26 76.5699C267.26 75.3825 266.297 74.4199 265.11 74.4199C263.923 74.4199 262.96 75.3825 262.96 76.5699C262.96 77.7573 263.923 78.7199 265.11 78.7199Z" stroke="white" stroke-width="2"/>
<path d="M264.49 83.77H273.31" stroke="white" stroke-width="2"/>
<path d="M475.66 184.05C475.285 184.425 475.074 184.934 475.074 185.465C475.074 185.996 475.285 186.505 475.66 186.88C476.036 187.255 476.545 187.466 477.075 187.466C477.606 187.466 478.115 187.255 478.49 186.88L475.66 184.05ZM481.31 181.23L482.72 179.82C482.346 179.447 481.839 179.238 481.31 179.238C480.782 179.238 480.275 179.447 479.9 179.82L481.31 181.23ZM484.13 186.88C484.506 187.255 485.015 187.466 485.545 187.466C486.076 187.466 486.585 187.255 486.96 186.88C487.336 186.505 487.546 185.996 487.546 185.465C487.546 184.934 487.336 184.425 486.96 184.05L484.13 186.88ZM478.49 186.88L482.75 182.65L479.93 179.82L475.69 184.05L478.49 186.88ZM479.9 182.65L484.13 186.88L486.96 184.05L482.75 179.82L479.9 182.65Z" fill="white"/>
<path d="M471.481 199.85C471.856 200.225 472.365 200.436 472.896 200.436C473.426 200.436 473.935 200.225 474.311 199.85C474.686 199.475 474.897 198.966 474.897 198.435C474.897 197.904 474.686 197.395 474.311 197.02L471.481 199.85ZM468.661 194.2L467.251 192.75C467.065 192.936 466.917 193.156 466.817 193.399C466.716 193.642 466.664 193.902 466.664 194.165C466.664 194.428 466.716 194.688 466.817 194.931C466.917 195.174 467.065 195.394 467.251 195.58L468.661 194.2ZM474.311 191.38C474.655 190.999 474.839 190.5 474.826 189.987C474.812 189.474 474.602 188.985 474.238 188.623C473.874 188.26 473.385 188.052 472.872 188.04C472.359 188.028 471.86 188.214 471.481 188.56L474.311 191.38ZM474.311 197.02L470.081 192.75L467.251 195.58L471.481 199.81L474.311 197.02ZM470.081 195.62L474.311 191.38L471.481 188.56L467.251 192.75L470.081 195.62Z" fill="white"/>
<path d="M64.75 199.93L89.38 214.15" stroke="white" stroke-width="2" stroke-dasharray="2 2"/>
<path d="M58.7502 251.8C58.5644 251.986 58.417 252.206 58.3164 252.449C58.2158 252.692 58.1641 252.952 58.1641 253.215C58.1641 253.746 58.3749 254.255 58.7502 254.63C59.1255 255.005 59.6344 255.216 60.1652 255.216C60.6959 255.216 61.2049 255.005 61.5802 254.63L58.7502 251.8ZM64.3902 248.98L65.8102 247.57C65.6244 247.384 65.4039 247.236 65.1611 247.136C64.9183 247.035 64.658 246.983 64.3952 246.983C64.1323 246.983 63.8721 247.035 63.6293 247.136C63.3865 247.236 63.1659 247.384 62.9802 247.57L64.3902 248.98ZM67.2102 254.63C67.396 254.816 67.6166 254.963 67.8594 255.064C68.1022 255.164 68.3624 255.216 68.6252 255.216C68.888 255.216 69.1482 255.164 69.391 255.064C69.6338 254.963 69.8544 254.816 70.0402 254.63C70.226 254.444 70.3734 254.224 70.474 253.981C70.5745 253.738 70.6263 253.478 70.6263 253.215C70.6263 252.952 70.5745 252.692 70.474 252.449C70.3734 252.206 70.226 251.986 70.0402 251.8L67.2102 254.63ZM61.5802 254.63L65.8102 250.4L62.9802 247.57L58.7502 251.8L61.5802 254.63ZM62.9802 250.4L67.2102 254.63L70.0402 251.8L65.8102 247.57L62.9802 250.4Z" fill="white"/>
<path d="M54.5997 267.6C54.7869 267.785 55.0086 267.932 55.2524 268.031C55.4961 268.131 55.7571 268.181 56.0203 268.18C56.2836 268.178 56.544 268.125 56.7867 268.023C57.0294 267.921 57.2496 267.772 57.4347 267.585C57.6199 267.398 57.7664 267.176 57.8658 266.932C57.9653 266.689 58.0158 266.428 58.0144 266.164C58.013 265.901 57.9598 265.641 57.8577 265.398C57.7557 265.155 57.6069 264.935 57.4197 264.75L54.5997 267.6ZM51.7497 261.95L50.3297 260.54C50.1438 260.726 49.9963 260.946 49.8956 261.189C49.795 261.432 49.7432 261.692 49.7432 261.955C49.7432 262.218 49.795 262.478 49.8956 262.721C49.9963 262.964 50.1438 263.184 50.3297 263.37L51.7497 261.95ZM57.3897 259.13C57.7174 258.747 57.8886 258.255 57.8692 257.752C57.8497 257.249 57.6411 256.771 57.2849 256.415C56.9287 256.059 56.4512 255.85 55.9478 255.831C55.4445 255.811 54.9523 255.982 54.5697 256.31L57.3897 259.13ZM57.3897 264.77L53.1597 260.54L50.3297 263.37L54.5697 267.6L57.3897 264.77ZM53.1597 263.37L57.3897 259.13L54.5697 256.31L50.3297 260.54L53.1597 263.37Z" fill="white"/>
<path d="M70.0705 271.56C70.2792 271.38 70.4484 271.159 70.5676 270.91C70.6867 270.662 70.7532 270.391 70.7629 270.116C70.7725 269.84 70.7251 269.566 70.6237 269.309C70.5222 269.053 70.3689 268.821 70.1733 268.626C69.9777 268.432 69.7441 268.281 69.4871 268.181C69.2301 268.081 68.9553 268.036 68.6799 268.047C68.4045 268.059 68.1345 268.127 67.8868 268.248C67.6391 268.369 67.4191 268.54 67.2405 268.75L70.0705 271.56ZM64.4205 274.38L63.0105 275.75C63.1963 275.936 63.4168 276.083 63.6596 276.184C63.9024 276.285 64.1627 276.337 64.4255 276.337C64.6883 276.337 64.9486 276.285 65.1914 276.184C65.4342 276.083 65.6548 275.936 65.8405 275.75L64.4205 274.38ZM61.6105 268.75C61.2379 268.371 60.7299 268.155 60.1982 268.15C59.6665 268.146 59.1548 268.352 58.7755 268.725C58.3962 269.098 58.1805 269.606 58.1759 270.137C58.1712 270.669 58.3779 271.181 58.7505 271.56L61.6105 268.75ZM67.2405 268.75L63.0105 272.99L65.8405 275.75L70.0705 271.52L67.2405 268.75ZM65.8405 272.99L61.6105 268.75L58.7505 271.56L63.0105 275.75L65.8405 272.99Z" fill="white"/>
<path d="M74.9598 261.95H67.2998" stroke="white" stroke-width="2" stroke-linecap="round" stroke-linejoin="round"/>
<path d="M64.4199 272.94V264.5" stroke="white" stroke-width="2" stroke-linecap="round" stroke-linejoin="round"/>
<path d="M129.231 128.48C129.045 128.666 128.897 128.886 128.797 129.129C128.696 129.372 128.645 129.632 128.645 129.895C128.645 130.158 128.696 130.418 128.797 130.661C128.897 130.904 129.045 131.124 129.231 131.31C129.416 131.496 129.637 131.643 129.88 131.744C130.123 131.844 130.383 131.896 130.646 131.896C130.908 131.896 131.169 131.844 131.411 131.744C131.654 131.643 131.875 131.496 132.061 131.31L129.231 128.48ZM134.881 125.66L136.291 124.25C135.916 123.878 135.409 123.668 134.881 123.668C134.352 123.668 133.845 123.878 133.471 124.25L134.881 125.66ZM137.751 131.31C138.126 131.685 138.635 131.896 139.166 131.896C139.696 131.896 140.205 131.685 140.581 131.31C140.956 130.935 141.167 130.426 141.167 129.895C141.167 129.364 140.956 128.855 140.581 128.48L137.751 131.31ZM132.111 131.31L136.341 127.08L133.521 124.25L129.281 128.48L132.111 131.31ZM133.521 127.08L137.751 131.31L140.581 128.48L136.341 124.25L133.521 127.08Z" fill="white"/>
<path d="M134.88 128.64V135.54" stroke="white" stroke-width="2" stroke-linecap="round" stroke-linejoin="round"/>
<path d="M177.311 512.09C177.316 513.026 177.691 513.923 178.354 514.584C179.017 515.245 179.914 515.617 180.851 515.62V508.55C179.917 508.568 179.027 508.947 178.367 509.607C177.707 510.267 177.328 511.157 177.311 512.09Z" fill="#0D51D9"/>
<path d="M519.21 332.14C538.402 332.14 553.96 316.582 553.96 297.39C553.96 278.198 538.402 262.64 519.21 262.64C500.018 262.64 484.46 278.198 484.46 297.39C484.46 316.582 500.018 332.14 519.21 332.14Z" fill="white" stroke="#9F9F9F" stroke-width="0.5"/>
<path d="M497.92 303.92L501.92 307.92C502.981 306.859 504.42 306.263 505.92 306.263C507.42 306.263 508.859 306.859 509.92 307.92C510.981 308.981 511.577 310.42 511.577 311.92C511.577 313.42 510.981 314.859 509.92 315.92L513.92 319.92L533.14 300.71L530.24 297.81L531.69 296.36L534.59 299.26L542.92 290.92L538.92 286.92C538.395 287.445 537.771 287.862 537.085 288.146C536.398 288.43 535.663 288.577 534.92 288.577C534.177 288.577 533.441 288.43 532.755 288.146C532.069 287.862 531.445 287.445 530.92 286.92C530.395 286.395 529.978 285.771 529.694 285.085C529.409 284.398 529.263 283.663 529.263 282.92C529.263 282.177 529.409 281.441 529.694 280.755C529.978 280.069 530.395 279.445 530.92 278.92L526.92 274.92L518.58 283.25L521.48 286.15L520.03 287.6L517.13 284.7L497.92 303.92ZM512.42 295.22L517.16 297.22L521.1 293.73L520.54 298.91L524.98 301.5L519.9 302.75L518.75 307.75L516.17 303.31L510.99 303.87L514.48 299.87L512.42 295.22ZM521.48 289.05L522.93 287.6L525.83 290.5L524.38 291.95L521.48 289.05ZM525.83 293.41L527.28 291.95L530.19 294.86L528.75 296.31L525.83 293.41Z" fill="#0D51D9"/>
<path d="M461.97 490.31C481.162 490.31 496.72 474.752 496.72 455.56C496.72 436.368 481.162 420.81 461.97 420.81C442.778 420.81 427.22 436.368 427.22 455.56C427.22 474.752 442.778 490.31 461.97 490.31Z" fill="white" stroke="#9F9F9F" stroke-width="0.5"/>
<path d="M471.1 464.61H452.75C451.743 464.661 450.794 465.097 450.1 465.827C449.405 466.558 449.018 467.527 449.018 468.535C449.018 469.543 449.405 470.512 450.1 471.243C450.794 471.974 451.743 472.409 452.75 472.46H471.07C472.076 472.409 473.025 471.974 473.72 471.243C474.414 470.512 474.801 469.543 474.801 468.535C474.801 467.527 474.414 466.558 473.72 465.827C473.025 465.097 472.076 464.661 471.07 464.61H471.1ZM452.75 468.53C452.75 468.271 452.826 468.018 452.97 467.802C453.114 467.587 453.319 467.419 453.558 467.32C453.798 467.221 454.061 467.195 454.315 467.245C454.569 467.296 454.803 467.421 454.986 467.604C455.169 467.787 455.294 468.02 455.344 468.274C455.395 468.529 455.369 468.792 455.27 469.031C455.171 469.271 455.003 469.475 454.787 469.619C454.572 469.763 454.319 469.84 454.06 469.84C453.712 469.84 453.379 469.702 453.133 469.456C452.888 469.211 452.75 468.877 452.75 468.53ZM469.75 469.84H458.01C457.683 469.811 457.379 469.662 457.158 469.42C456.937 469.178 456.814 468.863 456.814 468.535C456.814 468.207 456.937 467.892 457.158 467.65C457.379 467.409 457.683 467.259 458.01 467.23H469.75C469.931 467.214 470.113 467.236 470.285 467.295C470.457 467.353 470.615 467.446 470.749 467.569C470.883 467.692 470.99 467.841 471.063 468.007C471.136 468.174 471.174 468.353 471.174 468.535C471.174 468.717 471.136 468.896 471.063 469.063C470.99 469.229 470.883 469.378 470.749 469.501C470.615 469.624 470.457 469.717 470.285 469.776C470.113 469.834 469.931 469.856 469.75 469.84ZM471.06 454.14H452.75C451.743 454.191 450.794 454.627 450.1 455.357C449.405 456.088 449.018 457.057 449.018 458.065C449.018 459.073 449.405 460.042 450.1 460.773C450.794 461.504 451.743 461.939 452.75 461.99H471.07C472.076 461.939 473.025 461.504 473.72 460.773C474.414 460.042 474.801 459.073 474.801 458.065C474.801 457.057 474.414 456.088 473.72 455.357C473.025 454.627 472.076 454.191 471.07 454.14H471.06ZM452.75 458.07C452.75 457.811 452.826 457.558 452.97 457.342C453.114 457.127 453.319 456.959 453.558 456.86C453.798 456.761 454.061 456.735 454.315 456.785C454.569 456.836 454.803 456.961 454.986 457.144C455.169 457.327 455.294 457.56 455.344 457.814C455.395 458.069 455.369 458.332 455.27 458.571C455.171 458.811 455.003 459.015 454.787 459.159C454.572 459.303 454.319 459.38 454.06 459.38C453.712 459.38 453.379 459.242 453.133 458.996C452.888 458.751 452.75 458.417 452.75 458.07ZM469.75 459.38H458.01C457.662 459.38 457.329 459.242 457.083 458.996C456.838 458.751 456.7 458.417 456.7 458.07C456.7 457.723 456.838 457.389 457.083 457.144C457.329 456.898 457.662 456.76 458.01 456.76H469.75C470.097 456.76 470.43 456.898 470.676 457.144C470.922 457.389 471.06 457.723 471.06 458.07C471.06 458.417 470.922 458.751 470.676 458.996C470.43 459.242 470.097 459.38 469.75 459.38ZM477.58 458.19C477.58 458.19 477.58 458.11 477.58 458.07C477.577 456.336 476.887 454.674 475.661 453.449C474.435 452.223 472.773 451.533 471.04 451.53H452.75C451.025 451.533 449.37 452.216 448.146 453.431C446.921 454.646 446.225 456.295 446.21 458.02C445.203 457.39 444.437 456.441 444.035 455.324C443.632 454.207 443.616 452.987 443.99 451.86C444.92 448.86 448.92 446.74 452.13 447.15C451.962 445.646 452.338 444.131 453.19 442.88C454.28 441.466 455.704 440.344 457.334 439.615C458.964 438.886 460.749 438.571 462.53 438.7C465.8 438.88 470.19 440.55 472.08 443.75C472.702 444.774 472.999 445.963 472.93 447.16C474.313 447.004 475.71 447.28 476.93 447.95C477.847 448.423 478.626 449.125 479.193 449.987C479.759 450.85 480.094 451.843 480.164 452.873C480.235 453.902 480.038 454.932 479.594 455.864C479.15 456.795 478.474 457.597 477.63 458.19H477.58Z" fill="#0D51D9"/>
<path d="M135.21 173.38C154.402 173.38 169.96 157.822 169.96 138.63C169.96 119.438 154.402 103.88 135.21 103.88C116.018 103.88 100.46 119.438 100.46 138.63C100.46 157.822 116.018 173.38 135.21 173.38Z" fill="white" stroke="#9F9F9F" stroke-width="0.5"/>
<path d="M125.32 133.86L123.17 132.12C122.091 134.12 121.528 136.358 121.53 138.63C121.508 141.751 122.568 144.783 124.53 147.21L118.82 147.39L119.82 153.01C116.638 149.633 114.665 145.298 114.207 140.681C113.749 136.064 114.833 131.426 117.29 127.49L115.11 125.75L124.95 124.07L125.32 133.86ZM145.04 143.36L147.2 145.1C148.278 143.1 148.842 140.862 148.84 138.59C148.861 135.469 147.801 132.438 145.84 130.01L151.6 129.83L150.6 124.25C153.772 127.629 155.737 131.962 156.19 136.575C156.642 141.187 155.555 145.819 153.1 149.75L155.3 151.48L145.46 153.17L145.04 143.36ZM139.94 128.75L141.67 126.6C139.298 125.32 136.601 124.77 133.918 125.019C131.235 125.268 128.685 126.305 126.59 128L126.4 122.29L120.83 123.29C124.206 120.107 128.54 118.131 133.157 117.672C137.774 117.212 142.413 118.295 146.35 120.75L148.09 118.55L149.75 128.38L139.94 128.75ZM130.43 148.47L128.75 150.67C130.75 151.749 132.987 152.312 135.26 152.31C138.378 152.332 141.407 151.272 143.83 149.31L144.02 155.02L149.59 154.02C146.212 157.204 141.875 159.179 137.256 159.637C132.637 160.095 127.997 159.009 124.06 156.55L122.28 158.75L120.59 148.91L130.43 148.47Z" fill="#0D51D9"/>
<path d="M288.439 125.5C307.631 125.5 323.189 109.942 323.189 90.75C323.189 71.5581 307.631 56 288.439 56C269.248 56 253.689 71.5581 253.689 90.75C253.689 109.942 269.248 125.5 288.439 125.5Z" fill="white" stroke="#9F9F9F" stroke-width="0.5"/>
<path d="M303.09 86.8999C303.66 88.7764 303.939 90.7289 303.92 92.6899C303.94 94.6467 303.681 96.5964 303.15 98.4799C304.397 98.4309 305.577 97.9022 306.443 97.004C307.31 96.1059 307.796 94.9078 307.8 93.6599V91.7499C307.803 90.4867 307.312 89.2724 306.432 88.3662C305.552 87.4601 304.353 86.9338 303.09 86.8999Z" fill="#0D51D9"/>
<path d="M296.18 81.01V77.01C296.825 76.7823 297.369 76.3338 297.715 75.7437C298.062 75.1537 298.189 74.4601 298.073 73.7857C297.958 73.1113 297.607 72.4994 297.084 72.0583C296.561 71.6172 295.899 71.3752 295.215 71.3752C294.53 71.3752 293.868 71.6172 293.345 72.0583C292.822 72.4994 292.472 73.1113 292.356 73.7857C292.241 74.4601 292.367 75.1537 292.714 75.7437C293.06 76.3338 293.604 76.7823 294.25 77.01V80.07C290.48 78.8032 286.399 78.8032 282.63 80.07V77.03C283.275 76.8023 283.819 76.3538 284.165 75.7637C284.512 75.1737 284.639 74.4801 284.523 73.8057C284.408 73.1313 284.057 72.5194 283.534 72.0783C283.011 71.6372 282.349 71.3952 281.665 71.3952C280.98 71.3952 280.318 71.6372 279.795 72.0783C279.272 72.5194 278.922 73.1313 278.806 73.8057C278.691 74.4801 278.817 75.1737 279.164 75.7637C279.51 76.3538 280.054 76.8023 280.7 77.03V81.03C276.81 83.29 274.89 87.48 274.89 92.71C274.89 99.14 276.47 103.76 282.63 105.49V109.16C282.63 109.425 282.735 109.68 282.923 109.867C283.11 110.055 283.364 110.16 283.63 110.16C283.797 110.161 283.962 110.12 284.11 110.04L291.11 106.13C298.94 105.21 302.06 99.97 302.06 92.74C301.99 87.46 300.07 83.27 296.18 81.01ZM283.6 87.37C285.28 87.37 286.51 88.37 286.51 89.79C286.547 89.9374 286.549 90.0914 286.518 90.2401C286.487 90.3888 286.422 90.5284 286.328 90.6483C286.235 90.7681 286.115 90.8651 285.978 90.9317C285.842 90.9984 285.692 91.0331 285.54 91.0331C285.388 91.0331 285.238 90.9984 285.101 90.9317C284.964 90.8651 284.845 90.7681 284.751 90.6483C284.658 90.5284 284.593 90.3888 284.561 90.2401C284.53 90.0914 284.533 89.9374 284.57 89.79C284.57 89.12 282.63 89.12 282.63 89.79C282.681 89.9421 282.695 90.1045 282.671 90.2632C282.646 90.422 282.584 90.5725 282.489 90.702C282.394 90.8315 282.269 90.9362 282.125 91.0073C281.981 91.0784 281.822 91.1137 281.661 91.1103C281.501 91.1068 281.343 91.0648 281.202 90.9877C281.061 90.9105 280.941 90.8006 280.852 90.6671C280.762 90.5337 280.706 90.3807 280.689 90.221C280.671 90.0614 280.692 89.8998 280.75 89.75C280.75 88.39 281.92 87.37 283.6 87.37ZM295.21 90.75C294.944 90.75 294.69 90.6446 294.503 90.4571C294.315 90.2696 294.21 90.0152 294.21 89.75C294.21 89.08 292.27 89.08 292.27 89.75C292.31 89.8983 292.316 90.0539 292.286 90.2047C292.256 90.3555 292.192 90.4975 292.099 90.6196C292.006 90.7417 291.886 90.8406 291.748 90.9087C291.61 90.9768 291.458 91.0122 291.305 91.0122C291.151 91.0122 290.999 90.9768 290.862 90.9087C290.724 90.8406 290.604 90.7417 290.51 90.6196C290.417 90.4975 290.353 90.3555 290.323 90.2047C290.294 90.0539 290.299 89.8983 290.34 89.75C290.34 88.35 291.56 87.33 293.24 87.33C294.92 87.33 296.14 88.33 296.14 89.75C296.14 90.0152 296.034 90.2696 295.847 90.4571C295.659 90.6446 295.405 90.75 295.14 90.75H295.21Z" fill="#0D51D9"/>
<path d="M269.09 91.7499V93.6899C269.099 94.935 269.589 96.1284 270.458 97.0209C271.326 97.9134 272.505 98.4361 273.75 98.4799C273.219 96.5964 272.96 94.6467 272.98 92.6899C272.96 90.7289 273.24 88.7764 273.81 86.8999C272.545 86.9287 271.341 87.453 270.458 88.36C269.576 89.267 269.084 90.4843 269.09 91.7499Z" fill="#0D51D9"/>
<path d="M441.811 173.48C461.002 173.48 476.561 157.922 476.561 138.73C476.561 119.538 461.002 103.98 441.811 103.98C422.619 103.98 407.061 119.538 407.061 138.73C407.061 157.922 422.619 173.48 441.811 173.48Z" fill="white" stroke="#9F9F9F" stroke-width="0.5"/>
<path d="M441.981 142.53H422.381V127.59C422.386 127.1 422.584 126.632 422.933 126.288C423.281 125.943 423.751 125.75 424.241 125.75H453.181C453.674 125.75 454.147 125.946 454.496 126.295C454.845 126.644 455.041 127.117 455.041 127.61V128.55H444.751C444.008 128.55 443.296 128.845 442.771 129.37C442.246 129.895 441.951 130.607 441.951 131.35L441.981 142.53ZM441.981 144.39H422.381V145.33C422.381 145.574 422.429 145.816 422.522 146.042C422.616 146.267 422.753 146.473 422.926 146.645C423.098 146.818 423.303 146.955 423.529 147.048C423.755 147.142 423.997 147.19 424.241 147.19H441.981V144.39ZM442.141 151.86C442.037 151.561 441.983 151.247 441.981 150.93V149.06H438.541L437.981 151.86H434.511C434.28 151.884 434.065 151.993 433.91 152.165C433.754 152.338 433.668 152.562 433.668 152.795C433.668 153.028 433.754 153.252 433.91 153.425C434.065 153.597 434.28 153.706 434.511 153.73H442.911C443.034 153.729 443.156 153.704 443.269 153.656C443.382 153.608 443.485 153.538 443.571 153.45C442.905 153.127 442.391 152.557 442.141 151.86ZM456.911 130.39H444.751C444.502 130.39 444.262 130.489 444.086 130.665C443.91 130.842 443.811 131.081 443.811 131.33V133.19H457.811V131.33C457.811 131.087 457.718 130.854 457.55 130.679C457.382 130.504 457.153 130.4 456.911 130.39ZM443.841 147.19H457.841V135.06H443.841V147.19ZM443.841 150.93C443.843 151.178 443.944 151.414 444.12 151.588C444.296 151.762 444.533 151.86 444.781 151.86H456.911C457.033 151.86 457.154 151.836 457.267 151.789C457.38 151.742 457.482 151.674 457.568 151.588C457.655 151.501 457.723 151.399 457.77 151.286C457.817 151.173 457.841 151.052 457.841 150.93V149.06H443.841V150.93Z" fill="#0D51D9"/>
<path d="M121.77 488.18C140.961 488.18 156.52 472.622 156.52 453.43C156.52 434.238 140.961 418.68 121.77 418.68C102.578 418.68 87.0195 434.238 87.0195 453.43C87.0195 472.622 102.578 488.18 121.77 488.18Z" fill="white" stroke="#9F9F9F" stroke-width="0.5"/>
<path d="M139.369 465.75L123.369 437.99C123.208 437.719 122.979 437.494 122.705 437.337C122.43 437.181 122.12 437.099 121.804 437.099C121.489 437.099 121.178 437.181 120.904 437.337C120.629 437.494 120.4 437.719 120.239 437.99L104.189 465.75C104.027 466.025 103.941 466.338 103.94 466.657C103.94 466.976 104.024 467.289 104.186 467.565C104.347 467.84 104.578 468.067 104.857 468.223C105.135 468.379 105.45 468.457 105.769 468.45H137.859C138.171 468.442 138.475 468.352 138.742 468.191C139.009 468.03 139.23 467.802 139.382 467.529C139.534 467.257 139.613 466.95 139.611 466.638C139.609 466.326 139.525 466.02 139.369 465.75ZM121.749 463.53C121.404 463.53 121.067 463.428 120.78 463.237C120.493 463.046 120.269 462.775 120.136 462.457C120.002 462.138 119.966 461.788 120.031 461.45C120.096 461.111 120.26 460.799 120.502 460.553C120.743 460.307 121.052 460.138 121.39 460.067C121.727 459.997 122.078 460.027 122.398 460.155C122.719 460.283 122.994 460.502 123.19 460.786C123.386 461.07 123.493 461.405 123.499 461.75C123.505 461.983 123.463 462.214 123.378 462.431C123.292 462.647 123.164 462.844 123 463.01C122.837 463.176 122.643 463.307 122.428 463.397C122.213 463.486 121.982 463.531 121.749 463.53ZM124.179 448.75L123.179 456.75C123.179 457.14 123.024 457.514 122.749 457.79C122.473 458.065 122.099 458.22 121.709 458.22C121.319 458.22 120.945 458.065 120.67 457.79C120.394 457.514 120.239 457.14 120.239 456.75L119.289 448.75V448.43C119.289 447.43 120.399 446.65 121.749 446.65C123.099 446.65 124.209 447.44 124.209 448.43L124.179 448.75Z" fill="#0D51D9"/>
<path d="M67.75 332.7C86.9419 332.7 102.5 317.142 102.5 297.95C102.5 278.758 86.9419 263.2 67.75 263.2C48.5581 263.2 33 278.758 33 297.95C33 317.142 48.5581 332.7 67.75 332.7Z" fill="white" stroke="#9F9F9F" stroke-width="0.5"/>
<path d="M67.4196 319.77C79.4705 319.77 89.2396 310.001 89.2396 297.95C89.2396 285.899 79.4705 276.13 67.4196 276.13C55.3688 276.13 45.5996 285.899 45.5996 297.95C45.5996 310.001 55.3688 319.77 67.4196 319.77Z" fill="#0D51D9"/>
<path d="M64.5701 297.93L61.6801 295.03V296.76H53.6201V299.09H61.6801V300.82L64.5701 297.93Z" fill="white"/>
<path d="M70.2695 297.93L73.1695 300.82V299.09H81.2295V296.76H73.1695V295.03L70.2695 297.93Z" fill="white"/>
<path d="M67.4203 311.47L70.3203 308.58H68.5903V300.52H66.2603V308.58H64.5303L67.4203 311.47Z" fill="white"/>
<path d="M67.4203 284.44L64.5303 287.33H66.2603V295.39H68.5903V287.33H70.3203L67.4203 284.44Z" fill="white"/>
<path d="M294.88 564.69C314.072 564.69 329.63 549.132 329.63 529.94C329.63 510.748 314.072 495.19 294.88 495.19C275.688 495.19 260.13 510.748 260.13 529.94C260.13 549.132 275.688 564.69 294.88 564.69Z" fill="white" stroke="#9F9F9F" stroke-width="0.5"/>
<path d="M313.55 522.75V518.54C313.553 518.041 313.456 517.546 313.266 517.084C313.076 516.623 312.796 516.203 312.442 515.851C312.089 515.498 311.669 515.219 311.207 515.03C310.744 514.841 310.249 514.746 309.75 514.75H279.99C279.494 514.749 279.003 514.845 278.544 515.034C278.086 515.223 277.669 515.501 277.318 515.851C276.967 516.201 276.688 516.617 276.498 517.075C276.308 517.533 276.21 518.024 276.21 518.52V522.75H313.55ZM302.55 517.75H308.4C308.665 517.75 308.92 517.855 309.107 518.043C309.295 518.231 309.4 518.485 309.4 518.75C309.4 519.015 309.295 519.27 309.107 519.457C308.92 519.645 308.665 519.75 308.4 519.75H302.55C302.285 519.75 302.03 519.645 301.843 519.457C301.655 519.27 301.55 519.015 301.55 518.75C301.55 518.485 301.655 518.231 301.843 518.043C302.03 517.855 302.285 517.75 302.55 517.75ZM289.14 517.36C289.405 517.35 289.666 517.419 289.892 517.558C290.118 517.697 290.297 517.9 290.407 518.141C290.518 518.382 290.554 518.65 290.512 518.912C290.47 519.173 290.351 519.417 290.171 519.611C289.991 519.805 289.757 519.941 289.499 520.003C289.242 520.064 288.972 520.048 288.723 519.956C288.475 519.864 288.259 519.7 288.104 519.485C287.948 519.271 287.86 519.015 287.85 518.75C287.847 518.391 287.984 518.045 288.233 517.785C288.481 517.526 288.821 517.373 289.18 517.36H289.14ZM285.21 517.36C285.475 517.358 285.735 517.435 285.957 517.581C286.179 517.727 286.352 517.936 286.455 518.18C286.558 518.425 286.586 518.695 286.535 518.955C286.485 519.216 286.358 519.456 286.171 519.644C285.984 519.832 285.745 519.961 285.485 520.014C285.225 520.066 284.955 520.04 284.709 519.939C284.464 519.838 284.254 519.666 284.106 519.446C283.959 519.225 283.88 518.966 283.88 518.7C283.881 518.522 283.918 518.346 283.987 518.182C284.057 518.018 284.159 517.869 284.286 517.745C284.413 517.62 284.564 517.522 284.729 517.456C284.895 517.39 285.072 517.357 285.25 517.36H285.21ZM281.28 517.36C281.545 517.358 281.805 517.435 282.027 517.581C282.249 517.727 282.422 517.936 282.525 518.18C282.628 518.425 282.656 518.695 282.605 518.955C282.555 519.216 282.428 519.456 282.241 519.644C282.054 519.832 281.815 519.961 281.555 520.014C281.295 520.066 281.025 520.04 280.779 519.939C280.534 519.838 280.324 519.666 280.176 519.446C280.029 519.225 279.95 518.966 279.95 518.7C279.951 518.522 279.988 518.346 280.057 518.182C280.127 518.018 280.229 517.869 280.356 517.745C280.483 517.62 280.634 517.522 280.799 517.456C280.965 517.39 281.142 517.357 281.32 517.36H281.28Z" fill="#0D51D9"/>
<path d="M299.91 531.55V538.62C300.39 538.645 300.87 538.573 301.322 538.407C301.773 538.241 302.185 537.985 302.534 537.654C302.883 537.323 303.161 536.925 303.35 536.483C303.54 536.041 303.638 535.566 303.638 535.085C303.638 534.604 303.54 534.129 303.35 533.687C303.161 533.245 302.883 532.847 302.534 532.516C302.185 532.185 301.773 531.929 301.322 531.763C300.87 531.597 300.39 531.524 299.91 531.55Z" fill="#0D51D9"/>
<path d="M276.21 525.06V541.34C276.21 541.836 276.308 542.327 276.498 542.785C276.688 543.243 276.967 543.659 277.318 544.009C277.669 544.36 278.086 544.637 278.544 544.826C279.003 545.015 279.494 545.111 279.99 545.11H309.75C310.245 545.11 310.735 545.013 311.193 544.823C311.65 544.634 312.066 544.356 312.416 544.006C312.766 543.656 313.044 543.24 313.233 542.783C313.422 542.325 313.52 541.835 313.52 541.34V525.06H276.21ZM294.45 536.06C294.731 536.06 295.001 536.172 295.199 536.371C295.398 536.569 295.51 536.839 295.51 537.12C295.51 537.401 295.398 537.671 295.199 537.87C295.001 538.068 294.731 538.18 294.45 538.18H291.93V539.75C291.93 540.015 291.825 540.27 291.637 540.457C291.45 540.645 291.195 540.75 290.93 540.75H289.93C288.625 540.753 287.359 540.299 286.354 539.466C285.35 538.633 284.669 537.473 284.43 536.19H281.56C281.295 536.164 281.05 536.041 280.871 535.844C280.692 535.647 280.593 535.391 280.593 535.125C280.593 534.859 280.692 534.603 280.871 534.406C281.05 534.209 281.295 534.086 281.56 534.06H284.39C284.633 532.776 285.315 531.617 286.318 530.78C287.321 529.943 288.583 529.48 289.89 529.47H290.89C291.155 529.47 291.41 529.575 291.597 529.763C291.785 529.95 291.89 530.205 291.89 530.47V532.04H294.4C294.681 532.04 294.951 532.152 295.149 532.351C295.348 532.549 295.46 532.819 295.46 533.1C295.46 533.381 295.348 533.651 295.149 533.85C294.951 534.048 294.681 534.16 294.4 534.16H291.89V536.01L294.45 536.06ZM308.25 536.18H305.42C305.174 537.462 304.489 538.618 303.484 539.45C302.479 540.282 301.215 540.738 299.91 540.74H298.91C298.645 540.74 298.39 540.635 298.203 540.447C298.015 540.26 297.91 540.005 297.91 539.74V530.58C297.91 530.315 298.015 530.06 298.203 529.873C298.39 529.685 298.645 529.58 298.91 529.58H299.91C301.221 529.578 302.491 530.036 303.498 530.875C304.505 531.714 305.185 532.88 305.42 534.17H308.25C308.515 534.17 308.77 534.275 308.957 534.463C309.145 534.65 309.25 534.905 309.25 535.17C309.25 535.435 309.145 535.69 308.957 535.877C308.77 536.065 308.515 536.17 308.25 536.17V536.18Z" fill="#0D51D9"/>
<g filter="url(#filter0_d_1452_9905)">
<rect x="462" y="219" width="122" height="41" rx="20.5" fill="white"/>
<path d="M495.881 246V234.608H494.153V239.472H489.529V234.608H487.801V246H489.529V241.024H494.153V246H495.881ZM505.135 242.416V241.696C505.135 239.392 503.871 237.792 501.695 237.792C499.615 237.792 498.255 239.312 498.255 241.936C498.255 245.024 499.871 246.096 501.903 246.096C503.327 246.096 504.111 245.664 504.943 244.832L503.903 243.856C503.327 244.432 502.847 244.688 501.935 244.688C500.607 244.688 499.871 243.808 499.871 242.416H505.135ZM503.519 241.28H499.871C499.887 240.784 499.919 240.544 500.079 240.176C500.335 239.568 500.927 239.152 501.695 239.152C502.463 239.152 503.039 239.568 503.295 240.176C503.455 240.544 503.503 240.784 503.519 241.28ZM510.48 246V244.608H509.76C509.104 244.608 508.88 244.288 508.88 243.664V234.608H507.248V243.76C507.248 244.96 507.92 246 509.472 246H510.48ZM518.905 241.936C518.905 240.704 518.809 239.328 517.993 238.512C517.545 238.064 516.825 237.792 516.009 237.792C515.129 237.792 514.473 238.016 513.865 238.752V237.888H512.265V249.28H513.897V245.168C514.489 245.872 515.161 246.096 516.025 246.096C516.841 246.096 517.545 245.824 517.993 245.376C518.809 244.56 518.905 243.168 518.905 241.936ZM517.273 241.936C517.273 243.376 517.065 244.64 515.593 244.64C514.121 244.64 513.897 243.376 513.897 241.936C513.897 240.496 514.121 239.248 515.593 239.248C517.065 239.248 517.273 240.496 517.273 241.936ZM533.24 240.224C533.24 238.576 533.32 236.912 532.088 235.68C531.368 234.96 530.328 234.608 529.144 234.608H525.144V246H529.144C530.328 246 531.368 245.648 532.088 244.928C533.32 243.696 533.24 241.872 533.24 240.224ZM531.512 240.224C531.512 241.792 531.496 243.024 530.904 243.68C530.424 244.208 529.784 244.448 528.968 244.448H526.872V236.16H528.968C529.784 236.16 530.424 236.4 530.904 236.928C531.496 237.584 531.512 238.656 531.512 240.224ZM542.073 242.416V241.696C542.073 239.392 540.809 237.792 538.633 237.792C536.553 237.792 535.193 239.312 535.193 241.936C535.193 245.024 536.809 246.096 538.841 246.096C540.265 246.096 541.049 245.664 541.881 244.832L540.841 243.856C540.265 244.432 539.785 244.688 538.873 244.688C537.545 244.688 536.809 243.808 536.809 242.416H542.073ZM540.457 241.28H536.809C536.825 240.784 536.857 240.544 537.017 240.176C537.273 239.568 537.865 239.152 538.633 239.152C539.401 239.152 539.977 239.568 540.233 240.176C540.393 240.544 540.441 240.784 540.457 241.28ZM550.234 243.52C550.234 242.08 549.338 241.36 547.818 241.232L546.538 241.12C545.674 241.04 545.418 240.672 545.418 240.192C545.418 239.584 545.914 239.152 546.89 239.152C547.658 239.152 548.378 239.312 548.89 239.744L549.914 238.704C549.162 238.048 548.122 237.792 546.906 237.792C545.21 237.792 543.85 238.688 543.85 240.272C543.85 241.696 544.73 242.384 546.25 242.512L547.546 242.624C548.33 242.688 548.634 243.04 548.634 243.584C548.634 244.352 547.85 244.704 546.858 244.704C546.058 244.704 545.178 244.528 544.522 243.856L543.45 244.928C544.41 245.872 545.53 246.096 546.858 246.096C548.794 246.096 550.234 245.216 550.234 243.52ZM559.338 246L556.17 241.072L558.986 237.888H557.002L553.85 241.632V234.608H552.218V246H553.85V243.616L555.05 242.256L557.322 246H559.338Z" fill="#231F20"/>
</g>
<path d="M523 269L515.206 260L530.795 260L523 269Z" fill="white"/>
<g filter="url(#filter1_d_1452_9905)">
<rect x="24" y="219" width="82" height="41" rx="20.5" fill="white"/>
<path d="M58.064 246V234.608H56.336V242.608L51.072 234.608H49.488V246H51.216V237.984L56.48 246H58.064ZM71.0829 246V234.608H69.3549L66.0909 241.696L62.7629 234.608H61.0349V246H62.7629V238.384L65.4509 243.936H66.7309L69.3549 238.384V246H71.0829ZM81.1705 242.752C81.1705 241.776 80.8665 240.96 80.2425 240.416C79.7625 239.984 79.1705 239.728 78.1145 239.568L76.8185 239.376C76.2905 239.296 75.8265 239.104 75.5385 238.848C75.2345 238.576 75.1065 238.208 75.1065 237.792C75.1065 236.784 75.8425 236.016 77.1865 236.016C78.1465 236.016 78.9625 236.224 79.6665 236.896L80.7705 235.808C79.7945 234.896 78.7385 234.512 77.2345 234.512C74.8665 234.512 73.4265 235.872 73.4265 237.856C73.4265 238.784 73.6985 239.504 74.2585 240.032C74.7545 240.496 75.4905 240.816 76.4185 240.944L77.7625 241.136C78.4345 241.232 78.7225 241.344 79.0105 241.616C79.3145 241.888 79.4585 242.304 79.4585 242.8C79.4585 243.904 78.5945 244.544 77.1065 244.544C75.9385 244.544 75.0265 244.288 74.1945 243.456L73.0425 244.592C74.1305 245.696 75.3625 246.096 77.0745 246.096C79.4585 246.096 81.1705 244.848 81.1705 242.752Z" fill="#231F20"/>
</g>
<path d="M65.0003 269L57.2061 260L72.7945 260L65.0003 269Z" fill="white"/>
<g filter="url(#filter2_d_1452_9905)">
<rect x="352" y="59" width="186" height="41" rx="20.5" fill="white"/>
<path d="M386.114 86L381.938 74.608H380.546L376.37 86H378.21L378.994 83.712H383.49L384.274 86H386.114ZM383.01 82.24H379.506L381.282 77.184L383.01 82.24ZM393.538 83.52C393.538 82.08 392.642 81.36 391.122 81.232L389.842 81.12C388.978 81.04 388.722 80.672 388.722 80.192C388.722 79.584 389.218 79.152 390.194 79.152C390.962 79.152 391.682 79.312 392.194 79.744L393.218 78.704C392.466 78.048 391.426 77.792 390.21 77.792C388.514 77.792 387.154 78.688 387.154 80.272C387.154 81.696 388.034 82.384 389.554 82.512L390.85 82.624C391.634 82.688 391.938 83.04 391.938 83.584C391.938 84.352 391.154 84.704 390.162 84.704C389.362 84.704 388.482 84.528 387.826 83.856L386.754 84.928C387.714 85.872 388.834 86.096 390.162 86.096C392.098 86.096 393.538 85.216 393.538 83.52ZM401.429 83.52C401.429 82.08 400.533 81.36 399.013 81.232L397.733 81.12C396.869 81.04 396.613 80.672 396.613 80.192C396.613 79.584 397.109 79.152 398.085 79.152C398.853 79.152 399.573 79.312 400.085 79.744L401.109 78.704C400.357 78.048 399.317 77.792 398.101 77.792C396.405 77.792 395.045 78.688 395.045 80.272C395.045 81.696 395.925 82.384 397.445 82.512L398.741 82.624C399.525 82.688 399.829 83.04 399.829 83.584C399.829 84.352 399.045 84.704 398.053 84.704C397.253 84.704 396.373 84.528 395.717 83.856L394.645 84.928C395.605 85.872 396.725 86.096 398.053 86.096C399.989 86.096 401.429 85.216 401.429 83.52ZM409.877 82.416V81.696C409.877 79.392 408.613 77.792 406.437 77.792C404.357 77.792 402.997 79.312 402.997 81.936C402.997 85.024 404.613 86.096 406.645 86.096C408.069 86.096 408.853 85.664 409.685 84.832L408.645 83.856C408.069 84.432 407.589 84.688 406.677 84.688C405.349 84.688 404.613 83.808 404.613 82.416H409.877ZM408.261 81.28H404.613C404.629 80.784 404.661 80.544 404.821 80.176C405.077 79.568 405.669 79.152 406.437 79.152C407.205 79.152 407.781 79.568 408.037 80.176C408.197 80.544 408.245 80.784 408.261 81.28ZM415.43 86V84.608H414.758C414.15 84.608 413.862 84.256 413.862 83.664V79.28H415.43V78.032H413.862V75.568H412.23V78.032H411.302V79.28H412.23V83.744C412.23 84.912 412.934 86 414.454 86H415.43ZM431.591 86V74.608H429.863L426.599 81.696L423.271 74.608H421.543V86H423.271V78.384L425.959 83.936H427.239L429.863 78.384V86H431.591ZM440.334 86V80.576C440.334 78.736 439.214 77.792 436.99 77.792C435.646 77.792 434.846 78.064 434.078 78.96L435.15 79.968C435.598 79.392 436.03 79.184 436.926 79.184C438.19 79.184 438.702 79.68 438.702 80.704V81.28H436.558C434.702 81.28 433.758 82.256 433.758 83.616C433.758 84.304 433.982 84.928 434.398 85.36C434.894 85.856 435.566 86.096 436.574 86.096C437.582 86.096 438.142 85.856 438.734 85.264V86H440.334ZM438.702 83.072C438.702 83.648 438.59 84.032 438.35 84.272C437.918 84.688 437.454 84.736 436.83 84.736C435.806 84.736 435.342 84.32 435.342 83.584C435.342 82.848 435.838 82.416 436.798 82.416H438.702V83.072ZM449.427 86V80.816C449.427 79.904 449.235 79.136 448.611 78.528C448.131 78.064 447.443 77.792 446.611 77.792C445.795 77.792 445.011 78.096 444.451 78.704V77.888H442.851V86H444.483V81.056C444.483 79.808 445.251 79.248 446.163 79.248C447.075 79.248 447.795 79.792 447.795 81.056V86H449.427ZM457.912 86V80.576C457.912 78.736 456.792 77.792 454.568 77.792C453.224 77.792 452.424 78.064 451.656 78.96L452.728 79.968C453.176 79.392 453.608 79.184 454.504 79.184C455.768 79.184 456.28 79.68 456.28 80.704V81.28H454.136C452.28 81.28 451.336 82.256 451.336 83.616C451.336 84.304 451.56 84.928 451.976 85.36C452.472 85.856 453.144 86.096 454.152 86.096C455.16 86.096 455.72 85.856 456.312 85.264V86H457.912ZM456.28 83.072C456.28 83.648 456.168 84.032 455.928 84.272C455.496 84.688 455.032 84.736 454.408 84.736C453.384 84.736 452.92 84.32 452.92 83.584C452.92 82.848 453.416 82.416 454.376 82.416H456.28V83.072ZM466.621 85.952V77.888H465.037V78.752C464.429 78.016 463.773 77.792 462.909 77.792C462.093 77.792 461.405 78.048 460.957 78.496C460.173 79.28 460.045 80.416 460.045 81.792C460.045 83.168 460.173 84.304 460.957 85.088C461.405 85.536 462.077 85.808 462.893 85.808C463.725 85.808 464.397 85.584 464.989 84.88V85.92C464.989 87.008 464.461 87.984 463.085 87.984C462.285 87.984 461.837 87.744 461.325 87.264L460.285 88.304C461.133 89.088 461.917 89.376 463.149 89.376C465.309 89.376 466.621 87.936 466.621 85.952ZM464.989 81.792C464.989 83.072 464.813 84.336 463.341 84.336C461.869 84.336 461.677 83.072 461.677 81.792C461.677 80.512 461.869 79.248 463.341 79.248C464.813 79.248 464.989 80.512 464.989 81.792ZM475.674 82.416V81.696C475.674 79.392 474.41 77.792 472.234 77.792C470.154 77.792 468.794 79.312 468.794 81.936C468.794 85.024 470.41 86.096 472.442 86.096C473.866 86.096 474.65 85.664 475.482 84.832L474.442 83.856C473.866 84.432 473.386 84.688 472.474 84.688C471.146 84.688 470.41 83.808 470.41 82.416H475.674ZM474.058 81.28H470.41C470.426 80.784 470.458 80.544 470.618 80.176C470.874 79.568 471.466 79.152 472.234 79.152C473.002 79.152 473.578 79.568 473.834 80.176C473.994 80.544 474.042 80.784 474.058 81.28ZM489.355 86V80.816C489.355 79.904 489.115 79.136 488.491 78.528C488.011 78.064 487.275 77.792 486.443 77.792C485.371 77.792 484.555 78.176 483.899 78.976C483.387 78.192 482.603 77.792 481.595 77.792C480.779 77.792 479.979 78.112 479.435 78.704V77.888H477.835V86H479.467V81.056C479.467 79.808 480.235 79.248 481.147 79.248C482.059 79.248 482.779 79.792 482.779 81.056V86H484.411V80.976C484.411 79.808 485.211 79.248 486.091 79.248C487.003 79.248 487.723 79.792 487.723 81.056V86H489.355ZM498.33 82.416V81.696C498.33 79.392 497.066 77.792 494.89 77.792C492.81 77.792 491.45 79.312 491.45 81.936C491.45 85.024 493.066 86.096 495.098 86.096C496.522 86.096 497.306 85.664 498.138 84.832L497.098 83.856C496.522 84.432 496.042 84.688 495.13 84.688C493.802 84.688 493.066 83.808 493.066 82.416H498.33ZM496.714 81.28H493.066C493.082 80.784 493.114 80.544 493.274 80.176C493.53 79.568 494.122 79.152 494.89 79.152C495.658 79.152 496.234 79.568 496.49 80.176C496.65 80.544 496.698 80.784 496.714 81.28ZM507.067 86V80.816C507.067 79.904 506.875 79.136 506.251 78.528C505.771 78.064 505.083 77.792 504.251 77.792C503.435 77.792 502.651 78.096 502.091 78.704V77.888H500.491V86H502.123V81.056C502.123 79.808 502.891 79.248 503.803 79.248C504.715 79.248 505.435 79.792 505.435 81.056V86H507.067ZM512.977 86V84.608H512.305C511.697 84.608 511.409 84.256 511.409 83.664V79.28H512.977V78.032H511.409V75.568H509.777V78.032H508.849V79.28H509.777V83.744C509.777 84.912 510.481 86 512.001 86H512.977Z" fill="#231F20"/>
</g>
<path d="M445 109L437.206 100L452.795 100L445 109Z" fill="white"/>
<g filter="url(#filter3_d_1452_9905)">
<rect x="236" y="14" width="104" height="41" rx="20.5" fill="white"/>
<path d="M269.248 37.592H267.504C267.232 38.744 266.448 39.544 265.184 39.544C264.512 39.544 263.904 39.288 263.504 38.856C262.944 38.248 262.816 37.592 262.816 35.304C262.816 33.016 262.944 32.36 263.504 31.752C263.904 31.32 264.512 31.064 265.184 31.064C266.448 31.064 267.216 31.864 267.488 33.016H269.248C268.848 30.744 267.28 29.512 265.184 29.512C264 29.512 262.976 29.944 262.192 30.728C261.072 31.848 261.088 33.112 261.088 35.304C261.088 37.496 261.072 38.76 262.192 39.88C262.976 40.664 264 41.096 265.184 41.096C267.248 41.096 268.864 39.864 269.248 37.592ZM277.903 41V35.768C277.903 34.008 276.895 32.792 275.087 32.792C274.286 32.792 273.551 33.096 272.991 33.704V29.608H271.359V41H272.991V36.024C272.991 34.808 273.727 34.248 274.639 34.248C275.551 34.248 276.271 34.792 276.271 36.024V41H277.903ZM286.389 41V35.576C286.389 33.736 285.269 32.792 283.045 32.792C281.701 32.792 280.901 33.064 280.133 33.96L281.205 34.968C281.653 34.392 282.085 34.184 282.981 34.184C284.245 34.184 284.757 34.68 284.757 35.704V36.28H282.613C280.757 36.28 279.813 37.256 279.813 38.616C279.813 39.304 280.037 39.928 280.453 40.36C280.949 40.856 281.621 41.096 282.629 41.096C283.637 41.096 284.197 40.856 284.789 40.264V41H286.389ZM284.757 38.072C284.757 38.648 284.645 39.032 284.405 39.272C283.973 39.688 283.509 39.736 282.885 39.736C281.861 39.736 281.397 39.32 281.397 38.584C281.397 37.848 281.893 37.416 282.853 37.416H284.757V38.072ZM292.297 41V39.608H291.625C291.017 39.608 290.729 39.256 290.729 38.664V34.28H292.297V33.032H290.729V30.568H289.097V33.032H288.169V34.28H289.097V38.744C289.097 39.912 289.801 41 291.321 41H292.297ZM301.014 36.936C301.014 35.704 300.918 34.328 300.102 33.512C299.654 33.064 298.95 32.792 298.134 32.792C297.27 32.792 296.598 33 296.006 33.704V29.608H294.374V41H295.974V40.136C296.582 40.872 297.238 41.096 298.118 41.096C298.934 41.096 299.654 40.824 300.102 40.376C300.918 39.56 301.014 38.168 301.014 36.936ZM299.382 36.936C299.382 38.376 299.174 39.64 297.702 39.64C296.23 39.64 296.006 38.376 296.006 36.936C296.006 35.496 296.23 34.248 297.702 34.248C299.174 34.248 299.382 35.496 299.382 36.936ZM309.602 36.936C309.602 35.576 309.41 34.552 308.642 33.752C308.114 33.208 307.314 32.792 306.21 32.792C305.106 32.792 304.322 33.208 303.794 33.752C303.026 34.552 302.834 35.576 302.834 36.936C302.834 38.312 303.026 39.336 303.794 40.136C304.322 40.68 305.106 41.096 306.21 41.096C307.314 41.096 308.114 40.68 308.642 40.136C309.41 39.336 309.602 38.312 309.602 36.936ZM307.97 36.936C307.97 37.816 307.906 38.664 307.41 39.16C307.106 39.464 306.69 39.64 306.21 39.64C305.73 39.64 305.33 39.464 305.026 39.16C304.53 38.664 304.466 37.816 304.466 36.936C304.466 36.056 304.53 35.208 305.026 34.712C305.33 34.408 305.73 34.248 306.21 34.248C306.69 34.248 307.106 34.408 307.41 34.712C307.906 35.208 307.97 36.056 307.97 36.936ZM315.204 41V39.608H314.532C313.924 39.608 313.636 39.256 313.636 38.664V34.28H315.204V33.032H313.636V30.568H312.004V33.032H311.076V34.28H312.004V38.744C312.004 39.912 312.708 41 314.228 41H315.204Z" fill="#231F20"/>
</g>
<path d="M288 64L280.206 55L295.795 55L288 64Z" fill="white"/>
<g filter="url(#filter4_d_1452_9905)">
<rect x="422" y="376" width="80" height="41" rx="20.5" fill="white"/>
<path d="M449.529 403V391.608H447.801V403H449.529ZM459.496 393.16V391.608H451.496V393.16H454.632V403H456.36V393.16H459.496ZM463.185 403V391.608H461.457V403H463.185ZM476.208 403V391.608H474.48L471.216 398.696L467.888 391.608H466.16V403H467.888V395.384L470.576 400.936H471.856L474.48 395.384V403H476.208Z" fill="#231F20"/>
</g>
<path d="M462 426L454.206 417L469.795 417L462 426Z" fill="white"/>
<g filter="url(#filter5_d_1452_9905)">
<rect x="216" y="449" width="159" height="41" rx="20.5" fill="white"/>
<path d="M249.927 476L245.751 464.608H244.359L240.183 476H242.023L242.807 473.712H247.303L248.087 476H249.927ZM246.823 472.24H243.319L245.095 467.184L246.823 472.24ZM257.991 471.936C257.991 470.704 257.895 469.328 257.079 468.512C256.631 468.064 255.911 467.792 255.095 467.792C254.215 467.792 253.559 468.016 252.951 468.752V467.888H251.351V479.28H252.983V475.168C253.575 475.872 254.247 476.096 255.111 476.096C255.927 476.096 256.631 475.824 257.079 475.376C257.895 474.56 257.991 473.168 257.991 471.936ZM256.359 471.936C256.359 473.376 256.151 474.64 254.679 474.64C253.207 474.64 252.983 473.376 252.983 471.936C252.983 470.496 253.207 469.248 254.679 469.248C256.151 469.248 256.359 470.496 256.359 471.936ZM266.834 471.936C266.834 470.704 266.738 469.328 265.922 468.512C265.474 468.064 264.754 467.792 263.938 467.792C263.058 467.792 262.402 468.016 261.794 468.752V467.888H260.194V479.28H261.826V475.168C262.418 475.872 263.09 476.096 263.954 476.096C264.77 476.096 265.474 475.824 265.922 475.376C266.738 474.56 266.834 473.168 266.834 471.936ZM265.202 471.936C265.202 473.376 264.994 474.64 263.522 474.64C262.05 474.64 261.826 473.376 261.826 471.936C261.826 470.496 262.05 469.248 263.522 469.248C264.994 469.248 265.202 470.496 265.202 471.936ZM274.802 476V464.608H273.074V476H274.802ZM284.161 476V470.816C284.161 469.904 283.969 469.136 283.345 468.528C282.865 468.064 282.177 467.792 281.345 467.792C280.529 467.792 279.745 468.096 279.185 468.704V467.888H277.585V476H279.217V471.056C279.217 469.808 279.985 469.248 280.897 469.248C281.809 469.248 282.529 469.792 282.529 471.056V476H284.161ZM290.071 476V474.608H289.399C288.791 474.608 288.503 474.256 288.503 473.664V469.28H290.071V468.032H288.503V465.568H286.871V468.032H285.943V469.28H286.871V473.744C286.871 474.912 287.575 476 289.095 476H290.071ZM298.565 472.416V471.696C298.565 469.392 297.301 467.792 295.125 467.792C293.045 467.792 291.685 469.312 291.685 471.936C291.685 475.024 293.301 476.096 295.333 476.096C296.757 476.096 297.541 475.664 298.373 474.832L297.333 473.856C296.757 474.432 296.277 474.688 295.365 474.688C294.037 474.688 293.301 473.808 293.301 472.416H298.565ZM296.949 471.28H293.301C293.317 470.784 293.349 470.544 293.509 470.176C293.765 469.568 294.357 469.152 295.125 469.152C295.893 469.152 296.469 469.568 296.725 470.176C296.885 470.544 296.933 470.784 296.949 471.28ZM306.918 475.952V467.888H305.334V468.752C304.726 468.016 304.07 467.792 303.206 467.792C302.39 467.792 301.702 468.048 301.254 468.496C300.47 469.28 300.342 470.416 300.342 471.792C300.342 473.168 300.47 474.304 301.254 475.088C301.702 475.536 302.374 475.808 303.19 475.808C304.022 475.808 304.694 475.584 305.286 474.88V475.92C305.286 477.008 304.758 477.984 303.382 477.984C302.582 477.984 302.134 477.744 301.622 477.264L300.582 478.304C301.43 479.088 302.214 479.376 303.446 479.376C305.606 479.376 306.918 477.936 306.918 475.952ZM305.286 471.792C305.286 473.072 305.11 474.336 303.638 474.336C302.166 474.336 301.974 473.072 301.974 471.792C301.974 470.512 302.166 469.248 303.638 469.248C305.11 469.248 305.286 470.512 305.286 471.792ZM315.203 468.56C314.643 468 314.051 467.792 313.267 467.792C312.355 467.792 311.523 468.192 311.107 468.768V467.888H309.507V476H311.139V471.072C311.139 469.952 311.875 469.248 312.755 469.248C313.315 469.248 313.603 469.424 313.971 469.792L315.203 468.56ZM322.35 476V470.576C322.35 468.736 321.23 467.792 319.006 467.792C317.662 467.792 316.862 468.064 316.094 468.96L317.166 469.968C317.614 469.392 318.046 469.184 318.942 469.184C320.206 469.184 320.718 469.68 320.718 470.704V471.28H318.574C316.718 471.28 315.774 472.256 315.774 473.616C315.774 474.304 315.998 474.928 316.414 475.36C316.91 475.856 317.582 476.096 318.59 476.096C319.598 476.096 320.158 475.856 320.75 475.264V476H322.35ZM320.718 473.072C320.718 473.648 320.606 474.032 320.366 474.272C319.934 474.688 319.47 474.736 318.846 474.736C317.822 474.736 317.358 474.32 317.358 473.584C317.358 472.848 317.854 472.416 318.814 472.416H320.718V473.072ZM328.258 476V474.608H327.586C326.978 474.608 326.69 474.256 326.69 473.664V469.28H328.258V468.032H326.69V465.568H325.058V468.032H324.13V469.28H325.058V473.744C325.058 474.912 325.762 476 327.282 476H328.258ZM331.967 476V467.888H330.335V476H331.967ZM332.015 466.288V464.56H330.287V466.288H332.015ZM340.938 471.936C340.938 470.576 340.746 469.552 339.978 468.752C339.45 468.208 338.65 467.792 337.546 467.792C336.442 467.792 335.658 468.208 335.13 468.752C334.362 469.552 334.17 470.576 334.17 471.936C334.17 473.312 334.362 474.336 335.13 475.136C335.658 475.68 336.442 476.096 337.546 476.096C338.65 476.096 339.45 475.68 339.978 475.136C340.746 474.336 340.938 473.312 340.938 471.936ZM339.306 471.936C339.306 472.816 339.242 473.664 338.746 474.16C338.442 474.464 338.026 474.64 337.546 474.64C337.066 474.64 336.666 474.464 336.362 474.16C335.866 473.664 335.802 472.816 335.802 471.936C335.802 471.056 335.866 470.208 336.362 469.712C336.666 469.408 337.066 469.248 337.546 469.248C338.026 469.248 338.442 469.408 338.746 469.712C339.242 470.208 339.306 471.056 339.306 471.936ZM349.724 476V470.816C349.724 469.904 349.532 469.136 348.908 468.528C348.428 468.064 347.74 467.792 346.908 467.792C346.092 467.792 345.308 468.096 344.748 468.704V467.888H343.148V476H344.78V471.056C344.78 469.808 345.548 469.248 346.46 469.248C347.372 469.248 348.092 469.792 348.092 471.056V476H349.724Z" fill="#231F20"/>
</g>
<path d="M295.5 499L287.706 490L303.295 490L295.5 499Z" fill="white"/>
<g filter="url(#filter6_d_1452_9905)">
<rect x="65" y="372" width="114" height="41" rx="20.5" fill="white"/>
<path d="M92.3176 399V387.608H90.5896V399H92.3176ZM101.677 399V393.816C101.677 392.904 101.485 392.136 100.861 391.528C100.381 391.064 99.6927 390.792 98.8607 390.792C98.0447 390.792 97.2607 391.096 96.7007 391.704V390.888H95.1007V399H96.7327V394.056C96.7327 392.808 97.5007 392.248 98.4127 392.248C99.3247 392.248 100.045 392.792 100.045 394.056V399H101.677ZM110.066 397.944L108.946 396.872C108.434 397.432 108.034 397.64 107.394 397.64C106.77 397.64 106.242 397.384 105.89 396.92C105.538 396.472 105.41 395.88 105.41 394.936C105.41 393.992 105.538 393.416 105.89 392.968C106.242 392.504 106.77 392.248 107.394 392.248C108.034 392.248 108.434 392.456 108.946 393.016L110.066 391.928C109.298 391.112 108.514 390.792 107.394 390.792C105.57 390.792 103.778 391.896 103.778 394.936C103.778 397.976 105.57 399.096 107.394 399.096C108.514 399.096 109.298 398.76 110.066 397.944ZM113.592 399V390.888H111.96V399H113.592ZM113.64 389.288V387.56H111.912V389.288H113.64ZM122.435 399V387.608H120.803V391.704C120.211 391 119.539 390.792 118.675 390.792C117.859 390.792 117.155 391.064 116.707 391.512C115.891 392.328 115.795 393.704 115.795 394.936C115.795 396.168 115.891 397.56 116.707 398.376C117.155 398.824 117.875 399.096 118.691 399.096C119.571 399.096 120.227 398.872 120.835 398.136V399H122.435ZM120.803 394.936C120.803 396.376 120.595 397.64 119.123 397.64C117.651 397.64 117.427 396.376 117.427 394.936C117.427 393.496 117.651 392.248 119.123 392.248C120.595 392.248 120.803 393.496 120.803 394.936ZM131.487 395.416V394.696C131.487 392.392 130.223 390.792 128.047 390.792C125.967 390.792 124.607 392.312 124.607 394.936C124.607 398.024 126.223 399.096 128.255 399.096C129.679 399.096 130.463 398.664 131.295 397.832L130.255 396.856C129.679 397.432 129.199 397.688 128.287 397.688C126.959 397.688 126.223 396.808 126.223 395.416H131.487ZM129.871 394.28H126.223C126.239 393.784 126.271 393.544 126.431 393.176C126.687 392.568 127.279 392.152 128.047 392.152C128.815 392.152 129.391 392.568 129.647 393.176C129.807 393.544 129.855 393.784 129.871 394.28ZM140.224 399V393.816C140.224 392.904 140.032 392.136 139.408 391.528C138.928 391.064 138.24 390.792 137.408 390.792C136.592 390.792 135.808 391.096 135.248 391.704V390.888H133.648V399H135.28V394.056C135.28 392.808 136.048 392.248 136.96 392.248C137.872 392.248 138.592 392.792 138.592 394.056V399H140.224ZM146.133 399V397.608H145.461C144.853 397.608 144.565 397.256 144.565 396.664V392.28H146.133V391.032H144.565V388.568H142.933V391.032H142.005V392.28H142.933V396.744C142.933 397.912 143.637 399 145.157 399H146.133ZM154.21 396.52C154.21 395.08 153.314 394.36 151.794 394.232L150.514 394.12C149.65 394.04 149.394 393.672 149.394 393.192C149.394 392.584 149.89 392.152 150.866 392.152C151.634 392.152 152.354 392.312 152.866 392.744L153.89 391.704C153.138 391.048 152.098 390.792 150.882 390.792C149.186 390.792 147.826 391.688 147.826 393.272C147.826 394.696 148.706 395.384 150.226 395.512L151.522 395.624C152.306 395.688 152.61 396.04 152.61 396.584C152.61 397.352 151.826 397.704 150.834 397.704C150.034 397.704 149.154 397.528 148.498 396.856L147.426 397.928C148.386 398.872 149.506 399.096 150.834 399.096C152.77 399.096 154.21 398.216 154.21 396.52Z" fill="#231F20"/>
</g>
<path d="M122 422L114.206 413L129.795 413L122 422Z" fill="white"/>
<g filter="url(#filter7_d_1452_9905)">
<rect x="89" y="59" width="85" height="41" rx="20.5" fill="white"/>
<path d="M116.661 86V74.608H114.933V86H116.661ZM126.628 76.16V74.608H118.628V76.16H121.764V86H123.492V76.16H126.628ZM135.71 82.752C135.71 81.776 135.406 80.96 134.782 80.416C134.302 79.984 133.71 79.728 132.654 79.568L131.358 79.376C130.83 79.296 130.366 79.104 130.078 78.848C129.774 78.576 129.646 78.208 129.646 77.792C129.646 76.784 130.382 76.016 131.726 76.016C132.686 76.016 133.502 76.224 134.206 76.896L135.31 75.808C134.334 74.896 133.278 74.512 131.774 74.512C129.406 74.512 127.966 75.872 127.966 77.856C127.966 78.784 128.238 79.504 128.798 80.032C129.294 80.496 130.03 80.816 130.958 80.944L132.302 81.136C132.974 81.232 133.262 81.344 133.55 81.616C133.854 81.888 133.998 82.304 133.998 82.8C133.998 83.904 133.134 84.544 131.646 84.544C130.478 84.544 129.566 84.288 128.734 83.456L127.582 84.592C128.67 85.696 129.902 86.096 131.614 86.096C133.998 86.096 135.71 84.848 135.71 82.752ZM148.075 86V74.608H146.347L143.083 81.696L139.755 74.608H138.027V86H139.755V78.384L142.443 83.936H143.723L146.347 78.384V86H148.075Z" fill="#231F20"/>
</g>
<path d="M131.5 109L123.706 100L139.295 100L131.5 109Z" fill="white"/>
<defs>
<filter id="filter0_d_1452_9905" x="438" y="205" width="170" height="89" filterUnits="userSpaceOnUse" color-interpolation-filters="sRGB">
<feFlood flood-opacity="0" result="BackgroundImageFix"/>
<feColorMatrix in="SourceAlpha" type="matrix" values="0 0 0 0 0 0 0 0 0 0 0 0 0 0 0 0 0 0 127 0" result="hardAlpha"/>
<feOffset dy="10"/>
<feGaussianBlur stdDeviation="12"/>
<feComposite in2="hardAlpha" operator="out"/>
<feColorMatrix type="matrix" values="0 0 0 0 0 0 0 0 0 0 0 0 0 0 0 0 0 0 0.12 0"/>
<feBlend mode="normal" in2="BackgroundImageFix" result="effect1_dropShadow_1452_9905"/>
<feBlend mode="normal" in="SourceGraphic" in2="effect1_dropShadow_1452_9905" result="shape"/>
</filter>
<filter id="filter1_d_1452_9905" x="0" y="205" width="130" height="89" filterUnits="userSpaceOnUse" color-interpolation-filters="sRGB">
<feFlood flood-opacity="0" result="BackgroundImageFix"/>
<feColorMatrix in="SourceAlpha" type="matrix" values="0 0 0 0 0 0 0 0 0 0 0 0 0 0 0 0 0 0 127 0" result="hardAlpha"/>
<feOffset dy="10"/>
<feGaussianBlur stdDeviation="12"/>
<feComposite in2="hardAlpha" operator="out"/>
<feColorMatrix type="matrix" values="0 0 0 0 0 0 0 0 0 0 0 0 0 0 0 0 0 0 0.12 0"/>
<feBlend mode="normal" in2="BackgroundImageFix" result="effect1_dropShadow_1452_9905"/>
<feBlend mode="normal" in="SourceGraphic" in2="effect1_dropShadow_1452_9905" result="shape"/>
</filter>
<filter id="filter2_d_1452_9905" x="328" y="45" width="234" height="89" filterUnits="userSpaceOnUse" color-interpolation-filters="sRGB">
<feFlood flood-opacity="0" result="BackgroundImageFix"/>
<feColorMatrix in="SourceAlpha" type="matrix" values="0 0 0 0 0 0 0 0 0 0 0 0 0 0 0 0 0 0 127 0" result="hardAlpha"/>
<feOffset dy="10"/>
<feGaussianBlur stdDeviation="12"/>
<feComposite in2="hardAlpha" operator="out"/>
<feColorMatrix type="matrix" values="0 0 0 0 0 0 0 0 0 0 0 0 0 0 0 0 0 0 0.12 0"/>
<feBlend mode="normal" in2="BackgroundImageFix" result="effect1_dropShadow_1452_9905"/>
<feBlend mode="normal" in="SourceGraphic" in2="effect1_dropShadow_1452_9905" result="shape"/>
</filter>
<filter id="filter3_d_1452_9905" x="212" y="0" width="152" height="89" filterUnits="userSpaceOnUse" color-interpolation-filters="sRGB">
<feFlood flood-opacity="0" result="BackgroundImageFix"/>
<feColorMatrix in="SourceAlpha" type="matrix" values="0 0 0 0 0 0 0 0 0 0 0 0 0 0 0 0 0 0 127 0" result="hardAlpha"/>
<feOffset dy="10"/>
<feGaussianBlur stdDeviation="12"/>
<feComposite in2="hardAlpha" operator="out"/>
<feColorMatrix type="matrix" values="0 0 0 0 0 0 0 0 0 0 0 0 0 0 0 0 0 0 0.12 0"/>
<feBlend mode="normal" in2="BackgroundImageFix" result="effect1_dropShadow_1452_9905"/>
<feBlend mode="normal" in="SourceGraphic" in2="effect1_dropShadow_1452_9905" result="shape"/>
</filter>
<filter id="filter4_d_1452_9905" x="398" y="362" width="128" height="89" filterUnits="userSpaceOnUse" color-interpolation-filters="sRGB">
<feFlood flood-opacity="0" result="BackgroundImageFix"/>
<feColorMatrix in="SourceAlpha" type="matrix" values="0 0 0 0 0 0 0 0 0 0 0 0 0 0 0 0 0 0 127 0" result="hardAlpha"/>
<feOffset dy="10"/>
<feGaussianBlur stdDeviation="12"/>
<feComposite in2="hardAlpha" operator="out"/>
<feColorMatrix type="matrix" values="0 0 0 0 0 0 0 0 0 0 0 0 0 0 0 0 0 0 0.12 0"/>
<feBlend mode="normal" in2="BackgroundImageFix" result="effect1_dropShadow_1452_9905"/>
<feBlend mode="normal" in="SourceGraphic" in2="effect1_dropShadow_1452_9905" result="shape"/>
</filter>
<filter id="filter5_d_1452_9905" x="192" y="435" width="207" height="89" filterUnits="userSpaceOnUse" color-interpolation-filters="sRGB">
<feFlood flood-opacity="0" result="BackgroundImageFix"/>
<feColorMatrix in="SourceAlpha" type="matrix" values="0 0 0 0 0 0 0 0 0 0 0 0 0 0 0 0 0 0 127 0" result="hardAlpha"/>
<feOffset dy="10"/>
<feGaussianBlur stdDeviation="12"/>
<feComposite in2="hardAlpha" operator="out"/>
<feColorMatrix type="matrix" values="0 0 0 0 0 0 0 0 0 0 0 0 0 0 0 0 0 0 0.12 0"/>
<feBlend mode="normal" in2="BackgroundImageFix" result="effect1_dropShadow_1452_9905"/>
<feBlend mode="normal" in="SourceGraphic" in2="effect1_dropShadow_1452_9905" result="shape"/>
</filter>
<filter id="filter6_d_1452_9905" x="41" y="358" width="162" height="89" filterUnits="userSpaceOnUse" color-interpolation-filters="sRGB">
<feFlood flood-opacity="0" result="BackgroundImageFix"/>
<feColorMatrix in="SourceAlpha" type="matrix" values="0 0 0 0 0 0 0 0 0 0 0 0 0 0 0 0 0 0 127 0" result="hardAlpha"/>
<feOffset dy="10"/>
<feGaussianBlur stdDeviation="12"/>
<feComposite in2="hardAlpha" operator="out"/>
<feColorMatrix type="matrix" values="0 0 0 0 0 0 0 0 0 0 0 0 0 0 0 0 0 0 0.12 0"/>
<feBlend mode="normal" in2="BackgroundImageFix" result="effect1_dropShadow_1452_9905"/>
<feBlend mode="normal" in="SourceGraphic" in2="effect1_dropShadow_1452_9905" result="shape"/>
</filter>
<filter id="filter7_d_1452_9905" x="65" y="45" width="133" height="89" filterUnits="userSpaceOnUse" color-interpolation-filters="sRGB">
<feFlood flood-opacity="0" result="BackgroundImageFix"/>
<feColorMatrix in="SourceAlpha" type="matrix" values="0 0 0 0 0 0 0 0 0 0 0 0 0 0 0 0 0 0 127 0" result="hardAlpha"/>
<feOffset dy="10"/>
<feGaussianBlur stdDeviation="12"/>
<feComposite in2="hardAlpha" operator="out"/>
<feColorMatrix type="matrix" values="0 0 0 0 0 0 0 0 0 0 0 0 0 0 0 0 0 0 0.12 0"/>
<feBlend mode="normal" in2="BackgroundImageFix" result="effect1_dropShadow_1452_9905"/>
<feBlend mode="normal" in="SourceGraphic" in2="effect1_dropShadow_1452_9905" result="shape"/>
</filter>
</defs>
</svg>
