<svg width="572" height="561" viewBox="0 0 572 561" fill="none" xmlns="http://www.w3.org/2000/svg">
<path d="M191.36 107.43C192.213 107.031 193.189 106.987 194.074 107.308C194.96 107.628 195.681 108.287 196.08 109.14C196.278 109.563 196.39 110.02 196.41 110.486C196.43 110.953 196.358 111.418 196.199 111.857C196.039 112.295 195.794 112.697 195.479 113.041C195.163 113.385 194.783 113.663 194.36 113.86C193.938 114.057 193.481 114.169 193.016 114.189C192.551 114.209 192.086 114.137 191.648 113.978C191.211 113.818 190.809 113.573 190.466 113.258C190.123 112.943 189.846 112.563 189.65 112.14C189.254 111.288 189.212 110.315 189.532 109.432C189.853 108.549 190.51 107.829 191.36 107.43Z" fill="#EB5757"/>
<path d="M77.38 113.75C77.5913 113.651 77.8202 113.594 78.0534 113.584C78.2866 113.573 78.5196 113.609 78.739 113.689C78.9584 113.769 79.1598 113.891 79.3315 114.049C79.5033 114.207 79.6422 114.398 79.74 114.61C79.9375 115.036 79.9578 115.522 79.7965 115.963C79.6353 116.404 79.3056 116.762 78.88 116.96C78.4541 117.158 77.967 117.181 77.5249 117.021C77.0828 116.862 76.7215 116.534 76.52 116.11C76.3249 115.682 76.3057 115.195 76.4666 114.754C76.6275 114.312 76.9556 113.952 77.38 113.75Z" fill="#0D51D9"/>
<path d="M409.09 75.7499C410.286 75.2029 411.649 75.1491 412.884 75.6002C414.12 76.0513 415.128 76.9709 415.69 78.1599C416.237 79.3547 416.293 80.717 415.843 81.9522C415.394 83.1874 414.477 84.196 413.29 84.7599C412.093 85.31 410.727 85.3655 409.489 84.9142C408.251 84.4629 407.242 83.5414 406.68 82.3499C406.133 81.1539 406.079 79.7906 406.53 78.5552C406.981 77.3199 407.901 76.312 409.09 75.7499Z" fill="#314468"/>
<path d="M139.37 164.97C140.053 164.652 140.834 164.618 141.542 164.875C142.251 165.132 142.829 165.658 143.15 166.34C143.464 167.025 143.495 167.806 143.237 168.514C142.978 169.222 142.451 169.799 141.77 170.12C141.087 170.437 140.306 170.469 139.599 170.21C138.892 169.952 138.317 169.423 138 168.74C137.682 168.058 137.648 167.279 137.905 166.572C138.162 165.865 138.689 165.289 139.37 164.97Z" fill="#0D51D9"/>
<path d="M409.69 192.26C410.543 191.865 411.517 191.824 412.4 192.146C413.283 192.469 414.002 193.128 414.4 193.98C414.597 194.402 414.709 194.858 414.73 195.323C414.751 195.788 414.68 196.252 414.521 196.69C414.363 197.127 414.119 197.529 413.805 197.872C413.49 198.216 413.112 198.493 412.69 198.69C411.837 199.089 410.861 199.133 409.976 198.813C409.09 198.492 408.369 197.833 407.97 196.98C407.772 196.557 407.66 196.1 407.64 195.634C407.62 195.167 407.692 194.702 407.851 194.264C408.011 193.825 408.256 193.423 408.571 193.079C408.887 192.735 409.267 192.457 409.69 192.26Z" fill="#27AE60"/>
<path d="M356.039 432.59C356.723 432.272 357.504 432.238 358.212 432.495C358.921 432.752 359.498 433.278 359.819 433.96C360.136 434.643 360.169 435.424 359.91 436.131C359.651 436.837 359.122 437.413 358.439 437.73C358.102 437.888 357.737 437.979 357.364 437.995C356.992 438.012 356.62 437.956 356.27 437.828C355.92 437.701 355.598 437.506 355.323 437.254C355.049 437.002 354.826 436.698 354.669 436.36C354.352 435.678 354.318 434.898 354.575 434.192C354.832 433.485 355.359 432.909 356.039 432.59Z" fill="#EB5757"/>
<path d="M70.5199 440.59C70.9471 440.392 71.4352 440.372 71.8775 440.533C72.3198 440.694 72.6802 441.024 72.8799 441.45C73.0778 441.877 73.0984 442.365 72.9372 442.808C72.776 443.25 72.4462 443.61 72.0199 443.81C71.5943 444.008 71.1076 444.028 70.6669 443.867C70.2262 443.705 69.8676 443.376 69.6699 442.95C69.5703 442.739 69.5132 442.511 69.502 442.278C69.4908 442.046 69.5257 441.813 69.6047 441.594C69.6837 441.374 69.8052 441.173 69.9623 441.001C70.1193 440.828 70.3088 440.689 70.5199 440.59Z" fill="#0D51D9"/>
<path d="M245.14 449.04C246.336 448.489 247.701 448.432 248.938 448.882C250.176 449.331 251.186 450.25 251.75 451.44C252.297 452.636 252.351 453.999 251.9 455.235C251.449 456.47 250.529 457.478 249.34 458.04C248.145 458.588 246.783 458.643 245.548 458.194C244.313 457.745 243.304 456.827 242.74 455.64C242.192 454.445 242.137 453.083 242.586 451.848C243.035 450.613 243.953 449.604 245.14 449.04Z" fill="#6FCF97"/>
<path d="M96.4903 491.8C96.1726 491.117 96.1384 490.336 96.3952 489.627C96.6519 488.919 97.1787 488.341 97.8603 488.02C98.5433 487.703 99.324 487.671 100.031 487.93C100.738 488.188 101.313 488.717 101.63 489.4C101.789 489.737 101.879 490.103 101.896 490.475C101.913 490.847 101.856 491.219 101.729 491.57C101.601 491.92 101.406 492.242 101.154 492.516C100.902 492.791 100.598 493.013 100.26 493.17C99.5786 493.487 98.7988 493.521 98.0921 493.264C97.3854 493.008 96.8093 492.481 96.4903 491.8Z" fill="#56CCF2"/>
<path d="M529.43 440.16C529.768 440.002 530.133 439.911 530.505 439.894C530.878 439.878 531.25 439.935 531.6 440.062C531.95 440.189 532.272 440.384 532.547 440.636C532.821 440.888 533.044 441.192 533.201 441.53C533.518 442.212 533.552 442.992 533.295 443.698C533.038 444.405 532.511 444.981 531.83 445.3C531.147 445.618 530.366 445.652 529.658 445.395C528.949 445.138 528.371 444.612 528.05 443.93C527.734 443.247 527.701 442.466 527.96 441.759C528.219 441.053 528.748 440.477 529.43 440.16Z" fill="#585357"/>
<path d="M418.53 456.61C419.725 456.062 421.087 456.007 422.322 456.456C423.557 456.905 424.566 457.823 425.13 459.01C425.678 460.205 425.733 461.567 425.284 462.802C424.835 464.038 423.917 465.046 422.73 465.61C421.534 466.161 420.169 466.218 418.932 465.768C417.694 465.319 416.684 464.4 416.12 463.21C415.573 462.014 415.519 460.651 415.97 459.415C416.421 458.18 417.341 457.172 418.53 456.61Z" fill="#9B51E0"/>
<path d="M162.07 457.46L163.5 465.53L155.8 462.72L162.07 457.46Z" fill="#F2994A"/>
<path d="M212.75 497.93L220.82 499.36L215.55 505.63L212.75 497.93Z" fill="#314468"/>
<path d="M319.409 169.31C321.37 169.31 322.959 167.721 322.959 165.76C322.959 163.799 321.37 162.21 319.409 162.21C317.449 162.21 315.859 163.799 315.859 165.76C315.859 167.721 317.449 169.31 319.409 169.31Z" fill="#2F80ED"/>
<path d="M505.09 161.97C508.354 161.97 511 159.324 511 156.06C511 152.796 508.354 150.15 505.09 150.15C501.826 150.15 499.18 152.796 499.18 156.06C499.18 159.324 501.826 161.97 505.09 161.97Z" fill="#314468"/>
<path d="M289.75 531.95C286.49 532.1 283.2 532.19 279.9 532.2V531.75H277.9V532.25C274.6 532.25 271.31 532.15 268.05 532V531.5L266.05 531.4V531.9C262.75 531.71 259.47 531.46 256.22 531.13V530.64L254.22 530.43V530.93C250.94 530.57 247.68 530.15 244.45 529.65L244.52 529.16L242.57 528.85L242.49 529.35C239.243 528.817 236.013 528.22 232.8 527.56L232.9 527.07L230.97 526.66L230.86 527.15C227.64 526.46 224.45 525.69 221.28 524.86L221.4 524.37L219.5 523.87L219.37 524.35C216.19 523.477 213.036 522.543 209.91 521.55L210.07 521.08L208.19 520.47L208.03 520.94C204.91 519.913 201.813 518.817 198.74 517.65L198.92 517.18L197.08 516.48L196.9 516.94C193.833 515.753 190.796 514.497 187.79 513.17L187.99 512.71L186.19 511.91L185.99 512.36C182.99 511.027 180.023 509.61 177.09 508.11L177.32 507.66L175.56 506.77L175.33 507.21C172.41 505.697 169.523 504.127 166.67 502.5L166.92 502.07L165.22 501.07L164.97 501.5C162.116 499.84 159.313 498.12 156.56 496.34L156.83 495.92L155.18 494.85L154.91 495.27C152.163 493.457 149.456 491.59 146.79 489.67L147.08 489.27L145.49 488.11L145.19 488.51C142.523 486.57 139.916 484.57 137.37 482.51L137.69 482.13L136.16 480.89L135.84 481.27C133.3 479.19 130.803 477.053 128.35 474.86L128.68 474.49C128.19 474.06 127.68 473.62 127.22 473.17L126.88 473.54C124.453 471.327 122.07 469.067 119.73 466.76L120.08 466.4L118.75 464.96L118.39 465.31C116.076 462.983 113.813 460.6 111.6 458.16L111.97 457.82C111.53 457.34 111.09 456.82 110.66 456.36L110.28 456.69C108.093 454.237 105.96 451.74 103.88 449.2L104.26 448.88L103.02 447.35L102.63 447.67C100.58 445.1 98.5697 442.5 96.6297 439.85L97.0297 439.55L95.8697 437.96L95.4597 438.25C93.5397 435.583 91.6764 432.877 89.8697 430.13L90.2897 429.86C89.9297 429.31 89.5697 428.76 89.2197 428.21L88.7997 428.48C87.0197 425.72 85.2997 422.917 83.6397 420.07L84.0697 419.82L83.3097 418.51L83.0797 418.12L82.6497 418.37C81.0164 415.517 79.4464 412.63 77.9397 409.71L78.3797 409.48C78.0797 408.89 77.7797 408.31 77.4897 407.72L77.0397 407.95C75.5597 405.017 74.143 402.05 72.7897 399.05L73.2397 398.85L72.4397 397.05L71.9797 397.25C70.6464 394.25 69.3897 391.213 68.2097 388.14L68.6697 387.96C68.4297 387.35 68.1997 386.74 67.9697 386.12L67.4997 386.3C66.3397 383.233 65.243 380.133 64.2097 377L64.6797 376.85C64.4797 376.22 64.2697 375.6 64.0697 374.97L63.5997 375.13C62.5997 372.003 61.6664 368.85 60.7997 365.67L61.2797 365.54L60.7697 363.64L60.2897 363.76C59.4597 360.59 58.6897 357.4 57.9997 354.17L58.4897 354.07C58.3497 353.43 58.2097 352.78 58.0797 352.14L57.5897 352.24C56.9197 349.03 56.3297 345.8 55.7997 342.55L56.2997 342.47C56.1897 341.82 56.0897 341.17 55.9897 340.47L55.4997 340.54C54.9997 337.31 54.5797 334.05 54.2197 330.77L54.7497 330.75L54.5397 328.75L54.0497 328.8C53.7197 325.55 53.4697 322.27 53.2797 318.97H53.7797C53.7797 318.31 53.7097 317.66 53.6797 316.97H53.1797C53.0297 313.7 52.9397 310.42 52.9297 307.11H53.4297V305.11H52.9297C52.9297 301.81 53.0297 298.52 53.1797 295.25H53.6797C53.6797 294.59 53.7497 293.94 53.7797 293.25H53.2797C53.4697 289.96 53.7197 286.68 54.0497 283.42H54.5397L54.7497 281.42H54.2497C54.6097 278.14 55.0297 274.88 55.5297 271.65L56.0197 271.72C56.1197 271.07 56.2197 270.42 56.3297 269.77L55.8297 269.69C56.3597 266.44 56.9497 263.2 57.6197 260L58.1097 260.1C58.2397 259.45 58.3797 258.81 58.5197 258.17L58.0297 258.06C58.7197 254.84 59.4897 251.64 60.3197 248.47L60.7497 248.75L61.2597 246.85L60.7797 246.72C61.6464 243.54 62.5797 240.387 63.5797 237.26L64.0497 237.41L64.6597 235.54L64.1897 235.38C65.2297 232.293 66.3397 229.203 67.5197 226.11L67.9897 226.29C68.2197 225.67 68.4497 225.06 68.6897 224.45L68.2297 224.27C69.423 221.197 70.6797 218.16 71.9997 215.16L72.4597 215.36L73.2597 213.56L72.8097 213.36C74.143 210.347 75.5597 207.38 77.0597 204.46L77.5097 204.68L78.3997 202.93L77.9597 202.7C79.4664 199.78 81.0364 196.893 82.6697 194.04L83.0997 194.29L84.0997 192.59L83.6697 192.33C85.3297 189.49 87.0497 186.69 88.8297 183.93L89.2497 184.2C89.5997 183.65 89.9597 183.1 90.3197 182.55L89.8997 182.28C91.713 179.533 93.5764 176.823 95.4897 174.15L95.8997 174.45L97.0597 172.86L96.6597 172.56C98.5997 169.91 100.61 167.3 102.66 164.74L103.05 165.05L104.29 163.53L103.91 163.21C105.99 160.657 108.123 158.157 110.31 155.71L110.69 156.05L112 154.58L111.63 154.25C113.85 151.81 116.113 149.427 118.42 147.1L118.78 147.45C119.24 146.98 119.7 146.52 120.17 146.06L119.81 145.75C122.143 143.437 124.526 141.173 126.96 138.96L127.3 139.33L128.75 137.96L128.42 137.59C130.866 135.403 133.363 133.267 135.91 131.18L136.23 131.57L137.75 130.33L137.43 129.94C139.99 127.88 142.596 125.88 145.25 123.94L145.55 124.35L147.14 123.19L146.85 122.78C149.516 120.86 152.223 118.997 154.97 117.19L155.24 117.61L156.89 116.53L156.62 116.11C159.38 114.34 162.18 112.61 165.03 110.95L165.28 111.39C165.84 111.05 166.41 110.73 166.98 110.39L166.73 109.96C169.576 108.32 172.463 106.747 175.39 105.24L175.62 105.69L177.38 104.79L177.15 104.35C180.083 102.87 183.05 101.453 186.05 100.1L186.25 100.55L188.05 99.75L187.85 99.29C190.85 97.9566 193.886 96.6966 196.96 95.51L197.14 95.98L198.98 95.27L198.8 94.81C201.866 93.6366 204.963 92.54 208.09 91.52L208.25 91.99L210.13 91.38L209.97 90.91C213.096 89.91 216.25 88.9766 219.43 88.11L219.56 88.59L221.46 88.08L221.34 87.6C224.506 86.7666 227.7 86 230.92 85.3L231.03 85.79L232.96 85.38L232.86 84.9C236.07 84.23 239.3 83.64 242.55 83.11L242.63 83.6L244.58 83.3L244.51 82.8C247.74 82.31 251 81.88 254.28 81.53V82.03L256.28 81.82V81.32C259.53 81 262.81 80.74 266.11 80.56V81.06L268.11 80.96V80.46C271.37 80.3 274.66 80.22 277.96 80.21V80.75H279.96V80.25C283.26 80.25 286.55 80.34 289.81 80.5V81L291.81 81.1V80.6C295.1 80.78 298.38 81.04 301.63 81.36V81.86L303.63 82.07V81.57C306.91 81.92 310.17 82.35 313.4 82.84L313.33 83.34L315.28 83.64L315.36 83.15C318.61 83.68 321.85 84.27 325.05 84.94L324.95 85.42L326.75 85.75L326.86 85.26C330.08 85.96 333.28 86.73 336.44 87.56L336.32 88.04L338.22 88.55L338.35 88.07C341.53 88.93 344.683 89.8633 347.81 90.87L347.66 91.34L349.53 91.95L349.69 91.48C352.81 92.5066 355.906 93.6033 358.98 94.77L358.8 95.23L360.64 95.94L360.82 95.47C363.893 96.67 366.93 97.93 369.93 99.25L369.75 99.75L371.55 100.55L371.75 100.1C374.75 101.433 377.716 102.85 380.65 104.35L380.42 104.79L382.18 105.69L382.41 105.24C385.33 106.747 388.216 108.32 391.07 109.96L390.82 110.39C391.39 110.72 391.96 111.04 392.52 111.39L392.78 110.95C395.62 112.61 398.42 114.34 401.18 116.11L400.91 116.53L402.56 117.61L402.83 117.19C405.583 119.003 408.29 120.867 410.95 122.78L410.66 123.19L412.25 124.35L412.55 123.94C415.216 125.887 417.823 127.887 420.37 129.94L420.05 130.33C420.57 130.74 421.05 131.16 421.58 131.57L421.9 131.18C424.44 133.267 426.94 135.403 429.4 137.59L429.06 137.96L430.52 139.28L430.86 138.91C433.286 141.123 435.67 143.387 438.01 145.7L437.66 146.06C438.13 146.52 438.59 146.98 439.05 147.45L439.41 147.1C441.716 149.433 443.98 151.817 446.2 154.25L445.83 154.58L447.14 156.05L447.52 155.71C449.713 158.157 451.85 160.657 453.93 163.21L453.54 163.53L454.75 165.05L455.14 164.74C457.2 167.3 459.2 169.907 461.14 172.56L460.73 172.86L461.89 174.45L462.3 174.15C464.22 176.817 466.083 179.527 467.89 182.28L467.47 182.55C467.83 183.1 468.19 183.65 468.54 184.2L468.96 183.93C470.74 186.69 472.46 189.49 474.12 192.33L473.69 192.59L474.69 194.29L475.12 194.04C476.746 196.893 478.32 199.78 479.84 202.7L479.39 202.93L480.29 204.68L480.73 204.46C482.21 207.387 483.626 210.353 484.98 213.36L484.53 213.56L485.33 215.36L485.79 215.16C487.123 218.16 488.38 221.197 489.56 224.27L489.1 224.45C489.34 225.06 489.57 225.67 489.8 226.29L490.27 226.11C491.43 229.177 492.526 232.273 493.56 235.4L493.09 235.56L493.7 237.43L494.17 237.28C495.17 240.4 496.103 243.553 496.97 246.74L496.49 246.87L497 248.77L497.48 248.64C498.31 251.81 499.08 255.01 499.77 258.23L499.29 258.34C499.42 258.98 499.56 259.62 499.69 260.27L500.18 260.17C500.85 263.37 501.44 266.61 501.97 269.86L501.48 269.94L501.78 271.89L502.28 271.82C502.77 275.05 503.2 278.31 503.55 281.59H503.05L503.26 283.59H503.75C504.08 286.85 504.33 290.13 504.52 293.42H504.02C504.02 294.08 504.09 294.73 504.12 295.42H504.62C504.77 298.69 504.86 301.98 504.87 305.28H504.37C504.37 305.61 504.37 305.94 504.37 306.28C504.37 306.62 504.37 306.94 504.37 307.28H504.87C504.87 310.59 504.77 313.87 504.62 317.14H504.12C504.12 317.8 504.06 318.45 504.02 319.14H504.52C504.33 322.44 504.08 325.72 503.75 328.97L503.26 328.92L503.05 330.92L503.55 330.98C503.2 334.26 502.77 337.52 502.28 340.75L501.78 340.68L501.48 342.68L501.97 342.76C501.44 346.01 500.85 349.24 500.18 352.45L499.69 352.35C499.56 352.99 499.42 353.64 499.29 354.28L499.77 354.38C499.08 357.61 498.31 360.8 497.48 363.97L497 363.85L496.49 365.75L496.97 365.88C496.096 369.06 495.163 372.213 494.17 375.34L493.7 375.18C493.5 375.81 493.29 376.43 493.09 377.06L493.56 377.21C492.526 380.337 491.43 383.437 490.27 386.51L489.8 386.33C489.57 386.95 489.34 387.56 489.1 388.17L489.56 388.35C488.373 391.423 487.116 394.46 485.79 397.46L485.33 397.26L484.53 399.06L484.98 399.26C483.646 402.26 482.23 405.227 480.73 408.16L480.29 407.93L479.39 409.69L479.84 409.92C478.333 412.84 476.76 415.727 475.12 418.58L474.69 418.33L473.69 420.03L474.12 420.28C472.46 423.133 470.74 425.937 468.96 428.69L468.54 428.42C468.19 428.97 467.83 429.52 467.47 430.07L467.89 430.34C466.083 433.093 464.22 435.8 462.3 438.46L461.89 438.17L460.75 439.55L461.16 439.85C459.206 442.517 457.206 445.123 455.16 447.67L454.77 447.35L453.53 448.88L453.92 449.2C451.833 451.74 449.696 454.237 447.51 456.69L447.13 456.36C446.7 456.85 446.26 457.36 445.82 457.82L446.19 458.16C443.983 460.587 441.72 462.97 439.4 465.31L439.04 464.96L437.65 466.35L438 466.71C435.666 469.017 433.283 471.277 430.85 473.49L430.51 473.12C430.03 473.57 429.51 474.01 429.05 474.44L429.39 474.81C426.93 477.003 424.43 479.14 421.89 481.22L421.57 480.84L420.04 482.08L420.36 482.46C417.8 484.52 415.193 486.52 412.54 488.46L412.24 488.06L410.65 489.22L410.94 489.62C408.273 491.547 405.566 493.413 402.82 495.22L402.55 494.8L400.9 495.87L401.17 496.29C398.41 498.07 395.61 499.79 392.77 501.45L392.51 501.02L390.81 502.02L391.06 502.45C388.213 504.077 385.326 505.647 382.4 507.16L382.17 506.72L380.41 507.61L380.64 508.06C377.706 509.54 374.74 510.957 371.74 512.31L371.54 511.86L369.74 512.66L369.94 513.12C366.94 514.453 363.903 515.71 360.83 516.89L360.65 516.43L358.81 517.13L358.99 517.6C355.916 518.76 352.82 519.857 349.7 520.89L349.54 520.42L347.67 521.03L347.82 521.5C344.7 522.5 341.546 523.433 338.36 524.3L338.23 523.82L336.33 524.32L336.45 524.81C333.29 525.64 330.09 526.41 326.87 527.1L326.76 526.61L324.83 527.02L324.93 527.51C321.73 528.17 318.49 528.77 315.24 529.3L315.16 528.8L313.21 529.11L313.28 529.6C310.05 530.1 306.79 530.52 303.51 530.88V530.38L301.51 530.59V531.08C298.26 531.41 294.98 531.66 291.69 531.85V531.35L289.69 531.45L289.75 531.95Z" stroke="#0D1C2E" stroke-dasharray="2 10"/>
<path d="M279.42 479.7C374.965 479.7 452.42 402.245 452.42 306.7C452.42 211.155 374.965 133.7 279.42 133.7C183.875 133.7 106.42 211.155 106.42 306.7C106.42 402.245 183.875 479.7 279.42 479.7Z" fill="#EEF4FF" stroke="#CFDCF7"/>
<path d="M279.44 414.16C338.8 414.16 386.92 366.04 386.92 306.68C386.92 247.32 338.8 199.2 279.44 199.2C220.08 199.2 171.96 247.32 171.96 306.68C171.96 366.04 220.08 414.16 279.44 414.16Z" fill="#0D51D9"/>
<path d="M230.97 300.2V274.57H225.97V300.2H230.97ZM251.08 300.2V288.2C251.156 287.227 251.025 286.249 250.696 285.33C250.366 284.412 249.846 283.573 249.17 282.87C248.584 282.309 247.89 281.872 247.13 281.587C246.37 281.302 245.56 281.173 244.75 281.21C243.874 281.206 243.007 281.381 242.202 281.725C241.397 282.069 240.672 282.574 240.07 283.21V281.45H235.49V300.2H240.17V288.86C240.17 286.31 241.83 285.44 243.31 285.44C244.79 285.44 246.4 286.31 246.4 288.86V300.2H251.08ZM263.75 285.55V281.99H260.3V279.94C260.3 278.86 260.8 278.24 261.92 278.24H263.75V274.24H261.09C260.367 274.188 259.641 274.29 258.96 274.54C258.28 274.79 257.66 275.182 257.143 275.69C256.625 276.198 256.222 276.81 255.959 277.486C255.697 278.162 255.581 278.886 255.62 279.61V281.95H253.67V285.51H255.62V300.16H260.3V285.55H263.75ZM279.98 283C279.415 282.399 278.726 281.929 277.961 281.624C277.196 281.318 276.373 281.183 275.55 281.23C274.669 281.218 273.795 281.39 272.984 281.735C272.173 282.079 271.443 282.588 270.84 283.23V281.43H266.27V300.18H270.95V288.88C270.95 286.5 272.53 285.42 273.95 285.42C274.421 285.407 274.889 285.501 275.318 285.695C275.748 285.889 276.128 286.178 276.43 286.54L279.98 283ZM295.4 300.2V287.86C295.4 283.46 292.67 281.23 287.4 281.23C284.27 281.23 282.47 281.81 280.63 283.82L283.63 286.74C284.046 286.194 284.596 285.765 285.227 285.494C285.857 285.222 286.547 285.118 287.23 285.19C289.71 285.19 290.72 286.09 290.72 288.14V289.08H286.29C281.94 289.08 279.89 291.53 279.89 294.52C279.846 296.069 280.397 297.575 281.43 298.73C282.075 299.315 282.832 299.762 283.656 300.046C284.479 300.329 285.351 300.443 286.22 300.38C287.074 300.446 287.932 300.318 288.73 300.006C289.528 299.695 290.246 299.207 290.83 298.58V300.2H295.4ZM290.75 293.29C290.805 293.712 290.773 294.141 290.656 294.55C290.539 294.96 290.339 295.341 290.07 295.67C289.671 296.022 289.201 296.285 288.692 296.44C288.183 296.595 287.647 296.64 287.12 296.57C285.28 296.57 284.42 295.7 284.42 294.41C284.42 293.12 285.35 292.28 287.04 292.28H290.75V293.29ZM314.48 290.81C314.48 287.42 314.05 285.3 312.36 283.54C311.603 282.77 310.693 282.167 309.689 281.769C308.685 281.371 307.609 281.188 306.53 281.23C305.455 281.186 304.383 281.369 303.384 281.767C302.384 282.165 301.48 282.769 300.73 283.54C299.04 285.3 298.61 287.42 298.61 290.81C298.61 294.2 299.04 296.35 300.73 298.12C301.482 298.887 302.387 299.489 303.386 299.885C304.385 300.281 305.456 300.463 306.53 300.42C307.608 300.462 308.683 300.279 309.687 299.883C310.69 299.487 311.601 298.887 312.36 298.12C314.03 296.35 314.46 294.23 314.46 290.81H314.48ZM309.8 290.81C309.8 292.75 309.69 294.41 308.72 295.38C308.429 295.658 308.085 295.875 307.709 296.018C307.333 296.16 306.932 296.226 306.53 296.21C306.132 296.229 305.734 296.165 305.362 296.022C304.99 295.879 304.652 295.661 304.37 295.38C303.37 294.38 303.29 292.75 303.29 290.81C303.29 288.87 303.39 287.24 304.37 286.27C304.652 285.989 304.99 285.771 305.362 285.628C305.734 285.485 306.132 285.421 306.53 285.44C306.932 285.424 307.333 285.49 307.709 285.632C308.085 285.775 308.429 285.992 308.72 286.27C309.67 287.24 309.75 288.86 309.75 290.81H309.8ZM333.45 300.2V288.2C333.526 287.227 333.395 286.249 333.066 285.33C332.736 284.412 332.216 283.573 331.54 282.87C330.954 282.309 330.26 281.872 329.5 281.587C328.74 281.302 327.93 281.173 327.12 281.21C326.244 281.206 325.377 281.381 324.572 281.725C323.767 282.069 323.042 282.574 322.44 283.21V281.45H317.86V300.2H322.54V288.86C322.54 286.31 324.2 285.44 325.68 285.44C327.16 285.44 328.77 286.31 328.77 288.86V300.2H333.45Z" fill="white"/>
<path d="M232.88 320.35C232.88 315.88 229.67 312.57 224.67 312.57H214.95V338.2H218.84V328.12H224.67C229.67 328.12 232.88 324.81 232.88 320.35ZM228.99 320.35C228.99 323.05 227.15 324.6 224.45 324.6H218.84V316.06H224.45C227.15 316.06 228.99 317.65 228.99 320.35ZM243.24 338.2V335.07H241.62C240.14 335.07 239.62 334.35 239.62 332.95V312.57H235.95V333.16C235.95 335.86 237.46 338.16 240.95 338.16L243.24 338.2ZM259.6 338.2V326C259.6 321.86 257.08 319.74 252.08 319.74C249.08 319.74 247.26 320.35 245.53 322.36L247.94 324.63C248.388 324.005 248.996 323.512 249.699 323.203C250.403 322.893 251.177 322.778 251.94 322.87C254.78 322.87 255.94 323.98 255.94 326.29V327.58H251.12C246.94 327.58 244.82 329.78 244.82 332.84C244.774 334.279 245.286 335.681 246.25 336.75C246.906 337.35 247.679 337.808 248.521 338.093C249.363 338.379 250.255 338.487 251.14 338.41C252.039 338.483 252.942 338.353 253.784 338.03C254.625 337.706 255.383 337.197 256 336.54V338.19L259.6 338.2ZM255.93 331.62C256.035 332.589 255.751 333.56 255.14 334.32C254.672 334.717 254.126 335.011 253.536 335.184C252.947 335.356 252.329 335.402 251.72 335.32C249.42 335.32 248.37 334.38 248.37 332.73C248.37 331.08 249.49 330.1 251.65 330.1H255.93V331.62ZM271.82 338.2V335.07H270.31C270.031 335.096 269.749 335.058 269.486 334.959C269.223 334.86 268.986 334.702 268.794 334.497C268.601 334.293 268.457 334.048 268.373 333.78C268.29 333.511 268.268 333.228 268.31 332.95V323.08H271.84V320.28H268.31V314.75H264.64V320.3H262.55V323.1H264.64V333.15C264.592 333.822 264.688 334.497 264.921 335.129C265.155 335.761 265.52 336.336 265.993 336.816C266.466 337.296 267.036 337.669 267.665 337.911C268.294 338.153 268.967 338.259 269.64 338.22L271.82 338.2ZM283.29 323.08V320.28H279.66V317.65C279.618 317.372 279.64 317.088 279.724 316.819C279.807 316.551 279.951 316.305 280.144 316.1C280.336 315.895 280.573 315.736 280.835 315.636C281.098 315.535 281.38 315.496 281.66 315.52H283.28V312.39H280.98C280.307 312.353 279.634 312.459 279.005 312.703C278.376 312.946 277.806 313.32 277.333 313.801C276.86 314.281 276.495 314.857 276.261 315.49C276.028 316.122 275.932 316.797 275.98 317.47V320.28H273.89V323.08H275.98V338.2H279.65V323.08H283.29ZM299.94 329.08C299.94 326.02 299.51 323.72 297.78 321.92C297.067 321.202 296.212 320.64 295.271 320.268C294.33 319.897 293.322 319.724 292.31 319.76C291.305 319.724 290.303 319.898 289.368 320.27C288.434 320.641 287.586 321.203 286.88 321.92C285.15 323.72 284.72 326.02 284.72 329.08C284.72 332.14 285.15 334.48 286.88 336.28C287.587 336.995 288.435 337.556 289.369 337.928C290.304 338.3 291.305 338.474 292.31 338.44C293.321 338.475 294.329 338.301 295.27 337.929C296.211 337.558 297.066 336.996 297.78 336.28C299.51 334.46 299.94 332.16 299.94 329.06V329.08ZM296.27 329.08C296.27 331.08 296.13 332.97 295.01 334.08C294.656 334.432 294.234 334.709 293.77 334.895C293.306 335.08 292.81 335.171 292.31 335.16C291.817 335.171 291.326 335.081 290.869 334.895C290.411 334.709 289.996 334.432 289.65 334.08C288.53 332.97 288.39 331.08 288.39 329.08C288.39 327.08 288.53 325.19 289.65 324.08C289.998 323.733 290.414 323.46 290.871 323.28C291.329 323.099 291.819 323.014 292.31 323.03C292.808 323.014 293.304 323.099 293.768 323.279C294.232 323.459 294.654 323.732 295.01 324.08C296.13 325.17 296.27 327.08 296.27 329.06V329.08ZM316.65 321.48C316.091 320.898 315.413 320.444 314.662 320.147C313.912 319.85 313.106 319.718 312.3 319.76C311.377 319.73 310.459 319.912 309.616 320.292C308.774 320.672 308.03 321.239 307.44 321.95V319.95H303.84V338.2H307.51V327.12C307.51 324.6 309.16 323.01 311.14 323.01C311.661 322.992 312.178 323.093 312.653 323.306C313.128 323.519 313.548 323.839 313.88 324.24L316.65 321.48ZM344.5 338.22V326.54C344.554 325.593 344.408 324.645 344.072 323.758C343.737 322.871 343.218 322.064 342.55 321.39C341.281 320.27 339.631 319.68 337.94 319.74C336.844 319.699 335.754 319.919 334.76 320.381C333.766 320.844 332.895 321.536 332.22 322.4C331.665 321.542 330.894 320.845 329.985 320.378C329.076 319.912 328.061 319.691 327.04 319.74C326.133 319.729 325.233 319.906 324.396 320.258C323.56 320.611 322.806 321.133 322.18 321.79V319.95H318.58V338.2H322.25V327.08C322.25 324.27 323.98 323.01 326.03 323.01C328.08 323.01 329.7 324.24 329.7 327.08V338.2H333.37V326.9C333.33 326.388 333.399 325.874 333.573 325.391C333.747 324.908 334.022 324.468 334.38 324.1C334.738 323.732 335.17 323.444 335.648 323.256C336.125 323.068 336.638 322.984 337.15 323.01C339.2 323.01 340.82 324.24 340.82 327.08V338.2L344.5 338.22Z" fill="white"/>
<path d="M257.39 78.7199C258.578 78.7199 259.54 77.7573 259.54 76.5699C259.54 75.3825 258.578 74.4199 257.39 74.4199C256.203 74.4199 255.24 75.3825 255.24 76.5699C255.24 77.7573 256.203 78.7199 257.39 78.7199Z" stroke="white" stroke-width="2"/>
<path d="M256.77 83.77H265.59" stroke="white" stroke-width="2"/>
<path d="M467.94 184.05C467.564 184.425 467.354 184.934 467.354 185.465C467.354 185.996 467.564 186.505 467.94 186.88C468.315 187.255 468.824 187.466 469.355 187.466C469.885 187.466 470.394 187.255 470.77 186.88L467.94 184.05ZM473.59 181.23L475 179.82C474.625 179.447 474.118 179.238 473.59 179.238C473.061 179.238 472.554 179.447 472.18 179.82L473.59 181.23ZM476.41 186.88C476.595 187.066 476.816 187.213 477.059 187.314C477.302 187.414 477.562 187.466 477.825 187.466C478.087 187.466 478.348 187.414 478.59 187.314C478.833 187.213 479.054 187.066 479.24 186.88C479.425 186.694 479.573 186.473 479.673 186.231C479.774 185.988 479.826 185.728 479.826 185.465C479.826 185.202 479.774 184.942 479.673 184.699C479.573 184.456 479.425 184.236 479.24 184.05L476.41 186.88ZM470.77 186.88L475 182.65L472.18 179.82L467.94 184.05L470.77 186.88ZM472.18 182.65L476.41 186.88L479.24 184.05L475 179.82L472.18 182.65Z" fill="white"/>
<path d="M463.75 199.85C463.936 200.036 464.156 200.183 464.399 200.284C464.642 200.384 464.902 200.436 465.165 200.436C465.428 200.436 465.688 200.384 465.931 200.284C466.174 200.183 466.394 200.036 466.58 199.85C466.766 199.664 466.913 199.443 467.014 199.201C467.114 198.958 467.166 198.698 467.166 198.435C467.166 198.172 467.114 197.912 467.014 197.669C466.913 197.426 466.766 197.206 466.58 197.02L463.75 199.85ZM460.93 194.2L459.53 192.75C459.344 192.936 459.196 193.156 459.096 193.399C458.995 193.642 458.943 193.902 458.943 194.165C458.943 194.428 458.995 194.688 459.096 194.931C459.196 195.174 459.344 195.394 459.53 195.58L460.93 194.2ZM466.58 191.38C466.924 190.999 467.108 190.5 467.095 189.987C467.081 189.474 466.871 188.985 466.507 188.623C466.144 188.26 465.654 188.052 465.141 188.04C464.628 188.028 464.13 188.214 463.75 188.56L466.58 191.38ZM466.58 197.02L462.36 192.75L459.53 195.58L463.75 199.85L466.58 197.02ZM462.35 195.62L466.58 191.38L463.75 188.56L459.53 192.75L462.35 195.62Z" fill="white"/>
<path d="M80.8498 397.41C80.664 397.596 80.5166 397.817 80.416 398.059C80.3154 398.302 80.2637 398.562 80.2637 398.825C80.2637 399.088 80.3154 399.348 80.416 399.591C80.5166 399.834 80.664 400.054 80.8498 400.24C81.0356 400.426 81.2562 400.573 81.499 400.674C81.7418 400.774 82.002 400.826 82.2648 400.826C82.5276 400.826 82.7878 400.774 83.0306 400.674C83.2734 400.573 83.494 400.426 83.6798 400.24L80.8498 397.41ZM86.4998 394.59L87.9198 393.18C87.734 392.994 87.5135 392.847 87.2707 392.746C87.0279 392.645 86.7676 392.594 86.5048 392.594C86.242 392.594 85.9817 392.645 85.7389 392.746C85.4961 392.847 85.2755 392.994 85.0898 393.18L86.4998 394.59ZM89.3198 400.24C89.5056 400.426 89.7262 400.573 89.969 400.674C90.2118 400.774 90.472 400.826 90.7348 400.826C90.9976 400.826 91.2578 400.774 91.5006 400.674C91.7434 400.573 91.964 400.426 92.1498 400.24C92.3356 400.054 92.483 399.834 92.5836 399.591C92.6841 399.348 92.7359 399.088 92.7359 398.825C92.7359 398.562 92.6841 398.302 92.5836 398.059C92.483 397.817 92.3356 397.596 92.1498 397.41L89.3198 400.24ZM83.6798 400.24L87.9198 396.01L85.0898 393.18L80.8498 397.41L83.6798 400.24ZM85.0898 396.01L89.3198 400.24L92.1498 397.41L87.9198 393.18L85.0898 396.01Z" fill="white"/>
<path d="M75.9805 407.56H83.7505" stroke="white" stroke-width="2" stroke-linecap="round" stroke-linejoin="round"/>
<path d="M57.0303 199.93L81.6603 214.15" stroke="white" stroke-width="2" stroke-dasharray="2 2"/>
<path d="M59.7499 207.59C59.4059 207.971 59.2215 208.47 59.2351 208.983C59.2486 209.496 59.459 209.985 59.8227 210.347C60.1863 210.709 60.6754 210.918 61.1887 210.93C61.702 210.942 62.2001 210.755 62.5799 210.41L59.7499 207.59ZM65.4199 204.75L66.8399 203.33C66.6542 203.144 66.4336 202.997 66.1908 202.896C65.948 202.795 65.6878 202.743 65.4249 202.743C65.1621 202.743 64.9019 202.795 64.6591 202.896C64.4163 202.997 64.1957 203.144 64.0099 203.33L65.4199 204.75ZM68.2399 210.39C68.6198 210.735 69.1179 210.922 69.6312 210.91C70.1444 210.898 70.6336 210.689 70.9972 210.327C71.3609 209.965 71.5713 209.476 71.5848 208.963C71.5984 208.45 71.414 207.951 71.0699 207.57L68.2399 210.39ZM62.6099 210.39L66.8399 206.16L64.0099 203.33L59.7499 207.59L62.6099 210.39ZM64.0099 206.16L68.2399 210.39L71.0699 207.57L66.8399 203.33L64.0099 206.16Z" fill="white"/>
<path d="M65.4199 207.75V214.64" stroke="white" stroke-width="2" stroke-linecap="round" stroke-linejoin="round"/>
<path d="M488.25 252.49C507.442 252.49 523 236.932 523 217.74C523 198.548 507.442 182.99 488.25 182.99C469.058 182.99 453.5 198.548 453.5 217.74C453.5 236.932 469.058 252.49 488.25 252.49Z" fill="white" stroke="#9F9F9F" stroke-width="0.5"/>
<path d="M466.96 224.26L470.96 228.26C472.021 227.199 473.46 226.603 474.96 226.603C475.703 226.603 476.438 226.749 477.125 227.034C477.811 227.318 478.435 227.735 478.96 228.26C479.485 228.785 479.902 229.409 480.186 230.095C480.471 230.782 480.617 231.517 480.617 232.26C480.617 233.003 480.471 233.738 480.186 234.425C479.902 235.111 479.485 235.735 478.96 236.26L482.96 240.26L502.18 221.04L499.28 218.14L500.73 216.69L503.63 219.59L511.97 211.25L507.97 207.25C507.445 207.775 506.821 208.192 506.135 208.476C505.448 208.761 504.713 208.907 503.97 208.907C503.227 208.907 502.491 208.761 501.805 208.476C501.119 208.192 500.495 207.775 499.97 207.25C499.445 206.725 499.028 206.101 498.744 205.415C498.459 204.728 498.313 203.993 498.313 203.25C498.313 202.507 498.459 201.772 498.744 201.085C499.028 200.399 499.445 199.775 499.97 199.25L495.97 195.25L487.64 203.59L490.54 206.49L489.09 207.94L486.19 205.04L466.97 224.25L466.96 224.26ZM481.46 215.56L486.2 217.56L490.14 214.07L489.59 219.25L494.03 221.83L488.94 223.02L487.75 228.13L485.17 223.69L479.99 224.24L483.48 220.3L481.46 215.56ZM490.53 209.4L491.98 207.95L494.88 210.85L493.43 212.3L490.53 209.4ZM494.88 213.75L496.33 212.3L499.23 215.2L497.75 216.65L494.88 213.75Z" fill="#0D51D9"/>
<path d="M488.25 442.31C507.442 442.31 523 426.752 523 407.56C523 388.368 507.442 372.81 488.25 372.81C469.058 372.81 453.5 388.368 453.5 407.56C453.5 426.752 469.058 442.31 488.25 442.31Z" fill="white" stroke="#9F9F9F" stroke-width="0.5"/>
<path d="M497.38 416.61H479.06C478.053 416.661 477.105 417.097 476.41 417.827C475.716 418.558 475.328 419.527 475.328 420.535C475.328 421.543 475.716 422.512 476.41 423.243C477.105 423.974 478.053 424.409 479.06 424.46H497.38C498.387 424.409 499.336 423.974 500.03 423.243C500.725 422.512 501.112 421.543 501.112 420.535C501.112 419.527 500.725 418.558 500.03 417.827C499.336 417.097 498.387 416.661 497.38 416.61ZM479.06 420.53C479.06 420.271 479.137 420.018 479.281 419.802C479.425 419.587 479.63 419.419 479.869 419.32C480.108 419.221 480.372 419.195 480.626 419.245C480.88 419.296 481.113 419.421 481.296 419.604C481.48 419.787 481.604 420.02 481.655 420.274C481.706 420.529 481.68 420.792 481.58 421.031C481.481 421.271 481.313 421.475 481.098 421.619C480.883 421.763 480.629 421.84 480.37 421.84C480.198 421.84 480.028 421.806 479.869 421.74C479.71 421.675 479.566 421.578 479.444 421.456C479.322 421.335 479.226 421.19 479.16 421.031C479.094 420.872 479.06 420.702 479.06 420.53ZM496.06 421.84H484.29C483.964 421.811 483.66 421.662 483.439 421.42C483.217 421.178 483.095 420.863 483.095 420.535C483.095 420.207 483.217 419.892 483.439 419.65C483.66 419.409 483.964 419.259 484.29 419.23H496.07C496.251 419.214 496.433 419.236 496.606 419.295C496.778 419.353 496.936 419.446 497.07 419.569C497.203 419.692 497.31 419.841 497.384 420.007C497.457 420.174 497.495 420.353 497.495 420.535C497.495 420.717 497.457 420.896 497.384 421.063C497.31 421.229 497.203 421.378 497.07 421.501C496.936 421.624 496.778 421.717 496.606 421.776C496.433 421.834 496.251 421.856 496.07 421.84H496.06ZM497.37 406.14H479.06C478.053 406.191 477.105 406.627 476.41 407.357C475.716 408.088 475.328 409.057 475.328 410.065C475.328 411.073 475.716 412.042 476.41 412.773C477.105 413.504 478.053 413.939 479.06 413.99H497.38C498.387 413.939 499.336 413.504 500.03 412.773C500.725 412.042 501.112 411.073 501.112 410.065C501.112 409.057 500.725 408.088 500.03 407.357C499.336 406.627 498.387 406.191 497.38 406.14H497.37ZM479.05 410.07C479.05 409.811 479.127 409.558 479.271 409.342C479.415 409.127 479.62 408.959 479.859 408.86C480.098 408.761 480.362 408.735 480.616 408.785C480.87 408.836 481.103 408.961 481.287 409.144C481.47 409.327 481.594 409.56 481.645 409.814C481.696 410.069 481.67 410.332 481.57 410.571C481.471 410.811 481.303 411.015 481.088 411.159C480.873 411.303 480.619 411.38 480.36 411.38C480.014 411.377 479.684 411.238 479.44 410.993C479.197 410.747 479.06 410.416 479.06 410.07H479.05ZM496.05 411.38H484.29C483.943 411.38 483.61 411.242 483.364 410.996C483.118 410.751 482.98 410.417 482.98 410.07C482.98 409.723 483.118 409.389 483.364 409.144C483.61 408.898 483.943 408.76 484.29 408.76H496.07C496.418 408.76 496.751 408.898 496.997 409.144C497.242 409.389 497.38 409.723 497.38 410.07C497.38 410.417 497.242 410.751 496.997 410.996C496.751 411.242 496.418 411.38 496.07 411.38H496.05ZM503.88 410.19C503.88 410.19 503.88 410.11 503.88 410.07C503.878 408.336 503.188 406.674 501.962 405.449C500.736 404.223 499.074 403.533 497.34 403.53H479.06C477.335 403.533 475.681 404.216 474.456 405.431C473.232 406.646 472.536 408.295 472.52 410.02C471.514 409.39 470.748 408.441 470.345 407.324C469.943 406.207 469.927 404.987 470.3 403.86C471.23 400.86 475.23 398.74 478.44 399.15C478.273 397.646 478.649 396.131 479.5 394.88C480.591 393.466 482.014 392.344 483.644 391.615C485.274 390.886 487.059 390.571 488.84 390.7C492.11 390.88 496.5 392.55 498.39 395.75C499.013 396.774 499.309 397.963 499.24 399.16C500.623 399.004 502.02 399.28 503.24 399.95C504.157 400.423 504.937 401.125 505.503 401.987C506.07 402.85 506.405 403.843 506.475 404.873C506.545 405.902 506.349 406.932 505.905 407.864C505.461 408.795 504.784 409.597 503.94 410.19H503.88Z" fill="#0D51D9"/>
<path d="M65.75 252.49C84.9419 252.49 100.5 236.932 100.5 217.74C100.5 198.548 84.9419 182.99 65.75 182.99C46.5581 182.99 31 198.548 31 217.74C31 236.932 46.5581 252.49 65.75 252.49Z" fill="white" stroke="#9F9F9F" stroke-width="0.5"/>
<path d="M55.8698 212.96L53.7498 211.23C52.6558 213.23 52.0783 215.471 52.0698 217.75C52.0628 220.874 53.1409 223.903 55.1198 226.32L49.3998 226.51L50.3998 232.13C47.2159 228.752 45.2408 224.415 44.7831 219.796C44.3253 215.177 45.4108 210.537 47.8698 206.6L45.6698 204.87L55.4998 203.18L55.8698 212.96ZM75.5898 222.47L77.7498 224.2C78.8283 222.2 79.3919 219.962 79.3898 217.69C79.4118 214.572 78.3515 211.543 76.3898 209.12L82.1498 208.93L81.1498 203.36C84.3337 206.738 86.3088 211.075 86.7666 215.694C87.2243 220.313 86.1388 224.953 83.6798 228.89L85.8798 230.62L76.0498 232.31L75.5898 222.47ZM70.4798 207.85L72.2098 205.75C70.229 204.662 68.0096 204.081 65.7498 204.06C62.632 204.038 59.6032 205.098 57.1798 207.06L56.9898 201.35L51.4198 202.35C54.7973 199.166 59.1346 197.191 63.7536 196.733C68.3726 196.276 73.0131 197.361 76.9498 199.82L78.6798 197.62L80.3698 207.46L70.4798 207.85ZM60.9698 227.57L59.2398 229.75C61.2373 230.839 63.4748 231.413 65.7498 231.42C68.8675 231.441 71.896 230.381 74.3198 228.42L74.5098 234.14L80.0798 233.14C76.7023 236.324 72.3651 238.299 67.7461 238.757C63.1271 239.215 58.4866 238.129 54.5498 235.67L52.8198 237.87L51.1398 228.04L60.9698 227.57Z" fill="#0D51D9"/>
<path d="M280.72 125.5C299.912 125.5 315.47 109.942 315.47 90.75C315.47 71.5581 299.912 56 280.72 56C261.528 56 245.97 71.5581 245.97 90.75C245.97 109.942 261.528 125.5 280.72 125.5Z" fill="white" stroke="#9F9F9F" stroke-width="0.5"/>
<path d="M295.37 86.8999C295.94 88.7764 296.22 90.7289 296.2 92.6899C296.22 94.6467 295.961 96.5964 295.43 98.4799C296.677 98.4309 297.857 97.9022 298.723 97.004C299.59 96.1059 300.076 94.9078 300.08 93.6599V91.7499C300.083 90.4867 299.592 89.2724 298.712 88.3662C297.832 87.4601 296.633 86.9338 295.37 86.8999Z" fill="#0D51D9"/>
<path d="M288.46 81.01V77.01C289.105 76.7823 289.649 76.3338 289.996 75.7437C290.342 75.1537 290.469 74.4601 290.353 73.7857C290.238 73.1113 289.888 72.4994 289.364 72.0583C288.841 71.6172 288.179 71.3752 287.495 71.3752C286.811 71.3752 286.148 71.6172 285.625 72.0583C285.102 72.4994 284.752 73.1113 284.637 73.7857C284.521 74.4601 284.648 75.1537 284.994 75.7437C285.341 76.3338 285.885 76.7823 286.53 77.01V80.07C282.76 78.8032 278.68 78.8032 274.91 80.07V77.03C275.555 76.8023 276.099 76.3538 276.446 75.7637C276.792 75.1737 276.919 74.4801 276.803 73.8057C276.688 73.1313 276.338 72.5194 275.814 72.0783C275.291 71.6372 274.629 71.3952 273.945 71.3952C273.261 71.3952 272.598 71.6372 272.075 72.0783C271.552 72.5194 271.202 73.1313 271.087 73.8057C270.971 74.4801 271.098 75.1737 271.444 75.7637C271.791 76.3538 272.335 76.8023 272.98 77.03V81.03C269.09 83.29 267.17 87.48 267.17 92.71C267.17 99.14 268.75 103.76 274.91 105.49V109.16C274.91 109.425 275.015 109.68 275.203 109.867C275.39 110.055 275.645 110.16 275.91 110.16C276.077 110.161 276.243 110.12 276.39 110.04L283.39 106.13C291.22 105.21 294.34 99.97 294.34 92.74C294.27 87.46 292.35 83.27 288.46 81.01ZM275.88 87.37C277.56 87.37 278.79 88.37 278.79 89.79C278.736 90.0062 278.611 90.1981 278.435 90.3353C278.259 90.4724 278.043 90.5469 277.82 90.5469C277.597 90.5469 277.38 90.4724 277.205 90.3353C277.029 90.1981 276.904 90.0062 276.85 89.79C276.85 89.12 274.91 89.12 274.91 89.79C274.95 89.9383 274.956 90.0939 274.926 90.2447C274.897 90.3955 274.833 90.5375 274.739 90.6596C274.646 90.7817 274.526 90.8806 274.388 90.9487C274.25 91.0168 274.099 91.0522 273.945 91.0522C273.791 91.0522 273.64 91.0168 273.502 90.9487C273.364 90.8806 273.244 90.7817 273.15 90.6596C273.057 90.5375 272.993 90.3955 272.964 90.2447C272.934 90.0939 272.94 89.9383 272.98 89.79C272.98 88.39 274.2 87.37 275.88 87.37ZM287.49 90.75C287.225 90.75 286.97 90.6446 286.783 90.4571C286.595 90.2696 286.49 90.0152 286.49 89.75C286.49 89.08 284.55 89.08 284.55 89.75C284.59 89.8983 284.596 90.0539 284.566 90.2047C284.537 90.3555 284.473 90.4975 284.379 90.6196C284.286 90.7417 284.166 90.8406 284.028 90.9087C283.89 90.9768 283.739 91.0122 283.585 91.0122C283.431 91.0122 283.28 90.9768 283.142 90.9087C283.004 90.8406 282.884 90.7417 282.79 90.6196C282.697 90.4975 282.633 90.3555 282.604 90.2047C282.574 90.0539 282.58 89.8983 282.62 89.75C282.62 88.35 283.84 87.33 285.52 87.33C287.2 87.33 288.42 88.33 288.42 89.75C288.42 90.0152 288.315 90.2696 288.127 90.4571C287.939 90.6446 287.685 90.75 287.42 90.75H287.49Z" fill="#0D51D9"/>
<path d="M261.37 91.7499V93.6899C261.372 94.9369 261.856 96.135 262.72 97.0334C263.585 97.9318 264.764 98.4609 266.01 98.5099C265.479 96.6264 265.22 94.6767 265.24 92.7199C265.221 90.7589 265.5 88.8065 266.07 86.9299C264.814 86.9638 263.62 87.4862 262.742 88.3862C261.864 89.2862 261.372 90.4929 261.37 91.7499Z" fill="#0D51D9"/>
<path d="M283.29 560.1C302.482 560.1 318.04 544.542 318.04 525.35C318.04 506.158 302.482 490.6 283.29 490.6C264.098 490.6 248.54 506.158 248.54 525.35C248.54 544.542 264.098 560.1 283.29 560.1Z" fill="white" stroke="#9F9F9F" stroke-width="0.5"/>
<path d="M283.46 529.15H263.86V514.21C263.86 513.963 263.909 513.719 264.005 513.491C264.1 513.264 264.24 513.057 264.416 512.884C264.592 512.711 264.8 512.575 265.029 512.483C265.258 512.391 265.504 512.346 265.75 512.35H294.69C295.184 512.35 295.657 512.546 296.006 512.895C296.354 513.244 296.55 513.717 296.55 514.21V515.15H286.26C285.518 515.15 284.806 515.445 284.28 515.97C283.755 516.495 283.46 517.207 283.46 517.95V529.15ZM283.46 531.01H263.86V531.95C263.86 532.443 264.056 532.917 264.405 533.265C264.754 533.614 265.227 533.81 265.72 533.81H283.46V531.01ZM283.62 538.48C283.517 538.181 283.463 537.867 283.46 537.55V535.68H280.02L279.46 538.48H275.99C275.759 538.504 275.545 538.613 275.389 538.786C275.233 538.958 275.147 539.183 275.147 539.415C275.147 539.648 275.233 539.872 275.389 540.045C275.545 540.217 275.759 540.326 275.99 540.35H284.39C284.513 540.349 284.635 540.324 284.748 540.276C284.862 540.228 284.964 540.158 285.05 540.07C284.384 539.748 283.871 539.177 283.62 538.48ZM298.39 517.01H286.26C286.011 517.01 285.772 517.109 285.596 517.285C285.419 517.462 285.32 517.701 285.32 517.95V519.81H299.32V517.95C299.32 517.703 299.223 517.465 299.049 517.289C298.874 517.113 298.638 517.013 298.39 517.01ZM285.32 533.81H299.32V521.68H285.32V533.81ZM285.32 537.55C285.323 537.798 285.423 538.034 285.599 538.208C285.775 538.382 286.013 538.48 286.26 538.48H298.39C298.637 538.48 298.874 538.382 299.048 538.208C299.222 538.033 299.32 537.797 299.32 537.55V535.68H285.32V537.55Z" fill="#0D51D9"/>
<path d="M75.75 444.5C94.9419 444.5 110.5 428.942 110.5 409.75C110.5 390.558 94.9419 375 75.75 375C56.5581 375 41 390.558 41 409.75C41 428.942 56.5581 444.5 75.75 444.5Z" fill="white" stroke="#9F9F9F" stroke-width="0.5"/>
<path d="M75.4196 431.57C87.4705 431.57 97.2396 421.801 97.2396 409.75C97.2396 397.699 87.4705 387.93 75.4196 387.93C63.3688 387.93 53.5996 397.699 53.5996 409.75C53.5996 421.801 63.3688 431.57 75.4196 431.57Z" fill="#0D51D9"/>
<path d="M72.5701 409.73L69.6801 406.83V408.56H61.6201V410.89H69.6801V412.62L72.5701 409.73Z" fill="white"/>
<path d="M78.2695 409.73L81.1695 412.62V410.89H89.2295V408.56H81.1695V406.83L78.2695 409.73Z" fill="white"/>
<path d="M75.4203 423.27L78.3203 420.38H76.5903V412.32H74.2603V420.38H72.5303L75.4203 423.27Z" fill="white"/>
<path d="M75.4203 396.24L72.5303 399.13H74.2603V407.19H76.5903V399.13H78.3203L75.4203 396.24Z" fill="white"/>
<g filter="url(#filter0_d_1452_9798)">
<rect x="229" y="14" width="104" height="41" rx="20.5" fill="white"/>
<path d="M262.248 37.592H260.504C260.232 38.744 259.448 39.544 258.184 39.544C257.512 39.544 256.904 39.288 256.504 38.856C255.944 38.248 255.816 37.592 255.816 35.304C255.816 33.016 255.944 32.36 256.504 31.752C256.904 31.32 257.512 31.064 258.184 31.064C259.448 31.064 260.216 31.864 260.488 33.016H262.248C261.848 30.744 260.28 29.512 258.184 29.512C257 29.512 255.976 29.944 255.192 30.728C254.072 31.848 254.088 33.112 254.088 35.304C254.088 37.496 254.072 38.76 255.192 39.88C255.976 40.664 257 41.096 258.184 41.096C260.248 41.096 261.864 39.864 262.248 37.592ZM270.903 41V35.768C270.903 34.008 269.895 32.792 268.087 32.792C267.286 32.792 266.551 33.096 265.991 33.704V29.608H264.359V41H265.991V36.024C265.991 34.808 266.727 34.248 267.639 34.248C268.551 34.248 269.271 34.792 269.271 36.024V41H270.903ZM279.389 41V35.576C279.389 33.736 278.269 32.792 276.045 32.792C274.701 32.792 273.901 33.064 273.133 33.96L274.205 34.968C274.653 34.392 275.085 34.184 275.981 34.184C277.245 34.184 277.757 34.68 277.757 35.704V36.28H275.613C273.757 36.28 272.813 37.256 272.813 38.616C272.813 39.304 273.037 39.928 273.453 40.36C273.949 40.856 274.621 41.096 275.629 41.096C276.637 41.096 277.197 40.856 277.789 40.264V41H279.389ZM277.757 38.072C277.757 38.648 277.645 39.032 277.405 39.272C276.973 39.688 276.509 39.736 275.885 39.736C274.861 39.736 274.397 39.32 274.397 38.584C274.397 37.848 274.893 37.416 275.853 37.416H277.757V38.072ZM285.297 41V39.608H284.625C284.017 39.608 283.729 39.256 283.729 38.664V34.28H285.297V33.032H283.729V30.568H282.097V33.032H281.169V34.28H282.097V38.744C282.097 39.912 282.801 41 284.321 41H285.297ZM294.014 36.936C294.014 35.704 293.918 34.328 293.102 33.512C292.654 33.064 291.95 32.792 291.134 32.792C290.27 32.792 289.598 33 289.006 33.704V29.608H287.374V41H288.974V40.136C289.582 40.872 290.238 41.096 291.118 41.096C291.934 41.096 292.654 40.824 293.102 40.376C293.918 39.56 294.014 38.168 294.014 36.936ZM292.382 36.936C292.382 38.376 292.174 39.64 290.702 39.64C289.23 39.64 289.006 38.376 289.006 36.936C289.006 35.496 289.23 34.248 290.702 34.248C292.174 34.248 292.382 35.496 292.382 36.936ZM302.602 36.936C302.602 35.576 302.41 34.552 301.642 33.752C301.114 33.208 300.314 32.792 299.21 32.792C298.106 32.792 297.322 33.208 296.794 33.752C296.026 34.552 295.834 35.576 295.834 36.936C295.834 38.312 296.026 39.336 296.794 40.136C297.322 40.68 298.106 41.096 299.21 41.096C300.314 41.096 301.114 40.68 301.642 40.136C302.41 39.336 302.602 38.312 302.602 36.936ZM300.97 36.936C300.97 37.816 300.906 38.664 300.41 39.16C300.106 39.464 299.69 39.64 299.21 39.64C298.73 39.64 298.33 39.464 298.026 39.16C297.53 38.664 297.466 37.816 297.466 36.936C297.466 36.056 297.53 35.208 298.026 34.712C298.33 34.408 298.73 34.248 299.21 34.248C299.69 34.248 300.106 34.408 300.41 34.712C300.906 35.208 300.97 36.056 300.97 36.936ZM308.204 41V39.608H307.532C306.924 39.608 306.636 39.256 306.636 38.664V34.28H308.204V33.032H306.636V30.568H305.004V33.032H304.076V34.28H305.004V38.744C305.004 39.912 305.708 41 307.228 41H308.204Z" fill="#231F20"/>
</g>
<path d="M281 64L273.206 55L288.795 55L281 64Z" fill="white"/>
<g filter="url(#filter1_d_1452_9798)">
<rect x="426" y="136.778" width="122" height="41" rx="20.5" fill="white"/>
<path d="M459.881 163.778V152.386H458.153V157.25H453.529V152.386H451.801V163.778H453.529V158.802H458.153V163.778H459.881ZM469.135 160.194V159.474C469.135 157.17 467.871 155.57 465.695 155.57C463.615 155.57 462.255 157.09 462.255 159.714C462.255 162.802 463.871 163.874 465.903 163.874C467.327 163.874 468.111 163.442 468.943 162.61L467.903 161.634C467.327 162.21 466.847 162.466 465.935 162.466C464.607 162.466 463.871 161.586 463.871 160.194H469.135ZM467.519 159.058H463.871C463.887 158.562 463.919 158.322 464.079 157.954C464.335 157.346 464.927 156.93 465.695 156.93C466.463 156.93 467.039 157.346 467.295 157.954C467.455 158.322 467.503 158.562 467.519 159.058ZM474.48 163.778V162.386H473.76C473.104 162.386 472.88 162.066 472.88 161.442V152.386H471.248V161.538C471.248 162.738 471.92 163.778 473.472 163.778H474.48ZM482.905 159.714C482.905 158.482 482.809 157.106 481.993 156.29C481.545 155.842 480.825 155.57 480.009 155.57C479.129 155.57 478.473 155.794 477.865 156.53V155.666H476.265V167.058H477.897V162.946C478.489 163.65 479.161 163.874 480.025 163.874C480.841 163.874 481.545 163.602 481.993 163.154C482.809 162.338 482.905 160.946 482.905 159.714ZM481.273 159.714C481.273 161.154 481.065 162.418 479.593 162.418C478.121 162.418 477.897 161.154 477.897 159.714C477.897 158.274 478.121 157.026 479.593 157.026C481.065 157.026 481.273 158.274 481.273 159.714ZM497.24 158.002C497.24 156.354 497.32 154.69 496.088 153.458C495.368 152.738 494.328 152.386 493.144 152.386H489.144V163.778H493.144C494.328 163.778 495.368 163.426 496.088 162.706C497.32 161.474 497.24 159.65 497.24 158.002ZM495.512 158.002C495.512 159.57 495.496 160.802 494.904 161.458C494.424 161.986 493.784 162.226 492.968 162.226H490.872V153.938H492.968C493.784 153.938 494.424 154.178 494.904 154.706C495.496 155.362 495.512 156.434 495.512 158.002ZM506.073 160.194V159.474C506.073 157.17 504.809 155.57 502.633 155.57C500.553 155.57 499.193 157.09 499.193 159.714C499.193 162.802 500.809 163.874 502.841 163.874C504.265 163.874 505.049 163.442 505.881 162.61L504.841 161.634C504.265 162.21 503.785 162.466 502.873 162.466C501.545 162.466 500.809 161.586 500.809 160.194H506.073ZM504.457 159.058H500.809C500.825 158.562 500.857 158.322 501.017 157.954C501.273 157.346 501.865 156.93 502.633 156.93C503.401 156.93 503.977 157.346 504.233 157.954C504.393 158.322 504.441 158.562 504.457 159.058ZM514.234 161.298C514.234 159.858 513.338 159.138 511.818 159.01L510.538 158.898C509.674 158.818 509.418 158.45 509.418 157.97C509.418 157.362 509.914 156.93 510.89 156.93C511.658 156.93 512.378 157.09 512.89 157.522L513.914 156.482C513.162 155.826 512.122 155.57 510.906 155.57C509.21 155.57 507.85 156.466 507.85 158.05C507.85 159.474 508.73 160.162 510.25 160.29L511.546 160.402C512.33 160.466 512.634 160.818 512.634 161.362C512.634 162.13 511.85 162.482 510.858 162.482C510.058 162.482 509.178 162.306 508.522 161.634L507.45 162.706C508.41 163.65 509.53 163.874 510.858 163.874C512.794 163.874 514.234 162.994 514.234 161.298ZM523.338 163.778L520.17 158.85L522.986 155.666H521.002L517.85 159.41V152.386H516.218V163.778H517.85V161.394L519.05 160.034L521.322 163.778H523.338Z" fill="#231F20"/>
</g>
<path d="M487 186.778L479.206 177.778L494.795 177.778L487 186.778Z" fill="white"/>
<g filter="url(#filter2_d_1452_9798)">
<rect x="448" y="335" width="80" height="41" rx="20.5" fill="white"/>
<path d="M475.529 362V350.608H473.801V362H475.529ZM485.496 352.16V350.608H477.496V352.16H480.632V362H482.36V352.16H485.496ZM489.185 362V350.608H487.457V362H489.185ZM502.208 362V350.608H500.48L497.216 357.696L493.888 350.608H492.16V362H493.888V354.384L496.576 359.936H497.856L500.48 354.384V362H502.208Z" fill="#231F20"/>
</g>
<path d="M488 385L480.206 376L495.795 376L488 385Z" fill="white"/>
<g filter="url(#filter3_d_1452_9798)">
<rect x="190" y="448.778" width="186" height="41" rx="20.5" fill="white"/>
<path d="M224.114 475.778L219.938 464.386H218.546L214.37 475.778H216.21L216.994 473.49H221.49L222.274 475.778H224.114ZM221.01 472.018H217.506L219.282 466.962L221.01 472.018ZM231.538 473.298C231.538 471.858 230.642 471.138 229.122 471.01L227.842 470.898C226.978 470.818 226.722 470.45 226.722 469.97C226.722 469.362 227.218 468.93 228.194 468.93C228.962 468.93 229.682 469.09 230.194 469.522L231.218 468.482C230.466 467.826 229.426 467.57 228.21 467.57C226.514 467.57 225.154 468.466 225.154 470.05C225.154 471.474 226.034 472.162 227.554 472.29L228.85 472.402C229.634 472.466 229.938 472.818 229.938 473.362C229.938 474.13 229.154 474.482 228.162 474.482C227.362 474.482 226.482 474.306 225.826 473.634L224.754 474.706C225.714 475.65 226.834 475.874 228.162 475.874C230.098 475.874 231.538 474.994 231.538 473.298ZM239.429 473.298C239.429 471.858 238.533 471.138 237.013 471.01L235.733 470.898C234.869 470.818 234.613 470.45 234.613 469.97C234.613 469.362 235.109 468.93 236.085 468.93C236.853 468.93 237.573 469.09 238.085 469.522L239.109 468.482C238.357 467.826 237.317 467.57 236.101 467.57C234.405 467.57 233.045 468.466 233.045 470.05C233.045 471.474 233.925 472.162 235.445 472.29L236.741 472.402C237.525 472.466 237.829 472.818 237.829 473.362C237.829 474.13 237.045 474.482 236.053 474.482C235.253 474.482 234.373 474.306 233.717 473.634L232.645 474.706C233.605 475.65 234.725 475.874 236.053 475.874C237.989 475.874 239.429 474.994 239.429 473.298ZM247.877 472.194V471.474C247.877 469.17 246.613 467.57 244.437 467.57C242.357 467.57 240.997 469.09 240.997 471.714C240.997 474.802 242.613 475.874 244.645 475.874C246.069 475.874 246.853 475.442 247.685 474.61L246.645 473.634C246.069 474.21 245.589 474.466 244.677 474.466C243.349 474.466 242.613 473.586 242.613 472.194H247.877ZM246.261 471.058H242.613C242.629 470.562 242.661 470.322 242.821 469.954C243.077 469.346 243.669 468.93 244.437 468.93C245.205 468.93 245.781 469.346 246.037 469.954C246.197 470.322 246.245 470.562 246.261 471.058ZM253.43 475.778V474.386H252.758C252.15 474.386 251.862 474.034 251.862 473.442V469.058H253.43V467.81H251.862V465.346H250.23V467.81H249.302V469.058H250.23V473.522C250.23 474.69 250.934 475.778 252.454 475.778H253.43ZM269.591 475.778V464.386H267.863L264.599 471.474L261.271 464.386H259.543V475.778H261.271V468.162L263.959 473.714H265.239L267.863 468.162V475.778H269.591ZM278.334 475.778V470.354C278.334 468.514 277.214 467.57 274.99 467.57C273.646 467.57 272.846 467.842 272.078 468.738L273.15 469.746C273.598 469.17 274.03 468.962 274.926 468.962C276.19 468.962 276.702 469.458 276.702 470.482V471.058H274.558C272.702 471.058 271.758 472.034 271.758 473.394C271.758 474.082 271.982 474.706 272.398 475.138C272.894 475.634 273.566 475.874 274.574 475.874C275.582 475.874 276.142 475.634 276.734 475.042V475.778H278.334ZM276.702 472.85C276.702 473.426 276.59 473.81 276.35 474.05C275.918 474.466 275.454 474.514 274.83 474.514C273.806 474.514 273.342 474.098 273.342 473.362C273.342 472.626 273.838 472.194 274.798 472.194H276.702V472.85ZM287.427 475.778V470.594C287.427 469.682 287.235 468.914 286.611 468.306C286.131 467.842 285.443 467.57 284.611 467.57C283.795 467.57 283.011 467.874 282.451 468.482V467.666H280.851V475.778H282.483V470.834C282.483 469.586 283.251 469.026 284.163 469.026C285.075 469.026 285.795 469.57 285.795 470.834V475.778H287.427ZM295.912 475.778V470.354C295.912 468.514 294.792 467.57 292.568 467.57C291.224 467.57 290.424 467.842 289.656 468.738L290.728 469.746C291.176 469.17 291.608 468.962 292.504 468.962C293.768 468.962 294.28 469.458 294.28 470.482V471.058H292.136C290.28 471.058 289.336 472.034 289.336 473.394C289.336 474.082 289.56 474.706 289.976 475.138C290.472 475.634 291.144 475.874 292.152 475.874C293.16 475.874 293.72 475.634 294.312 475.042V475.778H295.912ZM294.28 472.85C294.28 473.426 294.168 473.81 293.928 474.05C293.496 474.466 293.032 474.514 292.408 474.514C291.384 474.514 290.92 474.098 290.92 473.362C290.92 472.626 291.416 472.194 292.376 472.194H294.28V472.85ZM304.621 475.73V467.666H303.037V468.53C302.429 467.794 301.773 467.57 300.909 467.57C300.093 467.57 299.405 467.826 298.957 468.274C298.173 469.058 298.045 470.194 298.045 471.57C298.045 472.946 298.173 474.082 298.957 474.866C299.405 475.314 300.077 475.586 300.893 475.586C301.725 475.586 302.397 475.362 302.989 474.658V475.698C302.989 476.786 302.461 477.762 301.085 477.762C300.285 477.762 299.837 477.522 299.325 477.042L298.285 478.082C299.133 478.866 299.917 479.154 301.149 479.154C303.309 479.154 304.621 477.714 304.621 475.73ZM302.989 471.57C302.989 472.85 302.813 474.114 301.341 474.114C299.869 474.114 299.677 472.85 299.677 471.57C299.677 470.29 299.869 469.026 301.341 469.026C302.813 469.026 302.989 470.29 302.989 471.57ZM313.674 472.194V471.474C313.674 469.17 312.41 467.57 310.234 467.57C308.154 467.57 306.794 469.09 306.794 471.714C306.794 474.802 308.41 475.874 310.442 475.874C311.866 475.874 312.65 475.442 313.482 474.61L312.442 473.634C311.866 474.21 311.386 474.466 310.474 474.466C309.146 474.466 308.41 473.586 308.41 472.194H313.674ZM312.058 471.058H308.41C308.426 470.562 308.458 470.322 308.618 469.954C308.874 469.346 309.466 468.93 310.234 468.93C311.002 468.93 311.578 469.346 311.834 469.954C311.994 470.322 312.042 470.562 312.058 471.058ZM327.355 475.778V470.594C327.355 469.682 327.115 468.914 326.491 468.306C326.011 467.842 325.275 467.57 324.443 467.57C323.371 467.57 322.555 467.954 321.899 468.754C321.387 467.97 320.603 467.57 319.595 467.57C318.779 467.57 317.979 467.89 317.435 468.482V467.666H315.835V475.778H317.467V470.834C317.467 469.586 318.235 469.026 319.147 469.026C320.059 469.026 320.779 469.57 320.779 470.834V475.778H322.411V470.754C322.411 469.586 323.211 469.026 324.091 469.026C325.003 469.026 325.723 469.57 325.723 470.834V475.778H327.355ZM336.33 472.194V471.474C336.33 469.17 335.066 467.57 332.89 467.57C330.81 467.57 329.45 469.09 329.45 471.714C329.45 474.802 331.066 475.874 333.098 475.874C334.522 475.874 335.306 475.442 336.138 474.61L335.098 473.634C334.522 474.21 334.042 474.466 333.13 474.466C331.802 474.466 331.066 473.586 331.066 472.194H336.33ZM334.714 471.058H331.066C331.082 470.562 331.114 470.322 331.274 469.954C331.53 469.346 332.122 468.93 332.89 468.93C333.658 468.93 334.234 469.346 334.49 469.954C334.65 470.322 334.698 470.562 334.714 471.058ZM345.067 475.778V470.594C345.067 469.682 344.875 468.914 344.251 468.306C343.771 467.842 343.083 467.57 342.251 467.57C341.435 467.57 340.651 467.874 340.091 468.482V467.666H338.491V475.778H340.123V470.834C340.123 469.586 340.891 469.026 341.803 469.026C342.715 469.026 343.435 469.57 343.435 470.834V475.778H345.067ZM350.977 475.778V474.386H350.305C349.697 474.386 349.409 474.034 349.409 473.442V469.058H350.977V467.81H349.409V465.346H347.777V467.81H346.849V469.058H347.777V473.522C347.777 474.69 348.481 475.778 350.001 475.778H350.977Z" fill="#231F20"/>
</g>
<path d="M283 498.778L275.206 489.778L290.795 489.778L283 498.778Z" fill="white"/>
<g filter="url(#filter4_d_1452_9798)">
<rect x="35" y="335" width="82" height="41" rx="20.5" fill="white"/>
<path d="M69.064 362V350.608H67.336V358.608L62.072 350.608H60.488V362H62.216V353.984L67.48 362H69.064ZM82.0829 362V350.608H80.3549L77.0909 357.696L73.7629 350.608H72.0349V362H73.7629V354.384L76.4509 359.936H77.7309L80.3549 354.384V362H82.0829ZM92.1705 358.752C92.1705 357.776 91.8665 356.96 91.2425 356.416C90.7625 355.984 90.1705 355.728 89.1145 355.568L87.8185 355.376C87.2905 355.296 86.8265 355.104 86.5385 354.848C86.2345 354.576 86.1065 354.208 86.1065 353.792C86.1065 352.784 86.8425 352.016 88.1865 352.016C89.1465 352.016 89.9625 352.224 90.6665 352.896L91.7705 351.808C90.7945 350.896 89.7385 350.512 88.2345 350.512C85.8665 350.512 84.4265 351.872 84.4265 353.856C84.4265 354.784 84.6985 355.504 85.2585 356.032C85.7545 356.496 86.4905 356.816 87.4185 356.944L88.7625 357.136C89.4345 357.232 89.7225 357.344 90.0105 357.616C90.3145 357.888 90.4585 358.304 90.4585 358.8C90.4585 359.904 89.5945 360.544 88.1065 360.544C86.9385 360.544 86.0265 360.288 85.1945 359.456L84.0425 360.592C85.1305 361.696 86.3625 362.096 88.0745 362.096C90.4585 362.096 92.1705 360.848 92.1705 358.752Z" fill="#231F20"/>
</g>
<path d="M76.0003 385L68.2061 376L83.7945 376L76.0003 385Z" fill="white"/>
<g filter="url(#filter5_d_1452_9798)">
<rect x="24" y="136.778" width="85" height="41" rx="20.5" fill="white"/>
<path d="M51.6613 163.778V152.386H49.9333V163.778H51.6613ZM61.6284 153.938V152.386H53.6284V153.938H56.7644V163.778H58.4924V153.938H61.6284ZM70.7096 160.53C70.7096 159.554 70.4056 158.738 69.7816 158.194C69.3016 157.762 68.7096 157.506 67.6536 157.346L66.3576 157.154C65.8296 157.074 65.3656 156.882 65.0776 156.626C64.7736 156.354 64.6456 155.986 64.6456 155.57C64.6456 154.562 65.3816 153.794 66.7256 153.794C67.6856 153.794 68.5016 154.002 69.2056 154.674L70.3096 153.586C69.3336 152.674 68.2776 152.29 66.7736 152.29C64.4056 152.29 62.9656 153.65 62.9656 155.634C62.9656 156.562 63.2376 157.282 63.7976 157.81C64.2936 158.274 65.0296 158.594 65.9576 158.722L67.3016 158.914C67.9736 159.01 68.2616 159.122 68.5496 159.394C68.8536 159.666 68.9976 160.082 68.9976 160.578C68.9976 161.682 68.1336 162.322 66.6456 162.322C65.4776 162.322 64.5656 162.066 63.7336 161.234L62.5816 162.37C63.6696 163.474 64.9016 163.874 66.6136 163.874C68.9976 163.874 70.7096 162.626 70.7096 160.53ZM83.0751 163.778V152.386H81.3471L78.0831 159.474L74.7551 152.386H73.0271V163.778H74.7551V156.162L77.4431 161.714H78.7231L81.3471 156.162V163.778H83.0751Z" fill="#231F20"/>
</g>
<path d="M66.5003 186.778L58.7061 177.778L74.2945 177.778L66.5003 186.778Z" fill="white"/>
<defs>
<filter id="filter0_d_1452_9798" x="205" y="0" width="152" height="89" filterUnits="userSpaceOnUse" color-interpolation-filters="sRGB">
<feFlood flood-opacity="0" result="BackgroundImageFix"/>
<feColorMatrix in="SourceAlpha" type="matrix" values="0 0 0 0 0 0 0 0 0 0 0 0 0 0 0 0 0 0 127 0" result="hardAlpha"/>
<feOffset dy="10"/>
<feGaussianBlur stdDeviation="12"/>
<feComposite in2="hardAlpha" operator="out"/>
<feColorMatrix type="matrix" values="0 0 0 0 0 0 0 0 0 0 0 0 0 0 0 0 0 0 0.12 0"/>
<feBlend mode="normal" in2="BackgroundImageFix" result="effect1_dropShadow_1452_9798"/>
<feBlend mode="normal" in="SourceGraphic" in2="effect1_dropShadow_1452_9798" result="shape"/>
</filter>
<filter id="filter1_d_1452_9798" x="402" y="122.778" width="170" height="89" filterUnits="userSpaceOnUse" color-interpolation-filters="sRGB">
<feFlood flood-opacity="0" result="BackgroundImageFix"/>
<feColorMatrix in="SourceAlpha" type="matrix" values="0 0 0 0 0 0 0 0 0 0 0 0 0 0 0 0 0 0 127 0" result="hardAlpha"/>
<feOffset dy="10"/>
<feGaussianBlur stdDeviation="12"/>
<feComposite in2="hardAlpha" operator="out"/>
<feColorMatrix type="matrix" values="0 0 0 0 0 0 0 0 0 0 0 0 0 0 0 0 0 0 0.12 0"/>
<feBlend mode="normal" in2="BackgroundImageFix" result="effect1_dropShadow_1452_9798"/>
<feBlend mode="normal" in="SourceGraphic" in2="effect1_dropShadow_1452_9798" result="shape"/>
</filter>
<filter id="filter2_d_1452_9798" x="424" y="321" width="128" height="89" filterUnits="userSpaceOnUse" color-interpolation-filters="sRGB">
<feFlood flood-opacity="0" result="BackgroundImageFix"/>
<feColorMatrix in="SourceAlpha" type="matrix" values="0 0 0 0 0 0 0 0 0 0 0 0 0 0 0 0 0 0 127 0" result="hardAlpha"/>
<feOffset dy="10"/>
<feGaussianBlur stdDeviation="12"/>
<feComposite in2="hardAlpha" operator="out"/>
<feColorMatrix type="matrix" values="0 0 0 0 0 0 0 0 0 0 0 0 0 0 0 0 0 0 0.12 0"/>
<feBlend mode="normal" in2="BackgroundImageFix" result="effect1_dropShadow_1452_9798"/>
<feBlend mode="normal" in="SourceGraphic" in2="effect1_dropShadow_1452_9798" result="shape"/>
</filter>
<filter id="filter3_d_1452_9798" x="166" y="434.778" width="234" height="89" filterUnits="userSpaceOnUse" color-interpolation-filters="sRGB">
<feFlood flood-opacity="0" result="BackgroundImageFix"/>
<feColorMatrix in="SourceAlpha" type="matrix" values="0 0 0 0 0 0 0 0 0 0 0 0 0 0 0 0 0 0 127 0" result="hardAlpha"/>
<feOffset dy="10"/>
<feGaussianBlur stdDeviation="12"/>
<feComposite in2="hardAlpha" operator="out"/>
<feColorMatrix type="matrix" values="0 0 0 0 0 0 0 0 0 0 0 0 0 0 0 0 0 0 0.12 0"/>
<feBlend mode="normal" in2="BackgroundImageFix" result="effect1_dropShadow_1452_9798"/>
<feBlend mode="normal" in="SourceGraphic" in2="effect1_dropShadow_1452_9798" result="shape"/>
</filter>
<filter id="filter4_d_1452_9798" x="11" y="321" width="130" height="89" filterUnits="userSpaceOnUse" color-interpolation-filters="sRGB">
<feFlood flood-opacity="0" result="BackgroundImageFix"/>
<feColorMatrix in="SourceAlpha" type="matrix" values="0 0 0 0 0 0 0 0 0 0 0 0 0 0 0 0 0 0 127 0" result="hardAlpha"/>
<feOffset dy="10"/>
<feGaussianBlur stdDeviation="12"/>
<feComposite in2="hardAlpha" operator="out"/>
<feColorMatrix type="matrix" values="0 0 0 0 0 0 0 0 0 0 0 0 0 0 0 0 0 0 0.12 0"/>
<feBlend mode="normal" in2="BackgroundImageFix" result="effect1_dropShadow_1452_9798"/>
<feBlend mode="normal" in="SourceGraphic" in2="effect1_dropShadow_1452_9798" result="shape"/>
</filter>
<filter id="filter5_d_1452_9798" x="0" y="122.778" width="133" height="89" filterUnits="userSpaceOnUse" color-interpolation-filters="sRGB">
<feFlood flood-opacity="0" result="BackgroundImageFix"/>
<feColorMatrix in="SourceAlpha" type="matrix" values="0 0 0 0 0 0 0 0 0 0 0 0 0 0 0 0 0 0 127 0" result="hardAlpha"/>
<feOffset dy="10"/>
<feGaussianBlur stdDeviation="12"/>
<feComposite in2="hardAlpha" operator="out"/>
<feColorMatrix type="matrix" values="0 0 0 0 0 0 0 0 0 0 0 0 0 0 0 0 0 0 0.12 0"/>
<feBlend mode="normal" in2="BackgroundImageFix" result="effect1_dropShadow_1452_9798"/>
<feBlend mode="normal" in="SourceGraphic" in2="effect1_dropShadow_1452_9798" result="shape"/>
</filter>
</defs>
</svg>
