<?xml version="1.0" encoding="utf-8"?>
<!-- Generator: Adobe Illustrator 25.2.1, SVG Export Plug-In . SVG Version: 6.00 Build 0)  -->
<svg version="1.1" id="Layer_1" xmlns="http://www.w3.org/2000/svg" xmlns:xlink="http://www.w3.org/1999/xlink" x="0px" y="0px"
	 width="1200px" height="376px" viewBox="0 0 1200 376" style="enable-background:new 0 0 1200 376;" xml:space="preserve">
<style type="text/css">
	.st0{fill:#0D51D9;}
	.st1{opacity:0.2;}
	.st2{fill:#5291F7;}
	.st3{fill:#083372;}
</style>
<path class="st0" d="M4,0h1192c2.2,0,4,1.8,4,4v368c0,2.2-1.8,4-4,4H4c-2.2,0-4-1.8-4-4V4C0,1.8,1.8,0,4,0z"/>
<g class="st1">
	<path class="st2" d="M-212.4,179.8c0-34.6,10.2-69.5,31.5-99.6l318.4,236.1l141.6,105l66.5,49.3l3.5,2.6l271.7,201.5l52.9,39.2
		l2,1.5l-96.9,137.1l-0.5,0.7L564.6,843l-24.2-17.9l-23-17L137.6,526.3L-4,421.3l-139.7-103.6C-188.5,284.5-212.4,232.5-212.4,179.8
		z"/>
	<path class="st3" d="M620.2,426c0-123.7,97.9-224,218.6-224s218.6,100.3,218.6,224c0,7.7-0.4,15.3-1.1,22.8c0,0.2-0.1,0.5-0.1,0.7
		c-7.6,75.1-51.5,139.2-113.4,173.6c0.1-2,0.2-4.1,0.2-6.2v-87.2c0-29.9-11.8-56.9-30.9-76.5c-19.1-19.6-45.5-31.7-74.7-31.7
		c-58.3,0-105.6,48.5-105.6,108.2v87.2c0,1.5,0.1,2.9,0.1,4.4C666.6,583.7,622,512.8,620.3,431C620.3,429.3,620.2,427.7,620.2,426z"
		/>
	<path class="st3" d="M-381,918.2l518.6-392.5l141.6-105l66.4-49.3l0.1-0.1c0,0.2-0.1,0.5-0.1,0.7l3.6-2.7l267.9-198.7
		c1.3-1.2,2.5-2.3,3.8-3.5l52.9-39.2c0.6-0.4,1.2-0.7,1.8-1.1C724,98.3,780.2,82,840.1,82c182.7,0,330.7,151.7,330.7,338.9
		s-148.1,338.9-330.7,338.9c-60.6,0-117.5-16.7-166.3-45.9c-18.9-11.3-36.6-24.5-52.9-39.2L349.1,473.2l-3.5-2.6
		c12.7,134.8,76.8,254.2,171.8,337.4c86.9,76.1,199.6,122,322.7,122c274.4,0,496.8-227.9,496.8-509c0-219.5-135.5-406.5-325.5-477.9
		C958-77,900.3-88,840.1-88c-7.5,0-15,0.2-22.5,0.5C703.3-82.3,599-37.5,517.5,33.9l-4.7,3.5L137.6,315.7L-4,420.7l-339.9,260
		c-44.9,33.3-68.7,85.2-68.7,138C-412.6,853.1-402.3,888-381,918.2z"/>
</g>
</svg>
