<?xml version="1.0" encoding="utf-8"?>
<!-- Generator: Adobe Illustrator 25.2.1, SVG Export Plug-In . SVG Version: 6.00 Build 0)  -->
<svg version="1.1" id="Layer_1" xmlns="http://www.w3.org/2000/svg" xmlns:xlink="http://www.w3.org/1999/xlink" x="0px" y="0px"
	 width="150.4px" height="30px" viewBox="0 0 150.4 30" style="enable-background:new 0 0 150.4 30;" xml:space="preserve">
<style type="text/css">
	.st0{fill:#FFFFFF;}
	.st1{fill:#80C6FF;}
	.st2{fill:#6596CF;}
</style>
<g>
	<g>
		<g>
			<path class="st0" d="M62,6.9h-5V3.1h5V6.9z M61.9,24.6h-4.8V9.1h4.8V24.6z"/>
		</g>
		<g>
			<path class="st0" d="M150.4,24.6h-4.8v-7.7c0-0.6,0-1.2-0.1-1.9c-0.1-0.6-0.1-1.1-0.3-1.4c-0.2-0.3-0.4-0.6-0.7-0.8
				s-0.7-0.2-1.2-0.2c-0.4,0-0.8,0.1-1.2,0.2c-0.4,0.1-0.8,0.4-1.3,0.7v11H136V9h4.8v1.7c0.8-0.7,1.5-1.2,2.3-1.6
				c0.7-0.4,1.6-0.6,2.5-0.6c1.6,0,2.8,0.5,3.6,1.5s1.2,2.4,1.2,4.3L150.4,24.6L150.4,24.6z"/>
		</g>
		<g>
			<path class="st0" d="M91.7,6.7h-0.4c-0.2-0.1-0.5-0.1-0.9-0.2s-0.8-0.1-1.1-0.1c-1,0-1.6,0.2-2,0.5c-0.4,0.4-0.5,1-0.5,2V9h3.8
				v3.4H87v12.1h-4.8V12.4h-1.9V9h1.9V8.6c0-1.9,0.5-3.3,1.5-4.3c1-0.9,2.5-1.4,4.5-1.4c0.7,0,1.3,0,1.9,0.1s1.1,0.1,1.6,0.2V6.7
				L91.7,6.7z"/>
		</g>
		<g>
			<path class="st0" d="M103.1,13.6h-0.4c-0.2-0.1-0.4-0.1-0.8-0.1c-0.3,0-0.7,0-1.1,0c-0.5,0-1,0.1-1.6,0.2s-1.1,0.3-1.6,0.5v10.4
				h-4.8V9.1h4.8v2.2c0.2-0.2,0.5-0.5,0.9-0.8s0.7-0.6,1.1-0.7c0.3-0.2,0.7-0.4,1.2-0.5c0.5-0.2,0.9-0.2,1.3-0.2c0.2,0,0.3,0,0.5,0
				s0.4,0,0.5,0V13.6L103.1,13.6z"/>
		</g>
		<g>
			<path class="st0" d="M112.7,22.5c-0.3,0.3-0.6,0.5-0.9,0.7s-0.6,0.4-1,0.7c-0.4,0.2-0.8,0.4-1.2,0.5c-0.4,0.1-1,0.2-1.7,0.2
				c-1.4,0-2.5-0.5-3.4-1.4s-1.3-2.1-1.3-3.5c0-1.2,0.2-2.1,0.7-2.8c0.5-0.7,1.1-1.3,2-1.7s1.9-0.7,3.1-0.9s2.5-0.3,3.9-0.4v-0.1
				c0-0.9-0.3-1.4-0.9-1.8c-0.6-0.3-1.6-0.5-2.8-0.5c-0.6,0-1.2,0.1-2,0.3s-1.5,0.5-2.2,0.8h-0.4V8.9c0.5-0.1,1.2-0.3,2.3-0.5
				c1.1-0.2,2.1-0.3,3.2-0.3c2.6,0,4.6,0.4,5.8,1.3c1.2,0.9,1.8,2.2,1.8,4.1V24H113L112.7,22.5L112.7,22.5z M112.7,20.1v-3.2
				c-0.8,0.1-1.5,0.2-2,0.2c-0.5,0.1-1,0.2-1.5,0.4c-0.4,0.1-0.7,0.4-1,0.7c-0.2,0.3-0.3,0.7-0.3,1.2c0,0.7,0.2,1.2,0.6,1.5
				s1,0.4,1.7,0.4c0.4,0,0.8-0.1,1.3-0.3C111.9,20.7,112.3,20.4,112.7,20.1z"/>
		</g>
		<g>
			<path class="st0" d="M134.6,16.3c0,2.5-0.7,4.6-2.1,6c-1.4,1.5-3.3,2.2-5.8,2.2s-4.4-0.7-5.8-2.2s-2.1-3.5-2.1-6
				c0-2.6,0.7-4.6,2.1-6.1s3.3-2.2,5.8-2.2s4.5,0.7,5.8,2.2C134,11.8,134.6,13.8,134.6,16.3z M129.7,16.4c0-0.9-0.1-1.7-0.2-2.3
				c-0.2-0.6-0.4-1.1-0.6-1.5c-0.3-0.4-0.6-0.7-1-0.8c-0.4-0.2-0.8-0.2-1.2-0.2c-0.4,0-0.8,0.1-1.2,0.2c-0.3,0.1-0.7,0.4-1,0.8
				s-0.5,0.9-0.7,1.5s-0.2,1.4-0.2,2.4c0,0.9,0.1,1.7,0.2,2.3c0.2,0.6,0.4,1.1,0.6,1.4c0.3,0.4,0.6,0.6,1,0.8
				c0.4,0.2,0.8,0.2,1.3,0.2c0.4,0,0.8-0.1,1.2-0.2c0.4-0.2,0.7-0.4,0.9-0.7c0.3-0.4,0.5-0.9,0.6-1.4
				C129.7,18.1,129.7,17.4,129.7,16.4z"/>
		</g>
		<g>
			<path class="st0" d="M79.3,24.6h-4.8v-7.7c0-0.6,0-1.2-0.1-1.9c-0.1-0.6-0.1-1.1-0.3-1.4c-0.2-0.3-0.4-0.6-0.7-0.8
				c-0.3-0.2-0.7-0.2-1.2-0.2c-0.4,0-0.8,0.1-1.2,0.2c-0.4,0.1-0.8,0.4-1.3,0.7v11h-4.8V9h4.8v1.7c0.8-0.7,1.5-1.2,2.3-1.6
				c0.7-0.4,1.6-0.6,2.5-0.6c1.6,0,2.8,0.5,3.6,1.5c0.8,1,1.2,2.4,1.2,4.3V24.6L79.3,24.6z"/>
		</g>
	</g>
	<g>
		<g>
			<path class="st1" d="M47.2,22.8c0,1-0.3,2-0.9,2.9l-9.5-7l-4.2-3.1l-2-1.5L30.5,14l-8.1-5.9l-1.6-1.2h-0.1l2.9-4l0,0L24,3.2
				l0.7,0.5l0.7,0.5l11.3,8.3l4.2,3.1l4.2,3.1C46.5,19.7,47.2,21.2,47.2,22.8z"/>
		</g>
		<g>
			<path class="st0" d="M22,14.7c0,3.6-2.9,6.6-6.5,6.6S9,18.3,9,14.7c0-0.2,0-0.5,0-0.7l0,0c0.2-2.2,1.5-4.1,3.4-5.1
				c0,0.1,0,0.1,0,0.2v2.6c0,0.9,0.4,1.7,0.9,2.3c0.6,0.6,1.4,0.9,2.2,0.9c1.7,0,3.2-1.4,3.2-3.2V9.1V9C20.6,10.1,22,12.2,22,14.7
				C22,14.6,22,14.7,22,14.7z"/>
		</g>
		<g>
			<path class="st1" d="M17.3,8.7v2.8c0,1.1-0.8,2-1.8,2s-1.8-0.9-1.8-2V8.7V8.6c0,0,0,0,0.1,0c0.5-0.1,1.1-0.2,1.6-0.2
				c0.6,0,1.2,0.1,1.7,0.2C17.2,8.6,17.2,8.6,17.3,8.7C17.3,8.6,17.3,8.6,17.3,8.7z"/>
		</g>
		<g>
			<path class="st0" d="M51.2,0.1L35.7,11.7l-4.2,3.1l-2,1.5l0,0l0,0l-0.1,0.1l-8,5.9l-0.1,0.1l-1.6,1.2c0,0,0,0-0.1,0
				c-1.4,0.8-3.1,1.3-4.9,1.3c-5.5,0-9.9-4.5-9.9-10s4.4-10,9.9-10c1.8,0,3.5,0.5,5,1.4c0.6,0.3,1.1,0.7,1.6,1.2l8.1,5.9l0.1,0.1
				c-0.4-4-2.3-7.5-5.1-9.9c-2.6-2.2-6-3.6-9.6-3.6C6.6,0,0,6.7,0,15c0,6.5,4,12,9.7,14.1c1.6,0.6,3.3,0.9,5.1,0.9
				c0.2,0,0.4,0,0.7,0c3.4-0.2,6.5-1.5,9-3.6l0.1-0.1l11.2-8.2L40,15l10.1-7.7c1.3-1,2-2.5,2-4.1C52.2,2,51.9,1,51.2,0.1z"/>
		</g>
		<g>
			<path class="st2" d="M35.9,18.1L40,15l1,0.7L36,18.2L35.9,18.1z"/>
		</g>
	</g>
</g>
</svg>
