<?xml version="1.0" encoding="utf-8"?>
<!-- Generator: Adobe Illustrator 25.2.1, SVG Export Plug-In . SVG Version: 6.00 Build 0)  -->
<svg version="1.1" id="Layer_1" xmlns="http://www.w3.org/2000/svg" xmlns:xlink="http://www.w3.org/1999/xlink" x="0px" y="0px"
	 width="128.3px" height="27.1px" viewBox="0 0 128.3 27.1" style="enable-background:new 0 0 128.3 27.1;" xml:space="preserve">
<style type="text/css">
	.st0{fill:#0D51D9;}
	.st1{clip-path:url(#SVGID_2_);fill:#0D51D9;}
	.st2{clip-path:url(#SVGID_4_);fill:#0D51D9;}
	.st3{clip-path:url(#SVGID_6_);fill:#0D51D9;}
	.st4{clip-path:url(#SVGID_8_);fill:#0D51D9;}
	.st5{clip-path:url(#SVGID_10_);fill:#0D51D9;}
	.st6{clip-path:url(#SVGID_12_);fill:#0D51D9;}
	.st7{clip-path:url(#SVGID_14_);fill:#80C6FF;}
	.st8{clip-path:url(#SVGID_16_);fill:#0D51D9;}
	.st9{clip-path:url(#SVGID_18_);fill:#80C6FF;}
	.st10{clip-path:url(#SVGID_20_);fill:#0D51D9;}
	.st11{clip-path:url(#SVGID_22_);fill:#4D9EFF;}
</style>
<g>
	<path class="st0" d="M53.3,6.5H49V3.3h4.3V6.5z M53.2,21.8h-4.1V8.4h4.1V21.8z"/>
	<g>
		<g>
			<defs>
				<rect id="SVGID_1_" x="-57.2" y="-57.9" width="260.8" height="140"/>
			</defs>
			<clipPath id="SVGID_2_">
				<use xlink:href="#SVGID_1_"  style="overflow:visible;"/>
			</clipPath>
			<path class="st1" d="M67.9,21.8h-4.1v-6.6c0-0.5,0-1.1-0.1-1.6c0-0.5-0.1-0.9-0.2-1.2c-0.1-0.3-0.3-0.5-0.6-0.6
				c-0.3-0.1-0.6-0.2-1.1-0.2c-0.3,0-0.7,0.1-1,0.2c-0.3,0.1-0.7,0.3-1.1,0.6v9.4h-4.1V8.4h4.1v1.5c0.7-0.6,1.3-1,2-1.4
				c0.6-0.3,1.3-0.5,2.1-0.5c1.3,0,2.4,0.4,3.1,1.3c0.7,0.9,1.1,2.1,1.1,3.7V21.8L67.9,21.8z"/>
		</g>
		<g>
			<defs>
				<rect id="SVGID_3_" x="-57.2" y="-57.9" width="260.8" height="140"/>
			</defs>
			<clipPath id="SVGID_4_">
				<use xlink:href="#SVGID_3_"  style="overflow:visible;"/>
			</clipPath>
			<path class="st2" d="M78.6,6.4h-0.3c-0.2,0-0.4-0.1-0.7-0.2c-0.3-0.1-0.6-0.1-0.9-0.1c-0.8,0-1.4,0.2-1.7,0.5s-0.4,0.9-0.4,1.7
				v0.1h3.2v2.9h-3.1v10.4h-4.1V11.3h-1.6V8.4h1.6V8.1c0-1.6,0.4-2.9,1.3-3.7c0.8-0.8,2.1-1.2,3.8-1.2c0.6,0,1.1,0,1.7,0.1
				c0.5,0,1,0.1,1.3,0.2L78.6,6.4L78.6,6.4z"/>
		</g>
		<g>
			<defs>
				<rect id="SVGID_5_" x="-57.2" y="-57.9" width="260.8" height="140"/>
			</defs>
			<clipPath id="SVGID_6_">
				<use xlink:href="#SVGID_5_"  style="overflow:visible;"/>
			</clipPath>
			<path class="st3" d="M87.4,12.4H87c-0.2-0.1-0.4-0.1-0.7-0.1c-0.3,0-0.6,0-1,0c-0.4,0-0.9,0.1-1.3,0.2c-0.5,0.1-0.9,0.3-1.4,0.5
				v8.9h-4.1V8.4h4.1v1.9c0.2-0.2,0.4-0.4,0.8-0.7c0.3-0.3,0.6-0.5,0.9-0.6c0.3-0.2,0.6-0.3,1-0.5c0.4-0.1,0.8-0.2,1.1-0.2
				c0.1,0,0.3,0,0.4,0c0.2,0,0.3,0,0.4,0L87.4,12.4L87.4,12.4z"/>
		</g>
		<g>
			<defs>
				<rect id="SVGID_7_" x="-57.2" y="-57.9" width="260.8" height="140"/>
			</defs>
			<clipPath id="SVGID_8_">
				<use xlink:href="#SVGID_7_"  style="overflow:visible;"/>
			</clipPath>
			<path class="st4" d="M95.4,20.3c-0.3,0.2-0.5,0.5-0.8,0.6c-0.2,0.2-0.5,0.4-0.9,0.6c-0.4,0.2-0.7,0.3-1.1,0.4
				c-0.3,0.1-0.8,0.1-1.5,0.1c-1.2,0-2.1-0.4-2.9-1.2c-0.8-0.8-1.1-1.8-1.1-3c0-1,0.2-1.8,0.6-2.4c0.4-0.6,0.9-1.1,1.7-1.4
				c0.7-0.4,1.6-0.6,2.6-0.8c1-0.1,2.1-0.3,3.3-0.3v-0.1c0-0.7-0.3-1.2-0.8-1.5c-0.5-0.3-1.3-0.4-2.4-0.4c-0.5,0-1,0.1-1.7,0.3
				c-0.6,0.2-1.3,0.4-1.9,0.7h-0.3V8.7c0.4-0.1,1.1-0.3,2-0.4c0.9-0.2,1.8-0.2,2.7-0.2c2.3,0,3.9,0.4,4.9,1.1c1,0.8,1.5,1.9,1.5,3.5
				v9.1h-4.1L95.4,20.3L95.4,20.3z M95.4,18.3v-2.8c-0.7,0.1-1.3,0.1-1.7,0.2c-0.4,0.1-0.8,0.2-1.3,0.3c-0.4,0.1-0.6,0.3-0.8,0.6
				c-0.2,0.3-0.3,0.6-0.3,1c0,0.6,0.2,1.1,0.5,1.3c0.3,0.2,0.8,0.4,1.5,0.4c0.4,0,0.7-0.1,1.1-0.2C94.8,18.8,95.1,18.6,95.4,18.3"/>
		</g>
		<g>
			<defs>
				<rect id="SVGID_9_" x="-57.2" y="-57.9" width="260.8" height="140"/>
			</defs>
			<clipPath id="SVGID_10_">
				<use xlink:href="#SVGID_9_"  style="overflow:visible;"/>
			</clipPath>
			<path class="st5" d="M114.3,15.1c0,2.2-0.6,3.9-1.8,5.2c-1.2,1.3-2.8,1.9-5,1.9c-2.1,0-3.8-0.6-5-1.9c-1.2-1.3-1.8-3-1.8-5.2
				c0-2.2,0.6-3.9,1.8-5.2c1.2-1.3,2.8-1.9,5-1.9c2.1,0,3.8,0.6,5,1.9C113.8,11.2,114.3,12.9,114.3,15.1 M110.2,15.1
				c0-0.8-0.1-1.4-0.2-2c-0.1-0.5-0.3-0.9-0.5-1.3c-0.2-0.3-0.5-0.6-0.8-0.7c-0.3-0.1-0.6-0.2-1-0.2c-0.4,0-0.7,0.1-1,0.2
				c-0.3,0.1-0.6,0.3-0.8,0.7c-0.2,0.3-0.4,0.7-0.6,1.3c-0.1,0.5-0.2,1.2-0.2,2s0.1,1.5,0.2,2c0.1,0.5,0.3,0.9,0.5,1.2
				c0.2,0.3,0.5,0.5,0.8,0.7c0.3,0.1,0.7,0.2,1.1,0.2c0.3,0,0.7-0.1,1-0.2c0.3-0.1,0.6-0.4,0.8-0.6c0.2-0.3,0.4-0.7,0.5-1.2
				C110.1,16.6,110.2,16,110.2,15.1"/>
		</g>
		<g>
			<defs>
				<rect id="SVGID_11_" x="-57.2" y="-57.9" width="260.8" height="140"/>
			</defs>
			<clipPath id="SVGID_12_">
				<use xlink:href="#SVGID_11_"  style="overflow:visible;"/>
			</clipPath>
			<path class="st6" d="M128.1,21.8H124v-6.6c0-0.5,0-1.1-0.1-1.6c0-0.5-0.1-0.9-0.2-1.2c-0.1-0.3-0.3-0.5-0.6-0.6
				c-0.3-0.1-0.6-0.2-1.1-0.2c-0.3,0-0.7,0.1-1,0.2c-0.3,0.1-0.7,0.3-1.1,0.6v9.4h-4.1V8.4h4.1v1.5c0.7-0.6,1.3-1,2-1.4
				c0.6-0.3,1.3-0.5,2.1-0.5c1.3,0,2.4,0.4,3.1,1.3c0.7,0.9,1.1,2.1,1.1,3.7V21.8z"/>
		</g>
		<g>
			<defs>
				<rect id="SVGID_13_" x="-57.2" y="-57.9" width="260.8" height="140"/>
			</defs>
			<clipPath id="SVGID_14_">
				<use xlink:href="#SVGID_13_"  style="overflow:visible;"/>
			</clipPath>
			<path class="st7" d="M39.5,20.1c0,0.9-0.3,1.8-0.8,2.5l-8.1-6L26.9,14l-1.7-1.2l-0.1-0.1l-6.9-5.1l-1.3-1l-0.1,0L19.3,3l0,0
				l0.4,0.3l0.6,0.5l0.6,0.4l9.7,7.1l3.6,2.7l3.6,2.6C38.9,17.4,39.5,18.7,39.5,20.1"/>
		</g>
		<g>
			<defs>
				<rect id="SVGID_15_" x="-57.2" y="-57.9" width="260.8" height="140"/>
			</defs>
			<clipPath id="SVGID_16_">
				<use xlink:href="#SVGID_15_"  style="overflow:visible;"/>
			</clipPath>
			<path class="st8" d="M18.3,13.8c0,3.1-2.5,5.7-5.6,5.7S7.1,17,7.1,13.8c0-0.2,0-0.4,0-0.6c0,0,0,0,0,0c0.2-1.9,1.3-3.5,2.9-4.4
				C10,8.9,10,9,10,9v2.2c0,0.8,0.3,1.4,0.8,1.9c0.5,0.5,1.2,0.8,1.9,0.8c1.5,0,2.7-1.2,2.7-2.7V9c0,0,0-0.1,0-0.1
				c1.7,1,2.8,2.7,2.8,4.8C18.3,13.8,18.3,13.8,18.3,13.8"/>
		</g>
		<g>
			<defs>
				<rect id="SVGID_17_" x="-57.2" y="-57.9" width="260.8" height="140"/>
			</defs>
			<clipPath id="SVGID_18_">
				<use xlink:href="#SVGID_17_"  style="overflow:visible;"/>
			</clipPath>
			<path class="st9" d="M14.2,8.5v2.4c0,0.9-0.7,1.7-1.5,1.7c-0.8,0-1.5-0.8-1.5-1.7V8.5c0,0,0-0.1,0-0.1c0,0,0,0,0.1,0
				c0.4-0.1,0.9-0.2,1.4-0.2c0.5,0,1,0.1,1.5,0.2C14.2,8.4,14.2,8.4,14.2,8.5C14.2,8.4,14.2,8.5,14.2,8.5"/>
		</g>
		<g>
			<defs>
				<rect id="SVGID_19_" x="-57.2" y="-57.9" width="260.8" height="140"/>
			</defs>
			<clipPath id="SVGID_20_">
				<use xlink:href="#SVGID_19_"  style="overflow:visible;"/>
			</clipPath>
			<path class="st10" d="M43.8,1.4l-13.2,9.9L26.9,14l-1.7,1.2l0,0c0,0,0,0,0,0l-0.1,0.1l-6.8,5c0,0-0.1,0.1-0.1,0.1l-1.3,1
				c0,0,0,0,0,0c-1.2,0.7-2.7,1.1-4.2,1.1c-4.7,0-8.4-3.8-8.4-8.6S8,5.4,12.7,5.4c1.5,0,3,0.4,4.2,1.2c0.5,0.3,0.9,0.6,1.3,1
				l6.9,5.1l0.1,0.1c-0.3-3.4-2-6.4-4.4-8.5c-2.2-1.9-5.1-3.1-8.2-3.1C5.7,1.1,0,6.8,0,14c0,5.6,3.5,10.3,8.3,12.1
				c1.4,0.5,2.8,0.8,4.4,0.8c0.2,0,0.4,0,0.6,0c2.9-0.1,5.6-1.3,7.6-3.1l0.1-0.1l9.6-7l3.6-2.7l8.7-6.6c1.1-0.8,1.8-2.2,1.8-3.5
				C44.6,3,44.3,2.1,43.8,1.4"/>
		</g>
		<g>
			<defs>
				<rect id="SVGID_21_" x="-57.2" y="-57.9" width="260.8" height="140"/>
			</defs>
			<clipPath id="SVGID_22_">
				<use xlink:href="#SVGID_21_"  style="overflow:visible;"/>
			</clipPath>
			<polygon class="st11" points="30.6,16.6 34.2,14 35,14.6 30.7,16.7 			"/>
		</g>
	</g>
</g>
</svg>
