<?xml version="1.0" encoding="utf-8"?>
<!-- Generator: Adobe Illustrator 16.0.0, SVG Export Plug-In . SVG Version: 6.00 Build 0)  -->
<!DOCTYPE svg PUBLIC "-//W3C//DTD SVG 1.1//EN" "http://www.w3.org/Graphics/SVG/1.1/DTD/svg11.dtd">
<svg version="1.1" id="Layer_1" xmlns="http://www.w3.org/2000/svg" xmlns:xlink="http://www.w3.org/1999/xlink" x="0px" y="0px"
	 width="400px" height="103px" viewBox="0 0 400 103" enable-background="new 0 0 400 103" xml:space="preserve">
<g>
	<path fill="#0D51D9" d="M167.191,31.693h-12.757V22.11h12.757V31.693z M166.846,76.729H154.78V37.31h12.066V76.729z"/>
	<g>
		<defs>
			<rect id="SVGID_1_" x="-160.074" y="-159.111" width="771.931" height="414.268"/>
		</defs>
		<clipPath id="SVGID_2_">
			<use xlink:href="#SVGID_1_"  overflow="visible"/>
		</clipPath>
		<path clip-path="url(#SVGID_2_)" fill="#0D51D9" d="M210.236,76.729h-12.135V57.179c0-1.593-0.064-3.179-0.19-4.757
			c-0.126-1.58-0.362-2.745-0.706-3.493c-0.414-0.889-1.013-1.527-1.793-1.914c-0.782-0.385-1.827-0.578-3.138-0.578
			c-0.988,0-1.988,0.188-2.999,0.562c-1.012,0.374-2.092,0.972-3.241,1.79v27.941h-12.067V37.31h12.067v4.353
			c1.977-1.708,3.901-3.041,5.774-4.001c1.873-0.959,3.948-1.439,6.223-1.439c3.954,0,6.977,1.27,9.068,3.809
			c2.091,2.539,3.137,6.219,3.137,11.04V76.729z"/>
		<path clip-path="url(#SVGID_2_)" fill="#0D51D9" d="M241.801,31.378h-0.931c-0.46-0.141-1.178-0.321-2.155-0.544
			c-0.977-0.222-1.901-0.334-2.775-0.334c-2.436,0-4.097,0.456-4.981,1.369s-1.327,2.621-1.327,5.125v0.315h9.584v8.564h-9.17
			v30.855h-12.066V45.874h-4.827V37.31h4.827v-1.088c0-4.82,1.24-8.436,3.723-10.847c2.482-2.41,6.241-3.615,11.273-3.615
			c1.747,0,3.379,0.064,4.896,0.193c1.516,0.129,2.826,0.299,3.93,0.509V31.378z"/>
		<path clip-path="url(#SVGID_2_)" fill="#0D51D9" d="M267.919,48.929h-1c-0.46-0.163-1.126-0.286-1.999-0.368
			c-0.875-0.082-1.84-0.124-2.896-0.124c-1.265,0-2.592,0.188-3.982,0.562c-1.391,0.376-2.74,0.819-4.051,1.335v26.396h-12.066
			V37.31h12.066v5.651c0.552-0.515,1.315-1.164,2.293-1.947c0.977-0.784,1.867-1.41,2.672-1.879c0.874-0.537,1.891-1,3.051-1.386
			c1.161-0.387,2.258-0.579,3.293-0.579c0.391,0,0.827,0.012,1.31,0.034c0.482,0.023,0.919,0.06,1.311,0.105V48.929z"/>
		<path clip-path="url(#SVGID_2_)" fill="#0D51D9" d="M291.762,72.552c-0.828,0.703-1.57,1.335-2.225,1.896
			c-0.654,0.562-1.534,1.124-2.638,1.686c-1.08,0.538-2.132,0.947-3.153,1.229c-1.023,0.28-2.455,0.421-4.293,0.421
			c-3.425,0-6.27-1.169-8.533-3.511c-2.264-2.339-3.395-5.288-3.395-8.845c0-2.926,0.572-5.288,1.723-7.091
			c1.15-1.802,2.804-3.229,4.965-4.283c2.183-1.075,4.792-1.825,7.825-2.246c3.034-0.421,6.298-0.748,9.792-0.983v-0.21
			c0-2.177-0.787-3.68-2.361-4.51c-1.575-0.831-3.937-1.247-7.085-1.247c-1.426,0-3.092,0.264-4.999,0.79
			c-1.908,0.526-3.771,1.199-5.586,2.019h-1.033v-9.513c1.195-0.352,3.125-0.767,5.791-1.246c2.667-0.479,5.355-0.72,8.068-0.72
			c6.664,0,11.52,1.13,14.565,3.388s4.568,5.704,4.568,10.338v26.817h-11.997V72.552z M291.762,66.444v-8.213
			c-2.047,0.21-3.702,0.392-4.965,0.543c-1.265,0.153-2.506,0.45-3.725,0.896c-1.057,0.374-1.878,0.942-2.465,1.701
			c-0.586,0.762-0.879,1.774-0.879,3.037c0,1.849,0.488,3.119,1.466,3.809c0.977,0.69,2.418,1.036,4.327,1.036
			c1.057,0,2.137-0.245,3.24-0.738C289.865,68.024,290.865,67.334,291.762,66.444"/>
		<path clip-path="url(#SVGID_2_)" fill="#0D51D9" d="M347.735,57.037c0,6.482-1.742,11.59-5.224,15.321
			c-3.481,3.733-8.407,5.6-14.773,5.6c-6.321,0-11.233-1.866-14.738-5.6c-3.505-3.731-5.258-8.839-5.258-15.321
			c0-6.552,1.753-11.683,5.258-15.393c3.505-3.709,8.417-5.563,14.738-5.563c6.345,0,11.262,1.866,14.756,5.599
			C345.987,45.413,347.735,50.531,347.735,57.037 M335.358,57.107c0-2.339-0.19-4.287-0.57-5.845
			c-0.378-1.556-0.901-2.802-1.567-3.738c-0.714-0.982-1.518-1.667-2.414-2.054c-0.896-0.386-1.919-0.579-3.068-0.579
			c-1.08,0-2.057,0.17-2.93,0.51c-0.874,0.339-1.678,0.989-2.414,1.947c-0.688,0.913-1.241,2.166-1.654,3.757
			c-0.414,1.591-0.621,3.592-0.621,6.002s0.195,4.357,0.587,5.844c0.39,1.487,0.896,2.674,1.517,3.564
			c0.643,0.912,1.448,1.578,2.414,1.999c0.965,0.422,2.033,0.632,3.205,0.632c0.966,0,1.948-0.21,2.948-0.632
			c1-0.421,1.798-1.053,2.396-1.895c0.712-1.006,1.253-2.216,1.621-3.633C335.173,61.571,335.358,59.611,335.358,57.107"/>
		<path clip-path="url(#SVGID_2_)" fill="#0D51D9" d="M388.298,76.729h-12.136V57.179c0-1.593-0.063-3.179-0.188-4.757
			c-0.128-1.58-0.363-2.745-0.708-3.493c-0.413-0.889-1.012-1.527-1.793-1.914c-0.781-0.385-1.826-0.578-3.137-0.578
			c-0.988,0-1.988,0.188-3,0.562c-1.011,0.374-2.092,0.972-3.24,1.79v27.941h-12.066V37.31h12.066v4.353
			c1.977-1.708,3.901-3.041,5.774-4.001c1.873-0.959,3.948-1.439,6.223-1.439c3.953,0,6.976,1.27,9.067,3.809
			s3.138,6.219,3.138,11.04V76.729z"/>
		<path clip-path="url(#SVGID_2_)" fill="#80C6FF" d="M126.119,71.735c0,2.591-0.772,5.203-2.378,7.462L99.732,61.506L89.056,53.64
			l-5.013-3.696l-0.263-0.192L63.291,34.652l-3.989-2.94L59.148,31.6l7.305-10.275l0.035-0.051l1.045,0.771l1.821,1.343l1.731,1.275
			l28.645,21.109l10.677,7.868l10.531,7.761C124.322,63.892,126.119,67.786,126.119,71.735"/>
		<path clip-path="url(#SVGID_2_)" fill="#0D51D9" d="M63.339,53.29c0,9.271-7.377,16.782-16.481,16.782S30.375,62.561,30.375,53.29
			c0-0.577,0.029-1.147,0.084-1.707c0.002-0.019,0.005-0.034,0.007-0.052c0.575-5.63,3.886-10.43,8.551-13.007
			c-0.009,0.153-0.014,0.306-0.014,0.462v6.533c0,2.238,0.892,4.265,2.332,5.734c1.443,1.466,3.433,2.374,5.633,2.374
			c4.398,0,7.965-3.632,7.965-8.108v-6.533c0-0.11-0.005-0.221-0.009-0.328c4.922,2.817,8.279,8.129,8.412,14.256
			C63.337,53.04,63.339,53.164,63.339,53.29"/>
		<path clip-path="url(#SVGID_2_)" fill="#80C6FF" d="M51.393,37.43v7.179c0,2.746-1.983,4.973-4.425,4.973
			c-2.443,0-4.425-2.227-4.425-4.973V37.43c0-0.095,0.003-0.189,0.007-0.281c0.062-0.039,0.124-0.074,0.188-0.11
			c1.316-0.348,2.696-0.53,4.12-0.53c1.489,0,2.931,0.201,4.3,0.579c0.077,0.046,0.154,0.093,0.23,0.14
			C51.39,37.295,51.393,37.362,51.393,37.43"/>
		<path clip-path="url(#SVGID_2_)" fill="#0D51D9" d="M138.835,16.413L99.731,45.822l-10.675,7.867l-5.009,3.69l-0.005,0.004
			c0.001-0.018,0.004-0.036,0.005-0.054l-0.273,0.201L63.576,72.414c-0.094,0.09-0.19,0.176-0.286,0.262l-3.988,2.939
			c-0.047,0.027-0.093,0.056-0.14,0.083c-3.652,2.135-7.887,3.356-12.401,3.356c-13.772,0-24.938-11.368-24.938-25.391
			c0-14.023,11.165-25.391,24.938-25.391c4.572,0,8.856,1.252,12.54,3.438c1.426,0.847,2.762,1.833,3.989,2.94L83.78,49.751
			l0.263,0.192c-0.96-10.097-5.788-19.042-12.957-25.281c-6.545-5.695-15.041-9.135-24.325-9.135
			c-20.687,0-37.457,17.074-37.457,38.137c0,16.443,10.22,30.453,24.544,35.81c4.025,1.506,8.375,2.327,12.912,2.327
			c0.569,0,1.135-0.014,1.697-0.038c8.62-0.393,16.482-3.749,22.626-9.095l0.355-0.262l28.293-20.851l10.676-7.866l25.626-19.478
			c3.382-2.493,5.18-6.387,5.18-10.336C141.214,21.286,140.44,18.672,138.835,16.413"/>
		<polygon clip-path="url(#SVGID_2_)" fill="#4D9EFF" points="99.782,61.547 110.395,53.689 112.807,55.412 100.158,61.799 		"/>
	</g>
</g>
</svg>
