<?xml version="1.0" encoding="utf-8"?>
<!-- Generator: Adobe Illustrator 25.2.1, SVG Export Plug-In . SVG Version: 6.00 Build 0)  -->
<svg version="1.1" id="Layer_1" xmlns="http://www.w3.org/2000/svg" xmlns:xlink="http://www.w3.org/1999/xlink" x="0px" y="0px"
	 width="78px" height="78px" viewBox="0 0 78 78" style="enable-background:new 0 0 78 78;" xml:space="preserve">
<style type="text/css">
	.st0{fill:#FFF0F0;}
	.st1{fill:none;stroke:#0D51D9;stroke-width:3;stroke-linecap:round;stroke-linejoin:round;}
</style>
<circle class="st0" cx="39" cy="39" r="39"/>
<g>
	<path class="st1" d="M36.4,26.9L23.7,48.1c-0.3,0.5-0.4,1-0.4,1.5c0,0.5,0.1,1,0.4,1.5c0.3,0.5,0.6,0.8,1.1,1.1
		c0.5,0.3,1,0.4,1.5,0.4h25.4c0.5,0,1-0.1,1.5-0.4c0.5-0.3,0.8-0.6,1.1-1.1c0.3-0.5,0.4-1,0.4-1.5c0-0.5-0.1-1-0.4-1.5L41.6,26.9
		c-0.3-0.4-0.6-0.8-1.1-1.1c-0.4-0.3-1-0.4-1.5-0.4c-0.5,0-1,0.1-1.5,0.4C37.1,26.1,36.7,26.4,36.4,26.9L36.4,26.9z"/>
	<path class="st1" d="M39,34.6v6"/>
	<path class="st1" d="M39,46.6L39,46.6"/>
</g>
</svg>
