<?xml version="1.0" encoding="utf-8"?>
<!-- Generator: Adobe Illustrator 25.2.1, SVG Export Plug-In . SVG Version: 6.00 Build 0)  -->
<svg version="1.1" id="Layer_1" xmlns="http://www.w3.org/2000/svg" xmlns:xlink="http://www.w3.org/1999/xlink" x="0px" y="0px"
	 width="78px" height="78px" viewBox="0 0 78 78" style="enable-background:new 0 0 78 78;" xml:space="preserve">
<style type="text/css">
	.st0{fill:#F5F5F5;stroke:#E4E4E4;}
	.st1{fill:none;stroke:#BBC9E3;stroke-width:3;stroke-linecap:round;stroke-linejoin:round;}
	.st2{fill:none;stroke:#0D51D9;stroke-width:3;stroke-linecap:round;stroke-linejoin:round;}
</style>
<circle class="st0" cx="39" cy="39" r="38.5"/>
<g>
	<path class="st1" d="M40,33c2.5,0,4.5-2,4.5-4.5S42.5,24,40,24s-4.5,2-4.5,4.5S37.5,33,40,33z"/>
	<path class="st1" d="M40,54V33"/>
	<path class="st1" d="M29.5,39H25c0,4,1.6,7.8,4.4,10.6C32.2,52.4,36,54,40,54c4,0,7.8-1.6,10.6-4.4C53.4,46.8,55,43,55,39h-4.5"/>
	<path class="st2" d="M38,33c2.5,0,4.5-2,4.5-4.5S40.5,24,38,24s-4.5,2-4.5,4.5S35.5,33,38,33z"/>
	<path class="st2" d="M38,54V33"/>
	<path class="st2" d="M27.5,39H23c0,4,1.6,7.8,4.4,10.6C30.2,52.4,34,54,38,54c4,0,7.8-1.6,10.6-4.4C51.4,46.8,53,43,53,39h-4.5"/>
</g>
</svg>
