<?xml version="1.0" encoding="utf-8"?>
<!-- Generator: Adobe Illustrator 25.2.1, SVG Export Plug-In . SVG Version: 6.00 Build 0)  -->
<svg version="1.1" id="Layer_1" xmlns="http://www.w3.org/2000/svg" xmlns:xlink="http://www.w3.org/1999/xlink" x="0px" y="0px"
	 width="78px" height="78px" viewBox="0 0 78 78" style="enable-background:new 0 0 78 78;" xml:space="preserve">
<style type="text/css">
	.st0{fill:#F5F5F5;stroke:#E4E4E4;}
	.st1{fill:#BBC9E3;}
	.st2{fill:#0D51D9;}
</style>
<g>
	<circle class="st0" cx="39" cy="39" r="38.5"/>
</g>
<g>
	<path class="st1" d="M26.5,24.5V33h7.9v-8.5H26.5z M32.1,30.5h-3.4v-3.6h3.4V30.5z"/>
	<path class="st1" d="M26.5,45v8.5h7.9V45H26.5z M32.1,51.1h-3.4v-3.6h3.4V51.1z"/>
	<path class="st1" d="M45.6,24.5V33h7.9v-8.5H45.6z M51.2,30.5h-3.4v-3.6h3.4V30.5z"/>
	<path class="st1" d="M51.2,35.4v7.2h-5.6V45h7.9v-9.7H51.2z"/>
	<path class="st1" d="M45.6,47.5v6h2.2v-3.6h3.4v3.6h2.3v-6H45.6z"/>
	<path class="st1" d="M36.6,24.5v2.4h4.5v6h2.3v-8.5H36.6z"/>
	<path class="st1" d="M41.1,35.4v4.8h-4.5v7.2h4.5v6h2.3V45h-4.5v-2.4h4.5v-4.8h2.3v2.4h2.2v-4.8H41.1z"/>
	<path class="st1" d="M38.9,49.9h-2.3v3.6h2.3V49.9z"/>
	<path class="st1" d="M34.4,40.2H31v2.4h3.4V40.2z"/>
	<path class="st1" d="M36.6,29.3v6H26.5v7.2h2.3v-4.8h10.1v-8.5H36.6z"/>
	<path class="st2" d="M24.5,24.5V33h7.9v-8.5H24.5z M30.1,30.5h-3.4v-3.6h3.4V30.5z"/>
	<path class="st2" d="M24.5,45v8.5h7.9V45H24.5z M30.1,51.1h-3.4v-3.6h3.4V51.1z"/>
	<path class="st2" d="M43.6,24.5V33h7.9v-8.5H43.6z M49.2,30.5h-3.4v-3.6h3.4V30.5z"/>
	<path class="st2" d="M49.2,35.4v7.2h-5.6V45h7.9v-9.7H49.2z"/>
	<path class="st2" d="M43.6,47.5v6h2.2v-3.6h3.4v3.6h2.3v-6H43.6z"/>
	<path class="st2" d="M34.6,24.5v2.4h4.5v6h2.3v-8.5H34.6z"/>
	<path class="st2" d="M39.1,35.4v4.8h-4.5v7.2h4.5v6h2.3V45h-4.5v-2.4h4.5v-4.8h2.3v2.4h2.2v-4.8H39.1z"/>
	<path class="st2" d="M36.9,49.9h-2.3v3.6h2.3V49.9z"/>
	<path class="st2" d="M32.4,40.2H29v2.4h3.4V40.2z"/>
	<path class="st2" d="M34.6,29.3v6H24.5v7.2h2.3v-4.8h10.1v-8.5H34.6z"/>
</g>
</svg>
