<?xml version="1.0" encoding="utf-8"?>
<!-- Generator: Adobe Illustrator 25.2.1, SVG Export Plug-In . SVG Version: 6.00 Build 0)  -->
<svg version="1.1" id="Layer_1" xmlns="http://www.w3.org/2000/svg" xmlns:xlink="http://www.w3.org/1999/xlink" x="0px" y="0px"
	 width="78px" height="78px" viewBox="0 0 78 78" style="enable-background:new 0 0 78 78;" xml:space="preserve">
<style type="text/css">
	.st0{fill:#F5F5F5;stroke:#E4E4E4;}
	.st1{fill-rule:evenodd;clip-rule:evenodd;fill:#FFFFFF;}
	.st2{fill-rule:evenodd;clip-rule:evenodd;fill:#231F20;}
	.st3{fill-rule:evenodd;clip-rule:evenodd;fill:#FFFFFF;filter:url(#Adobe_OpacityMaskFilter);}
	.st4{mask:url(#mask0_1904_44731_1_);}
	.st5{fill:#BBC9E3;}
	.st6{fill-rule:evenodd;clip-rule:evenodd;fill:#FFFFFF;filter:url(#Adobe_OpacityMaskFilter_1_);}
	.st7{mask:url(#mask1_1904_44731_1_);}
	.st8{fill:#0D51D9;}
</style>
<circle class="st0" cx="39" cy="39" r="38.5"/>
<g>
	<path class="st1" d="M38,27c-0.8,0-1.5,0.7-1.5,1.5V51c0,0.8,0.7,1.5,1.5,1.5s1.5-0.7,1.5-1.5V28.5C39.5,27.7,38.8,27,38,27z
		 M48.5,39c-0.8,0-1.5,0.7-1.5,1.5V51c0,0.8,0.7,1.5,1.5,1.5S50,51.8,50,51V40.5C50,39.7,49.3,39,48.5,39z M26,34.5
		c0-0.8,0.7-1.5,1.5-1.5s1.5,0.7,1.5,1.5V51c0,0.8-0.7,1.5-1.5,1.5S26,51.8,26,51V34.5z"/>
	<path class="st1" d="M40,27c-0.8,0-1.5,0.7-1.5,1.5V51c0,0.8,0.7,1.5,1.5,1.5s1.5-0.7,1.5-1.5V28.5C41.5,27.7,40.8,27,40,27z
		 M50.5,39c-0.8,0-1.5,0.7-1.5,1.5V51c0,0.8,0.7,1.5,1.5,1.5S52,51.8,52,51V40.5C52,39.7,51.3,39,50.5,39z M28,34.5
		c0-0.8,0.7-1.5,1.5-1.5s1.5,0.7,1.5,1.5V51c0,0.8-0.7,1.5-1.5,1.5S28,51.8,28,51V34.5z"/>
	<path class="st2" d="M40,27c-0.8,0-1.5,0.7-1.5,1.5V51c0,0.8,0.7,1.5,1.5,1.5s1.5-0.7,1.5-1.5V28.5C41.5,27.7,40.8,27,40,27z
		 M50.5,39c-0.8,0-1.5,0.7-1.5,1.5V51c0,0.8,0.7,1.5,1.5,1.5S52,51.8,52,51V40.5C52,39.7,51.3,39,50.5,39z M28,34.5
		c0-0.8,0.7-1.5,1.5-1.5s1.5,0.7,1.5,1.5V51c0,0.8-0.7,1.5-1.5,1.5S28,51.8,28,51V34.5z"/>
	<defs>
		<filter id="Adobe_OpacityMaskFilter" filterUnits="userSpaceOnUse" x="22" y="21" width="36" height="36">
			<feColorMatrix  type="matrix" values="1 0 0 0 0  0 1 0 0 0  0 0 1 0 0  0 0 0 1 0"/>
		</filter>
	</defs>
	<mask maskUnits="userSpaceOnUse" x="22" y="21" width="36" height="36" id="mask0_1904_44731_1_">
		<path class="st3" d="M40,27c-0.8,0-1.5,0.7-1.5,1.5V51c0,0.8,0.7,1.5,1.5,1.5s1.5-0.7,1.5-1.5V28.5C41.5,27.7,40.8,27,40,27z
			 M50.5,39c-0.8,0-1.5,0.7-1.5,1.5V51c0,0.8,0.7,1.5,1.5,1.5S52,51.8,52,51V40.5C52,39.7,51.3,39,50.5,39z M28,34.5
			c0-0.8,0.7-1.5,1.5-1.5s1.5,0.7,1.5,1.5V51c0,0.8-0.7,1.5-1.5,1.5S28,51.8,28,51V34.5z"/>
	</mask>
	<g class="st4">
		<rect x="22" y="21" class="st5" width="36" height="36"/>
	</g>
	<path class="st2" d="M38,27c-0.8,0-1.5,0.7-1.5,1.5V51c0,0.8,0.7,1.5,1.5,1.5s1.5-0.7,1.5-1.5V28.5C39.5,27.7,38.8,27,38,27z
		 M48.5,39c-0.8,0-1.5,0.7-1.5,1.5V51c0,0.8,0.7,1.5,1.5,1.5S50,51.8,50,51V40.5C50,39.7,49.3,39,48.5,39z M26,34.5
		c0-0.8,0.7-1.5,1.5-1.5s1.5,0.7,1.5,1.5V51c0,0.8-0.7,1.5-1.5,1.5S26,51.8,26,51V34.5z"/>
	<defs>
		<filter id="Adobe_OpacityMaskFilter_1_" filterUnits="userSpaceOnUse" x="20" y="21" width="36" height="36">
			<feColorMatrix  type="matrix" values="1 0 0 0 0  0 1 0 0 0  0 0 1 0 0  0 0 0 1 0"/>
		</filter>
	</defs>
	<mask maskUnits="userSpaceOnUse" x="20" y="21" width="36" height="36" id="mask1_1904_44731_1_">
		<path class="st6" d="M38,27c-0.8,0-1.5,0.7-1.5,1.5V51c0,0.8,0.7,1.5,1.5,1.5s1.5-0.7,1.5-1.5V28.5C39.5,27.7,38.8,27,38,27z
			 M48.5,39c-0.8,0-1.5,0.7-1.5,1.5V51c0,0.8,0.7,1.5,1.5,1.5S50,51.8,50,51V40.5C50,39.7,49.3,39,48.5,39z M26,34.5
			c0-0.8,0.7-1.5,1.5-1.5s1.5,0.7,1.5,1.5V51c0,0.8-0.7,1.5-1.5,1.5S26,51.8,26,51V34.5z"/>
	</mask>
	<g class="st7">
		<rect x="20" y="21" class="st8" width="36" height="36"/>
	</g>
</g>
</svg>
