<?xml version="1.0" encoding="utf-8"?>
<!-- Generator: Adobe Illustrator 25.2.1, SVG Export Plug-In . SVG Version: 6.00 Build 0)  -->
<svg version="1.1" id="Layer_1" xmlns="http://www.w3.org/2000/svg" xmlns:xlink="http://www.w3.org/1999/xlink" x="0px" y="0px"
	 width="78px" height="78px" viewBox="0 0 78 78" style="enable-background:new 0 0 78 78;" xml:space="preserve">
<style type="text/css">
	.st0{fill:#F5F5F5;stroke:#E4E4E4;}
	.st1{fill:none;stroke:#BBC9E3;stroke-width:3;stroke-linecap:round;stroke-linejoin:round;}
	.st2{fill:none;stroke:#0D51D9;stroke-width:3;stroke-linecap:round;stroke-linejoin:round;}
</style>
<circle class="st0" cx="39" cy="39" r="38.5"/>
<g>
	<path class="st1" d="M31,25.5v18"/>
	<path class="st1" d="M49,34.5c2.5,0,4.5-2,4.5-4.5c0-2.5-2-4.5-4.5-4.5s-4.5,2-4.5,4.5C44.5,32.5,46.5,34.5,49,34.5z"/>
	<path class="st1" d="M31,52.5c2.5,0,4.5-2,4.5-4.5s-2-4.5-4.5-4.5c-2.5,0-4.5,2-4.5,4.5S28.5,52.5,31,52.5z"/>
	<path class="st1" d="M49,34.5c0,3.6-1.4,7-4,9.5c-2.5,2.5-6,4-9.5,4"/>
	<path class="st2" d="M29,25.5v18"/>
	<path class="st2" d="M47,34.5c2.5,0,4.5-2,4.5-4.5c0-2.5-2-4.5-4.5-4.5s-4.5,2-4.5,4.5C42.5,32.5,44.5,34.5,47,34.5z"/>
	<path class="st2" d="M29,52.5c2.5,0,4.5-2,4.5-4.5s-2-4.5-4.5-4.5c-2.5,0-4.5,2-4.5,4.5S26.5,52.5,29,52.5z"/>
	<path class="st2" d="M47,34.5c0,3.6-1.4,7-4,9.5c-2.5,2.5-6,4-9.5,4"/>
</g>
</svg>
