<?xml version="1.0" encoding="utf-8"?>
<!-- Generator: Adobe Illustrator 25.2.1, SVG Export Plug-In . SVG Version: 6.00 Build 0)  -->
<svg version="1.1" id="Layer_1" xmlns="http://www.w3.org/2000/svg" xmlns:xlink="http://www.w3.org/1999/xlink" x="0px" y="0px"
	 width="78px" height="78px" viewBox="0 0 78 78" style="enable-background:new 0 0 78 78;" xml:space="preserve">
<style type="text/css">
	.st0{fill:#F5F5F5;stroke:#E4E4E4;}
	.st1{fill:none;stroke:#BBC9E3;stroke-width:3;stroke-linecap:round;stroke-linejoin:round;}
	.st2{fill:none;stroke:#0D51D9;stroke-width:3;stroke-linecap:round;stroke-linejoin:round;}
</style>
<circle class="st0" cx="39" cy="39" r="38.5"/>
<g>
	<path class="st1" d="M50.5,27h-21c-1.7,0-3,1.3-3,3v21c0,1.7,1.3,3,3,3h21c1.7,0,3-1.3,3-3V30C53.5,28.3,52.2,27,50.5,27z"/>
	<path class="st1" d="M46,24v6"/>
	<path class="st1" d="M34,24v6"/>
	<path class="st1" d="M26.5,36h27"/>
	<path class="st2" d="M48.5,27h-21c-1.7,0-3,1.3-3,3v21c0,1.7,1.3,3,3,3h21c1.7,0,3-1.3,3-3V30C51.5,28.3,50.2,27,48.5,27z"/>
	<path class="st2" d="M44,24v6"/>
	<path class="st2" d="M32,24v6"/>
	<path class="st2" d="M24.5,36h27"/>
</g>
</svg>
