<?xml version="1.0" encoding="utf-8"?>
<!-- Generator: Adobe Illustrator 25.2.1, SVG Export Plug-In . SVG Version: 6.00 Build 0)  -->
<svg version="1.1" id="Layer_1" xmlns="http://www.w3.org/2000/svg" xmlns:xlink="http://www.w3.org/1999/xlink" x="0px" y="0px"
	 width="78px" height="78px" viewBox="0 0 78 78" style="enable-background:new 0 0 78 78;" xml:space="preserve">
<style type="text/css">
	.st0{fill:#F5F5F5;stroke:#E4E4E4;}
	.st1{fill:none;stroke:#BBC9E3;stroke-width:3;stroke-linecap:round;stroke-linejoin:round;}
	.st2{fill:none;stroke:#0D51D9;stroke-width:3;stroke-linecap:round;stroke-linejoin:round;}
</style>
<circle class="st0" cx="39" cy="39" r="38.5"/>
<g>
	<path class="st1" d="M55,37.6V39c0,3.2-1,6.4-3,9c-1.9,2.6-4.7,4.5-7.8,5.4c-3.1,0.9-6.4,0.8-9.5-0.3s-5.6-3.2-7.4-5.9
		c-1.8-2.7-2.6-5.9-2.4-9.2c0.2-3.2,1.5-6.3,3.6-8.8c2.1-2.5,4.9-4.2,8.1-4.9c3.2-0.7,6.5-0.4,9.4,0.9"/>
	<path class="st1" d="M55,27L40,42l-4.5-4.5"/>
	<path class="st2" d="M53,37.6V39c0,3.2-1,6.4-3,9c-1.9,2.6-4.7,4.5-7.8,5.4c-3.1,0.9-6.4,0.8-9.5-0.3c-3-1.1-5.6-3.2-7.4-5.9
		c-1.8-2.7-2.6-5.9-2.4-9.2c0.2-3.2,1.5-6.3,3.6-8.8c2.1-2.5,4.9-4.2,8.1-4.9c3.2-0.7,6.5-0.4,9.4,0.9"/>
	<path class="st2" d="M53,27L38,42l-4.5-4.5"/>
</g>
</svg>
