<?xml version="1.0" encoding="utf-8"?>
<!-- Generator: Adobe Illustrator 25.2.1, SVG Export Plug-In . SVG Version: 6.00 Build 0)  -->
<svg version="1.1" id="Layer_1" xmlns="http://www.w3.org/2000/svg" xmlns:xlink="http://www.w3.org/1999/xlink" x="0px" y="0px"
	 width="78px" height="78px" viewBox="0 0 78 78" style="enable-background:new 0 0 78 78;" xml:space="preserve">
<style type="text/css">
	.st0{fill:#F5F5F5;stroke:#E4E4E4;}
	.st1{fill:none;stroke:#BBC9E3;stroke-width:3;stroke-linecap:round;stroke-linejoin:round;}
	.st2{fill:none;stroke:#0D51D9;stroke-width:3;stroke-linecap:round;stroke-linejoin:round;}
	.st3{clip-path:url(#SVGID_2_);}
	.st4{fill:none;stroke:#BBC9E3;stroke-width:2;stroke-linecap:round;stroke-linejoin:round;}
	.st5{clip-path:url(#SVGID_4_);}
	.st6{fill:none;stroke:#0D51D9;stroke-width:2;stroke-linecap:round;stroke-linejoin:round;}
</style>
<circle class="st0" cx="39" cy="39" r="38.5"/>
<g>
	<g>
		<defs>
			<rect id="SVGID_1_" x="22" y="21" width="36" height="36"/>
		</defs>
		<clipPath id="SVGID_2_">
			<use xlink:href="#SVGID_1_"  style="overflow:visible;"/>
		</clipPath>
		<g class="st3">
			<path class="st4" d="M46,45l-6-6l-6,6"/>
			<path class="st1" d="M40,39v13.5"/>
			<path class="st1" d="M52.6,48.6c1.5-0.8,2.6-2.1,3.3-3.6c0.7-1.5,0.8-3.2,0.4-4.8s-1.3-3-2.7-4.1s-2.9-1.6-4.6-1.6h-1.9
				c-0.5-1.8-1.3-3.4-2.5-4.8c-1.2-1.4-2.6-2.5-4.3-3.2c-1.7-0.7-3.5-1.1-5.3-1c-1.8,0.1-3.6,0.5-5.2,1.4c-1.6,0.9-3,2.1-4.1,3.5
				c-1.1,1.5-1.8,3.2-2.1,4.9c-0.3,1.8-0.2,3.6,0.2,5.4c0.5,1.7,1.4,3.4,2.6,4.7"/>
			<path class="st1" d="M46,45l-6-6l-6,6"/>
		</g>
	</g>
	<g>
		<defs>
			<rect id="SVGID_3_" x="20" y="21" width="36" height="36"/>
		</defs>
		<clipPath id="SVGID_4_">
			<use xlink:href="#SVGID_3_"  style="overflow:visible;"/>
		</clipPath>
		<g class="st5">
			<path class="st6" d="M44,45l-6-6l-6,6"/>
			<path class="st2" d="M38,39v13.5"/>
			<path class="st2" d="M50.6,48.6c1.5-0.8,2.6-2.1,3.3-3.6c0.7-1.5,0.8-3.2,0.4-4.8s-1.3-3-2.7-4.1s-2.9-1.6-4.6-1.6h-1.9
				c-0.5-1.8-1.3-3.4-2.5-4.8c-1.2-1.4-2.6-2.5-4.3-3.2c-1.7-0.7-3.5-1.1-5.3-1c-1.8,0.1-3.6,0.5-5.2,1.4c-1.6,0.9-3,2.1-4.1,3.5
				c-1.1,1.5-1.8,3.2-2.1,4.9c-0.3,1.8-0.2,3.6,0.2,5.4c0.5,1.7,1.4,3.4,2.6,4.7"/>
			<path class="st2" d="M44,45l-6-6l-6,6"/>
		</g>
	</g>
</g>
</svg>
