<?xml version="1.0" encoding="utf-8"?>
<!-- Generator: Adobe Illustrator 25.2.1, SVG Export Plug-In . SVG Version: 6.00 Build 0)  -->
<svg version="1.1" id="Layer_1" xmlns="http://www.w3.org/2000/svg" xmlns:xlink="http://www.w3.org/1999/xlink" x="0px" y="0px"
	 width="78px" height="78px" viewBox="0 0 78 78" style="enable-background:new 0 0 78 78;" xml:space="preserve">
<style type="text/css">
	.st0{fill:#F5F5F5;stroke:#E4E4E4;}
	.st1{fill:none;stroke:#BBC9E3;stroke-width:3;stroke-linecap:round;stroke-linejoin:round;}
	.st2{fill:none;stroke:#0D51D9;stroke-width:3;stroke-linecap:round;stroke-linejoin:round;}
</style>
<circle class="st0" cx="39" cy="39" r="38.5"/>
<g>
	<path class="st1" d="M53.5,44.9v-12c0-0.5-0.1-1-0.4-1.5c-0.3-0.5-0.6-0.8-1.1-1.1l-10.5-6c-0.5-0.3-1-0.4-1.5-0.4s-1,0.1-1.5,0.4
		l-10.5,6c-0.5,0.3-0.8,0.6-1.1,1.1c-0.3,0.5-0.4,1-0.4,1.5v12c0,0.5,0.1,1,0.4,1.5c0.3,0.5,0.6,0.8,1.1,1.1l10.5,6
		c0.5,0.3,1,0.4,1.5,0.4s1-0.1,1.5-0.4l10.5-6c0.5-0.3,0.8-0.6,1.1-1.1C53.4,46,53.5,45.5,53.5,44.9z"/>
	<path class="st1" d="M33.2,27.3l6.8,3.9l6.8-3.9"/>
	<path class="st1" d="M33.2,50.6v-7.8l-6.8-3.9"/>
	<path class="st1" d="M53.5,38.9l-6.8,3.9v7.8"/>
	<path class="st1" d="M26.9,31.4L40,39l13.1-7.6"/>
	<path class="st1" d="M40,54.1V38.9"/>
	<path class="st2" d="M51.5,44.9v-12c0-0.5-0.1-1-0.4-1.5c-0.3-0.5-0.6-0.8-1.1-1.1l-10.5-6c-0.5-0.3-1-0.4-1.5-0.4s-1,0.1-1.5,0.4
		l-10.5,6c-0.5,0.3-0.8,0.6-1.1,1.1c-0.3,0.5-0.4,1-0.4,1.5v12c0,0.5,0.1,1,0.4,1.5c0.3,0.5,0.6,0.8,1.1,1.1l10.5,6
		c0.5,0.3,1,0.4,1.5,0.4s1-0.1,1.5-0.4l10.5-6c0.5-0.3,0.8-0.6,1.1-1.1C51.4,46,51.5,45.5,51.5,44.9z"/>
	<path class="st2" d="M31.2,27.3l6.8,3.9l6.8-3.9"/>
	<path class="st2" d="M31.2,50.6v-7.8l-6.8-3.9"/>
	<path class="st2" d="M51.5,38.9l-6.8,3.9v7.8"/>
	<path class="st2" d="M24.9,31.4L38,39l13.1-7.6"/>
	<path class="st2" d="M38,54.1V38.9"/>
</g>
</svg>
