<?xml version="1.0" encoding="utf-8"?>
<!-- Generator: Adobe Illustrator 25.2.1, SVG Export Plug-In . SVG Version: 6.00 Build 0)  -->
<svg version="1.1" id="Layer_1" xmlns="http://www.w3.org/2000/svg" xmlns:xlink="http://www.w3.org/1999/xlink" x="0px" y="0px"
	 width="78px" height="78px" viewBox="0 0 78 78" style="enable-background:new 0 0 78 78;" xml:space="preserve">
<style type="text/css">
	.st0{fill:#F5F5F5;stroke:#E4E4E4;}
	.st1{display:none;}
	.st2{display:inline;fill:none;stroke:#BBC9E3;stroke-width:3;stroke-linecap:round;stroke-linejoin:round;}
	.st3{display:inline;fill:none;stroke:#0D51D9;stroke-width:3;stroke-linecap:round;stroke-linejoin:round;}
	.st4{display:inline;fill-rule:evenodd;clip-rule:evenodd;fill:#FFFFFF;}
	.st5{display:inline;fill-rule:evenodd;clip-rule:evenodd;fill:#231F20;}
	.st6{display:inline;fill-rule:evenodd;clip-rule:evenodd;fill:#FFFFFF;filter:url(#Adobe_OpacityMaskFilter);}
	.st7{display:inline;mask:url(#mask0_1509_11748_1_);}
	.st8{fill:#BBC9E3;}
	.st9{display:inline;fill-rule:evenodd;clip-rule:evenodd;fill:#BBC9E3;}
	.st10{display:inline;fill-rule:evenodd;clip-rule:evenodd;fill:#FFFFFF;filter:url(#Adobe_OpacityMaskFilter_1_);}
	.st11{display:inline;mask:url(#mask1_1509_11748_1_);}
	.st12{fill:#0D51D9;}
	.st13{fill:none;stroke:#BBC9E3;stroke-width:3;stroke-linecap:round;stroke-linejoin:round;}
	.st14{fill:none;stroke:#0D51D9;stroke-width:3;stroke-linecap:round;stroke-linejoin:round;}
</style>
<g>
	<circle class="st0" cx="39" cy="39" r="38.5"/>
</g>
<g class="st1">
	<path class="st2" d="M37.4,26.9L24.7,48.1c-0.3,0.5-0.4,1-0.4,1.5s0.1,1,0.4,1.5c0.3,0.5,0.6,0.8,1.1,1.1c0.5,0.3,1,0.4,1.5,0.4
		h25.4c0.5,0,1-0.1,1.5-0.4c0.5-0.3,0.8-0.6,1.1-1.1c0.3-0.5,0.4-1,0.4-1.5s-0.1-1-0.4-1.5L42.6,26.9c-0.3-0.4-0.6-0.8-1.1-1.1
		c-0.4-0.3-1-0.4-1.5-0.4s-1,0.1-1.5,0.4C38.1,26.1,37.7,26.4,37.4,26.9L37.4,26.9z"/>
	<path class="st2" d="M40,34.6v6"/>
	<path class="st2" d="M40,46.6L40,46.6"/>
	<path class="st3" d="M35.4,26.9L22.7,48.1c-0.3,0.5-0.4,1-0.4,1.5s0.1,1,0.4,1.5c0.3,0.5,0.6,0.8,1.1,1.1c0.5,0.3,1,0.4,1.5,0.4
		h25.4c0.5,0,1-0.1,1.5-0.4c0.5-0.3,0.8-0.6,1.1-1.1c0.3-0.5,0.4-1,0.4-1.5s-0.1-1-0.4-1.5L40.6,26.9c-0.3-0.4-0.6-0.8-1.1-1.1
		c-0.4-0.3-1-0.4-1.5-0.4s-1,0.1-1.5,0.4C36.1,26.1,35.7,26.4,35.4,26.9L35.4,26.9z"/>
	<path class="st3" d="M38,34.6v6"/>
	<path class="st3" d="M38,46.6L38,46.6"/>
</g>
<g class="st1">
	<path class="st4" d="M52.2,38.1l-7.2-8.8c-0.5-0.6-1.5-0.7-2.1-0.2c-0.6,0.5-0.7,1.4-0.2,2.1l6.5,7.9l-6.7,7.9
		c-0.5,0.6-0.4,1.5,0.2,2.1c0.3,0.2,0.6,0.3,1,0.3c0.4,0,0.9-0.2,1.2-0.5l7.5-8.8C52.6,39.4,52.6,38.6,52.2,38.1z M25.9,39l6.7-7.9
		c0.5-0.6,0.4-1.5-0.2-2.1c-0.6-0.5-1.6-0.4-2.1,0.2l-7.5,8.8c-0.5,0.5-0.5,1.3,0,1.9l7.2,8.8c0.3,0.4,0.7,0.5,1.2,0.5
		c0.3,0,0.7-0.1,0.9-0.3c0.6-0.5,0.7-1.4,0.2-2.1L25.9,39z M41,38.1c0.6-0.6,1.5-0.5,2.1,0c0.6,0.6,0.6,1.5,0,2.1l-4.5,4.3
		c-0.3,0.3-0.7,0.4-1,0.4c-0.4,0-0.8-0.1-1.1-0.4L31.9,40c-0.6-0.6-0.6-1.5,0-2.1c0.6-0.6,1.5-0.6,2.1,0l1.9,1.9v-6.7
		c0-0.8,0.7-1.5,1.5-1.5c0.8,0,1.5,0.7,1.5,1.5v6.8L41,38.1z"/>
	<path class="st4" d="M55.2,38.1l-7.2-8.8c-0.5-0.6-1.5-0.7-2.1-0.2c-0.6,0.5-0.7,1.4-0.2,2.1l6.5,7.9l-6.7,7.9
		c-0.5,0.6-0.4,1.5,0.2,2.1c0.3,0.2,0.6,0.3,1,0.3c0.4,0,0.9-0.2,1.2-0.5l7.5-8.8C55.6,39.4,55.6,38.6,55.2,38.1z M28.9,39l6.7-7.9
		c0.5-0.6,0.4-1.5-0.2-2.1c-0.6-0.5-1.6-0.4-2.1,0.2l-7.5,8.8c-0.5,0.5-0.5,1.3,0,1.9l7.2,8.8c0.3,0.4,0.7,0.5,1.2,0.5
		c0.3,0,0.7-0.1,0.9-0.3c0.6-0.5,0.7-1.4,0.2-2.1L28.9,39z M44,38.1c0.6-0.6,1.5-0.5,2.1,0c0.6,0.6,0.6,1.5,0,2.1l-4.5,4.3
		c-0.3,0.3-0.7,0.4-1,0.4c-0.4,0-0.8-0.1-1.1-0.4L34.9,40c-0.6-0.6-0.6-1.5,0-2.1c0.6-0.6,1.5-0.6,2.1,0l1.9,1.9v-6.7
		c0-0.8,0.7-1.5,1.5-1.5c0.8,0,1.5,0.7,1.5,1.5v6.8L44,38.1z"/>
	<path class="st5" d="M55.2,38.1l-7.2-8.8c-0.5-0.6-1.5-0.7-2.1-0.2c-0.6,0.5-0.7,1.4-0.2,2.1l6.5,7.9l-6.7,7.9
		c-0.5,0.6-0.4,1.5,0.2,2.1c0.3,0.2,0.6,0.3,1,0.3c0.4,0,0.9-0.2,1.2-0.5l7.5-8.8C55.6,39.4,55.6,38.6,55.2,38.1z M28.9,39l6.7-7.9
		c0.5-0.6,0.4-1.5-0.2-2.1c-0.6-0.5-1.6-0.4-2.1,0.2l-7.5,8.8c-0.5,0.5-0.5,1.3,0,1.9l7.2,8.8c0.3,0.4,0.7,0.5,1.2,0.5
		c0.3,0,0.7-0.1,0.9-0.3c0.6-0.5,0.7-1.4,0.2-2.1L28.9,39z M44,38.1c0.6-0.6,1.5-0.5,2.1,0c0.6,0.6,0.6,1.5,0,2.1l-4.5,4.3
		c-0.3,0.3-0.7,0.4-1,0.4c-0.4,0-0.8-0.1-1.1-0.4L34.9,40c-0.6-0.6-0.6-1.5,0-2.1c0.6-0.6,1.5-0.6,2.1,0l1.9,1.9v-6.7
		c0-0.8,0.7-1.5,1.5-1.5c0.8,0,1.5,0.7,1.5,1.5v6.8L44,38.1z"/>
	<defs>
		<filter id="Adobe_OpacityMaskFilter" filterUnits="userSpaceOnUse" x="22.5" y="21.4" width="36" height="35.2">
			<feColorMatrix  type="matrix" values="1 0 0 0 0  0 1 0 0 0  0 0 1 0 0  0 0 0 1 0"/>
		</filter>
	</defs>
	<mask maskUnits="userSpaceOnUse" x="22.5" y="21.4" width="36" height="35.2" id="mask0_1509_11748_1_" style="display:inline;">
		<path style="fill-rule:evenodd;clip-rule:evenodd;fill:#FFFFFF;filter:url(#Adobe_OpacityMaskFilter);" d="M55.2,38.1l-7.2-8.8
			c-0.5-0.6-1.5-0.7-2.1-0.2c-0.6,0.5-0.7,1.4-0.2,2.1l6.5,7.9l-6.7,7.9c-0.5,0.6-0.4,1.5,0.2,2.1c0.3,0.2,0.6,0.3,1,0.3
			c0.4,0,0.9-0.2,1.2-0.5l7.5-8.8C55.6,39.4,55.6,38.6,55.2,38.1z M28.9,39l6.7-7.9c0.5-0.6,0.4-1.5-0.2-2.1
			c-0.6-0.5-1.6-0.4-2.1,0.2l-7.5,8.8c-0.5,0.5-0.5,1.3,0,1.9l7.2,8.8c0.3,0.4,0.7,0.5,1.2,0.5c0.3,0,0.7-0.1,0.9-0.3
			c0.6-0.5,0.7-1.4,0.2-2.1L28.9,39z M44,38.1c0.6-0.6,1.5-0.5,2.1,0c0.6,0.6,0.6,1.5,0,2.1l-4.5,4.3c-0.3,0.3-0.7,0.4-1,0.4
			c-0.4,0-0.8-0.1-1.1-0.4L34.9,40c-0.6-0.6-0.6-1.5,0-2.1c0.6-0.6,1.5-0.6,2.1,0l1.9,1.9v-6.7c0-0.8,0.7-1.5,1.5-1.5
			c0.8,0,1.5,0.7,1.5,1.5v6.8L44,38.1z"/>
	</mask>
	<g class="st7">
		<rect x="22.5" y="21.4" class="st8" width="36" height="35.2"/>
	</g>
	<path class="st9" d="M52.2,38.1l-7.2-8.8c-0.5-0.6-1.5-0.7-2.1-0.2c-0.6,0.5-0.7,1.4-0.2,2.1l6.5,7.9l-6.7,7.9
		c-0.5,0.6-0.4,1.5,0.2,2.1c0.3,0.2,0.6,0.3,1,0.3c0.4,0,0.9-0.2,1.2-0.5l7.5-8.8C52.6,39.4,52.6,38.6,52.2,38.1z M25.9,39l6.7-7.9
		c0.5-0.6,0.4-1.5-0.2-2.1c-0.6-0.5-1.6-0.4-2.1,0.2l-7.5,8.8c-0.5,0.5-0.5,1.3,0,1.9l7.2,8.8c0.3,0.4,0.7,0.5,1.2,0.5
		c0.3,0,0.7-0.1,0.9-0.3c0.6-0.5,0.7-1.4,0.2-2.1L25.9,39z M41,38.1c0.6-0.6,1.5-0.5,2.1,0c0.6,0.6,0.6,1.5,0,2.1l-4.5,4.3
		c-0.3,0.3-0.7,0.4-1,0.4c-0.4,0-0.8-0.1-1.1-0.4L31.9,40c-0.6-0.6-0.6-1.5,0-2.1c0.6-0.6,1.5-0.6,2.1,0l1.9,1.9v-6.7
		c0-0.8,0.7-1.5,1.5-1.5c0.8,0,1.5,0.7,1.5,1.5v6.8L41,38.1z"/>
	<defs>
		<filter id="Adobe_OpacityMaskFilter_1_" filterUnits="userSpaceOnUse" x="19.5" y="21.4" width="36" height="35.2">
			<feColorMatrix  type="matrix" values="1 0 0 0 0  0 1 0 0 0  0 0 1 0 0  0 0 0 1 0"/>
		</filter>
	</defs>
	<mask maskUnits="userSpaceOnUse" x="19.5" y="21.4" width="36" height="35.2" id="mask1_1509_11748_1_" style="display:inline;">
		<path style="fill-rule:evenodd;clip-rule:evenodd;fill:#FFFFFF;filter:url(#Adobe_OpacityMaskFilter_1_);" d="M52.2,38.1l-7.2-8.8
			c-0.5-0.6-1.5-0.7-2.1-0.2c-0.6,0.5-0.7,1.4-0.2,2.1l6.5,7.9l-6.7,7.9c-0.5,0.6-0.4,1.5,0.2,2.1c0.3,0.2,0.6,0.3,1,0.3
			c0.4,0,0.9-0.2,1.2-0.5l7.5-8.8C52.6,39.4,52.6,38.6,52.2,38.1z M25.9,39l6.7-7.9c0.5-0.6,0.4-1.5-0.2-2.1
			c-0.6-0.5-1.6-0.4-2.1,0.2l-7.5,8.8c-0.5,0.5-0.5,1.3,0,1.9l7.2,8.8c0.3,0.4,0.7,0.5,1.2,0.5c0.3,0,0.7-0.1,0.9-0.3
			c0.6-0.5,0.7-1.4,0.2-2.1L25.9,39z M41,38.1c0.6-0.6,1.5-0.5,2.1,0c0.6,0.6,0.6,1.5,0,2.1l-4.5,4.3c-0.3,0.3-0.7,0.4-1,0.4
			c-0.4,0-0.8-0.1-1.1-0.4L31.9,40c-0.6-0.6-0.6-1.5,0-2.1c0.6-0.6,1.5-0.6,2.1,0l1.9,1.9v-6.7c0-0.8,0.7-1.5,1.5-1.5
			c0.8,0,1.5,0.7,1.5,1.5v6.8L41,38.1z"/>
	</mask>
	<g class="st11">
		<rect x="19.5" y="21.4" class="st12" width="36" height="35.2"/>
	</g>
</g>
<g class="st1">
	<path class="st2" d="M30,46.5h-1.5c-0.8,0-1.6-0.3-2.1-0.9c-0.6-0.6-0.9-1.3-0.9-2.1v-15c0-0.8,0.3-1.6,0.9-2.1
		c0.6-0.6,1.3-0.9,2.1-0.9h24c0.8,0,1.6,0.3,2.1,0.9c0.6,0.6,0.9,1.3,0.9,2.1v15c0,0.8-0.3,1.6-0.9,2.1s-1.3,0.9-2.1,0.9H51"/>
	<path class="st2" d="M40.5,43.5l7.5,9H33L40.5,43.5z"/>
	<path class="st3" d="M27,46.5h-1.5c-0.8,0-1.6-0.3-2.1-0.9c-0.6-0.6-0.9-1.3-0.9-2.1v-15c0-0.8,0.3-1.6,0.9-2.1
		c0.6-0.6,1.3-0.9,2.1-0.9h24c0.8,0,1.6,0.3,2.1,0.9c0.6,0.6,0.9,1.3,0.9,2.1v15c0,0.8-0.3,1.6-0.9,2.1s-1.3,0.9-2.1,0.9H48"/>
	<path class="st3" d="M37.5,43.5l7.5,9H30L37.5,43.5z"/>
</g>
<g>
	<path class="st13" d="M40,25.5v27 M40,25.5h10.5c0.8,0,1.6,0.3,2.1,0.9c0.6,0.6,0.9,1.3,0.9,2.1v21c0,0.8-0.3,1.6-0.9,2.1
		s-1.3,0.9-2.1,0.9H40V25.5z M40,25.5H29.5c-0.8,0-1.6,0.3-2.1,0.9c-0.6,0.6-0.9,1.3-0.9,2.1v21c0,0.8,0.3,1.6,0.9,2.1
		c0.6,0.6,1.3,0.9,2.1,0.9H40V25.5z"/>
	<path class="st14" d="M38,25.5v27 M38,25.5h10.5c0.8,0,1.6,0.3,2.1,0.9c0.6,0.6,0.9,1.3,0.9,2.1v21c0,0.8-0.3,1.6-0.9,2.1
		s-1.3,0.9-2.1,0.9H38V25.5z M38,25.5H27.5c-0.8,0-1.6,0.3-2.1,0.9c-0.6,0.6-0.9,1.3-0.9,2.1v21c0,0.8,0.3,1.6,0.9,2.1
		c0.6,0.6,1.3,0.9,2.1,0.9H38V25.5z"/>
</g>
</svg>
