<?xml version="1.0" encoding="utf-8"?>
<!-- Generator: Adobe Illustrator 25.2.1, SVG Export Plug-In . SVG Version: 6.00 Build 0)  -->
<svg version="1.1" id="Layer_1" xmlns="http://www.w3.org/2000/svg" xmlns:xlink="http://www.w3.org/1999/xlink" x="0px" y="0px"
	 width="78px" height="78px" viewBox="0 0 78 78" style="enable-background:new 0 0 78 78;" xml:space="preserve">
<style type="text/css">
	.st0{fill:#F5F5F5;stroke:#E4E4E4;}
	.st1{fill:none;stroke:#BBC9E3;stroke-width:3;stroke-linecap:round;stroke-linejoin:round;}
	.st2{fill:none;stroke:#0D51D9;stroke-width:3;stroke-linecap:round;stroke-linejoin:round;}
</style>
<circle class="st0" cx="39" cy="39" r="38.5"/>
<g>
	<path class="st1" d="M49,25.5c-1.2,0-2.3,0.5-3.2,1.3c-0.8,0.8-1.3,2-1.3,3.2v18c0,1.2,0.5,2.3,1.3,3.2c0.8,0.8,2,1.3,3.2,1.3
		s2.3-0.5,3.2-1.3c0.8-0.8,1.3-2,1.3-3.2s-0.5-2.3-1.3-3.2c-0.8-0.8-2-1.3-3.2-1.3H31c-1.2,0-2.3,0.5-3.2,1.3
		c-0.8,0.8-1.3,2-1.3,3.2s0.5,2.3,1.3,3.2c0.8,0.8,2,1.3,3.2,1.3c1.2,0,2.3-0.5,3.2-1.3c0.8-0.8,1.3-2,1.3-3.2V30
		c0-1.2-0.5-2.3-1.3-3.2c-0.8-0.8-2-1.3-3.2-1.3c-1.2,0-2.3,0.5-3.2,1.3s-1.3,2-1.3,3.2c0,1.2,0.5,2.3,1.3,3.2
		c0.8,0.8,2,1.3,3.2,1.3h18c1.2,0,2.3-0.5,3.2-1.3c0.8-0.8,1.3-2,1.3-3.2c0-1.2-0.5-2.3-1.3-3.2C51.3,26,50.2,25.5,49,25.5z"/>
	<path class="st2" d="M47,25.5c-1.2,0-2.3,0.5-3.2,1.3c-0.8,0.8-1.3,2-1.3,3.2v18c0,1.2,0.5,2.3,1.3,3.2c0.8,0.8,2,1.3,3.2,1.3
		s2.3-0.5,3.2-1.3c0.8-0.8,1.3-2,1.3-3.2s-0.5-2.3-1.3-3.2c-0.8-0.8-2-1.3-3.2-1.3H29c-1.2,0-2.3,0.5-3.2,1.3
		c-0.8,0.8-1.3,2-1.3,3.2s0.5,2.3,1.3,3.2c0.8,0.8,2,1.3,3.2,1.3c1.2,0,2.3-0.5,3.2-1.3c0.8-0.8,1.3-2,1.3-3.2V30
		c0-1.2-0.5-2.3-1.3-3.2c-0.8-0.8-2-1.3-3.2-1.3c-1.2,0-2.3,0.5-3.2,1.3s-1.3,2-1.3,3.2c0,1.2,0.5,2.3,1.3,3.2
		c0.8,0.8,2,1.3,3.2,1.3h18c1.2,0,2.3-0.5,3.2-1.3c0.8-0.8,1.3-2,1.3-3.2c0-1.2-0.5-2.3-1.3-3.2C49.3,26,48.2,25.5,47,25.5z"/>
</g>
</svg>
