<?xml version="1.0" encoding="utf-8"?>
<!-- Generator: Adobe Illustrator 25.2.1, SVG Export Plug-In . SVG Version: 6.00 Build 0)  -->
<svg version="1.1" id="Layer_1" xmlns="http://www.w3.org/2000/svg" xmlns:xlink="http://www.w3.org/1999/xlink" x="0px" y="0px"
	 width="78px" height="78px" viewBox="0 0 78 78" style="enable-background:new 0 0 78 78;" xml:space="preserve">
<style type="text/css">
	.st0{fill:#F5F5F5;stroke:#E4E4E4;}
	.st1{fill:none;stroke:#BBC9E3;stroke-width:3;stroke-linecap:round;stroke-linejoin:round;}
	.st2{fill:none;stroke:#0D51D9;stroke-width:3;stroke-linecap:round;stroke-linejoin:round;}
</style>
<circle class="st0" cx="39" cy="39" r="38.5"/>
<g>
	<path class="st1" d="M53.5,27h-27c-1.7,0-3,1.3-3,3v18c0,1.7,1.3,3,3,3h27c1.7,0,3-1.3,3-3V30C56.5,28.3,55.2,27,53.5,27z"/>
	<path class="st1" d="M23.5,36h33"/>
	<path class="st2" d="M51.5,27h-27c-1.7,0-3,1.3-3,3v18c0,1.7,1.3,3,3,3h27c1.7,0,3-1.3,3-3V30C54.5,28.3,53.2,27,51.5,27z"/>
	<path class="st2" d="M21.5,36h33"/>
</g>
</svg>
