<?xml version="1.0" encoding="utf-8"?>
<!-- Generator: Adobe Illustrator 25.2.1, SVG Export Plug-In . SVG Version: 6.00 Build 0)  -->
<svg version="1.1" id="Layer_1" xmlns="http://www.w3.org/2000/svg" xmlns:xlink="http://www.w3.org/1999/xlink" x="0px" y="0px"
	 width="78px" height="78px" viewBox="0 0 78 78" style="enable-background:new 0 0 78 78;" xml:space="preserve">
<style type="text/css">
	.st0{fill:#F5F5F5;stroke:#E4E4E4;stroke-width:0.9967;}
	.st1{fill:none;stroke:#BBC9E3;stroke-width:3;stroke-linecap:round;stroke-linejoin:round;}
	.st2{clip-path:url(#SVGID_2_);}
	.st3{fill:none;stroke:#0D51D9;stroke-width:3;stroke-linecap:round;stroke-linejoin:round;}
</style>
<g>
	<ellipse class="st0" cx="39" cy="38.7" rx="38.5" ry="38.2"/>
</g>
<g>
	<path class="st1" d="M32,45L32,45"/>
	<path class="st1" d="M38,45L38,45"/>
	<g>
		<defs>
			<rect id="SVGID_1_" x="21" y="21" width="36" height="36"/>
		</defs>
		<clipPath id="SVGID_2_">
			<use xlink:href="#SVGID_1_"  style="overflow:visible;"/>
		</clipPath>
		<g class="st2">
			<path class="st1" d="M56,39H26"/>
			<path class="st1" d="M31.2,28.7L26,39v9c0,0.8,0.3,1.6,0.9,2.1c0.6,0.6,1.3,0.9,2.1,0.9h24c0.8,0,1.6-0.3,2.1-0.9S56,48.8,56,48
				v-9l-5.2-10.3c-0.2-0.5-0.6-0.9-1.1-1.2c-0.5-0.3-1-0.5-1.6-0.5H33.9c-0.6,0-1.1,0.2-1.6,0.5C31.8,27.7,31.4,28.2,31.2,28.7
				L31.2,28.7z"/>
			<path class="st3" d="M54,39H24"/>
			<path class="st3" d="M29.2,28.7L24,39v9c0,0.8,0.3,1.6,0.9,2.1c0.6,0.6,1.3,0.9,2.1,0.9h24c0.8,0,1.6-0.3,2.1-0.9S54,48.8,54,48
				v-9l-5.2-10.3c-0.2-0.5-0.6-0.9-1.1-1.2c-0.5-0.3-1-0.5-1.6-0.5H31.9c-0.6,0-1.1,0.2-1.6,0.5C29.8,27.7,29.4,28.2,29.2,28.7
				L29.2,28.7z"/>
			<path class="st3" d="M30,45L30,45"/>
			<path class="st3" d="M36,45L36,45"/>
		</g>
	</g>
</g>
</svg>
