<?xml version="1.0" encoding="utf-8"?>
<!-- Generator: Adobe Illustrator 25.2.1, SVG Export Plug-In . SVG Version: 6.00 Build 0)  -->
<svg version="1.1" id="Layer_1" xmlns="http://www.w3.org/2000/svg" xmlns:xlink="http://www.w3.org/1999/xlink" x="0px" y="0px"
	 width="78px" height="78px" viewBox="0 0 78 78" style="enable-background:new 0 0 78 78;" xml:space="preserve">
<style type="text/css">
	.st0{fill:#F5F5F5;stroke:#E4E4E4;}
	.st1{fill:none;stroke:#BBC9E3;stroke-width:3;stroke-linecap:round;stroke-linejoin:round;}
	.st2{fill:none;stroke:#0D51D9;stroke-width:3;stroke-linecap:round;stroke-linejoin:round;}
</style>
<circle class="st0" cx="39" cy="39" r="38.5"/>
<g>
	<path class="st1" d="M43,24H31c-0.8,0-1.6,0.3-2.1,0.9C28.3,25.4,28,26.2,28,27v24c0,0.8,0.3,1.6,0.9,2.1c0.6,0.6,1.3,0.9,2.1,0.9
		h18c0.8,0,1.6-0.3,2.1-0.9S52,51.8,52,51V33L43,24z"/>
	<path class="st1" d="M43,24v9h9"/>
	<path class="st1" d="M46,40.5H34"/>
	<path class="st1" d="M46,46.5H34"/>
	<path class="st1" d="M37,34.5h-1.5H34"/>
	<path class="st2" d="M41,24H29c-0.8,0-1.6,0.3-2.1,0.9C26.3,25.4,26,26.2,26,27v24c0,0.8,0.3,1.6,0.9,2.1c0.6,0.6,1.3,0.9,2.1,0.9
		h18c0.8,0,1.6-0.3,2.1-0.9S50,51.8,50,51V33L41,24z"/>
	<path class="st2" d="M41,24v9h9"/>
	<path class="st2" d="M44,40.5H32"/>
	<path class="st2" d="M44,46.5H32"/>
	<path class="st2" d="M35,34.5h-1.5H32"/>
</g>
</svg>
