<?xml version="1.0" encoding="utf-8"?>
<!-- Generator: Adobe Illustrator 25.2.1, SVG Export Plug-In . SVG Version: 6.00 Build 0)  -->
<svg version="1.1" id="Layer_1" xmlns="http://www.w3.org/2000/svg" xmlns:xlink="http://www.w3.org/1999/xlink" x="0px" y="0px"
	 width="78px" height="78px" viewBox="0 0 78 78" style="enable-background:new 0 0 78 78;" xml:space="preserve">
<style type="text/css">
	.st0{fill:#F5F5F5;stroke:#E4E4E4;}
	.st1{fill:none;stroke:#BBC9E3;stroke-width:2.6634;stroke-linecap:round;stroke-miterlimit:10;}
	.st2{fill:none;stroke:#0D51D9;stroke-width:2.3971;stroke-linecap:round;stroke-miterlimit:10;}
</style>
<g>
	<circle class="st0" cx="39" cy="39" r="38.5"/>
</g>
<g>
	<path class="st1" d="M50.4,48.1H29.3c-0.8,0-1.4-0.6-1.4-1.4V31.4c0-0.8,0.6-1.4,1.4-1.4h7.4c0.4,0,0.7,0.1,1,0.4l3.7,3.6h9
		c0.8,0,1.4,0.6,1.4,1.4v2.2v9.1C51.8,47.4,51.2,48.1,50.4,48.1z"/>
	<path class="st2" d="M48.7,48.1H27.6c-0.8,0-1.4-0.6-1.4-1.4V31.4c0-0.8,0.6-1.4,1.4-1.4H35c0.4,0,0.7,0.1,1,0.4l3.7,3.6h9
		c0.8,0,1.4,0.6,1.4,1.4v2.2v9.1C50.1,47.4,49.5,48.1,48.7,48.1z"/>
</g>
</svg>
