<?xml version="1.0" encoding="utf-8"?>
<!-- Generator: Adobe Illustrator 25.2.1, SVG Export Plug-In . SVG Version: 6.00 Build 0)  -->
<svg version="1.1" id="Layer_1" xmlns="http://www.w3.org/2000/svg" xmlns:xlink="http://www.w3.org/1999/xlink" x="0px" y="0px"
	 width="78px" height="78px" viewBox="0 0 78 78" style="enable-background:new 0 0 78 78;" xml:space="preserve">
<style type="text/css">
	.st0{fill:#FFF0F0;}
	.st1{fill:none;stroke:#0D51D9;stroke-width:3;stroke-linecap:round;stroke-linejoin:round;}
</style>
<circle class="st0" cx="39" cy="39" r="39"/>
<g>
</g>
<g>
	<path class="st1" d="M42,24H30c-0.8,0-1.6,0.3-2.1,0.9C27.3,25.4,27,26.2,27,27v24c0,0.8,0.3,1.6,0.9,2.1c0.6,0.6,1.3,0.9,2.1,0.9
		h18c0.8,0,1.6-0.3,2.1-0.9S51,51.8,51,51V33L42,24z"/>
	<path class="st1" d="M42,24v9h9"/>
	<path class="st1" d="M45,40.5H33"/>
	<path class="st1" d="M45,46.5H33"/>
	<path class="st1" d="M36,34.5h-1.5H33"/>
</g>
</svg>
