<?xml version="1.0" encoding="utf-8"?>
<!-- Generator: Adobe Illustrator 25.2.1, SVG Export Plug-In . SVG Version: 6.00 Build 0)  -->
<svg version="1.1" id="Layer_1" xmlns="http://www.w3.org/2000/svg" xmlns:xlink="http://www.w3.org/1999/xlink" x="0px" y="0px"
	 width="78px" height="78px" viewBox="0 0 78 78" style="enable-background:new 0 0 78 78;" xml:space="preserve">
<style type="text/css">
	.st0{fill:#F5F5F5;stroke:#E4E4E4;}
	.st1{fill:none;stroke:#BBC9E3;stroke-width:3;stroke-linecap:round;stroke-linejoin:round;}
	.st2{fill:none;stroke:#0D51D9;stroke-width:3;stroke-linecap:round;stroke-linejoin:round;}
</style>
<circle class="st0" cx="39" cy="39" r="38.5"/>
<g>
	<path class="st1" d="M40,43.5c2.5,0,4.5-2,4.5-4.5s-2-4.5-4.5-4.5s-4.5,2-4.5,4.5S37.5,43.5,40,43.5z"/>
	<path class="st1" d="M51.1,43.5c-0.2,0.5-0.3,1-0.2,1.4c0.1,0.5,0.3,0.9,0.7,1.3l0.1,0.1c0.3,0.3,0.5,0.6,0.7,1
		c0.2,0.4,0.2,0.8,0.2,1.1c0,0.4-0.1,0.8-0.2,1.1c-0.2,0.4-0.4,0.7-0.7,1c-0.3,0.3-0.6,0.5-1,0.7c-0.4,0.2-0.8,0.2-1.1,0.2
		s-0.8-0.1-1.1-0.2c-0.4-0.2-0.7-0.4-1-0.7l-0.1-0.1c-0.4-0.3-0.8-0.6-1.3-0.7c-0.5-0.1-1,0-1.4,0.2c-0.4,0.2-0.8,0.5-1.1,0.9
		c-0.3,0.4-0.4,0.9-0.4,1.4v0.3c0,0.8-0.3,1.6-0.9,2.1c-0.6,0.6-1.3,0.9-2.1,0.9c-0.8,0-1.6-0.3-2.1-0.9c-0.6-0.6-0.9-1.3-0.9-2.1
		v-0.1c0-0.5-0.2-1-0.5-1.4c-0.3-0.4-0.7-0.7-1.2-0.9c-0.5-0.2-1-0.3-1.4-0.2c-0.5,0.1-0.9,0.3-1.3,0.7l-0.1,0.1
		c-0.3,0.3-0.6,0.5-1,0.7c-0.4,0.2-0.8,0.2-1.1,0.2c-0.4,0-0.8-0.1-1.1-0.2c-0.4-0.2-0.7-0.4-1-0.7c-0.3-0.3-0.5-0.6-0.7-1
		c-0.2-0.4-0.2-0.8-0.2-1.1s0.1-0.8,0.2-1.1c0.2-0.4,0.4-0.7,0.7-1l0.1-0.1c0.3-0.4,0.6-0.8,0.7-1.3c0.1-0.5,0-1-0.2-1.4
		c-0.2-0.4-0.5-0.8-0.9-1.1c-0.4-0.3-0.9-0.4-1.4-0.4h-0.3c-0.8,0-1.6-0.3-2.1-0.9c-0.6-0.6-0.9-1.3-0.9-2.1c0-0.8,0.3-1.6,0.9-2.1
		c0.6-0.6,1.3-0.9,2.1-0.9h0.1c0.5,0,1-0.2,1.4-0.5c0.4-0.3,0.7-0.7,0.9-1.2c0.2-0.5,0.3-1,0.2-1.4s-0.3-0.9-0.7-1.3l-0.1-0.1
		c-0.3-0.3-0.5-0.6-0.7-1c-0.2-0.4-0.2-0.8-0.2-1.1c0-0.4,0.1-0.8,0.2-1.1c0.2-0.4,0.4-0.7,0.7-1c0.3-0.3,0.6-0.5,1-0.7
		c0.4-0.2,0.8-0.2,1.1-0.2s0.8,0.1,1.1,0.2c0.4,0.2,0.7,0.4,1,0.7l0.1,0.1c0.4,0.3,0.8,0.6,1.3,0.7c0.5,0.1,1,0,1.4-0.2h0.1
		c0.4-0.2,0.8-0.5,1.1-0.9c0.3-0.4,0.4-0.9,0.4-1.4v-0.3c0-0.8,0.3-1.6,0.9-2.1c0.6-0.6,1.3-0.9,2.1-0.9s1.6,0.3,2.1,0.9
		c0.6,0.6,0.9,1.3,0.9,2.1v0.1c0,0.5,0.1,1,0.4,1.4c0.3,0.4,0.6,0.7,1.1,0.9c0.5,0.2,1,0.3,1.4,0.2c0.5-0.1,0.9-0.3,1.3-0.7l0.1-0.1
		c0.3-0.3,0.6-0.5,1-0.7c0.4-0.2,0.8-0.2,1.1-0.2c0.4,0,0.8,0.1,1.1,0.2c0.4,0.2,0.7,0.4,1,0.7c0.3,0.3,0.5,0.6,0.7,1
		c0.2,0.4,0.2,0.8,0.2,1.1s-0.1,0.8-0.2,1.1c-0.2,0.4-0.4,0.7-0.7,1l-0.1,0.1c-0.3,0.4-0.6,0.8-0.7,1.3c-0.1,0.5,0,1,0.2,1.4v0.1
		c0.2,0.4,0.5,0.8,0.9,1.1c0.4,0.3,0.9,0.4,1.4,0.4h0.3c0.8,0,1.6,0.3,2.1,0.9s0.9,1.3,0.9,2.1c0,0.8-0.3,1.6-0.9,2.1
		S54.3,42,53.5,42h-0.1c-0.5,0-1,0.1-1.4,0.4C51.6,42.7,51.3,43.1,51.1,43.5L51.1,43.5z"/>
	<path class="st2" d="M38,43.5c2.5,0,4.5-2,4.5-4.5s-2-4.5-4.5-4.5s-4.5,2-4.5,4.5S35.5,43.5,38,43.5z"/>
	<path class="st2" d="M49.1,43.5c-0.2,0.5-0.3,1-0.2,1.4c0.1,0.5,0.3,0.9,0.7,1.3l0.1,0.1c0.3,0.3,0.5,0.6,0.7,1
		c0.2,0.4,0.2,0.8,0.2,1.1c0,0.4-0.1,0.8-0.2,1.1c-0.2,0.4-0.4,0.7-0.7,1c-0.3,0.3-0.6,0.5-1,0.7c-0.4,0.2-0.8,0.2-1.1,0.2
		s-0.8-0.1-1.1-0.2c-0.4-0.2-0.7-0.4-1-0.7l-0.1-0.1c-0.4-0.3-0.8-0.6-1.3-0.7c-0.5-0.1-1,0-1.4,0.2c-0.4,0.2-0.8,0.5-1.1,0.9
		c-0.3,0.4-0.4,0.9-0.4,1.4v0.3c0,0.8-0.3,1.6-0.9,2.1c-0.6,0.6-1.3,0.9-2.1,0.9c-0.8,0-1.6-0.3-2.1-0.9c-0.6-0.6-0.9-1.3-0.9-2.1
		v-0.1c0-0.5-0.2-1-0.5-1.4c-0.3-0.4-0.7-0.7-1.2-0.9c-0.5-0.2-1-0.3-1.4-0.2c-0.5,0.1-0.9,0.3-1.3,0.7l-0.1,0.1
		c-0.3,0.3-0.6,0.5-1,0.7c-0.4,0.2-0.8,0.2-1.1,0.2c-0.4,0-0.8-0.1-1.1-0.2c-0.4-0.2-0.7-0.4-1-0.7c-0.3-0.3-0.5-0.6-0.7-1
		c-0.2-0.4-0.2-0.8-0.2-1.1s0.1-0.8,0.2-1.1c0.2-0.4,0.4-0.7,0.7-1l0.1-0.1c0.3-0.4,0.6-0.8,0.7-1.3c0.1-0.5,0-1-0.2-1.4
		c-0.2-0.4-0.5-0.8-0.9-1.1c-0.4-0.3-0.9-0.4-1.4-0.4h-0.3c-0.8,0-1.6-0.3-2.1-0.9c-0.6-0.6-0.9-1.3-0.9-2.1c0-0.8,0.3-1.6,0.9-2.1
		c0.6-0.6,1.3-0.9,2.1-0.9h0.1c0.5,0,1-0.2,1.4-0.5c0.4-0.3,0.7-0.7,0.9-1.2c0.2-0.5,0.3-1,0.2-1.4s-0.3-0.9-0.7-1.3l-0.1-0.1
		c-0.3-0.3-0.5-0.6-0.7-1c-0.2-0.4-0.2-0.8-0.2-1.1c0-0.4,0.1-0.8,0.2-1.1c0.2-0.4,0.4-0.7,0.7-1c0.3-0.3,0.6-0.5,1-0.7
		c0.4-0.2,0.8-0.2,1.1-0.2s0.8,0.1,1.1,0.2c0.4,0.2,0.7,0.4,1,0.7l0.1,0.1c0.4,0.3,0.8,0.6,1.3,0.7c0.5,0.1,1,0,1.4-0.2h0.1
		c0.4-0.2,0.8-0.5,1.1-0.9c0.3-0.4,0.4-0.9,0.4-1.4v-0.3c0-0.8,0.3-1.6,0.9-2.1c0.6-0.6,1.3-0.9,2.1-0.9s1.6,0.3,2.1,0.9
		c0.6,0.6,0.9,1.3,0.9,2.1v0.1c0,0.5,0.1,1,0.4,1.4c0.3,0.4,0.6,0.7,1.1,0.9c0.5,0.2,1,0.3,1.4,0.2c0.5-0.1,0.9-0.3,1.3-0.7l0.1-0.1
		c0.3-0.3,0.6-0.5,1-0.7c0.4-0.2,0.8-0.2,1.1-0.2c0.4,0,0.8,0.1,1.1,0.2c0.4,0.2,0.7,0.4,1,0.7c0.3,0.3,0.5,0.6,0.7,1
		c0.2,0.4,0.2,0.8,0.2,1.1s-0.1,0.8-0.2,1.1c-0.2,0.4-0.4,0.7-0.7,1l-0.1,0.1c-0.3,0.4-0.6,0.8-0.7,1.3c-0.1,0.5,0,1,0.2,1.4v0.1
		c0.2,0.4,0.5,0.8,0.9,1.1c0.4,0.3,0.9,0.4,1.4,0.4h0.3c0.8,0,1.6,0.3,2.1,0.9s0.9,1.3,0.9,2.1c0,0.8-0.3,1.6-0.9,2.1
		S52.3,42,51.5,42h-0.1c-0.5,0-1,0.1-1.4,0.4C49.6,42.7,49.3,43.1,49.1,43.5L49.1,43.5z"/>
</g>
</svg>
