<?xml version="1.0" encoding="utf-8"?>
<!-- Generator: Adobe Illustrator 25.2.1, SVG Export Plug-In . SVG Version: 6.00 Build 0)  -->
<svg version="1.1" id="Layer_1" xmlns="http://www.w3.org/2000/svg" xmlns:xlink="http://www.w3.org/1999/xlink" x="0px" y="0px"
	 width="74px" height="74px" viewBox="0 0 74 74" style="enable-background:new 0 0 74 74;" xml:space="preserve">
<style type="text/css">
	.st0{fill:none;stroke:#FFDB5E;stroke-width:3;stroke-linecap:round;stroke-dasharray:4,10;}
	.st1{fill:#FFDB5E;}
	.st2{fill:#EE9547;}
</style>
<circle class="st0" cx="37" cy="37" r="35.5"/>
<g>
	<path class="st1" d="M53,36.8c0-0.5-0.1-1-0.3-1.4c-1.3-4.3-7.6-4-16.5-4.2c-1.5,0-0.6-1.8-0.1-5.7c0.3-2.5-1.3-6.4-4-6.4
		c-4.5,0-0.2,3.5-4.1,12.3c-2.1,4.7-6.9,2.1-6.9,6.8v10.7c0,1.8,0.2,3.6,2.8,3.9c2.5,0.3,1.9,2.1,5.5,2.1h18c1.8,0,3.3-1.5,3.3-3.3
		c0-0.8-0.3-1.5-0.7-2c1-0.6,1.7-1.6,1.7-2.9c0-0.8-0.3-1.5-0.7-2c1-0.6,1.7-1.6,1.7-2.9c0-0.9-0.4-1.7-1-2.3
		C52.5,38.8,53,37.8,53,36.8z"/>
	<path class="st2" d="M41.1,40.1h8.6c1.2,0,2.3-0.6,2.9-1.6c0.2-0.4,0.1-1-0.3-1.2c-0.4-0.2-1-0.1-1.2,0.3c-0.3,0.5-0.8,0.8-1.4,0.8
		h-8.8c-0.9,0-1.6-0.7-1.6-1.6s0.7-1.6,1.6-1.6h5.9c0.5,0,0.9-0.4,0.9-0.9c0-0.5-0.4-0.9-0.9-0.9h-5.9c-1.8,0-3.3,1.5-3.3,3.3
		c0,1,0.5,1.9,1.2,2.5c-0.6,0.6-1,1.4-1,2.4c0,1,0.5,1.9,1.2,2.5c-0.6,0.6-1,1.4-1,2.4c0,1.1,0.6,2.1,1.4,2.7
		c-0.5,0.6-0.9,1.4-0.9,2.2c0,1.8,1.5,3.3,3.3,3.3h5.5c1.2,0,2.3-0.6,2.9-1.6c0.2-0.4,0.1-1-0.3-1.2c-0.4-0.2-1-0.1-1.2,0.3
		c-0.3,0.5-0.8,0.8-1.4,0.8h-5.5c-0.9,0-1.6-0.7-1.6-1.6S41,50,41.9,50h6.5c1.2,0,2.3-0.6,2.9-1.6c0.2-0.4,0.1-1-0.3-1.2
		c-0.4-0.3-1-0.1-1.2,0.3c-0.3,0.5-0.8,0.8-1.4,0.8h-7.1c-0.9,0-1.6-0.7-1.6-1.6s0.7-1.6,1.6-1.6h8.1c1.2,0,2.3-0.6,2.9-1.6
		c0.2-0.4,0.1-1-0.3-1.2c-0.4-0.2-1-0.1-1.2,0.3c-0.3,0.5-0.8,0.8-1.4,0.8h-8.3c-0.9,0-1.6-0.7-1.6-1.6S40.2,40.1,41.1,40.1z"/>
</g>
</svg>
