<?xml version="1.0" encoding="utf-8"?>
<!-- Generator: Adobe Illustrator 25.2.1, SVG Export Plug-In . SVG Version: 6.00 Build 0)  -->
<svg version="1.1" id="Layer_1" xmlns="http://www.w3.org/2000/svg" xmlns:xlink="http://www.w3.org/1999/xlink" x="0px" y="0px"
	 width="78px" height="78px" viewBox="0 0 78 78" style="enable-background:new 0 0 78 78;" xml:space="preserve">
<style type="text/css">
	.st0{fill:#F5F5F5;stroke:#E4E4E4;}
	.st1{fill:none;stroke:#BBC9E3;stroke-width:3;stroke-linecap:round;stroke-linejoin:round;}
	.st2{fill:none;stroke:#0D51D9;stroke-width:3;stroke-linecap:round;stroke-linejoin:round;}
</style>
<circle class="st0" cx="39" cy="39" r="38.5"/>
<g>
	<path class="st1" d="M53.3,27.7c-0.8-0.8-1.7-1.4-2.7-1.8c-1-0.4-2.1-0.6-3.2-0.6c-1.1,0-2.2,0.2-3.2,0.6c-1,0.4-1.9,1-2.7,1.8
		L40,29.3l-1.6-1.6c-1.5-1.5-3.6-2.4-5.8-2.4c-2.2,0-4.3,0.9-5.8,2.4c-1.5,1.5-2.4,3.6-2.4,5.8c0,2.2,0.9,4.3,2.4,5.8l1.6,1.6
		L40,52.7L51.7,41l1.6-1.6c0.8-0.8,1.4-1.7,1.8-2.7c0.4-1,0.6-2.1,0.6-3.2c0-1.1-0.2-2.2-0.6-3.2C54.6,29.4,54,28.5,53.3,27.7
		L53.3,27.7z"/>
	<path class="st2" d="M51.3,27.7c-0.8-0.8-1.7-1.4-2.7-1.8c-1-0.4-2.1-0.6-3.2-0.6c-1.1,0-2.2,0.2-3.2,0.6c-1,0.4-1.9,1-2.7,1.8
		L38,29.3l-1.6-1.6c-1.5-1.5-3.6-2.4-5.8-2.4c-2.2,0-4.3,0.9-5.8,2.4c-1.5,1.5-2.4,3.6-2.4,5.8c0,2.2,0.9,4.3,2.4,5.8l1.6,1.6
		L38,52.7L49.7,41l1.6-1.6c0.8-0.8,1.4-1.7,1.8-2.7c0.4-1,0.6-2.1,0.6-3.2c0-1.1-0.2-2.2-0.6-3.2C52.6,29.4,52,28.5,51.3,27.7
		L51.3,27.7z"/>
</g>
</svg>
