<svg width="26" height="24" viewBox="0 0 26 24" fill="none" xmlns="http://www.w3.org/2000/svg">
<path d="M3 12C3 12 7 4 14 4C21 4 25 12 25 12C25 12 21 20 14 20C7 20 3 12 3 12Z" stroke="#AFC3EC" stroke-width="2" stroke-linecap="round" stroke-linejoin="round"/>
<path d="M14 15C15.6569 15 17 13.6569 17 12C17 10.3431 15.6569 9 14 9C12.3431 9 11 10.3431 11 12C11 13.6569 12.3431 15 14 15Z" stroke="#AFC3EC" stroke-width="2" stroke-linecap="round" stroke-linejoin="round"/>
<path d="M1 12C1 12 5 4 12 4C19 4 23 12 23 12C23 12 19 20 12 20C5 20 1 12 1 12Z" stroke="#0D51D9" stroke-width="2" stroke-linecap="round" stroke-linejoin="round"/>
<path d="M12 15C13.6569 15 15 13.6569 15 12C15 10.3431 13.6569 9 12 9C10.3431 9 9 10.3431 9 12C9 13.6569 10.3431 15 12 15Z" stroke="#0D51D9" stroke-width="2" stroke-linecap="round" stroke-linejoin="round"/>
</svg>
