<svg width="26" height="24" viewBox="0 0 26 24" fill="none" xmlns="http://www.w3.org/2000/svg">
<path d="M25 4V10H19" stroke="#AFC3EC" stroke-width="2" stroke-linecap="round" stroke-linejoin="round"/>
<path d="M3 20V14H9" stroke="#AFC3EC" stroke-width="2" stroke-linecap="round" stroke-linejoin="round"/>
<path d="M5.51 9.00008C6.01717 7.56686 6.87913 6.28548 8.01547 5.27549C9.1518 4.26551 10.5255 3.55984 12.0083 3.22433C13.4911 2.88883 15.0348 2.93442 16.4952 3.35685C17.9556 3.77928 19.2853 4.56479 20.36 5.64008L25 10.0001M3 14.0001L7.64 18.3601C8.71475 19.4354 10.0444 20.2209 11.5048 20.6433C12.9652 21.0657 14.5089 21.1113 15.9917 20.7758C17.4745 20.4403 18.8482 19.7346 19.9845 18.7247C21.1209 17.7147 21.9828 16.4333 22.49 15.0001" stroke="#AFC3EC" stroke-width="2" stroke-linecap="round" stroke-linejoin="round"/>
<path d="M23 4V10H17" stroke="#0D51D9" stroke-width="2" stroke-linecap="round" stroke-linejoin="round"/>
<path d="M1 20V14H7" stroke="#0D51D9" stroke-width="2" stroke-linecap="round" stroke-linejoin="round"/>
<path d="M3.51 9.00008C4.01717 7.56686 4.87913 6.28548 6.01547 5.27549C7.1518 4.26551 8.52547 3.55984 10.0083 3.22433C11.4911 2.88883 13.0348 2.93442 14.4952 3.35685C15.9556 3.77928 17.2853 4.56479 18.36 5.64008L23 10.0001M1 14.0001L5.64 18.3601C6.71475 19.4354 8.04437 20.2209 9.50481 20.6433C10.9652 21.0657 12.5089 21.1113 13.9917 20.7758C15.4745 20.4403 16.8482 19.7346 17.9845 18.7247C19.1209 17.7147 19.9828 16.4333 20.49 15.0001" stroke="#0D51D9" stroke-width="2" stroke-linecap="round" stroke-linejoin="round"/>
</svg>
