<svg width="26" height="24" viewBox="0 0 26 24" fill="none" xmlns="http://www.w3.org/2000/svg">
<path d="M7 12.5501C8.97656 10.9037 11.4676 10.0022 14.04 10.0022C16.6124 10.0022 19.1034 10.9037 21.08 12.5501" stroke="#AFC3EC" stroke-width="2" stroke-linecap="round" stroke-linejoin="round"/>
<path d="M3.41992 9.00004C6.34234 6.424 10.1042 5.00269 13.9999 5.00269C17.8956 5.00269 21.6575 6.424 24.5799 9.00004" stroke="#AFC3EC" stroke-width="2" stroke-linecap="round" stroke-linejoin="round"/>
<path d="M10.5298 16.11C11.545 15.3887 12.7595 15.0012 14.0048 15.0012C15.2501 15.0012 16.4646 15.3887 17.4798 16.11" stroke="#AFC3EC" stroke-width="2" stroke-linecap="round" stroke-linejoin="round"/>
<path d="M14 20H14.01" stroke="#AFC3EC" stroke-width="2" stroke-linecap="round" stroke-linejoin="round"/>
<path d="M5 12.5501C6.97656 10.9037 9.46761 10.0022 12.04 10.0022C14.6124 10.0022 17.1034 10.9037 19.08 12.5501" stroke="#0D51D9" stroke-width="2" stroke-linecap="round" stroke-linejoin="round"/>
<path d="M1.41992 9.00004C4.34234 6.424 8.10422 5.00269 11.9999 5.00269C15.8956 5.00269 19.6575 6.424 22.5799 9.00004" stroke="#0D51D9" stroke-width="2" stroke-linecap="round" stroke-linejoin="round"/>
<path d="M8.52979 16.11C9.54499 15.3887 10.7595 15.0012 12.0048 15.0012C13.2501 15.0012 14.4646 15.3887 15.4798 16.11" stroke="#0D51D9" stroke-width="2" stroke-linecap="round" stroke-linejoin="round"/>
<path d="M12 20H12.01" stroke="#0D51D9" stroke-width="2" stroke-linecap="round" stroke-linejoin="round"/>
</svg>
