<svg width="26" height="24" viewBox="0 0 26 24" fill="none" xmlns="http://www.w3.org/2000/svg">
<path d="M22 7H6C4.89543 7 4 7.89543 4 9V19C4 20.1046 4.89543 21 6 21H22C23.1046 21 24 20.1046 24 19V9C24 7.89543 23.1046 7 22 7Z" stroke="#AFC3EC" stroke-width="2" stroke-linecap="round" stroke-linejoin="round"/>
<path d="M18 21V5C18 4.46957 17.7893 3.96086 17.4142 3.58579C17.0391 3.21071 16.5304 3 16 3H12C11.4696 3 10.9609 3.21071 10.5858 3.58579C10.2107 3.96086 10 4.46957 10 5V21" stroke="#AFC3EC" stroke-width="2" stroke-linecap="round" stroke-linejoin="round"/>
<path d="M20 7H4C2.89543 7 2 7.89543 2 9V19C2 20.1046 2.89543 21 4 21H20C21.1046 21 22 20.1046 22 19V9C22 7.89543 21.1046 7 20 7Z" stroke="#0D51D9" stroke-width="2" stroke-linecap="round" stroke-linejoin="round"/>
<path d="M16 21V5C16 4.46957 15.7893 3.96086 15.4142 3.58579C15.0391 3.21071 14.5304 3 14 3H10C9.46957 3 8.96086 3.21071 8.58579 3.58579C8.21071 3.96086 8 4.46957 8 5V21" stroke="#0D51D9" stroke-width="2" stroke-linecap="round" stroke-linejoin="round"/>
</svg>
