<svg width="26" height="24" viewBox="0 0 26 24" fill="none" xmlns="http://www.w3.org/2000/svg">
<path d="M21 4H7C5.89543 4 5 4.89543 5 6V20C5 21.1046 5.89543 22 7 22H21C22.1046 22 23 21.1046 23 20V6C23 4.89543 22.1046 4 21 4Z" stroke="#AFC3EC" stroke-width="2" stroke-linecap="round" stroke-linejoin="round"/>
<path d="M18 2V6" stroke="#AFC3EC" stroke-width="2" stroke-linecap="round" stroke-linejoin="round"/>
<path d="M10 2V6" stroke="#AFC3EC" stroke-width="2" stroke-linecap="round" stroke-linejoin="round"/>
<path d="M5 10H23" stroke="#AFC3EC" stroke-width="2" stroke-linecap="round" stroke-linejoin="round"/>
<path d="M19 4H5C3.89543 4 3 4.89543 3 6V20C3 21.1046 3.89543 22 5 22H19C20.1046 22 21 21.1046 21 20V6C21 4.89543 20.1046 4 19 4Z" stroke="#0D51D9" stroke-width="2" stroke-linecap="round" stroke-linejoin="round"/>
<path d="M16 2V6" stroke="#0D51D9" stroke-width="2" stroke-linecap="round" stroke-linejoin="round"/>
<path d="M8 2V6" stroke="#0D51D9" stroke-width="2" stroke-linecap="round" stroke-linejoin="round"/>
<path d="M3 10H21" stroke="#0D51D9" stroke-width="2" stroke-linecap="round" stroke-linejoin="round"/>
</svg>
