<svg width="56" height="56" viewBox="0 0 56 56" fill="none" xmlns="http://www.w3.org/2000/svg">
<path fill-rule="evenodd" clip-rule="evenodd" d="M36.6155 30.1539C35.4277 30.1539 34.4617 29.1879 34.4617 28.0001C34.4617 26.8122 35.4277 25.8462 36.6155 25.8462C37.8034 25.8462 38.7694 26.8122 38.7694 28.0001C38.7694 29.1879 37.8034 30.1539 36.6155 30.1539ZM21.5386 28.0001C21.5386 26.8122 22.5046 25.8462 23.6925 25.8462C24.8803 25.8462 25.8463 26.8122 25.8463 28.0001C25.8463 29.1879 24.8803 30.1539 23.6925 30.1539C22.5046 30.1539 21.5386 29.1879 21.5386 28.0001ZM36.6155 23.6924C34.2398 23.6924 32.3078 25.6244 32.3078 28.0001C32.3078 28.7873 32.5362 29.5175 32.9077 30.1539H27.4003C27.7718 29.5175 28.0002 28.7873 28.0002 28.0001C28.0002 25.6244 26.0682 23.6924 23.6925 23.6924C21.3168 23.6924 19.3848 25.6244 19.3848 28.0001C19.3848 30.3758 21.3168 32.3078 23.6925 32.3078H36.6155C38.9912 32.3078 40.9232 30.3758 40.9232 28.0001C40.9232 25.6244 38.9912 23.6924 36.6155 23.6924Z" fill="white"/>
<mask id="mask0_2971_53132" style="mask-type:alpha" maskUnits="userSpaceOnUse" x="19" y="23" width="22" height="10">
<path fill-rule="evenodd" clip-rule="evenodd" d="M36.6155 30.1539C35.4277 30.1539 34.4617 29.1879 34.4617 28.0001C34.4617 26.8122 35.4277 25.8462 36.6155 25.8462C37.8034 25.8462 38.7694 26.8122 38.7694 28.0001C38.7694 29.1879 37.8034 30.1539 36.6155 30.1539ZM21.5386 28.0001C21.5386 26.8122 22.5046 25.8462 23.6925 25.8462C24.8803 25.8462 25.8463 26.8122 25.8463 28.0001C25.8463 29.1879 24.8803 30.1539 23.6925 30.1539C22.5046 30.1539 21.5386 29.1879 21.5386 28.0001ZM36.6155 23.6924C34.2398 23.6924 32.3078 25.6244 32.3078 28.0001C32.3078 28.7873 32.5362 29.5175 32.9077 30.1539H27.4003C27.7718 29.5175 28.0002 28.7873 28.0002 28.0001C28.0002 25.6244 26.0682 23.6924 23.6925 23.6924C21.3168 23.6924 19.3848 25.6244 19.3848 28.0001C19.3848 30.3758 21.3168 32.3078 23.6925 32.3078H36.6155C38.9912 32.3078 40.9232 30.3758 40.9232 28.0001C40.9232 25.6244 38.9912 23.6924 36.6155 23.6924Z" fill="white"/>
</mask>
<g mask="url(#mask0_2971_53132)">
<rect x="17.2305" y="15.0769" width="25.8462" height="25.8462" fill="white"/>
</g>
<circle cx="28" cy="28" r="28" fill="white"/>
<g clip-path="url(#clip0_2971_53132)">
<path d="M40.5644 21.5833L30.3336 31.814L24.949 26.4294L16.8721 34.5063" stroke="#80C6FF" stroke-width="3" stroke-linecap="round" stroke-linejoin="round"/>
<path d="M34.1025 21.5833H40.5641V28.0448" stroke="#80C6FF" stroke-width="3" stroke-linecap="round" stroke-linejoin="round"/>
</g>
<g clip-path="url(#clip1_2971_53132)">
<path d="M39.1288 21.5833L28.8981 31.814L23.5134 26.4294L15.4365 34.5063" stroke="#0D51D9" stroke-width="3" stroke-linecap="round" stroke-linejoin="round"/>
<path d="M32.667 21.5833H39.1285V28.0448" stroke="#0D51D9" stroke-width="3" stroke-linecap="round" stroke-linejoin="round"/>
</g>
<defs>
<clipPath id="clip0_2971_53132">
<rect width="25.8462" height="25.8462" fill="white" transform="translate(15.7949 15.1218)"/>
</clipPath>
<clipPath id="clip1_2971_53132">
<rect width="25.8462" height="25.8462" fill="white" transform="translate(14.3594 15.1218)"/>
</clipPath>
</defs>
</svg>
