<?xml version="1.0" encoding="utf-8"?>
<!-- Generator: Adobe Illustrator 25.2.1, SVG Export Plug-In . SVG Version: 6.00 Build 0)  -->
<svg version="1.1" id="Layer_1" xmlns="http://www.w3.org/2000/svg" xmlns:xlink="http://www.w3.org/1999/xlink" x="0px" y="0px"
	 width="78px" height="78px" viewBox="0 0 78 78" style="enable-background:new 0 0 78 78;" xml:space="preserve">
<style type="text/css">
	.st0{fill:#F5F5F5;stroke:#E4E4E4;}
	.st1{fill:#FFFFFF;}
	.st2{fill:#3A3A3A;}
	.st3{fill:#D46D39;}
	.st4{fill:none;}
	.st5{clip-path:url(#SVGID_2_);}
	.st6{fill:#36C5F0;}
	.st7{fill:#2EB67D;}
	.st8{fill:#ECB22E;}
	.st9{fill:#E01E5A;}
</style>
<circle class="st0" cx="39" cy="39" r="38.5"/>
<g>
	<path class="st1" d="M26.3,51.3c-0.1,0-0.3,0-0.4-0.1c-0.2-0.1-0.4-0.4-0.4-0.6l0-4.4h-4.8c-3,0-4.2-1.2-4.2-4.2V30.9
		c0-3,1.2-4.2,4.2-4.2h36.8c3.3,0,3.9,1.5,3.9,4.2V42c0,3-1.2,4.2-4.2,4.2H36.8l-10.2,5.1C26.5,51.3,26.4,51.3,26.3,51.3z"/>
	<path class="st2" d="M26.3,51.3c-0.1,0-0.3,0-0.4-0.1c-0.2-0.1-0.4-0.4-0.4-0.6l0-4.4h-4.8c-3,0-4.2-1.2-4.2-4.2V30.9
		c0-3,1.2-4.2,4.2-4.2h36.8c3.3,0,3.9,1.5,3.9,4.2V42c0,3-1.2,4.2-4.2,4.2H36.8l-10.2,5.1C26.5,51.3,26.4,51.3,26.3,51.3z
		 M20.7,28.1c-2.2,0-2.7,0.6-2.7,2.7V42c0,2.2,0.6,2.7,2.7,2.7h5.5c0.2,0,0.4,0.1,0.5,0.2c0.1,0.1,0.2,0.3,0.2,0.5v4l9.3-4.6
		c0.1,0,0.2-0.1,0.3-0.1h20.7c2.2,0,2.7-0.6,2.7-2.7V30.9c0-1.2-0.1-1.9-0.5-2.2c-0.2-0.2-0.6-0.5-2-0.5H20.7z"/>
	<path class="st2" d="M23.9,39.1h-2.7v-6.7c-0.3,0-0.5-0.1-0.8-0.1c-0.2,0-0.5,0-0.8,0.1v8.2h4.3c0-0.1,0-0.2,0-0.4
		c0-0.1,0-0.2,0-0.4c0-0.1,0-0.2,0-0.3C24,39.4,23.9,39.3,23.9,39.1z M23.9,35.3c0,0.1,0,0.2,0,0.3c0,0.1,0,0.2,0,0.3h0.7v4.6
		c0.3,0,0.5,0.1,0.7,0.1c0.2,0,0.5,0,0.8-0.1v-5.8h-2.2C23.9,34.9,23.9,35.1,23.9,35.3z M24.8,33.7c0.1,0,0.3,0,0.4,0
		c0.1,0,0.2,0,0.4,0c0.1,0,0.3,0,0.4,0c0-0.1,0-0.2,0-0.4c0-0.1,0-0.2,0-0.4c0-0.1,0-0.2,0-0.4c0-0.1,0-0.2,0-0.4
		c-0.1,0-0.2,0-0.4,0c-0.1,0-0.3,0-0.4,0c-0.1,0-0.2,0-0.4,0c-0.1,0-0.3,0-0.4,0c0,0.3-0.1,0.5-0.1,0.8c0,0.2,0,0.5,0.1,0.8
		C24.6,33.7,24.7,33.7,24.8,33.7z M31.7,34.6c-0.1,0-0.3,0-0.4,0c-0.1,0-0.3,0-0.4,0c-0.1,0-0.3,0-0.4,0l-1.2,4.4l-1.2-4.4
		c-0.1,0-0.2,0-0.4-0.1c-0.1,0-0.3,0-0.4,0c-0.1,0-0.2,0-0.4,0c-0.1,0-0.3,0-0.5,0.1l2.1,5.9c0.1,0,0.2,0,0.4,0.1c0.1,0,0.3,0,0.4,0
		c0.1,0,0.2,0,0.4,0c0.1,0,0.3,0,0.4,0l2.1-5.9C32,34.7,31.8,34.6,31.7,34.6z M37.1,36.3c-0.1-0.4-0.3-0.6-0.5-0.9
		c-0.2-0.2-0.5-0.4-0.8-0.6c-0.3-0.1-0.6-0.2-1-0.2c-0.5,0-0.9,0.1-1.2,0.2c-0.3,0.2-0.6,0.4-0.9,0.7c-0.2,0.3-0.4,0.6-0.5,1
		c-0.1,0.4-0.2,0.8-0.2,1.2c0,0.4,0.1,0.9,0.2,1.2c0.1,0.4,0.3,0.7,0.5,1c0.2,0.3,0.5,0.5,0.9,0.6c0.4,0.1,0.8,0.2,1.4,0.2
		c0.7,0,1.4-0.1,1.9-0.3c0-0.2,0-0.5-0.1-0.7c-0.1-0.2-0.1-0.4-0.2-0.5c-0.2,0.1-0.5,0.2-0.7,0.2c-0.2,0-0.5,0.1-0.7,0.1
		c-0.5,0-0.8-0.1-1.1-0.3c-0.3-0.2-0.4-0.5-0.5-1h3.6c0-0.1,0-0.2,0-0.3c0-0.1,0-0.3,0-0.4C37.3,37,37.2,36.6,37.1,36.3z M33.6,37
		c0-0.4,0.1-0.7,0.3-0.9c0.2-0.2,0.5-0.3,0.8-0.3c0.3,0,0.6,0.1,0.7,0.3c0.2,0.2,0.3,0.5,0.3,0.9H33.6z"/>
	<path class="st3" d="M43,39c-0.2,0.1-0.5,0.1-0.7,0.2c-0.2,0-0.4,0.1-0.7,0.1c-1.5,0-2.3-0.9-2.3-2.8c0-0.9,0.2-1.6,0.6-2.1
		c0.4-0.5,0.9-0.7,1.6-0.7c0.3,0,0.5,0,0.7,0.1c0.2,0,0.4,0.1,0.7,0.2c0.1-0.2,0.2-0.4,0.2-0.6c0.1-0.2,0.1-0.4,0.1-0.7
		c-0.3-0.1-0.7-0.2-1-0.3c-0.3,0-0.6-0.1-1-0.1c-0.6,0-1.1,0.1-1.6,0.3c-0.5,0.2-0.9,0.5-1.2,0.9c-0.3,0.4-0.6,0.8-0.7,1.4
		c-0.2,0.5-0.2,1.1-0.2,1.7c0,0.6,0.1,1.2,0.2,1.7c0.2,0.5,0.4,1,0.7,1.3c0.3,0.4,0.7,0.7,1.2,0.9c0.5,0.2,1,0.3,1.6,0.3
		c0.4,0,0.7,0,1-0.1c0.3,0,0.6-0.1,1-0.3c0-0.2-0.1-0.5-0.1-0.7C43.2,39.4,43.1,39.2,43,39z M47,34.6c-0.2,0-0.4,0-0.6,0.1
		c-0.2,0.1-0.3,0.1-0.5,0.2c-0.1,0.1-0.2,0.2-0.3,0.3c-0.1,0.1-0.1,0.2-0.2,0.2v-3.1c-0.1,0-0.3,0-0.4,0c-0.1,0-0.2,0-0.4,0
		c-0.1,0-0.2,0-0.4,0c-0.1,0-0.2,0-0.4,0v8.3c0.1,0,0.3,0,0.4,0c0.1,0,0.2,0,0.4,0s0.2,0,0.4,0c0.1,0,0.3,0,0.4,0v-3.1
		c0-0.3,0-0.6,0.1-0.8c0.1-0.2,0.2-0.4,0.3-0.5c0.1-0.1,0.2-0.2,0.4-0.2s0.2-0.1,0.4-0.1c0.3,0,0.5,0.1,0.6,0.3
		c0.1,0.2,0.2,0.5,0.2,0.9v3.3c0.1,0,0.3,0,0.4,0c0.1,0,0.2,0,0.4,0s0.2,0,0.4,0c0.1,0,0.3,0,0.4,0v-3.7c0-0.8-0.2-1.4-0.5-1.7
		C48.1,34.7,47.6,34.6,47,34.6z M51.6,34.6c-0.3,0-0.6,0-0.9,0.1s-0.6,0.1-1,0.2c0,0.2,0,0.5,0.1,0.6c0,0.2,0.1,0.4,0.2,0.6
		c0.4-0.2,0.9-0.2,1.2-0.2c0.2,0,0.4,0,0.5,0c0.1,0,0.3,0.1,0.4,0.1c0.1,0.1,0.2,0.1,0.2,0.3c0.1,0.1,0.1,0.3,0.1,0.4v0.1
		c-0.2,0-0.5,0-0.7,0c-0.3,0-0.6,0-0.9,0.1c-0.3,0.1-0.6,0.2-0.8,0.3c-0.2,0.1-0.4,0.4-0.6,0.6c-0.1,0.2-0.2,0.5-0.2,0.9
		c0,0.4,0.1,0.7,0.2,0.9c0.1,0.2,0.3,0.5,0.5,0.6c0.2,0.2,0.5,0.3,0.8,0.3c0.3,0.1,0.6,0.1,1,0.1c0.5,0,0.9,0,1.2-0.1
		c0.4-0.1,0.7-0.1,0.9-0.2v-3.4c0-0.8-0.2-1.4-0.6-1.8C52.9,34.7,52.4,34.6,51.6,34.6z M52.5,39.4c-0.1,0-0.2,0-0.3,0
		c-0.1,0-0.2,0-0.3,0c-0.1,0-0.2,0-0.3,0c-0.1,0-0.2,0-0.4-0.1c-0.1,0-0.2-0.1-0.3-0.2c-0.1-0.1-0.1-0.2-0.1-0.5
		c0-0.3,0.1-0.5,0.3-0.6c0.2-0.1,0.5-0.2,0.9-0.2c0.1,0,0.2,0,0.3,0c0.1,0,0.2,0,0.3,0V39.4z M58,39.7c0-0.1-0.1-0.3-0.1-0.5
		c-0.1,0-0.2,0-0.3,0c-0.1,0-0.2,0-0.3,0c-0.1,0-0.2,0-0.4,0c-0.1,0-0.2-0.1-0.2-0.2c-0.1-0.1-0.1-0.2-0.2-0.3
		c0-0.1-0.1-0.3-0.1-0.6v-2.3h1.3c0-0.1,0-0.2,0-0.3c0-0.1,0-0.2,0-0.3c0-0.1,0-0.2,0-0.3c0-0.1,0-0.2,0-0.3h-1.3V33h-0.2l-2,2.7
		l0.1,0.2h0.7v2.7c0,0.7,0.2,1.2,0.5,1.6c0.4,0.3,0.9,0.5,1.5,0.5c0.4,0,0.7,0,1-0.1c0-0.1,0-0.1,0-0.2c0-0.1,0-0.1,0-0.2
		C58,40,58,39.9,58,39.7z"/>
</g>
</svg>
