<?xml version="1.0" encoding="utf-8"?>
<!-- Generator: Adobe Illustrator 25.2.1, SVG Export Plug-In . SVG Version: 6.00 Build 0)  -->
<svg version="1.1" id="Layer_1" xmlns="http://www.w3.org/2000/svg" xmlns:xlink="http://www.w3.org/1999/xlink" x="0px" y="0px"
	 width="78px" height="78px" viewBox="0 0 78 78" style="enable-background:new 0 0 78 78;" xml:space="preserve">
<style type="text/css">
	.st0{fill:#F5F5F5;stroke:#E4E4E4;}
	.st1{fill:#FFFFFF;}
	.st2{fill:#3A3A3A;}
	.st3{fill:#D46D39;}
	.st4{clip-path:url(#SVGID_2_);}
	.st5{fill:#664F44;}
	.st6{fill:#90694C;}
	.st7{fill:#FCE9CD;}
	.st8{fill:#E9B784;}
	.st9{fill:#F2D2AC;}
	.st10{fill:#132134;}
	.st11{fill:#2F83C1;}
	.st12{fill:#4D9ED7;}
	.st13{fill:#FFD250;}
	.st14{fill:none;}
	.st15{clip-path:url(#SVGID_4_);}
	.st16{fill:#36C5F0;}
	.st17{fill:#2EB67D;}
	.st18{fill:#ECB22E;}
	.st19{fill:#E01E5A;}
</style>
<circle class="st0" cx="39" cy="39" r="38.5"/>
<g>
	<g>
		<defs>
			<rect id="SVGID_1_" x="22.1" y="21" width="33.8" height="36"/>
		</defs>
		<clipPath id="SVGID_2_">
			<use xlink:href="#SVGID_1_"  style="overflow:visible;"/>
		</clipPath>
		<g class="st4">
			<path class="st5" d="M25.6,47L25.6,47L25.6,47z M24.7,45.6L24.7,45.6L24.7,45.6z M55.8,45.4c0-0.1,0-0.1,0-0.2c0,0,0-0.1,0-0.1
				c0-0.1-0.1-0.2-0.1-0.2c-0.1-0.1-0.2-0.3-0.3-0.4c-0.1-0.1-0.3-0.2-0.4-0.2c-0.1-0.1-0.3-0.1-0.4-0.1h-0.1
				c0.1-0.7-0.2-1.2-0.3-1.4c0,0,0,0,0,0c0.1-0.2,0.3-0.4,0.4-0.5l0,0c0.1-0.2,0.1-0.3,0.2-0.4c0-0.1,0-0.2,0-0.3v-0.1v-0.1
				c0,0,0-0.1,0-0.1c0-0.2-0.1-0.5-0.3-0.8c-0.1-0.1-0.2-0.3-0.3-0.4c-0.1-0.1-0.3-0.2-0.5-0.3c0,0,0,0,0,0
				c-0.5-0.5-0.9-0.9-1.4-1.2c-0.2-0.1-0.4-0.3-0.6-0.4s-0.3-0.2-0.4-0.2c-0.2-0.1-0.3-0.2-0.4-0.2c-0.1-0.1-0.3-0.1-0.3-0.2
				c-0.1,0-0.1-0.1-0.1-0.1s0,0,0,0c0,0,0-0.1,0-0.2c0-0.1,0-0.4-0.1-0.6c0-0.5-0.1-1.1-0.1-1.9c0-0.3,0-0.5-0.1-0.8
				c-0.1-0.4-0.2-0.7-0.3-1c0-0.1-0.1-0.1-0.1-0.2c0,0,0-0.1-0.1-0.1c0,0,0-0.1-0.1-0.1c0,0,0,0,0-0.1c0-0.1-0.1-0.1-0.1-0.2l0,0
				l0,0l0,0c-0.1-0.1-0.2-0.2-0.3-0.3c-0.1-0.2-0.2-0.5-0.3-0.8c-0.1-0.3-0.3-0.6-0.6-0.9c-0.1-0.1-0.2-0.2-0.3-0.3l0,0
				c0,0,0.9-1.2,1.5-2.7c1.2-2.7,0.5-4.2-0.3-5l0,0l0,0c-0.8-0.7-1.7-1-2.8-1c-2.3,0-4.7,1.4-5.4,1.8l-1.4-1.2
				c-0.1-0.1-0.3-0.2-0.4-0.3c-0.1-0.1-0.3-0.1-0.5-0.2c-0.3-0.1-0.6-0.1-1-0.1c-0.7,0-1.5,0.2-2.3,0.5c-1.2,0.5-2.5,1.3-3.9,2.3
				c-1.4,1-2.7,2.4-4.1,3.9c-1.6,1.9-2.9,3.8-3.8,5.6c-0.4,0.9-0.8,1.7-1,2.5c-0.2,0.8-0.4,1.5-0.4,2.2c0,0.5,0.1,0.9,0.2,1.4
				c0.1,0.2,0.1,0.3,0.2,0.5c0.1,0.2,0.3,0.4,0.5,0.5l1.5,1.2l0.2,0.1v0c0,0,0,0.1,0,0.1l0,0.1c0,0,0,0.1,0,0.1l0,0.1
				c0,0,0,0.1,0,0.1l0,0.1c0,0,0,0.1,0,0.1c0,0,0,0.1,0,0.1c0,0,0,0.1,0,0.1c0,0,0,0.1,0,0.1v0c0,0,0,0,0,0.1c0,0,0,0.1,0,0.1
				c0,0,0,0.1,0,0.1v0.6c0,0.1,0,0.1,0,0.2v0.2c0,0,0,0.1,0,0.1c0,0,0,0.1,0,0.1v0c0,0,0,0.1,0,0.1c0,0,0,0.1,0,0.1c0,0,0,0,0,0.1
				c0,0,0,0,0,0c0,0,0,0.1,0,0.1c0,0,0,0.1,0,0.1c0,0,0,0,0,0c0,0,0,0.1,0,0.1c0,0,0,0.1,0,0.1c0,0,0,0,0,0c0,0,0,0,0,0.1l0,0
				c0,0,0,0.1,0,0.1c0,0,0,0,0,0c0,0,0,0.1,0,0.1l0,0c0,0,0,0,0,0l0,0l0,0l0,0c0,0,0,0,0,0l0,0c0,0,0,0,0,0.1c0,0,0,0.1,0,0.1v0
				c0,0,0,0,0,0c0,0,0,0.1,0,0.1c0,0,0,0.1,0.1,0.1l0,0c0,0,0,0,0,0.1l0,0c0,0,0,0,0,0c0,0,0,0,0,0.1l0,0c0,0,0,0,0,0.1c0,0,0,0,0,0
				c0,0,0,0.1,0.1,0.1l0,0c0,0,0,0,0,0c0,0,0,0,0,0c0,0,0,0,0.1,0.1l0,0c0,0,0,0,0,0c0,0,0,0,0,0.1c0,0,0,0,0.1,0.1l0,0l0,0
				c0,0,0,0,0,0.1s0,0,0.1,0.1l0,0l0.1,0.1l0.1,0.1l0,0l0.1,0.1l0,0l0,0c0,0,0.1,0,0.1,0.1l0,0l0,0c0,0,0.1,0.1,0.1,0.1c0,0,0,0,0,0
				c0,0,0,0,0,0l0,0c0,0,0.1,0.1,0.1,0.1h0c0,0,0,0,0,0c0,0,0.1,0.1,0.1,0.1l0,0l0,0l0,0c0,0,0.1,0,0.1,0.1h0c0,0,0,0,0,0h0
				c0,0,0,0,0,0c0,0,0.1,0,0.1,0.1l0,0l0,0l0,0c0,0,0.1,0,0.1,0.1c0,0,0,0,0.1,0l0,0l0,0h0c0.1,0,0.1,0,0.2,0.1l0,0
				c0.1,0,0.1,0,0.2,0.1h0l0,0c0,0,0.1,0,0.1,0c0,0,0,0,0,0s0,0,0.1,0h0c0,0,0.1,0,0.1,0h0c0,0,0.1,0,0.1,0h0c0,0,0,0,0,0h0
				c0,0,0.1,0,0.1,0h0c0.1,0,0.1,0,0.2,0h0c0.1,0,0.1,0,0.2,0h0.1c0.1,0,0.1,0,0.2,0h0.2c0,0,0,0,0,0c0.1,0.3,0.3,0.5,0.4,0.8
				c2.3,4.5,7.5,7.5,12.9,7.5s10.8-4.2,12.5-9.3c0.1-0.2,0.1-0.4,0.2-0.6c0.2-0.3,0.3-0.5,0.4-0.8C55.9,46,55.9,45.7,55.8,45.4z
				 M53.6,53.9c-0.1,0.1-0.3,0.2-0.4,0.2s-0.3-0.1-0.4-0.2c-0.1-0.1-0.2-0.3-0.2-0.4c0-0.2,0.1-0.3,0.2-0.4c0.1-0.1,0.3-0.2,0.4-0.2
				c0.2,0,0.3,0.1,0.4,0.2c0.1,0.1,0.2,0.3,0.2,0.4C53.8,53.6,53.8,53.8,53.6,53.9z M52.8,53.1c-0.1,0.1-0.1,0.2-0.1,0.3
				c0,0.1,0,0.3,0.1,0.4c0.1,0.1,0.2,0.1,0.4,0.1s0.3,0,0.4-0.1c0.1-0.1,0.1-0.2,0.1-0.4c0-0.1,0-0.3-0.1-0.3
				C53.5,53,53.3,53,53.2,53C53.1,53,52.9,53,52.8,53.1z M53.4,53.8c-0.1,0-0.1,0.1-0.2,0.1c-0.1,0-0.2,0-0.2-0.1
				c-0.1-0.1-0.1-0.2-0.1-0.3c0-0.1,0-0.2,0.1-0.3c0.1-0.1,0.1-0.1,0.2-0.1c0.1,0,0.1,0,0.2,0c0.1,0,0.1,0.1,0.1,0.2h-0.2
				c0,0,0-0.1-0.1-0.1c0,0-0.1,0-0.1,0c0,0-0.1,0-0.1,0.1c0,0,0,0.1,0,0.2c0,0.1,0,0.1,0,0.2c0,0,0.1,0.1,0.1,0.1c0,0,0.1,0,0.1,0
				l0-0.1h0.1C53.5,53.7,53.4,53.7,53.4,53.8z"/>
			<path class="st6" d="M55,45.6c0,0,0-0.2-0.1-0.4l0,0l0,0l0,0c0,0-0.1,0-0.1-0.1c0,0,0,0-0.1,0c-0.1,0-0.1,0-0.2,0
				c-0.1,0-0.1,0-0.2,0c0,0-0.1,0-0.1,0h0c0,0,0,0,0,0c0,0,0,0,0,0.1c0,0,0,0,0,0c0,0,0,0.1,0.1,0.2c0,0,0,0,0,0v0
				c0,0.1-0.1,0.3-0.3,0.7c0,0.1-0.1,0.1-0.1,0.2c-0.6,0.8-2.1,2.1-5.3,3.1c-1.1,0.3-2.1,0.4-3,0.4c-1.3,0-2.3-0.3-2.9-0.8l-0.1-0.1
				c0,0-0.1-0.1-0.1-0.1c0,0,0,0,0,0c-0.2-0.3-0.4-0.7-0.4-1c0-0.4,0-0.9,0.2-1.2c0.2-0.3,0.4-0.5,0.7-0.6c0.1-0.1,0.3-0.1,0.5-0.1
				h0.6c0.6,0,1.6,0,2.8-0.2c2.1-0.4,4.9-1.4,7.2-4v0c0-0.2-0.1-0.5-0.4-0.8c0,0-0.1-0.1-0.2-0.1c0,0-0.1,0-0.1-0.1c0,0-0.1,0-0.1,0
				c0,0-0.1,0-0.1-0.1v0c0,0,0,0-0.1-0.1c-0.8-0.9-1.8-1.4-2.2-1.6c-0.2-0.1-0.3-0.1-0.3-0.1c-0.9-0.4-1-0.5-1.1-1.8
				c0-0.5-0.1-1.1-0.1-1.9c0-0.1,0-0.2,0-0.3c0,0,0,0,0-0.1c0-0.1,0-0.2,0-0.3v-0.1c0-0.1,0-0.1,0-0.2c0,0,0-0.1,0-0.1
				c0-0.1,0-0.1-0.1-0.2c0,0,0-0.1,0-0.1c0,0,0-0.1,0-0.1c0,0,0-0.1,0-0.1c0,0,0-0.1,0-0.1c0,0,0,0,0,0c0,0,0,0,0,0v0l0,0l0-0.1v0
				l0,0l0,0c0-0.1-0.1-0.1-0.1-0.1l0,0c0,0-0.1-0.1-0.1-0.1l0,0l0,0c0,0-0.1-0.1-0.1-0.1l0,0c0,0-0.1-0.1-0.1-0.1v-0.1l0,0v0
				c0-0.1,0-0.1-0.1-0.2c0,0,0,0,0-0.1v0c0,0,0,0,0-0.1c0-0.1,0-0.1-0.1-0.2c0,0,0,0,0-0.1c0,0,0-0.1-0.1-0.1c0,0,0,0,0-0.1
				c0,0,0-0.1-0.1-0.1l0-0.1c0,0,0-0.1-0.1-0.1c0,0,0-0.1-0.1-0.1c0,0-0.1-0.1-0.1-0.1c0,0,0-0.1-0.1-0.1c0,0-0.1-0.1-0.1-0.1
				l-0.1-0.1c0,0,0,0-0.1,0c0,0-0.1-0.1-0.1-0.1l0,0c-0.1,0-0.1-0.1-0.2-0.1l0,0c0,0-0.1,0-0.1-0.1h0c0,0-0.1,0-0.1,0h0
				c0,0-0.1,0-0.1-0.1c0,0,0,0-0.1,0c-0.1,0-0.3-0.1-0.5-0.1h0c-0.2,0-0.4,0-0.6,0H45c-0.2,0-0.3,0-0.5,0h0c-0.2,0-0.4,0.1-0.6,0.1
				c0-0.1,0.1-0.2,0.3-0.3c0.1-0.1,0.3-0.2,0.3-0.2c-0.1,0-0.2,0-0.3,0.1c0,0-0.1,0-0.1,0c0,0,0,0-0.1,0h0c0,0,0,0,0,0
				c-0.4,0.1-0.8,0.4-1.1,0.5l-0.1,0l0,0c0,0,0,0-0.1,0c0.1-0.3,0.4-0.5,0.6-0.7c0,0,0.1,0,0.1-0.1c0,0,0,0,0,0c0,0,0,0,0.1,0
				c0,0,0.1,0,0.1,0c0,0,0,0-0.1,0c0,0,0,0-0.1,0c0,0-0.1,0-0.1,0c0,0,0,0,0,0c-0.5,0.1-0.9,0.3-1.3,0.6c-0.2,0.2-0.5,0.4-0.6,0.5
				c0,0-0.1,0-0.2,0.1c-0.5,0.2-1.1,0.4-1.8,0.7c-0.2,0.1-0.5,0.2-0.7,0.3c-0.2,0.1-0.4,0.2-0.6,0.3c-0.1,0.1-0.3,0.1-0.4,0.2
				c-0.9,0.6-1.9,1.3-2.6,2.2c0,0-0.1,0.1-0.1,0.1c-0.1,0.1-0.1,0.2-0.2,0.2c0,0,0,0.1-0.1,0.1L34.9,35c-0.1,0.2-0.3,0.4-0.4,0.6
				c-0.1,0.2-0.2,0.3-0.2,0.5l0,0c-0.1,0.3-0.3,0.7-0.4,1.1c0,0.2-0.1,0.4-0.1,0.6c0,0.1,0,0.1,0,0.2v0c0,0.2,0,0.5,0,0.7v0.1
				c0,0.1,0,0.2,0,0.4c0,0.1,0,0.2,0,0.3v0c0,0.1,0,0.1,0,0.2s0,0.1,0,0.2v0c0,0.1,0,0.3,0.1,0.4v0c0,0.1,0,0.3,0.1,0.4
				c0,0.1,0,0.1,0,0.2c0,0,0,0,0,0c0,0,0,0.1,0,0.1c0,0.1,0.1,0.3,0.1,0.4c0,0,0,0.1,0,0.1c0,0.1,0.1,0.3,0.1,0.4c0,0,0-0.2-0.1-0.4
				v-0.2c0-0.1,0-0.3,0-0.5c0,0,0-0.1,0-0.1c0,0,0,0,0-0.1c0-0.1,0-0.2,0.1-0.2c0,0.1,0,0.1,0.1,0.2v0c0,0,0,0.1,0,0.1
				c0,0.1,0,0.2,0,0.3c0,0.1,0,0.2,0,0.3c0.1,0.5,0.2,1.1,0.4,1.6c0,0-0.1-0.9,0-1c0,0,0.5,1.6,0.8,2.2c0,0.1,0.1,0.1,0.1,0.2l0-0.2
				l-0.2-0.9v-0.1c0.2,0.4,0.5,0.7,0.8,1.1c0.1,0.1,0.2,0.2,0.2,0.3c-0.4,0.5-0.8,1.1-1,1.8c0,0.1-0.1,0.2-0.1,0.4
				c0,0.1,0,0.1,0,0.2c0,0,0,0,0,0.1c0,0,0,0.1,0,0.1c0,0,0,0.1,0,0.1c0,0,0,0.1,0,0.1c0,0,0,0,0,0.1c0,0.1,0,0.1,0,0.2
				c0,0.1,0,0.1,0,0.2v0.3c0,0.1,0,0.1,0,0.2v0.1c0,0.1,0,0.2,0,0.2v0c0,0.1,0,0.1,0,0.2c0,0.1,0,0.1,0,0.2v0c0,0.1,0,0.1,0.1,0.2
				c0,0,0,0,0,0.1c0,0,0,0.1,0,0.2c0,0,0,0.1,0,0.1c0,0,0,0.1,0,0.1c0,0,0,0.1,0,0.1c0,0,0,0.1,0.1,0.1c0,0,0,0.1,0,0.1
				c0,0,0,0.1,0.1,0.1l0,0.1c0,0,0,0.1,0.1,0.1l0,0.1c0,0.1,0.1,0.1,0.1,0.2c0,0,0,0,0,0.1c0.1,0.1,0.2,0.3,0.3,0.4c0,0,0,0,0,0.1
				c0,0.1,0.1,0.1,0.1,0.2c0,0,0,0.1,0.1,0.1c0,0,0.1,0.1,0.1,0.1c0,0,0,0.1,0.1,0.1c0,0,0.1,0.1,0.1,0.1c0,0,0.1,0.1,0.1,0.1
				c0,0,0.1,0.1,0.1,0.1l0.1,0.1l0.1,0.1l0.1,0.1c0,0,0.1,0.1,0.2,0.1l0.1,0.1c0.1,0.1,0.2,0.1,0.2,0.2c0,0-0.1-0.1-0.1-0.2
				c0,0,0,0,0-0.1c0,0,0,0,0-0.1c0,0,0-0.1-0.1-0.1c-0.1-0.2-0.3-0.6-0.3-1c0,0.1,0.1,0.1,0.1,0.1c0.1,0.1,0.1,0.2,0.2,0.3
				c0,0,0.1,0.1,0.1,0.1c0.1,0.2,0.3,0.4,0.5,0.6c0.2,0.2,0.4,0.5,0.6,0.7c0,0-0.3-0.4-0.4-0.7c0-0.1,0-0.2,0-0.2c0,0,0,0,0.1,0
				c0,0,0,0,0.1,0c0,0,0.1,0.1,0.1,0.2l0,0l0.1,0.1l0.1,0.1c0.4,0.4,0.8,0.8,1.2,1c0.1,0.1,0.2,0.1,0.3,0.2l-0.5-0.7
				c1,0.6,5.1,1.2,8.9-0.4c0.5-0.2,0.9-0.4,1.3-0.7c0.3-0.2,0.5-0.3,0.8-0.5l0,0c0.2-0.1,0.3-0.3,0.5-0.4c0.1-0.1,0.3-0.2,0.4-0.3
				c0.2-0.2,0.4-0.4,0.6-0.6c0,0,0,0,0,0c0.2-0.2,0.4-0.4,0.6-0.7c0.2-0.3,0.4-0.6,0.6-0.9l0,0c0-0.1,0.1-0.1,0.1-0.2l0,0
				c0,0,0,0,0-0.1c0.1-0.1,0.1-0.2,0.2-0.3c0,0,0,0,0-0.1c0-0.1,0-0.1,0.1-0.2c0,0,0-0.1,0.1-0.1c0,0,0-0.1,0.1-0.1
				c0-0.1,0.1-0.2,0.1-0.2c0,0,0-0.1,0-0.1c0-0.1,0-0.1,0.1-0.2c0,0,0-0.1,0-0.1l0,0c0-0.1,0.1-0.2,0.1-0.2v0
				c0.1-0.1,0.2-0.3,0.3-0.4c0,0,0,0,0,0C55,46,55,45.8,55,45.6z M31.4,45.7C31.4,45.7,31.4,45.7,31.4,45.7
				c-0.1-0.3-0.2-0.5-0.2-0.8c0,0,0,0,0-0.1c0,0-0.1,0.1-0.1,0.2c0,0,0,0.1,0,0.1c-0.1,0.3-0.2,0.6-0.2,0.6c0-0.1,0-0.2,0-0.4v0
				v-0.4v0c0-0.1,0-0.3,0-0.4v-0.1v0v-0.1c0-0.1,0-0.2,0-0.3c0-0.1,0-0.2,0-0.2v0v0v0v-0.1v-0.1v-0.1v-0.1c0,0,0-0.1,0-0.1v0v0v-0.1
				l0,0c0,0,0,0-0.1,0.1l0,0c0,0,0,0.1-0.1,0.1l0,0c0,0,0,0.1-0.1,0.1l0,0c0,0,0,0,0,0c0,0,0,0.1,0,0.1v0l0,0.1
				c0,0.1-0.1,0.2-0.1,0.3c0,0,0,0.1,0,0.1c0,0.1,0,0.1,0,0.1v0v0v-0.1c0-0.1,0-0.2,0-0.2v-0.2v-0.1v-0.1v-0.1v-0.1v-0.1v0v0
				c0,0,0-0.1,0-0.1v0c0,0,0-0.1,0-0.1v0c0-0.1,0-0.1,0-0.2v0v0c0-0.1,0-0.2,0.1-0.3v0c0-0.1,0-0.2,0.1-0.3v0c0,0,0-0.1,0-0.1
				c0-0.1,0-0.1,0-0.2v0c0,0,0-0.1,0-0.1c0,0,0,0,0-0.1c0,0,0-0.1,0-0.1l0,0L31,41c0,0,0,0,0-0.1v0l0,0c0-0.1,0-0.1,0.1-0.2l0.1-0.2
				c0.1-0.1,0.1-0.3,0.1-0.3c0,0,0-0.1,0-0.1c0,0-0.1,0-0.2-0.1c-0.1-0.1-0.4-0.2-0.6-0.2c-0.1,0-0.2-0.1-0.3-0.1l-0.3-0.1
				c0,0-0.1,0-0.1,0l-0.3,0c-0.1,0-0.1,0-0.2,0c-0.1,0-0.1,0-0.2,0h-0.2c-0.1,0-0.2,0-0.2,0c0,0-0.1,0-0.1,0c-0.2,0-0.3,0.1-0.5,0.1
				l0,0c-0.3,0.1-0.6,0.2-0.8,0.3c-0.1,0-0.2,0.1-0.2,0.1c0,0,0,0-0.1,0c0,0-0.1,0-0.1,0.1c-0.2,0.2-0.5,0.4-0.7,0.6l0,0
				c-0.2,0.2-0.3,0.4-0.5,0.6c0,0.1-0.1,0.1-0.1,0.2c0,0.1-0.1,0.1-0.1,0.2c-0.1,0.1-0.1,0.3-0.2,0.4c0,0.1,0,0.1-0.1,0.2
				c0,0,0,0,0,0c-0.1,0.4-0.2,0.7-0.2,1.1v0.3c0,0.1,0,0.1,0,0.2s0,0.1,0,0.2v0c0,0.1,0,0.1,0,0.2v0c0,0,0,0,0,0c0,0,0,0.1,0,0.1v0
				c0,0,0,0,0,0.1c0,0,0,0.1,0,0.1c0,0,0,0.1,0,0.1c0,0,0,0.1,0,0.1c0,0,0,0.1,0,0.1l0,0l0,0l0,0l0,0l0,0.1c0,0,0,0.1,0,0.1l0,0.1
				l0.1,0c0,0,0,0,0,0.1c0,0,0,0.1,0.1,0.1l0,0.1c0,0,0,0,0,0c0,0,0,0,0,0c0,0,0,0.1,0,0.1c0,0,0,0.1,0.1,0.1c0,0,0,0,0,0.1
				c0,0,0,0.1,0.1,0.1c0,0,0,0,0.1,0.1c0,0,0.1,0.1,0.1,0.1c0,0,0,0,0.1,0.1l0.1,0.1c0,0,0,0,0,0.1l0.1,0.1l0,0c0,0,0.1,0.1,0.1,0.1
				l0,0c0,0,0.1,0.1,0.1,0.1c0,0,0,0,0,0c0,0,0.1,0.1,0.1,0.1c0,0,0,0,0,0c0,0,0.1,0.1,0.1,0.1c0,0,0,0,0,0c0,0,0.1,0.1,0.1,0.1
				c0,0,0,0,0,0c0,0,0.1,0,0.1,0.1l0,0c0,0,0.1,0,0.1,0.1l0,0c0,0,0.1,0,0.2,0.1l0,0c0.1,0,0.1,0,0.2,0.1l0,0c0.1,0,0.1,0,0.2,0.1h0
				l0.2,0h0l0.2,0h0c0,0,0.1,0,0.1,0c0,0,0.1,0,0.1,0h0c0.1,0,0.1,0,0.2,0c0.1,0,0.1,0,0.2,0c0.2,0,0.4,0,0.6,0c0,0,0.1,0,0.1,0
				c0.1,0,0.1,0,0.2,0c0.1,0,0.2,0,0.3-0.1c0.1,0,0.2,0,0.2-0.1c0.1,0,0.2-0.1,0.4-0.1c0.4-0.2,0.7-0.3,0.8-0.5c0,0-0.2-0.5-0.4-1.1
				C31.5,45.8,31.4,45.7,31.4,45.7z"/>
			<path class="st7" d="M55,45.6c0,0,0-0.2-0.1-0.4l0,0l0,0l0,0c0,0-0.1,0-0.1-0.1c0,0,0,0-0.1,0c-0.1,0-0.1,0-0.2,0
				c-0.1,0-0.1,0-0.2,0c0,0-0.1,0-0.1,0h0c0,0,0,0,0,0c0,0,0,0,0,0.1c0,0,0,0,0,0c0,0,0,0.1,0.1,0.2c0,0,0,0,0,0v0
				c0,0.1-0.1,0.3-0.3,0.7c0,0.1-0.1,0.1-0.1,0.2c-0.6,0.8-2.1,2.1-5.3,3.1c-1.1,0.3-2.1,0.4-3,0.4c-1.3,0-2.3-0.3-2.9-0.8l-0.1-0.1
				c0,0-0.1-0.1-0.1-0.1c0,0,0,0,0,0c-0.2-0.3-0.4-0.7-0.4-1c0-0.4,0-0.9,0.2-1.2c0.2-0.3,0.4-0.5,0.7-0.6c0.1-0.1,0.3-0.1,0.5-0.1
				h0.6c0.6,0,1.6,0,2.8-0.2c2.1-0.4,4.9-1.4,7.2-4v0c0-0.2-0.1-0.5-0.4-0.8c0,0-0.1-0.1-0.2-0.1c0,0-0.1,0-0.1-0.1c0,0-0.1,0-0.1,0
				c0,0-0.1,0-0.1-0.1v0c0,0,0,0-0.1-0.1c-0.8-0.9-1.8-1.4-2.2-1.6c-0.2-0.1-0.3-0.1-0.3-0.1c-0.9-0.4-1-0.5-1.1-1.8
				c0-0.5-0.1-1.1-0.1-1.9c0-0.1,0-0.2,0-0.3c0,0,0,0,0-0.1c0-0.1,0-0.2,0-0.3v-0.1c0-0.1,0-0.1,0-0.2c0,0,0-0.1,0-0.1
				c0-0.1,0-0.1-0.1-0.2c0,0,0-0.1,0-0.1c0,0,0-0.1,0-0.1c0,0,0-0.1,0-0.1c0,0,0-0.1,0-0.1c0,0,0,0,0,0c0,0,0,0,0,0v0l0,0l0-0.1v0
				l0,0l0,0c0-0.1-0.1-0.1-0.1-0.1l0,0c0,0-0.1-0.1-0.1-0.1l0,0l0,0c0,0-0.1-0.1-0.1-0.1l0,0c0,0-0.1-0.1-0.1-0.1
				c0,0-0.1-0.1-0.1-0.1c0,0-0.1,0-0.1-0.1c0,0,0,0,0,0c0,0-0.1,0-0.1,0c0,0,0,0-0.1,0c0,0-0.1,0-0.1,0h-0.3c0,0,0,0-0.1,0
				c0,0,0,0,0,0l0,0c0,0,0,0,0,0c0,0,0,0,0,0c0,0-0.1,0-0.1,0l0,0c-0.1,0-0.2,0.1-0.2,0.1l0,0c0,0-0.1,0-0.1,0.1l0,0
				c0,0-0.1,0-0.1,0.1l0,0c0,0-0.1,0-0.1,0.1l0,0c0,0-0.1,0-0.1,0.1l0,0c0,0-0.1,0.1-0.1,0.1l0,0c0,0-0.1,0.1-0.1,0.1
				c-0.1,0.1-0.1,0.1-0.2,0.2c-0.1,0-0.1,0.1-0.2,0.1l0,0c-0.1,0-0.1,0.1-0.2,0.1l0,0l-0.2,0.1l0,0c-0.1,0-0.1,0.1-0.2,0.1l0,0
				c-0.1,0-0.1,0.1-0.2,0.1l0,0c-0.1,0-0.1,0.1-0.2,0.1h0c-0.1,0-0.1,0.1-0.2,0.1c-0.1,0-0.3,0.1-0.4,0.1c-0.2,0-0.4,0-0.7,0
				c-0.1,0-0.1,0-0.2,0H43c-0.2,0-0.4,0-0.6-0.1c-0.1,0-0.2,0-0.2,0c-0.1,0-0.3,0-0.4,0c0,0-0.1,0-0.1,0h-0.1c0,0-0.1,0-0.1,0h-0.2
				c-0.1,0-0.1,0-0.2,0h-0.6c0,0-0.1,0-0.1,0h-0.1c-0.1,0-0.1,0-0.2,0h0c-0.1,0-0.1,0-0.2,0c0,0,0,0-0.1,0c0,0-0.1,0-0.1,0h0
				c0,0,0,0-0.1,0l-0.1,0c0,0,0,0-0.1,0c0,0-0.1,0-0.1,0.1c0,0,0,0-0.1,0c0,0-0.1,0-0.1,0.1c0,0,0,0-0.1,0c-0.1,0-0.1,0.1-0.2,0.1
				c-0.5,0.4-0.9,0.9-1.2,1.4c-0.1,0.2-0.2,0.4-0.3,0.6c-0.1,0.2-0.2,0.4-0.2,0.6c0,0.1,0,0.1,0,0.2c0,0.1,0,0.2-0.1,0.3v0
				c0,0.1,0,0.2,0,0.4c0,0.1,0,0.3,0,0.4v0.2c0,0.2,0,0.4,0.1,0.5c0,0,0,0,0,0c0,0,0,0.1,0,0.1c0,0.1,0.1,0.3,0.1,0.4
				c0,0,0,0.1,0.1,0.1l0,0.1c0.1,0.3,0.3,0.6,0.5,0.8c0.7,0.9,1.8,1.4,2.5,1.7c0.3,0.1,0.6,0.2,0.9,0.2l0,0c-0.1,0-0.1,0-0.2,0.1
				c-0.1,0-0.2,0.1-0.3,0.2c-0.1,0.1-0.3,0.1-0.5,0.2c-0.4,0.2-0.9,0.6-1.3,1c-0.1,0.1-0.1,0.1-0.2,0.2c-0.1,0.1-0.2,0.2-0.2,0.3
				c0,0,0,0,0,0c0,0,0,0,0,0l-0.1,0.1c0,0,0,0,0,0.1c0,0.1-0.1,0.1-0.1,0.2c0,0.1-0.1,0.1-0.1,0.2c-0.2,0.5-0.3,1.1-0.2,1.8v0v-0.1
				v-0.1c0,0,0,0,0-0.1c0,0,0-0.1,0-0.1v0c0,0,0-0.1,0-0.1v0c0,0,0-0.1,0-0.1v0c0,0,0-0.1,0-0.1v0c0,0,0-0.1,0-0.1
				c0-0.1,0-0.1,0.1-0.2c0,0,0,0,0-0.1l0,0c0,0,0-0.1,0.1-0.1c0,0,0-0.1,0.1-0.1c0,0,0,0,0,0c0,0,0-0.1,0.1-0.1c0,0,0,0,0,0
				c0,0,0.1-0.1,0.1-0.1c0,0-0.5,1.5,0,2.5v0v0v0v-0.1v-0.1v-0.1v-0.1v0v-0.1c0,0,0-0.1,0-0.1v0c0,0,0-0.1,0-0.1c0,0,0,0,0,0v0
				c0,0,0-0.1,0-0.1c0,0,0-0.1,0-0.1c0,0,0,0,0,0c0,0,0-0.1,0.1-0.1c0,0,0,0.3,0.1,0.8c0,0.1,0,0.1,0,0.2c0,0,0,0.1,0,0.1
				c0,0.3,0.1,0.6,0.1,0.9c0.1,0.5,0.3,1,0.6,1.6c0,0-0.3-0.6-0.1-1.3c0,0.1,0.1,0.1,0.1,0.2c0,0.2,0.1,0.5,0.2,0.7
				c0.1,0.5,0.6,2,1.7,2.9c0,0-0.5-0.4-0.5-1.1c0.1,0.1,0.1,0.2,0.1,0.2c0.2,0.3,0.6,0.9,1.1,1.2c0,0-0.4-0.5-0.3-0.7
				c0,0,1.2,1.1,1.5,1.2l-0.5-0.6l0,0c1.6,0.9,3.6,1,6,0c0.4-0.2,0.8-0.4,1.3-0.6c0.3-0.2,0.5-0.3,0.8-0.5l0,0
				c0.2-0.1,0.3-0.3,0.5-0.4c0.1-0.1,0.3-0.2,0.4-0.3c0.2-0.2,0.4-0.4,0.6-0.6c0,0,0,0,0,0c0.2-0.2,0.4-0.4,0.6-0.7
				c0.2-0.3,0.4-0.6,0.6-0.9l0,0c0-0.1,0.1-0.1,0.1-0.2l0,0c0,0,0,0,0-0.1c0.1-0.1,0.1-0.2,0.2-0.3c0,0,0,0,0-0.1
				c0-0.1,0-0.1,0.1-0.2c0,0,0-0.1,0.1-0.1c0,0,0-0.1,0.1-0.1c0-0.1,0.1-0.2,0.1-0.2c0,0,0-0.1,0-0.1c0-0.1,0-0.1,0.1-0.2
				c0,0,0-0.1,0-0.1l0,0c0-0.1,0.1-0.2,0.1-0.2v0c0.1-0.1,0.2-0.3,0.3-0.4c0,0,0,0,0,0C55,46,55,45.8,55,45.6z M31.2,44.8
				c0,0-0.1,0.1-0.1,0.2c0,0,0,0.1,0,0.1c-0.1,0.3-0.2,0.6-0.2,0.6c0-0.1,0-0.2,0-0.4v0v-0.4v0c0-0.1,0-0.3,0-0.4v-0.1v0v-0.1
				c0-0.1,0-0.2,0-0.3c0-0.1,0-0.2,0-0.2v0v0v0v-0.1v-0.1v-0.1v-0.1c0,0,0-0.1,0-0.1v0v0v-0.1l0,0c0,0,0,0-0.1,0.1l0,0
				c0,0,0,0.1-0.1,0.1l0,0c0,0,0,0.1-0.1,0.1l0,0c0,0,0,0,0,0c0,0,0,0.1,0,0.1v0l0,0.1c0,0.1-0.1,0.2-0.1,0.3c0,0,0,0.1,0,0.1
				c0,0.1,0,0.1,0,0.1v0v0v-0.1c0-0.1,0-0.2,0-0.2v-0.2v-0.1v-0.1v-0.1v-0.1v-0.1v0v0c0,0,0-0.1,0-0.1v0c0,0,0-0.1,0-0.1v0
				c0-0.1,0-0.1,0-0.2v0v0c0-0.1,0-0.2,0.1-0.3v0c0-0.1,0-0.2,0.1-0.3v0c0,0,0-0.1,0-0.1c0-0.1,0-0.1,0-0.2v0c0,0,0-0.1,0-0.1
				c0,0,0,0,0-0.1c0,0,0-0.1,0-0.1l0,0c0,0,0,0-0.1,0h0l0,0c-0.1,0-0.3-0.1-0.4-0.1h0c-0.1,0-0.2,0-0.3,0c-0.1,0-0.1,0-0.2,0
				c0,0-0.1,0-0.1,0l-0.2,0c0,0,0,0-0.1,0c0,0-0.1,0-0.1,0c0,0,0,0,0,0c0,0,0,0-0.1,0c0,0-0.1,0-0.1,0.1c0,0,0,0-0.1,0
				c-0.1,0-0.1,0.1-0.2,0.1c0,0,0,0-0.1,0c0,0-0.1,0-0.1,0.1l0,0c0,0-0.1,0-0.1,0.1c0,0,0,0-0.1,0.1c0,0-0.1,0-0.1,0.1l0,0
				c0,0-0.1,0.1-0.1,0.1c0,0,0,0-0.1,0.1c0,0-0.1,0.1-0.1,0.1l0,0c0,0,0,0.1,0,0.1c0,0,0,0,0,0.1c-0.1,0.1-0.1,0.2-0.2,0.3
				c0,0,0,0,0,0.1l0,0.2c0,0,0,0,0,0.1c0,0.1,0,0.1,0,0.2v0.1c0,0,0,0.1,0,0.1v0.2c0,0.1,0,0.1,0,0.2c0,0.1,0,0.1,0,0.2v0
				c0,0,0,0.1,0,0.1c0,0.1,0.1,0.2,0.1,0.3c0,0.1,0.1,0.2,0.1,0.2c0.1,0.1,0.2,0.3,0.3,0.4c0.2,0.2,0.5,0.4,0.8,0.6
				c0.2,0.1,0.3,0.1,0.5,0.2c0.2,0,0.3,0.1,0.5,0.1h0.1c0.1,0,0.1,0,0.2,0c0.1,0,0.1,0,0.2,0c0,0,0.1,0,0.1,0c0.1,0,0.2,0,0.2-0.1h0
				l0.1,0c0.1,0,0.2-0.1,0.3-0.1l0,0c0,0,0,0,0.1,0C31.3,45.4,31.2,45.1,31.2,44.8C31.2,44.9,31.2,44.8,31.2,44.8z"/>
			<path class="st8" d="M42.2,35.3c-0.1,0-0.2-0.1-0.3-0.1c-0.1,0-0.2,0-0.2,0h-0.1c-0.4,0-0.7,0.1-0.7,0.1c-0.1,0-0.1,0.1-0.2,0.1
				c-0.5,0.2-0.8,0.5-1,0.9c-0.2,0.3-0.3,0.6-0.3,0.8c0,0,0,0,0,0.1c0,0.1,0,0.1,0,0.2c0,0.2,0,0.4,0,0.6c0,0.2,0.1,0.4,0.1,0.4
				c0.1-0.2,0.1-0.4,0.2-0.6c0.2-0.4,0.4-0.8,0.6-1.1c0.5-0.6,0.9-0.9,1.3-1.1C41.9,35.4,42.2,35.3,42.2,35.3z M48.4,33.8L48.4,33.8
				c-0.1-0.1-0.2-0.1-0.2-0.2c-0.2-0.1-0.5-0.1-0.9,0c0,0-0.4,0.2-0.7,0.5c0,0,0.7-0.4,1.6,0.1c0.1,0,0.2,0.1,0.2,0.2
				c0.1,0.1,0.2,0.1,0.3,0.2C48.7,34.5,48.6,34.2,48.4,33.8C48.4,33.9,48.4,33.8,48.4,33.8z M41.1,39C41.1,39,41.1,38.9,41.1,39
				c0.1-0.1,0.1-0.1,0.1-0.1c0,0,0.1,0,0.1-0.1c0,0,0,0,0.1,0c0,0,0.1,0,0.1-0.1c0,0,0,0,0.1,0c0,0,0.1,0,0.1-0.1c0,0,0,0,0.1,0
				c0,0,0.1,0,0.1,0l0.1,0c0,0,0.1,0,0.1,0c0,0,0.1,0,0.1,0c0,0,0.1,0,0.1,0h0c0,0,0.1,0,0.1,0c0,0,0,0,0,0c0,0,0.1,0,0.1,0h0
				c0,0,0.1,0,0.1,0h0.2c0.1,0,0.1,0,0.2,0h0c0.1,0,0.1,0,0.2,0h0c0.1,0,0.1,0,0.1,0h0c0,0,0.1,0,0.1,0c0.1,0,0.1,0,0.1,0.1
				c0,0,0.1,0,0.1,0.1c-0.1-0.3-0.3-0.8-0.9-1c-0.1,0-0.2,0-0.3,0h-0.1c-0.1,0-0.2,0-0.3,0c-1.1,0.2-1.2,1.2-1.2,1.5
				C41,39.1,41,39.1,41.1,39L41.1,39z"/>
			<path class="st1" d="M54,45.1C54,45.1,54,45.1,54,45.1C54,45.1,54,45,54,45.1c-0.1-0.3-0.3-0.5-0.3-0.6c-0.1-0.1-0.2-0.2-0.2-0.2
				c0-0.1,0-0.1,0-0.2c0-0.1,0-0.1,0-0.2c0-0.5-0.2-0.9-0.3-1.1c0,0,0-0.1-0.1-0.1c-0.1,0.1-0.1,0.1-0.2,0.2
				c-1.4,1.2-3.1,2.1-4.9,2.6c-1.3,0.4-2.6,0.5-4.1,0.5h0c0,0-0.8,0.2-1,1.1h0v0.6c0.1,0.7,0.5,1.2,0.9,1.4c0.4,0.1,0.9,0.2,1.5,0.2
				c1,0,2-0.2,3.1-0.5c1.5-0.4,3.4-1.4,4.8-2.6c0.3-0.3,0.6-0.5,0.8-0.8l0,0l0,0C54.1,45.2,54.1,45.2,54,45.1z"/>
			<path class="st9" d="M42.1,38.4c0,0-0.1,0-0.1,0C42,38.4,42.1,38.4,42.1,38.4L42.1,38.4L42.1,38.4z"/>
			<path class="st9" d="M42.4,41.5c0,0,0.1-0.1,0.1-0.1c0,0,0,0,0.1,0c0,0,0.1-0.1,0.1-0.1c0,0,0,0,0.1,0c0,0,0.1-0.1,0.1-0.1
				c0,0,0.1,0,0.1,0c0,0,0.1-0.1,0.1-0.1c0,0,0.1,0,0.1-0.1c0,0,0.1-0.1,0.1-0.1c0,0,0.1,0,0.1-0.1c0,0,0.1-0.1,0.1-0.1
				c0,0,0.1,0,0.1-0.1c0,0,0.1,0,0.1-0.1c0,0,0.1,0,0.1-0.1c0,0,0.1,0,0.1-0.1c0,0,0.1,0,0.1-0.1c0,0,0.1,0,0.1-0.1
				c0.1,0,0.1,0,0.2-0.1c0,0,0.1,0,0.1-0.1c0.1,0,0.1,0,0.2-0.1l0.1,0c0.2-0.6,0.7-2.2,1.9-2.5c0.1,0,0.2-0.1,0.3-0.1
				c0,0,0.1,0,0.1,0c0-0.1,0-0.2-0.1-0.3c-0.1-0.6,0-1.2,0.3-1.2c0.2,0,0.4,0.2,0.5,0.3c0.1,0.2,0.2,0.4,0.2,0.7
				c0,0.2,0.1,0.5,0,0.7l0.1,0.1c0.3,0.3,0.4,0.8,0.5,1.1c0.1,0,0.2,0,0.3-0.1c0,0,0.1,0,0.1,0h0c0,0,0,0,0,0c0.1,0,0.3-0.1,0.4-0.1
				c0.3-0.1,0.6-0.1,1-0.2c-0.2-0.1-0.3-0.1-0.3-0.1c-0.9-0.4-1-0.5-1.1-1.8c0-0.5-0.1-1.1-0.1-1.9c0-0.1,0-0.2,0-0.3c0,0,0,0,0-0.1
				c0-0.1,0-0.2,0-0.3v-0.1c0-0.1,0-0.1,0-0.2c0,0,0-0.1,0-0.1c0-0.1,0-0.1-0.1-0.2c0,0,0-0.1,0-0.1c0,0,0-0.1,0-0.1
				c0,0,0-0.1,0-0.1c-0.1-0.2-0.3-0.3-0.5-0.4l0,0l0,0h0c0,0-0.1,0-0.1,0l-0.1,0c-0.2-0.1-0.5-0.2-0.8-0.2c-0.2,0-0.3,0-0.5,0
				c-0.1,0-0.2,0-0.2,0c-0.2,0-0.4,0.1-0.6,0.2c-0.1,0.1-0.1,0.1-0.2,0.2c-0.1,0-0.1,0.1-0.2,0.1l0,0c-0.1,0-0.1,0.1-0.2,0.1l0,0
				l-0.2,0.1l0,0c-0.1,0-0.1,0.1-0.2,0.1l0,0c-0.1,0-0.1,0.1-0.2,0.1l0,0c-0.1,0-0.1,0.1-0.2,0.1h0c-0.1,0-0.1,0.1-0.2,0.1
				c-0.1,0-0.3,0.1-0.4,0.1c-0.2,0-0.4,0-0.7,0c-0.1,0-0.1,0-0.2,0h-0.1c-0.2,0-0.4,0-0.6-0.1c-0.1,0-0.2,0-0.2,0
				c-0.1,0-0.3,0-0.4,0c0,0-0.1,0-0.1,0c-0.1,0-0.2,0-0.3,0.1h0c-0.3,0.1-0.6,0.2-0.9,0.3c0,0,0,0-0.1,0c0,0-0.1,0-0.1,0.1
				c-0.1,0-0.1,0.1-0.2,0.1c-0.5,0.3-0.9,0.6-1.3,1c-0.2,0.2-0.3,0.3-0.4,0.5c-0.2,0.3-0.4,0.6-0.5,0.8c0,0,0,0,0,0
				c-0.1,0.2-0.1,0.3-0.2,0.5c0,0.1,0,0.1-0.1,0.2v0c-0.1,0.2-0.1,0.4-0.2,0.6v0c0,0,0,0.1,0,0.1l0,0.3c0,0.1,0,0.2,0,0.3v0.1
				c0,0.1,0,0.1,0,0.2c0,0.2,0,0.4,0,0.6c0,0,0,0.1,0,0.1c0.1,0.3,0.3,0.6,0.5,0.8c0.7,0.9,1.8,1.4,2.5,1.7c0.3,0.1,0.6,0.2,0.9,0.2
				l0,0l0,0l0.1-0.1l0,0c0,0,0.1-0.1,0.1-0.1c0,0,0,0,0,0c0,0,0.1-0.1,0.1-0.1c0,0,0,0,0,0c0,0,0.1-0.1,0.1-0.1c0,0,0,0,0,0
				c0,0,0.1-0.1,0.1-0.1c0,0,0,0,0,0c0,0,0.1-0.1,0.1-0.1l0,0c0,0,0.1-0.1,0.1-0.1C42.3,41.5,42.3,41.5,42.4,41.5z M47.2,33.6
				c0.4-0.1,0.7-0.1,0.9,0c0.1,0,0.2,0.1,0.2,0.2l0,0c0,0,0,0,0,0.1c0.2,0.3,0.3,0.6,0.3,0.6c-0.1-0.1-0.2-0.1-0.3-0.2
				c-0.1-0.1-0.2-0.1-0.2-0.2c-0.9-0.5-1.6-0.1-1.6-0.1C46.8,33.8,47.2,33.6,47.2,33.6z M40.1,36.7c-0.2,0.3-0.5,0.7-0.6,1.1
				c-0.1,0.2-0.1,0.4-0.2,0.6c0,0,0-0.1-0.1-0.4c0-0.2,0-0.4,0-0.6c0-0.1,0-0.1,0-0.2c0,0,0,0,0-0.1c0.1-0.3,0.1-0.6,0.3-0.8
				c0.2-0.3,0.6-0.7,1-0.9c0.1,0,0.1-0.1,0.2-0.1c0,0,0.3-0.1,0.7-0.1h0.1c0.1,0,0.2,0,0.2,0c0.1,0,0.2,0,0.3,0.1c0,0-0.3,0-0.7,0.3
				C41.1,35.8,40.6,36.1,40.1,36.7z M40.8,39.6C40.8,39.6,40.7,39.6,40.8,39.6c-0.1,0-0.1-0.2,0.1-0.4c0-0.3,0-1.3,1.2-1.5
				c0.1,0,0.2,0,0.3,0h0.1c0.1,0,0.2,0,0.3,0c0.6,0.1,0.8,0.7,0.9,1c0.2,0.1,0.3,0.2,0.3,0.2c0,0,0,0-0.1,0c0,0-0.2,0-0.3,0.1
				c-0.3,0-0.7,0.1-1.2,0.2c0,0-0.1,0-0.1,0C41.5,39.3,40.9,39.6,40.8,39.6z M42.7,38.3L42.7,38.3L42.7,38.3z M54.5,46.8
				c-0.5,0.5-1,1-1.5,1.3c-0.2,0.2-0.5,0.3-0.8,0.5c-0.6,0.3-1.1,0.6-1.6,0.8c-1.1,0.4-1.8,0.5-1.8,0.5c0.6,0.3,1.4,0.2,1.9,0
				c0.3-0.1,0.6-0.2,0.6-0.2c0,0.2,0,0.4,0,0.6c0,0.2-0.1,0.4-0.1,0.6v0c-0.1,0.2-0.1,0.4-0.2,0.6c0,0,0,0,0,0.1l0,0
				c0.2-0.1,0.3-0.3,0.5-0.4c0.1-0.1,0.3-0.2,0.4-0.3c0.2-0.2,0.4-0.4,0.6-0.6c0,0,0,0,0,0c0.2-0.2,0.4-0.4,0.6-0.7
				c0.2-0.3,0.4-0.6,0.6-0.9l0,0c0-0.1,0.1-0.1,0.1-0.2l0,0c0,0,0,0,0-0.1c0.1-0.1,0.1-0.2,0.2-0.3c0,0,0,0,0-0.1
				c0-0.1,0-0.1,0.1-0.2c0,0,0-0.1,0.1-0.1c0,0,0-0.1,0.1-0.1c0-0.1,0.1-0.2,0.1-0.2c0,0,0-0.1,0-0.1c0-0.1,0-0.1,0.1-0.2
				c0,0,0-0.1,0-0.1l0,0c0-0.1,0.1-0.2,0.1-0.2C54.5,46.8,54.5,46.8,54.5,46.8z M40.6,42.7c-0.1,0.1-0.3,0.1-0.5,0.2
				c-0.4,0.2-0.9,0.6-1.3,1c-0.1,0.1-0.1,0.1-0.2,0.2c-0.1,0.1-0.2,0.2-0.2,0.3c0,0,0,0,0,0c0,0,0,0,0,0l-0.1,0.1c0,0,0,0,0,0.1
				c0,0.1-0.1,0.1-0.1,0.2c0,0.1-0.1,0.1-0.1,0.2c-0.2,0.5-0.3,1.1-0.2,1.8v0v-0.1v-0.1c0,0,0,0,0-0.1c0,0,0-0.1,0-0.1v0
				c0,0,0-0.1,0-0.1v0c0,0,0-0.1,0-0.1v0c0,0,0-0.1,0-0.1v0c0,0,0-0.1,0-0.1c0-0.1,0-0.1,0.1-0.2c0,0,0,0,0-0.1l0,0
				c0,0,0-0.1,0.1-0.1c0,0,0-0.1,0.1-0.1c0,0,0,0,0,0c0,0,0-0.1,0.1-0.1c0,0,0,0,0,0c0,0,0.1-0.1,0.1-0.1c0,0-0.5,1.5,0,2.5v0v0v0
				v-0.1v-0.1v-0.1v-0.1v0v-0.1c0,0,0-0.1,0-0.1v0c0,0,0-0.1,0-0.1c0,0,0,0,0,0v0c0,0,0-0.1,0-0.1c0,0,0-0.1,0-0.1c0,0,0,0,0,0
				c0,0,0-0.1,0.1-0.1c0,0,0,0.3,0.1,0.8c0,0.1,0,0.1,0,0.2c0,0,0,0.1,0,0.1c0-0.4,0-0.9,0.1-1.3c0-0.1,0-0.2,0.1-0.3c0,0,0,0,0,0
				l0.1-0.3c0,0,0,0,0-0.1c0-0.1,0.1-0.2,0.1-0.3c0,0,0,0,0,0c0.1-0.2,0.2-0.4,0.2-0.6c0,0,0,0,0,0c0-0.1,0.1-0.1,0.1-0.2
				c0,0,0,0,0-0.1c0,0,0,0,0,0c0-0.1,0.1-0.2,0.1-0.2c0,0,0,0,0,0c0-0.1,0.1-0.2,0.1-0.2l0.2-0.3l0.1-0.2c0,0,0,0,0-0.1
				c0.1-0.1,0.2-0.3,0.3-0.4c0.3-0.3,0.5-0.5,0.6-0.6c-0.1,0-0.1,0-0.2,0.1C40.8,42.6,40.7,42.6,40.6,42.7z"/>
			<path class="st9" d="M48.5,38.6C48.5,38.6,48.5,38.6,48.5,38.6c-0.1-0.3-0.4-0.7-1.2-0.6c-0.8,0.2-1,0.9-1.1,1.1c0,0,0,0.1,0,0.1
				l0,0c0.1-0.1,0.3-0.1,0.5,0c0.1,0,0.2,0.1,0.2,0.2c0.1,0.1,0.1,0.2,0.1,0.3c0,0,0,0,0,0.1c0,0,0,0,0.1,0c0.2,0,0.9,0.1,1.2-0.4
				c0,0,0,0,0-0.1c-0.1,0-0.1-0.1-0.1-0.2c0-0.1,0-0.1,0-0.2C48.3,38.7,48.4,38.5,48.5,38.6z M45.1,45.2c-0.5,0.2-1,0.3-1.4,0.4h0.1
				c0.6,0,1.6,0,2.8-0.2c2.1-0.4,4.9-1.4,7.2-4v0c0-0.2-0.1-0.5-0.4-0.8c0,0-0.1-0.1-0.2-0.1c0,0,0,0,0,0c-0.1,0-0.1-0.1-0.2-0.1
				c0,0-0.1,0-0.1-0.1v0c-0.1,0.2-0.3,0.5-0.5,0.7c-0.1,0.1-0.1,0.2-0.2,0.2c-0.6,0.7-1.5,1.4-2.4,1.9C48.2,44,46.5,44.7,45.1,45.2z
				 M31,43.2C30.9,43.2,30.9,43.2,31,43.2l-0.1,0.1c0,0,0,0.1-0.1,0.1l0,0c0,0,0,0.1-0.1,0.1l0,0c0,0,0,0,0,0c0,0,0,0.1,0,0.1v0
				l0,0.1c0,0.1-0.1,0.2-0.1,0.3c0,0,0,0.1,0,0.1c0,0.1,0,0.1,0,0.1v0v0v-0.1c0-0.1,0-0.2,0-0.2v-0.2v-0.1v-0.1v-0.1v-0.1v-0.1v0v0
				c0,0,0-0.1,0-0.1v0c0,0,0-0.1,0-0.1v0c0-0.1,0-0.1,0-0.2v0v0c0-0.1,0-0.2,0.1-0.3v0c0-0.1,0-0.2,0.1-0.3v0c0,0,0-0.1,0-0.1
				c0-0.1,0-0.1,0-0.2v0c0,0,0-0.1,0-0.1c0,0,0,0,0-0.1c0,0,0-0.1,0-0.1l0,0c0,0,0,0-0.1,0h0l0,0c-0.1,0-0.3-0.1-0.4-0.1h0
				c-0.1,0-0.2,0-0.3,0c-0.1,0-0.1,0-0.2,0c0,0-0.1,0-0.1,0l-0.2,0c0,0,0,0-0.1,0c0,0-0.1,0-0.1,0c0,0,0,0,0,0c0,0,0,0-0.1,0
				c0,0-0.1,0-0.1,0.1c0,0,0,0-0.1,0c-0.1,0-0.1,0.1-0.2,0.1c0,0,0,0-0.1,0c0,0-0.1,0-0.1,0.1l0,0c0,0-0.1,0-0.1,0.1
				c0,0,0,0-0.1,0.1c0,0-0.1,0-0.1,0.1l0,0c0,0-0.1,0.1-0.1,0.1c0,0,0,0-0.1,0.1c0,0-0.1,0.1-0.1,0.1l0,0c0,0,0,0.1,0,0.1
				c0,0,0,0,0,0.1c-0.1,0.1-0.1,0.2-0.2,0.3c0,0,0,0,0,0.1l0,0.2c0,0,0,0,0,0.1c0,0,0,0,0,0c0,0,0,0.1,0.1,0.1l0,0l0,0
				c0,0,0,0.1,0.1,0.1c0.1,0.1,0.2,0.3,0.2,0.4c0,0,0,0,0,0l0,0.1l0,0c0.1,0.1,0.1,0.1,0.2,0.2c0.1,0.1,0.1,0.2,0.2,0.2l0,0l0,0l0,0
				c0,0,0,0,0-0.1c-0.1-0.2-0.1-0.4-0.1-0.5v0c0-0.1,0-0.2,0-0.3c0,0,0,0.1,0.1,0.1l0.1,0.2l0,0c0.1,0.2,0.2,0.4,0.4,0.6
				c0.1,0.2,0.3,0.3,0.3,0.4c0,0,0,0,0,0l0,0c-0.1-0.2-0.1-0.4-0.1-0.6c0-0.1,0-0.1,0-0.2c0-0.1,0-0.2,0-0.2
				c0.1,0.1,0.1,0.2,0.2,0.4v0c0.2,0.4,0.4,0.7,0.6,0.8l0,0c0,0,0,0.1,0.1,0.1l0,0l0,0l0,0l0,0c0,0,0-0.1,0-0.1
				c0-0.1-0.1-0.2-0.1-0.3c0-0.1,0-0.1,0-0.2c0-0.1,0-0.1,0-0.2v0c0,0,0-0.1,0-0.1v0c0-0.1,0-0.2,0-0.2c0,0,0,0.1,0.1,0.1
				c0,0,0,0.1,0,0.1v0l0,0c0,0,0,0.1,0.1,0.1c0,0.1,0.1,0.1,0.1,0.2c0,0.1,0.1,0.1,0.1,0.2c0,0,0.1,0.1,0.1,0.1c0,0,0.1,0.1,0.1,0.1
				c0,0,0.1,0.1,0.1,0.1l0,0l0.1,0.1l0,0l0.1,0.1l0,0v0V45v0c0-0.1,0-0.3,0-0.4v-0.1v0v-0.1c0-0.1,0-0.2,0-0.3c0-0.1,0-0.2,0-0.2v0
				v0v0v-0.1v-0.1v-0.1v-0.1c0,0,0-0.1,0-0.1v0v0v-0.1L31,43.2z M49.2,47c0.2-0.1,0.4-0.2,0.5-0.2c0.3-0.1,0.4-0.2,0.4-0.3
				c0,0-0.2,0-0.5,0.1c-0.1,0.1-0.3,0.1-0.5,0.2c-0.1,0-0.2,0.1-0.3,0.1c-0.1,0-0.2,0.1-0.4,0.1c-0.2,0.1-0.5,0.1-0.8,0.2
				c-0.1,0-0.3,0.1-0.5,0.1c-0.2,0-0.3,0.1-0.5,0.1c-0.7,0.1-1.5,0.2-2.3,0.1c-0.4,0-1-0.1-1.4-0.3h0c0.1-0.8,1-1.1,1-1.1h-0.7
				c-0.5,0-0.8,0.5-0.8,0.7c0,0,0,0.1,0,0.1c-0.1,0.2-0.1,0.4-0.1,0.6c0,0.4,0.2,0.8,0.5,1.1c0.2,0.2,0.6,0.4,1.1,0.5
				c-0.4-0.2-0.8-0.6-0.9-1.4c0.5,0.1,1,0.2,1.4,0.2c0.8,0,1.6,0,2.4-0.2c0.2,0,0.3-0.1,0.5-0.1c0.2,0,0.3-0.1,0.5-0.1
				c0.3-0.1,0.6-0.2,0.8-0.3c0.1,0,0.2-0.1,0.4-0.1C49,47.1,49.1,47,49.2,47z"/>
			<path class="st5" d="M47.3,37.5c0.4,0,0.7,0.1,1,0.2c0-0.2,0-0.4,0-0.7c0-0.3-0.1-0.5-0.2-0.7c0-0.1-0.2-0.4-0.5-0.3
				c-0.3,0.1-0.4,0.6-0.3,1.2C47.3,37.4,47.3,37.4,47.3,37.5z M42.2,38.8c0.5-0.1,1-0.1,1.3,0c0.1,0,0.3,0,0.3,0c0,0,0.1,0,0.1,0
				c0,0-0.1-0.1-0.3-0.2c0,0-0.1,0-0.1-0.1c0,0-0.1,0-0.1-0.1c0,0-0.1,0-0.1,0h0c0,0-0.1,0-0.1,0h0c0,0-0.1,0-0.2,0h0
				c-0.1,0-0.1,0-0.2,0h-0.2c0,0-0.1,0-0.1,0h0c0,0-0.1,0-0.1,0c0,0,0,0,0,0c0,0-0.1,0-0.1,0h0c0,0-0.1,0-0.1,0c0,0-0.1,0-0.1,0
				c0,0-0.1,0-0.1,0l-0.1,0c0,0-0.1,0-0.1,0c0,0-0.1,0-0.1,0c0,0-0.1,0-0.1,0.1c0,0,0,0-0.1,0c0,0-0.1,0-0.1,0.1c0,0,0,0-0.1,0
				c0,0-0.1,0-0.1,0.1c0,0,0,0,0,0c0,0-0.1,0.1-0.1,0.1l0,0c0,0-0.1,0.1-0.1,0.1c-0.2,0.2-0.3,0.4-0.2,0.4c0,0,0,0,0.1,0
				c0.2-0.1,0.7-0.5,1.4-0.7C42.2,38.8,42.2,38.8,42.2,38.8z M48.2,39.1c0,0.1,0.1,0.2,0.1,0.2c0.1,0,0.2-0.1,0.3-0.3v-0.1
				c0-0.2,0-0.3-0.1-0.4c-0.1,0-0.2,0.1-0.3,0.3C48.2,38.9,48.2,39,48.2,39.1z M46.3,39.6c0.1,0.1,0.1,0.1,0.2,0.2
				c0.2,0.1,0.4,0.1,0.5,0c0,0,0,0,0-0.1c0-0.1,0-0.2-0.1-0.3c-0.1-0.1-0.1-0.1-0.2-0.2c-0.2-0.1-0.4-0.1-0.5,0c0,0,0,0,0,0.1
				C46.2,39.4,46.2,39.5,46.3,39.6z M53.8,41.3L53.8,41.3L53.8,41.3z M54.1,45.3c-0.2,0.3-0.5,0.6-0.8,0.8c-1.4,1.2-3.3,2.2-4.8,2.6
				c-1.1,0.3-2.2,0.5-3.1,0.5c-0.6,0-1.1-0.1-1.5-0.2c-0.5-0.1-0.8-0.3-1.1-0.5c-0.3-0.3-0.5-0.7-0.5-1.1c0-0.2,0-0.4,0.1-0.6
				c0,0,0-0.1,0-0.1c0.1-0.2,0.3-0.7,0.8-0.7h0.7c1.4,0,2.8-0.2,4.1-0.5c1.9-0.5,3.5-1.4,4.9-2.6c0.1-0.1,0.1-0.1,0.2-0.2l0.7-1.4
				c-2.3,2.6-5,3.6-7.2,4c-1.2,0.2-2.2,0.2-2.8,0.2h-0.6c-0.2,0-0.3,0-0.5,0.1c-0.3,0.1-0.5,0.4-0.7,0.6c-0.2,0.3-0.3,0.8-0.2,1.2
				c0,0.4,0.2,0.7,0.4,1c0,0,0,0,0,0c0,0,0.1,0.1,0.1,0.1l0.1,0.1c0.5,0.5,1.5,0.8,2.9,0.8c0.9,0,1.9-0.1,3-0.4
				c3.2-1,4.6-2.2,5.3-3.1l0.1-0.2C54,45.7,54.1,45.4,54.1,45.3L54.1,45.3C54.1,45.3,54.1,45.3,54.1,45.3L54.1,45.3z"/>
			<path class="st10" d="M48.4,22.7c-0.3-0.3-0.6-0.4-1-0.6c-0.1,0-0.1,0-0.2,0c0,0-0.1,0-0.1,0c-0.3-0.1-0.6-0.1-0.9-0.1
				c-1.6,0-3.3,0.8-4.3,1.3c-0.1,0-0.1,0.1-0.2,0.1c-0.1,0-0.2,0.1-0.2,0.1c-0.1,0.1-0.3,0.2-0.4,0.3c0,0,0,0-0.1,0l-0.3-0.3
				l-0.1-0.1l-0.1-0.1l-0.1-0.1l-1.2-1.1L39,22l-0.1-0.1h0L38.6,22l-0.3,0.1C38.1,22,37.8,22,37.6,22c-0.5,0-1.2,0.1-1.9,0.4
				c-0.7,0.3-1.5,0.7-2.4,1.3c-1.7,1.1-3.5,2.7-5.2,4.7c-0.6,0.7-1.1,1.4-1.7,2.1c-0.5,0.7-0.9,1.3-1.3,2c-0.8,1.3-1.4,2.6-1.7,3.7
				c-0.2,0.7-0.3,1.4-0.3,2c0,0.4,0.1,0.7,0.2,1c0,0.1,0.1,0.2,0.1,0.2c0.1,0.2,0.2,0.3,0.3,0.4l1.3,1.1l0.1,0.1v0
				c0,0,0.1-0.1,0.1-0.1l0,0c0,0,0,0,0,0c0,0,0.1-0.1,0.1-0.1c0,0,0,0,0.1-0.1c0,0,0,0,0.1-0.1l0,0c0,0,0,0,0.1-0.1
				c0,0,0.1-0.1,0.1-0.1l0.1-0.1l0,0l0.1-0.1l0.1-0.1c0,0,0.1-0.1,0.1-0.1c0,0,0,0,0.1-0.1c0,0,0.1-0.1,0.1-0.1c0,0,0,0,0.1-0.1
				c0,0,0.1-0.1,0.1-0.1c0,0,0,0,0.1,0l0,0c0,0,0.1,0,0.1-0.1c0,0,0,0,0.1,0c0,0,0.1,0,0.1-0.1l0.1,0l0,0c0.1,0,0.1-0.1,0.2-0.1
				c0,0,0,0,0.1,0c0,0,0,0,0.1,0l0,0c0,0,0,0,0,0l0.1,0l0,0c0,0,0.1,0,0.1,0c0,0,0.1,0,0.1,0l0.1,0c0,0,0,0,0.1,0c0,0,0,0,0.1,0
				c0,0,0.1,0,0.1,0c0,0,0.1,0,0.1,0c0,0,0.1,0,0.1,0c0,0,0,0,0,0c0,0,0,0,0,0h0c0.1,0,0.3,0,0.5,0h0c0.2,0,0.4,0,0.6,0
				c0,0,0.1,0,0.1,0c0,0,0,0,0-0.1l0.3-0.6c0.5-1.2,1.1-2.2,1.7-3.1c0.2-0.3,0.4-0.6,0.6-0.9c0.9-1.2,1.8-2.1,2.7-2.8
				c0.2-0.2,0.4-0.3,0.6-0.5c0.2-0.2,0.5-0.4,0.7-0.5c0.2-0.1,0.4-0.3,0.5-0.4c0.3-0.2,0.6-0.3,0.8-0.5c0.1,0,0.1-0.1,0.2-0.1
				c0.1-0.1,0.2-0.1,0.3-0.1c-0.1,0-0.2,0-0.2,0c-0.1,0-0.1,0-0.2,0h-0.1c-0.1,0-0.2,0-0.2,0c-0.1,0-0.3,0.1-0.5,0.1
				c-0.1,0-0.1,0-0.2,0c0.4-0.2,0.7-0.4,1.1-0.6c0.2-0.1,0.5-0.2,0.7-0.3c0.3-0.1,0.6-0.2,0.9-0.2c0.2,0,0.4-0.1,0.5-0.1
				c0.2,0,0.3,0,0.5,0c0.5,0,0.8,0,0.8,0c-0.1-0.1-0.2-0.2-0.3-0.2c-0.2-0.1-0.4-0.2-0.6-0.2c-0.1,0-0.1,0-0.2,0c0,0-0.1,0-0.1,0
				c0.1,0,0.2,0,0.2-0.1c0.1,0,0.2,0,0.2-0.1c0.7-0.1,1.3-0.2,1.7-0.1c0.6,0,0.9,0.1,0.9,0.1c-0.1-0.1-0.2-0.3-0.4-0.3
				c-0.1-0.1-0.2-0.1-0.3-0.2c0.2,0,0.4,0,0.5,0.1c0.5,0.1,0.8,0.2,1.1,0.3c0.1,0,0.2,0.1,0.3,0.1c0,0,0,0,0.1,0
				c0.3,0.1,0.4,0.2,0.4,0.2c-0.1-0.1-0.2-0.3-0.3-0.4l-0.1-0.1h0c0,0,0,0,0.1,0c0,0,0,0,0.1,0c0.1,0,0.3,0.1,0.5,0.2c0,0,0,0,0,0
				c0,0,0.1,0,0.1,0c0.1,0,0.2,0.1,0.2,0.1c0.1,0,0.1,0.1,0.2,0.1c0,0,0.1,0,0.1,0.1c0.1,0,0.2,0.1,0.3,0.2c0.1,0.1,0.2,0.1,0.3,0.2
				l0,0c0.1,0,0.1,0.1,0.2,0.2c0.1,0.1,0.2,0.2,0.3,0.3c0.1,0.1,0.2,0.3,0.3,0.5c0,0,0,0,0,0c0-0.1,0.1-0.1,0.2-0.3
				C48,27.9,50.1,24.4,48.4,22.7z"/>
			<path class="st11" d="M38.1,23.4L38,22.8l0.2-0.7l0.1,0C38.1,22,37.9,22,37.6,22c-0.5,0-1.2,0.1-1.9,0.4
				c-0.7,0.3-1.5,0.7-2.4,1.3c-1.7,1.1-3.5,2.7-5.3,4.6c-0.6,0.7-1.1,1.4-1.7,2.1c-0.5,0.7-0.9,1.3-1.3,2c-0.8,1.3-1.4,2.6-1.7,3.7
				c-0.2,0.7-0.3,1.4-0.3,2c0,0.4,0.1,0.7,0.2,1c0,0.1,0.1,0.2,0.1,0.2c0.1,0.2,0.2,0.3,0.3,0.4l1.3,1.1l0.1,0.1v0
				c0,0,0.1-0.1,0.1-0.1l0,0c0,0,0,0,0,0c0,0,0.1-0.1,0.1-0.1c0,0,0,0,0.1-0.1c0,0,0,0,0.1-0.1l0,0c0,0,0,0,0.1-0.1
				c0,0,0.1-0.1,0.1-0.1l0.1-0.1l0,0l0.1-0.1l0.1-0.1c0,0,0.1-0.1,0.1-0.1c0,0,0,0,0.1-0.1c0,0,0.1-0.1,0.1-0.1c0,0,0,0,0.1-0.1
				c0,0,0.1-0.1,0.1-0.1c0,0,0,0,0.1,0l0,0c0.2-0.8,0.5-1.7,0.9-2.6c0.5-1.1,1.3-2.4,2.1-3.6c0.6-0.8,1.2-1.6,1.8-2.3
				c0.9-1,1.8-1.9,2.7-2.7c0.6-0.5,1.2-1,1.8-1.5l0.2-0.1c0.2-0.1,0.3-0.2,0.5-0.3c0.3-0.2,0.7-0.4,1-0.6l-0.2-0.2l0,0L37,25.4
				l-1.4-1.3l-0.1-1l0,0l0.8-0.3L38.1,23.4z"/>
			<path class="st12" d="M38.5,23.5L38.5,23.5L38.5,23.5z"/>
			<path class="st13" d="M38.9,21.9l-0.8,0.3l0.3,1.4l-2.2-0.8l-0.8,0.3l0,0l2.9,2.5l0,0l0,0l0.2-0.2c0,0,0,0,0.1-0.1
				c0.1-0.1,0.2-0.2,0.3-0.2L37.8,24l1.8,0.6c0,0,0.1-0.1,0.1-0.1l-0.3-1.2l0.9,0.8h0c0.1,0,0.1-0.1,0.2-0.1l0,0l0,0c0,0,0,0,0,0
				c0,0,0.1,0,0.1-0.1c0,0,0,0,0,0c0.1-0.1,0.2-0.1,0.3-0.2L38.9,21.9z"/>
			<path class="st12" d="M38.2,22.2L38.2,22.2L38.2,22.2z M38.2,22.1l0.1,0C38.1,22,37.8,22,37.6,22c-0.5,0-1.2,0.1-1.9,0.4
				c-0.7,0.3-1.5,0.7-2.4,1.3c-1.7,1.1-3.5,2.7-5.2,4.7c-0.6,0.7-1.1,1.4-1.7,2.1l2.7,2.6c0.6-0.8,1.2-1.5,1.8-2.3
				c0.9-1,1.8-1.9,2.7-2.7c0.9-0.8,1.8-1.5,2.6-2l-0.6-1.8l-0.1-1l0,0l0.8-0.3l1.8,0.6l-0.1-0.6L38.2,22.1z"/>
			<path class="st10" d="M38.2,22.1L38,22.8l0.1,0.6l0.4,0.2L38.2,22.1z M37.8,24l1.8,0.6L39,25.1L37.8,24z M39.5,23.3l0.3,1.2
				l0.6-0.4L39.5,23.3z"/>
			<path class="st1" d="M45.9,22.1l0.3,0c0.3,0,0.6,0,0.8,0h0.1c0,0-0.1,0-0.1,0c-0.3-0.1-0.6-0.1-0.9-0.1c-1.6,0-3.3,0.8-4.3,1.3
				c-0.1,0-0.1,0.1-0.2,0.1c-0.1,0-0.2,0.1-0.2,0.1c-0.1,0.1-0.3,0.2-0.4,0.3c0,0,0,0-0.1,0c-0.1,0.1-0.2,0.1-0.3,0.2c0,0,0,0,0,0
				c0,0-0.1,0-0.1,0.1c0,0,0,0,0,0l0,0l0,0c-0.1,0-0.1,0.1-0.2,0.1h0c0,0,0,0,0,0h0c0,0,0,0,0,0c-0.1,0.1-0.2,0.1-0.3,0.2
				c-0.1,0-0.1,0.1-0.2,0.1l0,0c0,0-0.1,0.1-0.1,0.1c-0.2,0.1-0.3,0.2-0.5,0.3c0,0,0,0,0,0c0,0,0,0,0,0c0,0,0,0,0,0l0,0
				c-0.1,0.1-0.2,0.2-0.3,0.2c0,0-0.1,0-0.1,0.1l-0.2,0.2l0,0l0,0c-0.2,0.2-0.4,0.3-0.6,0.5c-0.3,0.3-0.6,0.6-1,0.9
				c0,0-0.1,0.1-0.1,0.1c-0.8,0.8-1.6,1.6-2.4,2.5c-0.8,0.9-1.5,1.8-2.2,2.7c-0.4,0.5-0.7,0.9-1,1.3c-0.5,0.7-0.8,1.2-0.8,1.2
				c0,0,0.1,0,0.1-0.2c-0.1,0.1-0.1,0.2-0.2,0.3c1.1-1.6,2.5-3.1,3.9-4.7c0.9-0.9,1.8-1.8,2.7-2.7c0.4-0.4,0.8-0.7,1.3-1.1
				c0.1-0.1,0.3-0.2,0.4-0.3c0.1-0.1,0.1-0.1,0.2-0.2c0,0,0.1-0.1,0.1-0.1l0.2-0.2c0.1-0.1,0.1-0.1,0.2-0.2c0,0,0.1-0.1,0.1-0.1
				c0.1-0.1,0.2-0.1,0.3-0.2c0.1,0,0.1-0.1,0.2-0.1c0.2-0.1,0.4-0.2,0.5-0.4c0,0,0,0,0,0c0,0,0.1,0,0.1-0.1c0,0,0.1,0,0.1-0.1
				c0,0,0,0,0,0c0,0,0,0,0.1,0c0,0,0,0,0,0h0c0.1,0,0.2-0.1,0.2-0.1c0,0,0,0,0,0c0,0,0,0,0.1,0c0.1-0.1,0.2-0.1,0.3-0.2
				c0,0,0,0,0.1,0c0,0,0,0,0,0c0,0,0,0,0.1,0c0.1-0.1,0.2-0.1,0.3-0.2c0.1-0.1,0.2-0.1,0.3-0.2c0.5-0.3,1-0.5,1.5-0.7
				C44.5,22.5,45.3,22.2,45.9,22.1z"/>
		</g>
	</g>
</g>
</svg>
