<?xml version="1.0" encoding="utf-8"?>
<!-- Generator: Adobe Illustrator 25.2.1, SVG Export Plug-In . SVG Version: 6.00 Build 0)  -->
<svg version="1.1" id="Layer_1" xmlns="http://www.w3.org/2000/svg" xmlns:xlink="http://www.w3.org/1999/xlink" x="0px" y="0px"
	 width="78px" height="78px" viewBox="0 0 78 78" style="enable-background:new 0 0 78 78;" xml:space="preserve">
<style type="text/css">
	.st0{fill:#F5F5F5;stroke:#E4E4E4;}
	.st1{fill:none;stroke:#BBC9E3;stroke-width:3;stroke-linecap:round;stroke-linejoin:round;}
	.st2{fill:none;stroke:#0D51D9;stroke-width:3;stroke-linecap:round;stroke-linejoin:round;}
</style>
<g>
	<circle class="st0" cx="39" cy="39" r="38.5"/>
</g>
<g>
	<path class="st1" d="M53.5,36C53.5,46.5,40,55.5,40,55.5s-13.5-9-13.5-19.5c0-3.6,1.4-7,4-9.5c2.5-2.5,6-4,9.5-4s7,1.4,9.5,4
		C52.1,29,53.5,32.4,53.5,36z"/>
	<path class="st1" d="M40,40.5c2.5,0,4.5-2,4.5-4.5s-2-4.5-4.5-4.5s-4.5,2-4.5,4.5S37.5,40.5,40,40.5z"/>
	<path class="st2" d="M51.5,36C51.5,46.5,38,55.5,38,55.5s-13.5-9-13.5-19.5c0-3.6,1.4-7,4-9.5s6-4,9.5-4s7,1.4,9.5,4
		C50.1,29,51.5,32.4,51.5,36z"/>
	<path class="st2" d="M38,40.5c2.5,0,4.5-2,4.5-4.5s-2-4.5-4.5-4.5s-4.5,2-4.5,4.5S35.5,40.5,38,40.5z"/>
</g>
</svg>
