<?xml version="1.0" encoding="utf-8"?>
<!-- Generator: Adobe Illustrator 25.2.1, SVG Export Plug-In . SVG Version: 6.00 Build 0)  -->
<svg version="1.1" id="Layer_1" xmlns="http://www.w3.org/2000/svg" xmlns:xlink="http://www.w3.org/1999/xlink" x="0px" y="0px"
	 width="78px" height="78px" viewBox="0 0 78 78" style="enable-background:new 0 0 78 78;" xml:space="preserve">
<style type="text/css">
	.st0{fill:#F5F5F5;stroke:#E4E4E4;}
	.st1{fill:none;stroke:#BBC9E3;stroke-width:3;stroke-linecap:round;stroke-linejoin:round;}
	.st2{fill:none;stroke:#0D51D9;stroke-width:3;stroke-linecap:round;stroke-linejoin:round;}
</style>
<circle class="st0" cx="39" cy="39" r="38.5"/>
<g>
	<path class="st1" d="M53.8,44.8c-1,2.3-2.4,4.2-4.3,5.8c-1.9,1.5-4.2,2.6-6.6,3.1c-2.4,0.5-4.9,0.4-7.2-0.3c-2.3-0.7-4.5-2-6.2-3.7
		c-1.7-1.7-3-3.8-3.8-6.2c-0.7-2.3-0.9-4.8-0.4-7.2c0.4-2.4,1.5-4.7,3-6.6c1.5-1.9,3.5-3.4,5.7-4.4"/>
	<path class="st1" d="M55,39c0-2-0.4-3.9-1.1-5.7c-0.8-1.8-1.9-3.5-3.3-4.9c-1.4-1.4-3-2.5-4.9-3.3C43.9,24.4,42,24,40,24v15H55z"/>
	<path class="st2" d="M51.8,44.8c-1,2.3-2.4,4.2-4.3,5.8c-1.9,1.5-4.2,2.6-6.6,3.1c-2.4,0.5-4.9,0.4-7.2-0.3c-2.3-0.7-4.5-2-6.2-3.7
		c-1.7-1.7-3-3.8-3.8-6.2c-0.7-2.3-0.9-4.8-0.4-7.2c0.4-2.4,1.5-4.7,3-6.6c1.5-1.9,3.5-3.4,5.7-4.4"/>
	<path class="st2" d="M53,39c0-2-0.4-3.9-1.1-5.7c-0.8-1.8-1.9-3.5-3.3-4.9c-1.4-1.4-3-2.5-4.9-3.3C41.9,24.4,40,24,38,24v15H53z"/>
</g>
</svg>
