<?xml version="1.0" encoding="utf-8"?>
<!-- Generator: Adobe Illustrator 25.2.1, SVG Export Plug-In . SVG Version: 6.00 Build 0)  -->
<svg version="1.1" id="Layer_1" xmlns="http://www.w3.org/2000/svg" xmlns:xlink="http://www.w3.org/1999/xlink" x="0px" y="0px"
	 width="78px" height="78px" viewBox="0 0 78 78" style="enable-background:new 0 0 78 78;" xml:space="preserve">
<style type="text/css">
	.st0{fill:#F5F5F5;stroke:#E4E4E4;}
	.st1{fill:none;stroke:#BBC9E3;stroke-width:3;stroke-linecap:round;stroke-linejoin:round;}
	.st2{fill:none;stroke:#0D51D9;stroke-width:3;stroke-linecap:round;stroke-linejoin:round;}
</style>
<circle class="st0" cx="39" cy="39" r="38.5"/>
<g>
	<path class="st1" d="M40,54c8.3,0,15-6.7,15-15c0-8.3-6.7-15-15-15s-15,6.7-15,15C25,47.3,31.7,54,40,54z"/>
	<path class="st1" d="M40,45l6-6l-6-6"/>
	<path class="st1" d="M34,39h12"/>
	<path class="st2" d="M38,54c8.3,0,15-6.7,15-15c0-8.3-6.7-15-15-15c-8.3,0-15,6.7-15,15C23,47.3,29.7,54,38,54z"/>
	<path class="st2" d="M38,45l6-6l-6-6"/>
	<path class="st2" d="M32,39h12"/>
</g>
</svg>
