<?xml version="1.0" encoding="utf-8"?>
<!-- Generator: Adobe Illustrator 25.2.1, SVG Export Plug-In . SVG Version: 6.00 Build 0)  -->
<svg version="1.1" id="Layer_1" xmlns="http://www.w3.org/2000/svg" xmlns:xlink="http://www.w3.org/1999/xlink" x="0px" y="0px"
	 width="49px" height="49px" viewBox="0 0 49 49" style="enable-background:new 0 0 49 49;" xml:space="preserve">
<style type="text/css">
	.st0{clip-path:url(#SVGID_2_);fill:#7879F1;}
	.st1{fill-rule:evenodd;clip-rule:evenodd;fill:#FFFFFF;}
	.st2{fill-rule:evenodd;clip-rule:evenodd;fill:#231F20;}
	.st3{fill-rule:evenodd;clip-rule:evenodd;fill:#FFFFFF;filter:url(#Adobe_OpacityMaskFilter);}
	.st4{mask:url(#mask0_2377_47130_1_);}
	.st5{fill:#FFFFFF;}
</style>
<g>
	<g>
		<defs>
			<rect id="SVGID_1_" width="49" height="49"/>
		</defs>
		<clipPath id="SVGID_2_">
			<use xlink:href="#SVGID_1_"  style="overflow:visible;"/>
		</clipPath>
		<circle class="st0" cx="24.5" cy="24.5" r="24.5"/>
	</g>
</g>
<g>
	<path id="Mask_2_3_" class="st1" d="M24.5,16.6l-7,3.9v0.1c0,4.7,2.6,9.1,6.7,11.5l0.3,0.2l0.3-0.2c4.1-2.3,6.7-6.7,6.7-11.5v-0.1
		L24.5,16.6z M24.5,34.4c-0.3,0-0.7-0.1-1-0.3l-0.3-0.2c-4.8-2.7-7.7-7.7-7.7-13.2v-0.1c0-0.7,0.4-1.4,1-1.7l7-3.9
		c0.6-0.3,1.4-0.3,2,0l7,3.9c0.6,0.4,1,1,1,1.7v0.1c0,5.5-3,10.5-7.7,13.2l-0.3,0.2C25.2,34.3,24.8,34.4,24.5,34.4z"/>
	<g id="Icon_x2F_Outline_x2F_shield_1_">
		<path id="Mask_1_" class="st2" d="M24.5,16.6l-7,3.9v0.1c0,4.7,2.6,9.1,6.7,11.5l0.3,0.2l0.3-0.2c4.1-2.3,6.7-6.7,6.7-11.5v-0.1
			L24.5,16.6z M24.5,34.4c-0.3,0-0.7-0.1-1-0.3l-0.3-0.2c-4.8-2.7-7.7-7.7-7.7-13.2v-0.1c0-0.7,0.4-1.4,1-1.7l7-3.9
			c0.6-0.3,1.4-0.3,2,0l7,3.9c0.6,0.4,1,1,1,1.7v0.1c0,5.5-3,10.5-7.7,13.2l-0.3,0.2C25.2,34.3,24.8,34.4,24.5,34.4z"/>
		<defs>
			<filter id="Adobe_OpacityMaskFilter" filterUnits="userSpaceOnUse" x="12.5" y="12.5" width="24" height="24">
				<feColorMatrix  type="matrix" values="1 0 0 0 0  0 1 0 0 0  0 0 1 0 0  0 0 0 1 0"/>
			</filter>
		</defs>
		<mask maskUnits="userSpaceOnUse" x="12.5" y="12.5" width="24" height="24" id="mask0_2377_47130_1_">
			<path id="Mask_2_1_" class="st3" d="M24.5,16.6l-7,3.9v0.1c0,4.7,2.6,9.1,6.7,11.5l0.3,0.2l0.3-0.2c4.1-2.3,6.7-6.7,6.7-11.5
				v-0.1L24.5,16.6z M24.5,34.4c-0.3,0-0.7-0.1-1-0.3l-0.3-0.2c-4.8-2.7-7.7-7.7-7.7-13.2v-0.1c0-0.7,0.4-1.4,1-1.7l7-3.9
				c0.6-0.3,1.4-0.3,2,0l7,3.9c0.6,0.4,1,1,1,1.7v0.1c0,5.5-3,10.5-7.7,13.2l-0.3,0.2C25.2,34.3,24.8,34.4,24.5,34.4z"/>
		</mask>
		<g class="st4">
			<g id="รฐ_x9F__x8E__xA8__Color_1_">
				<rect id="Base_1_" x="12.5" y="12.5" class="st5" width="24" height="24"/>
			</g>
		</g>
	</g>
</g>
</svg>
