<?xml version="1.0" encoding="utf-8"?>
<!-- Generator: Adobe Illustrator 25.2.1, SVG Export Plug-In . SVG Version: 6.00 Build 0)  -->
<svg version="1.1" id="Layer_1" xmlns="http://www.w3.org/2000/svg" xmlns:xlink="http://www.w3.org/1999/xlink" x="0px" y="0px"
	 width="78px" height="78px" viewBox="0 0 78 78" style="enable-background:new 0 0 78 78;" xml:space="preserve">
<style type="text/css">
	.st0{fill:#F5F5F5;stroke:#E4E4E4;}
	.st1{fill:none;stroke:#BBC9E3;stroke-width:2.3971;stroke-linecap:round;stroke-miterlimit:10;}
	.st2{fill:none;stroke:#0D51D9;stroke-width:2.3971;stroke-linecap:round;stroke-miterlimit:10;}
</style>
<g>
	<circle class="st0" cx="39" cy="39" r="38.5"/>
</g>
<g>
	<g>
		<path class="st1" d="M-117,14.8c2-2.9,5.3-4.8,9-4.8c6,0,10.9,4.9,10.9,10.9s-4.9,10.9-10.9,10.9c-4.5,0-8.4-2.7-10-6.6"/>
		<polyline class="st1" points="-112,15.5 -118.1,17 -119.6,10.8 		"/>
	</g>
</g>
<g>
	<g>
		<path class="st2" d="M-105.7,30.7c2-2.9,5.3-4.8,9-4.8c6,0,10.9,4.9,10.9,10.9s-4.9,10.9-10.9,10.9c-4.5,0-8.4-2.7-10-6.6"/>
		<polyline class="st2" points="-100.7,31.5 -106.9,33 -108.3,26.8 		"/>
	</g>
</g>
<g>
	<ellipse class="st1" cx="40" cy="31" rx="11.4" ry="2"/>
	<path class="st1" d="M51.4,39c0,1.1-5.1,2-11.4,2s-11.4-0.9-11.4-2"/>
	<path class="st1" d="M51.4,47c0,1.1-5.1,2-11.4,2s-11.4-0.9-11.4-2"/>
	<line class="st1" x1="28.6" y1="31" x2="28.6" y2="47"/>
	<line class="st1" x1="51.4" y1="31" x2="51.4" y2="47"/>
</g>
<g>
	<ellipse class="st2" cx="38" cy="31" rx="11.4" ry="2"/>
	<path class="st2" d="M49.4,39c0,1.1-5.1,2-11.4,2s-11.4-0.9-11.4-2"/>
	<path class="st2" d="M49.4,47c0,1.1-5.1,2-11.4,2s-11.4-0.9-11.4-2"/>
	<line class="st2" x1="26.6" y1="31" x2="26.6" y2="47"/>
	<line class="st2" x1="49.4" y1="31" x2="49.4" y2="47"/>
</g>
</svg>
