<?xml version="1.0" encoding="utf-8"?>
<!-- Generator: Adobe Illustrator 25.2.1, SVG Export Plug-In . SVG Version: 6.00 Build 0)  -->
<svg version="1.1" id="Layer_1" xmlns="http://www.w3.org/2000/svg" xmlns:xlink="http://www.w3.org/1999/xlink" x="0px" y="0px"
	 width="50px" height="49px" viewBox="0 0 50 49" style="enable-background:new 0 0 50 49;" xml:space="preserve">
<style type="text/css">
	.st0{fill:#EF5DA8;}
	.st1{fill:none;stroke:#F5F5F5;stroke-width:2;stroke-linecap:round;stroke-linejoin:round;}
</style>
<ellipse class="st0" cx="24.5" cy="24.5" rx="24.5" ry="24.5"/>
<g>
	<path class="st1" d="M25,34.5c5.5,0,10-4.5,10-10c0-5.5-4.5-10-10-10c-5.5,0-10,4.5-10,10C15,30,19.5,34.5,25,34.5z"/>
	<path class="st1" d="M25,30.5c3.3,0,6-2.7,6-6c0-3.3-2.7-6-6-6c-3.3,0-6,2.7-6,6C19,27.8,21.7,30.5,25,30.5z"/>
	<path class="st1" d="M25,26.5c1.1,0,2-0.9,2-2s-0.9-2-2-2s-2,0.9-2,2S23.9,26.5,25,26.5z"/>
</g>
</svg>
