<?xml version="1.0" encoding="utf-8"?>
<!-- Generator: Adobe Illustrator 25.2.1, SVG Export Plug-In . SVG Version: 6.00 Build 0)  -->
<svg version="1.1" id="Layer_1" xmlns="http://www.w3.org/2000/svg" xmlns:xlink="http://www.w3.org/1999/xlink" x="0px" y="0px"
	 width="78px" height="78px" viewBox="0 0 78 78" style="enable-background:new 0 0 78 78;" xml:space="preserve">
<style type="text/css">
	.st0{fill:#F5F5F5;stroke:#E4E4E4;}
	.st1{fill:none;stroke:#BBC9E3;stroke-width:3;stroke-linecap:round;stroke-linejoin:round;}
	.st2{fill:none;stroke:#0D51D9;stroke-width:3;stroke-linecap:round;stroke-linejoin:round;}
</style>
<circle class="st0" cx="39" cy="39" r="38.5"/>
<g>
	<path class="st1" d="M50.5,25.5h-21c-1.7,0-3,1.3-3,3v21c0,1.7,1.3,3,3,3h21c1.7,0,3-1.3,3-3v-21C53.5,26.8,52.2,25.5,50.5,25.5z"
		/>
	<path class="st1" d="M37,31.5h-4.5V45H37V31.5z"/>
	<path class="st1" d="M47.5,31.5H43V39h4.5V31.5z"/>
	<path class="st2" d="M48.5,25.5h-21c-1.7,0-3,1.3-3,3v21c0,1.7,1.3,3,3,3h21c1.7,0,3-1.3,3-3v-21C51.5,26.8,50.2,25.5,48.5,25.5z"
		/>
	<path class="st2" d="M35,31.5h-4.5V45H35V31.5z"/>
	<path class="st2" d="M45.5,31.5H41V39h4.5V31.5z"/>
</g>
</svg>
