<svg width="34" height="34" viewBox="0 0 34 34" fill="none" xmlns="http://www.w3.org/2000/svg">
<path d="M9.91683 31.1666H5.66683C4.91538 31.1666 4.19471 30.8681 3.66336 30.3367C3.13201 29.8054 2.8335 29.0847 2.8335 28.3333V18.4166C2.8335 17.6651 3.13201 16.9445 3.66336 16.4131C4.19471 15.8818 4.91538 15.5833 5.66683 15.5833H9.91683M19.8335 12.7499V7.08325C19.8335 5.95608 19.3857 4.87508 18.5887 4.07805C17.7917 3.28102 16.7107 2.83325 15.5835 2.83325L9.91683 15.5833V31.1666H25.8968C26.5801 31.1743 27.2432 30.9348 27.7639 30.4923C28.2845 30.0497 28.6277 29.4339 28.7302 28.7583L30.6852 16.0083C30.7468 15.6022 30.7194 15.1875 30.6049 14.7931C30.4904 14.3987 30.2915 14.0338 30.022 13.7239C29.7524 13.414 29.4188 13.1663 29.0441 12.9981C28.6693 12.83 28.2625 12.7453 27.8518 12.7499H19.8335Z" stroke="#F5F5F5" stroke-width="2" stroke-linecap="round" stroke-linejoin="round"/>
</svg>
