<?xml version="1.0" encoding="utf-8"?>
<!-- Generator: Adobe Illustrator 25.2.1, SVG Export Plug-In . SVG Version: 6.00 Build 0)  -->
<svg version="1.1" id="Layer_1" xmlns="http://www.w3.org/2000/svg" xmlns:xlink="http://www.w3.org/1999/xlink" x="0px" y="0px"
	 width="49px" height="49px" viewBox="0 0 49 49" style="enable-background:new 0 0 49 49;" xml:space="preserve">
<style type="text/css">
	.st0{fill:#4F4F4F;}
	.st1{display:none;}
	.st2{display:inline;fill:none;stroke:#F5F5F5;stroke-width:2;stroke-linecap:round;stroke-linejoin:round;}
	.st3{fill:none;stroke:#F5F5F5;stroke-width:2;stroke-linecap:round;stroke-linejoin:round;}
</style>
<circle class="st0" cx="24.5" cy="24.5" r="24.5"/>
<g class="st1">
	<path class="st2" d="M73.8,10.2l-8.5,14.1c-0.2,0.3-0.3,0.6-0.3,1c0,0.3,0.1,0.7,0.3,1s0.4,0.6,0.7,0.7c0.3,0.2,0.6,0.3,1,0.3H84
		c0.3,0,0.7-0.1,1-0.3c0.3-0.2,0.6-0.4,0.7-0.7c0.2-0.3,0.3-0.6,0.3-1c0-0.3-0.1-0.7-0.3-1l-8.5-14.1c-0.2-0.3-0.4-0.5-0.7-0.7
		c-0.3-0.2-0.6-0.3-1-0.3c-0.3,0-0.7,0.1-1,0.3C74.3,9.7,74,10,73.8,10.2L73.8,10.2z"/>
	<path class="st2" d="M75.5,15.4v4"/>
	<path class="st2" d="M75.5,23.4L75.5,23.4"/>
</g>
<g class="st1">
	<path class="st2" d="M75.1,29.3c5.5,0,10-4.5,10-10c0-5.5-4.5-10-10-10c-5.5,0-10,4.5-10,10C65.1,24.8,69.6,29.3,75.1,29.3z"/>
	<path class="st2" d="M75.1,13.3v6l4,2"/>
</g>
<g>
	<path class="st3" d="M32.5,15.5h-16c-1.1,0-2,0.9-2,2v10c0,1.1,0.9,2,2,2h16c1.1,0,2-0.9,2-2v-10C34.5,16.4,33.6,15.5,32.5,15.5z"
		/>
	<path class="st3" d="M20.5,33.5h8"/>
	<path class="st3" d="M24.5,29.5v4"/>
</g>
</svg>
