<?xml version="1.0" encoding="utf-8"?>
<!-- Generator: Adobe Illustrator 25.2.1, SVG Export Plug-In . SVG Version: 6.00 Build 0)  -->
<svg version="1.1" id="Layer_1" xmlns="http://www.w3.org/2000/svg" xmlns:xlink="http://www.w3.org/1999/xlink" x="0px" y="0px"
	 width="78px" height="78px" viewBox="0 0 78 78" style="enable-background:new 0 0 78 78;" xml:space="preserve">
<style type="text/css">
	.st0{fill:#F5F5F5;stroke:#E4E4E4;}
	.st1{fill:#BBC9E3;}
	.st2{fill:none;stroke:#BBC9E3;stroke-width:2.6634;stroke-linecap:round;stroke-miterlimit:10;}
	.st3{fill:#0D51D9;}
	.st4{fill:none;stroke:#0D51D9;stroke-width:2.3971;stroke-linecap:round;stroke-miterlimit:10;}
</style>
<g>
	<circle class="st0" cx="39" cy="39" r="38.5"/>
	<g>
		<g>
			<path class="st1" d="M37,28c-2.9,0-5.2,2.3-5.2,5.2c0,2.9,2.3,5.2,5.2,5.2c2.9,0,5.2-2.3,5.2-5.2C42.2,30.3,39.9,28,37,28z
				 M37,35.8c-1.4,0-2.6-1.1-2.6-2.6s1.1-2.6,2.6-2.6s2.6,1.1,2.6,2.6S38.4,35.8,37,35.8z"/>
			<path class="st2" d="M29.2,50c0-4.3,3.5-7.7,7.7-7.7s7.7,3.5,7.7,7.7"/>
			<path class="st2" d="M46,32.8l1.3,1.3c0.2,0.2,0.5,0.2,0.7,0l3.2-3.2"/>
		</g>
		<g>
			<g>
				<g>
					<g>
						<path class="st3" d="M34.5,28c-2.9,0-5.2,2.3-5.2,5.2c0,2.9,2.3,5.2,5.2,5.2c2.9,0,5.2-2.3,5.2-5.2C39.7,30.3,37.4,28,34.5,28
							z M34.5,35.8c-1.4,0-2.6-1.1-2.6-2.6s1.1-2.6,2.6-2.6c1.4,0,2.6,1.1,2.6,2.6S35.9,35.8,34.5,35.8z"/>
					</g>
				</g>
				<path class="st4" d="M26.8,50c0-4.3,3.5-7.7,7.7-7.7s7.7,3.5,7.7,7.7"/>
				<path class="st4" d="M43.6,32.8l1.3,1.3c0.2,0.2,0.5,0.2,0.7,0l3.2-3.2"/>
			</g>
		</g>
	</g>
</g>
</svg>
