<?xml version="1.0" encoding="utf-8"?>
<!-- Generator: Adobe Illustrator 25.2.1, SVG Export Plug-In . SVG Version: 6.00 Build 0)  -->
<svg version="1.1" id="Layer_1" xmlns="http://www.w3.org/2000/svg" xmlns:xlink="http://www.w3.org/1999/xlink" x="0px" y="0px"
	 width="78px" height="78px" viewBox="0 0 78 78" style="enable-background:new 0 0 78 78;" xml:space="preserve">
<style type="text/css">
	.st0{fill:#F5F5F5;stroke:#E4E4E4;}
	.st1{fill:#FFFFFF;}
	.st2{fill:#3A3A3A;}
	.st3{fill:#D46D39;}
	.st4{clip-path:url(#SVGID_2_);}
	.st5{fill:#664F44;}
	.st6{fill:#90694C;}
	.st7{fill:#FCE9CD;}
	.st8{fill:#E9B784;}
	.st9{fill:#F2D2AC;}
	.st10{fill:#132134;}
	.st11{fill:#2F83C1;}
	.st12{fill:#4D9ED7;}
	.st13{fill:#FFD250;}
	.st14{fill:none;}
	.st15{clip-path:url(#SVGID_4_);}
	.st16{fill:#36C5F0;}
	.st17{fill:#2EB67D;}
	.st18{fill:#ECB22E;}
	.st19{fill:#E01E5A;}
	.st20{clip-path:url(#SVGID_6_);}
	.st21{fill:#4CAF50;}
	.st22{fill:#FAFAFA;}
</style>
<circle class="st0" cx="39" cy="39" r="38.5"/>
<g>
	<g>
		<defs>
			<rect id="SVGID_5_" x="21" y="21" width="36" height="36"/>
		</defs>
		<clipPath id="SVGID_2_">
			<use xlink:href="#SVGID_5_"  style="overflow:visible;"/>
		</clipPath>
		<g class="st4">
			<path class="st21" d="M39,21L39,21c-9.9,0-18,8.1-18,18c0,3.8,1.2,7.5,3.4,10.6l-2.2,6.7l6.9-2.2c2.9,1.9,6.4,3,9.9,3
				c9.9,0,18-8.1,18-18C57,29.1,48.9,21,39,21z"/>
			<path class="st22" d="M49.5,46.4c-0.4,1.2-2.2,2.2-3.5,2.5c-0.9,0.2-2.2,0.4-6.3-1.4c-5.3-2.2-8.7-7.6-9-7.9
				c-0.3-0.3-2.1-2.8-2.1-5.4s1.3-3.8,1.8-4.4c0.4-0.4,1.2-0.6,1.8-0.6c0.2,0,0.4,0,0.6,0c0.5,0,0.8,0.1,1.1,0.9
				c0.4,1,1.5,3.6,1.6,3.9c0.1,0.3,0.3,0.6,0.1,1c-0.2,0.4-0.3,0.5-0.6,0.8c-0.3,0.3-0.5,0.5-0.8,0.9c-0.2,0.3-0.5,0.6-0.2,1.1
				c0.3,0.5,1.4,2.2,2.9,3.6c2,1.8,3.6,2.4,4.2,2.6c0.4,0.2,1,0.1,1.3-0.2c0.4-0.4,0.9-1.2,1.4-1.9c0.4-0.5,0.8-0.6,1.3-0.4
				c0.5,0.2,3.1,1.4,3.6,1.7c0.5,0.3,0.9,0.4,1,0.6C49.9,44.1,49.9,45.2,49.5,46.4z"/>
		</g>
	</g>
</g>
</svg>
