<?xml version="1.0" encoding="utf-8"?>
<!-- Generator: Adobe Illustrator 25.2.1, SVG Export Plug-In . SVG Version: 6.00 Build 0)  -->
<svg version="1.1" id="Layer_1" xmlns="http://www.w3.org/2000/svg" xmlns:xlink="http://www.w3.org/1999/xlink" x="0px" y="0px"
	 width="78px" height="78px" viewBox="0 0 78 78" style="enable-background:new 0 0 78 78;" xml:space="preserve">
<style type="text/css">
	.st0{fill:#F5F5F5;stroke:#E4E4E4;}
	.st1{fill:none;stroke:#BBC9E3;stroke-width:3;stroke-linecap:round;stroke-linejoin:round;}
	.st2{fill:none;stroke:#0D51D9;stroke-width:3;stroke-linecap:round;stroke-linejoin:round;}
	.st3{display:none;}
	.st4{display:inline;fill:none;stroke:#BBC9E3;stroke-width:3;stroke-linecap:round;stroke-linejoin:round;}
	.st5{display:inline;fill:none;stroke:#0D51D9;stroke-width:3;stroke-linecap:round;stroke-linejoin:round;}
</style>
<g>
	<circle class="st0" cx="39" cy="39" r="38.5"/>
</g>
<g>
	<path class="st1" d="M28,37.5c3.6,0,7,1.4,9.5,4c2.5,2.5,4,6,4,9.5"/>
	<path class="st1" d="M28,27c6.4,0,12.5,2.5,17,7c4.5,4.5,7,10.6,7,17"/>
	<path class="st1" d="M29.5,51c0.8,0,1.5-0.7,1.5-1.5S30.3,48,29.5,48c-0.8,0-1.5,0.7-1.5,1.5S28.7,51,29.5,51z"/>
	<path class="st2" d="M26,37.5c3.6,0,7,1.4,9.5,4c2.5,2.5,4,6,4,9.5"/>
	<path class="st2" d="M26,27c6.4,0,12.5,2.5,17,7c4.5,4.5,7,10.6,7,17"/>
	<path class="st2" d="M27.5,51c0.8,0,1.5-0.7,1.5-1.5S28.3,48,27.5,48S26,48.7,26,49.5S26.7,51,27.5,51z"/>
</g>
<g class="st3">
	<path class="st4" d="M49.5,52.5c2.5,0,4.5-2,4.5-4.5s-2-4.5-4.5-4.5S45,45.5,45,48S47,52.5,49.5,52.5z"/>
	<path class="st4" d="M31.5,34.5c2.5,0,4.5-2,4.5-4.5c0-2.5-2-4.5-4.5-4.5c-2.5,0-4.5,2-4.5,4.5C27,32.5,29,34.5,31.5,34.5z"/>
	<path class="st4" d="M42,30h4.5c0.8,0,1.6,0.3,2.1,0.9c0.6,0.6,0.9,1.3,0.9,2.1v10.5"/>
	<path class="st4" d="M31.5,34.5v18"/>
	<path class="st5" d="M46.5,52.5c2.5,0,4.5-2,4.5-4.5s-2-4.5-4.5-4.5S42,45.5,42,48S44,52.5,46.5,52.5z"/>
	<path class="st5" d="M28.5,34.5c2.5,0,4.5-2,4.5-4.5c0-2.5-2-4.5-4.5-4.5c-2.5,0-4.5,2-4.5,4.5C24,32.5,26,34.5,28.5,34.5z"/>
	<path class="st5" d="M39,30h4.5c0.8,0,1.6,0.3,2.1,0.9c0.6,0.6,0.9,1.3,0.9,2.1v10.5"/>
	<path class="st5" d="M28.5,34.5v18"/>
</g>
</svg>
