<?xml version="1.0" encoding="utf-8"?>
<!-- Generator: Adobe Illustrator 25.2.1, SVG Export Plug-In . SVG Version: 6.00 Build 0)  -->
<svg version="1.1" id="Layer_1" xmlns="http://www.w3.org/2000/svg" xmlns:xlink="http://www.w3.org/1999/xlink" x="0px" y="0px"
	 width="45px" height="60px" viewBox="0 0 45 60" style="enable-background:new 0 0 45 60;" xml:space="preserve">
<style type="text/css">
	.st0{fill:none;stroke:#0D51D9;stroke-width:1.5847;}
</style>
<g>
	<path class="st0" d="M4.8,9.1h35.4c2.2,0,4,1.7,4,4v42c0,2.2-1.7,4-4,4H4.8c-2.2,0-4-1.7-4-4v-42C0.8,10.8,2.6,9.1,4.8,9.1z"/>
	<path class="st0" d="M9.6,15.2h25.8c2.2,0,4,1.7,4,4v13.7c0,2.2-1.7,4-4,4H9.6c-2.2,0-4-1.7-4-4V19.2C5.7,17.1,7.5,15.2,9.6,15.2z"
		/>
	<path class="st0" d="M5.6,33.1l0.9-1c3.2-3.8,9-4.2,12.6-0.7c1,1,1.7,1.7,2,1.9c5.1,5.1,12.4-7.4,16.3-1.3c1.2,1.9,2,3.1,2.2,3.2"
		/>
	<line class="st0" x1="5.6" y1="42.4" x2="39.5" y2="42.4"/>
	<line class="st0" x1="5.6" y1="51" x2="39.5" y2="51"/>
	<path class="st0" d="M4.3,9.1l24.6-7.6c5.7-1.7,11.5,2.2,11.9,8.3l0,0"/>
</g>
</svg>
