<svg width="50" height="50" viewBox="0 0 50 50" fill="none" xmlns="http://www.w3.org/2000/svg">
<rect x="0.5" y="0.5" width="49" height="49" rx="5.5" fill="white" stroke="#CFDADE"/>
<path d="M13.5415 21.5415C13.5415 17.1232 17.1232 13.5415 21.5415 13.5415H28.4582C32.8765 13.5415 36.4582 17.1232 36.4582 21.5415V21.9582C36.4582 23.0627 35.5627 23.9582 34.4582 23.9582H15.5415C14.4369 23.9582 13.5415 23.0627 13.5415 21.9582V21.5415Z" fill="#B6C9CF"/>
<path d="M13.5415 31.2498C13.5415 28.3734 15.8734 26.0415 18.7498 26.0415H31.2498C34.1263 26.0415 36.4582 28.3734 36.4582 31.2498V31.2498C36.4582 34.1263 34.1263 36.4582 31.2498 36.4582H18.7498C15.8733 36.4582 13.5415 34.1263 13.5415 31.2498V31.2498Z" fill="#0D51D9"/>
</svg>
