<svg width="50" height="50" viewBox="0 0 50 50" fill="none" xmlns="http://www.w3.org/2000/svg">
<rect x="0.5" y="0.5" width="49" height="49" rx="5.5" fill="white" stroke="#CFDADE"/>
<path d="M19.7917 34.3751C19.7917 31.4986 22.1236 29.1667 25.0001 29.1667V29.1667C27.8766 29.1667 30.2084 31.4986 30.2084 34.3751V34.3751C30.2084 37.2516 27.8766 39.5834 25.0001 39.5834V39.5834C22.1236 39.5834 19.7917 37.2516 19.7917 34.3751V34.3751Z" fill="#0D51D9"/>
<path d="M34.375 19C34.375 24.3157 30.1777 28.6458 25 28.6458C19.8223 28.6458 15.625 24.3157 15.625 19C15.625 13.6843 19.8223 9.375 25 9.375C30.1777 9.375 34.375 13.6843 34.375 19Z" fill="#B6C9CF"/>
</svg>
