<svg width="48" height="48" viewBox="0 0 48 48" fill="none" xmlns="http://www.w3.org/2000/svg">
<rect x="0.5" y="0.5" width="47" height="47" rx="5.5" fill="white" stroke="#CFDADE"/>
<path d="M31.7583 30.22C32.8629 30.22 33.778 31.1237 33.564 32.2074C33.1728 34.1885 32.202 36.026 30.7532 37.4749C28.8291 39.399 26.2194 40.48 23.4983 40.48C20.7772 40.48 18.1675 39.399 16.2434 37.4749C14.7945 36.026 13.8238 34.1885 13.4326 32.2074C13.2186 31.1237 14.1337 30.22 15.2383 30.22L23.4983 30.22H31.7583Z" fill="#B6C9CF"/>
<path d="M21.7679 10C22.5378 8.66667 24.4623 8.66667 25.2321 10L33.4593 24.25C34.2291 25.5833 33.2668 27.25 31.7272 27.25H15.2728C13.7332 27.25 12.7709 25.5833 13.5407 24.25L21.7679 10Z" fill="#0D51D9"/>
</svg>
