<svg width="48" height="48" viewBox="0 0 48 48" fill="none" xmlns="http://www.w3.org/2000/svg">
<rect x="0.5" y="0.5" width="47" height="47" rx="5.5" fill="white" stroke="#CFDADE"/>
<path d="M11 14C11 12.8954 11.8954 12 13 12H15C19.4183 12 23 15.5817 23 20V22C23 23.1046 22.1046 24 21 24H13C11.8954 24 11 23.1046 11 22V14Z" fill="#0D51D9"/>
<path d="M11 28C11 26.8954 11.8954 26 13 26H29C33.4183 26 37 29.5817 37 34V36C37 37.1046 36.1046 38 35 38H13C11.8954 38 11 37.1046 11 36V28Z" fill="#B6C9CF"/>
<path d="M25 18C25 14.6863 27.6863 12 31 12C34.3137 12 37 14.6863 37 18C37 21.3137 34.3137 24 31 24C27.6863 24 25 21.3137 25 18Z" fill="#0D51D9"/>
</svg>
