<svg width="48" height="48" viewBox="0 0 48 48" fill="none" xmlns="http://www.w3.org/2000/svg">
<rect x="0.5" y="0.5" width="47" height="47" rx="5.5" fill="white" stroke="#CFDADE"/>
<path d="M13 15C13 10.5817 16.5817 7 21 7H27C31.4183 7 35 10.5817 35 15C35 16.1046 34.1046 17 33 17H15C13.8954 17 13 16.1046 13 15Z" fill="#B6C9CF"/>
<path d="M13 33C13 31.8954 13.8954 31 15 31H33C34.1046 31 35 31.8954 35 33C35 37.4183 31.4183 41 27 41H21C16.5817 41 13 37.4183 13 33Z" fill="#B6C9CF"/>
<path d="M13 24C13 21.2386 15.2386 19 18 19H30C32.7614 19 35 21.2386 35 24C35 26.7614 32.7614 29 30 29H18C15.2386 29 13 26.7614 13 24Z" fill="#0D51D9"/>
</svg>
