<svg width="51" height="51" viewBox="0 0 51 51" fill="none" xmlns="http://www.w3.org/2000/svg">
<rect x="0.5" y="0.5" width="50" height="50" rx="5.5" fill="white" stroke="#CFDADE"/>
<path d="M27.625 16.1875C27.625 13.7022 29.6397 11.6875 32.125 11.6875H37.3125C38.4171 11.6875 39.3125 12.5829 39.3125 13.6875V37.3125C39.3125 38.4171 38.4171 39.3125 37.3125 39.3125H29.625C28.5204 39.3125 27.625 38.4171 27.625 37.3125V16.1875Z" fill="#0D51D9"/>
<path d="M11.6875 27.875C11.6875 25.3897 13.7022 23.375 16.1875 23.375H21.375C22.4796 23.375 23.375 24.2704 23.375 25.375V37.3125C23.375 38.4171 22.4796 39.3125 21.375 39.3125H13.6875C12.5829 39.3125 11.6875 38.4171 11.6875 37.3125V27.875Z" fill="#B6C9CF"/>
</svg>
