<svg width="58" height="58" viewBox="0 0 58 58" fill="none" xmlns="http://www.w3.org/2000/svg">
<rect x="0.5" y="0.5" width="57" height="57" rx="5.5" fill="white" stroke="#CFDADE"/>
<path d="M11 19C11 14.5817 14.5817 11 19 11C23.4183 11 27 14.5817 27 19C27 23.4183 23.4183 27 19 27C14.5817 27 11 23.4183 11 19Z" fill="#0D51D9"/>
<path d="M31 19C31 14.5817 34.5817 11 39 11C43.4183 11 47 14.5817 47 19C47 23.4183 43.4183 27 39 27C34.5817 27 31 23.4183 31 19Z" fill="#B6C9CF"/>
<path d="M31 39C31 34.5817 34.5817 31 39 31C43.4183 31 47 34.5817 47 39C47 43.4183 43.4183 47 39 47C34.5817 47 31 43.4183 31 39Z" fill="#0D51D9"/>
<path d="M11 39C11 34.5817 14.5817 31 19 31C23.4183 31 27 34.5817 27 39C27 43.4183 23.4183 47 19 47C14.5817 47 11 43.4183 11 39Z" fill="#B6C9CF"/>
</svg>
