<?xml version="1.0" encoding="utf-8"?>
<!-- Generator: Adobe Illustrator 25.2.1, SVG Export Plug-In . SVG Version: 6.00 Build 0)  -->
<svg version="1.1" id="Layer_1" xmlns="http://www.w3.org/2000/svg" xmlns:xlink="http://www.w3.org/1999/xlink" x="0px" y="0px"
	 width="81px" height="60px" viewBox="0 0 81 60" style="enable-background:new 0 0 81 60;" xml:space="preserve">
<style type="text/css">
	.st0{fill:#FFFFFF;stroke:#0D51D9;stroke-width:1.8993;}
	.st1{fill:#0D51D9;}
</style>
<g>
	<path class="st0" d="M79.9,5.8v48.4c0,2.7-2.1,4.8-4.8,4.8H5.8C3.1,59,1,57,1,54.3V5.8C1,3.1,3.1,1,5.8,1h69.3
		C77.8,1,79.9,3.1,79.9,5.8z"/>
	<g>
		<path class="st1" d="M14.8,10.5h51.3c0.6,0,0.9,0.4,0.9,0.9l0,0c0,0.6-0.4,0.9-0.9,0.9H14.8c-0.6,0-0.9-0.4-0.9-0.9l0,0
			C13.9,10.9,14.3,10.5,14.8,10.5z"/>
		<path class="st1" d="M14.8,20.2h51.3c0.6,0,0.9,0.4,0.9,0.9l0,0c0,0.6-0.4,0.9-0.9,0.9H14.8c-0.6,0-0.9-0.4-0.9-0.9l0,0
			C13.9,20.5,14.3,20.2,14.8,20.2z"/>
		<path class="st1" d="M14.8,29.7h51.3c0.6,0,0.9,0.4,0.9,0.9l0,0c0,0.6-0.4,0.9-0.9,0.9H14.8c-0.6,0-0.9-0.4-0.9-0.9l0,0
			C13.9,30.1,14.3,29.7,14.8,29.7z"/>
		<path class="st1" d="M14.8,39.4h51.3c0.6,0,0.9,0.4,0.9,0.9l0,0c0,0.6-0.4,0.9-0.9,0.9H14.8c-0.6,0-0.9-0.4-0.9-0.9l0,0
			C13.9,39.7,14.3,39.4,14.8,39.4z"/>
		<path class="st1" d="M14.8,48.9h51.3c0.6,0,0.9,0.4,0.9,0.9l0,0c0,0.6-0.4,0.9-0.9,0.9H14.8c-0.6,0-0.9-0.4-0.9-0.9l0,0
			C13.9,49.3,14.3,48.9,14.8,48.9z"/>
	</g>
</g>
</svg>
