<svg width="48" height="48" viewBox="0 0 48 48" fill="none" xmlns="http://www.w3.org/2000/svg">
<rect x="0.5" y="0.5" width="47" height="47" rx="5.5" fill="white" stroke="#CFDADE"/>
<path d="M32.52 26.26C33.6246 26.26 34.5397 27.1638 34.3257 28.2474C33.9345 30.2285 32.9638 32.0661 31.5149 33.5149C29.5908 35.439 26.9811 36.52 24.26 36.52C21.5389 36.52 18.9292 35.439 17.0051 33.5149C15.5563 32.0661 14.5855 30.2286 14.1943 28.2474C13.9803 27.1638 14.8954 26.26 16 26.26L24.26 26.26H32.52Z" fill="#B6C9CF"/>
<path d="M9 24C9 19.5817 12.5817 16 17 16L35 16C37.2091 16 39 17.7909 39 20C39 22.2091 37.2091 24 35 24L9 24Z" fill="#0D51D9"/>
</svg>
