<svg width="50" height="50" viewBox="0 0 50 50" fill="none" xmlns="http://www.w3.org/2000/svg">
<rect x="0.5" y="0.5" width="49" height="49" rx="5.5" fill="white" stroke="#CFDADE"/>
<path d="M13.5417 41.6667C11.2405 41.6667 9.375 39.8013 9.375 37.5001V37.5001C9.375 35.1989 11.2405 33.3334 13.5417 33.3334L36.4583 33.3334C38.7595 33.3334 40.625 35.1989 40.625 37.5001V37.5001C40.625 39.8013 38.7595 41.6667 36.4583 41.6667L13.5417 41.6667Z" fill="#0D51D9"/>
<path d="M34.4163 19.7917C34.9686 19.7917 35.4213 20.2404 35.3684 20.7902C35.204 22.4978 34.6196 24.1439 33.6608 25.5789C32.5162 27.2919 30.8894 28.627 28.986 29.4154C27.0826 30.2038 24.9881 30.4101 22.9675 30.0082C20.9468 29.6063 19.0908 28.6142 17.634 27.1574C16.1772 25.7006 15.1851 23.8445 14.7832 21.8239C14.3812 19.8032 14.5875 17.7088 15.3759 15.8054C16.1643 13.902 17.4995 12.2751 19.2125 11.1305C20.6474 10.1717 22.2936 9.58739 24.0012 9.42296C24.5509 9.37002 24.9997 9.82272 24.9997 10.375L24.9997 18.7917C24.9997 19.344 25.4474 19.7917 25.9997 19.7917H34.4163Z" fill="#C4C4C4"/>
</svg>
