<?xml version="1.0" encoding="utf-8"?>
<!-- Generator: Adobe Illustrator 25.2.1, SVG Export Plug-In . SVG Version: 6.00 Build 0)  -->
<svg version="1.1" id="Layer_1" xmlns="http://www.w3.org/2000/svg" xmlns:xlink="http://www.w3.org/1999/xlink" x="0px" y="0px"
	 width="88.8px" height="60px" viewBox="0 0 88.8 60" style="enable-background:new 0 0 88.8 60;" xml:space="preserve">
<style type="text/css">
	.st0{fill:#FFFFFF;stroke:#0D51D9;stroke-width:2.3988;}
	.st1{fill:none;stroke:#0D51D9;stroke-width:2.3988;}
	.st2{fill:#0D51D9;}
</style>
<g>
	<path class="st0" d="M87.6,7.2v45.6c0,3.4-2.7,6-6,6H7.3c-3.4,0-6-2.7-6-6V7.2c0-3.4,2.7-6,6-6h74.3C85,1.2,87.6,3.9,87.6,7.2z"/>
	<path class="st1" d="M17.4,33h54c0.7,0,1.2,0.5,1.2,1.2V45c0,0.7-0.5,1.2-1.2,1.2h-54c-0.7,0-1.2-0.5-1.2-1.2V34.2
		C16.3,33.4,16.7,33,17.4,33z"/>
	<path class="st2" d="M17.4,13.2h54c1.3,0,2.4,1.1,2.4,2.4l0,0c0,1.3-1.1,2.4-2.4,2.4h-54c-1.3,0-2.4-1.1-2.4-2.4l0,0
		C15,14.3,16.1,13.2,17.4,13.2z"/>
	<path class="st2" d="M15.6,23.4h57.6c0.4,0,0.6,0.2,0.6,0.6l0,0c0,0.4-0.2,0.6-0.6,0.6H15.6c-0.4,0-0.6-0.2-0.6-0.6l0,0
		C15,23.7,15.3,23.4,15.6,23.4z"/>
</g>
</svg>
