<svg width="48" height="48" viewBox="0 0 48 48" fill="none" xmlns="http://www.w3.org/2000/svg">
<rect x="0.5" y="0.5" width="47" height="47" rx="5.5" fill="white" stroke="#CFDADE"/>
<path d="M16 17C16 12.5817 19.5817 9 24 9C28.4183 9 32 12.5817 32 17V23C32 24.1046 31.1046 25 30 25H18C16.8954 25 16 24.1046 16 23V17Z" fill="#0D51D9"/>
<path d="M34 27C35.1046 27 36.017 27.9016 35.8338 28.9908C35.4226 31.4349 34.2609 33.7097 32.4853 35.4853C30.2348 37.7357 27.1826 39 24 39C20.8174 39 17.7652 37.7357 15.5147 35.4853C13.7391 33.7097 12.5774 31.4349 12.1662 28.9908C11.983 27.9016 12.8954 27 14 27L24 27H34Z" fill="#B7C9CF"/>
</svg>
