<svg width="50" height="50" viewBox="0 0 50 50" fill="none" xmlns="http://www.w3.org/2000/svg">
<rect x="0.5" y="0.5" width="47" height="47" rx="5.5" fill="white" stroke="#CFDADE"/>
<path d="M24.0234 24H30.7898C34.2018 24 36.9677 26.766 36.9677 30.178V30.178C36.9677 33.59 34.2018 36.3559 30.7898 36.3559H30.4956C26.9211 36.3559 24.0234 33.4582 24.0234 29.8838V24Z" fill="#0D51D9"/>
<path d="M24.0234 24.2207L17.2571 24.2207C13.8451 24.2207 11.0791 21.4547 11.0791 18.0427V18.0427C11.0791 14.6307 13.8451 11.8648 17.2571 11.8648L17.5513 11.8648C21.1258 11.8648 24.0234 14.7625 24.0234 18.3369L24.0234 24.2207Z" fill="#0D51D9"/>
<path d="M25.6445 22.3818L25.6445 15.6155C25.6445 12.2035 28.4105 9.43754 31.8225 9.43754V9.43754C35.2345 9.43754 38.0004 12.2035 38.0004 15.6155L38.0004 15.9097C38.0005 19.4842 35.1028 22.3818 31.5283 22.3818L25.6445 22.3818Z" fill="#B6C9CF"/>
<path d="M22.6289 25.6182L22.6289 32.3845C22.6289 35.7965 19.8629 38.5625 16.4509 38.5625V38.5625C13.039 38.5625 10.273 35.7965 10.273 32.3845L10.273 32.0903C10.273 28.5158 13.1707 25.6182 16.7451 25.6182L22.6289 25.6182Z" fill="#B6C9CF"/>
<rect x="0.5" y="0.5" width="49" height="49" rx="5.5" fill="white" stroke="#CFDADE"/>
<path d="M18.75 22.9168C18.75 18.3145 22.481 14.5835 27.0833 14.5835V14.5835C31.6857 14.5835 35.4167 18.3145 35.4167 22.9168V22.9168C35.4167 27.5192 31.6857 31.2502 27.0833 31.2502V31.2502C22.481 31.2502 18.75 27.5192 18.75 22.9168V22.9168Z" fill="#0D51D9"/>
<path d="M11.4585 38.5417V38.5417C14.335 38.5417 16.6668 36.2099 16.6668 33.3334L16.6668 14.0626C16.6668 12.6243 15.5009 11.4584 14.0627 11.4584V11.4584C12.6244 11.4584 11.4585 12.6243 11.4585 14.0626L11.4585 38.5417Z" fill="#B6C9CF"/>
<path d="M38.542 38.5417V38.5417C38.542 35.6653 36.2101 33.3334 33.3337 33.3334L21.3545 33.3334C19.9162 33.3334 18.7503 34.4993 18.7503 35.9376V35.9376C18.7503 37.3758 19.9162 38.5417 21.3545 38.5417L38.542 38.5417Z" fill="#B6C9CF"/>
</svg>
