<?xml version="1.0" encoding="utf-8"?>
<!-- Generator: Adobe Illustrator 25.2.1, SVG Export Plug-In . SVG Version: 6.00 Build 0)  -->
<svg version="1.1" id="Layer_1" xmlns="http://www.w3.org/2000/svg" xmlns:xlink="http://www.w3.org/1999/xlink" x="0px" y="0px"
	 width="324.9px" height="509px" viewBox="0 0 324.9 509" style="enable-background:new 0 0 324.9 509;" xml:space="preserve">
<style type="text/css">
	.st0{clip-path:url(#SVGID_2_);}
	.st1{fill:none;stroke:#B6C9CF;stroke-width:2;stroke-linecap:round;stroke-linejoin:round;}
	.st2{fill:url(#SVGID_3_);}
	.st3{fill:#91B3FA;}
	.st4{fill:url(#SVGID_4_);}
	.st5{fill:#BDD0FB;}
	.st6{fill:url(#SVGID_5_);}
	.st7{opacity:0.3;}
	.st8{opacity:0.3;fill:#91B3FA;enable-background:new    ;}
	.st9{fill:url(#SVGID_6_);}
	.st10{fill:url(#SVGID_7_);}
	.st11{fill:#7D97F4;}
	.st12{opacity:0.67;fill:#FFFFFF;enable-background:new    ;}
	.st13{fill:url(#SVGID_8_);}
	.st14{fill:url(#SVGID_9_);}
	.st15{fill:url(#SVGID_10_);}
	.st16{fill:url(#SVGID_11_);}
	.st17{fill:url(#SVGID_12_);}
	.st18{fill:url(#SVGID_13_);}
	.st19{fill:url(#SVGID_14_);}
	.st20{fill:url(#SVGID_15_);}
	.st21{fill:url(#SVGID_16_);}
	.st22{fill:url(#SVGID_17_);}
	.st23{fill:url(#SVGID_18_);}
	.st24{fill:url(#SVGID_19_);}
	.st25{fill:url(#SVGID_20_);}
	.st26{fill:url(#SVGID_21_);}
	.st27{fill:url(#SVGID_22_);}
	.st28{fill:url(#SVGID_23_);}
	.st29{fill:url(#SVGID_24_);}
	.st30{fill:url(#SVGID_25_);}
	.st31{fill:url(#SVGID_26_);}
	.st32{fill:url(#SVGID_27_);}
	.st33{fill:url(#SVGID_28_);}
	.st34{fill:url(#SVGID_29_);}
	.st35{fill:url(#SVGID_30_);}
	.st36{fill:url(#SVGID_31_);}
	.st37{fill:#FFFFFF;}
</style>
<g>
	<g>
		<defs>
			
				<rect id="SVGID_1_" x="247.7" y="26.9" transform="matrix(0.9659 -0.2588 0.2588 0.9659 -11.2175 81.587)" width="113" height="113"/>
		</defs>
		<clipPath id="SVGID_2_">
			<use xlink:href="#SVGID_1_"  style="overflow:visible;"/>
		</clipPath>
		<g class="st0">
			<path class="st1" d="M325.1,33.9L261.4,51c-5,1.3-8,6.5-6.7,11.5l17.1,63.7c1.3,5,6.5,8,11.5,6.7l63.7-17.1c5-1.3,8-6.5,6.7-11.5
				l-17.1-63.7C335.3,35.6,330.1,32.6,325.1,33.9z"/>
			<path class="st1" d="M259.7,80.7l81.9-21.9"/>
			<path class="st1" d="M301.6,128l-14.6-54.6"/>
		</g>
	</g>
</g>
<g>
	
		<linearGradient id="SVGID_3_" gradientUnits="userSpaceOnUse" x1="450.9691" y1="-196.7379" x2="236.4561" y2="52.9059" gradientTransform="matrix(1 0 0 -1 -125.4 367.5)">
		<stop  offset="0" style="stop-color:#DAE3FE"/>
		<stop  offset="1" style="stop-color:#E9EFFD"/>
	</linearGradient>
	<path class="st2" d="M310.5,417.7c-32.7,68.2-119.1,97.5-186.8,92.5c-18.5-1.4-55.7-4.1-84.7-28.6c-55.7-47-47.2-145.3,6.2-203.2
		c6.9-7.5,54.4-57.4,128.6-56.7c54.3,0.5,92.4,27.8,97,31.2c5.9,4.3,18.8,14.5,30.4,30.8C328.5,321.9,330.9,375.1,310.5,417.7z"/>
	<path class="st3" d="M6,300.8c0.5-0.6,1.3-1.5,1.8-1.1c8.7,6.9,29.8,27.8,27.9,65.9c-2.4,47.8,9.4,64.7,23.1,74.7
		c-2.9,0.3-8.3,0.7-14.5-1.1C-3.7,425.9-5.7,313.7,6,300.8z"/>
	
		<linearGradient id="SVGID_4_" gradientUnits="userSpaceOnUse" x1="4817.2798" y1="-8.5543" x2="18728.5996" y2="-8.5543" gradientTransform="matrix(1 0 0 -1 -125.4 367.5)">
		<stop  offset="0" style="stop-color:#DAE3FE"/>
		<stop  offset="1" style="stop-color:#E9EFFD"/>
	</linearGradient>
	<path class="st4" d="M13.3,315.4c1.4,5.2,2.7,10.5,3.9,15.8c1.1,5.3,2.1,10.6,2.9,16c0.8,5.3,1.5,10.7,1.9,16
		c0.5,5.4,0.7,10.7,0.9,16.1c0.2,5.4,0.4,10.8,1.2,16.2c0.8,5.4,2.2,10.9,4.7,15.9c0.6,1.3,1.3,2.5,2,3.7c0.7,1.2,1.4,2.4,2.2,3.6
		c1.6,2.4,3.3,4.6,5.1,6.8c3.8,4.3,8.2,8,13,11.2c0.2,0.2,0.5,0.2,0.8,0.2c0.3,0,0.5-0.2,0.7-0.4c0.1-0.1,0.1-0.2,0.2-0.4
		c0-0.1,0-0.3,0-0.4c0-0.1-0.1-0.3-0.2-0.4c-0.1-0.1-0.2-0.2-0.3-0.3c-1.1-0.8-2.3-1.6-3.4-2.5c-0.6-0.4-1.1-0.9-1.6-1.3
		c-0.5-0.4-1.1-0.9-1.6-1.3c-2.1-1.8-4-3.8-5.8-5.8c-3.6-4.1-6.6-8.8-8.9-13.6c-1.1-2.4-2.1-4.9-2.9-7.5c-0.8-2.6-1.3-5.2-1.7-7.8
		c-0.8-5.3-1-10.6-1.3-16c-0.3-5.4-0.6-10.8-1.1-16.2c-0.3-2.7-0.6-5.4-1-8.1c-0.2-1.3-0.4-2.7-0.6-4c-0.2-1.3-0.4-2.7-0.7-4
		c-0.9-5.4-2.1-10.7-3.4-16c-1.3-5.3-2.8-10.5-4.4-15.7c0-0.1-0.1-0.1-0.1-0.2c-0.1,0-0.1,0-0.2,0c-0.1,0-0.1,0.1-0.2,0.1
		C13.3,315.3,13.3,315.3,13.3,315.4z"/>
	<path class="st5" d="M81.5,454.2c1.8,1.5,4.5,0.2,4.4-2.1c-0.8-25.7-6-127.8-36.4-190.3c-2.2-4.5-8.4-4.7-10.9-0.4
		C22.8,288.4-13.1,371.8,81.5,454.2z"/>
	
		<linearGradient id="SVGID_5_" gradientUnits="userSpaceOnUse" x1="15795.7002" y1="-5.5985" x2="29222" y2="-5.5985" gradientTransform="matrix(1 0 0 -1 -125.4 367.5)">
		<stop  offset="0" style="stop-color:#DAE3FE"/>
		<stop  offset="1" style="stop-color:#E9EFFD"/>
	</linearGradient>
	<path class="st6" d="M45.6,294.2c-0.4,3.4-0.5,6.8-0.5,10.1c-0.1,3.4,0,6.8,0.1,10.2c0.2,6.8,0.8,13.5,1.6,20.2
		c0.8,6.7,1.8,13.4,3,20.1c1.2,6.7,2.7,13.3,4.3,19.9l1.2,4.9l1.3,4.9l0.7,2.5l0.7,2.4l1.4,4.9c2,6.5,4.1,12.9,6.4,19.3
		c4.6,12.8,9.7,25.3,15.4,37.7c0.2,0.3,0.4,0.6,0.8,0.7c0.3,0.1,0.7,0.1,1,0c0.3-0.2,0.6-0.4,0.7-0.8c0.1-0.3,0.1-0.7,0-1l0,0
		c-5.8-12.2-11.1-24.6-15.9-37.2c-2.4-6.3-4.6-12.7-6.6-19.1l-1.5-4.8l-0.7-2.4l-0.7-2.4l-1.4-4.9l-1.3-4.9
		c-1.7-6.5-3.2-13.1-4.6-19.7c-1.3-6.6-2.4-13.3-3.3-20c-0.9-6.7-1.6-13.4-1.9-20.2c-0.2-3.4-0.3-6.8-0.3-10.1
		c0-3.4,0.1-6.8,0.4-10.1c0,0,0,0,0,0c0,0,0,0,0,0c0,0,0,0,0,0C45.7,294.1,45.7,294.1,45.6,294.2C45.7,294.1,45.6,294.1,45.6,294.2
		C45.6,294.2,45.6,294.2,45.6,294.2z"/>
	<g class="st7">
		<path class="st8" d="M194.2,301.3c-0.3-0.1-0.6-0.2-0.8-0.5s-0.3-0.6-0.3-0.9c0.1-1.4,0.3-2.9,0.6-4.3c0-0.2,0.1-0.3,0.2-0.5
			c0.1-0.1,0.2-0.3,0.3-0.4c0.1-0.1,0.3-0.2,0.5-0.2c0.2,0,0.3,0,0.5,0h0c0.3,0.1,0.6,0.3,0.8,0.5c0.2,0.3,0.3,0.6,0.2,0.9
			c-0.2,1.4-0.4,2.7-0.5,4.1c0,0.2-0.1,0.3-0.1,0.5c-0.1,0.1-0.2,0.3-0.3,0.4c-0.1,0.1-0.3,0.2-0.4,0.2c-0.2,0.1-0.3,0.1-0.5,0.1
			C194.3,301.3,194.3,301.3,194.2,301.3z M196.4,290.4c-0.1,0-0.1,0-0.1,0c-0.2-0.1-0.3-0.1-0.4-0.2c-0.1-0.1-0.2-0.2-0.3-0.4
			c-0.1-0.1-0.1-0.3-0.1-0.5c0-0.2,0-0.3,0.1-0.5c0.4-1.4,0.9-2.8,1.5-4.1c0.1-0.3,0.4-0.5,0.7-0.7c0.3-0.1,0.7-0.1,1,0
			c0.3,0.1,0.6,0.4,0.7,0.7c0.1,0.3,0.1,0.7,0,1c-0.5,1.3-1,2.6-1.4,3.9c-0.1,0.3-0.3,0.6-0.6,0.7
			C197,290.4,196.7,290.5,196.4,290.4z M200.9,280.3c-0.2,0-0.4-0.1-0.6-0.3c-0.2-0.1-0.3-0.3-0.4-0.5c-0.1-0.2-0.1-0.4-0.1-0.6
			c0-0.2,0.1-0.4,0.2-0.6c0.7-1.2,1.5-2.5,2.4-3.7c0.2-0.3,0.5-0.4,0.8-0.5c0.3-0.1,0.7,0,0.9,0.2c0.3,0.2,0.5,0.5,0.5,0.8
			c0.1,0.3,0,0.7-0.2,0.9c-0.8,1.1-1.6,2.3-2.2,3.5c-0.1,0.2-0.3,0.4-0.6,0.5C201.5,280.3,201.2,280.3,200.9,280.3z M207.6,271.4
			c-0.2,0-0.4-0.1-0.6-0.3c-0.2-0.2-0.3-0.3-0.4-0.6c-0.1-0.2-0.1-0.5,0-0.7c0.1-0.2,0.2-0.4,0.3-0.6c1-1,2-2.1,3.1-3
			c0.1-0.1,0.3-0.2,0.4-0.3c0.2-0.1,0.3-0.1,0.5-0.1c0.2,0,0.3,0,0.5,0.1c0.2,0.1,0.3,0.2,0.4,0.3c0.1,0.1,0.2,0.3,0.3,0.4
			c0.1,0.2,0.1,0.3,0.1,0.5s-0.1,0.3-0.1,0.5c-0.1,0.2-0.2,0.3-0.3,0.4c-1,0.9-2,1.9-3,2.9c-0.1,0.2-0.3,0.3-0.5,0.3
			C208,271.4,207.8,271.4,207.6,271.4L207.6,271.4z M216.1,264.2c-0.2,0-0.5-0.2-0.7-0.3c-0.2-0.2-0.3-0.4-0.4-0.7
			c-0.1-0.2,0-0.5,0.1-0.7c0.1-0.2,0.3-0.4,0.5-0.6c1.2-0.8,2.5-1.6,3.7-2.3c0.1-0.1,0.3-0.1,0.5-0.2c0.2,0,0.3,0,0.5,0
			c0.2,0,0.3,0.1,0.5,0.2c0.1,0.1,0.2,0.2,0.3,0.4c0.1,0.2,0.1,0.3,0.2,0.5c0,0.2,0,0.3-0.1,0.5c-0.1,0.2-0.1,0.3-0.2,0.4
			c-0.1,0.1-0.2,0.2-0.4,0.3c-1.2,0.7-2.4,1.4-3.5,2.1C216.8,264.2,216.4,264.3,216.1,264.2L216.1,264.2z M226,259.1
			c-0.3-0.1-0.5-0.2-0.7-0.4c-0.2-0.2-0.3-0.5-0.3-0.7c0-0.3,0-0.6,0.2-0.8c0.1-0.2,0.4-0.4,0.6-0.5c1.3-0.5,2.7-1,4.1-1.4
			c0.2,0,0.3-0.1,0.5,0c0.2,0,0.3,0.1,0.5,0.2c0.1,0.1,0.3,0.2,0.4,0.3c0.1,0.1,0.2,0.3,0.2,0.4c0,0.2,0.1,0.3,0,0.5
			c0,0.2-0.1,0.3-0.2,0.5c-0.1,0.1-0.2,0.3-0.3,0.4c-0.1,0.1-0.3,0.2-0.4,0.2c-1.3,0.4-2.6,0.8-3.9,1.3
			C226.5,259.1,226.2,259.2,226,259.1L226,259.1z M272.5,265c-0.2,0-0.3-0.1-0.5-0.2c-1.1-0.8-2.3-1.5-3.5-2.2
			c-0.1-0.1-0.3-0.2-0.4-0.3c-0.1-0.1-0.2-0.3-0.2-0.4c0-0.2-0.1-0.3,0-0.5c0-0.2,0.1-0.3,0.2-0.5s0.2-0.3,0.3-0.4
			c0.1-0.1,0.3-0.2,0.4-0.2c0.2,0,0.3-0.1,0.5,0c0.2,0,0.3,0.1,0.5,0.2c1.2,0.7,2.5,1.5,3.7,2.4c0.2,0.2,0.4,0.4,0.5,0.7
			c0.1,0.3,0.1,0.6-0.1,0.8c-0.1,0.3-0.3,0.5-0.6,0.6C273.1,265,272.8,265,272.5,265z M236.7,256.3c-0.3-0.1-0.6-0.2-0.8-0.5
			c-0.2-0.2-0.3-0.5-0.3-0.8c0-0.3,0.1-0.6,0.3-0.8c0.2-0.2,0.5-0.4,0.8-0.4c1.4-0.2,2.9-0.3,4.3-0.4c0.2,0,0.3,0,0.5,0.1
			c0.2,0.1,0.3,0.1,0.4,0.3c0.1,0.1,0.2,0.2,0.3,0.4c0.1,0.2,0.1,0.3,0.1,0.5c0,0.2,0,0.3-0.1,0.5c-0.1,0.2-0.1,0.3-0.3,0.4
			c-0.1,0.1-0.3,0.2-0.4,0.3c-0.2,0.1-0.3,0.1-0.5,0.1c-1.4,0.1-2.8,0.2-4.1,0.4C237,256.4,236.9,256.4,236.7,256.3L236.7,256.3z
			 M262.7,259.6c-0.1,0-0.2,0-0.2-0.1c-1.3-0.5-2.6-1-3.9-1.4c-0.3-0.1-0.6-0.3-0.7-0.6c-0.2-0.3-0.2-0.7-0.1-1
			c0.1-0.3,0.3-0.6,0.6-0.7c0.3-0.2,0.7-0.2,1-0.1c1.4,0.4,2.8,0.9,4.1,1.5c0.3,0.1,0.5,0.3,0.7,0.6c0.1,0.3,0.2,0.6,0.1,0.9
			c-0.1,0.3-0.3,0.6-0.6,0.7S263.1,259.7,262.7,259.6z M247.9,256c-0.3-0.1-0.6-0.2-0.8-0.5c-0.2-0.3-0.3-0.6-0.2-0.9
			c0-0.3,0.2-0.6,0.5-0.8c0.3-0.2,0.6-0.3,0.9-0.3c1.4,0.1,2.9,0.3,4.3,0.6h0c0.3,0.1,0.6,0.3,0.8,0.5c0.2,0.3,0.3,0.6,0.2,1
			c-0.1,0.3-0.3,0.6-0.5,0.8c-0.3,0.2-0.6,0.3-1,0.2c-1.4-0.2-2.7-0.4-4.1-0.5C247.9,256,247.9,256,247.9,256L247.9,256z"/>
		<path class="st8" d="M279.3,270.8c-0.3,0-0.5-0.2-0.7-0.4c-0.5-0.5-0.9-0.9-1.4-1.4c-0.2-0.2-0.4-0.6-0.4-0.9
			c0-0.3,0.1-0.7,0.3-0.9c0.2-0.2,0.6-0.4,0.9-0.4c0.3,0,0.7,0.1,0.9,0.3c0.5,0.5,1,1,1.5,1.5c0.2,0.2,0.3,0.4,0.4,0.7
			s0,0.5-0.1,0.8c-0.1,0.2-0.3,0.4-0.6,0.5C279.8,270.8,279.6,270.9,279.3,270.8L279.3,270.8z"/>
	</g>
	<g class="st7">
		<path class="st8" d="M293.4,307.1c-0.3-0.1-0.6-0.2-0.8-0.5c-0.2-0.2-0.3-0.5-0.3-0.8c0-0.7,0-1.3,0-2c0-0.3,0.1-0.6,0.4-0.9
			c0.2-0.2,0.6-0.4,0.9-0.4s0.7,0.1,0.9,0.4c0.2,0.2,0.4,0.5,0.4,0.9c0,0.7,0,1.4,0,2.1c0,0.3-0.2,0.7-0.4,0.9
			c-0.2,0.2-0.6,0.4-0.9,0.3C293.5,307.1,293.5,307.1,293.4,307.1z"/>
		<path class="st8" d="M234.4,354.3c-0.6-0.1-1.2-0.2-1.7-0.4c-0.3-0.1-0.6-0.3-0.8-0.6c-0.2-0.3-0.2-0.6-0.2-0.9
			c0.1-0.3,0.3-0.6,0.6-0.8c0.3-0.2,0.6-0.2,0.9-0.2c1.3,0.3,2.7,0.6,4,0.7c0.3,0.1,0.6,0.2,0.8,0.5c0.2,0.3,0.3,0.6,0.2,0.9
			c0,0.3-0.2,0.6-0.5,0.8c-0.3,0.2-0.6,0.3-0.9,0.2C236,354.6,235.2,354.5,234.4,354.3z M226.2,352c-0.1,0-0.1,0-0.2-0.1
			c-1.3-0.5-2.7-1.1-3.9-1.7c-0.3-0.1-0.5-0.4-0.7-0.7c-0.1-0.3-0.1-0.7,0.1-1c0.1-0.3,0.4-0.5,0.7-0.7c0.3-0.1,0.7-0.1,1,0.1
			c1.2,0.6,2.5,1.1,3.7,1.6c0.3,0.1,0.5,0.3,0.7,0.6c0.1,0.3,0.2,0.6,0.1,0.9c-0.1,0.3-0.3,0.6-0.6,0.7
			C226.8,352,226.5,352.1,226.2,352L226.2,352z M243.5,355.2c-0.3-0.1-0.6-0.2-0.8-0.5s-0.3-0.6-0.2-0.9c0-0.3,0.2-0.6,0.4-0.8
			c0.2-0.2,0.5-0.3,0.9-0.3c1.3,0,2.7,0,4.1-0.2c0.2,0,0.3,0,0.5,0c0.2,0,0.3,0.1,0.4,0.2c0.1,0.1,0.2,0.2,0.3,0.4
			c0.1,0.2,0.1,0.3,0.1,0.5c0,0.2,0,0.3-0.1,0.5c-0.1,0.2-0.1,0.3-0.2,0.4c-0.1,0.1-0.2,0.2-0.4,0.3c-0.2,0.1-0.3,0.1-0.5,0.1
			c-1.4,0.1-2.9,0.2-4.3,0.2C243.7,355.3,243.6,355.3,243.5,355.2z M216.4,347.1c-0.2,0-0.3-0.1-0.5-0.2c-1.2-0.8-2.4-1.6-3.5-2.5
			c-0.3-0.2-0.4-0.5-0.5-0.9c0-0.3,0.1-0.7,0.3-0.9s0.5-0.4,0.9-0.5c0.3,0,0.7,0.1,0.9,0.3c1.1,0.8,2.2,1.6,3.3,2.4
			c0.2,0.2,0.4,0.4,0.5,0.7c0.1,0.3,0.1,0.6,0,0.9c-0.1,0.3-0.3,0.5-0.6,0.6C217,347.1,216.7,347.1,216.4,347.1L216.4,347.1z
			 M254.4,354.1c-0.3-0.1-0.5-0.2-0.7-0.4c-0.2-0.2-0.3-0.5-0.3-0.8c0-0.3,0.1-0.6,0.3-0.8c0.2-0.2,0.4-0.4,0.7-0.5
			c1.3-0.3,2.6-0.6,3.9-1c0.3-0.1,0.7-0.1,1,0.1c0.3,0.2,0.5,0.4,0.6,0.7c0.1,0.3,0.1,0.7-0.1,1c-0.2,0.3-0.4,0.5-0.7,0.6
			c-1.4,0.4-2.8,0.8-4.1,1.1C254.8,354.1,254.6,354.1,254.4,354.1z M264.8,350.6c-0.3-0.1-0.5-0.2-0.7-0.4c-0.2-0.2-0.3-0.4-0.3-0.7
			c0-0.3,0-0.5,0.1-0.8c0.1-0.2,0.3-0.4,0.6-0.5c1.2-0.6,2.4-1.2,3.6-1.9c0.3-0.2,0.6-0.2,1-0.1c0.3,0.1,0.6,0.3,0.8,0.6
			c0.2,0.3,0.2,0.6,0.1,1c-0.1,0.3-0.3,0.6-0.6,0.8c-1.2,0.7-2.5,1.4-3.8,2C265.3,350.6,265,350.6,264.8,350.6z M274.1,344.9
			c-0.2,0-0.5-0.2-0.6-0.3c-0.2-0.2-0.3-0.4-0.4-0.6c-0.1-0.2,0-0.5,0-0.7c0.1-0.2,0.2-0.4,0.4-0.6c1.1-0.8,2.1-1.7,3.1-2.6
			c0.1-0.1,0.3-0.2,0.4-0.3c0.2-0.1,0.3-0.1,0.5-0.1c0.2,0,0.3,0,0.5,0.1c0.2,0.1,0.3,0.2,0.4,0.3c0.1,0.1,0.2,0.3,0.3,0.4
			c0.1,0.2,0.1,0.3,0.1,0.5c0,0.2,0,0.3-0.1,0.5c-0.1,0.2-0.2,0.3-0.3,0.4c-1,1-2.1,1.9-3.3,2.8c-0.1,0.1-0.3,0.2-0.5,0.2
			C274.5,344.9,274.3,344.9,274.1,344.9L274.1,344.9z M282,337.3c-0.2,0-0.4-0.1-0.6-0.3c-0.2-0.1-0.3-0.3-0.4-0.5
			c-0.1-0.2-0.1-0.4-0.1-0.7c0-0.2,0.1-0.4,0.3-0.6c0.9-1,1.7-2.1,2.5-3.2c0.2-0.3,0.5-0.5,0.8-0.5c0.3-0.1,0.7,0,1,0.2
			c0.3,0.2,0.5,0.5,0.5,0.8c0.1,0.3,0,0.7-0.2,1c-0.8,1.2-1.7,2.3-2.6,3.4c-0.1,0.2-0.3,0.3-0.6,0.4
			C282.4,337.3,282.2,337.3,282,337.3L282,337.3z M288,328.1c-0.1,0-0.2-0.1-0.3-0.1c-0.3-0.2-0.5-0.4-0.6-0.7
			c-0.1-0.3-0.1-0.7,0.1-1c0.6-1.2,1.2-2.4,1.7-3.7c0.1-0.3,0.4-0.6,0.7-0.7c0.3-0.1,0.7-0.1,1,0c0.3,0.1,0.6,0.4,0.7,0.7
			c0.1,0.3,0.1,0.7,0,1c-0.5,1.3-1.1,2.6-1.8,3.9c-0.1,0.2-0.3,0.4-0.6,0.6C288.6,328.1,288.3,328.2,288,328.1L288,328.1z
			 M291.9,317.9L291.9,317.9c-0.4-0.1-0.7-0.3-0.9-0.6c-0.2-0.3-0.2-0.6-0.1-1c0.2-1,0.5-1.9,0.7-2.9c0.1-0.4,0.1-0.7,0.2-1.1
			c0.1-0.3,0.2-0.6,0.5-0.8s0.6-0.3,1-0.2c0.2,0,0.3,0.1,0.5,0.2c0.1,0.1,0.3,0.2,0.4,0.3c0.1,0.1,0.2,0.3,0.2,0.5
			c0,0.2,0,0.3,0,0.5c-0.1,0.4-0.1,0.7-0.2,1.1c-0.2,1-0.4,2.1-0.7,3.1c-0.1,0.3-0.3,0.6-0.6,0.8C292.5,317.9,292.2,318,291.9,317.9
			L291.9,317.9z"/>
		<path class="st8" d="M208,340.1c-0.3-0.1-0.5-0.2-0.7-0.4c-0.5-0.5-1-1-1.4-1.5c-0.1-0.1-0.2-0.3-0.3-0.4
			c-0.1-0.2-0.1-0.3-0.1-0.5c0-0.2,0-0.3,0.1-0.5c0.1-0.2,0.2-0.3,0.3-0.4c0.1-0.1,0.3-0.2,0.4-0.3c0.2-0.1,0.3-0.1,0.5-0.1
			c0.2,0,0.3,0.1,0.5,0.1c0.2,0.1,0.3,0.2,0.4,0.3c0.4,0.5,0.9,1,1.4,1.5c0.2,0.2,0.3,0.4,0.3,0.7c0,0.3,0,0.5-0.1,0.8
			c-0.1,0.2-0.3,0.4-0.6,0.5C208.5,340.1,208.3,340.1,208,340.1z"/>
	</g>
	<path class="st3" d="M212.5,325.9c0.1,0.1,0.1,0.2,0.3,0.3c0.1,0.1,0.2,0.1,0.4,0.1l7.2-1.2c2.3,2.6,5,4.8,7.9,6.5l0.3,7.2
		c0,0.1,0,0.2,0.1,0.3c0.1,0.1,0.2,0.2,0.3,0.2l8.3,2.5c0.1,0,0.2,0,0.4,0c0.1,0,0.2-0.1,0.3-0.2l4.2-5.9c3.4,0.2,6.9-0.1,10.2-1
		l5.3,4.9c0.1,0.1,0.2,0.1,0.3,0.2c0.1,0,0.2,0,0.4-0.1l7.7-4.1c0.1-0.1,0.2-0.1,0.3-0.3c0.1-0.1,0.1-0.2,0.1-0.4l-1.2-7.2
		c2.6-2.3,4.8-5,6.5-7.9l7.2-0.3c0.1,0,0.2,0,0.3-0.1c0.1-0.1,0.2-0.2,0.2-0.3l2.5-8.3c0-0.1,0-0.2,0-0.4c0-0.1-0.1-0.2-0.2-0.3
		l-5.9-4.2c0.2-3.4-0.1-6.9-1-10.2l4.9-5.3c0.1-0.1,0.1-0.2,0.2-0.3c0-0.1,0-0.2-0.1-0.4l-4.1-7.7c-0.1-0.1-0.1-0.2-0.3-0.3
		c-0.1-0.1-0.2-0.1-0.4-0.1l-7.2,1.2c-2.3-2.6-5-4.8-7.9-6.5l-0.3-7.2c0-0.1,0-0.2-0.1-0.3c-0.1-0.1-0.2-0.2-0.3-0.2l-8.3-2.5
		c-0.1,0-0.2,0-0.4,0c-0.1,0-0.2,0.1-0.3,0.2l-4.2,5.9c-3.4-0.2-6.9,0.1-10.2,1l-5.3-4.9c-0.1-0.1-0.2-0.1-0.3-0.2
		c-0.1,0-0.2,0-0.4,0.1l-7.7,4.1c-0.1,0.1-0.2,0.2-0.3,0.3c-0.1,0.1-0.1,0.2-0.1,0.4l1.2,7.2c-2.6,2.3-4.8,5-6.5,7.9l-7.2,0.3
		c-0.1,0-0.2,0-0.3,0.1c-0.1,0.1-0.2,0.2-0.2,0.3l-2.5,8.3c0,0.1,0,0.2,0,0.4c0,0.1,0.1,0.2,0.2,0.3l5.9,4.2
		c-0.2,3.4,0.1,6.9,1,10.2l-4.9,5.3c-0.1,0.1-0.1,0.2-0.2,0.3c0,0.1,0,0.2,0.1,0.4L212.5,325.9z"/>
	<path class="st5" d="M242.4,312.5c-2.2-0.4-4.2-1.7-5.5-3.6c-1.3-1.9-1.8-4.1-1.5-6.4c0.3-2.2,1.6-4.3,3.4-5.6
		c1.8-1.4,4.1-2,6.3-1.7c2.2,0.3,4.3,1.4,5.7,3.1c1.4,1.8,2.1,4,2,6.3c-0.2,2.3-1.2,4.4-2.9,5.9c-1.7,1.5-3.9,2.3-6.2,2.2
		C243.3,312.6,242.8,312.6,242.4,312.5z M245.4,297.3c-1.3-0.3-2.7-0.1-4,0.4c-1.3,0.6-2.3,1.5-3,2.6s-1.1,2.5-1,3.9
		c0.1,1.4,0.6,2.7,1.4,3.8c0.8,1.1,2,1.9,3.3,2.3s2.7,0.4,4,0c1.3-0.4,2.4-1.2,3.3-2.3c0.8-1.1,1.3-2.4,1.4-3.8
		c0.1-1.6-0.4-3.2-1.4-4.4C248.4,298.5,246.9,297.6,245.4,297.3z"/>
	<path class="st5" d="M240.2,324.9c-0.7-0.1-1.4-0.3-2.1-0.5c-0.2-0.1-0.4-0.1-0.7-0.2c-1.1-0.4-2.2-0.8-3.2-1.4l0,0l-0.1-0.1
		c-0.1,0-0.2-0.1-0.2-0.1c-0.1-0.1-0.2-0.1-0.2-0.2c0-0.1-0.1-0.2,0-0.3c0-0.1,0-0.1,0.1-0.2c0.1-0.1,0.2-0.2,0.3-0.2
		c0.1,0,0.3,0,0.4,0c3.7,2,7.9,2.9,12,2.4c4.2-0.4,8.1-2.1,11.3-4.9c2.9-2.5,5.1-5.9,6.2-9.6c0.2-0.7,0.4-1.4,0.5-2
		c0.9-5,0-10.1-2.6-14.5c-2.6-4.3-6.8-7.5-11.6-9c-10.8-3.2-22.3,2.9-25.5,13.7c-1.1,3.6-1.1,7.3-0.2,10.9c0,0.1,0,0.1,0,0.2
		c0,0.1-0.1,0.2-0.2,0.3c-0.1,0.1-0.2,0.1-0.3,0.1c-0.1,0-0.2,0-0.3-0.1c-0.1-0.1-0.2-0.2-0.2-0.3c-0.8-3.1-0.9-6.2-0.3-9.3
		c0.1-0.7,0.3-1.4,0.5-2.1c3.4-11.4,15.4-17.8,26.8-14.4c5.1,1.5,9.5,4.9,12.2,9.4c2.8,4.6,3.7,10,2.7,15.2
		c-0.1,0.7-0.3,1.4-0.5,2.2c-1.5,5.1-4.9,9.5-9.4,12.2C250.8,325,245.4,325.9,240.2,324.9L240.2,324.9z"/>
	<g class="st7">
		<path class="st8" d="M145.1,326.1c-0.2,0-0.3-0.1-0.4-0.2c-0.1-0.1-0.2-0.3-0.2-0.5c-0.1-0.7-0.1-1.3-0.1-2c0-0.1,0-0.2,0.1-0.3
			c0-0.1,0.1-0.2,0.2-0.3c0.1-0.1,0.2-0.1,0.2-0.2s0.2-0.1,0.3-0.1c0.1,0,0.2,0,0.3,0s0.2,0.1,0.3,0.2c0.1,0.1,0.1,0.2,0.2,0.2
			c0,0.1,0.1,0.2,0.1,0.3c0,0.6,0.1,1.3,0.1,1.9c0,0.1,0,0.2,0,0.4c0,0.1-0.1,0.2-0.2,0.3c-0.1,0.1-0.2,0.1-0.3,0.2
			C145.3,326.1,145.2,326.1,145.1,326.1L145.1,326.1z"/>
		<path class="st8" d="M145.1,320c-0.2,0-0.4-0.1-0.5-0.3c-0.1-0.2-0.2-0.3-0.2-0.5c0.1-1.2,0.3-2.3,0.5-3.4c0-0.2,0.1-0.5,0.1-0.7
			c0-0.2,0.2-0.4,0.3-0.5c0.2-0.1,0.4-0.2,0.6-0.1c0.2,0,0.4,0.2,0.5,0.3c0.1,0.2,0.2,0.4,0.1,0.6c0,0.2-0.1,0.5-0.1,0.7
			c-0.2,1.1-0.4,2.2-0.5,3.3c0,0.2-0.1,0.4-0.3,0.5C145.6,320,145.4,320.1,145.1,320C145.1,320,145.1,320,145.1,320z M146.8,312
			c0,0-0.1,0-0.1,0c-0.1,0-0.2-0.1-0.3-0.2c-0.1-0.1-0.1-0.2-0.2-0.2c0-0.1-0.1-0.2-0.1-0.3c0-0.1,0-0.2,0-0.3
			c0.5-1.3,1-2.6,1.6-3.9c0-0.1,0.1-0.2,0.2-0.3c0.1-0.1,0.2-0.1,0.3-0.2c0.1,0,0.2-0.1,0.3,0c0.1,0,0.2,0,0.3,0.1
			c0.1,0,0.2,0.1,0.2,0.2c0.1,0.1,0.1,0.2,0.2,0.3c0,0.1,0,0.2,0,0.3c0,0.1,0,0.2-0.1,0.3c-0.6,1.2-1.1,2.4-1.5,3.7
			c-0.1,0.2-0.2,0.3-0.3,0.4C147.2,312,147,312.1,146.8,312z M150.4,304.7c-0.1,0-0.2-0.1-0.3-0.2c-0.1-0.1-0.2-0.2-0.2-0.3
			c0-0.1-0.1-0.2-0.1-0.4c0-0.1,0.1-0.3,0.1-0.4c0.8-1.2,1.6-2.3,2.5-3.4c0.1-0.1,0.1-0.1,0.2-0.2c0.1,0,0.2-0.1,0.3-0.1
			c0.1,0,0.2,0,0.3,0c0.1,0,0.2,0.1,0.3,0.2c0.1,0.1,0.1,0.2,0.2,0.2c0,0.1,0.1,0.2,0.1,0.3c0,0.1,0,0.2,0,0.3
			c0,0.1-0.1,0.2-0.2,0.3c-0.9,1-1.7,2.1-2.4,3.2c-0.1,0.1-0.2,0.2-0.4,0.3C150.7,304.7,150.5,304.7,150.4,304.7L150.4,304.7z
			 M155.7,298.5c-0.1,0-0.3-0.1-0.4-0.2c-0.1-0.1-0.2-0.2-0.2-0.4c0-0.1,0-0.3,0-0.4c0-0.1,0.1-0.3,0.2-0.4c1-0.9,2.1-1.8,3.3-2.6
			c0.2-0.1,0.4-0.2,0.6-0.1c0.2,0,0.4,0.2,0.5,0.3c0.1,0.2,0.2,0.4,0.1,0.6c0,0.2-0.1,0.4-0.3,0.5c-1.1,0.8-2.1,1.6-3.1,2.5
			c-0.1,0.1-0.2,0.1-0.3,0.2C155.9,298.5,155.8,298.5,155.7,298.5z M162.4,293.7c-0.2,0-0.3-0.1-0.4-0.2c-0.1-0.1-0.2-0.3-0.2-0.4
			c0-0.2,0-0.3,0.1-0.5c0.1-0.1,0.2-0.3,0.3-0.3c1.2-0.7,2.5-1.3,3.8-1.8c0.1,0,0.2-0.1,0.3-0.1s0.2,0,0.3,0.1
			c0.1,0,0.2,0.1,0.3,0.2c0.1,0.1,0.1,0.2,0.2,0.3c0,0.1,0.1,0.2,0.1,0.3c0,0.1,0,0.2-0.1,0.3c0,0.1-0.1,0.2-0.2,0.3
			c-0.1,0.1-0.2,0.1-0.3,0.2c-1.2,0.5-2.5,1.1-3.6,1.7C162.7,293.7,162.5,293.7,162.4,293.7z M170,290.7c-0.2,0-0.3-0.1-0.5-0.3
			c-0.1-0.1-0.2-0.3-0.2-0.5c0-0.2,0.1-0.4,0.2-0.5c0.1-0.1,0.3-0.2,0.4-0.3c1.4-0.3,2.7-0.6,4.1-0.8c0.2,0,0.4,0,0.6,0.2
			c0.2,0.1,0.3,0.3,0.3,0.5c0,0.2,0,0.4-0.2,0.6c-0.1,0.2-0.3,0.3-0.5,0.3c-1.3,0.2-2.6,0.4-3.9,0.8
			C170.2,290.7,170.1,290.7,170,290.7z M178.1,289.7c-0.2,0-0.4-0.1-0.5-0.3c-0.1-0.2-0.2-0.4-0.2-0.6c0-0.2,0.1-0.4,0.3-0.5
			c0.1-0.1,0.3-0.2,0.5-0.2c1.4,0,2.8,0.1,4.2,0.2c0.2,0,0.4,0.1,0.5,0.3c0.1,0.2,0.2,0.4,0.2,0.6c0,0.2-0.1,0.4-0.3,0.5
			c-0.2,0.1-0.4,0.2-0.6,0.2c-1.3-0.2-2.7-0.2-4-0.2C178.2,289.7,178.1,289.7,178.1,289.7z M190.1,291.9c0,0-0.1,0-0.1,0
			c-1.1-0.4-2.2-0.8-3.3-1.1c-0.2,0-0.3-0.1-0.5-0.1c-0.2-0.1-0.4-0.2-0.5-0.4c-0.1-0.2-0.1-0.4-0.1-0.6c0.1-0.2,0.2-0.4,0.4-0.5
			c0.2-0.1,0.4-0.1,0.6-0.1c0.2,0,0.4,0.1,0.5,0.1c1.2,0.3,2.3,0.7,3.5,1.1c0.2,0.1,0.3,0.2,0.4,0.4c0.1,0.2,0.1,0.4,0.1,0.6
			c-0.1,0.2-0.2,0.4-0.3,0.5C190.5,291.9,190.3,291.9,190.1,291.9L190.1,291.9z"/>
	</g>
	<g class="st7">
		<path class="st8" d="M172.4,355.7c-0.2,0-0.4-0.2-0.5-0.3c-0.1-0.2-0.2-0.4-0.1-0.6c0-0.2,0.2-0.4,0.3-0.5
			c0.2-0.1,0.4-0.2,0.6-0.1c1.3,0.2,2.6,0.4,3.9,0.5c0.1,0,0.2,0,0.3,0.1c0.1,0,0.2,0.1,0.3,0.2c0.1,0.1,0.1,0.2,0.2,0.3
			c0,0.1,0.1,0.2,0,0.3c0,0.1,0,0.2-0.1,0.3c0,0.1-0.1,0.2-0.2,0.2c-0.1,0.1-0.2,0.1-0.3,0.2c-0.1,0-0.2,0-0.3,0
			C175.1,356.1,173.7,355.9,172.4,355.7L172.4,355.7z M168.4,354.7C168.4,354.7,168.4,354.7,168.4,354.7c-1.4-0.4-2.7-0.9-3.9-1.5
			c-0.2-0.1-0.3-0.2-0.4-0.4c-0.1-0.2-0.1-0.4,0-0.6s0.2-0.3,0.4-0.4c0.2-0.1,0.4-0.1,0.6,0c1.2,0.5,2.4,1,3.7,1.4
			c0.2,0.1,0.4,0.2,0.5,0.4c0.1,0.2,0.1,0.4,0.1,0.6c0,0.2-0.2,0.4-0.3,0.5C168.8,354.7,168.6,354.8,168.4,354.7L168.4,354.7z
			 M180.4,356.1c-0.2,0-0.4-0.1-0.5-0.3c-0.1-0.2-0.2-0.3-0.2-0.5s0.1-0.4,0.2-0.5c0.1-0.1,0.3-0.2,0.5-0.2c1.3-0.1,2.6-0.3,3.9-0.5
			c0.2,0,0.4,0,0.6,0.1c0.2,0.1,0.3,0.3,0.3,0.5c0,0.2,0,0.4-0.1,0.6c-0.1,0.2-0.3,0.3-0.5,0.3c-1.4,0.3-2.7,0.4-4.1,0.5
			C180.5,356.1,180.5,356.1,180.4,356.1L180.4,356.1z M161.1,351.5c-0.1,0-0.2-0.1-0.3-0.1c-1.2-0.7-2.3-1.5-3.4-2.3
			c-0.1-0.1-0.1-0.1-0.2-0.2c-0.1-0.1-0.1-0.2-0.1-0.3c0-0.1,0-0.2,0-0.3c0-0.1,0.1-0.2,0.1-0.3c0.1-0.1,0.1-0.1,0.2-0.2
			c0.1-0.1,0.2-0.1,0.3-0.1c0.1,0,0.2,0,0.3,0c0.1,0,0.2,0.1,0.3,0.1c1,0.8,2.1,1.6,3.2,2.2c0.2,0.1,0.3,0.2,0.3,0.4
			c0.1,0.2,0.1,0.4,0,0.5c-0.1,0.2-0.2,0.3-0.4,0.4C161.4,351.5,161.3,351.5,161.1,351.5L161.1,351.5z M188.3,354.6
			c-0.2,0-0.3-0.1-0.4-0.3c-0.1-0.1-0.2-0.3-0.2-0.5c0-0.2,0-0.3,0.1-0.5c0.1-0.1,0.2-0.3,0.4-0.3c1.3-0.4,2.5-0.9,3.7-1.4
			c0.2-0.1,0.4-0.1,0.6,0c0.2,0.1,0.3,0.2,0.4,0.4c0.1,0.2,0.1,0.4,0,0.6c-0.1,0.2-0.2,0.4-0.4,0.4c-1.3,0.6-2.5,1.1-3.8,1.5
			C188.6,354.6,188.4,354.7,188.3,354.6L188.3,354.6z M195.6,351.3c-0.2,0-0.3-0.1-0.4-0.2c-0.1-0.1-0.2-0.3-0.2-0.4
			c0-0.2,0-0.3,0.1-0.5c0.1-0.1,0.2-0.3,0.3-0.4c1.1-0.7,2.2-1.4,3.2-2.3c0.2-0.1,0.4-0.2,0.6-0.2c0.2,0,0.4,0.1,0.5,0.3
			c0.1,0.2,0.2,0.4,0.2,0.6c0,0.2-0.1,0.4-0.3,0.5c-1.1,0.9-2.2,1.6-3.4,2.4C196,351.3,195.8,351.3,195.6,351.3L195.6,351.3z
			 M201.9,346.3c-0.2,0-0.3-0.1-0.4-0.2c-0.1-0.1-0.1-0.2-0.2-0.3s-0.1-0.2-0.1-0.3c0-0.1,0-0.2,0.1-0.3c0-0.1,0.1-0.2,0.2-0.3
			c0.9-0.9,1.8-1.9,2.6-3c0.1-0.2,0.3-0.3,0.5-0.3c0.2,0,0.4,0,0.6,0.2c0.2,0.1,0.3,0.3,0.3,0.5c0,0.2,0,0.4-0.2,0.6
			c-0.8,1.1-1.7,2.1-2.7,3.1c-0.1,0.1-0.2,0.2-0.3,0.2C202.2,346.3,202,346.3,201.9,346.3L201.9,346.3z"/>
		<path class="st8" d="M154.7,346.5c-0.2,0-0.3-0.1-0.4-0.2c-0.5-0.5-0.9-1-1.4-1.5c-0.1-0.1-0.1-0.2-0.2-0.3c0-0.1-0.1-0.2,0-0.3
			c0-0.1,0-0.2,0.1-0.3c0-0.1,0.1-0.2,0.2-0.2c0.1-0.1,0.2-0.1,0.3-0.2c0.1,0,0.2,0,0.3,0c0.1,0,0.2,0,0.3,0.1
			c0.1,0,0.2,0.1,0.2,0.2c0.4,0.5,0.9,0.9,1.3,1.4c0.1,0.1,0.2,0.3,0.2,0.4c0,0.2,0,0.3-0.1,0.5c-0.1,0.1-0.2,0.3-0.4,0.3
			C155,346.5,154.9,346.5,154.7,346.5z"/>
	</g>
	<path class="st3" d="M157.3,336.6c0,0.1,0.1,0.1,0.2,0.2c0.1,0,0.2,0,0.2,0l4.8-0.8c1.5,1.7,3.3,3.2,5.3,4.3l0.2,4.9
		c0,0.1,0,0.2,0.1,0.2c0.1,0.1,0.1,0.1,0.2,0.1l5.6,1.7c0.1,0,0.2,0,0.2,0c0.1,0,0.1-0.1,0.2-0.1l2.8-3.9c2.3,0.1,4.6-0.1,6.8-0.7
		l3.6,3.3c0.1,0.1,0.1,0.1,0.2,0.1c0.1,0,0.2,0,0.2,0l5.1-2.8c0.1,0,0.1-0.1,0.2-0.2c0-0.1,0-0.2,0-0.2l-0.8-4.8
		c1.7-1.5,3.2-3.3,4.3-5.3l4.9-0.2c0.1,0,0.2,0,0.2-0.1c0.1-0.1,0.1-0.1,0.1-0.2l1.7-5.6c0-0.1,0-0.2,0-0.2c0-0.1-0.1-0.1-0.1-0.2
		l-3.9-2.8c0.1-2.3-0.1-4.6-0.7-6.8l3.3-3.6c0.1-0.1,0.1-0.1,0.1-0.2c0-0.1,0-0.2,0-0.2l-2.8-5.1c0-0.1-0.1-0.1-0.2-0.2
		c-0.1,0-0.2,0-0.2,0l-4.8,0.8c-1.5-1.7-3.3-3.2-5.3-4.3l-0.2-4.8c0-0.1,0-0.2-0.1-0.2c-0.1-0.1-0.1-0.1-0.2-0.1l-5.6-1.7
		c-0.1,0-0.2,0-0.2,0c-0.1,0-0.1,0.1-0.2,0.1l-2.8,3.9c-2.3-0.1-4.6,0.1-6.8,0.7l-3.6-3.3c-0.1-0.1-0.1-0.1-0.2-0.1
		c-0.1,0-0.2,0-0.2,0l-5.1,2.8c-0.1,0-0.1,0.1-0.2,0.2c0,0.1,0,0.2,0,0.2l0.8,4.8c-1.7,1.5-3.2,3.3-4.3,5.3l-4.9,0.2
		c-0.1,0-0.2,0-0.2,0.1c-0.1,0.1-0.1,0.1-0.1,0.2l-1.7,5.6c0,0.1,0,0.2,0,0.2c0,0.1,0.1,0.1,0.1,0.2l3.9,2.8
		c-0.1,2.3,0.1,4.6,0.7,6.8l-3.3,3.6c-0.1,0.1-0.1,0.1-0.1,0.2c0,0.1,0,0.2,0,0.2L157.3,336.6z"/>
	<path class="st5" d="M177.3,327.8c-1.5-0.3-2.9-1.2-3.8-2.4c-0.9-1.3-1.3-2.8-1-4.4c0.2-1.5,1.1-2.9,2.3-3.8
		c1.2-0.9,2.8-1.4,4.3-1.2c1.5,0.2,2.9,0.9,3.9,2.1c1,1.2,1.5,2.7,1.3,4.3c-0.1,1.5-0.8,3-2,4c-1.2,1-2.7,1.6-4.2,1.5
		C177.9,327.9,177.6,327.8,177.3,327.8z M179.2,317.6c-0.2,0-0.4-0.1-0.6-0.1c-1.2-0.1-2.3,0.4-3.2,1.1c-0.9,0.8-1.4,1.9-1.4,3
		c-0.1,1.2,0.4,2.3,1.1,3.2c0.8,0.9,1.9,1.4,3,1.4c1.1,0,2.2-0.3,3-1c0.8-0.7,1.4-1.7,1.5-2.8c0.1-1.1-0.2-2.2-0.8-3.1
		C181.3,318.4,180.3,317.8,179.2,317.6z"/>
	<path class="st5" d="M175.7,336.4c-0.5-0.1-1-0.2-1.5-0.4c-1-0.3-1.9-0.7-2.8-1.2l-0.1-0.1c-0.1-0.1-0.3-0.2-0.3-0.4
		c-0.1-0.2-0.1-0.3-0.1-0.5c0-0.1,0-0.2,0.1-0.2c0.1-0.2,0.3-0.3,0.5-0.4c0.2-0.1,0.4,0,0.6,0.1c0.8,0.5,1.7,0.8,2.6,1.1l0.1,0
		c2.1,0.6,4.3,0.7,6.5,0.2c1.2-0.3,2.3-0.7,3.4-1.2l0,0l0.1,0c1.5-0.8,2.9-1.9,4-3.3c1.1-1.4,1.9-2.9,2.4-4.6
		c0.1-0.4,0.2-0.9,0.3-1.3c0.6-3.3,0-6.8-1.9-9.7c-1.8-2.9-4.7-4.9-8-5.7c-3.3-0.8-6.8-0.3-9.7,1.4c-3,1.7-5.1,4.4-6.1,7.7
		c-0.1,0.4-0.2,0.9-0.3,1.3c-0.4,1.9-0.3,3.9,0.2,5.8c0,0.2,0,0.4-0.1,0.6c-0.1,0.2-0.3,0.3-0.5,0.4c-0.2,0-0.4,0-0.6-0.1
		c-0.2-0.1-0.3-0.3-0.4-0.5c-0.5-2.1-0.6-4.3-0.2-6.4c0.1-0.5,0.2-1,0.4-1.5c1.1-3.6,3.5-6.7,6.9-8.6c3.3-1.9,7.2-2.4,10.9-1.5
		c3.7,0.9,6.9,3.2,9,6.4c2.1,3.2,2.8,7.1,2.1,10.8c-0.1,0.5-0.2,1-0.4,1.5C190.5,333.5,183.1,337.9,175.7,336.4z"/>
	
		<linearGradient id="SVGID_6_" gradientUnits="userSpaceOnUse" x1="291.1021" y1="48.7444" x2="286.2961" y2="-172.7268" gradientTransform="matrix(1 0 0 -1 -125.4 367.5)">
		<stop  offset="0" style="stop-color:#09005D"/>
		<stop  offset="1" style="stop-color:#1A0F91"/>
	</linearGradient>
	<path class="st9" d="M23,490.9c0,1.3,0.5,2.6,1.5,3.6c1,1,2.2,1.5,3.6,1.5h275c1.3,0,2.6-0.5,3.6-1.5c1-1,1.5-2.2,1.5-3.6l2.3-158
		c0-2.8-3.3-8.2-9.3-7.8l-268.8-7c-1.7,0-3.5,0.3-5.1,0.9c-1.6,0.6-3.1,1.6-4.3,2.8c-1.2,1.2-2.2,2.7-2.8,4.3
		c-0.6,1.6-1,3.3-0.9,5.1L23,490.9z"/>
	<path class="st3" d="M28,486c0,1.3,0.5,2.5,1.4,3.4c0.9,0.9,2.1,1.4,3.4,1.4h263.6c1.3,0,2.5-0.5,3.4-1.4c0.9-0.9,1.4-2.1,1.4-3.4
		l2.2-143.5c-0.3-8.6-7.8-11.7-12.4-11.6L33.4,324c-1.2,0-2.4,0.2-3.6,0.6c-1.1,0.5-2.2,1.1-3,2s-1.5,1.9-2,3
		c-0.5,1.1-0.7,2.3-0.6,3.6L28,486z"/>
	
		<linearGradient id="SVGID_7_" gradientUnits="userSpaceOnUse" x1="334.2646" y1="-13931.5967" x2="416.2653" y2="-38496.2969" gradientTransform="matrix(1 0 0 -1 -125.4 367.5)">
		<stop  offset="0" style="stop-color:#09005D"/>
		<stop  offset="1" style="stop-color:#1A0F91"/>
	</linearGradient>
	<path class="st10" d="M1.3,509.1h323c0.3,0,0.6-0.3,0.6-0.6v-12.6c0-0.3-0.3-0.6-0.6-0.6H1.3c-0.3,0-0.6,0.3-0.6,0.6v12.6
		C0.7,508.8,1,509.1,1.3,509.1z"/>
	<path class="st11" d="M303.2,357l0.2-14.4c-0.3-8.6-7.8-11.8-12.4-11.6l-257.6-6.9c-1.2,0-2.4,0.2-3.6,0.6c-1.1,0.4-2.2,1.1-3,2
		c-0.9,0.9-1.5,1.9-2,3.1c-0.5,1.1-0.7,2.4-0.6,3.6l0.6,23.6H303.2z"/>
	<path class="st5" d="M188.9,364H40.2c-2.4,0-4.4,2-4.4,4.4v57.4c0,2.4,2,4.4,4.4,4.4h148.7c2.4,0,4.4-2,4.4-4.4v-57.4
		C193.3,365.9,191.3,364,188.9,364z"/>
	<path class="st5" d="M292.5,364h-87.9c-1.7,0-3.1,1.4-3.1,3.1v59.8c0,1.7,1.4,3.1,3.1,3.1h87.9c1.7,0,3.1-1.4,3.1-3.1v-59.8
		C295.6,365.4,294.2,364,292.5,364z"/>
	<path class="st5" d="M291.7,439.7h-252c-2.1,0-3.8,1.7-3.8,3.8v37.2c0,2.1,1.7,3.8,3.8,3.8h252c2.1,0,3.8-1.7,3.8-3.8v-37.2
		C295.6,441.4,293.9,439.7,291.7,439.7z"/>
	<path class="st5" d="M37.9,343.4c1.8,0,3.3-1.5,3.3-3.3s-1.5-3.3-3.3-3.3c-1.8,0-3.3,1.5-3.3,3.3S36.1,343.4,37.9,343.4z"/>
	<path class="st5" d="M48.9,343.7c1.8,0,3.3-1.5,3.3-3.3s-1.5-3.3-3.3-3.3s-3.3,1.5-3.3,3.3S47.1,343.7,48.9,343.7z"/>
	<path class="st5" d="M61.6,343.3c1.3-1.3,1.3-3.4,0-4.7c-1.3-1.3-3.4-1.3-4.7,0c-1.3,1.3-1.3,3.4,0,4.7S60.3,344.6,61.6,343.3z"/>
	<path class="st12" d="M142.1,418.3c6.8-6.8,6.8-17.8,0-24.6c-6.8-6.8-17.8-6.8-24.6,0c-6.8,6.8-6.8,17.8,0,24.6
		C124.3,425,135.3,425,142.1,418.3z"/>
	<path class="st12" d="M138,414c4.4-4.4,4.4-11.6,0-16c-4.4-4.4-11.6-4.4-16,0c-4.4,4.4-4.4,11.6,0,16
		C126.4,418.4,133.6,418.4,138,414z"/>
	
		<linearGradient id="SVGID_8_" gradientUnits="userSpaceOnUse" x1="202.5718" y1="-135.2054" x2="199.2293" y2="-142.5468" gradientTransform="matrix(1 0 0 -1 -125.4 367.5)">
		<stop  offset="0" style="stop-color:#09005D"/>
		<stop  offset="1" style="stop-color:#1A0F91"/>
	</linearGradient>
	<path class="st13" d="M67.9,499.2c0,0-0.6,3.1-0.9,6.2c0,0.3,0,0.6,0.1,0.8c0.1,0.3,0.2,0.5,0.4,0.7c0.2,0.2,0.4,0.4,0.7,0.5
		c0.3,0.1,0.5,0.2,0.8,0.2c4.1,0.2,12.9,0.6,16,0.5c0.1,0,0.2,0,0.3-0.1c0.1-0.1,0.2-0.1,0.2-0.2c0.1-0.1,0.1-0.2,0.1-0.3
		c0-0.1,0-0.2,0-0.3c-0.1-0.4-0.4-0.7-0.8-0.8l-14.4-6.8L67.9,499.2z"/>
	
		<linearGradient id="SVGID_9_" gradientUnits="userSpaceOnUse" x1="192.8379" y1="-131.7046" x2="197.5443" y2="-131.7486" gradientTransform="matrix(1 0 0 -1 -125.4 367.5)">
		<stop  offset="0" style="stop-color:#FEBBBA"/>
		<stop  offset="1" style="stop-color:#FF928E"/>
	</linearGradient>
	<path class="st14" d="M67.5,497.4l0.4,3.7c0,0,2.5,1.2,4.3-0.1l-1-4.2L67.5,497.4z"/>
	
		<linearGradient id="SVGID_10_" gradientUnits="userSpaceOnUse" x1="214.957" y1="-62.3893" x2="169.2935" y2="-123.0753" gradientTransform="matrix(1 0 0 -1 -125.4 367.5)">
		<stop  offset="0" style="stop-color:#090056"/>
		<stop  offset="1" style="stop-color:#020039"/>
	</linearGradient>
	<path class="st15" d="M68.5,427.5c-0.2,1-1.5,48.4,3.4,69.7c0,0.2,0,0.3-0.1,0.5c-0.1,0.2-0.2,0.3-0.4,0.3
		c-1.3,0.5-2.7,0.8-4.1,0.8c-0.3,0-0.5-0.1-0.8-0.2c-0.2-0.2-0.4-0.4-0.5-0.7c-1.4-4.9-8.1-29.7-8.8-53.4c-0.8-26.4,0-0.9,0-0.9
		l0.7-16.3L68.5,427.5z"/>
	
		<linearGradient id="SVGID_11_" gradientUnits="userSpaceOnUse" x1="181.3306" y1="-134.7239" x2="175.7744" y2="-140.5965" gradientTransform="matrix(1 0 0 -1 -125.4 367.5)">
		<stop  offset="0" style="stop-color:#09005D"/>
		<stop  offset="1" style="stop-color:#1A0F91"/>
	</linearGradient>
	<path class="st16" d="M51.3,500.7c0,0-0.9,1.6-1.8,5.7c0,0.2,0,0.4,0,0.5c0,0.2,0.1,0.3,0.2,0.5c0.1,0.1,0.2,0.3,0.4,0.4
		c0.2,0.1,0.3,0.1,0.5,0.2c1.4,0.1,3.4,0.3,5.1,0.3c0.2,0,0.4,0,0.5-0.1c0.2-0.1,0.3-0.2,0.4-0.3c0.1-0.1,0.2-0.3,0.3-0.5
		c0.1-0.2,0.1-0.4,0.1-0.5c-0.2-1.5-0.7-4-2.5-6L51.3,500.7z"/>
	
		<linearGradient id="SVGID_12_" gradientUnits="userSpaceOnUse" x1="175.9518" y1="-131.3375" x2="179.9603" y2="-131.3375" gradientTransform="matrix(1 0 0 -1 -125.4 367.5)">
		<stop  offset="0" style="stop-color:#FEBBBA"/>
		<stop  offset="1" style="stop-color:#FF928E"/>
	</linearGradient>
	<path class="st17" d="M50.6,495.9l1,5.6c0,0,1,0.8,3,0.2l-0.4-6.1L50.6,495.9z"/>
	
		<linearGradient id="SVGID_13_" gradientUnits="userSpaceOnUse" x1="205.025" y1="-84.4853" x2="163.7497" y2="-101.7177" gradientTransform="matrix(1 0 0 -1 -125.4 367.5)">
		<stop  offset="0" style="stop-color:#090056"/>
		<stop  offset="1" style="stop-color:#020039"/>
	</linearGradient>
	<path class="st18" d="M48.4,428.8c-4.4,25,0.3,61.9,1.9,69.1c0,0.2,0.2,0.4,0.3,0.6c0.2,0.2,0.4,0.3,0.6,0.3c0.8,0.1,2,0.2,3.2-0.1
		c0.2-0.1,0.4-0.2,0.5-0.3c0.1-0.2,0.2-0.4,0.2-0.6c0.3-5.8,0.2-41.6,4.2-55.7c0.2-0.7,0.6-1.3,1.3-1.8l7.6-5.3l0.7-8.6L48.4,428.8z
		"/>
	
		<linearGradient id="SVGID_14_" gradientUnits="userSpaceOnUse" x1="-1583.4348" y1="1534.9301" x2="-1511.9148" y2="1471.62" gradientTransform="matrix(1 0 0 -1 -125.4 367.5)">
		<stop  offset="0" style="stop-color:#4F52FF"/>
		<stop  offset="1" style="stop-color:#4042E2"/>
	</linearGradient>
	<path class="st19" d="M75.3,381.6c-12.4-0.3-26.2,3-26.2,3c-3.9,21.6-1.1,46.6-1.1,46.6c9.6,2.6,20.5-1.3,20.5-1.3
		c1.7-9,9.4-34.4,9.4-34.4c6.1-0.7,11.1-2.4,15.2-4.7c-3.1-3.7-4.5-8.3-5.2-11.1C83.6,381,79.1,381.7,75.3,381.6z"/>
	
		<linearGradient id="SVGID_15_" gradientUnits="userSpaceOnUse" x1="213.3912" y1="-9.2303" x2="237.596" y2="-9.2303" gradientTransform="matrix(1 0 0 -1 -125.4 367.5)">
		<stop  offset="0" style="stop-color:#FEBBBA"/>
		<stop  offset="1" style="stop-color:#FF928E"/>
	</linearGradient>
	<path class="st20" d="M112.2,363.6c-1.2-1.5-2.8-0.8-2.8-0.8c-1.9,7.7-11.6,13.9-21.4,16.9c0.6,2.7,2.1,7.4,5.2,11.1
		C109.6,381.7,112.2,363.6,112.2,363.6z"/>
	
		<linearGradient id="SVGID_16_" gradientUnits="userSpaceOnUse" x1="2516.9194" y1="3031.4985" x2="-81.481" y2="-416.2025" gradientTransform="matrix(1 0 0 -1 -125.4 367.5)">
		<stop  offset="0" style="stop-color:#FEBBBA"/>
		<stop  offset="1" style="stop-color:#FF928E"/>
	</linearGradient>
	<path class="st21" d="M111.9,364c0.1,0.4-1.4,1-2.2-0.7c0-0.8-0.5-4.2,0-4.9c2.6-3.4,7.5-7.7,7.5-7.7c0.8,0.8,0.1,1.6,0.1,1.6
		l-2.4,2.5c0.5,0.9,1.1,1.7,1.4,2.8c0.2,0.8,0.1,1.7-0.4,2.5c-0.4,0.7-1,1.7-1.6,2.5C113.4,364,111.9,364,111.9,364z"/>
	
		<linearGradient id="SVGID_17_" gradientUnits="userSpaceOnUse" x1="237.0461" y1="6.6239" x2="240.5347" y2="9.7241" gradientTransform="matrix(1 0 0 -1 -125.4 367.5)">
		<stop  offset="0" style="stop-color:#FEBBBA"/>
		<stop  offset="1" style="stop-color:#FF928E"/>
	</linearGradient>
	<path class="st22" d="M113.9,356.5l-2.2,1.8l-0.7,1.8l1.9,2.2c0,0,0.7-3.6,1.2-4.4C114.6,357.1,114.3,356.7,113.9,356.5z"/>
	
		<linearGradient id="SVGID_18_" gradientUnits="userSpaceOnUse" x1="178.7971" y1="-22.5502" x2="161.7218" y2="-36.0347" gradientTransform="matrix(1 0 0 -1 -125.4 367.5)">
		<stop  offset="0" style="stop-color:#4F52FF"/>
		<stop  offset="1" style="stop-color:#4042E2"/>
	</linearGradient>
	<path class="st23" d="M53.8,396.7l-4.7-12.1c0,0-11.7,7.8-13.7,17.8c2.2,0.2,6.2,0.8,10.1,2.8C46.4,400.5,53.8,396.7,53.8,396.7z"
		/>
	
		<linearGradient id="SVGID_19_" gradientUnits="userSpaceOnUse" x1="160.5284" y1="-42.718" x2="190.9034" y2="-42.718" gradientTransform="matrix(1 0 0 -1 -125.4 367.5)">
		<stop  offset="0" style="stop-color:#FEBBBA"/>
		<stop  offset="1" style="stop-color:#FF928E"/>
	</linearGradient>
	<path class="st24" d="M63.8,408.1c0,0-13.1,7.2-17.4,0.9c-0.9-1.3-1.1-2.6-0.9-3.9c-3.9-2-7.9-2.6-10.1-2.8c-0.6,3-0.3,6.2,1.4,9.5
		c7.6,14.2,28.7-0.5,28.7-0.5L63.8,408.1z"/>
	
		<linearGradient id="SVGID_20_" gradientUnits="userSpaceOnUse" x1="184.1094" y1="-10.3886" x2="196.2512" y2="-10.3886" gradientTransform="matrix(1 0 0 -1 -125.4 367.5)">
		<stop  offset="0" style="stop-color:#FEBBBA"/>
		<stop  offset="1" style="stop-color:#FF928E"/>
	</linearGradient>
	<path class="st25" d="M62.8,371.4l-4.1,11.4c0,0.1,0,0.2,0,0.3c0,0.1,0.1,0.2,0.2,0.2c1.1,0.6,4.9,2.4,9.7-0.6
		c0.2-0.1,0.5-0.3,0.6-0.6c0.2-0.2,0.3-0.5,0.3-0.8l1.4-9.9L62.8,371.4z"/>
	
		<linearGradient id="SVGID_21_" gradientUnits="userSpaceOnUse" x1="201.2845" y1="-4.1517" x2="187.2663" y2="4.5267" gradientTransform="matrix(1 0 0 -1 -125.4 367.5)">
		<stop  offset="0" style="stop-color:#FEBBBA"/>
		<stop  offset="1" style="stop-color:#FF928E"/>
	</linearGradient>
	<path class="st26" d="M71.5,360.9c0,0,4.3,8.2,3.7,11.5c-0.6,3.3-6,3-10.6,0.3l-3.2-8.9L71.5,360.9z"/>
	
		<linearGradient id="SVGID_22_" gradientUnits="userSpaceOnUse" x1="184.3101" y1="9.6933" x2="195.4795" y2="0.6932" gradientTransform="matrix(1 0 0 -1 -125.4 367.5)">
		<stop  offset="0" style="stop-color:#09005D"/>
		<stop  offset="1" style="stop-color:#1A0F91"/>
	</linearGradient>
	<path class="st27" d="M64.8,368.4c0,0,0.1,0,0.1-0.1c0,0,0.1-0.1,0.1-0.1c0,0,0-0.1,0-0.1c0,0,0-0.1-0.1-0.1
		c-0.3-0.5-1-1.6-1.2-2.6c0,0-0.8-0.5,2-1.1c2.8-0.6,6.9-1.6,7.8-4c0.9-2.3-1.3-8.1-4.9-3.5c0,0-0.1,0.1-0.1,0.1c0,0-0.1,0-0.1,0
		c-0.1,0-0.1,0-0.1,0c0,0-0.1-0.1-0.1-0.1c-0.6-0.8-2.1-2.3-4.2-1.4c-2,0.9-2.2,2.3-2.2,3.1c0,0.1,0,0.1,0,0.1c0,0-0.1,0.1-0.1,0.1
		c0,0-0.1,0.1-0.1,0.1c0,0-0.1,0-0.1,0c-1-0.2-3.4-0.4-4.6,2.1c-0.9,2-0.4,3.2,0.2,3.8c0,0,0.1,0.1,0.1,0.1c0,0.1,0,0.1,0,0.2
		c0,0.1,0,0.1-0.1,0.1c0,0-0.1,0.1-0.1,0.1c-0.7,0.2-1.5,0.7-1.5,2.3c0.1,2.1,2.5,2,3.2,1.9c0.1,0,0.1,0,0.2,0
		c0.1,0,0.1,0.1,0.1,0.1c0.6,0.7,3.2,3.4,6,3.8c0.1,0,0.1,0,0.2,0c0.1,0,0.1-0.1,0.1-0.1c0,0,0.1-0.1,0.1-0.2c0-0.1,0-0.1,0-0.2
		L64,369c0-0.1,0-0.2,0-0.2c0-0.1,0.1-0.1,0.2-0.2L64.8,368.4z"/>
	
		<linearGradient id="SVGID_23_" gradientUnits="userSpaceOnUse" x1="191.3061" y1="-3.3779" x2="187.5423" y2="-0.5368" gradientTransform="matrix(1 0 0 -1 -125.4 367.5)">
		<stop  offset="0" style="stop-color:#FEBBBA"/>
		<stop  offset="1" style="stop-color:#FF928E"/>
	</linearGradient>
	<path class="st28" d="M65.3,368.9c0,0-3.1-2.2-3.3-0.4c-0.2,1.8,2.8,2.6,4.3,2L65.3,368.9z"/>
	
		<linearGradient id="SVGID_24_" gradientUnits="userSpaceOnUse" x1="200.0425" y1="-25.4341" x2="205.6824" y2="-52.7962" gradientTransform="matrix(1 0 0 -1 -125.4 367.5)">
		<stop  offset="0" style="stop-color:#09005D"/>
		<stop  offset="1" style="stop-color:#1A0F91"/>
	</linearGradient>
	<path class="st29" d="M61.1,419.6l7.1-24.9c0-0.1,0.1-0.3,0.2-0.4c0.1-0.1,0.2-0.2,0.4-0.2c1.3-0.2,5-0.6,9.4-0.9
		c5.2-0.4,11.3-0.8,14.9-0.5c0.1,0,0.2,0,0.3,0.1c0.1,0.1,0.2,0.2,0.2,0.3c0.1,0.1,0.1,0.2,0.1,0.3c0,0.1,0,0.2-0.1,0.3
		c-2.1,4.2-10.5,21.1-14.8,26.6c-0.1,0.1-0.2,0.2-0.3,0.2c-0.1,0.1-0.2,0.1-0.3,0.1l-16.6-0.2c-0.1,0-0.2,0-0.3-0.1
		c-0.1-0.1-0.2-0.1-0.3-0.2s-0.1-0.2-0.1-0.3C61.1,419.8,61.1,419.7,61.1,419.6z"/>
	
		<linearGradient id="SVGID_25_" gradientUnits="userSpaceOnUse" x1="187.5655" y1="-41.831" x2="197.0796" y2="-41.831" gradientTransform="matrix(1 0 0 -1 -125.4 367.5)">
		<stop  offset="0" style="stop-color:#FEBBBA"/>
		<stop  offset="1" style="stop-color:#FF928E"/>
	</linearGradient>
	<path class="st30" d="M62.9,413.6c0,0-1-4.1-0.6-5.5c0.4-1.5,1.2-3.3,3.8-2.9c2.6,0.4,5.6,1.5,5.6,1.5s-0.2,1.9-2.1,1.3l1.2,0.9
		c0,0-0.2,1.5-1.8,0.7l1.1,1.3c0,0-0.7,1.2-1.9,0.4C66.9,410.5,66.3,414.1,62.9,413.6z"/>
	<path class="st3" d="M77.8,400.6c0,0.4,0.1,0.8,0.4,1.2c0.2,0.3,0.6,0.6,0.9,0.8c0.4,0.2,0.8,0.2,1.2,0.1s0.8-0.3,1.1-0.6
		c0.3-0.3,0.5-0.7,0.6-1.1c0.1-0.4,0-0.8-0.1-1.2c-0.2-0.4-0.4-0.7-0.8-0.9c-0.3-0.2-0.8-0.4-1.2-0.4c-0.3,0-0.5,0.1-0.8,0.2
		c-0.3,0.1-0.5,0.3-0.7,0.5s-0.3,0.4-0.5,0.7C77.8,400.1,77.8,400.4,77.8,400.6z"/>
	<path class="st5" d="M69.1,402l1.5-4.9c0.1-0.3,0.2-0.6,0.5-0.8c0.2-0.2,0.5-0.4,0.8-0.4c4.6-1,17-1.2,17.2-1.2l0-0.6
		c-0.5,0-12.7,0.2-17.3,1.2c-0.4,0.1-0.8,0.3-1.1,0.6s-0.5,0.6-0.6,1l-1.5,4.9L69.1,402z"/>
	
		<linearGradient id="SVGID_26_" gradientUnits="userSpaceOnUse" x1="2656.1147" y1="1872.8723" x2="33244.5156" y2="26448.1621" gradientTransform="matrix(1 0 0 -1 -125.4 367.5)">
		<stop  offset="0" style="stop-color:#4F52FF"/>
		<stop  offset="1" style="stop-color:#4042E2"/>
	</linearGradient>
	<path class="st31" d="M165.2,404.3l-21.6,1.5c-0.2,0-0.4,0-0.6-0.1c-0.2-0.1-0.3-0.3-0.4-0.5c-0.1-0.2-0.1-0.4-0.1-0.7
		c0-0.2,0.2-0.4,0.3-0.6l20.7-15.3L165.2,404.3z"/>
	
		<linearGradient id="SVGID_27_" gradientUnits="userSpaceOnUse" x1="10205.2197" y1="11192.5811" x2="137176.2344" y2="155439.5781" gradientTransform="matrix(1 0 0 -1 -125.4 367.5)">
		<stop  offset="0" style="stop-color:#4F52FF"/>
		<stop  offset="1" style="stop-color:#4042E2"/>
	</linearGradient>
	<path class="st32" d="M288.5,335.3L167,334.5c-2.8,0-5,2-5,4.6l0.5,61.2c0,2.6,2.3,4.6,5.1,4.5l120.2-3.3c2.7-0.1,4.8-2,4.8-4.5
		l0.8-57.1C293.5,337.3,291.2,335.3,288.5,335.3z"/>
	<path class="st3" d="M171.2,400.1c-1.4,0-2.7-0.5-3.7-1.4c-0.4-0.3-0.7-0.8-0.9-1.2c-0.2-0.5-0.3-1-0.3-1.5l-0.5-53.3
		c0-0.5,0.1-1,0.3-1.5c0.2-0.5,0.5-0.9,0.9-1.2c0.9-0.9,2.3-1.5,3.8-1.5l114.3,0.6c1.4,0,2.8,0.6,3.7,1.5c0.4,0.4,0.6,0.8,0.8,1.2
		s0.3,1,0.3,1.5l-0.8,49.8c0,2.2-2.1,4-4.7,4.1l-113,2.9L171.2,400.1z M170.8,338.9c-1.3,0-2.6,0.5-3.4,1.4
		c-0.3,0.3-0.6,0.7-0.8,1.1c-0.2,0.4-0.3,0.9-0.3,1.3l0.5,53.3c0,0.5,0.1,0.9,0.3,1.3c0.2,0.4,0.5,0.8,0.8,1.1
		c0.9,0.9,2.2,1.3,3.5,1.3l113-2.9c2.4-0.1,4.3-1.7,4.4-3.7l0.8-49.8c0-0.5-0.1-0.9-0.3-1.3c-0.2-0.4-0.4-0.8-0.8-1.1
		c-0.9-0.9-2.1-1.4-3.4-1.4L170.8,338.9L170.8,338.9z"/>
	
		<linearGradient id="SVGID_28_" gradientUnits="userSpaceOnUse" x1="206.0727" y1="-17.6705" x2="363.1077" y2="-137.9435" gradientTransform="matrix(1 0 0 -1 -125.4 367.5)">
		<stop  offset="0" style="stop-color:#E1473D"/>
		<stop  offset="1" style="stop-color:#E9605A"/>
	</linearGradient>
	<path class="st33" d="M163.3,438.8c-4.8,5.2-4.2,15.4,1.2,23.3c0.2,0.3,0.5,0.6,0.7,0.9c4.5,5.7,9.1,11.4,13.6,17.1
		c5.2,6.5,8.5,13.8,13.6,20.3c0.4,0.5,2.9,0,3.6,0c0.3,0,0.7,0,1-0.2c0.3-0.1,0.6-0.3,0.8-0.6c9.3-10,18.5-20,27.7-29.9
		c0.2-0.2,0.4-0.5,0.5-0.9c0.1-0.3,0.1-0.7,0.1-1c0-0.3-0.1-0.7-0.3-1c-0.2-0.3-0.4-0.5-0.7-0.7c-5.3-3.7-10.6-7.4-15.8-11.1
		c-7.5-5.3-14.9-10.6-22.4-15.9c-0.3-0.2-0.6-0.4-1-0.7C178,433.7,168.1,433.6,163.3,438.8z"/>
	
		<linearGradient id="SVGID_29_" gradientUnits="userSpaceOnUse" x1="68728.9062" y1="-54079.9531" x2="157551.9062" y2="-124170.25" gradientTransform="matrix(1 0 0 -1 -125.4 367.5)">
		<stop  offset="0" style="stop-color:#E1473D"/>
		<stop  offset="1" style="stop-color:#E9605A"/>
	</linearGradient>
	<path class="st34" d="M133.2,411.7c-0.6,0.6,1.7,2,2,2.8l15.5,56.5c0.3,0.8,2.6,0.2,3.4,0.4c0.4,0.1,0.8,0.1,1.2,0
		c0.4-0.1,0.8-0.4,1-0.7l38.2-41.5c0.3-0.3,0.5-0.7,0.6-1.1c0.1-0.4,0.1-0.8,0-1.2c-0.1-0.4-0.3-0.8-0.6-1c-0.3-0.3-0.7-0.5-1.1-0.6
		l-55.4-13.8C137.2,411.3,133.8,411.1,133.2,411.7z"/>
	
		<linearGradient id="SVGID_30_" gradientUnits="userSpaceOnUse" x1="254.173" y1="-45.7958" x2="343.863" y2="-126.1058" gradientTransform="matrix(1 0 0 -1 -125.4 367.5)">
		<stop  offset="0" style="stop-color:#FF928E"/>
		<stop  offset="1" style="stop-color:#FE7062"/>
	</linearGradient>
	<path class="st35" d="M160.1,438.8c-4.8,5.2-4.2,15.4,1.2,23.3c0.2,0.3,0.5,0.6,0.7,0.9c4.5,5.7,9.1,11.4,13.6,17.1
		c5.2,6.5,10.3,13,15.5,19.4c0.2,0.3,0.5,0.5,0.8,0.6c0.3,0.2,0.6,0.2,1,0.3c0.3,0,0.7,0,1-0.2c0.3-0.1,0.6-0.3,0.8-0.6
		c9.3-10,18.5-20,27.7-29.9c0.2-0.2,0.4-0.5,0.5-0.9c0.1-0.3,0.1-0.7,0.1-1c0-0.3-0.1-0.7-0.3-1c-0.2-0.3-0.4-0.5-0.7-0.7
		c-5.3-3.7-10.6-7.4-15.8-11.1c-7.5-5.3-14.9-10.6-22.4-15.9c-0.3-0.2-0.6-0.4-1-0.7C174.7,433.7,164.9,433.6,160.1,438.8z"/>
	
		<linearGradient id="SVGID_31_" gradientUnits="userSpaceOnUse" x1="89958.2188" y1="-80365.9141" x2="138237.5156" y2="-123595.9141" gradientTransform="matrix(1 0 0 -1 -125.4 367.5)">
		<stop  offset="0" style="stop-color:#FF928E"/>
		<stop  offset="1" style="stop-color:#FE7062"/>
	</linearGradient>
	<path class="st36" d="M132.5,412.2c-0.3,0.3-0.5,0.7-0.6,1.1c-0.1,0.4-0.1,0.8,0,1.2l17.1,55.3c0.1,0.4,0.4,0.8,0.7,1
		c0.3,0.3,0.7,0.5,1.1,0.6c0.4,0.1,0.8,0.1,1.2,0c0.4-0.1,0.8-0.4,1-0.7l38.2-41.5c0.3-0.3,0.5-0.7,0.6-1.1c0.1-0.4,0.1-0.8,0-1.2
		c-0.1-0.4-0.3-0.8-0.6-1c-0.3-0.3-0.7-0.5-1.1-0.6l-55.4-13.8c-0.4-0.1-0.8-0.1-1.2,0C133.2,411.7,132.8,411.9,132.5,412.2z"/>
	<path class="st37" d="M199.4,372h-7.2l-1.4,4.1h-4.3l7.4-19.8h3.8l7.4,19.8h-4.3L199.4,372z M193.3,368.7h5l-2.5-7.4L193.3,368.7z"
		/>
	<path class="st37" d="M214.7,372c0-0.5-0.2-0.9-0.7-1.1c-0.5-0.3-1.2-0.5-2.3-0.8c-3.5-0.7-5.3-2.2-5.3-4.5c0-1.3,0.5-2.4,1.6-3.3
		c1.1-0.9,2.5-1.3,4.3-1.3c1.9,0,3.4,0.4,4.5,1.3c1.1,0.9,1.7,2,1.7,3.4h-3.9c0-0.6-0.2-1-0.5-1.4c-0.4-0.4-0.9-0.6-1.7-0.6
		c-0.7,0-1.2,0.1-1.5,0.5c-0.4,0.3-0.5,0.7-0.5,1.1c0,0.4,0.2,0.8,0.6,1.1c0.4,0.3,1.1,0.5,2.1,0.7c1,0.2,1.8,0.4,2.5,0.7
		c2.1,0.8,3.1,2.1,3.1,4c0,1.3-0.6,2.4-1.7,3.3c-1.2,0.8-2.6,1.2-4.5,1.2c-1.2,0-2.3-0.2-3.3-0.7c-1-0.4-1.7-1-2.2-1.8
		c-0.5-0.8-0.8-1.6-0.8-2.5h3.7c0,0.7,0.3,1.2,0.8,1.6c0.5,0.4,1.1,0.6,1.9,0.6c0.8,0,1.3-0.1,1.7-0.4
		C214.5,372.8,214.7,372.5,214.7,372z"/>
	<path class="st37" d="M229,372c0-0.5-0.2-0.9-0.7-1.1c-0.5-0.3-1.2-0.5-2.3-0.8c-3.5-0.7-5.3-2.2-5.3-4.5c0-1.3,0.5-2.4,1.6-3.3
		c1.1-0.9,2.5-1.3,4.3-1.3c1.9,0,3.4,0.4,4.5,1.3c1.1,0.9,1.7,2,1.7,3.4h-3.9c0-0.6-0.2-1-0.5-1.4c-0.4-0.4-0.9-0.6-1.7-0.6
		c-0.7,0-1.2,0.1-1.5,0.5c-0.4,0.3-0.5,0.7-0.5,1.1c0,0.4,0.2,0.8,0.6,1.1c0.4,0.3,1.1,0.5,2.1,0.7c1,0.2,1.8,0.4,2.5,0.7
		c2.1,0.8,3.1,2.1,3.1,4c0,1.3-0.6,2.4-1.7,3.3c-1.2,0.8-2.6,1.2-4.5,1.2c-1.2,0-2.3-0.2-3.3-0.7c-1-0.4-1.7-1-2.2-1.8
		c-0.5-0.8-0.8-1.6-0.8-2.5h3.7c0,0.7,0.3,1.2,0.8,1.6c0.5,0.4,1.1,0.6,1.9,0.6c0.8,0,1.3-0.1,1.7-0.4
		C228.8,372.8,229,372.5,229,372z"/>
	<path class="st37" d="M242.2,376.4c-2.2,0-3.9-0.7-5.3-2c-1.4-1.3-2-3.1-2-5.3v-0.4c0-1.5,0.3-2.8,0.9-4c0.6-1.2,1.4-2.1,2.4-2.7
		c1.1-0.6,2.3-1,3.6-1c2,0,3.6,0.6,4.8,1.9c1.2,1.3,1.7,3.1,1.7,5.4v1.6h-9.4c0.1,1,0.5,1.7,1.1,2.3c0.6,0.6,1.5,0.9,2.4,0.9
		c1.5,0,2.7-0.5,3.6-1.6l1.9,2.2c-0.6,0.8-1.4,1.5-2.4,2C244.5,376.1,243.4,376.4,242.2,376.4z M241.7,364.2c-0.8,0-1.4,0.3-1.9,0.8
		c-0.5,0.5-0.8,1.3-0.9,2.3h5.5V367c0-0.9-0.3-1.5-0.7-2C243.2,364.5,242.6,364.2,241.7,364.2z"/>
	<path class="st37" d="M255.2,357.7v3.6h2.5v2.9h-2.5v7.4c0,0.5,0.1,0.9,0.3,1.2c0.2,0.2,0.6,0.4,1.2,0.4c0.4,0,0.8,0,1.2-0.1v3
		c-0.8,0.2-1.6,0.4-2.4,0.4c-2.8,0-4.2-1.4-4.2-4.2v-7.9h-2.2v-2.9h2.2v-3.6H255.2z"/>
	<path class="st37" d="M267.9,372c0-0.5-0.2-0.9-0.7-1.1c-0.5-0.3-1.2-0.5-2.3-0.8c-3.5-0.7-5.3-2.2-5.3-4.5c0-1.3,0.5-2.4,1.6-3.3
		c1.1-0.9,2.5-1.3,4.3-1.3c1.9,0,3.4,0.4,4.5,1.3c1.1,0.9,1.7,2,1.7,3.4h-3.9c0-0.6-0.2-1-0.5-1.4c-0.4-0.4-0.9-0.6-1.7-0.6
		c-0.7,0-1.2,0.1-1.5,0.5c-0.4,0.3-0.5,0.7-0.5,1.1c0,0.4,0.2,0.8,0.6,1.1c0.4,0.3,1.1,0.5,2.1,0.7c1,0.2,1.8,0.4,2.5,0.7
		c2.1,0.8,3.1,2.1,3.1,4c0,1.3-0.6,2.4-1.7,3.3c-1.2,0.8-2.6,1.2-4.5,1.2c-1.2,0-2.3-0.2-3.3-0.7c-1-0.4-1.7-1-2.2-1.8
		c-0.5-0.8-0.8-1.6-0.8-2.5h3.7c0,0.7,0.3,1.2,0.8,1.6c0.5,0.4,1.1,0.6,1.9,0.6c0.8,0,1.3-0.1,1.7-0.4
		C267.7,372.8,267.9,372.5,267.9,372z"/>
</g>
</svg>
