<?xml version="1.0" encoding="utf-8"?>
<!-- Generator: Adobe Illustrator 25.2.1, SVG Export Plug-In . SVG Version: 6.00 Build 0)  -->
<svg version="1.1" id="Layer_1" xmlns="http://www.w3.org/2000/svg" xmlns:xlink="http://www.w3.org/1999/xlink" x="0px" y="0px"
	 width="461px" height="470px" viewBox="0 0 461 470" style="enable-background:new 0 0 461 470;" xml:space="preserve">
<style type="text/css">
	.st0{clip-path:url(#SVGID_2_);}
	.st1{fill:none;stroke:#071E4B;stroke-width:3;stroke-linecap:round;stroke-miterlimit:10;stroke-opacity:0.6;}
	.st2{clip-path:url(#SVGID_4_);}
	.st3{fill:none;stroke:#071E4B;stroke-miterlimit:10;stroke-opacity:0.6;}
	.st4{fill:none;stroke:#071E4B;stroke-width:2;stroke-miterlimit:10;}
	.st5{opacity:0.62;}
	.st6{fill:none;stroke:#071E4B;stroke-miterlimit:10;}
	.st7{fill:none;stroke:#071E4B;stroke-width:2;stroke-miterlimit:10;stroke-opacity:0.6;}
</style>
<g>
	<g>
		<defs>
			<rect id="SVGID_1_" x="392.5" y="307.7" width="68.5" height="133.9"/>
		</defs>
		<clipPath id="SVGID_2_">
			<use xlink:href="#SVGID_1_"  style="overflow:visible;"/>
		</clipPath>
		<g class="st0">
			<path class="st1" d="M405.2,325.5c22.5,5.1,39.3,25.2,39.3,49.2c0,26-19.6,47.3-44.8,50.1"/>
			<path class="st1" d="M407.6,310.6c29.7,6.2,51.9,32.5,51.9,64c0,33.8-25.7,61.7-58.6,65.1"/>
			<path class="st1" d="M403.2,340.2c15.2,4.1,26.5,18,26.5,34.5c0,18.1-13.5,33.1-31,35.4"/>
			<path class="st1" d="M401.2,354.9c8.1,3,13.8,10.7,13.8,19.7c0,10.3-7.5,18.9-17.3,20.7"/>
		</g>
	</g>
</g>
<g>
	<g>
		<defs>
			<rect id="SVGID_3_" x="328.6" y="69.8" width="100.2" height="57.2"/>
		</defs>
		<clipPath id="SVGID_4_">
			<use xlink:href="#SVGID_3_"  style="overflow:visible;"/>
		</clipPath>
		<g class="st2">
			<path class="st3" d="M333.5,127v-9.8 M338.4,122.1h-9.8H338.4z"/>
			<path class="st3" d="M333.5,102.9v-9.8 M338.4,98h-9.8H338.4z"/>
			<path class="st3" d="M333.5,79.6v-9.8 M338.4,74.7h-9.8H338.4z"/>
			<path class="st4" d="M333.5,127v-9.8 M338.4,122.1h-9.8H338.4z"/>
			<path class="st4" d="M333.5,102.9v-9.8 M338.4,98h-9.8H338.4z"/>
			<path class="st4" d="M333.5,79.6v-9.8 M338.4,74.7h-9.8H338.4z"/>
			<path class="st3" d="M356.1,127v-9.8 M361,122.1h-9.8H361z"/>
			<path class="st3" d="M356.1,102.9v-9.8 M361,98h-9.8H361z"/>
			<path class="st3" d="M356.1,79.6v-9.8 M361,74.7h-9.8H361z"/>
			<path class="st4" d="M356.1,127v-9.8 M361,122.1h-9.8H361z"/>
			<path class="st4" d="M356.1,102.9v-9.8 M361,98h-9.8H361z"/>
			<path class="st4" d="M356.1,79.6v-9.8 M361,74.7h-9.8H361z"/>
			<path class="st3" d="M378.7,102.9v-9.8 M383.6,98h-9.8H383.6z"/>
			<path class="st3" d="M378.7,79.6v-9.8 M383.6,74.7h-9.8H383.6z"/>
			<path class="st4" d="M378.7,102.9v-9.8 M383.6,98h-9.8H383.6z"/>
			<path class="st4" d="M378.7,79.6v-9.8 M383.6,74.7h-9.8H383.6z"/>
			<path class="st3" d="M401.3,102.9v-9.8 M406.2,98h-9.8H406.2z"/>
			<path class="st3" d="M401.3,79.6v-9.8 M406.2,74.7h-9.8H406.2z"/>
			<path class="st4" d="M401.3,102.9v-9.8 M406.2,98h-9.8H406.2z"/>
			<path class="st4" d="M401.3,79.6v-9.8 M406.2,74.7h-9.8H406.2z"/>
			<path class="st3" d="M423.9,102.9v-9.8 M428.8,98H419H428.8z"/>
			<path class="st3" d="M423.9,79.6v-9.8 M428.8,74.7H419H428.8z"/>
			<path class="st4" d="M423.9,102.9v-9.8 M428.8,98H419H428.8z"/>
			<path class="st4" d="M423.9,79.6v-9.8 M428.8,74.7H419H428.8z"/>
		</g>
	</g>
</g>
<g>
	<g class="st5">
		<path class="st6" d="M43.8,190v-9.8 M48.7,185.1h-9.8H48.7z"/>
		<path class="st6" d="M43.8,166.7v-9.8 M48.7,161.8h-9.8H48.7z"/>
		<path class="st7" d="M43.8,190v-9.8 M48.7,185.1h-9.8H48.7z"/>
		<path class="st7" d="M43.8,166.7v-9.8 M48.7,161.8h-9.8H48.7z"/>
		<path class="st6" d="M66.4,190v-9.8 M71.3,185.1h-9.8H71.3z"/>
		<path class="st6" d="M66.4,166.7v-9.8 M71.3,161.8h-9.8H71.3z"/>
		<path class="st6" d="M89,190v-9.8 M93.9,185.1h-9.8H93.9z"/>
		<path class="st6" d="M89,166.7v-9.8 M93.9,161.8h-9.8H93.9z"/>
	</g>
</g>
</svg>
