<svg width="242" height="182" viewBox="0 0 242 182" fill="none" xmlns="http://www.w3.org/2000/svg">
<path d="M27.5952 177.598C27.5952 177.598 6.56397 166.172 1.09917 139.676C-4.36563 113.18 19.3704 88.9471 21.6336 75.6991C23.8968 62.4511 18.8736 46.0015 39.9048 33.1951C60.936 20.3887 98.3616 24.9703 112.548 21.7687C126.734 18.5671 143.129 -3.34728 171.502 1.67592C199.819 6.69912 227.254 21.7687 228.578 54.6679C229.958 87.5671 219.415 88.4503 229.958 106.28C240.446 124.11 244.586 136.419 239.563 154.69C234.54 172.962 224.052 177.985 224.052 177.985L27.5952 177.598Z" fill="#E8F2FF"/>
<path d="M71.4792 171.637C70.1544 170.257 51 131.893 72.3624 96.7303C93.7248 61.5679 147.324 65.6527 168.686 79.3975C190.049 93.1423 200.482 110.917 202.69 129.629C204.842 148.342 190.49 177.598 190.49 177.598L71.4792 171.637Z" fill="#DDECFF"/>
<path d="M221.844 107.053H197.225C195.679 107.053 194.465 105.838 194.465 104.293V91.9831C194.465 90.4375 195.679 89.2231 197.225 89.2231H221.844C223.39 89.2231 224.604 90.4375 224.604 91.9831V104.293C224.604 105.838 223.334 107.053 221.844 107.053Z" fill="#60A8FF"/>
<path d="M209.534 114.008L213.398 104.79H205.615L209.534 114.008Z" fill="#60A8FF"/>
<path d="M209.424 95.0743H216.49V96.1231L219.912 94.1359L216.49 92.1487V93.1423H209.424V95.0743Z" fill="#223A7A"/>
<path d="M219.912 99.1592H212.846V98.1104L209.424 100.098L212.846 102.085V101.036H219.912V99.1592Z" fill="white"/>
<path d="M205.063 100.981L204.732 101.091C204.732 101.091 203.683 99.8767 203.131 98.6071C202.579 97.2823 202.579 95.7367 202.579 95.7367L202.8 95.6263L201.309 92.0383C201.033 92.2591 200.813 92.5351 200.592 92.8663C199.764 94.3015 199.819 96.4543 200.702 98.6071C201.53 100.76 202.469 102.637 204.125 103.851C205.118 104.569 205.946 104.679 206.609 104.569L205.063 100.981Z" fill="#223A7A"/>
<path d="M206.167 100.539L205.725 100.705L207.271 104.348C207.437 104.293 207.602 104.238 207.713 104.127C208.099 103.906 208.265 103.465 208.099 103.023L207.326 101.036C207.105 100.594 206.609 100.374 206.167 100.539Z" fill="#223A7A"/>
<path d="M202.524 91.3759C202.358 91.4311 202.138 91.5415 201.917 91.6519L203.462 95.2951L203.959 95.0743C204.401 94.9087 204.622 94.3567 204.456 93.9151L203.628 91.8727C203.462 91.4863 202.966 91.2103 202.524 91.3759Z" fill="#223A7A"/>
<path d="M64.3584 165.51V124.386C64.3584 124.386 63.9168 113.29 69.7128 110.089C75.5088 106.887 100.073 108.598 100.073 108.598V165.454H64.3584V165.51Z" fill="#1C83FF"/>
<path d="M107.801 70.1238C107.801 70.1238 106.31 82.599 105.758 83.5926C105.206 84.6414 105.206 84.6414 105.206 84.6414L102.336 86.5734C102.336 86.5734 107.801 94.3566 114.535 95.571C121.27 96.8406 120.718 92.811 120.718 92.811L119.669 90.6582L121.049 78.7902C121.049 78.7902 108.794 73.215 107.801 70.1238Z" fill="#FF9D8C"/>
<path d="M98.748 87.6222L103.219 85.6902C103.219 85.6902 106.09 90.3822 112.714 93.087C119.338 95.7918 119.448 94.2462 119.779 93.087C120.11 91.9278 119.669 90.7134 119.669 90.7134L120.166 86.739L122.815 87.6222L132.034 161.977L108.408 163.136L98.748 87.6222Z" fill="white"/>
<path d="M120.552 86.739C120.552 86.739 122.153 90.4374 123.643 99.1038C125.134 107.77 126.514 122.398 126.845 132.445C127.176 142.491 127.397 165.454 127.397 165.454C127.397 165.454 156.874 165.454 157.205 165.454C157.536 165.454 159.578 154.138 159.578 154.138C159.578 154.138 146.551 142.988 145.889 141.166C145.447 139.952 145.668 117.375 143.736 106.997C141.804 96.6198 139.265 94.5222 134.021 91.9278C128.611 89.2782 120.552 86.739 120.552 86.739Z" fill="#0D51D9"/>
<path d="M136.118 152.427C135.953 152.427 135.842 152.317 135.842 152.151C135.842 151.323 135.677 139.731 135.566 128.525C135.401 117.32 135.29 105.728 135.29 104.9C135.29 104.734 135.401 104.624 135.566 104.624C135.732 104.624 135.842 104.734 135.842 104.9C135.842 105.728 136.008 117.32 136.118 128.525C136.284 139.731 136.394 151.323 136.394 152.151C136.394 152.261 136.284 152.427 136.118 152.427Z" fill="#8593B6"/>
<path d="M76.7232 149.612L76.5024 165.509H111.223C111.223 165.509 112.714 152.041 112.162 150.771C111.554 149.501 76.7232 149.612 76.7232 149.612Z" fill="#223A7A"/>
<path d="M115.363 83.2613C116.798 84.4205 118.73 85.3037 120.221 85.8557L121.049 78.7901C121.049 78.7901 111.886 74.5949 108.739 71.4485C109.402 75.0365 111.002 79.7285 115.363 83.2613Z" fill="#8E9BBB"/>
<path d="M131.758 46.9399C131.758 46.9399 134.131 51.0247 134.628 56.1031C135.07 61.1263 134.628 74.0431 130.543 79.5079C126.458 84.9727 117.847 83.3719 113.983 80.0599C110.395 77.0239 106.918 73.6567 105.979 67.0327C105.041 60.4087 107.911 47.8231 116.026 45.2287C124.14 42.5791 131.758 46.9399 131.758 46.9399Z" fill="#FF9D8C"/>
<path d="M142.08 158.333C142.08 158.333 141.694 158.333 141.086 158.333C140.921 158.333 140.755 158.333 140.59 158.333C139.982 158.333 139.265 158.278 138.547 158.278C138.382 158.278 138.216 158.278 138.05 158.278C137.333 158.278 136.726 158.333 136.118 158.333C136.008 158.333 135.842 158.333 135.677 158.333C135.622 158.333 135.511 158.333 135.511 158.333C135.18 158.278 135.125 158.168 134.738 158.057C134.297 157.837 128.004 156.457 122.87 156.457C117.792 156.457 113.21 156.843 112.438 156.181C111.665 155.573 111.223 149.115 115.584 148.729L120.938 150.771C120.938 150.771 133.138 149.336 137.664 152.648C142.19 155.849 142.08 158.333 142.08 158.333Z" fill="#FF9D8C"/>
<path d="M136.174 158.278C136.063 158.278 135.898 158.278 135.732 158.278C135.622 158.113 135.401 157.781 135.235 157.671C133.855 156.291 130.543 155.353 129.329 155.077C129.218 155.021 129.163 154.911 129.163 154.856C129.163 154.745 129.329 154.69 129.439 154.69C131.206 155.132 134.959 156.181 136.008 158.002C136.008 157.947 136.118 158.168 136.174 158.278Z" fill="#223A7A"/>
<path d="M138.547 158.223C138.382 158.223 138.216 158.223 138.05 158.223C136.56 155.463 134.076 154.69 131.04 153.696L130.874 153.641C130.764 153.586 130.709 153.476 130.764 153.365C130.819 153.255 130.93 153.2 131.04 153.255L131.206 153.31C134.407 154.359 137.002 155.187 138.547 158.223Z" fill="#223A7A"/>
<path d="M141.086 158.278C140.921 158.278 140.755 158.278 140.645 158.278C139.706 156.346 136.726 153.145 132.696 152.372C132.586 152.372 132.53 152.261 132.53 152.151C132.53 152.041 132.641 151.985 132.751 151.985C136.836 152.758 140.148 156.125 141.086 158.278Z" fill="#223A7A"/>
<path d="M108.684 61.4022C108.684 61.4022 111.223 60.1878 112.99 56.8206C114.756 53.4534 114.535 50.4174 114.535 50.4174C114.535 50.4174 117.737 49.9206 122.539 51.3558C127.342 52.791 133.027 54.723 137.83 51.963C142.632 49.203 142.632 44.8422 140.258 43.0206C137.609 40.9782 132.42 42.2478 132.42 42.2478C132.42 42.2478 134.407 40.3158 133.358 39.1566C132.254 37.9974 128.335 39.4878 128.335 39.4878C128.335 39.4878 123.533 35.679 114.48 36.1206C105.427 36.5622 101.066 42.9102 100.57 49.9758C100.073 57.0414 102.612 64.1622 102.612 64.1622L108.684 61.4022Z" fill="#223A7A"/>
<path d="M127.121 63.1134C126.624 64.383 126.624 65.8734 126.514 67.1982C126.403 68.247 126.238 69.4614 127.176 70.179C127.618 70.5102 129.826 71.4486 128.666 72.1662C128.225 72.4422 127.507 72.387 127.066 72.3318C126.734 72.3318 126.403 72.2766 126.072 72.2766C125.741 72.2766 125.354 72.1662 125.023 72.1662C124.802 72.1662 124.747 72.4422 124.913 72.5526C125.465 72.939 126.348 73.0494 127.01 73.0494C127.673 73.0494 128.114 73.0494 128.722 72.7182C129.108 72.5526 129.439 72.2766 129.494 71.835C129.55 71.3382 129.163 70.8966 128.832 70.6206C128.39 70.2894 127.894 70.1238 127.452 69.8478C126.845 69.4062 126.9 68.6886 126.955 68.0262C127.066 66.4254 127.452 64.8246 127.562 63.1686C127.562 62.8926 127.176 62.8926 127.121 63.1134Z" fill="#8E9BBB"/>
<path d="M131.813 66.9223C131.647 67.8607 130.93 68.5783 130.267 68.4679C129.55 68.3575 129.163 67.4743 129.329 66.4807C129.494 65.5423 130.212 64.8247 130.874 64.9351C131.537 65.0455 131.978 65.9287 131.813 66.9223Z" fill="#223A7A"/>
<path d="M123.036 66.1493C122.87 67.1981 122.153 67.9157 121.38 67.8053C120.607 67.6949 120.166 66.7565 120.331 65.7077C120.497 64.6589 121.214 63.9413 121.987 64.0517C122.76 64.1621 123.202 65.1005 123.036 66.1493Z" fill="#223A7A"/>
<path d="M129.77 62.9478C130.322 63.0582 130.819 62.9479 131.371 63.0031C131.482 63.0031 131.647 63.0582 131.758 63.0582C131.868 63.0582 131.592 63.0582 131.702 63.0582H131.758C131.813 63.0582 131.868 63.0583 131.978 63.1135C132.089 63.1687 132.199 63.1686 132.31 63.2238C132.42 63.2238 132.53 63.2791 132.641 63.2791C132.696 63.2791 132.751 63.2791 132.806 63.2791C132.751 63.2791 132.751 63.2791 132.696 63.2791H132.917C133.248 63.2239 133.414 62.8374 133.303 62.5614C133.303 62.451 133.248 62.3958 133.193 62.3406C133.193 62.2854 133.138 62.2854 133.138 62.2302L133.193 62.2854C133.193 62.2302 133.138 62.2302 133.138 62.175C133.082 62.1198 133.082 62.0646 133.027 62.0646C132.972 62.0094 132.917 62.0094 132.917 61.9542C132.751 61.8438 132.586 61.7886 132.42 61.7334C132.089 61.6782 131.758 61.623 131.426 61.623C131.095 61.623 130.764 61.6782 130.433 61.6782C130.157 61.7334 129.826 61.7886 129.605 62.0094C129.439 62.1198 129.329 62.3406 129.329 62.5614C129.384 62.6718 129.55 62.8926 129.77 62.9478Z" fill="#223A7A"/>
<path d="M123.643 61.4023C123.588 61.3471 123.478 61.3471 123.422 61.2919C123.367 61.2367 123.202 61.1815 123.312 61.2367C123.257 61.2367 123.202 61.1815 123.146 61.1815C122.926 61.0711 122.705 61.0159 122.484 60.9607C121.987 60.8503 121.435 60.7951 120.883 60.8503C120.331 60.9055 119.779 61.0711 119.282 61.3471C119.227 61.4023 119.117 61.4575 119.062 61.5127C119.006 61.5679 119.006 61.6231 118.951 61.6783C118.951 61.6783 118.951 61.6231 119.006 61.6231C118.841 61.7335 118.786 61.8991 118.786 62.0647C118.786 62.2303 118.896 62.3959 119.006 62.4511C119.172 62.5615 119.393 62.5063 119.558 62.4511C119.448 62.4511 119.393 62.4511 119.282 62.4511C119.448 62.4511 119.558 62.5063 119.724 62.4511C119.724 62.4511 119.89 62.3959 119.779 62.4511C119.669 62.4511 119.945 62.4511 119.945 62.4511C120 62.4511 120.166 62.4511 119.945 62.4511C120 62.4511 120 62.4511 120.055 62.4511C120.166 62.4511 120.221 62.4511 120.331 62.3959C120.718 62.3407 121.104 62.3407 121.435 62.3407C121.766 62.3407 122.153 62.3407 122.484 62.3407C122.65 62.3407 122.76 62.3407 122.926 62.3407C123.036 62.3407 122.981 62.3407 122.926 62.3407C122.981 62.3407 122.981 62.3407 123.036 62.3407C123.091 62.3407 123.146 62.3959 123.202 62.3959C123.422 62.5063 123.754 62.2855 123.809 62.0647C123.974 61.8439 123.919 61.5679 123.643 61.4023Z" fill="#223A7A"/>
<path d="M126.403 77.2999C126.9 76.2511 127.894 75.4783 128.998 74.9815C128.059 74.8711 123.533 74.4847 122.374 75.0919C121.104 75.8095 122.594 78.7351 125.244 78.9007C125.52 78.9007 125.796 78.9007 126.017 78.8455C126.017 78.2935 126.127 77.7967 126.403 77.2999Z" fill="#223A7A"/>
<path d="M105.482 71.1726C105.482 71.1726 105.924 72.939 108.574 74.9814C111.223 77.0238 115.032 78.5142 115.032 78.5142L115.363 77.1894C115.363 77.1894 111.444 75.4782 109.622 73.6014C107.801 71.7246 107.58 70.6758 107.58 70.6758L105.482 71.1726Z" fill="#DEE1EB"/>
<path d="M115.805 76.1957C117.902 76.0853 119.117 77.7413 119.227 78.8453C119.393 79.9493 118.344 81.1637 115.97 80.0597C113.045 78.7901 113.652 76.3061 115.805 76.1957Z" fill="#223A7A"/>
<path d="M107.138 58.0901C107.138 58.0901 108.077 51.5213 112.438 47.0501C120.828 38.5493 127.949 39.0461 127.949 39.0461C127.949 39.0461 127.894 37.8317 125.189 36.9485C122.65 36.0653 121.546 36.5621 121.546 36.5621C121.546 36.5621 114.646 37.1141 108.794 43.5725C102.943 50.0309 102.336 58.2557 102.336 58.2557L107.138 58.0901Z" fill="#DEE1EB"/>
<path d="M106.531 57.2623C101.011 56.3239 97.9753 60.6295 97.7545 64.9903C97.5337 69.3511 100.68 72.6079 104.875 72.2767C114.37 71.5591 113.266 58.4215 106.531 57.2623Z" fill="white"/>
<path d="M103.771 68.0814C102.336 68.0814 101.066 67.3638 100.404 66.0942C99.6312 64.7142 99.7416 63.003 100.57 61.7886C100.625 61.6782 100.735 61.6782 100.846 61.7334C100.956 61.7886 100.956 61.9542 100.901 62.0094C100.128 63.1134 100.073 64.659 100.735 65.8734C101.398 67.0326 102.502 67.695 103.882 67.695C105.151 67.6398 106.2 67.0878 106.862 66.0942C107.635 64.935 107.801 63.3342 107.304 62.0646C106.807 60.7398 105.482 59.8566 104.213 60.0222C104.102 60.0222 103.992 59.967 103.992 59.8566C103.992 59.7462 104.047 59.6358 104.158 59.6358C105.593 59.4702 107.138 60.4086 107.69 61.899C108.242 63.3342 108.022 65.0454 107.194 66.315C106.421 67.419 105.262 68.0814 103.882 68.1366C103.882 68.0814 103.826 68.0814 103.771 68.0814Z" fill="#818FB3"/>
<path d="M99.7968 86.0215C99.7968 86.0215 83.1264 90.1063 77.2752 96.7303C71.424 103.354 68.7192 136.033 68.6088 142.049C68.4984 148.121 72.6936 150.605 75.2328 152.317C77.772 154.028 88.812 157.119 97.7544 157.561C106.697 158.002 115.087 157.561 115.087 157.561C115.087 157.561 115.032 155.629 116.412 152.758C117.682 150.109 119.282 149.557 119.282 149.557L111.61 146.797C111.61 146.797 110.285 122.785 108.187 111.137C105.869 97.8895 99.7968 86.0215 99.7968 86.0215Z" fill="#0D51D9"/>
<path d="M127.452 143.043C127.397 143.043 127.397 143.043 127.342 143.043C127.176 142.988 127.121 142.822 127.176 142.657C128.722 139.124 130.378 132.224 131.261 127.366L131.316 126.98C131.592 125.545 131.923 123.778 131.261 122.564C130.93 121.957 130.102 120.577 129.384 119.252C128.611 117.872 127.838 116.602 127.673 116.216C127.286 115.443 128.556 113.456 130.378 110.751C130.874 110.033 131.316 109.371 131.537 108.929C132.199 107.825 131.758 106.777 131.261 105.562L131.04 105.176C130.598 104.072 130.046 102.913 129.55 101.864C129.329 101.422 129.163 100.981 128.942 100.539C128.666 99.9318 128.39 99.3246 128.114 98.7174C126.514 95.1294 124.858 91.3758 122.705 87.7878C122.65 87.6774 122.65 87.5118 122.815 87.4014C122.926 87.3462 123.091 87.3462 123.202 87.5118C125.354 91.155 127.01 94.8534 128.666 98.4966C128.942 99.1038 129.218 99.711 129.494 100.318C129.715 100.76 129.881 101.201 130.102 101.643C130.598 102.747 131.15 103.851 131.592 105.01L131.758 105.397C132.254 106.611 132.806 107.881 132.034 109.261C131.758 109.702 131.316 110.365 130.819 111.082C129.881 112.517 127.894 115.498 128.17 115.995C128.39 116.381 129.108 117.651 129.881 118.976C130.654 120.301 131.426 121.625 131.758 122.288C132.53 123.668 132.199 125.6 131.868 127.09L131.813 127.477C131.482 129.243 129.715 138.296 127.673 142.877C127.618 142.988 127.562 143.043 127.452 143.043Z" fill="#8593B6"/>
<path d="M111.168 143.981C111.113 143.981 111.002 143.981 110.947 143.926C109.622 142.601 103.385 131.782 102.943 129.74C102.667 128.636 103.33 125.82 103.937 123.06C104.434 120.963 104.93 118.755 104.765 118.148C104.544 117.264 102.943 115.94 101.398 114.67C99.5208 113.124 97.5888 111.579 97.2024 110.144C96.7608 108.543 97.1472 98.3861 97.368 91.7069C97.4784 89.2781 97.5336 87.4013 97.5336 86.7389C97.5336 86.5733 97.644 86.4629 97.8096 86.4629C97.9752 86.4629 98.0856 86.5733 98.0856 86.7389C98.0856 87.4013 98.0304 89.3333 97.92 91.7621C97.6992 97.9997 97.3128 108.488 97.6992 110.033C98.0304 111.303 99.9624 112.848 101.674 114.284C103.385 115.664 104.986 116.988 105.206 118.037C105.372 118.755 104.93 120.797 104.378 123.171C103.826 125.71 103.164 128.636 103.385 129.629C103.826 131.616 110.009 142.27 111.278 143.54C111.389 143.65 111.389 143.816 111.278 143.926C111.278 143.981 111.223 143.981 111.168 143.981Z" fill="#8593B6"/>
<path d="M88.7017 139.289C88.5361 139.289 88.4257 139.124 88.4257 138.958C88.6465 137.523 91.7928 108.929 91.9584 106.721C91.9584 106.556 92.124 106.445 92.2344 106.445C92.4 106.445 92.5104 106.611 92.5104 106.721C92.3448 108.929 89.1985 137.523 88.9777 138.958C88.9777 139.179 88.8673 139.289 88.7017 139.289Z" fill="#8593B6"/>
<path d="M111.444 147.017C111.389 147.017 111.389 147.017 111.334 147.017C110.616 146.741 107.525 145.693 103.606 144.368C95.6569 141.718 84.8377 138.02 82.7401 136.971C82.6297 136.916 82.5745 136.75 82.6297 136.585C82.6849 136.474 82.8505 136.419 83.0161 136.474C85.0585 137.523 96.3193 141.332 103.771 143.871C107.691 145.196 110.837 146.245 111.554 146.521C111.72 146.576 111.775 146.741 111.72 146.907C111.665 146.962 111.555 147.017 111.444 147.017Z" fill="#8593B6"/>
<path d="M107.635 158.444C100.68 158.444 87.156 157.174 76.8888 153.531C76.7232 153.476 76.668 153.31 76.7232 153.2C76.7784 153.034 76.944 152.979 77.0544 153.034C90.0264 157.616 108.187 158.389 111.554 157.671C111.72 157.616 111.83 157.726 111.886 157.892C111.941 158.057 111.83 158.168 111.665 158.223C110.947 158.333 109.512 158.444 107.635 158.444Z" fill="#8593B6"/>
<path d="M230.51 118.203L208.651 161.48L145.006 161.922L164.657 117.596L230.51 118.203Z" fill="#F6F7FA"/>
<path d="M102.778 161.645V158.168H143.957L162.89 116.602H228.799L230.455 118.203H166.147L146.441 161.59C146.441 161.59 102.778 161.535 102.778 161.645Z" fill="#D9DEE8"/>
<path d="M197.446 142.049C196.728 144.202 192.809 145.858 188.724 145.748C184.639 145.638 181.879 143.816 182.597 141.663C183.314 139.51 187.234 137.854 191.318 137.965C195.458 138.075 198.163 139.897 197.446 142.049Z" fill="#D9DEE8"/>
<path d="M146.441 161.866C146.386 161.866 146.386 161.866 146.33 161.866C146.165 161.811 146.11 161.645 146.22 161.48L165.982 117.927H230.51C230.676 117.927 230.786 118.037 230.786 118.203C230.786 118.369 230.676 118.479 230.51 118.479H166.313L146.662 161.701C146.606 161.811 146.551 161.866 146.441 161.866Z" fill="white"/>
<path d="M99.9071 164.902H24.1727V181.683H99.9071V164.902Z" fill="#596B9B"/>
<path d="M235.699 164.902H99.4656V181.683H235.699V164.902Z" fill="#0D51D9"/>
<path d="M99.9071 164.902H99.4655H24.1727V167.994H99.4655H99.9071H235.699V164.902H99.9071Z" fill="#BDC4D7"/>
<path d="M103.219 161.59H20.5295V165.675H103.219V161.59Z" fill="#6F7FA9"/>
<path d="M239.011 161.59H102.778V165.675H239.011V161.59Z" fill="#9CA6C3"/>
<path d="M80.808 73.5463H54.0912C52.4352 73.5463 51.1104 72.2215 51.1104 70.5655V57.2071C51.1104 55.5511 52.4352 54.2263 54.0912 54.2263H80.808C82.464 54.2263 83.7887 55.5511 83.7887 57.2071V70.5655C83.7887 72.1663 82.464 73.5463 80.808 73.5463Z" fill="white"/>
<path d="M91.4064 63.8312L81.36 59.636V68.0816L91.4064 63.8312Z" fill="white"/>
<path d="M61.1015 65.6527C62.1076 65.6527 62.9231 64.8372 62.9231 63.8311C62.9231 62.8251 62.1076 62.0095 61.1015 62.0095C60.0955 62.0095 59.2799 62.8251 59.2799 63.8311C59.2799 64.8372 60.0955 65.6527 61.1015 65.6527Z" fill="#223A7A"/>
<path d="M67.4495 65.6527C68.4556 65.6527 69.2711 64.8372 69.2711 63.8311C69.2711 62.8251 68.4556 62.0095 67.4495 62.0095C66.4435 62.0095 65.6279 62.8251 65.6279 63.8311C65.6279 64.8372 66.4435 65.6527 67.4495 65.6527Z" fill="#223A7A"/>
<path d="M73.7422 65.6527C74.7483 65.6527 75.5638 64.8372 75.5638 63.8311C75.5638 62.8251 74.7483 62.0095 73.7422 62.0095C72.7362 62.0095 71.9207 62.8251 71.9207 63.8311C71.9207 64.8372 72.7362 65.6527 73.7422 65.6527Z" fill="#223A7A"/>
<path d="M216.876 13.1575H155.162C151.188 13.1575 147.986 16.3591 147.986 20.3335V49.5895C147.986 53.5639 151.188 56.7655 155.162 56.7655H160.682C160.848 59.4151 160.462 63.3894 158.254 68.4126C165.374 65.1006 169.514 60.1879 171.612 56.7655H216.876C220.85 56.7655 224.052 53.5639 224.052 49.5895V20.3335C224.052 16.3591 220.85 13.1575 216.876 13.1575Z" fill="#0D51D9"/>
<path d="M190.546 27.0678H159.965C159.137 27.0678 158.419 26.4054 158.419 25.5222C158.419 24.6942 159.082 23.9766 159.965 23.9766H190.546C191.374 23.9766 192.091 24.639 192.091 25.5222C192.091 26.4054 191.374 27.0678 190.546 27.0678Z" fill="white"/>
<path d="M212.515 35.9552H159.358C158.861 35.9552 158.419 35.5136 158.419 35.0168C158.419 34.52 158.861 34.0784 159.358 34.0784H212.515C213.012 34.0784 213.454 34.52 213.454 35.0168C213.454 35.5688 213.012 35.9552 212.515 35.9552Z" fill="#D2E6FF"/>
<path d="M212.515 41.1439H159.358C158.861 41.1439 158.419 40.7023 158.419 40.2055C158.419 39.7087 158.861 39.2671 159.358 39.2671H212.515C213.012 39.2671 213.454 39.7087 213.454 40.2055C213.454 40.7023 213.012 41.1439 212.515 41.1439Z" fill="#D2E6FF"/>
<path d="M200.923 46.6639H159.358C158.861 46.6639 158.419 46.2223 158.419 45.7255C158.419 45.2287 158.861 44.7871 159.358 44.7871H200.923C201.42 44.7871 201.862 45.2287 201.862 45.7255C201.862 46.2223 201.42 46.6639 200.923 46.6639Z" fill="#D2E6FF"/>
<path d="M212.073 27.0678H197.445C196.617 27.0678 195.9 26.4054 195.9 25.5222C195.9 24.6942 196.562 23.9766 197.445 23.9766H212.073C212.902 23.9766 213.619 24.639 213.619 25.5222C213.619 26.4054 212.902 27.0678 212.073 27.0678Z" fill="white"/>
<path d="M175.255 94.4119H158.695C158.088 94.4119 157.591 93.9151 157.591 93.3079V81.9919C157.591 81.3847 158.088 80.8879 158.695 80.8879H175.255C175.862 80.8879 176.359 81.3847 176.359 81.9919V93.3079C176.359 93.9151 175.862 94.4119 175.255 94.4119Z" fill="white"/>
<path d="M167.086 89.6647C166.975 89.6647 166.92 89.6095 166.81 89.5543L157.812 82.1023C157.646 81.9367 157.591 81.7159 157.757 81.4951C157.922 81.3295 158.143 81.2743 158.364 81.4399L167.141 88.6711L175.697 81.2743C175.862 81.1087 176.138 81.1639 176.304 81.3295C176.47 81.4951 176.414 81.7711 176.249 81.9367L167.472 89.6095C167.306 89.6095 167.196 89.6647 167.086 89.6647Z" fill="#6F7FA9"/>
<path d="M158.088 94.0808C157.978 94.0808 157.867 94.0256 157.812 93.9704C157.646 93.8048 157.646 93.5288 157.812 93.3632L164.105 86.7392C164.27 86.5736 164.546 86.5736 164.712 86.7392C164.878 86.9048 164.878 87.1808 164.712 87.3464L158.419 93.9704C158.309 94.0808 158.198 94.0808 158.088 94.0808Z" fill="#6F7FA9"/>
<path d="M175.918 93.86C175.807 93.86 175.697 93.8048 175.642 93.7496L169.349 87.4567C169.183 87.2911 169.183 87.0151 169.349 86.8495C169.514 86.6839 169.79 86.6839 169.956 86.8495L176.249 93.1424C176.414 93.308 176.414 93.584 176.249 93.7496C176.083 93.8048 176.028 93.86 175.918 93.86Z" fill="#6F7FA9"/>
<path d="M177.242 85.9663C180.291 85.9663 182.762 83.4949 182.762 80.4463C182.762 77.3977 180.291 74.9263 177.242 74.9263C174.194 74.9263 171.722 77.3977 171.722 80.4463C171.722 83.4949 174.194 85.9663 177.242 85.9663Z" fill="#FF5F42"/>
<path d="M178.488 83.7953C178.864 84.0193 179.156 84.2993 179.364 84.6353C179.58 84.9633 179.688 85.3073 179.688 85.6673C179.688 86.1233 179.56 86.5433 179.304 86.9273C179.056 87.3113 178.716 87.6153 178.284 87.8393C177.86 88.0633 177.392 88.1753 176.88 88.1753C176.368 88.1753 175.896 88.0633 175.464 87.8393C175.04 87.6153 174.7 87.3113 174.444 86.9273C174.196 86.5433 174.072 86.1233 174.072 85.6673C174.072 84.8993 174.46 84.2753 175.236 83.7953C174.956 83.6353 174.724 83.4193 174.54 83.1473C174.364 82.8753 174.276 82.5553 174.276 82.1873C174.276 81.7473 174.392 81.3433 174.624 80.9753C174.856 80.6073 175.168 80.3153 175.56 80.0993C175.96 79.8833 176.4 79.7753 176.88 79.7753C177.36 79.7753 177.796 79.8833 178.188 80.0993C178.588 80.3153 178.9 80.6073 179.124 80.9753C179.356 81.3433 179.472 81.7473 179.472 82.1873C179.472 82.5873 179.376 82.9193 179.184 83.1833C179 83.4393 178.768 83.6433 178.488 83.7953ZM176.88 81.0953C176.544 81.0953 176.264 81.2033 176.04 81.4193C175.824 81.6273 175.716 81.8913 175.716 82.2113C175.716 82.5393 175.824 82.8113 176.04 83.0273C176.264 83.2353 176.544 83.3393 176.88 83.3393C177.208 83.3393 177.48 83.2313 177.696 83.0153C177.92 82.7993 178.032 82.5313 178.032 82.2113C178.032 81.8913 177.92 81.6273 177.696 81.4193C177.48 81.2033 177.208 81.0953 176.88 81.0953ZM176.88 86.8553C177.264 86.8553 177.588 86.7393 177.852 86.5073C178.116 86.2673 178.248 85.9793 178.248 85.6433C178.248 85.2993 178.116 85.0113 177.852 84.7793C177.588 84.5393 177.264 84.4193 176.88 84.4193C176.496 84.4193 176.172 84.5393 175.908 84.7793C175.644 85.0113 175.512 85.2993 175.512 85.6433C175.512 85.9793 175.644 86.2673 175.908 86.5073C176.172 86.7393 176.496 86.8553 176.88 86.8553ZM176.652 97.5353C177.18 97.5353 177.656 97.6593 178.08 97.9073C178.512 98.1473 178.848 98.4793 179.088 98.9033C179.336 99.3273 179.46 99.7993 179.46 100.319C179.46 100.855 179.308 101.351 179.004 101.807C178.7 102.263 178.296 102.627 177.792 102.899C177.288 103.163 176.744 103.295 176.16 103.295C175.848 103.295 175.524 103.247 175.188 103.151C174.86 103.055 174.592 102.923 174.384 102.755C174.288 102.675 174.208 102.563 174.144 102.419C174.08 102.275 174.048 102.139 174.048 102.011C174.048 101.867 174.108 101.739 174.228 101.627C174.356 101.507 174.52 101.447 174.72 101.447C174.864 101.447 175.044 101.523 175.26 101.675C175.596 101.883 175.892 101.987 176.148 101.987C176.476 101.987 176.784 101.911 177.072 101.759C177.36 101.607 177.588 101.403 177.756 101.147C177.932 100.891 178.02 100.615 178.02 100.319C178.02 99.8873 177.872 99.5353 177.576 99.2633C177.28 98.9913 176.928 98.8553 176.52 98.8553C176.336 98.8553 176.172 98.8793 176.028 98.9273C175.884 98.9753 175.712 99.0473 175.512 99.1433C175.368 99.2153 175.252 99.2673 175.164 99.2993C175.084 99.3313 175 99.3473 174.912 99.3473C174.6 99.3473 174.376 99.2633 174.24 99.0953C174.112 98.9273 174.048 98.7273 174.048 98.4953C174.048 98.4153 174.052 98.3593 174.06 98.3273L174.432 95.3513C174.464 95.1833 174.544 95.0473 174.672 94.9433C174.808 94.8313 174.968 94.7753 175.152 94.7753H178.62C178.812 94.7753 178.972 94.8393 179.1 94.9673C179.228 95.0953 179.292 95.2553 179.292 95.4473C179.292 95.6313 179.228 95.7873 179.1 95.9153C178.972 96.0353 178.812 96.0953 178.62 96.0953H175.644L175.416 97.8353C175.568 97.7473 175.76 97.6753 175.992 97.6193C176.224 97.5633 176.444 97.5353 176.652 97.5353Z" fill="white"/>
<path d="M232.884 78.4038H200.537C199.322 78.4038 198.329 77.4102 198.329 76.1958V71.1174C198.329 69.903 199.322 68.9094 200.537 68.9094H232.884C234.098 68.9094 235.092 69.903 235.092 71.1174V76.1958C235.092 77.4102 234.098 78.4038 232.884 78.4038Z" fill="#223A7A"/>
<path d="M202.855 76.1957C202.69 76.1957 202.579 76.1405 202.524 76.0301C202.414 75.9197 202.414 75.8093 202.414 75.6437L202.579 74.4293C202.579 74.3741 202.579 74.3741 202.579 74.3741H202.524L201.53 75.0917C201.42 75.2021 201.254 75.2021 201.144 75.2021C201.034 75.2021 200.923 75.0917 200.813 74.9813C200.702 74.8157 200.702 74.6501 200.758 74.5397C200.813 74.4293 200.923 74.3189 201.034 74.2637L202.193 73.7669C202.248 73.7669 202.248 73.7669 202.248 73.7117C202.248 73.7117 202.248 73.6565 202.193 73.6565L201.034 73.1597C200.868 73.1045 200.813 72.9941 200.758 72.8837C200.702 72.7733 200.758 72.6077 200.813 72.4973C200.868 72.3869 200.978 72.2765 201.144 72.2765C201.254 72.2765 201.42 72.2765 201.53 72.3869L202.524 73.1597C202.579 73.1597 202.579 73.1597 202.579 73.1597V73.1045L202.414 71.8901C202.414 71.7245 202.469 71.6141 202.524 71.5037C202.634 71.3933 202.745 71.3381 202.91 71.3381C203.076 71.3381 203.186 71.3933 203.242 71.5037C203.352 71.6141 203.352 71.7245 203.352 71.8901L203.186 73.1045C203.186 73.1597 203.186 73.1597 203.186 73.1597H203.242L204.235 72.4421C204.346 72.3317 204.511 72.3317 204.622 72.3317C204.787 72.3317 204.842 72.4421 204.953 72.5525C205.063 72.7181 205.063 72.8837 205.008 72.9941C204.953 73.1045 204.842 73.2149 204.732 73.2701L203.573 73.7669C203.518 73.7669 203.518 73.7669 203.518 73.8221C203.518 73.8221 203.518 73.8773 203.573 73.8773L204.732 74.3741C204.898 74.4293 204.953 74.5397 205.008 74.6501C205.063 74.7605 205.063 74.9261 204.953 75.0365C204.898 75.1469 204.787 75.2573 204.622 75.2573C204.456 75.2573 204.346 75.2573 204.235 75.1469L203.242 74.3741C203.186 74.3741 203.186 74.3741 203.186 74.3741V74.4293L203.352 75.6437C203.352 75.8093 203.352 75.9197 203.242 76.0301C203.131 76.1405 203.021 76.1957 202.855 76.1957Z" fill="white"/>
<path d="M209.534 76.1957C209.369 76.1957 209.258 76.1405 209.203 76.0301C209.093 75.9197 209.093 75.8093 209.093 75.6437L209.258 74.4293C209.258 74.3741 209.258 74.3741 209.258 74.3741H209.203L208.21 75.0917C208.099 75.2021 207.934 75.2021 207.823 75.2021C207.713 75.2021 207.602 75.0917 207.492 74.9813C207.382 74.8157 207.382 74.6501 207.437 74.5397C207.492 74.4293 207.602 74.3189 207.713 74.2637L208.872 73.7669C208.927 73.7669 208.927 73.7669 208.927 73.7117C208.927 73.7117 208.927 73.6565 208.872 73.6565L207.713 73.1597C207.547 73.1045 207.492 72.9941 207.437 72.8837C207.382 72.7733 207.437 72.6077 207.492 72.4973C207.602 72.3869 207.658 72.2765 207.823 72.2765C207.934 72.2765 208.099 72.2765 208.21 72.3869L209.203 73.1597C209.258 73.1597 209.258 73.1597 209.258 73.1597V73.1045L209.093 71.8901C209.093 71.7245 209.148 71.6141 209.203 71.5037C209.314 71.3933 209.424 71.3381 209.59 71.3381C209.755 71.3381 209.866 71.3933 209.921 71.5037C210.031 71.6141 210.031 71.7245 210.031 71.8901L209.866 73.1045C209.866 73.1597 209.866 73.1597 209.866 73.1597H209.921L210.914 72.4421C211.025 72.3317 211.19 72.3317 211.301 72.3317C211.466 72.3317 211.522 72.4421 211.632 72.5525C211.742 72.7181 211.742 72.8837 211.687 72.9941C211.632 73.1045 211.522 73.2149 211.411 73.2701L210.252 73.7669C210.197 73.7669 210.197 73.7669 210.197 73.8221C210.197 73.8221 210.197 73.8773 210.252 73.8773L211.411 74.3741C211.577 74.4293 211.632 74.5397 211.687 74.6501C211.742 74.7605 211.742 74.9261 211.632 75.0365C211.577 75.1469 211.466 75.2573 211.301 75.2573C211.135 75.2573 211.025 75.2573 210.914 75.1469L209.921 74.3741C209.866 74.3741 209.866 74.3741 209.866 74.3741V74.4293L210.031 75.6437C210.031 75.8093 210.031 75.9197 209.921 76.0301C209.81 76.1405 209.7 76.1957 209.534 76.1957Z" fill="white"/>
<path d="M216.214 76.1957C216.048 76.1957 215.938 76.1405 215.882 76.0301C215.772 75.9197 215.772 75.8093 215.772 75.6437L215.938 74.4293C215.938 74.3741 215.938 74.3741 215.938 74.3741H215.882L214.889 75.0917C214.778 75.2021 214.613 75.2021 214.502 75.2021C214.392 75.2021 214.282 75.0917 214.171 74.9813C214.061 74.8157 214.061 74.6501 214.116 74.5397C214.171 74.4293 214.282 74.3189 214.392 74.2637L215.551 73.7669C215.606 73.7669 215.606 73.7669 215.606 73.7117C215.606 73.7117 215.606 73.6565 215.551 73.6565L214.392 73.1597C214.226 73.1045 214.171 72.9941 214.116 72.8837C214.061 72.7733 214.116 72.6077 214.171 72.4973C214.226 72.3869 214.337 72.2765 214.502 72.2765C214.613 72.2765 214.778 72.2765 214.889 72.3869L215.882 73.1597C215.938 73.1597 215.938 73.1597 215.938 73.1597V73.1045L215.772 71.8901C215.772 71.7245 215.827 71.6141 215.882 71.5037C215.993 71.3933 216.103 71.3381 216.269 71.3381C216.434 71.3381 216.545 71.3933 216.6 71.5037C216.71 71.6141 216.71 71.7245 216.71 71.8901L216.545 73.1045C216.545 73.1597 216.545 73.1597 216.545 73.1597H216.6L217.594 72.4421C217.704 72.3317 217.87 72.3317 217.98 72.3317C218.146 72.3317 218.201 72.4421 218.311 72.5525C218.422 72.7181 218.422 72.8837 218.366 72.9941C218.311 73.1045 218.201 73.2149 218.09 73.2701L216.931 73.7669C216.876 73.7669 216.876 73.7669 216.876 73.8221C216.876 73.8221 216.876 73.8773 216.931 73.8773L218.09 74.3741C218.256 74.4293 218.311 74.5397 218.366 74.6501C218.422 74.7605 218.422 74.9261 218.311 75.0365C218.256 75.1469 218.146 75.2573 217.98 75.2573C217.814 75.2573 217.704 75.2573 217.594 75.1469L216.6 74.3741C216.545 74.3741 216.545 74.3741 216.545 74.3741V74.4293L216.71 75.6437C216.71 75.8093 216.71 75.9197 216.6 76.0301C216.545 76.1405 216.379 76.1957 216.214 76.1957Z" fill="white"/>
<path d="M222.948 76.1957C222.782 76.1957 222.672 76.1405 222.617 76.0301C222.506 75.9197 222.506 75.8093 222.506 75.6437L222.672 74.4293C222.672 74.3741 222.672 74.3741 222.672 74.3741H222.617L221.623 75.0917C221.513 75.2021 221.347 75.2021 221.237 75.2021C221.126 75.2021 221.016 75.0917 220.906 74.9813C220.795 74.8157 220.795 74.6501 220.85 74.5397C220.906 74.4293 221.016 74.3189 221.126 74.2637L222.286 73.7669C222.341 73.7669 222.341 73.7669 222.341 73.7117C222.341 73.7117 222.341 73.6565 222.286 73.6565L221.126 73.1597C220.961 73.1045 220.906 72.9941 220.85 72.8837C220.795 72.7733 220.85 72.6077 220.906 72.4973C221.016 72.3869 221.071 72.2765 221.237 72.2765C221.347 72.2765 221.513 72.2765 221.623 72.3869L222.617 73.1597C222.672 73.1597 222.672 73.1597 222.672 73.1597V73.1045L222.506 71.8901C222.506 71.7245 222.562 71.6141 222.617 71.5037C222.727 71.3933 222.838 71.3381 223.003 71.3381C223.169 71.3381 223.279 71.3933 223.334 71.5037C223.445 71.6141 223.445 71.7245 223.445 71.8901L223.279 73.1045C223.279 73.1597 223.279 73.1597 223.279 73.1597H223.334L224.328 72.4421C224.438 72.3317 224.604 72.3317 224.714 72.3317C224.88 72.3317 224.935 72.4421 225.046 72.5525C225.156 72.7181 225.156 72.8837 225.101 72.9941C225.046 73.1045 224.935 73.2149 224.825 73.2701L223.666 73.7669C223.61 73.7669 223.61 73.7669 223.61 73.8221C223.61 73.8221 223.61 73.8773 223.666 73.8773L224.825 74.3741C224.99 74.4293 225.046 74.5397 225.101 74.6501C225.156 74.7605 225.156 74.9261 225.046 75.0365C224.99 75.1469 224.88 75.2573 224.714 75.2573C224.549 75.2573 224.438 75.2573 224.328 75.1469L223.334 74.3741C223.279 74.3741 223.279 74.3741 223.279 74.3741V74.4293L223.445 75.6437C223.445 75.8093 223.445 75.9197 223.334 76.0301C223.224 76.1405 223.114 76.1957 222.948 76.1957Z" fill="white"/>
<path d="M229.627 76.1957C229.462 76.1957 229.351 76.1405 229.296 76.0301C229.186 75.9197 229.186 75.8093 229.186 75.6437L229.351 74.4293C229.351 74.3741 229.351 74.3741 229.351 74.3741H229.296L228.302 75.0917C228.192 75.2021 228.026 75.2021 227.916 75.2021C227.806 75.2021 227.695 75.0917 227.585 74.9813C227.474 74.8157 227.474 74.6501 227.53 74.5397C227.585 74.4293 227.695 74.3189 227.806 74.2637L228.965 73.7669C229.02 73.7669 229.02 73.7669 229.02 73.7117C229.02 73.7117 229.02 73.6565 228.965 73.6565L227.806 73.1597C227.64 73.1045 227.585 72.9941 227.53 72.8837C227.474 72.7733 227.53 72.6077 227.585 72.4973C227.64 72.3869 227.75 72.2765 227.916 72.2765C228.026 72.2765 228.192 72.2765 228.302 72.3869L229.296 73.1597C229.351 73.1597 229.351 73.1597 229.351 73.1597V73.1045L229.186 71.8901C229.186 71.7245 229.241 71.6141 229.296 71.5037C229.406 71.3933 229.517 71.3381 229.682 71.3381C229.848 71.3381 229.958 71.3933 230.014 71.5037C230.124 71.6141 230.124 71.7245 230.124 71.8901L229.958 73.1045C229.958 73.1597 229.958 73.1597 229.958 73.1597H230.014L231.007 72.4421C231.118 72.3317 231.283 72.3317 231.394 72.3317C231.559 72.3317 231.614 72.4421 231.725 72.5525C231.835 72.7181 231.835 72.8837 231.78 72.9941C231.725 73.1045 231.614 73.2149 231.504 73.2701L230.345 73.7669C230.29 73.7669 230.29 73.7669 230.29 73.8221C230.29 73.8221 230.29 73.8773 230.345 73.8773L231.504 74.3741C231.67 74.4293 231.725 74.5397 231.78 74.6501C231.835 74.7605 231.835 74.9261 231.725 75.0365C231.67 75.1469 231.559 75.2573 231.394 75.2573C231.228 75.2573 231.118 75.2573 231.007 75.1469L230.014 74.3741C229.958 74.3741 229.958 74.3741 229.958 74.3741V74.4293L230.124 75.6437C230.124 75.8093 230.124 75.9197 230.014 76.0301C229.903 76.1405 229.793 76.1957 229.627 76.1957Z" fill="#67ACFF"/>
</svg>
