<?xml version="1.0" encoding="utf-8"?>
<!-- Generator: Adobe Illustrator 25.2.1, SVG Export Plug-In . SVG Version: 6.00 Build 0)  -->
<svg version="1.1" id="Layer_1" xmlns="http://www.w3.org/2000/svg" xmlns:xlink="http://www.w3.org/1999/xlink" x="0px" y="0px"
	 width="396.5px" height="421px" viewBox="0 0 396.5 421" style="enable-background:new 0 0 396.5 421;" xml:space="preserve">
<style type="text/css">
	.st0{fill:none;stroke:#AFC3EC;stroke-linecap:round;}
	.st1{fill:none;stroke:#0D51D9;stroke-width:18;}
	.st2{fill:none;stroke:#0D51D9;stroke-width:3;}
	.st3{fill:#B6C9CF;stroke:#FFFFFF;stroke-width:7.5;}
</style>
<g>
	<path class="st0" d="M-177.3,122.6c-62.6,62.6-62.4,164.4,0.5,227.3c62.9,62.9,164.7,63.2,227.3,0.5
		c62.6-62.6,62.4-164.4-0.5-227.3"/>
	<path class="st1" d="M-9.1,77.4c-9.7,9.7-25.2,9.7-34.6,0.3c-9.4-9.4-9.4-24.9,0.3-34.6s25.2-9.7,34.6-0.3
		C0.6,52.2,0.6,67.7-9.1,77.4z"/>
	<circle class="st2" cx="130.2" cy="229" r="7.6"/>
</g>
<g>
	<path class="st3" d="M194.8,375H191v3.8v25.8c0,1.7-0.6,2.9-1.3,3.6c-0.7,0.7-1.8,1.3-3.6,1.3H152c-1.7,0-2.8-0.6-3.6-1.3
		c-0.7-0.7-1.3-1.9-1.3-3.6V297.1v-25.8c0-1.7,0.6-2.9,1.3-3.6c0.7-0.7,1.8-1.3,3.6-1.3h239.7c1.7,0,2.8,0.6,3.6,1.3
		c0.7,0.7,1.3,1.9,1.3,3.6v25.8v107.5c0,1.7-0.6,2.9-1.3,3.6c-0.7,0.7-1.8,1.3-3.6,1.3h-34.2c-1.7,0-2.8-0.6-3.6-1.3
		c-0.7-0.7-1.3-1.9-1.3-3.6v-25.8V375h-3.8H194.8z M160.5,276.1h-3.8v3.8v8.6v3.8h3.8h25.7h171.2h25.7h3.8v-3.8v-8.6v-3.8h-3.8
		H160.5z M177.7,399.7h3.8V396v-90.3v-3.8h-3.8h-17.1h-3.8v3.8V396v3.8h3.8H177.7z M191,361.6v3.8h3.8h154.1h3.8v-3.8v-55.9v-3.8
		h-3.8H194.8H191v3.8V361.6z M383.2,399.7h3.8V396v-90.3v-3.8h-3.8H366h-3.8v3.8V396v3.8h3.8H383.2z"/>
</g>
</svg>
