<?xml version="1.0" encoding="utf-8"?>
<!-- Generator: Adobe Illustrator 25.2.1, SVG Export Plug-In . SVG Version: 6.00 Build 0)  -->
<svg version="1.1" id="Layer_1" xmlns="http://www.w3.org/2000/svg" xmlns:xlink="http://www.w3.org/1999/xlink" x="0px" y="0px"
	 width="475.2px" height="491px" viewBox="0 0 475.2 491" style="enable-background:new 0 0 475.2 491;" xml:space="preserve">
<style type="text/css">
	.st0{fill:url(#SVGID_1_);}
	.st1{fill:#BDD0FB;}
	.st2{fill:#FFFFFF;}
	.st3{fill:#91B3FA;}
	.st4{fill:url(#SVGID_2_);}
	.st5{fill:url(#SVGID_3_);}
	.st6{opacity:0.42;fill:#FFFFFF;enable-background:new    ;}
	.st7{opacity:0.55;fill:#FFFFFF;enable-background:new    ;}
	.st8{opacity:0.28;fill:#FFFFFF;enable-background:new    ;}
	.st9{fill:url(#SVGID_4_);}
	.st10{fill:url(#SVGID_5_);}
	.st11{fill:url(#SVGID_6_);}
	.st12{fill:url(#SVGID_7_);}
	.st13{fill:url(#SVGID_8_);}
	.st14{fill:url(#SVGID_9_);}
	.st15{fill:url(#SVGID_10_);}
	.st16{fill:url(#SVGID_11_);}
	.st17{fill:url(#SVGID_12_);}
	.st18{fill:url(#SVGID_13_);}
	.st19{fill:url(#SVGID_14_);}
	.st20{fill:url(#SVGID_15_);}
	.st21{fill:url(#SVGID_16_);}
	.st22{fill:url(#SVGID_17_);}
	.st23{fill:url(#SVGID_18_);}
	.st24{fill:url(#SVGID_19_);}
	.st25{fill:url(#SVGID_20_);}
	.st26{fill:url(#SVGID_21_);}
	.st27{fill:url(#SVGID_22_);}
	.st28{fill:url(#SVGID_23_);}
	.st29{fill:url(#SVGID_24_);}
	.st30{fill:url(#SVGID_25_);}
	.st31{fill:url(#SVGID_26_);}
	.st32{fill:url(#SVGID_27_);}
	.st33{fill:url(#SVGID_28_);}
	.st34{fill:url(#SVGID_29_);}
	.st35{fill:url(#SVGID_30_);}
	.st36{fill:url(#SVGID_31_);}
	.st37{fill:url(#SVGID_32_);}
	.st38{fill:url(#SVGID_33_);}
	.st39{fill:url(#SVGID_34_);}
	.st40{opacity:0.3;}
	.st41{opacity:0.3;fill:url(#SVGID_35_);enable-background:new    ;}
	.st42{opacity:0.3;fill:url(#SVGID_36_);enable-background:new    ;}
	.st43{opacity:0.3;fill:url(#SVGID_37_);enable-background:new    ;}
	.st44{opacity:0.3;fill:url(#SVGID_38_);enable-background:new    ;}
	.st45{opacity:0.3;fill:url(#SVGID_39_);enable-background:new    ;}
	.st46{fill:url(#SVGID_40_);}
	.st47{opacity:0.5;fill:#FFFFFF;enable-background:new    ;}
	.st48{opacity:0.3;fill:url(#SVGID_41_);enable-background:new    ;}
	.st49{opacity:0.3;fill:url(#SVGID_42_);enable-background:new    ;}
	.st50{opacity:0.3;fill:url(#SVGID_43_);enable-background:new    ;}
	.st51{opacity:0.3;fill:url(#SVGID_44_);enable-background:new    ;}
	.st52{fill:url(#SVGID_45_);}
</style>
<g>
	
		<linearGradient id="SVGID_1_" gradientUnits="userSpaceOnUse" x1="485.1036" y1="-206.9345" x2="311.6688" y2="8.4597" gradientTransform="matrix(1 0 0 -1 -68.4 340.5)">
		<stop  offset="0" style="stop-color:#DAE3FE"/>
		<stop  offset="1" style="stop-color:#E9EFFD"/>
	</linearGradient>
	<path class="st0" d="M369,462.5c-4,4.2-7.8,6.9-10.7,9c-35,25.1-76.4,17.8-85.2,16c-13-2.6-38.1-7.7-56.3-29.1
		c-27.5-32.3-23.2-83.2-1.9-116.9c3.9-6.2,24.5-40.3,66.4-45.7c25.3-3.3,54.9,3.4,76.3,21.3C402.4,354.7,399.2,430.7,369,462.5z"/>
	<path class="st1" d="M203.6,308c-0.1-0.8,1-1.2,1.6-0.6c6.2,6.1,20.9,24,14.2,52.2c-8.4,35.4-1,49.3,9,58.3c0,0-14.4-5.1-22.5-19.3
		C186.2,363.8,205.6,322,203.6,308z"/>
	<path class="st2" d="M207.7,319.7c0.5,4.1,0.8,8.1,1.1,12.2c0.2,4.1,0.3,8.2,0.3,12.2c-0.1,4.1-0.2,8.1-0.6,12.2
		c-0.3,4.1-0.9,8.1-1.5,12.1c-0.5,4-1.1,8.1-1.2,12.3c-0.1,4.1,0.4,8.4,1.7,12.4c0.3,1,0.7,2,1.1,3c0.4,1,0.9,2,1.3,2.9
		c1,1.9,2.1,3.8,3.3,5.6c2.5,3.6,5.7,6.9,9.2,9.8c0.4,0.3,1,0.3,1.3,0c0.3-0.3,0.3-0.8,0-1.1c-0.8-0.7-1.7-1.4-2.5-2.2
		c-0.4-0.4-0.8-0.8-1.2-1.1c-0.4-0.4-0.8-0.8-1.1-1.2c-1.5-1.6-2.8-3.2-4-5c-2.4-3.5-4.3-7.3-5.6-11.1c-0.6-1.9-1.1-3.9-1.4-5.9
		c-0.3-2-0.4-4-0.4-6c0-4,0.6-8.1,1.1-12.1c0.5-4.1,1-8.1,1.2-12.2c0.1-2,0.2-4.1,0.3-6.1c0-1,0-2,0.1-3.1c0-1,0-2,0-3.1
		c-0.1-4.1-0.3-8.2-0.6-12.3c-0.4-4.1-0.9-8.2-1.6-12.2c0-0.1-0.1-0.2-0.3-0.2C207.8,319.4,207.7,319.5,207.7,319.7z"/>
	<path class="st3" d="M208.6,394c-0.9,0.8-2.3,0.4-2.7-0.7c-2.2-6.3-6.7-24.7,5.5-44.3c10.3-16.5,14.3-26.5,15.8-31.1
		c0.3-1,1.7-1,2,0C232.7,328.7,241.5,365.1,208.6,394z"/>
	<path class="st2" d="M207.1,393.2C207.1,393.2,207.1,393.2,207.1,393.2c-0.4,0-0.5-0.3-0.5-0.5c0-0.3,3.4-29.7,16.6-53.3
		c0.1-0.2,0.4-0.3,0.6-0.2c0.2,0.1,0.3,0.4,0.2,0.6c-13.2,23.5-16.5,52.7-16.5,53C207.5,393.1,207.4,393.2,207.1,393.2z"/>
	
		<linearGradient id="SVGID_2_" gradientUnits="userSpaceOnUse" x1="349.8107" y1="-101.9461" x2="390.2942" y2="19.5041" gradientTransform="matrix(1 0 0 -1 -68.4 340.5)">
		<stop  offset="0" style="stop-color:#09005D"/>
		<stop  offset="1" style="stop-color:#1A0F91"/>
	</linearGradient>
	<path class="st4" d="M385.9,446.9c0,1.7-1.4,3.2-3.2,3.2H211.4c-1.7,0-3.2-1.4-3.2-3.2l-1.4-98.5c0-1.7,2.1-5.1,5.8-4.9l167.5-4.3
		c2.2-0.1,4.3,0.8,5.9,2.3c1.5,1.5,2.4,3.7,2.3,5.8L385.9,446.9z"/>
	<path class="st3" d="M382.8,443.8c0,1.6-1.3,3-3,3H215.5c-1.6,0-3-1.3-3-3l-1.3-89.4c0.2-5.4,4.9-7.3,7.7-7.2l160.6-4.3
		c1.5,0,3,0.5,4.1,1.6c1.1,1.1,1.7,2.6,1.6,4.1L382.8,443.8z"/>
	<path class="st2" d="M214.3,401.2c-0.2,0-0.3-0.1-0.3-0.3l-0.1-7.3c0-0.2,0.1-0.3,0.3-0.3c0.2,0,0.3,0.1,0.3,0.3l0.1,7.3
		C214.6,401,214.4,401.2,214.3,401.2z"/>
	<path class="st2" d="M214,383.4c-0.2,0-0.3-0.1-0.3-0.3l-0.4-27.8c0-1.9,0.6-3.4,1.7-4.4c2-2,5.2-1.9,5.4-1.9l51.3-1.4
		c0.2,0,0.3,0.1,0.3,0.3c0,0.2-0.1,0.3-0.3,0.3l-51.3,1.4c-0.1,0-3.1-0.1-5,1.7c-1,1-1.5,2.3-1.5,4l0.4,27.8
		C214.3,383.3,214.2,383.4,214,383.4z"/>
	
		<linearGradient id="SVGID_3_" gradientUnits="userSpaceOnUse" x1="356.6861" y1="-153.6446" x2="371.5578" y2="-72.3306" gradientTransform="matrix(1 0 0 -1 -68.4 340.5)">
		<stop  offset="0" style="stop-color:#09005D"/>
		<stop  offset="1" style="stop-color:#1A0F91"/>
	</linearGradient>
	<path class="st5" d="M389.4,458.2H202c-2.3,0-4.2-1.9-4.2-4.3c0-2.4,1.9-4.3,4.2-4.3h187.4c2.3,0,4.2,2,4.2,4.3
		C393.5,456.3,391.7,458.2,389.4,458.2z"/>
	<path class="st6" d="M377.4,369.1l-158.6,1.1c-1.6,0-2.9-1-2.9-2.2v-13.6c0-1.2,1.2-2.1,2.7-2.2l158.6-4.6c1.6,0,3,0.9,3,2.2v17.1
		C380.3,368.1,379,369.1,377.4,369.1z"/>
	<path class="st7" d="M325.7,430h-55.1c-1.1,0-2-0.9-2-2v-51.1c0-1.1,0.9-2,2-2h54.6c0.8,0,1.4,0.6,1.4,1.4v52.7
		C326.6,429.6,326.2,430,325.7,430z"/>
	<path class="st8" d="M327.4,439.3c-0.1,1.7-1.5,3.1-3.2,3.1l-106.9,0.7c-1.3,0-2.4-1.1-2.4-2.4v-3.9c0-1.8,1.5-3.3,3.3-3.3h108.2
		c0.7,0,1.3,0.6,1.3,1.3L327.4,439.3z"/>
	<path class="st7" d="M263.5,428.7h-46.9c-1,0-1.8-0.8-1.8-1.8v-51.8c0-1,0.8-1.8,1.8-1.8h46.9c1,0,1.8,0.8,1.8,1.8V427
		C265.3,428,264.5,428.7,263.5,428.7z"/>
	<path class="st7" d="M378.5,443.2h-47.1c-0.5,0-0.9-0.4-0.9-0.9v-66.5c0-1.6,1.3-2.8,2.8-2.8h45.5c0.4,0,0.7,0.3,0.7,0.7v68.7
		C379.5,442.7,379.1,443.2,378.5,443.2z"/>
	
		<linearGradient id="SVGID_4_" gradientUnits="userSpaceOnUse" x1="381.1346" y1="-10.6136" x2="303.8773" y2="-80.7836" gradientTransform="matrix(1 0 0 -1 -68.4 340.5)">
		<stop  offset="0" style="stop-color:#4F52FF"/>
		<stop  offset="1" style="stop-color:#4042E2"/>
	</linearGradient>
	<path class="st9" d="M294.2,370.7l-51.8-0.5c-1,0-1.8,0.8-1.8,1.8l0.2,39.7c0,1,0.8,1.8,1.9,1.8c9.4-0.3,50.9-1.5,52.7-1.4
		c1.8,0.1,0.8-31.8,0.6-39.7C296,371.4,295.2,370.7,294.2,370.7z"/>
	<path class="st2" d="M242.7,412.1c-0.2,0-0.3-0.1-0.3-0.3l-0.2-39.7c0-0.1,0-0.2,0.1-0.2c0.1-0.1,0.1-0.1,0.2-0.1l51.8,0.5
		c0.2,0,0.3,0.1,0.3,0.3c0.7,19.5,0.7,34.4,0,38.1l0,0.1h-0.1C287.6,410.7,250.1,411.8,242.7,412.1L242.7,412.1L242.7,412.1z
		 M242.5,371.9C242.4,371.9,242.4,371.9,242.5,371.9C242.4,372,242.4,372,242.5,371.9l0.1,39.8c0,0,0,0.1,0.1,0.1l0,0.1v-0.1
		c7.4-0.2,44.5-1.3,51.7-1.4c0.6-3.8,0.6-18.6-0.1-37.9c0,0,0-0.1-0.1-0.1L242.5,371.9z"/>
	<path class="st2" d="M288,406.9h-33.9c-1.1,0-1.7-1.2-1.2-2.1l13.4-22.8c0.6-1,2-0.9,2.4,0.1l6.5,14.2c0.4,0.8,1.5,1.1,2.2,0.4
		l2.6-2.4c0.6-0.6,1.6-0.4,2,0.2l7.1,10.1C289.7,405.7,289.1,406.9,288,406.9z"/>
	<path class="st2" d="M258.5,384.2c1.6-2.2,1.1-5.2-1.1-6.8c-2.2-1.6-5.2-1.1-6.8,1.1c-1.6,2.2-1.1,5.2,1.1,6.8
		C253.8,386.9,256.9,386.4,258.5,384.2z"/>
	
		<linearGradient id="SVGID_5_" gradientUnits="userSpaceOnUse" x1="294.2635" y1="-96.472" x2="276.9603" y2="-52.0521" gradientTransform="matrix(1 0 0 -1 -68.4 340.5)">
		<stop  offset="0" style="stop-color:#09005D"/>
		<stop  offset="1" style="stop-color:#1A0F91"/>
	</linearGradient>
	<path class="st10" d="M206.7,418.8c1.3-4.9,5.4-8.9,10-9.9c0.8-0.2,1.3-1,1.1-1.9c0,0,0,0,0,0c-0.7-2.8,1.2-5.1,3.9-5.8
		c2.8-0.6,5.4,0.6,6.1,3.4c0.4,1.9-0.1,4.1-1.4,5.5c-0.5,0.6-0.6,1.4-0.1,2c2.8,3.3,3.9,8.2,2.7,12.7c-1.8,6.5-7.9,9.5-14.1,7.8
		C208.8,430.9,204.9,425.3,206.7,418.8z"/>
	<path class="st3" d="M208.6,425l0.1-0.1c-1.1-1.6-1.2-3.8-0.4-5.9c0.7-1.6,1.9-3.2,3.9-4.7c0.7-0.6,1.5-1.2,2.3-1.7
		c0.9-0.7,1.9-1.3,2.7-2.1c0.8-0.7,1.6-1.5,1.8-2.6c0.1-0.5,0-1.1-0.1-1.7c-0.1-0.9-0.2-1.7,0.3-2.3l-0.1-0.1
		c-0.5,0.7-0.4,1.6-0.3,2.4c0.1,0.5,0.2,1.1,0.1,1.6c-0.2,1-1,1.8-1.7,2.5c-0.9,0.7-1.8,1.4-2.7,2.1c-0.8,0.5-1.5,1.1-2.3,1.7
		c-2,1.6-3.3,3.1-4,4.8C207.3,421.1,207.5,423.4,208.6,425z"/>
	<path class="st3" d="M211.5,426l0.1,0c-0.8-2.1-0.5-4.6,0.6-7c1.1-2.3,3-4.3,4.4-5.7l-0.1-0.1c-1.5,1.4-3.3,3.3-4.5,5.7
		C211,421.3,210.8,423.9,211.5,426z"/>
	
		<linearGradient id="SVGID_6_" gradientUnits="userSpaceOnUse" x1="288.7904" y1="-82.1967" x2="310.7639" y2="-52.1898" gradientTransform="matrix(1 0 0 -1 -68.4 340.5)">
		<stop  offset="0" style="stop-color:#FEBBBA"/>
		<stop  offset="1" style="stop-color:#FF928E"/>
	</linearGradient>
	<path class="st11" d="M241.1,399.1l0-1.7l-1.8-3.5c-0.3-0.6-0.3-1.4,0-2l2-4c0,0,1.2,8.8,1.5,9.5c0.3,0.7-0.8,2-0.8,2L241.1,399.1z
		"/>
	
		<linearGradient id="SVGID_7_" gradientUnits="userSpaceOnUse" x1="292.7385" y1="-85.0875" x2="314.712" y2="-55.0805" gradientTransform="matrix(1 0 0 -1 -68.4 340.5)">
		<stop  offset="0" style="stop-color:#FEBBBA"/>
		<stop  offset="1" style="stop-color:#FF928E"/>
	</linearGradient>
	<path class="st12" d="M241.2,397.4c0,0-5.4,14.7-14.5,19.2c0,0,3.1,5,4.6,5.3c0,0,9.8-12.5,10.8-22.8L241.2,397.4z"/>
	
		<linearGradient id="SVGID_8_" gradientUnits="userSpaceOnUse" x1="272.7063" y1="-147.5613" x2="267.9342" y2="-147.5613" gradientTransform="matrix(1 0 0 -1 -68.4 340.5)">
		<stop  offset="0" style="stop-color:#09005D"/>
		<stop  offset="1" style="stop-color:#1A0F91"/>
	</linearGradient>
	<path class="st13" d="M204.3,485.6l-0.3,2.2c-0.3,1.1-1.6,3.7-3.4,3.5c-1.1-0.1-1.2-3.2-1.1-3.7c0.3-0.9,0.8-2.1,1.5-2.9h2.5
		C204,484.7,204.4,485.1,204.3,485.6z"/>
	
		<linearGradient id="SVGID_9_" gradientUnits="userSpaceOnUse" x1="306.2357" y1="-122.6206" x2="275.7565" y2="-146.9566" gradientTransform="matrix(1 0 0 -1 -68.4 340.5)">
		<stop  offset="0" style="stop-color:#FEBBBA"/>
		<stop  offset="1" style="stop-color:#FF928E"/>
	</linearGradient>
	<path class="st14" d="M223.6,459.6l0.4,2.4c0,0-1.4,14.1-1.6,19.8c0,0.9,0.2,1.8,0.7,2.5l2.4,3.9l-6.2-3.6l-0.1-0.8l1-1.4
		l-1.3-15.8c-0.1-0.9,0.1-1.9,0.6-2.7l1.3-2.4L223.6,459.6z"/>
	
		<linearGradient id="SVGID_10_" gradientUnits="userSpaceOnUse" x1="289.594" y1="-145.369" x2="281.9001" y2="-145.369" gradientTransform="matrix(1 0 0 -1 -68.4 340.5)">
		<stop  offset="0" style="stop-color:#09005D"/>
		<stop  offset="1" style="stop-color:#1A0F91"/>
	</linearGradient>
	<path class="st15" d="M225.9,488.8h-2c-0.4,0-0.7-0.2-0.9-0.5c-0.6-0.8-1.9-2.3-2.5-2.4c-0.8-0.1-0.7,2.9-0.7,2.9h-0.5l-0.6-3.6
		c-0.1-0.9,0.3-1.8,1.1-2.2c0,0,0.2,1.4,1.2,2c1,0.6,4.1,2.8,4.1,2.8s0.4-0.1,0.8,0C226.6,487.9,226.5,488.8,225.9,488.8z"/>
	
		<linearGradient id="SVGID_11_" gradientUnits="userSpaceOnUse" x1="279.0359" y1="-166.179" x2="272.1912" y2="-86.181" gradientTransform="matrix(1 0 0 -1 -68.4 340.5)">
		<stop  offset="0" style="stop-color:#FEBBBA"/>
		<stop  offset="1" style="stop-color:#FF928E"/>
	</linearGradient>
	<path class="st16" d="M215.2,460.7c0,0-8.2,15.5-9.5,19c-1.3,3.5-1.8,6.5-1.8,6.8c0,0.4-0.6,0.9-2.1,0.9c-0.8,0-1.2-0.3-1.3-0.6
		c-0.2-0.3-0.2-0.6,0-0.8c0.5-1,2-4,2.5-5.4c0.7-1.7,2.1-9.2,2.9-11.8c0.8-2.6,1.7-5.4,5.1-8C211,460.7,213.3,458.4,215.2,460.7z"/>
	
		<linearGradient id="SVGID_12_" gradientUnits="userSpaceOnUse" x1="336.5141" y1="-128.8695" x2="305.2247" y2="-98.3725" gradientTransform="matrix(1 0 0 -1 -68.4 340.5)">
		<stop  offset="0" style="stop-color:#FF928E"/>
		<stop  offset="1" style="stop-color:#FE7062"/>
	</linearGradient>
	<path class="st17" d="M220.3,435.3c1.2-5.1,0-8.9-1.3-11.2c-1-1.9-0.3-4.2,1.6-5.2c3-1.5,6-2.3,6-2.3s5.9,4.3,5.2,7.6
		c-0.4,2-4.1,11.8-4.1,11.8S224.2,437.7,220.3,435.3z"/>
	
		<linearGradient id="SVGID_13_" gradientUnits="userSpaceOnUse" x1="279.1178" y1="-108.3184" x2="296.4815" y2="-108.3184" gradientTransform="matrix(1 0 0 -1 -68.4 340.5)">
		<stop  offset="0" style="stop-color:#4F52FF"/>
		<stop  offset="1" style="stop-color:#4042E2"/>
	</linearGradient>
	<path class="st18" d="M215.7,439.7c0.9-2.6,4.7-4.4,4.7-4.4c3.9,2.3,7.3,0.7,7.3,0.7s0.8,2.9,0.2,5.7c-0.5,2.7-3.9,20.3-3.9,20.3
		c-5.2,1.1-13.3-1.1-13.3-1.1C214.1,455,214.8,442.3,215.7,439.7z"/>
	
		<linearGradient id="SVGID_14_" gradientUnits="userSpaceOnUse" x1="293.5509" y1="-86.156" x2="292.2655" y2="-76.752" gradientTransform="matrix(1 0 0 -1 -68.4 340.5)">
		<stop  offset="0" style="stop-color:#FEBBBA"/>
		<stop  offset="1" style="stop-color:#FF928E"/>
	</linearGradient>
	<path class="st19" d="M222.8,410.7l-1.7,7.7c-0.2,0.7,0.5,0.6,1.1,0.4c1.1-0.2,2.6-0.6,3.1-1.5c0-0.1,0.1-0.2,0.1-0.3l0.7-5.3
		c0.1-0.4-0.2-0.8-0.6-1l-1.4-0.6C223.6,409.9,222.9,410.2,222.8,410.7z"/>
	
		<linearGradient id="SVGID_15_" gradientUnits="userSpaceOnUse" x1="-1270.3693" y1="700.8131" x2="-1307.6992" y2="719.2431" gradientTransform="matrix(1 0 0 -1 -68.4 340.5)">
		<stop  offset="0" style="stop-color:#FEBBBA"/>
		<stop  offset="1" style="stop-color:#FF928E"/>
	</linearGradient>
	<path class="st20" d="M244.2,405.7c0,0-4.5,15.7-22.7,14.2c-1.2-0.1-2.2,0.8-2.3,1.9l0,0.6c-0.1,1.7,1.2,3.1,2.9,3
		c6-0.3,19-2.7,23.5-17.1L244.2,405.7z"/>
	
		<linearGradient id="SVGID_16_" gradientUnits="userSpaceOnUse" x1="-1262.9655" y1="715.7932" x2="-1300.2954" y2="734.2222" gradientTransform="matrix(1 0 0 -1 -68.4 340.5)">
		<stop  offset="0" style="stop-color:#FEBBBA"/>
		<stop  offset="1" style="stop-color:#FF928E"/>
	</linearGradient>
	<path class="st21" d="M245.6,408.4c0,0,0.9-2.5,1.1-4.1c0.2-1.6-0.6-5.2-1.3-6.2c-0.7-1-0.8,1.5-1.1,2.6c-0.3,1.2,0.2,2.8,0.2,2.8
		l-0.3,2.2L245.6,408.4z"/>
	
		<linearGradient id="SVGID_17_" gradientUnits="userSpaceOnUse" x1="295.1549" y1="-65.1623" x2="289.4306" y2="-76.9643" gradientTransform="matrix(1 0 0 -1 -68.4 340.5)">
		<stop  offset="0" style="stop-color:#FEBBBA"/>
		<stop  offset="1" style="stop-color:#FF928E"/>
	</linearGradient>
	<path class="st22" d="M226.3,404.4c0,0,4.3,6.3,1.6,8.1c-2.7,1.8-5.8-2.7-5.8-2.7s-1-3.4,0.1-4.6
		C223.4,404.1,226.3,404.4,226.3,404.4z"/>
	
		<linearGradient id="SVGID_18_" gradientUnits="userSpaceOnUse" x1="303.4034" y1="-93.4189" x2="285.9459" y2="-48.603" gradientTransform="matrix(1 0 0 -1 -68.4 340.5)">
		<stop  offset="0" style="stop-color:#09005D"/>
		<stop  offset="1" style="stop-color:#1A0F91"/>
	</linearGradient>
	<path class="st23" d="M224.5,402.9c0,0,1.9,0.5,2.1,1.3c0.3,0.9-2.7,1.6-3.5,1.6l-0.7,3.4c0,0-1.9-3.3-1.1-5.1
		C222.1,402.3,224.5,402.9,224.5,402.9z"/>
	
		<linearGradient id="SVGID_19_" gradientUnits="userSpaceOnUse" x1="292.597" y1="-63.9217" x2="286.8727" y2="-75.7237" gradientTransform="matrix(1 0 0 -1 -68.4 340.5)">
		<stop  offset="0" style="stop-color:#FEBBBA"/>
		<stop  offset="1" style="stop-color:#FF928E"/>
	</linearGradient>
	<path class="st24" d="M223,409.3c0,0-1.7-2-2.4-0.7c-0.7,1.3,1.5,2.3,2.3,1.7L223,409.3z"/>
	
		<linearGradient id="SVGID_20_" gradientUnits="userSpaceOnUse" x1="433.82" y1="-49.1048" x2="423.22" y2="-64.1689" gradientTransform="matrix(1 0 0 -1 -68.4 340.5)">
		<stop  offset="0" style="stop-color:#09005D"/>
		<stop  offset="1" style="stop-color:#1A0F91"/>
	</linearGradient>
	<path class="st25" d="M350,403.6c0,0.1-2.6,2-2.6,2s0.6,4.1,2.9,5.7c2.5,1.8,6.2-1.5,6.2-1.5s2.9,0.7,4.4-5.3
		c0.4-1.4-1.7-1.5-4.1-1.2C353.5,403.6,350,403.6,350,403.6z"/>
	
		<linearGradient id="SVGID_21_" gradientUnits="userSpaceOnUse" x1="443.2838" y1="-41.3994" x2="418.7108" y2="-96.6875" gradientTransform="matrix(1 0 0 -1 -68.4 340.5)">
		<stop  offset="0" style="stop-color:#FF928E"/>
		<stop  offset="1" style="stop-color:#FE7062"/>
	</linearGradient>
	<path class="st26" d="M345.1,417.5c1-0.7,2.1-1.2,3.3-1.5c0.4-0.1,2.8,0.6,4.3,0.5c2,0,4.1-1,5.8-0.6c1.7,0.4,3,1,3.8,1.5
		c2.4,1.7,3.8,4.8,4.6,7.9c-1.6,1.6-3.6,2.4-3.6,2.4l-0.4,15.1l-8.9,4.6l-10.2-5.1l0.4-14.7c0,0-3.2-1.5-3.5-2.1
		C340.6,424.9,342.3,419.5,345.1,417.5z"/>
	
		<linearGradient id="SVGID_22_" gradientUnits="userSpaceOnUse" x1="407.1527" y1="-81.6949" x2="424.1087" y2="-122.6529" gradientTransform="matrix(1 0 0 -1 -68.4 340.5)">
		<stop  offset="0" style="stop-color:#FEBBBA"/>
		<stop  offset="1" style="stop-color:#FF928E"/>
	</linearGradient>
	<path class="st27" d="M341,425.4c0,0-4.3,12,5.5,17c2.1-0.3,1.3-3.7,1.3-3.7s-4.3-0.9-3-11C343.6,426.7,341,425.4,341,425.4z"/>
	
		<linearGradient id="SVGID_23_" gradientUnits="userSpaceOnUse" x1="437.2119" y1="-81.6052" x2="420.256" y2="-122.5631" gradientTransform="matrix(1 0 0 -1 -68.4 340.5)">
		<stop  offset="0" style="stop-color:#FEBBBA"/>
		<stop  offset="1" style="stop-color:#FF928E"/>
	</linearGradient>
	<path class="st28" d="M366.8,425.4c0,0,3,12.5-5.5,17c-2.1-0.3-1.3-3.7-1.3-3.7s3.5-1.7,3-11C364.2,426.7,366.8,425.4,366.8,425.4z
		"/>
	
		<linearGradient id="SVGID_24_" gradientUnits="userSpaceOnUse" x1="422.2188" y1="-86.9881" x2="421.3378" y2="-122.6821" gradientTransform="matrix(1 0 0 -1 -68.4 340.5)">
		<stop  offset="0" style="stop-color:#09005D"/>
		<stop  offset="1" style="stop-color:#1A0F91"/>
	</linearGradient>
	<path class="st29" d="M362.8,443.2h-18.4c-0.3,0-0.6-0.3-0.6-0.6v-12c0-0.3,0.3-0.6,0.6-0.6h18.4c0.3,0,0.6,0.3,0.6,0.6v12
		C363.4,443,363.1,443.2,362.8,443.2z"/>
	
		<linearGradient id="SVGID_25_" gradientUnits="userSpaceOnUse" x1="441.3904" y1="-115.3127" x2="432.1464" y2="-102.1577" gradientTransform="matrix(1 0 0 -1 -68.4 340.5)">
		<stop  offset="0" style="stop-color:#4F52FF"/>
		<stop  offset="1" style="stop-color:#4042E2"/>
	</linearGradient>
	<path class="st30" d="M372,447.1c-2.2-0.5-7.4-0.2-7.4-0.2l-0.2,0.6l-0.4,2.8c0,0,4.9,0.9,7.4,0.9c0.2,0,0.5,0,0.7-0.1
		c0.1-0.1,0.1-0.1,0.2-0.2C373.3,449.8,373,448.1,372,447.1z"/>
	
		<linearGradient id="SVGID_26_" gradientUnits="userSpaceOnUse" x1="438.5078" y1="-91.7586" x2="428.7269" y2="-118.2506" gradientTransform="matrix(1 0 0 -1 -68.4 340.5)">
		<stop  offset="0" style="stop-color:#FEBBBA"/>
		<stop  offset="1" style="stop-color:#FF928E"/>
	</linearGradient>
	<path class="st31" d="M363.1,446.7l0.9,0c0.5,0,0.9,0.3,1.2,0.6c0.3,0.4,0.5,0.9,0.4,1.4c0,0.4-0.2,0.8-0.5,1.1
		c-0.3,0.3-0.7,0.4-1,0.4l-1.3-0.1L363.1,446.7z"/>
	
		<linearGradient id="SVGID_27_" gradientUnits="userSpaceOnUse" x1="403.0262" y1="-114.3524" x2="408.2702" y2="-102.4424" gradientTransform="matrix(1 0 0 -1 -68.4 340.5)">
		<stop  offset="0" style="stop-color:#4F52FF"/>
		<stop  offset="1" style="stop-color:#4042E2"/>
	</linearGradient>
	<path class="st32" d="M333.6,446.9c2.3-0.4,7.4,0,7.4,0l0.2,0.6l0.3,2.8c0,0-5,0.7-7.4,0.7c-0.2,0-0.5,0-0.7-0.1
		c-0.1-0.1-0.1-0.1-0.2-0.2C332.2,449.4,332.5,447.8,333.6,446.9z"/>
	
		<linearGradient id="SVGID_28_" gradientUnits="userSpaceOnUse" x1="418.9112" y1="-83.7754" x2="409.1262" y2="-110.2804" gradientTransform="matrix(1 0 0 -1 -68.4 340.5)">
		<stop  offset="0" style="stop-color:#FEBBBA"/>
		<stop  offset="1" style="stop-color:#FF928E"/>
	</linearGradient>
	<path class="st33" d="M342.5,446.7l-0.9,0c-0.5,0-0.9,0.2-1.2,0.6c-0.3,0.4-0.5,0.9-0.5,1.4c0,0.4,0.2,0.8,0.4,1.1
		c0.3,0.3,0.6,0.4,1,0.4l1.3-0.1L342.5,446.7z"/>
	
		<linearGradient id="SVGID_29_" gradientUnits="userSpaceOnUse" x1="374.0785" y1="-148.9562" x2="403.7355" y2="-123.0592" gradientTransform="matrix(1 0 0 -1 -68.4 340.5)">
		<stop  offset="0" style="stop-color:#4F52FF"/>
		<stop  offset="1" style="stop-color:#4042E2"/>
	</linearGradient>
	<path class="st34" d="M372.6,438.3c-1-2.3-3.5-2.7-5.6-1.6c0,0-13.4,6.9-25.2,9.9c0.3,1.1,0.5,2.2,0.5,3.4c0,0.3,0,0.5,0,0.8
		c9.1-0.5,18.9-3.5,27.3-6.1C372.2,443.7,373.7,440.8,372.6,438.3z"/>
	
		<linearGradient id="SVGID_30_" gradientUnits="userSpaceOnUse" x1="417.5748" y1="-105.102" x2="417.2198" y2="-66.119" gradientTransform="matrix(1 0 0 -1 -68.4 340.5)">
		<stop  offset="0" style="stop-color:#4F52FF"/>
		<stop  offset="1" style="stop-color:#4042E2"/>
	</linearGradient>
	<path class="st35" d="M363.1,450.1c0-1.3,0.2-2.5,0.8-3.6c0,0,0-0.1,0-0.2c-0.7-0.2-1.5-0.5-2.7-0.9c-8.4-2.9-14.8-5.8-20.9-9.1
		c-2.4-1.3-5.1-0.4-5.8,2.4c-0.7,2.5,0.8,4.6,3.1,5.4c6.8,2.3,3.2,1.6,5.4,2.3c5.9,1.8,13.3,3.5,20.1,4
		C363.1,450.3,363.1,450.2,363.1,450.1z"/>
	
		<linearGradient id="SVGID_31_" gradientUnits="userSpaceOnUse" x1="422.0419" y1="-85.076" x2="421.8159" y2="-65.446" gradientTransform="matrix(1 0 0 -1 -68.4 340.5)">
		<stop  offset="0" style="stop-color:#FEBBBA"/>
		<stop  offset="1" style="stop-color:#FF928E"/>
	</linearGradient>
	<path class="st36" d="M348.5,415.9c0,0,0.9,3.9,5.3,3.8c4.5-0.1,4.9-3.8,4.9-3.8l-2.9-0.6l-0.2-3.2l-4.4,0.3l-0.1,3.1L348.5,415.9z
		"/>
	
		<linearGradient id="SVGID_32_" gradientUnits="userSpaceOnUse" x1="421.3863" y1="-74.1793" x2="424.8263" y2="-57.4343" gradientTransform="matrix(1 0 0 -1 -68.4 340.5)">
		<stop  offset="0" style="stop-color:#FEBBBA"/>
		<stop  offset="1" style="stop-color:#FF928E"/>
	</linearGradient>
	<path class="st37" d="M351.7,402.9c0,0-5,9.7,0.9,12.1c4.2,1.7,6.8-6.5,6.1-8.7c-1.2-3.4-2-3-2-3L351.7,402.9z"/>
	
		<linearGradient id="SVGID_33_" gradientUnits="userSpaceOnUse" x1="434.2574" y1="-46.8151" x2="422.3294" y2="-63.765" gradientTransform="matrix(1 0 0 -1 -68.4 340.5)">
		<stop  offset="0" style="stop-color:#09005D"/>
		<stop  offset="1" style="stop-color:#1A0F91"/>
	</linearGradient>
	<path class="st38" d="M359.9,402c2.5,0.7,0.4,6.1-3.4,4.8c-3.7-1.3-5.2-1.3-5.8-0.2c-0.6,1-0.7,4.7-2,2.9c-1.4-2-2.2-5.9-0.5-7.2
		c1.5-1.1,1.9-2.9,3.7-2.8c2.4,0.1,4.3-1,5.4-0.2C358.6,400,358,401.5,359.9,402z"/>
	
		<linearGradient id="SVGID_34_" gradientUnits="userSpaceOnUse" x1="419.1099" y1="-76.4036" x2="416.6439" y2="-49.7279" gradientTransform="matrix(1 0 0 -1 -68.4 340.5)">
		<stop  offset="0" style="stop-color:#FEBBBA"/>
		<stop  offset="1" style="stop-color:#FF928E"/>
	</linearGradient>
	<path class="st39" d="M350.5,407.4c0,0-1.1-1.1-1.2,0.2c-0.2,1.4,0.4,3.2,1,2.2C350.9,408.8,350.5,407.4,350.5,407.4z"/>
	<path class="st3" d="M354.7,433.6c0.1,0.7-0.3,1.3-1,1.4c-0.7,0.1-1.4-0.4-1.5-1.1c-0.1-0.7,0.2-1.4,0.9-1.5
		C353.9,432.3,354.6,432.9,354.7,433.6z"/>
	<g class="st40">
		
			<linearGradient id="SVGID_35_" gradientUnits="userSpaceOnUse" x1="473.7636" y1="71.3422" x2="330.5819" y2="-61.9165" gradientTransform="matrix(1 0 0 -1 -68.4 340.5)">
			<stop  offset="0" style="stop-color:#FF928E"/>
			<stop  offset="1" style="stop-color:#FE7062"/>
		</linearGradient>
		<path class="st41" d="M327.8,331.8c-0.4-0.1-0.6-0.5-0.5-0.9c0.2-0.9,0.4-1.7,0.6-2.6c0.1-0.4,0.5-0.7,0.9-0.5c0,0,0,0,0,0
			c0.4,0.1,0.6,0.5,0.5,0.9c-0.2,0.8-0.4,1.6-0.6,2.4C328.7,331.6,328.3,331.9,327.8,331.8C327.8,331.8,327.8,331.8,327.8,331.8z
			 M329.7,325.4C329.7,325.4,329.6,325.3,329.7,325.4c-0.5-0.2-0.7-0.6-0.5-1c0.3-0.8,0.7-1.6,1.1-2.4c0.2-0.4,0.7-0.5,1-0.3
			c0.4,0.2,0.5,0.7,0.3,1c-0.4,0.7-0.8,1.5-1.1,2.3C330.5,325.3,330.1,325.5,329.7,325.4z M333,319.5c-0.1,0-0.2-0.1-0.2-0.1
			c-0.3-0.3-0.4-0.7-0.2-1.1c0.5-0.7,1.1-1.4,1.6-2.1c0.3-0.3,0.8-0.4,1.1-0.1c0.3,0.3,0.4,0.8,0.1,1.1c-0.5,0.6-1.1,1.3-1.5,2
			C333.7,319.5,333.3,319.6,333,319.5z M337.5,314.6c-0.1,0-0.3-0.1-0.4-0.2c-0.3-0.3-0.2-0.8,0.1-1.1c0.7-0.6,1.3-1.1,2.1-1.6
			c0.3-0.3,0.8-0.2,1.1,0.2c0.3,0.3,0.2,0.8-0.2,1.1c-0.7,0.5-1.3,1-1.9,1.6C338.1,314.6,337.8,314.6,337.5,314.6z M343.1,310.7
			c-0.2-0.1-0.4-0.2-0.5-0.4c-0.2-0.4-0.1-0.8,0.3-1c0.8-0.4,1.6-0.8,2.4-1.2c0.4-0.2,0.8,0,1,0.4c0.2,0.4,0,0.8-0.4,1
			c-0.8,0.3-1.5,0.7-2.3,1.1C343.5,310.8,343.3,310.8,343.1,310.7z M349.3,308.2c-0.2-0.1-0.5-0.3-0.5-0.5c-0.1-0.4,0.1-0.8,0.5-0.9
			c0.8-0.2,1.7-0.4,2.6-0.6c0.4-0.1,0.8,0.2,0.9,0.6c0.1,0.4-0.2,0.8-0.6,0.9c-0.8,0.2-1.6,0.3-2.4,0.6
			C349.6,308.3,349.4,308.3,349.3,308.2z M376.9,314.4c-0.1,0-0.2-0.1-0.3-0.2c-0.6-0.5-1.3-1.1-2-1.5c-0.3-0.3-0.4-0.7-0.2-1.1
			c0.3-0.3,0.7-0.4,1.1-0.2c0.7,0.5,1.4,1.1,2.1,1.6c0.3,0.3,0.4,0.8,0.1,1.1C377.5,314.4,377.2,314.5,376.9,314.4z M355.9,307.2
			c-0.3-0.1-0.5-0.4-0.6-0.7c0-0.4,0.3-0.8,0.7-0.8c0.9,0,1.8,0,2.6,0c0.4,0,0.8,0.4,0.7,0.8c0,0.4-0.4,0.8-0.8,0.7
			c-0.8,0-1.7,0-2.5,0C356.1,307.2,356,307.2,355.9,307.2z M371.4,310.6c0,0-0.1,0-0.1-0.1c-0.7-0.4-1.5-0.8-2.3-1.1
			c-0.4-0.2-0.6-0.6-0.4-1c0.2-0.4,0.6-0.6,1-0.4c0.8,0.3,1.6,0.7,2.4,1.1c0.4,0.2,0.5,0.7,0.3,1
			C372.1,310.6,371.7,310.7,371.4,310.6z M362.6,307.6c-0.4-0.1-0.6-0.5-0.5-0.9c0.1-0.4,0.5-0.7,0.9-0.6c0.9,0.2,1.7,0.4,2.6,0.6
			c0,0,0,0,0,0c0.4,0.1,0.6,0.5,0.5,0.9c-0.1,0.4-0.5,0.7-0.9,0.5C364.4,307.9,363.5,307.8,362.6,307.6
			C362.7,307.6,362.7,307.6,362.6,307.6z"/>
		
			<linearGradient id="SVGID_36_" gradientUnits="userSpaceOnUse" x1="486.1452" y1="58.04" x2="342.9627" y2="-75.2193" gradientTransform="matrix(1 0 0 -1 -68.4 340.5)">
			<stop  offset="0" style="stop-color:#FF928E"/>
			<stop  offset="1" style="stop-color:#FE7062"/>
		</linearGradient>
		<path class="st42" d="M380.7,318.3c-0.1,0-0.3-0.1-0.4-0.3c-0.3-0.3-0.5-0.6-0.8-0.9c-0.3-0.3-0.2-0.8,0.1-1.1
			c0.3-0.3,0.8-0.2,1.1,0.1c0.3,0.3,0.6,0.6,0.8,1c0.3,0.3,0.2,0.8-0.1,1.1C381.2,318.3,380.9,318.4,380.7,318.3z"/>
	</g>
	<g class="st40">
		
			<linearGradient id="SVGID_37_" gradientUnits="userSpaceOnUse" x1="500.5538" y1="42.5569" x2="357.3721" y2="-90.7009" gradientTransform="matrix(1 0 0 -1 -68.4 340.5)">
			<stop  offset="0" style="stop-color:#FF928E"/>
			<stop  offset="1" style="stop-color:#FE7062"/>
		</linearGradient>
		<path class="st43" d="M387.1,340.9c-0.4-0.1-0.6-0.5-0.5-0.8c0-0.4,0.1-0.8,0.1-1.2c0-0.4,0.4-0.7,0.8-0.7c0.4,0,0.7,0.4,0.7,0.8
			c0,0.4-0.1,0.8-0.1,1.3c-0.1,0.4-0.4,0.7-0.9,0.7C387.2,340.9,387.2,340.9,387.1,340.9z"/>
		
			<linearGradient id="SVGID_38_" gradientUnits="userSpaceOnUse" x1="495.9709" y1="47.4821" x2="352.7889" y2="-85.7768" gradientTransform="matrix(1 0 0 -1 -68.4 340.5)">
			<stop  offset="0" style="stop-color:#FF928E"/>
			<stop  offset="1" style="stop-color:#FE7062"/>
		</linearGradient>
		<path class="st44" d="M348.9,366c-0.3-0.1-0.7-0.2-1-0.3c-0.4-0.1-0.6-0.6-0.5-1c0.1-0.4,0.6-0.6,1-0.5c0.8,0.3,1.6,0.5,2.4,0.7
			c0.4,0.1,0.7,0.5,0.6,0.9c-0.1,0.4-0.5,0.7-0.9,0.6C349.9,366.3,349.4,366.1,348.9,366z M344.1,364.1c0,0-0.1,0-0.1,0
			c-0.8-0.4-1.5-0.8-2.3-1.2c-0.4-0.2-0.5-0.7-0.3-1.1c0.2-0.4,0.7-0.5,1.1-0.3c0.7,0.4,1.4,0.8,2.2,1.2c0.4,0.2,0.5,0.7,0.4,1
			C344.9,364.1,344.5,364.3,344.1,364.1z M354.4,367.1c-0.4-0.1-0.6-0.4-0.5-0.8c0-0.4,0.4-0.7,0.8-0.7c0.8,0.1,1.6,0.1,2.5,0.1
			c0.4,0,0.8,0.4,0.8,0.8c0,0.4-0.4,0.8-0.8,0.8c-0.9,0-1.7-0.1-2.6-0.1C354.5,367.1,354.4,367.1,354.4,367.1z M338.5,360.6
			c-0.1,0-0.2-0.1-0.3-0.1c-0.7-0.5-1.3-1.1-1.9-1.7c-0.3-0.3-0.3-0.8,0-1.1c0.3-0.3,0.8-0.3,1.1,0c0.6,0.6,1.2,1.1,1.9,1.6
			c0.3,0.3,0.4,0.8,0.1,1.1C339.1,360.6,338.8,360.7,338.5,360.6z M361,367c-0.3-0.1-0.5-0.3-0.5-0.6c0-0.4,0.2-0.8,0.7-0.9
			c0.8-0.1,1.6-0.2,2.4-0.4c0.4-0.1,0.8,0.2,0.9,0.6c0.1,0.4-0.2,0.8-0.6,0.9c-0.8,0.2-1.7,0.3-2.6,0.4C361.2,367,361.1,367,361,367
			z M367.4,365.5c-0.2-0.1-0.4-0.2-0.5-0.5c-0.1-0.4,0.1-0.8,0.5-1c0.8-0.3,1.5-0.6,2.3-0.9c0.4-0.2,0.8,0,1,0.4
			c0.2,0.4,0,0.8-0.4,1c-0.8,0.4-1.6,0.7-2.4,1C367.7,365.5,367.6,365.5,367.4,365.5z M373.4,362.6c-0.2,0-0.3-0.2-0.4-0.3
			c-0.2-0.4-0.1-0.8,0.2-1.1c0.7-0.4,1.4-0.9,2-1.4c0.3-0.3,0.8-0.2,1.1,0.2c0.3,0.3,0.2,0.8-0.2,1.1c-0.7,0.5-1.4,1-2.1,1.5
			C373.8,362.6,373.6,362.6,373.4,362.6z M378.5,358.5c-0.1,0-0.2-0.1-0.3-0.2c-0.3-0.3-0.3-0.8,0-1.1c0.6-0.6,1.1-1.2,1.7-1.8
			c0.3-0.3,0.8-0.4,1.1-0.1c0.3,0.3,0.4,0.8,0.1,1.1c-0.6,0.7-1.1,1.3-1.8,1.9C379.1,358.5,378.8,358.5,378.5,358.5z M382.7,353.3
			c-0.1,0-0.1,0-0.2-0.1c-0.4-0.2-0.5-0.7-0.2-1.1c0.4-0.7,0.8-1.4,1.2-2.1c0.2-0.4,0.7-0.5,1-0.3c0.4,0.2,0.5,0.7,0.3,1
			c-0.4,0.8-0.8,1.5-1.3,2.2C383.4,353.3,383,353.4,382.7,353.3z M385.6,347.4C385.6,347.4,385.6,347.4,385.6,347.4
			c-0.4-0.2-0.7-0.6-0.5-1c0.2-0.6,0.4-1.1,0.6-1.7c0.1-0.2,0.1-0.4,0.2-0.6c0.1-0.4,0.5-0.7,0.9-0.5c0.4,0.1,0.7,0.5,0.5,0.9
			c-0.1,0.2-0.1,0.4-0.2,0.7c-0.2,0.6-0.4,1.2-0.6,1.8C386.4,347.3,386,347.5,385.6,347.4z"/>
		
			<linearGradient id="SVGID_39_" gradientUnits="userSpaceOnUse" x1="483.1484" y1="61.2592" x2="339.9666" y2="-71.9996" gradientTransform="matrix(1 0 0 -1 -68.4 340.5)">
			<stop  offset="0" style="stop-color:#FF928E"/>
			<stop  offset="1" style="stop-color:#FE7062"/>
		</linearGradient>
		<path class="st45" d="M333.8,355.9c-0.1,0-0.3-0.1-0.4-0.3c-0.3-0.3-0.5-0.7-0.8-1c-0.3-0.3-0.2-0.8,0.2-1.1
			c0.3-0.3,0.8-0.2,1.1,0.2c0.2,0.3,0.5,0.6,0.7,1c0.3,0.3,0.2,0.8-0.1,1.1C334.3,355.9,334.1,356,333.8,355.9z"/>
	</g>
	
		<linearGradient id="SVGID_40_" gradientUnits="userSpaceOnUse" x1="485.0479" y1="59.2187" x2="341.8661" y2="-74.0399" gradientTransform="matrix(1 0 0 -1 -68.4 340.5)">
		<stop  offset="0" style="stop-color:#FF928E"/>
		<stop  offset="1" style="stop-color:#FE7062"/>
	</linearGradient>
	<path class="st46" d="M337.4,347.6c0.1,0.1,0.2,0.2,0.4,0.2l4.4-0.3c1.2,1.7,2.7,3.1,4.4,4.4l-0.2,4.4c0,0.2,0.1,0.3,0.2,0.4l4.9,2
		c0.1,0.1,0.3,0,0.4-0.1l2.9-3.3c2.1,0.3,4.2,0.3,6.2,0l2.9,3.3c0.1,0.1,0.3,0.2,0.4,0.1l4.8-2c0.1-0.1,0.2-0.2,0.2-0.4l-0.3-4.4
		c1.7-1.2,3.1-2.7,4.4-4.4l4.4,0.2c0.2,0,0.3-0.1,0.4-0.2l2-4.9c0.1-0.1,0-0.3-0.1-0.4l-3.3-2.9c0.3-2.1,0.3-4.2,0-6.2l3.3-2.9
		c0.1-0.1,0.2-0.3,0.1-0.4l-2-4.8c-0.1-0.1-0.2-0.2-0.4-0.2l-4.4,0.3c-1.2-1.7-2.7-3.1-4.4-4.4l0.2-4.4c0-0.2-0.1-0.3-0.2-0.4
		l-4.9-2c-0.1-0.1-0.3,0-0.4,0.1l-2.9,3.3c-2.1-0.3-4.2-0.3-6.2,0l-2.9-3.3c-0.1-0.1-0.3-0.2-0.4-0.1l-4.8,2
		c-0.1,0.1-0.2,0.2-0.2,0.4l0.3,4.4c-1.7,1.2-3.1,2.7-4.4,4.4l-4.4-0.2c-0.2,0-0.3,0.1-0.3,0.2l-2,4.9c-0.1,0.1,0,0.3,0.1,0.4
		l3.3,2.9c-0.3,2.1-0.3,4.2,0,6.2l-3.3,2.9c-0.1,0.1-0.2,0.3-0.1,0.4L337.4,347.6z"/>
	<path class="st47" d="M356.1,341.3c-2.5-0.7-4.1-3.2-3.7-5.8c0.4-2.9,3.1-4.9,6-4.5c1.4,0.2,2.6,0.9,3.5,2.1c0.8,1.1,1.2,2.5,1,3.9
		c-0.4,2.9-3.1,4.9-6,4.5C356.6,341.4,356.4,341.4,356.1,341.3z M358.8,332.3c-0.2-0.1-0.4-0.1-0.6-0.1c-2.2-0.3-4.3,1.2-4.6,3.5
		c-0.3,2.2,1.2,4.3,3.5,4.6c2.2,0.3,4.3-1.2,4.6-3.5c0.1-1.1-0.1-2.1-0.8-3C360.3,333.1,359.6,332.6,358.8,332.3z"/>
	<path class="st47" d="M354.1,348.6c-0.4-0.1-0.8-0.3-1.3-0.4c-0.1-0.1-0.3-0.1-0.4-0.2c-0.6-0.3-1.2-0.6-1.8-1c0,0,0,0,0,0
		c0,0,0,0-0.1,0c0,0-0.1-0.1-0.1-0.1c-0.1-0.1-0.2-0.2-0.1-0.3c0,0,0-0.1,0-0.1c0.1-0.1,0.3-0.2,0.4-0.1c0.7,0.5,1.5,0.9,2.3,1.2
		c4.1,1.7,8.5,1,11.9-1.4c1.9-1.3,3.4-3.2,4.3-5.4c0.2-0.4,0.3-0.8,0.4-1.2c0.8-2.7,0.6-5.6-0.5-8.3c-1.3-3.1-3.7-5.4-6.7-6.7
		c-6.3-2.6-13.6,0.5-16.1,6.8c-0.2,0.4-0.3,0.8-0.4,1.2c-0.5,1.7-0.6,3.6-0.4,5.4c0,0,0,0.1,0,0.1c0,0.1-0.1,0.2-0.2,0.2
		c-0.2,0-0.3-0.1-0.4-0.3c-0.3-1.9-0.2-3.8,0.4-5.6c0.1-0.4,0.3-0.8,0.4-1.2c2.7-6.6,10.3-9.9,17-7.2c3.2,1.3,5.7,3.8,7.1,7
		c1.2,2.8,1.3,5.8,0.5,8.7c-0.1,0.4-0.3,0.8-0.4,1.3c-1.3,3.2-3.8,5.7-7,7.1C360,349.3,357,349.5,354.1,348.6z"/>
	<g class="st40">
		
			<linearGradient id="SVGID_41_" gradientUnits="userSpaceOnUse" x1="460.1853" y1="85.9302" x2="317.0032" y2="-47.3281" gradientTransform="matrix(1 0 0 -1 -68.4 340.5)">
			<stop  offset="0" style="stop-color:#FF928E"/>
			<stop  offset="1" style="stop-color:#FE7062"/>
		</linearGradient>
		<path class="st48" d="M296.8,343.9c-0.2-0.1-0.3-0.2-0.3-0.5c0-0.4,0-0.8,0-1.2c0-0.3,0.2-0.5,0.5-0.4c0.3,0,0.5,0.2,0.4,0.5
			c0,0.4,0,0.8,0,1.2c0,0.3-0.2,0.5-0.5,0.5C296.9,343.9,296.8,343.9,296.8,343.9z"/>
		
			<linearGradient id="SVGID_42_" gradientUnits="userSpaceOnUse" x1="460.5463" y1="85.5433" x2="317.3642" y2="-47.7152" gradientTransform="matrix(1 0 0 -1 -68.4 340.5)">
			<stop  offset="0" style="stop-color:#FF928E"/>
			<stop  offset="1" style="stop-color:#FE7062"/>
		</linearGradient>
		<path class="st49" d="M297.1,340.3c-0.2-0.1-0.4-0.3-0.3-0.5c0.1-0.7,0.3-1.4,0.5-2c0-0.1,0.1-0.3,0.1-0.4
			c0.1-0.3,0.4-0.4,0.6-0.3c0.3,0.1,0.4,0.3,0.3,0.6c0,0.1-0.1,0.3-0.1,0.4c-0.2,0.6-0.3,1.3-0.5,1.9
			C297.7,340.1,297.4,340.3,297.1,340.3C297.1,340.3,297.1,340.3,297.1,340.3z M298.6,335.5C298.6,335.5,298.6,335.5,298.6,335.5
			c-0.3-0.1-0.4-0.4-0.3-0.7c0.4-0.8,0.8-1.5,1.2-2.2c0.1-0.2,0.4-0.3,0.7-0.2c0.2,0.1,0.3,0.4,0.2,0.7c-0.4,0.7-0.8,1.4-1.1,2.1
			C299.1,335.5,298.8,335.6,298.6,335.5z M301.2,331.3c-0.1,0-0.1,0-0.2-0.1c-0.2-0.2-0.2-0.5-0.1-0.7c0.5-0.7,1.1-1.3,1.7-1.9
			c0.2-0.2,0.5-0.2,0.7,0c0.2,0.2,0.2,0.5,0,0.7c-0.6,0.6-1.1,1.2-1.6,1.8C301.6,331.3,301.4,331.4,301.2,331.3z M304.7,327.9
			c-0.1,0-0.2-0.1-0.2-0.2c-0.2-0.2-0.1-0.5,0.1-0.7c0.7-0.5,1.4-1,2.1-1.4c0.2-0.1,0.5-0.1,0.7,0.2c0.1,0.2,0.1,0.5-0.2,0.7
			c-0.7,0.4-1.4,0.8-2,1.3C305,327.9,304.9,327.9,304.7,327.9z M309,325.4c-0.1,0-0.2-0.1-0.3-0.3c-0.1-0.2,0-0.5,0.3-0.6
			c0.8-0.3,1.6-0.6,2.4-0.8c0.3-0.1,0.5,0.1,0.6,0.3c0.1,0.3-0.1,0.5-0.3,0.6c-0.8,0.2-1.5,0.5-2.3,0.8
			C309.2,325.4,309.1,325.4,309,325.4z M313.8,324c-0.2,0-0.3-0.2-0.3-0.4c0-0.3,0.1-0.5,0.4-0.5c0.8-0.1,1.7-0.2,2.5-0.2
			c0.3,0,0.5,0.2,0.5,0.5c0,0.3-0.2,0.5-0.5,0.5c-0.8,0-1.6,0.1-2.4,0.2C313.9,324.1,313.9,324.1,313.8,324z M318.7,323.9
			c-0.2-0.1-0.4-0.3-0.3-0.5c0-0.3,0.3-0.5,0.5-0.4c0.8,0.1,1.7,0.2,2.5,0.4c0.3,0.1,0.4,0.3,0.4,0.6s-0.3,0.4-0.6,0.4
			C320.4,324.1,319.6,324,318.7,323.9C318.8,323.9,318.8,323.9,318.7,323.9z M325.8,325.9C325.8,325.9,325.8,325.9,325.8,325.9
			c-0.7-0.3-1.3-0.6-2-0.9c-0.1,0-0.2-0.1-0.3-0.1c-0.2-0.1-0.4-0.4-0.3-0.6c0.1-0.3,0.4-0.4,0.6-0.3c0.1,0,0.2,0.1,0.3,0.1
			c0.7,0.3,1.4,0.5,2,0.9c0.2,0.1,0.3,0.4,0.2,0.6C326.3,325.9,326.1,326,325.8,325.9z"/>
	</g>
	<g class="st40">
		
			<linearGradient id="SVGID_43_" gradientUnits="userSpaceOnUse" x1="477.0973" y1="67.7601" x2="333.9152" y2="-65.4983" gradientTransform="matrix(1 0 0 -1 -68.4 340.5)">
			<stop  offset="0" style="stop-color:#FF928E"/>
			<stop  offset="1" style="stop-color:#FE7062"/>
		</linearGradient>
		<path class="st50" d="M311.5,363.3c-0.3-0.1-0.4-0.3-0.3-0.6c0.1-0.3,0.3-0.4,0.6-0.3c0.8,0.2,1.5,0.4,2.3,0.5
			c0.3,0,0.4,0.3,0.4,0.5c0,0.3-0.3,0.4-0.5,0.4C313.1,363.7,312.3,363.5,311.5,363.3z M309.2,362.5
			C309.2,362.5,309.2,362.5,309.2,362.5c-0.8-0.3-1.6-0.7-2.3-1.1c-0.2-0.1-0.3-0.4-0.2-0.6c0.1-0.2,0.4-0.3,0.7-0.2
			c0.7,0.4,1.4,0.7,2.1,1c0.2,0.1,0.4,0.4,0.3,0.6C309.7,362.4,309.4,362.5,309.2,362.5z M316.3,364c-0.2-0.1-0.4-0.3-0.3-0.5
			c0-0.3,0.2-0.5,0.5-0.5c0.8,0,1.6,0,2.4-0.1c0.3,0,0.5,0.2,0.5,0.4c0,0.3-0.2,0.5-0.4,0.5c-0.8,0.1-1.7,0.1-2.5,0.1
			C316.4,364,316.3,364,316.3,364z M305,360.1c0,0-0.1,0-0.1-0.1c-0.7-0.5-1.3-1-1.9-1.6c-0.2-0.2-0.2-0.5,0-0.7
			c0.2-0.2,0.5-0.2,0.7,0c0.6,0.5,1.2,1.1,1.8,1.5c0.2,0.2,0.3,0.5,0.1,0.7C305.4,360.1,305.1,360.1,305,360.1z M321.2,363.5
			c-0.2,0-0.3-0.2-0.3-0.4c-0.1-0.3,0.1-0.5,0.4-0.6c0.8-0.2,1.5-0.4,2.3-0.6c0.2-0.1,0.5,0,0.6,0.3c0.1,0.2,0,0.5-0.3,0.6
			c-0.8,0.3-1.6,0.5-2.4,0.7C321.3,363.6,321.2,363.6,321.2,363.5z M325.7,361.9c-0.1,0-0.2-0.1-0.3-0.2c-0.1-0.2,0-0.5,0.2-0.6
			c0.7-0.4,1.4-0.7,2.1-1.2c0.2-0.1,0.5-0.1,0.7,0.1c0.1,0.2,0.1,0.5-0.1,0.7c-0.7,0.4-1.4,0.9-2.2,1.2
			C326,362,325.9,362,325.7,361.9z M329.8,359.3c-0.1,0-0.2-0.1-0.2-0.2c-0.2-0.2-0.1-0.5,0.1-0.7c0.6-0.5,1.2-1.1,1.7-1.6
			c0.2-0.2,0.5-0.2,0.7,0c0.2,0.2,0.2,0.5,0,0.7c-0.6,0.6-1.2,1.2-1.8,1.7C330.1,359.3,330,359.3,329.8,359.3z"/>
		
			<linearGradient id="SVGID_44_" gradientUnits="userSpaceOnUse" x1="468.6118" y1="76.8758" x2="325.4303" y2="-56.382" gradientTransform="matrix(1 0 0 -1 -68.4 340.5)">
			<stop  offset="0" style="stop-color:#FF928E"/>
			<stop  offset="1" style="stop-color:#FE7062"/>
		</linearGradient>
		<path class="st51" d="M301.4,356.7c-0.1,0-0.2-0.1-0.2-0.2c-0.3-0.3-0.5-0.6-0.8-1c-0.2-0.2-0.1-0.5,0.1-0.7
			c0.2-0.2,0.5-0.1,0.7,0.1c0.2,0.3,0.5,0.6,0.7,0.9c0.2,0.2,0.1,0.5-0.1,0.7C301.7,356.7,301.5,356.8,301.4,356.7z"/>
	</g>
	
		<linearGradient id="SVGID_45_" gradientUnits="userSpaceOnUse" x1="469.7645" y1="75.639" x2="326.5821" y2="-57.619" gradientTransform="matrix(1 0 0 -1 -68.4 340.5)">
		<stop  offset="0" style="stop-color:#FF928E"/>
		<stop  offset="1" style="stop-color:#FE7062"/>
	</linearGradient>
	<path class="st52" d="M303.5,350.9c0,0.1,0.1,0.2,0.2,0.1l2.9-0.2c0.8,1.1,1.8,2.1,2.9,2.9l-0.2,2.9c0,0.1,0.1,0.2,0.1,0.2l3.3,1.3
		c0.1,0,0.2,0,0.3-0.1l1.9-2.2c1.4,0.2,2.8,0.2,4.1,0l2,2.2c0.1,0.1,0.2,0.1,0.3,0.1l3.2-1.4c0.1,0,0.2-0.1,0.1-0.2l-0.2-2.9
		c1.1-0.8,2.1-1.8,2.9-2.9l2.9,0.2c0.1,0,0.2-0.1,0.2-0.1l1.3-3.3c0-0.1,0-0.2-0.1-0.3l-2.2-1.9c0.2-1.4,0.2-2.8,0-4.1l2.2-2
		c0.1-0.1,0.1-0.2,0.1-0.3l-1.4-3.2c0-0.1-0.1-0.2-0.2-0.1l-2.9,0.2c-0.8-1.1-1.8-2.1-2.9-2.9l0.2-2.9c0-0.1-0.1-0.2-0.1-0.2
		l-3.3-1.3c-0.1,0-0.2,0-0.3,0.1l-1.9,2.2c-1.4-0.2-2.8-0.2-4.1,0l-2-2.2c-0.1-0.1-0.2-0.1-0.3-0.1l-3.2,1.4c-0.1,0-0.2,0.1-0.1,0.2
		l0.2,2.9c-1.1,0.8-2.1,1.8-2.9,2.9l-2.9-0.2c-0.1,0-0.2,0.1-0.2,0.1l-1.3,3.3c0,0.1,0,0.2,0.1,0.3l2.2,1.9c-0.2,1.4-0.2,2.8,0,4.1
		l-2.2,2c-0.1,0.1-0.1,0.2-0.1,0.3L303.5,350.9z"/>
	<path class="st47" d="M316.1,346.7c-0.7-0.2-1.4-0.7-1.9-1.3c-0.6-0.8-0.8-1.7-0.7-2.7c0.3-2,2.1-3.3,4.1-3.1
		c2,0.3,3.3,2.1,3.1,4.1c-0.1,1-0.6,1.8-1.4,2.4c-0.8,0.6-1.7,0.8-2.7,0.7C316.4,346.8,316.2,346.8,316.1,346.7z M317.8,340.8
		c-0.1,0-0.3-0.1-0.4-0.1c-1.4-0.2-2.8,0.8-3,2.3c-0.1,0.7,0.1,1.4,0.5,2c0.4,0.6,1,0.9,1.7,1c0.7,0.1,1.4-0.1,2-0.5
		c0.6-0.4,0.9-1,1-1.7C319.9,342.3,319.1,341.1,317.8,340.8z"/>
	<path class="st47" d="M314.6,351.9c-0.3-0.1-0.6-0.2-0.9-0.3c-0.6-0.2-1.1-0.5-1.6-0.9c0,0,0,0-0.1,0c-0.2-0.1-0.2-0.3-0.2-0.5
		c0,0,0-0.1,0.1-0.1c0.1-0.2,0.4-0.3,0.7-0.1c0.5,0.3,1,0.6,1.5,0.8c0,0,0.1,0,0.1,0c1.3,0.5,2.6,0.7,3.9,0.5
		c0.7-0.1,1.4-0.3,2.1-0.5c0,0,0,0,0,0c0,0,0,0,0,0c2-0.8,3.5-2.4,4.3-4.4c0.1-0.3,0.2-0.5,0.3-0.8c0.5-1.8,0.4-3.6-0.3-5.4
		c-0.8-2-2.4-3.5-4.4-4.3c-2-0.8-4.2-0.8-6.1,0c-2,0.8-3.5,2.4-4.3,4.4c-0.1,0.3-0.2,0.5-0.3,0.8c-0.3,1.1-0.4,2.3-0.2,3.5
		c0,0.1,0,0.1,0,0.2c0,0.2-0.2,0.3-0.4,0.3c-0.3,0-0.5-0.1-0.5-0.4c-0.2-1.3-0.1-2.6,0.3-3.9c0.1-0.3,0.2-0.6,0.3-0.9
		c0.9-2.2,2.6-4,4.8-4.9c2.2-0.9,4.6-0.9,6.9,0c2.2,0.9,4,2.6,4.9,4.8c0.8,1.9,0.9,4,0.4,6c-0.1,0.3-0.2,0.6-0.3,0.9
		C323.7,350.9,319,353.2,314.6,351.9z"/>
</g>
</svg>
