<?xml version="1.0" encoding="utf-8"?>
<!-- Generator: Adobe Illustrator 25.2.1, SVG Export Plug-In . SVG Version: 6.00 Build 0)  -->
<svg version="1.1" id="Layer_1" xmlns="http://www.w3.org/2000/svg" xmlns:xlink="http://www.w3.org/1999/xlink" x="0px" y="0px"
	 width="304.7px" height="509.7px" viewBox="0 0 304.7 509.7" style="enable-background:new 0 0 304.7 509.7;" xml:space="preserve"
	>
<style type="text/css">
	.st0{fill-rule:evenodd;clip-rule:evenodd;fill:#FFFFFF;}
	.st1{opacity:0.5;}
	.st2{fill-rule:evenodd;clip-rule:evenodd;fill:#231F20;}
</style>
<g>
	<path class="st0" d="M275.3,474.3c12.1,3.3,22.4,11,28.9,21.8c1,1.6,0.5,3.7-1.2,4.7c-0.8,0.5-1.8,0.6-2.7,0.4
		c-0.8-0.2-1.6-0.8-2.1-1.6c-5.6-9.2-14.3-15.9-24.7-18.6c-10.4-2.8-21.3-1.4-30.7,3.8c-1.7,0.9-3.8,0.3-4.7-1.3
		c-0.9-1.7-0.3-3.8,1.3-4.7C250.4,472.6,263.1,471.1,275.3,474.3z M270.8,490.9c-8.1-2.2-16.8-0.9-24,3.4c-1.6,1-2.2,3.1-1.2,4.7
		s3.1,2.2,4.7,1.2c5.6-3.4,12.4-4.3,18.7-2.6c6.3,1.7,11.7,5.9,14.9,11.6c0.5,0.9,1.3,1.4,2.1,1.7c0.8,0.2,1.8,0.1,2.6-0.3
		c1.7-0.9,2.3-3,1.3-4.7C285.9,498.6,278.9,493.1,270.8,490.9z M253.5,509.2c3.9-2.2,8.5-2.7,12.8-1.6c4.3,1.2,8,3.9,10.3,7.8
		c1,1.6,0.5,3.7-1.2,4.7c-0.8,0.5-1.8,0.6-2.7,0.4c-0.8-0.2-1.6-0.8-2.1-1.6c-2.8-4.6-9.2-6.3-13.9-3.7c-1.7,0.9-3.8,0.3-4.7-1.3
		C251.3,512.2,251.9,510.1,253.5,509.2z M258.6,523.3c0.5-1.8,2.4-2.9,4.2-2.4c1.8,0.5,2.9,2.4,2.4,4.2s-2.4,2.9-4.2,2.4
		C259.2,527.1,258.1,525.2,258.6,523.3z"/>
	<g class="st1">
		<path class="st2" d="M275.3,474.3c12.1,3.3,22.4,11,28.9,21.8c1,1.6,0.5,3.7-1.2,4.7c-0.8,0.5-1.8,0.6-2.7,0.4
			c-0.8-0.2-1.6-0.8-2.1-1.6c-5.6-9.2-14.3-15.9-24.7-18.6c-10.4-2.8-21.3-1.4-30.7,3.8c-1.7,0.9-3.8,0.3-4.7-1.3
			c-0.9-1.7-0.3-3.8,1.3-4.7C250.4,472.6,263.1,471.1,275.3,474.3z M270.8,490.9c-8.1-2.2-16.8-0.9-24,3.4c-1.6,1-2.2,3.1-1.2,4.7
			s3.1,2.2,4.7,1.2c5.6-3.4,12.4-4.3,18.7-2.6c6.3,1.7,11.7,5.9,14.9,11.6c0.5,0.9,1.3,1.4,2.1,1.7c0.8,0.2,1.8,0.1,2.6-0.3
			c1.7-0.9,2.3-3,1.3-4.7C285.9,498.6,278.9,493.1,270.8,490.9z M253.5,509.2c3.9-2.2,8.5-2.7,12.8-1.6c4.3,1.2,8,3.9,10.3,7.8
			c1,1.6,0.5,3.7-1.2,4.7c-0.8,0.5-1.8,0.6-2.7,0.4c-0.8-0.2-1.6-0.8-2.1-1.6c-2.8-4.6-9.2-6.3-13.9-3.7c-1.7,0.9-3.8,0.3-4.7-1.3
			C251.3,512.2,251.9,510.1,253.5,509.2z M258.6,523.3c0.5-1.8,2.4-2.9,4.2-2.4c1.8,0.5,2.9,2.4,2.4,4.2s-2.4,2.9-4.2,2.4
			C259.2,527.1,258.1,525.2,258.6,523.3z"/>
	</g>
</g>
</svg>
