<?xml version="1.0" encoding="utf-8"?>
<!-- Generator: Adobe Illustrator 25.2.1, SVG Export Plug-In . SVG Version: 6.00 Build 0)  -->
<svg version="1.1" id="Layer_1" xmlns="http://www.w3.org/2000/svg" xmlns:xlink="http://www.w3.org/1999/xlink" x="0px" y="0px"
	 width="118.3px" height="509.7px" viewBox="0 0 118.3 509.7" style="enable-background:new 0 0 118.3 509.7;" xml:space="preserve"
	>
<style type="text/css">
	.st0{opacity:0.1;fill:#09121F;}
	.st1{fill-rule:evenodd;clip-rule:evenodd;fill:#FFFFFF;}
	.st2{opacity:0.1;}
	.st3{fill-rule:evenodd;clip-rule:evenodd;fill:#231F20;}
	.st4{fill-rule:evenodd;clip-rule:evenodd;fill:#FFFFFF;filter:url(#Adobe_OpacityMaskFilter);}
	.st5{mask:url(#mask0_1726_14650_1_);}
	.st6{fill:#0D1C2E;}
	.st7{fill-rule:evenodd;clip-rule:evenodd;fill:#0D1C2E;}
	.st8{opacity:0.5;}
	.st9{fill-rule:evenodd;clip-rule:evenodd;fill:#FFFFFF;filter:url(#Adobe_OpacityMaskFilter_1_);}
	.st10{mask:url(#mask0_1726_14647_1_);}
</style>
<path class="st0" d="M36.2,122.2l-0.2-0.3c-8.2-14.1-3.7-32.5,9.7-44.9c-9.5-11.8-29.3-14.5-46.5-4.5c-18.7,10.8-26,31.6-17.7,46.1
	c3.1,5.5,8.2,9.5,14.6,11.8c0.3,0.1,0.8,0.3,1.4,0.4c5.3,1.5,9.8,4.8,12.9,9.3c2.7-4.6,6.9-8.2,11.9-10.2c1-0.4,1.8-0.7,2.5-1
	C28.9,127.2,32.8,124.9,36.2,122.2L36.2,122.2z M45.2,131.7c-4.6,3.8-9.8,7-15.3,9.3c-0.9,0.4-1.8,0.7-2.8,1.1
	c-2.3,0.9-4.2,2.6-5.4,4.7l-7,12.7c-0.5,1-1.4,1.8-2.4,2.3c-0.6,0.3-1.3,0.5-1.9,0.5s-1.4-0.1-2-0.3c-0.6-0.2-1.2-0.6-1.7-1
	c-0.5-0.5-0.9-1-1.2-1.6l-4.9-10.5c-0.6-1.3-1.5-2.5-2.6-3.4c-1.1-0.9-2.4-1.6-3.8-2c-0.7-0.2-1.5-0.4-2.2-0.7
	c-9-3.2-16.7-9.2-21.5-17.6c-12.2-21.1-2.1-49.7,22.4-63.8c22.9-13.2,50.2-9.3,63.7,8.3c19.5-10.1,42.2-5.5,51.6,10.8
	c3.9,6.7,4.9,14.4,3.4,22c-0.1,0.5-0.2,1.1-0.4,1.8c-0.3,1.1-0.3,2.3-0.1,3.5c0.2,1.1,0.7,2.2,1.3,3.2l5.3,7.6
	c0.3,0.4,0.5,1,0.6,1.5c0.1,0.5,0.1,1.1,0,1.6c-0.1,0.5-0.3,1-0.6,1.5c-0.3,0.5-0.7,0.8-1.1,1.1c-0.7,0.5-1.6,0.8-2.5,0.8l-11.7-0.1
	c-2,0-3.9,0.6-5.5,1.9c-0.8,0.6-1.4,1.1-1.9,1.5c-1.6,1.3-3.4,2.4-5.3,3.5C74.5,140.2,57,139.8,45.2,131.7L45.2,131.7z M88.7,116.4
	c2.9-2.3,6.3-3.9,10-4.5c-1.1-3.6-1.1-7.5-0.1-11.2c0.1-0.4,0.2-0.8,0.2-1c0.9-4.8,0.2-9.2-1.9-13C91,76.6,75,73.7,61,81.8
	c-14.1,8.1-19.5,23.4-13.7,33.5s21.8,13,35.9,4.9c1.4-0.8,2.7-1.7,3.9-2.6C87.5,117.3,88,116.9,88.7,116.4L88.7,116.4z"/>
<g>
	<path class="st1" d="M89.3,246.3c-24.3,0-44.1-19.8-44.1-44.1c0-4.7,3.8-8.6,8.6-8.6c0.4,0,0.7,0,1.1,0.1l3.5,15.2
		c-0.4,0.2-0.9,0.5-1.3,0.7l0,0l-0.4,0.2c-2.8,1.5-5.1,2.7-3.9,5.2c3.9,11,12.8,19.9,23.6,23.7c2.8,1.1,3.8-0.9,5.3-3.8l0,0
		c0.2-0.3,0.3-0.7,0.5-1l0,0c0.1-0.3,0.3-0.5,0.4-0.8l15.2,3.5c0,0.4,0.1,0.7,0.1,1.1C97.8,242.4,94,246.3,89.3,246.3z M103.6,232.8
		c-0.4-1.1-1.3-1.9-2.4-2.1l-19.6-4.5c-1.1-0.2-2.2,0.1-3,0.8c-0.5,0.4-0.5,0.5-2.6,4.5c-7-3.2-12.8-8.9-16.1-16.1
		c4.1-2.1,4.1-2.1,4.5-2.6c0.8-0.8,1.1-1.9,0.8-3l-4.5-19.6c-0.3-1.1-1.1-2-2.1-2.4c-0.8-0.3-1.6-0.5-2.4-0.6
		c-0.8-0.1-1.7-0.2-2.5-0.2c-8.4,0-15.1,6.8-15.1,15.2c0,28,22.7,50.7,50.7,50.7c8.3,0,15.1-6.8,15.1-15.2c0-0.8-0.1-1.7-0.2-2.5
		C104,234.4,103.8,233.6,103.6,232.8z M74.8,206.7c5.4,0,9.9,4.4,9.9,9.9c0,1.8,1.5,3.3,3.3,3.3c1.8,0,3.3-1.5,3.3-3.3
		c0-9.1-7.4-16.5-16.5-16.5c-1.8,0-3.3,1.5-3.3,3.3S73,206.7,74.8,206.7z M97.8,216.6c0-12.7-10.3-23.1-23-23.1
		c-1.8,0-3.3-1.5-3.3-3.3c0-1.8,1.5-3.3,3.3-3.3c16.3,0,29.6,13.3,29.6,29.6c0,1.8-1.5,3.3-3.3,3.3
		C99.3,219.9,97.8,218.4,97.8,216.6z"/>
	<g class="st2">
		<path class="st3" d="M89.3,246.3c-24.3,0-44.1-19.8-44.1-44.1c0-4.7,3.8-8.6,8.6-8.6c0.4,0,0.7,0,1.1,0.1l3.5,15.2
			c-0.4,0.2-0.9,0.5-1.3,0.7l0,0l-0.4,0.2c-2.8,1.5-5.1,2.7-3.9,5.2c3.9,11,12.8,19.9,23.6,23.7c2.8,1.1,3.8-0.9,5.3-3.8l0,0
			c0.2-0.3,0.3-0.7,0.5-1l0,0c0.1-0.3,0.3-0.5,0.4-0.8l15.2,3.5c0,0.4,0.1,0.7,0.1,1.1C97.8,242.4,94,246.3,89.3,246.3z
			 M103.6,232.8c-0.4-1.1-1.3-1.9-2.4-2.1l-19.6-4.5c-1.1-0.2-2.2,0.1-3,0.8c-0.5,0.4-0.5,0.5-2.6,4.5c-7-3.2-12.8-8.9-16.1-16.1
			c4.1-2.1,4.1-2.1,4.5-2.6c0.8-0.8,1.1-1.9,0.8-3l-4.5-19.6c-0.3-1.1-1.1-2-2.1-2.4c-0.8-0.3-1.6-0.5-2.4-0.6
			c-0.8-0.1-1.7-0.2-2.5-0.2c-8.4,0-15.1,6.8-15.1,15.2c0,28,22.7,50.7,50.7,50.7c8.3,0,15.1-6.8,15.1-15.2c0-0.8-0.1-1.7-0.2-2.5
			C104,234.4,103.8,233.6,103.6,232.8z M74.8,206.7c5.4,0,9.9,4.4,9.9,9.9c0,1.8,1.5,3.3,3.3,3.3c1.8,0,3.3-1.5,3.3-3.3
			c0-9.1-7.4-16.5-16.5-16.5c-1.8,0-3.3,1.5-3.3,3.3S73,206.7,74.8,206.7z M97.8,216.6c0-12.7-10.3-23.1-23-23.1
			c-1.8,0-3.3-1.5-3.3-3.3c0-1.8,1.5-3.3,3.3-3.3c16.3,0,29.6,13.3,29.6,29.6c0,1.8-1.5,3.3-3.3,3.3
			C99.3,219.9,97.8,218.4,97.8,216.6z"/>
		<defs>
			<filter id="Adobe_OpacityMaskFilter" filterUnits="userSpaceOnUse" x="32" y="180.4" width="79" height="79.1">
				<feColorMatrix  type="matrix" values="1 0 0 0 0  0 1 0 0 0  0 0 1 0 0  0 0 0 1 0"/>
			</filter>
		</defs>
		<mask maskUnits="userSpaceOnUse" x="32" y="180.4" width="79" height="79.1" id="mask0_1726_14650_1_">
			<path class="st4" d="M89.3,246.3c-24.3,0-44.1-19.8-44.1-44.1c0-4.7,3.8-8.6,8.6-8.6c0.4,0,0.7,0,1.1,0.1l3.5,15.2
				c-0.4,0.2-0.9,0.5-1.3,0.7l0,0l-0.4,0.2c-2.8,1.5-5.1,2.7-3.9,5.2c3.9,11,12.8,19.9,23.6,23.7c2.8,1.1,3.8-0.9,5.3-3.8l0,0
				c0.2-0.3,0.3-0.7,0.5-1l0,0c0.1-0.3,0.3-0.5,0.4-0.8l15.2,3.5c0,0.4,0.1,0.7,0.1,1.1C97.8,242.4,94,246.3,89.3,246.3z
				 M103.6,232.8c-0.4-1.1-1.3-1.9-2.4-2.1l-19.6-4.5c-1.1-0.2-2.2,0.1-3,0.8c-0.5,0.4-0.5,0.5-2.6,4.5c-7-3.2-12.8-8.9-16.1-16.1
				c4.1-2.1,4.1-2.1,4.5-2.6c0.8-0.8,1.1-1.9,0.8-3l-4.5-19.6c-0.3-1.1-1.1-2-2.1-2.4c-0.8-0.3-1.6-0.5-2.4-0.6
				c-0.8-0.1-1.7-0.2-2.5-0.2c-8.4,0-15.1,6.8-15.1,15.2c0,28,22.7,50.7,50.7,50.7c8.3,0,15.1-6.8,15.1-15.2c0-0.8-0.1-1.7-0.2-2.5
				C104,234.4,103.8,233.6,103.6,232.8z M74.8,206.7c5.4,0,9.9,4.4,9.9,9.9c0,1.8,1.5,3.3,3.3,3.3c1.8,0,3.3-1.5,3.3-3.3
				c0-9.1-7.4-16.5-16.5-16.5c-1.8,0-3.3,1.5-3.3,3.3S73,206.7,74.8,206.7z M97.8,216.6c0-12.7-10.3-23.1-23-23.1
				c-1.8,0-3.3-1.5-3.3-3.3c0-1.8,1.5-3.3,3.3-3.3c16.3,0,29.6,13.3,29.6,29.6c0,1.8-1.5,3.3-3.3,3.3
				C99.3,219.9,97.8,218.4,97.8,216.6z"/>
		</mask>
		<g class="st5">
			<rect x="32" y="180.4" class="st6" width="79" height="79.1"/>
		</g>
	</g>
</g>
<g class="st2">
	<path class="st7" d="M112.6,511.7l-36.7,16.7c-1.4,0.7-3.2,0-3.8-1.4l-11.6-25.6l26.1,5.7c0.6,0.1,1.3,0.1,1.8-0.2
		c0.6-0.3,1-0.7,1.3-1.2l12.8-23.4l11.6,25.6C114.7,509.3,114.1,511,112.6,511.7z M96.5,481l-10.9,20l-22.3-4.9L96.5,481z
		 M95.9,474.9l-36.7,16.7c-4.3,2-6.3,7.1-4.3,11.5l11.9,26.2c2,4.3,7.1,6.3,11.5,4.3l36.7-16.7c4.3-2,6.3-7.1,4.3-11.5l-11.9-26.2
		C105.4,474.9,100.2,472.9,95.9,474.9z"/>
	<g class="st8">
		<path class="st7" d="M112.6,511.7l-36.7,16.7c-1.4,0.7-3.2,0-3.8-1.4l-11.6-25.6l26.1,5.7c0.6,0.1,1.3,0.1,1.8-0.2
			c0.6-0.3,1-0.7,1.3-1.2l12.8-23.4l11.6,25.6C114.7,509.3,114.1,511,112.6,511.7z M96.5,481l-10.9,20l-22.3-4.9L96.5,481z
			 M95.9,474.9l-36.7,16.7c-4.3,2-6.3,7.1-4.3,11.5l11.9,26.2c2,4.3,7.1,6.3,11.5,4.3l36.7-16.7c4.3-2,6.3-7.1,4.3-11.5l-11.9-26.2
			C105.4,474.9,100.2,472.9,95.9,474.9z"/>
		<defs>
			<filter id="Adobe_OpacityMaskFilter_1_" filterUnits="userSpaceOnUse" x="41.2" y="458.4" width="91.7" height="91.7">
				<feColorMatrix  type="matrix" values="1 0 0 0 0  0 1 0 0 0  0 0 1 0 0  0 0 0 1 0"/>
			</filter>
		</defs>
		<mask maskUnits="userSpaceOnUse" x="41.2" y="458.4" width="91.7" height="91.7" id="mask0_1726_14647_1_">
			<path class="st9" d="M112.6,511.7l-36.7,16.7c-1.4,0.7-3.2,0-3.8-1.4l-11.6-25.6l26.1,5.7c0.6,0.1,1.3,0.1,1.8-0.2
				c0.6-0.3,1-0.7,1.3-1.2l12.8-23.4l11.6,25.6C114.7,509.3,114.1,511,112.6,511.7z M96.5,481l-10.9,20l-22.3-4.9L96.5,481z
				 M95.9,474.9l-36.7,16.7c-4.3,2-6.3,7.1-4.3,11.5l11.9,26.2c2,4.3,7.1,6.3,11.5,4.3l36.7-16.7c4.3-2,6.3-7.1,4.3-11.5l-11.9-26.2
				C105.4,474.9,100.2,472.9,95.9,474.9z"/>
		</mask>
		<g class="st10">
			
				<rect x="52.5" y="469.7" transform="matrix(0.9102 -0.4142 0.4142 0.9102 -201.0717 81.3756)" class="st6" width="69.2" height="69.2"/>
		</g>
	</g>
</g>
</svg>
