<?xml version="1.0" encoding="utf-8"?>
<!-- Generator: Adobe Illustrator 25.2.1, SVG Export Plug-In . SVG Version: 6.00 Build 0)  -->
<svg version="1.1" id="Layer_1" xmlns="http://www.w3.org/2000/svg" xmlns:xlink="http://www.w3.org/1999/xlink" x="0px" y="0px"
	 width="547px" height="491px" viewBox="0 0 547 491" style="enable-background:new 0 0 547 491;" xml:space="preserve">
<style type="text/css">
	.st0{fill:none;stroke:#AFC3EC;stroke-linecap:round;}
	.st1{fill:none;stroke:#0D51D9;stroke-width:18;}
	.st2{fill:none;stroke:#0D51D9;stroke-width:3;}
	.st3{fill:#B6C9CF;stroke:#F5F5F5;stroke-width:6.5085;}
</style>
<path class="st0" d="M-103.8,72.7c-90.9,14.9-152.5,101.1-137.6,192.4s100.8,153.4,191.8,138.5C41.3,388.7,102.9,302.5,88,211.2"/>
<path class="st1" d="M65.8,137c-14.3,2.3-27.6-7.2-29.8-21.1c-2.3-13.9,7.3-27.2,21.5-29.5c14.3-2.3,27.6,7.2,29.8,21.1
	C89.6,121.4,80.1,134.7,65.8,137z"/>
<circle class="st2" cx="91.4" cy="349.4" r="7.9"/>
<g>
	<path class="st3" d="M219.6,329.8v26.3c0,1.2-0.4,2.1-1.1,2.6c-0.7,0.6-1.9,1.1-3.7,1.1h-34.2c-1.9,0-3.1-0.5-3.7-1.1
		c-0.6-0.6-1.1-1.4-1.1-2.6v-94v-22.6c0-1.2,0.4-2.1,1.1-2.6c0.7-0.6,1.9-1.1,3.7-1.1h239.7c1.9,0,3.1,0.5,3.7,1.1
		c0.6,0.6,1.1,1.4,1.1,2.6v22.6v94c0,1.2-0.4,2.1-1.1,2.6c-0.7,0.6-1.9,1.1-3.7,1.1h-34.2c-1.9,0-3.1-0.5-3.7-1.1
		c-0.6-0.6-1.1-1.4-1.1-2.6v-26.3H219.6z M189.1,245.2h-3.8v2.8v5.7v2.8h3.8h25.7h171.2h25.7h3.8v-2.8V248v-2.8h-3.8H189.1z
		 M206.2,350.3h3.8v-3.8v-77v-3.8h-3.8h-17.1h-3.8v3.8v77v3.8h3.8H206.2z M219.6,320.2h161.6v-50.6v-3.8h-3.8H223.4h-3.8v3.8V320.2z
		 M411.8,350.3h3.8v-3.8v-77v-3.8h-3.8h-17.1h-3.8v3.8v77v3.8h3.8H411.8z"/>
</g>
</svg>
