<?xml version="1.0" encoding="utf-8"?>
<!-- Generator: Adobe Illustrator 25.2.1, SVG Export Plug-In . SVG Version: 6.00 Build 0)  -->
<svg version="1.1" id="Layer_1" xmlns="http://www.w3.org/2000/svg" xmlns:xlink="http://www.w3.org/1999/xlink" x="0px" y="0px"
	 width="461px" height="470px" viewBox="0 0 461 470" style="enable-background:new 0 0 461 470;" xml:space="preserve">
<style type="text/css">
	.st0{fill:none;stroke:#AFC3EC;stroke-linecap:round;}
	.st1{fill:none;stroke:#0D51D9;stroke-width:18;}
	.st2{fill:none;stroke:#0D51D9;stroke-width:3;stroke-miterlimit:4.0001;}
	.st3{clip-path:url(#SVGID_2_);}
	.st4{fill:none;stroke:#B6C9CF;stroke-width:3;stroke-linecap:round;stroke-linejoin:round;}
	.st5{fill:#6691E7;}
	.st6{fill:#239D4C;}
	.st7{fill:#FFA982;}
	.st8{fill:#ECF2FF;}
	.st9{fill:#0D51D9;}
	.st10{fill:#F9AA4B;}
	.st11{fill:#020202;}
	.st12{fill:#65B5B7;}
	.st13{fill:#DEEBE9;}
	.st14{fill:#F18C7E;}
	.st15{fill:#060633;}
	.st16{fill:#FF6757;}
	.st17{opacity:0.3;}
	.st18{opacity:0.3;fill:#0D51D9;enable-background:new    ;}
</style>
<path class="st0" d="M551.6,318.7c91.8,7.9,172.7-60.4,180.7-152.7S672.3-7.5,580.5-15.4S407.8,45,399.8,137.3"/>
<path class="st1" d="M403,214.5c14.4,1.2,24.9,13.8,23.7,27.8c-1.2,14-13.7,24.5-28.1,23.3s-24.9-13.8-23.7-27.8
	C376.1,223.8,388.6,213.3,403,214.5z"/>
<ellipse class="st2" cx="430.5" cy="2.5" rx="7.9" ry="7.9"/>
<g>
	<g>
		<g>
			<g>
				<defs>
					<rect id="SVGID_1_" x="422.5" y="327.3" transform="matrix(0.5 -0.866 0.866 0.5 -86.3104 582.1359)" width="77" height="77"/>
				</defs>
				<clipPath id="SVGID_2_">
					<use xlink:href="#SVGID_1_"  style="overflow:visible;"/>
				</clipPath>
				<g class="st3">
					<path class="st4" d="M494.9,352L456,329.5c-3.1-1.8-7-0.7-8.8,2.3l-22.5,38.9c-1.8,3.1-0.7,7,2.3,8.8l39,22.5
						c3.1,1.8,7,0.7,8.8-2.3l22.5-38.9C499,357.7,498,353.8,494.9,352z"/>
					<path class="st4" d="M440.8,343l50,28.9"/>
					<path class="st4" d="M438.2,386l19.2-33.3"/>
				</g>
			</g>
		</g>
	</g>
</g>
<g>
	<path class="st5" d="M277.8,432c29.1-29.1,29.1-76.4,0-105.5c-29.1-29.1-76.4-29.1-105.5,0c-29.1,29.1-29.1,76.4,0,105.5
		C201.5,461.2,248.7,461.2,277.8,432z"/>
	<path class="st6" d="M231.7,304.9c0.3,0.2,0.6,0.4,1,0.6c0-0.2,15.7,4.8,17.3,5.5c4.7,2.1,7.5,2.9,2.4,4.5
		c2.2-0.7,7.2,12.9,10.8,12.4c3.4-0.6,4.4,3.3,5.3,6c0.5,1.4,2,2.2,1.4,3.9c-0.2,0.5-2.6,1.6-2.4,2c1,2,5.7,2.2,5.7,5.1
		c-0.4,0.7-1.1,1.1-2.1,1c-2.2,0.9-0.1,2.6,0.3,4c1,3.3,4.1,6.2,6.4,2.5c2.3-3.7-2.9-7.4,0.2-11.2c1.9-2.2,6.8,1.8,5.6-2.5
		c-0.3-1.2-5.5-6.7-2.6-7.4c0.1,0,0.2-0.3,0.3-0.8c-8.5-9.8-19.7-17.5-32.8-21.9C243,306.6,237.3,305.5,231.7,304.9z"/>
	<path class="st6" d="M291.5,345.3c-0.4-0.7-4.1,3.4-4.8,3.8c-2.8,1.5-3.4-1.5-5.8,1.7c-0.4,0.6-4.6,6.2-4.7,5.6
		c0.1,2.1-0.8,4.2,0.2,6.2c0.9,1.8-1.2,3.4-1.1,5.3c0.2,2.5-2.1,4.2-1.5,6.7c0.5,2.2,1.8,3.7,1.8,6c0,3.6-0.7,5.3,2.3,7.9
		c1.9,1.7,4.3,7.5,7.6,4.2c0.6-0.6,6.7-5.5,6.3-5.8c2.2,2.3,0.3,0.8,3.3,0.6c0.8,0-0.6,21-1.9,20.5c0.2,0.1,0.4,0.1,0.7-0.1
		c0.7-1.7,1.3-3.4,1.9-5.1C302.4,383,300.3,362.4,291.5,345.3z"/>
	<path class="st6" d="M256.5,415.1c0-2.2-4-4.2-6.2-4.1c-4.7,0.2-5.9-1.3-10.3-2.4c-3.6-0.9-3.1-7.1-8.6-7.4
		c-2.9-0.1-8.5-8.2-11.4-5.8c-1.9,1.6-5.6-2.7-6.9-2.7c-3,0-0.6,1.7-2.5-0.5c-1.3-1.5-4.8,1.6-5.5,2.5c-1.4,1.7-7.7-0.8-8.7-3.3
		c-0.3-0.9,1.7-4.3,0.2-6.8c-0.6-1-4.7-0.3-5.4-0.9c-0.9-0.8,2.2-3.9,1.9-4.6c-1.5-2.7-6.2,4.1-8.3-1.4c-1.7-4.4,0.5-6.1,1-10.3
		c0.2-2,3.6-3,5.3-2.3c2.7,1.2,2.3,0.1,4.3-0.1c1.6-0.2,3.3,1.6,4.8,1.9c1.8,0.3,0.6,5.4,2.3,6.6c1,0.7,1-6.8,1-7
		c1.1-3,5.8-2.8,6.5-5.3c1.9-6.3,6.1-5.8,11.3-8.1c2.5-1.1,8.6-2.3,10.1-4.7c2.9-4.5-4.7-11.2-6.7-14.4c0,0-1.7,1.9-2.1,2
		c-1.5,0.1-2.8-8.2-5.6-3.4c-0.5,0.9-2.6,1.2-1.4,2.5c2.2,2.6-2.1,3.2-3.4,2.9c-1.4-0.4-8.1-4.3-5.7-6.4c4.8-4.4,5.9-2.1,10.9-2.2
		c5.7,0,5.9,5.4,10.7-0.4c1.3-1.6-7.3-6.1-5.6-8.2c6-7.2,9.3,8.7,11.5,11.5c3.3,4,5.4,1.9,5.1-2.5c-0.1-2.1,4.3-4,4.6-6.3
		c0.1-0.5-2.9-4.6-3.3-4.9c-1.5-1-1.9-2-2.7-3c-1-1.3-2.6,0.6-3.5-0.5c-0.4-0.5-7.9-0.2-8.7-0.2c-3.9-0.1-8.4,0-12.4,0
		c-1.6-0.1-10.3,4.2-10.5,0.7c-0.1-1.7,1.9-4.7-1.7-3.3c-1.2,0.4-1.9-0.2-1.7-0.3c-2.5,0.5-7.3,2.3-9.3,4.1c-1.1,1,1.6,1.5,1.8,2.3
		c0.4,1.7-3.9,4.8-4.8,5.9c-3.4,3.9-3.2,9-7.7,12.7c-5.2,4.3-5.5,10.7-5.5,16.6c0,2.9-2.5,4.1-0.9,7.4c1.3,2.8,3.8,4.1,4.2,7.5
		c0.3,2.2-1.5,4.3-0.6,6.5c1,2.7,3,5,5.4,6.3c5.2,2.7,8.5,4.7,11.8,9.7c4.1,6.1,11.4,3.5,9,9.7c-1,2.6-3.6,3.9-4.6,6.7
		c-1.3,3.4,1.2,5.8,2.7,8.5c1.6,2.7,2.2,6,4.9,7.9c2,1.3,5.6,2.4,6.1,5.2c0.8,4.3-2.8,9.7-2.5,13.7c0.3,2.7,0.3,5.4,2.6,7.1
		c4.2,3.1,3.2-1.2,5.8-3.3c2.4-1.9,5.3-1.4,8.1-2.1c2.5-0.7-0.5-1.6,0.5-2.2c2.2-1.2,3.5,0.6,5.6-1.3c1.9-1.7,4.5-2.2,5.3-4.9
		c1.5-4.4,8-2.8,10.8-6.1c1.7-2.1,2.4-4.3,3.2-6.8C251.9,419.9,256.5,418.5,256.5,415.1C256.6,412.9,256.5,417.4,256.5,415.1z"/>
	<path class="st7" d="M210.9,280.2c-0.9,1.5-9.6,14.9-7.8,28l9.5-3.4l4.3-17.7L210.9,280.2z"/>
	<path class="st8" d="M248.8,274.7c0,0-5.8-10.4-20.1-7.5c-14.2,2.9-22,23-18.1,62.9c0,0,22.6-8.9,52-1.7
		C262.6,328.4,257.8,289.8,248.8,274.7z"/>
	<path class="st8" d="M259.7,270.5l-10,9.9c0,0-25.6,6.8-32.7,6.8c-7.1-0.1-9.9-5.2-9.9-5.2s6-9.4,18.2-13.7
		c1.1-0.4,2.3-0.8,3.6-1.1c2.1-0.5,4.2-0.8,6.3-0.9C247.7,265.6,259.7,270.5,259.7,270.5z"/>
	<path class="st9" d="M259.7,270.5c1.6,1.7-0.9,3.6-3.6,6.3c-2.8,2.7-5.6,4.3-6.4,3.6c-0.8-0.8,0.9-3.6,3.6-6.3
		C256.1,271.4,258.9,269.8,259.7,270.5z"/>
	<path class="st7" d="M251,280.5c0,0-0.1-2,2.3-4.5c1.5-1.5,3.4-2.5,4.7-3.1c0.8-0.3,1.6,0,1.9,0.8l0.8,2l-3.7,2.4L251,280.5z"/>
	<path class="st10" d="M233.4,317.1c0,0,30.8-16.5,41.9,1.5c8.2,13.4-4.1,25.8-49.7,24.5c0,0-4.5-2.1-3.4-12.9
		C222.5,325.9,233.4,317.1,233.4,317.1z"/>
	<path class="st10" d="M233.4,317.1c0,0-41.1-16.7-49.2-6.2c-9.3,12-0.4,32.3,42.9,25l5.3-5.7L233.4,317.1z"/>
	<path class="st9" d="M221.8,333.2c0,0-7.6,0.3-11.1,2c-3.6,1.7-1.7,5.9,5.6,5.8c7.2-0.1,6.7-1.2,6.7-1.2S221.6,336.1,221.8,333.2z"
		/>
	<path class="st11" d="M225.5,343.2c-5.1-3.6-3.5-12.9-3.4-13v-0.1l0.1,0l31.2-11.2l0.1,0.2l-31.1,11.2c-0.1,0.7-1.4,9.4,3.4,12.8
		L225.5,343.2z"/>
	<path class="st7" d="M231.5,317.9c-2.5,0-4.6-0.6-6.2-1.9c-3.2-2.3-3.7-6.1-3.3-8.6l3-1.7c0.1-0.8,6,2.2,6,2.2c0,0,2.8,0.8,12.3-4
		c6.6-3.4,10-8.1,10.2-14.6c0.2-4.9-2-7.6-2.5-8.8c-0.1-0.2,3.2-3.4,3.1-3.7l2.5-1.2c-0.1-0.3,2.4-1.2,2.3-1.3l1.9,1.6
		c0.9,2.2,2.9,7.1,2.7,13.8c-0.3,7-3.2,16.8-15.7,23.1C241,316.2,235.7,317.9,231.5,317.9z"/>
	<path class="st12" d="M229.5,318.3h-26.6c-0.6,0-1.1-0.4-1.2-0.9l-5.5-16.4c-0.3-0.8,0.3-1.7,1.2-1.7H223c1.2,0,2.2,0.7,2.6,1.8
		l5.2,15.4C231,317.4,230.4,318.3,229.5,318.3z"/>
	<path class="st12" d="M227.8,318.3h-26.6c-0.6,0-1.1-0.4-1.2-0.9l-5.5-16.4c-0.3-0.8,0.3-1.7,1.2-1.7h25.6c1.2,0,2.2,0.7,2.6,1.8
		l5.2,15.4C229.3,317.4,228.7,318.3,227.8,318.3z"/>
	<path class="st13" d="M209.2,308.3c0-0.6,0.7-0.9,1.4-0.9c0.6,0,1.7,0.7,1.6,1.6c0,0.9-0.8,1.1-1.4,1.1
		C210.2,310,209.2,309.1,209.2,308.3z"/>
	<path class="st12" d="M237.6,315.9h-36.4v2.3h37.2c0.4,0,0.8-0.3,0.8-0.8C239.2,316.6,238.5,315.9,237.6,315.9z"/>
	<path class="st9" d="M225.9,307.6c0-0.1-1.3-4.9-2.2-6.4c-0.8-1.5-1.9-1.8-1.9-1.8l0.1-0.2c0,0,1.1,0.3,2,1.9
		c0.9,1.5,2.1,6.2,2.2,6.4L225.9,307.6z"/>
	<path class="st9" d="M229.9,316c-1,0-1.2-0.4-1.2-0.4v0l-2.1-6.1l0.2-0.1l2.1,6.1c0,0,0.3,0.4,1.1,0.4L229.9,316L229.9,316z"/>
	<path class="st14" d="M255.5,303.7c-0.2,0-0.3,0-0.4-0.1c-0.6-0.4-0.6-1.6,0-2.8c0.3-0.5,0.7-1,1.1-1.3c0.5-0.3,0.9-0.3,1.2-0.2
		c0.6,0.4,0.6,1.6,0,2.8C256.9,303.1,256.1,303.7,255.5,303.7z M257,299.6c-0.2,0-0.4,0.1-0.6,0.2c-0.4,0.2-0.8,0.6-1,1.1
		c-0.6,1-0.6,2-0.2,2.3c0.5,0.3,1.3-0.3,1.9-1.3c0.6-1,0.6-2,0.2-2.3C257.2,299.7,257.1,299.6,257,299.6z"/>
	<path class="st7" d="M235.4,266.3c-1.8-0.1-3.1-0.2-4.1-1.4l-3.1-3.6l-0.9-1.1l-5.3-6.2l2.8,7.3l1.7,4.4l0.5,1.4
		c0.4,0.9-0.1,1.4-0.4,2.5c-0.1,0.4-1.1,3.2,1.3,3.2C230.8,272.7,234.6,269.3,235.4,266.3C235.4,266.3,235.4,266.3,235.4,266.3z"/>
	<path d="M229,258.9c0,0,5.9-5.6,2.5-10.3c-3.4-4.7-4.2,7.6-4.2,7.6l0.9,2.8L229,258.9z"/>
	<path class="st9" d="M228.1,261.2c0,0,0,0.1,0,0.1c0.5,2.5-1.7,4.4-1.7,4.4h0l-1.7-4.4c0.7-0.5,1.8-1.2,2.5-1.1
		C227.6,260.3,228,260.5,228.1,261.2z"/>
	<path class="st7" d="M215.7,258.1c-1.3-4.4,0.5-8.8,4.2-9.9c3.6-1.1,7.6,1.5,8.9,5.9c1.3,4.4-0.5,8.8-4.2,9.9
		C221,265.1,217,262.5,215.7,258.1z"/>
	<path d="M227.6,253.5c0,0-1.9,1.3-3.4,0.2c-1.6-1.1-2.7-2.2-6.2-0.5c-3.5,1.7-7.4,1-8.1-1c-0.7-2,1-3.5,3.2-3.4
		c2.2,0.1-0.5-1.1,1.1-3.2c1.5-2.1,5.4,0.1,7.4-1c1.9-1,8.8-1.9,10,3.9L227.6,253.5z"/>
	<path class="st7" d="M229,254.7c-0.4,0.7-1.3,0.9-1.9,0.5c-0.6-0.4-0.8-1.3-0.3-2c0.4-0.7,1.3-0.9,1.9-0.5
		C229.4,253.1,229.5,254,229,254.7z"/>
	<path class="st9" d="M213.8,251.6c-0.1,0-0.3,0-0.4,0c-0.8-0.2-1-0.6-0.9-0.9c0.1-0.4,0.5-0.7,1.2-0.6c1,0.1,1.6-0.3,1.6-0.3
		l0.1,0.2c0,0-0.6,0.4-1.8,0.3c-0.5-0.1-0.9,0.2-0.9,0.4c-0.1,0.3,0.3,0.5,0.8,0.6c1.3,0.3,3.7-1.7,3.7-1.8l0.2,0.2
		C217.3,249.8,215.3,251.6,213.8,251.6z"/>
	<path class="st9" d="M219.8,246.7c-1.4,0-2.7-0.6-2.8-0.7l0.2-0.2l-0.1,0.1l0.1-0.1c0.1,0.1,2.2,1.1,4,0.4c0.6-0.2,1.1-0.5,1.6-0.8
		c1-0.5,1.9-1,3-0.8l-0.1,0.3c-0.9-0.2-1.8,0.3-2.8,0.8c-0.5,0.3-1,0.5-1.6,0.8C220.8,246.6,220.3,246.7,219.8,246.7z"/>
	<path class="st9" d="M229.7,248.4c-0.4,0-1.1-0.6-1.3-1c-0.1-0.3,0-0.4,0.1-0.4c0.5-0.3,1.3,0.7,1.4,0.9l0,0v0
		c0.1,0.3-0.1,0.4-0.1,0.4C229.8,248.3,229.8,248.4,229.7,248.4z M228.8,247.2C228.7,247.2,228.7,247.2,228.8,247.2
		c-0.1,0-0.1,0.2,0.2,0.4c0.3,0.3,0.7,0.5,0.8,0.5c0,0,0,0,0-0.1C229.5,247.6,229,247.2,228.8,247.2z"/>
	<path class="st9" d="M270.1,329c-0.5,0-1-0.1-1.4-0.4c-0.8-0.4-1.3-1.2-1.4-2.1c-0.2-0.9,0-1.9,0.5-2.7c1-1.8,3.1-2.5,4.7-1.6
		c1.5,0.9,2,3.1,0.9,4.9c-0.5,0.9-1.3,1.5-2.1,1.8C270.9,328.9,270.5,329,270.1,329z M271,322.1c-1.1,0-2.3,0.7-2.9,1.8
		c-0.4,0.8-0.6,1.7-0.5,2.5c0.2,0.8,0.6,1.5,1.3,1.9c0.7,0.4,1.5,0.4,2.3,0.2c0.8-0.3,1.5-0.9,1.9-1.7c0.9-1.6,0.6-3.6-0.8-4.4
		C271.9,322.2,271.4,322.1,271,322.1z"/>
	<path class="st15" d="M221,256.3c0,0-0.1,0-0.1-0.1c0-0.1,0-0.1,0.1-0.2c0,0,0.9-0.6,1.8,0.2c0.1,0.1,0.1,0.1,0,0.2
		c-0.1,0.1-0.1,0.1-0.2,0C221.9,256.1,221.1,256.3,221,256.3C221,256.3,221,256.3,221,256.3z"/>
	<path class="st15" d="M222.2,257.7c0.1,0.3-0.1,0.6-0.3,0.7c-0.2,0-0.5-0.2-0.5-0.5c-0.1-0.3,0.1-0.6,0.3-0.7
		C221.9,257.2,222.2,257.4,222.2,257.7z"/>
	<path class="st15" d="M216.1,258.1C216.1,258.1,216,258.1,216.1,258.1c-0.1-0.1-0.1-0.2-0.1-0.2c0,0,0.4-0.9,1.4-0.4
		c0.1,0,0.1,0.1,0.1,0.2c0,0.1-0.1,0.1-0.1,0.1C216.7,257.6,216.2,258,216.1,258.1C216.2,258.1,216.1,258.1,216.1,258.1z"/>
	<path class="st15" d="M217.8,258.9c0.2,0.3,0.1,0.6-0.1,0.7c-0.2,0.1-0.5,0-0.7-0.3c-0.2-0.3-0.1-0.6,0.1-0.7
		C217.4,258.4,217.7,258.6,217.8,258.9z"/>
	<path class="st11" d="M221.8,262.3c-0.5,0-0.8-0.1-0.8-0.1c-0.1,0-0.1-0.1-0.1-0.1c0-0.1,0.1-0.1,0.1-0.1c0.1,0,2.3,0.6,3.5-1.4
		c0-0.1,0.1-0.1,0.1,0c0.1,0,0.1,0.1,0,0.1C223.9,262.1,222.6,262.3,221.8,262.3z"/>
	<path class="st11" d="M224.8,261.1C224.8,261.1,224.8,261.1,224.8,261.1c-0.1-0.2-0.3-0.4-0.6-0.6c0,0,0,0,0,0c0,0-0.1-0.1,0-0.1
		c0,0,0.1-0.1,0.1,0l0,0c0.3,0.2,0.6,0.4,0.6,0.7C224.9,261,224.9,261.1,224.8,261.1C224.9,261.1,224.9,261.1,224.8,261.1z"/>
	<path class="st9" d="M226.5,275.9l0-0.4c7.6-0.2,10.4-6.8,10.4-6.8l0.4,0.2c0,0.1-0.7,1.7-2.4,3.5
		C233.3,273.9,230.6,275.8,226.5,275.9z"/>
	<path class="st9" d="M230.1,279.6l-0.2-0.4c0,0,3.9-2.5,4.4-6.9l0.4,0.1C234.2,277,230.2,279.6,230.1,279.6z"/>
	<path class="st9" d="M213.8,281.6l-1.6,4.7l0.4,0.1l1.6-4.7L213.8,281.6z"/>
	<path class="st16" d="M217.1,263.5c-0.1,0-0.2,0-0.3,0c-1-0.1-2.1-1-2.9-2.3c-1.2-2.1-1.3-4.8-0.1-5.9c0.4-0.4,1-0.6,1.6-0.5
		c1,0.1,2.1,1,2.9,2.3c1.2,2.1,1.3,4.8,0.1,5.9C218,263.3,217.6,263.5,217.1,263.5z M215.1,255c-0.4,0-0.8,0.2-1.1,0.5
		c-1.1,1.1-1,3.6,0.2,5.6c0.7,1.2,1.7,2,2.7,2.2c0.5,0.1,1-0.1,1.4-0.4c1.1-1.1,1-3.6-0.2-5.6c-0.7-1.2-1.7-2-2.7-2.2
		C215.3,255,215.2,255,215.1,255z"/>
	<g class="st17">
		<path class="st18" d="M225.2,253.9c1,2.1,0.7,4.7-0.6,5.7c-1.3,1.1-3.2,0.2-4.2-1.9c-1-2.1-0.7-4.7,0.6-5.7
			C222.3,251,224.2,251.8,225.2,253.9z"/>
	</g>
	<g class="st17">
		<path class="st18" d="M218.4,257.2c1,2.1,0.9,4.7-0.3,5.8c-1.2,1.1-2.9,0.2-3.9-1.9c-1-2.1-0.9-4.7,0.3-5.8
			C215.6,254.2,217.4,255.1,218.4,257.2z"/>
	</g>
	<path class="st16" d="M223.1,260.2c-0.2,0-0.4,0-0.6-0.1c-1.1-0.3-2-1.1-2.7-2.5c-1.1-2.3-0.8-5,0.7-6.2c0.6-0.5,1.3-0.6,2-0.4
		c1.1,0.3,2,1.1,2.7,2.5c1.1,2.3,0.8,5-0.7,6.2C224.1,260.1,223.6,260.2,223.1,260.2z M222,251.3c-0.5,0-0.9,0.1-1.3,0.4
		c-1.4,1.1-1.7,3.7-0.6,5.8c0.6,1.2,1.5,2.1,2.5,2.3c0.6,0.2,1.3,0,1.8-0.4c1.4-1.1,1.7-3.7,0.6-5.8c-0.6-1.2-1.5-2.1-2.5-2.3
		C222.4,251.3,222.2,251.3,222,251.3z"/>
	<path class="st16" d="M218.2,258.1c-0.1,0-0.1,0-0.2-0.1c-0.1-0.1-0.1-0.3-0.1-0.4c0,0,0.7-0.9,2.2-1c0.1,0,0.3,0.1,0.3,0.3
		c0,0.1-0.1,0.3-0.3,0.3c-1.2,0-1.8,0.7-1.8,0.8C218.3,258.1,218.3,258.1,218.2,258.1z"/>
	<path class="st9" d="M198.2,297.6c-0.1,0-0.2,0-0.2-0.1c-0.3-0.4-0.7-0.9-1.1-1.3c-0.1-0.1-0.1-0.3,0-0.4c0.1-0.1,0.3-0.1,0.4,0
		c0.4,0.4,0.7,0.9,1.1,1.3c0.1,0.1,0.1,0.3-0.1,0.4C198.3,297.6,198.3,297.6,198.2,297.6z"/>
	<path class="st9" d="M160.2,421.7c-0.1,0-0.3-0.1-0.3-0.3c0-0.2,0.1-0.3,0.3-0.3c1.1,0,2.2,0,3.3-0.1c0.1,0,0.3,0.1,0.3,0.3
		c0,0.2-0.1,0.3-0.3,0.3C162.4,421.6,161.3,421.7,160.2,421.7z M156.9,421.6c-1.1,0-2.2-0.1-3.3-0.1c-0.2,0-0.3-0.1-0.3-0.3
		c0-0.2,0.1-0.3,0.3-0.3c1.1,0.1,2.2,0.1,3.3,0.1c0.2,0,0.3,0.1,0.3,0.3C157.1,421.5,157,421.6,156.9,421.6z M166.8,421.4
		c-0.1,0-0.3-0.1-0.3-0.3c0-0.2,0.1-0.3,0.3-0.3c1.1-0.1,2.2-0.2,3.3-0.3c0.2,0,0.3,0.1,0.3,0.3c0,0.2-0.1,0.3-0.3,0.3
		C169,421.2,167.9,421.3,166.8,421.4C166.8,421.4,166.8,421.4,166.8,421.4z M150.3,421.2C150.2,421.2,150.2,421.2,150.3,421.2
		c-1.1-0.1-2.3-0.3-3.3-0.4c-0.1,0-0.3-0.2-0.2-0.3c0-0.1,0.2-0.3,0.3-0.2c1.1,0.2,2.2,0.3,3.3,0.4c0.2,0,0.3,0.1,0.3,0.3
		C150.5,421.1,150.4,421.2,150.3,421.2z M173.4,420.7c-0.1,0-0.3-0.1-0.3-0.3c0-0.1,0.1-0.3,0.2-0.3c1.1-0.1,2.2-0.3,3.3-0.5
		c0.1,0,0.3,0.1,0.3,0.2c0,0.1-0.1,0.3-0.2,0.3C175.6,420.4,174.5,420.6,173.4,420.7C173.4,420.7,173.4,420.7,173.4,420.7z
		 M143.7,420.3C143.7,420.3,143.7,420.3,143.7,420.3c-1.1-0.2-2.2-0.4-3.3-0.7c-0.1,0-0.2-0.2-0.2-0.3c0-0.1,0.2-0.2,0.3-0.2
		c1.1,0.3,2.1,0.5,3.2,0.7c0.1,0,0.3,0.2,0.2,0.3C143.9,420.2,143.8,420.3,143.7,420.3z M179.9,419.7c-0.1,0-0.3-0.1-0.3-0.2
		c0-0.1,0.1-0.3,0.2-0.3c1.1-0.2,2.2-0.4,3.2-0.6c0.1,0,0.3,0.1,0.3,0.2c0,0.1-0.1,0.3-0.2,0.3C182.2,419.3,181,419.5,179.9,419.7
		C180,419.7,179.9,419.7,179.9,419.7z M137.3,418.8C137.2,418.8,137.2,418.8,137.3,418.8c-1.1-0.3-2.2-0.7-3.2-1
		c-0.1-0.1-0.2-0.2-0.2-0.4c0.1-0.1,0.2-0.2,0.4-0.2c1,0.4,2.1,0.7,3.1,1c0.1,0,0.2,0.2,0.2,0.3
		C137.5,418.7,137.4,418.8,137.3,418.8z M186.4,418.4c-0.1,0-0.2-0.1-0.3-0.2c0-0.1,0.1-0.3,0.2-0.3c1.1-0.3,2.2-0.5,3.2-0.8
		c0.1,0,0.3,0.1,0.3,0.2c0,0.1-0.1,0.3-0.2,0.3C188.6,417.8,187.6,418.1,186.4,418.4C186.5,418.3,186.4,418.4,186.4,418.4z
		 M192.8,416.7c-0.1,0-0.2-0.1-0.3-0.2c0-0.1,0-0.3,0.2-0.3c1.1-0.3,2.1-0.6,3.2-0.9c0.1,0,0.3,0,0.3,0.2c0,0.1,0,0.3-0.2,0.3
		C195,416.1,194,416.4,192.8,416.7C192.9,416.7,192.9,416.7,192.8,416.7z M131,416.6c0,0-0.1,0-0.1,0c-1-0.4-2.1-0.9-3-1.3
		c-0.1-0.1-0.2-0.2-0.1-0.4c0.1-0.1,0.2-0.2,0.4-0.1c1,0.5,2,0.9,3,1.3c0.1,0.1,0.2,0.2,0.1,0.4C131.2,416.6,131.1,416.6,131,416.6z
		 M199.2,414.8c-0.1,0-0.2-0.1-0.3-0.2c-0.1-0.1,0-0.3,0.2-0.4c1.1-0.4,2.1-0.7,3.1-1.1c0.1-0.1,0.3,0,0.4,0.2
		c0.1,0.1,0,0.3-0.2,0.4C201.4,414,200.3,414.4,199.2,414.8C199.2,414.8,199.2,414.8,199.2,414.8z M125,413.8c-0.1,0-0.1,0-0.1,0
		c-1-0.5-1.9-1.1-2.9-1.7c-0.1-0.1-0.2-0.3-0.1-0.4c0.1-0.1,0.3-0.2,0.4-0.1c0.9,0.6,1.9,1.1,2.8,1.7c0.1,0.1,0.2,0.3,0.1,0.4
		C125.2,413.7,125.1,413.8,125,413.8z M119.4,410.2c-0.1,0-0.1,0-0.2-0.1c-0.9-0.6-1.8-1.3-2.6-2c-0.1-0.1-0.1-0.3,0-0.4
		c0.1-0.1,0.3-0.1,0.4,0c0.8,0.7,1.7,1.4,2.6,2c0.1,0.1,0.2,0.3,0.1,0.4C119.6,410.2,119.5,410.2,119.4,410.2z M114.3,406
		c-0.1,0-0.1,0-0.2-0.1c-0.2-0.2-0.4-0.4-0.6-0.6c-0.6-0.6-1.2-1.2-1.8-1.7c-0.1-0.1-0.1-0.3,0-0.4c0.1-0.1,0.3-0.1,0.4,0
		c0.6,0.6,1.1,1.2,1.7,1.7c0.2,0.2,0.4,0.4,0.6,0.6c0.1,0.1,0.1,0.3,0,0.4C114.5,406,114.4,406,114.3,406z M109.7,401.3
		c-0.1,0-0.2,0-0.2-0.1c-0.7-0.9-1.4-1.7-2.1-2.6c-0.1-0.1-0.1-0.3,0.1-0.4c0.1-0.1,0.3-0.1,0.4,0.1c0.6,0.9,1.3,1.7,2,2.6
		c0.1,0.1,0.1,0.3,0,0.4C109.8,401.3,109.8,401.3,109.7,401.3z M105.8,395.9c-0.1,0-0.2-0.1-0.2-0.1c-0.6-1-1.1-1.9-1.6-2.9
		c-0.1-0.1,0-0.3,0.1-0.4c0.1-0.1,0.3,0,0.4,0.1c0.5,1,1,1.9,1.6,2.9c0.1,0.1,0,0.3-0.1,0.4C105.9,395.9,105.9,395.9,105.8,395.9z
		 M102.9,390c-0.1,0-0.2-0.1-0.3-0.2c-0.4-1-0.8-2.1-1.1-3.1c0-0.1,0-0.3,0.2-0.3c0.1,0,0.3,0,0.3,0.2c0.3,1,0.7,2.1,1.1,3.1
		C103.2,389.8,103.1,389.9,102.9,390C102.9,390,102.9,390,102.9,390z M101,383.7c-0.1,0-0.3-0.1-0.3-0.2c-0.2-1.1-0.4-2.2-0.5-3.3
		c0-0.2,0.1-0.3,0.3-0.3s0.3,0.1,0.3,0.3c0.1,1.1,0.3,2.2,0.5,3.2C101.3,383.5,101.2,383.7,101,383.7C101,383.7,101,383.7,101,383.7
		z M100.3,377.1c-0.1,0-0.3-0.1-0.3-0.3c0-0.1,0-0.2,0-0.3c0-1,0-2,0.1-3c0-0.2,0.1-0.3,0.3-0.3s0.3,0.1,0.3,0.3c-0.1,1-0.1,2-0.1,3
		c0,0.1,0,0.2,0,0.3C100.5,377,100.4,377.1,100.3,377.1z M100.8,370.5C100.8,370.5,100.8,370.5,100.8,370.5c-0.2,0-0.3-0.2-0.3-0.3
		c0.2-1.1,0.4-2.2,0.7-3.2c0-0.1,0.2-0.2,0.3-0.2s0.2,0.2,0.2,0.3c-0.3,1.1-0.5,2.1-0.7,3.2C101.1,370.4,101,370.5,100.8,370.5z
		 M124.3,370.5c-0.8,0-1.5-0.1-2.3-0.1c-0.1,0-0.3-0.2-0.2-0.3c0-0.2,0.2-0.3,0.3-0.2c1.1,0.1,2.2,0.2,3.2,0.1
		c0.2,0,0.3,0.1,0.3,0.3c0,0.2-0.1,0.3-0.3,0.3C125,370.5,124.7,370.5,124.3,370.5z M128.6,370c-0.1,0-0.2-0.1-0.3-0.2
		c0-0.1,0.1-0.3,0.2-0.3c1.1-0.3,2.1-0.7,3-1.2c0.1-0.1,0.3,0,0.4,0.1c0.1,0.1,0,0.3-0.1,0.4C130.9,369.3,129.8,369.6,128.6,370
		C128.7,370,128.6,370,128.6,370z M118.8,369.7C118.8,369.7,118.8,369.7,118.8,369.7c-1.1-0.3-2.2-0.8-3.2-1.3
		c-0.1-0.1-0.2-0.2-0.1-0.4c0.1-0.1,0.2-0.2,0.4-0.1c1,0.5,2,0.9,3,1.2c0.1,0.1,0.2,0.2,0.2,0.3C119,369.6,118.9,369.7,118.8,369.7z
		 M134.4,366.9c-0.1,0-0.1,0-0.2-0.1c-0.1-0.1-0.1-0.3,0-0.4c0.8-0.8,1.5-1.6,2-2.5c0.1-0.1,0.3-0.2,0.4-0.1
		c0.1,0.1,0.2,0.3,0.1,0.4c-0.6,1-1.3,1.8-2.1,2.6C134.5,366.8,134.5,366.9,134.4,366.9z M112.9,366.7c-0.1,0-0.1,0-0.2-0.1
		c-0.9-0.6-1.8-1.4-2.6-2.2c-0.1-0.1-0.1-0.3,0-0.4c0.1-0.1,0.3-0.1,0.4,0c0.8,0.8,1.6,1.5,2.5,2.1c0.1,0.1,0.2,0.3,0.1,0.4
		C113.1,366.7,113,366.7,112.9,366.7z M102.6,364.1C102.5,364.1,102.5,364.1,102.6,364.1c-0.2-0.1-0.3-0.2-0.3-0.4
		c0.4-1,0.8-2.1,1.3-3.1c0.1-0.1,0.2-0.2,0.4-0.1c0.1,0.1,0.2,0.2,0.1,0.4c-0.5,1-0.9,2-1.3,3C102.8,364.1,102.7,364.1,102.6,364.1z
		 M108.2,362.1c-0.1,0-0.2,0-0.2-0.1c-0.7-0.9-1.3-1.8-1.9-2.8c-0.1-0.1,0-0.3,0.1-0.4c0.1-0.1,0.3,0,0.4,0.1c0.6,1,1.2,1.9,1.8,2.7
		c0.1,0.1,0.1,0.3-0.1,0.4C108.3,362.1,108.2,362.1,108.2,362.1z M137.7,361.2C137.6,361.2,137.6,361.2,137.7,361.2
		c-0.2,0-0.3-0.2-0.3-0.3c0.2-0.8,0.3-1.6,0.3-2.4c0-0.3,0-0.5,0-0.8c0-0.2,0.1-0.3,0.3-0.3c0.2,0,0.3,0.1,0.3,0.3
		c0,0.3,0,0.6,0,0.8c0,0.9-0.1,1.7-0.3,2.5C137.9,361.1,137.8,361.2,137.7,361.2z M105.4,358.2c-0.1,0-0.1,0-0.1,0
		c-0.1-0.1-0.2-0.3-0.1-0.4c0.6-1,1.2-1.9,1.8-2.8c0.1-0.1,0.3-0.2,0.4-0.1c0.1,0.1,0.2,0.3,0.1,0.4c-0.6,0.9-1.2,1.8-1.8,2.8
		C105.6,358.1,105.5,358.2,105.4,358.2z M104.8,356.5c-0.1,0-0.2-0.1-0.3-0.2c-0.4-1-0.9-2-1.2-3.1c-0.1-0.1,0-0.3,0.2-0.4
		c0.1-0.1,0.3,0,0.4,0.2c0.4,1.1,0.8,2.1,1.2,3c0.1,0.1,0,0.3-0.1,0.4C104.9,356.5,104.8,356.5,104.8,356.5z M137.3,354.7
		c-0.1,0-0.2-0.1-0.3-0.2c0-0.1-0.1-0.2-0.1-0.3c-0.3-1-0.6-1.9-1-2.7c-0.1-0.1,0-0.3,0.1-0.4c0.1-0.1,0.3,0,0.4,0.1
		c0.4,0.9,0.8,1.8,1.1,2.8c0,0.1,0.1,0.2,0.1,0.4C137.6,354.5,137.5,354.6,137.3,354.7C137.4,354.7,137.3,354.7,137.3,354.7z
		 M109.3,352.8c-0.1,0-0.1,0-0.2-0.1c-0.1-0.1-0.1-0.3,0-0.4c0.7-0.9,1.5-1.7,2.3-2.4c0.1-0.1,0.3-0.1,0.4,0c0.1,0.1,0.1,0.3,0,0.4
		c-0.8,0.7-1.5,1.5-2.3,2.4C109.4,352.7,109.3,352.8,109.3,352.8z M102.7,350.2c-0.1,0-0.2-0.1-0.3-0.2c-0.3-1.1-0.5-2.2-0.7-3.3
		c0-0.1,0.1-0.3,0.2-0.3c0.1,0,0.3,0.1,0.3,0.2c0.2,1.1,0.4,2.2,0.6,3.2C103,350,102.9,350.2,102.7,350.2
		C102.7,350.2,102.7,350.2,102.7,350.2z M134.5,348.7c-0.1,0-0.2,0-0.2-0.1c-0.7-0.9-1.4-1.7-2.2-2.4c-0.1-0.1-0.1-0.3,0-0.4
		c0.1-0.1,0.3-0.1,0.4,0c0.8,0.7,1.6,1.5,2.3,2.5c0.1,0.1,0.1,0.3-0.1,0.4C134.6,348.7,134.6,348.7,134.5,348.7z M114,348.2
		c-0.1,0-0.2,0-0.2-0.1c-0.1-0.1-0.1-0.3,0.1-0.4c0.9-0.7,1.8-1.3,2.8-1.9c0.1-0.1,0.3,0,0.4,0.1c0.1,0.1,0,0.3-0.1,0.4
		c-0.9,0.5-1.8,1.1-2.7,1.8C114.2,348.2,114.1,348.2,114,348.2z M119.8,344.9c-0.1,0-0.2-0.1-0.3-0.2c-0.1-0.1,0-0.3,0.2-0.4
		c1.1-0.4,2.2-0.7,3.2-0.9c0.1,0,0.3,0.1,0.3,0.2c0,0.1-0.1,0.3-0.2,0.3c-1,0.2-2.1,0.5-3.1,0.9
		C119.8,344.9,119.8,344.9,119.8,344.9z M129.5,344.6c0,0-0.1,0-0.1,0c-1-0.4-2-0.6-3.1-0.7c-0.2,0-0.3-0.1-0.3-0.3
		c0-0.2,0.1-0.3,0.3-0.3c1.1,0.1,2.3,0.3,3.3,0.8c0.1,0.1,0.2,0.2,0.2,0.4C129.7,344.5,129.6,344.6,129.5,344.6z M101.6,343.7
		c-0.1,0-0.3-0.1-0.3-0.3c-0.1-1.1-0.2-2.2-0.2-3.3c0-0.2,0.1-0.3,0.3-0.3c0.2,0,0.3,0.1,0.3,0.3c0,1.1,0.1,2.2,0.2,3.3
		C101.9,343.5,101.8,343.7,101.6,343.7C101.6,343.7,101.6,343.7,101.6,343.7z M101.3,337.1c-0.2,0-0.3-0.1-0.3-0.3
		c0-1.1,0.1-2.2,0.1-3.3c0-0.2,0.1-0.3,0.3-0.3c0.2,0,0.3,0.1,0.3,0.3c-0.1,1.1-0.1,2.2-0.1,3.3
		C101.6,336.9,101.5,337.1,101.3,337.1z M101.8,330.5C101.7,330.5,101.7,330.5,101.8,330.5c-0.2,0-0.3-0.2-0.3-0.3
		c0.1-1.1,0.3-2.2,0.4-3.3c0-0.1,0.2-0.3,0.3-0.2c0.1,0,0.3,0.2,0.2,0.3c-0.2,1.1-0.3,2.2-0.4,3.3
		C102,330.3,101.9,330.5,101.8,330.5z M102.8,323.9C102.8,323.9,102.8,323.9,102.8,323.9c-0.2,0-0.3-0.2-0.3-0.3
		c0.2-1.1,0.5-2.2,0.8-3.2c0-0.1,0.2-0.2,0.3-0.2c0.1,0,0.2,0.2,0.2,0.3c-0.3,1-0.6,2.1-0.8,3.2C103,323.8,102.9,323.9,102.8,323.9z
		 M104.6,317.5C104.5,317.5,104.5,317.5,104.6,317.5c-0.2-0.1-0.3-0.2-0.3-0.4c0.4-1.1,0.8-2.1,1.2-3.1c0.1-0.1,0.2-0.2,0.4-0.1
		c0.1,0.1,0.2,0.2,0.1,0.4c-0.4,1-0.8,2-1.2,3.1C104.8,317.5,104.7,317.5,104.6,317.5z M107.1,311.4c0,0-0.1,0-0.1,0
		c-0.1-0.1-0.2-0.2-0.1-0.4c0.5-1,1-2,1.5-2.9c0.1-0.1,0.3-0.2,0.4-0.1c0.1,0.1,0.2,0.3,0.1,0.4c-0.5,1-1.1,1.9-1.5,2.9
		C107.3,311.4,107.2,311.4,107.1,311.4z M110.3,305.7c-0.1,0-0.1,0-0.1-0.1c-0.1-0.1-0.2-0.3-0.1-0.4c0.6-0.9,1.3-1.8,1.9-2.7
		c0.1-0.1,0.3-0.1,0.4-0.1c0.1,0.1,0.1,0.3,0.1,0.4c-0.7,0.9-1.3,1.8-1.9,2.7C110.5,305.6,110.4,305.7,110.3,305.7z M114.3,300.4
		c-0.1,0-0.1,0-0.2-0.1c-0.1-0.1-0.1-0.3,0-0.4c0.7-0.8,1.5-1.7,2.3-2.5c0.1-0.1,0.3-0.1,0.4,0c0.1,0.1,0.1,0.3,0,0.4
		c-0.8,0.8-1.5,1.6-2.2,2.4C114.5,300.4,114.4,300.4,114.3,300.4z M119,295.7c-0.1,0-0.1,0-0.2-0.1c-0.1-0.1-0.1-0.3,0-0.4
		c0.8-0.7,1.7-1.5,2.5-2.1c0.1-0.1,0.3-0.1,0.4,0.1c0.1,0.1,0.1,0.3-0.1,0.4c-0.9,0.7-1.7,1.4-2.5,2.1
		C119.1,295.7,119,295.7,119,295.7z M194.9,293.9c-0.1,0-0.1,0-0.2-0.1c-0.8-0.8-1.6-1.5-2.5-2.2c-0.1-0.1-0.1-0.3,0-0.4
		c0.1-0.1,0.3-0.1,0.4,0c0.9,0.7,1.7,1.5,2.5,2.2c0.1,0.1,0.1,0.3,0,0.4C195,293.9,194.9,293.9,194.9,293.9z M124.2,291.6
		c-0.1,0-0.2,0-0.2-0.1c-0.1-0.1-0.1-0.3,0.1-0.4c0.9-0.6,1.8-1.2,2.8-1.8c0.1-0.1,0.3,0,0.4,0.1c0.1,0.1,0,0.3-0.1,0.4
		c-0.9,0.6-1.9,1.2-2.8,1.8C124.3,291.6,124.2,291.6,124.2,291.6z M189.8,289.7c-0.1,0-0.1,0-0.2-0.1c-0.9-0.6-1.8-1.2-2.8-1.8
		c-0.1-0.1-0.2-0.3-0.1-0.4c0.1-0.1,0.3-0.2,0.4-0.1c1,0.6,1.9,1.2,2.8,1.8c0.1,0.1,0.2,0.3,0.1,0.4
		C189.9,289.7,189.8,289.7,189.8,289.7z M129.8,288.1c-0.1,0-0.2-0.1-0.3-0.1c-0.1-0.1,0-0.3,0.1-0.4c1-0.5,2-1,3-1.5
		c0.1-0.1,0.3,0,0.4,0.1c0.1,0.1,0,0.3-0.1,0.4c-1,0.5-2,1-2.9,1.5C129.9,288.1,129.8,288.1,129.8,288.1z M184.1,286.4
		c0,0-0.1,0-0.1,0c-1-0.5-2-0.9-3-1.3c-0.1-0.1-0.2-0.2-0.1-0.4c0.1-0.1,0.2-0.2,0.4-0.1c1,0.4,2,0.9,3,1.4c0.1,0.1,0.2,0.2,0.1,0.4
		C184.3,286.3,184.2,286.4,184.1,286.4z M135.8,285.3c-0.1,0-0.2-0.1-0.3-0.2c-0.1-0.1,0-0.3,0.2-0.4c1-0.4,2.1-0.8,3.1-1.1
		c0.1-0.1,0.3,0,0.4,0.2c0.1,0.1,0,0.3-0.2,0.4c-1,0.4-2.1,0.7-3.1,1.1C135.9,285.3,135.8,285.3,135.8,285.3z M177.9,283.9
		C177.9,283.9,177.9,283.9,177.9,283.9c-1.1-0.4-2.2-0.7-3.2-1c-0.1,0-0.2-0.2-0.2-0.3c0-0.1,0.2-0.2,0.3-0.2c1.1,0.3,2.2,0.6,3.2,1
		c0.1,0.1,0.2,0.2,0.2,0.4C178.2,283.8,178.1,283.9,177.9,283.9z M142.1,283.2c-0.1,0-0.2-0.1-0.3-0.2c0-0.1,0.1-0.3,0.2-0.3
		c1.1-0.3,2.2-0.6,3.2-0.8c0.1,0,0.3,0.1,0.3,0.2c0,0.1-0.1,0.3-0.2,0.3C144.3,282.7,143.2,282.9,142.1,283.2
		C142.1,283.2,142.1,283.2,142.1,283.2z M171.6,282.1C171.5,282.1,171.5,282.1,171.6,282.1c-1.1-0.2-2.2-0.4-3.3-0.6
		c-0.1,0-0.3-0.2-0.2-0.3c0-0.1,0.2-0.3,0.3-0.2c1.1,0.2,2.2,0.4,3.3,0.6c0.1,0,0.3,0.2,0.2,0.3C171.8,282,171.7,282.1,171.6,282.1z
		 M148.5,281.8c-0.1,0-0.3-0.1-0.3-0.2c0-0.1,0.1-0.3,0.2-0.3c1.1-0.2,2.2-0.3,3.3-0.5c0.1,0,0.3,0.1,0.3,0.3c0,0.2-0.1,0.3-0.3,0.3
		C150.7,281.4,149.6,281.6,148.5,281.8C148.6,281.8,148.5,281.8,148.5,281.8z M165,281.1L165,281.1c-1.1-0.1-2.2-0.2-3.3-0.2
		c-0.2,0-0.3-0.1-0.3-0.3c0-0.2,0.1-0.3,0.3-0.3c1.1,0,2.2,0.1,3.3,0.2c0.2,0,0.3,0.1,0.3,0.3C165.3,281,165.2,281.1,165,281.1z
		 M155.1,281c-0.1,0-0.3-0.1-0.3-0.3c0-0.2,0.1-0.3,0.3-0.3c1.1-0.1,2.2-0.1,3.3-0.1c0.1,0,0.3,0.1,0.3,0.3c0,0.2-0.1,0.3-0.3,0.3
		C157.3,280.9,156.2,281,155.1,281C155.1,281,155.1,281,155.1,281z"/>
	<path class="st9" d="M205.6,412.5c-0.1,0-0.2-0.1-0.3-0.2c-0.1-0.1,0-0.3,0.2-0.4c1-0.4,1.5-0.6,1.5-0.6c0.1-0.1,0.3,0,0.4,0.1
		c0.1,0.1,0,0.3-0.1,0.4c0,0-0.6,0.2-1.6,0.6C205.6,412.5,205.6,412.5,205.6,412.5z"/>
	<path class="st9" d="M220.9,294.5C220.9,294.5,220.9,294.5,220.9,294.5c-0.2,0-0.3-0.2-0.3-0.3c0.1-0.5,0.3-1.1,0.4-1.6
		c0.1-0.1,0.2-0.2,0.4-0.2c0.1,0.1,0.2,0.2,0.2,0.4c-0.2,0.5-0.3,1.1-0.4,1.6C221.1,294.4,221,294.5,220.9,294.5z"/>
	<path class="st9" d="M295.5,373c-0.1,0-0.2-0.1-0.3-0.2c-0.1-0.1,0-0.3,0.2-0.4c1-0.4,2-0.8,3-1.4c0.1-0.1,0.3,0,0.4,0.1
		c0.1,0.1,0,0.3-0.1,0.4c-1,0.5-2,1-3,1.4C295.6,373,295.5,373,295.5,373z M301.3,369.8c-0.1,0-0.2,0-0.2-0.1
		c-0.1-0.1-0.1-0.3,0.1-0.4c0.9-0.6,1.7-1.3,2.5-2.1c0.1-0.1,0.3-0.1,0.4,0c0.1,0.1,0.1,0.3,0,0.4c-0.8,0.8-1.7,1.5-2.6,2.1
		C301.4,369.8,301.3,369.8,301.3,369.8z M306.1,365.4c-0.1,0-0.1,0-0.2-0.1c-0.1-0.1-0.1-0.3,0-0.4c0.7-0.8,1.3-1.7,1.9-2.6
		c0.1-0.1,0.3-0.2,0.4-0.1c0.1,0.1,0.2,0.3,0.1,0.4c-0.6,0.9-1.3,1.8-2,2.7C306.3,365.3,306.2,365.4,306.1,365.4z M309.6,359.8
		c0,0-0.1,0-0.1,0c-0.1-0.1-0.2-0.2-0.1-0.4c0.4-1,0.8-2,1.2-3c0.1-0.1,0.2-0.2,0.3-0.2c0.1,0.1,0.2,0.2,0.2,0.3
		c-0.3,1.1-0.7,2.1-1.2,3.1C309.8,359.8,309.7,359.8,309.6,359.8z M311.6,353.6C311.6,353.6,311.6,353.6,311.6,353.6
		c-0.2,0-0.3-0.2-0.3-0.3c0.2-1.1,0.3-2.1,0.4-3.2c0-0.2,0.1-0.3,0.3-0.3c0.2,0,0.3,0.1,0.3,0.3c-0.1,1.1-0.2,2.2-0.4,3.3
		C311.8,353.5,311.7,353.6,311.6,353.6z M311.9,347c-0.1,0-0.3-0.1-0.3-0.3c-0.1-1.1-0.2-2.2-0.4-3.2c0-0.1,0.1-0.3,0.2-0.3
		c0.1,0,0.3,0.1,0.3,0.2c0.2,1.1,0.3,2.2,0.4,3.3C312.2,346.9,312.1,347,311.9,347C312,347,311.9,347,311.9,347z M310.9,340.5
		c-0.1,0-0.2-0.1-0.3-0.2c-0.3-1-0.6-2.1-0.9-3.1c-0.1-0.1,0-0.3,0.2-0.4c0.1-0.1,0.3,0,0.4,0.2c0.3,1.1,0.7,2.1,0.9,3.2
		C311.2,340.3,311.2,340.5,310.9,340.5C311,340.5,310.9,340.5,310.9,340.5z M308.9,334.2c-0.1,0-0.2-0.1-0.3-0.2
		c-0.3-1.1-0.6-2.1-0.9-3.2c0-0.1,0.1-0.3,0.2-0.3c0.1,0,0.3,0.1,0.3,0.2c0.2,1,0.5,2.1,0.9,3.2C309.2,334,309.2,334.2,308.9,334.2
		C309,334.2,309,334.2,308.9,334.2z M307.6,327.8c-0.1,0-0.3-0.1-0.3-0.3c-0.1-1-0.1-1.9-0.1-2.9c0-0.2,0-0.3,0-0.5
		c0-0.1,0.1-0.3,0.3-0.3c0.2,0,0.3,0.1,0.3,0.3c0,0.1,0,0.3,0,0.4c0,0.9,0.1,1.9,0.1,2.8C307.8,327.7,307.7,327.8,307.6,327.8
		C307.6,327.8,307.6,327.8,307.6,327.8z M307.7,321.2C307.6,321.2,307.6,321.2,307.7,321.2c-0.2,0-0.3-0.2-0.3-0.3
		c0.1-1.1,0.4-2.2,0.6-3.3c0-0.1,0.2-0.2,0.3-0.2c0.1,0,0.2,0.2,0.2,0.3c-0.3,1-0.5,2.1-0.6,3.2
		C307.9,321.1,307.8,321.2,307.7,321.2z M330.7,320.8c-0.1,0-0.3-0.1-0.3-0.3c0-0.2,0.1-0.3,0.3-0.3c1.1,0,2.2-0.1,3.2-0.3
		c0.1,0,0.3,0.1,0.3,0.2c0,0.1-0.1,0.3-0.2,0.3C333,320.7,331.8,320.8,330.7,320.8z M327.4,320.7
		C327.4,320.7,327.4,320.7,327.4,320.7c-1.1-0.1-2.2-0.3-3.3-0.5c-0.1,0-0.3-0.2-0.2-0.3c0-0.1,0.2-0.3,0.3-0.2
		c1.1,0.2,2.2,0.4,3.2,0.5c0.2,0,0.3,0.1,0.3,0.3C327.7,320.6,327.5,320.7,327.4,320.7z M337.2,319.8c-0.1,0-0.2-0.1-0.3-0.2
		c-0.1-0.1,0-0.3,0.2-0.3c1.1-0.3,2.1-0.8,3-1.2c0.1-0.1,0.3,0,0.4,0.1c0.1,0.1,0,0.3-0.1,0.4C339.4,319,338.4,319.5,337.2,319.8
		C337.2,319.8,337.2,319.8,337.2,319.8z M321,319.4C320.9,319.4,320.9,319.4,321,319.4c-1.1-0.3-2.2-0.7-3.2-1.2
		c-0.1-0.1-0.2-0.2-0.1-0.4c0.1-0.1,0.2-0.2,0.4-0.1c1,0.4,2,0.8,3.1,1.1c0.1,0.1,0.2,0.2,0.2,0.3
		C321.2,319.3,321.1,319.4,321,319.4z M314.9,316.8c0,0-0.1,0-0.1,0c-1-0.5-1.9-1.1-2.8-1.7c-0.1-0.1-0.2-0.3-0.1-0.4
		c0.1-0.1,0.3-0.2,0.4-0.1c0.9,0.6,1.8,1.2,2.8,1.7c0.1,0.1,0.2,0.2,0.1,0.4C315.1,316.7,315,316.8,314.9,316.8z M342.9,316.6
		c-0.1,0-0.1,0-0.2-0.1c-0.1-0.1-0.1-0.3,0-0.4c0.8-0.8,1.4-1.7,1.8-2.6c0.1-0.1,0.2-0.2,0.4-0.2c0.1,0.1,0.2,0.2,0.2,0.4
		c-0.4,1-1,2-1.9,2.8C343,316.6,343,316.6,342.9,316.6z M309.3,314.9c0,0-0.1,0-0.1,0c-0.1-0.1-0.2-0.2-0.2-0.4c0.4-1,0.9-2,1.4-3
		c0.1-0.1,0.2-0.2,0.4-0.1c0.1,0.1,0.2,0.2,0.1,0.4c-0.5,1-1,2-1.4,3C309.5,314.8,309.4,314.9,309.3,314.9z M309.4,313.1
		c-0.1,0-0.1,0-0.2-0.1c-0.8-0.7-1.7-1.5-2.5-2.2c-0.1-0.1-0.1-0.3,0-0.4c0.1-0.1,0.3-0.1,0.4,0c0.8,0.8,1.6,1.5,2.4,2.2
		c0.1,0.1,0.1,0.3,0,0.4C309.6,313.1,309.5,313.1,309.4,313.1z M345.2,310.7c-0.1,0-0.3-0.1-0.3-0.3c-0.1-1-0.3-2-0.8-3.1
		c-0.1-0.1,0-0.3,0.1-0.4c0.1-0.1,0.3,0,0.4,0.1c0.5,1.1,0.8,2.2,0.8,3.3C345.5,310.6,345.4,310.7,345.2,310.7
		C345.2,310.7,345.2,310.7,345.2,310.7z M312.4,309.1c-0.1,0-0.1,0-0.2-0.1c-0.1-0.1-0.2-0.3-0.1-0.4c0.6-0.9,1.3-1.8,2-2.6
		c0.1-0.1,0.3-0.1,0.4,0c0.1,0.1,0.1,0.3,0,0.4c-0.7,0.8-1.4,1.7-2,2.6C312.6,309,312.5,309.1,312.4,309.1z M304.8,308.5
		c-0.1,0-0.2,0-0.2-0.1c-0.7-0.8-1.4-1.7-2-2.6c-0.1-0.1-0.1-0.3,0.1-0.4c0.1-0.1,0.3-0.1,0.4,0.1c0.6,0.9,1.3,1.8,2,2.6
		c0.1,0.1,0.1,0.3,0,0.4C304.9,308.5,304.8,308.5,304.8,308.5z M342.7,304.7c-0.1,0-0.2,0-0.2-0.1c-0.6-0.9-1.4-1.7-2.1-2.4
		c-0.1-0.1-0.1-0.3,0-0.4c0.1-0.1,0.3-0.1,0.4,0c0.8,0.7,1.5,1.6,2.2,2.5c0.1,0.1,0.1,0.3-0.1,0.4
		C342.8,304.7,342.8,304.7,342.7,304.7z M316.8,304.1c-0.1,0-0.2,0-0.2-0.1c-0.1-0.1-0.1-0.3,0-0.4c0.8-0.8,1.7-1.4,2.6-2.1
		c0.1-0.1,0.3-0.1,0.4,0.1c0.1,0.1,0.1,0.3-0.1,0.4c-0.9,0.6-1.7,1.3-2.6,2C316.9,304.1,316.8,304.1,316.8,304.1z M301,303.1
		c-0.1,0-0.2-0.1-0.2-0.1c-0.6-0.9-1.1-1.9-1.6-2.9c-0.1-0.1,0-0.3,0.1-0.4c0.1-0.1,0.3,0,0.4,0.1c0.5,1,1,2,1.5,2.9
		c0.1,0.1,0,0.3-0.1,0.4C301.1,303.1,301,303.1,301,303.1z M322.2,300.4c-0.1,0-0.2-0.1-0.3-0.2c-0.1-0.1,0-0.3,0.1-0.4
		c1-0.5,2-0.9,3.1-1.3c0.1-0.1,0.3,0,0.4,0.2c0.1,0.1,0,0.3-0.2,0.4c-1,0.3-2,0.7-3,1.2C322.3,300.4,322.2,300.4,322.2,300.4z
		 M337.9,300.2c-0.1,0-0.1,0-0.1,0c-0.9-0.6-1.9-1-2.9-1.3c-0.1,0-0.2-0.2-0.2-0.3c0-0.1,0.2-0.2,0.3-0.2c1.1,0.3,2.1,0.8,3.1,1.3
		c0.1,0.1,0.2,0.3,0.1,0.4C338.1,300.2,338,300.2,337.9,300.2z M328.4,298.4c-0.1,0-0.3-0.1-0.3-0.2c0-0.1,0.1-0.3,0.2-0.3
		c1.1-0.2,2.3-0.2,3.3-0.1c0.2,0,0.3,0.1,0.3,0.3c0,0.2-0.1,0.3-0.3,0.3C330.6,298.2,329.5,298.3,328.4,298.4
		C328.4,298.4,328.4,298.4,328.4,298.4z M298.1,297.2c-0.1,0-0.2-0.1-0.3-0.2c-0.4-1-0.8-2.1-1.1-3.1c-0.1-0.1,0-0.3,0.2-0.3
		c0.1-0.1,0.3,0,0.3,0.2c0.3,1,0.7,2.1,1.1,3.1C298.4,296.9,298.3,297.1,298.1,297.2C298.2,297.2,298.1,297.2,298.1,297.2z M296,291
		c-0.1,0-0.2-0.1-0.3-0.2c-0.4-1-0.8-2-1.3-3c-0.1-0.1,0-0.3,0.1-0.4c0.1-0.1,0.3,0,0.4,0.1c0.5,1,0.9,2,1.3,3
		c0.1,0.1,0,0.3-0.2,0.4C296,291,296,291,296,291z M222.6,289.9c0,0-0.1,0-0.1,0c-0.1-0.1-0.2-0.2-0.1-0.4c0.5-1,1.1-1.9,1.7-2.9
		c0.1-0.1,0.3-0.2,0.4-0.1c0.1,0.1,0.2,0.3,0.1,0.4c-0.6,0.9-1.2,1.8-1.7,2.8C222.8,289.8,222.7,289.9,222.6,289.9z M293.1,285.1
		c-0.1,0-0.2-0.1-0.2-0.1c-0.6-0.9-1.2-1.8-1.9-2.7c-0.1-0.1-0.1-0.3,0.1-0.4c0.1-0.1,0.3-0.1,0.4,0.1c0.7,0.9,1.3,1.8,1.9,2.7
		c0.1,0.1,0,0.3-0.1,0.4C293.2,285,293.1,285.1,293.1,285.1z M226.4,284.5c-0.1,0-0.1,0-0.2-0.1c-0.1-0.1-0.1-0.3,0-0.4
		c0.7-0.8,1.5-1.6,2.3-2.3c0.1-0.1,0.3-0.1,0.4,0c0.1,0.1,0.1,0.3,0,0.4c-0.8,0.8-1.6,1.5-2.3,2.3
		C226.5,284.5,226.4,284.5,226.4,284.5z M231.2,280.1c-0.1,0-0.2,0-0.2-0.1c-0.1-0.1-0.1-0.3,0.1-0.4c0.9-0.7,1.8-1.3,2.7-1.9
		c0.1-0.1,0.3-0.1,0.4,0.1c0.1,0.1,0.1,0.3-0.1,0.4c-0.9,0.6-1.8,1.2-2.7,1.9C231.3,280,231.3,280.1,231.2,280.1z M289,279.9
		c-0.1,0-0.1,0-0.2-0.1c-0.8-0.8-1.6-1.5-2.4-2.2c-0.1-0.1-0.1-0.3,0-0.4c0.1-0.1,0.3-0.1,0.4,0c0.8,0.7,1.7,1.5,2.4,2.3
		c0.1,0.1,0.1,0.3,0,0.4C289.2,279.8,289.1,279.9,289,279.9z M236.8,276.5c-0.1,0-0.2-0.1-0.3-0.1c-0.1-0.1,0-0.3,0.1-0.4
		c1-0.5,2-1,3-1.5c0.1-0.1,0.3,0,0.4,0.1c0.1,0.1,0,0.3-0.1,0.4c-1,0.5-2,1-2.9,1.5C236.8,276.5,236.8,276.5,236.8,276.5z
		 M284,275.7c-0.1,0-0.1,0-0.2-0.1c-0.9-0.6-1.8-1.1-2.8-1.6c-0.1-0.1-0.2-0.2-0.1-0.4c0.1-0.1,0.2-0.2,0.4-0.1c1,0.5,2,1.1,2.9,1.7
		c0.1,0.1,0.2,0.3,0.1,0.4C284.2,275.6,284.1,275.7,284,275.7z M242.7,273.7c-0.1,0-0.2-0.1-0.3-0.2c-0.1-0.1,0-0.3,0.2-0.4
		c1-0.4,2.1-0.8,3.1-1.1c0.1-0.1,0.3,0,0.4,0.2c0.1,0.1,0,0.3-0.2,0.4c-1,0.3-2.1,0.7-3.1,1.1C242.8,273.7,242.8,273.7,242.7,273.7z
		 M278.2,272.6c0,0-0.1,0-0.1,0c-1-0.4-2-0.8-3.1-1.1c-0.1,0-0.2-0.2-0.2-0.3c0-0.1,0.2-0.2,0.3-0.2c1.1,0.3,2.1,0.7,3.1,1.1
		c0.1,0.1,0.2,0.2,0.2,0.4C278.4,272.6,278.3,272.6,278.2,272.6z M249,271.6c-0.1,0-0.2-0.1-0.3-0.2c0-0.1,0.1-0.3,0.2-0.3
		c1.1-0.3,2.2-0.5,3.2-0.8c0.1,0,0.3,0.1,0.3,0.2c0,0.1-0.1,0.3-0.2,0.3C251.2,271.1,250.1,271.3,249,271.6
		C249,271.6,249,271.6,249,271.6z M271.8,270.7C271.8,270.7,271.8,270.7,271.8,270.7c-1.1-0.2-2.2-0.4-3.3-0.5
		c-0.1,0-0.3-0.2-0.2-0.3c0-0.1,0.2-0.3,0.3-0.2c1.1,0.1,2.2,0.3,3.3,0.6c0.1,0,0.3,0.2,0.2,0.3C272.1,270.7,272,270.7,271.8,270.7z
		 M255.4,270.4c-0.1,0-0.3-0.1-0.3-0.2c0-0.1,0.1-0.3,0.2-0.3c1.1-0.2,2.2-0.3,3.3-0.4c0.2,0,0.3,0.1,0.3,0.3c0,0.2-0.1,0.3-0.3,0.3
		C257.7,270.1,256.6,270.2,255.4,270.4C255.5,270.3,255.5,270.4,255.4,270.4z M265.3,269.9C265.3,269.9,265.3,269.9,265.3,269.9
		c-1.1-0.1-2.2-0.1-3.3-0.1c-0.2,0-0.3-0.1-0.3-0.3c0-0.2,0.1-0.3,0.3-0.3c1.1,0,2.2,0,3.3,0.1c0.2,0,0.3,0.1,0.3,0.3
		C265.6,269.8,265.5,269.9,265.3,269.9z"/>
	<path class="st9" d="M290.6,374c-0.2,0-0.3-0.1-0.3-0.3c0-0.1,0.1-0.3,0.3-0.3c0.5,0,1-0.1,1.6-0.1c0.1,0,0.3,0.1,0.3,0.2
		c0,0.1-0.1,0.3-0.2,0.3C291.7,374,291.1,374,290.6,374z"/>
	<path class="st9" d="M240.8,298.8L240.8,298.8c-0.6,0-1.1-0.1-1.7-0.1c-0.2,0-0.3-0.1-0.3-0.3c0-0.2,0.1-0.3,0.3-0.3
		c0.6,0,1.1,0.1,1.7,0.1c0.2,0,0.3,0.1,0.3,0.3C241.1,298.7,241,298.8,240.8,298.8z"/>
	<path class="st9" d="M293.4,457.6c-0.2,0-0.5,0-0.7,0c-0.2,0-0.3-0.1-0.3-0.3c0-0.1,0.1-0.3,0.3-0.3c1.1,0,2.2,0,3.3-0.1
		c0.2,0,0.3,0.1,0.3,0.3c0,0.2-0.1,0.3-0.3,0.3C295.2,457.6,294.3,457.6,293.4,457.6z M289.4,457.5
		C289.3,457.5,289.3,457.5,289.4,457.5c-1.1-0.1-2.3-0.3-3.4-0.4c-0.1,0-0.3-0.2-0.2-0.3s0.2-0.3,0.3-0.2c1.1,0.2,2.2,0.3,3.3,0.4
		c0.2,0,0.3,0.1,0.3,0.3C289.6,457.3,289.5,457.5,289.4,457.5z M299.3,457.2c-0.1,0-0.3-0.1-0.3-0.2c0-0.1,0.1-0.3,0.2-0.3
		c1.1-0.2,2.2-0.4,3.2-0.6c0.1,0,0.3,0.1,0.3,0.2c0,0.1-0.1,0.3-0.2,0.3C301.6,456.8,300.5,457,299.3,457.2
		C299.4,457.2,299.3,457.2,299.3,457.2z M282.8,456.3C282.8,456.3,282.7,456.3,282.8,456.3c-1.1-0.3-2.2-0.5-3.3-0.8
		c-0.1,0-0.2-0.2-0.2-0.3c0-0.1,0.2-0.2,0.3-0.2c1.1,0.3,2.1,0.6,3.2,0.8c0.1,0,0.3,0.2,0.2,0.3C283,456.2,282.9,456.3,282.8,456.3z
		 M305.8,455.7c-0.1,0-0.2-0.1-0.3-0.2c-0.1-0.1,0-0.3,0.2-0.4c1-0.3,2.1-0.7,3.1-1.2c0.1-0.1,0.3,0,0.4,0.1c0.1,0.1,0,0.3-0.1,0.4
		C308,454.9,307,455.3,305.8,455.7C305.9,455.7,305.9,455.7,305.8,455.7z M276.4,454.5C276.3,454.5,276.3,454.5,276.4,454.5
		c-1.1-0.4-2.2-0.8-3.2-1.2c-0.1-0.1-0.2-0.2-0.1-0.4c0.1-0.1,0.2-0.2,0.4-0.1c1,0.4,2.1,0.8,3.1,1.2c0.1,0.1,0.2,0.2,0.2,0.4
		C276.6,454.4,276.5,454.5,276.4,454.5z M312,453c-0.1,0-0.2-0.1-0.3-0.1c-0.1-0.1,0-0.3,0.1-0.4c1-0.5,1.9-1.1,2.9-1.7
		c0.1-0.1,0.3,0,0.4,0.1c0.1,0.1,0,0.3-0.1,0.4c-0.9,0.6-1.9,1.2-2.9,1.7C312.1,453,312,453,312,453z M270.2,451.9c0,0-0.1,0-0.1,0
		c-1-0.5-2-1-3-1.6c-0.1-0.1-0.2-0.3-0.1-0.4c0.1-0.1,0.3-0.2,0.4-0.1c0.9,0.5,1.9,1.1,2.9,1.6c0.1,0.1,0.2,0.2,0.1,0.4
		C270.4,451.8,270.3,451.9,270.2,451.9z M317.6,449.5c-0.1,0-0.2,0-0.2-0.1c-0.1-0.1-0.1-0.3,0.1-0.4c0.9-0.7,1.7-1.4,2.6-2.1
		c0.1-0.1,0.3-0.1,0.4,0c0.1,0.1,0.1,0.3,0,0.4c-0.8,0.7-1.7,1.5-2.6,2.1C317.7,449.5,317.6,449.5,317.6,449.5z M264.4,448.6
		c-0.1,0-0.1,0-0.1-0.1c-0.9-0.6-1.9-1.3-2.8-1.9c-0.1-0.1-0.1-0.3-0.1-0.4c0.1-0.1,0.3-0.1,0.4-0.1c0.9,0.7,1.8,1.3,2.7,1.9
		c0.1,0.1,0.2,0.3,0.1,0.4C264.6,448.6,264.5,448.6,264.4,448.6z M322.6,445c-0.1,0-0.1,0-0.2-0.1c-0.1-0.1-0.1-0.3,0-0.4
		c0.8-0.8,1.5-1.6,2.2-2.5c0.1-0.1,0.3-0.1,0.4,0c0.1,0.1,0.1,0.3,0,0.4c-0.7,0.9-1.5,1.7-2.2,2.5C322.7,445,322.7,445,322.6,445z
		 M259.1,444.6c-0.1,0-0.1,0-0.2-0.1c-0.8-0.7-1.7-1.5-2.5-2.2c-0.1-0.1-0.1-0.3,0-0.4c0.1-0.1,0.3-0.1,0.4,0
		c0.8,0.8,1.6,1.5,2.5,2.2c0.1,0.1,0.1,0.3,0,0.4C259.2,444.6,259.1,444.6,259.1,444.6z M254.2,440c-0.1,0-0.1,0-0.2-0.1
		c-0.8-0.8-1.5-1.7-2.2-2.5c-0.1-0.1-0.1-0.3,0-0.4c0.1-0.1,0.3-0.1,0.4,0c0.7,0.8,1.5,1.7,2.2,2.5c0.1,0.1,0.1,0.3,0,0.4
		C254.3,440,254.3,440,254.2,440z M326.8,439.9c-0.1,0-0.1,0-0.2-0.1c-0.1-0.1-0.2-0.3-0.1-0.4c0.6-0.9,1.2-1.8,1.8-2.8
		c0.1-0.1,0.3-0.2,0.4-0.1c0.1,0.1,0.2,0.3,0.1,0.4c-0.6,0.9-1.2,1.9-1.8,2.8C327,439.9,326.9,439.9,326.8,439.9z M249.9,434.9
		c-0.1,0-0.2,0-0.2-0.1c-0.7-0.9-1.3-1.8-1.9-2.8c-0.1-0.1-0.1-0.3,0.1-0.4c0.1-0.1,0.3-0.1,0.4,0.1c0.6,0.9,1.2,1.8,1.9,2.7
		c0.1,0.1,0.1,0.3-0.1,0.4C250.1,434.9,250,434.9,249.9,434.9z M330.2,434.2c0,0-0.1,0-0.1,0c-0.1-0.1-0.2-0.2-0.1-0.4
		c0.5-1,0.9-2,1.3-3c0.1-0.1,0.2-0.2,0.4-0.2c0.1,0.1,0.2,0.2,0.2,0.4c-0.4,1-0.9,2.1-1.3,3.1C330.4,434.1,330.3,434.2,330.2,434.2z
		 M246.3,429.3c-0.1,0-0.2-0.1-0.2-0.1c-0.6-1-1.1-2-1.6-3c-0.1-0.1,0-0.3,0.1-0.4c0.1-0.1,0.3,0,0.4,0.1c0.5,1,1,2,1.6,2.9
		c0.1,0.1,0,0.3-0.1,0.4C246.4,429.3,246.3,429.3,246.3,429.3z M332.6,427.9C332.6,427.9,332.6,427.9,332.6,427.9
		c-0.2-0.1-0.3-0.2-0.3-0.4c0.3-1.1,0.6-2.2,0.8-3.2c0-0.1,0.2-0.3,0.3-0.2c0.1,0,0.3,0.2,0.2,0.3c-0.2,1.1-0.5,2.2-0.8,3.3
		C332.9,427.8,332.7,427.9,332.6,427.9z M333.9,421.4L333.9,421.4c-0.2,0-0.3-0.1-0.3-0.3c0.1-0.9,0.1-1.9,0.1-2.8
		c0-0.2,0-0.3,0-0.5c0-0.2,0.1-0.3,0.3-0.3c0.1,0,0.3,0.1,0.3,0.3c0,0.2,0,0.3,0,0.5c0,1,0,1.9-0.1,2.9
		C334.1,421.3,334,421.4,333.9,421.4z M333.8,414.7c-0.1,0-0.3-0.1-0.3-0.2c-0.1-1.1-0.4-2.2-0.6-3.2c0-0.1,0.1-0.3,0.2-0.3
		c0.1,0,0.3,0.1,0.3,0.2c0.3,1.1,0.5,2.2,0.6,3.3C334.1,414.5,333.9,414.7,333.8,414.7C333.8,414.7,333.8,414.7,333.8,414.7z
		 M332.1,408.3c-0.1,0-0.2-0.1-0.3-0.2c-0.4-1-0.9-2-1.4-3c-0.1-0.1,0-0.3,0.1-0.4c0.1-0.1,0.3,0,0.4,0.1c0.5,1,1,2,1.5,3
		c0.1,0.1,0,0.3-0.2,0.4C332.2,408.3,332.1,408.3,332.1,408.3z M310.8,405.3c-0.9,0-1.7-0.1-2.4-0.4c-0.1-0.1-0.2-0.2-0.2-0.4
		c0.1-0.1,0.2-0.2,0.4-0.2c0.9,0.3,2,0.4,3.2,0.3c0.2,0,0.3,0.1,0.3,0.3c0,0.2-0.1,0.3-0.3,0.3C311.4,405.3,311.1,405.3,310.8,405.3
		z M315,404.4c-0.1,0-0.2-0.1-0.3-0.2c-0.1-0.1,0-0.3,0.2-0.4c1-0.4,1.9-0.9,2.9-1.5c0.1-0.1,0.3,0,0.4,0.1c0.1,0.1,0,0.3-0.1,0.4
		c-1,0.6-2.1,1.1-3,1.5C315,404.4,315,404.4,315,404.4z M305.8,403c-0.1,0-0.2,0-0.2-0.1c-0.7-0.9-1.1-2-1.3-3.2
		c0-0.1,0.1-0.3,0.2-0.3c0.1,0,0.3,0.1,0.3,0.2c0.2,1.1,0.6,2.1,1.2,2.9c0.1,0.1,0.1,0.3-0.1,0.4C305.9,403,305.9,403,305.8,403z
		 M328.9,402.4c-0.1,0-0.2,0-0.2-0.1c-0.6-0.9-1.4-1.7-2.1-2.5c-0.1-0.1-0.1-0.3,0-0.4c0.1-0.1,0.3-0.1,0.4,0
		c0.8,0.8,1.5,1.7,2.2,2.6c0.1,0.1,0.1,0.3-0.1,0.4C329,402.4,328.9,402.4,328.9,402.4z M320.7,401c-0.1,0-0.2,0-0.2-0.1
		c-0.1-0.1-0.1-0.3,0.1-0.4c0.9-0.6,1.6-1.4,2.4-2.3c0.1-0.1,0.3-0.1,0.4,0c0.1,0.1,0.1,0.3,0,0.4c-0.8,0.9-1.6,1.7-2.5,2.3
		C320.9,401,320.8,401,320.7,401z M324.2,397.6c-0.1,0-0.1,0-0.2-0.1c-0.1-0.1-0.2-0.2-0.3-0.3c-0.8-0.6-1.6-1.2-2.3-1.8
		c-0.1-0.1-0.2-0.3-0.1-0.4c0.1-0.1,0.3-0.2,0.4-0.1c0.8,0.5,1.6,1.1,2.4,1.8c0.1,0.1,0.2,0.2,0.3,0.3c0.1,0.1,0.1,0.3,0,0.4
		C324.4,397.6,324.3,397.6,324.2,397.6z M304.7,396.6C304.7,396.6,304.7,396.6,304.7,396.6c-0.2-0.1-0.3-0.2-0.3-0.4
		c0.3-1.1,0.9-2.2,1.7-3c0.1-0.1,0.3-0.1,0.4,0c0.1,0.1,0.1,0.3,0,0.4c-0.7,0.8-1.3,1.7-1.6,2.8C305,396.5,304.8,396.6,304.7,396.6z
		 M325.1,396c-0.1,0-0.1,0-0.1,0c-0.1-0.1-0.2-0.3-0.1-0.4c0.5-0.9,1-1.9,1.4-3c0.1-0.1,0.2-0.2,0.4-0.2c0.1,0.1,0.2,0.2,0.2,0.4
		c-0.4,1.1-0.9,2.1-1.4,3C325.3,396,325.2,396,325.1,396z M318.7,393.9c0,0-0.1,0-0.1,0c-1-0.6-2-1-3-1.4c-0.1-0.1-0.2-0.2-0.2-0.4
		c0.1-0.1,0.2-0.2,0.4-0.2c1,0.4,2,0.8,3.1,1.4c0.1,0.1,0.2,0.2,0.1,0.4C318.9,393.8,318.9,393.9,318.7,393.9z M309.2,392
		c-0.1,0-0.2-0.1-0.3-0.2c0-0.1,0-0.3,0.2-0.3c1-0.3,2.2-0.4,3.4-0.3c0.2,0,0.3,0.1,0.3,0.3c0,0.2-0.1,0.3-0.3,0.3
		C311.3,391.6,310.2,391.7,309.2,392C309.2,392,309.2,392,309.2,392z M327.5,389.8C327.5,389.8,327.5,389.8,327.5,389.8
		c-0.2,0-0.3-0.2-0.3-0.3c0.3-1,0.5-2.1,0.6-3.2c0-0.1,0.2-0.3,0.3-0.2c0.1,0,0.3,0.2,0.2,0.3c-0.2,1.1-0.4,2.3-0.6,3.3
		C327.7,389.7,327.6,389.8,327.5,389.8z M328.4,383.2C328.4,383.2,328.4,383.2,328.4,383.2c-0.2,0-0.3-0.1-0.3-0.3
		c0-0.8,0.1-1.6,0.1-2.4c0-0.3,0-0.6,0-0.9c0-0.2,0.1-0.3,0.3-0.3c0.2,0,0.3,0.1,0.3,0.3c0,0.3,0,0.6,0,0.9c0,0.8,0,1.6-0.1,2.4
		C328.7,383.1,328.6,383.2,328.4,383.2z M328.3,376.5c-0.1,0-0.3-0.1-0.3-0.3c-0.1-1.1-0.2-2.2-0.4-3.3c0-0.1,0.1-0.3,0.2-0.3
		c0.1,0,0.3,0.1,0.3,0.2c0.2,1.1,0.3,2.2,0.4,3.3C328.6,376.4,328.5,376.5,328.3,376.5C328.3,376.5,328.3,376.5,328.3,376.5z
		 M327.4,369.9c-0.1,0-0.3-0.1-0.3-0.2c-0.2-1.1-0.4-2.2-0.7-3.2c0-0.1,0.1-0.3,0.2-0.3c0.1,0,0.3,0.1,0.3,0.2
		c0.3,1.1,0.5,2.2,0.7,3.3C327.7,369.7,327.6,369.9,327.4,369.9C327.4,369.9,327.4,369.9,327.4,369.9z M325.8,363.4
		c-0.1,0-0.2-0.1-0.3-0.2c-0.3-1.1-0.7-2.1-1-3.2c-0.1-0.1,0-0.3,0.2-0.4c0.1-0.1,0.3,0,0.4,0.2c0.4,1.1,0.7,2.1,1,3.2
		C326.1,363.2,326,363.4,325.8,363.4C325.8,363.4,325.8,363.4,325.8,363.4z M323.6,357.1c-0.1,0-0.2-0.1-0.3-0.2
		c-0.4-1-0.8-2.1-1.3-3.1c-0.1-0.1,0-0.3,0.1-0.4c0.1-0.1,0.3,0,0.4,0.1c0.4,1,0.9,2.1,1.3,3.1c0.1,0.1,0,0.3-0.2,0.4
		C323.7,357.1,323.6,357.1,323.6,357.1z M320.9,351c-0.1,0-0.2-0.1-0.3-0.2c-0.5-1-1-2-1.5-3c-0.1-0.1,0-0.3,0.1-0.4
		c0.1-0.1,0.3,0,0.4,0.1c0.5,1,1,2,1.5,3c0.1,0.1,0,0.3-0.1,0.4C321,351,320.9,351,320.9,351z M317.7,345.1c-0.1,0-0.2-0.1-0.2-0.1
		c-0.6-1-1.1-1.9-1.7-2.9c-0.1-0.1,0-0.3,0.1-0.4c0.1-0.1,0.3,0,0.4,0.1c0.6,1,1.2,1.9,1.7,2.9c0.1,0.1,0,0.3-0.1,0.4
		C317.8,345.1,317.8,345.1,317.7,345.1z M314.2,339.5c-0.1,0-0.2,0-0.2-0.1c-0.6-0.9-1.3-1.8-1.9-2.7c-0.1-0.1-0.1-0.3,0.1-0.4
		c0.1-0.1,0.3-0.1,0.4,0.1c0.7,0.9,1.3,1.8,2,2.7c0.1,0.1,0.1,0.3-0.1,0.4C314.3,339.5,314.2,339.5,314.2,339.5z M310.2,334.1
		c-0.1,0-0.2,0-0.2-0.1c-0.7-0.9-1.4-1.7-2.1-2.6c-0.1-0.1-0.1-0.3,0-0.4c0.1-0.1,0.3-0.1,0.4,0c0.7,0.8,1.5,1.7,2.1,2.6
		c0.1,0.1,0.1,0.3,0,0.4C310.3,334.1,310.2,334.1,310.2,334.1z M305.8,329.1c-0.1,0-0.1,0-0.2-0.1c-0.8-0.8-1.5-1.6-2.3-2.4
		c-0.1-0.1-0.1-0.3,0-0.4c0.1-0.1,0.3-0.1,0.4,0c0.8,0.8,1.6,1.6,2.3,2.4c0.1,0.1,0.1,0.3,0,0.4C306,329,305.9,329.1,305.8,329.1z
		 M301.1,324.3c-0.1,0-0.1,0-0.2-0.1c-0.8-0.8-1.6-1.5-2.5-2.2c-0.1-0.1-0.1-0.3,0-0.4c0.1-0.1,0.3-0.1,0.4,0
		c0.8,0.7,1.7,1.5,2.5,2.2c0.1,0.1,0.1,0.3,0,0.4C301.3,324.3,301.2,324.3,301.1,324.3z M296.1,319.9c-0.1,0-0.1,0-0.2-0.1
		c-0.9-0.7-1.7-1.4-2.6-2c-0.1-0.1-0.1-0.3-0.1-0.4c0.1-0.1,0.3-0.1,0.4-0.1c0.9,0.7,1.8,1.4,2.6,2.1c0.1,0.1,0.1,0.3,0,0.4
		C296.3,319.9,296.2,319.9,296.1,319.9z M290.8,315.9c-0.1,0-0.1,0-0.2-0.1c-0.9-0.6-1.8-1.3-2.8-1.8c-0.1-0.1-0.2-0.3-0.1-0.4
		c0.1-0.1,0.3-0.2,0.4-0.1c0.9,0.6,1.9,1.2,2.8,1.9c0.1,0.1,0.2,0.3,0.1,0.4C290.9,315.9,290.8,315.9,290.8,315.9z M285.1,312.3
		c-0.1,0-0.1,0-0.1,0c-0.9-0.6-1.9-1.1-2.9-1.6c-0.1-0.1-0.2-0.3-0.1-0.4c0.1-0.1,0.3-0.2,0.4-0.1c1,0.5,2,1.1,2.9,1.7
		c0.1,0.1,0.2,0.3,0.1,0.4C285.3,312.2,285.2,312.3,285.1,312.3z M279.3,309.1c0,0-0.1,0-0.1,0c-1-0.5-2-1-3-1.4
		c-0.1-0.1-0.2-0.2-0.1-0.4c0.1-0.1,0.2-0.2,0.4-0.1c1,0.5,2,1,3,1.5c0.1,0.1,0.2,0.2,0.1,0.4C279.5,309,279.4,309.1,279.3,309.1z
		 M273.2,306.3c0,0-0.1,0-0.1,0c-1-0.4-2.1-0.8-3.1-1.2c-0.1-0.1-0.2-0.2-0.2-0.4c0.1-0.1,0.2-0.2,0.4-0.2c1,0.4,2.1,0.8,3.1,1.2
		c0.1,0.1,0.2,0.2,0.1,0.4C273.4,306.2,273.3,306.3,273.2,306.3z M267,304C266.9,304,266.9,304,267,304c-1.1-0.4-2.2-0.7-3.3-1
		c-0.1,0-0.2-0.2-0.2-0.3c0-0.1,0.2-0.2,0.3-0.2c1.1,0.3,2.1,0.7,3.2,1c0.1,0.1,0.2,0.2,0.2,0.4C267.2,303.9,267.1,304,267,304z
		 M260.6,302.1C260.5,302.1,260.5,302.1,260.6,302.1c-1.1-0.3-2.2-0.6-3.3-0.8c-0.1,0-0.3-0.2-0.2-0.3c0-0.1,0.2-0.3,0.3-0.2
		c1.1,0.3,2.2,0.5,3.2,0.8c0.1,0,0.2,0.2,0.2,0.3C260.8,302,260.7,302.1,260.6,302.1z M254.1,300.6C254,300.6,254,300.6,254.1,300.6
		c-1.1-0.2-2.2-0.4-3.3-0.6c-0.1,0-0.3-0.2-0.2-0.3c0-0.1,0.2-0.3,0.3-0.2c1.1,0.2,2.2,0.4,3.3,0.6c0.1,0,0.3,0.2,0.2,0.3
		C254.3,300.5,254.2,300.6,254.1,300.6z M247.5,299.5C247.5,299.5,247.5,299.5,247.5,299.5c-1.1-0.1-2.2-0.3-3.3-0.4
		c-0.2,0-0.3-0.1-0.3-0.3c0-0.2,0.2-0.3,0.3-0.3c1.1,0.1,2.2,0.2,3.3,0.4c0.1,0,0.3,0.2,0.2,0.3
		C247.7,299.4,247.6,299.5,247.5,299.5z"/>
	<path class="st9" d="M243.3,423.2c-0.1,0-0.2-0.1-0.3-0.2c-0.4-1-0.6-1.6-0.6-1.6c-0.1-0.1,0-0.3,0.2-0.4c0.1-0.1,0.3,0,0.4,0.2
		c0,0,0.2,0.6,0.6,1.5c0.1,0.1,0,0.3-0.1,0.4C243.3,423.2,243.3,423.2,243.3,423.2z"/>
	<path class="st9" d="M179.9,357.2c-0.6,0-1.1,0-1.7-0.1c-0.1,0-0.2-0.1-0.2-0.2c0-0.1,0.1-0.2,0.2-0.2c1.1,0.1,2.2,0.1,3.3,0
		c0.1,0,0.2,0.1,0.2,0.2c0,0.1-0.1,0.2-0.2,0.2C181,357.2,180.5,357.2,179.9,357.2z M184.9,356.7c-0.1,0-0.2-0.1-0.2-0.2
		c0-0.1,0.1-0.2,0.2-0.3c0.3-0.1,0.5-0.1,0.8-0.2c0.1,0,0.2,0,0.3,0.2c0,0.1,0,0.2-0.2,0.3C185.4,356.6,185.2,356.6,184.9,356.7
		C184.9,356.7,184.9,356.7,184.9,356.7z M174.9,356.7C174.9,356.7,174.9,356.7,174.9,356.7c-1.1-0.2-2.2-0.6-3.3-0.9
		c-0.1,0-0.2-0.2-0.1-0.3c0-0.1,0.2-0.2,0.3-0.1c1,0.4,2.1,0.7,3.2,0.9c0.1,0,0.2,0.1,0.2,0.3C175.1,356.6,175,356.7,174.9,356.7z
		 M168.7,354.3c0,0-0.1,0-0.1,0c-1-0.5-1.9-1.2-2.8-1.8c-0.1-0.1-0.1-0.2,0-0.3c0.1-0.1,0.2-0.1,0.3,0c0.9,0.7,1.8,1.3,2.8,1.8
		c0.1,0.1,0.1,0.2,0.1,0.3C168.9,354.3,168.8,354.3,168.7,354.3z M163.5,350.3c-0.1,0-0.1,0-0.1-0.1c-0.8-0.8-1.5-1.6-2.2-2.6
		c-0.1-0.1-0.1-0.2,0-0.3c0.1-0.1,0.2-0.1,0.3,0c0.6,0.9,1.4,1.7,2.1,2.5c0.1,0.1,0.1,0.2,0,0.3
		C163.6,350.2,163.5,350.3,163.5,350.3z M159.5,344.9c-0.1,0-0.1,0-0.2-0.1c-0.5-1-1-2-1.4-3c0-0.1,0-0.2,0.1-0.3
		c0.1,0,0.2,0,0.3,0.1c0.4,1,0.9,2,1.4,3c0.1,0.1,0,0.2-0.1,0.3C159.6,344.9,159.6,344.9,159.5,344.9z M157.1,338.7
		c-0.1,0-0.2-0.1-0.2-0.2c-0.3-1.1-0.5-2.2-0.6-3.3c0-0.1,0.1-0.2,0.2-0.2c0.1,0,0.2,0.1,0.2,0.2c0.1,1.1,0.3,2.2,0.6,3.2
		C157.4,338.6,157.3,338.7,157.1,338.7C157.2,338.7,157.2,338.7,157.1,338.7z M156.3,332.1c-0.1,0-0.2-0.1-0.2-0.2
		c0-0.2,0-0.3,0-0.5c0-1,0-1.9,0.1-2.9c0-0.1,0.1-0.2,0.2-0.2c0.1,0,0.2,0.1,0.2,0.2c-0.1,1-0.1,1.9-0.1,2.8c0,0.2,0,0.3,0,0.5
		C156.5,332,156.4,332.1,156.3,332.1z M156.9,325.5C156.9,325.5,156.9,325.5,156.9,325.5c-0.1,0-0.2-0.1-0.2-0.2
		c0.1-0.5,0.2-1,0.3-1.5c0.1-0.6,0.2-1.2,0.3-1.7c0-0.1,0.1-0.2,0.2-0.2c0.1,0,0.2,0.1,0.2,0.2c-0.1,0.6-0.1,1.2-0.3,1.8
		c-0.1,0.5-0.2,1-0.3,1.5C157.1,325.4,157,325.5,156.9,325.5z M157.2,318.9c-0.1,0-0.2-0.1-0.2-0.1c-0.3-1-0.8-1.9-1.6-2.8
		c-0.1-0.1-0.1-0.2,0-0.3c0.1-0.1,0.2-0.1,0.3,0c0.8,0.9,1.3,1.8,1.6,2.9C157.4,318.8,157.3,318.9,157.2,318.9
		C157.2,318.9,157.2,318.9,157.2,318.9z M153,314c0,0-0.1,0-0.1,0c-0.8-0.5-1.8-1-3-1.4c-0.1,0-0.2-0.2-0.1-0.3
		c0-0.1,0.2-0.2,0.3-0.1c1.2,0.5,2.2,0.9,3,1.5c0.1,0.1,0.1,0.2,0.1,0.3C153.1,314,153.1,314,153,314z M146.8,311.5
		C146.8,311.5,146.8,311.5,146.8,311.5c-1.2-0.4-2.3-0.7-3.3-1c-0.1,0-0.2-0.1-0.1-0.3c0-0.1,0.1-0.2,0.3-0.1c1,0.3,2.1,0.6,3.2,0.9
		c0.1,0,0.2,0.1,0.1,0.3C147,311.4,146.9,311.5,146.8,311.5z M140.4,309.7C140.4,309.7,140.4,309.7,140.4,309.7
		c-1.3-0.4-2.3-0.6-3.3-1c-0.1,0-0.2-0.1-0.1-0.3c0-0.1,0.1-0.2,0.3-0.1c0.9,0.3,2,0.6,3.2,1c0.1,0,0.2,0.1,0.1,0.3
		C140.6,309.6,140.5,309.7,140.4,309.7z M134,307.6C134,307.6,134,307.6,134,307.6c-1.2-0.4-2.2-0.9-3.2-1.3
		c-0.1-0.1-0.1-0.2-0.1-0.3c0.1-0.1,0.2-0.1,0.3-0.1c1,0.4,2,0.9,3.1,1.3c0.1,0,0.2,0.2,0.1,0.3C134.2,307.6,134.1,307.6,134,307.6z
		 M128,304.8c0,0-0.1,0-0.1,0c-1-0.6-1.9-1.3-2.7-2c-0.1-0.1-0.1-0.2,0-0.3c0.1-0.1,0.2-0.1,0.3,0c0.8,0.7,1.7,1.3,2.7,1.9
		c0.1,0.1,0.1,0.2,0.1,0.3C128.2,304.7,128.1,304.8,128,304.8z M123,300.4c-0.1,0-0.1,0-0.2-0.1c-0.7-0.9-1.3-1.8-1.8-2.8
		c-0.1-0.1,0-0.2,0.1-0.3c0.1-0.1,0.2,0,0.3,0.1c0.5,1,1.1,1.9,1.8,2.7c0.1,0.1,0.1,0.2,0,0.3C123.1,300.4,123.1,300.4,123,300.4z
		 M209,294.7c-0.1,0-0.2-0.1-0.2-0.1c-0.3-1.1-0.6-2.1-1-3.2c0-0.1,0-0.2,0.1-0.3c0.1,0,0.2,0,0.3,0.1c0.4,1,0.7,2.1,1,3.2
		C209.2,294.6,209.1,294.7,209,294.7C209,294.7,209,294.7,209,294.7z M119.9,294.6c-0.1,0-0.2-0.1-0.2-0.1c-0.3-1-0.6-2.1-0.8-3.3
		c0-0.1,0.1-0.2,0.2-0.2c0.1,0,0.2,0.1,0.2,0.2c0.2,1.1,0.4,2.2,0.7,3.2C120.2,294.5,120.1,294.6,119.9,294.6
		C120,294.6,119.9,294.6,119.9,294.6z M206.8,288.4c-0.1,0-0.2-0.1-0.2-0.1c-0.4-1-0.8-2.1-1.3-3.1c-0.1-0.1,0-0.2,0.1-0.3
		c0.1-0.1,0.2,0,0.3,0.1c0.4,1,0.9,2,1.3,3.1C207.1,288.3,207,288.4,206.8,288.4C206.9,288.4,206.9,288.4,206.8,288.4z M118.9,288.1
		c-0.1,0-0.2-0.1-0.2-0.2c0-0.3,0-0.6,0-1c0-0.8,0-1.6,0.1-2.4c0-0.1,0.1-0.2,0.2-0.2c0.1,0,0.2,0.1,0.2,0.2
		c-0.1,0.8-0.1,1.6-0.1,2.4c0,0.3,0,0.6,0,0.9C119.1,288,119,288.1,118.9,288.1z M152.6,286.3c-0.6,0-1.2,0-1.8-0.1
		c-0.1,0-0.2-0.1-0.2-0.2s0.1-0.2,0.2-0.2c1.1,0.1,2.2,0.1,3.3,0c0.1,0,0.2,0.1,0.2,0.2c0,0.1-0.1,0.2-0.2,0.2
		C153.6,286.2,153.1,286.3,152.6,286.3z M157.4,285.5c-0.1,0-0.2-0.1-0.2-0.1c0-0.1,0-0.2,0.1-0.3c1-0.4,2-0.8,3-1.4
		c0.1-0.1,0.2,0,0.3,0.1c0.1,0.1,0,0.2-0.1,0.3C159.5,284.6,158.5,285.1,157.4,285.5C157.4,285.5,157.4,285.5,157.4,285.5z
		 M147.6,285.4C147.5,285.4,147.5,285.4,147.6,285.4c-1.1-0.4-2.2-0.9-3.1-1.5c-0.1-0.1-0.1-0.2-0.1-0.3c0.1-0.1,0.2-0.1,0.3-0.1
		c0.9,0.6,1.9,1.1,2.9,1.5c0.1,0,0.2,0.2,0.1,0.3C147.7,285.3,147.6,285.4,147.6,285.4z M204.1,282.3c-0.1,0-0.1,0-0.2-0.1
		c-0.5-1-1-2-1.6-2.9c-0.1-0.1,0-0.2,0.1-0.3c0.1-0.1,0.2,0,0.3,0.1c0.5,1,1.1,2,1.6,3C204.4,282.1,204.3,282.3,204.1,282.3
		C204.2,282.3,204.2,282.3,204.1,282.3z M162.9,281.9c-0.1,0-0.1,0-0.1-0.1c-0.1-0.1-0.1-0.2,0-0.3c0.8-0.8,1.3-1.8,1.7-2.8
		c0-0.1,0.2-0.2,0.3-0.1c0.1,0,0.2,0.2,0.1,0.3c-0.4,1.1-1,2-1.8,2.9C163,281.9,163,281.9,162.9,281.9z M142,281.8
		c-0.1,0-0.1,0-0.1-0.1c-0.8-0.8-1.5-1.8-2-2.7c-0.1-0.1,0-0.2,0.1-0.3s0.2,0,0.3,0.1c0.5,1,1.1,1.8,1.9,2.7c0.1,0.1,0.1,0.2,0,0.3
		C142.1,281.8,142,281.8,142,281.8z M119.3,281.4C119.3,281.4,119.3,281.4,119.3,281.4c-0.1,0-0.2-0.1-0.2-0.2
		c0.2-1.1,0.4-2.2,0.6-3.3c0-0.1,0.1-0.2,0.3-0.2c0.1,0,0.2,0.1,0.2,0.3c-0.2,1.1-0.4,2.2-0.6,3.3
		C119.5,281.4,119.4,281.4,119.3,281.4z M200.9,276.5c-0.1,0-0.1,0-0.2-0.1c-0.6-0.9-1.2-1.9-1.8-2.8c-0.1-0.1-0.1-0.2,0.1-0.3
		c0.1-0.1,0.2-0.1,0.3,0.1c0.6,0.9,1.3,1.8,1.9,2.8c0.1,0.1,0,0.2-0.1,0.3C200.9,276.5,200.9,276.5,200.9,276.5z M138.9,276
		c-0.1,0-0.2-0.1-0.2-0.2c-0.2-0.8-0.3-1.6-0.3-2.5c0-0.3,0-0.6,0-0.9c0-0.1,0.1-0.2,0.2-0.2s0.2,0.1,0.2,0.2c0,0.3,0,0.6,0,0.9
		c0,0.8,0.1,1.6,0.2,2.4C139.1,275.8,139.1,275.9,138.9,276C138.9,276,138.9,276,138.9,276z M165.1,275.8c-0.1,0-0.2-0.1-0.2-0.2
		c0-1-0.3-2.1-0.6-3.2c0-0.1,0-0.2,0.1-0.3c0.1,0,0.2,0,0.3,0.1c0.4,1.1,0.6,2.3,0.6,3.3C165.3,275.7,165.2,275.8,165.1,275.8z
		 M120.7,274.9C120.7,274.9,120.6,274.9,120.7,274.9c-0.2,0-0.2-0.1-0.2-0.3c0.3-1.1,0.6-2.2,1-3.2c0-0.1,0.2-0.2,0.3-0.1
		c0.1,0,0.2,0.2,0.1,0.3c-0.4,1-0.7,2.1-1,3.2C120.9,274.9,120.8,274.9,120.7,274.9z M197,271.1c-0.1,0-0.1,0-0.2-0.1
		c-0.7-0.9-1.4-1.7-2.2-2.5c-0.1-0.1-0.1-0.2,0-0.3c0.1-0.1,0.2-0.1,0.3,0c0.7,0.8,1.5,1.7,2.2,2.5c0.1,0.1,0.1,0.2,0,0.3
		C197.1,271.1,197,271.1,197,271.1z M163.1,269.5c-0.1,0-0.1,0-0.2-0.1c-0.5-0.9-1.2-1.8-1.9-2.7c-0.1-0.1-0.1-0.2,0-0.3
		c0.1-0.1,0.2-0.1,0.3,0c0.7,0.9,1.4,1.8,1.9,2.8c0.1,0.1,0,0.2-0.1,0.3C163.2,269.5,163.1,269.5,163.1,269.5z M139.4,269.4
		C139.3,269.4,139.3,269.4,139.4,269.4c-0.2-0.1-0.3-0.2-0.2-0.3c0.3-1,0.8-2.1,1.3-3.1c0.1-0.1,0.2-0.1,0.3-0.1
		c0.1,0.1,0.1,0.2,0.1,0.3c-0.5,1-1,2-1.3,3C139.5,269.3,139.4,269.4,139.4,269.4z M122.9,268.6
		C122.9,268.6,122.9,268.6,122.9,268.6c-0.2-0.1-0.2-0.2-0.2-0.3c0.5-1,1-2,1.6-3c0.1-0.1,0.2-0.1,0.3-0.1c0.1,0.1,0.1,0.2,0.1,0.3
		c-0.6,0.9-1.1,1.9-1.6,2.9C123.1,268.6,123,268.6,122.9,268.6z M192.5,266.2c-0.1,0-0.1,0-0.1-0.1c-0.8-0.8-1.6-1.5-2.5-2.2
		c-0.1-0.1-0.1-0.2,0-0.3c0.1-0.1,0.2-0.1,0.3,0c0.8,0.7,1.7,1.5,2.5,2.3c0.1,0.1,0.1,0.2,0,0.3
		C192.6,266.2,192.6,266.2,192.5,266.2z M158.9,264.4c-0.1,0-0.1,0-0.1-0.1c-0.8-0.8-1.6-1.5-2.5-2.2c-0.1-0.1-0.1-0.2,0-0.3
		c0.1-0.1,0.2-0.1,0.3,0c0.9,0.7,1.8,1.4,2.5,2.2c0.1,0.1,0.1,0.2,0,0.3C159,264.3,159,264.4,158.9,264.4z M142.5,263.5
		c0,0-0.1,0-0.1,0c-0.1-0.1-0.1-0.2,0-0.3c0.5-0.6,1-1.2,1.5-1.9c0.2-0.2,0.4-0.5,0.6-0.7c0.1-0.1,0.2-0.1,0.3,0
		c0.1,0.1,0.1,0.2,0,0.3c-0.2,0.2-0.4,0.5-0.6,0.7c-0.5,0.6-1,1.2-1.5,1.8C142.6,263.5,142.5,263.5,142.5,263.5z M126.4,263
		c-0.1,0-0.1,0-0.1-0.1c-0.1-0.1-0.1-0.2,0-0.3c0.7-0.9,1.5-1.7,2.3-2.4c0.1-0.1,0.2-0.1,0.3,0c0.1,0.1,0.1,0.2,0,0.3
		c-0.8,0.7-1.6,1.5-2.3,2.4C126.6,263,126.5,263,126.4,263z M187.4,261.9c0,0-0.1,0-0.1,0c-0.9-0.7-1.8-1.3-2.7-1.9
		c-0.1-0.1-0.1-0.2-0.1-0.3c0.1-0.1,0.2-0.1,0.3-0.1c0.9,0.6,1.9,1.2,2.8,1.9c0.1,0.1,0.1,0.2,0,0.3
		C187.6,261.8,187.5,261.9,187.4,261.9z M153.6,260.3c0,0-0.1,0-0.1,0c-1-0.6-1.9-1.1-2.9-1.6c-0.1-0.1-0.1-0.2-0.1-0.3
		c0.1-0.1,0.2-0.1,0.3-0.1c1,0.5,2,1,3,1.6c0.1,0.1,0.1,0.2,0.1,0.3C153.8,260.3,153.7,260.3,153.6,260.3z M147.1,258.8
		c-0.1,0-0.1,0-0.2-0.1c-0.1-0.1-0.1-0.2,0-0.3c0.9-0.7,1.8-1.3,2.8-1.9c0.1-0.1,0.2,0,0.3,0.1c0.1,0.1,0,0.2-0.1,0.3
		c-1,0.5-1.9,1.2-2.7,1.8C147.2,258.8,147.1,258.8,147.1,258.8z M131.5,258.7c-0.1,0-0.1,0-0.2-0.1c-0.1-0.1,0-0.2,0.1-0.3
		c1-0.6,2-1,3.1-1.4c0.1,0,0.2,0,0.3,0.1c0,0.1,0,0.2-0.1,0.3c-1,0.4-2,0.8-3,1.4C131.5,258.7,131.5,258.7,131.5,258.7z
		 M181.8,258.3C181.8,258.3,181.7,258.3,181.8,258.3c-1.1-0.5-2.1-1-3.1-1.5c-0.1-0.1-0.2-0.2-0.1-0.3c0.1-0.1,0.2-0.2,0.3-0.1
		c1,0.4,2,1,3,1.5c0.1,0.1,0.1,0.2,0.1,0.3C182,258.2,181.9,258.3,181.8,258.3z M147.6,257.5C147.6,257.5,147.6,257.5,147.6,257.5
		c-1.1-0.4-2.2-0.6-3.3-0.8c-0.1,0-0.2-0.1-0.2-0.3c0-0.1,0.1-0.2,0.3-0.2c1.1,0.2,2.2,0.5,3.3,0.8c0.1,0,0.2,0.2,0.1,0.3
		C147.8,257.5,147.7,257.5,147.6,257.5z M137.7,256.5c-0.1,0-0.2-0.1-0.2-0.2c0-0.1,0.1-0.2,0.2-0.2c1.1-0.2,2.2-0.2,3.4-0.2
		c0.1,0,0.2,0.1,0.2,0.2c0,0.1-0.1,0.2-0.2,0.2C139.9,256.3,138.8,256.3,137.7,256.5C137.7,256.5,137.7,256.5,137.7,256.5z
		 M175.7,255.6C175.7,255.6,175.7,255.6,175.7,255.6c-1.1-0.4-2.2-0.7-3.2-1c-0.1,0-0.2-0.1-0.1-0.3c0-0.1,0.1-0.2,0.3-0.1
		c1.1,0.3,2.2,0.6,3.2,1c0.1,0,0.2,0.2,0.1,0.3C175.9,255.5,175.8,255.6,175.7,255.6z M152.9,255.5c-0.1,0-0.2-0.1-0.2-0.1
		c0-0.1,0-0.2,0.1-0.3c1-0.4,2.1-0.8,3.2-1.1c0.1,0,0.2,0,0.3,0.1c0,0.1,0,0.2-0.1,0.3C155,254.7,154,255.1,152.9,255.5
		C152.9,255.5,152.9,255.5,152.9,255.5z M169.3,253.9C169.3,253.9,169.3,253.9,169.3,253.9c-1.1-0.2-2.2-0.3-3.3-0.4
		c-0.1,0-0.2-0.1-0.2-0.2c0-0.1,0.1-0.2,0.2-0.2c1.1,0.1,2.2,0.2,3.3,0.4c0.1,0,0.2,0.1,0.2,0.2
		C169.5,253.9,169.4,253.9,169.3,253.9z M159.3,253.8c-0.1,0-0.2-0.1-0.2-0.2c0-0.1,0.1-0.2,0.2-0.2c1.1-0.2,2.2-0.3,3.3-0.3
		c0.1,0,0.2,0.1,0.2,0.2c0,0.1-0.1,0.2-0.2,0.2C161.5,253.5,160.4,253.6,159.3,253.8C159.3,253.8,159.3,253.8,159.3,253.8z"/>
	<path class="st8" d="M126.3,279.2h-9.2c-0.5,0-0.9-0.4-0.9-0.9V273c0-0.5,0.4-0.9,0.9-0.9h9.2c0.5,0,0.9,0.4,0.9,0.9v5.4
		C127.2,278.8,126.8,279.2,126.3,279.2z"/>
	<path class="st8" d="M127.1,278.7l-5.4-3.3l-5.4,3.3c0.1,0.3,0.5,0.6,0.8,0.6h9.2C126.6,279.2,127,279,127.1,278.7z"/>
	<path class="st8" d="M116.3,272.6l5.4,3.7l5.4-3.7c-0.1-0.3-0.5-0.6-0.8-0.6h-9.2C116.7,272.1,116.4,272.3,116.3,272.6z"/>
	<path class="st9" d="M121.7,276.4l-5.5-3.7l0.1-0.1l5.4,3.7l5.4-3.6l0.1,0.1L121.7,276.4z"/>
	<path class="st8" d="M301.5,298.1h-9.2c-0.5,0-0.9-0.4-0.9-0.9v-5.4c0-0.5,0.4-0.9,0.9-0.9h9.2c0.5,0,0.9,0.4,0.9,0.9v5.4
		C302.4,297.7,302,298.1,301.5,298.1z"/>
	<path class="st8" d="M302.3,297.6l-5.4-3.3l-5.4,3.3c0.1,0.3,0.5,0.6,0.8,0.6h9.2C301.9,298.1,302.2,297.9,302.3,297.6z"/>
	<path class="st8" d="M291.5,291.5l5.4,3.7l5.4-3.7c-0.1-0.3-0.5-0.6-0.8-0.6h-9.2C292,290.9,291.7,291.2,291.5,291.5z"/>
	<path class="st8" d="M296.9,295.3l-5.5-3.7l0.1-0.1l5.4,3.6l5.4-3.6l0.1,0.1L296.9,295.3z"/>
	<path class="st8" d="M338.9,419.7h-9.2c-0.5,0-0.9-0.4-0.9-0.9v-5.4c0-0.5,0.4-0.9,0.9-0.9h9.2c0.5,0,0.9,0.4,0.9,0.9v5.4
		C339.8,419.3,339.4,419.7,338.9,419.7z"/>
	<path class="st8" d="M339.7,419.1l-5.4-3.3l-5.4,3.3c0.1,0.3,0.5,0.6,0.8,0.6h9.2C339.2,419.7,339.6,419.4,339.7,419.1z"/>
	<path class="st8" d="M328.9,413l5.4,3.7l5.4-3.7c-0.1-0.3-0.5-0.6-0.8-0.6h-9.2C329.3,412.5,329,412.7,328.9,413z"/>
	<path class="st8" d="M334.3,416.8l-5.5-3.7l0.1-0.1l5.4,3.7l5.4-3.7l0.1,0.1L334.3,416.8z"/>
	<path class="st8" d="M141.5,356.5h-9.2c-0.5,0-0.9-0.4-0.9-0.9v-5.4c0-0.5,0.4-0.9,0.9-0.9h9.2c0.5,0,0.9,0.4,0.9,0.9v5.4
		C142.4,356.1,142,356.5,141.5,356.5z"/>
	<path class="st8" d="M142.3,356l-5.4-3.3l-5.4,3.3c0.1,0.3,0.5,0.6,0.8,0.6h9.2C141.9,356.5,142.2,356.3,142.3,356z"/>
	<path class="st8" d="M131.5,349.9l5.4,3.7l5.4-3.7c-0.1-0.3-0.5-0.6-0.8-0.6h-9.2C132,349.4,131.7,349.6,131.5,349.9z"/>
	<path class="st9" d="M137,353.7l-5.5-3.7l0.1-0.1l5.4,3.7l5.4-3.6l0.1,0.1L137,353.7z"/>
</g>
</svg>
