<?xml version="1.0" encoding="utf-8"?>
<!-- Generator: Adobe Illustrator 25.2.1, SVG Export Plug-In . SVG Version: 6.00 Build 0)  -->
<svg version="1.1" id="Layer_1" xmlns="http://www.w3.org/2000/svg" xmlns:xlink="http://www.w3.org/1999/xlink" x="0px" y="0px"
	 width="1356.4px" height="296.2px" viewBox="0 0 1356.4 296.2" style="enable-background:new 0 0 1356.4 296.2;"
	 xml:space="preserve">
<style type="text/css">
	.st0{fill:none;stroke:#0D51D9;stroke-width:3;}
	.st1{fill:none;stroke:#407BFF;stroke-dasharray:2,2;}
	.st2{fill:none;stroke:#0D51D9;stroke-dasharray:2,2;}
	.st3{fill:#EE6F57;}
	.st4{fill:#E5ECFF;}
	.st5{fill:none;stroke:#FBC343;stroke-width:3.8197;stroke-miterlimit:10;}
	.st6{fill:none;stroke:#FBC343;stroke-width:3.75;stroke-miterlimit:10;}
	.st7{fill:#F8F4ED;}
	.st8{fill:#FFFFFF;}
	.st9{fill:#E28B6D;}
	.st10{fill:#0D51D9;}
	.st11{opacity:0.8;fill:#FFFFFF;enable-background:new    ;}
	.st12{fill:#1F3C88;}
	.st13{fill:#6F3428;}
	.st14{fill:#708CD5;}
	.st15{opacity:0.3;fill:#1F3C88;enable-background:new    ;}
	.st16{fill:#F9B384;}
	.st17{fill:none;stroke:#0D51D9;stroke-width:5;stroke-miterlimit:10;}
	.st18{fill:#3C1C16;}
	.st19{opacity:0.15;fill:#3C1C16;enable-background:new    ;}
	.st20{opacity:0.5;fill:#FC8879;enable-background:new    ;}
	.st21{fill:#FFFFFF;stroke:#1F3C88;stroke-width:3.75;stroke-miterlimit:10;}
	.st22{fill:#8CBFBE;}
	.st23{fill:#C6EAE9;}
	.st24{fill:#FFFFFF;stroke:#708CD5;stroke-miterlimit:10;}
	.st25{fill:none;stroke:#0D51D9;}
	.st26{fill:#FBC343;}
	.st27{opacity:0.8;}
	.st28{opacity:0.3;}
	.st29{opacity:0.3;fill:#91B3FA;enable-background:new    ;}
	.st30{fill:#91B3FA;}
	.st31{fill:#BDD0FB;}
	.st32{fill:url(#SVGID_1_);}
	.st33{opacity:0.6;}
	.st34{opacity:0.6;fill:#FFFFFF;enable-background:new    ;}
	.st35{fill:url(#SVGID_2_);}
	.st36{fill:url(#SVGID_3_);}
	.st37{fill:url(#SVGID_4_);}
	.st38{fill:url(#SVGID_5_);}
	.st39{fill:url(#SVGID_6_);}
	.st40{fill:url(#SVGID_7_);}
	.st41{fill:url(#SVGID_8_);}
	.st42{fill:url(#SVGID_9_);}
	.st43{fill:url(#SVGID_10_);}
	.st44{fill:url(#SVGID_11_);}
	.st45{fill:url(#SVGID_12_);}
	.st46{fill:url(#SVGID_13_);}
	.st47{fill:url(#SVGID_14_);}
	.st48{fill:url(#SVGID_15_);}
	.st49{fill:url(#SVGID_16_);}
	.st50{fill:url(#SVGID_17_);}
	.st51{fill:url(#SVGID_18_);}
	.st52{fill:url(#SVGID_19_);}
	.st53{fill:url(#SVGID_20_);}
	.st54{fill:url(#SVGID_21_);}
	.st55{fill:url(#SVGID_22_);}
	.st56{fill:url(#SVGID_23_);}
	.st57{fill:url(#SVGID_24_);}
	.st58{fill:url(#SVGID_25_);}
	.st59{fill:url(#SVGID_26_);}
	.st60{fill:#407BFF;}
	.st61{fill:#D7E4FF;}
</style>
<circle class="st0" cx="31.9" cy="105.1" r="7.9"/>
<line class="st1" x1="98.1" y1="51.6" x2="296.1" y2="51.6"/>
<line class="st1" x1="295.1" y1="190.6" x2="957.1" y2="190.6"/>
<line class="st1" x1="295.6" y1="51.1" x2="295.6" y2="191.1"/>
<line class="st1" x1="1105.1" y1="190.6" x2="959.1" y2="190.6"/>
<line class="st2" x1="1104.6" y1="260.1" x2="1104.6" y2="190.1"/>
<path class="st3" d="M1334.6,257.4C1334.6,257.4,1334.6,257.4,1334.6,257.4l0.1-4h-20.5l1,17.1c0.2,3.2,2.8,5.7,6,5.7h6.4
	c3.2,0,5.9-2.5,6.1-5.7l0.2-3.9c0.2,0,0.4,0,0.6,0c3,0,5.4-2.1,5.4-4.6C1340.1,259.5,1337.6,257.4,1334.6,257.4z M1334.6,264.7
	c-0.2,0-0.3,0-0.5,0l0.3-5.3c0.1,0,0.1,0,0.2,0c1.9,0,3.5,1.2,3.5,2.7C1338.2,263.5,1336.6,264.7,1334.6,264.7z"/>
<path class="st4" d="M1326.6,251.8c-2-0.3-3.9-1.4-5.2-3.1c-0.7-0.8-1.2-1.8-1.5-2.8c-0.1-0.3-0.1-0.5-0.2-0.8
	c0-0.3-0.1-0.5-0.1-0.8c0-0.5,0-1.1,0-1.6c0.1-1.1,0.4-2.1,0.9-3.1c0.2-0.5,0.5-0.9,0.9-1.4c0.3-0.4,0.7-0.8,1.1-1.2
	c0.4-0.3,0.7-0.6,1-0.9c0.1-0.1,0.3-0.3,0.4-0.4c0.1-0.1,0.2-0.3,0.3-0.4c0.2-0.3,0.3-0.6,0.3-1c0-0.3-0.1-0.6-0.3-0.9l0.5-0.8
	c0.3,0.1,0.5,0.4,0.7,0.6c0.2,0.3,0.3,0.6,0.4,0.9c0.1,0.6,0.1,1.2-0.1,1.8c-0.4,1.2-1.2,1.9-1.8,2.6c-0.3,0.3-0.5,0.6-0.7,1
	c-0.1,0.2-0.2,0.3-0.3,0.5c-0.1,0.2-0.2,0.4-0.3,0.5c-0.3,0.7-0.5,1.5-0.6,2.3c-0.2,1.6,0.2,3.2,1,4.7c0.9,1.4,2.2,2.6,3.8,3.4
	L1326.6,251.8z"/>
<path class="st4" d="M1327.2,247c0.8-0.7,1.5-1.5,2-2.4c0.5-0.9,0.9-1.8,1-2.7c0.2-0.9,0.1-1.9-0.1-2.9c-0.2-1-0.5-1.9-1-2.9
	l0.7-0.6c1.1,0.7,1.9,1.8,2.3,3c0.5,1.2,0.6,2.6,0.4,3.9c-0.2,1.3-0.9,2.5-1.7,3.5s-2,1.7-3.2,2L1327.2,247z"/>
<path class="st5" d="M1165.3,280.3c-26.2-5.1-44.7-20.3-53.3-44c-13.7-37.6,1-93.1,40.1-105.2c15.5-4.8,34.6,3.8,50.5,3.7
	c22.4-0.2,42.5-13.9,64.8-12.1c28.9,2.3,50.1,28.9,55.5,56c1.9,9.3,2.1,18.9,0.6,28.2c-1.6,10.2-4.9,20.1-9.9,28.9
	c-4.3,7.6-14.3,17.6-22.8,19.6L1165.3,280.3z"/>
<path class="st6" d="M1235.4,276.1c25.9-6.4,45.7-25.7,52.5-47.8c10.8-35.1-8-84.6-48.2-93c-8.2-1.7-16.8-1.3-25.1-0.3
	c-13.5,1.6-27.4,3.5-41.1,3.1c-13.3-0.4-26.1-4.3-39.5-4c-44.2,1-70.6,43.2-60.5,81.8c2.4,9.1,6.5,18,12.2,25.6
	c4.9,6.6,15.7,15.1,24.3,16.3C1110.1,257.8,1235.4,276.1,1235.4,276.1z"/>
<path class="st7" d="M1300.4,233.9c-7,20.1-15.2,39.9-44.1,47.6l-124.7-1.3c-28.1-13.3-43.5-39.5-46-67.7
	c-0.8-9.3-0.3-18.9,1.7-28.3c0.5-2.5,1.1-4.9,1.8-7.4c6.4-22.2,20.1-43.1,40.3-54.9c13-7.6,29.7-5.1,43.6-1.2
	c12.5,3.5,24.7,8.4,37.5,9.9c10.3,1.2,20.7,0.1,31,0.5c3.7,0.1,7.3,0.5,11,1.2c15.5,2.9,29.3,12.5,38.8,25.2c3.2,4.4,6,9.1,8.1,14.1
	C1307.8,191.2,1307.3,213.9,1300.4,233.9z"/>
<path class="st8" d="M1063.2,264.4c-0.6-6.9,3.3-14.3,10.1-19.4c6.2-4.6,13.8-7,21.2-8.8c40.7-10.3,83.7-9.1,125.2-7.9
	c37.2,1.1,75.6,2.2,112.3-5c5.2-1,10.8-2.2,15.4-5.1c5-3.1,8.2-8,8.3-12.8c0.2-8.9-9.5-15-15.2-17.9c-21.9-10.8-48.9-14.9-84.8-12.8
	c-27.1,1.6-54.2,5.9-80.7,13c-5.9,1.6-12,3.3-17.8,5c-20.9,6-42.6,12.3-64.6,12.3c-0.1,0-0.2,0-0.3,0c-6,0-13.7-1.2-16.3-6.9
	c-1.8-4-0.3-8.6,1.3-11.7c5.5-10.4,15.8-16.5,23.5-19.8c8.6-3.7,18-5.7,27.1-7.6c1.1-0.2,2.2-0.5,3.2-0.7
	c20.3-4.4,40.6-9.8,60.2-16.2c9.3-3,14.2-7,14.7-12.1c0.5-4.5-2.9-8.5-6.3-10.4c-4.2-2.3-9.1-2.6-13-2.6c0,0,0,0,0,0
	c-11.6,0-23.1,2.8-33.2,8.2c-3.8,2-7.4,4.4-11,6.7c-4.7,3-9.5,6.2-14.7,8.5c-10.1,4.5-22,6.1-35.4,4.9c-10.4-0.9-18.3-3.5-24.2-7.8
	c-3.5-2.6-6.5-5.9-9.4-9.2c-3.5-3.9-7.1-8-11.7-10.6l0.3-0.5c4.7,2.7,8.3,6.8,11.9,10.7c2.8,3.2,5.8,6.5,9.3,9.1
	c5.8,4.2,13.6,6.7,23.8,7.7c13.3,1.2,25.1-0.4,35.1-4.9c5.1-2.3,10-5.4,14.6-8.5c3.5-2.3,7.2-4.7,11-6.7c10.3-5.4,21.8-8.3,33.5-8.3
	c0,0,0,0,0,0c3.9,0,9,0.3,13.3,2.7c3.7,2,7.1,6.2,6.7,11c-0.5,5.4-5.5,9.5-15.1,12.6c-19.7,6.4-40,11.9-60.3,16.3
	c-1.1,0.2-2.2,0.5-3.2,0.7c-9.1,1.9-18.4,3.9-27,7.6c-7.6,3.2-17.8,9.2-23.1,19.5c-1.6,3-3.1,7.4-1.3,11.2c2.5,5.4,9.9,6.5,15.8,6.6
	c0.1,0,0.2,0,0.3,0c22,0,43.5-6.2,64.4-12.3c5.8-1.7,11.9-3.4,17.8-5c26.5-7,53.7-11.4,80.8-13c36.1-2.1,63.1,2,85.1,12.9
	c5.9,2.9,15.8,9.2,15.6,18.4c-0.1,5-3.4,10-8.6,13.3c-4.8,3-10.3,4.2-15.6,5.2c-36.8,7.1-75.3,6-112.5,5
	c-41.5-1.2-84.5-2.4-125.1,7.9c-7.3,1.8-14.8,4.2-20.9,8.7c-6.6,5-10.4,12.2-9.8,18.9L1063.2,264.4z"/>
<path class="st9" d="M1243.1,264.6c8.4,2.2,20,4.1,16.3,11.3l-21,0L1243.1,264.6z"/>
<path class="st10" d="M1156.1,281.5h-20.3c-6.9,0-12.5-5.6-12.5-12.5v-41.4c0-6.9,5.6-12.5,12.5-12.5h20.3c6.9,0,12.5,5.6,12.5,12.5
	V269C1168.6,275.9,1163,281.5,1156.1,281.5z"/>
<path class="st11" d="M1133.3,221.2c-0.8,0.2-1.3,0.9-1.6,1.6c-0.3,0.7-0.6,1.5-0.7,2.3c-0.3,1.6-0.5,3.2-0.6,4.9
	c-0.2,3.3-0.1,6.6,0.1,9.9c0.2,3.3,0.5,6.6,0.9,9.8c0.2,1.6,0.4,3.3,0.7,4.9s0.5,3.3,0.8,4.9l-0.2,0c-0.4-1.6-0.7-3.2-1-4.9
	c-0.3-1.6-0.5-3.3-0.8-4.9c-0.4-3.3-0.8-6.6-1-9.9c-0.2-3.3-0.2-6.6,0-9.9c0.1-1.7,0.3-3.3,0.7-4.9c0.2-0.8,0.5-1.6,0.9-2.4
	c0.2-0.4,0.4-0.7,0.7-1c0.3-0.3,0.7-0.6,1.1-0.6L1133.3,221.2z"/>
<path class="st12" d="M1141.1,225.5c0,0,1.3,26,9.4,54.7h22.1L1141.1,225.5z"/>
<path class="st13" d="M1151.2,212.2c-5.5-3-7.1-10.5-3-15.3c0.4-0.5,0.8-0.9,1.3-1.4c6.2-6.2,2.3-12.3,1.5-26.5
	c-0.8-14.2,14.9-18,15-18.1c0.7-0.2,2.2-2.3,2.8-2.8c7.1-6.2,17.3-5.7,25.2-1c3.7,2.2,7.5,5.7,9.5,9.6c3.2,6.3,3.8,14.5,9.1,19.4
	c7.7,7,16.2,12.9,15.8,24.1c-0.1,4-1.1,8.2-3.5,11.4c-2.1,2.8-5.3,4.7-8.3,6.5c-4.7,2.9-9.7,5.5-15,7.3c-5.1,1.7-10.3,3.2-15.5,4.6
	c-0.5,0.1-1,0.3-1.5,0.4L1151.2,212.2z"/>
<path class="st14" d="M1187.3,206.1c18.6-6.4,28.6,14.4,42.5,54.9l13.3,3.6l-1.6,14.4l-4.9,1l-39.7,0.2L1187.3,206.1z"/>
<path class="st4" d="M1345.3,275.4h-282v9.7h282V275.4z"/>
<path class="st14" d="M1161.2,203.1l41.5,10.4l17.4,52.2l-58.2,1.8l-3.9-38.6L1161.2,203.1z"/>
<path class="st15" d="M1162.7,225.5c10.2,10.3,7.9,25.3,16.6,26.8c5.8,1,22.1,3.3,30,6.6c1.6,0.7,5.9,3.9,5.3,6.8
	c-0.4,1.8-6.2,0.4-6.2,0.4l-43.5-4.4l-9.2-21.3L1162.7,225.5z"/>
<path class="st10" d="M1198.5,263.1c0.3-0.5,6.5-1.7,7.2-1.6c2.3,0.3,3.6,2.1,4.1,3.5l-9.2,4.9L1198.5,263.1z"/>
<path class="st10" d="M1205.4,225.5l1.1,2.4c0.3,0.8,0.7,1.6,1,2.5c0.7,1.6,1.3,3.3,1.9,5c1.2,3.4,2.3,6.7,3.3,10.2
	c1,3.4,1.9,6.9,2.7,10.3c0.4,1.7,0.8,3.5,1.1,5.2c0.3,1.8,0.6,3.5,0.8,5.3l-0.2,0c-0.3-1.7-0.6-3.5-1-5.2c-0.4-1.7-0.8-3.5-1.2-5.2
	c-0.8-3.5-1.7-6.9-2.7-10.3c-1-3.4-2-6.8-3.2-10.2c-0.6-1.7-1.2-3.4-1.8-5c-0.3-0.8-0.6-1.7-0.9-2.5l-1-2.5L1205.4,225.5z"/>
<path class="st16" d="M1238.5,271.9c0,0-1.8,2.1-7.2,0c-2.6,0.3-7.4,0.1-16.6-1.4c0,0,3.3,2.3,10.9,2.7c0,0-0.3,2.2-4.3,2.1
	c-4.8-0.1-5.3-0.4-9.7-0.2c-0.9,0-2.8,0-4.9-0.1c-3.7-0.1-7.8-0.3-7.8-0.3l-3.6-6.5l7.2-3.5c2.2-0.9,3.3-1.2,4.4-1.3
	c4.7-0.7,7.6-1.2,11-0.6C1221.5,263.6,1232.9,267.3,1238.5,271.9z"/>
<path class="st9" d="M1206.8,275l-0.2,0.1c-3.7-0.1-7.8-0.3-7.8-0.3l-3.6-6.5l7.2-3.5c2.2-0.9,3.3-1.2,4.4-1.3
	C1204.2,264.6,1202,267.5,1206.8,275z"/>
<path class="st14" d="M1178.3,206c-9.4-1.9-32.4-3.5-38.8,8.4c-5.3,9.8,7.9,42.6,13.7,54.1c2.4,4.8,9.2,7.1,11.9,7.1l37.9-0.2
	c-2.5-0.6-5.8-14.3,2.8-13.9l-31.4-4.4c-1.2-0.2-2.3-0.9-3-1.9c-0.4-0.7-1-1.6-1.3-2.5l-8.9-32.6L1178.3,206z"/>
<path class="st8" d="M1262.1,275.6l-36.9,0v-3.5h37.2L1262.1,275.6z"/>
<path class="st10" d="M1293.3,275.6l-44.6,0l16.3-47.5h44.6L1293.3,275.6z"/>
<path class="st8" d="M1282.8,254.4c-1.4,2.2-3.9,3.1-5.9,2.1c-0.1,0-0.2-0.1-0.3-0.2c-2-1.2-2.4-4.1-1-6.4c1.5-2.3,4.2-3.2,6.2-1.9
	c0.6,0.4,1.1,0.9,1.4,1.5C1283.9,250.9,1283.8,252.8,1282.8,254.4z"/>
<path class="st14" d="M1282.8,254.4c-1.4,2.2-4.7,3.8-7.1,1.2c5.1,0.5,6.8-2.9,6.7-7.1C1284.2,250.4,1283.8,252.8,1282.8,254.4z"/>
<path class="st13" d="M1217.8,262.8c1.9,0.3,3.7,0.8,5.6,1.4c1.8,0.6,3.6,1.2,5.4,2c1.8,0.7,3.5,1.6,5.2,2.5c1.7,0.9,3.3,2,4.7,3.3
	l-0.2,0.2c-0.8-0.6-1.5-1.1-2.3-1.6c-0.8-0.5-1.6-1-2.5-1.4c-1.7-0.9-3.4-1.7-5.1-2.4c-1.7-0.8-3.5-1.4-5.3-2
	c-0.9-0.3-1.8-0.6-2.7-0.9c-0.9-0.3-1.8-0.5-2.7-0.7L1217.8,262.8z"/>
<path class="st13" d="M1217.1,271.6l2,0.6c0.7,0.2,1.3,0.3,2,0.5c0.7,0.1,1.3,0.2,2,0.3c0.7,0.1,1.4,0.2,2,0.2l0.2,0l0,0.2
	c0,0.3,0,0.5-0.1,0.7c-0.1,0.2-0.2,0.5-0.4,0.6c-0.2,0.2-0.4,0.3-0.7,0.3c-0.1,0-0.2,0-0.3,0l-0.3,0v-0.2l0.3,0c0.1,0,0.2,0,0.3-0.1
	c0.2-0.1,0.3-0.2,0.5-0.3c0.1-0.1,0.2-0.3,0.2-0.4s0-0.4,0-0.5l0.2,0.2c-1.4,0-2.8-0.2-4.2-0.5c-0.7-0.2-1.3-0.4-2-0.6
	s-1.3-0.5-1.9-0.8L1217.1,271.6z"/>
<path class="st13" d="M1215.4,266.8c1.6,0.2,3.2,0.4,4.8,0.5c1.6,0.2,3.2,0.3,4.8,0.6c1.6,0.3,3.2,0.5,4.8,0.8
	c1.6,0.3,3.2,0.6,4.8,0.9l0.4,0.1l-0.2,0.3c-0.1,0.2-0.2,0.6-0.4,0.9c-0.1,0.1-0.2,0.3-0.3,0.4c-0.1,0.1-0.3,0.2-0.4,0.3
	c-0.6,0.3-1.2,0.5-1.8,0.6c-1.2,0.2-2.5,0.2-3.7,0.1c-0.6,0-1.2,0-1.8-0.1c-0.6,0-1.2-0.1-1.8-0.2c-1.2-0.1-2.4-0.3-3.6-0.5l0-0.2
	c1.2,0.1,2.4,0.2,3.6,0.3c0.6,0,1.2,0.1,1.8,0.1c0.6,0,1.2,0,1.8,0c1.2,0,2.4,0,3.6-0.2c0.6-0.1,1.1-0.2,1.6-0.5
	c0.1-0.1,0.2-0.1,0.3-0.2c0.1-0.1,0.2-0.2,0.2-0.3c0.2-0.2,0.2-0.5,0.4-0.8l0.2,0.4c-3.2-0.6-6.4-1.2-9.5-1.8
	c-1.6-0.3-3.2-0.5-4.8-0.7c-1.6-0.2-3.2-0.4-4.8-0.7L1215.4,266.8z"/>
<path class="st17" d="M1063.3,275.4h282"/>
<path class="st10" d="M1173.7,218.4c1.4,0.9,2.9,1.6,4.5,2c1.6,0.4,3.2,0.5,4.8,0.2c1.6-0.2,3.2-0.9,4.4-1.8c1.3-1,2.4-2.3,3.1-3.8
	l0.2,0.1c-0.2,0.4-0.3,0.8-0.5,1.2c-0.2,0.4-0.4,0.7-0.7,1.1c-0.2,0.3-0.5,0.7-0.8,1c-0.3,0.3-0.6,0.6-1,0.9c-1.4,1.1-3,1.7-4.7,2
	c-1.7,0.3-3.4,0.2-5.1-0.3c-1.7-0.4-3.2-1.2-4.5-2.3L1173.7,218.4z"/>
<path class="st10" d="M1162.8,225.5l2.1,7l2,7l2,7l1,3.5l0.5,1.8c0.2,0.6,0.3,1.2,0.5,1.7c0.5,1.1,1.4,1.8,2.4,2.4
	c1.1,0.5,2.2,0.9,3.4,1.1c1.2,0.2,2.4,0.4,3.6,0.6l3.6,0.5l7.3,1l7.2,1l0,0.2l-7.3-0.9l-7.3-0.9l-3.6-0.5c-1.2-0.1-2.4-0.3-3.6-0.6
	c-1.2-0.3-2.4-0.6-3.6-1.2c-1.1-0.6-2.2-1.5-2.7-2.7c-0.1-0.1-0.1-0.3-0.2-0.4c-0.1-0.1-0.1-0.3-0.1-0.4l-0.2-0.9l-0.5-1.8l-1-3.5
	l-2-7.1l-1.9-7.1l-1.9-7.1L1162.8,225.5z"/>
<path class="st16" d="M1186.3,191.3l1.9,16c0.5,4.8-4.5,8.7-9.5,7.4c-2.9-0.8-5.9-2.8-9.1-5.8c-0.6-0.6-1-1.4-1.1-2.3l-2-19.3
	L1186.3,191.3z"/>
<path class="st18" d="M1186.6,193.5l1,8.7c-4.1,0.6-9.9-1.7-15.8-9.5L1186.6,193.5z"/>
<path class="st16" d="M1196.7,179.8c-0.2,2.9-0.7,5.9-1.5,8.6c-1.4,4.6-3.8,8.3-7.9,8.9c-12.1,2-20.9-10-20.9-10l-1.4-16.4l7.3-12.6
	l16.3-0.5l8,9.4C1196.7,167.3,1197.3,173.2,1196.7,179.8z"/>
<path class="st13" d="M1164.7,177.2c6.5-0.5,8-6,8.4-13.1c0,0,17.6-4.4,23.8,8.2l4.7,0.5l-14.3-19l-22.3,2.7l-4.4,14.5L1164.7,177.2
	z"/>
<path class="st16" d="M1168.1,175.1c-0.8-0.8-1.9-1.3-3-1.1c-4.3,0.5-5.1,6.2-4.1,8.7c1.5,3.6,5.5,4.7,5.5,4.7l3.4-3.6
	C1170.2,180,1169.8,176.9,1168.1,175.1z"/>
<path class="st19" d="M1168.2,191.8c2.4,6.7,9.7,25.8-2.2,25.3c-5.7-0.2-10.8-11.4-19-9.3c0.9-0.4,1.9-0.8,3.1-1.2L1168.2,191.8z"/>
<path class="st13" d="M1166.5,187.4c2.3,4.4,8.7,25.9-2.2,24.7c-5.3-0.6-6.6-6.9-14.2-5.5L1166.5,187.4z"/>
<path class="st18" d="M1166.8,179.1c0-0.5-0.2-1-0.4-1.4c-0.2-0.4-0.6-0.7-1-0.9c-0.4-0.2-0.8-0.2-1.3-0.1c-0.4,0.1-0.8,0.5-1.1,0.9
	l-0.3-0.2c0.2-0.5,0.6-1,1.1-1.3c0.1-0.1,0.3-0.1,0.4-0.2c0.2,0,0.3-0.1,0.5-0.1h0.2l0.2,0.1c0.2,0,0.3,0.1,0.4,0.1
	c0.6,0.3,1,0.7,1.3,1.3c0.3,0.5,0.3,1.2,0.1,1.7L1166.8,179.1z"/>
<path class="st18" d="M1190,176.6c0,1.1,0.7,2,1.4,2c0.8,0,1.3-1,1.3-2.1c0-1.1-0.7-2-1.5-2C1190.5,174.6,1190,175.5,1190,176.6z"/>
<path class="st18" d="M1178,177c0,1.1,0.7,2,1.4,2c0.8,0,1.3-1,1.3-2.1c0-1.1-0.7-2-1.5-2S1178,175.9,1178,177z"/>
<path class="st18" d="M1189.8,187.9c-0.5,0.7-1.2,1.3-2,1.7c-0.8,0.4-1.8,0.4-2.7,0.2c-0.9-0.2-1.6-0.7-2.3-1.3
	c-0.7-0.5-1.2-1.1-1.8-1.8l0.2-0.3c0.7,0.5,1.3,1,2,1.4c0.7,0.4,1.4,0.8,2.1,1c0.7,0.2,1.4,0.2,2.2,0c0.7-0.3,1.4-0.7,2-1.2
	L1189.8,187.9z"/>
<path class="st18" d="M1194,173.2c-0.5-0.4-1-0.7-1.5-0.9c-0.5-0.2-1-0.3-1.5-0.3c-0.5,0-1,0.2-1.6,0.5c-0.5,0.2-1.1,0.5-1.7,0.8
	l-0.2-0.2c0.3-0.6,0.8-1.1,1.3-1.5c0.6-0.4,1.2-0.7,2-0.8c0.8-0.1,1.6,0.2,2.1,0.6c0.6,0.4,1,1,1.2,1.6L1194,173.2z"/>
<path class="st18" d="M1182,173.6c-0.6-0.4-1.1-0.7-1.7-0.9c-0.6-0.2-1.2-0.2-1.8-0.2c-0.6,0.1-1.2,0.2-1.8,0.5
	c-0.6,0.2-1.2,0.6-1.8,0.9l-0.2-0.2c0.4-0.6,0.9-1.2,1.5-1.6c0.6-0.4,1.4-0.7,2.2-0.8c0.8-0.1,1.6,0.1,2.3,0.5
	c0.7,0.4,1.2,1,1.5,1.7L1182,173.6z"/>
<path class="st20" d="M1170.4,184.7c0.1,2.4,2.1,4.3,4.6,4.2c2.4-0.1,4.3-2.1,4.2-4.6s-2.1-4.3-4.6-4.2
	C1172.2,180.3,1170.3,182.3,1170.4,184.7z"/>
<path class="st20" d="M1196.7,179.8c-0.2,2.9-0.7,5.9-1.5,8.6c-1.8-0.5-3.2-2.1-3.3-4.1c-0.1-2.4,1.8-4.5,4.2-4.6
	C1196.3,179.8,1196.5,179.8,1196.7,179.8z"/>
<path class="st20" d="M1185,175.7c0-0.2,0.3-0.2,0.4,0c1,3.2,4.2,5.5,3.7,6.5c-0.4,0.7-1.7,1.4-2.7,1.9c-0.5,0.2-1.1,0-1.2-0.6
	C1184.7,181.1,1184.8,178.5,1185,175.7z"/>
<path class="st18" d="M1185.7,175.4c0.2,0.9,0.6,1.8,1.2,2.6c0.5,0.8,1.1,1.6,1.8,2.3c0.2,0.2,0.3,0.4,0.5,0.6
	c0.2,0.2,0.3,0.4,0.4,0.8c0,0.1,0.1,0.3,0.1,0.6c-0.1,0.3-0.2,0.4-0.3,0.5c-0.2,0.2-0.4,0.4-0.6,0.5c-0.9,0.6-1.8,1-2.8,1.3
	l-0.1-0.3c0.4-0.2,0.9-0.5,1.3-0.8c0.4-0.3,0.8-0.5,1.2-0.8c0.2-0.1,0.3-0.3,0.5-0.4c0.1-0.1,0.1-0.2,0.1-0.1c0,0,0,0,0-0.1
	c-0.1-0.3-0.5-0.7-0.7-1.1c-0.6-0.8-1.2-1.6-1.7-2.5c-0.5-0.9-0.8-1.9-0.9-3L1185.7,175.4z"/>
<path class="st18" d="M1162.6,188.6c-0.3,0.6-0.4,1.3-0.3,2c0.1,0.7,0.2,1.3,0.5,2c0.5,1.3,1.2,2.5,1.9,3.7c0.6,1.3,1.2,2.6,1.4,4
	c0.1,0.7,0.2,1.5,0.1,2.2c0,0.4-0.1,0.7-0.2,1.1c-0.1,0.4-0.2,0.7-0.4,1.1c-0.3,0.7-0.9,1.3-1.5,1.7c-0.7,0.4-1.5,0.6-2.2,0.5
	c-0.8-0.1-1.4-0.4-2.1-0.6c-0.7-0.3-1.3-0.6-1.9-0.8c-1.3-0.6-2.6-1.1-3.9-1.4c-0.7-0.1-1.3-0.2-2,0c-0.3,0.1-0.6,0.2-0.9,0.4
	c-0.3,0.2-0.5,0.4-0.7,0.7l-0.3-0.1c0.2-0.3,0.4-0.6,0.7-0.9c0.3-0.2,0.6-0.4,1-0.5c0.7-0.2,1.5-0.2,2.2-0.1
	c1.4,0.2,2.8,0.7,4.1,1.3l1.9,0.8c0.6,0.2,1.3,0.5,1.9,0.6c0.6,0,1.2-0.1,1.8-0.4c0.5-0.3,0.9-0.8,1.2-1.4c0.2-0.3,0.3-0.6,0.3-0.9
	c0.1-0.3,0.1-0.6,0.2-1c0.1-0.7,0-1.3-0.1-2c-0.2-1.3-0.7-2.6-1.3-3.9c-0.6-1.3-1.3-2.5-1.8-3.8c-0.2-0.7-0.4-1.4-0.4-2.1
	c0-0.7,0.1-1.5,0.5-2.1L1162.6,188.6z"/>
<path class="st18" d="M1162.9,151.8c1.2-0.5,2.4-0.9,3.7-1.2c1.2-0.3,2.5-0.6,3.8-0.8c1.3-0.2,2.6-0.3,3.9-0.4c0.6,0,1.3,0,1.9,0
	c0.7,0,1.3,0.1,1.9,0.2l0,0.3c-0.6,0-1.3,0-1.9,0c-0.6,0-1.3,0.1-1.9,0.1c-1.3,0.1-2.5,0.3-3.8,0.4c-1.3,0.2-2.5,0.4-3.8,0.7
	c-0.6,0.1-1.3,0.3-1.9,0.4c-0.6,0.1-1.2,0.3-1.8,0.5L1162.9,151.8z"/>
<path class="st18" d="M1173,164c0.5-0.3,1.1-0.4,1.6-0.6c0.6-0.1,1.1-0.2,1.7-0.3c1.1-0.1,2.3-0.2,3.4-0.2c2.3,0,4.6,0.3,6.8,0.9
	c2.2,0.6,4.4,1.6,6.2,3c0.9,0.7,1.8,1.5,2.5,2.4c0.7,0.9,1.3,1.9,1.8,3l-0.3,0.1c-1.1-2-2.5-3.7-4.4-5c-0.9-0.6-1.9-1.2-2.9-1.7
	c-1-0.5-2.1-0.8-3.1-1.1c-2.1-0.6-4.4-0.9-6.6-1c-1.1,0-2.2,0-3.4,0.1c-1.1,0.1-2.2,0.2-3.3,0.6L1173,164z"/>
<path class="st18" d="M1095.3,225.6l4.2,1.4c0.4,0.1,0.6,0.4,0.7,0.8c0,0.4-0.2,0.7-0.5,0.9l-4.6,2.2v0.1l6.5,1.3
	c0.2,0.1,0.4,0.3,0.3,0.5c-0.1,0.2-0.3,0.4-0.5,0.3l-6.5-1.3c-0.4-0.1-0.7-0.4-0.7-0.8c-0.1-0.4,0.1-0.8,0.5-1l4.6-2.2v-0.1
	l-4.2-1.4c-0.2-0.1-0.4-0.3-0.3-0.6C1094.8,225.6,1095.1,225.5,1095.3,225.6z"/>
<path class="st18" d="M1084.4,219.7l3.8,1.2c0.3,0.1,0.5,0.4,0.6,0.7c0,0.3-0.2,0.7-0.5,0.8l-4.1,1.9v0l5.8,1.1
	c0.2,0,0.4,0.2,0.3,0.5c0,0.2-0.2,0.4-0.5,0.3l-5.8-1.1c-0.4-0.1-0.6-0.3-0.7-0.7c0-0.4,0.1-0.7,0.5-0.9l4.1-1.9v-0.1l-3.8-1.2
	c-0.2-0.1-0.3-0.3-0.3-0.5C1083.9,219.8,1084.2,219.7,1084.4,219.7z"/>
<path class="st18" d="M1107.1,234.5l3,1c0.3,0.1,0.4,0.3,0.4,0.6c0,0.3-0.1,0.5-0.4,0.6l-3.3,1.6v0l4.6,0.9c0.2,0,0.3,0.2,0.2,0.4
	c0,0.2-0.2,0.3-0.4,0.2l-4.6-0.9c-0.3-0.1-0.5-0.3-0.5-0.6c0-0.3,0.1-0.5,0.4-0.7l3.3-1.6v-0.1l-3-1c-0.2,0-0.3-0.2-0.2-0.4
	C1106.8,234.6,1107,234.5,1107.1,234.5z"/>
<path class="st21" d="M1293.8,211.1h-13.3c-2.2,0-3.9-1.8-3.9-3.9v-11.9c0-2.2,1.8-3.9,3.9-3.9h13.3c2.2,0,3.9,1.8,3.9,3.9v11.9
	C1297.8,209.3,1296,211.1,1293.8,211.1z"/>
<path class="st12" d="M1287.2,215l-3.8-3.9h7.7L1287.2,215z"/>
<path class="st12" d="M1286.9,206.8c-0.2,0-0.4-0.1-0.5-0.2l-3.8-4.5c-0.2-0.3-0.2-0.7,0.1-1c0.3-0.2,0.7-0.2,1,0.1l3.2,3.7l4.9-8.9
	c0.2-0.3,0.6-0.5,1-0.3c0.3,0.2,0.5,0.6,0.3,1l-5.4,9.8C1287.4,206.6,1287.2,206.8,1286.9,206.8
	C1286.9,206.8,1286.9,206.8,1286.9,206.8z"/>
<path class="st22" d="M1283.3,159.1h7l-5.6-36h-7L1283.3,159.1z"/>
<path class="st23" d="M1290.3,159.1h7l-5.6-36h-7L1290.3,159.1z"/>
<path class="st22" d="M1325.6,142.5h-25.7V159h25.7V142.5z"/>
<path class="st8" d="M1318.2,147.9h-10.9v2.9h10.9V147.9z"/>
<path class="st23" d="M1277.8,112.1h-12.1v46.9h12.1V112.1z"/>
<path class="st22" d="M1331.6,159h-72.5v5.2h72.5V159z"/>
<path class="st24" d="M1215.1,109.2c5.4-5.4,5.4-14.2,0-19.6c-5.4-5.4-14.2-5.4-19.7,0c-5.4,5.4-5.4,14.2,0,19.6
	C1200.9,114.6,1209.7,114.6,1215.1,109.2z"/>
<path class="st25" d="M1204.6,90.3v10.6h9.7"/>
<path class="st23" d="M1131.2,134.5h-36.3c-2.8,0-5.1-2.3-5.1-5.1V109c0-2.8,2.3-5.1,5.1-5.1h36.3c2.8,0,5.1,2.3,5.1,5.1v20.4
	C1136.3,132.3,1134.1,134.5,1131.2,134.5z"/>
<path class="st22" d="M1130.4,111.6h-34.7v2.9h34.7V111.6z"/>
<path class="st11" d="M1130.4,117.8h-34.7v2.9h34.7V117.8z"/>
<path class="st11" d="M1130.4,124h-34.7v2.9h34.7V124z"/>
<path class="st26" d="M1101.6,165.5l-6.6-5.2h13.2L1101.6,165.5z"/>
<path class="st26" d="M1110,160.3h-36.3c-2.8,0-5.1-2.3-5.1-5.1v-20.4c0-2.8,2.3-5.1,5.1-5.1h36.3c2.8,0,5.1,2.3,5.1,5.1v20.4
	C1115.1,158.1,1112.8,160.3,1110,160.3z"/>
<g class="st27">
	<path class="st11" d="M1082.9,147.2h-4.5v5.6h4.5V147.2z"/>
	<path class="st11" d="M1090.1,141h-4.5v11.8h4.5V141z"/>
	<path class="st11" d="M1097.7,143.7h-4.5v9.1h4.5V143.7z"/>
	<path class="st11" d="M1105.2,137.3h-4.5v15.4h4.5V137.3z"/>
</g>
<g class="st28">
	<path class="st29" d="M71.3,59.9c0.4,0.1,0.7,0.4,0.7,0.8c0,0.9-0.1,1.9-0.2,2.8c0,0.5-0.4,0.8-0.9,0.7c0,0,0,0,0,0
		c-0.4-0.1-0.8-0.5-0.7-0.9c0.1-0.9,0.1-1.8,0.2-2.6C70.4,60.2,70.8,59.9,71.3,59.9C71.3,59.9,71.3,59.9,71.3,59.9z M70.4,66.9
		C70.5,66.9,70.5,66.9,70.4,66.9c0.5,0.1,0.8,0.6,0.7,1c-0.2,0.9-0.5,1.8-0.8,2.7c-0.1,0.4-0.6,0.7-1,0.5c-0.4-0.1-0.7-0.6-0.5-1
		c0.3-0.8,0.5-1.7,0.7-2.5C69.6,67.1,70,66.9,70.4,66.9z M68,73.6c0.1,0,0.2,0,0.3,0.1c0.4,0.2,0.6,0.7,0.4,1.1
		c-0.4,0.8-0.9,1.6-1.3,2.4c-0.2,0.4-0.7,0.5-1.1,0.3c-0.4-0.2-0.5-0.7-0.3-1.1c0.5-0.7,0.9-1.5,1.3-2.3
		C67.3,73.7,67.7,73.5,68,73.6z M64.2,79.5c0.2,0,0.3,0.1,0.4,0.2c0.3,0.3,0.4,0.8,0.1,1.1c-0.6,0.7-1.2,1.4-1.8,2.1
		c-0.3,0.3-0.8,0.3-1.1,0c-0.3-0.3-0.3-0.8,0-1.1c0.6-0.6,1.2-1.3,1.8-2C63.6,79.6,63.9,79.5,64.2,79.5z M59.1,84.5
		c0.2,0,0.4,0.1,0.5,0.3c0.3,0.4,0.2,0.9-0.1,1.1c-0.7,0.6-1.5,1.1-2.3,1.6c-0.4,0.2-0.9,0.1-1.1-0.2c-0.2-0.4-0.1-0.9,0.2-1.1
		c0.7-0.5,1.5-1,2.2-1.5C58.7,84.5,58.9,84.4,59.1,84.5z M53.1,88.2c0.3,0,0.5,0.2,0.6,0.5c0.2,0.4,0,0.9-0.4,1.1
		c-0.8,0.4-1.7,0.7-2.6,1.1c-0.4,0.2-0.9-0.1-1-0.5c-0.2-0.4,0.1-0.9,0.5-1c0.8-0.3,1.6-0.6,2.4-1C52.8,88.2,52.9,88.2,53.1,88.2z
		 M23.2,86.6c0.1,0,0.2,0.1,0.3,0.1c0.7,0.5,1.5,0.9,2.3,1.3c0.4,0.2,0.6,0.7,0.4,1.1c-0.2,0.4-0.7,0.6-1.1,0.4
		c-0.8-0.4-1.6-0.9-2.4-1.3c-0.4-0.2-0.5-0.7-0.3-1.1C22.6,86.7,22.9,86.5,23.2,86.6z M46.4,90.4c0.3,0,0.6,0.3,0.7,0.6
		c0.1,0.4-0.2,0.9-0.6,1c-0.9,0.2-1.8,0.4-2.7,0.5c-0.5,0.1-0.8-0.3-0.9-0.7c-0.1-0.4,0.3-0.9,0.7-0.9c0.9-0.1,1.7-0.3,2.6-0.4
		C46.2,90.4,46.3,90.4,46.4,90.4z M29.7,89.5c0.1,0,0.1,0,0.2,0c0.8,0.3,1.7,0.5,2.5,0.7c0.4,0.1,0.7,0.5,0.6,1
		c-0.1,0.4-0.5,0.7-1,0.6c-0.9-0.2-1.8-0.5-2.7-0.8c-0.4-0.1-0.7-0.6-0.5-1C28.9,89.7,29.3,89.5,29.7,89.5z M39.3,91.1
		c0.4,0.1,0.7,0.4,0.7,0.8c0,0.5-0.4,0.8-0.8,0.8c-0.9,0-1.9-0.1-2.8-0.2c0,0,0,0,0,0c-0.4-0.1-0.8-0.4-0.7-0.9
		c0-0.5,0.4-0.8,0.9-0.7C37.5,91.1,38.4,91.1,39.3,91.1C39.3,91.1,39.3,91.1,39.3,91.1z"/>
	<path class="st29" d="M18.7,83.2c0.2,0,0.3,0.1,0.4,0.2c0.3,0.3,0.6,0.6,1,0.8c0.3,0.3,0.4,0.8,0.1,1.1c-0.3,0.3-0.8,0.4-1.1,0.1
		c-0.3-0.3-0.7-0.6-1-0.9c-0.3-0.3-0.4-0.8-0.1-1.1C18.1,83.2,18.4,83.1,18.7,83.2z"/>
</g>
<g class="st28">
	<path class="st29" d="M8,60.8c0.4,0.1,0.7,0.4,0.7,0.8c0,0.4,0,0.8,0.1,1.3c0,0.5-0.3,0.8-0.7,0.9c-0.5,0-0.8-0.3-0.9-0.7
		c0-0.4-0.1-0.9-0.1-1.3c0-0.5,0.3-0.8,0.8-0.9C7.9,60.8,8,60.8,8,60.8z"/>
	<path class="st29" d="M43.4,28c0.4,0,0.7,0.1,1.1,0.2c0.4,0.1,0.7,0.5,0.7,0.9c-0.1,0.4-0.5,0.7-0.9,0.7c-0.9-0.1-1.7-0.2-2.6-0.3
		c-0.5,0-0.8-0.4-0.8-0.9c0-0.5,0.4-0.8,0.9-0.8C42.3,27.9,42.8,28,43.4,28z M48.7,29.1c0,0,0.1,0,0.1,0c0.9,0.3,1.7,0.6,2.6,0.9
		c0.4,0.2,0.6,0.6,0.5,1.1c-0.2,0.4-0.6,0.6-1.1,0.5c-0.8-0.3-1.6-0.6-2.5-0.8c-0.4-0.1-0.7-0.6-0.6-1
		C47.9,29.3,48.3,29.1,48.7,29.1z M37.5,27.9c0.4,0,0.7,0.4,0.7,0.7c0,0.5-0.3,0.8-0.8,0.9c-0.9,0.1-1.7,0.2-2.6,0.3
		c-0.4,0.1-0.9-0.2-0.9-0.7c-0.1-0.4,0.2-0.9,0.7-0.9c0.9-0.1,1.8-0.2,2.7-0.3C37.4,27.9,37.4,27.9,37.5,27.9z M55.1,31.8
		c0.1,0,0.2,0,0.3,0.1c0.8,0.4,1.6,0.9,2.3,1.4c0.4,0.3,0.5,0.8,0.2,1.1c-0.3,0.4-0.8,0.5-1.1,0.2c-0.7-0.5-1.5-0.9-2.2-1.4
		c-0.4-0.2-0.5-0.7-0.3-1.1C54.5,32,54.8,31.8,55.1,31.8z M30.6,29.1c0.3,0,0.6,0.3,0.7,0.6c0.1,0.4-0.1,0.9-0.5,1
		c-0.8,0.2-1.6,0.5-2.4,0.8c-0.4,0.2-0.9,0-1.1-0.5c-0.2-0.4,0-0.9,0.5-1.1c0.8-0.3,1.7-0.6,2.6-0.9C30.4,29.1,30.5,29.1,30.6,29.1z
		 M24.2,31.8c0.2,0,0.5,0.2,0.6,0.4c0.2,0.4,0.1,0.9-0.3,1.1c-0.7,0.4-1.5,0.9-2.2,1.4c-0.4,0.3-0.9,0.2-1.1-0.2
		c-0.3-0.4-0.2-0.9,0.2-1.1c0.7-0.5,1.5-1,2.3-1.4C23.9,31.9,24.1,31.8,24.2,31.8z M18.5,35.9c0.2,0,0.4,0.1,0.5,0.3
		c0.3,0.3,0.3,0.9-0.1,1.1c-0.6,0.6-1.3,1.2-1.9,1.8c-0.3,0.3-0.8,0.3-1.1,0c-0.3-0.3-0.3-0.8,0-1.1c0.6-0.7,1.3-1.3,2-1.9
		C18.1,35.9,18.3,35.9,18.5,35.9z M13.9,41.1c0.1,0,0.3,0.1,0.4,0.1c0.4,0.3,0.5,0.8,0.2,1.1c-0.5,0.7-1,1.4-1.4,2.2
		c-0.2,0.4-0.7,0.5-1.1,0.3c-0.4-0.2-0.5-0.7-0.3-1.1c0.5-0.8,1-1.5,1.5-2.3C13.3,41.2,13.6,41,13.9,41.1z M10.5,47.2
		c0.1,0,0.1,0,0.2,0.1c0.4,0.2,0.6,0.7,0.4,1.1c-0.3,0.8-0.6,1.6-0.9,2.4c-0.1,0.4-0.6,0.7-1,0.5c-0.4-0.1-0.7-0.6-0.5-1
		c0.3-0.9,0.6-1.7,1-2.6C9.8,47.3,10.1,47.1,10.5,47.2z M8.5,53.8C8.5,53.8,8.5,53.8,8.5,53.8c0.5,0.1,0.8,0.5,0.7,1
		C9.1,55.4,9,56,8.9,56.7c0,0.2-0.1,0.5-0.1,0.7c0,0.4-0.4,0.8-0.9,0.7c-0.5,0-0.8-0.4-0.7-0.9c0-0.2,0.1-0.5,0.1-0.7
		c0.1-0.7,0.2-1.3,0.3-2C7.7,54.1,8.1,53.8,8.5,53.8z"/>
	<path class="st29" d="M60.8,35.9c0.2,0,0.3,0.1,0.5,0.2c0.3,0.3,0.7,0.6,1,0.9c0.3,0.3,0.3,0.8,0,1.1c-0.3,0.3-0.8,0.3-1.1,0
		c-0.3-0.3-0.6-0.6-0.9-0.9c-0.3-0.3-0.4-0.8-0.1-1.1C60.3,36,60.5,35.9,60.8,35.9z"/>
</g>
<path class="st30" d="M58.6,45.1c-0.1-0.1-0.3-0.2-0.4-0.2L53.7,46c-1.5-1.5-3.3-2.8-5.3-3.7l-0.5-4.6c0-0.2-0.1-0.3-0.3-0.3
	l-5.4-1.2c-0.2,0-0.3,0-0.4,0.2l-2.4,3.9c-2.2,0-4.4,0.4-6.4,1.1l-3.6-2.9c-0.1-0.1-0.3-0.1-0.4,0l-4.7,3c-0.1,0.1-0.2,0.3-0.2,0.4
	l1.1,4.5c-1.5,1.5-2.8,3.3-3.7,5.3l-4.6,0.5c-0.2,0-0.3,0.1-0.3,0.3L15.1,58c0,0.2,0,0.3,0.2,0.4l3.9,2.4c0,2.2,0.4,4.4,1.1,6.4
	l-2.9,3.6c-0.1,0.1-0.1,0.3,0,0.4l3,4.7c0.1,0.1,0.3,0.2,0.4,0.2l4.5-1.1c1.5,1.5,3.3,2.8,5.3,3.7l0.5,4.6c0,0.2,0.1,0.3,0.3,0.3
	l5.4,1.2c0.2,0,0.3,0,0.4-0.2l2.4-3.9c2.2,0,4.4-0.4,6.4-1.1l3.6,2.9c0.1,0.1,0.3,0.1,0.4,0l4.7-3c0.1-0.1,0.2-0.3,0.2-0.4L54,74.7
	c1.5-1.5,2.8-3.3,3.7-5.3l4.6-0.5c0.2,0,0.3-0.1,0.3-0.3l1.2-5.4c0-0.2,0-0.3-0.2-0.4l-3.9-2.4c0-2.2-0.4-4.4-1.1-6.4l2.9-3.6
	c0.1-0.1,0.1-0.3,0-0.4L58.6,45.1z"/>
<path class="st31" d="M40.2,55c2.7,0.3,4.8,2.6,4.9,5.4c0.1,3.1-2.3,5.6-5.4,5.7c-1.5,0-2.9-0.5-4-1.5c-1.1-1-1.7-2.4-1.7-3.9
	c-0.1-3.1,2.3-5.6,5.4-5.7C39.6,55,39.9,55,40.2,55z M39,64.8c0.2,0,0.4,0,0.6,0c2.4-0.1,4.2-2,4.2-4.4c-0.1-2.4-2-4.2-4.4-4.2
	c-2.4,0.1-4.2,2-4.2,4.4c0,1.1,0.5,2.2,1.3,3C37.2,64.3,38.1,64.7,39,64.8z"/>
<path class="st31" d="M41,47c0.5,0.1,0.9,0.1,1.4,0.2c0.1,0,0.3,0.1,0.4,0.1c0.7,0.2,1.4,0.4,2.1,0.7c0,0,0,0,0,0c0,0,0.1,0,0.1,0
	c0.1,0,0.1,0,0.2,0.1c0.1,0.1,0.2,0.2,0.2,0.3c0,0,0,0.1,0,0.1c-0.1,0.2-0.3,0.2-0.4,0.2c-0.8-0.4-1.7-0.7-2.6-0.9
	c-4.5-1-9,0.5-12.1,3.5c-1.7,1.7-3,3.9-3.5,6.4c-0.1,0.4-0.2,0.9-0.2,1.3c-0.4,3,0.3,6,1.9,8.5c1.9,2.9,4.8,5,8.2,5.7
	c7,1.6,14-2.9,15.6-9.9c0.1-0.4,0.2-0.9,0.2-1.3c0.2-1.9,0-3.8-0.6-5.6c0-0.1,0-0.1,0-0.1c0-0.1,0.1-0.2,0.2-0.3
	c0.2-0.1,0.4,0,0.4,0.2c0.6,1.9,0.8,3.9,0.6,5.9c-0.1,0.5-0.1,0.9-0.2,1.4c-1.6,7.4-9,12-16.4,10.4c-3.6-0.8-6.6-2.9-8.6-6
	c-1.7-2.7-2.4-5.8-2-8.9c0.1-0.5,0.1-0.9,0.2-1.4c0.8-3.6,2.9-6.6,6-8.6C34.8,47.3,37.9,46.6,41,47z"/>
<g class="st28">
	<path class="st29" d="M101.4,41.9c0.2,0,0.4,0.2,0.4,0.4c0.1,0.4,0.1,0.9,0.2,1.3c0,0.3-0.2,0.5-0.4,0.6c-0.3,0-0.5-0.2-0.6-0.5
		c0-0.4-0.1-0.8-0.2-1.2c-0.1-0.3,0.1-0.5,0.4-0.6C101.3,41.9,101.4,41.9,101.4,41.9z"/>
	<path class="st29" d="M101.7,45.7c0.3,0,0.4,0.2,0.4,0.5c0,0.7-0.1,1.5-0.2,2.2c0,0.2,0,0.3-0.1,0.5c0,0.3-0.3,0.5-0.6,0.4
		c-0.3,0-0.5-0.3-0.4-0.6c0-0.1,0-0.3,0.1-0.4c0.1-0.7,0.1-1.4,0.1-2.1C101.1,46,101.4,45.7,101.7,45.7
		C101.7,45.7,101.7,45.7,101.7,45.7z M101,50.9C101,50.9,101,50.9,101,50.9c0.3,0.1,0.5,0.4,0.4,0.6c-0.2,0.9-0.5,1.7-0.9,2.5
		c-0.1,0.3-0.4,0.4-0.7,0.3c-0.3-0.1-0.4-0.4-0.3-0.7c0.3-0.8,0.6-1.6,0.8-2.4C100.5,51,100.7,50.9,101,50.9z M99,55.7
		c0.1,0,0.1,0,0.2,0.1c0.2,0.1,0.3,0.4,0.2,0.7C99,57.3,98.5,58,98,58.7c-0.2,0.2-0.5,0.3-0.7,0.1c-0.2-0.2-0.3-0.5-0.1-0.7
		c0.5-0.7,1-1.4,1.4-2.1C98.6,55.8,98.8,55.7,99,55.7z M95.9,59.9c0.1,0,0.2,0.1,0.3,0.1c0.2,0.2,0.2,0.5,0,0.7
		c-0.6,0.6-1.3,1.3-2,1.8c-0.2,0.2-0.5,0.1-0.7-0.1c-0.2-0.2-0.1-0.5,0.1-0.7c0.7-0.5,1.3-1.1,1.9-1.7C95.6,60,95.8,59.9,95.9,59.9z
		 M91.9,63.3c0.1,0,0.3,0.1,0.4,0.2c0.2,0.2,0.1,0.5-0.2,0.7c-0.7,0.5-1.5,0.9-2.3,1.3c-0.2,0.1-0.6,0-0.7-0.2
		c-0.1-0.2,0-0.6,0.2-0.7c0.8-0.4,1.5-0.8,2.2-1.2C91.7,63.3,91.8,63.3,91.9,63.3z M87.2,65.5c0.2,0,0.4,0.2,0.4,0.3
		c0.1,0.3-0.1,0.5-0.3,0.6c-0.8,0.3-1.7,0.5-2.6,0.7c-0.3,0.1-0.5-0.1-0.6-0.4c-0.1-0.3,0.1-0.5,0.4-0.6c0.8-0.2,1.7-0.4,2.5-0.7
		C87.1,65.5,87.1,65.5,87.2,65.5z M82.1,66.6c0.2,0,0.4,0.2,0.4,0.5c0,0.3-0.2,0.5-0.5,0.5c-0.9,0.1-1.8,0.1-2.7,0
		c-0.3,0-0.5-0.2-0.5-0.5c0-0.3,0.2-0.5,0.5-0.5c0.8,0,1.7,0,2.5,0C82,66.5,82.1,66.5,82.1,66.6z M74.4,65.7
		C74.4,65.7,74.4,65.7,74.4,65.7c0.8,0.2,1.5,0.4,2.2,0.6c0.1,0,0.2,0,0.3,0.1c0.3,0.1,0.5,0.3,0.4,0.6c-0.1,0.3-0.3,0.5-0.6,0.4
		c-0.1,0-0.2,0-0.3-0.1c-0.8-0.1-1.5-0.3-2.3-0.6c-0.3-0.1-0.4-0.4-0.3-0.6C73.9,65.8,74.1,65.7,74.4,65.7z"/>
</g>
<g class="st28">
	<path class="st29" d="M82.7,24.3c0.3,0,0.5,0.3,0.4,0.6c0,0.3-0.3,0.5-0.6,0.5c-0.8-0.1-1.7-0.1-2.5-0.1c-0.3,0-0.5-0.2-0.5-0.5
		c0-0.3,0.2-0.5,0.5-0.5C81,24.2,81.8,24.3,82.7,24.3C82.7,24.3,82.7,24.3,82.7,24.3z M85.3,24.8C85.3,24.8,85.3,24.8,85.3,24.8
		c0.9,0.2,1.8,0.5,2.6,0.7c0.3,0.1,0.4,0.4,0.3,0.6c-0.1,0.3-0.4,0.4-0.6,0.3c-0.8-0.3-1.6-0.5-2.4-0.7c-0.3-0.1-0.4-0.3-0.4-0.6
		C84.8,24.9,85,24.7,85.3,24.8z M77.6,24.4c0.2,0,0.4,0.2,0.4,0.4c0,0.3-0.2,0.5-0.4,0.6c-0.8,0.1-1.7,0.3-2.5,0.5
		c-0.3,0.1-0.5-0.1-0.6-0.4c-0.1-0.3,0.1-0.5,0.4-0.6c0.8-0.2,1.7-0.4,2.6-0.5C77.5,24.4,77.5,24.4,77.6,24.4z M90.1,26.5
		c0.1,0,0.1,0,0.2,0.1c0.8,0.4,1.5,0.8,2.3,1.3c0.2,0.2,0.3,0.5,0.1,0.7c-0.2,0.2-0.5,0.3-0.7,0.1c-0.7-0.5-1.4-0.9-2.2-1.3
		c-0.2-0.1-0.3-0.4-0.2-0.7C89.7,26.6,89.9,26.5,90.1,26.5z M72.6,25.7c0.2,0,0.3,0.1,0.4,0.3c0.1,0.3,0,0.6-0.3,0.7
		c-0.8,0.3-1.5,0.7-2.3,1.1c-0.2,0.1-0.6,0-0.7-0.2c-0.1-0.2,0-0.6,0.2-0.7c0.8-0.4,1.6-0.8,2.4-1.1C72.5,25.7,72.6,25.7,72.6,25.7z
		 M68.1,28.2c0.1,0,0.3,0.1,0.3,0.2c0.2,0.2,0.1,0.5-0.1,0.7c-0.7,0.5-1.3,1-1.9,1.6c-0.2,0.2-0.5,0.2-0.7,0c-0.2-0.2-0.2-0.5,0-0.7
		c0.6-0.6,1.3-1.1,2-1.7C67.9,28.2,68,28.2,68.1,28.2z M64.4,31.7c0.1,0,0.2,0.1,0.3,0.1c0.2,0.2,0.2,0.5,0.1,0.7
		c-0.5,0.6-1.1,1.3-1.5,2c-0.2,0.2-0.5,0.3-0.7,0.1c-0.2-0.2-0.3-0.5-0.1-0.7c0.5-0.7,1-1.4,1.6-2.1C64,31.7,64.2,31.7,64.4,31.7z"
		/>
	<path class="st29" d="M94.4,29.4c0.1,0,0.2,0.1,0.3,0.1c0.3,0.3,0.6,0.6,0.9,0.9c0.2,0.2,0.2,0.5,0,0.7c-0.2,0.2-0.5,0.2-0.7,0
		c-0.3-0.3-0.6-0.6-0.9-0.8c-0.2-0.2-0.2-0.5-0.1-0.7C94,29.4,94.2,29.4,94.4,29.4z"/>
</g>
<path class="st30" d="M93.2,35.8c-0.1-0.1-0.2-0.1-0.3-0.1l-3,0.7c-1-1-2.2-1.9-3.6-2.5L86,30.8c0-0.1-0.1-0.2-0.2-0.2l-3.6-0.8
	c-0.1,0-0.2,0-0.3,0.1l-1.6,2.6c-1.5,0-2.9,0.3-4.3,0.8l-2.4-1.9c-0.1-0.1-0.2-0.1-0.3,0l-3.1,2C70,33.4,70,33.5,70,33.6l0.7,3
	c-1,1-1.9,2.2-2.5,3.6l-3.1,0.3c-0.1,0-0.2,0.1-0.2,0.2l-0.8,3.6c0,0.1,0,0.2,0.1,0.3l2.6,1.6c0,1.5,0.3,2.9,0.8,4.3L65.7,53
	c-0.1,0.1-0.1,0.2,0,0.3l2,3.1c0.1,0.1,0.2,0.1,0.3,0.1l3-0.7c1,1,2.2,1.9,3.6,2.5l0.3,3.1c0,0.1,0.1,0.2,0.2,0.2l3.6,0.8
	c0.1,0,0.2,0,0.3-0.1l1.6-2.6c1.5,0,2.9-0.3,4.3-0.8l2.4,1.9c0.1,0.1,0.2,0.1,0.3,0l3.1-2c0.1-0.1,0.1-0.2,0.1-0.3l-0.7-3
	c1-1,1.9-2.2,2.5-3.6l3.1-0.3c0.1,0,0.2-0.1,0.2-0.2l0.8-3.6c0-0.1,0-0.2-0.1-0.3L94,45.9c0-1.5-0.3-2.9-0.8-4.3l1.9-2.4
	c0.1-0.1,0.1-0.2,0-0.3L93.2,35.8z"/>
<path class="st31" d="M80.9,42.3c0.8,0.1,1.6,0.4,2.1,1c0.7,0.7,1.2,1.6,1.2,2.7c0.1,2.1-1.6,3.8-3.7,3.9c-2.1,0.1-3.8-1.6-3.9-3.7
	c0-1,0.3-2,1-2.7s1.6-1.2,2.7-1.2C80.5,42.3,80.7,42.3,80.9,42.3z M80.1,48.9c0.1,0,0.3,0,0.4,0c1.5,0,2.8-1.3,2.7-2.9
	c0-0.7-0.3-1.4-0.9-2c-0.5-0.5-1.2-0.8-2-0.8c-0.7,0-1.4,0.3-2,0.9c-0.5,0.5-0.8,1.2-0.8,2C77.7,47.6,78.7,48.7,80.1,48.9z"/>
<path class="st31" d="M81.5,36.7c0.3,0,0.6,0.1,1,0.2c0.6,0.1,1.2,0.3,1.8,0.6c0,0,0.1,0,0.1,0c0.2,0.1,0.3,0.3,0.3,0.5
	c0,0.1,0,0.1,0,0.2c-0.1,0.3-0.4,0.4-0.7,0.2c-0.5-0.3-1.1-0.4-1.7-0.6c0,0-0.1,0-0.1,0c-1.4-0.3-2.8-0.2-4.1,0.2
	c-0.7,0.2-1.4,0.5-2.1,0.9c0,0,0,0,0,0c0,0,0,0-0.1,0c-1.9,1.2-3.2,3.1-3.7,5.3C72,44.6,72,44.9,72,45.2c-0.2,1.9,0.2,3.9,1.3,5.5
	c1.2,1.9,3.1,3.2,5.3,3.7c2.2,0.5,4.5,0.1,6.4-1.1c1.9-1.2,3.2-3.1,3.7-5.3c0.1-0.3,0.1-0.6,0.1-0.9c0.1-1.2,0-2.5-0.4-3.7
	c0-0.1,0-0.1,0-0.2c0-0.2,0.2-0.4,0.3-0.4c0.3-0.1,0.5,0.1,0.6,0.3c0.4,1.3,0.6,2.7,0.4,4.1c0,0.3-0.1,0.6-0.2,1
	c-0.6,2.5-2,4.6-4.2,5.9c-2.1,1.4-4.7,1.8-7.1,1.2c-2.5-0.6-4.6-2-5.9-4.2c-1.2-1.9-1.7-4-1.4-6.2c0-0.3,0.1-0.6,0.2-1
	C72.2,39.3,76.7,36.2,81.5,36.7z"/>
<linearGradient id="SVGID_1_" gradientUnits="userSpaceOnUse" x1="191.1107" y1="-181.7354" x2="85.0027" y2="-270.8514" gradientTransform="matrix(1 0 0 -1 0 -147.5669)">
	<stop  offset="0" style="stop-color:#09005D"/>
	<stop  offset="1" style="stop-color:#1A0F91"/>
</linearGradient>
<path class="st32" d="M132.7,19.4L184.4,31c2.8,0.6,4.7,3.4,4.2,6.3l-13,75.8c-0.4,2.3-2.6,3.7-4.8,3.3l-59.4-12.3
	c-2.1-0.4-3.4-2.5-3-4.6l17-75.4C126,20.7,129.4,18.6,132.7,19.4z"/>
<path class="st8" d="M120.3,104.9C120.2,104.9,120.2,104.9,120.3,104.9l-6.7-1.6c-2.3-0.6-3.8-2.9-3.2-5.2l2.3-10
	c0-0.2,0.2-0.3,0.4-0.3c0.2,0,0.3,0.2,0.3,0.4l-2.3,10c-0.4,2,0.8,3.9,2.7,4.4l6.6,1.6c0.2,0,0.3,0.2,0.3,0.4
	C120.6,104.8,120.4,104.9,120.3,104.9z"/>
<path class="st8" d="M113.6,85.4C113.6,85.4,113.6,85.4,113.6,85.4c-0.3-0.1-0.4-0.2-0.3-0.4l0.4-1.6c0-0.2,0.2-0.3,0.4-0.3
	c0.2,0,0.3,0.2,0.3,0.4l-0.4,1.6C113.9,85.3,113.8,85.4,113.6,85.4z"/>
<path class="st30" d="M133,18.8c6.8,2.5,30.4,11,50.8,13.9c0.9,0.1,1.6,1,1.4,1.9l-12.9,76.1c-0.2,1-1.2,1.8-2.2,1.6
	c-8.5-1.4-43.7-7.3-55.8-11.4c-0.7-0.2-1.2-1-1-1.8l17.3-79.1C130.9,19,132,18.4,133,18.8z"/>
<path class="st31" d="M133.3,20.9c6.6,2.4,29.3,10.6,48.9,13.4c0.9,0.1,1.5,1,1.4,1.9l-12.5,73.3c-0.2,1-1.1,1.7-2.1,1.5
	c-8.2-1.4-42.1-7-53.7-11c-0.7-0.2-1.1-1-1-1.7L131,22.1C131.3,21.1,132.4,20.5,133.3,20.9z"/>
<g class="st33">
	<path class="st34" d="M177.5,39.9c0.7,0.2,1.4,0.1,1.5-0.2c0.1-0.3-0.5-0.7-1.2-0.8l-17.1-4.2c-0.7-0.2-1.3,0-1.2,0.4
		c0.1,0.4,0.7,0.9,1.4,1.1L177.5,39.9z"/>
</g>
<g class="st33">
	<path class="st34" d="M160,37.6c-0.7-0.2-1.3,0-1.2,0.4c0.1,0.4,0.7,0.9,1.4,1.1l16.7,3.8c0.7,0.2,1.4,0.1,1.5-0.2
		c0.1-0.3-0.5-0.7-1.2-0.9L160,37.6z"/>
</g>
<g class="st33">
	<path class="st34" d="M159.3,40.5c-0.7-0.2-1.3,0-1.2,0.4c0.1,0.4,0.7,0.9,1.4,1.1l16.7,3.8c0.7,0.2,1.4,0.1,1.5-0.2
		c0.1-0.3-0.5-0.7-1.2-0.9L159.3,40.5z"/>
</g>
<g class="st33">
	<path class="st34" d="M176.7,52.2c0.7,0.2,1.4,0.1,1.4-0.2c0.1-0.3-0.5-0.7-1.3-0.8l-42.1-9.8c-0.7-0.2-1.2,0.1-0.9,0.5
		c0.2,0.5,1,1,1.7,1.1L176.7,52.2z"/>
</g>
<g class="st33">
	<path class="st34" d="M134.1,44.2c-0.7-0.2-1.2,0.1-0.9,0.5c0.2,0.5,1,1,1.7,1.1l41.1,9.3c0.7,0.2,1.4,0.1,1.4-0.2
		c0-0.3-0.5-0.7-1.3-0.8L134.1,44.2z"/>
</g>
<path class="st8" d="M139.5,52.3c-0.2-0.1-0.4-0.2-0.6-0.2c0,0,0,0,0,0c-0.2,0-0.4-0.1-0.6-0.1c-1.1-0.2-2.6-0.3-4-0.5
	c-0.8-0.1-1.4-0.2-1.9-0.2c-0.4,0-0.7,0.1-1,0.3c-0.2,0.2-0.4,0.5-0.4,0.8l-0.4,5c-0.1,0.8,0.5,1.5,1.4,1.7l5.8,1.2c0,0,0,0,0,0
	c0.8,0.2,1.6-0.3,1.8-1.1c0.5-2.3,0.9-4.4,0.8-5.6C140.2,53,139.9,52.6,139.5,52.3z M139.8,53.6c0.1,1.1-0.3,3.2-0.8,5.4
	c-0.1,0.5-0.7,0.6-1.2,0.7h0l-5.8-1.2c-0.6-0.1-1-0.6-1-1.1l0.4-5c0-0.2,0.1-0.3,0.2-0.4c0.2-0.1,0.4-0.2,0.6-0.2
	c0.5,0.1,1.2,0.1,2,0.2c1.2,0.1,2.7,0.3,3.7,0.4c0.3,0.1,0.6,0.1,0.8,0.1c0.2,0,0.4,0.1,0.6,0.2C139.6,53,139.8,53.3,139.8,53.6z"/>
<path class="st34" d="M132.7,52.4c1.2,0.2,4,0.4,5.2,0.6c0.5,0.1,1,0.5,1,1c0.1,1-0.3,2.7-0.7,4.4c-0.1,0.5-0.6,0.8-1.2,0.7
	l-4.7-0.9c-0.6-0.1-1-0.6-0.9-1.1l0.3-4C131.9,52.6,132.3,52.3,132.7,52.4z"/>
<g class="st33">
	<path class="st34" d="M144.7,56.3c-0.7-0.2-1.3,0.3-1.3,1.1l0,0.3c0.1,0.8,0.7,1.5,1.5,1.6l27.7,5.3c0.7,0.1,1.4-0.2,1.5-0.8
		c0.1-0.6-0.4-1.2-1.2-1.4L144.7,56.3z"/>
</g>
<linearGradient id="SVGID_2_" gradientUnits="userSpaceOnUse" x1="1362.9286" y1="566.2479" x2="1317.9286" y2="538.069" gradientTransform="matrix(1 0 0 -1 0 -147.5669)">
	<stop  offset="0" style="stop-color:#FF928E"/>
	<stop  offset="1" style="stop-color:#FE7062"/>
</linearGradient>
<path class="st35" d="M132.8,53.2c0.5-0.2,1,0.1,1.2,0.6l0.8,2.3c0.1,0.2,0.4,0.3,0.5,0.1l4.1-5.8c0.2-0.3,0.7-0.1,0.6,0.3
	c-0.4,1.9-1.6,5.5-5.3,8.1c0,0-1.6-1-2.4-4.3C132.1,53.9,132.4,53.4,132.8,53.2z"/>
<path class="st8" d="M137.1,64.9c-0.2-0.1-0.4-0.2-0.6-0.2c0,0,0,0,0,0c-0.2,0-0.4-0.1-0.6-0.1c-1.1-0.2-2.6-0.3-4-0.5
	c-0.8-0.1-1.4-0.2-1.9-0.2c-0.4,0-0.7,0.1-1,0.3c-0.2,0.2-0.4,0.5-0.4,0.8l-0.4,5c-0.1,0.8,0.5,1.5,1.4,1.7l5.8,1.2c0,0,0,0,0,0
	c0.8,0.2,1.6-0.3,1.8-1.1c0.5-2.3,0.9-4.4,0.8-5.6C137.8,65.6,137.5,65.1,137.1,64.9z M137.4,66.1c0.1,1.1-0.3,3.2-0.8,5.4
	c-0.1,0.5-0.6,0.8-1.2,0.7c0,0,0,0,0,0l-5.8-1.2c-0.6-0.1-1-0.6-1-1.1l0.4-5c0-0.2,0.1-0.3,0.2-0.4c0.2-0.1,0.4-0.2,0.6-0.2
	c0.5,0.1,1.2,0.1,2,0.2c1.2,0.1,2.7,0.3,3.7,0.4c0.3,0.1,0.6,0.1,0.8,0.1c0.2,0,0.4,0.1,0.5,0.2C137.2,65.5,137.4,65.8,137.4,66.1z"
	/>
<path class="st34" d="M130.3,64.9c1.2,0.2,4,0.4,5.2,0.6c0.5,0.1,1,0.5,1,1c0.1,1-0.3,2.7-0.7,4.4c-0.1,0.5-0.6,0.8-1.2,0.7
	l-4.7-0.9c-0.6-0.1-1-0.6-0.9-1.1l0.3-4C129.5,65.2,129.9,64.9,130.3,64.9z"/>
<g class="st33">
	<path class="st34" d="M142.2,68.8c-0.7-0.2-1.3,0.3-1.3,1.1l0,0.3c0.1,0.8,0.7,1.5,1.5,1.6l27.7,5.3c0.7,0.1,1.4-0.2,1.5-0.8
		c0.1-0.6-0.4-1.2-1.2-1.4L142.2,68.8z"/>
</g>
<linearGradient id="SVGID_3_" gradientUnits="userSpaceOnUse" x1="1367.8925" y1="558.3417" x2="1322.8925" y2="530.1617" gradientTransform="matrix(1 0 0 -1 0 -147.5669)">
	<stop  offset="0" style="stop-color:#FF928E"/>
	<stop  offset="1" style="stop-color:#FE7062"/>
</linearGradient>
<path class="st36" d="M130.5,65.7c0.5-0.2,1,0.1,1.2,0.6l0.8,2.3c0.1,0.2,0.4,0.3,0.5,0.1l4.1-5.8c0.2-0.3,0.7-0.1,0.6,0.3
	c-0.4,1.9-1.6,5.5-5.3,8.1c0,0-1.6-1-2.4-4.3C129.7,66.4,130,65.9,130.5,65.7z"/>
<path class="st8" d="M134.2,76.8c-0.2-0.1-0.4-0.2-0.6-0.2c-0.2,0-0.4-0.1-0.6-0.1c-1.1-0.2-2.7-0.3-4-0.5c-0.8-0.1-1.4-0.2-2-0.2
	c-0.4,0-0.7,0.1-1,0.3c-0.2,0.2-0.4,0.5-0.4,0.8l-0.4,5c-0.1,0.8,0.5,1.5,1.4,1.7l5.8,1.2h0c0.8,0.2,1.6-0.3,1.8-1.1
	c0.5-2.3,0.9-4.4,0.8-5.6C135,77.5,134.7,77.1,134.2,76.8z M134.5,78.1c0.1,1.1-0.3,3.2-0.8,5.4c-0.1,0.5-0.7,0.8-1.2,0.7l-5.8-1.2
	c-0.6-0.1-1-0.6-1-1.1l0.4-5c0-0.2,0.1-0.3,0.2-0.4c0.2-0.1,0.4-0.2,0.6-0.2c0.5,0.1,1.2,0.1,2,0.2c1.2,0.1,2.7,0.3,3.7,0.4
	c0.3,0,0.6,0.1,0.8,0.1c0.2,0,0.4,0.1,0.6,0.2C134.3,77.5,134.5,77.7,134.5,78.1z"/>
<path class="st34" d="M127.5,76.9c1.2,0.2,4,0.4,5.2,0.6c0.5,0.1,1,0.5,1,1c0.1,1-0.3,2.7-0.7,4.4c-0.1,0.5-0.6,0.8-1.2,0.7
	l-4.7-0.9c-0.6-0.1-1-0.6-0.9-1.1l0.3-4C126.6,77.1,127,76.8,127.5,76.9z"/>
<g class="st33">
	<path class="st34" d="M139.4,80.7c-0.7-0.2-1.3,0.3-1.3,1.1l0,0.3c0.1,0.8,0.7,1.5,1.5,1.6l27.7,5.3c0.7,0.1,1.4-0.2,1.5-0.8
		c0.1-0.6-0.4-1.2-1.2-1.4L139.4,80.7z"/>
</g>
<linearGradient id="SVGID_4_" gradientUnits="userSpaceOnUse" x1="1372.4647" y1="551.0282" x2="1327.4646" y2="522.8492" gradientTransform="matrix(1 0 0 -1 0 -147.5669)">
	<stop  offset="0" style="stop-color:#FF928E"/>
	<stop  offset="1" style="stop-color:#FE7062"/>
</linearGradient>
<path class="st37" d="M127.6,77.7c0.5-0.2,1,0.1,1.2,0.6l0.8,2.3c0.1,0.2,0.4,0.3,0.5,0.1l4.1-5.8c0.2-0.3,0.7-0.1,0.6,0.3
	c-0.4,1.9-1.6,5.6-5.3,8.1c0,0-1.6-1-2.4-4.3C126.9,78.3,127.1,77.8,127.6,77.7z"/>
<path class="st8" d="M131.2,89.1c-0.2-0.1-0.4-0.2-0.6-0.2c-0.2,0-0.4-0.1-0.6-0.1c-1.1-0.2-2.6-0.3-4-0.5c-0.8-0.1-1.5-0.2-2-0.2
	c-0.4,0-0.7,0.1-1,0.3c-0.2,0.2-0.4,0.5-0.4,0.8l-0.4,5c-0.1,0.8,0.5,1.5,1.4,1.7l5.8,1.2c0,0,0,0,0,0c0.8,0.2,1.6-0.3,1.8-1.1
	c0.5-2.3,0.9-4.4,0.8-5.6C131.9,89.8,131.6,89.4,131.2,89.1z M131.5,90.3c0.1,1.1-0.3,3.2-0.8,5.4c-0.1,0.5-0.6,0.8-1.2,0.7
	c0,0,0,0,0,0l-5.8-1.2c-0.6-0.1-1-0.6-1-1.1l0.4-5c0-0.2,0.1-0.3,0.2-0.4c0.2-0.1,0.4-0.2,0.6-0.2c0.5,0.1,1.2,0.1,2,0.2
	c1.2,0.1,2.7,0.3,3.7,0.4c0.3,0,0.6,0.1,0.8,0.1c0.2,0,0.4,0.1,0.6,0.2C131.3,89.8,131.5,90,131.5,90.3z"/>
<path class="st34" d="M124.5,89.2c1.2,0.2,4,0.4,5.2,0.6c0.5,0.1,1,0.5,1,1c0.1,1-0.3,2.7-0.7,4.4c-0.1,0.5-0.6,0.8-1.2,0.7
	l-4.7-0.9c-0.6-0.1-1-0.6-0.9-1.1l0.3-4C123.6,89.4,124,89.1,124.5,89.2z"/>
<g class="st33">
	<path class="st34" d="M136.3,93c-0.7-0.2-1.3,0.3-1.3,1.1l0,0.3c0.1,0.8,0.7,1.5,1.5,1.6l27.7,5.3c0.7,0.1,1.4-0.2,1.5-0.8
		c0.1-0.6-0.4-1.2-1.2-1.4L136.3,93z"/>
</g>
<linearGradient id="SVGID_5_" gradientUnits="userSpaceOnUse" x1="1377.1244" y1="543.5807" x2="1332.1244" y2="515.4008" gradientTransform="matrix(1 0 0 -1 0 -147.5669)">
	<stop  offset="0" style="stop-color:#FF928E"/>
	<stop  offset="1" style="stop-color:#FE7062"/>
</linearGradient>
<path class="st38" d="M124.6,90c0.5-0.2,1,0.1,1.2,0.6l0.8,2.3c0.1,0.2,0.4,0.3,0.5,0.1l4.1-5.8c0.2-0.3,0.7-0.1,0.6,0.3
	c-0.4,1.9-1.6,5.6-5.3,8.1c0,0-1.6-1-2.4-4.3C123.8,90.6,124.1,90.1,124.6,90z"/>
<linearGradient id="SVGID_6_" gradientUnits="userSpaceOnUse" x1="174.0769" y1="-161.1882" x2="136.5589" y2="-174.8122" gradientTransform="matrix(1 0 0 -1 0 -147.5669)">
	<stop  offset="0" style="stop-color:#09005D"/>
	<stop  offset="1" style="stop-color:#1A0F91"/>
</linearGradient>
<path class="st39" d="M164.1,15.7c-1.6-1.7-3.2-2.1-4.4-2c-1.1,0.1-2,0.9-2.2,2l-0.6,4.8l-0.1,0.7l5.7,1.8c0,0,0.4-0.3,0.8-0.8
	C164.5,20.9,166.3,18.1,164.1,15.7z M159.4,17.7c0.2-0.8,1-1.3,1.8-1.1c0.8,0.2,1.3,1,1.1,1.8c-0.2,0.8-1,1.3-1.8,1.1
	C159.7,19.3,159.2,18.4,159.4,17.7z"/>
<path class="st30" d="M162.3,14.9c-0.7-0.3-1.5-0.5-2.2-0.4c-1.1,0.1-2.1,0.9-2.2,2.1l-0.1,0.7c0,0.1,0,0.2,0.1,0.3c0,0,0.1,0,0.1,0
	c0.2,0,0.3-0.1,0.3-0.3l0.1-0.7c0.1-0.8,0.8-1.5,1.6-1.5c0.7,0,1.3,0.1,1.9,0.4c0.1,0.1,0.3,0,0.4-0.1
	C162.6,15.1,162.5,14.9,162.3,14.9z M158,17.8c-0.2,0-0.3,0.1-0.3,0.3l-0.1,0.9c0,0.1,0,0.2,0.1,0.3c0,0,0.1,0,0.1,0
	c0.2,0,0.3-0.1,0.3-0.3l0.1-0.9C158.3,18,158.2,17.8,158,17.8z"/>
<linearGradient id="SVGID_7_" gradientUnits="userSpaceOnUse" x1="173.7245" y1="-159.4032" x2="142.9225" y2="-185.3102" gradientTransform="matrix(1 0 0 -1 0 -147.5669)">
	<stop  offset="0" style="stop-color:#09005D"/>
	<stop  offset="1" style="stop-color:#1A0F91"/>
</linearGradient>
<path class="st40" d="M148,22.9l0.6-2.7c0.2-0.9,1.1-1.5,2.1-1.3l18.5,4.8c0.8,0.2,1.3,1,1.2,1.9l-0.4,2.6L148,22.9z"/>
<path class="st30" d="M154.9,20.8l0.8,0.2L154.9,20.8z"/>
<path class="st30" d="M149.1,22.4c-0.1-0.1-0.2-0.2-0.1-0.3l0.2-1.1c0.1-0.5,0.4-0.8,0.8-1.1c0.4-0.2,0.9-0.3,1.3-0.2l2.9,0.7
	c0.2,0,0.3,0.2,0.2,0.4c0,0.2-0.2,0.3-0.4,0.2l-2.9-0.7c-0.6-0.1-1.2,0.2-1.4,0.9l-0.2,1.1C149.5,22.4,149.3,22.5,149.1,22.4
	C149.1,22.4,149.1,22.4,149.1,22.4z"/>
<path class="st30" d="M142.4,20.6l32.6,7.3c1.2,0.3,2,1.3,1.9,2.5l0,0.2c-0.1,1.3-1.3,2.3-2.6,2l-33.4-7.5c-0.8-0.2-1.2-1-1-1.7
	l0.4-1.5C140.5,20.9,141.4,20.4,142.4,20.6z"/>
<linearGradient id="SVGID_8_" gradientUnits="userSpaceOnUse" x1="85.1148" y1="-404.8492" x2="64.3982" y2="-452.4972" gradientTransform="matrix(1 0 0 -1 0 -147.5669)">
	<stop  offset="0" style="stop-color:#09005D"/>
	<stop  offset="1" style="stop-color:#1A0F91"/>
</linearGradient>
<path class="st41" d="M59.5,280.5c0,0-0.8,4.5-1.2,8.9c-0.2,1.7,1.2,3.2,2.9,3.3c5.9,0.2,18.6,0.7,23.1,0.5c0.7,0,1.1-0.7,0.9-1.4
	c-0.2-0.5-0.6-1-1.1-1.2l-20.9-9.6L59.5,280.5z"/>
<linearGradient id="SVGID_9_" gradientUnits="userSpaceOnUse" x1="58.8494" y1="-428.034" x2="65.6583" y2="-428.034" gradientTransform="matrix(1 0 0 -1 0 -147.5669)">
	<stop  offset="0" style="stop-color:#FEBBBA"/>
	<stop  offset="1" style="stop-color:#FF928E"/>
</linearGradient>
<path class="st42" d="M58.8,277.8l0.6,5.4c0,0,3.7,1.7,6.2-0.2l-1.5-6L58.8,277.8z"/>
<linearGradient id="SVGID_10_" gradientUnits="userSpaceOnUse" x1="42.707" y1="-375.9831" x2="65.2179" y2="-375.9831" gradientTransform="matrix(1 0 0 -1 0 -147.5669)">
	<stop  offset="0" style="stop-color:#09005D"/>
	<stop  offset="1" style="stop-color:#1A0F91"/>
</linearGradient>
<path class="st43" d="M59.3,176.8c-0.3,1.4-1.5,70,5.9,100.8c0.1,0.5-0.1,1-0.6,1.2c-1.1,0.5-3.3,1.1-6,1.2c-0.8,0-1.6-0.5-1.8-1.3
	c-2.1-7.1-12.1-42.9-13.5-77c-1.5-38.2,0-1.3,0-1.3l0.9-23.6L59.3,176.8z"/>
<linearGradient id="SVGID_11_" gradientUnits="userSpaceOnUse" x1="57.9301" y1="-393.0304" x2="37.2138" y2="-440.6784" gradientTransform="matrix(1 0 0 -1 0 -147.5669)">
	<stop  offset="0" style="stop-color:#09005D"/>
	<stop  offset="1" style="stop-color:#1A0F91"/>
</linearGradient>
<path class="st44" d="M35.4,282.8c0,0-1.3,2.3-2.5,8.3c-0.2,1.1,0.5,2.1,1.6,2.2c2,0.2,5,0.4,7.4,0.4c1.1,0,2-1,1.8-2.1
	c-0.3-2.2-1.1-5.8-3.7-8.6L35.4,282.8z"/>
<linearGradient id="SVGID_12_" gradientUnits="userSpaceOnUse" x1="34.3166" y1="-427.6763" x2="40.1944" y2="-427.6763" gradientTransform="matrix(1 0 0 -1 0 -147.5669)">
	<stop  offset="0" style="stop-color:#FEBBBA"/>
	<stop  offset="1" style="stop-color:#FF928E"/>
</linearGradient>
<path class="st45" d="M34.3,275.9l1.5,8.1c0,0,1.5,1.1,4.4,0.3l-0.7-8.7L34.3,275.9z"/>
<linearGradient id="SVGID_13_" gradientUnits="userSpaceOnUse" x1="27.9829" y1="-375.2531" x2="59.9347" y2="-375.2531" gradientTransform="matrix(1 0 0 -1 0 -147.5669)">
	<stop  offset="0" style="stop-color:#09005D"/>
	<stop  offset="1" style="stop-color:#1A0F91"/>
</linearGradient>
<path class="st46" d="M30.3,178.9c-6,36.2,1.3,89.5,3.8,99.9c0.2,0.6,0.7,1.1,1.3,1.2c1.1,0.2,2.9,0.3,4.7-0.2
	c0.6-0.2,1-0.7,1.1-1.4c0.3-8.4-0.3-60.2,5.3-80.7c0.3-1,0.9-1.9,1.8-2.6l10.9-7.7l0.8-12.5L30.3,178.9z"/>
<linearGradient id="SVGID_14_" gradientUnits="userSpaceOnUse" x1="18.894" y1="-313.9515" x2="126.0171" y2="-236.8596" gradientTransform="matrix(1 0 0 -1 0 -147.5669)">
	<stop  offset="0" style="stop-color:#4F52FF"/>
	<stop  offset="0.866" style="stop-color:#4244E6"/>
	<stop  offset="1" style="stop-color:#4042E2"/>
</linearGradient>
<path class="st47" d="M68.5,110.3c-18-0.3-37.8,4.7-37.8,4.7c-5.4,31.3-0.9,67.4-0.9,67.4c13.9,3.7,29.6-2.2,29.6-2.2
	c2.3-13.1,13.1-49.9,13.1-49.9c8.8-1.1,16-3.6,22-7c-4.5-5.3-6.7-12-7.6-15.9C80.5,109.3,74.1,110.4,68.5,110.3z"/>
<linearGradient id="SVGID_15_" gradientUnits="userSpaceOnUse" x1="82.4188" y1="-270.3483" x2="128.6858" y2="-231.6773" gradientTransform="matrix(1 0 0 -1 0 -147.5669)">
	<stop  offset="0" style="stop-color:#FEBBBA"/>
	<stop  offset="1" style="stop-color:#FF928E"/>
</linearGradient>
<path class="st48" d="M121.6,83.8c-1.8-2.1-4-1.1-4-1.1c-2.6,11.2-16.5,20.2-30.8,24.7c0.9,4,3.1,10.7,7.6,15.9
	C118.1,110,121.6,83.8,121.6,83.8z"/>
<linearGradient id="SVGID_16_" gradientUnits="userSpaceOnUse" x1="112.2752" y1="-239.4241" x2="128.6181" y2="-216.8662" gradientTransform="matrix(1 0 0 -1 0 -147.5669)">
	<stop  offset="0" style="stop-color:#FEBBBA"/>
	<stop  offset="1" style="stop-color:#FF928E"/>
</linearGradient>
<path class="st49" d="M121.2,84.3c0.2,0.6-2,1.5-3.2-0.9c0-1.1-0.7-6.1-0.1-7c3.7-5,10.8-11.3,10.8-11.3c1.2,1.2,0.2,2.3,0.2,2.3
	l-3.5,3.6c0.7,1.3,1.6,2.4,2,4c0.3,1.2,0.1,2.5-0.5,3.6c-0.6,1.1-1.4,2.5-2.2,3.6C123.3,84.3,121.2,84.3,121.2,84.3z"/>
<linearGradient id="SVGID_17_" gradientUnits="userSpaceOnUse" x1="120.1508" y1="-228.4155" x2="152.6068" y2="-189.7446" gradientTransform="matrix(1 0 0 -1 0 -147.5669)">
	<stop  offset="0" style="stop-color:#FEBBBA"/>
	<stop  offset="1" style="stop-color:#FF928E"/>
</linearGradient>
<path class="st50" d="M124,73.4l-3.1,2.7l-1,2.7l2.8,3.1c0,0,0.9-5.3,1.6-6.4C125,74.3,124.6,73.7,124,73.4z"/>
<linearGradient id="SVGID_18_" gradientUnits="userSpaceOnUse" x1="4.7792" y1="-294.3375" x2="111.9008" y2="-217.2455" gradientTransform="matrix(1 0 0 -1 0 -147.5669)">
	<stop  offset="0" style="stop-color:#4F52FF"/>
	<stop  offset="0.866" style="stop-color:#4244E6"/>
	<stop  offset="1" style="stop-color:#4042E2"/>
</linearGradient>
<path class="st51" d="M37.6,132.4L30.7,115c0,0-16.8,11.4-19.6,25.9c3.2,0.2,8.9,1.1,14.6,3.9C27,138,37.6,132.4,37.6,132.4z"/>
<linearGradient id="SVGID_19_" gradientUnits="userSpaceOnUse" x1="10.765" y1="-299.6877" x2="54.7741" y2="-299.6877" gradientTransform="matrix(1 0 0 -1 0 -147.5669)">
	<stop  offset="0" style="stop-color:#FEBBBA"/>
	<stop  offset="1" style="stop-color:#FF928E"/>
</linearGradient>
<path class="st52" d="M52.3,148.8c0,0-18.9,10.7-25.2,1.6c-1.3-1.9-1.6-3.8-1.3-5.6c-5.7-2.9-11.4-3.7-14.6-3.9
	c-0.8,4.4-0.4,9,2.2,13.7c11.2,20.4,41.5-1.1,41.5-1.1L52.3,148.8z"/>
<path class="st30" d="M50,162.3l10.3-35.9c0.1-0.4,0.5-0.7,0.9-0.8c1.9-0.2,7.3-0.8,13.5-1.4c7.5-0.6,16.2-1.1,21.5-0.7
	c0.7,0.1,1.2,0.9,0.9,1.5c-3,6-15.2,30.4-21.3,38.4c-0.2,0.3-0.5,0.4-0.8,0.4L51,163.6C50.3,163.6,49.8,163,50,162.3z"/>
<linearGradient id="SVGID_20_" gradientUnits="userSpaceOnUse" x1="103.493" y1="-234.232" x2="90.028" y2="-253.912" gradientTransform="matrix(1 0 0 -1 0 -147.5669)">
	<stop  offset="0" style="stop-color:#09005D"/>
	<stop  offset="1" style="stop-color:#1A0F91"/>
</linearGradient>
<path class="st53" d="M75.8,121.1l7.5-1.2c0.4-0.1,0.7,0.3,0.6,0.7l-0.7,2.2c-0.1,0.2-0.2,0.3-0.4,0.4l-7.2,1
	c-0.4,0.1-0.7-0.3-0.6-0.7l0.5-2C75.4,121.3,75.6,121.1,75.8,121.1z"/>
<linearGradient id="SVGID_21_" gradientUnits="userSpaceOnUse" x1="104.6732" y1="-235.0392" x2="91.2082" y2="-254.7202" gradientTransform="matrix(1 0 0 -1 0 -147.5669)">
	<stop  offset="0" style="stop-color:#09005D"/>
	<stop  offset="1" style="stop-color:#1A0F91"/>
</linearGradient>
<path class="st54" d="M70.2,127.4l0.6-3.2c0.1-0.3,0.3-0.6,0.7-0.6l15.1-1.5c0.5-0.1,0.9,0.4,0.8,0.9l-1,4c-0.1,0.3-0.4,0.6-0.7,0.6
	L71,128.3C70.5,128.3,70.1,127.9,70.2,127.4z"/>
<linearGradient id="SVGID_22_" gradientUnits="userSpaceOnUse" x1="51.5056" y1="-295.0758" x2="65.2179" y2="-295.0758" gradientTransform="matrix(1 0 0 -1 0 -147.5669)">
	<stop  offset="0" style="stop-color:#FEBBBA"/>
	<stop  offset="1" style="stop-color:#FF928E"/>
</linearGradient>
<path class="st55" d="M52.5,153.6c0,0-1.4-5.9-0.9-8c0.6-2.1,1.7-4.8,5.4-4.2c3.7,0.6,8.1,2.2,8.1,2.2s-0.2,2.7-3.1,1.8l1.8,1.4
	c0,0-0.3,2.2-2.7,1l1.6,1.8c0,0-1,1.8-2.8,0.6C58.3,149.1,57.5,154.3,52.5,153.6z"/>
<linearGradient id="SVGID_23_" gradientUnits="userSpaceOnUse" x1="45.2871" y1="-269.8549" x2="57.2567" y2="-246.6059" gradientTransform="matrix(1 0 0 -1 0 -147.5669)">
	<stop  offset="0" style="stop-color:#FEBBBA"/>
	<stop  offset="1" style="stop-color:#FF928E"/>
</linearGradient>
<path class="st56" d="M50.3,95.7l-5.7,16.5c-0.1,0.3,0,0.6,0.3,0.7c1.6,0.9,7.2,3.4,14-0.9c0.7-0.5,1.2-1.2,1.3-2L62,95.7L50.3,95.7
	L50.3,95.7z"/>
<linearGradient id="SVGID_24_" gradientUnits="userSpaceOnUse" x1="325.2924" y1="-402.5921" x2="355.0544" y2="-421.0721" gradientTransform="matrix(1 0 0 -1 0 -147.5669)">
	<stop  offset="0" style="stop-color:#FEBBBA"/>
	<stop  offset="1" style="stop-color:#FF928E"/>
</linearGradient>
<path class="st57" d="M62.8,80.4c0,0,6.3,11.8,5.5,16.6c-0.8,4.8-8.6,4.4-15.4,0.6l-4.8-12.8L62.8,80.4z"/>
<linearGradient id="SVGID_25_" gradientUnits="userSpaceOnUse" x1="36.8337" y1="-217.5968" x2="61.552" y2="-237.1198" gradientTransform="matrix(1 0 0 -1 0 -147.5669)">
	<stop  offset="0" style="stop-color:#09005D"/>
	<stop  offset="1" style="stop-color:#1A0F91"/>
</linearGradient>
<path class="st58" d="M53.1,91.2c0.3-0.1,0.4-0.5,0.2-0.7c-0.5-0.8-1.4-2.3-1.8-3.7c0,0-1.1-0.7,2.9-1.7c4-1,10-2.4,11.2-5.9
	c1.2-3.3-2-11.7-7.1-5c-0.2,0.3-0.6,0.3-0.8,0c-0.8-1.1-3.1-3.4-6.1-2c-2.9,1.3-3.2,3.4-3.2,4.5c0,0.3-0.3,0.6-0.6,0.5
	c-1.5-0.3-4.9-0.5-6.6,3.1c-1.3,2.9-0.5,4.6,0.3,5.4c0.3,0.3,0.1,0.7-0.2,0.8c-1,0.3-2.2,1.1-2.1,3.3c0.2,3.1,3.6,2.8,4.6,2.7
	c0.2,0,0.3,0,0.4,0.2c0.8,0.9,4.6,4.9,8.8,5.4c0.4,0,0.6-0.3,0.5-0.6L52,92.3c-0.1-0.2,0-0.5,0.3-0.6L53.1,91.2z"/>
<linearGradient id="SVGID_26_" gradientUnits="userSpaceOnUse" x1="321.9451" y1="-407.9814" x2="351.7081" y2="-426.4604" gradientTransform="matrix(1 0 0 -1 0 -147.5669)">
	<stop  offset="0" style="stop-color:#FEBBBA"/>
	<stop  offset="1" style="stop-color:#FF928E"/>
</linearGradient>
<path class="st59" d="M53.9,92c0,0-4.5-3.1-4.8-0.5c-0.3,2.6,4,3.7,6.2,2.8L53.9,92z"/>
<circle class="st60" cx="346.6" cy="190.6" r="4.5"/>
<circle class="st60" cx="319.6" cy="190.6" r="4.5"/>
<circle class="st60" cx="332.6" cy="190.6" r="4.5"/>
<path class="st61" d="M839.1,142.1h91c12.7,0,23,10.3,23,23v36c0,12.7-10.3,23-23,23h-91c-12.7,0-23-10.3-23-23v-36
	C816.1,152.4,826.4,142.1,839.1,142.1z"/>
<path class="st61" d="M294.1,80.1h3c14.9,0,27,12.1,27,27l0,0c0,14.9-12.1,27-27,27h-3c-14.9,0-27-12.1-27-27l0,0
	C267.1,92.2,279.2,80.1,294.1,80.1z"/>
<path class="st8" d="M837.6,165.1h57c3.6,0,6.5,2.9,6.5,6.5l0,0c0,3.6-2.9,6.5-6.5,6.5h-57c-3.6,0-6.5-2.9-6.5-6.5l0,0
	C831.1,168,834,165.1,837.6,165.1z"/>
<path class="st8" d="M283.1,97.1h13c2.2,0,4,1.8,4,4l0,0c0,2.2-1.8,4-4,4h-13c-2.2,0-4-1.8-4-4l0,0
	C279.1,98.9,280.9,97.1,283.1,97.1z"/>
<path class="st8" d="M837.6,185.1h94c3.6,0,6.5,2.9,6.5,6.5l0,0c0,3.6-2.9,6.5-6.5,6.5h-94c-3.6,0-6.5-2.9-6.5-6.5l0,0
	C831.1,188,834,185.1,837.6,185.1z"/>
<path class="st8" d="M283.1,109.1h24c2.2,0,4,1.8,4,4l0,0c0,2.2-1.8,4-4,4h-24c-2.2,0-4-1.8-4-4l0,0
	C279.1,110.9,280.9,109.1,283.1,109.1z"/>
</svg>
