<?xml version="1.0" encoding="utf-8"?>
<!-- Generator: Adobe Illustrator 25.2.1, SVG Export Plug-In . SVG Version: 6.00 Build 0)  -->
<svg version="1.1" id="Layer_1" xmlns="http://www.w3.org/2000/svg" xmlns:xlink="http://www.w3.org/1999/xlink" x="0px" y="0px"
	 width="547px" height="491px" viewBox="0 0 547 491" style="enable-background:new 0 0 547 491;" xml:space="preserve">
<style type="text/css">
	.st0{fill:none;stroke:#AFC3EC;stroke-linecap:round;}
	.st1{fill:none;stroke:#0D51D9;stroke-width:18;}
	.st2{fill:none;stroke:#0D51D9;stroke-width:3;}
	.st3{fill-rule:evenodd;clip-rule:evenodd;fill:#FFFFFF;}
	.st4{fill-rule:evenodd;clip-rule:evenodd;fill:#DEE0E1;}
	.st5{fill-rule:evenodd;clip-rule:evenodd;fill:#FFFFFF;filter:url(#Adobe_OpacityMaskFilter);}
	.st6{mask:url(#path-1-inside-1_3543_55657_1_);fill:#F5F5F5;}
	.st7{fill-rule:evenodd;clip-rule:evenodd;fill:#FFFFFF;filter:url(#Adobe_OpacityMaskFilter_1_);}
	.st8{mask:url(#path-1-inside-1_3543_55664_1_);fill:#F5F5F5;}
	.st9{fill:#DEE0E1;stroke:#F5F5F5;stroke-width:5.5;}
</style>
<path class="st0" d="M-103.8,22.7c-90.9,14.9-152.5,101.1-137.6,192.4s100.8,153.4,191.8,138.5C41.3,338.7,102.9,252.5,88,161.2"/>
<path class="st1" d="M65.8,87C51.5,89.3,38.2,79.8,36,65.9C33.7,52,43.3,38.7,57.5,36.4c14.3-2.3,27.6,7.2,29.8,21.1
	C89.6,71.4,80.1,84.7,65.8,87z"/>
<circle class="st2" cx="91.4" cy="299.4" r="7.9"/>
<g>
	<path class="st3" d="M78.8,449.1l-62.1,28.2c-2.4,1.1-5.3,0-6.4-2.4l-19.7-43.2l44,9.7c1.1,0.2,2.1,0.1,3.1-0.3
		c0.9-0.4,1.7-1.1,2.3-2.1l21.6-39.5l19.7,43.2C82.3,445.1,81.2,448,78.8,449.1z M51.6,397.2l-18.5,33.8l-37.7-8.3L51.6,397.2z
		 M50.5,387l-62.1,28.2c-7.3,3.3-10.6,12-7.2,19.3l20.2,44.3c3.3,7.3,12,10.6,19.3,7.2l62.1-28.2c7.3-3.3,10.6-12,7.2-19.3
		l-20.2-44.3C66.6,386.9,57.9,383.7,50.5,387z"/>
	<path class="st4" d="M78.8,449.1l-62.1,28.2c-2.4,1.1-5.3,0-6.4-2.4l-19.7-43.2l44,9.7c1.1,0.2,2.1,0.1,3.1-0.3
		c0.9-0.4,1.7-1.1,2.3-2.1l21.6-39.5l19.7,43.2C82.3,445.1,81.2,448,78.8,449.1z M51.6,397.2l-18.5,33.8l-37.7-8.3L51.6,397.2z
		 M50.5,387l-62.1,28.2c-7.3,3.3-10.6,12-7.2,19.3l20.2,44.3c3.3,7.3,12,10.6,19.3,7.2l62.1-28.2c7.3-3.3,10.6-12,7.2-19.3
		l-20.2-44.3C66.6,386.9,57.9,383.7,50.5,387z"/>
	<defs>
		<filter id="Adobe_OpacityMaskFilter" filterUnits="userSpaceOnUse" x="-23.6" y="382.2" width="118.4" height="108.8">
			<feColorMatrix  type="matrix" values="1 0 0 0 0  0 1 0 0 0  0 0 1 0 0  0 0 0 1 0"/>
		</filter>
	</defs>
	<mask maskUnits="userSpaceOnUse" x="-23.6" y="382.2" width="118.4" height="108.8" id="path-1-inside-1_3543_55657_1_">
		<path class="st5" d="M78.8,449.1l-62.1,28.2c-2.4,1.1-5.3,0-6.4-2.4l-19.7-43.2l44,9.7c1.1,0.2,2.1,0.1,3.1-0.3
			c0.9-0.4,1.7-1.1,2.3-2.1l21.6-39.5l19.7,43.2C82.3,445.1,81.2,448,78.8,449.1z M51.6,397.2l-18.5,33.8l-37.7-8.3L51.6,397.2z
			 M50.5,387l-62.1,28.2c-7.3,3.3-10.6,12-7.2,19.3l20.2,44.3c3.3,7.3,12,10.6,19.3,7.2l62.1-28.2c7.3-3.3,10.6-12,7.2-19.3
			l-20.2-44.3C66.6,386.9,57.9,383.7,50.5,387z"/>
	</mask>
	<path class="st6" d="M-9.4,431.7l0.8-3.4l-6.8-1.5l2.9,6.4L-9.4,431.7z M34.6,441.4l0.8-3.4l0,0L34.6,441.4z M39.9,438.9l-3.1-1.7
		l0,0L39.9,438.9z M61.5,399.4l3.2-1.4l-2.9-6.4l-3.4,6.1L61.5,399.4z M51.6,397.2l3.1,1.7l5-9.2l-9.6,4.3L51.6,397.2z M33.1,431.1
		l-0.8,3.4l2.6,0.6l1.3-2.3L33.1,431.1z M-4.5,422.8l-1.4-3.2l-9.6,4.3l10.3,2.3L-4.5,422.8z M20.8,486.2l1.4,3.2L20.8,486.2z
		 M82.8,457.9l-1.4-3.2L82.8,457.9z M77.3,445.9l-62.1,28.2l2.9,6.4l62.1-28.2L77.3,445.9z M15.3,474.1c-0.7,0.3-1.5,0-1.8-0.7
		l-6.4,2.9c1.9,4.2,6.9,6.1,11.1,4.2L15.3,474.1z M13.5,473.5l-19.7-43.2l-6.4,2.9l19.7,43.2L13.5,473.5z M-10.1,435.1l44,9.7
		l1.5-6.8l-44-9.7L-10.1,435.1z M33.9,444.8c1.8,0.4,3.7,0.2,5.3-0.6l-2.9-6.4c-0.3,0.1-0.6,0.2-0.9,0.1L33.9,444.8z M39.1,444.2
		c1.6-0.7,3-2,3.9-3.6l-6.1-3.3c-0.1,0.3-0.4,0.5-0.6,0.6L39.1,444.2z M43,440.6l21.6-39.5l-6.1-3.4l-21.6,39.5L43,440.6z
		 M58.4,400.9L78,444.1l6.4-2.9L64.7,398L58.4,400.9z M78,444.1c0.3,0.7,0,1.5-0.7,1.8l2.9,6.4c4.2-1.9,6.1-6.9,4.2-11.1L78,444.1z
		 M48.6,395.6l-18.5,33.8l6.1,3.4l18.5-33.8L48.6,395.6z M33.9,427.6l-37.7-8.3l-1.5,6.8l37.7,8.3L33.9,427.6z M-3.1,426l56.1-25.6
		l-2.9-6.4L-6,419.6L-3.1,426z M49.1,383.8L-13,412.1l2.9,6.4L52,390.2L49.1,383.8z M-13,412.1c-9.1,4.1-13.1,14.9-9,24l6.4-2.9
		c-2.5-5.6-0.1-12.2,5.5-14.7L-13,412.1z M-21.9,436.1l20.2,44.3l6.4-2.9l-20.2-44.3L-21.9,436.1z M-1.8,480.4
		c4.1,9.1,14.9,13.1,24,9l-2.9-6.4c-5.6,2.5-12.2,0.1-14.7-5.5L-1.8,480.4z M22.2,489.4l62.1-28.2l-2.9-6.4L19.3,483L22.2,489.4z
		 M84.3,461.1c9.1-4.1,13.1-14.9,9-24l-6.4,2.9c2.5,5.6,0.1,12.2-5.5,14.7L84.3,461.1z M93.3,437.1l-20.2-44.3l-6.4,2.9L86.9,440
		L93.3,437.1z M73.1,392.8c-4.1-9.1-14.9-13.1-24-9l2.9,6.4c5.6-2.5,12.2-0.1,14.7,5.5L73.1,392.8z"/>
</g>
<g>
	<path class="st3" d="M203.5,323.4c-28.1,0-50.9-22.8-50.9-50.9c0-5.4,4.4-9.9,9.9-9.9c0.4,0,0.8,0,1.2,0.1l4,17.6
		c-0.5,0.3-1,0.5-1.6,0.8l0,0l-0.5,0.3c-3.3,1.7-5.9,3.1-4.5,6c4.5,12.7,14.7,23,27.3,27.4c3.2,1.3,4.4-1.1,6.2-4.4l0,0
		c0.2-0.4,0.4-0.8,0.6-1.1l0,0c0.2-0.3,0.3-0.6,0.5-0.9l17.6,4c0.1,0.4,0.1,0.8,0.1,1.2C213.3,319,208.9,323.4,203.5,323.4z
		 M220,307.9c-0.4-1.2-1.5-2.2-2.7-2.5l-22.7-5.2c-1.3-0.3-2.6,0.1-3.5,1c-0.5,0.5-0.6,0.5-3,5.2c-8.1-3.7-14.7-10.3-18.5-18.6
		c4.7-2.5,4.7-2.5,5.2-3c0.9-0.9,1.2-2.2,1-3.5l-5.2-22.7c-0.3-1.3-1.2-2.3-2.5-2.7c-0.9-0.3-1.8-0.5-2.8-0.7
		c-0.9-0.2-1.9-0.2-2.9-0.2c-9.6,0-17.5,7.8-17.5,17.5c0,32.3,26.3,58.5,58.5,58.5c9.6,0,17.5-7.8,17.5-17.5c0-1-0.1-1.9-0.2-2.9
		C220.5,309.7,220.3,308.8,220,307.9z M186.7,277.8c6.3,0,11.4,5.1,11.4,11.4c0,2.1,1.7,3.8,3.8,3.8s3.8-1.7,3.8-3.8
		c0-10.5-8.5-19-19-19c-2.1,0-3.8,1.7-3.8,3.8C182.9,276.1,184.6,277.8,186.7,277.8z M213.3,289.2c0-14.7-11.9-26.6-26.6-26.6
		c-2.1,0-3.8-1.7-3.8-3.8c0-2.1,1.7-3.8,3.8-3.8c18.9,0,34.2,15.3,34.2,34.2c0,2.1-1.7,3.8-3.8,3.8C215,293,213.3,291.3,213.3,289.2
		z"/>
	<path class="st4" d="M203.5,323.4c-28.1,0-50.9-22.8-50.9-50.9c0-5.4,4.4-9.9,9.9-9.9c0.4,0,0.8,0,1.2,0.1l4,17.6
		c-0.5,0.3-1,0.5-1.6,0.8l0,0l-0.5,0.3c-3.3,1.7-5.9,3.1-4.5,6c4.5,12.7,14.7,23,27.3,27.4c3.2,1.3,4.4-1.1,6.2-4.4l0,0
		c0.2-0.4,0.4-0.8,0.6-1.1l0,0c0.2-0.3,0.3-0.6,0.5-0.9l17.6,4c0.1,0.4,0.1,0.8,0.1,1.2C213.3,319,208.9,323.4,203.5,323.4z
		 M220,307.9c-0.4-1.2-1.5-2.2-2.7-2.5l-22.7-5.2c-1.3-0.3-2.6,0.1-3.5,1c-0.5,0.5-0.6,0.5-3,5.2c-8.1-3.7-14.7-10.3-18.5-18.6
		c4.7-2.5,4.7-2.5,5.2-3c0.9-0.9,1.2-2.2,1-3.5l-5.2-22.7c-0.3-1.3-1.2-2.3-2.5-2.7c-0.9-0.3-1.8-0.5-2.8-0.7
		c-0.9-0.2-1.9-0.2-2.9-0.2c-9.6,0-17.5,7.8-17.5,17.5c0,32.3,26.3,58.5,58.5,58.5c9.6,0,17.5-7.8,17.5-17.5c0-1-0.1-1.9-0.2-2.9
		C220.5,309.7,220.3,308.8,220,307.9z M186.7,277.8c6.3,0,11.4,5.1,11.4,11.4c0,2.1,1.7,3.8,3.8,3.8s3.8-1.7,3.8-3.8
		c0-10.5-8.5-19-19-19c-2.1,0-3.8,1.7-3.8,3.8C182.9,276.1,184.6,277.8,186.7,277.8z M213.3,289.2c0-14.7-11.9-26.6-26.6-26.6
		c-2.1,0-3.8-1.7-3.8-3.8c0-2.1,1.7-3.8,3.8-3.8c18.9,0,34.2,15.3,34.2,34.2c0,2.1-1.7,3.8-3.8,3.8C215,293,213.3,291.3,213.3,289.2
		z"/>
	<defs>
		<filter id="Adobe_OpacityMaskFilter_1_" filterUnits="userSpaceOnUse" x="142.4" y="252.5" width="81" height="81">
			<feColorMatrix  type="matrix" values="1 0 0 0 0  0 1 0 0 0  0 0 1 0 0  0 0 0 1 0"/>
		</filter>
	</defs>
	<mask maskUnits="userSpaceOnUse" x="142.4" y="252.5" width="81" height="81" id="path-1-inside-1_3543_55664_1_">
		<path class="st7" d="M203.5,323.4c-28.1,0-50.9-22.8-50.9-50.9c0-5.4,4.4-9.9,9.9-9.9c0.4,0,0.8,0,1.2,0.1l4,17.6
			c-0.5,0.3-1,0.5-1.6,0.8l0,0l-0.5,0.3c-3.3,1.7-5.9,3.1-4.5,6c4.5,12.7,14.7,23,27.3,27.4c3.2,1.3,4.4-1.1,6.2-4.4l0,0
			c0.2-0.4,0.4-0.8,0.6-1.1l0,0c0.2-0.3,0.3-0.6,0.5-0.9l17.6,4c0.1,0.4,0.1,0.8,0.1,1.2C213.3,319,208.9,323.4,203.5,323.4z
			 M220,307.9c-0.4-1.2-1.5-2.2-2.7-2.5l-22.7-5.2c-1.3-0.3-2.6,0.1-3.5,1c-0.5,0.5-0.6,0.5-3,5.2c-8.1-3.7-14.7-10.3-18.5-18.6
			c4.7-2.5,4.7-2.5,5.2-3c0.9-0.9,1.2-2.2,1-3.5l-5.2-22.7c-0.3-1.3-1.2-2.3-2.5-2.7c-0.9-0.3-1.8-0.5-2.8-0.7
			c-0.9-0.2-1.9-0.2-2.9-0.2c-9.6,0-17.5,7.8-17.5,17.5c0,32.3,26.3,58.5,58.5,58.5c9.6,0,17.5-7.8,17.5-17.5c0-1-0.1-1.9-0.2-2.9
			C220.5,309.7,220.3,308.8,220,307.9z M186.7,277.8c6.3,0,11.4,5.1,11.4,11.4c0,2.1,1.7,3.8,3.8,3.8s3.8-1.7,3.8-3.8
			c0-10.5-8.5-19-19-19c-2.1,0-3.8,1.7-3.8,3.8C182.9,276.1,184.6,277.8,186.7,277.8z M213.3,289.2c0-14.7-11.9-26.6-26.6-26.6
			c-2.1,0-3.8-1.7-3.8-3.8c0-2.1,1.7-3.8,3.8-3.8c18.9,0,34.2,15.3,34.2,34.2c0,2.1-1.7,3.8-3.8,3.8
			C215,293,213.3,291.3,213.3,289.2z"/>
	</mask>
	<path class="st8" d="M163.7,262.7l2.4-0.6l-0.4-1.7l-1.7-0.2L163.7,262.7z M167.7,280.3l1.2,2.2l1.7-0.9l-0.4-1.9L167.7,280.3z
		 M166.1,281.1l1.2,2.2l0,0L166.1,281.1z M166.1,281.1l-1.2-2.2l0,0L166.1,281.1z M165.7,281.4l1.2,2.2l0,0L165.7,281.4z
		 M161.1,287.4l2.4-0.8l0-0.1l0-0.1L161.1,287.4z M188.4,314.8l0.9-2.3l-0.1,0l-0.1,0L188.4,314.8z M194.6,310.4l-2.2-1.2l0,0
		L194.6,310.4z M194.6,310.4l-2.2-1.2l0,0L194.6,310.4z M195.2,309.2l-2.2-1.2l0,0L195.2,309.2z M195.2,309.2l2.2,1.2l0,0
		L195.2,309.2z M195.7,308.3l0.6-2.4l-1.9-0.4l-0.9,1.7L195.7,308.3z M213.3,312.3l2.5-0.3l-0.2-1.7l-1.7-0.4L213.3,312.3z
		 M217.3,305.4l-0.6,2.4l0,0L217.3,305.4z M220,307.9l2.4-0.8l0,0L220,307.9z M194.6,300.2l0.6-2.4l0,0L194.6,300.2z M191.1,301.2
		l1.7,1.8l0,0l0,0L191.1,301.2z M188.1,306.5l-1,2.3l2.2,1l1.1-2.1L188.1,306.5z M169.5,287.9l-1.2-2.2l-2.1,1.1l1,2.2L169.5,287.9z
		 M174.8,284.9l1.8,1.7l0,0L174.8,284.9z M175.7,281.4l2.4-0.6l0,0L175.7,281.4z M170.5,258.7l-2.4,0.6l0,0L170.5,258.7z M168.1,256
		l0.8-2.4l0,0L168.1,256z M165.3,255.3l-0.4,2.5l0,0l0,0L165.3,255.3z M220.7,310.7l-2.5,0.4l0,0l0,0L220.7,310.7z M150,272.5
		c0,29.5,24,53.4,53.4,53.4v-5c-26.7,0-48.4-21.7-48.4-48.4H150z M162.4,260.1c-6.8,0-12.4,5.6-12.4,12.4h5c0-4.1,3.3-7.4,7.4-7.4
		V260.1z M164,260.2c-0.5-0.1-1-0.1-1.6-0.1v5c0.3,0,0.6,0,0.9,0.1L164,260.2z M170.1,279.7l-4-17.6l-4.9,1.1l4,17.6L170.1,279.7z
		 M167.3,283.3c0.5-0.3,1.1-0.6,1.5-0.8l-2.3-4.4c-0.5,0.3-1,0.5-1.6,0.8L167.3,283.3z M167.3,283.3L167.3,283.3l-2.3-4.4l0,0
		L167.3,283.3z M166.8,283.6l0.5-0.3l-2.3-4.4l-0.5,0.3L166.8,283.6z M163.4,286.4c-0.2-0.4-0.1-0.5-0.1-0.5c0,0,0,0,0.2-0.2
		c0.2-0.2,0.6-0.5,1.2-0.9c0.6-0.4,1.3-0.7,2.1-1.2l-2.3-4.4c-1.5,0.8-3.4,1.7-4.6,3c-0.7,0.7-1.3,1.6-1.5,2.8
		c-0.2,1.2,0,2.4,0.5,3.4L163.4,286.4z M189.3,312.4c-11.8-4.2-21.5-13.8-25.8-25.9l-4.7,1.7c4.7,13.4,15.5,24.3,28.8,28.9
		L189.3,312.4z M192.4,309.2c-0.4,0.8-0.8,1.5-1.2,2.1c-0.4,0.6-0.6,0.9-0.8,1.1c-0.2,0.2-0.3,0.2-0.3,0.2c0,0-0.2,0-0.8-0.2
		l-1.9,4.6c1.1,0.4,2.2,0.6,3.4,0.5c1.2-0.2,2.1-0.7,2.9-1.4c1.3-1.2,2.3-3.1,3.1-4.6L192.4,309.2z M192.4,309.2L192.4,309.2
		l4.4,2.4l0,0L192.4,309.2z M193,308.1c-0.2,0.4-0.4,0.8-0.6,1.1l4.4,2.3c0.2-0.4,0.4-0.8,0.6-1.2L193,308.1z M193,308.1L193,308.1
		l4.4,2.3l0,0L193,308.1z M193.5,307.1c-0.2,0.3-0.3,0.6-0.5,0.9l4.4,2.3c0.2-0.3,0.3-0.6,0.5-0.9L193.5,307.1z M213.8,309.9
		l-17.6-4l-1.1,4.9l17.6,4L213.8,309.9z M215.8,313.6c0-0.5,0-1.1-0.1-1.6l-5,0.7c0,0.3,0.1,0.6,0.1,0.9H215.8z M203.5,325.9
		c6.8,0,12.4-5.6,12.4-12.4h-5c0,4.1-3.3,7.4-7.4,7.4V325.9z M216.7,307.9c0.4,0.1,0.8,0.4,0.9,0.8l4.7-1.6c-0.7-2-2.4-3.6-4.5-4.1
		L216.7,307.9z M194,302.7l22.7,5.2l1.1-4.9l-22.7-5.2L194,302.7z M192.8,303c0.3-0.3,0.8-0.4,1.2-0.3l1.1-4.9
		c-2.1-0.5-4.2,0.1-5.8,1.6L192.8,303z M190.3,307.6c1.3-2.4,1.8-3.5,2.2-4.1c0.2-0.3,0.2-0.4,0.2-0.4c0,0,0,0,0,0c0,0,0,0,0,0
		c0,0,0,0,0.1-0.1l-3.4-3.6c-0.1,0.1-0.4,0.3-0.6,0.6c-0.2,0.3-0.4,0.6-0.6,1c-0.4,0.7-1.1,2-2.3,4.3L190.3,307.6z M167.3,288.9
		c4.1,8.8,11.1,15.8,19.8,19.8l2.1-4.6c-7.5-3.4-13.7-9.6-17.3-17.3L167.3,288.9z M173,283.1c-0.1,0.1-0.1,0.1-0.1,0.1c0,0,0,0,0,0
		c0,0-0.1,0.1-0.4,0.2c-0.6,0.3-1.7,0.9-4.1,2.2l2.3,4.4c2.3-1.2,3.6-1.9,4.3-2.3c0.4-0.2,0.7-0.4,1-0.6c0.3-0.2,0.5-0.5,0.6-0.6
		L173,283.1z M173.3,282c0.1,0.4,0,0.9-0.3,1.2l3.6,3.5c1.5-1.5,2.1-3.7,1.6-5.8L173.3,282z M168.1,259.3l5.2,22.7l4.9-1.1
		l-5.2-22.7L168.1,259.3z M167.3,258.4c0.4,0.1,0.7,0.5,0.8,0.9l4.9-1.1c-0.5-2.1-2-3.8-4.1-4.5L167.3,258.4z M164.9,257.8
		c0.8,0.1,1.6,0.3,2.3,0.6l1.6-4.7c-1-0.4-2.1-0.6-3.2-0.8L164.9,257.8z M162.4,257.5c0.8,0,1.7,0.1,2.5,0.2l0.9-4.9
		c-1.1-0.2-2.2-0.3-3.3-0.3V257.5z M147.4,272.5c0-8.3,6.7-15,15-15v-5c-11,0-20,9-20,20H147.4z M203.5,328.5c-30.9,0-56-25.1-56-56
		h-5c0,33.7,27.4,61,61,61V328.5z M218.4,313.6c0,8.3-6.7,15-15,15v5c11,0,20-9,20-20H218.4z M218.2,311.1c0.1,0.8,0.2,1.6,0.2,2.5
		h5c0-1.1-0.1-2.2-0.3-3.3L218.2,311.1z M217.6,308.7c0.3,0.8,0.5,1.5,0.6,2.4l4.9-0.8c-0.2-1.1-0.4-2.2-0.8-3.2L217.6,308.7z
		 M200.6,289.2c0-7.7-6.2-13.9-13.9-13.9v5c4.9,0,8.9,4,8.9,8.9H200.6z M201.9,290.5c-0.7,0-1.3-0.6-1.3-1.3h-5
		c0,3.5,2.8,6.3,6.3,6.3V290.5z M203.2,289.2c0,0.7-0.6,1.3-1.3,1.3v5c3.5,0,6.3-2.8,6.3-6.3H203.2z M186.7,272.7
		c9.1,0,16.5,7.4,16.5,16.5h5c0-11.9-9.6-21.5-21.5-21.5V272.7z M185.4,274c0-0.7,0.6-1.3,1.3-1.3v-5c-3.5,0-6.3,2.8-6.3,6.3H185.4z
		 M186.7,275.3c-0.7,0-1.3-0.6-1.3-1.3h-5c0,3.5,2.8,6.3,6.3,6.3V275.3z M186.7,265.1c13.3,0,24.1,10.8,24.1,24.1h5
		c0-16-13.1-29.1-29.1-29.1V265.1z M180.4,258.8c0,3.5,2.8,6.3,6.3,6.3v-5c-0.7,0-1.3-0.6-1.3-1.3H180.4z M186.7,252.5
		c-3.5,0-6.3,2.8-6.3,6.3h5c0-0.7,0.6-1.3,1.3-1.3V252.5z M223.4,289.2c0-20.2-16.5-36.7-36.7-36.7v5c17.5,0,31.7,14.2,31.7,31.7
		H223.4z M217.1,295.5c3.5,0,6.3-2.8,6.3-6.3h-5c0,0.7-0.6,1.3-1.3,1.3V295.5z M210.8,289.2c0,3.5,2.8,6.3,6.3,6.3v-5
		c-0.7,0-1.3-0.6-1.3-1.3H210.8z"/>
</g>
<g>
	<path class="st9" d="M30.5,143.2c0,0.4,0.1,1,0.3,1.7l0,0c0.9,5.1,0,10.3-2.6,14.8l-2.2,3.8l4.4,0.3c5,0.3,9.8,2.4,13.5,5.8
		c0.9,0.8,1.6,1.4,2.1,1.9l0,0l0,0c1.8,1.6,4.5,3.8,7.3,6c2.7,2.1,5.8,4.2,8.2,5.3l3.1-4.4l-1.5-1.5c9.1-11.8,26.4-15.5,42.9-9.1
		l2.4,0.9l1.1-2.3c7.5-16.1,0-37.5-18.3-49.8c-19.8-13.3-44.9-10.9-55.8,5.4C31.3,128,29.7,135.4,30.5,143.2z M56.8,191l0.3-2.1
		l-1.9-0.9c-5.4-2.4-9.8-6.2-14.6-10.4c-0.8-0.7-1.5-1.4-2.3-2.1l0,0c-2.4-2.2-5.5-3.5-8.7-3.7h0l-15.3-0.8l0,0l0,0
		c-0.6,0-1.2-0.2-1.6-0.6l0,0l0,0c-0.3-0.2-0.5-0.5-0.7-0.8c-0.2-0.3-0.3-0.6-0.3-1c0-0.4,0-0.7,0.1-1c0.1-0.3,0.3-0.7,0.5-0.9
		c0,0,0,0,0,0l7.7-9.6l0,0c1.2-1.5,2.1-3.3,2.6-5.1s0.5-3.8,0.2-5.7l0,0c-0.1-0.7-0.3-1.5-0.3-2.2c-1.1-9.5,0.9-18.8,6.2-26.8
		c13.3-19.8,43.3-23.7,67.3-7.6c22.3,15,30.5,41.4,20.8,60.9l-1,2.1l1.8,1.4c17.8,13.2,23.2,35.4,13.1,50.3
		c-4.2,6.2-10.4,10.4-17.7,12.4l0,0l0,0c-0.4,0.1-1,0.3-1.7,0.4c-1.6,0.3-3.1,1-4.4,1.9c-1.3,1-2.4,2.2-3.2,3.6l0,0l-4.8,8.6
		c0,0,0,0,0,0c-0.1,0.2-0.2,0.3-0.4,0.5c-0.2,0.1-0.4,0.2-0.6,0.3c-0.2,0.1-0.4,0.1-0.6,0l-0.4,2.7l0.4-2.7c-0.2,0-0.4-0.1-0.6-0.2
		l0,0l0,0c-0.3-0.2-0.6-0.5-0.8-0.8l0,0l0,0l-5.3-11.2l0,0c-1.2-2.5-3.2-4.5-5.6-5.6l0,0c-0.9-0.4-1.6-0.8-2.2-1.1
		c-1.9-0.9-3.7-2-5.5-3.2C62.4,220.1,54.8,204.7,56.8,191z M100.2,233.7c2.6-2.4,5.8-4,9.3-4.7c0.5-0.1,0.9-0.2,1.2-0.3
		c5.5-1.5,10-4.6,13-9c8.1-12,2.3-30.1-12.7-40.2c-15-10.1-33.9-8.7-42,3.3c-8.1,12-2.3,30.1,12.7,40.2c1.2,0.8,2.5,1.6,3.7,2.2
		l0,0.1l2.9,1.4c3.1,1.5,5.8,3.7,7.8,6.5l1.8,2.5L100.2,233.7z"/>
</g>
</svg>
