<?xml version="1.0" encoding="utf-8"?>
<!-- Generator: Adobe Illustrator 25.2.1, SVG Export Plug-In . SVG Version: 6.00 Build 0)  -->
<svg version="1.1" id="Layer_1" xmlns="http://www.w3.org/2000/svg" xmlns:xlink="http://www.w3.org/1999/xlink" x="0px" y="0px"
	 width="461px" height="470px" viewBox="0 0 461 470" style="enable-background:new 0 0 461 470;" xml:space="preserve">
<style type="text/css">
	.st0{fill:none;stroke:#AFC3EC;stroke-linecap:round;}
	.st1{fill:none;stroke:#0D51D9;stroke-width:18;}
	.st2{fill:none;stroke:#0D51D9;stroke-width:3;stroke-miterlimit:4.0001;}
	.st3{clip-path:url(#SVGID_2_);}
	.st4{fill:#F5F5F5;}
	.st5{fill:#263238;}
	.st6{fill:#FFBF9D;}
	.st7{fill:#FF9A6C;}
	.st8{fill:#455A64;}
	.st9{fill:#FFFFFF;}
	.st10{fill:#0D51D9;}
	.st11{fill:#E0E0E0;}
</style>
<path class="st0" d="M551.6,318.7c91.8,7.9,172.7-60.4,180.7-152.7S672.3-7.5,580.5-15.4S407.8,45,399.8,137.3"/>
<path class="st1" d="M403,214.5c14.4,1.2,24.9,13.8,23.7,27.8c-1.2,14-13.7,24.5-28.1,23.3s-24.9-13.8-23.7-27.8
	C376.1,223.8,388.6,213.3,403,214.5z"/>
<ellipse class="st2" cx="430.5" cy="2.5" rx="7.9" ry="7.9"/>
<g>
	<g>
		<defs>
			<rect id="SVGID_1_" x="146" y="233" width="298" height="236"/>
		</defs>
		<clipPath id="SVGID_2_">
			<use xlink:href="#SVGID_1_"  style="overflow:visible;"/>
		</clipPath>
		<g class="st3">
			<path class="st4" d="M296.7,270.6c10-4.2,14.6-15.7,10.4-25.7c-4.2-10-15.7-14.6-25.7-10.4c-10,4.2-14.6,15.7-10.4,25.7
				C275.2,270.2,286.7,274.8,296.7,270.6z"/>
			<path class="st5" d="M221.9,256.1c-7.3-1.2-13.8,1.6-20,5.7c-6.2,4.1-10.8,10.4-13.5,17.3c-2.8,7.3-3.5,15.5-1.3,23.1
				c2.2,7.5,7.3,14.3,14.3,17.8c9.5,4.8,21.7,3.2,30.3-3.3c8.5-6.5,13.4-17.1,13.8-27.8c0.3-7.4-1.5-14.9-5.6-21
				C235.7,261.8,229.2,257.2,221.9,256.1"/>
			<path class="st5" d="M201,281.1c1.1-2.8,0.7-5.9,1.1-8.9c0.9-6.6,6.2-11.8,12.3-14.4c5.7-2.4,12.6-1.9,19.5,0.4
				c4.7,1.5,9.1,4.2,12.2,8c2.1,2.6,3.5,5.6,4.1,8.8c0.7,3.2,0.5,6.5-0.4,9.7l-33.5-4.9c-3.1,2.6-6.3,5.2-10.2,6.7
				c-1.1,0.5-2.3,0.7-3.5,0.6c-0.6-0.1-1.2-0.3-1.6-0.7s-0.8-0.9-1-1.5C199.8,283.6,200.6,282.3,201,281.1z"/>
			<path class="st6" d="M234.6,267.4l-29.3,6.2c-1.4,0.1-2.6,0.7-3.6,1.7c-0.9,1-1.5,2.3-1.5,3.7l0.4,63.3c0,4.3,1.5,8.5,4.1,11.9
				l2.8,3.6c6.4,8.2,19.2,7.4,24.1-1.8c0.3-0.5,0.5-1.1,0.7-1.7c0.1-0.5,0.2-1,0.3-1.4l0.6-6.2c0.3-5.6,0.3-11.4,0.3-11.3
				c0,0.1,12-1.5,15-16.9c1.5-7.7,1.6-20.4,1.4-30.7C249.6,278.5,243.9,266.8,234.6,267.4z"/>
			<path class="st5" d="M245.4,299.7c0,0.5-0.2,1-0.6,1.4c-0.4,0.4-0.9,0.6-1.4,0.6c-0.3,0-0.5,0-0.7-0.1c-0.2-0.1-0.5-0.2-0.6-0.4
				s-0.3-0.4-0.4-0.6c-0.1-0.2-0.2-0.5-0.2-0.7c0-0.5,0.2-1,0.6-1.4c0.4-0.4,0.9-0.6,1.4-0.6c0.3,0,0.5,0,0.7,0.1
				c0.2,0.1,0.5,0.2,0.6,0.4c0.2,0.2,0.3,0.4,0.4,0.6C245.3,299.2,245.4,299.4,245.4,299.7z"/>
			<path class="st5" d="M246.9,294.3c-0.3,0.3-1.7-0.9-3.9-1c-2.1-0.1-3.8,0.9-4,0.7c-0.1-0.1,0.2-0.6,0.9-1.1
				c1-0.6,2.1-0.9,3.2-0.8c1.1,0,2.2,0.4,3.1,1.1C246.8,293.7,247,294.2,246.9,294.3z"/>
			<path class="st5" d="M226.2,299.2c0,0.5-0.2,1-0.6,1.4c-0.4,0.4-0.9,0.6-1.4,0.6c-0.3,0-0.5,0-0.7-0.1c-0.2-0.1-0.5-0.2-0.6-0.4
				c-0.2-0.2-0.3-0.4-0.4-0.6c-0.1-0.2-0.2-0.5-0.2-0.7c0-0.5,0.2-1,0.6-1.4c0.4-0.4,0.9-0.6,1.4-0.6c0.3,0,0.5,0,0.7,0.1
				c0.2,0.1,0.5,0.2,0.6,0.4c0.2,0.2,0.3,0.4,0.4,0.6C226.1,298.7,226.2,299,226.2,299.2z"/>
			<path class="st5" d="M226.5,293.8c-0.3,0.3-1.7-0.9-3.9-1c-2.1-0.1-3.8,0.9-4,0.7c-0.1-0.1,0.2-0.6,0.9-1.1
				c1-0.6,2.1-0.9,3.2-0.8c1.1,0,2.2,0.4,3.1,1.1C226.4,293.2,226.6,293.7,226.5,293.8z"/>
			<path class="st5" d="M232.9,310.1c0-0.1,1.3-0.3,3.5-0.5c0.6,0,1.1-0.1,1.2-0.5c0.1-0.6,0-1.1-0.3-1.6c-0.5-1.3-0.9-2.7-1.5-4.2
				c-2-6-3.5-11-3.2-11c0.2-0.1,2.1,4.7,4.1,10.8c0.5,1.5,0.9,2.9,1.4,4.3c0.2,0.6,0.5,1.3,0.2,2.2c-0.1,0.2-0.2,0.4-0.4,0.5
				c-0.2,0.1-0.4,0.2-0.6,0.3c-0.3,0.1-0.6,0.1-0.9,0.1C234.3,310.2,232.9,310.2,232.9,310.1z"/>
			<path class="st7" d="M233.4,335.5c-7.3-0.2-14.4-2.4-20.6-6.4c0,0,4.8,11,20.4,10.1L233.4,335.5z"/>
			<path class="st7" d="M231.8,315.2c-0.4-0.5-0.9-1-1.5-1.2c-0.6-0.3-1.3-0.4-1.9-0.3c-0.5,0-0.9,0.1-1.4,0.3
				c-0.4,0.2-0.8,0.5-1.1,0.9c-0.3,0.3-0.5,0.8-0.5,1.2s0,0.9,0.3,1.3c0.5,0.8,1.7,1.1,2.8,0.8c1-0.3,2-0.8,2.8-1.5
				c0.2-0.2,0.5-0.4,0.6-0.6c0.1-0.1,0.1-0.3,0.1-0.4C232,315.5,231.9,315.4,231.8,315.2"/>
			<path class="st5" d="M226.6,311.3c0.4,0,0.3,2.3,2.2,4c1.9,1.7,4.4,1.6,4.4,1.9c0,0.2-0.6,0.4-1.6,0.4c-1.4,0-2.7-0.5-3.7-1.5
				c-1-0.9-1.6-2.1-1.7-3.4C226.1,311.9,226.4,311.3,226.6,311.3z"/>
			<path class="st5" d="M226.4,287.4c-0.2,0.6-2.4,0.2-4.9,0.4s-4.6,0.8-4.9,0.3c-0.1-0.3,0.2-0.8,1.1-1.3c1.1-0.7,2.4-1,3.7-1.1
				c1.3-0.1,2.6,0.1,3.8,0.6C226,286.7,226.5,287.1,226.4,287.4z"/>
			<path class="st5" d="M246.6,284.9c-0.4,0.5-1.8-0.1-3.6-0.2c-1.8-0.1-3.3,0.2-3.6-0.3c-0.1-0.3,0.1-0.7,0.8-1.2
				c0.9-0.5,1.9-0.8,3-0.7c1,0.1,2,0.5,2.9,1.1C246.6,284.2,246.8,284.7,246.6,284.9z"/>
			<path class="st5" d="M195.7,276.6c3-8.9,16.3-21.1,25.6-20.2l14.8,9.3c-0.5,2.5-1.8,4.9-3.5,6.8c-1.8,1.9-4,3.3-6.5,4.1
				c-2.7,0.8-5.9,0.9-7.5,3.2c-1.6,2.3-0.8,5.7-2.3,8.1c-2.1,3.3-7.8,3-9.4,6.6c-0.7,1.6-0.4,3.4-1.1,5c-1,2.1-6.3,4.6-8.5,3.9
				c-2.2-0.7-2.1-4.4-2.8-6.4c-1.2-3.3-0.6-5.1-0.2-6.9C195.3,285.5,194.2,280.8,195.7,276.6z"/>
			<path class="st6" d="M203.6,305.2c0-1.2-1.2-3.9-2.3-4.2c-3-0.6-8.5-0.6-8.9,7.2c-0.5,10.6,10.2,8.9,10.3,8.6
				S203.5,309.1,203.6,305.2z"/>
			<path class="st7" d="M199.6,312.6c0,0-0.2,0.1-0.5,0.2c-0.4,0.2-0.9,0.2-1.4,0c-1.1-0.5-2-2.3-1.9-4.2c0-0.9,0.2-1.8,0.6-2.6
				c0.1-0.3,0.3-0.6,0.6-0.9c0.3-0.2,0.6-0.4,0.9-0.5c0.2,0,0.4,0,0.6,0.1c0.2,0.1,0.3,0.3,0.4,0.5c0.1,0.3,0,0.5,0.1,0.5
				c0.1,0,0.2-0.2,0.2-0.6c0-0.3-0.2-0.5-0.4-0.7c-0.3-0.2-0.6-0.3-1-0.3c-0.4,0.1-0.9,0.2-1.2,0.5c-0.3,0.3-0.6,0.6-0.8,1
				c-0.5,0.9-0.8,1.9-0.8,2.9c0,2.1,1,4.2,2.5,4.7c0.3,0.1,0.6,0.1,0.9,0.1c0.3,0,0.6-0.1,0.8-0.3
				C199.6,312.9,199.7,312.6,199.6,312.6z"/>
			<path class="st5" d="M233,262.5c1,4.3,7.5,9.8,10.4,13.2c5.5,6.4,6.6,8.5,6.5,22.8c2.6-4.9,4.6-9.8,4.4-15.4
				c-0.2-5.6-2.3-11.2-6.1-15.2C244.3,263.9,238.6,261.7,233,262.5"/>
			<path class="st5" d="M206.5,250.4c-2.5-2.2-5.8-3.4-9.2-3.8c-4.8-0.7-9.8,0.3-14,2.8c-4,2.5-6.9,6.7-7.3,11.2
				c-0.2,2.3,0.3,4.6,1.3,6.7c1,2.1,2.6,3.8,4.6,5c-2.2,2.6-4.9,4.7-8.1,6.1c0.6,0.6,1.3,1.1,2,1.4c0.8,0.3,1.6,0.5,2.4,0.5
				c1.7,0,3.4-0.2,5-0.6c-0.9,1.8-2.5,3.3-4.4,4c2.8,0.3,5.6-0.1,8.1-1.2c2.5-1.1,4.9-2.5,7-4.1c7.5-5.6,11.4-10.1,16-17.9
				C210.6,257.2,209,252.6,206.5,250.4z"/>
			<path class="st8" d="M199.6,322.9c2.5,0,4.6-2.1,4.6-4.6c0-2.5-2.1-4.6-4.6-4.6c-2.5,0-4.6,2.1-4.6,4.6
				C195,320.9,197.1,322.9,199.6,322.9z"/>
			<path class="st5" d="M191.7,274.3c4.9-9.3,11.9-14.7,18.5-16.9L191.7,274.3z"/>
			<path class="st8" d="M210.2,257.4c-0.3,0.2-0.6,0.3-0.9,0.4c-0.6,0.2-1.5,0.6-2.5,1.1c-2.7,1.4-5.1,3.2-7.3,5.2
				c-2.2,2.1-4.1,4.4-5.8,6.9c-0.6,1-1.1,1.8-1.5,2.3c-0.2,0.3-0.3,0.6-0.5,0.9c0.1-0.3,0.3-0.6,0.5-0.9c0.3-0.6,0.8-1.4,1.4-2.4
				c1.6-2.6,3.5-4.9,5.7-7c2.2-2.1,4.7-3.9,7.4-5.2c0.8-0.4,1.7-0.8,2.5-1.1C209.6,257.6,209.9,257.5,210.2,257.4z"/>
			<path class="st8" d="M185.6,282.5c0,0,0,0,0.1,0l0.4,0.1c0.3,0.1,0.9,0.2,1.5,0.4c1.9,0.4,3.8,0.6,5.8,0.5
				c2.9-0.1,5.7-0.6,8.5-1.5c3.3-1.1,6.6-2.5,9.6-4.3c3.3-1.8,6.4-3.6,9.1-5.4c2.4-1.5,4.7-3.3,6.9-5.1c1.5-1.3,2.8-2.7,4.1-4.1
				c0.5-0.5,0.8-0.9,1-1.2l0.3-0.3c0,0,0.1-0.1,0.1-0.1c0,0,0,0.1-0.1,0.1l-0.2,0.3c-0.2,0.3-0.5,0.7-0.9,1.3
				c-1.2,1.5-2.6,2.9-4,4.2c-2.2,1.9-4.5,3.7-6.9,5.2c-2.7,1.8-5.8,3.6-9.1,5.4c-3.1,1.7-6.3,3.2-9.7,4.3c-2.8,0.9-5.6,1.4-8.5,1.4
				c-2,0-3.9-0.2-5.8-0.6c-0.5-0.1-1-0.3-1.5-0.4l-0.4-0.1C185.6,282.5,185.6,282.5,185.6,282.5z"/>
			<path class="st6" d="M275.5,379.6l17.7,32.3l25.9-14.5l12.6,4.2c0,0-31.8,34.5-37,36.3c-5.2,1.8-14.9,2.1-20.5-4.9
				c-5.1-6.4-19.9-39.8-19.9-39.8L275.5,379.6z"/>
			<path class="st8" d="M348.4,358.5c-0.2-0.3-0.5-0.5-0.9-0.6c-0.3-0.1-0.7-0.2-1.1-0.1l-12.3,1.7c-0.5,0.1-1,0.3-1.5,0.6
				c-0.5,0.3-0.8,0.7-1.1,1.1l-25.6,39.4l2,1.1l13.6-0.4l27.3-42.2L348.4,358.5z"/>
			<path class="st9" d="M339.6,363.6c0.1,0.2,0.2,0.3,0.4,0.3c0.2,0.1,0.4,0.1,0.5,0c0.2,0,0.3-0.1,0.5-0.3c0.1-0.1,0.2-0.3,0.2-0.5
				c0-0.2,0-0.4-0.1-0.5c-0.1-0.2-0.2-0.3-0.4-0.4c-0.2-0.1-0.4-0.1-0.5,0c-0.2,0-0.3,0.1-0.5,0.3c-0.1,0.1-0.2,0.3-0.3,0.5
				C339.4,363.3,339.5,363.4,339.6,363.6z"/>
			<path class="st5" d="M348.8,359c-0.8,0.2-1.6,0.4-2.4,0.5l-6.5,1l-4.5,0.7c-0.4,0-0.8,0.2-1.1,0.3c-0.3,0.2-0.6,0.5-0.8,0.8
				l-1.5,2.3l-6.5,10.1c-4.7,7.1-8.9,13.6-12,18.2l-3.7,5.5c-0.4,0.7-0.9,1.3-1.4,2c0.3-0.7,0.7-1.4,1.2-2.1
				c0.9-1.4,2.1-3.3,3.5-5.6c3-4.7,7.2-11.2,11.8-18.4c2.3-3.6,4.6-7,6.6-10.1l1.5-2.3c0.3-0.4,0.6-0.7,1-0.9
				c0.4-0.2,0.9-0.4,1.3-0.4l4.5-0.6l6.6-0.8C347.2,359,348,359,348.8,359z"/>
			<path class="st6" d="M335.1,373c0,0-1.1-0.2-1.7,2.8s-2.6,11.6-2.6,11.6l-5.8-3.1l-7.2,0.9c0,0-1.6,1.5-0.4,2.2
				c1.2,0.8,5.7,1.6,5.7,1.6l3.4,4.8l-9.6-4.6c0,0-3.2,0.8-2.3,2.8c0.9,2,7.4,8.1,7.4,8.1l-4.8-0.4l-5.7-3.5c0,0-1.8,0.1-1.1,1.6
				c0.7,1.5,6.6,6.9,6.6,6.9l7.3,3.5c0,0,4-0.3,4.3-1.5c0.3-0.9,0.4-1.9,0.5-2.8c0,0,2.1-0.6,2.5-1.6c0.2-0.9,0.3-1.8,0.1-2.6
				c0,0,3.3,0.6,3.7-1.3c0.4-1.9,0.1-5.5-0.3-6.9c-0.3-1.4,1.4-14.5,1.3-14.9C336.2,376.5,337.1,372.2,335.1,373z"/>
			<path class="st7" d="M328.8,407c0,0.1-0.7,0.4-1.9,0.6c-3.2,0.5-6.5-0.3-9.1-2.2c-1-0.7-1.5-1.3-1.4-1.4c0.1-0.2,2.4,1.8,6,2.6
				C325.9,407.5,328.8,406.8,328.8,407z"/>
			<path class="st7" d="M327.1,404.4c-0.1,0.2-1.4-0.5-2.8-1.6c-1.4-1.1-2.3-2.3-2.1-2.4s1.3,0.7,2.6,1.8
				C326.1,403.3,327.2,404.2,327.1,404.4z"/>
			<path class="st7" d="M330.9,398.2c-0.1,0.2-1.4-0.5-2.7-1.7c-1.3-1.2-2-2.4-1.9-2.5c0.2-0.1,1.1,0.8,2.4,2
				C330,397.1,331,398,330.9,398.2z"/>
			<path class="st7" d="M334.9,393.1c-0.2,0.1-0.9-1.3-2.1-2.8c-1.1-1.5-2.3-2.5-2.1-2.7c0.1-0.2,1.5,0.7,2.7,2.3
				C334.6,391.5,335.1,393.1,334.9,393.1z"/>
			<path class="st10" d="M277.9,380.2c0,0-11.4-19-14.6-22.9c-2.5-3-5.7-5.3-9.3-6.9c-1.4-0.6-2.9-1.1-4.4-1.3l-16.4-3.6
				c0,0-0.1,7.4-11.9,7.9c-13.5,0.5-21.5-11.6-21.5-11.6s-18.9,2.9-23.5,5.3c-4.5,2.3-11.7,5.3-15.6,24.9l-2.8,19.2l32.7,3l3.1,48.6
				l16.2,11.3c0,0,44.9,11.7,47.8,12.5c2.9,0.8,3.8-72.3,3.8-72.3S273.1,386.8,277.9,380.2z"/>
			<path class="st5" d="M190.5,372.2c0.1,0,0.3,5.7,0.4,12.8s0.2,12.8,0.1,12.8s-0.3-5.7-0.4-12.8
				C190.4,378,190.4,372.2,190.5,372.2z"/>
			<path class="st5" d="M256.1,372c0.1,0.1,0.1,0.2,0.2,0.3l0.5,0.8c0.2,0.4,0.5,0.8,0.7,1.4c0.3,0.5,0.6,1.1,0.9,1.8
				c0.7,1.6,1.3,3.3,1.8,5c0.6,2.1,1.1,4.2,1.4,6.4c0.5,3.9,0.6,7.9,0.3,11.8c-0.1,1.5-0.2,2.7-0.3,3.6c0,0.4-0.1,0.7-0.1,1
				c0,0.1,0,0.2-0.1,0.3c0-0.1,0-0.2,0-0.3l0.1-1c0.1-0.8,0.1-2.1,0.2-3.6c0.2-3.9,0.1-7.9-0.4-11.8c-0.3-2.1-0.7-4.3-1.3-6.3
				c-0.5-1.7-1.1-3.4-1.8-5c-0.3-0.7-0.6-1.3-0.8-1.9c-0.2-0.5-0.5-1-0.7-1.4c-0.2-0.4-0.3-0.6-0.4-0.9
				C256.1,372.2,256.1,372.1,256.1,372z"/>
			<path class="st5" d="M237.3,346.5c0,0.7,0,1.4-0.2,2.1c-0.4,1.9-1.3,3.6-2.6,4.9c-2,2-4.6,3.3-7.3,3.9c-3.4,0.7-6.8,0.7-10.2-0.1
				c-3.3-0.7-6.6-2-9.5-3.8c-2.4-1.4-4.7-3.1-6.7-5c-1.3-1.3-2.6-2.7-3.7-4.3c-0.4-0.5-0.6-1-0.8-1.3c-0.1-0.1-0.2-0.3-0.3-0.5
				c0.1,0.1,0.2,0.3,0.3,0.4c0.2,0.3,0.5,0.7,0.9,1.2c1.1,1.5,2.4,2.9,3.7,4.2c2,1.9,4.3,3.5,6.7,4.9c2.9,1.7,6.1,3,9.4,3.7
				c3.3,0.8,6.7,0.8,10.1,0.1c2.7-0.5,5.2-1.8,7.2-3.7c1.3-1.3,2.2-3,2.7-4.8c0.1-0.5,0.2-1,0.3-1.5
				C237.2,346.6,237.2,346.5,237.3,346.5z"/>
			<path class="st6" d="M255,451.6l-61.5-13.4l-2.8-44l-27.4-2.5c0,0,1,30.1,2.1,39c1.5,12.9,9.1,30.4,13.5,33.9
				c4.4,3.5,78.8,1.9,78.8,1.9L255,451.6z"/>
			<path class="st6" d="M289.9,459.6c-0.2,0.4-0.5,0.8-0.9,1c-0.4,0.2-0.9,0.3-1.3,0.3c-0.2,0-0.4-0.1-0.6-0.1
				c-1.4-0.4-1.2-3.2-1.2-3.2l-6.5-1.1c0,0-8.5,5.5-11.5,9.1s-10.7,0.7-10.7,0.7l-2.7-13.9l12-10.9c0,0-0.7,0.6,0.1-1.4
				s4.6-1.3,4.6-1.3c0.6-1,3-1.4,3-1.4l10.5,1.2c1.1,0.1,2.1,0.5,3,1.1c0.9,0.6,1.7,1.3,2.3,2.3l4.5,7c0,0,2.3,5.1,2,6.3
				c-0.2,0.5-0.5,0.9-1,1.2c-0.5,0.3-1,0.3-1.5,0.2c0,0-0.5,3.3-1.4,3.5S289.9,459.6,289.9,459.6L289.9,459.6z"/>
			<path class="st7" d="M267.5,449.6c0,0.1,1.4,0,3.7,0.1c2.9,0.1,5.8,0.7,8.6,1.6c1.5,0.5,3,1.1,4.4,1.9c1.3,0.7,2.6,1.3,3,2.2
				c0.1,0.2,0.1,0.4,0.1,0.6c0,0.2-0.1,0.4-0.2,0.6c-0.2,0.3-0.5,0.5-0.8,0.7c-0.3,0.1-0.6,0.1-0.9,0.1c0,0,0.3,0.3,1,0.1
				c0.4-0.1,0.8-0.4,1-0.7c0.2-0.2,0.3-0.5,0.3-0.8c0-0.3,0-0.6-0.1-0.9c-0.3-0.6-0.7-1.1-1.3-1.5c-0.6-0.4-1.2-0.8-1.8-1.1
				c-4.1-2.2-8.7-3.4-13.3-3.4C268.9,449.2,267.5,449.5,267.5,449.6z"/>
			<path class="st7" d="M266.8,456.3c0,0.2,4.3,0,9.6,0.3c5.3,0.3,9.5,0.9,9.5,0.8c0-0.1-1-0.4-2.7-0.7c-2.2-0.4-4.5-0.6-6.8-0.8
				c-2.3-0.1-4.5-0.1-6.8,0C267.9,456.1,266.8,456.2,266.8,456.3z"/>
			<path class="st7" d="M289.9,459.3c0.1-0.4,0.1-0.7,0.1-1.1c0.1-1,0.1-2.1,0-3.1c0-0.7-0.1-1.4-0.3-2.1c-0.2-0.8-0.5-1.6-1-2.3
				c-1-1.6-2.4-3-3.9-4c-1.5-1.1-3.2-1.9-5-2.5c-1.5-0.4-3-0.7-4.5-0.7c-1.3,0-2.4,0-3.1,0c-0.4,0-0.8,0-1.1,0.1
				c0,0.1,1.6,0.2,4.2,0.3c1.5,0.1,3,0.4,4.4,0.8c1.7,0.6,3.3,1.5,4.8,2.5c1.5,1,2.8,2.3,3.8,3.8c1,1.3,1.2,2.9,1.4,4.1
				C289.8,457.7,289.7,459.3,289.9,459.3z"/>
			<path class="st7" d="M274.7,440.2c0,0.1,1.6,0.1,4.1,0.4c2.4,0.4,6.3,0.6,8.5,3.9c2.4,3,4.4,5.9,5.3,8.3c0.9,2.4,0.9,4,1,3.9
				c0.1-0.4,0.1-0.7,0-1.1c-0.1-1-0.3-2-0.6-3c-0.8-2.5-2.8-5.5-5.2-8.5c-0.6-0.8-1.3-1.5-2-2.1c-0.7-0.5-1.6-0.9-2.5-1.2
				c-1.5-0.4-3-0.6-4.5-0.7C276.2,440,274.7,440.1,274.7,440.2z"/>
			<path class="st7" d="M270.1,463.4c0.2-0.1,0.4-0.3,0.6-0.5l1.8-1.4c2.2-1.7,4.5-3.3,6.9-4.8l-0.1,0l6.5,1.1l-0.2-0.3
				c0,0.5,0,1.1,0.1,1.6c0.1,0.6,0.3,1.1,0.7,1.6c0.2,0.2,0.5,0.4,0.9,0.4c0.3,0.1,0.6,0.1,0.9,0.1c0.6-0.1,1.2-0.4,1.6-0.9
				c0.1-0.1,0.2-0.3,0.3-0.4l0.1-0.1l0-0.1c0.1,0-0.7,0.3-0.4,0.1l0.2,0.1c0.3,0.1,0.6,0.2,0.8,0.3c0.3,0.1,0.6,0.2,0.9,0.2
				c0.2,0,0.3,0,0.5,0.1c0.2,0,0.4,0,0.6-0.1c0.3-0.2,0.5-0.5,0.6-0.9c0.1-0.3,0.2-0.6,0.3-0.9c0.2-0.6,0.3-1.2,0.4-1.8l-0.4,0.3
				c0.4,0.1,0.9,0.1,1.3-0.1c0.4-0.1,0.8-0.4,1.1-0.7c0.3-0.4,0.5-0.8,0.5-1.3c0-0.4-0.1-0.8-0.2-1.3c-0.5-1.6-1.1-3.2-1.8-4.7
				l-2.4-3.8l-1.5-2.4c-0.5-0.8-1-1.6-1.6-2.3c-0.7-0.7-1.5-1.2-2.4-1.6c-0.9-0.3-1.8-0.5-2.7-0.6l-9.9-1.1H274
				c-0.6,0.1-1.2,0.2-1.7,0.5c-0.6,0.2-1.1,0.6-1.5,1.1l0.4-0.1c-0.5-0.2-1.1-0.4-1.7-0.3c-0.6,0-1.2,0.2-1.7,0.5
				c-0.9,0.6-1.5,1.6-1.7,2.7l0.1-0.1l-8.3,7.4l-2.2,2.1c-0.3,0.2-0.5,0.5-0.7,0.8c0.3-0.2,0.6-0.4,0.8-0.6l2.3-2l8.4-7.3l0.1,0
				v-0.1c0.2-0.9,0.7-1.8,1.5-2.3c0.4-0.2,0.9-0.4,1.4-0.4s1,0.1,1.4,0.3l0.2,0.1l0.1-0.2c0.3-0.4,0.7-0.7,1.2-0.8
				c0.5-0.2,1.1-0.3,1.6-0.4H274l9.9,1.2c0.9,0,1.7,0.2,2.5,0.5c0.8,0.3,1.5,0.8,2.1,1.4c0.6,0.7,1.1,1.4,1.6,2.2l1.5,2.4l2.4,3.8v0
				c0.7,1.5,1.3,3,1.8,4.6c0.1,0.4,0.2,0.7,0.2,1.1c0,0.3-0.1,0.6-0.3,0.9c-0.2,0.3-0.5,0.4-0.8,0.5c-0.3,0.1-0.7,0.1-1,0.1
				l-0.3-0.1l-0.1,0.3c-0.1,0.6-0.2,1.2-0.4,1.8c-0.1,0.5-0.3,1-0.7,1.4c-0.1,0-0.2,0-0.3,0c-0.1,0-0.3,0-0.4,0
				c-0.3,0-0.5-0.1-0.8-0.2c-0.3-0.1-0.5-0.2-0.8-0.3l-0.2-0.1l-0.4,0.1v0l0,0.1c-0.1,0.1-0.1,0.2-0.2,0.3c-0.3,0.4-0.8,0.6-1.3,0.7
				c-0.2,0-0.5,0-0.7,0c-0.2,0-0.4-0.1-0.6-0.3c-0.6-0.6-0.7-1.8-0.7-2.7v-0.2h-0.2l-6.5-1h-0.1l-0.1,0c-2.4,1.5-4.7,3.2-6.8,5
				c-0.8,0.6-1.3,1.1-1.7,1.5C270.4,463,270.3,463.2,270.1,463.4z"/>
			<path class="st11" d="M379,398.6l-81,0.7c-2.6,0-5.1,1.3-5.5,3.9l-8.9,59.1h-41.7c-0.6,0-1.2,0.3-1.6,0.8
				c-0.4,0.5-0.7,1.1-0.7,1.7c0,0.6,0.2,1.2,0.7,1.7c0.4,0.5,1,0.7,1.6,0.8h133.3l9.1-62.4c0.1-0.8,0.1-1.5-0.1-2.3
				c-0.2-0.7-0.6-1.4-1.1-2c-0.5-0.6-1.1-1-1.8-1.4C380.6,398.8,379.8,398.6,379,398.6z"/>
			<path class="st5" d="M379,398.6c0.4,0,0.9,0,1.3,0.1c1.1,0.3,2.1,0.8,2.8,1.7c0.7,0.8,1.2,1.9,1.3,3c0.1,1-0.2,2.1-0.3,3.3
				c-0.3,2.4-0.7,5.1-1.2,8.2c-1.8,12.4-4.4,30.2-7.5,52.2v0.2h-0.2l-129.3,0.1h-3.5c-0.6,0.1-1.3-0.1-1.8-0.4
				c-0.6-0.3-1-0.8-1.2-1.5c-0.2-0.6-0.2-1.3,0-1.9s0.7-1.1,1.2-1.5c0.6-0.3,1.2-0.4,1.8-0.3h15.3h26l-0.3,0.3
				c3.2-21.2,6.2-40.9,8.8-58.6c0.1-1.2,0.6-2.3,1.5-3.1c0.9-0.7,2-1.2,3.1-1.4c1.1-0.1,2.2-0.1,3.3-0.1h3.2l12.2-0.1l21.7-0.1
				l30.9-0.2h8.3h2.1C378.8,398.6,379,398.6,379,398.6c0,0-0.2,0-0.7,0l-2.1,0l-8.3,0.1l-30.9,0.3l-21.7,0.2l-12.2,0.1l-3.2,0
				c-1.1,0-2.1,0-3.2,0.1c-1,0.1-2,0.6-2.8,1.2c-0.8,0.7-1.3,1.7-1.3,2.8c-2.6,17.7-5.6,37.5-8.7,58.6l0,0.3h-41.5
				c-0.5-0.1-1,0-1.5,0.3c-0.3,0.2-0.6,0.4-0.8,0.8c-0.2,0.3-0.3,0.7-0.3,1.1c0,0.4,0.1,0.7,0.3,1.1c0.2,0.3,0.5,0.6,0.8,0.8
				c0.5,0.2,1,0.3,1.5,0.3h3.5l129.3,0.1l-0.3,0.2c3.3-21.9,5.9-39.8,7.7-52.1c0.5-3.1,0.9-5.8,1.2-8.2c0.1-1.2,0.5-2.3,0.3-3.3
				c-0.1-0.9-0.4-1.8-0.9-2.5c-0.7-1-1.8-1.8-3-2.1C379.9,398.7,379.5,398.7,379,398.6z"/>
			<path class="st9" d="M335.1,437.2c2.8,0,5.1-2.3,5.1-5.1c0-2.8-2.3-5.1-5.1-5.1c-2.8,0-5.1,2.3-5.1,5.1
				C330,434.9,332.3,437.2,335.1,437.2z"/>
			<path class="st5" d="M286.9,466.6c0.1,0,2.7-15,5.8-33.6c3.1-18.6,5.5-33.6,5.3-33.7c-0.1,0-2.7,15-5.8,33.6
				C289.2,451.5,286.8,466.5,286.9,466.6z"/>
		</g>
	</g>
</g>
</svg>
