<?xml version="1.0" encoding="utf-8"?>
<!-- Generator: Adobe Illustrator 25.2.1, SVG Export Plug-In . SVG Version: 6.00 Build 0)  -->
<svg version="1.1" id="Layer_1" xmlns="http://www.w3.org/2000/svg" xmlns:xlink="http://www.w3.org/1999/xlink" x="0px" y="0px"
	 width="93.2px" height="421px" viewBox="0 0 93.2 421" style="enable-background:new 0 0 93.2 421;" xml:space="preserve">
<style type="text/css">
	.st0{fill:#BFD0D5;stroke:#FFFFFF;stroke-width:2;}
</style>
<g>
	<path class="st0" d="M14.1,47.6c-0.6-1.2-0.9-2.6-0.7-4c0.2-1.8,1.1-3.5,2.6-4.6c1.4-1.1,3.3-1.7,5.1-1.5c1.4,0.2,2.6,0.7,3.7,1.6
		c1,0.9,1.8,2.1,2.2,3.4s0.4,2.7-0.1,4c-0.4,1.3-1.2,2.5-2.3,3.3c-1.1,0.9-2.4,1.4-3.7,1.5c-1.4,0.1-2.7-0.2-3.9-0.8
		C15.7,49.8,14.7,48.8,14.1,47.6z M23,46.7c0.5-0.6,0.8-1.2,0.8-1.9c0.1-1-0.2-1.9-0.8-2.7c-0.6-0.8-1.5-1.2-2.4-1.3
		c-0.7-0.1-1.4,0.1-2.1,0.4c-0.6,0.3-1.2,0.8-1.5,1.5c-0.3,0.6-0.5,1.4-0.4,2.1c0.1,0.7,0.3,1.4,0.8,2c0.4,0.6,1.1,1,1.7,1.2
		c0.7,0.2,1.4,0.2,2.1,0C22,47.7,22.6,47.3,23,46.7z"/>
	<path class="st0" d="M14.5,81l2.4-21c0-0.4,0.3-0.8,0.6-1.1c0.3-0.3,0.8-0.4,1.2-0.3c0.4,0,0.8,0.3,1.1,0.6
		c0.3,0.3,0.4,0.8,0.3,1.2l-2.4,21c0,0.4-0.3,0.8-0.6,1.1c-0.3,0.3-0.8,0.4-1.2,0.3c-0.4,0-0.8-0.3-1.1-0.6
		C14.6,81.8,14.5,81.4,14.5,81z"/>
	<path class="st0" d="M42.2,50.7c-0.6-1.2-0.9-2.6-0.7-4c0.2-1.8,1.1-3.5,2.6-4.6c1.4-1.1,3.3-1.7,5.1-1.5c1.4,0.2,2.6,0.7,3.7,1.6
		c1,0.9,1.8,2.1,2.2,3.4c0.4,1.3,0.4,2.7-0.1,4c-0.4,1.3-1.2,2.5-2.3,3.3c-1.1,0.9-2.4,1.4-3.7,1.5c-1.4,0.1-2.7-0.2-3.9-0.8
		C43.8,53,42.9,52,42.2,50.7z M51.2,49.9c0.5-0.6,0.8-1.2,0.8-1.9c0.1-1-0.2-1.9-0.8-2.7c-0.6-0.8-1.5-1.2-2.4-1.3
		c-0.7-0.1-1.4,0.1-2.1,0.4c-0.6,0.3-1.2,0.8-1.5,1.5c-0.3,0.6-0.5,1.4-0.4,2.1c0.1,0.7,0.3,1.4,0.8,2c0.4,0.6,1.1,1,1.7,1.2
		c0.7,0.2,1.4,0.2,2.1,0C50.1,50.9,50.7,50.5,51.2,49.9z"/>
	<path class="st0" d="M42.6,84.1l2.4-21c0-0.4,0.3-0.8,0.6-1.1c0.3-0.3,0.8-0.4,1.2-0.3c0.4,0,0.8,0.3,1.1,0.6
		c0.3,0.3,0.4,0.8,0.3,1.2l-2.4,21c0,0.4-0.3,0.8-0.6,1.1c-0.3,0.3-0.8,0.4-1.2,0.3c-0.4,0-0.8-0.3-1.1-0.6
		C42.7,85,42.6,84.6,42.6,84.1z"/>
	<path class="st0" d="M29.3,27.8L29.3,27.8c1.2,0.1,2.3,0.5,3.3,1.1c1,0.6,1.9,1.4,2.6,2.3l0.6,0.9l0.8-0.7c0.9-0.8,1.9-1.3,3.1-1.7
		c1.1-0.3,2.3-0.5,3.5-0.3l0,0L57.4,31l0,0c1.2,0.1,2.3,0.5,3.3,1.1c1,0.6,1.9,1.4,2.6,2.3l0.6,0.9l0.8-0.7c0.9-0.8,2-1.3,3.1-1.7
		c1.1-0.3,2.3-0.5,3.5-0.3l0,0l14.1,1.6c2.3,0.3,4.4,1.4,5.8,3.2c1.4,1.8,2.1,4.1,1.8,6.4l-5.5,49c-0.3,2.3-1.4,4.4-3.2,5.8
		c-1.8,1.4-4.1,2.1-6.4,1.8L64,98.8l0,0c-1.2-0.1-2.3-0.5-3.3-1.1c-1-0.6-1.9-1.4-2.6-2.3l-0.6-0.9l-0.8,0.7
		c-0.9,0.8-1.9,1.3-3.1,1.7c-1.1,0.3-2.3,0.5-3.5,0.3h0l-14.1-1.6l0,0c-1.2-0.1-2.3-0.5-3.3-1.1c-1-0.6-1.9-1.4-2.6-2.3l-0.6-0.9
		l-0.8,0.7c-0.9,0.8-2,1.3-3.1,1.7c-1.1,0.3-2.3,0.5-3.5,0.3h0L7.7,92.5c-2.3-0.3-4.4-1.4-5.8-3.2c-1.4-1.8-2.1-4.1-1.8-6.4l5.5-49
		c0.3-2.3,1.4-4.4,3.2-5.8c1.8-1.4,4.1-2.1,6.4-1.8L29.3,27.8z M57.5,30l-14.1-1.6L57.5,30z M88.8,39.4c-0.9-1.1-2.2-1.8-3.6-2
		L71,35.8c-1.4-0.2-2.9,0.3-4,1.1c-1.1,0.9-1.8,2.2-2,3.6l-5.5,49c-0.2,1.4,0.3,2.9,1.1,4s2.2,1.8,3.6,2l14.1,1.6
		c1.4,0.2,2.9-0.3,4-1.1c1.1-0.9,1.8-2.2,2-3.6l5.5-49C90.1,41.9,89.6,40.5,88.8,39.4z M60.6,36.2c-0.9-1.1-2.2-1.8-3.6-2l-14.1-1.6
		c-1.4-0.2-2.9,0.3-4,1.1c-1.1,0.9-1.8,2.2-2,3.6l-5.5,49c-0.2,1.4,0.3,2.9,1.1,4c0.9,1.1,2.2,1.8,3.6,2L50.3,94
		c1.4,0.2,2.9-0.3,4-1.1c1.1-0.9,1.8-2.2,2-3.6l5.5-49C61.9,38.8,61.5,37.3,60.6,36.2z M32.5,33.1c-0.9-1.1-2.2-1.8-3.6-2l-14.1-1.6
		c-1.4-0.2-2.9,0.3-4,1.1c-1.1,0.9-1.8,2.2-2,3.6l-5.5,49c-0.2,1.4,0.3,2.9,1.1,4c0.9,1.1,2.2,1.8,3.6,2l14.1,1.6
		c1.4,0.2,2.9-0.3,4-1.1c1.1-0.9,1.8-2.2,2-3.6l5.5-49C33.8,35.6,33.4,34.2,32.5,33.1z"/>
</g>
</svg>
