<?xml version="1.0" encoding="utf-8"?>
<!-- Generator: Adobe Illustrator 25.2.1, SVG Export Plug-In . SVG Version: 6.00 Build 0)  -->
<svg version="1.1" id="Layer_1" xmlns="http://www.w3.org/2000/svg" xmlns:xlink="http://www.w3.org/1999/xlink" x="0px" y="0px"
	 width="317.4px" height="421px" viewBox="0 0 317.4 421" style="enable-background:new 0 0 317.4 421;" xml:space="preserve">
<style type="text/css">
	.st0{fill:#BFD0D5;stroke:#FFFFFF;stroke-width:2.5;}
	.st1{fill:#BFD0D5;}
	.st2{fill:#BFD0D5;stroke:#FFFFFF;stroke-width:1.2;}
</style>
<g>
	<path class="st0" d="M87.3,396.7v1.2h1.2h149.1h1.2v-1.2v-79.3c0-4.8-3.9-8.6-8.6-8.6H95.9c-4.8,0-8.6,3.9-8.6,8.6V396.7z
		 M240.8,401.8H85.4c-1.1,0-1.9-0.9-1.9-1.9v-82.4c0-6.9,5.6-12.5,12.5-12.5h134.3c6.9,0,12.5,5.6,12.5,12.5v82.4
		C242.7,400.9,241.9,401.8,240.8,401.8z"/>
	<path class="st0" d="M66.4,401.8h-1.2v1.2v5.5c0,4.8,3.9,8.6,8.6,8.6h178.7c4.8,0,8.6-3.9,8.6-8.6V403v-1.2h-1.2H66.4z M252.4,421
		H73.7c-6.9,0-12.5-5.6-12.5-12.5v-8.6c0-1.1,0.9-1.9,1.9-1.9H263c1.1,0,1.9,0.9,1.9,1.9v8.6C264.9,415.4,259.3,421,252.4,421z"/>
	<path class="st0" d="M147.6,401.8h-1.2v1.2v1.7c0,2.2,1.8,4,4,4h25.5c2.2,0,4-1.8,4-4V403v-1.2h-1.2H147.6z M175.8,412.5h-25.5
		c-4.3,0-7.8-3.5-7.8-7.8v-4.8c0-1.1,0.9-1.9,1.9-1.9h37.3c1.1,0,1.9,0.9,1.9,1.9v4.8C183.7,409,180.2,412.5,175.8,412.5z"/>
	<rect x="148" y="399.7" class="st1" width="29" height="11"/>
	<rect x="145" y="399.7" class="st1" width="3" height="7"/>
	<rect x="147" y="406.7" class="st1" width="2" height="3"/>
	<path class="st1" d="M145,404.7h2l0.5,5l-2.5-2V404.7z"/>
	<path class="st1" d="M177,399.7l4.5,0.5l-0.5,7.5l-4,2.5V399.7z"/>
</g>
<g>
	<path class="st2" d="M63.7,175.9H34.7c-1,0-1.8-0.7-1.8-1.8c0-1,0.8-1.8,1.8-1.8h29.1c1,0,1.8,0.8,1.8,1.8
		C65.5,175.1,64.7,175.9,63.7,175.9z"/>
	<path class="st2" d="M63.7,164.5H34.7c-1,0-1.8-0.8-1.8-1.8c0-1,0.8-1.8,1.8-1.8h29.1c1,0,1.8,0.8,1.8,1.8
		C65.5,163.7,64.7,164.5,63.7,164.5z"/>
	<path class="st2" d="M63.7,153H34.7c-1,0-1.8-0.7-1.8-1.8c0-1,0.8-1.8,1.8-1.8h29.1c1,0,1.8,0.7,1.8,1.8
		C65.5,152.2,64.7,153,63.7,153z"/>
	<path class="st2" d="M88.6,101.1v0.5l0.5,0.1c5,0.6,9,4.9,8.9,10.2h0v0V140c0,5.6-4.6,10.3-10.3,10.3h-5.2h0h0h0h0h0h0h0h0h0h0h0h0
		h0h0h0h0h0h0h0h0h0h0h0h0h0h0h0h0h0h0h0h0h0h0h0h0h0h0h0h0h0h0h0h0h0h0h0h0h0h0h0h0h0h0h0h0h0h0h0h0h0h0h0h0h0h0h0h0h0h0h0h0h0h0h0
		h0h0h0h0h0h0h0h0h0h0h0h0h0h0h0h0h0h0h0h0h0h0h0h0h0h0h0h0h0h0h0h0h0h0h0h0h0h0h0h0h0h0h0h0h0h0h0h0h0h0h0h0h0h0h0h0h0h0h0h0h0h0h0
		h0h0h0h0h0h0h0h0h0h0h0h0h0h0h0h0h0h0h0h0h0h0h0h0h0h0h0h0h0h0h0h0h0h0h0h0h0h0h0h0h0h0h0h0h0h0h0h0h0h0h0h0h0h0h0h0h0h0h0h0h0h0h0
		h0h0h0h0h0h0h0h0h0h0h0h0h0h0h0h0h0h0h0h0h0h0h0h0h0h0h0h0h0h0h0h0h0h0h0h0h0h0h0h0h0h0h0h0h0h0h0h0h0h0h0h0h0h0h0h0h0h0h0h0h0h0h0
		h0h0h0h0h0h0h0h0h0h0h0h0h0h0h0h0h0h0h0h0h0h0h0h0h0h0h0h0h0h0h0h0h0h0h0h0h0h0h0h0h0h0h0h0h0h0h0h0h0h0h0h0h0h0h0h0h0h0h0h0h0h0h0
		h0h0h0h0h0h0h0h0h0h0h0h0h0h0h0h0h0h0h0h0h0h0h0h0h0h0h0h0h0h0h0h0h0h0h0h0h0h0h0h0h0h0h0h0h0h0h0h0h0h0h0h0h0h0h0h0h0h0h0h0h0h0h0
		h0h0h0h0h0h0h0h0h0h0h0h0h0h0h0h0h0h0h0h0h0h0h0h0h0h0h0h0h0h0h0h0h0h0h0h0h0h0h0h0h0h0h0h0h0h0h0h0h0h0h0h0h0h0h0h0h0h0h0h0h0h0h0
		h0h0h0h0h0h0h0h0h0h0h0h0h0h0h0h0h0h0h0h0h0h0h0h0h0h0h0h0h0h0h0h0h0h0h0h0h0h0h0h0h0h0h0h0h0h0h0h0h0h0h0h0h0h0h0h0h0h0h0h0h0h0h0
		h0h0h0h0h0h0h0h0h0h0h0h0h0h0h0h0h0h0h0h0h0h0h0h0h0h0h0h0h0h0h0h0h0h0h0h0h0h0h0h0h0h0h0h0h0h0h0h0h0h0h0h0h0h0h0h0h0h0h0h0h0h0h0
		h0h0h0h0h0h0h0h0h0h0h0h0h0h0h0h0h0h0h0h0h0h0h0h0h0h0h0h0h0h0h0h0h0h0h0h0h0h0h0h0h0h0h0h0h0h0h0h0h0h0h0h0h0h0h0h0h0h0h0h0h0h0h0
		h0h0h0h0h0h0h0h0h0h0h0h0h0h0h0h0h0h0h0h0h0h0h0h0h0h0h0h0h0h0h0h0h0h0h0h0h0h0h0h0h0h0h0h0h0h0h0h0h0h0h0h0h0h0h0h0h0h0h0h0h0h0h0
		h0h0h0h0h0h0h0h0h0h0h0h0h0h0h0h0h0h0h0h0h0h0h0h0h0h0h0h0h0h0h0h0h0h0h0h0h0h0h0h0h0h0h0h0h0h0h0h0h0h0h0h0h0h0h0h0h0h0h0h0h0h0h0
		h0h0h0h0h0h0h0h0h0h0h0h0h0h0h0h0h0h0h0h0h0h0h0h0h0h0h0h0h0h0h0h0h0h0h0h0h0h0h0h0h0h0h0h0h0h0h0h0h0h0h0h0h0h0h0h0h0h0h0h0h0h0h0
		h0h0h0h0h0h0h0h0h0h0h0h0h0h0h0h0h0h0h0h0h0h0h0h0h0h0h0h0h0h0h0h0h0h0h0h0h0h0h0h0h0h0h0h0h0h0h0h0h0h0h0h0h0h0h0h0h0h0h0h0h0h0h0
		h0h0h0h0h0h0h0h0h0h0h0h0h0h0h0h0h0h0h0h0h0h0h0h0h0h0h0h0h0h0h0h0h0h0h0h0h0h0h0h0h0h0h0h0h0h0h0h0h0h0h0h0h0h0h0h0h0h0h0h0h0h0h0
		h0h0h0h0h0h0h0h0h0h0h0h0h0h0h0h0h0h0h0h0h0h0h0h0h0h0h0h0h0h0h0h0h0h0h0h0h0h0h0h0h0h0h0h0h0h0h0h0h0h0h0h0h0h0h0h0h0h0h0h0h0h0h0
		h0h0h0h0c-1,0-1.8-0.8-1.8-1.8v-8.2v-0.6h-0.6h-2.5h-0.6v0.6v39.2c0,3.6-2.9,6.6-6.6,6.6H28.5c-3.6,0-6.6-2.9-6.6-6.6v-39.1v-0.6
		h-0.6h-2.5h-0.6v0.6v8.2c0,0.8-0.5,1.4-1.3,1.6h0h0h0h0h0h0h0h0h0h0h0h0h0h0h0h0h0h0h0h0h0h0h0h0h0h0h0h0h0h0h0h0h0h0h0h0h0h0h0h0
		h0h0h0h0h0h0h0h0h0h0h0h0h0h0h0h0h0h0h0h0h0h0h0h0h0h0h0h0h0h0h0h0h0h0h0h0h0h0h0h0h0h0h0h0h0h0h0h0h0h0h0h0h0h0h0h0h0h0h0h0h0h0h0
		h0h0h0h0h0h0h0h0h0h0h0h0h0h0h0h0h0h0h0h0h0h0h0h0h0h0h0h0h0h0h0h0h0h0h0h0h0h0h0h0h0h0h0h0h0h0h0h0h0h0h0h0h0h0h0h0h0h0h0h0h0h0h0
		h0h0h0h0h0h0h0h0h0h0h0h0h0h0h0h0h0h0h0h0h0h0h0h0h0h0h0h0h0h0h0h0h0h0h0h0h0h0h0h0h0h0h0h0h0h0h0h0h0h0h0h0h0h0h0h0h0h0h0h0h0h0h0
		h0h0h0h0h0h0h0h0h0h0h0h0h0h0h0h0h0h0h0h0h0h0h0h0h0h0h0h0h0h0h0h0h0h0h0h0h0h0h0h0h0h0h0h0h0h0h0h0h0h0h0h0h0h0h0h0h0h0h0h0h0h0h0
		h0h0h0h0h0h0h0h0h0h0h0h0h0h0h0h0h0h0h0h0h0h0h0h0h0h0h0h0h0h0h0h0h0h0h0h0h0h0h0h0h0h0h0h0h0h0h0h0h0h0h0h0h0h0h0h0h0h0h0h0h0h0h0
		h0h0h0h0h0h0h0h0h0h0h0h0h0h0h0h0h0h0h0h0h0h0h0h0h0h0h0h0h0h0h0h0h0h0h0h0h0h0h0h0h0h0h0h0h0h0h0h0h0h0h0h0h0h0h0h0h0h0h0h0h0h0h0
		h0h0h0h0h0h0h0h0h0h0h-6.2C4.7,150.3,0,145.7,0,140v-28c0-5.3,4-9.6,9-10.3l0.5-0.1v-0.5v-8.3c0-1,0.8-1.8,1.8-1.8h10.1H22l0-0.6
		c0.2-3.4,3.1-6.1,6.6-6.1h40.9c3.5,0,6.3,2.7,6.6,6.1l0,0.6h0.6h10.1c1,0,1.8,0.8,1.8,1.8V101.1z M84.6,101.6h0.6V101v-5.9v-0.6
		h-0.6h-7.8h-0.6v0.6v5.9v0.6h0.6H84.6z M72.1,101.6h0.6V101V90.9c0-1.7-1.4-3.1-3.1-3.1H28.6c-1.7,0-3.1,1.4-3.1,3.1V101v0.6h0.6
		H72.1z M13.6,94.5H13v0.6v5.9v0.6h0.6h7.8H22V101v-5.9v-0.6h-0.6H13.6z M26.1,139.7h-0.6v0.6v39.1c0,1.7,1.4,3.1,3.1,3.1h41.1
		c1.7,0,3.1-1.4,3.1-3.1v-39.1v-0.6h-0.6H26.1z M94.8,139.8v-0.6h-0.2v-27.4c0-3.8-3.1-6.9-6.9-6.9h-0.9H11.2h-0.9
		c-3.8,0-6.9,3.1-6.9,6.9v28c0,3.8,3.1,6.9,6.9,6.9h4h0.6v-0.6V138c0-1,0.8-1.8,1.8-1.8h4.8h55.3h4.8c1,0,1.8,0.8,1.8,1.8v8.2v0.6
		h0.6h4C91.6,146.8,94.8,143.6,94.8,139.8z"/>
	<path class="st2" d="M75.1,112.1c0,1.2-1,2.2-2.2,2.2s-2.2-1-2.2-2.2c0-1.2,1-2.2,2.2-2.2S75.1,110.9,75.1,112.1z"/>
	<path class="st2" d="M80.2,110.5h7.1c0.9,0,1.8,0.7,1.8,1.8c0,1-0.8,1.8-1.8,1.8h-7.1c-1,0-1.8-0.7-1.8-1.8
		C78.4,111.3,79.2,110.5,80.2,110.5z"/>
</g>
<g>
	<path class="st2" d="M334.4,186.5L313.8,207c-0.7,0.7-1.7,0.7-2.5,0c-0.7-0.7-0.7-1.8,0-2.5l20.6-20.6c0.7-0.7,1.7-0.7,2.5,0
		C335.1,184.7,335,185.8,334.4,186.5z"/>
	<path class="st2" d="M315.3,132.2l0.4,0.4l0.4-0.3c4-3.1,9.8-2.9,13.5,0.9l0,0l0,0l19.9,19.9c4,4,4,10.5,0,14.5l-3.7,3.7l0,0v0l0,0
		v0l0,0v0l0,0v0l0,0v0l0,0v0l0,0l0,0v0l0,0v0l0,0v0l0,0v0l0,0v0l0,0l0,0v0l0,0v0l0,0v0l0,0l0,0v0l0,0v0l0,0v0l0,0l0,0v0l0,0v0l0,0
		l0,0v0l0,0v0l0,0l0,0v0l0,0v0l0,0l0,0v0l0,0v0l0,0l0,0v0l0,0l0,0v0l0,0v0l0,0l0,0v0l0,0l0,0v0l0,0v0l0,0l0,0v0l0,0l0,0v0l0,0l0,0v0
		l0,0l0,0v0l0,0l0,0v0l0,0v0l0,0l0,0v0l0,0l0,0v0l0,0l0,0v0l0,0l0,0l0,0v0l0,0l0,0v0l0,0l0,0v0l0,0l0,0v0l0,0l0,0v0l0,0l0,0v0l0,0
		l0,0l0,0v0l0,0l0,0v0l0,0l0,0v0l0,0l0,0l0,0v0l0,0l0,0v0l0,0l0,0l0,0v0l0,0l0,0v0l0,0l0,0l0,0v0l0,0l0,0v0l0,0l0,0l0,0v0l0,0l0,0
		l0,0v0l0,0l0,0v0l0,0l0,0l0,0v0l0,0l0,0l0,0v0l0,0l0,0l0,0v0l0,0l0,0l0,0v0l0,0l0,0l0,0v0l0,0l0,0l0,0v0l0,0l0,0l0,0v0l0,0l0,0l0,0
		v0l0,0l0,0l0,0v0l0,0l0,0l0,0v0l0,0l0,0l0,0v0l0,0l0,0l0,0v0l0,0l0,0l0,0v0l0,0l0,0l0,0v0l0,0l0,0l0,0l0,0v0l0,0l0,0l0,0v0l0,0l0,0
		l0,0v0l0,0l0,0l0,0v0l0,0l0,0l0,0l0,0v0l0,0l0,0l0,0v0l0,0l0,0l0,0v0l0,0l0,0l0,0l0,0v0l0,0l0,0l0,0v0l0,0l0,0l0,0v0l0,0l0,0l0,0
		l0,0v0l0,0l0,0l0,0v0l0,0l0,0l0,0v0l0,0l0,0l0,0l0,0v0l0,0l0,0l0,0v0l0,0l0,0l0,0v0l0,0l0,0l0,0v0l0,0l0,0l0,0l0,0v0l0,0l0,0l0,0v0
		l0,0l0,0l0,0v0l0,0l0,0l0,0v0l0,0l0,0l0,0v0l0,0l0,0l0,0v0l0,0l0,0l0,0v0l0,0l0,0l0,0l0,0v0l0,0l0,0l0,0v0l0,0l0,0l0,0v0l0,0l0,0v0
		l0,0l0,0l0,0v0l0,0l0,0l0,0v0l0,0l0,0l0,0v0l0,0l0,0l0,0v0l0,0l0,0l0,0v0l0,0l0,0v0l0,0l0,0l0,0v0l0,0l0,0l0,0v0l0,0l0,0v0l0,0l0,0
		l0,0v0l0,0l0,0v0l0,0l0,0l0,0v0l0,0l0,0v0l0,0l0,0l0,0v0l0,0l0,0v0l0,0l0,0v0l0,0l0,0v0l0,0l0,0l0,0v0l0,0l0,0v0l0,0l0,0v0l0,0l0,0
		v0l0,0l0,0v0l0,0l0,0v0l0,0l0,0v0l0,0l0,0v0l0,0l0,0v0l0,0l0,0v0l0,0l0,0v0l0,0l0,0v0l0,0l0,0v0l0,0l0,0v0l0,0v0l0,0l0,0v0l0,0l0,0
		v0l0,0l0,0v0l0,0v0l0,0l0,0v0l0,0v0l0,0l0,0v0l0,0l0,0v0l0,0v0l0,0l0,0v0l0,0v0l0,0v0l0,0l0,0v0l0,0v0l0,0l0,0v0l0,0v0l0,0v0l0,0
		l0,0v0l0,0v0l0,0v0l0,0v0l0,0l0,0v0l0,0v0l0,0v0l0,0v0l0,0v0l0,0v0l0,0v0l0,0l0,0v0l0,0v0l0,0v0l0,0v0l0,0v0l0,0v0l0,0v0l0,0v0l0,0
		v0l0,0l0,0v0l0,0v0l0,0v0l0,0v0l0,0v0l0,0l0,0v0l0,0v0l0,0v0l0,0l0,0v0l0,0v0l0,0l0,0v0l0,0v0l0,0v0l0,0l0,0v0l0,0v0l0,0l0,0v0l0,0
		v0l0,0l0,0v0l0,0l0,0v0l0,0v0l0,0l0,0v0l0,0l0,0v0l0,0v0l0,0l0,0v0l0,0l0,0v0l0,0l0,0v0l0,0v0l0,0l0,0v0l0,0l0,0v0l0,0l0,0v0l0,0
		l0,0v0l0,0l0,0v0l0,0l0,0v0l0,0l0,0v0l0,0l0,0v0l0,0l0,0v0l0,0l0,0l0,0v0l0,0l0,0v0l0,0l0,0v0l0,0l0,0v0l0,0l0,0l0,0v0l0,0l0,0v0
		l0,0l0,0v0l0,0l0,0l0,0v0l0,0l0,0v0l0,0l0,0l0,0v0l0,0l0,0v0l0,0l0,0l0,0v0l0,0l0,0l0,0v0l0,0l0,0v0l0,0l0,0l0,0v0l0,0l0,0l0,0v0
		l0,0l0,0l0,0v0l0,0l0,0v0l0,0l0,0l0,0v0l0,0l0,0l0,0v0l0,0l0,0l0,0v0l0,0l0,0l0,0v0l0,0l0,0l0,0v0l0,0l0,0l0,0v0l0,0l0,0l0,0v0l0,0
		l0,0l0,0v0l0,0l0,0l0,0v0l0,0l0,0l0,0l0,0v0l0,0l0,0l0,0v0l0,0l0,0l0,0v0l0,0l0,0l0,0v0l0,0l0,0l0,0l0,0v0l0,0l0,0l0,0v0l0,0l0,0
		l0,0v0l0,0l0,0l0,0v0l0,0l0,0l0,0l0,0v0l0,0l0,0l0,0v0l0,0l0,0l0,0v0l0,0l0,0l0,0l0,0v0l0,0l0,0l0,0v0l0,0l0,0l0,0v0l0,0l0,0l0,0
		l0,0v0l0,0l0,0l0,0v0l0,0l0,0l0,0v0l0,0l0,0l0,0l0,0v0l0,0l0,0l0,0v0l0,0l0,0l0,0v0l0,0l0,0l0,0v0l0,0l0,0l0,0v0l0,0l0,0l0,0l0,0v0
		l0,0l0,0l0,0v0l0,0l0,0l0,0v0l0,0l0,0l0,0v0l0,0l0,0l0,0v0l0,0l0,0l0,0v0l0,0l0,0l0,0v0l0,0l0,0l0,0v0l0,0l0,0l0,0v0l0,0l0,0l0,0v0
		l0,0l0,0l0,0v0l0,0l0,0v0l0,0l0,0l0,0v0l0,0l0,0l0,0v0l0,0l0,0l0,0v0l0,0l0,0v0l0,0l0,0l0,0v0l0,0l0,0v0l0,0l0,0l0,0v0l0,0l0,0v0
		l0,0l0,0l0,0v0l0,0l0,0v0l0,0l0,0v0l0,0l0,0l0,0v0l0,0l0,0v0l0,0l0,0v0l0,0l0,0l0,0v0l0,0l0,0v0l0,0l0,0v0l0,0l0,0v0l0,0l0,0v0l0,0
		l0,0v0l0,0l0,0v0l0,0l0,0v0l0,0l0,0v0l0,0l0,0v0l0,0l0,0v0l0,0l0,0v0l0,0v0l0,0l0,0v0l0,0l0,0v0l0,0l0,0v0l0,0v0l0,0l0,0v0l0,0l0,0
		v0l0,0v0l0,0l0,0v0l0,0v0l0,0l0,0v0l0,0v0l0,0l0,0v0l0,0v0l0,0l0,0v0l0,0v0l0,0v0l0,0l0,0v0l0,0v0l0,0v0l0,0l0,0v0l0,0v0l0,0v0l0,0
		v0l0,0l0,0v0l0,0v0l0,0v0l0,0v0l0,0v0l0,0v0l0,0v0l0,0v0l0,0c-0.7,0.7-1.8,0.7-2.5,0l-5.8-5.8l-0.4-0.4l-0.4,0.4l-1.7,1.7l-0.4,0.4
		l0.4,0.4l27.7,27.7c2.6,2.6,2.6,6.7,0,9.3l-29,29c-2.6,2.6-6.7,2.6-9.3,0L296,207.2l-0.4-0.4l-0.4,0.4l-1.7,1.7l-0.4,0.4l0.4,0.4
		l5.8,5.8c0.6,0.6,0.7,1.4,0.2,2.1l0,0h0l0,0l0,0h0l0,0l0,0h0l0,0l0,0h0l0,0l0,0h0l0,0l0,0h0l0,0l0,0h0l0,0l0,0h0l0,0l0,0h0l0,0l0,0
		h0l0,0l0,0h0l0,0l0,0l0,0h0l0,0l0,0h0l0,0l0,0h0l0,0l0,0l0,0h0l0,0l0,0h0l0,0l0,0l0,0h0l0,0l0,0h0l0,0l0,0l0,0h0l0,0l0,0h0l0,0l0,0
		l0,0h0l0,0l0,0h0l0,0l0,0l0,0h0l0,0l0,0l0,0h0l0,0l0,0l0,0h0l0,0l0,0h0l0,0l0,0l0,0h0l0,0l0,0l0,0h0l0,0l0,0l0,0h0l0,0l0,0l0,0h0
		l0,0l0,0l0,0h0l0,0l0,0l0,0h0l0,0l0,0l0,0h0l0,0l0,0l0,0h0l0,0l0,0l0,0h0l0,0l0,0l0,0l0,0h0l0,0l0,0l0,0h0l0,0l0,0l0,0h0l0,0l0,0
		l0,0h0l0,0l0,0l0,0h0l0,0l0,0l0,0l0,0h0l0,0l0,0l0,0h0l0,0l0,0l0,0h0l0,0l0,0l0,0l0,0h0l0,0l0,0l0,0h0l0,0l0,0l0,0h0l0,0l0,0l0,0
		l0,0h0l0,0l0,0l0,0h0l0,0l0,0l0,0h0l0,0l0,0l0,0h0l0,0l0,0l0,0l0,0h0l0,0l0,0l0,0h0l0,0l0,0l0,0h0l0,0l0,0l0,0l0,0h0l0,0l0,0l0,0h0
		l0,0l0,0l0,0h0l0,0l0,0l0,0h0l0,0l0,0l0,0h0l0,0l0,0l0,0l0,0h0l0,0l0,0l0,0h0l0,0l0,0l0,0h0l0,0l0,0l0,0h0l0,0l0,0l0,0h0l0,0l0,0
		l0,0h0l0,0l0,0l0,0h0l0,0l0,0l0,0h0l0,0l0,0l0,0h0l0,0l0,0l0,0h0l0,0l0,0h0l0,0l0,0l0,0h0l0,0l0,0l0,0h0l0,0l0,0l0,0h0l0,0l0,0h0
		l0,0l0,0l0,0h0l0,0l0,0h0l0,0l0,0l0,0h0l0,0l0,0l0,0h0l0,0l0,0h0l0,0l0,0h0l0,0l0,0l0,0h0l0,0l0,0h0l0,0l0,0h0l0,0l0,0l0,0h0l0,0
		l0,0h0l0,0l0,0h0l0,0l0,0h0l0,0l0,0h0l0,0l0,0h0l0,0l0,0h0l0,0l0,0l0,0h0l0,0h0l0,0l0,0h0l0,0l0,0h0l0,0l0,0h0l0,0l0,0h0l0,0l0,0h0
		l0,0l0,0h0l0,0h0l0,0l0,0h0l0,0l0,0h0l0,0l0,0h0l0,0h0l0,0l0,0h0l0,0h0l0,0l0,0h0l0,0h0l0,0l0,0h0l0,0h0l0,0l0,0h0l0,0h0l0,0l0,0h0
		l0,0h0l0,0h0l0,0l0,0h0l0,0h0l0,0h0l0,0l0,0h0l0,0h0l0,0h0l0,0h0l0,0l0,0h0l0,0h0l0,0h0l0,0h0l0,0h0l0,0h0l0,0h0l0,0h0l-4.4,4.4
		c-4,4-10.5,4-14.5,0l-19.8-19.8c-3.7-3.7-4-9.6-0.9-13.6l0.3-0.4l-0.4-0.4l-5.9-5.9c-0.7-0.7-0.7-1.8,0-2.5l7.2-7.2l0.4-0.4
		l-0.4-0.4c-2.2-2.6-2.2-6.5,0.3-9l29-29c2.5-2.5,6.4-2.6,9-0.3l0.4,0.4l0.4-0.4l7.2-7.2c0.7-0.7,1.8-0.7,2.5,0L315.3,132.2z
		 M312.8,135.4l0.4-0.4l-0.4-0.4l-4.2-4.2l-0.4-0.4l-0.4,0.4l-5.5,5.5l-0.4,0.4l0.4,0.4l4.2,4.2l0.4,0.4l0.4-0.4L312.8,135.4z
		 M304,144.2l0.4-0.4l-0.4-0.4l-7.2-7.2c-1.2-1.2-3.2-1.2-4.3,0l-29,29c-1.2,1.2-1.2,3.2,0,4.3l7.2,7.2l0.4,0.4l0.4-0.4L304,144.2z
		 M257.6,180.5l-0.4,0.4l0.4,0.4l4.2,4.2l0.4,0.4l0.4-0.4l5.5-5.5l0.4-0.4l-0.4-0.4l-4.2-4.2l-0.4-0.4l-0.4,0.4L257.6,180.5z
		 M298.4,203.7l-0.4,0.4l0.4,0.4l27.6,27.6c1.2,1.2,3.2,1.2,4.3,0l29-29c1.2-1.2,1.2-3.2,0-4.3l-27.6-27.6l-0.4-0.4l-0.4,0.4
		L298.4,203.7z M347,155.2l-0.4-0.4l-0.2,0.2l-19.3-19.3c-2.7-2.7-7.1-2.7-9.8,0l-0.6,0.6l-53.4,53.4l-0.6,0.6
		c-2.7,2.7-2.7,7.1,0,9.8l19.8,19.8c2.7,2.7,7.1,2.7,9.8,0l2.8-2.8l0.4-0.4l-0.4-0.4l-5.8-5.8c-0.7-0.7-0.7-1.8,0-2.5l3.4-3.4
		l39.1-39.1l3.4-3.4c0.7-0.7,1.8-0.7,2.5,0l5.8,5.8l0.4,0.4l0.4-0.4l2.8-2.8C349.7,162.3,349.7,157.9,347,155.2z"/>
	<path class="st2" d="M313.6,149.5c0.9,0.9,0.9,2.3,0,3.2c-0.9,0.9-2.3,0.9-3.2,0c-0.9-0.9-0.9-2.3,0-3.2
		C311.3,148.6,312.7,148.6,313.6,149.5z"/>
</g>
</svg>
