<?xml version="1.0" encoding="utf-8"?>
<!-- Generator: Adobe Illustrator 25.2.1, SVG Export Plug-In . SVG Version: 6.00 Build 0)  -->
<svg version="1.1" id="Layer_1" xmlns="http://www.w3.org/2000/svg" xmlns:xlink="http://www.w3.org/1999/xlink" x="0px" y="0px"
	 width="497.6px" height="509px" viewBox="0 0 497.6 509" style="enable-background:new 0 0 497.6 509;" xml:space="preserve">
<style type="text/css">
	.st0{fill:#407BFF;}
	.st1{opacity:0.9;fill:#E3EBFA;enable-background:new    ;}
	.st2{fill:#F5F5F5;}
	.st3{fill:#B55B52;}
	.st4{fill:#263238;}
	.st5{fill:#B65B52;}
	.st6{opacity:0.2;enable-background:new    ;}
	.st7{fill:#FFFFFF;}
	.st8{fill:#A02724;}
	.st9{fill:#BACCD1;stroke:#FFFFFF;}
	.st10{fill:#BACCD1;}
	.st11{fill:#FFFFFF;filter:url(#Adobe_OpacityMaskFilter);}
	.st12{mask:url(#path-4-inside-1_2862_52388_1_);fill:#FFFFFF;}
	.st13{opacity:0.2;fill:#407BFF;enable-background:new    ;}
	.st14{opacity:0.5;fill:#FFFFFF;enable-background:new    ;}
	.st15{opacity:0.4;fill:#407BFF;enable-background:new    ;}
	.st16{opacity:0.8;fill:#FFFFFF;enable-background:new    ;}
	.st17{opacity:0.5;fill:#407BFF;enable-background:new    ;}
	.st18{opacity:0.8;}
	.st19{opacity:0.3;fill:#407BFF;enable-background:new    ;}
	.st20{opacity:0.8;fill-rule:evenodd;clip-rule:evenodd;fill:#FFFFFF;enable-background:new    ;}
</style>
<g>
	<path class="st0" d="M279.1,322.3c-55.9-1-108.9-18.8-130.5,40.9c-25.8,71.2,31.9,108.9,100.8,102.7c37.3-3.4,94-44.6,107.8-79.5
		c6.9-17.6,11.5-56.7-3.9-68.9C329.1,298.3,306.7,322.8,279.1,322.3z"/>
	<path class="st1" d="M279.1,322.3c-55.9-1-108.9-18.8-130.5,40.9c-25.8,71.2,31.9,108.9,100.8,102.7c37.3-3.4,94-44.6,107.8-79.5
		c6.9-17.6,11.5-56.7-3.9-68.9C329.1,298.3,306.7,322.8,279.1,322.3z"/>
	<path class="st2" d="M280.9,506.3c79.2,0,143.4-3.7,143.4-8.4c0-4.6-64.2-8.4-143.4-8.4s-143.4,3.7-143.4,8.4
		C137.5,502.6,201.7,506.3,280.9,506.3z"/>
</g>
<g>
	<path class="st3" d="M204.4,493.6l4.5-1.7l-2.8-10.9l-4.5,1.7L204.4,493.6z"/>
	<path class="st3" d="M170.6,493.7h4.8l0.7-11.1h-4.8L170.6,493.7z"/>
	<path class="st4" d="M175.9,493.1H170c-0.2,0-0.3,0.1-0.4,0.3l-0.7,4.3c-0.1,0.5,0.3,0.9,0.7,0.9c1.9-0.1,3.3-0.1,5.6-0.1
		c1.4,0,5.9,0.2,7.9,0.2c2,0,2.2-2,1.3-2.2c-3.7-0.8-6.6-2-7.8-3C176.4,493.2,176.2,493.1,175.9,493.1z"/>
	<path class="st4" d="M208.7,491.4l-4.9,1.8c-0.2,0.1-0.3,0.2-0.3,0.5l0.6,4.3c0.1,0.5,0.5,0.7,1,0.6c1.8-0.7,3.3-1.6,5.5-2.4
		c2.6-0.9,5.2-2,7.4-3.3c1.7-1,1-3,0.2-2.8c-3.6,1.4-4.4,1.9-8.2,1.2C209.5,491.2,209.1,491.2,208.7,491.4z"/>
	<path class="st5" d="M196,347.1c1.5,2.7,3.1,5.5,4.7,8.1c1.6,2.7,3.3,5.3,5,7.8c0.4,0.6,0.9,1.2,1.3,1.8c0.2,0.3,0.2,0.3,0.4,0.5
		c0.1,0.1,0.4,0.2,0.9,0.1c0.5-0.1,1-0.2,1.6-0.4c1.2-0.5,2.5-1.1,3.7-2c0.6-0.4,1.3-0.8,1.8-1.3c0.6-0.5,1.3-0.9,1.8-1.4l2.7,2.4
		c-0.5,0.7-1,1.4-1.6,2.1c-0.6,0.6-1.1,1.3-1.7,1.9c-0.6,0.6-1.3,1.2-2,1.8c-0.7,0.6-1.4,1.1-2.3,1.6c-0.9,0.5-1.8,0.9-2.9,1.2
		c-1.1,0.3-2.5,0.3-3.9,0c-1.4-0.3-2.7-1.3-3.6-2.2c-0.6-0.7-1.1-1.3-1.7-2c-2.1-2.6-4-5.3-5.8-8c-1.8-2.8-3.4-5.6-5-8.5L196,347.1z
		"/>
	<path class="st0" d="M187.4,347.3c-1.3,4.4,7.8,16.4,7.8,16.4l9.2-5.9c0,0-2.7-6.1-6.4-10.8C194.3,342.2,188.8,342.4,187.4,347.3z"
		/>
	<path class="st6" d="M187.4,347.3c-1.3,4.4,7.8,16.4,7.8,16.4l9.2-5.9c0,0-2.7-6.1-6.4-10.8C194.3,342.2,188.8,342.4,187.4,347.3z"
		/>
	<path class="st6" d="M193,352.5c1.9,0.8,4.7,5.3,6.1,8.7l-3.9,2.5c0,0-3.5-4.7-5.9-9.2C190.6,353.2,192.1,352.1,193,352.5z"/>
	<path class="st3" d="M216.7,361.9l1.7-4.7l4.8,2.3c0,0-1,4.2-4.5,4.2L216.7,361.9z"/>
	<path class="st3" d="M222.6,354.1l2,2.2l-1.5,3.2l-4.8-2.3L222.6,354.1z"/>
	<path class="st6" d="M206.1,481l1.4,5.6l-4.5,1.7l-1.4-5.6L206.1,481z"/>
	<path class="st6" d="M171.3,482.6h4.8l-0.4,5.7h-4.8L171.3,482.6z"/>
	<path class="st0" d="M166,345.4c5.2,18.3,4.3,37.7,4.7,41.6c3.8-0.1,18-0.7,25.7-1c4.4-27.2-3.5-42.4-3.5-42.4s-1.7-0.3-3.9-0.6
		c-0.7-0.1-1.4-0.1-2.2-0.2c-0.5,0-0.9-0.1-1.3-0.1c-2.9-0.1-7.6,0.4-10.9,0.8c-0.7,0.1-1.4,0.2-2.1,0.3c-0.6,0.1-1.3,0.2-1.8,0.3
		C168,344.8,166,345.4,166,345.4z"/>
	<path class="st6" d="M166,345.4c5.2,18.3,4.3,37.7,4.7,41.6c3.8-0.1,18-0.7,25.7-1c4.4-27.2-3.5-42.4-3.5-42.4s-1.7-0.3-3.9-0.6
		c-0.7-0.1-1.4-0.1-2.2-0.2c-0.5,0-0.9-0.1-1.3-0.1c-2.9-0.1-7.6,0.4-10.9,0.8c-0.7,0.1-1.4,0.2-2.1,0.3c-0.6,0.1-1.3,0.2-1.8,0.3
		C168,344.8,166,345.4,166,345.4z"/>
	<path class="st6" d="M171.4,353.2c0.5,1.8-0.1,9.8-1.9,11.8c-0.2-2.6-0.6-5.3-1-8L171.4,353.2z"/>
	<path class="st3" d="M174.7,331.3c1,3.4,2.1,9.8-0.2,12.4c2.1,1.8,4.7,3.7,8.9,3.6c4.2-0.2,3.2-3,2-4.4c-4-0.6-4.1-3.6-3.6-6.3
		L174.7,331.3z"/>
	<path class="st0" d="M183.5,346.6l0.7,0.5l-2.8,0.8l0.7-1.3L183.5,346.6z"/>
	<path class="st0" d="M184.5,346.3l-0.3,0.8l2.8,0.8l-0.2-1.5L184.5,346.3z"/>
	<path class="st7" d="M172.8,343.4l1.1-0.6c0.3-0.2,0.8-0.2,1.1,0.1c1.1,0.9,4.2,2.9,8.4,3.7c-2.2,1-1.7,3.8-1.7,3.8s-7-2.3-9.2-6.5
		C172.5,343.8,172.6,343.5,172.8,343.4z"/>
	<path class="st7" d="M186.6,342.7l-1.6-0.2c-0.2,0-0.3,0.2-0.2,0.3c0.6,0.8,1.5,2.5-0.3,3.6c2.2,1,2.9,3.6,2.9,3.6s2.9-3.1-0.5-7.2
		C186.9,342.7,186.8,342.7,186.6,342.7z"/>
	<path class="st6" d="M177.6,333.4l4.2,3.1c-0.1,0.6-0.2,1.3-0.2,2c-1.5-0.1-3.7-1.6-4-3.2C177.5,334.5,177.5,333.8,177.6,333.4z"/>
	<path class="st4" d="M186.9,324.2c-0.2,1.7-1.8,3.1-2.8,3.4l-1.3-7.3C185.6,318.3,187.1,321.8,186.9,324.2z"/>
	<path class="st3" d="M173.2,326.2c0.9,4.7,1.1,7.5,3.7,9.7c4,3.2,9.6,0.4,10.2-4.5c0.5-4.4-0.9-11.3-5.8-12.7
		C176.6,317.4,172.4,321.5,173.2,326.2z"/>
	<path class="st4" d="M174.1,329.3c2.2,1.1,3.2-1.4,3.2-2.5c0.1-1.7-0.7-3.5-1.6-4.2c4.2,0,12.5-0.2,10.4-4.2
		c-2.1-4-6.3-3.6-9.5-1.4c-1.7,1.1-7.1,0.2-5.7,3.3C168.1,321.9,170.5,327.4,174.1,329.3z"/>
	<path class="st4" d="M171.4,320.1c0,0-0.9,0.1-2.1-0.7c0.3,1.5,1.8,1.5,1.8,1.5L171.4,320.1z"/>
	<path class="st3" d="M171.4,330c0.6,1.1,1.6,2,2.6,2.2c1.5,0.5,1.8-0.9,1.5-2.4c-0.3-1.3-1-3.1-2.6-3
		C171.4,327.2,170.8,328.7,171.4,330z"/>
	<path class="st4" d="M201.9,436.9c-2-14.5-5.6-50.8-5.6-50.8l-16.9,0.6c0,0,8,36.3,10.9,51c2.9,14.7,10.9,50.2,10.9,50.2l7.6-2.9
		C208.8,485,204,452,201.9,436.9z"/>
	<path class="st6" d="M185.7,396.4c-1,0.3-2.7,0.9-3.7,1.9c1.6,7.4,3.7,17,5.5,25.5C188.7,416.5,188.7,402.5,185.7,396.4z"/>
	<path class="st4" d="M187.2,386.3c0,0-3.6,39.4-5.2,53.4c-1.8,15.3-4,47.5-4,47.5h-8.8c0,0-0.3-28.4,0.8-43.4
		c1.3-17.1,0.7-56.8,0.7-56.8L187.2,386.3z"/>
	<path class="st0" d="M179.1,487.4h-10.4l-0.2-3.1l11.5-0.2L179.1,487.4z"/>
	<path class="st0" d="M209.9,484.8l-9.1,3.4l-1.1-2.9l10.1-4L209.9,484.8z"/>
	<path class="st4" d="M180.6,326.7c0.1,0.4,0.3,0.7,0.5,0.6c0.2-0.1,0.4-0.3,0.4-0.7c-0.1-0.4-0.3-0.7-0.5-0.6
		C180.7,326,180.5,326.3,180.6,326.7z"/>
	<path class="st4" d="M184.9,326.2c0.1,0.4,0.3,0.7,0.5,0.6c0.2-0.1,0.4-0.3,0.4-0.7c-0.1-0.4-0.3-0.7-0.5-0.6
		C185.1,325.5,184.9,325.8,184.9,326.2z"/>
	<path class="st8" d="M183.6,326.5c0,0,1.1,2.1,2.2,3.1c-0.6,0.7-1.8,0.6-1.8,0.6L183.6,326.5z"/>
	<path class="st4" d="M182.5,331.4c-1.5,0-2.3-1-2.3-1c-0.1-0.1-0.1-0.1,0-0.2c0.1-0.1,0.1-0.1,0.2,0c0,0,0.9,1.1,2.6,0.9
		c0.1,0,0.1,0.1,0.1,0.1c0,0.1-0.1,0.1-0.1,0.1C182.8,331.4,182.6,331.4,182.5,331.4z"/>
	<path class="st4" d="M179,325.4c-0.1,0-0.1,0-0.1-0.1c-0.1-0.1-0.2-0.2-0.1-0.3c0.6-1.1,1.7-1.1,1.7-1.1c0.1,0,0.2,0.1,0.2,0.2
		s-0.1,0.2-0.2,0.2c-0.1,0-0.9,0.1-1.4,0.9C179.2,325.4,179.1,325.4,179,325.4z"/>
	<path class="st4" d="M186.6,324.5c-0.1,0-0.2-0.1-0.2-0.1c-0.5-0.9-1.4-0.9-1.4-0.9c-0.1,0-0.2-0.1-0.2-0.2s0.1-0.2,0.2-0.2
		c0.1,0,1.1,0,1.8,1.1c0.1,0.1,0.1,0.2-0.1,0.3C186.7,324.5,186.7,324.5,186.6,324.5z"/>
	<path class="st0" d="M177.5,494c-0.5,0-0.9-0.1-1.3-0.2c-0.1,0-0.1-0.1-0.1-0.1c0-0.1,0-0.1,0.1-0.1c0.2-0.1,1.7-1.1,2.2-0.8
		c0.1,0.1,0.2,0.1,0.2,0.3c0,0.2-0.1,0.5-0.2,0.6C178.2,493.9,177.9,494,177.5,494z M176.6,493.6c0.8,0.2,1.4,0.1,1.7-0.1
		c0.1-0.1,0.2-0.2,0.1-0.4c0-0.1-0.1-0.1-0.1-0.1C178.1,492.8,177.2,493.3,176.6,493.6z"/>
	<path class="st0" d="M176.3,493.8L176.3,493.8c-0.1,0-0.1-0.1-0.1-0.1c0-0.1,0.1-1.4,0.6-1.9c0.1-0.1,0.3-0.2,0.5-0.2
		c0.3,0.1,0.3,0.2,0.4,0.3C177.7,492.5,176.8,493.5,176.3,493.8C176.3,493.8,176.3,493.8,176.3,493.8z M177.1,491.9
		c-0.1,0-0.2,0.1-0.2,0.1c-0.3,0.3-0.5,1.1-0.5,1.5c0.5-0.4,1-1.1,1-1.5C177.4,491.9,177.4,491.9,177.1,491.9
		C177.2,491.9,177.2,491.9,177.1,491.9z"/>
	<path class="st0" d="M209.4,491.9c-0.1,0-0.1,0-0.1-0.1c0-0.1,0-0.1,0-0.1c0.2-0.2,1.6-1.8,2.3-1.7c0.1,0,0.2,0.1,0.3,0.2
		c0.1,0.2,0.1,0.4,0,0.6C211.5,491.4,210.2,491.7,209.4,491.9z M211.5,490.2c-0.4,0-1.2,0.7-1.8,1.4c1-0.2,1.8-0.5,2-0.9
		c0.1-0.1,0.1-0.2,0-0.4C211.6,490.2,211.5,490.2,211.5,490.2z"/>
	<path class="st0" d="M209.4,491.9C209.3,491.9,209.3,491.9,209.4,491.9c-0.1,0-0.1-0.1-0.1-0.1c0-0.1-0.3-1.3,0.1-2
		c0.1-0.2,0.3-0.3,0.5-0.4c0.3-0.1,0.5,0.1,0.5,0.2c0.3,0.5-0.5,1.8-0.9,2.3C209.4,491.8,209.4,491.9,209.4,491.9z M210,489.6
		c-0.1,0-0.1,0-0.1,0c-0.2,0.1-0.3,0.1-0.4,0.3c-0.3,0.5-0.2,1.3-0.1,1.6c0.4-0.5,0.9-1.6,0.7-1.9
		C210.1,489.6,210.1,489.6,210,489.6z"/>
	<path class="st5" d="M171.3,352.1c-1.4,3-2.9,6-4.4,9.1c-0.7,1.5-1.4,3-2.1,4.5l-1,2.3l-0.5,1.1l-0.1,0.3l-0.1,0.2
		c-0.1,0.1-0.1,0.3-0.2,0.4c-0.3,1.1-0.5,2.2-0.2,3.5c0.2,1.3,0.7,2.5,1.5,3.8c0.7,1.3,1.7,2.5,2.8,3.7c0.5,0.6,1.1,1.2,1.7,1.7
		c0.3,0.3,0.6,0.6,0.9,0.8c0.3,0.3,0.6,0.6,0.9,0.7l-1.9,3c-0.9-0.5-1.6-0.9-2.4-1.4c-0.7-0.5-1.5-1-2.2-1.6c-1.4-1.1-2.8-2.5-4-4
		c-1.2-1.6-2.2-3.3-2.9-5.4c-0.6-2.1-0.8-4.4-0.3-6.7c0.1-0.3,0.1-0.6,0.2-0.8l0.2-0.7l0.4-1.3c0.3-0.9,0.6-1.7,0.9-2.5
		c0.6-1.7,1.2-3.3,1.9-4.9c1.3-3.2,2.8-6.3,4.4-9.5L171.3,352.1z"/>
	<path class="st0" d="M166,345.4c-4.4,1.4-8.7,16.3-8.7,16.3l10.2,4.4c0,0,3.3-7.2,5.2-12.8C174.7,347.1,171.3,343.7,166,345.4z"/>
	<path class="st6" d="M166,345.4c-4.4,1.4-8.7,16.3-8.7,16.3l10.2,4.4c0,0,3.3-7.2,5.2-12.8C174.7,347.1,171.3,343.7,166,345.4z"/>
	<path class="st3" d="M169.4,383.5l4.2,2.5l-4.1,4.1c0,0-3.6-2.8-2.5-4.9L169.4,383.5z"/>
	<path class="st3" d="M176.4,390l-4.3,2.9l-2.6-2.9l4.1-4L176.4,390z"/>
</g>
<g>
	<path class="st7" d="M457.7,47.3h-74.5c-3.2,0-5.7,2.6-5.7,5.7v60.2c0,3.2,2.6,5.7,5.7,5.7h74.5c3.2,0,5.7-2.6,5.7-5.7V53.1
		C463.5,49.9,460.9,47.3,457.7,47.3L457.7,47.3z M459.6,113.2c0,1.1-0.9,1.9-1.9,1.9l-74.5,0c-1.1,0-1.9-0.9-1.9-1.9l0-50.5h78.4
		L459.6,113.2z M459.6,58.9h-78.4v-5.8c0-1.1,0.9-1.9,1.9-1.9h74.5c1.1,0,1.9,0.9,1.9,1.9L459.6,58.9z"/>
	<path class="st9" d="M384.4,55.2c0-0.9,0.6-1.5,1.5-1.5c0.9,0,1.5,0.6,1.5,1.5c0,0.9-0.6,1.5-1.5,1.5
		C385.1,56.8,384.4,56.1,384.4,55.2z"/>
	<path class="st9" d="M389.9,55.2c0-0.9,0.6-1.5,1.5-1.5c0.9,0,1.5,0.6,1.5,1.5c0,0.9-0.6,1.5-1.5,1.5
		C390.6,56.8,389.9,56.1,389.9,55.2z"/>
	<path class="st9" d="M412.5,70.6l21.8,20.2l-9.3-0.3l-0.8,0l0.3,0.7l5.3,12.1c0.6,1.4-0.1,3.1-1.5,3.6c-1.4,0.6-3-0.1-3.7-1.5
		l-5.3-12l-0.3-0.7l-0.5,0.6l-6.4,7L412.5,70.6z"/>
	<path class="st10" d="M457.7,47.3h-74.5c-3.2,0-5.7,2.6-5.7,5.7v60.2c0,3.2,2.6,5.7,5.7,5.7h74.5c3.2,0,5.7-2.6,5.7-5.7V53.1
		C463.5,49.9,460.9,47.3,457.7,47.3L457.7,47.3z M459.6,113.2c0,1.1-0.9,1.9-1.9,1.9l-74.5,0c-1.1,0-1.9-0.9-1.9-1.9l0-50.5h78.4
		L459.6,113.2z M459.6,58.9h-78.4v-5.8c0-1.1,0.9-1.9,1.9-1.9h74.5c1.1,0,1.9,0.9,1.9,1.9L459.6,58.9z"/>
	<defs>
		<filter id="Adobe_OpacityMaskFilter" filterUnits="userSpaceOnUse" x="376.5" y="46.3" width="88" height="73.7">
			<feColorMatrix  type="matrix" values="1 0 0 0 0  0 1 0 0 0  0 0 1 0 0  0 0 0 1 0"/>
		</filter>
	</defs>
	<mask maskUnits="userSpaceOnUse" x="376.5" y="46.3" width="88" height="73.7" id="path-4-inside-1_2862_52388_1_">
		<path class="st11" d="M457.7,47.3h-74.5c-3.2,0-5.7,2.6-5.7,5.7v60.2c0,3.2,2.6,5.7,5.7,5.7h74.5c3.2,0,5.7-2.6,5.7-5.7V53.1
			C463.5,49.9,460.9,47.3,457.7,47.3L457.7,47.3z M459.6,113.2c0,1.1-0.9,1.9-1.9,1.9l-74.5,0c-1.1,0-1.9-0.9-1.9-1.9l0-50.5h78.4
			L459.6,113.2z M459.6,58.9h-78.4v-5.8c0-1.1,0.9-1.9,1.9-1.9h74.5c1.1,0,1.9,0.9,1.9,1.9L459.6,58.9z"/>
	</mask>
	<path class="st12" d="M463.5,53.1h1v0L463.5,53.1z M459.6,113.2h1l0,0H459.6z M457.7,115.2v-1l0,0V115.2z M383.2,115.2v1l0,0V115.2
		z M381.3,113.2h1l0,0H381.3z M381.3,62.7v-1h-1l0,1H381.3z M459.6,62.7h1v-1h-1V62.7z M459.6,58.9v1h1l0-1L459.6,58.9z M381.3,58.9
		h-1v1h1V58.9z M459.6,53.1h-1v0L459.6,53.1z M457.7,46.3h-74.5v2h74.5V46.3z M383.2,46.3c-3.7,0-6.7,3-6.7,6.7h2
		c0-2.6,2.1-4.7,4.7-4.7V46.3z M376.5,53.1v60.2h2V53.1H376.5z M376.5,113.2c0,3.7,3,6.7,6.7,6.7v-2c-2.6,0-4.7-2.1-4.7-4.7H376.5z
		 M383.2,120h74.5v-2h-74.5V120z M457.7,120c3.7,0,6.7-3,6.7-6.7h-2c0,2.6-2.1,4.7-4.7,4.7V120z M464.5,113.2V53.1h-2v60.2H464.5z
		 M464.5,53.1c0-3.7-3-6.7-6.7-6.7v2c2.6,0,4.7,2.1,4.7,4.7L464.5,53.1z M457.7,48.3L457.7,48.3l0-2h0V48.3z M458.6,113.2
		c0,0.5-0.4,0.9-0.9,0.9v2c1.6,0,2.9-1.3,2.9-2.9H458.6z M457.7,114.2l-74.5,0l0,2l74.5,0V114.2z M383.2,114.2
		c-0.5,0-0.9-0.4-0.9-0.9h-2c0,1.6,1.3,2.9,2.9,2.9V114.2z M382.3,113.2l0-50.5h-2l0,50.5H382.3z M381.3,63.7h78.4v-2h-78.4V63.7z
		 M458.6,62.7l0,50.5h2l0-50.5H458.6z M459.6,57.9h-78.4v2h78.4V57.9z M382.3,58.9v-5.8h-2v5.8H382.3z M382.3,53.1
		c0-0.5,0.4-0.9,0.9-0.9v-2c-1.6,0-2.9,1.3-2.9,2.9H382.3z M383.2,52.1h74.5v-2h-74.5V52.1z M457.7,52.1c0.5,0,0.9,0.4,0.9,0.9h2
		c0-1.6-1.3-2.9-2.9-2.9V52.1z M458.6,53.1l0,5.8l2,0l0-5.8L458.6,53.1z"/>
	<path class="st9" d="M395.5,55.2c0-0.9,0.6-1.5,1.5-1.5c0.9,0,1.5,0.6,1.5,1.5c0,0.9-0.6,1.5-1.5,1.5
		C396.1,56.8,395.5,56.1,395.5,55.2z"/>
	<path class="st9" d="M384.4,55.2c0,0.9,0.7,1.5,1.5,1.5c0.9,0,1.5-0.6,1.5-1.5L384.4,55.2z M384.4,55.2c0-0.9,0.6-1.5,1.5-1.5
		 M384.4,55.2l1.5-1.5 M385.9,53.7c0.9,0,1.5,0.6,1.5,1.5L385.9,53.7z M389.9,55.2c0,0.9,0.6,1.5,1.5,1.5c0.9,0,1.5-0.6,1.5-1.5
		L389.9,55.2z M389.9,55.2c0-0.9,0.6-1.5,1.5-1.5 M389.9,55.2l1.5-1.5 M391.4,53.7c0.9,0,1.5,0.6,1.5,1.5L391.4,53.7z M397,56.8
		c-0.9,0-1.5-0.6-1.5-1.5c0-0.9,0.6-1.5,1.5-1.5c0.9,0,1.5,0.6,1.5,1.5C398.5,56.1,397.8,56.8,397,56.8z"/>
</g>
<g>
	<path class="st0" d="M382.9,381.9l-0.2,2.8l0.6,0l0.2-2.8L382.9,381.9z"/>
	<path class="st0" d="M383.7,371.4l-0.6,8l0.6,0l0.6-8L383.7,371.4z"/>
	<path class="st0" d="M368,461.7H227.3c-4.3,0-7.6-3.5-7.2-7.8l7.5-103.9c0.3-4.3,4.1-7.8,8.4-7.8h140.7c4.3,0,7.6,3.5,7.2,7.8
		l-7.5,103.9C376.1,458.1,372.3,461.7,368,461.7z"/>
	<path class="st0" d="M335.2,498h-45.7l-8.1-56.4h45.7L335.2,498z"/>
	<path class="st0" d="M328,494.7h-49.4l-1,3.3H327L328,494.7z"/>
	<path class="st4" d="M329.5,468.7l-44.5-2.4l-3.6-24.8h44.2L329.5,468.7z"/>
	<path class="st4" d="M366.4,461.7H225.7c-4.3,0-7.6-3.5-7.2-7.8l7.5-103.9c0.3-4.3,4.1-7.8,8.4-7.8H375c4.3,0,7.6,3.5,7.2,7.8
		l-7.5,103.9C374.4,458.1,370.7,461.7,366.4,461.7z"/>
	<path class="st7" d="M381.8,351l-4.3,59.6l0.6,0l4.3-59.6L381.8,351z"/>
	<path class="st7" d="M377.2,415.8l-1.5,20.6l0.6,0l1.5-20.6L377.2,415.8z"/>
	<path class="st7" d="M366.1,459.7H226.2c-3.3,0-5.9-2.8-5.6-6.1l7.4-103.5c0.2-3.3,3.2-6.1,6.5-6.1h139.8c3.3,0,5.9,2.8,5.6,6.1
		l-7.4,103.5C372.4,457,369.4,459.7,366.1,459.7z"/>
	<path class="st13" d="M366.1,459.7H226.2c-3.3,0-5.9-2.8-5.6-6.1l7.4-103.5c0.2-3.3,3.2-6.1,6.5-6.1h139.8c3.3,0,5.9,2.8,5.6,6.1
		l-7.4,103.5C372.4,457,369.4,459.7,366.1,459.7z"/>
	<path class="st14" d="M262.1,455.1h-32.6c-1.6,0-2.9-1.3-2.8-2.9l7.2-100.5c0.1-1.6,1.6-2.9,3.2-2.9h32.6c1.6,0,2.9,1.3,2.8,2.9
		l-7.2,100.5C265.1,453.8,263.7,455.1,262.1,455.1z"/>
	<path class="st15" d="M260.9,362.9H244c-1.4,0-2.6-1.2-2.5-2.6l0.2-2.6c0.1-1.4,1.4-2.6,2.8-2.6h16.9c1.4,0,2.6,1.2,2.5,2.6
		l-0.2,2.6C263.6,361.7,262.3,362.9,260.9,362.9z"/>
	<path class="st0" d="M250.1,403.5h-25.8c-2.5,0-4.5-2.1-4.3-4.6l1.8-25.8c0.2-2.5,2.4-4.6,4.9-4.6h25.8c2.5,0,4.5,2.1,4.3,4.6
		l-1.8,25.8C254.9,401.5,252.7,403.5,250.1,403.5z"/>
	<path class="st7" d="M253.8,382.4c-1,0-1.8,0.8-1.9,1.8l-0.3,3.7c-0.1,1,0.7,1.8,1.6,1.8h2.6c0.2,0,0.5-0.2,0.5-0.5l0.5-6.4
		c0-0.2-0.2-0.5-0.4-0.5H253.8z"/>
	<path class="st7" d="M243.9,375h-16.3c-0.4,0-0.7-0.3-0.6-0.7c0-0.4,0.3-0.7,0.7-0.7H244c0.4,0,0.7,0.3,0.6,0.7
		C244.5,374.8,244.2,375,243.9,375z"/>
	<path class="st7" d="M243.6,378.7h-16.3c-0.4,0-0.7-0.3-0.6-0.7c0-0.4,0.3-0.7,0.7-0.7h16.3c0.4,0,0.7,0.3,0.6,0.7
		C244.3,378.3,244,378.7,243.6,378.7z"/>
	<path class="st7" d="M237.7,382.2h-10.6c-0.4,0-0.7-0.3-0.6-0.7c0-0.4,0.3-0.7,0.7-0.7h10.6c0.4,0,0.7,0.3,0.6,0.7
		C238.5,381.9,238.1,382.2,237.7,382.2z"/>
	<path class="st14" d="M243.9,399.4h-15.7c-1.7,0-2.9-1.4-2.8-3l0.6-8.3c0.1-1.7,1.6-3,3.2-3h15.7c1.7,0,2.9,1.4,2.8,3l-0.6,8.3
		C247,398,245.5,399.4,243.9,399.4z"/>
	<path class="st15" d="M258.6,413.2H239c-0.7,0-1.3-0.6-1.2-1.3c0.1-0.7,0.7-1.3,1.4-1.3h19.6c0.7,0,1.3,0.6,1.2,1.3
		C259.9,412.6,259.3,413.2,258.6,413.2z"/>
	<path class="st16" d="M254.6,418.4h-12.4c-0.7,0-1.3-0.6-1.2-1.3c0.1-0.7,0.7-1.3,1.4-1.3h12.4c0.7,0,1.3,0.6,1.2,1.3
		C256,417.7,255.3,418.4,254.6,418.4z"/>
	<path class="st15" d="M257.5,427.4h-19.6c-0.7,0-1.3-0.6-1.2-1.3c0.1-0.7,0.7-1.3,1.4-1.3h19.6c0.7,0,1.3,0.6,1.2,1.3
		C258.9,426.8,258.3,427.4,257.5,427.4z"/>
	<path class="st16" d="M253.6,432.6h-12.4c-0.7,0-1.3-0.6-1.2-1.3c0.1-0.7,0.7-1.3,1.4-1.3h12.4c0.7,0,1.3,0.6,1.2,1.3
		C254.9,431.9,254.3,432.6,253.6,432.6z"/>
	<path class="st15" d="M256.6,441.6H237c-0.7,0-1.3-0.6-1.2-1.3c0.1-0.7,0.7-1.3,1.4-1.3h19.6c0.7,0,1.3,0.6,1.2,1.3
		C257.9,441,257.2,441.6,256.6,441.6z"/>
	<path class="st16" d="M252.6,446.7h-12.4c-0.7,0-1.3-0.6-1.2-1.3c0.1-0.7,0.7-1.3,1.4-1.3h12.4c0.7,0,1.3,0.6,1.2,1.3
		C254,446.1,253.3,446.7,252.6,446.7z"/>
	<path class="st17" d="M367.6,425.7c0.9-1.3,2.8-0.7,2.7,0.7l-1.9,26.3c-0.1,1.4-1.1,2.5-2.3,2.5h-94.7c-1.1,0-2-1.1-2-2.5l1.1-15.6
		c0.2-2.1,2.3-3.6,4.3-3c5.3,1.7,9.9,0.7,14.1-1.4c9.1-4.5,16.7-14.2,27.2-14.2c0.4,0,0.8,0,1.2,0.1c15.6,0.9,20.3,20.2,32.3,20.2
		c3.6,0,6.8-1.6,9.7-3.7C362.8,432.3,365.6,428.6,367.6,425.7z"/>
	<path class="st17" d="M369.6,436.5l-1.1,16.2c-0.1,1.4-1.1,2.5-2.3,2.5h-94.7c-1.1,0-2-1.1-2-2.5l2.3-32.2c0.2-2.2,3-3.2,4.2-1.3
		c3,4.6,7.7,10.6,13,13.5c2.1,1.1,4.2,1.8,6.4,1.8c7.6,0,14.1-9.1,21.9-16c4.8-4.3,10-7.6,16.3-7.6c13.1,0,15,21.3,25.7,24.2
		c2.1,0.6,4.4,0.5,7.3-0.6C368.1,433.8,369.7,434.9,369.6,436.5z"/>
	<g class="st18">
		<path class="st16" d="M370,430.2c-0.1,0-0.1,0-0.1-0.1l-0.1-0.1V430c0-0.1,0-0.1,0.1-0.1c0.1-0.1,0.2-0.1,0.3,0
			c0.1,0.1,0.1,0.1,0.1,0.1v0.1c0,0,0,0.1-0.1,0.1C370.1,430.1,370.1,430.2,370,430.2z"/>
		<path class="st16" d="M277.9,443.6c-0.1,0-0.2-0.1-0.2-0.2s0.1-0.2,0.2-0.2c0.1,0,0.2,0.1,0.2,0.2
			C278.2,443.6,278,443.6,277.9,443.6z M276,443.5c-0.1,0-0.2-0.1-0.2-0.2c0-0.1,0.1-0.2,0.2-0.2s0.2,0.1,0.2,0.2
			S276.1,443.5,276,443.5z M279.7,443.4c0-0.1,0.1-0.2,0.2-0.2s0.2,0.1,0.2,0.2c0,0.1-0.1,0.2-0.2,0.2
			C279.8,443.5,279.7,443.5,279.7,443.4z M274,443.2c-0.1,0-0.2-0.1-0.2-0.2s0.1-0.2,0.2-0.2s0.2,0.1,0.2,0.2
			C274.3,443.2,274.2,443.2,274,443.2C274.1,443.2,274,443.2,274,443.2z M281.6,443.1c0-0.1,0.1-0.2,0.2-0.2s0.2,0.1,0.2,0.2
			s-0.1,0.2-0.2,0.2h-0.1C281.7,443.2,281.6,443.1,281.6,443.1z M344.5,443.1c-0.1,0-0.2-0.1-0.2-0.2c0-0.1,0.1-0.2,0.2-0.2
			c0.1,0,0.2,0.1,0.2,0.2C344.6,443,344.6,443.1,344.5,443.1z M346.2,442.8c0-0.1,0.1-0.2,0.2-0.2c0.1,0,0.2,0.1,0.2,0.2
			c0,0.1-0.1,0.2-0.2,0.2S346.2,443,346.2,442.8z M342.5,443c-0.1,0-0.2-0.1-0.2-0.2c0-0.1,0.1-0.2,0.2-0.2c0.1,0,0.2,0.1,0.2,0.2
			C342.7,443,342.6,443,342.5,443z M272.1,442.8c-0.1-0.1-0.2-0.1-0.1-0.2c0.1-0.1,0.1-0.2,0.2-0.1c0.1,0.1,0.2,0.1,0.1,0.2
			C272.4,442.7,272.3,442.8,272.1,442.8C272.2,442.8,272.1,442.8,272.1,442.8z M348.1,442.6c0-0.1,0.1-0.2,0.2-0.2s0.2,0.1,0.2,0.2
			c0,0.1-0.1,0.2-0.2,0.2c0,0,0,0-0.1,0C348.3,442.7,348.1,442.7,348.1,442.6z M340.6,442.7c-0.1,0-0.2-0.1-0.2-0.2
			c0-0.1,0.1-0.2,0.2-0.2c0.1,0,0.2,0.1,0.2,0.2S340.7,442.7,340.6,442.7C340.6,442.7,340.6,442.7,340.6,442.7z M283.5,442.5
			c-0.1-0.1,0-0.2,0.1-0.2c0.1-0.1,0.2,0,0.2,0.1c0.1,0.1,0,0.2-0.1,0.2h-0.1C283.6,442.6,283.5,442.6,283.5,442.5z M350,442.1
			c0-0.1,0.1-0.2,0.1-0.2c0.1,0,0.2,0.1,0.2,0.1c0,0.1-0.1,0.2-0.1,0.2h-0.1C350.1,442.3,350,442.2,350,442.1z M338.7,442.1
			c-0.1-0.1-0.2-0.2-0.1-0.2c0.1-0.1,0.2-0.2,0.2-0.1c0.1,0.1,0.2,0.2,0.1,0.2C338.9,442,338.8,442.1,338.7,442.1
			C338.7,442.1,338.7,442.1,338.7,442.1z M285.3,441.7c-0.1-0.1,0-0.2,0.1-0.3c0.1-0.1,0.2,0,0.3,0.1c0.1,0.1,0,0.2-0.1,0.3
			c0,0-0.1,0-0.1,0C285.3,441.8,285.3,441.8,285.3,441.7z M351.9,441.6c-0.1-0.1,0-0.2,0.1-0.2c0.1-0.1,0.2,0,0.2,0.1
			c0.1,0.1,0,0.2-0.1,0.2h-0.1C352,441.7,351.9,441.6,351.9,441.6z M336.9,441.3c-0.1-0.1-0.2-0.2-0.1-0.3c0.1-0.1,0.2-0.1,0.3-0.1
			c0.1,0.1,0.2,0.2,0.1,0.3c-0.1,0.1-0.1,0.1-0.2,0.1C336.9,441.3,336.9,441.3,336.9,441.3z M353.7,440.9c-0.1-0.1,0-0.2,0.1-0.2
			c0.1-0.1,0.2,0,0.2,0.1c0.1,0.1,0,0.2-0.1,0.3h-0.1C353.8,441,353.8,440.9,353.7,440.9z M287,440.8c-0.1-0.1,0-0.2,0.1-0.3
			c0.1-0.1,0.2-0.1,0.3,0.1c0.1,0.1,0,0.2-0.1,0.3c0,0-0.1,0.1-0.1,0.1C287.1,440.9,287,440.8,287,440.8z M335.1,440.4
			c-0.1-0.1-0.1-0.2-0.1-0.3c0.1-0.1,0.2-0.1,0.3-0.1c0.1,0.1,0.1,0.2,0.1,0.3c-0.1,0.1-0.1,0.1-0.2,0.1
			C335.2,440.5,335.2,440.5,335.1,440.4z M355.5,440.1c-0.1-0.1,0-0.2,0.1-0.3c0.1-0.1,0.2,0,0.3,0.1s0,0.2-0.1,0.3h-0.1
			C355.6,440.2,355.5,440.2,355.5,440.1z M288.6,439.7c-0.1-0.1-0.1-0.2,0.1-0.3c0.1-0.1,0.2-0.1,0.3,0.1c0.1,0.1,0.1,0.2-0.1,0.3
			c-0.1,0-0.1,0.1-0.1,0.1C288.7,439.8,288.6,439.7,288.6,439.7z M333.4,439.4c-0.1-0.1-0.1-0.2-0.1-0.3c0.1-0.1,0.2-0.1,0.3-0.1
			c0.1,0.1,0.1,0.2,0.1,0.3c-0.1,0.1-0.1,0.1-0.2,0.1C333.5,439.5,333.4,439.5,333.4,439.4z M357.3,439.2c-0.1-0.1,0-0.2,0.1-0.3
			c0.1-0.1,0.2,0,0.3,0.1c0.1,0.1,0,0.2-0.1,0.3c0,0-0.1,0-0.1,0C357.4,439.3,357.3,439.3,357.3,439.2z M290.2,438.5
			c-0.1-0.1-0.1-0.2,0-0.3c0.1-0.1,0.2-0.1,0.3,0.1c0.1,0.1,0.1,0.2,0,0.3c-0.1,0-0.1,0.1-0.1,0.1
			C290.2,438.6,290.2,438.6,290.2,438.5z M331.8,438.4c-0.1-0.1-0.1-0.2-0.1-0.3c0.1-0.1,0.2-0.1,0.3-0.1c0.1,0.1,0.1,0.2,0.1,0.3
			c-0.1,0.1-0.1,0.1-0.2,0.1S331.8,438.4,331.8,438.4z M358.9,438.3c-0.1-0.1,0-0.2,0.1-0.3c0.1-0.1,0.2,0,0.3,0.1
			c0.1,0.1,0,0.2-0.1,0.3c-0.1,0-0.1,0-0.1,0C359.1,438.4,359,438.4,358.9,438.3z M330.2,437.3c-0.1-0.1-0.1-0.2-0.1-0.3
			c0.1-0.1,0.2-0.1,0.3-0.1c0.1,0.1,0.1,0.2,0.1,0.3c-0.1,0.1-0.1,0.1-0.2,0.1C330.2,437.4,330.2,437.4,330.2,437.3z M360.6,437.3
			c-0.1-0.1,0-0.2,0.1-0.3c0.1-0.1,0.2,0,0.3,0.1c0.1,0.1,0,0.2-0.1,0.3c0,0-0.1,0.1-0.1,0.1C360.7,437.4,360.7,437.3,360.6,437.3z
			 M291.7,437.3c-0.1-0.1-0.1-0.2,0-0.3c0.1-0.1,0.2-0.1,0.3,0c0.1,0.1,0.1,0.2-0.1,0.3c-0.1,0.1-0.1,0.1-0.1,0.1
			C291.8,437.3,291.7,437.3,291.7,437.3z M362.3,436.2c-0.1-0.1-0.1-0.2,0.1-0.3c0.1-0.1,0.2-0.1,0.3,0.1c0.1,0.1,0.1,0.2-0.1,0.3
			c-0.1,0-0.1,0.1-0.1,0.1C362.4,436.3,362.3,436.2,362.3,436.2z M328.5,436.2c-0.1-0.1-0.1-0.2-0.1-0.3c0.1-0.1,0.2-0.1,0.3-0.1
			c0.1,0.1,0.1,0.2,0.1,0.3c-0.1,0.1-0.1,0.1-0.2,0.1C328.6,436.3,328.5,436.3,328.5,436.2z M293.2,436c-0.1-0.1-0.1-0.2,0-0.3
			c0.1-0.1,0.2-0.1,0.3,0c0.1,0.1,0.1,0.2,0,0.3c-0.1,0.1-0.1,0.1-0.1,0.1C293.3,436.1,293.2,436.1,293.2,436z M326.9,435.1
			c-0.1-0.1-0.1-0.2-0.1-0.3c0.1-0.1,0.2-0.1,0.3-0.1c0.1,0.1,0.1,0.2,0.1,0.3c-0.1,0.1-0.1,0.1-0.2,0.1
			C327,435.2,326.9,435.2,326.9,435.1z M363.9,435.1c-0.1-0.1-0.1-0.2,0.1-0.3c0.1-0.1,0.2-0.1,0.3,0.1c0.1,0.1,0.1,0.2-0.1,0.3
			c-0.1,0-0.1,0.1-0.1,0.1C363.9,435.1,363.9,435.1,363.9,435.1z M294.6,434.8c-0.1-0.1-0.1-0.2,0-0.3c0.1-0.1,0.2-0.1,0.3,0
			c0.1,0.1,0.1,0.2,0,0.3c-0.1,0.1-0.1,0.1-0.1,0.1C294.8,434.9,294.7,434.9,294.6,434.8z M325.3,434.1c-0.1-0.1-0.1-0.2-0.1-0.3
			c0.1-0.1,0.2-0.1,0.3-0.1c0.1,0.1,0.1,0.2,0.1,0.3c-0.1,0.1-0.1,0.1-0.2,0.1C325.3,434.2,325.3,434.2,325.3,434.1z M365.4,433.9
			c-0.1-0.1-0.1-0.2,0.1-0.3c0.1-0.1,0.2-0.1,0.3,0.1c0.1,0.1,0.1,0.2-0.1,0.3c-0.1,0-0.1,0.1-0.1,0.1
			C365.5,434,365.5,433.9,365.4,433.9z M296.2,433.6c-0.1-0.1-0.1-0.2,0.1-0.3c0.1-0.1,0.2-0.1,0.3,0.1c0.1,0.1,0.1,0.2-0.1,0.3
			c-0.1,0-0.1,0.1-0.1,0.1C296.3,433.6,296.3,433.6,296.2,433.6z M323.6,433.1c-0.1-0.1-0.1-0.2-0.1-0.3c0.1-0.1,0.2-0.1,0.3-0.1
			c0.1,0.1,0.1,0.2,0.1,0.3c-0.1,0.1-0.1,0.1-0.2,0.1C323.7,433.1,323.6,433.1,323.6,433.1z M366.9,432.7c-0.1-0.1-0.1-0.2,0-0.3
			c0.1-0.1,0.2-0.1,0.3,0c0.1,0.1,0.1,0.2,0,0.3c-0.1,0-0.1,0.1-0.1,0.1C367,432.8,367,432.7,366.9,432.7z M297.8,432.4
			c-0.1-0.1-0.1-0.2,0.1-0.3c0.1-0.1,0.2-0.1,0.3,0.1c0.1,0.1,0.1,0.2-0.1,0.3c-0.1,0-0.1,0.1-0.1,0.1
			C297.9,432.6,297.8,432.5,297.8,432.4z M321.9,432.2c-0.1-0.1-0.1-0.2-0.1-0.3c0.1-0.1,0.2-0.1,0.3-0.1c0.1,0.1,0.1,0.2,0.1,0.3
			c-0.1,0.1-0.1,0.1-0.2,0.1C321.9,432.2,321.9,432.2,321.9,432.2z M368.4,431.4c-0.1-0.1-0.1-0.2,0-0.3c0.1-0.1,0.2-0.1,0.3,0
			c0.1,0.1,0.1,0.2,0,0.3c-0.1,0.1-0.1,0.1-0.1,0.1C368.5,431.5,368.5,431.5,368.4,431.4z M299.4,431.4c-0.1-0.1,0-0.2,0.1-0.3
			c0.1-0.1,0.2,0,0.3,0.1c0.1,0.1,0,0.2-0.1,0.3c-0.1,0-0.1,0-0.1,0C299.5,431.5,299.5,431.5,299.4,431.4z M320.2,431.3
			c-0.1-0.1-0.2-0.2-0.1-0.3c0.1-0.1,0.2-0.2,0.3-0.1c0.1,0.1,0.2,0.2,0.1,0.3c0,0.1-0.1,0.1-0.2,0.1
			C320.2,431.4,320.2,431.4,320.2,431.3z M318.3,430.7c-0.1-0.1-0.2-0.2-0.1-0.2c0.1-0.1,0.2-0.2,0.2-0.1c0.1,0.1,0.2,0.2,0.1,0.2
			C318.5,430.6,318.4,430.7,318.3,430.7C318.4,430.7,318.4,430.7,318.3,430.7z M301.1,430.5c-0.1-0.1,0-0.2,0.1-0.3
			c0.1-0.1,0.2,0,0.3,0.1s0,0.2-0.1,0.3h-0.1C301.3,430.6,301.2,430.5,301.1,430.5z M316.5,430c-0.1-0.1-0.2-0.1-0.1-0.2
			c0-0.1,0.2-0.2,0.2-0.1c0.1,0,0.2,0.1,0.1,0.2C316.7,430,316.7,430,316.5,430C316.5,430,316.5,430,316.5,430z M302.9,429.7
			c-0.1-0.1,0-0.2,0.1-0.2c0.1-0.1,0.2,0,0.2,0.1c0.1,0.1,0,0.2-0.1,0.2h-0.1C303,429.9,303,429.9,302.9,429.7z M314.6,429.6
			c-0.1,0-0.2-0.1-0.2-0.2s0.1-0.2,0.2-0.2s0.2,0.1,0.2,0.2S314.8,429.6,314.6,429.6z M304.8,429.2c0-0.1,0.1-0.2,0.2-0.2
			s0.2,0.1,0.2,0.2s-0.1,0.2-0.2,0.2c0,0,0,0-0.1,0C304.9,429.4,304.8,429.3,304.8,429.2z M312.7,429.2c-0.1,0-0.2-0.1-0.2-0.2
			s0.1-0.2,0.2-0.2s0.2,0.1,0.2,0.2C312.9,429.2,312.9,429.2,312.7,429.2z M306.7,428.9c0-0.1,0.1-0.2,0.2-0.2
			c0.1,0,0.2,0.1,0.2,0.2c0,0.1-0.1,0.2-0.2,0.2S306.8,429,306.7,428.9z M310.8,429c-0.1,0-0.2-0.1-0.2-0.2s0.1-0.2,0.2-0.2
			s0.2,0.1,0.2,0.2C311,428.9,310.9,429.1,310.8,429C310.8,429.1,310.8,429,310.8,429z M308.7,428.8c0-0.1,0.1-0.2,0.2-0.2
			s0.2,0.1,0.2,0.2s-0.1,0.2-0.2,0.2C308.8,428.9,308.7,428.9,308.7,428.8z"/>
		<path class="st16" d="M270.3,442.1L270.3,442.1c-0.1,0-0.1,0-0.1-0.1l-0.1-0.1V442c0-0.1,0-0.1,0.1-0.1l0.1-0.1c0.1,0,0.1,0,0.2,0
			c0,0,0.1,0,0.1,0.1c0.1,0.1,0.1,0.1,0.1,0.1v0.1c0,0,0,0.1-0.1,0.1l-0.1,0.1C270.3,442.1,270.3,442.1,270.3,442.1z"/>
	</g>
	<path class="st7" d="M301.8,383.3l-1.3-1.4c-2.4,2.2-5.6,3.6-9,3.6c-5.7,0-10.2-3.8-11.2-9.1l-2,0.5l-1.8,0.5
		c0.5,2.8,1.8,5.2,3.7,7.2c5.8,6.3,16.1,6.3,22.9,0L301.8,383.3z"/>
	<path class="st4" d="M304.6,361.7l-1.8,1.7l-1.2,1.1c2.1,2.2,3.2,5.3,3,8.7c-0.2,3.4-1.8,6.4-4.2,8.7l1,1.1l1.5,1.6
		c3.3-3,5.2-7.2,5.6-11.4C308.8,368.9,307.5,364.8,304.6,361.7z"/>
	<path class="st0" d="M304.6,361.7c-5.9-6.3-16.1-6.3-22.9,0c-4.4,4.1-6.4,10.1-5.3,15.6l2.3-0.6l1.6-0.4c-0.2-1-0.3-2.1-0.2-3.2
		c0.5-6.8,6.4-12.3,13.2-12.3c3.4,0,6.4,1.4,8.4,3.6l1.6-1.4L304.6,361.7z"/>
	<path class="st7" d="M321.1,383.3l1.6-1.4c-2.1-2.2-3.2-5.3-3-8.7c0.4-5.7,4.6-10.5,9.9-11.8l-0.4-2l-0.3-1.8
		c-2.8,0.7-5.4,2.2-7.6,4.2c-6.7,6.3-7.5,16.6-1.7,22.9L321.1,383.3z"/>
	<path class="st4" d="M342.6,384.6l-1.5-1.7l-1-1.1c-2.4,2.2-5.6,3.6-9,3.6c-3.4,0-6.4-1.4-8.4-3.6l-1.2,1.1l-1.7,1.6
		c2.8,3,6.8,4.8,11.1,4.8C335.1,389.4,339.3,387.7,342.6,384.6z"/>
	<path class="st0" d="M342.6,384.6c6.7-6.3,7.5-16.6,1.7-22.9c-3.8-4.1-9.7-5.7-15.3-4.2l0.5,2.2l0.3,1.6c1-0.3,2.1-0.4,3.2-0.4
		c6.8,0,11.9,5.5,11.4,12.3c-0.2,3.4-1.8,6.4-4.2,8.7l1.3,1.4L342.6,384.6z"/>
	<path class="st19" d="M369.7,358.4c0.3,0,0.6,0.1,0.9,0.3s0.3,0.5,0.3,0.9l-0.7,9.9c-0.1,0.7-0.7,1.3-1.4,1.3h-9.9
		c-0.3,0-0.6-0.1-0.9-0.3c-0.2-0.2-0.3-0.5-0.3-0.9l0.7-9.9c0.1-0.7,0.7-1.3,1.4-1.3H369.7z M369.7,357.9h-9.9c-1,0-1.8,0.8-1.9,1.8
		l-0.7,9.9c-0.1,1,0.7,1.8,1.7,1.8h9.9c1,0,1.8-0.8,1.9-1.8l0.7-9.9C371.5,358.7,370.7,357.9,369.7,357.9z"/>
	<path class="st19" d="M368.5,375.5c0.3,0,0.6,0.1,0.9,0.3c0.2,0.2,0.3,0.5,0.3,0.9l-0.7,9.9c-0.1,0.7-0.7,1.3-1.4,1.3h-9.9
		c-0.3,0-0.6-0.1-0.9-0.3c-0.2-0.2-0.3-0.5-0.3-0.9l0.7-9.9c0.1-0.7,0.7-1.3,1.4-1.3H368.5z M368.5,375h-9.9c-1,0-1.8,0.8-1.9,1.8
		l-0.7,9.9c-0.1,1,0.7,1.8,1.7,1.8h9.9c1,0,1.8-0.8,1.9-1.8l0.7-9.9C370.3,375.8,369.5,375,368.5,375z"/>
	<path class="st0" d="M354,430.3c0.3,0,0.5,0.1,0.7,0.3c0.2,0.2,0.3,0.5,0.2,0.7c-0.1,0.6-0.6,1.1-1.2,1.1c-0.3,0-0.5-0.1-0.7-0.3
		c-0.2-0.2-0.3-0.5-0.2-0.7C352.9,430.8,353.4,430.3,354,430.3z M354,429.8c-0.9,0-1.6,0.7-1.7,1.6c-0.1,0.9,0.6,1.6,1.4,1.6
		s1.6-0.7,1.7-1.6C355.5,430.5,354.9,429.8,354,429.8z"/>
	<path class="st0" d="M354.2,429.9l-0.3-0.1l0.1-0.5h0.2V429.9z"/>
	<path class="st0" d="M354.3,428.3h-0.2l0.1-1h0.2L354.3,428.3z M354.4,426.2h-0.2l0.1-1h0.2L354.4,426.2z M354.6,424.2h-0.2l0.1-1
		h0.2L354.6,424.2z M354.7,422h-0.2l0.1-1h0.2L354.7,422z M354.9,420h-0.2l0.1-1h0.2L354.9,420z M355,417.9h-0.2l0.1-1h0.2
		L355,417.9z M355.1,415.8h-0.2l0.1-1h0.2L355.1,415.8z M355.3,413.8h-0.2l0.1-1h0.2L355.3,413.8z M355.4,411.7h-0.2l0.1-1h0.2
		L355.4,411.7z M355.6,409.6h-0.2l0.1-1h0.2L355.6,409.6z M355.7,407.6h-0.2l0.1-1h0.2L355.7,407.6z"/>
	<path class="st0" d="M355.7,404.9l0,0.5l0.2,0l0-0.5L355.7,404.9z"/>
	<path class="st0" d="M366.5,405.2h-91c-0.5,0-1-0.2-1.3-0.6s-0.5-0.9-0.5-1.4l0.5-6.3c0.1-1,1-1.9,2-1.9h91c0.5,0,1,0.2,1.3,0.6
		c0.3,0.3,0.5,0.9,0.5,1.4l-0.5,6.3C368.5,404.3,367.5,405.2,366.5,405.2z M276.2,395.7c-0.7,0-1.4,0.6-1.5,1.4l-0.5,6.3
		c0,0.3,0.1,0.7,0.3,1c0.2,0.2,0.6,0.4,0.9,0.4h90.9c0.7,0,1.4-0.6,1.5-1.4l0.5-6.3c0-0.3-0.1-0.7-0.3-1c-0.2-0.2-0.6-0.4-0.9-0.4
		H276.2z"/>
	<path class="st20" d="M364.6,399.2h-86.2c-0.5,0-0.8-0.4-0.8-0.9c0.1-0.5,0.5-0.9,0.9-0.9h86.2c0.5,0,0.8,0.4,0.8,0.9
		C365.4,398.8,365,399.2,364.6,399.2z"/>
	<path class="st20" d="M350.2,402.7H278c-0.5,0-0.8-0.4-0.8-0.9c0.1-0.5,0.5-0.9,0.9-0.9h72.1c0.5,0,0.8,0.4,0.8,0.9
		C351.1,402.4,350.7,402.7,350.2,402.7z"/>
</g>
</svg>
