<?xml version="1.0" encoding="utf-8"?>
<!-- Generator: Adobe Illustrator 25.2.1, SVG Export Plug-In . SVG Version: 6.00 Build 0)  -->
<svg version="1.1" id="Layer_1" xmlns="http://www.w3.org/2000/svg" xmlns:xlink="http://www.w3.org/1999/xlink" x="0px" y="0px"
	 width="497.6px" height="509px" viewBox="0 0 497.6 509" style="enable-background:new 0 0 497.6 509;" xml:space="preserve">
<style type="text/css">
	.st0{fill:#BACCD1;stroke:#FFFFFF;stroke-width:3;}
	.st1{fill:none;stroke:#BACCD1;stroke-width:3;stroke-linecap:round;stroke-miterlimit:10;}
</style>
<g>
	<path class="st0" d="M-25.2,343.5c-1.3,9.6-1.3,18.9-0.1,27.9l0,0l0,0c0.3,2.3,0.7,4.5,1.2,6.7l0.2,1.1l-1,0.6l-20.6,11.8l-1.9,1.1
		l-0.3-2.1c-1.6-9.8-1.1-19.9,1.5-29.7l0,0L-25.2,343.5z M-20.3,322.4l-3.9,3.4c-10.6,9.2-18.2,21.2-21.9,35 M-20.3,322.4
		l-25.8,38.3 M-21.8,327.3l1.4-4.9 M-21.8,327.3l1.4-4.9 M-25.2,343.5c0.9-6.3,2.2-11.7,3.5-16.2L-25.2,343.5z M94.2,398.6
		c-2.5,9.5-6.8,18.1-12.6,25.9c-6.1,8-13.6,14.6-22.4,19.7c-8.8,5.1-18.3,8.3-28.2,9.5l0,0c-9.6,1.2-19.2,0.5-28.7-2
		c-9.5-2.5-18.1-6.8-25.9-12.6c-8-6.1-14.6-13.6-19.7-22.4c-5.1-8.8-8.3-18.3-9.5-28.2v0c-1.2-9.6-0.5-19.2,2-28.7
		c2.5-9.5,6.8-18.1,12.6-25.9c6.1-8,13.6-14.6,22.4-19.7c8.8-5.1,18.3-8.3,28.2-9.5l0,0c9.6-1.2,19.2-0.5,28.7,2
		c9.5,2.5,18.1,6.8,25.9,12.6c8,6.1,14.6,13.6,19.7,22.4l0,0c5.1,8.8,8.3,18.2,9.5,28.2l0,0C97.5,379.5,96.8,389.1,94.2,398.6z
		 M29.1,399.6l1.3-0.7l-0.7-1.3L11.5,366l-0.7-1.3l-1.3,0.7L-17.5,381l-1,0.6l0.3,1.1c1.8,6.2,4.4,12.1,7.6,17.7
		c3,5.3,6.6,10.1,10.7,14.5l0.8,0.9l1-0.6L29.1,399.6z M38.1,399.7l-1.3,0.7l0.7,1.3l19.6,34l1.4,2.5l1.2-2.6c2-4,4.7-11.2,6.4-20.3
		c1.6-8.5,1.9-16.9,0.9-25.1c-0.2-1.5-0.4-3.1-0.7-4.5l-0.4-2l-1.8,1L38.1,399.7z M33.5,404.1l-0.7-1.3l-1.3,0.7L6.4,418l-1.8,1.1
		l1.6,1.4c1.1,0.9,2.3,1.9,3.4,2.7l0,0l0,0c6.5,4.9,13.9,9,22.1,11.8c8,2.9,15.1,4.2,19.7,4.7l2.9,0.3l-1.5-2.6L33.5,404.1z
		 M-12.9,323.5l-1.6-2.8l-1.1,3.1c-1.7,4.7-3.7,11.9-4.9,20.4c-1.2,9.1-1.3,18-0.1,26.6l0,0l0,0c0.2,1.3,0.4,2.6,0.6,3.8l0.3,2.2
		l1.9-1.1l24.9-14.4l1.3-0.7l-0.7-1.3L-12.9,323.5z M11.8,357l0.7,1.3l1.3-0.7l25.8-14.9l1.8-1l-1.6-1.4c-0.7-0.6-1.4-1.2-2.1-1.8
		c-0.3-0.2-0.5-0.4-0.8-0.7l0,0l0,0c-6.7-5.3-14.5-9.8-22.9-13.3c-9-3.7-16.9-5.5-21.7-6.4l-3.2-0.5l1.6,2.8L11.8,357z M63.8,379.5
		l1-0.6l-0.3-1.1c-1.7-5.7-4.1-11.2-7.2-16.6c-3.2-5.6-7.1-10.8-11.6-15.5l-0.8-0.8l-1,0.6l-27.7,16l-1.3,0.7l0.7,1.3l0,0.1
		l18.2,31.5l0.7,1.3l1.3-0.7L63.8,379.5z M89.7,364.7l1-0.6l-0.3-1.1c-1.6-6.6-4.1-13-7.6-19.1c-2.9-5-6.3-9.5-10.2-13.6l-0.8-0.9
		l-1,0.6l-20,11.5l-1.6,0.9l1.3,1.4c4.2,4.6,7.9,9.6,11,15.1c2.9,5,5.2,10.3,7,15.8l0.6,1.8l1.6-0.9L89.7,364.7z M71.3,380.7l-1,0.6
		l0.2,1.1c0.6,2.5,1,4.9,1.3,7.3l0,0c1,8.6,0.7,17.6-0.9,26.6c-0.9,4.7-2,8.8-3.2,12.4l2.5,1.6c9.3-8.8,16-20.1,19.5-32.8
		c2.3-8.6,3-17.4,2-26l-0.3-2.3l-2,1.1L71.3,380.7z M30.2,439.6c-8.6-3-16.5-7.2-23.4-12.5c-2-1.5-3.9-3.1-5.7-4.8l-0.8-0.7
		l-0.9,0.5l-19.2,11l-2,1.1l1.9,1.4c7,5.2,15,9,23.5,11.3c13.2,3.5,26.9,3.2,39.6-0.9l5.4-1.7l-5.6-1.2
		C39.2,442.4,34.9,441.3,30.2,439.6z M-4.8,419.1l1.6-0.9l-1.2-1.4c-3.8-4.2-7.2-9-10.2-14.1c-3.1-5.4-5.6-11.1-7.5-17.1l-0.6-1.8
		l-1.6,0.9l-20.8,12l-1,0.6l0.3,1.1c1.5,5.4,3.8,10.6,6.7,15.6c3.5,6,7.8,11.5,12.8,16.2l0.8,0.8l1-0.6L-4.8,419.1z M15.5,320
		c8.9,3.7,17.1,8.3,24.2,13.9c1.8,1.4,3.6,2.9,5.2,4.4l0.8,0.8l1-0.6l19.7-11.3l1.9-1.1l-1.7-1.4c-7.7-6.3-16.6-11-26.5-13.6
		c-13.4-3.6-27.1-3.2-40,1l-4.9,1.6l5,1.3C4.6,316.2,9.8,317.8,15.5,320z"/>
</g>
<g>
	<path class="st1" d="M32.3,149.7c1.2-4.8,3.6-9.4,7.4-13.1l0,0c10.9-10.9,28.6-10.9,39.6,0l20.6,20.6c10.9,10.9,10.9,28.6,0,39.6
		l0,0c-10.9,10.9-28.6,10.9-39.6,0l-16.1-16.1"/>
	<path class="st1" d="M68.7,145.1c-1.2,4.8-3.6,9.4-7.4,13.1l0,0c-10.9,10.9-28.6,10.9-39.6,0L1.1,137.6
		c-10.9-10.9-10.9-28.6,0-39.6l0,0c10.9-10.9,28.6-10.9,39.6,0l16.1,16.1"/>
</g>
</svg>
