<?xml version="1.0" encoding="utf-8"?>
<!-- Generator: Adobe Illustrator 25.2.1, SVG Export Plug-In . SVG Version: 6.00 Build 0)  -->
<svg version="1.1" id="Layer_1" xmlns="http://www.w3.org/2000/svg" xmlns:xlink="http://www.w3.org/1999/xlink" x="0px" y="0px"
	 width="497.6px" height="509px" viewBox="0 0 497.6 509" style="enable-background:new 0 0 497.6 509;" xml:space="preserve">
<style type="text/css">
	.st0{fill:#407BFF;}
	.st1{opacity:0.9;fill:#E3EBFA;enable-background:new    ;}
	.st2{fill:#F5F5F5;}
	.st3{opacity:0.8;fill:#FFFFFF;enable-background:new    ;}
	.st4{fill:#FFFFFF;}
	.st5{opacity:0.3;fill:#407BFF;enable-background:new    ;}
	.st6{fill:#C6D8FF;}
	.st7{opacity:0.4;fill:#407BFF;enable-background:new    ;}
	.st8{opacity:0.1;fill:#407BFF;enable-background:new    ;}
	.st9{fill:#0D51D9;}
	.st10{opacity:0.6;fill:#FFFFFF;enable-background:new    ;}
	.st11{fill:#263238;}
	.st12{fill:#FF8B7B;}
	.st13{opacity:0.2;enable-background:new    ;}
	.st14{fill:#FF5652;}
	.st15{opacity:0.2;}
	.st16{opacity:0.5;fill:#407BFF;enable-background:new    ;}
	.st17{fill:#BACCD1;stroke:#FFFFFF;stroke-width:2.5;}
	.st18{fill:#BACCD1;stroke:#FFFFFF;}
	.st19{fill:#BACCD1;}
	.st20{fill:#FFFFFF;filter:url(#Adobe_OpacityMaskFilter);}
	.st21{mask:url(#path-4-inside-1_2841_51825_1_);fill:#FFFFFF;}
	.st22{fill:#BACCD1;stroke:#FFFFFF;stroke-width:3;}
</style>
<g>
	<path class="st0" d="M264.2,323.9c-55.9-1-108.9-18.8-130.5,40.9C108,436,165.6,473.7,234.6,467.5c37.3-3.4,94-44.6,107.8-79.5
		c6.9-17.6,11.5-56.7-3.9-68.9C314.2,299.9,291.9,324.4,264.2,323.9z"/>
	<path class="st1" d="M264.2,323.9c-55.9-1-108.9-18.8-130.5,40.9C108,436,165.6,473.7,234.6,467.5c37.3-3.4,94-44.6,107.8-79.5
		c6.9-17.6,11.5-56.7-3.9-68.9C314.2,299.9,291.9,324.4,264.2,323.9z"/>
	<path class="st2" d="M266,508c79.2,0,143.4-3.7,143.4-8.4c0-4.6-64.2-8.4-143.4-8.4c-79.2,0-143.4,3.7-143.4,8.4
		C122.6,504.2,186.8,508,266,508z"/>
	<path class="st0" d="M363.7,413.9H190.3c-1,0-2.1-0.2-3-0.6c-0.9-0.4-1.8-1-2.5-1.7c-0.7-0.7-1.3-1.6-1.6-2.6c-0.4-1-0.5-2-0.5-3
		l6.6-134.1c0.1-2.1,1.1-4.1,2.6-5.6c1.5-1.5,3.6-2.3,5.7-2.3H371c1,0,2.1,0.2,3,0.6c0.9,0.4,1.8,1,2.5,1.7c0.7,0.7,1.3,1.6,1.6,2.6
		c0.4,1,0.5,2,0.4,3L372,406c-0.1,2.1-1.1,4.1-2.6,5.6C367.9,413.1,365.8,413.9,363.7,413.9z"/>
	<path class="st3" d="M363.7,413.9H190.3c-1,0-2.1-0.2-3-0.6c-0.9-0.4-1.8-1-2.5-1.7c-0.7-0.7-1.3-1.6-1.6-2.6c-0.4-1-0.5-2-0.5-3
		l6.6-134.1c0.1-2.1,1.1-4.1,2.6-5.6c1.5-1.5,3.6-2.3,5.7-2.3H371c1,0,2.1,0.2,3,0.6c0.9,0.4,1.8,1,2.5,1.7c0.7,0.7,1.3,1.6,1.6,2.6
		c0.4,1,0.5,2,0.4,3L372,406c-0.1,2.1-1.1,4.1-2.6,5.6C367.9,413.1,365.8,413.9,363.7,413.9z"/>
	<path class="st0" d="M243.6,261.6h-3.5v0.7h3.5V261.6z"/>
	<path class="st0" d="M236.1,261.6h-14.5v0.7h14.5V261.6z"/>
	<path class="st0" d="M371,263.9H197.7c-2.1,0-4.2,0.9-5.7,2.3s-2.5,3.5-2.6,5.6h189.3c0.1-1-0.1-2.1-0.5-3c-0.4-1-0.9-1.9-1.6-2.6
		c-0.7-0.7-1.6-1.3-2.5-1.7C373.1,264.1,372,263.9,371,263.9z"/>
	<path class="st4" d="M369.1,285.8H197.4c-0.3,0-0.6,0-0.8-0.2c-0.3-0.1-0.5-0.3-0.7-0.5c-0.2-0.2-0.3-0.4-0.4-0.7
		c-0.1-0.3-0.1-0.5-0.1-0.8l0.2-4.4c0-0.6,0.3-1.1,0.7-1.5c0.4-0.4,1-0.6,1.5-0.6h171.8c0.3,0,0.5,0.1,0.8,0.2
		c0.3,0.1,0.5,0.3,0.7,0.5c0.2,0.2,0.3,0.4,0.4,0.7s0.1,0.5,0.1,0.8l-0.2,4.4c0,0.6-0.3,1.1-0.7,1.5
		C370.3,285.6,369.7,285.8,369.1,285.8z"/>
	<path class="st5" d="M247.7,283.7h-46.5c-0.1,0-0.3,0-0.4-0.1c-0.1-0.1-0.3-0.1-0.4-0.2c-0.1-0.1-0.2-0.2-0.2-0.4
		c-0.1-0.1-0.1-0.3-0.1-0.4l0.1-2.3c0-0.3,0.1-0.6,0.4-0.8c0.2-0.2,0.5-0.3,0.8-0.3h46.5c0.1,0,0.3,0,0.4,0.1s0.3,0.1,0.4,0.2
		s0.2,0.2,0.2,0.4c0.1,0.1,0.1,0.3,0.1,0.4l-0.1,2.3c0,0.3-0.1,0.6-0.4,0.8C248.3,283.6,248,283.7,247.7,283.7z"/>
	<path class="st4" d="M365.9,400.6H193.7c-0.3,0-0.6-0.1-0.8-0.2c-0.3-0.1-0.5-0.3-0.7-0.5c-0.2-0.2-0.3-0.5-0.4-0.8
		c-0.1-0.3-0.1-0.6-0.1-0.9l4.5-106c0-0.7,0.3-1.3,0.7-1.7c0.4-0.5,1-0.7,1.5-0.7h172.2c0.3,0,0.6,0.1,0.8,0.2
		c0.3,0.1,0.5,0.3,0.7,0.5c0.2,0.2,0.3,0.5,0.4,0.8c0.1,0.3,0.1,0.6,0.1,0.9l-4.5,106c0,0.7-0.3,1.3-0.7,1.7
		C367,400.3,366.5,400.5,365.9,400.6z"/>
	<path class="st6" d="M355.6,360.6h-52.3c-0.1,0-0.2,0-0.2-0.1c-0.1-0.1-0.1-0.2-0.2-0.3c-0.1-0.1-0.1-0.3-0.1-0.5
		c0-0.2,0-0.4,0-0.6l1.4-64c0-0.4,0.1-0.8,0.2-1.1c0.1-0.3,0.3-0.4,0.5-0.4H357c0.1,0,0.2,0,0.2,0.1s0.1,0.2,0.2,0.3
		c0.1,0.1,0.1,0.3,0.1,0.5c0,0.2,0,0.4,0,0.6l-1.4,64c0,0.4-0.1,0.8-0.2,1.1C355.9,360.4,355.7,360.6,355.6,360.6z"/>
	<path class="st5" d="M230.2,299.1h-30.3c-0.1,0-0.3,0-0.4-0.1c-0.1-0.1-0.3-0.1-0.4-0.2c-0.1-0.1-0.2-0.2-0.2-0.4
		c0-0.1-0.1-0.3-0.1-0.4l0.1-2.3c0-0.3,0.1-0.6,0.4-0.8c0.2-0.2,0.5-0.3,0.8-0.3h30.3c0.1,0,0.3,0,0.4,0.1c0.1,0.1,0.3,0.1,0.4,0.2
		c0.1,0.1,0.2,0.2,0.2,0.4c0.1,0.1,0.1,0.3,0.1,0.4l-0.1,2.3c0,0.3-0.1,0.6-0.4,0.8C230.8,298.9,230.5,299.1,230.2,299.1z"/>
	<path class="st5" d="M287.7,308.3h-88.4c-0.1,0-0.3,0-0.4-0.1s-0.3-0.1-0.4-0.2c-0.1-0.1-0.2-0.2-0.2-0.4c0-0.1-0.1-0.3-0.1-0.4
		l0.1-2.3c0-0.3,0.1-0.6,0.4-0.8c0.2-0.2,0.5-0.3,0.8-0.3h88.4c0.1,0,0.3,0,0.4,0.1c0.1,0.1,0.3,0.1,0.4,0.2
		c0.1,0.1,0.2,0.2,0.2,0.4c0,0.1,0.1,0.3,0.1,0.4l-0.1,2.3c0,0.3-0.1,0.6-0.4,0.8C288.3,308.1,288,308.3,287.7,308.3z"/>
	<path class="st5" d="M271.3,315.1H199c-0.1,0-0.3,0-0.4-0.1c-0.1-0.1-0.3-0.1-0.4-0.2c-0.1-0.1-0.2-0.2-0.2-0.4
		c0-0.1-0.1-0.3-0.1-0.4l0.1-2.3c0-0.3,0.1-0.6,0.4-0.8c0.2-0.2,0.5-0.3,0.8-0.3h72.3c0.1,0,0.3,0,0.4,0.1c0.1,0.1,0.3,0.1,0.4,0.2
		s0.2,0.2,0.2,0.4c0.1,0.1,0.1,0.3,0.1,0.4l-0.1,2.3c0,0.3-0.1,0.6-0.4,0.8C271.9,315,271.6,315.1,271.3,315.1z"/>
	<path class="st0" d="M349.9,409h12.7c0.7,0,1.4-0.3,1.9-0.8c0.5-0.5,0.8-1.2,0.9-1.9c0-0.3,0-0.7-0.1-1c-0.1-0.3-0.3-0.6-0.5-0.9
		c-0.2-0.2-0.5-0.4-0.8-0.6c-0.3-0.1-0.7-0.2-1-0.2h-12.7c-0.7,0-1.4,0.3-1.9,0.8c-0.5,0.5-0.8,1.2-0.9,1.9c0,0.3,0,0.7,0.2,1
		c0.1,0.3,0.3,0.6,0.5,0.9c0.2,0.2,0.5,0.4,0.8,0.6C349.2,408.9,349.5,409,349.9,409z"/>
	<path class="st7" d="M335.6,406.3c0,0.3,0,0.5,0.1,0.8c0.1,0.2,0.2,0.5,0.4,0.6c0.2,0.2,0.4,0.3,0.6,0.4c0.2,0.1,0.5,0.2,0.8,0.1
		c0.5,0,1.1-0.2,1.4-0.6c0.4-0.4,0.6-0.9,0.7-1.4c0-0.3,0-0.5-0.1-0.8c-0.1-0.2-0.2-0.5-0.4-0.6c-0.2-0.2-0.4-0.3-0.6-0.4
		c-0.2-0.1-0.5-0.1-0.8-0.1c-0.5,0-1,0.2-1.4,0.6C335.8,405.3,335.6,405.8,335.6,406.3z"/>
	<path class="st7" d="M326.2,406.3c0,0.3,0,0.5,0.1,0.8c0.1,0.2,0.2,0.5,0.4,0.6c0.2,0.2,0.4,0.3,0.6,0.4c0.2,0.1,0.5,0.2,0.8,0.1
		c0.5,0,1-0.2,1.4-0.6c0.4-0.4,0.6-0.9,0.7-1.4c0-0.3,0-0.5-0.1-0.8c-0.1-0.2-0.2-0.5-0.4-0.6c-0.2-0.2-0.4-0.3-0.6-0.4
		c-0.2-0.1-0.5-0.1-0.8-0.1c-0.5,0-1,0.2-1.4,0.6C326.4,405.3,326.2,405.8,326.2,406.3z"/>
	<path class="st7" d="M316.7,406.3c0,0.3,0,0.5,0.1,0.8c0.1,0.2,0.2,0.5,0.4,0.6c0.2,0.2,0.4,0.3,0.6,0.4c0.2,0.1,0.5,0.1,0.8,0.1
		c0.5,0,1-0.2,1.4-0.6c0.4-0.4,0.6-0.9,0.6-1.4c0-0.3,0-0.5-0.1-0.8c-0.1-0.2-0.2-0.5-0.4-0.6c-0.2-0.2-0.4-0.3-0.6-0.4
		c-0.2-0.1-0.5-0.1-0.8-0.1c-0.5,0-1.1,0.2-1.4,0.6C317,405.3,316.8,405.8,316.7,406.3z"/>
	<path class="st8" d="M278.6,392.8v-0.4l0.1-1.6c0-1.1,0-2.2,0-3.3c0-2.2-0.2-4.3-0.4-6.5c-0.2-2.1-0.6-4.3-1-6.4
		c-0.1-0.5-0.2-1.1-0.4-1.6l1.8-1.5c0,0-2.9-10.2-5.9-10.9h-0.1c-0.2,0-0.4-0.1-0.6-0.1c-4-0.6-8-0.8-12-0.8
		c-2.3-2.2-1.9-6.7-1.1-10.7c0.1-0.2,0.3-0.5,0.4-0.7c3.4-2.2,5.9-5.5,7.1-9.4c1.8,0.4,4.6,0.4,8-1.7c-1.2,0.3-2.4,0.3-3.6,0.2
		c1.5-0.6,2.7-1.6,3.6-2.9c0.9-1.3,1.3-2.9,1.3-4.5c0-0.8-0.2-1.7-0.5-2.4c-0.4-0.8-0.9-1.4-1.5-2c-0.6-0.5-1.4-0.9-2.2-1.2
		c-0.8-0.2-1.7-0.3-2.5-0.1c-1.9,0.3-3.5,1.4-4.7,3H264c-1.1-0.8-2.5-1.3-4-1.3c-3.6-4.5-19-3.3-21.5,2.8c-1.3,3.2-0.5,5.2,1,6.3
		c-0.3,1.1-0.4,2.3-0.4,3.4c-0.2,0.2-0.4,0.3-0.5,0.5c0,0-0.1,0.1-0.1,0.1c0,0,0,0.1,0,0.1c0,0,0,0.1,0,0.1c0,0,0,0.1,0.1,0.1
		c0,0,0.1,0.1,0.2,0.1c0.1,0,0.1,0,0.2,0c0.1,0,0.1-0.1,0.2-0.1l0.1-0.1c0.1,1.2,0.3,2.3,0.7,3.5c0,2.5,0.5,5.1,1.3,7.5
		c1.5,4.2,5.6,5.8,9.6,4.9c0,0.3,0,0.6,0,0.9c0,2-1,3.3-4.7,4.4c-2,0.3-4.1,0.7-6,1.1c-2.3,0.5-4.4,1.9-5.8,3.8
		c-2.8,3-6.3,12.7-6.3,12.7l2.3,1.3c-0.3,1-0.5,2-0.7,3c0,0,0,0.1,0,0.1H213c-0.5,0-1.1,0.1-1.6,0.3c-0.5,0.2-0.9,0.5-1.3,0.9
		c-0.4,0.4-0.7,0.9-0.8,1.4c-0.2,0.5-0.3,1-0.2,1.6l0.4,7.6c-0.1,0-0.1,0.1-0.2,0.1l-1.4,1.3l0.3,6.6c0.5,0.4,1.1,0.7,1.7,0.9
		l0.2,3.7c0,0.5,0.1,0.9,0.3,1.4c-8.1,0.7-12.6,2.8-13.7,5.7h67.1c0.4-2.2,0.5-4.4,0.5-6.7l0.6,0c0.3,0,0.6-0.3,0.5-0.5l-0.6-2.6
		c-0.1-0.1-0.1-0.1-0.2-0.2c-0.1,0-0.2,0-0.3,0h0c0-0.8,0.1-1.6,0.1-2.4c1.9,0,3.8-0.1,5.7-0.5c1.4-0.3,2.8-0.8,4.1-1.5
		c0.8-0.5,1.6-1.1,2.2-1.8c0.7-0.8,1.3-1.7,1.6-2.8c0.2-0.5,0.3-1,0.3-1.5C278.6,393.3,278.6,393.1,278.6,392.8z M271.7,393.8
		c-0.1,0.1-0.2,0.3-0.3,0.3c-0.6,0.4-1.3,0.7-2,0.9c-1.5,0.4-3,0.7-4.5,0.8c0.4-4.6,1.2-9.2,2.2-13.7c0.1-0.4,0.2-0.9,0.3-1.3
		c0-0.2,0.1-0.4,0.1-0.6c0-0.2,0.1-0.5,0.2-0.7c0.3,0.5,0.5,0.7,0.5,0.7l1.9-1.6c0.3,1.4,0.6,2.8,0.7,4.2c0.3,1.9,0.5,3.9,0.7,5.8
		c0.1,1,0.1,2,0.2,3L271.7,393.8C271.7,393.7,271.7,393.7,271.7,393.8L271.7,393.8z"/>
	<path class="st9" d="M276.4,437.2h-72.7c-0.2,0-0.3,0-0.5-0.1c-0.1-0.1-0.3-0.2-0.4-0.3c-0.1-0.1-0.2-0.3-0.2-0.4
		c0-0.2,0-0.3,0-0.5v-0.1c1.4-5.2,6.8-9.3,11.9-9.3h64.2c0.2,0,0.3,0,0.5,0.1c0.1,0.1,0.3,0.2,0.4,0.3c0.1,0.1,0.2,0.3,0.2,0.4
		c0,0.2,0,0.3,0,0.5l-2.4,8.6c-0.1,0.2-0.2,0.4-0.4,0.5C276.8,437.1,276.6,437.2,276.4,437.2z"/>
	<path class="st0" d="M277.8,499.6h2.9l-10.8-62.4H267L277.8,499.6z"/>
	<path class="st10" d="M277.8,499.6h2.9l-10.8-62.4H267L277.8,499.6z"/>
	<path class="st0" d="M261.5,499.6h2.9l-5.4-62.4h-2.9L261.5,499.6z"/>
	<path class="st10" d="M261.5,499.6h2.9l-5.4-62.4h-2.9L261.5,499.6z"/>
	<path class="st0" d="M203.7,499.6h-2.9l10.8-62.4h2.9L203.7,499.6z"/>
	<path class="st10" d="M203.7,499.6h-2.9l10.8-62.4h2.9L203.7,499.6z"/>
	<path class="st0" d="M220,499.6h-2.9l5.4-62.4h2.9L220,499.6z"/>
	<path class="st10" d="M220,499.6h-2.9l5.4-62.4h2.9L220,499.6z"/>
	<path class="st11" d="M255.5,337.8c3.5-0.6,5.8-4.1,5.2-7.8c-0.6-3.7-3.9-6.2-7.4-5.7c-3.5,0.6-5.8,4.1-5.2,7.8
		S252,338.4,255.5,337.8z"/>
	<path class="st11" d="M250,337.9c0,0,4.5,3.3,10.4-0.6c-3,0.8-6.4-0.5-6.4-0.5L250,337.9z"/>
	<path class="st0" d="M254.2,332.4c0.5,3.2-1.4,6.3-4.2,6.7s-5.6-1.8-6.2-5c-0.5-3.2,1.4-6.3,4.2-6.7
		C250.8,326.9,253.6,329.2,254.2,332.4z"/>
	<path class="st11" d="M243.9,349.7c5.8-1.5,12.7-11.1,6.5-20.6c-2.3,0-8.8,2.2-8.8,2.2L243.9,349.7z"/>
	<path class="st11" d="M228.9,327.7c-4.4,3.9-6.6,14.6,3.4,21.3c2.1-1.1,6.9-5.9,6.9-5.9L228.9,327.7z"/>
	<path class="st12" d="M230.2,371.8c0,1.1-0.1,2-0.2,3c-0.1,1-0.2,1.9-0.3,2.9c-0.2,1.9-0.5,3.9-0.8,5.8c-0.6,3.8-1.5,7.6-2.5,11.3
		l-0.8,2.8l-0.9,2.8c-0.4,1.4-1.2,2.7-2.3,3.7c-1.1,1-2.4,1.7-3.9,2c-2.3,0.5-4.7,0.3-6.9-0.3c-1-0.3-2-0.6-3-1
		c-1-0.4-1.9-0.8-2.8-1.4l1.5-3.5c0.8,0.2,1.7,0.3,2.6,0.5c0.9,0.1,1.7,0.2,2.6,0.3c1.5,0.1,2.9,0,4.3-0.5c0.4-0.1,0.7-0.4,1-0.7
		c0.1-0.1,0.2-0.3,0.2-0.4c0-0.1,0.1-0.2,0.1-0.3c0-0.1,0-0.1,0-0.2l0.1-0.2l0.7-2.6l0.6-2.7c0.8-3.6,1.4-7.2,1.9-10.8
		c0.3-1.8,0.5-3.6,0.7-5.4c0.1-0.9,0.2-1.8,0.3-2.7c0.1-0.9,0.2-1.8,0.2-2.6L230.2,371.8z"/>
	<path class="st9" d="M224.8,364.8c-2.7,1.6-5.5,13.4-5.5,13.4l11.6,5.9c0,0,5-12.7,2.6-16.1C231.2,364.4,228.8,362.4,224.8,364.8z"
		/>
	<path class="st13" d="M222.6,373.6c-0.5,2-0.5,4.2,0,6.2l8.4,4.3c0,0,2.9-7.4,3.2-12.4C231.3,368.7,224.5,368.3,222.6,373.6z"/>
	<path class="st12" d="M208.9,400.5l-7.5-4.9l1.2,6.6c0,0,2.7,1.7,4.4,1.3L208.9,400.5z"/>
	<path class="st9" d="M222.9,370.2c0.4,6.5,1.8,18.2,6.1,37.5l30.1-1.8c-1.2-12.2-1.7-19.8,2.7-45.2c-4.3-0.6-8.6-0.9-12.9-0.9
		c-4.6-0.1-9.1,0.2-13.7,0.8c-2,0.3-4,0.7-5.9,1.1c-1.9,0.4-3.6,1.5-4.8,3.1C223.4,366.3,222.8,368.2,222.9,370.2z"/>
	<path class="st13" d="M237.4,366.3c0,0,3,3.7,7,5c4,1.2,5.2-7,4.6-11.5C245.2,358.8,237.4,366.3,237.4,366.3z"/>
	<path class="st4" d="M237.4,366.3c0,0,3.3,3.4,7.4,4.6c4.1,1.2,4.8-6.6,4.2-11.1C245.2,358.8,237.4,366.3,237.4,366.3z"/>
	<path class="st13" d="M237.4,366.3c-1.2,2.1-3.2,3.7-5.5,4.6c-3.9,1.5,0.3-8.7,3.4-10.3C239,359.7,237.4,366.3,237.4,366.3z"/>
	<path class="st4" d="M237.4,366.3c-1.4,2-3.4,3.4-5.7,4.1c-4,1.2,0.5-8.2,3.6-9.8C239,359.7,237.4,366.3,237.4,366.3z"/>
	<path class="st4" d="M259.5,404.1l0.9,2.6c0.1,0.2-0.1,0.4-0.5,0.5l-31,1.8c-0.3,0-0.5-0.1-0.5-0.3l-0.4-2.7c0-0.2,0.2-0.4,0.5-0.4
		l30.5-1.8c0.1,0,0.2,0,0.3,0C259.3,404,259.4,404.1,259.5,404.1z"/>
	<path class="st11" d="M255.5,407.8l0.8,0c0.2,0,0.3-0.1,0.3-0.2l-0.6-3.5c0-0.1-0.2-0.2-0.3-0.2l-0.8,0c-0.2,0-0.3,0.1-0.3,0.2
		l0.6,3.5C255.2,407.7,255.3,407.8,255.5,407.8z"/>
	<path class="st11" d="M231.3,409.2l0.8-0.1c0.2,0,0.3-0.1,0.3-0.2l-0.6-3.5c0-0.1-0.2-0.2-0.3-0.2l-0.8,0.1c-0.2,0-0.3,0.1-0.3,0.2
		l0.6,3.5C231,409.1,231.1,409.2,231.3,409.2z"/>
	<path class="st11" d="M243.3,408.5l0.8-0.1c0.2,0,0.3-0.1,0.3-0.2l-0.6-3.4c0-0.1-0.2-0.2-0.3-0.2l-0.8,0.1c-0.2,0-0.3,0.1-0.3,0.2
		l0.6,3.5C243,408.4,243.2,408.5,243.3,408.5z"/>
	<path class="st13" d="M261.1,364.6c-2.6,1.2-4.7,3.4-5.8,6c-1.3,3.4,2.5,10.1,3.5,11.6C259.2,377.5,260,371.8,261.1,364.6z"/>
	<path class="st12" d="M246.8,346.1c-0.6,4.4-1.1,10.9,2.2,13.7c-4.5,2.9-8.4,6.7-11.5,11.1c-5.2-6.9-2.2-10.3-2.2-10.3
		c4.8-1.5,4.6-3.4,3.5-6.8L246.8,346.1z"/>
	<path class="st13" d="M243.5,349.2l-4.7,4.5c0.3,0.8,0.4,1.6,0.6,2.4c1.9-0.4,4.7-2.2,5-4.2C244.5,351,243.7,349.7,243.5,349.2z"/>
	<path class="st12" d="M246.6,335.7c1.2,7.3,1.8,10.3-1,14.8c-4.2,6.8-13.4,6.6-16.7-0.2c-3-6.1-4.4-17,2-21.4c1.4-1,3-1.6,4.7-1.8
		c1.7-0.2,3.4,0.1,5,0.8c1.6,0.7,2.9,1.7,4,3.1C245.7,332.4,246.4,334,246.6,335.7z"/>
	<path class="st11" d="M244.6,326.1c-7.4-5.3-25.6-3.1-22.8,3.1c3.4,7.4,9.2,7.6,9.2,7.6s-2.3-1.1-2.3-2.6c5.4-1.7,9.6,1.7,11.9-0.5
		c-1,4.2,5.7,8.2,5.7,8.2c1.9-1.6,3.4-3.7,4.4-5.9C252.3,332.3,251.1,326.3,244.6,326.1z"/>
	<path class="st11" d="M235.6,340.2c0.1,0.6-0.1,1.1-0.5,1.2c-0.4,0.1-0.8-0.3-0.9-0.9c-0.1-0.6,0.1-1.1,0.5-1.2
		C235,339.2,235.5,339.6,235.6,340.2z"/>
	<path class="st11" d="M229,341.7c0.1,0.6-0.1,1.1-0.5,1.2c-0.4,0.1-0.8-0.3-0.9-0.9c-0.1-0.6,0.1-1.1,0.5-1.2
		C228.5,340.7,228.9,341.1,229,341.7z"/>
	<path class="st11" d="M228.3,340.8l-1.5-0.1C226.8,340.7,227.7,341.6,228.3,340.8z"/>
	<path class="st14" d="M231.3,342.3c-0.2,1.4-0.6,2.9-1.2,4.2c0.3,0.1,0.7,0.2,1.1,0.2c0.4,0,0.7-0.1,1.1-0.3L231.3,342.3z"/>
	<path class="st11" d="M235.9,348c-0.3,0.1-0.6,0.2-0.8,0.3c0,0,0,0-0.1,0c0,0,0,0-0.1,0c0,0,0,0-0.1,0c0,0,0,0,0-0.1c0,0,0,0,0-0.1
		c0,0,0,0,0-0.1c0,0,0,0,0-0.1c0,0,0,0,0.1,0c0.7-0.1,1.4-0.5,2-0.9c0.6-0.5,1.1-1.1,1.4-1.7c0,0,0,0,0-0.1c0,0,0,0,0.1,0
		c0,0,0,0,0.1,0c0,0,0,0,0.1,0c0,0,0,0,0.1,0s0,0,0,0.1c0,0,0,0,0,0.1c0,0,0,0,0,0.1c-0.3,0.6-0.6,1.1-1.1,1.6
		C237.1,347.4,236.5,347.7,235.9,348z"/>
	<path class="st12" d="M249.4,341.4c-0.2,1.4-1,2.7-2.1,3.5c-1.5,1.1-3-0.1-3.1-1.9c-0.1-1.6,0.6-4.1,2.4-4.5
		c0.4-0.1,0.8-0.1,1.2,0.1c0.4,0.1,0.7,0.3,1,0.6c0.3,0.3,0.5,0.6,0.6,1C249.5,340.6,249.5,341,249.4,341.4z"/>
	<path class="st11" d="M236.6,337c-0.1,0-0.1,0-0.2,0c-0.1,0-0.1-0.1-0.2-0.1c-0.9-1.4-3-1.5-3-1.5c0,0-0.1,0-0.1,0
		c0,0-0.1,0-0.1-0.1c0,0-0.1-0.1-0.1-0.1s0-0.1,0-0.1c0,0,0-0.1,0-0.1c0,0,0-0.1,0.1-0.1c0,0,0.1-0.1,0.1-0.1c0,0,0.1,0,0.1,0
		c0.1,0,2.5,0.1,3.5,1.8c0,0,0,0.1,0.1,0.1c0,0,0,0.1,0,0.1c0,0,0,0.1-0.1,0.1c0,0-0.1,0.1-0.1,0.1C236.7,337,236.7,337,236.6,337z"
		/>
	<path class="st11" d="M225.2,339.6c-0.1,0-0.2,0-0.2,0c-0.1,0-0.1-0.1-0.2-0.1c0-0.1-0.1-0.1-0.1-0.2c0-0.1,0-0.2,0.1-0.2
		c0.3-0.4,0.8-0.8,1.3-1.1c0.5-0.2,1.1-0.4,1.6-0.4c0,0,0.1,0,0.1,0c0,0,0.1,0,0.1,0.1c0,0,0.1,0.1,0.1,0.1c0,0,0,0.1,0,0.1
		c0,0.1-0.1,0.2-0.1,0.2c-0.1,0.1-0.2,0.1-0.3,0.1c-0.4,0-0.9,0.1-1.3,0.3c-0.4,0.2-0.7,0.5-1,0.8
		C225.4,339.5,225.3,339.6,225.2,339.6z"/>
	<path class="st12" d="M191.5,493.1l-6.5-2.9l6.4-16.7l6.5,2.9L191.5,493.1z"/>
	<path class="st11" d="M184.7,488.8l7.9,2.7c0.1,0,0.3,0.1,0.3,0.3c0.1,0.1,0.1,0.3,0.1,0.4l-1.2,6.6c0,0.2-0.1,0.3-0.2,0.5
		c-0.1,0.1-0.2,0.2-0.4,0.3c-0.1,0.1-0.3,0.1-0.5,0.1c-0.2,0-0.3,0-0.5-0.1c-2.7-1-4-1.6-7.5-2.8c-2.1-0.7-6.7-1.5-9.6-2.5
		c-3-1-2.1-4-0.8-3.8c5.9,0.7,8.7-0.7,11.1-1.7C183.8,488.7,184.3,488.7,184.7,488.8z"/>
	<g class="st15">
		<path class="st13" d="M197.8,476.4l-6.5-2.9l-3.8,9.9l6.9,2L197.8,476.4z"/>
	</g>
	<path class="st11" d="M243.4,406.9c0,0-40.4,2.9-42,16.6c-2.7,23.3-14.1,55.5-14.1,55.5l9.1,3.9c0,0,16.8-31,21.5-51.2
		c7.8-4.4,46.8,11.4,41.1-25.6L243.4,406.9z"/>
	<path class="st0" d="M197.5,484.1l-12-3.7l0.9-4.4l13.3,3.9L197.5,484.1z"/>
	<path class="st0" d="M180.7,488.5L180.7,488.5c-0.1-0.2-0.2-0.4-0.2-0.6c0-0.2,0-0.3,0.1-0.5c0-0.1,0.1-0.2,0.2-0.2
		c0.1-0.1,0.2-0.1,0.3-0.1c0.9-0.1,2.6,2,2.8,2.2c0,0,0,0.1,0,0.1c0,0,0,0.1,0,0.1c0,0,0,0.1-0.1,0.1c0,0-0.1,0-0.1,0
		C182.8,489.5,181.2,489.2,180.7,488.5z M183.4,489.2c-0.7-0.8-1.7-1.8-2.2-1.8c0,0-0.1,0-0.1,0.1c0,0-0.1,0.1-0.1,0.1
		c-0.1,0.1-0.1,0.2-0.1,0.3c0,0.1,0,0.2,0.1,0.3C181.2,488.7,182.1,489,183.4,489.2L183.4,489.2z"/>
	<path class="st0" d="M183.5,489.3c-0.5-0.7-1.1-2.4-0.7-3.1c0.1-0.1,0.2-0.2,0.3-0.3c0.1,0,0.3-0.1,0.4,0c0.1,0,0.3,0.1,0.4,0.2
		c0.1,0.1,0.2,0.2,0.3,0.3c0.5,0.9-0.1,3-0.2,3c0,0,0,0.1-0.1,0.1c0,0-0.1,0-0.1,0c0,0-0.1,0-0.1,0c0,0-0.1,0-0.1,0
		C183.6,489.4,183.6,489.4,183.5,489.3z M183.8,486.5c0-0.1-0.1-0.1-0.2-0.2c-0.1,0-0.1-0.1-0.2-0.1c-0.2,0-0.3,0-0.3,0.1
		c-0.3,0.5,0.2,1.9,0.6,2.6C183.9,488.3,184.2,487.1,183.8,486.5L183.8,486.5z"/>
	<path class="st12" d="M210.5,472.1l-6.1,3.7l-10-14.8l6.1-3.7L210.5,472.1z"/>
	<path class="st11" d="M203.1,475.2l6.7-4.9c0.1-0.1,0.2-0.1,0.4-0.1c0.1,0,0.3,0.1,0.4,0.2l4.7,4.8c0.1,0.1,0.2,0.3,0.3,0.4
		c0.1,0.2,0.1,0.3,0.1,0.5c0,0.2-0.1,0.3-0.2,0.5c-0.1,0.1-0.2,0.3-0.3,0.4c-2.4,1.7-3.6,2.4-6.6,4.5c-1.8,1.3-5.1,4.6-7.6,6.5
		c-2.5,1.8-4.4-0.5-3.6-1.5c4-4.4,4.4-7.5,5-10C202.5,475.9,202.7,475.5,203.1,475.2z"/>
	<g class="st15">
		<path class="st13" d="M200.5,457.3l-6.1,3.7l6,8.8l5.6-4.5L200.5,457.3z"/>
	</g>
	<path class="st11" d="M225.3,407.7c0,0-42.6-2-45.1,11.6c-4.2,23.1,16.4,48.1,16.4,48.1l8.4-5.2c0,0-6.4-17.7-8.8-33.6
		c8.1-3.9,51.6,15.7,48.3-21.6L225.3,407.7z"/>
	<path class="st13" d="M211.2,413.8c-0.7,0-1.4,0.2-2,0.5c-4.9,2.3-8.6,5.3-9.2,9.2c-0.2,1.5-0.5,3-0.8,4.5c0.5,0,1,0,1.6,0
		c0.2-1.5,0.4-3,0.6-4.5C201.9,419.3,205.9,416.2,211.2,413.8L211.2,413.8z"/>
	<path class="st0" d="M206.7,462.1l-9.9,7.7l-3.1-3.3l10.9-8.6L206.7,462.1z"/>
	<path class="st0" d="M200.5,478.3L200.5,478.3c-0.3,0-0.4-0.1-0.6-0.2c-0.1-0.1-0.2-0.2-0.3-0.4c-0.1-0.1-0.1-0.2-0.1-0.3
		c0-0.1,0-0.2,0.1-0.3c0.5-0.8,3.2-1,3.5-1c0,0,0.1,0,0.1,0c0,0,0.1,0,0.1,0.1c0,0,0,0.1,0,0.1s0,0.1,0,0.1
		C202.6,477.1,201.5,478.3,200.5,478.3z M202.7,476.5c-1.1,0.1-2.5,0.4-2.7,0.8c0,0,0,0.1,0,0.1s0,0.1,0,0.1c0,0.1,0.1,0.2,0.2,0.3
		c0.1,0.1,0.2,0.1,0.3,0.1C201,478,201.8,477.4,202.7,476.5L202.7,476.5z"/>
	<path class="st0" d="M202.9,476.5c-0.9,0-2.6-0.5-2.9-1.2c-0.1-0.1-0.1-0.3,0-0.4c0-0.1,0.1-0.3,0.2-0.3c0.1-0.1,0.2-0.2,0.3-0.2
		c0.1,0,0.3-0.1,0.4,0c1.1,0.1,2.3,1.8,2.4,1.9c0,0,0,0.1,0,0.1s0,0.1,0,0.1c0,0,0,0.1-0.1,0.1c0,0-0.1,0-0.1,0
		C203,476.5,202.9,476.5,202.9,476.5z M200.8,474.6c-0.1,0-0.1,0-0.2,0c-0.1,0-0.1,0.1-0.2,0.1c-0.2,0.2-0.1,0.3-0.1,0.3
		c0.2,0.5,1.6,0.9,2.5,1C202.3,475.6,201.5,474.7,200.8,474.6L200.8,474.6z"/>
	<path class="st11" d="M234.8,339.3l-1.5-0.1C233.4,339.2,234.3,340.1,234.8,339.3z"/>
	<path class="st12" d="M248.7,396.8l-7.2-3.6l1.7,7.4c0,0,4.6,1.3,6.7-0.9L248.7,396.8z"/>
	<path class="st12" d="M265.5,368.4c0.3,0.6,0.5,1.1,0.7,1.6c0.2,0.5,0.4,1,0.6,1.6c0.4,1,0.8,2.1,1.2,3.1c0.7,2.1,1.3,4.2,1.8,6.4
		c0.5,2.1,0.9,4.3,1.2,6.5c0.1,1.1,0.3,2.2,0.4,3.3l0.1,1.6l0,0.4c0,0.2,0,0.5,0,0.7c0,0.5-0.1,1-0.2,1.5c-0.2,1-0.7,2-1.3,2.8
		c-0.6,0.7-1.2,1.3-2,1.8c-1.2,0.7-2.5,1.2-3.9,1.5c-2.3,0.4-4.6,0.6-7,0.5c-4.3-0.2-8.7-0.8-12.9-1.9l0.6-3.7
		c4.1,0.3,8.1,0.3,12.2,0c1.9-0.1,3.7-0.4,5.5-0.9c0.7-0.2,1.3-0.5,1.9-0.9c0.1-0.1,0.2-0.2,0.3-0.3c0-0.1,0,0,0-0.1l-0.3-2
		c-0.2-1-0.4-2-0.5-3c-0.4-2-0.9-3.9-1.4-5.8c-0.5-1.9-1.1-3.8-1.8-5.7c-0.3-0.9-0.7-1.9-1-2.8l-0.6-1.4c-0.2-0.4-0.4-0.9-0.5-1.2
		L265.5,368.4z"/>
	<path class="st9" d="M261.8,360.7c3.1,0.7,7.3,10.9,7.3,10.9l-9.5,8.6c0,0-6.5-8-5.5-11.9C255.2,364.1,258.3,359.8,261.8,360.7z"/>
	<path class="st12" d="M235.5,394.3l1.8,6.1l6.1,0.1l-1.7-7.4L235.5,394.3z"/>
	<path class="st4" d="M241.1,411h-31.1c-1.2,0-2.3-0.5-3.2-1.2c-0.9-0.8-1.5-1.8-1.8-2.9l-3.7-20.2c-0.1-0.5-0.1-1,0-1.5
		c0.1-0.5,0.3-1,0.7-1.4c0.3-0.4,0.7-0.7,1.2-0.9c0.5-0.2,1-0.3,1.5-0.3h31.1c1.2,0,2.3,0.5,3.2,1.2c0.9,0.8,1.5,1.8,1.8,2.9
		l3.7,20.2c0.1,0.5,0.1,1,0,1.6c-0.1,0.5-0.4,1-0.7,1.4c-0.3,0.4-0.8,0.7-1.2,0.9C242.2,410.9,241.6,411,241.1,411z"/>
	<path class="st16" d="M240.6,411H210c-1.2,0-2.3-0.5-3.2-1.2c-0.9-0.8-1.5-1.8-1.8-2.9l-3.7-20.2c-0.1-0.5-0.1-1,0-1.5
		c0.1-0.5,0.3-1,0.7-1.4c0.3-0.4,0.7-0.7,1.2-0.9c0.5-0.2,1-0.3,1.5-0.3h30.5c1.2,0,2.3,0.5,3.2,1.2c0.9,0.8,1.5,1.8,1.8,2.9
		l3.7,20.2c0.1,0.5,0.1,1,0,1.5c-0.1,0.5-0.3,1-0.7,1.4c-0.3,0.4-0.7,0.7-1.2,0.9C241.6,410.9,241.1,411,240.6,411z"/>
	<path class="st12" d="M201.4,395.6l1.2,6.6l2.6-2.4l-0.7-4.9c0-0.2-0.1-0.4-0.2-0.5c-0.1-0.2-0.3-0.3-0.5-0.3s-0.4-0.1-0.6,0
		c-0.2,0.1-0.4,0.2-0.5,0.3L201.4,395.6z"/>
</g>
<g>
	<path class="st4" d="M440.4,56h-74.5c-3.2,0-5.7,2.6-5.7,5.7v60.2c0,3.2,2.6,5.7,5.7,5.7h74.5c3.2,0,5.7-2.6,5.7-5.7V61.7
		C446.2,58.6,443.6,56,440.4,56L440.4,56z M442.3,121.9c0,1.1-0.9,1.9-1.9,1.9l-74.5,0c-1.1,0-1.9-0.9-1.9-1.9l0-50.5h78.4
		L442.3,121.9z M442.3,67.6H364v-5.8c0-1.1,0.9-1.9,1.9-1.9h74.5c1.1,0,1.9,0.9,1.9,1.9L442.3,67.6z"/>
	<path class="st18" d="M367.1,63.9c0-0.9,0.6-1.5,1.5-1.5c0.9,0,1.5,0.6,1.5,1.5c0,0.9-0.6,1.5-1.5,1.5
		C367.8,65.4,367.1,64.8,367.1,63.9z"/>
	<path class="st18" d="M372.6,63.9c0-0.9,0.6-1.5,1.5-1.5c0.9,0,1.5,0.6,1.5,1.5c0,0.9-0.6,1.5-1.5,1.5
		C373.2,65.4,372.6,64.8,372.6,63.9z"/>
	<path class="st18" d="M395.2,79.3L417,99.5l-9.3-0.3l-0.8,0l0.3,0.7l5.3,12.1c0.6,1.4-0.1,3.1-1.5,3.6c-1.4,0.6-3-0.1-3.7-1.5
		l-5.3-12l-0.3-0.7l-0.5,0.6l-6.4,7L395.2,79.3z"/>
	<path class="st19" d="M440.4,56h-74.5c-3.2,0-5.7,2.6-5.7,5.7v60.2c0,3.2,2.6,5.7,5.7,5.7h74.5c3.2,0,5.7-2.6,5.7-5.7V61.7
		C446.2,58.6,443.6,56,440.4,56L440.4,56z M442.3,121.9c0,1.1-0.9,1.9-1.9,1.9l-74.5,0c-1.1,0-1.9-0.9-1.9-1.9l0-50.5h78.4
		L442.3,121.9z M442.3,67.6H364v-5.8c0-1.1,0.9-1.9,1.9-1.9h74.5c1.1,0,1.9,0.9,1.9,1.9L442.3,67.6z"/>
	<defs>
		<filter id="Adobe_OpacityMaskFilter" filterUnits="userSpaceOnUse" x="359.2" y="55" width="88" height="73.7">
			<feColorMatrix  type="matrix" values="1 0 0 0 0  0 1 0 0 0  0 0 1 0 0  0 0 0 1 0"/>
		</filter>
	</defs>
	<mask maskUnits="userSpaceOnUse" x="359.2" y="55" width="88" height="73.7" id="path-4-inside-1_2841_51825_1_">
		<path class="st20" d="M440.4,56h-74.5c-3.2,0-5.7,2.6-5.7,5.7v60.2c0,3.2,2.6,5.7,5.7,5.7h74.5c3.2,0,5.7-2.6,5.7-5.7V61.7
			C446.2,58.6,443.6,56,440.4,56L440.4,56z M442.3,121.9c0,1.1-0.9,1.9-1.9,1.9l-74.5,0c-1.1,0-1.9-0.9-1.9-1.9l0-50.5h78.4
			L442.3,121.9z M442.3,67.6H364v-5.8c0-1.1,0.9-1.9,1.9-1.9h74.5c1.1,0,1.9,0.9,1.9,1.9L442.3,67.6z"/>
	</mask>
	<path class="st21" d="M446.2,61.7h1v0L446.2,61.7z M442.3,121.9h1l0,0H442.3z M440.4,123.8v-1l0,0V123.8z M365.9,123.8v1h0
		L365.9,123.8z M364,121.9h1l0,0H364z M364,71.4v-1h-1v1H364z M442.3,71.4h1v-1h-1V71.4z M442.3,67.6v1h1l0-1L442.3,67.6z M364,67.6
		h-1v1h1V67.6z M442.3,61.7h-1v0L442.3,61.7z M440.4,55h-74.5v2h74.5V55z M365.9,55c-3.7,0-6.7,3-6.7,6.7h2c0-2.6,2.1-4.7,4.7-4.7
		V55z M359.2,61.7v60.2h2V61.7H359.2z M359.2,121.9c0,3.7,3,6.7,6.7,6.7v-2c-2.6,0-4.7-2.1-4.7-4.7H359.2z M365.9,128.7h74.5v-2
		h-74.5V128.7z M440.4,128.7c3.7,0,6.7-3,6.7-6.7h-2c0,2.6-2.1,4.7-4.7,4.7V128.7z M447.2,121.9V61.7h-2v60.2H447.2z M447.2,61.7
		c0-3.7-3-6.7-6.7-6.7v2c2.6,0,4.7,2.1,4.7,4.7L447.2,61.7z M440.4,57L440.4,57l0-2h0V57z M441.3,121.9c0,0.5-0.4,0.9-0.9,0.9v2
		c1.6,0,2.9-1.3,2.9-2.9H441.3z M440.4,122.8l-74.5,0l0,2l74.5,0V122.8z M365.9,122.8c-0.5,0-0.9-0.4-0.9-0.9h-2
		c0,1.6,1.3,2.9,2.9,2.9V122.8z M365,121.9l0-50.5h-2l0,50.5H365z M364,72.4h78.4v-2H364V72.4z M441.3,71.4l0,50.5h2l0-50.5H441.3z
		 M442.3,66.6H364v2h78.4V66.6z M365,67.6v-5.8h-2v5.8H365z M365,61.7c0-0.5,0.4-0.9,0.9-0.9v-2c-1.6,0-2.9,1.3-2.9,2.9H365z
		 M365.9,60.8h74.5v-2h-74.5V60.8z M440.4,60.8c0.5,0,0.9,0.4,0.9,0.9h2c0-1.6-1.3-2.9-2.9-2.9V60.8z M441.3,61.7l0,5.8l2,0l0-5.8
		L441.3,61.7z"/>
	<path class="st18" d="M378.2,63.9c0-0.9,0.6-1.5,1.5-1.5c0.9,0,1.5,0.6,1.5,1.5c0,0.9-0.6,1.5-1.5,1.5
		C378.8,65.4,378.2,64.8,378.2,63.9z"/>
	<path class="st18" d="M367.1,63.9c0,0.9,0.7,1.5,1.5,1.5c0.9,0,1.5-0.6,1.5-1.5L367.1,63.9z M367.1,63.9c0-0.9,0.6-1.5,1.5-1.5
		 M367.1,63.9l1.5-1.5 M368.6,62.4c0.9,0,1.5,0.6,1.5,1.5L368.6,62.4z M372.6,63.9c0,0.9,0.6,1.5,1.5,1.5c0.9,0,1.5-0.6,1.5-1.5
		L372.6,63.9z M372.6,63.9c0-0.9,0.6-1.5,1.5-1.5 M372.6,63.9l1.5-1.5 M374.1,62.4c0.9,0,1.5,0.6,1.5,1.5L374.1,62.4z M379.7,65.4
		c-0.9,0-1.5-0.6-1.5-1.5c0-0.9,0.6-1.5,1.5-1.5c0.9,0,1.5,0.6,1.5,1.5C381.2,64.8,380.5,65.4,379.7,65.4z"/>
</g>
</svg>
