<?xml version="1.0" encoding="utf-8"?>
<!-- Generator: Adobe Illustrator 25.2.1, SVG Export Plug-In . SVG Version: 6.00 Build 0)  -->
<svg version="1.1" id="Layer_1" xmlns="http://www.w3.org/2000/svg" xmlns:xlink="http://www.w3.org/1999/xlink" x="0px" y="0px"
	 width="497.6px" height="509px" viewBox="0 0 497.6 509" style="enable-background:new 0 0 497.6 509;" xml:space="preserve">
<style type="text/css">
	.st0{clip-path:url(#SVGID_2_);}
	.st1{fill:#13419D;}
	.st2{fill:#96CBFF;}
	.st3{fill:#64A4FF;}
	.st4{fill:#BBD070;}
	.st5{fill:#97A43C;}
	.st6{fill:#48753A;}
	.st7{fill:#DBD8E3;}
	.st8{fill:#0D51D9;}
	.st9{fill:#EEA987;}
	.st10{fill:#E8734D;}
	.st11{fill:#C4C1CC;}
	.st12{fill:#EFAA88;}
	.st13{fill:#EEA886;}
	.st14{fill:#16202E;}
	.st15{fill:#323657;}
	.st16{fill:#A77860;}
	.st17{fill:#4DA8F2;}
	.st18{fill:#5FA0FF;}
	.st19{fill:#FFC955;}
	.st20{fill:#95CAFF;}
	.st21{fill:#94C9FF;}
	.st22{fill:#93C9FF;}
	.st23{fill:#92C8FF;}
	.st24{fill:#91C7FF;}
	.st25{fill:#90C6FF;}
	.st26{fill:#8FC6FF;}
	.st27{fill:#8EC5FF;}
	.st28{fill:#8DC4FF;}
	.st29{fill:#8CC3FF;}
	.st30{fill:#8BC2FF;}
	.st31{fill:#8AC2FF;}
	.st32{fill:#89C1FF;}
	.st33{fill:#88C0FF;}
	.st34{fill:#87BFFF;}
	.st35{fill:#86BFFF;}
	.st36{fill:#85BEFF;}
	.st37{fill:#84BDFF;}
	.st38{fill:#83BCFF;}
	.st39{fill:#82BBFF;}
	.st40{fill:#81BBFF;}
	.st41{fill:#80BAFF;}
	.st42{fill:#7FB9FF;}
	.st43{fill:#7EB8FF;}
	.st44{fill:#7DB7FF;}
	.st45{fill:#7CB7FF;}
	.st46{fill:#7BB6FF;}
	.st47{fill:#7AB5FF;}
	.st48{fill:#79B4FF;}
	.st49{fill:#78B4FF;}
	.st50{fill:#77B3FF;}
	.st51{fill:#76B2FF;}
	.st52{fill:#74B1FF;}
	.st53{fill:#73B0FF;}
	.st54{fill:#72B0FF;}
	.st55{fill:#71AFFF;}
	.st56{fill:#70AEFF;}
	.st57{fill:#6FADFF;}
	.st58{fill:#6EADFF;}
	.st59{fill:#6DACFF;}
	.st60{fill:#6CABFF;}
	.st61{fill:#6BAAFF;}
	.st62{fill:#6AA9FF;}
	.st63{fill:#69A9FF;}
	.st64{fill:#68A8FF;}
	.st65{fill:#67A7FF;}
	.st66{fill:#66A6FF;}
	.st67{fill:#65A6FF;}
	.st68{fill:#64A5FF;}
	.st69{fill:#63A4FF;}
	.st70{fill:#62A3FF;}
	.st71{fill:#61A2FF;}
	.st72{fill:#60A2FF;}
	.st73{fill:#5FA1FF;}
	.st74{fill:#5EA0FF;}
	.st75{fill:#5D9FFF;}
	.st76{fill:#5C9EFF;}
	.st77{fill:#5B9EFF;}
	.st78{fill:#5A9DFF;}
	.st79{fill:#599CFF;}
	.st80{fill:#589BFF;}
	.st81{fill:#579BFF;}
	.st82{fill:#569AFF;}
	.st83{fill:#5599FF;}
	.st84{fill:#CFA345;}
	.st85{fill:#6069A8;}
	.st86{fill:#202338;}
	.st87{fill:#464240;}
	.st88{fill:#EB4747;}
	.st89{fill:#5F8CC9;}
	.st90{fill:#5E5853;}
	.st91{fill:#91887F;}
	.st92{fill:#6E6760;}
	.st93{fill:#807066;}
	.st94{fill:#FFCB55;}
	.st95{fill:#CF8C6C;}
	.st96{fill:#3B3F66;}
	.st97{fill:#555C94;}
	.st98{fill:#354C70;}
	.st99{fill:#DEB135;}
	.st100{fill:#F2C344;}
	.st101{fill:#D9D0C4;}
	.st102{fill:#FFD255;}
	.st103{fill:#3C5780;}
	.st104{fill:#C48A6F;}
	.st105{fill:#DB9C7C;}
	.st106{fill:#293B57;}
	.st107{fill:#E3EBFA;}
	.st108{fill:#E3F2FF;}
	.st109{fill:#EBEBEB;}
	.st110{fill:#162D40;}
	.st111{fill:#1D3B54;}
	.st112{fill:#EDDAD3;}
	.st113{fill:#D1C0BA;}
	.st114{fill:#FAE6DE;}
	.st115{fill:#54281A;}
	.st116{fill:#366E9C;}
	.st117{fill:#5C544D;}
	.st118{fill:#3C4145;}
	.st119{fill:#FCCCA2;}
	.st120{fill:#E2D2CA;}
	.st121{fill:#F25F54;}
	.st122{fill:#C98462;}
	.st123{fill:#DE9D7D;}
	.st124{fill:#252E3B;}
	.st125{fill:#5189DB;}
	.st126{fill:#C2BEBC;}
	.st127{fill:#D6D6D6;}
	.st128{fill:#E8E8E8;}
	.st129{fill:#C2C2C2;}
	.st130{fill:#FFFFFF;}
	.st131{fill:#FFFFFF;filter:url(#Adobe_OpacityMaskFilter);}
	.st132{mask:url(#path-1-inside-1_2798_51745_1_);fill:#BACCD1;stroke:#FFFFFF;stroke-width:3;}
	.st133{fill:#BACCD1;stroke:#FFFFFF;stroke-width:0.8;}
</style>
<g>
	<g>
		<defs>
			<rect id="SVGID_1_" x="123.6" y="270.1" width="359" height="281"/>
		</defs>
		<clipPath id="SVGID_2_">
			<use xlink:href="#SVGID_1_"  style="overflow:visible;"/>
		</clipPath>
		<g class="st0">
			<path class="st1" d="M433.5,453.7c1.7-2.9,3-6,3.9-9.2l6.9-1.3l0.1-7.6l0.1-7.6l-6.9-1.5c-0.8-3.2-2.1-6.3-3.7-9.3l3.9-5.8
				l-5.3-5.5l-5.3-5.5l-5.9,3.8c-2.9-1.7-6-3-9.2-3.9l-1.3-6.9l-7.6-0.1l-7.6-0.1l-1.5,6.9c-3.2,0.8-6.3,2.1-9.2,3.7l-5.8-4
				l-5.5,5.4l-5.5,5.4l3.8,5.9c-1.7,2.9-3,6-3.9,9.2l-6.9,1.3l-0.1,7.6l-0.1,7.6l6.9,1.5c0.8,3.2,2.1,6.3,3.7,9.3l-3.9,5.8l5.3,5.5
				l5.3,5.5l5.9-3.8c2.9,1.7,6,3,9.2,3.9l1.3,6.9l7.6,0.1l7.6,0.1l1.5-6.9c3.2-0.8,6.3-2.1,9.2-3.7l5.8,4l5.5-5.4l5.5-5.4
				L433.5,453.7z M389.5,448.2c-7.2-7.4-7.1-19.2,0.3-26.5c7.3-7.3,19.2-7.2,26.4,0.3c7.2,7.4,7.1,19.2-0.3,26.5
				C408.5,455.7,396.7,455.6,389.5,448.2z"/>
			<path class="st2" d="M252.6,391.9c1.1-2.3,1.8-4.7,2.2-7.2l5-1.5l-0.5-5.7l-0.5-5.7l-5.2-0.5c-0.8-2.3-2-4.6-3.5-6.6l2.5-4.6
				l-4.4-3.6l-4.4-3.6l-4.1,3.3c-2.3-1.1-4.7-1.8-7.1-2.2l-1.5-5l-5.7,0.5l-5.7,0.5l-0.5,5.2c-2.3,0.8-4.5,2-6.6,3.5l-4.6-2.5
				l-3.6,4.4l-3.6,4.4l3.3,4.1c-1.1,2.3-1.8,4.7-2.2,7.2l-5,1.5l0.5,5.7l0.5,5.7l5.2,0.5c0.8,2.3,2,4.6,3.5,6.6l-2.5,4.6l4.4,3.6
				l4.4,3.6l4.1-3.3c2.3,1.1,4.7,1.8,7.1,2.2l1.5,5l5.7-0.5l5.7-0.5l0.5-5.2c2.3-0.8,4.5-2,6.6-3.5l4.6,2.5l3.6-4.4l3.6-4.4
				L252.6,391.9z M219.4,391.3c-5.9-4.9-6.8-13.8-1.8-19.7c4.9-6,13.7-6.8,19.7-1.8c5.9,4.9,6.8,13.8,1.8,19.7
				C234.1,395.4,225.3,396.2,219.4,391.3z"/>
			<path class="st3" d="M420.7,506.9h-0.5v-34.1c0-7.6-6.2-13.8-13.7-13.8h-34.9c-7.8,0-14.2-6.4-14.2-14.2v-63.6
				c0-7.6-6.2-13.8-13.7-13.8h-89V367h89.1c7.8,0,14.2,6.4,14.2,14.3v63.7c0,7.6,6.2,13.8,13.7,13.8h34.9c7.8,0,14.2,6.4,14.2,14.2
				L420.7,506.9L420.7,506.9z"/>
			<path class="st4" d="M277.5,345.4c0,0,5.4,21.5-7.6,27.4c-13,5.9-10.5-4.9-10.5-4.9s-5.3-1.5,9.1-9.7
				C275.4,354.3,277.5,345.4,277.5,345.4z"/>
			<path class="st5" d="M311.4,347.3c0,0,2.6,18.7-21.8,26.9c-24.5,8.1-28,18.4-28,18.4S260.8,351,311.4,347.3z"/>
			<path class="st6" d="M261.5,385c-7.2-2.8,10-17.7,23.3-17.3c13.3,0.4,22.3,5.3,31.2,3.3C315.8,370.9,297.2,398.6,261.5,385z"/>
			<path class="st7" d="M285.9,397.4c0.4-5.6,0.7-10.9,0.9-15.9c-1.4-0.7-3-1.6-4.3-2.2c-4.1-2-9.7-4.6-13.3-6.2
				c-2.1-1-4.2-1.7-4.2-1.7s-14.5-1.4-15.7-1.3c-0.4,0-2.2,0.6-4.5,1.6c-5.1,1.9-15,6-16.6,7.1c-2.3,1.7-10.6,42.4-10.8,45.1
				c-0.2,2.7,11.2,6.3,21.9,9.2c0,4.1-0.1,9.9-0.2,15.2c0,0.9-0.1,1.8-0.1,2.7h46.4c-0.1-0.9-0.1-1.8-0.2-2.7c0-0.1,0-0.2,0-0.3
				c-0.2-3.6-0.9-10-0.7-16.2c0,0-0.1-6.6,0.5-9.4C285.1,409.8,285.9,397.4,285.9,397.4z M226.9,421.3c0.1-5.3,7.1-15.2,7.1-15.2
				s0.3-0.2,0.3-0.1l0.4-0.1l1.1-1c0.3,0.9,2.6,14.2,3.1,22C232.3,425.6,226.9,423.9,226.9,421.3z"/>
			<path class="st8" d="M286.7,448.2c-0.3-2.2-0.6-4.4-0.9-6.6c0,0,0,0,0-0.1c-0.1-0.7-0.2-1.4-0.3-2.1c0-0.1,0-0.1,0-0.1
				c-0.3-3-0.6-5.9-0.8-8.5c-0.2-2,0-4,0.3-5.9c0.8-13.4,1.2-27.4,1.2-27.4c0.4-5.7,0.6-11.2,0.8-16.2c0,0-18.2-8.6-19.8-9.1
				c0,0,3.5,8.1,6,26.3c1,7,2.9,18.7,4.2,30.7c0.7,6.4,2.1,13.1,3.1,18.9c0.2,0.9,0.3,1.8,0.4,2.7h6.1
				C286.9,449.9,286.8,449.1,286.7,448.2z"/>
			<path class="st8" d="M256.4,426.7c0.7-6.8,1.3-13.5,1-17.2c-2.5-29.7-9.6-37.5-10.6-38.7c-0.8,0.3-3.8,1.5-4.7,1.8
				c-4.9,1.9-14.7,5.4-16.1,6.4c-2.3,1.7-11.4,44.3-11.7,47.1c-0.2,1.8,11.7,5.7,23.9,9.3c-0.1,3.4,0.2,8.1-0.9,13
				c-0.2,0.9-0.5,1.4-0.5,2.6l16.9-0.1c0.1-0.9,0.2-1.7,0.3-2.7c0.3-2.7,0.6-5.4,1-8.2c5.1,1.3,8.5,2.2,8.5,2.2s4.8-8.1,6.2-11.4
				C269.9,430.2,263.8,428.7,256.4,426.7z M234.6,416.5c-0.2-6.1-0.1-10.3-0.1-10.3c0.6,2.1,1.4,8,2.2,13.9
				C234.1,418.9,234.6,417.7,234.6,416.5z"/>
			<path class="st9" d="M248.4,370.5c0,0,1.8-3.5,1.4-13.4c-0.2-2.8,14.4,6.5,14.4,6.5s-0.1,0.9-0.1,2.2c0,0.5,0,1.1,0,1.7
				c0,0.2,0,0.3,0,0.5c0,0.3,0,0.5,0,0.8c0,0.3,0,0.7,0.1,1c0,0.4,0.1,0.7,0.1,1c0.1,0.6,0.4,1.7,0.5,2
				C265.4,374.3,253.9,374.4,248.4,370.5z"/>
			<path class="st10" d="M260.6,376.8l2.7,3.6c0,0-1.6,2.1-4.4,0.5L260.6,376.8z"/>
			<path class="st10" d="M262.6,380.6c0,0,9.8,24,7.7,54.6l-3.1,5.6l-3.5-4.8c0,0-0.5-40.5-3.3-55.5L262.6,380.6z"/>
			<path class="st9" d="M263.5,373.5l-2.9,3.4c0,0-4.6-0.9-5.9-3.3C253.4,371.1,263.5,373.5,263.5,373.5z"/>
			<path class="st11" d="M264.2,370.5c0,0-0.3,2.5-3.5,6.3l3.5,4.7l1.9-9.8L264.2,370.5z"/>
			<path class="st11" d="M249.4,367.5c0,0,6.6,7.5,11.3,9.4l-2.2,5.4l-10.6-11.7L249.4,367.5z"/>
			<path class="st8" d="M317.7,435.7c0,0-8.8-8.6-14.6-10c-2.7-0.7-6.2-4.4-9.6-8.7c-1.1-1.4-2.2-2.9-3.2-4.4
				c-4.1-6-7.3-11.6-7.3-11.6s-12.2-14.3-2.4-20.6c0,0,4.2-0.1,6.5,1.1c2.4,1.3,7.4,11.8,8.2,13.7c0.9,1.8,10.1,19.2,10.7,19.6
				c0.6,0.4,1.7,1.8,5.3,3.8c4.5,2.4,11.6,9.6,11.6,9.6L317.7,435.7z"/>
			<path class="st12" d="M275.3,445.7c0,0-1.2-0.1-1.8-0.3c0,0-0.9-0.6-1.6-1c-0.2-0.1-0.4-0.2-0.5-0.3c-0.5-0.2-1.8-0.5-3-1.4
				c-1.1-0.9-5-4.4-5-4.4l2.4-3.8l1.1-3.7c0,0,8.8,0.9,10,1.6c0.1,0.1,0.2,0.2,0.3,0.2c0.9,0.7,1.4,1.6,1.8,2
				c0.2,0.2,1.7,1.8,1.6,2.5c-0.1,0.9-0.6,1.5-1.1,1.8c0,0-0.3,1.8-1.2,2.6c0,0-0.2,1.7-1.7,2.3
				C276.7,443.8,276.3,445.5,275.3,445.7z"/>
			<path class="st13" d="M261.3,331.5c0,0,15.9-3.8,12.6,16.4c-3.3,20.3-7.2,21.9-16.9,17.9c-9.7-4.1-9-17-9.6-23.4
				C246.8,336.1,256.2,331.9,261.3,331.5z"/>
			<path class="st13" d="M252.9,345.6c-0.2-1.8-3.8-2.4-4,0.3c-0.3,2.7,1.7,7.3,3,6.9C253.2,352.2,253.2,348.1,252.9,345.6z"/>
			<path class="st14" d="M248.3,352.8c0,0,0.3-6.4,2.6-6.6c2.3-0.2,2.7,2.3,2.7,2.3l2.3,0.4c0,0-0.8-5.6,1.5-6.6
				c2.3-1,15,2.9,16.9,1.2c1.8-1.7,0.8-13-2.6-14.5c-3.4-1.5-12.7-4.8-19.4-0.1c0,0-5.3-0.5-6,3.8
				C245.5,337.1,246.8,349.7,248.3,352.8z"/>
			<path class="st15" d="M270.1,430.7l-6.6,11.4c0,0-17.4-4.5-21.5-5.6l9.3-11.1C251.3,425.3,265,428.5,270.1,430.7z"/>
			<path class="st16" d="M264.1,369.9c-8.5-0.9-11.9-7.5-11.9-7.5c5.4,5.4,11.8,5.2,11.8,5.2c0,0.2,0,0.3,0,0.5c0,0.3,0,0.5,0,0.8
				C264.1,369.2,264.1,369.6,264.1,369.9z"/>
			<path class="st17" d="M382.2,470.6c-0.5-0.6-1.2-1-2.1-1c-1.1,0-2.2,0.7-2.5,1.8c-0.1,0.3-0.1,0.5-0.2,0.8c0,0.3,0.1,0.7,0.2,0.9
				c0.2,0.5,0.5,0.9,0.9,1.2c0.4,0.3,0.9,0.5,1.3,0.5c0.1,0,0.2,0,0.2,0c0.1,0,0.1,0,0.1,0h0.1c0.3,0,0.5-0.1,0.8-0.2
				c1-0.4,1.7-1.3,1.7-2.4C382.8,471.5,382.6,471,382.2,470.6z M380.8,474c-0.2,0.1-0.4,0.1-0.5,0.1c-0.1,0-0.1,0-0.1,0
				c-0.2,0-0.4-0.1-0.5-0.1c-0.2-0.1-0.4-0.2-0.6-0.3c-0.1-0.1-0.1-0.1-0.2-0.2c-0.4-0.4-0.6-0.9-0.5-1.4c0-0.2,0-0.3,0.1-0.4
				c0-0.1,0.1-0.1,0.1-0.2c0.3-0.8,1-1.4,1.9-1.4c0.6,0,1.2,0.3,1.5,0.8c0.3,0.3,0.4,0.8,0.4,1.2C382.1,472.9,381.6,473.7,380.8,474
				z"/>
			<path class="st13" d="M282.5,421.4c9.9,10.2,23,23.1,23,23.1l5.1-9.8c0,0-11.6-13.7-19.5-22.8C288.7,413.2,284.2,416,282.5,421.4
				z"/>
			<path class="st13" d="M276.4,435.2c0,0,2.6,1.3,3.3,1.9c0.7,0.6,3.5,2.7,4.2,3.2s-1,1.9-6.1-0.3
				C272.8,437.8,276.4,435.2,276.4,435.2z"/>
			<path class="st18" d="M276.6,405.9l-4.6,43.4h61.2l4.6-43.4H276.6z"/>
			<path class="st18" d="M336.7,447.3H275l4.7-43.9h61.7L336.7,447.3z M275.5,446.8h60.8l4.6-42.9h-60.8L275.5,446.8z"/>
			<path class="st19" d="M267.1,449.2h10.2v-3.9h-10.2V449.2z"/>
			<path class="st2" d="M171.2,449.2h-2.5v2.7h2.5V449.2z"/>
			<path class="st20" d="M173.8,449.2h-2.5v2.7h2.5V449.2z"/>
			<path class="st21" d="M176.3,449.2h-2.5v2.7h2.5V449.2z"/>
			<path class="st22" d="M178.9,449.2h-2.5v2.7h2.5V449.2z"/>
			<path class="st23" d="M181.5,449.2h-2.5v2.7h2.5V449.2z"/>
			<path class="st24" d="M184,449.2h-2.5v2.7h2.5V449.2z"/>
			<path class="st25" d="M186.6,449.2h-2.5v2.7h2.5V449.2z"/>
			<path class="st26" d="M189.1,449.2h-2.5v2.7h2.5V449.2z"/>
			<path class="st27" d="M191.7,449.2h-2.5v2.7h2.5V449.2z"/>
			<path class="st28" d="M194.3,449.2h-2.5v2.7h2.5V449.2z"/>
			<path class="st29" d="M196.8,449.2h-2.5v2.7h2.5V449.2z"/>
			<path class="st30" d="M199.4,449.2h-2.5v2.7h2.5V449.2z"/>
			<path class="st31" d="M201.9,449.2h-2.5v2.7h2.5V449.2z"/>
			<path class="st32" d="M204.5,449.2h-2.5v2.7h2.5V449.2z"/>
			<path class="st33" d="M207.1,449.2h-2.5v2.7h2.5V449.2z"/>
			<path class="st34" d="M209.6,449.2h-2.5v2.7h2.5V449.2z"/>
			<path class="st35" d="M212.2,449.2h-2.5v2.7h2.5V449.2z"/>
			<path class="st36" d="M214.7,449.2h-2.5v2.7h2.5V449.2z"/>
			<path class="st37" d="M217.3,449.2h-2.5v2.7h2.5V449.2z"/>
			<path class="st38" d="M219.9,449.2h-2.5v2.7h2.5V449.2z"/>
			<path class="st39" d="M222.4,449.2h-2.5v2.7h2.5V449.2z"/>
			<path class="st40" d="M225,449.2h-2.5v2.7h2.5V449.2z"/>
			<path class="st41" d="M227.5,449.2H225v2.7h2.5V449.2z"/>
			<path class="st42" d="M230.1,449.2h-2.5v2.7h2.5V449.2z"/>
			<path class="st43" d="M232.7,449.2h-2.5v2.7h2.5V449.2z"/>
			<path class="st44" d="M235.2,449.2h-2.5v2.7h2.5V449.2z"/>
			<path class="st45" d="M237.8,449.2h-2.5v2.7h2.5V449.2z"/>
			<path class="st46" d="M240.3,449.2h-2.5v2.7h2.5V449.2z"/>
			<path class="st47" d="M242.9,449.2h-2.5v2.7h2.5V449.2z"/>
			<path class="st48" d="M245.5,449.2h-2.5v2.7h2.5V449.2z"/>
			<path class="st49" d="M248,449.2h-2.5v2.7h2.5V449.2z"/>
			<path class="st50" d="M250.6,449.2h-2.5v2.7h2.5V449.2z"/>
			<path class="st51" d="M253.1,449.2h-2.5v2.7h2.5V449.2z"/>
			<path class="st52" d="M255.7,449.2h-2.5v2.7h2.5V449.2z"/>
			<path class="st53" d="M258.3,449.2h-2.5v2.7h2.5V449.2z"/>
			<path class="st54" d="M260.8,449.2h-2.5v2.7h2.5V449.2z"/>
			<path class="st55" d="M263.4,449.2h-2.5v2.7h2.5V449.2z"/>
			<path class="st56" d="M265.9,449.2h-2.5v2.7h2.5V449.2z"/>
			<path class="st57" d="M268.5,449.2h-2.5v2.7h2.5V449.2z"/>
			<path class="st58" d="M271.1,449.2h-2.5v2.7h2.5V449.2z"/>
			<path class="st59" d="M273.6,449.2h-2.5v2.7h2.5V449.2z"/>
			<path class="st60" d="M276.2,449.2h-2.5v2.7h2.5V449.2z"/>
			<path class="st61" d="M278.7,449.2h-2.5v2.7h2.5V449.2z"/>
			<path class="st62" d="M281.3,449.2h-2.5v2.7h2.5V449.2z"/>
			<path class="st63" d="M283.9,449.2h-2.5v2.7h2.5V449.2z"/>
			<path class="st64" d="M286.4,449.2h-2.5v2.7h2.5V449.2z"/>
			<path class="st65" d="M289,449.2h-2.5v2.7h2.5V449.2z"/>
			<path class="st66" d="M291.5,449.2H289v2.7h2.5V449.2z"/>
			<path class="st67" d="M294.1,449.2h-2.5v2.7h2.5V449.2z"/>
			<path class="st68" d="M296.7,449.2h-2.5v2.7h2.5V449.2z"/>
			<path class="st69" d="M299.2,449.2h-2.5v2.7h2.5V449.2z"/>
			<path class="st70" d="M301.8,449.2h-2.5v2.7h2.5V449.2z"/>
			<path class="st71" d="M304.3,449.2h-2.5v2.7h2.5V449.2z"/>
			<path class="st72" d="M306.9,449.2h-2.5v2.7h2.5V449.2z"/>
			<path class="st73" d="M309.5,449.2h-2.5v2.7h2.5V449.2z"/>
			<path class="st74" d="M312,449.2h-2.5v2.7h2.5V449.2z"/>
			<path class="st75" d="M314.6,449.2h-2.5v2.7h2.5V449.2z"/>
			<path class="st76" d="M317.1,449.2h-2.5v2.7h2.5V449.2z"/>
			<path class="st77" d="M319.7,449.2h-2.5v2.7h2.5V449.2z"/>
			<path class="st78" d="M322.3,449.2h-2.5v2.7h2.5V449.2z"/>
			<path class="st79" d="M324.8,449.2h-2.5v2.7h2.5V449.2z"/>
			<path class="st80" d="M327.4,449.2h-2.5v2.7h2.5V449.2z"/>
			<path class="st81" d="M329.9,449.2h-2.5v2.7h2.5V449.2z"/>
			<path class="st82" d="M332.5,449.2H330v2.7h2.5V449.2z"/>
			<path class="st83" d="M335.1,449.2h-2.5v2.7h2.5V449.2z"/>
			<path class="st8" d="M436.8,505.6H292.6v2.7h144.2V505.6z"/>
			<path class="st84" d="M301.5,426.8c-0.5,2.4,0.6,4.7,2.5,5.1c1.9,0.4,3.8-1.2,4.3-3.7c0.5-2.4-0.6-4.7-2.5-5.1
				C303.9,422.8,302,424.5,301.5,426.8z"/>
			<path class="st85" d="M418.2,409.7c0,0,1.4,2.4,2,2.8c0.8,0.5,0.3,1.1-0.1,1.1c-0.4,0-2.3,0.2-2.8-0.3c-0.4-0.5-0.6-2-1-2.3
				c-0.4-0.4-0.8-1.9,0.2-2.3C417.4,408.2,418.2,409.7,418.2,409.7z"/>
			<path class="st86" d="M417.6,408.6c0,0,1.6,2.8,1.9,3.3c0.3,0.4-0.5,0.4-1,0.2c-0.5-0.2-1.7-2.2-1.9-2.6
				c-0.2-0.4-0.1-0.9-0.1-0.9L417.6,408.6z"/>
			<path class="st85" d="M416,410.1l0.4,2.9h0.2l-0.1-2.1L416,410.1z"/>
			<path class="st85" d="M404.3,409.7c0,0,1.4,2.4,2,2.8c0.8,0.5,0.3,1.1-0.1,1.1c-0.4,0-2.3,0.2-2.8-0.3s-0.6-2-1-2.3
				s-0.8-2,0.2-2.3C403.4,408.3,404.3,409.7,404.3,409.7z"/>
			<path class="st86" d="M403.7,408.6c0,0,1.5,2.8,1.8,3.2c0.3,0.4-0.5,0.4-1,0.2c-0.5-0.2-1.7-2.2-1.9-2.6
				c-0.2-0.4-0.1-0.9-0.1-0.9L403.7,408.6z"/>
			<path class="st85" d="M402,410.1l0.4,2.9h0.2l-0.1-2.1L402,410.1z"/>
			<path class="st86" d="M398,387.8l12.8,5.9c0,0,1.4,0.5,1.6,2.1c0.5,5,4.2,12.8,4.2,12.8c1.2,0.6,1.1,0.1,1.1,0.1
				c-0.8-2.4-1.7-12.4-2-16.3c-0.1-0.9-0.1-1.4-0.1-1.6c0-0.1-0.2-0.3-0.4-0.5c-1.7-1.4-9-4.4-9-4.4
				C400.8,385.7,398,387.8,398,387.8z"/>
			<path class="st86" d="M395.6,390.3c0.4,3.5,5.3,3.1,5.3,3.1h6c0,0-1.6,3.5-2.2,6.4c-0.6,3.1-2.2,8.7-2.2,8.7s0.1,0.2,1.2,0.1
				c0,0,4.7-9.4,6.5-11.8c0.4-0.5,1.5-3.3,1.7-4.9c0.1-0.5,0-1-0.2-1.1c-0.2-0.2-0.7-0.5-1.3-0.9c-1.9-1.2-5.1-3-6.9-3.4
				c-2.4-0.5-6.3-1.6-6.3-1.6S395.2,386.8,395.6,390.3z"/>
			<path class="st87" d="M399.7,363.6c0,0-0.9-1.7-0.4-3.5c0.4-1.8,2.1-3.6,4.6-2.8c2.5,0.8,4.4,2.8,3,5c-1.5,2.2,1.4,3.2,0.6,4.3
				c-0.7,1-0.4,2.2-0.2,2.4c0.3,0.3,1.3,1.1,1.2,2.2c-0.1,1-4.8-3-4.8-3S401.1,363,399.7,363.6z"/>
			<path class="st88" d="M407.1,385.4c0,0-0.4,1.8-9.9-0.5C397.2,384.9,400.4,383.9,407.1,385.4z"/>
			<path class="st89" d="M397.1,385.4c-0.2,0.3-0.3,0.5-0.4,0.9c3.5,0.1,7,0.2,10.5,0.3c-0.5-1.8-0.4-4.4-0.3-6.3
				c0.1-2.3,1.4-4,1.2-6.3c0.7,0.1,0.8,0.1,1.5,0.2c-1.1-3-1.4-4.5-4.7-5.7c-1.1-0.4-1.8-0.4-2.9-0.4c-3.8,0.3-5,0.4-6.8,3.8
				c2.9,0.5,2.4,1.5,3.3,4.4c0.4,1.4,0.9,3,0.6,4.5C398.9,382.5,397.1,384.1,397.1,385.4z"/>
			<path class="st13" d="M403.2,369.3c-1.6-0.3-1.2-1.1-1.2-1.1s0.1-0.5,0.1-1.1c0-0.2,0-0.3,0-0.5c0-0.3,0-0.5-0.1-0.8
				c-0.1-1,2.8-0.4,2.8-0.4s-0.2,2.1,0.2,2.8C405.5,368.8,404.7,369.6,403.2,369.3z"/>
			<path class="st13" d="M400.2,368.1c0,0,3.1,3.6,4.3,4.5c0,0,1.4-1.2,0.5-4.4C405,368.2,403.5,367.5,400.2,368.1z"/>
			<path class="st13" d="M400.3,359.4c0,0-1.6,3.1,0,6.1c1.6,3,4.8-1.3,5-1.8c0.2-0.5,1.3-3.4-0.9-4.2
				C402.3,358.6,400.7,358.5,400.3,359.4z"/>
			<path class="st87" d="M400.9,360.5c0,0-1.1,1.5-1.2,2.5c0,0-0.4-2.1,0.8-4.1c1.2-2,4.5-0.1,4.9,0.7c0.4,0.8,1.7,1.5-0.4,4.9
				C404.9,364.6,401.1,362,400.9,360.5z"/>
			<path class="st16" d="M403.4,365.8c0,0-0.3,0.6-1.4,1.2c0-0.2,0-0.3,0-0.5C402.1,366.5,402.8,366.4,403.4,365.8z"/>
			<path class="st13" d="M387,382.6c0,0-0.8,0.3-1.1,0.2c-0.4-0.2-0.9-0.2-1.1-0.2s-1-0.3-1,0s1.2,0.5,1.5,0.6
				c0.3,0.1-0.8,0.7-0.8,0.9c-0.1,0.2,1,1.8,1.6,1.4c0.6-0.4,1-1.4,1.1-1.4c0.1-0.1,0.5-0.3,0.5-0.3L387,382.6z"/>
			<path class="st13" d="M384.5,383.9c0,0-1.8,1.5-1.8,1.7c-0.1,0.2,0.1,0.3,0.3,0.2c0.2-0.1,1.8-1.4,1.8-1.4s-1.8,2.2-1.9,2.3
				c-0.1,0.1,0.2,0.3,0.2,0.2c0.1-0.1,2.1-2.1,2.1-2.1s-1.7,2-1.7,2.2c0,0.1,0.2,0.3,0.3,0.1c0.2-0.2,1.8-1.9,1.8-1.9
				s-1.1,1.6-1.1,1.7c0.1,0.1,0.2,0.3,0.5-0.2c0.3-0.4,1-1.3,1-1.3L384.5,383.9z"/>
			<path class="st19" d="M406.3,393.4h-5.3c0,0-4.9,0.4-5.3-3.1c-0.4-3.5,1.6-5.4,1.6-5.4s2.6,0.7,4.9,1.2c1.1-0.2,2.5-0.4,4.1-0.4
				c0,0,9.7,3.2,9.3,4.9C415.5,390.7,411.5,388.5,406.3,393.4z"/>
			<path class="st90" d="M402.8,387.4l10.2-0.2l-5.2,2.6L402.8,387.4z"/>
			<path class="st89" d="M405.9,386.1c0,0-2.3,0.9-5.1,0.1l-0.1-1l5.8,0.3L405.9,386.1z"/>
			<path class="st91" d="M407.8,389.8l-5-1.9v-0.5l5.5,2L407.8,389.8z"/>
			<path class="st8" d="M405.9,386.6c-0.1,0.4,0.4,0.6,0.7,0.5l0.6-0.3c0.2-0.1,0.3-0.3,0.3-0.4c-0.3-1.6-0.8-7.6,0-8.6
				c0.3-0.4,0.5-0.7,0.5-1c0.5,1.3,1.1,3,1.4,4l4.8,6.4l1.6,0.4c-2-4.9-3.6-7.5-3.6-7.5c-0.3-0.9-1.2-3.4-2-5.7
				c-0.5-1.5-1-2.8-1.2-3.5c-0.1-0.4-0.4-0.6-0.7-0.9c-0.8-0.4-2-1.1-3.1-1.7c-0.1,0-0.1-0.1-0.1-0.1
				C407.2,371.5,406.4,380.7,405.9,386.6C405.9,386.5,405.9,386.6,405.9,386.6z"/>
			<path class="st8" d="M397.9,368.5c-0.7,0.1-2.4,1.8-3.3,3.5c-1,1.9-2.1,4.1-2.9,4.8c-1.5,1.3-5.5,6-5.7,5.9
				c-0.1-0.1,1.1,1.4,1.2,1.5c0.1,0.1,6.6-5.7,7.3-6.6c0.6-0.8,2.2-4.3,2.7-4.2c0.1,0.1,0.6,1.4,1.2,3.2c0,0.1,0,0.1,0.1,0.1
				c0.4,1.3,0.3,2.7,0.2,4.3c-0.2,1.2-1,3.1-1.6,4.1c-0.1,0.1-0.1,0.3,0,0.5c0.1,0.1,0.1,0.2,0.2,0.2l1.9,0.7l0.4,0.2
				c0.3,0.1,0.6,0.1,0.9-0.1c0.2-0.2,0.4-0.4,0.4-0.7c0.4-3.3,1-6.7,1.4-8c1.9-5.6-0.8-9.8-0.8-9.8S398.5,368.3,397.9,368.5z"/>
			<path class="st92" d="M407.8,389.8l3-8.3l9.8,0.2l-2.9,7.6L407.8,389.8z"/>
			<path class="st93" d="M414,385.2c-0.3,0.6-0.2,1.2,0.2,1.5c0.4,0.2,1-0.1,1.3-0.7s0.2-1.2-0.2-1.5
				C414.9,384.3,414.3,384.6,414,385.2z"/>
			<path class="st87" d="M403.7,362.5c0,0,0.6,1,0.1,1.8c-0.6,0.9,0.2,1.7,0.3,2.5c0.1,0.9-2.4,3.3,0.4,4.4c2.8,1.2,3.7-0.8,3-1.8
				c-0.7-1.1-1.2-2-1.3-3.5C406,364.4,405.5,362,403.7,362.5z"/>
			<path class="st94" d="M389.8,358.5h5.9v4.3v0.9l-0.9-0.9h-5V358.5z"/>
			<path class="st4" d="M356.7,424.3c0,0-12.9,12.3-6.6,21.8c6.3,9.5,9.2,1.2,9.2,1.2s4.2,1.3-2.1-10.5
				C354.3,431.3,356.7,424.3,356.7,424.3z"/>
			<path class="st5" d="M333,411c0,0-9.8,11.6,3.3,27.6c13.1,16,11.1,24.5,11.1,24.5S365.6,435.2,333,411z"/>
			<path class="st6" d="M350.3,458.3c6.1,1.2,1.2-16.6-8-22.1c-9.2-5.4-17.4-6-22.5-11.2C319.8,425,320.2,452.2,350.3,458.3z"/>
			<path class="st13" d="M310.4,466.1c0,0,0.3-0.7,0.3-0.8c0.1-0.1,0.3-0.3,0.6-0.4c0.3-0.2,0.9-0.3,0.9-0.2
				c0.1,0.1,0.1,0.1,0.2,0.2c0.1,0.2,0.1,0.3,0.1,0.3s0.2,0.2,0.1,0.3c0,0,0.2,0.2,0.1,0.4c0,0,0.2,0.2,0.1,0.3c0,0-0.3,0.2-0.4,0.3
				c-0.1,0.1-0.6,0.4-1.3,0.6C311.1,467,310.5,467,310.4,466.1z"/>
			<path class="st95" d="M311.4,465.7c0,0,0,0.4-0.1,0.5s0.8,0.3,0.8,0.3S311.8,465.7,311.4,465.7z"/>
			<path class="st96" d="M296.2,502.6l0.4-1.1l1.5,0.2l-0.2,1L296.2,502.6z"/>
			<path class="st97" d="M308.5,502.5l0.1,0.6l1.6-0.3l-0.1-0.9L308.5,502.5z"/>
			<path class="st98" d="M304.9,485.4c0,0-0.2,1.3-0.5,2.8c-0.1,0.3-0.1,0.5-0.2,0.8c-0.3,1.4-0.5,2.8-0.6,3.1
				c-0.2,0.6-5.3,9.9-5.3,9.9s-2.1-0.2-2.2-0.4c0,0,4.2-10.1,4.2-10.4c0-0.4,0.5-10.7,0.5-10.7S304.8,484.8,304.9,485.4z"/>
			<path class="st98" d="M307.3,479.8c0,0,2,10.1,2.2,10.9c0.2,0.8,0.9,11.2,0.9,11.2s-0.4,0.9-2.1,0.6c0,0-2.2-11.2-2.4-11.5
				c-0.8-1.5-4.3-8.5-4.6-9.5c-0.3-1-0.3-2.2-0.3-2.2S303.5,477.7,307.3,479.8z"/>
			<path class="st99" d="M306.4,466.7c0,0,0.9,2.2,1.1,2.1c0.2-0.1,2.7-3,2.7-3s1.1,1.4,1,1.6c-0.2,0.2-3.1,5.1-3.6,5
				c-0.4-0.1-2.2-3.1-2.2-3.1S305.3,467,306.4,466.7z"/>
			<path class="st100" d="M302.7,462.5c0,0,2.3,1.7,2.9,2.4c0.6,0.7,2.3,3.5,2.2,4.4c-0.5,3.3-0.7,6.1-0.7,8.3
				c0,1.9,0.6,2.4,0.2,2.4c-0.4,0.1-6.1,2.1-6.9,2.3c0,0,0.5-6.8,0.8-7.6C301.5,474,300.3,465.7,302.7,462.5z"/>
			<path class="st101" d="M317.1,459.3l0.5,2.5l0.5,2.5c0,0-2.9-0.9-6.2-0.3l-0.2-1.1l-0.2-1.1C314.8,461.2,317.1,459.3,317.1,459.3
				z"/>
			<path class="st37" d="M308.6,503.1c0,0,1.2-0.2,1.3-0.3c0.1-0.1,0.3-0.5,0.5-0.4c0.2,0.1,0.2,0.7,0.4,0.8
				c0.2,0.1,1.7,1.1,1.8,1.3c0.2,0.2,1.3,0.1,1.5,0.4c0.1,0.3,0.2,1.1-1.5,0.9c-1.7-0.2-3.6,0.1-3.9-0.1
				C308.2,505.4,308.5,503.6,308.6,503.1z"/>
			<path class="st37" d="M296.2,502.6c0,0,1.2-0.1,1.3-0.1c0.1-0.1,0.4-0.5,0.5-0.4c0.2,0.1,0.1,0.7,0.3,0.8
				c0.2,0.1,1.5,1.4,1.6,1.6c0.2,0.2,1.3,0.3,1.3,0.6c0.1,0.3-0.1,1.1-1.7,0.7c-1.6-0.4-3.6-0.5-3.9-0.8
				C295.4,504.8,296,503,296.2,502.6z"/>
			<path class="st9" d="M306,480.3c0,0,0.2,0.6,0.4,0.8c0.2,0.1-1.1,1.5-1.1,1.5s-0.5-1.2-0.5-1.4C304.7,481,306,480.3,306,480.3z"
				/>
			<path class="st102" d="M301.7,465.2c0,0-1.6,7.7-1.7,8.5c-0.1,0.8,4.7,7.9,4.7,7.9l1.6-1c0,0-3.9-7.2-3.9-7.5
				c0-0.3,1.9-6.5,1.9-6.5s0.8-1.4-0.6-2C302.3,464,301.7,465.2,301.7,465.2z"/>
			<path class="st103" d="M306.9,480.8c0,0,0.5,2.6,0.5,3.4c-0.1,0.8-3-1.2-2.9-2.1L306.9,480.8z"/>
			<path class="st13" d="M302.7,462.5c0,0,4.1,4.5,3.8,4c-0.9-1.8-1.5-2.1-1.5-2.4c0-0.3,0.1-1,0.1-1.2c0.1-0.5,0.1-0.9,0.1-0.9
				s-2.1-2.9-1.9-1.9C303.4,461.1,302.7,462.5,302.7,462.5z"/>
			<path class="st13" d="M306.6,457.3c0,0,0.5,1.3,0.6,1.6c0,0.3-0.1,0.5,0,0.9c0.1,0.4,0.4,1.1,0.3,1.4c-0.1,0.3-0.6,0.1-0.6,0.5
				c-0.1,0.4-0.5,1.2-0.6,1.2c-0.5,0.1-2.4-0.8-2.6-1.1c-0.1-0.4-0.8-2.7-1-3.1c-0.2-0.4,3.4-2.8,3.7-2.1
				C306.6,457.3,306.6,457.3,306.6,457.3z"/>
			<path class="st14" d="M301.7,458.3c-0.3-1.1,1-1.2,1-1.2s0.9-1,2.9-0.9c2,0.1,1.7,2.8,1.7,2.8s-1.4-0.2-2-0.1c0,0-0.1,1.1,0,1.4
				l-0.8-0.1c0,0,0.1-1-0.3-1c-0.4-0.1-0.5,2.1-1.1,2.6c0,0,0-0.2-0.1-0.3c-0.2-0.2-0.3-0.6-0.5-1.1
				C302.1,459.6,301.8,458.8,301.7,458.3z"/>
			<path class="st13" d="M304.7,459.3c0,0-0.3-0.8-1-0.3c-0.5,0.4,0,1.6,0.5,1.6C304.7,460.7,304.9,460,304.7,459.3z"/>
			<path class="st104" d="M303.5,461.5c0,0,0.1,0.4,0.2,0.5c0.1,0.1,0.6,0.5,1.5,0.8l-0.1,0.8C305.1,463.5,303.4,462.9,303.5,461.5z
				"/>
			<path class="st2" d="M310.8,464L310.8,464l-0.1,3h0.1V464z"/>
			<path class="st20" d="M310.8,464L310.8,464l-0.1,3h0.1V464z"/>
			<path class="st21" d="M310.8,464L310.8,464l-0.1,3h0.1V464z"/>
			<path class="st22" d="M310.9,464L310.9,464l-0.1,3h0.1V464z"/>
			<path class="st23" d="M310.9,464L310.9,464l-0.1,3h0.1V464z"/>
			<path class="st24" d="M310.9,464L310.9,464l-0.1,3h0.1V464z"/>
			<path class="st25" d="M311,464L311,464l-0.1,3h0.1V464z"/>
			<path class="st26" d="M311,464L311,464l-0.1,3h0.1V464z"/>
			<path class="st27" d="M311,464L311,464l-0.1,3h0.1V464z"/>
			<path class="st28" d="M311,464L311,464l-0.1,3h0.1V464z"/>
			<path class="st29" d="M311.1,464L311.1,464l-0.1,3h0.1V464z"/>
			<path class="st30" d="M311.1,464L311.1,464l-0.1,3h0.1V464z"/>
			<path class="st31" d="M311.1,464L311.1,464l-0.1,3h0.1V464z"/>
			<path class="st32" d="M311.2,464L311.2,464l-0.1,3h0.1V464z"/>
			<path class="st33" d="M311.2,464L311.2,464l-0.1,3h0.1V464z"/>
			<path class="st34" d="M311.2,464L311.2,464l-0.1,3h0.1V464z"/>
			<path class="st35" d="M311.3,464L311.3,464l-0.1,3h0.1V464z"/>
			<path class="st36" d="M311.3,464L311.3,464l-0.1,3h0.1V464z"/>
			<path class="st37" d="M311.4,464L311.4,464l-0.1,3h0.1V464z"/>
			<path class="st38" d="M311.4,464L311.4,464l-0.1,3h0.1V464z"/>
			<path class="st39" d="M311.4,464L311.4,464l-0.1,3h0.1V464z"/>
			<path class="st40" d="M311.4,464L311.4,464l-0.1,3h0.1V464z"/>
			<path class="st41" d="M311.5,464L311.5,464l-0.1,3h0.1V464z"/>
			<path class="st42" d="M311.5,464L311.5,464l-0.1,3h0.1V464z"/>
			<path class="st43" d="M311.5,464L311.5,464l-0.1,3h0.1V464z"/>
			<path class="st44" d="M311.6,464L311.6,464l-0.1,3h0.1V464z"/>
			<path class="st45" d="M311.6,464L311.6,464l-0.1,3h0.1V464z"/>
			<path class="st46" d="M311.6,464L311.6,464l-0.1,3h0.1V464z"/>
			<path class="st47" d="M311.6,464L311.6,464l-0.1,3h0.1V464z"/>
			<path class="st48" d="M311.7,464L311.7,464l-0.1,3h0.1V464z"/>
			<path class="st49" d="M311.7,464L311.7,464l-0.1,3h0.1V464z"/>
			<path class="st50" d="M311.7,464L311.7,464l-0.1,3h0.1V464z"/>
			<path class="st51" d="M311.8,464L311.8,464l-0.1,3h0.1V464z"/>
			<path class="st52" d="M311.8,464L311.8,464l-0.1,3h0.1V464z"/>
			<path class="st53" d="M311.8,464L311.8,464l-0.1,3h0.1V464z"/>
			<path class="st54" d="M311.9,464L311.9,464l-0.1,3h0.1V464z"/>
			<path class="st55" d="M311.9,464L311.9,464l-0.1,3h0.1V464z"/>
			<path class="st56" d="M312,464L312,464l-0.1,3h0.1V464z"/>
			<path class="st57" d="M312,464L312,464l-0.1,3h0.1V464z"/>
			<path class="st58" d="M312,464L312,464l-0.1,3h0.1V464z"/>
			<path class="st59" d="M312,464L312,464l-0.1,3h0.1V464z"/>
			<path class="st60" d="M312.1,464L312.1,464l-0.1,3h0.1V464z"/>
			<path class="st61" d="M312.1,464L312.1,464l-0.1,3h0.1V464z"/>
			<path class="st62" d="M312.1,464L312.1,464l-0.1,3h0.1V464z"/>
			<path class="st63" d="M312.2,464L312.2,464l-0.1,3h0.1V464z"/>
			<path class="st64" d="M312.2,464L312.2,464l-0.1,3h0.1V464z"/>
			<path class="st65" d="M312.2,464L312.2,464l-0.1,3h0.1V464z"/>
			<path class="st66" d="M312.3,464L312.3,464l-0.1,3h0.1V464z"/>
			<path class="st67" d="M312.3,464L312.3,464l-0.1,3h0.1V464z"/>
			<path class="st68" d="M312.3,464L312.3,464l-0.1,3h0.1V464z"/>
			<path class="st69" d="M312.3,464L312.3,464l-0.1,3h0.1V464z"/>
			<path class="st70" d="M312.4,464L312.4,464l-0.1,3h0.1V464z"/>
			<path class="st71" d="M312.4,464L312.4,464l-0.1,3h0.1V464z"/>
			<path class="st72" d="M312.4,464L312.4,464l-0.1,3h0.1V464z"/>
			<path class="st73" d="M312.5,464L312.5,464l-0.1,3h0.1V464z"/>
			<path class="st74" d="M312.5,464L312.5,464l-0.1,3h0.1V464z"/>
			<path class="st75" d="M312.5,464L312.5,464l-0.1,3h0.1V464z"/>
			<path class="st76" d="M312.5,464L312.5,464l-0.1,3h0.1V464z"/>
			<path class="st77" d="M312.6,464L312.6,464l-0.1,3h0.1V464z"/>
			<path class="st78" d="M312.6,464L312.6,464l-0.1,3h0.1V464z"/>
			<path class="st79" d="M312.7,464L312.7,464l-0.1,3h0.1V464z"/>
			<path class="st80" d="M312.7,464L312.7,464l-0.1,3h0.1V464z"/>
			<path class="st81" d="M312.7,464L312.7,464l-0.1,3h0.1V464z"/>
			<path class="st82" d="M312.8,464L312.8,464l-0.1,3h0.1V464z"/>
			<path class="st83" d="M312.8,464L312.8,464l-0.1,3h0.1V464z"/>
			<path class="st105" d="M312.2,464.7c0,0-0.8,0.4-0.8,0.6c0.1,0.2,0.2,0.2,0.2,0.2l-0.3,0.3c0,0-0.1,0.3,0.3,0.3
				c0,0-0.1,0.3,0.3,0.2c0,0,0.1,0.2,0.2,0.2c0.2,0,0.7-0.3,0.7-0.3s0.1-0.1-0.1-0.3c0,0,0.1-0.2-0.1-0.4c0,0,0.1-0.2-0.1-0.3
				c0,0,0.1-0.4-0.3-0.5C312.2,464.7,312.2,464.7,312.2,464.7z"/>
			<path class="st2" d="M309.4,461.7L309.4,461.7l-0.1,2.9h0.1V461.7z"/>
			<path class="st20" d="M309.4,461.7L309.4,461.7l-0.1,2.9h0.1V461.7z"/>
			<path class="st21" d="M309.5,461.7L309.5,461.7l-0.1,2.9h0.1V461.7z"/>
			<path class="st22" d="M309.5,461.7L309.5,461.7l-0.1,2.9h0.1V461.7z"/>
			<path class="st23" d="M309.6,461.7L309.6,461.7l-0.1,2.9h0.1V461.7z"/>
			<path class="st24" d="M309.6,461.7L309.6,461.7l-0.1,2.9h0.1V461.7z"/>
			<path class="st25" d="M309.7,461.7L309.7,461.7l-0.1,2.9h0.1V461.7z"/>
			<path class="st26" d="M309.7,461.7L309.7,461.7l-0.1,2.9h0.1V461.7z"/>
			<path class="st27" d="M309.8,461.7L309.8,461.7l-0.1,2.9h0.1V461.7z"/>
			<path class="st28" d="M309.8,461.7L309.8,461.7l-0.1,2.9h0.1V461.7z"/>
			<path class="st29" d="M309.9,461.7L309.9,461.7l-0.1,2.9h0.1V461.7z"/>
			<path class="st30" d="M310,461.7L310,461.7l-0.1,2.9h0.1V461.7z"/>
			<path class="st31" d="M310,461.7L310,461.7l-0.1,2.9h0.1V461.7z"/>
			<path class="st32" d="M310,461.7L310,461.7l-0.1,2.9h0.1V461.7z"/>
			<path class="st33" d="M310.1,461.7L310.1,461.7l-0.1,2.9h0.1V461.7z"/>
			<path class="st34" d="M310.1,461.7L310.1,461.7l-0.1,2.9h0.1V461.7z"/>
			<path class="st35" d="M310.2,461.7L310.2,461.7l-0.1,2.9h0.1V461.7z"/>
			<path class="st36" d="M310.2,461.7L310.2,461.7l-0.1,2.9h0.1V461.7z"/>
			<path class="st37" d="M310.3,461.7L310.3,461.7l-0.1,2.9h0.1V461.7z"/>
			<path class="st38" d="M310.3,461.7L310.3,461.7l-0.1,2.9h0.1V461.7z"/>
			<path class="st39" d="M310.4,461.7L310.4,461.7l-0.1,2.9h0.1V461.7z"/>
			<path class="st40" d="M310.4,461.7L310.4,461.7l-0.1,2.9h0.1V461.7z"/>
			<path class="st41" d="M310.5,461.7L310.5,461.7l-0.1,2.9h0.1V461.7z"/>
			<path class="st42" d="M310.5,461.7L310.5,461.7l-0.1,2.9h0.1V461.7z"/>
			<path class="st43" d="M310.6,461.7L310.6,461.7l-0.1,2.9h0.1V461.7z"/>
			<path class="st44" d="M310.7,461.7L310.7,461.7l-0.1,2.9h0.1V461.7z"/>
			<path class="st45" d="M310.7,461.7L310.7,461.7l-0.1,2.9h0.1V461.7z"/>
			<path class="st46" d="M310.8,461.7L310.8,461.7l-0.1,2.9h0.1V461.7z"/>
			<path class="st47" d="M310.8,461.7L310.8,461.7l-0.1,2.9h0.1V461.7z"/>
			<path class="st48" d="M310.9,461.7L310.9,461.7l-0.1,2.9h0.1V461.7z"/>
			<path class="st49" d="M310.9,461.7L310.9,461.7l-0.1,2.9h0.1V461.7z"/>
			<path class="st50" d="M310.9,461.7L310.9,461.7l-0.1,2.9h0.1V461.7z"/>
			<path class="st51" d="M311,461.7L311,461.7l-0.1,2.9h0.1V461.7z"/>
			<path class="st52" d="M311,461.7L311,461.7l-0.1,2.9h0.1V461.7z"/>
			<path class="st53" d="M311.1,461.7L311.1,461.7l-0.1,2.9h0.1V461.7z"/>
			<path class="st54" d="M311.1,461.7L311.1,461.7l-0.1,2.9h0.1V461.7z"/>
			<path class="st55" d="M311.2,461.7L311.2,461.7l-0.1,2.9h0.1V461.7z"/>
			<path class="st56" d="M311.2,461.7L311.2,461.7l-0.1,2.9h0.1V461.7z"/>
			<path class="st57" d="M311.3,461.7L311.3,461.7l-0.1,2.9h0.1V461.7z"/>
			<path class="st58" d="M311.4,461.7L311.4,461.7l-0.1,2.9h0.1V461.7z"/>
			<path class="st59" d="M311.4,461.7L311.4,461.7l-0.1,2.9h0.1V461.7z"/>
			<path class="st60" d="M311.5,461.7L311.5,461.7l-0.1,2.9h0.1V461.7z"/>
			<path class="st61" d="M311.5,461.7L311.5,461.7l-0.1,2.9h0.1V461.7z"/>
			<path class="st62" d="M311.6,461.7L311.6,461.7l-0.1,2.9h0.1V461.7z"/>
			<path class="st63" d="M311.6,461.7L311.6,461.7l-0.1,2.9h0.1V461.7z"/>
			<path class="st64" d="M311.7,461.7L311.7,461.7l-0.1,2.9h0.1V461.7z"/>
			<path class="st65" d="M311.7,461.7L311.7,461.7l-0.1,2.9h0.1V461.7z"/>
			<path class="st66" d="M311.8,461.7L311.8,461.7l-0.1,2.9h0.1V461.7z"/>
			<path class="st67" d="M311.8,461.7L311.8,461.7l-0.1,2.9h0.1V461.7z"/>
			<path class="st68" d="M311.9,461.7L311.9,461.7l-0.1,2.9h0.1V461.7z"/>
			<path class="st69" d="M312,461.7L312,461.7l-0.1,2.9h0.1V461.7z"/>
			<path class="st70" d="M312,461.7L312,461.7l-0.1,2.9h0.1V461.7z"/>
			<path class="st71" d="M312,461.7L312,461.7l-0.1,2.9h0.1V461.7z"/>
			<path class="st72" d="M312.1,461.7L312.1,461.7l-0.1,2.9h0.1V461.7z"/>
			<path class="st73" d="M312.1,461.7L312.1,461.7l-0.1,2.9h0.1V461.7z"/>
			<path class="st74" d="M312.2,461.7L312.2,461.7l-0.1,2.9h0.1V461.7z"/>
			<path class="st75" d="M312.2,461.7L312.2,461.7l-0.1,2.9h0.1V461.7z"/>
			<path class="st76" d="M312.3,461.7L312.3,461.7l-0.1,2.9h0.1V461.7z"/>
			<path class="st77" d="M312.3,461.7L312.3,461.7l-0.1,2.9h0.1V461.7z"/>
			<path class="st78" d="M312.4,461.7L312.4,461.7l-0.1,2.9h0.1V461.7z"/>
			<path class="st79" d="M312.4,461.7L312.4,461.7l-0.1,2.9h0.1V461.7z"/>
			<path class="st80" d="M312.5,461.7L312.5,461.7l-0.1,2.9h0.1V461.7z"/>
			<path class="st81" d="M312.5,461.7L312.5,461.7l-0.1,2.9h0.1V461.7z"/>
			<path class="st82" d="M312.6,461.7L312.6,461.7l-0.1,2.9h0.1V461.7z"/>
			<path class="st83" d="M312.7,461.7L312.7,461.7l-0.1,2.9h0.1V461.7z"/>
			<path class="st13" d="M310.7,465.3c0,0,0.6,0,1,0.1c0.1,0.1,0.2,0.1,0.2,0.2c0,0.1-0.1,0.2-0.4,0.2c-0.3,0-0.6,0.2-0.6,0.2
				S310.5,465.9,310.7,465.3z"/>
			<path class="st106" d="M304.4,488.2c-0.1,0.3-0.1,0.5-0.2,0.8l-1.6-4.3C302.8,485,304.4,488.2,304.4,488.2z"/>
			<path class="st107" d="M214.4,436.4h-25.8c-1.9,0-3.5-1.6-3.5-3.5V392c0-1.9,1.6-3.5,3.5-3.5h25.8c1.9,0,3.5,1.6,3.5,3.5v40.9
				C217.8,434.8,216.2,436.4,214.4,436.4z"/>
			<path class="st8" d="M214.3,419.4h-1.7v12.9h1.7V419.4z"/>
			<path class="st8" d="M211,420.9h-1.7v11.5h1.7V420.9z"/>
			<path class="st8" d="M207.3,422.8h-1.7v9.6h1.7V422.8z"/>
			<path class="st8" d="M203.6,425.2h-1.7v7.2h1.7V425.2z"/>
			<path class="st108" d="M191.8,423.6l-0.4-0.1l3.2-9l6.9-1.8l2.5-9.9l5.3-2.3l1.2-7.7l0.4,0.1l-1.2,7.9l-5.3,2.3l-2.5,10l-6.9,1.8
				L191.8,423.6z"/>
			<path class="st19" d="M202.5,412.1c0.4,0.4,0.3,1.1-0.2,1.5c-0.4,0.4-1.1,0.3-1.5-0.2c-0.4-0.4-0.3-1.1,0.2-1.5
				C201.4,411.6,202.2,411.7,202.5,412.1z"/>
			<path class="st108" d="M202.5,413.7c-0.5,0.4-1.3,0.4-1.7-0.2c-0.4-0.5-0.4-1.3,0.2-1.7c0.5-0.4,1.3-0.4,1.7,0.2
				C203.1,412.5,203,413.3,202.5,413.7z M201.1,412.1c-0.4,0.3-0.4,0.8-0.1,1.2c0.3,0.4,0.8,0.4,1.2,0.1c0.4-0.3,0.4-0.8,0.1-1.2
				C202,411.9,201.5,411.8,201.1,412.1z"/>
			<path class="st19" d="M205,402.3c0.4,0.4,0.3,1.1-0.2,1.5c-0.4,0.4-1.1,0.3-1.5-0.2c-0.4-0.4-0.3-1.1,0.2-1.5
				C204,401.7,204.6,401.9,205,402.3z"/>
			<path class="st108" d="M205,403.9c-0.5,0.4-1.3,0.4-1.7-0.2c-0.4-0.5-0.4-1.3,0.2-1.7c0.5-0.4,1.3-0.4,1.7,0.2
				C205.6,402.7,205.5,403.5,205,403.9z M203.7,402.3c-0.4,0.3-0.4,0.8-0.1,1.2c0.3,0.4,0.8,0.4,1.2,0.1c0.4-0.3,0.4-0.8,0.1-1.2
				C204.6,402,204,402,203.7,402.3z"/>
			<path class="st19" d="M210.3,399.9c0.4,0.4,0.3,1.1-0.2,1.5c-0.4,0.4-1.1,0.3-1.5-0.2c-0.4-0.4-0.3-1.1,0.2-1.5
				C209.3,399.3,209.9,399.4,210.3,399.9z"/>
			<path class="st108" d="M210.3,401.5c-0.5,0.4-1.3,0.4-1.7-0.2c-0.4-0.5-0.4-1.3,0.2-1.7c0.5-0.4,1.3-0.4,1.7,0.2
				C210.8,400.2,210.8,401,210.3,401.5z M209,399.9c-0.4,0.3-0.4,0.8-0.1,1.2c0.3,0.4,0.8,0.4,1.2,0.1c0.4-0.3,0.4-0.8,0.1-1.2
				C209.8,399.6,209.3,399.5,209,399.9z"/>
			<path class="st19" d="M195.6,414c0.4,0.4,0.3,1.1-0.2,1.5c-0.4,0.4-1.1,0.3-1.5-0.2c-0.4-0.5-0.3-1.1,0.2-1.5
				C194.5,413.6,195.2,413.6,195.6,414z"/>
			<path class="st108" d="M195.6,415.7c-0.5,0.4-1.3,0.4-1.7-0.2s-0.4-1.3,0.2-1.7c0.5-0.4,1.3-0.4,1.7,0.2
				C196.2,414.5,196.1,415.2,195.6,415.7z M194.3,414c-0.4,0.3-0.4,0.8-0.1,1.2c0.3,0.4,0.8,0.4,1.2,0.1c0.4-0.3,0.4-0.8,0.1-1.2
				C195.1,413.8,194.6,413.8,194.3,414z"/>
			<path class="st109" d="M198.2,404.2h-8.9c-0.4,0-0.8-0.3-0.8-0.8v-0.7c0-0.4,0.3-0.8,0.8-0.8h8.9c0.4,0,0.8,0.3,0.8,0.8v0.7
				C199,403.9,198.6,404.2,198.2,404.2z"/>
			<path class="st109" d="M198.2,400.4h-8.9c-0.4,0-0.8-0.3-0.8-0.8V399c0-0.4,0.3-0.8,0.8-0.8h8.9c0.4,0,0.8,0.3,0.8,0.8v0.6
				C199,400.1,198.6,400.4,198.2,400.4z"/>
			<path class="st14" d="M181,406c0,0-0.3,3,0.3,3.7c0,0-1.5-0.3-1.8-0.8C179.2,408.4,181,406,181,406z"/>
			<path class="st13" d="M190.2,415.6c0,0,0.5-0.4,0.6-0.4c0.1-0.1,0.4-0.1,0.6,0c0.3,0.1,0.7,0.2,0.8,0.3c0,0.1,0.1,0.1,0.1,0.2
				c0,0.2-0.1,0.2-0.1,0.2s0.1,0.2-0.1,0.3c0,0,0.1,0.2-0.1,0.3c0,0,0.1,0.2-0.1,0.2c0,0-0.3,0-0.4,0c-0.1,0-0.6-0.1-1.2-0.2
				C190.3,416.5,189.7,416.4,190.2,415.6z"/>
			<path class="st95" d="M191,415.8c0,0-0.2,0.3-0.3,0.3c-0.1,0.1,0.4,0.6,0.4,0.6S191.4,416,191,415.8z"/>
			<path class="st13" d="M189.8,415.6c0,0,0.3-0.1,0.5-0.1c0.2-0.1-0.1,1-0.1,1s-0.5-0.3-0.8-0.4
				C189.2,416.2,189.8,415.6,189.8,415.6z"/>
			<path class="st110" d="M176.1,445.8c0,0,1,1.5,1.4,1.8c0,0,0.7,0.4,0.8,0.7c0.1,0.6,0.1,0.9-0.9,0.9c-1,0-1.6,0-1.7-0.6
				c-0.2-0.6-0.5-1-0.5-1l-0.1,1.5h-0.2c0,0-0.1-1.5-0.1-1.7c0-0.2-0.2-1,0.3-1.4C175.5,445.6,176.1,445.8,176.1,445.8z"/>
			<path class="st110" d="M177.6,447.8c0,0-0.5,0.2-1.1,0c-0.6-0.2-1.2-1.6-1.4-1.7l-0.2-0.6h1.2c0,0,0,0.4,0.2,0.8
				C176.5,446.6,177.6,447.8,177.6,447.8z"/>
			<path class="st110" d="M182.8,445.3c0,0,0.2,0.4,0.4,0.8c0.2,0.3,0.9,1.5,1.2,1.5c0.3,0.1,1.2,0.2,1.3,0.8
				c0.1,0.5,0.1,0.9-0.8,0.9c-0.9,0.1-1.5,0.1-1.9-0.5c-0.4-0.7-1.1-1.1-1.1-1.1v1.7h-0.3c0,0-0.2-1.7-0.3-1.8
				c-0.1-0.1-0.3-1.5,0.5-2.1C182.7,444.6,182.8,445.3,182.8,445.3z"/>
			<path class="st110" d="M184.4,447.5c0,0-0.8,0.2-1.1,0c-0.3-0.2-1.4-2-1.7-2.1c0,0,0.3-0.7,1.2-0.2
				C182.8,445.3,184.2,447.2,184.4,447.5z"/>
			<path class="st111" d="M175.6,420.5c0,0-1.1,1.5-1.5,3.3c-0.3,1.7,0.2,7.7,0.2,8.6s-0.8,3.6-0.6,5.2c0.2,1.6,1,8.5,1,8.5l1.9-0.1
				c0,0-0.4-7.4-0.3-8.1c0.1-0.7,0.4-3.6,0.5-3.9c0.1-0.3,2.3-7.7,2.3-9C179.1,423.6,178.3,418.4,175.6,420.5z"/>
			<path class="st111" d="M181.3,421c0,0,1.9,7.2,2.1,8.1c0.2,1,0.6,2.3,0.6,2.5c0,0.2-0.2,3.3-0.2,3.3l-0.5,10.4h-1.9
				c0,0-0.6-6.6-0.8-8c-0.1-1.4,0.7-3.4,0.5-4c-0.2-0.5-3.2-7.1-3.2-7.1S175.5,419,181.3,421z"/>
			<path class="st112" d="M180.7,410.4c0,0,0.8,0.1,1.3,0.7c0.5,0.6,1.1,1.6,1.2,1.9c0.2,0.3,2.2,3.3,2.3,3.4c0.1,0.1,1-0.2,1.7-0.2
				c1.2-0.1,3-0.7,3-0.7l0.3,1.4c0,0-4.4,1.4-5.3,1.1c-1.2-0.3-4.1-4-4.1-4S179,411.4,180.7,410.4z"/>
			<path class="st112" d="M179.4,409.8c0,0,1,0.4,1.3,0.5c0.3,0.1,1.6,1.8,1.9,2.4c0.2,0.6,0,1.6-0.5,2.7c-0.5,1.1,0,1.5-0.2,2.5
				c-0.2,1.1-0.2,4.1-0.2,4.7s-6.2,1.7-7.5,0.6c0,0,0.9-2.8,1.8-3.8c0.2-0.2,0.2-1.7,0.1-2.1c-0.2-0.4-1.8-3.2-1.8-3.2
				s-0.1-2.9,0.6-3.4c0.6-0.5,2.4-0.6,2.6-0.8C177.9,409.8,178.8,409.7,179.4,409.8z"/>
			<path class="st113" d="M179.7,412l0.6-0.7l-0.5-1.8C179.8,409.4,179.6,410.5,179.7,412z"/>
			<path class="st13" d="M176.1,410.4c0,0-1.2-0.3-1.9,1c-0.7,1.4-0.5,2.1-0.7,2.7c-0.2,0.6-0.8,4.7-0.9,4.8
				c-0.1,0.2-0.6,2.2-0.6,2.9c0.1,0.6,0.6,5.4,0.6,5.6c0,0.2,1.1-0.2,1.1-0.2s-0.1-4.9,0-5.3c0.1-0.4,0.1-2.5,0.4-3.1
				c0.3-0.5,1-3.9,1.2-4.2C175.5,414.2,177.1,410.8,176.1,410.4z"/>
			<path class="st13" d="M179.9,408.7c0,0-0.2,1.8-0.2,2.4c0,0-1,1-2.2-1.2c0,0,0.5-0.9,0.1-2.1
				C177.4,406.5,179.9,408.7,179.9,408.7z"/>
			<path class="st13" d="M179.7,411.1v0.9l-1.1-1L179.7,411.1z"/>
			<path class="st113" d="M179.7,412l-0.5-0.6l-1.6-1.6L177,410L179.7,412z"/>
			<path class="st114" d="M180.3,411.3l0.7,0.2l-1.2-2.1L180.3,411.3z"/>
			<path class="st114" d="M179.3,411.4l-0.7,1.1L177,410l0.7-0.3L179.3,411.4z"/>
			<path class="st113" d="M182.7,415.8c0,0,0.2-1.6,0-2.6c0,0-0.2,0.8-0.5,2L182.7,415.8z"/>
			<path class="st113" d="M175.2,415.6c0,0,0.6-2.2,0.7-2.3c0,0-0.1,2.1-0.3,3C175.6,416.3,175.4,415.8,175.2,415.6z"/>
			<path class="st115" d="M200.1,404.4l-10.5,13.3l0.4,0.3L200.1,404.4z"/>
			<path class="st105" d="M192.1,415.4c0,0-0.8-0.1-0.8,0.1c-0.1,0.1,0.1,0.2,0.1,0.2l-0.3,0.1c0,0-0.2,0.2,0.1,0.3
				c0,0-0.2,0.2,0.1,0.3c0,0-0.1,0.2,0.1,0.2c0.1,0.1,0.6,0.1,0.6,0.1s0.1-0.1,0.1-0.2c0,0,0.2-0.1,0.1-0.3c0,0,0.1-0.1,0.1-0.3
				c0,0,0.3-0.3,0.1-0.5C192.2,415.4,192.1,415.4,192.1,415.4z"/>
			<path class="st13" d="M190.8,415.1c0,0,0.5,0.3,0.6,0.5c0.1,0.1,0.1,0.1,0.1,0.2c-0.1,0.1-0.2,0.1-0.4-0.1
				c-0.2-0.1-0.5-0.2-0.5-0.2S190.4,415.5,190.8,415.1z"/>
			<path class="st13" d="M179.1,402.6c0,0,1.8-0.1,2.1,2.1c0.3,2.1-0.4,4-0.7,4.3c-0.3,0.3-2.1,0.1-2.5-1c-0.4-1.1-1-1.9-0.9-2.9
				C177.1,404.1,176.9,402.6,179.1,402.6z"/>
			<path class="st14" d="M181.2,405.5c0,0,0.5-2.7-1.9-3.1c-2.4-0.5-3.2,1.1-3.4,2.1c-0.2,1,0.1,3.7,0.1,3.7s1.6,1.4,2.5,1.7
				c0,0-0.8-2.9-0.5-5c0,0,1.9,0.3,3.2,0C181.2,404.9,181.2,405.4,181.2,405.5z"/>
			<path class="st16" d="M179.8,409.1c0,0-0.6,0-1.5-0.5c0,0,0.6,0.8,1.4,1C179.8,409.6,179.8,409.2,179.8,409.1z"/>
			<path class="st116" d="M176.3,422.7l-6.9,1.1l0.8,5.1l6.9-1.1L176.3,422.7z"/>
			<path class="st13" d="M172.4,428.9c0,0-0.1-0.2-0.1-0.3c0,0,0-0.2,0-0.3c0-0.1,0-0.1,0-0.1c0-0.1-0.1-0.3-0.1-0.5
				c0-0.3,0.3-1.3,0.3-1.3h0.6l0.6-0.1c0,0,0.7,1.3,0.7,1.6v0.1c0,0.2-0.1,0.3-0.1,0.4c0,0.1-0.1,0.4-0.2,0.4
				c-0.2,0.1-0.3,0.1-0.4,0c0,0-0.3,0.1-0.5,0.1c0,0-0.3,0.1-0.5,0C172.8,428.9,172.6,429,172.4,428.9z"/>
			<path class="st112" d="M176.1,410.4c0,0-1.2-0.3-1.9,1c-0.7,1.4-0.7,2-0.8,2.6c-0.1,0.6-0.9,4.3-1,4.5c-0.1,0.2-0.3,2.5-0.3,3.3
				c0,0.6,0.1,4.8,0.1,5c0,0.2,1.9-0.3,1.9-0.3s-0.2-3.8-0.2-4.3c0.1-0.4,0.1-2.4,0.3-3c0.2-0.7,1.1-4.2,1.3-4.6
				C175.7,414.3,177.1,410.8,176.1,410.4z"/>
			<path class="st117" d="M239.1,446.7l0.1-1.2c0,0-1.7,0-1.8,0.1c0,0,0.2,1,0.2,1.1C237.5,446.9,239.1,446.7,239.1,446.7z"/>
			<path class="st118" d="M236.3,449.2c2,0,2.9,0.1,3.1-0.2c0.2-0.3-0.3-2.4-0.3-2.4s-0.5,0.2-1.6,0.1c0,0-0.5,0.6-1,0.9
				c-0.5,0.3-1.2,0.4-1.5,0.7C234.8,448.3,234.3,449.2,236.3,449.2z"/>
			<path class="st117" d="M227.9,446.7l0.1-1.2c0,0-1.7,0-1.8,0.1c0,0,0.2,1,0.2,1.1C226.4,446.9,227.9,446.7,227.9,446.7z"/>
			<path class="st118" d="M225.1,449.2c2-0.1,2.9,0.1,3.1-0.2c0.2-0.3-0.3-2.4-0.3-2.4s-0.4,0.2-1.6,0.1c0,0-0.5,0.6-1,0.9
				c-0.5,0.3-2.2,0.5-2.5,0.8C222.7,448.4,222.3,449.2,225.1,449.2z"/>
			<path class="st7" d="M236.8,419.9c0,0,0.8,2.5,0.7,4.6s0.4,4.4,0.6,6.7c0.3,2.5,1.2,8.3,1.3,9.7c0.1,1.3-0.2,5.6-0.2,5.6l-2,0.1
				c0,0-1.7-10.2-2.1-11.3c-0.4-1-2.6-8.5-2.7-9.4C232.4,424.9,236.8,419.9,236.8,419.9z"/>
			<path class="st7" d="M228.3,420.3c0,0-1.1,5.9-1.2,7.2c-0.2,1.3-0.2,6.3-0.3,7.1c-0.1,0.8-0.5,10.7-0.9,11.9h2.6
				c0,0,1.9-7.2,1.9-10.6s1.5-7.4,2.5-9.6c1-2.2,3.2-2.3,3.8-6.4C236.8,419.9,229.2,419,228.3,420.3z"/>
			<path class="st13" d="M233.6,400.4c0,0-2-0.8-3,0.8c-0.9,1.6-0.9,4.7,0.2,5c1,0.4,2.5,0.2,3.1-0.8c0.5-1,1-2.4,1-3.3
				C234.8,401.2,234.1,400.7,233.6,400.4z"/>
			<path class="st13" d="M231.2,406.1c0,0,0.1,0.5-0.1,0.8c-0.2,0.3,2.5,0.3,2.5,0.3s0.2-1.4,0.6-2.7
				C234.7,403.3,231.2,406.1,231.2,406.1z"/>
			<path class="st119" d="M234.3,404.5c0,0-0.2,0.3-0.9,0.2c-0.8-0.1-1.7-1.1-2-1.2c-0.3-0.1-0.3-0.3-0.3-0.3l-0.2,0.3h-0.3
				c0,0,0.3-0.9-0.2-1.2c-0.5-0.4,0.5-2.9,2.9-2.1c0,0,1.7,0.3,1.8,1.4C235.2,402.7,234.7,404,234.3,404.5z"/>
			<path class="st120" d="M230.9,406.8c0,0,0-0.5,0.2-0.5c0.2-0.1,2.5-0.3,2.8-0.2v0.6C234,406.7,233.4,407.1,230.9,406.8z"/>
			<path class="st13" d="M231,402.8c0.1-0.2,0.5-0.7,0.6-0.2c0.2,0.5-0.3,1.3-0.5,1.2C231,403.8,230.9,403.3,231,402.8z"/>
			<path class="st69" d="M230.9,406.8c0,0-1.2,0.4-2.7,1.1c0,0-1.7,0.6-1.8,2.4c-0.1,1-1.1,6.2-1.4,6.6c-0.2,0.4-2.5,7.5-2.6,7.6
				c-0.1,0.2,1.9,1,2,0.9c0.1-0.1,2.2-6.4,2.4-6.9c0,0,1.2-3.8,1.2-4.4c0,0,0.1,1.6,0.1,2.1c0.1,0.4-1.1,9.3-1,9.5s5.2,0.5,7.2,0.3
				c2.1-0.2,3.7-0.7,3.7-0.7s-1.6-7-1.6-7.7c0.1-1.7,0.6-4.9,0.6-4.9l1.7,3.1l-2.2,5.5l0.5,1.7c0,0,4-6.1,4.1-6.6
				c0.1-0.5-0.2-1.2-0.4-1.7c-0.2-0.4-1.6-3.9-1.9-4.4c-0.3-0.5-0.9-2.4-2.2-3c-1.1-0.4-3-0.8-3-0.8L230.9,406.8z"/>
			<path class="st121" d="M229.8,421.2l-9.4-2.4l-1.7,6.6l9.4,2.4L229.8,421.2z"/>
			<path class="st122" d="M221.7,426c0,0-0.3,0.4-0.4,0.5c-0.1,0.1,0.2,0.2,0.4,0.1C221.9,426.6,221.7,426,221.7,426z"/>
			<path class="st123" d="M223.6,427.5c0,0,0.2-0.2,0.2-0.3c0,0,0.1-0.2,0.1-0.3c0-0.1,0-0.1,0.1-0.1c0.1-0.1,0.2-0.3,0.2-0.6
				c0.1-0.3,0.2-1.5,0.2-1.5l-0.7-0.2l-0.6-0.1c0,0-1.2,1.2-1.4,1.5v0.1c-0.1,0.2,0,0.4,0,0.5c0,0.1,0,0.5,0.1,0.5
				c0.2,0.1,0.3,0.1,0.4,0.1c0,0,0.3,0.2,0.5,0.2c0,0,0.3,0.2,0.5,0.1C223.2,427.4,223.5,427.6,223.6,427.5z"/>
			<path class="st69" d="M226.5,419.9c0,0-1.7,5-2,5.6c0,0-1.2-0.3-2-0.9l1.8-5.5L226.5,419.9z"/>
			<path class="st124" d="M376.8,427.8c0,0,6.2-18.2-5.6-23.8c-11.8-5.6-21.8,2.5-23.7,6.9c-1.9,4.4-1.4,12.5,0.2,18
				c1.6,5.6,1.4,14.1-2.1,17c-3.5,2.9-7.9,7.6-7.7,17.2c0.1,6,23.4-15.3,23.4-15.3L376.8,427.8z"/>
			<path class="st8" d="M360.2,449.4c0,0-9.7,2.2-13.6,4.4c-3.8,2.3-12.4,12.6-12.4,17.1c0,4.4,37.4,8.6,37.4,8.6l7.1,26
				c0,0,18.9-4.6,21.2-8.5c2.3-3.8-7.2-31.4-8.8-36.9c-1.6-5.7-8.4-9.6-16.3-10.7C367,448.3,360.2,449.4,360.2,449.4z"/>
			<path class="st13" d="M374.2,449.4c0,0-0.2,11.8-9.6,12.2c-9.3,0.3-7.4-11.3-7.4-11.3S364,447.4,374.2,449.4z"/>
			<path class="st124" d="M378.1,413.7c0,0,3.3,19-6.1,32.8C362.2,460.6,378.1,413.7,378.1,413.7z"/>
			<path class="st13" d="M372.2,441c0,0-0.6,5.6,0.4,9.2c1.1,3.5-14.3,3.6-14.3,0.7c0-3.3,1.6-6,0.1-11.7
				C356.9,433.6,372.2,441,372.2,441z"/>
			<path class="st16" d="M360.2,441.7c0,0,4.9,5.1,11.1,0.5c0,0-0.5,3.3-5,3.7C361.9,446.3,360.2,441.7,360.2,441.7z"/>
			<path class="st13" d="M366.3,407.1c0,0,12.3,3.6,10.5,20.8c-1.7,17.1-9.8,16.2-10.5,16.4c-0.8,0.1-10.3,0.8-13.3-20
				C350,403.4,366.3,407.1,366.3,407.1z"/>
			<path class="st124" d="M363.2,414.7c0,0,6.7,10.7,13.7,13.1c0,0,3.8-17.9-12-21.6c-15.8-3.7-13.3,18-12.2,23.8
				C352.7,430,356,421.5,363.2,414.7z"/>
			<path class="st33" d="M354.2,413.1c0,0,3.5-6.8,9.5-7.2c5.9-0.3,9.5,4.9,9.5,4.9s-2.3-5.8-9.5-5.8S354.2,413.1,354.2,413.1z"/>
			<path class="st18" d="M378.3,466.7l4.2,38.9h-54.8l-4.2-38.9H378.3z"/>
			<path class="st18" d="M381.2,504.3h-55.3l-4.2-39.3H377L381.2,504.3z M326.3,503.8h54.3l-4.1-38.4h-54.3L326.3,503.8z"/>
			<path class="st125" d="M356.4,485.5c0.5,2.4-0.6,4.7-2.5,5.1c-1.9,0.4-3.8-1.2-4.3-3.7c-0.5-2.4,0.6-4.7,2.5-5.1
				C354,481.5,355.9,483.1,356.4,485.5z"/>
			<path class="st18" d="M377.4,505.6h10.2v-3.9h-10.2V505.6z"/>
			<path class="st3" d="M345.5,389c-4.6,0-8.4-3.8-8.4-8.5s3.8-8.5,8.4-8.5c4.6,0,8.4,3.8,8.4,8.5S350.2,389,345.5,389z
				 M345.5,372.5c-4.4,0-7.9,3.6-7.9,8c0,4.4,3.6,8,7.9,8c4.4,0,7.9-3.6,7.9-8C353.5,376.1,349.9,372.5,345.5,372.5z"/>
			<path class="st126" d="M196.8,475v-0.7c1.4,0,2.9-0.1,4.3-0.1l0.1,0.7C199.7,474.9,198.3,475,196.8,475z M192.5,474.9
				c-1.4-0.1-2.9-0.1-4.3-0.2l0.1-0.7c1.5,0.1,2.9,0.2,4.3,0.2V474.9z M205.4,474.6l-0.1-0.7c1.4-0.1,2.9-0.3,4.3-0.4l0.1,0.7
				C208.3,474.3,206.8,474.4,205.4,474.6z M183.9,474.4c-1.5-0.2-2.9-0.3-4.3-0.5l0.1-0.7c1.4,0.2,2.8,0.4,4.2,0.5L183.9,474.4z
				 M214,473.5l-0.1-0.7c1.4-0.2,2.8-0.5,4.2-0.8l0.2,0.7C216.8,472.9,215.4,473.2,214,473.5z M175.4,472.9
				c-1.5-0.3-2.9-0.8-4.2-1.2l0.2-0.7c1.3,0.4,2.6,0.9,4.1,1.2L175.4,472.9z M222.5,471.7l-0.2-0.7c1.3-0.3,2.7-0.6,4.2-1.1l0.2,0.7
				C225.1,471.1,223.8,471.4,222.5,471.7z M167.2,470.1c-1.4-0.7-2.6-1.4-3.8-2.1l0.4-0.6c1.1,0.8,2.4,1.5,3.7,2.1L167.2,470.1z
				 M230.8,469.5l-0.2-0.7c0.6-0.2,1.2-0.3,1.8-0.5c0.8-0.2,1.6-0.4,2.4-0.6l0.2,0.7c-0.8,0.2-1.6,0.4-2.4,0.6
				C232,469.2,231.4,469.4,230.8,469.5z M268.1,468.9c-1.3-0.6-2.6-1.2-3.9-1.6l0.2-0.7c1.3,0.5,2.6,1,4,1.7L268.1,468.9z
				 M239,467.2l-0.2-0.7c1.6-0.4,2.9-0.7,4.2-1l0.2,0.7C242,466.5,240.6,466.8,239,467.2z M260.1,466.1c-1.4-0.3-2.8-0.5-4.2-0.7
				l0.1-0.7c1.4,0.2,2.9,0.4,4.3,0.7L260.1,466.1z M247.4,465.5l-0.1-0.7c1.5-0.2,2.9-0.3,4.3-0.3v0.7
				C250.3,465.3,248.9,465.4,247.4,465.5z M160,465.3c-1.1-1-2.1-2.1-2.9-3.3l0.6-0.4c0.8,1.1,1.8,2.2,2.8,3.1L160,465.3z
				 M154.8,458.3c-0.6-1.3-1.1-2.7-1.6-4.1l0.7-0.2c0.4,1.4,0.9,2.7,1.5,4L154.8,458.3z M152.4,450c-0.2-1.4-0.3-2.9-0.3-4.3h0.7
				c0,1.5,0.1,2.9,0.3,4.3L152.4,450z M153,441.4l-0.7-0.1c0.2-1.4,0.4-2.9,0.6-4.3l0.7,0.2C153.4,438.5,153.2,439.9,153,441.4z
				 M154.6,433l-0.7-0.2c0.7-2.5,1.4-4.1,1.4-4.1l0.7,0.3C156,428.9,155.4,430.5,154.6,433z"/>
			<path class="st126" d="M382.4,345.7c0,0-1.2-1.1-3.3-2.7l0.4-0.6c2.2,1.6,3.4,2.7,3.4,2.7L382.4,345.7z M375.5,340.5
				c-1.2-0.8-2.4-1.6-3.6-2.3l0.4-0.6c1.2,0.8,2.5,1.5,3.7,2.3L375.5,340.5z M368.2,336.1c-1.2-0.7-2.5-1.4-3.8-2l0.3-0.7
				c1.3,0.6,2.6,1.3,3.8,2L368.2,336.1z M360.5,332.4c-1.4-0.5-2.6-1.1-4-1.6l0.2-0.7c1.3,0.5,2.7,1,4.1,1.6L360.5,332.4z
				 M306,331.5v-0.7c1.4-0.1,2.8-0.2,4.2-0.4l0.1,0.7C308.9,331.3,307.4,331.5,306,331.5z M301.6,331.3c-1.4-0.2-2.8-0.4-4.3-0.9
				l0.2-0.7c1.4,0.4,2.8,0.7,4.2,0.8L301.6,331.3z M314.5,330.1l-0.2-0.7c0.5-0.2,0.9-0.3,1.4-0.4c0.9-0.3,1.8-0.6,2.7-0.9l0.2,0.7
				c-0.9,0.3-1.8,0.5-2.7,0.8C315.5,329.8,315,330,314.5,330.1z M352.4,329.5c-1.4-0.4-2.8-0.8-4.2-1.1l0.2-0.7
				c1.4,0.3,2.8,0.7,4.2,1.1L352.4,329.5z M293.3,329c-1.2-0.5-2.5-1.1-3.9-1.7l0.3-0.7c1.4,0.7,2.6,1.2,3.9,1.7L293.3,329z
				 M322.8,327.8l-0.2-0.7c1.4-0.3,2.9-0.5,4.3-0.7l0.1,0.7C325.6,327.3,324.2,327.5,322.8,327.8z M344,327.6
				c-1.4-0.2-2.9-0.4-4.2-0.5l0.1-0.7c1.4,0.2,2.9,0.3,4.3,0.5L344,327.6z M218.1,326.9l-0.4-0.6c1.2-0.8,2.5-1.6,3.7-2.3l0.4,0.6
				C220.5,325.3,219.3,326.1,218.1,326.9z M331.3,326.8l-0.1-0.7c1.4-0.1,2.9-0.1,4.3-0.1v0.7C334.1,326.7,332.7,326.7,331.3,326.8z
				 M285.5,325.3c-1.2-0.7-2.4-1.4-3.8-2.1l0.4-0.7c1.4,0.8,2.5,1.4,3.7,2.1L285.5,325.3z M225.4,322.4l-0.3-0.7
				c1.3-0.7,2.6-1.4,3.8-2l0.3,0.7C228,321.1,226.7,321.7,225.4,322.4z M278,321.1c-1.4-0.8-2.6-1.4-3.8-2l0.3-0.7
				c1.1,0.6,2.4,1.2,3.8,2L278,321.1z M233.1,318.6l-0.3-0.7c1.3-0.6,2.7-1.1,4-1.6l0.3,0.7C235.8,317.5,234.4,318,233.1,318.6z
				 M270.3,317.3c-1.3-0.6-2.7-1.1-4-1.5l0.2-0.7c1.4,0.4,2.6,0.9,4.1,1.5L270.3,317.3z M241.1,315.7l-0.2-0.7
				c1.4-0.4,2.8-0.8,4.2-1l0.2,0.7C243.9,314.9,242.5,315.3,241.1,315.7z M262.2,314.7c-1.4-0.3-2.8-0.5-4.2-0.7l0.1-0.7
				c1.4,0.2,2.9,0.4,4.3,0.7L262.2,314.7z M249.5,314l-0.1-0.7c1.5-0.2,2.9-0.2,4.3-0.2v0.7C252.4,313.8,250.9,313.9,249.5,314z"/>
			<path class="st127" d="M293.1,476.8l-18-5.3l5.4-1.6L293.1,476.8z"/>
			<path class="st128" d="M293.1,476.8l-6.8-6.8l-4.2,0.9L293.1,476.8z"/>
			<path class="st129" d="M279.2,472.8l0.1,2.1l13.8,1.9L279.2,472.8z"/>
			<path class="st127" d="M202.4,338.8l15.9-8.9l-5.5-0.3L202.4,338.8z"/>
			<path class="st128" d="M202.4,338.8l4.9-7.9l4.1-0.1L202.4,338.8z"/>
			<path class="st129" d="M214.6,332l0.3,2l-12.5,4.9L214.6,332z"/>
		</g>
	</g>
</g>
</svg>
