<?xml version="1.0" encoding="utf-8"?>
<!-- Generator: Adobe Illustrator 25.2.1, SVG Export Plug-In . SVG Version: 6.00 Build 0)  -->
<svg version="1.1" id="Layer_1" xmlns="http://www.w3.org/2000/svg" xmlns:xlink="http://www.w3.org/1999/xlink" x="0px" y="0px"
	 width="497.6px" height="509px" viewBox="0 0 497.6 509" style="enable-background:new 0 0 497.6 509;" xml:space="preserve">
<style type="text/css">
	.st0{fill:#407BFF;}
	.st1{opacity:0.9;fill:#E3EBFA;enable-background:new    ;}
	.st2{fill:#F5F5F5;}
	.st3{fill:#263238;}
	.st4{opacity:0.7;fill:#263238;enable-background:new    ;}
	.st5{opacity:0.6;fill:#407BFF;enable-background:new    ;}
	.st6{fill:#FFFFFF;}
	.st7{opacity:0.7;fill:#407BFF;enable-background:new    ;}
	.st8{fill:#FFB573;}
	.st9{opacity:0.2;enable-background:new    ;}
	.st10{fill:#0D51D9;}
	.st11{fill:#ED893E;}
	.st12{fill:#E0E0E0;}
	.st13{fill:#BECFD4;stroke:#FFFFFF;stroke-width:2;}
	.st14{fill:#FFFFFF;filter:url(#Adobe_OpacityMaskFilter);}
	.st15{mask:url(#path-1-inside-1_2843_53531_1_);fill:#BECFD4;stroke:#FBFBFB;stroke-width:3;}
	.st16{fill:#FFFFFF;filter:url(#Adobe_OpacityMaskFilter_1_);}
	.st17{mask:url(#path-2-inside-2_2843_53531_1_);fill:#BECFD4;stroke:#FBFBFB;stroke-width:3;}
	.st18{fill:#BECFD4;stroke:#FBFBFB;stroke-width:1.5;}
	.st19{fill:#BACCD1;stroke:#FFFFFF;stroke-width:0.8;}
</style>
<g>
	<path class="st13" d="M37.7,43.9c1.5-2.6,5-3.6,7.7-2l108.6,62.7c2.6,1.5,3.6,5,2.1,7.7l-15.4,26.7c-1.6,2.7-5,3.6-7.7,2L24.3,78.2
		c-2.6-1.5-3.6-5-2.1-7.7L37.7,43.9z M151.8,108.2L43.2,45.5c-0.2-0.1-0.6-0.3-1-0.2c-0.4,0.1-0.7,0.4-0.8,0.6L26,72.7
		c-0.1,0.2-0.3,0.6-0.2,1c0.1,0.4,0.5,0.7,0.7,0.8l108.6,62.7c0.2,0.1,0.4,0.2,0.5,0.2c0.1,0,0.3,0,0.4,0c0.2,0,0.6-0.2,0.9-0.6
		l15.4-26.7c0.2-0.4,0.2-0.9,0.1-1.1c0-0.1-0.1-0.3-0.2-0.4C152.1,108.5,152,108.3,151.8,108.2z"/>
	<path class="st13" d="M-4.4,127.2l-0.9-0.5l-0.5,0.9l-15.8,27.3l-0.5,0.9l0.9,0.5l109.2,63l0.9,0.5l0.5-0.9l15.8-27.3l0.5-0.9
		l-0.9-0.5L-4.4,127.2z M-9.3,125.2c1.3-2.3,4.4-3.2,6.7-1.8l109.8,63.4c2.4,1.4,3.2,4.4,1.8,6.7l-16.1,27.9
		c-1.3,2.3-4.4,3.1-6.7,1.8l-109.8-63.4c-2.3-1.3-3.1-4.4-1.8-6.7L-9.3,125.2z"/>
	<path class="st13" d="M19.2,86.5L18.3,86l-0.5,0.9L2.1,114.1l-0.5,0.9l0.9,0.5l109.2,63l0.9,0.5l0.5-0.9l15.7-27.2l0.5-0.9
		l-0.9-0.5L19.2,86.5z M14.2,84.5c1.4-2.4,4.4-3.2,6.8-1.8l109.6,63.3c2.4,1.4,3.3,4.5,1.9,6.8l-16,27.7c-1.4,2.4-4.5,3.2-6.9,1.8
		L0.1,119c-2.4-1.4-3.2-4.4-1.8-6.8L14.2,84.5z"/>
	<path class="st13" d="M123.1,110.9c1.9-3.3,6.3-4.5,9.6-2.6c3.3,1.9,4.5,6.3,2.6,9.6c-1.9,3.3-6.3,4.6-9.6,2.6
		C122.3,118.6,121.2,114.2,123.1,110.9z M131.6,115.8c0.4-0.7,0.5-1.4,0.3-2.1c-0.2-0.7-0.7-1.3-1.3-1.7c-0.7-0.4-1.4-0.5-2.1-0.3
		c-0.7,0.2-1.3,0.7-1.7,1.3c-0.8,1.4-0.4,3,1,3.8C129.2,117.7,130.8,117.2,131.6,115.8z"/>
	<path class="st13" d="M99.3,152.1c1.9-3.3,6.3-4.6,9.6-2.6c3.4,1.9,4.5,6.3,2.6,9.7c-1.9,3.3-6.3,4.5-9.6,2.6
		S97.4,155.4,99.3,152.1z M107.8,157c0.8-1.4,0.4-3-1-3.8c-1.4-0.8-3-0.3-3.8,1.1c-0.7,1.3-0.4,3,1,3.8
		C105.4,158.8,107.1,158.3,107.8,157z"/>
	<path class="st13" d="M75.8,192.9c1.9-3.3,6.3-4.5,9.6-2.6c3.3,1.9,4.5,6.3,2.6,9.6c-1.9,3.3-6.3,4.6-9.6,2.6
		C75,200.6,73.8,196.2,75.8,192.9z M84.3,197.8c0.4-0.7,0.5-1.4,0.3-2.1c-0.2-0.7-0.7-1.3-1.3-1.7s-1.4-0.5-2.1-0.3
		c-0.7,0.2-1.3,0.7-1.7,1.3c-0.8,1.4-0.4,3,1,3.8C81.8,199.6,83.5,199.1,84.3,197.8z"/>
</g>
<g>
	<path class="st6" d="M70.8,370.8c0.2,0.4,0.3,0.8,0.5,1.1c-0.3-0.6,0,0,0.1,0.2c0.1,0.2,0.2,0.4,0.2,0.6c0.3,0.9,0.6,1.7,0.9,2.6
		c0.2,0.8,0.4,1.6,0.6,2.5c0.1,0.4,0.2,0.8,0.2,1.3c0,0.2,0.1,0.4,0.1,0.6c0,0.1,0,0.3,0.1,0.4c0-0.3,0-0.3,0,0
		c0.2,1.7,0.3,3.4,0.2,5.1c0,0.9-0.1,1.7-0.2,2.6c0,0.2,0,0.4-0.1,0.7c0.1-0.7,0,0.1,0,0.2c-0.1,0.5-0.2,1-0.3,1.5
		c-0.3,1.7-0.8,3.3-1.3,4.9c-0.1,0.4-0.3,0.7-0.4,1c-0.1,0.2-0.1,0.3-0.2,0.5c-0.2,0.5,0.1-0.1,0.1-0.1c0,0.3-0.3,0.7-0.4,1
		c-0.2,0.4-0.4,0.8-0.6,1.1c-0.7,1.3-1.4,2.6-2.3,3.9c-0.2,0.3-0.4,0.6-0.6,0.9c-0.1,0.1-0.2,0.3-0.3,0.4c-0.1,0.2-0.3,0.6,0,0
		c-0.3,0.6-1,1.2-1.5,1.8c-0.9,1-1.9,2-3,2.9c-0.3,0.2-0.5,0.4-0.8,0.7c-0.2,0.2-0.6,0.6-0.8,0.6c0.1-0.1,0.2-0.1,0.3-0.2
		c-0.1,0.1-0.2,0.1-0.3,0.2c-0.1,0.1-0.3,0.2-0.4,0.3c-0.3,0.2-0.7,0.5-1,0.7c-1.2,0.8-2.4,1.5-3.6,2.1c-0.6,0.3-1.3,0.6-1.9,0.9
		c0,0-0.1,0-0.2,0.1c-0.3,0.1-0.2,0.1,0.1-0.1c-0.1,0.1-0.4,0.1-0.5,0.2c-0.4,0.1-0.8,0.3-1.1,0.4c-1.4,0.5-2.8,0.9-4.2,1.2
		c-0.7,0.1-1.4,0.3-2.1,0.4c-0.1,0-0.1,0-0.2,0c-0.3,0-0.2,0,0.2,0c-0.1,0-0.3,0-0.4,0c-0.4,0.1-0.8,0.1-1.2,0.1
		c-1.5,0.1-3,0.2-4.5,0.1c-0.7,0-1.5-0.1-2.2-0.2c-0.2,0-0.4,0-0.5-0.1c0.6,0.2,0.2,0,0,0c-0.4-0.1-0.8-0.1-1.3-0.2
		c-1.5-0.3-2.9-0.6-4.3-1.1c-0.7-0.2-1.4-0.5-2.1-0.7c-0.1,0-0.4-0.1-0.5-0.2c0.1,0,0.2,0.1,0.3,0.1c-0.1,0-0.2-0.1-0.3-0.1
		c-0.4-0.2-0.8-0.3-1.2-0.5c-1.3-0.6-2.7-1.4-3.9-2.2c-0.5-0.4-1.1-0.7-1.6-1.1c-0.1-0.1-0.3-0.2-0.4-0.3c-0.5-0.4,0.5,0.4,0,0
		c-0.3-0.3-0.6-0.5-0.9-0.8c-1.1-0.9-2.2-2-3.2-3c-0.5-0.5-0.9-1-1.4-1.6c-0.1-0.1-0.2-0.3-0.3-0.4c-0.4-0.5,0.4,0.5,0,0
		c-0.2-0.3-0.4-0.6-0.6-0.8c-0.8-1.2-1.6-2.4-2.3-3.7c-0.3-0.6-0.6-1.2-0.9-1.9c-0.1-0.3-0.3-0.6-0.4-1c0.2,0.7,0.1,0.2,0,0
		c-0.1-0.2-0.2-0.4-0.3-0.6c-0.5-1.3-0.9-2.7-1.2-4c-0.2-0.7-0.3-1.4-0.4-2.1c-0.1-0.3-0.1-0.7-0.2-1c-0.1-0.6,0.1,0.6,0,0
		c0-0.2-0.1-0.5-0.1-0.7c-0.2-1.5-0.2-3-0.2-4.5c0-0.7,0.1-1.3,0.1-2c0-0.4,0.1-0.7,0.1-1.1c0-0.1,0-0.1,0-0.2c0-0.3,0-0.2,0,0.2
		c0-0.2,0.1-0.5,0.1-0.7c0.2-1.5,0.6-3,1-4.5c0.2-0.7,0.4-1.4,0.7-2.1c0.1-0.3,0.3-0.7,0.4-1c0.2-0.6-0.3,0.6,0,0
		c0.1-0.2,0.2-0.4,0.3-0.7c0.6-1.3,1.3-2.6,2-3.8c0.4-0.6,0.8-1.2,1.2-1.8c0.2-0.3,0.4-0.6,0.6-0.9c0.1-0.2,0.3-0.6,0,0
		c0.1-0.2,0.3-0.4,0.4-0.6c0.9-1.1,1.8-2.1,2.9-3.1c0.5-0.5,1-1,1.6-1.4c0.3-0.2,0.5-0.4,0.8-0.7c0.1-0.1,0.3-0.3,0.4-0.3
		c-0.3,0.2-0.3,0.3-0.1,0.1c0.1-0.1,0.2-0.1,0.3-0.2c1.2-0.9,2.4-1.6,3.7-2.4c0.6-0.3,1.2-0.6,1.8-0.9c0.3-0.1,0.6-0.3,0.9-0.4
		c0.2-0.1,0.3-0.1,0.5-0.2c0.1,0,0.2-0.1,0.3-0.1c-0.4,0.2-0.4,0.2-0.1,0.1c1.4-0.5,2.7-1,4.1-1.4c0.7-0.2,1.4-0.3,2.1-0.5
		c0.3-0.1,0.7-0.1,1-0.2c0.2,0,0.3-0.1,0.5-0.1c0.1,0,0.2,0,0.3-0.1c-0.4,0.1-0.4,0.1-0.2,0c1.4-0.2,2.8-0.3,4.3-0.3
		c0.7,0,1.4,0,2.2,0.1c0.4,0,0.7,0.1,1.1,0.1c0.2,0,0.4,0,0.5,0c0.1,0,0.2,0,0.4,0c0.3,0,0.2,0-0.2,0c0.3-0.1,0.8,0.1,1.1,0.2
		c0.4,0.1,0.7,0.1,1.1,0.2c0.7,0.1,1.5,0.3,2.2,0.5c-0.6-1.1-1.3-2.2-1.9-3.3l-2.2,8.1l-3.5,12.9l-0.8,3c-0.4,1.3,0.5,3,1.9,3.3
		c1.4,0.3,2.9-0.4,3.3-1.9l2.2-8.1l3.5-12.9l0.8-3c0.4-1.4-0.5-2.9-1.9-3.3c-6.3-1.7-13-1.7-19.3,0c-6.1,1.6-11.8,4.8-16.3,9.2
		c-4.7,4.5-8.1,10.2-9.9,16.5c-1.8,6.3-1.9,13-0.4,19.4c1.5,6.1,4.6,11.8,8.9,16.4c4.4,4.7,10.1,8.3,16.2,10.2
		c6.3,2,13,2.2,19.4,0.8c6.1-1.4,11.9-4.4,16.6-8.6c4.8-4.3,8.4-9.9,10.5-16c2.4-7.2,2.6-15.3,0.3-22.6c-0.6-1.8-1.3-3.6-2.1-5.3
		c-0.6-1.3-2.5-1.7-3.6-1C70.5,368,70.2,369.4,70.8,370.8L70.8,370.8z"/>
	<path class="st6" d="M91.4,361.1c0.3,0.6,0.6,1.3,0.9,1.9c0.3,0.7-0.2-0.5,0.1,0.2c0,0.1,0.1,0.3,0.2,0.4c0.2,0.4,0.3,0.8,0.5,1.2
		c0.5,1.3,0.9,2.7,1.3,4c0.4,1.4,0.8,2.9,1.1,4.3c0.1,0.7,0.3,1.4,0.4,2.1c0.1,0.3,0.1,0.7,0.2,1.1c0,0.1,0,0.3,0.1,0.4
		c0,0.3,0,0.3,0,0c0,0.1,0,0.2,0,0.3c0.4,2.9,0.5,5.9,0.4,8.8c0,1.5-0.1,3-0.3,4.5c0,0.4-0.1,0.7-0.1,1.1c0.1-0.6,0-0.1,0,0.1
		c0,0.2-0.1,0.4-0.1,0.5c-0.1,0.8-0.3,1.6-0.4,2.4c-0.5,2.7-1.3,5.4-2.2,8.1c-0.2,0.6-0.4,1.1-0.6,1.6c-0.1,0.3-0.2,0.6-0.3,0.9
		c-0.1,0.1-0.1,0.3-0.2,0.4c-0.2,0.6,0.3-0.6,0,0c-0.5,1.2-1,2.3-1.6,3.5c-1.1,2.2-2.4,4.3-3.7,6.3c-0.3,0.5-0.7,1-1,1.4
		c-0.2,0.2-0.3,0.4-0.5,0.6c-0.1,0.1-0.2,0.2-0.3,0.4c-0.1,0.1-0.1,0.2-0.2,0.3c0.1-0.1,0.1-0.2,0.2-0.3c-0.3,0.5-0.7,0.9-1.1,1.4
		c-0.4,0.5-0.8,1-1.3,1.5c-1.6,1.8-3.3,3.5-5.1,5.1c-0.9,0.8-1.8,1.5-2.8,2.3c-0.3,0.2,0.5-0.4,0.1,0c-0.1,0.1-0.2,0.1-0.3,0.2
		c-0.2,0.2-0.5,0.3-0.7,0.5c-0.5,0.4-1,0.7-1.6,1.1c-2,1.3-4,2.5-6.2,3.6c-1.1,0.6-2.2,1.1-3.3,1.5c-0.2,0.1-0.4,0.2,0.1-0.1
		c-0.1,0.1-0.3,0.1-0.4,0.2c-0.3,0.1-0.5,0.2-0.8,0.3c-0.6,0.2-1.1,0.4-1.7,0.6c-2.3,0.8-4.6,1.4-6.9,2c-1.2,0.3-2.4,0.5-3.6,0.7
		c-0.1,0-0.2,0-0.3,0.1c-0.6,0.1,0.6-0.1,0,0c-0.3,0-0.6,0.1-0.9,0.1c-0.6,0.1-1.2,0.1-1.8,0.2c-2.4,0.2-4.9,0.2-7.3,0.1
		c-1.3-0.1-2.5-0.2-3.8-0.3c-0.2,0-1.2-0.2-0.4,0c-0.3-0.1-0.6-0.1-0.9-0.1c-0.6-0.1-1.3-0.2-1.9-0.3c-2.5-0.5-5-1.1-7.4-1.9
		c-1.2-0.4-2.4-0.8-3.6-1.3c-0.3-0.1-0.6-0.2-0.8-0.3c0.7,0.4-0.2-0.1-0.3-0.1c-0.6-0.3-1.2-0.5-1.7-0.8c-2.2-1.1-4.4-2.3-6.5-3.6
		c-1-0.7-2-1.3-2.9-2c-0.2-0.2-0.5-0.4-0.7-0.5c-0.5-0.4,0.4,0.3,0.1,0c-0.1-0.1-0.2-0.2-0.3-0.3c-0.5-0.4-1-0.8-1.5-1.2
		c-1.8-1.6-3.5-3.2-5.2-5c-0.8-0.9-1.5-1.8-2.3-2.6c-0.2-0.2-0.4-0.5-0.5-0.7c-0.1-0.1-0.2-0.3-0.3-0.4c0,0,0.4,0.5,0.1,0.1
		c-0.4-0.5-0.8-1-1.1-1.6c-1.4-2-2.6-4-3.7-6.1c-0.6-1.1-1.1-2.1-1.6-3.2c-0.1-0.2-0.2-0.5-0.3-0.7c-0.1-0.2-0.1-0.3-0.2-0.5
		c-0.2-0.4,0,0.1,0.1,0.1c-0.3-0.5-0.5-1.2-0.7-1.8c-0.8-2.2-1.5-4.5-2.1-6.9c-0.3-1.2-0.5-2.3-0.7-3.5c-0.1-0.6-0.2-1.2-0.3-1.7
		c-0.1-0.4,0.1,0.7,0,0.1c0-0.1,0-0.2,0-0.4c0-0.4-0.1-0.7-0.1-1.1c-0.3-2.4-0.4-4.9-0.3-7.3c0-1.3,0.1-2.5,0.2-3.8
		c0.1-0.6,0.1-1.2,0.2-1.7c0-0.2,0-0.6,0,0.1c0-0.2,0-0.3,0.1-0.5c0-0.3,0.1-0.7,0.1-1c0.4-2.5,1-5,1.7-7.4c0.4-1.2,0.8-2.5,1.2-3.7
		c0.2-0.6,0.4-1.2,0.7-1.7c0-0.1,0.1-0.2,0.1-0.3c-0.3,0.7,0,0.1,0,0c0.1-0.3,0.2-0.6,0.4-0.8c1-2.3,2.2-4.5,3.5-6.6
		c0.6-1,1.3-2,2-3c0.3-0.5,0.7-1,1-1.4c0.1-0.1,0.1-0.2,0.2-0.3c0.4-0.5-0.4,0.5,0,0c0.2-0.2,0.4-0.5,0.6-0.8c1.5-1.9,3.2-3.7,5-5.3
		c0.8-0.8,1.7-1.6,2.6-2.3c0.4-0.4,0.9-0.7,1.4-1.1c0.2-0.2,0.4-0.4,0.7-0.5c-0.5,0.3-0.3,0.2-0.1,0.1c0.2-0.1,0.4-0.3,0.6-0.4
		c1.9-1.4,3.9-2.7,6-3.9c1-0.6,2-1.1,3.1-1.6c0.5-0.2,1.1-0.5,1.6-0.7c0.3-0.1,0.5-0.2,0.8-0.4c0.5-0.2-0.4,0.2-0.1,0
		c0.2-0.1,0.4-0.2,0.6-0.2c2.2-0.9,4.5-1.6,6.8-2.3c1.1-0.3,2.3-0.6,3.4-0.8c0.6-0.1,1.2-0.2,1.7-0.3c0.3,0,0.6-0.1,0.9-0.1
		c0.2,0,0.4-0.1,0.5-0.1c-0.1,0-0.2,0-0.3,0c0.1,0,0.2,0,0.4,0c2.4-0.3,4.8-0.5,7.3-0.5c1.2,0,2.5,0,3.7,0.1c0.6,0,1.1,0.1,1.7,0.1
		c0.3,0,0.6,0.1,0.9,0.1c0.2,0,0.4,0,0.5,0.1c0.6,0.1-0.6-0.1,0,0c2.4,0.3,4.9,0.8,7.3,1.5l-1.9-3.3l-1.2,4.6L50,343.6l-3.6,13.3
		l-3.1,11.5c-0.5,1.9-1,3.7-1.5,5.6l0,0.1c-0.4,1.3,0.5,3,1.9,3.3c1.4,0.3,2.9-0.4,3.3-1.9l1.2-4.6l2.9-10.9l3.6-13.3l3.1-11.5
		c0.5-1.9,1-3.7,1.5-5.6l0-0.1c0.4-1.4-0.5-2.9-1.9-3.3c-10.2-2.7-21-2.7-31.1,0C16.5,328.9,7.4,334,0.1,341
		c-7.5,7.2-13.1,16.5-16,26.5c-2.9,10.1-3.1,20.9-0.6,31.1c2.4,9.8,7.4,19,14.2,26.4c7.1,7.7,16.2,13.4,26.2,16.5
		c10,3.1,20.8,3.6,31.1,1.3c9.9-2.2,19.1-7,26.7-13.7c7.8-6.9,13.7-15.9,17-25.8c3.9-11.7,4.2-24.6,0.6-36.4c-0.9-2.9-2-5.8-3.3-8.5
		c-0.6-1.3-2.5-1.7-3.6-1C91,358.3,90.7,359.8,91.4,361.1L91.4,361.1z"/>
	<defs>
		<filter id="Adobe_OpacityMaskFilter" filterUnits="userSpaceOnUse" x="-19.7" y="322.7" width="123.1" height="123.1">
			<feColorMatrix  type="matrix" values="1 0 0 0 0  0 1 0 0 0  0 0 1 0 0  0 0 0 1 0"/>
		</filter>
	</defs>
	<mask maskUnits="userSpaceOnUse" x="-19.7" y="322.7" width="123.1" height="123.1" id="path-1-inside-1_2843_53531_1_">
		<path class="st14" d="M91.4,361.1c0.3,0.6,0.6,1.3,0.9,1.9c0.3,0.7-0.2-0.5,0.1,0.2c0,0.1,0.1,0.3,0.2,0.4
			c0.2,0.4,0.3,0.8,0.5,1.2c0.5,1.3,0.9,2.7,1.3,4c0.4,1.4,0.8,2.9,1.1,4.3c0.1,0.7,0.3,1.4,0.4,2.1c0.1,0.3,0.1,0.7,0.2,1.1
			c0,0.1,0,0.3,0.1,0.4c0,0.3,0,0.3,0,0c0,0.1,0,0.2,0,0.3c0.4,2.9,0.5,5.9,0.4,8.8c0,1.5-0.1,3-0.3,4.5c0,0.4-0.1,0.7-0.1,1.1
			c0.1-0.6,0-0.1,0,0.1c0,0.2-0.1,0.4-0.1,0.5c-0.1,0.8-0.3,1.6-0.4,2.4c-0.5,2.7-1.3,5.4-2.2,8.1c-0.2,0.6-0.4,1.1-0.6,1.6
			c-0.1,0.3-0.2,0.6-0.3,0.9c-0.1,0.1-0.1,0.3-0.2,0.4c-0.2,0.6,0.3-0.6,0,0c-0.5,1.2-1,2.3-1.6,3.5c-1.1,2.2-2.4,4.3-3.7,6.3
			c-0.3,0.5-0.7,1-1,1.4c-0.2,0.2-0.3,0.4-0.5,0.6c-0.1,0.1-0.2,0.2-0.3,0.4c-0.1,0.1-0.1,0.2-0.2,0.3c0.1-0.1,0.1-0.2,0.2-0.3
			c-0.3,0.5-0.7,0.9-1.1,1.4c-0.4,0.5-0.8,1-1.3,1.5c-1.6,1.8-3.3,3.5-5.1,5.1c-0.9,0.8-1.8,1.5-2.8,2.3c-0.3,0.2,0.5-0.4,0.1,0
			c-0.1,0.1-0.2,0.1-0.3,0.2c-0.2,0.2-0.5,0.3-0.7,0.5c-0.5,0.4-1,0.7-1.6,1.1c-2,1.3-4,2.5-6.2,3.6c-1.1,0.6-2.2,1.1-3.3,1.5
			c-0.2,0.1-0.4,0.2,0.1-0.1c-0.1,0.1-0.3,0.1-0.4,0.2c-0.3,0.1-0.5,0.2-0.8,0.3c-0.6,0.2-1.1,0.4-1.7,0.6c-2.3,0.8-4.6,1.4-6.9,2
			c-1.2,0.3-2.4,0.5-3.6,0.7c-0.1,0-0.2,0-0.3,0.1c-0.6,0.1,0.6-0.1,0,0c-0.3,0-0.6,0.1-0.9,0.1c-0.6,0.1-1.2,0.1-1.8,0.2
			c-2.4,0.2-4.9,0.2-7.3,0.1c-1.3-0.1-2.5-0.2-3.8-0.3c-0.2,0-1.2-0.2-0.4,0c-0.3-0.1-0.6-0.1-0.9-0.1c-0.6-0.1-1.3-0.2-1.9-0.3
			c-2.5-0.5-5-1.1-7.4-1.9c-1.2-0.4-2.4-0.8-3.6-1.3c-0.3-0.1-0.6-0.2-0.8-0.3c0.7,0.4-0.2-0.1-0.3-0.1c-0.6-0.3-1.2-0.5-1.7-0.8
			c-2.2-1.1-4.4-2.3-6.5-3.6c-1-0.7-2-1.3-2.9-2c-0.2-0.2-0.5-0.4-0.7-0.5c-0.5-0.4,0.4,0.3,0.1,0c-0.1-0.1-0.2-0.2-0.3-0.3
			c-0.5-0.4-1-0.8-1.5-1.2c-1.8-1.6-3.5-3.2-5.2-5c-0.8-0.9-1.5-1.8-2.3-2.6c-0.2-0.2-0.4-0.5-0.5-0.7c-0.1-0.1-0.2-0.3-0.3-0.4
			c0,0,0.4,0.5,0.1,0.1c-0.4-0.5-0.8-1-1.1-1.6c-1.4-2-2.6-4-3.7-6.1c-0.6-1.1-1.1-2.1-1.6-3.2c-0.1-0.2-0.2-0.5-0.3-0.7
			c-0.1-0.2-0.1-0.3-0.2-0.5c-0.2-0.4,0,0.1,0.1,0.1c-0.3-0.5-0.5-1.2-0.7-1.8c-0.8-2.2-1.5-4.5-2.1-6.9c-0.3-1.2-0.5-2.3-0.7-3.5
			c-0.1-0.6-0.2-1.2-0.3-1.7c-0.1-0.4,0.1,0.7,0,0.1c0-0.1,0-0.2,0-0.4c0-0.4-0.1-0.7-0.1-1.1c-0.3-2.4-0.4-4.9-0.3-7.3
			c0-1.3,0.1-2.5,0.2-3.8c0.1-0.6,0.1-1.2,0.2-1.7c0-0.2,0-0.6,0,0.1c0-0.2,0-0.3,0.1-0.5c0-0.3,0.1-0.7,0.1-1c0.4-2.5,1-5,1.7-7.4
			c0.4-1.2,0.8-2.5,1.2-3.7c0.2-0.6,0.4-1.2,0.7-1.7c0-0.1,0.1-0.2,0.1-0.3c-0.3,0.7,0,0.1,0,0c0.1-0.3,0.2-0.6,0.4-0.8
			c1-2.3,2.2-4.5,3.5-6.6c0.6-1,1.3-2,2-3c0.3-0.5,0.7-1,1-1.4c0.1-0.1,0.1-0.2,0.2-0.3c0.4-0.5-0.4,0.5,0,0
			c0.2-0.2,0.4-0.5,0.6-0.8c1.5-1.9,3.2-3.7,5-5.3c0.8-0.8,1.7-1.6,2.6-2.3c0.4-0.4,0.9-0.7,1.4-1.1c0.2-0.2,0.4-0.4,0.7-0.5
			c-0.5,0.3-0.3,0.2-0.1,0.1c0.2-0.1,0.4-0.3,0.6-0.4c1.9-1.4,3.9-2.7,6-3.9c1-0.6,2-1.1,3.1-1.6c0.5-0.2,1.1-0.5,1.6-0.7
			c0.3-0.1,0.5-0.2,0.8-0.4c0.5-0.2-0.4,0.2-0.1,0c0.2-0.1,0.4-0.2,0.6-0.2c2.2-0.9,4.5-1.6,6.8-2.3c1.1-0.3,2.3-0.6,3.4-0.8
			c0.6-0.1,1.2-0.2,1.7-0.3c0.3,0,0.6-0.1,0.9-0.1c0.2,0,0.4-0.1,0.5-0.1c-0.1,0-0.2,0-0.3,0c0.1,0,0.2,0,0.4,0
			c2.4-0.3,4.8-0.5,7.3-0.5c1.2,0,2.5,0,3.7,0.1c0.6,0,1.1,0.1,1.7,0.1c0.3,0,0.6,0.1,0.9,0.1c0.2,0,0.4,0,0.5,0.1
			c0.6,0.1-0.6-0.1,0,0c2.4,0.3,4.9,0.8,7.3,1.5l-1.9-3.3l-1.2,4.6L50,343.6l-3.6,13.3l-3.1,11.5c-0.5,1.9-1,3.7-1.5,5.6l0,0.1
			c-0.4,1.3,0.5,3,1.9,3.3c1.4,0.3,2.9-0.4,3.3-1.9l1.2-4.6l2.9-10.9l3.6-13.3l3.1-11.5c0.5-1.9,1-3.7,1.5-5.6l0-0.1
			c0.4-1.4-0.5-2.9-1.9-3.3c-10.2-2.7-21-2.7-31.1,0C16.5,328.9,7.4,334,0.1,341c-7.5,7.2-13.1,16.5-16,26.5
			c-2.9,10.1-3.1,20.9-0.6,31.1c2.4,9.8,7.4,19,14.2,26.4c7.1,7.7,16.2,13.4,26.2,16.5c10,3.1,20.8,3.6,31.1,1.3
			c9.9-2.2,19.1-7,26.7-13.7c7.8-6.9,13.7-15.9,17-25.8c3.9-11.7,4.2-24.6,0.6-36.4c-0.9-2.9-2-5.8-3.3-8.5c-0.6-1.3-2.5-1.7-3.6-1
			C91,358.3,90.7,359.8,91.4,361.1L91.4,361.1z"/>
	</mask>
	<path class="st15" d="M91.4,361.1c0.3,0.6,0.6,1.3,0.9,1.9c0.3,0.7-0.2-0.5,0.1,0.2c0,0.1,0.1,0.3,0.2,0.4c0.2,0.4,0.3,0.8,0.5,1.2
		c0.5,1.3,0.9,2.7,1.3,4c0.4,1.4,0.8,2.9,1.1,4.3c0.1,0.7,0.3,1.4,0.4,2.1c0.1,0.3,0.1,0.7,0.2,1.1c0,0.1,0,0.3,0.1,0.4
		c0,0.3,0,0.3,0,0c0,0.1,0,0.2,0,0.3c0.4,2.9,0.5,5.9,0.4,8.8c0,1.5-0.1,3-0.3,4.5c0,0.4-0.1,0.7-0.1,1.1c0.1-0.6,0-0.1,0,0.1
		c0,0.2-0.1,0.4-0.1,0.5c-0.1,0.8-0.3,1.6-0.4,2.4c-0.5,2.7-1.3,5.4-2.2,8.1c-0.2,0.6-0.4,1.1-0.6,1.6c-0.1,0.3-0.2,0.6-0.3,0.9
		c-0.1,0.1-0.1,0.3-0.2,0.4c-0.2,0.6,0.3-0.6,0,0c-0.5,1.2-1,2.3-1.6,3.5c-1.1,2.2-2.4,4.3-3.7,6.3c-0.3,0.5-0.7,1-1,1.4
		c-0.2,0.2-0.3,0.4-0.5,0.6c-0.1,0.1-0.2,0.2-0.3,0.4c-0.1,0.1-0.1,0.2-0.2,0.3c0.1-0.1,0.1-0.2,0.2-0.3c-0.3,0.5-0.7,0.9-1.1,1.4
		c-0.4,0.5-0.8,1-1.3,1.5c-1.6,1.8-3.3,3.5-5.1,5.1c-0.9,0.8-1.8,1.5-2.8,2.3c-0.3,0.2,0.5-0.4,0.1,0c-0.1,0.1-0.2,0.1-0.3,0.2
		c-0.2,0.2-0.5,0.3-0.7,0.5c-0.5,0.4-1,0.7-1.6,1.1c-2,1.3-4,2.5-6.2,3.6c-1.1,0.6-2.2,1.1-3.3,1.5c-0.2,0.1-0.4,0.2,0.1-0.1
		c-0.1,0.1-0.3,0.1-0.4,0.2c-0.3,0.1-0.5,0.2-0.8,0.3c-0.6,0.2-1.1,0.4-1.7,0.6c-2.3,0.8-4.6,1.4-6.9,2c-1.2,0.3-2.4,0.5-3.6,0.7
		c-0.1,0-0.2,0-0.3,0.1c-0.6,0.1,0.6-0.1,0,0c-0.3,0-0.6,0.1-0.9,0.1c-0.6,0.1-1.2,0.1-1.8,0.2c-2.4,0.2-4.9,0.2-7.3,0.1
		c-1.3-0.1-2.5-0.2-3.8-0.3c-0.2,0-1.2-0.2-0.4,0c-0.3-0.1-0.6-0.1-0.9-0.1c-0.6-0.1-1.3-0.2-1.9-0.3c-2.5-0.5-5-1.1-7.4-1.9
		c-1.2-0.4-2.4-0.8-3.6-1.3c-0.3-0.1-0.6-0.2-0.8-0.3c0.7,0.4-0.2-0.1-0.3-0.1c-0.6-0.3-1.2-0.5-1.7-0.8c-2.2-1.1-4.4-2.3-6.5-3.6
		c-1-0.7-2-1.3-2.9-2c-0.2-0.2-0.5-0.4-0.7-0.5c-0.5-0.4,0.4,0.3,0.1,0c-0.1-0.1-0.2-0.2-0.3-0.3c-0.5-0.4-1-0.8-1.5-1.2
		c-1.8-1.6-3.5-3.2-5.2-5c-0.8-0.9-1.5-1.8-2.3-2.6c-0.2-0.2-0.4-0.5-0.5-0.7c-0.1-0.1-0.2-0.3-0.3-0.4c0,0,0.4,0.5,0.1,0.1
		c-0.4-0.5-0.8-1-1.1-1.6c-1.4-2-2.6-4-3.7-6.1c-0.6-1.1-1.1-2.1-1.6-3.2c-0.1-0.2-0.2-0.5-0.3-0.7c-0.1-0.2-0.1-0.3-0.2-0.5
		c-0.2-0.4,0,0.1,0.1,0.1c-0.3-0.5-0.5-1.2-0.7-1.8c-0.8-2.2-1.5-4.5-2.1-6.9c-0.3-1.2-0.5-2.3-0.7-3.5c-0.1-0.6-0.2-1.2-0.3-1.7
		c-0.1-0.4,0.1,0.7,0,0.1c0-0.1,0-0.2,0-0.4c0-0.4-0.1-0.7-0.1-1.1c-0.3-2.4-0.4-4.9-0.3-7.3c0-1.3,0.1-2.5,0.2-3.8
		c0.1-0.6,0.1-1.2,0.2-1.7c0-0.2,0-0.6,0,0.1c0-0.2,0-0.3,0.1-0.5c0-0.3,0.1-0.7,0.1-1c0.4-2.5,1-5,1.7-7.4c0.4-1.2,0.8-2.5,1.2-3.7
		c0.2-0.6,0.4-1.2,0.7-1.7c0-0.1,0.1-0.2,0.1-0.3c-0.3,0.7,0,0.1,0,0c0.1-0.3,0.2-0.6,0.4-0.8c1-2.3,2.2-4.5,3.5-6.6
		c0.6-1,1.3-2,2-3c0.3-0.5,0.7-1,1-1.4c0.1-0.1,0.1-0.2,0.2-0.3c0.4-0.5-0.4,0.5,0,0c0.2-0.2,0.4-0.5,0.6-0.8c1.5-1.9,3.2-3.7,5-5.3
		c0.8-0.8,1.7-1.6,2.6-2.3c0.4-0.4,0.9-0.7,1.4-1.1c0.2-0.2,0.4-0.4,0.7-0.5c-0.5,0.3-0.3,0.2-0.1,0.1c0.2-0.1,0.4-0.3,0.6-0.4
		c1.9-1.4,3.9-2.7,6-3.9c1-0.6,2-1.1,3.1-1.6c0.5-0.2,1.1-0.5,1.6-0.7c0.3-0.1,0.5-0.2,0.8-0.4c0.5-0.2-0.4,0.2-0.1,0
		c0.2-0.1,0.4-0.2,0.6-0.2c2.2-0.9,4.5-1.6,6.8-2.3c1.1-0.3,2.3-0.6,3.4-0.8c0.6-0.1,1.2-0.2,1.7-0.3c0.3,0,0.6-0.1,0.9-0.1
		c0.2,0,0.4-0.1,0.5-0.1c-0.1,0-0.2,0-0.3,0c0.1,0,0.2,0,0.4,0c2.4-0.3,4.8-0.5,7.3-0.5c1.2,0,2.5,0,3.7,0.1c0.6,0,1.1,0.1,1.7,0.1
		c0.3,0,0.6,0.1,0.9,0.1c0.2,0,0.4,0,0.5,0.1c0.6,0.1-0.6-0.1,0,0c2.4,0.3,4.9,0.8,7.3,1.5l-1.9-3.3l-1.2,4.6L50,343.6l-3.6,13.3
		l-3.1,11.5c-0.5,1.9-1,3.7-1.5,5.6l0,0.1c-0.4,1.3,0.5,3,1.9,3.3c1.4,0.3,2.9-0.4,3.3-1.9l1.2-4.6l2.9-10.9l3.6-13.3l3.1-11.5
		c0.5-1.9,1-3.7,1.5-5.6l0-0.1c0.4-1.4-0.5-2.9-1.9-3.3c-10.2-2.7-21-2.7-31.1,0C16.5,328.9,7.4,334,0.1,341
		c-7.5,7.2-13.1,16.5-16,26.5c-2.9,10.1-3.1,20.9-0.6,31.1c2.4,9.8,7.4,19,14.2,26.4c7.1,7.7,16.2,13.4,26.2,16.5
		c10,3.1,20.8,3.6,31.1,1.3c9.9-2.2,19.1-7,26.7-13.7c7.8-6.9,13.7-15.9,17-25.8c3.9-11.7,4.2-24.6,0.6-36.4c-0.9-2.9-2-5.8-3.3-8.5
		c-0.6-1.3-2.5-1.7-3.6-1C91,358.3,90.7,359.8,91.4,361.1L91.4,361.1z"/>
	<defs>
		<filter id="Adobe_OpacityMaskFilter_1_" filterUnits="userSpaceOnUse" x="2.9" y="345.5" width="77.6" height="77.6">
			<feColorMatrix  type="matrix" values="1 0 0 0 0  0 1 0 0 0  0 0 1 0 0  0 0 0 1 0"/>
		</filter>
	</defs>
	<mask maskUnits="userSpaceOnUse" x="2.9" y="345.5" width="77.6" height="77.6" id="path-2-inside-2_2843_53531_1_">
		<path class="st16" d="M70.8,370.8c0.2,0.4,0.3,0.8,0.5,1.1c-0.3-0.6,0,0,0.1,0.2c0.1,0.2,0.2,0.4,0.2,0.6c0.3,0.9,0.6,1.7,0.9,2.6
			c0.2,0.8,0.4,1.6,0.6,2.5c0.1,0.4,0.2,0.8,0.2,1.3c0,0.2,0.1,0.4,0.1,0.6c0,0.1,0,0.3,0.1,0.4c0-0.3,0-0.3,0,0
			c0.2,1.7,0.3,3.4,0.2,5.1c0,0.9-0.1,1.7-0.2,2.6c0,0.2,0,0.4-0.1,0.7c0.1-0.7,0,0.1,0,0.2c-0.1,0.5-0.2,1-0.3,1.5
			c-0.3,1.7-0.8,3.3-1.3,4.9c-0.1,0.4-0.3,0.7-0.4,1c-0.1,0.2-0.1,0.3-0.2,0.5c-0.2,0.5,0.1-0.1,0.1-0.1c0,0.3-0.3,0.7-0.4,1
			c-0.2,0.4-0.4,0.8-0.6,1.1c-0.7,1.3-1.4,2.6-2.3,3.9c-0.2,0.3-0.4,0.6-0.6,0.9c-0.1,0.1-0.2,0.3-0.3,0.4c-0.1,0.2-0.3,0.6,0,0
			c-0.3,0.6-1,1.2-1.5,1.8c-0.9,1-1.9,2-3,2.9c-0.3,0.2-0.5,0.4-0.8,0.7c-0.2,0.2-0.6,0.6-0.8,0.6c0.1-0.1,0.2-0.1,0.3-0.2
			c-0.1,0.1-0.2,0.1-0.3,0.2c-0.1,0.1-0.3,0.2-0.4,0.3c-0.3,0.2-0.7,0.5-1,0.7c-1.2,0.8-2.4,1.5-3.6,2.1c-0.6,0.3-1.3,0.6-1.9,0.9
			c0,0-0.1,0-0.2,0.1c-0.3,0.1-0.2,0.1,0.1-0.1c-0.1,0.1-0.4,0.1-0.5,0.2c-0.4,0.1-0.8,0.3-1.1,0.4c-1.4,0.5-2.8,0.9-4.2,1.2
			c-0.7,0.1-1.4,0.3-2.1,0.4c-0.1,0-0.1,0-0.2,0c-0.3,0-0.2,0,0.2,0c-0.1,0-0.3,0-0.4,0c-0.4,0.1-0.8,0.1-1.2,0.1
			c-1.5,0.1-3,0.2-4.5,0.1c-0.7,0-1.5-0.1-2.2-0.2c-0.2,0-0.4,0-0.5-0.1c0.6,0.2,0.2,0,0,0c-0.4-0.1-0.8-0.1-1.3-0.2
			c-1.5-0.3-2.9-0.6-4.3-1.1c-0.7-0.2-1.4-0.5-2.1-0.7c-0.1,0-0.4-0.1-0.5-0.2c0.1,0,0.2,0.1,0.3,0.1c-0.1,0-0.2-0.1-0.3-0.1
			c-0.4-0.2-0.8-0.3-1.2-0.5c-1.3-0.6-2.7-1.4-3.9-2.2c-0.5-0.4-1.1-0.7-1.6-1.1c-0.1-0.1-0.3-0.2-0.4-0.3c-0.5-0.4,0.5,0.4,0,0
			c-0.3-0.3-0.6-0.5-0.9-0.8c-1.1-0.9-2.2-2-3.2-3c-0.5-0.5-0.9-1-1.4-1.6c-0.1-0.1-0.2-0.3-0.3-0.4c-0.4-0.5,0.4,0.5,0,0
			c-0.2-0.3-0.4-0.6-0.6-0.8c-0.8-1.2-1.6-2.4-2.3-3.7c-0.3-0.6-0.6-1.2-0.9-1.9c-0.1-0.3-0.3-0.6-0.4-1c0.2,0.7,0.1,0.2,0,0
			c-0.1-0.2-0.2-0.4-0.3-0.6c-0.5-1.3-0.9-2.7-1.2-4c-0.2-0.7-0.3-1.4-0.4-2.1c-0.1-0.3-0.1-0.7-0.2-1c-0.1-0.6,0.1,0.6,0,0
			c0-0.2-0.1-0.5-0.1-0.7c-0.2-1.5-0.2-3-0.2-4.5c0-0.7,0.1-1.3,0.1-2c0-0.4,0.1-0.7,0.1-1.1c0-0.1,0-0.1,0-0.2c0-0.3,0-0.2,0,0.2
			c0-0.2,0.1-0.5,0.1-0.7c0.2-1.5,0.6-3,1-4.5c0.2-0.7,0.4-1.4,0.7-2.1c0.1-0.3,0.3-0.7,0.4-1c0.2-0.6-0.3,0.6,0,0
			c0.1-0.2,0.2-0.4,0.3-0.7c0.6-1.3,1.3-2.6,2-3.8c0.4-0.6,0.8-1.2,1.2-1.8c0.2-0.3,0.4-0.6,0.6-0.9c0.1-0.2,0.3-0.6,0,0
			c0.1-0.2,0.3-0.4,0.4-0.6c0.9-1.1,1.8-2.1,2.9-3.1c0.5-0.5,1-1,1.6-1.4c0.3-0.2,0.5-0.4,0.8-0.7c0.1-0.1,0.3-0.3,0.4-0.3
			c-0.3,0.2-0.3,0.3-0.1,0.1c0.1-0.1,0.2-0.1,0.3-0.2c1.2-0.9,2.4-1.6,3.7-2.4c0.6-0.3,1.2-0.6,1.8-0.9c0.3-0.1,0.6-0.3,0.9-0.4
			c0.2-0.1,0.3-0.1,0.5-0.2c0.1,0,0.2-0.1,0.3-0.1c-0.4,0.2-0.4,0.2-0.1,0.1c1.4-0.5,2.7-1,4.1-1.4c0.7-0.2,1.4-0.3,2.1-0.5
			c0.3-0.1,0.7-0.1,1-0.2c0.2,0,0.3-0.1,0.5-0.1c0.1,0,0.2,0,0.3-0.1c-0.4,0.1-0.4,0.1-0.2,0c1.4-0.2,2.8-0.3,4.3-0.3
			c0.7,0,1.4,0,2.2,0.1c0.4,0,0.7,0.1,1.1,0.1c0.2,0,0.4,0,0.5,0c0.1,0,0.2,0,0.4,0c0.3,0,0.2,0-0.2,0c0.3-0.1,0.8,0.1,1.1,0.2
			c0.4,0.1,0.7,0.1,1.1,0.2c0.7,0.1,1.5,0.3,2.2,0.5c-0.6-1.1-1.3-2.2-1.9-3.3l-2.2,8.1l-3.5,12.9l-0.8,3c-0.4,1.3,0.5,3,1.9,3.3
			c1.4,0.3,2.9-0.4,3.3-1.9l2.2-8.1l3.5-12.9l0.8-3c0.4-1.4-0.5-2.9-1.9-3.3c-6.3-1.7-13-1.7-19.3,0c-6.1,1.6-11.8,4.8-16.3,9.2
			c-4.7,4.5-8.1,10.2-9.9,16.5c-1.8,6.3-1.9,13-0.4,19.4c1.5,6.1,4.6,11.8,8.9,16.4c4.4,4.7,10.1,8.3,16.2,10.2
			c6.3,2,13,2.2,19.4,0.8c6.1-1.4,11.9-4.4,16.6-8.6c4.8-4.3,8.4-9.9,10.5-16c2.4-7.2,2.6-15.3,0.3-22.6c-0.6-1.8-1.3-3.6-2.1-5.3
			c-0.6-1.3-2.5-1.7-3.6-1C70.5,368,70.2,369.4,70.8,370.8L70.8,370.8z"/>
	</mask>
	<path class="st17" d="M70.8,370.8c0.2,0.4,0.3,0.8,0.5,1.1c-0.3-0.6,0,0,0.1,0.2c0.1,0.2,0.2,0.4,0.2,0.6c0.3,0.9,0.6,1.7,0.9,2.6
		c0.2,0.8,0.4,1.6,0.6,2.5c0.1,0.4,0.2,0.8,0.2,1.3c0,0.2,0.1,0.4,0.1,0.6c0,0.1,0,0.3,0.1,0.4c0-0.3,0-0.3,0,0
		c0.2,1.7,0.3,3.4,0.2,5.1c0,0.9-0.1,1.7-0.2,2.6c0,0.2,0,0.4-0.1,0.7c0.1-0.7,0,0.1,0,0.2c-0.1,0.5-0.2,1-0.3,1.5
		c-0.3,1.7-0.8,3.3-1.3,4.9c-0.1,0.4-0.3,0.7-0.4,1c-0.1,0.2-0.1,0.3-0.2,0.5c-0.2,0.5,0.1-0.1,0.1-0.1c0,0.3-0.3,0.7-0.4,1
		c-0.2,0.4-0.4,0.8-0.6,1.1c-0.7,1.3-1.4,2.6-2.3,3.9c-0.2,0.3-0.4,0.6-0.6,0.9c-0.1,0.1-0.2,0.3-0.3,0.4c-0.1,0.2-0.3,0.6,0,0
		c-0.3,0.6-1,1.2-1.5,1.8c-0.9,1-1.9,2-3,2.9c-0.3,0.2-0.5,0.4-0.8,0.7c-0.2,0.2-0.6,0.6-0.8,0.6c0.1-0.1,0.2-0.1,0.3-0.2
		c-0.1,0.1-0.2,0.1-0.3,0.2c-0.1,0.1-0.3,0.2-0.4,0.3c-0.3,0.2-0.7,0.5-1,0.7c-1.2,0.8-2.4,1.5-3.6,2.1c-0.6,0.3-1.3,0.6-1.9,0.9
		c0,0-0.1,0-0.2,0.1c-0.3,0.1-0.2,0.1,0.1-0.1c-0.1,0.1-0.4,0.1-0.5,0.2c-0.4,0.1-0.8,0.3-1.1,0.4c-1.4,0.5-2.8,0.9-4.2,1.2
		c-0.7,0.1-1.4,0.3-2.1,0.4c-0.1,0-0.1,0-0.2,0c-0.3,0-0.2,0,0.2,0c-0.1,0-0.3,0-0.4,0c-0.4,0.1-0.8,0.1-1.2,0.1
		c-1.5,0.1-3,0.2-4.5,0.1c-0.7,0-1.5-0.1-2.2-0.2c-0.2,0-0.4,0-0.5-0.1c0.6,0.2,0.2,0,0,0c-0.4-0.1-0.8-0.1-1.3-0.2
		c-1.5-0.3-2.9-0.6-4.3-1.1c-0.7-0.2-1.4-0.5-2.1-0.7c-0.1,0-0.4-0.1-0.5-0.2c0.1,0,0.2,0.1,0.3,0.1c-0.1,0-0.2-0.1-0.3-0.1
		c-0.4-0.2-0.8-0.3-1.2-0.5c-1.3-0.6-2.7-1.4-3.9-2.2c-0.5-0.4-1.1-0.7-1.6-1.1c-0.1-0.1-0.3-0.2-0.4-0.3c-0.5-0.4,0.5,0.4,0,0
		c-0.3-0.3-0.6-0.5-0.9-0.8c-1.1-0.9-2.2-2-3.2-3c-0.5-0.5-0.9-1-1.4-1.6c-0.1-0.1-0.2-0.3-0.3-0.4c-0.4-0.5,0.4,0.5,0,0
		c-0.2-0.3-0.4-0.6-0.6-0.8c-0.8-1.2-1.6-2.4-2.3-3.7c-0.3-0.6-0.6-1.2-0.9-1.9c-0.1-0.3-0.3-0.6-0.4-1c0.2,0.7,0.1,0.2,0,0
		c-0.1-0.2-0.2-0.4-0.3-0.6c-0.5-1.3-0.9-2.7-1.2-4c-0.2-0.7-0.3-1.4-0.4-2.1c-0.1-0.3-0.1-0.7-0.2-1c-0.1-0.6,0.1,0.6,0,0
		c0-0.2-0.1-0.5-0.1-0.7c-0.2-1.5-0.2-3-0.2-4.5c0-0.7,0.1-1.3,0.1-2c0-0.4,0.1-0.7,0.1-1.1c0-0.1,0-0.1,0-0.2c0-0.3,0-0.2,0,0.2
		c0-0.2,0.1-0.5,0.1-0.7c0.2-1.5,0.6-3,1-4.5c0.2-0.7,0.4-1.4,0.7-2.1c0.1-0.3,0.3-0.7,0.4-1c0.2-0.6-0.3,0.6,0,0
		c0.1-0.2,0.2-0.4,0.3-0.7c0.6-1.3,1.3-2.6,2-3.8c0.4-0.6,0.8-1.2,1.2-1.8c0.2-0.3,0.4-0.6,0.6-0.9c0.1-0.2,0.3-0.6,0,0
		c0.1-0.2,0.3-0.4,0.4-0.6c0.9-1.1,1.8-2.1,2.9-3.1c0.5-0.5,1-1,1.6-1.4c0.3-0.2,0.5-0.4,0.8-0.7c0.1-0.1,0.3-0.3,0.4-0.3
		c-0.3,0.2-0.3,0.3-0.1,0.1c0.1-0.1,0.2-0.1,0.3-0.2c1.2-0.9,2.4-1.6,3.7-2.4c0.6-0.3,1.2-0.6,1.8-0.9c0.3-0.1,0.6-0.3,0.9-0.4
		c0.2-0.1,0.3-0.1,0.5-0.2c0.1,0,0.2-0.1,0.3-0.1c-0.4,0.2-0.4,0.2-0.1,0.1c1.4-0.5,2.7-1,4.1-1.4c0.7-0.2,1.4-0.3,2.1-0.5
		c0.3-0.1,0.7-0.1,1-0.2c0.2,0,0.3-0.1,0.5-0.1c0.1,0,0.2,0,0.3-0.1c-0.4,0.1-0.4,0.1-0.2,0c1.4-0.2,2.8-0.3,4.3-0.3
		c0.7,0,1.4,0,2.2,0.1c0.4,0,0.7,0.1,1.1,0.1c0.2,0,0.4,0,0.5,0c0.1,0,0.2,0,0.4,0c0.3,0,0.2,0-0.2,0c0.3-0.1,0.8,0.1,1.1,0.2
		c0.4,0.1,0.7,0.1,1.1,0.2c0.7,0.1,1.5,0.3,2.2,0.5c-0.6-1.1-1.3-2.2-1.9-3.3l-2.2,8.1l-3.5,12.9l-0.8,3c-0.4,1.3,0.5,3,1.9,3.3
		c1.4,0.3,2.9-0.4,3.3-1.9l2.2-8.1l3.5-12.9l0.8-3c0.4-1.4-0.5-2.9-1.9-3.3c-6.3-1.7-13-1.7-19.3,0c-6.1,1.6-11.8,4.8-16.3,9.2
		c-4.7,4.5-8.1,10.2-9.9,16.5c-1.8,6.3-1.9,13-0.4,19.4c1.5,6.1,4.6,11.8,8.9,16.4c4.4,4.7,10.1,8.3,16.2,10.2
		c6.3,2,13,2.2,19.4,0.8c6.1-1.4,11.9-4.4,16.6-8.6c4.8-4.3,8.4-9.9,10.5-16c2.4-7.2,2.6-15.3,0.3-22.6c-0.6-1.8-1.3-3.6-2.1-5.3
		c-0.6-1.3-2.5-1.7-3.6-1C70.5,368,70.2,369.4,70.8,370.8L70.8,370.8z"/>
	<path class="st18" d="M49.6,383.8c0.7-0.4,1.6-0.5,2.5-0.3c0.5,0.1,1,0.4,1.3,0.7c-0.1-4.3-2.4-8.5-6.4-10.4l0,0
		c-4.5-2.2-9.7-1.5-13.4,1.9l0,0c-3.4,3.1-4.7,8.3-3,12.6l0,0c1.8,4.5,6,7.7,10.9,7.7h0c4.3,0.1,8.2-2.3,10.3-5.9
		c-0.5,0.1-1,0.1-1.5,0l0,0c-0.9-0.2-1.6-0.8-2-1.5c-0.1,0.1-0.1,0.2-0.2,0.3c0,0,0,0,0,0c0,0,0,0,0,0c0,0,0,0,0,0c0,0,0,0,0,0
		c0,0,0,0,0,0c0,0,0,0,0,0c0,0,0,0,0,0l0,0c0,0,0,0,0,0c0,0,0,0,0,0c0,0,0,0,0,0l0,0c0,0,0,0,0,0l0,0c0,0,0,0,0,0c0,0,0,0,0,0
		c0,0,0,0,0,0c0,0,0,0,0,0c0,0,0,0,0,0c0,0,0,0,0,0c0,0,0,0,0,0c0,0,0,0,0,0c-0.3,0.3-0.5,0.6-0.8,0.8c0,0-0.1,0.1-0.1,0.1
		c-0.1,0.1-0.1,0.1-0.1,0.1c-0.1,0.1-0.2,0.1-0.2,0.2c0,0,0,0,0,0c0,0,0,0,0,0c0,0,0,0,0,0c0,0-0.1,0-0.1,0.1c0,0,0,0-0.1,0
		c0,0,0,0,0,0c-0.4,0.2-0.7,0.4-1.1,0.6c0,0,0,0,0,0c0,0,0,0,0,0c0,0,0,0,0,0c0,0,0,0,0,0c0,0,0,0,0,0c0,0,0,0,0,0c0,0,0,0,0,0l0,0
		c0,0,0,0-0.1,0c0,0,0,0-0.1,0c0,0,0,0-0.1,0l0,0c0,0,0,0,0,0c0,0,0,0,0,0c0,0,0,0,0,0c0,0,0,0,0,0c0,0,0,0,0,0c0,0,0,0,0,0
		c0,0,0,0,0,0c0,0,0,0,0,0c0,0,0,0,0,0c-0.1,0-0.3,0.1-0.4,0.1c-0.2,0.1-0.4,0.1-0.6,0.2l0,0l0,0l-0.1,0c-0.1,0-0.1,0.1-0.2,0.1
		c-0.1,0-0.2,0.1-0.3,0.1c-0.2,0-0.3,0-0.5,0c-0.1,0-0.3,0-0.4,0c-0.1,0-0.2,0-0.2,0l0,0h0c-0.2,0-0.4,0-0.6,0c0,0,0,0,0,0
		c0,0-0.1,0-0.1,0c0,0-0.1,0-0.1,0c0,0-0.1,0-0.1,0c0,0-0.1,0-0.1,0c0,0-0.1,0-0.1,0c0,0-0.1,0-0.1,0c0,0,0,0,0,0c0,0,0,0,0,0
		c0,0,0,0-0.1,0c0,0,0,0,0,0c-0.3-0.1-0.7-0.1-1-0.2l0,0l0,0c-0.1,0-0.1,0-0.2-0.1c-0.1,0-0.1,0-0.1,0l0,0c0,0-0.1,0-0.1,0l0,0
		c0,0,0,0,0,0c0,0,0,0,0,0c0,0,0,0,0,0c0,0-0.1,0-0.1-0.1l0,0l-0.1-0.1l-0.1,0l0,0l0,0l0,0l0,0h0l0,0l0,0l0,0l0,0
		c-0.1,0-0.1-0.1-0.2-0.1l0,0l0,0c-0.4-0.2-0.8-0.4-1.2-0.7c0,0-0.1,0-0.1-0.1c-0.1,0-0.1-0.1-0.2-0.1c-0.1,0-0.1-0.1-0.2-0.1
		c0,0,0,0,0,0l0,0c0,0,0,0,0,0c0,0,0,0,0,0c0,0,0,0,0-0.1l0,0c0,0,0,0,0,0c0,0-0.1-0.1-0.1-0.1c0,0,0,0-0.1-0.1c0,0,0,0,0,0l0,0l0,0
		c-0.2-0.2-0.3-0.3-0.5-0.5c0,0-0.1-0.1-0.1-0.1c0,0,0,0-0.1-0.1c0,0,0,0,0,0c0,0-0.1-0.1-0.1-0.1c0,0-0.1-0.1-0.1-0.1
		c0,0-0.1-0.1-0.1-0.1l0,0l0,0l0,0c0,0,0,0,0,0c0,0,0,0,0,0c0,0,0,0,0-0.1c0,0,0,0,0-0.1c0,0,0,0,0,0c-0.1-0.2-0.2-0.4-0.4-0.6v0
		c-0.1-0.2-0.2-0.4-0.3-0.6l0,0l0,0c0,0,0,0,0,0c-0.1-0.1-0.1-0.1-0.1-0.1v0c0,0,0,0,0-0.1c0,0,0,0,0-0.1c0,0,0,0,0-0.1
		c0,0,0-0.1,0-0.1c0,0,0-0.1,0-0.1c0,0,0-0.1,0-0.1c0,0,0-0.1,0-0.1c0,0,0,0,0,0l0,0h0c-0.1-0.3-0.2-0.6-0.2-0.8l0,0l0,0
		c0-0.1,0-0.2-0.1-0.3c0,0,0,0,0,0c0,0,0-0.1,0-0.1c0-0.1,0-0.1,0-0.1c0,0,0,0,0-0.1c0,0,0-0.1,0-0.1c0,0,0-0.1,0-0.1c0,0,0,0,0-0.1
		c0,0,0-0.1,0-0.1c0,0,0,0,0,0c0-0.4,0-0.9,0-1.3l0,0c0,0,0-0.1,0-0.1c0,0,0,0,0,0c0-0.1,0-0.1,0-0.1c0,0,0-0.1,0-0.1c0,0,0,0,0,0
		c0,0,0,0,0,0c0,0,0,0,0,0c0,0,0-0.1,0-0.1c0,0,0,0,0-0.1c0,0,0-0.1,0-0.1c0,0,0-0.1,0-0.1c0,0,0,0,0,0c0,0,0,0,0,0l0,0l0,0
		c0.1-0.4,0.2-0.8,0.3-1.2c0,0,0,0,0,0c0,0,0,0,0-0.1c0,0,0,0,0,0c0,0,0,0,0,0c0,0,0,0,0,0l0,0c0,0,0,0,0,0c0,0,0,0,0-0.1
		c0,0,0,0,0-0.1c0,0,0-0.1,0-0.1c0,0,0,0,0-0.1c0,0,0,0,0,0c0,0,0,0,0,0c0,0,0,0,0,0c0,0,0,0,0,0c0,0,0,0,0,0c0,0,0,0,0,0
		c0.1-0.1,0.1-0.3,0.2-0.4c0,0,0,0,0,0l0.3,0.2c0,0,0.1,0,0.1,0c0,0,0.1,0,0.1,0c0,0,0.1,0,0.1,0.1c0,0,0,0,0,0c0,0,0-0.1,0-0.1
		c0,0,0,0,0-0.1c0,0-0.1,0-0.1-0.1c-0.1-0.1-0.2-0.2-0.2-0.3c-0.1-0.2,0-0.3,0-0.4c0-0.1,0-0.1,0-0.1c0,0,0-0.1,0-0.1
		c0,0,0.1-0.1,0.1-0.1c0,0,0,0,0.1-0.1c0,0,0.1-0.1,0.1-0.1l0-0.1l0,0l0,0l0,0l0,0l0,0l0,0l0,0l0.1-0.1l0,0c0,0,0,0,0.1-0.1
		c0.1,0,0.1-0.1,0.2-0.1l0.4-0.1l0,0l0.1,0c0-0.1,0-0.2,0-0.2c0-0.2,0.1-0.3,0.1-0.4c0,0,0,0,0,0c0,0,0,0,0,0c0,0,0.1-0.1,0.1-0.1
		c0,0,0.1-0.1,0.1-0.1c0,0,0,0,0,0c0,0,0,0,0,0c0,0,0,0,0,0c0,0,0,0,0.1,0c0,0,0,0,0.1,0c0,0,0,0,0.1-0.1c0,0,0,0,0.1,0c0,0,0,0,0,0
		c0,0,0,0,0,0c0,0,0.1,0,0.1,0c0,0,0,0,0,0c0,0,0.1,0,0.2,0c0,0,0.1,0,0.1,0l-0.1,0.3c0.1,0,0.1,0.1,0.2,0.2c0,0,0,0,0,0.1
		c0.2-0.1,0.4-0.2,0.6-0.4c0,0,0,0,0,0c-0.1-0.1-0.1-0.2-0.1-0.3l-0.1,0l0,0l-0.1,0c0,0,0-0.1,0-0.1c0,0,0,0,0,0
		c0.1-0.1,0.1-0.2,0.2-0.2c0,0,0,0,0.1-0.1c0,0,0,0,0,0c0,0,0,0,0,0c0,0,0.1,0,0.1-0.1c0,0,0.1,0,0.1,0c0,0,0,0,0,0c0,0,0.1,0,0.1,0
		c0,0,0,0,0,0c0,0,0,0,0,0c0,0,0,0,0,0c0,0,0,0,0,0c0,0,0.1,0,0.1,0c0,0,0,0,0,0c0,0,0,0,0,0l0,0c0,0,0.1,0,0.1-0.1c0,0,0.2,0,0.3,0
		c0.1,0,0.2,0.1,0.4,0.3c0,0,0,0.1,0.1,0.1c0,0,0-0.1,0-0.1c0-0.2,0.1-0.4,0.2-0.4h0l0.2,0.2 M49.6,383.8l-9.5-7 M49.6,383.8
		C49.6,383.8,49.6,383.8,49.6,383.8L49.6,383.8L49.6,383.8c0-0.1,0-0.2,0-0.2c0,0,0,0,0,0 M40.1,376.8c0-0.1,0-0.1,0.1-0.1
		c0,0,0-0.1,0.1-0.1c0,0,0,0,0,0c0,0,0.1-0.1,0.1-0.1c0.1-0.1,0.1-0.1,0.1-0.1l0,0c0,0,0,0,0,0c0,0,0,0,0,0l0.2,0.7
		c-0.1,0-0.2,0-0.2,0.1 M40.1,376.8c0,0.1-0.1,0.3,0,0.4c0.1,0,0.2,0,0.3-0.1c0,0,0.1,0,0.1,0c0,0,0,0,0.1,0c0.1,0,0.1,0,0.2,0l0,0
		c-0.1,0-0.2,0-0.2,0c0,0,0,0,0,0 M40.5,377.2l-0.1-0.1L40.5,377.2z"/>
</g>
</svg>
