<?xml version="1.0" encoding="utf-8"?>
<!-- Generator: Adobe Illustrator 25.2.1, SVG Export Plug-In . SVG Version: 6.00 Build 0)  -->
<svg version="1.1" id="Layer_1" xmlns="http://www.w3.org/2000/svg" xmlns:xlink="http://www.w3.org/1999/xlink" x="0px" y="0px"
	 width="497.6px" height="509px" viewBox="0 0 497.6 509" style="enable-background:new 0 0 497.6 509;" xml:space="preserve">
<style type="text/css">
	.st0{fill:#407BFF;}
	.st1{opacity:0.9;fill:#E3EBFA;enable-background:new    ;}
	.st2{fill:#F5F5F5;}
	.st3{fill:#263238;}
	.st4{opacity:0.7;fill:#263238;enable-background:new    ;}
	.st5{opacity:0.6;fill:#407BFF;enable-background:new    ;}
	.st6{fill:#FFFFFF;}
	.st7{opacity:0.7;fill:#407BFF;enable-background:new    ;}
	.st8{fill:#FFB573;}
	.st9{opacity:0.2;enable-background:new    ;}
	.st10{fill:#0D51D9;}
	.st11{fill:#ED893E;}
	.st12{fill:#E0E0E0;}
	.st13{fill:#BACCD1;stroke:#FFFFFF;stroke-width:0.8;}
</style>
<g>
	<path class="st0" d="M322.5,307.4c-19-28.4-26.5-54.1-67.4-61.8c-27.6-5.2-61.4,0.9-78.1,21.3c-30.3,37-33.7,129.4,31.6,144.4
		c31.9,7.3,59.3-1.3,91.6,11.7s60.5,22.9,90.5-1.8c19.2-15.8,29.2-45.3,11.3-65.4C380.4,331.6,343.9,339.4,322.5,307.4z"/>
	<path class="st1" d="M322.5,307.4c-19-28.4-26.5-54.1-67.4-61.8c-27.6-5.2-61.4,0.9-78.1,21.3c-30.3,37-33.7,129.4,31.6,144.4
		c31.9,7.3,59.3-1.3,91.6,11.7s60.5,22.9,90.5-1.8c19.2-15.8,29.2-45.3,11.3-65.4C380.4,331.6,343.9,339.4,322.5,307.4z"/>
	<path class="st2" d="M288.4,506.5c77,0,139.4-3.6,139.4-8.1c0-4.5-62.4-8.1-139.4-8.1S149,493.9,149,498.4
		C149,502.8,211.4,506.5,288.4,506.5z"/>
	<path class="st0" d="M170.9,487.7v-1.1h-6.5c-0.1,0-0.3,0.1-0.4,0.2c-0.1,0.1-0.2,0.2-0.2,0.4c0,0.1,0.1,0.3,0.2,0.4
		c0.1,0.1,0.2,0.2,0.4,0.2L170.9,487.7z"/>
	<path class="st0" d="M170.9,492.4v-1.1h-6.5c-0.1,0-0.3,0.1-0.4,0.2c-0.1,0.1-0.2,0.2-0.2,0.4c0,0.1,0.1,0.3,0.2,0.4
		c0.1,0.1,0.2,0.2,0.4,0.2H170.9z"/>
	<path class="st3" d="M168.6,484c-0.1,0-0.2,0-0.4,0.1c-0.1,0-0.2,0.1-0.3,0.2c-0.1,0.1-0.2,0.2-0.2,0.3c0,0.1-0.1,0.2-0.1,0.4v9.5
		c0,0.1,0,0.2,0.1,0.4c0,0.1,0.1,0.2,0.2,0.3s0.2,0.2,0.3,0.2c0.1,0,0.2,0.1,0.4,0.1c0.1,0,0.2,0,0.3-0.1c0.1,0,0.2-0.1,0.3-0.2
		c0.1-0.1,0.2-0.2,0.2-0.3c0-0.1,0.1-0.2,0.1-0.3v-9.5c0-0.1,0-0.2-0.1-0.3c0-0.1-0.1-0.2-0.2-0.3c-0.1-0.1-0.2-0.2-0.3-0.2
		C168.8,484,168.7,484,168.6,484z"/>
	<path class="st3" d="M171.1,485.3h-2.6v8.7h2.6c1.1,0,2.2-0.5,3.1-1.3c0.8-0.8,1.3-1.9,1.3-3c0-0.6-0.1-1.1-0.3-1.7
		c-0.2-0.5-0.5-1-0.9-1.4c-0.4-0.4-0.9-0.7-1.4-0.9C172.3,485.4,171.7,485.3,171.1,485.3z"/>
	<path class="st3" d="M191.4,495.6c-1.9,0-3.7-0.2-5.6-0.4l-3.2-0.4c-0.5,0-1,0.1-1.5,0.1c-0.7,0.1-1.5,0.2-2.2,0.3
		c-1.4,0.3-2.8,0.4-4.2,0.4c-0.3,0-0.6,0-0.9-0.2c-0.2-0.1-0.3-0.2-0.4-0.3c-0.1-0.2-0.2-0.3-0.2-0.5s0.1-0.4,0.2-0.5
		c0.1-0.2,0.2-0.3,0.4-0.3c0.3-0.1,0.5-0.2,0.8-0.2c1.6-0.1,3.2,0,4.8,0.2l3.2,0.4c1.3-0.1,2.6,0,3.8,0c1.6,0.1,3.3,0.1,4.9-0.1
		c1.4-0.1,2.5-0.6,2.5-0.8c-0.3-0.4-1.1-0.5-2.7-0.7c-1.2-0.2-2.7-0.2-4.4-0.2c-1.3,0-2.6-0.1-4-0.2c-2.7-0.2-6.2-0.6-9.2-2.4
		c-0.1,0-0.1-0.1-0.1-0.2c0-0.1,0-0.2,0-0.2c0-0.1,0.1-0.1,0.2-0.1c0.1,0,0.2,0,0.2,0c2.9,1.7,6.3,2.1,8.9,2.3
		c1.4,0.1,2.7,0.1,4,0.2c1.6,0,3.2,0.1,4.4,0.2c0.7,0.1,1.4,0.2,2.1,0.3l-0.1-0.1c-0.2-0.3-0.5-0.6-0.7-1c-0.3-0.4-0.6-0.9-0.7-1.4
		c-0.1-0.3-0.1-0.6,0-0.9c0.1-0.3,0.2-0.6,0.4-0.8c0.5-0.4,1.1-0.7,1.7-0.7c1.5-0.1,3,0,4.5,0.3c0,0,0.1,0,0.1,0c0,0,0.1,0,0.1,0.1
		c0,0,0,0.1,0.1,0.1c0,0,0,0.1,0,0.1c0,0,0,0.1,0,0.1c0,0,0,0.1-0.1,0.1c0,0-0.1,0-0.1,0.1c0,0-0.1,0-0.1,0
		c-1.4-0.3-2.9-0.4-4.3-0.3c-0.5,0-0.9,0.2-1.3,0.5c-0.1,0.2-0.2,0.4-0.2,0.6c0,0.2,0,0.4,0,0.6c0.1,0.5,0.3,0.9,0.6,1.3
		c0.2,0.3,0.4,0.6,0.7,0.9c0.2,0.3,0.3,0.4,0.4,0.6l0.1,0.1c0.4,0.5,0.7,1,0.7,1.7c-0.2,1.4-2.2,1.4-3.1,1.4H191.4z M188.5,494.8
		c1.1,0.1,2.2,0.2,3.4,0.1c0.8,0,2.4,0,2.5-0.9c0-0.1,0-0.2,0-0.3c-0.5,0.6-1.9,0.9-2.9,0.9S189.5,494.8,188.5,494.8z M175.9,494.1
		c-0.4,0-0.7,0-1.1,0c-0.2,0-0.4,0.1-0.6,0.1c-0.1,0-0.1,0.1-0.2,0.1c0,0.1-0.1,0.1-0.1,0.2c0,0.1,0,0.1,0.1,0.2
		c0,0.1,0.1,0.1,0.2,0.1c0.2,0.1,0.4,0.1,0.6,0.1c1.4,0,2.7-0.1,4.1-0.4l0.9-0.1l-0.4,0C178.2,494.2,177.1,494.1,175.9,494.1
		L175.9,494.1z"/>
	<path d="M266.9,322h-64.6l-7.2,7.2v160.1l7.2,7.2h64.6l7.2-7.2V329.2L266.9,322z"/>
	<path class="st0" d="M183.6,336l-1.5,2l-3.7-5.3l2.8,10.3l1.5-2l3.7,5.3L183.6,336z"/>
	<path class="st0" d="M238.8,301.3l-2.2,1.1l-1-6.4l-2.1,10.5l2.2-1.1l1,6.4L238.8,301.3z"/>
	<path class="st0" d="M257.2,304.2l-3.3-0.8l4.7-7.6l-11.7,9.2l3.3,0.8l-4.7,7.6L257.2,304.2z"/>
	<path class="st4" d="M195.2,489.4l7.2,7.2H231l-7.2-7.2H195.2z"/>
	<path class="st4" d="M195.2,329.2l7.2-7.2H231l-7.2,7.2H195.2z"/>
	<path class="st3" d="M295.6,322H231c-2.8,2.8-4.4,4.4-7.2,7.2v160.1c2.8,2.8,4.4,4.4,7.2,7.2h64.6l7.2-7.2V329.2L295.6,322z"/>
	<path class="st5" d="M231.9,493.2l-4.7-4.8V330.2l4.7-4.8h62.7l4.7,4.8v158.3l-4.7,4.8H231.9z"/>
	<path class="st3" d="M299.4,333.9h-68.9v13.9h68.9V333.9z"/>
	<path class="st0" d="M295.5,337.6c0-0.2,0.1-0.3,0.2-0.4c0.1-0.1,0.3-0.2,0.4-0.2c0.2,0,0.3,0.1,0.4,0.2c0.1,0.1,0.2,0.3,0.2,0.4
		c0,0.2-0.1,0.3-0.2,0.4c-0.1,0.1-0.3,0.2-0.4,0.2c-0.2,0-0.3-0.1-0.4-0.2C295.6,337.9,295.5,337.7,295.5,337.6z"/>
	<path class="st6" d="M292.6,337.6c0-0.1,0-0.2,0.1-0.3c0.1-0.1,0.2-0.2,0.3-0.2s0.2-0.1,0.4,0s0.2,0.1,0.3,0.2
		c0.1,0.1,0.1,0.2,0.2,0.3c0,0.1,0,0.2,0,0.3s-0.1,0.2-0.2,0.3c-0.1,0.1-0.2,0.1-0.3,0.1c-0.2,0-0.3-0.1-0.4-0.2
		C292.7,337.9,292.6,337.7,292.6,337.6z"/>
	<path class="st0" d="M289.7,337.6c0-0.1,0-0.2,0.1-0.3c0.1-0.1,0.2-0.2,0.3-0.2c0.1,0,0.2-0.1,0.3,0c0.1,0,0.2,0.1,0.3,0.2
		c0.1,0.1,0.1,0.2,0.2,0.3c0,0.1,0,0.2,0,0.3c0,0.1-0.1,0.2-0.2,0.3c-0.1,0.1-0.2,0.1-0.3,0.1c-0.2,0-0.3-0.1-0.4-0.2
		C289.8,337.9,289.7,337.7,289.7,337.6z"/>
	<path class="st0" d="M299.4,339.5h-68.9v2.7h68.9V339.5z"/>
	<path d="M227.2,347.8h3.4v-13.9h-3.4V347.8z"/>
	<path class="st3" d="M299.4,349.1h-68.9V363h68.9V349.1z"/>
	<path class="st0" d="M296.1,353.4c0.3,0,0.6-0.3,0.6-0.6c0-0.3-0.3-0.6-0.6-0.6c-0.3,0-0.6,0.3-0.6,0.6
		C295.5,353.1,295.8,353.4,296.1,353.4z"/>
	<path class="st6" d="M293.2,353.4c0.3,0,0.6-0.3,0.6-0.6c0-0.3-0.3-0.6-0.6-0.6c-0.3,0-0.6,0.3-0.6,0.6
		C292.6,353.1,292.9,353.4,293.2,353.4z"/>
	<path class="st6" d="M290.3,353.4c0.3,0,0.6-0.3,0.6-0.6c0-0.3-0.3-0.6-0.6-0.6c-0.3,0-0.6,0.3-0.6,0.6
		C289.7,353.1,290,353.4,290.3,353.4z"/>
	<path class="st0" d="M299.4,354.7h-68.9v2.7h68.9V354.7z"/>
	<path d="M227.2,363h3.4v-13.9h-3.4V363z"/>
	<path class="st3" d="M299.4,364.3h-68.9v13.9h68.9V364.3z"/>
	<path class="st0" d="M296.1,368.6c0.3,0,0.6-0.3,0.6-0.6c0-0.3-0.3-0.6-0.6-0.6c-0.3,0-0.6,0.3-0.6,0.6
		C295.5,368.3,295.8,368.6,296.1,368.6z"/>
	<path class="st0" d="M293.2,368.6c0.3,0,0.6-0.3,0.6-0.6c0-0.3-0.3-0.6-0.6-0.6c-0.3,0-0.6,0.3-0.6,0.6
		C292.6,368.3,292.9,368.6,293.2,368.6z"/>
	<path class="st0" d="M290.3,368.6c0.3,0,0.6-0.3,0.6-0.6c0-0.3-0.3-0.6-0.6-0.6c-0.3,0-0.6,0.3-0.6,0.6
		C289.7,368.3,290,368.6,290.3,368.6z"/>
	<path class="st0" d="M299.4,369.9h-68.9v2.7h68.9V369.9z"/>
	<path d="M227.2,378.2h3.4v-13.9h-3.4V378.2z"/>
	<path class="st3" d="M299.4,379.6h-68.9v13.9h68.9V379.6z"/>
	<path class="st6" d="M296.1,383.8c0.3,0,0.6-0.3,0.6-0.6c0-0.3-0.3-0.6-0.6-0.6c-0.3,0-0.6,0.3-0.6,0.6
		C295.5,383.5,295.8,383.8,296.1,383.8z"/>
	<path class="st6" d="M293.2,383.8c0.3,0,0.6-0.3,0.6-0.6c0-0.3-0.3-0.6-0.6-0.6c-0.3,0-0.6,0.3-0.6,0.6
		C292.6,383.5,292.9,383.8,293.2,383.8z"/>
	<path class="st0" d="M290.3,383.8c0.3,0,0.6-0.3,0.6-0.6c0-0.3-0.3-0.6-0.6-0.6c-0.3,0-0.6,0.3-0.6,0.6
		C289.7,383.5,290,383.8,290.3,383.8z"/>
	<path class="st0" d="M299.4,385.1h-68.9v2.7h68.9V385.1z"/>
	<path d="M227.2,393.4h3.4v-13.9h-3.4V393.4z"/>
	<path class="st3" d="M299.4,394.8h-68.9v13.9h68.9V394.8z"/>
	<path class="st6" d="M295.5,398.4c0-0.2,0.1-0.3,0.2-0.4s0.3-0.2,0.4-0.2c0.2,0,0.3,0.1,0.4,0.2c0.1,0.1,0.2,0.3,0.2,0.4
		c0,0.2-0.1,0.3-0.2,0.4c-0.1,0.1-0.3,0.2-0.4,0.2c-0.2,0-0.3-0.1-0.4-0.2S295.5,398.6,295.5,398.4z"/>
	<path class="st6" d="M292.6,398.4c0-0.1,0-0.2,0.1-0.3c0.1-0.1,0.2-0.2,0.3-0.2c0.1,0,0.2-0.1,0.4,0c0.1,0,0.2,0.1,0.3,0.2
		c0.1,0.1,0.1,0.2,0.2,0.3c0,0.1,0,0.2,0,0.3c0,0.1-0.1,0.2-0.2,0.3c-0.1,0.1-0.2,0.1-0.3,0.1c-0.2,0-0.3-0.1-0.4-0.2
		C292.7,398.7,292.6,398.6,292.6,398.4z"/>
	<path class="st6" d="M289.7,398.4c0-0.1,0-0.2,0.1-0.3c0.1-0.1,0.2-0.2,0.3-0.2c0.1,0,0.2-0.1,0.3,0c0.1,0,0.2,0.1,0.3,0.2
		c0.1,0.1,0.1,0.2,0.2,0.3c0,0.1,0,0.2,0,0.3c0,0.1-0.1,0.2-0.2,0.3c-0.1,0.1-0.2,0.1-0.3,0.1c-0.2,0-0.3-0.1-0.4-0.2
		C289.8,398.7,289.7,398.6,289.7,398.4z"/>
	<path class="st0" d="M299.4,400.4h-68.9v2.7h68.9V400.4z"/>
	<path d="M227.2,408.6h3.4v-13.9h-3.4V408.6z"/>
	<path class="st3" d="M299.4,410h-68.9v13.9h68.9V410z"/>
	<path class="st0" d="M295.5,413.6c0-0.2,0.1-0.3,0.2-0.4c0.1-0.1,0.3-0.2,0.4-0.2c0.1,0,0.3,0.1,0.4,0.2c0.1,0.1,0.2,0.3,0.2,0.4
		c0,0.1-0.1,0.3-0.2,0.4c-0.1,0.1-0.2,0.2-0.4,0.2c-0.2,0-0.3-0.1-0.4-0.2C295.6,413.9,295.5,413.8,295.5,413.6z"/>
	<path class="st6" d="M292.6,413.6c0-0.1,0-0.2,0.1-0.3c0.1-0.1,0.2-0.2,0.3-0.2c0.1,0,0.2-0.1,0.4,0c0.1,0,0.2,0.1,0.3,0.2
		c0.1,0.1,0.1,0.2,0.2,0.3c0,0.1,0,0.2,0,0.3c0,0.1-0.1,0.2-0.2,0.3c-0.1,0.1-0.2,0.1-0.3,0.1c-0.1,0-0.2,0-0.2,0
		c-0.1,0-0.1-0.1-0.2-0.1c-0.1-0.1-0.1-0.1-0.1-0.2C292.6,413.8,292.6,413.7,292.6,413.6z"/>
	<path class="st0" d="M289.7,413.6c0-0.1,0-0.2,0.1-0.3c0.1-0.1,0.2-0.2,0.3-0.2c0.1,0,0.2-0.1,0.3,0c0.1,0,0.2,0.1,0.3,0.2
		c0.1,0.1,0.1,0.2,0.2,0.3c0,0.1,0,0.2,0,0.3c0,0.1-0.1,0.2-0.2,0.3c-0.1,0.1-0.2,0.1-0.3,0.1c-0.2,0-0.3-0.1-0.4-0.2
		S289.7,413.8,289.7,413.6z"/>
	<path class="st0" d="M299.4,415.6h-68.9v2.7h68.9V415.6z"/>
	<path d="M227.2,423.8h3.4V410h-3.4V423.8z"/>
	<path class="st3" d="M299.4,425.2h-68.9v13.9h68.9V425.2z"/>
	<path class="st6" d="M296.1,429.4c0.3,0,0.6-0.3,0.6-0.6c0-0.3-0.3-0.6-0.6-0.6c-0.3,0-0.6,0.3-0.6,0.6
		C295.5,429.2,295.8,429.4,296.1,429.4z"/>
	<path class="st6" d="M293.2,429.4c0.3,0,0.6-0.3,0.6-0.6c0-0.3-0.3-0.6-0.6-0.6c-0.3,0-0.6,0.3-0.6,0.6
		C292.6,429.2,292.9,429.4,293.2,429.4z"/>
	<path class="st0" d="M290.3,429.4c0.3,0,0.6-0.3,0.6-0.6c0-0.3-0.3-0.6-0.6-0.6c-0.3,0-0.6,0.3-0.6,0.6
		C289.7,429.2,290,429.4,290.3,429.4z"/>
	<path class="st0" d="M299.4,430.8h-68.9v2.7h68.9V430.8z"/>
	<path d="M227.2,439.1h3.4v-13.9h-3.4V439.1z"/>
	<path class="st3" d="M299.4,440.4h-68.9v13.9h68.9V440.4z"/>
	<path class="st6" d="M296.1,444.6c0.3,0,0.6-0.3,0.6-0.6c0-0.3-0.3-0.6-0.6-0.6c-0.3,0-0.6,0.3-0.6,0.6
		C295.5,444.4,295.8,444.6,296.1,444.6z"/>
	<path class="st0" d="M293.2,444.6c0.3,0,0.6-0.3,0.6-0.6c0-0.3-0.3-0.6-0.6-0.6c-0.3,0-0.6,0.3-0.6,0.6
		C292.6,444.4,292.9,444.6,293.2,444.6z"/>
	<path class="st6" d="M290.3,444.6c0.3,0,0.6-0.3,0.6-0.6c0-0.3-0.3-0.6-0.6-0.6c-0.3,0-0.6,0.3-0.6,0.6
		C289.7,444.4,290,444.6,290.3,444.6z"/>
	<path class="st0" d="M299.4,446h-68.9v2.7h68.9V446z"/>
	<path d="M227.2,454.3h3.4v-13.9h-3.4V454.3z"/>
	<path class="st3" d="M299.4,455.6h-68.9v13.9h68.9V455.6z"/>
	<path class="st0" d="M296.1,459.8c0.3,0,0.6-0.3,0.6-0.6c0-0.3-0.3-0.6-0.6-0.6c-0.3,0-0.6,0.3-0.6,0.6
		C295.5,459.6,295.8,459.8,296.1,459.8z"/>
	<path class="st6" d="M293.2,459.8c0.3,0,0.6-0.3,0.6-0.6c0-0.3-0.3-0.6-0.6-0.6c-0.3,0-0.6,0.3-0.6,0.6
		C292.6,459.6,292.9,459.8,293.2,459.8z"/>
	<path class="st0" d="M290.3,459.8c0.3,0,0.6-0.3,0.6-0.6c0-0.3-0.3-0.6-0.6-0.6c-0.3,0-0.6,0.3-0.6,0.6
		C289.7,459.6,290,459.8,290.3,459.8z"/>
	<path class="st0" d="M299.4,461.2h-68.9v2.7h68.9V461.2z"/>
	<path d="M227.2,469.5h3.4v-13.9h-3.4V469.5z"/>
	<path class="st3" d="M299.4,470.8h-68.9v13.9h68.9V470.8z"/>
	<path class="st0" d="M296.1,475.1c0.3,0,0.6-0.3,0.6-0.6c0-0.3-0.3-0.6-0.6-0.6c-0.3,0-0.6,0.3-0.6,0.6
		C295.5,474.8,295.8,475.1,296.1,475.1z"/>
	<path class="st0" d="M293.2,475.1c0.3,0,0.6-0.3,0.6-0.6c0-0.3-0.3-0.6-0.6-0.6c-0.3,0-0.6,0.3-0.6,0.6
		C292.6,474.8,292.9,475.1,293.2,475.1z"/>
	<path class="st6" d="M290.3,475.1c0.3,0,0.6-0.3,0.6-0.6c0-0.3-0.3-0.6-0.6-0.6c-0.3,0-0.6,0.3-0.6,0.6
		C289.7,474.8,290,475.1,290.3,475.1z"/>
	<path class="st0" d="M299.4,476.4h-68.9v2.7h68.9V476.4z"/>
	<path d="M227.2,484.7h3.4v-13.9h-3.4V484.7z"/>
	<path class="st7" d="M231.9,493.2l-4.7-4.8V330.2l4.7-4.8h37.2l4.7,4.8v158.3l-4.7,4.8H231.9z"/>
	<path class="st0" d="M269.1,493.2l4.7-4.8V330.2l-4.7-4.8h1.9l4.1,4.1v159.6l-4.1,4.1H269.1z"/>
	<path class="st8" d="M373.7,328.5c1.6,3.1,2.9,6.1,4.2,9.3c0.6,1.6,1.2,3.2,1.8,4.9c0.6,1.7,1.1,3.5,1.4,5.3l0.1,0.4l0,0.2l0,0.3
		c0,0.2,0,0.4,0.1,0.5v0.5c0,0.6,0,1.1-0.1,1.7c-0.1,1-0.3,1.9-0.5,2.8c-0.4,1.7-1,3.4-1.6,5c-1.2,3.2-2.6,6.3-4.3,9.3
		c-0.2,0.4-0.6,0.8-1,0.9c-0.5,0.2-0.9,0.2-1.4,0c-0.4-0.2-0.8-0.5-1-0.9c-0.2-0.4-0.3-0.9-0.2-1.4v0c0.7-3.2,1.5-6.4,2.2-9.5
		c0.3-1.6,0.6-3.1,0.8-4.6c0.1-0.7,0.1-1.4,0.1-2.1c0-0.3,0-0.5-0.1-0.8V350v-0.1l0-0.2l-0.1-0.3c-0.4-1.3-0.9-2.8-1.5-4.2
		c-0.6-1.5-1.2-2.9-1.9-4.4c-1.3-2.9-2.7-5.9-4.1-8.8v0c-0.5-0.9-0.5-2-0.2-3c0.3-1,1.1-1.8,2-2.3c0.9-0.5,2-0.5,3-0.2
		C372.4,326.8,373.2,327.6,373.7,328.5L373.7,328.5z"/>
	<path class="st8" d="M370.2,368.2l2.5-3.6l2.4-0.7c1.1,1.4,0.8,3.5,0.5,4.7l-0.7,4.5c-0.1,0.4-0.3,0.8-0.6,1.1s-0.7,0.5-1.1,0.5
		l-1.6,0.2c-0.3,0-0.6,0-0.8-0.1c-0.3-0.1-0.5-0.2-0.8-0.4c-0.2-0.2-0.4-0.4-0.5-0.6c-0.1-0.3-0.2-0.5-0.2-0.8l-0.1-0.8
		C369,370.8,369.4,369.4,370.2,368.2z"/>
	<path class="st3" d="M365.1,321c4.3,0.9,6.5,3.2,10.6,10.1c-2.4,3.5-8.2,6.6-8.2,6.6l-2.5-2.9C361.9,329,365.1,321,365.1,321"/>
	<path class="st9" d="M363.7,329c0,2,0.5,4,1.4,5.8l2.5,2.9c0,0,0.9-0.5,2.2-1.3C367.7,332.3,366.1,330.3,363.7,329z"/>
	<path class="st8" d="M345.2,327.7l-0.1,0.5l-0.1,0.3l-0.2,0.6c-0.1,0.4-0.2,0.8-0.4,1.2c-0.3,0.8-0.6,1.5-1,2.3
		c-0.8,1.5-1.7,2.9-2.9,4.1c-1.2,1.2-2.5,2.3-4,3.1c-1.4,0.8-3,1.4-4.5,1.8l-0.3,0.1c-0.9,0.2-1.8,0.1-2.6-0.4
		c-0.8-0.5-1.4-1.2-1.6-2.1c0-0.2-0.1-0.3-0.1-0.5c-0.1-1.4,0-2.9,0.3-4.3c0.3-1.3,0.6-2.5,1.1-3.7c0.9-2.3,1.9-4.5,3.1-6.5
		c1.2-2,2.5-4,3.8-5.9c1.4-1.9,2.8-3.7,4.4-5.4c0.3-0.4,0.8-0.6,1.3-0.6s1,0.1,1.4,0.4c0.4,0.3,0.7,0.7,0.8,1.2c0.1,0.5,0,1-0.2,1.4
		v0.1c-1.1,1.9-2.2,3.8-3.2,5.8c-1,1.9-2,3.9-2.8,5.9c-0.8,1.9-1.5,3.9-2.1,5.9c-0.5,1.7-0.7,3.4-0.5,5.2l-4.6-3
		c0.9-0.4,1.8-0.8,2.7-1.4c0.8-0.5,1.5-1.2,2.1-1.9c0.6-0.7,1.1-1.5,1.6-2.4c0.2-0.4,0.4-0.9,0.6-1.3c0.1-0.2,0.2-0.5,0.2-0.7
		l0.1-0.3l0-0.1c0,0,0-0.1,0,0c0.1-0.5,0.2-1,0.5-1.5c0.3-0.5,0.6-0.9,1-1.2c0.4-0.3,0.9-0.5,1.4-0.7c0.5-0.1,1-0.2,1.6-0.1
		c0.5,0.1,1,0.3,1.5,0.5c0.4,0.3,0.8,0.6,1.1,1.1c0.3,0.4,0.5,0.9,0.6,1.4C345.3,326.7,345.3,327.3,345.2,327.7L345.2,327.7z"/>
	<path class="st3" d="M347,327.2c0.4-2.7-1.4-5.9-1.4-5.9c-4.3,0.2-8.4,1.3-12.4,9.4c1,4.5,7,7.7,7,7.7l4.2-5.5
		C344.4,332.8,346.5,329.9,347,327.2z"/>
	<path class="st8" d="M341.3,310.7l1.2-1.3c0.5-0.6,1.2-1,1.9-1.2l1.1-0.4c0.3-0.1,0.6-0.1,0.9-0.1c0.3,0,0.6,0.1,0.9,0.3
		s0.5,0.4,0.7,0.6c0.2,0.3,0.3,0.6,0.4,0.9l0.3,1.5c0.1,0.5,0,1.1-0.3,1.6c-0.3,0.5-0.7,0.8-1.3,1l-1.7,0.5c-0.6,1-1.6,1.7-2.7,2.1
		c-1.1,0.3-2.3,0.3-3.4-0.2C339.3,313.9,340,312.1,341.3,310.7z"/>
	<path class="st8" d="M372.7,485.5h-6c0,0,0.3,4.4,0.3,7l5.3,0.6C371.8,490.3,372.7,485.5,372.7,485.5z"/>
	<path class="st10" d="M346.3,362.5c0,0,10.7,45.5,14.1,64c3.5,19.4,5.9,58.4,5.9,59.8c1.9-0.4,5-0.5,6.6,0c0,0,7.4-45.8,0.7-62.8
		c-2.5-32.2,0.7-50.5-5.8-61L346.3,362.5z"/>
	<path class="st9" d="M360,376.6c-1.8-7.2-7.7-6.5-11.6-5.2c2.4,10.4,6.4,27.9,9.3,41.8C361.9,403.2,362.4,386.3,360,376.6z"/>
	<path class="st8" d="M334.6,484.7c-0.5,7-6.2,14.4-6.2,14.4l8.7-2.2l3.7-5.4c0-2.1,0.3-4.1,0.8-6.1L334.6,484.7z"/>
	<path class="st10" d="M337.6,362.5c0,0,1.5,48.4,1.1,62.5c-0.6,19.6-4.7,61.2-4.7,61.2c3.1-0.3,5.8-0.4,7.5,0
		c0,0,12.9-33.7,11.4-61c3.2-25.3,14.1-48.6,7.4-62.7L337.6,362.5z"/>
	<path class="st8" d="M360.6,307.9c-0.8,3.7-1.8,10.4,0.7,12.8c-2.2,3.4-5.4,6-9.1,7.5c-4.8-3.1-2.3-7.5-2.3-7.5
		c4.1-1,4.1-4,3.5-6.9L360.6,307.9z"/>
	<path class="st0" d="M361.4,316.9c0,0-8.3-1.1-12.4,2.3c-0.1,0.8-0.4,1.6-1,2.3c4.5,1,9.1,1.2,13.6,0.7
		C362.6,320.3,361.4,316.9,361.4,316.9z"/>
	<path class="st3" d="M338.5,329.3c0.4,11.5-2.1,29-0.9,33.2c12.3,1.3,22,1,30.3,0c1.4-4.6-2-18.1,1.9-34.1c0.2-0.8,0.2-1.7,0.1-2.5
		c-0.2-0.8-0.5-1.6-1-2.3c-0.5-0.7-1.1-1.3-1.9-1.7c-0.7-0.4-1.6-0.7-2.4-0.8c-1.1-0.1-2.2-0.2-3.4-0.3c-3.8-0.3-7.6-0.3-11.4,0
		c-1.4,0.1-3,0.3-4.4,0.5C341.5,321.8,338.3,325.3,338.5,329.3z"/>
	<path class="st3" d="M347.1,301.7c-0.1,0.5-0.4,0.9-0.7,0.9c-0.3,0-0.5-0.4-0.5-0.9c0-0.5,0.3-0.9,0.7-0.9
		C346.9,300.8,347.1,301.2,347.1,301.7z"/>
	<path class="st3" d="M346.7,300.8l-1.2-0.4C345.6,300.4,346.1,301.3,346.7,300.8z"/>
	<path class="st3" d="M346.5,298.4c0,0-0.1,0-0.1,0c0,0-0.1-0.1-0.1-0.1c0-0.1-0.1-0.1,0-0.2c0-0.1,0.1-0.1,0.1-0.2
		c0.4-0.3,0.8-0.4,1.3-0.5c0.5-0.1,0.9,0,1.4,0.2c0,0,0.1,0,0.1,0.1c0,0,0,0.1,0.1,0.1c0,0,0,0.1,0,0.1c0,0,0,0.1,0,0.1
		c0,0.1-0.1,0.1-0.2,0.2c-0.1,0-0.2,0-0.2,0c-0.3-0.1-0.7-0.2-1.1-0.1c-0.4,0-0.7,0.2-1,0.4C346.6,298.4,346.5,298.4,346.5,298.4z"
		/>
	<path class="st11" d="M347,303.1c-0.5,1.1-1.2,2.1-2.1,3.1c0.2,0.2,0.5,0.3,0.8,0.4c0.3,0.1,0.6,0.1,0.9,0L347,303.1z"/>
	<path class="st8" d="M364,300.7c-0.9,6.1-1.2,8.7-4.6,11.7c-5,4.5-12.3,2.2-13.1-4c-0.8-5.6,0.9-14.7,7.1-16.7
		c1.3-0.5,2.8-0.6,4.2-0.3c1.4,0.3,2.7,0.9,3.8,1.8c1.1,0.9,1.9,2.1,2.4,3.4S364.2,299.3,364,300.7z"/>
	<path class="st3" d="M348.7,293.8c-1.2,2.4,1.2,6.9,2.8,8.8c-2.9,3.1-5.8,8.5-2,11.7c3.5,2.9,22.2,2.9,18.6-3.4
		c3.2-4-2.2-4.5,0.4-12.2c1.9-5.6-1.6-7.1-4.8-6.6C360.2,287.5,351.3,288.7,348.7,293.8z"/>
	<path class="st12" d="M350.1,296.3c0,0,5.8,4.7,12.5,5.5c3.6,0.4,5.4,0.4,5.6-0.2c0.2-0.5,0.5-2.4,0.5-2.4L350.1,296.3z"/>
	<path class="st10" d="M345.2,295.1c1.8,1.4,15,5.2,23.9,4.3c0.1-0.5-0.2-0.6-0.2-0.6s2.1-6.9-2.7-9.5c-2.2-3.6-9-3.4-11.9-2.4
		l-0.4,0.5c0,0-5.8,1.4-5.9,6.2C345.7,293.9,343.3,293.6,345.2,295.1z"/>
	<path class="st9" d="M353.9,287.5l0.4-0.5c3.1-0.2,6.2,0.8,8.6,2.9C360.7,288.5,357,287.2,353.9,287.5z"/>
	<path class="st8" d="M350.7,300.6c-1.3-0.2-2.5,1.7-2.9,3c-0.5,1.5,0,2.9,1.4,2.4c1.1-0.4,1.9-1.2,2.5-2.3
		C352.3,302.4,352,300.8,350.7,300.6z"/>
	<path class="st3" d="M368.8,488.5c3.7-0.6,3.6,1.3,3.8,3.3c0.2,1.2,0,2.5-0.6,3.6c-1.3,2.3-0.2,5.6-4.3,5.6c-4.1,0-4.5-1-3.4-3
		c1-2.1,1.8-4.3,2.2-6.5C366.8,490.3,367.2,488.8,368.8,488.5z"/>
	<path class="st3" d="M372.4,492.8c0,2.5,0,8.2,0,8.2h-0.7c0,0-0.6-6.1-0.9-7.7L372.4,492.8z"/>
	<path class="st3" d="M341.2,489.3c0.3,0.7,0.4,1.4,0.3,2.1c-0.2,2.6-0.7,9.5-0.7,9.5h-0.6c0.1-2.1,0.1-4.2-0.1-6.4
		c-0.2-1.7-1.1,1.3-2.3,3c-1.2,1.7-3.5,3.3-7.3,3.4c-4.5,0.1-6.4-0.1-5-1.2c1.3-1.1,4.4-1.9,4.4-1.9c2.4-1.1,4.4-2.9,5.7-5.1
		c1.1-1.9,2.8-3.3,4.8-4.2c0.2,0.1,0.4,0.1,0.5,0.3C341.1,488.9,341.2,489.1,341.2,489.3z"/>
</g>
<g>
	<path class="st13" d="M366.9,88.4l-0.2,0.3l0.3,0.2l69.8,40.3l0.3,0.2l0.2-0.3L465.8,80l0.2-0.3l-0.3-0.2l-69.9-40.3l-0.3-0.2
		l-0.2,0.3L366.9,88.4z M437.1,131.9l-72.4-41.8c-0.5-0.3-0.7-1-0.4-1.5l29.9-51.7c0.3-0.5,1-0.7,1.5-0.4l72.4,41.8
		c0.3,0.1,0.4,0.4,0.5,0.7c0.1,0.3,0,0.6-0.1,0.8l-29.9,51.7c-0.1,0.3-0.4,0.4-0.7,0.5C437.7,132.1,437.4,132.1,437.1,131.9z"/>
	<path class="st13" d="M391.8,120l-0.2,0.3l0.3,0.2l5.2,3l0.3,0.2l0.2-0.3l6-10.3l0.2-0.3l-0.3-0.2l-5.2-3l-0.3-0.2l-0.2,0.3
		L391.8,120z M397.3,126.2l-7.8-4.5c-0.5-0.3-0.7-1-0.4-1.5l7.5-12.9c0.3-0.5,1-0.7,1.5-0.4l7.8,4.5c0.3,0.1,0.4,0.4,0.5,0.7
		c0.1,0.3,0,0.6-0.1,0.8l-7.5,12.9c-0.1,0.3-0.4,0.4-0.7,0.5C397.9,126.4,397.6,126.3,397.3,126.2z"/>
	<path class="st13" d="M375.7,121l-0.2,0.3l0.3,0.2l28.5,16.4l0.3,0.2l0.2-0.3l3-5.2l0.2-0.3l-0.3-0.2l-28.5-16.4l-0.3-0.2l-0.2,0.3
		L375.7,121z M404.5,140.7l-31-17.9c-0.5-0.3-0.7-1-0.4-1.5l4.5-7.8c0.3-0.5,1-0.7,1.5-0.4l31,17.9c0.3,0.1,0.4,0.4,0.5,0.7
		c0.1,0.3,0,0.6-0.1,0.8l-4.5,7.8c-0.1,0.3-0.4,0.4-0.7,0.5C405,140.8,404.7,140.8,404.5,140.7z"/>
	<path class="st13" d="M366.9,88.4l-0.2,0.3l0.3,0.2l69.8,40.3l0.3,0.2l0.2-0.3l2.2-3.9l0.2-0.3l-0.3-0.2l-69.8-40.3l-0.3-0.2
		l-0.2,0.3L366.9,88.4z M437.1,131.9l-72.4-41.8c-0.5-0.3-0.7-1-0.4-1.5l3.7-6.5c0.3-0.5,1-0.7,1.5-0.4l72.4,41.8
		c0.3,0.1,0.4,0.4,0.5,0.7c0.1,0.3,0,0.6-0.1,0.8l-3.7,6.5c-0.1,0.3-0.4,0.4-0.7,0.5C437.7,132.1,437.4,132.1,437.1,131.9z"/>
</g>
</svg>
