<?xml version="1.0" encoding="utf-8"?>
<!-- Generator: Adobe Illustrator 25.2.1, SVG Export Plug-In . SVG Version: 6.00 Build 0)  -->
<svg version="1.1" id="Layer_1" xmlns="http://www.w3.org/2000/svg" xmlns:xlink="http://www.w3.org/1999/xlink" x="0px" y="0px"
	 width="497.6px" height="509px" viewBox="0 0 497.6 509" style="enable-background:new 0 0 497.6 509;" xml:space="preserve">
<style type="text/css">
	.st0{fill:#BECFD4;stroke:#FFFFFF;stroke-width:2;}
	.st1{fill:#BACCD1;stroke:#FFFFFF;stroke-width:3;}
	.st2{fill:#407BFF;}
	.st3{opacity:0.9;fill:#FFFFFF;enable-background:new    ;}
	.st4{opacity:0.1;enable-background:new    ;}
	.st5{opacity:0.2;enable-background:new    ;}
	.st6{fill:#FFFFFF;}
	.st7{opacity:0.3;enable-background:new    ;}
	.st8{opacity:0.8;fill:#407BFF;enable-background:new    ;}
	.st9{opacity:0.2;fill:#407BFF;enable-background:new    ;}
	.st10{opacity:0.7;fill:#FFFFFF;enable-background:new    ;}
	.st11{opacity:0.5;fill:#FFFFFF;enable-background:new    ;}
	.st12{fill:#FFC3BD;}
	.st13{fill:#263238;}
	.st14{fill:#ED847E;}
	.st15{opacity:0.5;enable-background:new    ;}
	.st16{fill:#BACCD1;}
</style>
<g>
	<path class="st2" d="M302.8,345.8c-35.8,14.8-62.3-31.1-91.9-38.5c-36.3-9.1-65.7,24.1-54.9,58.8c9.3,29.8,37.4,29.1,59.3,44.1
		c29.9,20.5,42.6,51.8,81.2,61.2c74.6,18.2,96.7-89.1,78.8-145.3c-6.2-19.4-12.5-35.5-36.4-28.4
		C317.2,304.1,317.5,339.7,302.8,345.8z"/>
	<path class="st3" d="M302.8,345.8c-35.8,14.8-62.3-31.1-91.9-38.5c-36.3-9.1-65.7,24.1-54.9,58.8c9.3,29.8,37.4,29.1,59.3,44.1
		c29.9,20.5,42.6,51.8,81.2,61.2c74.6,18.2,96.7-89.1,78.8-145.3c-6.2-19.4-12.5-35.5-36.4-28.4
		C317.2,304.1,317.5,339.7,302.8,345.8z"/>
	<path class="st2" d="M406.8,280.2h-128v127.4h128V280.2z"/>
	<path class="st4" d="M320.6,286.5h-41.8v24h41.8V286.5z"/>
	<path class="st5" d="M320.6,334.5h-41.8v24h41.8V334.5z"/>
	<path class="st4" d="M320.6,358.4h-41.8v24h41.8V358.4z"/>
	<path class="st6" d="M320.6,286.5h84.1v116.3c0,0.8-0.3,1.6-0.9,2.2c-0.6,0.6-1.4,0.9-2.2,0.9h-77.9c-0.8,0-1.6-0.3-2.2-0.9
		c-0.6-0.6-0.9-1.4-0.9-2.2V286.5z"/>
	<path class="st7" d="M406.8,280.2h-128v6.3h128V280.2z"/>
	<path class="st8" d="M283.8,284.6c0.7,0,1.3-0.6,1.3-1.3c0-0.7-0.6-1.3-1.3-1.3c-0.7,0-1.3,0.6-1.3,1.3
		C282.5,284,283.1,284.6,283.8,284.6z"/>
	<path class="st8" d="M289.7,284.6c0.7,0,1.3-0.6,1.3-1.3c0-0.7-0.6-1.3-1.3-1.3c-0.7,0-1.3,0.6-1.3,1.3
		C288.4,284,288.9,284.6,289.7,284.6z"/>
	<path class="st8" d="M295.5,284.6c0.7,0,1.3-0.6,1.3-1.3c0-0.7-0.6-1.3-1.3-1.3c-0.7,0-1.3,0.6-1.3,1.3
		C294.2,284,294.8,284.6,295.5,284.6z"/>
	<path class="st9" d="M378,298.5h-49c-1.1,0-1.9,0.9-1.9,1.9v38.5c0,1.1,0.9,1.9,1.9,1.9h49c1.1,0,1.9-0.9,1.9-1.9v-38.5
		C380,299.3,379.1,298.5,378,298.5z"/>
	<path class="st9" d="M398.2,295.1h-37.7c-0.8,0-1.5,0.7-1.5,1.5v29.6c0,0.8,0.7,1.5,1.5,1.5h37.7c0.8,0,1.5-0.7,1.5-1.5v-29.6
		C399.7,295.7,399,295.1,398.2,295.1z"/>
	<path class="st9" d="M377.1,354.5h-37.7c-0.8,0-1.5,0.7-1.5,1.5v29.6c0,0.8,0.7,1.5,1.5,1.5h37.7c0.8,0,1.5-0.7,1.5-1.5V356
		C378.6,355.2,377.9,354.5,377.1,354.5z"/>
	<path class="st10" d="M406.8,280.2h-128v127.4h128V280.2z"/>
	<path class="st2" d="M395.1,291.9H267v127.4h128V291.9z"/>
	<path class="st4" d="M308.8,298.3H267v24h41.8V298.3z"/>
	<path class="st5" d="M308.8,346.2H267v24h41.8V346.2z"/>
	<path class="st4" d="M308.8,370.2H267v24h41.8V370.2z"/>
	<path class="st6" d="M308.8,298.3H393v116.3c0,0.8-0.3,1.6-0.9,2.2c-0.6,0.6-1.4,0.9-2.2,0.9h-77.9c-0.8,0-1.6-0.3-2.2-0.9
		c-0.6-0.6-0.9-1.4-0.9-2.2L308.8,298.3L308.8,298.3z"/>
	<path class="st7" d="M395.1,291.9H267v6.3h128V291.9z"/>
	<path class="st8" d="M272,296.4c0.7,0,1.3-0.6,1.3-1.3c0-0.7-0.6-1.3-1.3-1.3c-0.7,0-1.3,0.6-1.3,1.3
		C270.7,295.8,271.3,296.4,272,296.4z"/>
	<path class="st8" d="M277.9,296.4c0.7,0,1.3-0.6,1.3-1.3c0-0.7-0.6-1.3-1.3-1.3c-0.7,0-1.3,0.6-1.3,1.3
		C276.6,295.8,277.2,296.4,277.9,296.4z"/>
	<path class="st8" d="M283.8,296.4c0.7,0,1.3-0.6,1.3-1.3c0-0.7-0.6-1.3-1.3-1.3c-0.7,0-1.3,0.6-1.3,1.3
		C282.5,295.8,283.1,296.4,283.8,296.4z"/>
	<path class="st9" d="M366.3,310.2h-49c-1.1,0-1.9,0.9-1.9,1.9v38.5c0,1.1,0.9,1.9,1.9,1.9h49c1.1,0,1.9-0.9,1.9-1.9v-38.5
		C368.2,311.1,367.4,310.2,366.3,310.2z"/>
	<path class="st9" d="M387,343.7h-37.7c-0.8,0-1.5,0.7-1.5,1.5v29.6c0,0.8,0.7,1.5,1.5,1.5H387c0.8,0,1.5-0.7,1.5-1.5v-29.6
		C388.5,344.4,387.9,343.7,387,343.7z"/>
	<path class="st9" d="M365.4,366.3h-37.7c-0.8,0-1.5,0.7-1.5,1.5v29.6c0,0.8,0.7,1.5,1.5,1.5h37.7c0.8,0,1.5-0.7,1.5-1.5v-29.6
		C366.8,367,366.2,366.3,365.4,366.3z"/>
	<path class="st11" d="M395.1,291.9H267v127.4h128V291.9z"/>
	<path class="st2" d="M383.3,303.7h-128v127.4h128V303.7z"/>
	<path class="st4" d="M297.1,310h-41.8v24h41.8V310z"/>
	<path class="st5" d="M297.1,358h-41.8v24h41.8V358z"/>
	<path class="st4" d="M297.1,381.9h-41.8v24h41.8V381.9z"/>
	<path class="st6" d="M297.1,310h84.1v116.3c0,0.8-0.3,1.6-0.9,2.2s-1.4,0.9-2.2,0.9h-77.9c-0.8,0-1.6-0.3-2.2-0.9
		c-0.6-0.6-0.9-1.4-0.9-2.2V310z"/>
	<path class="st7" d="M383.3,303.7h-128v6.3h128V303.7z"/>
	<path class="st8" d="M260.3,308.1c0.7,0,1.3-0.6,1.3-1.3c0-0.7-0.6-1.3-1.3-1.3c-0.7,0-1.3,0.6-1.3,1.3
		C259,307.6,259.6,308.1,260.3,308.1z"/>
	<path class="st8" d="M267.4,306.8c0,0.3-0.1,0.5-0.2,0.7c-0.1,0.2-0.3,0.4-0.6,0.5c-0.2,0.1-0.5,0.1-0.7,0.1
		c-0.3,0-0.5-0.2-0.7-0.4c-0.2-0.2-0.3-0.4-0.4-0.7c-0.1-0.3,0-0.5,0.1-0.7c0.1-0.2,0.3-0.4,0.5-0.6c0.2-0.1,0.5-0.2,0.7-0.2
		c0.2,0,0.3,0,0.5,0.1c0.2,0.1,0.3,0.2,0.4,0.3c0.1,0.1,0.2,0.3,0.3,0.4C267.4,306.5,267.4,306.7,267.4,306.8z"/>
	<path class="st8" d="M272,308.1c0.7,0,1.3-0.6,1.3-1.3c0-0.7-0.6-1.3-1.3-1.3c-0.7,0-1.3,0.6-1.3,1.3
		C270.7,307.6,271.3,308.1,272,308.1z"/>
	<path class="st9" d="M324.8,300.5h-73.7c-1.6,0-2.9,1.3-2.9,2.9v57.9c0,1.6,1.3,2.9,2.9,2.9h73.7c1.6,0,2.9-1.3,2.9-2.9v-57.9
		C327.7,301.8,326.4,300.5,324.8,300.5z"/>
	<path class="st9" d="M364.6,331.7H308c-1.2,0-2.2,1-2.2,2.2v44.5c0,1.2,1,2.2,2.2,2.2h56.6c1.2,0,2.2-1,2.2-2.2v-44.5
		C366.8,332.7,365.8,331.7,364.6,331.7z"/>
	<path class="st9" d="M385,392.1h-56.6c-1.2,0-2.2,1-2.2,2.2v44.5c0,1.2,1,2.2,2.2,2.2H385c1.2,0,2.2-1,2.2-2.2v-44.5
		C387.3,393.1,386.3,392.1,385,392.1z"/>
	<path class="st12" d="M217.6,337.8l-4.9,10.3c-1.6,3.4-3.2,6.9-4.6,10.3l-0.5,1.3c-0.1,0.2-0.1,0.2-0.1,0.4
		c-0.1,0.2-0.1,0.3-0.1,0.5c-0.2,0.8-0.3,1.6-0.4,2.5c-0.2,1.8-0.3,3.6-0.4,5.5c-0.1,3.8-0.2,7.6-0.2,11.4l-3.7,0.4
		c-0.8-3.9-1.5-7.8-1.8-11.7c-0.2-2-0.3-4.1-0.3-6.1c0-1.1,0.1-2.2,0.2-3.3c0-0.3,0.1-0.6,0.2-0.9c0.1-0.3,0.2-0.7,0.3-1l0.5-1.4
		c1.3-3.8,2.7-7.5,4.3-11c1.6-3.6,3.2-7.1,5-10.6L217.6,337.8z"/>
	<path class="st12" d="M206.2,378.9l1.7,3.2l-5.5,1.5c0,0-1.1-2.6,0.2-4.7L206.2,378.9z"/>
	<path class="st12" d="M210.1,386.9l-5.1,0.4l-2.6-3.5l5.5-1.5L210.1,386.9z"/>
	<path class="st13" d="M234.2,311c0.1,0.4,0.4,0.7,0.6,0.6c0.3-0.1,0.4-0.4,0.3-0.8c-0.1-0.4-0.4-0.7-0.6-0.6
		C234.3,310.3,234.1,310.6,234.2,311z"/>
	<path class="st14" d="M234.5,311.7c0.7,1.1,1.6,2.1,2.6,3c-0.2,0.2-0.5,0.4-0.8,0.6c-0.3,0.1-0.6,0.2-1,0.2L234.5,311.7z"/>
	<path class="st13" d="M232.3,309.1c0.1,0,0.1,0,0.2-0.1c0.2-0.2,0.4-0.4,0.7-0.5c0.3-0.1,0.6-0.2,0.9-0.1c0.1,0,0.1,0,0.2,0
		c0.1,0,0.1-0.1,0.1-0.2c0-0.1,0-0.1,0-0.2c0-0.1-0.1-0.1-0.2-0.1c-0.4,0-0.8,0-1.1,0.1c-0.4,0.1-0.7,0.4-0.9,0.6
		c0,0-0.1,0.1-0.1,0.1c0,0,0,0.1,0,0.1c0,0,0,0.1,0.1,0.1C232.2,309.1,232.2,309.1,232.3,309.1L232.3,309.1z"/>
	<path class="st12" d="M223,316.6c0.7,3.6,1.4,10.3-1.1,12.7c0,0,1,3.7,7.8,3.7c7.5,0,3.6-3.7,3.6-3.7c-4.1-1-4-4-3.3-6.8L223,316.6
		z"/>
	<path class="st13" d="M220.2,330.6c-0.6-1.1-1.2-2.3,0.1-2.6c1.5-0.4,9.6-0.8,12.5-0.1c2.8,0.8,2,2.9,2,2.9L220.2,330.6z"/>
	<path class="st2" d="M199.2,495.9c0.4,0.1,0.9,0,1.2-0.2c0.1-0.1,0.1-0.2,0.1-0.3c0-0.1,0-0.2-0.1-0.3c0-0.1-0.1-0.1-0.1-0.2
		c-0.1-0.1-0.1-0.1-0.2-0.1c-0.7-0.3-2.2,0.5-2.2,0.6c0,0,0,0,0,0c0,0,0,0,0,0.1c0,0,0,0,0,0.1c0,0,0,0,0.1,0
		C198.3,495.8,198.7,495.9,199.2,495.9z M199.9,495.1l0.1,0c0,0,0.1,0,0.1,0.1c0,0,0.1,0.1,0.1,0.1c0.1,0.2,0,0.3,0,0.3
		c-0.2,0.3-1.3,0.1-2-0.1C198.8,495.3,199.3,495.1,199.9,495.1z"/>
	<path class="st2" d="M197.9,495.7C197.9,495.7,198,495.7,197.9,495.7c0.6-0.2,1.7-1.2,1.7-1.8c0-0.1,0-0.2-0.1-0.2
		c-0.1-0.1-0.1-0.1-0.2-0.1c-0.1,0-0.2,0-0.3,0c-0.1,0-0.2,0.1-0.2,0.1c-0.6,0.4-0.9,1.8-0.9,1.9
		C197.8,495.6,197.8,495.6,197.9,495.7C197.8,495.6,197.8,495.7,197.9,495.7C197.9,495.7,197.9,495.7,197.9,495.7
		C197.9,495.7,197.9,495.7,197.9,495.7z M199.1,493.9L199.1,493.9c0.2,0,0.2,0.1,0.2,0.1c0,0.3-0.8,1-1.4,1.3c0.1-0.6,0.4-1,0.9-1.4
		c0,0,0.1,0,0.1-0.1C199,493.9,199,493.9,199.1,493.9L199.1,493.9z"/>
	<path class="st2" d="M235.1,500.7c0.6,0,1.3-0.1,1.5-0.4c0.1-0.1,0.1-0.2,0.1-0.3c0-0.1,0-0.2-0.1-0.3c-0.1-0.1-0.2-0.2-0.4-0.3
		c-0.8-0.2-2.6,0.8-2.6,0.8c0,0,0,0-0.1,0c0,0,0,0,0,0.1c0,0,0,0,0,0.1c0,0,0,0,0.1,0C234.1,500.6,234.6,500.7,235.1,500.7z
		 M235.9,499.7c0.1,0,0.2,0,0.2,0c0,0,0.1,0,0.1,0.1c0,0,0.1,0.1,0.1,0.1c0.1,0.1,0.1,0.2,0,0.3c-0.2,0.3-1.5,0.3-2.4,0.2
		C234.6,500,235.2,499.8,235.9,499.7L235.9,499.7z"/>
	<path class="st2" d="M233.7,500.6c0.6-0.3,1.8-1.4,1.7-1.9c0-0.1-0.1-0.3-0.4-0.3c-0.1,0-0.2,0-0.4,0c-0.1,0-0.2,0.1-0.3,0.2
		c-0.6,0.5-0.8,1.9-0.8,1.9c0,0,0,0,0,0.1s0,0,0,0C233.6,500.6,233.6,500.6,233.7,500.6C233.6,500.6,233.7,500.6,233.7,500.6z
		 M234.9,498.5L234.9,498.5c0.3,0,0.3,0.1,0.3,0.1c0.1,0.3-0.8,1.2-1.4,1.6c0.1-0.6,0.3-1.1,0.7-1.5
		C234.6,498.6,234.7,498.5,234.9,498.5L234.9,498.5z"/>
	<path class="st12" d="M228.2,500.4h5l0.5-11.5h-5L228.2,500.4z"/>
	<path class="st12" d="M192.3,494.9l4.9,0.5l3.7-11.2l-4.9-0.5L192.3,494.9z"/>
	<path class="st13" d="M197.6,494.9l-5.6-0.6c-0.1,0-0.2,0-0.3,0.1c-0.1,0.1-0.1,0.1-0.2,0.2l-1.5,4.3c0,0.1,0,0.2,0,0.3
		c0,0.1,0.1,0.2,0.1,0.3c0.1,0.1,0.1,0.2,0.2,0.2c0.1,0.1,0.2,0.1,0.3,0.1c1.9,0.2,2.9,0.2,5.3,0.4c1.5,0.2,4.6,0.7,6.7,0.9
		c2.1,0.2,2.6-1.8,1.7-2.1c-3.7-1.2-5-2.6-6.1-3.8C198.2,495.1,197.9,495,197.6,494.9z"/>
	<path class="st13" d="M233.1,499.9h-5.4c-0.1,0-0.2,0-0.3,0.1c-0.1,0.1-0.1,0.1-0.2,0.2l-1,4.4c0,0.1,0,0.2,0,0.3
		c0,0.1,0.1,0.2,0.1,0.3c0.1,0.1,0.2,0.2,0.3,0.2c0.1,0,0.2,0.1,0.3,0.1c2,0,4.8-0.1,7.3-0.1c2.9,0,5.4,0.2,8.8,0.2
		c2,0,2.6-2.1,1.8-2.3c-3.9-0.8-7.1-0.9-10.4-3C234,500,233.5,499.9,233.1,499.9z"/>
	<path class="st12" d="M240.5,331.9c1.4,0.4,3,0.9,4.5,1.4c1.5,0.4,3.1,0.8,4.6,1.1c3,0.7,6,1.2,9.1,1.3c0.7,0,1.5,0,2.2,0h0.4
		c0.1,0,0.2,0,0.4,0c0.3,0,0.6-0.1,0.9-0.2c1.4-0.4,2.9-0.9,4.2-1.5c2.9-1.2,5.9-2.6,8.9-3.9l2.1,3.1c-2.6,2.3-5.3,4.3-8.3,6.1
		c-1.5,1-3.2,1.8-4.9,2.5c-0.5,0.2-1,0.4-1.5,0.5c-0.3,0.1-0.5,0.1-0.9,0.2l-0.5,0.1l-0.4,0c-0.9,0.1-1.9,0.2-2.8,0.2
		c-3.6,0-7.1-0.3-10.6-1c-1.7-0.3-3.4-0.7-5.1-1.2c-1.7-0.5-3.3-0.9-5-1.5L240.5,331.9z"/>
	<path class="st2" d="M213,330.4c-4.7,1.1-9.4,14.7-9.4,14.7l9.6,6.9c0,0,2.7-6.4,5.3-11.9C221.3,334.3,217.7,329.3,213,330.4z"/>
	<path class="st7" d="M213,330.4c-4.7,1.1-9.4,14.7-9.4,14.7l9.6,6.9c0,0,2.7-6.4,5.3-11.9C221.3,334.3,217.7,329.3,213,330.4z"/>
	<path class="st2" d="M240.9,330.7c0,0,5.3,6,0.3,43.1h-26.6c-0.2-4.1,2.4-24-1.6-43.3c2.9-0.6,5.9-0.9,8.9-1.1
		c3.8-0.2,7.6-0.2,11.3,0C235.8,329.6,238.4,330,240.9,330.7z"/>
	<path class="st7" d="M240.9,330.7c0,0,5.3,6,0.3,43.1h-26.6c-0.2-4.1,2.4-24-1.6-43.3c2.9-0.6,5.9-0.9,8.9-1.1
		c3.8-0.2,7.6-0.2,11.3,0C235.8,329.6,238.4,330,240.9,330.7z"/>
	<path class="st7" d="M240.9,330.7c0,0-0.6-0.2-1.6-0.4c-2.9,0.3-4.4,3.7-3.6,7.2c0.6,2.6,4.4,6.2,7.6,8.8
		C243.3,333.4,240.9,330.7,240.9,330.7z"/>
	<path class="st2" d="M234.4,338.3c2.4,4.1,15.4,8.1,15.4,8.1l4.4-11.7c0,0-7.5-2-13.2-4.1C233.7,328.1,231.8,333.8,234.4,338.3z"/>
	<path class="st7" d="M234.4,338.3c2.4,4.1,15.4,8.1,15.4,8.1l4.4-11.7c0,0-7.5-2-13.2-4.1C233.7,328.1,231.8,333.8,234.4,338.3z"/>
	<path class="st12" d="M274.9,331.2l0.8-5.2l4.6,1.3c0,0,0.7,4.6-2.7,6L274.9,331.2z"/>
	<path class="st12" d="M277.7,321.4l3.9,3.3l-1.3,2.6l-4.6-1.3L277.7,321.4z"/>
	<path class="st5" d="M233.6,488.9l-0.3,5.9h-5l0.2-5.9H233.6z"/>
	<path class="st5" d="M196,483.7l4.9,0.5l-1.9,5.8l-5-0.5L196,483.7z"/>
	<path class="st12" d="M220.9,312.8c1.3,4.8,1.8,7.6,4.7,9.6c4.4,3,10-0.4,10.1-5.5c0.2-4.6-2-11.6-7.1-12.6
		c-1.1-0.2-2.3-0.1-3.4,0.2c-1.1,0.4-2.1,1-2.8,1.8c-0.8,0.8-1.3,1.9-1.6,3C220.6,310.6,220.6,311.7,220.9,312.8z"/>
	<path class="st13" d="M232.2,298.5c0,0.3-0.1,0.6-0.3,0.9c-0.2,0.3-0.4,0.5-0.7,0.7c-0.2-2.5-1.2-4.9-3.5-6.1
		c0.4,1.1-0.7,2.8-2.2,4.5c-0.2-0.6-0.5-1.2-0.9-1.7c-0.4-0.5-0.9-0.9-1.5-1.2c-1,3.9-4.3,4.6-6.9,7c-0.6,0.5-0.9,1.3-1.1,2
		c-0.2,0.8-0.1,1.6,0.2,2.3c-0.7-0.3-1.5-0.2-2.1,1.3c0.6-0.4,1.2-0.6,1.9-0.6c-0.5,0.4-0.8,1.2-0.6,2.9c0.5,2.9,6.4,11.4,10.1,11
		c4.1-0.5,4.8-5.2,4.9-9.4l0.2-0.1C232.7,310.4,236.1,302.4,232.2,298.5z"/>
	<path class="st12" d="M227.7,312.9c0.5,1.1,1.4,2,2.5,2.6c1.4,0.7,2.2-0.3,1.9-1.8c-0.3-1.3-1.4-3.2-2.9-3.4
		C227.7,310.2,227.1,311.6,227.7,312.9z"/>
	<path class="st2" d="M231.7,373.7c0,0-5.7,38.1-8.8,52.3c-3.4,15.6-21.3,63.4-21.3,63.4l-9-1.6c0,0,13.4-44.9,15.3-60.3
		c2.1-16.8,6.5-53.7,6.5-53.7L231.7,373.7z"/>
	<path class="st5" d="M228.2,387.3c-6.5,1.3-5.8,25.7-5.1,38.2c1.9-8.9,4.6-25.9,6.5-38C229.2,387.2,228.7,387.2,228.2,387.3z"/>
	<path class="st2" d="M241.2,373.7c0,0,0.7,37.2,0.1,52.4c-0.6,15.8-6.1,67.5-6.1,67.5h-8.4c0,0-0.3-50.8-0.7-66.3
		c-0.4-16.9-2.5-53.6-2.5-53.6H241.2z"/>
	<path class="st5" d="M233.8,487.6l-0.4,0c1.5-14.3,5-48.9,5.4-61.4c0.5-12.7,0-41.1-0.1-49.5l0.4,0c0.1,8.4,0.5,36.8,0.1,49.6
		C238.8,438.6,235.3,473.3,233.8,487.6z"/>
	<path class="st2" d="M203.7,486.5c0,0-1.6,3.3-1.6,3.3l-10.1-1.9l0.8-3L203.7,486.5z"/>
	<path class="st15" d="M203.7,486.5c0,0-1.6,3.3-1.6,3.3l-10.1-1.9l0.8-3L203.7,486.5z"/>
	<path class="st2" d="M236.9,490.3c0,0-0.5,3.5-0.5,3.5h-10.3l-0.3-3.1L236.9,490.3z"/>
	<path class="st15" d="M236.9,490.3c0,0-0.5,3.5-0.5,3.5h-10.3l-0.3-3.1L236.9,490.3z"/>
</g>
<path class="st16" d="M400.3,39.9h-32.7c-5.1,0-9.3,4.1-9.3,9.3v32.7c0,5.1,4.1,9.3,9.3,9.3h32.7c5.1,0,9.3-4.1,9.3-9.3V49.2
	C409.6,44.1,405.5,39.9,400.3,39.9z M405.7,80.7c0,3.6-2.9,6.5-6.5,6.5h-30.3c-3.6,0-6.5-2.9-6.5-6.5V50.4c0-3.6,2.9-6.5,6.5-6.5
	h30.3c3.6,0,6.5,2.9,6.5,6.5V80.7z"/>
<path class="st16" d="M460.2,48.6h-26.8c-4.2,0-7.6,3.4-7.6,7.6V83c0,4.2,3.4,7.6,7.6,7.6h26.8c4.2,0,7.6-3.4,7.6-7.6V56.2
	C467.8,52,464.4,48.6,460.2,48.6z M464.4,81.9c0,2.9-2.4,5.3-5.3,5.3h-24.6c-2.9,0-5.3-2.4-5.3-5.3V57.3c0-2.9,2.4-5.3,5.3-5.3h24.6
	c2.9,0,5.3,2.4,5.3,5.3V81.9z"/>
<path class="st16" d="M402.2,106.6h-26.8c-4.2,0-7.6,3.4-7.6,7.6V141c0,4.2,3.4,7.6,7.6,7.6h26.8c4.2,0,7.6-3.4,7.6-7.6v-26.8
	C409.8,110,406.4,106.6,402.2,106.6z M406.4,140.4c0,2.6-2.1,4.8-4.8,4.8H376c-2.6,0-4.8-2.1-4.8-4.8v-25.6c0-2.6,2.1-4.8,4.8-4.8
	h25.6c2.6,0,4.8,2.1,4.8,4.8V140.4z"/>
<path class="st16" d="M459.7,106.6h-26.8c-4.2,0-7.6,3.4-7.6,7.6V141c0,4.2,3.4,7.6,7.6,7.6h26.8c4.2,0,7.6-3.4,7.6-7.6v-26.8
	C467.3,110,463.9,106.6,459.7,106.6z M463.5,140c0,2.6-2.1,4.8-4.8,4.8h-24.9c-2.6,0-4.8-2.1-4.8-4.8v-24.9c0-2.6,2.1-4.8,4.8-4.8
	h24.9c2.6,0,4.8,2.1,4.8,4.8V140z"/>
</svg>
