<?xml version="1.0" encoding="utf-8"?>
<!-- Generator: Adobe Illustrator 25.2.1, SVG Export Plug-In . SVG Version: 6.00 Build 0)  -->
<svg version="1.1" id="Layer_1" xmlns="http://www.w3.org/2000/svg" xmlns:xlink="http://www.w3.org/1999/xlink" x="0px" y="0px"
	 width="497.6px" height="509px" viewBox="0 0 497.6 509" style="enable-background:new 0 0 497.6 509;" xml:space="preserve">
<style type="text/css">
	.st0{fill:#FFFFFF;}
	.st1{fill:#FFFFFF;filter:url(#Adobe_OpacityMaskFilter);}
	.st2{mask:url(#path-1-inside-1_2798_51745_1_);fill:#BACCD1;stroke:#FFFFFF;stroke-width:3;}
	.st3{fill:#BACCD1;stroke:#FFFFFF;stroke-width:0.8;}
</style>
<g>
	<path class="st0" d="M83.9,376.9c-5.4-1.4-11.1,1.1-13.6,5.8l-14.8-4c-1.5-4.2-4.8-7.6-9.4-8.9c0.1-1.6,0-3.4-0.3-5l20.9-12.1
		c1.4,1.5,3.4,2.7,5.5,3.3c6.4,1.7,13.1-2.1,14.8-8.5c1.7-6.4-2.1-13.1-8.5-14.8c-6.4-1.7-13.1,2.1-14.8,8.5
		c-0.6,2.3-0.4,4.5,0.1,6.4l-20.1,11.8c-2-3.8-5.3-6.9-9.4-8.6l5.7-21.3c5.5,0.1,10.4-3.5,11.8-8.9c1.7-6.4-2.1-13.1-8.5-14.8
		c-6.4-1.7-13,2-14.8,8.4c-1.4,5.4,1.1,11.1,5.8,13.6l-5.7,21.3c-4.4-0.6-8.7,0.4-12.3,2.7L4.5,331.7c1.6-1.4,2.7-3.4,3.3-5.5
		c1.7-6.4-2.1-13.1-8.5-14.8c-6.4-1.7-13.1,2.1-14.8,8.5c-1.7,6.4,2.1,13.1,8.5,14.8c2.3,0.6,4.5,0.4,6.4-0.1l12.2,21.1
		c-0.5,0.6-1.1,1.2-1.6,1.9c-5.5-1.2-10.9,0.7-14.5,4.7l-14.5-3.9c0.1-5.5-3.5-10.4-8.9-11.8c-6.4-1.7-13.1,2.1-14.8,8.5
		c-1.7,6.4,2.2,12.9,8.6,14.7c5.4,1.4,11.1-1.1,13.6-5.8l12.9,3.5c-0.2,0.6-0.4,1-0.6,1.5c-1.7,6.3,0.7,12.7,5.7,16.5l-14.4,8.3
		c-1.4-1.5-3.4-2.7-5.5-3.3c-6.4-1.7-13.1,2.1-14.8,8.5c-1.7,6.4,2.1,13.1,8.5,14.8c6.4,1.7,13.1-2.1,14.8-8.5
		c0.6-2.3,0.4-4.5-0.1-6.4l17.9-10.3l12.7,3.4l-6.8,25.5c-5.5-0.1-10.4,3.5-11.8,8.9c-1.7,6.4,2.1,13.1,8.5,14.8
		c6.4,1.7,13.1-2.1,14.8-8.5c1.4-5.4-1.1-11.1-5.8-13.6l6.9-25.6l12.4,3.3l10.6,18.4c-1.5,1.4-2.7,3.4-3.3,5.5
		c-1.7,6.4,2.1,13.1,8.5,14.8c6.4,1.7,13.1-2.1,14.8-8.5c1.7-6.4-2.1-13.1-8.5-14.8c-2.1-0.6-4.5-0.4-6.4,0.1l-8.1-14.1
		c6.3,0,12-4.3,13.7-10.7c0.2-0.9,0.3-1.6,0.5-2.3l12.5,3.4c-0.1,5.5,3.5,10.4,8.9,11.8c6.4,1.7,13.1-2.1,14.8-8.5
		C94.3,385.2,90.3,378.6,83.9,376.9L83.9,376.9z M76.8,338.4c3.4,0.9,5.4,4.3,4.5,7.8c-0.9,3.4-4.3,5.4-7.8,4.5
		c-3.4-0.9-5.4-4.3-4.5-7.8C70,339.5,73.6,337.5,76.8,338.4z M-5.5,329.2c-3.4-0.9-5.4-4.3-4.5-7.8c0.9-3.4,4.3-5.4,7.8-4.5
		c3.4,0.9,5.4,4.3,4.5,7.8C1.3,328.1-2.1,330.1-5.5,329.2z M-32.6,364.1c-3.4-0.9-5.4-4.3-4.5-7.8c0.9-3.4,4.3-5.4,7.8-4.5
		c3.4,0.9,5.4,4.3,4.5,7.8C-25.7,363.1-29.2,365.1-32.6,364.1z M-26.9,408.1c-3.4-0.9-5.4-4.3-4.5-7.8c0.9-3.4,4.3-5.4,7.8-4.5
		c3.4,0.9,5.4,4.3,4.5,7.8C-20.1,407-23.7,408.9-26.9,408.1z M15.8,430.8c-0.9,3.4-4.3,5.4-7.8,4.5c-3.4-0.9-5.4-4.3-4.5-7.8
		c0.9-3.4,4.3-5.4,7.8-4.5C14.7,423.9,16.7,427.4,15.8,430.8z M55.2,417.4c3.4,0.9,5.4,4.3,4.5,7.8c-0.9,3.4-4.3,5.4-7.8,4.5
		c-3.4-0.9-5.4-4.3-4.5-7.8C48.3,418.6,51.9,416.5,55.2,417.4z M34.1,315.8c0.9-3.4,4.3-5.4,7.8-4.5c3.4,0.9,5.4,4.3,4.5,7.8
		c-0.9,3.4-4.3,5.4-7.8,4.5C35.1,322.7,33.2,319.1,34.1,315.8z M39.8,391.9l-35.1-9.4c-5.3-1.4-8.4-6.8-7-12.1
		c1.4-5.3,6.8-8.4,12.1-7l0.9,0.2c1.4,0.5,2.9,0,3.6-1.3c3.1-5.7,9.6-8.6,15.9-6.9c7.1,1.9,11.5,9,10.1,16.3c-0.2,0.9,0,1.7,0.5,2.3
		c0.5,0.6,1.2,1.1,2,1.1c0.6,0,1.2,0.2,1.6,0.3c4.6,1.2,7.3,5.9,6,10.5C49,390.4,44.3,393.1,39.8,391.9L39.8,391.9z M79.1,394.7
		c-3.4-0.9-5.4-4.3-4.5-7.8c0.9-3.4,4.3-5.4,7.8-4.5c3.4,0.9,5.4,4.3,4.5,7.8C86,393.6,82.5,395.6,79.1,394.7z"/>
	<defs>
		<filter id="Adobe_OpacityMaskFilter" filterUnits="userSpaceOnUse" x="-44.5" y="304" width="139.1" height="138.9">
			<feColorMatrix  type="matrix" values="1 0 0 0 0  0 1 0 0 0  0 0 1 0 0  0 0 0 1 0"/>
		</filter>
	</defs>
	<mask maskUnits="userSpaceOnUse" x="-44.5" y="304" width="139.1" height="138.9" id="path-1-inside-1_2798_51745_1_">
		<path class="st1" d="M83.9,376.9c-5.4-1.4-11.1,1.1-13.6,5.8l-14.8-4c-1.5-4.2-4.8-7.6-9.4-8.9c0.1-1.6,0-3.4-0.3-5l20.9-12.1
			c1.4,1.5,3.4,2.7,5.5,3.3c6.4,1.7,13.1-2.1,14.8-8.5c1.7-6.4-2.1-13.1-8.5-14.8c-6.4-1.7-13.1,2.1-14.8,8.5
			c-0.6,2.3-0.4,4.5,0.1,6.4l-20.1,11.8c-2-3.8-5.3-6.9-9.4-8.6l5.7-21.3c5.5,0.1,10.4-3.5,11.8-8.9c1.7-6.4-2.1-13.1-8.5-14.8
			c-6.4-1.7-13,2-14.8,8.4c-1.4,5.4,1.1,11.1,5.8,13.6l-5.7,21.3c-4.4-0.6-8.7,0.4-12.3,2.7L4.5,331.7c1.6-1.4,2.7-3.4,3.3-5.5
			c1.7-6.4-2.1-13.1-8.5-14.8c-6.4-1.7-13.1,2.1-14.8,8.5c-1.7,6.4,2.1,13.1,8.5,14.8c2.3,0.6,4.5,0.4,6.4-0.1l12.2,21.1
			c-0.5,0.6-1.1,1.2-1.6,1.9c-5.5-1.2-10.9,0.7-14.5,4.7l-14.5-3.9c0.1-5.5-3.5-10.4-8.9-11.8c-6.4-1.7-13.1,2.1-14.8,8.5
			c-1.7,6.4,2.2,12.9,8.6,14.7c5.4,1.4,11.1-1.1,13.6-5.8l12.9,3.5c-0.2,0.6-0.4,1-0.6,1.5c-1.7,6.3,0.7,12.7,5.7,16.5l-14.4,8.3
			c-1.4-1.5-3.4-2.7-5.5-3.3c-6.4-1.7-13.1,2.1-14.8,8.5c-1.7,6.4,2.1,13.1,8.5,14.8c6.4,1.7,13.1-2.1,14.8-8.5
			c0.6-2.3,0.4-4.5-0.1-6.4l17.9-10.3l12.7,3.4l-6.8,25.5c-5.5-0.1-10.4,3.5-11.8,8.9c-1.7,6.4,2.1,13.1,8.5,14.8
			c6.4,1.7,13.1-2.1,14.8-8.5c1.4-5.4-1.1-11.1-5.8-13.6l6.9-25.6l12.4,3.3l10.6,18.4c-1.5,1.4-2.7,3.4-3.3,5.5
			c-1.7,6.4,2.1,13.1,8.5,14.8c6.4,1.7,13.1-2.1,14.8-8.5c1.7-6.4-2.1-13.1-8.5-14.8c-2.1-0.6-4.5-0.4-6.4,0.1l-8.1-14.1
			c6.3,0,12-4.3,13.7-10.7c0.2-0.9,0.3-1.6,0.5-2.3l12.5,3.4c-0.1,5.5,3.5,10.4,8.9,11.8c6.4,1.7,13.1-2.1,14.8-8.5
			C94.3,385.2,90.3,378.6,83.9,376.9L83.9,376.9z M76.8,338.4c3.4,0.9,5.4,4.3,4.5,7.8c-0.9,3.4-4.3,5.4-7.8,4.5
			c-3.4-0.9-5.4-4.3-4.5-7.8C70,339.5,73.6,337.5,76.8,338.4z M-5.5,329.2c-3.4-0.9-5.4-4.3-4.5-7.8c0.9-3.4,4.3-5.4,7.8-4.5
			c3.4,0.9,5.4,4.3,4.5,7.8C1.3,328.1-2.1,330.1-5.5,329.2z M-32.6,364.1c-3.4-0.9-5.4-4.3-4.5-7.8c0.9-3.4,4.3-5.4,7.8-4.5
			c3.4,0.9,5.4,4.3,4.5,7.8C-25.7,363.1-29.2,365.1-32.6,364.1z M-26.9,408.1c-3.4-0.9-5.4-4.3-4.5-7.8c0.9-3.4,4.3-5.4,7.8-4.5
			c3.4,0.9,5.4,4.3,4.5,7.8C-20.1,407-23.7,408.9-26.9,408.1z M15.8,430.8c-0.9,3.4-4.3,5.4-7.8,4.5c-3.4-0.9-5.4-4.3-4.5-7.8
			c0.9-3.4,4.3-5.4,7.8-4.5C14.7,423.9,16.7,427.4,15.8,430.8z M55.2,417.4c3.4,0.9,5.4,4.3,4.5,7.8c-0.9,3.4-4.3,5.4-7.8,4.5
			c-3.4-0.9-5.4-4.3-4.5-7.8C48.3,418.6,51.9,416.5,55.2,417.4z M34.1,315.8c0.9-3.4,4.3-5.4,7.8-4.5c3.4,0.9,5.4,4.3,4.5,7.8
			c-0.9,3.4-4.3,5.4-7.8,4.5C35.1,322.7,33.2,319.1,34.1,315.8z M39.8,391.9l-35.1-9.4c-5.3-1.4-8.4-6.8-7-12.1
			c1.4-5.3,6.8-8.4,12.1-7l0.9,0.2c1.4,0.5,2.9,0,3.6-1.3c3.1-5.7,9.6-8.6,15.9-6.9c7.1,1.9,11.5,9,10.1,16.3
			c-0.2,0.9,0,1.7,0.5,2.3c0.5,0.6,1.2,1.1,2,1.1c0.6,0,1.2,0.2,1.6,0.3c4.6,1.2,7.3,5.9,6,10.5C49,390.4,44.3,393.1,39.8,391.9
			L39.8,391.9z M79.1,394.7c-3.4-0.9-5.4-4.3-4.5-7.8c0.9-3.4,4.3-5.4,7.8-4.5c3.4,0.9,5.4,4.3,4.5,7.8
			C86,393.6,82.5,395.6,79.1,394.7z"/>
	</mask>
	<path class="st2" d="M83.9,376.9c-5.4-1.4-11.1,1.1-13.6,5.8l-14.8-4c-1.5-4.2-4.8-7.6-9.4-8.9c0.1-1.6,0-3.4-0.3-5l20.9-12.1
		c1.4,1.5,3.4,2.7,5.5,3.3c6.4,1.7,13.1-2.1,14.8-8.5c1.7-6.4-2.1-13.1-8.5-14.8c-6.4-1.7-13.1,2.1-14.8,8.5
		c-0.6,2.3-0.4,4.5,0.1,6.4l-20.1,11.8c-2-3.8-5.3-6.9-9.4-8.6l5.7-21.3c5.5,0.1,10.4-3.5,11.8-8.9c1.7-6.4-2.1-13.1-8.5-14.8
		c-6.4-1.7-13,2-14.8,8.4c-1.4,5.4,1.1,11.1,5.8,13.6l-5.7,21.3c-4.4-0.6-8.7,0.4-12.3,2.7L4.5,331.7c1.6-1.4,2.7-3.4,3.3-5.5
		c1.7-6.4-2.1-13.1-8.5-14.8c-6.4-1.7-13.1,2.1-14.8,8.5c-1.7,6.4,2.1,13.1,8.5,14.8c2.3,0.6,4.5,0.4,6.4-0.1l12.2,21.1
		c-0.5,0.6-1.1,1.2-1.6,1.9c-5.5-1.2-10.9,0.7-14.5,4.7l-14.5-3.9c0.1-5.5-3.5-10.4-8.9-11.8c-6.4-1.7-13.1,2.1-14.8,8.5
		c-1.7,6.4,2.2,12.9,8.6,14.7c5.4,1.4,11.1-1.1,13.6-5.8l12.9,3.5c-0.2,0.6-0.4,1-0.6,1.5c-1.7,6.3,0.7,12.7,5.7,16.5l-14.4,8.3
		c-1.4-1.5-3.4-2.7-5.5-3.3c-6.4-1.7-13.1,2.1-14.8,8.5c-1.7,6.4,2.1,13.1,8.5,14.8c6.4,1.7,13.1-2.1,14.8-8.5
		c0.6-2.3,0.4-4.5-0.1-6.4l17.9-10.3l12.7,3.4l-6.8,25.5c-5.5-0.1-10.4,3.5-11.8,8.9c-1.7,6.4,2.1,13.1,8.5,14.8
		c6.4,1.7,13.1-2.1,14.8-8.5c1.4-5.4-1.1-11.1-5.8-13.6l6.9-25.6l12.4,3.3l10.6,18.4c-1.5,1.4-2.7,3.4-3.3,5.5
		c-1.7,6.4,2.1,13.1,8.5,14.8c6.4,1.7,13.1-2.1,14.8-8.5c1.7-6.4-2.1-13.1-8.5-14.8c-2.1-0.6-4.5-0.4-6.4,0.1l-8.1-14.1
		c6.3,0,12-4.3,13.7-10.7c0.2-0.9,0.3-1.6,0.5-2.3l12.5,3.4c-0.1,5.5,3.5,10.4,8.9,11.8c6.4,1.7,13.1-2.1,14.8-8.5
		C94.3,385.2,90.3,378.6,83.9,376.9L83.9,376.9z M76.8,338.4c3.4,0.9,5.4,4.3,4.5,7.8c-0.9,3.4-4.3,5.4-7.8,4.5
		c-3.4-0.9-5.4-4.3-4.5-7.8C70,339.5,73.6,337.5,76.8,338.4z M-5.5,329.2c-3.4-0.9-5.4-4.3-4.5-7.8c0.9-3.4,4.3-5.4,7.8-4.5
		c3.4,0.9,5.4,4.3,4.5,7.8C1.3,328.1-2.1,330.1-5.5,329.2z M-32.6,364.1c-3.4-0.9-5.4-4.3-4.5-7.8c0.9-3.4,4.3-5.4,7.8-4.5
		c3.4,0.9,5.4,4.3,4.5,7.8C-25.7,363.1-29.2,365.1-32.6,364.1z M-26.9,408.1c-3.4-0.9-5.4-4.3-4.5-7.8c0.9-3.4,4.3-5.4,7.8-4.5
		c3.4,0.9,5.4,4.3,4.5,7.8C-20.1,407-23.7,408.9-26.9,408.1z M15.8,430.8c-0.9,3.4-4.3,5.4-7.8,4.5c-3.4-0.9-5.4-4.3-4.5-7.8
		c0.9-3.4,4.3-5.4,7.8-4.5C14.7,423.9,16.7,427.4,15.8,430.8z M55.2,417.4c3.4,0.9,5.4,4.3,4.5,7.8c-0.9,3.4-4.3,5.4-7.8,4.5
		c-3.4-0.9-5.4-4.3-4.5-7.8C48.3,418.6,51.9,416.5,55.2,417.4z M34.1,315.8c0.9-3.4,4.3-5.4,7.8-4.5c3.4,0.9,5.4,4.3,4.5,7.8
		c-0.9,3.4-4.3,5.4-7.8,4.5C35.1,322.7,33.2,319.1,34.1,315.8z M39.8,391.9l-35.1-9.4c-5.3-1.4-8.4-6.8-7-12.1
		c1.4-5.3,6.8-8.4,12.1-7l0.9,0.2c1.4,0.5,2.9,0,3.6-1.3c3.1-5.7,9.6-8.6,15.9-6.9c7.1,1.9,11.5,9,10.1,16.3c-0.2,0.9,0,1.7,0.5,2.3
		c0.5,0.6,1.2,1.1,2,1.1c0.6,0,1.2,0.2,1.6,0.3c4.6,1.2,7.3,5.9,6,10.5C49,390.4,44.3,393.1,39.8,391.9L39.8,391.9z M79.1,394.7
		c-3.4-0.9-5.4-4.3-4.5-7.8c0.9-3.4,4.3-5.4,7.8-4.5c3.4,0.9,5.4,4.3,4.5,7.8C86,393.6,82.5,395.6,79.1,394.7z"/>
</g>
<g>
	<path class="st3" d="M45.1,145.1l0.2-0.3l-0.3-0.2l-9.8-5.6c-0.8-0.4-1-1.4-0.6-2.2l10.6-18.3c0.4-0.8,1.4-1,2.2-0.6l9.8,5.6
		l0.3,0.2l0.2-0.3l5.6-9.8c0.4-0.8,1.4-1,2.2-0.6l18.3,10.6c0.4,0.2,0.6,0.6,0.7,1c0.1,0.4,0.1,0.8-0.2,1.2l-5.6,9.8l-0.2,0.3
		L79,136l9.8,5.6c0.4,0.2,0.6,0.6,0.7,1c0.1,0.4,0.1,0.8-0.2,1.2l-10.6,18.3c-0.2,0.4-0.6,0.6-1,0.7c-0.4,0.1-0.8,0.1-1.2-0.2
		l-9.8-5.6l-0.3-0.2l-0.2,0.3l-5.6,9.8c-0.2,0.4-0.6,0.6-1,0.7c-0.4,0.1-0.8,0.1-1.2-0.2L40.1,157c-0.8-0.4-1-1.4-0.6-2.2
		L45.1,145.1z M43.2,154.7l-0.2,0.3l0.3,0.2l14.9,8.6l0.3,0.2l0.2-0.3l5.6-9.8c0.4-0.8,1.4-1,2.2-0.6l9.8,5.6l0.3,0.2l0.2-0.3
		l8.6-14.9l0.2-0.3l-0.3-0.2l-9.8-5.6c-0.8-0.4-1-1.4-0.6-2.2l5.6-9.8l0.2-0.3l-0.3-0.2l-14.9-8.6l-0.3-0.2l-0.2,0.3l-5.6,9.8
		c-0.2,0.4-0.6,0.6-1,0.7c-0.4,0.1-0.8,0.1-1.2-0.2l-9.8-5.6l-0.3-0.2l-0.2,0.3l-8.6,14.9l-0.2,0.3l0.3,0.2l9.8,5.6
		c0.4,0.2,0.6,0.6,0.7,1c0.1,0.4,0.1,0.8-0.2,1.2L43.2,154.7z"/>
	<path class="st3" d="M-5.7,149.4l-0.2,0.3l0.3,0.2l92.9,53.7l0.3,0.2l0.2-0.3l37.8-65.4l0.2-0.3l-0.3-0.2L32.6,83.9l-0.3-0.2L32,84
		L-5.7,149.4z M87.5,207.4l-96.4-55.7c-0.8-0.4-1-1.4-0.6-2.2l39.8-68.8c0.4-0.8,1.4-1,2.2-0.6l96.4,55.6c0.4,0.2,0.6,0.6,0.7,1
		c0.1,0.4,0.1,0.8-0.2,1.2l-39.8,68.8c-0.2,0.4-0.6,0.6-1,0.7C88.3,207.6,87.9,207.6,87.5,207.4z"/>
	<path class="st3" d="M27.4,191.5l-0.2,0.3l0.3,0.2l6.9,4l0.3,0.2l0.2-0.3l7.9-13.8l0.2-0.3l-0.3-0.2l-6.9-4l-0.3-0.2l-0.2,0.3
		L27.4,191.5z M34.5,199.7l-10.3-6c-0.8-0.4-1-1.4-0.6-2.2l9.9-17.2c0.4-0.8,1.4-1,2.2-0.6l10.3,6c0.4,0.2,0.6,0.6,0.7,1
		c0.1,0.4,0.1,0.8-0.2,1.2l-9.9,17.2c-0.2,0.4-0.6,0.6-1,0.7C35.3,200,34.9,199.9,34.5,199.7z"/>
	<path class="st3" d="M5.9,192.9l-0.2,0.3l0.3,0.2l37.9,21.9l0.3,0.2l0.2-0.3l4-6.9l0.2-0.3l-0.3-0.2l-37.9-21.9l-0.3-0.2L9.9,186
		L5.9,192.9z M44.1,219L2.8,195.2c-0.8-0.4-1-1.4-0.6-2.2l6-10.3c0.4-0.8,1.4-1,2.2-0.6l41.3,23.8c0.4,0.2,0.6,0.6,0.7,1
		c0.1,0.4,0.1,0.8-0.2,1.2l-6,10.3c-0.2,0.4-0.6,0.6-1,0.7C44.9,219.3,44.4,219.2,44.1,219z"/>
	<path class="st3" d="M-5.7,149.4l-0.2,0.3l0.3,0.2l92.9,53.7l0.3,0.2l0.2-0.3l3-5.2l0.2-0.3l-0.3-0.2l-92.9-53.7l-0.3-0.2l-0.2,0.3
		L-5.7,149.4z M87.5,207.4l-96.4-55.7c-0.8-0.4-1-1.4-0.6-2.2l5-8.6c0.4-0.8,1.4-1,2.2-0.6L94.1,196c0.4,0.2,0.6,0.6,0.7,1
		c0.1,0.4,0.1,0.8-0.2,1.2l-5,8.6c-0.2,0.4-0.6,0.6-1,0.7C88.3,207.6,87.9,207.6,87.5,207.4z"/>
</g>
</svg>
