<?xml version="1.0" encoding="utf-8"?>
<!-- Generator: Adobe Illustrator 25.2.1, SVG Export Plug-In . SVG Version: 6.00 Build 0)  -->
<svg version="1.1" id="Layer_1" xmlns="http://www.w3.org/2000/svg" xmlns:xlink="http://www.w3.org/1999/xlink" x="0px" y="0px"
	 width="361.2px" height="509px" viewBox="0 0 361.2 509" style="enable-background:new 0 0 361.2 509;" xml:space="preserve">
<style type="text/css">
	.st0{fill:none;stroke:#B6C9CF;stroke-width:3;stroke-linecap:round;stroke-linejoin:round;}
</style>
<g>
	<path class="st0" d="M-14.7,147l-4.6-2.6c-2.4-1.4-4.2-3.7-4.9-6.4c-0.7-2.7-0.4-5.6,1-8L2.9,84.2c1.4-2.4,3.7-4.2,6.4-4.9
		c2.7-0.7,5.6-0.4,8,1L90.5,122c2.4,1.4,4.2,3.7,4.9,6.4c0.7,2.7,0.4,5.6-1,8l-26.1,45.8c-1.4,2.4-3.7,4.2-6.4,4.9
		c-2.7,0.7-5.6,0.4-8-1l-4.6-2.6"/>
	<path class="st0" d="M22.6,156.1l7.2,40.5l-45.8-26.1L22.6,156.1z"/>
</g>
<g>
	<path class="st0" d="M23.4,433.7c22.5,6.7,46.2-6.1,52.9-28.5c6.7-22.5-6.1-46.2-28.5-52.9c-22.5-6.7-46.2,6.1-52.9,28.5
		C-11.8,403.3,0.9,427,23.4,433.7z"/>
	<path class="st0" d="M42.9,368.5L35.6,393l13.9,13"/>
</g>
</svg>
