<?xml version="1.0" encoding="utf-8"?>
<!-- Generator: Adobe Illustrator 25.2.1, SVG Export Plug-In . SVG Version: 6.00 Build 0)  -->
<svg version="1.1" id="Layer_1" xmlns="http://www.w3.org/2000/svg" xmlns:xlink="http://www.w3.org/1999/xlink" x="0px" y="0px"
	 width="361.2px" height="509px" viewBox="0 0 361.2 509" style="enable-background:new 0 0 361.2 509;" xml:space="preserve">
<style type="text/css">
	.st0{fill:#E3EBFA;}
	.st1{fill:#F5F5F5;}
	.st2{fill:#0D51D9;}
	.st3{opacity:0.2;enable-background:new    ;}
	.st4{opacity:0.4;fill:#FFFFFF;enable-background:new    ;}
	.st5{fill:#263238;}
	.st6{fill:#FFC3BD;}
	.st7{opacity:0.3;enable-background:new    ;}
	.st8{opacity:0.2;fill:#FFFFFF;enable-background:new    ;}
	.st9{fill:#ED847E;}
</style>
<g>
	<path class="st0" d="M43.4,401.6c39.3-27.3,26.3-82,49.3-108.9c54.7-53.1,204.6-34.5,183.2,63c-9.3,36.3-76.3,53.5-95.3,68.2
		c-30.9,18.3-59.1,45.7-93.1,55.9C35,500.1-4.3,428.9,43.4,401.6z"/>
	<path class="st1" d="M148.1,505.5c76,0,137.7-3.6,137.7-8c0-4.4-61.6-8-137.7-8c-76,0-137.7,3.6-137.7,8
		C10.4,501.9,72,505.5,148.1,505.5z"/>
	<path class="st2" d="M149.3,447.2l0.8-2.7H111l-14.7,50.1h7.1l7.1-24.1h9.4l7.1,24.1h8.3l7.1-24.1h9.4l7.1,24.1h4.3L149.3,447.2z
		 M111,468.6l4.2-14.1l4.1,14.1H111z M129.7,489.5l-5.6-19h11.1L129.7,489.5z M135.9,468.6h-12.3l-6.3-21.4l0.2-0.8h24.8
		L135.9,468.6z M143,468.6l4.2-14.1l4.1,14.1H143z"/>
	<path class="st3" d="M149.3,447.2l0.8-2.7H111l-14.7,50.1h7.1l7.1-24.1h9.4l7.1,24.1h8.3l7.1-24.1h9.4l7.1,24.1h4.3L149.3,447.2z
		 M111,468.6l4.2-14.1l4.1,14.1H111z M129.7,489.5l-5.6-19h11.1L129.7,489.5z M135.9,468.6h-12.3l-6.3-21.4l0.2-0.8h24.8
		L135.9,468.6z M143,468.6l4.2-14.1l4.1,14.1H143z"/>
	<path class="st2" d="M151.5,444.5h-36.2l14.7,50.1h4.3l-7.1-24.1h27.7l7.1,24.1h4.3L151.5,444.5z M126.7,468.6l-6.5-22.2h27.7
		l6.5,22.2H126.7z"/>
	<path class="st4" d="M151.5,444.5h-36.2l14.7,50.1h4.3l-7.1-24.1h27.7l7.1,24.1h4.3L151.5,444.5z M126.7,468.6l-6.5-22.2h27.7
		l6.5,22.2H126.7z"/>
	<path class="st5" d="M150.8,264.3c0,0,1.6-3.7,10.1-2.8c6.2,0.6,10,7.3,9.5,16.8c-0.5,9.5-4.4,13.5-4.4,13.5l-20.4-10.6
		C145.7,281.2,144.3,265.6,150.8,264.3z"/>
	<path class="st5" d="M169.1,274.3V289C172.3,275.8,169.1,274.3,169.1,274.3z"/>
	<path class="st5" d="M168.1,268.4l3.3,14.3C170.7,266.7,167.2,266,168.1,268.4z"/>
	<path class="st6" d="M167.6,304.3c0.5,1.4,1.1,2.8,1.6,4.3s1.2,2.8,1.8,4.3c0.6,1.4,1.3,2.7,2,4c0.4,0.6,0.7,1.3,1.1,1.9
		c0.2,0.3,0.4,0.6,0.6,0.9l0.3,0.4c0,0.1,0.1,0.1,0.1,0.2c0.3,0.3,0.7,0.5,1.1,0.6c0.6,0.2,1.2,0.3,1.8,0.4c1.4,0.1,2.8,0.1,4.3,0
		c1.5-0.1,3-0.3,4.5-0.6c1.5-0.2,3.1-0.6,4.5-0.9l1,2.7c-3,1.4-6.2,2.4-9.4,3.1c-1.7,0.4-3.5,0.5-5.2,0.5c-1,0-1.9-0.2-2.9-0.4
		c-1.1-0.3-2.2-0.8-3.1-1.5c-0.3-0.2-0.5-0.5-0.7-0.7c-0.1-0.1-0.2-0.2-0.2-0.3l-0.2-0.3c-0.3-0.3-0.6-0.7-0.8-1l-0.7-1.1l-0.7-1.1
		c-0.9-1.4-1.7-2.9-2.4-4.4c-0.7-1.5-1.4-3-2-4.5c-0.6-1.5-1.2-3-1.7-4.6L167.6,304.3z"/>
	<path class="st6" d="M190.9,322.9l3.5,0.9l0.6-4.8c0,0-3.6,0-5.3,1.5L190.9,322.9z"/>
	<path class="st6" d="M198.9,324.1l-0.5-3.6L195,319l-0.6,4.8L198.9,324.1z"/>
	<path class="st3" d="M198.9,324.1l-0.5-3.6l-1.5-0.7l-1.8,4L198.9,324.1z"/>
	<path class="st2" d="M157.7,300.4c0.2,1.8,1.6,5.4,2.7,8.1c0.8,1.9,1.4,3.4,1.4,3.4l1.1-0.4l8.8-3.3c-0.4-4.8-1.3-10-6.3-12.6
		C162.2,293.9,157.3,297.1,157.7,300.4z"/>
	<path class="st7" d="M160.3,308.5c0.8,1.9,1.4,3.4,1.4,3.4l1.1-0.4c-0.1-1.9-0.3-4.8-1.2-6.2C161,306.2,160.5,307.3,160.3,308.5z"
		/>
	<path class="st6" d="M127.3,438.8l5.7,0.5l1.5-13.1l-5.7-0.5L127.3,438.8z"/>
	<path class="st6" d="M80.4,423.4l4.6,3.5l9.1-9.6l-4.6-3.5L80.4,423.4z"/>
	<path class="st5" d="M85.9,426.3l-3.3-5.6c-0.1-0.1-0.1-0.2-0.2-0.2c-0.1,0-0.2,0-0.3,0l-4.7,2.1c-0.1,0.1-0.2,0.1-0.3,0.2
		c-0.1,0.1-0.1,0.2-0.2,0.3c0,0.1,0,0.3,0,0.4c0,0.1,0.1,0.3,0.1,0.4c1.2,1.9,1.8,2.8,3.3,5.2c0.9,1.5,2.6,5,3.9,7
		c1.2,2.1,3.3,0.9,3,0c-1.5-4.4-1.3-6.9-1-8.8C86.1,427,86.1,426.6,85.9,426.3z"/>
	<path class="st5" d="M133.7,437.6h-6.8c-0.1,0-0.2,0-0.3,0.1c-0.1,0.1-0.2,0.2-0.2,0.3l-1.3,5.4c0,0.1,0,0.3,0,0.4
		c0,0.1,0.1,0.3,0.2,0.4c0.1,0.1,0.2,0.2,0.3,0.2c0.1,0.1,0.3,0.1,0.4,0.1c2.4,0,3.6-0.2,6.5-0.2c1.8,0,6.6,0.2,9.1,0.2
		c2.5,0,2.9-2.5,1.9-2.7c-4.6-1-7.3-2.4-8.8-3.8C134.4,437.8,134,437.6,133.7,437.6z"/>
	<path class="st3" d="M134.5,426.2l-0.8,6.8h-5.8l0.9-7.3L134.5,426.2z"/>
	<path class="st3" d="M89.5,413.7l4.6,3.5l-4.7,5l-4.6-3.5L89.5,413.7z"/>
	<path class="st2" d="M130.7,319.1l21.6,8.5c16.5-29.5,14.4-31.2,14.4-31.2s-3.4-2.3-7-4.2c-0.5-0.3-1.1-0.6-1.6-0.9
		c-3.2-1.5-6.4-2.8-9.8-3.9c-0.5-0.2-1-0.3-1.5-0.5c-2.7-0.8-5.4-1.4-8.1-1.9c-0.5,4.2-1,7.8-1.5,10.8c-0.6,4-1.3,7.2-2,10
		C134.1,310.4,132.5,314.9,130.7,319.1z"/>
	<path class="st7" d="M135.2,305.9c2.2-2.9,4.6-9.8,4.2-12.5l-2.2,2.5C136.5,299.9,135.9,303.1,135.2,305.9z"/>
	<path class="st2" d="M162.4,292.8c-0.9-4.8-15.5-8.4-15.5-8.4l8.3,14.3l1.3,0.5C156.5,299.3,163,296,162.4,292.8z"/>
	<path class="st7" d="M162.4,292.8c-0.9-4.8-15.5-8.4-15.5-8.4l8.3,14.3l1.3,0.5C156.5,299.3,163,296,162.4,292.8z"/>
	<path class="st6" d="M152.3,281.3c-0.8,2.7-2.1,5.4-4,6.2c0,0-1,7.1,5.5,13.9c7.4-4.5,4.3-10,4.3-10c-3.2-2.2-2.4-4.6-0.1-8.2
		l-2.4-2.2c-0.2-0.3-0.4-0.6-0.7-0.8c-0.3-0.2-0.7-0.3-1-0.2c-0.4,0-0.7,0.2-1,0.4C152.6,280.6,152.4,280.9,152.3,281.3z"/>
	<path class="st2" d="M146.5,286.9l0.4-2.5c0,0,3.4,1.8,4.8,4.8c1.4,2.9-0.8,8.5-0.8,8.5l-5.2-5L146.5,286.9z"/>
	<path class="st3" d="M155.6,281c-0.2-0.3-0.4-0.6-0.7-0.7c-0.3-0.2-0.6-0.3-1-0.3c-0.3,0-0.7,0.1-1,0.3c-0.3,0.2-0.5,0.4-0.7,0.8
		c0.6,2.4,1.8,4.6,3.7,6.2c0.4-1.5,1.1-2.8,2-4.1L155.6,281z"/>
	<path class="st6" d="M149.9,271.5c0.2,5.7,0.1,8.1,2.8,11.2c4.1,4.6,11,3.4,12.5-2.3c1.4-5.1,0.9-13.6-4.5-16.1
		c-1.2-0.6-2.5-0.8-3.8-0.7c-1.3,0.1-2.6,0.5-3.7,1.2c-1.1,0.7-2,1.7-2.6,2.9C150.1,268.9,149.9,270.2,149.9,271.5z"/>
	<path class="st5" d="M150.5,266.5c4.3,4.5,12.4,1.8,12.4,1.8l4.3,2.6l-2.3-5.1l-5-2.9C159.9,262.8,148.3,264.2,150.5,266.5z"/>
	<path class="st5" d="M151,264.7c1.5,1.4,2.7,3.2,3.4,5.2c1.4,3.5-4.3,6.3-4.3,6.3S145.5,271.3,151,264.7z"/>
	<path class="st6" d="M148.5,276.7c0.2,1.1,0.9,2,1.8,2.7c1.2,0.8,2.2-0.2,2.2-1.6c0-1.2-0.6-3.2-2-3.4
		C149.2,274.1,148.2,275.4,148.5,276.7z"/>
	<path class="st5" d="M152.3,327.7c0,0-3.8,28.8-6.6,51c-2.2,17.6-10.4,51.6-10.4,51.6l-8.3-0.8c0,0,3.5-38.6,6.7-50.9
		c-2-25.5-7.1-50.1,1.3-57.8L152.3,327.7z"/>
	<path class="st2" d="M125.7,427.4l11,0.3l-0.6,3.7l-10.3-0.2L125.7,427.4z"/>
	<path class="st7" d="M138.6,342.6l-8.3-6.9c-0.3,8.9,1.2,20.4,2.4,32.7C136.9,359.5,139.8,350,138.6,342.6z"/>
	<path class="st5" d="M147.5,325.9c0,0-15.4,32.1-21.6,53.5c-7.7,16.9-33.6,41.2-33.6,41.2l-5.9-5.3c0,0,20.7-34.7,27.7-40.5
		c3.4-24.8,6-48.6,16.4-55.6L147.5,325.9z"/>
	<path class="st2" d="M92.1,422.4l-7.6-6.3l2-3.4l8.4,7.4L92.1,422.4z"/>
	<path class="st2" d="M130.8,317.7l-1.7,1.6c-0.1,0.1,0,0.3,0.2,0.4l22.7,8.9c0.2,0.1,0.4,0.1,0.4-0.1l0.9-1.9
		c0.1-0.1-0.1-0.3-0.3-0.4l-21.9-8.6c-0.1,0-0.1,0-0.2,0C131,317.7,130.9,317.7,130.8,317.7z"/>
	<path class="st8" d="M130.8,317.7l-1.7,1.6c-0.1,0.1,0,0.3,0.2,0.4l22.7,8.9c0.2,0.1,0.4,0.1,0.4-0.1l0.9-1.9
		c0.1-0.1-0.1-0.3-0.3-0.4l-21.9-8.6c-0.1,0-0.1,0-0.2,0C131,317.7,130.9,317.7,130.8,317.7z"/>
	<path class="st5" d="M132.9,321.4l-0.6-0.2c-0.1,0-0.2-0.1-0.1-0.2l1.2-2.4c0-0.1,0.2-0.1,0.3,0l0.6,0.2c0.1,0,0.2,0.1,0.1,0.2
		l-1.2,2.4C133.1,321.4,133,321.4,132.9,321.4z"/>
	<path class="st5" d="M150.3,328.2l-0.6-0.2c-0.1,0-0.2-0.1-0.1-0.2l1.2-2.4c0-0.1,0.2-0.1,0.3,0l0.6,0.2c0.1,0.1,0.2,0.1,0.1,0.2
		l-1.2,2.4C150.6,328.3,150.4,328.3,150.3,328.2z"/>
	<path class="st5" d="M141.6,324.8l-0.6-0.2c-0.1,0-0.2-0.1-0.1-0.2l1.2-2.4c0-0.1,0.2-0.1,0.3,0l0.6,0.2c0.1,0,0.2,0.1,0.1,0.2
		l-1.2,2.4C141.8,324.8,141.7,324.8,141.6,324.8z"/>
	<path class="st5" d="M158.1,273.5c0,0.5,0.2,0.9,0.5,0.9c0.3,0,0.6-0.3,0.6-0.8c0-0.5-0.2-0.9-0.5-0.9
		C158.4,272.7,158.2,273.1,158.1,273.5z"/>
	<path class="st5" d="M163.3,273.8c0,0.5,0.2,0.9,0.5,0.9s0.5-0.3,0.6-0.8c0-0.5-0.2-0.9-0.5-0.9C163.6,273,163.3,273.4,163.3,273.8
		z"/>
	<path class="st5" d="M163.7,273l1.1-0.3C164.9,272.8,164.3,273.6,163.7,273z"/>
	<path class="st9" d="M162.7,274.5c0.4,1.1,0.9,2.1,1.5,3.1c-0.2,0.2-0.5,0.3-0.8,0.3c-0.3,0-0.6,0-0.8-0.1L162.7,274.5z"/>
	<path class="st5" d="M160.4,279.5C160.5,279.5,160.5,279.5,160.4,279.5c0.1-0.1,0.1-0.1,0.1-0.1c0,0,0-0.1,0-0.1c0,0-0.1,0-0.1,0
		c-0.6,0-1.1-0.2-1.6-0.5c-0.5-0.3-0.9-0.7-1.3-1.1c0,0,0-0.1-0.1-0.1c0,0-0.1,0-0.1,0c0,0-0.1,0.1-0.1,0.1c0,0,0,0.1,0,0.1
		c0.3,0.5,0.8,0.9,1.4,1.2C159.2,279.4,159.8,279.5,160.4,279.5L160.4,279.5z"/>
	<path class="st5" d="M157.7,271.7c0,0,0.1,0,0.1-0.1c0.2-0.3,0.5-0.5,0.8-0.6c0.3-0.1,0.6-0.2,1-0.2c0.1,0,0.1,0,0.2-0.1
		c0.1,0,0.1-0.1,0.1-0.2c0-0.1,0-0.1-0.1-0.2c0-0.1-0.1-0.1-0.2-0.1c-0.4,0-0.9,0-1.2,0.2c-0.4,0.2-0.7,0.4-1,0.8
		c0,0.1-0.1,0.1-0.1,0.2c0,0.1,0,0.1,0.1,0.2c0,0,0.1,0.1,0.1,0.1C157.6,271.8,157.7,271.8,157.7,271.7z"/>
	<path class="st2" d="M86.8,429.3L86.8,429.3c0.2,0.1,0.3,0.1,0.5,0c0.1,0,0.2-0.1,0.3-0.2c0.1,0,0.1-0.1,0.2-0.2c0-0.1,0-0.2,0-0.2
		c-0.1-0.7-1.9-1.6-2.1-1.7c0,0,0,0-0.1,0c0,0-0.1,0-0.1,0c0,0,0,0,0,0.1c0,0,0,0.1,0,0.1C85.7,427.9,86.1,429,86.8,429.3z
		 M85.8,427.4c0.7,0.4,1.6,1,1.7,1.4c0,0,0,0.1,0,0.1c0,0,0,0.1-0.1,0.1c-0.1,0.1-0.1,0.1-0.2,0.1c-0.1,0-0.2,0-0.3,0
		C86.6,429,86.1,428.3,85.8,427.4z"/>
	<path class="st2" d="M85.6,427.3c0.6,0.3,2,0.5,2.5,0c0.1-0.1,0.1-0.2,0.1-0.3c0-0.1,0-0.2-0.1-0.3c0-0.1-0.1-0.2-0.2-0.3
		c-0.1-0.1-0.2-0.1-0.3-0.2c-0.8-0.2-2.2,0.6-2.2,0.7c0,0,0,0,0,0.1c0,0,0,0,0,0.1c0,0,0,0,0,0.1s0,0,0.1,0L85.6,427.3z M87.7,426.6
		c0.1,0,0.2,0.1,0.2,0.2c0.1,0.2,0,0.2,0,0.3c-0.3,0.3-1.4,0.2-2,0C86.4,426.7,87,426.6,87.7,426.6L87.7,426.6z"/>
	<path class="st2" d="M136.7,438.7c0.5,0,0.9-0.1,1.3-0.3c0.1-0.1,0.2-0.2,0.2-0.3c0.1-0.1,0.1-0.2,0.1-0.4c0-0.1,0-0.1,0-0.2
		c0-0.1-0.1-0.1-0.1-0.2c-0.6-0.4-2.9,0.6-3.4,0.9c0,0,0,0-0.1,0.1c0,0,0,0.1,0,0.1c0,0,0,0.1,0,0.1c0,0,0,0,0.1,0
		C135.5,438.6,136.1,438.7,136.7,438.7z M137.8,437.5c0.1,0,0.2,0,0.3,0.1c0,0,0,0,0,0.1c0,0,0,0,0,0.1c0,0.1,0,0.2-0.1,0.3
		c0,0.1-0.1,0.1-0.2,0.2c-0.4,0.3-1.3,0.3-2.5,0.1C136.1,437.9,136.9,437.7,137.8,437.5z"/>
	<path class="st2" d="M134.9,438.5L134.9,438.5c0.8-0.3,2.3-1.6,2.2-2.2c0-0.1-0.1-0.3-0.5-0.4c-1.4-0.2-1.9,2.3-1.9,2.4
		c0,0,0,0,0,0.1c0,0,0,0,0,0.1C134.8,438.5,134.8,438.5,134.9,438.5C134.8,438.5,134.9,438.5,134.9,438.5z M136.5,436.2L136.5,436.2
		c0.2,0,0.3,0.1,0.3,0.1c0.1,0.4-1,1.3-1.7,1.8C135.2,437.5,135.7,436.2,136.5,436.2z"/>
	<path class="st5" d="M158.6,272.8l1.1-0.3C159.7,272.5,159.1,273.3,158.6,272.8z"/>
	<path class="st6" d="M138.7,294.4c-2.3,2.1-4.6,4.3-6.8,6.6c-1.1,1.1-2.2,2.3-3.2,3.4c-1,1.1-1.9,2.2-2.8,3.4
		c-0.3,0.4-0.5,0.9-0.7,1.3c0,0,0-0.1,0,0c0,0.1,0,0.2,0,0.3c0,0.2,0.1,0.4,0.1,0.6c0.5,1.1,1.2,2,2.2,2.7c2.4,1.8,5,3.3,7.8,4.3
		l-0.7,2.8c-0.9-0.1-1.7-0.3-2.5-0.5c-0.8-0.2-1.7-0.4-2.5-0.7c-1.7-0.5-3.3-1.3-4.8-2.2c-0.8-0.5-1.6-1.1-2.3-1.8
		c-0.8-0.8-1.4-1.7-1.9-2.6c-0.3-0.6-0.4-1.1-0.6-1.7c-0.1-0.3-0.1-0.6-0.1-0.9c0-0.2,0-0.4,0-0.6c0-0.2,0-0.4,0.1-0.6
		c0.1-0.6,0.3-1.2,0.6-1.7c0.2-0.5,0.5-0.9,0.7-1.3c0.9-1.5,2-2.9,3.1-4.3c1.1-1.3,2.2-2.5,3.3-3.7c2.3-2.4,4.6-4.7,7.1-6.9
		L138.7,294.4z"/>
	<path class="st6" d="M133.1,319.1l2.8,3.7l2.8-3.9c0,0-2.7-2.4-5-2.4L133.1,319.1z"/>
	<path class="st6" d="M138.2,325.3l2-3l-1.5-3.4l-2.8,3.9L138.2,325.3z"/>
	<path class="st2" d="M138.7,285.1c-2.8-0.3-8.8,6.4-8.8,6.4l5.3,9.4c0,0,7.9-5.6,7.6-9.1C142.5,288.6,142.3,285.5,138.7,285.1z"/>
	<path class="st2" d="M204,373.2l-1.7,3l0.6,0.4l1.7-3L204,373.2z"/>
	<path class="st2" d="M211.9,359.6l-6.2,10.7l0.6,0.4l6.2-10.7L211.9,359.6z"/>
	<path class="st2" d="M231.9,291.6l-49.4,22.5h19.1l-65.4,113.2h34.6l65.4-113.2h19.1L231.9,291.6z"/>
	<path class="st2" d="M170.8,427.3h-34.6l-23.5-40.7h34.6L170.8,427.3z"/>
	<path class="st7" d="M170.8,427.3h-34.6l-23.5-40.7h34.6L170.8,427.3z"/>
	<path class="st2" d="M147.2,386.6h-34.6L47.3,499.8h34.6L147.2,386.6z"/>
</g>
</svg>
