<?xml version="1.0" encoding="utf-8"?>
<!-- Generator: Adobe Illustrator 25.2.1, SVG Export Plug-In . SVG Version: 6.00 Build 0)  -->
<svg version="1.1" id="Layer_1" xmlns="http://www.w3.org/2000/svg" xmlns:xlink="http://www.w3.org/1999/xlink" x="0px" y="0px"
	 width="497.6px" height="509px" viewBox="0 0 497.6 509" style="enable-background:new 0 0 497.6 509;" xml:space="preserve">
<style type="text/css">
	.st0{fill:#BECFD4;stroke:#FFFFFF;stroke-width:2;}
	.st1{fill:#BACCD1;stroke:#FFFFFF;stroke-width:3;}
</style>
<g>
	<path class="st0" d="M7.4,75.2c1.5-2.6,5-3.6,7.7-2l108.6,62.7c2.6,1.5,3.6,5,2.1,7.7l-15.4,26.7c-1.6,2.7-5,3.6-7.7,2L-5.9,109.5
		c-2.6-1.5-3.6-5-2.1-7.7L7.4,75.2z M121.5,139.5L13,76.8c-0.2-0.1-0.6-0.3-1-0.2c-0.4,0.1-0.7,0.4-0.8,0.6L-4.3,104
		c-0.1,0.2-0.3,0.6-0.2,1c0.1,0.4,0.5,0.7,0.7,0.8l108.6,62.7c0.2,0.1,0.4,0.2,0.5,0.2c0.1,0,0.3,0,0.4,0c0.2,0,0.6-0.2,0.9-0.6
		l15.4-26.7c0.2-0.4,0.2-0.9,0.1-1.1c0-0.1-0.1-0.3-0.2-0.4C121.9,139.8,121.7,139.7,121.5,139.5z"/>
	<path class="st0" d="M-34.6,158.6l-0.9-0.5l-0.5,0.9l-15.8,27.3l-0.5,0.9l0.9,0.5l109.2,63l0.9,0.5l0.5-0.9L74.9,223l0.5-0.9
		l-0.9-0.5L-34.6,158.6z M-39.5,156.5c1.3-2.3,4.4-3.2,6.7-1.8L77,218.1c2.4,1.4,3.2,4.4,1.8,6.7l-16.1,27.9
		c-1.3,2.3-4.4,3.1-6.7,1.8l-109.8-63.4c-2.3-1.3-3.1-4.4-1.8-6.7L-39.5,156.5z"/>
	<path class="st0" d="M-11.1,117.8l-0.9-0.5l-0.5,0.9l-15.7,27.2l-0.5,0.9l0.9,0.5l109.2,63l0.9,0.5l0.5-0.9l15.7-27.2l0.5-0.9
		l-0.9-0.5L-11.1,117.8z M-16,115.8c1.4-2.4,4.4-3.2,6.8-1.8l109.6,63.3c2.4,1.4,3.3,4.5,1.9,6.8l-16,27.7c-1.4,2.4-4.5,3.2-6.9,1.8
		l-109.6-63.3c-2.4-1.4-3.2-4.4-1.8-6.8L-16,115.8z"/>
	<path class="st0" d="M92.8,142.2c1.9-3.3,6.3-4.5,9.6-2.6c3.3,1.9,4.5,6.3,2.6,9.6c-1.9,3.3-6.3,4.6-9.6,2.6
		C92,150,90.9,145.6,92.8,142.2z M101.3,147.1c0.4-0.7,0.5-1.4,0.3-2.1c-0.2-0.7-0.7-1.3-1.3-1.7c-0.7-0.4-1.4-0.5-2.1-0.3
		c-0.7,0.2-1.3,0.7-1.7,1.3c-0.8,1.4-0.4,3,1,3.8C98.9,149,100.5,148.5,101.3,147.1z"/>
	<path class="st0" d="M69,183.4c1.9-3.3,6.3-4.6,9.6-2.6c3.4,1.9,4.5,6.3,2.6,9.7c-1.9,3.3-6.3,4.5-9.6,2.6
		C68.3,191.1,67.1,186.7,69,183.4z M77.6,188.3c0.8-1.4,0.4-3-1-3.8c-1.4-0.8-3-0.3-3.8,1.1c-0.7,1.3-0.4,3,1,3.8
		C75.2,190.1,76.8,189.6,77.6,188.3z"/>
	<path class="st0" d="M45.5,224.2c1.9-3.3,6.3-4.5,9.6-2.6c3.3,1.9,4.5,6.3,2.6,9.6c-1.9,3.3-6.3,4.6-9.6,2.6
		C44.7,231.9,43.6,227.5,45.5,224.2z M54,229.1c0.4-0.7,0.5-1.4,0.3-2.1c-0.2-0.7-0.7-1.3-1.3-1.7s-1.4-0.5-2.1-0.3
		c-0.7,0.2-1.3,0.7-1.7,1.3c-0.8,1.4-0.4,3,1,3.8C51.6,230.9,53.2,230.5,54,229.1z"/>
</g>
<g>
	<path class="st1" d="M-7.9,346.2c-1.3,9.6-1.3,18.9-0.1,27.9l0,0l0,0c0.3,2.3,0.7,4.5,1.2,6.7l0.2,1.1l-1,0.6l-20.6,11.8l-1.9,1.1
		l-0.3-2.1c-1.6-9.8-1.1-19.9,1.5-29.7l0,0L-7.9,346.2z M-3,325.2l-3.9,3.4c-10.6,9.2-18.2,21.2-21.9,35 M-3,325.2l-25.8,38.3
		 M-4.4,330.1l1.4-4.9 M-4.4,330.1l1.4-4.9 M-7.9,346.2c0.9-6.3,2.2-11.7,3.5-16.2L-7.9,346.2z M111.5,401.3
		c-2.5,9.5-6.8,18.1-12.6,25.9c-6.1,8-13.6,14.6-22.4,19.7c-8.8,5.1-18.3,8.3-28.2,9.5l0,0c-9.6,1.2-19.2,0.5-28.7-2
		c-9.5-2.5-18.1-6.8-25.9-12.6c-8-6.1-14.6-13.6-19.7-22.4c-5.1-8.8-8.3-18.3-9.5-28.2v0c-1.2-9.6-0.5-19.2,2-28.7
		c2.5-9.5,6.8-18.1,12.6-25.9c6.1-8,13.6-14.6,22.4-19.7c8.8-5.1,18.3-8.3,28.2-9.5l0,0c9.6-1.2,19.2-0.5,28.7,2
		c9.5,2.5,18.1,6.8,25.9,12.6c8,6.1,14.6,13.6,19.7,22.4l0,0c5.1,8.8,8.3,18.2,9.5,28.2l0,0C114.8,382.2,114.1,391.8,111.5,401.3z
		 M46.4,402.3l1.3-0.7l-0.7-1.3l-18.2-31.5l-0.7-1.3l-1.3,0.7l-26.9,15.5l-1,0.6l0.3,1.1c1.8,6.2,4.4,12.1,7.6,17.7
		c3,5.3,6.6,10.1,10.7,14.5l0.8,0.9l1-0.6L46.4,402.3z M55.5,402.4l-1.3,0.7l0.7,1.3l19.6,34l1.4,2.5l1.2-2.6c2-4,4.7-11.2,6.4-20.3
		c1.6-8.5,1.9-16.9,0.9-25.1c-0.2-1.5-0.4-3.1-0.7-4.5l-0.4-2l-1.8,1L55.5,402.4z M50.9,406.8l-0.7-1.3l-1.3,0.7l-25.1,14.5
		l-1.8,1.1l1.6,1.4c1.1,0.9,2.3,1.9,3.4,2.7l0,0l0,0c6.5,4.9,13.9,9,22.1,11.8c8,2.9,15.1,4.2,19.7,4.7l2.9,0.3l-1.5-2.6L50.9,406.8
		z M4.4,326.2l-1.6-2.8l-1.1,3.1C0,331.1-2,338.3-3.2,346.9c-1.2,9.1-1.3,18-0.1,26.6l0,0l0,0c0.2,1.3,0.4,2.6,0.6,3.8l0.3,2.2
		l1.9-1.1L24.5,364l1.3-0.7L25,362L4.4,326.2z M29.1,359.7l0.7,1.3l1.3-0.7L57,345.4l1.8-1l-1.6-1.4c-0.7-0.6-1.4-1.2-2.1-1.8
		c-0.3-0.2-0.5-0.4-0.8-0.7l0,0l0,0c-6.7-5.3-14.5-9.8-22.9-13.3c-9-3.7-16.9-5.5-21.7-6.4l-3.2-0.5l1.6,2.8L29.1,359.7z
		 M81.1,382.3l1-0.6l-0.3-1.1c-1.7-5.7-4.1-11.2-7.2-16.6c-3.2-5.6-7.1-10.8-11.6-15.5l-0.8-0.8l-1,0.6l-27.7,16l-1.3,0.7l0.7,1.3
		l0,0.1l18.2,31.5l0.7,1.3l1.3-0.7L81.1,382.3z M107,367.4l1-0.6l-0.3-1.1c-1.6-6.6-4.1-13-7.6-19.1c-2.9-5-6.3-9.5-10.2-13.6
		l-0.8-0.9l-1,0.6l-20,11.5l-1.6,0.9l1.3,1.4c4.2,4.6,7.9,9.6,11,15.1c2.9,5,5.2,10.3,7,15.8l0.6,1.8l1.6-0.9L107,367.4z
		 M88.6,383.4l-1,0.6l0.2,1.1c0.6,2.5,1,4.9,1.3,7.3l0,0c1,8.6,0.7,17.6-0.9,26.6c-0.9,4.7-2,8.8-3.2,12.4l2.5,1.6
		c9.3-8.8,16-20.1,19.5-32.8c2.3-8.6,3-17.4,2-26l-0.3-2.3l-2,1.1L88.6,383.4z M47.5,442.4c-8.6-3-16.5-7.2-23.4-12.5
		c-2-1.5-3.9-3.1-5.7-4.8l-0.8-0.7l-0.9,0.5l-19.2,11l-2,1.1l1.9,1.4c7,5.2,15,9,23.5,11.3c13.2,3.5,26.9,3.2,39.6-0.9l5.4-1.7
		l-5.6-1.2C56.5,445.1,52.2,444,47.5,442.4z M12.5,421.9l1.6-0.9l-1.2-1.4c-3.8-4.2-7.2-9-10.2-14.1c-3.1-5.4-5.6-11.1-7.5-17.1
		l-0.6-1.8l-1.6,0.9l-20.8,12l-1,0.6l0.3,1.1c1.5,5.4,3.8,10.6,6.7,15.6c3.5,6,7.8,11.5,12.8,16.2l0.8,0.8l1-0.6L12.5,421.9z
		 M32.8,322.8c8.9,3.7,17.1,8.3,24.2,13.9c1.8,1.4,3.6,2.9,5.2,4.4l0.8,0.8l1-0.6l19.7-11.3l1.9-1.1l-1.7-1.4
		c-7.7-6.3-16.6-11-26.5-13.6c-13.4-3.6-27.1-3.2-40,1l-4.9,1.6l5,1.3C21.9,318.9,27.1,320.5,32.8,322.8z"/>
</g>
</svg>
