<?xml version="1.0" encoding="utf-8"?>
<!-- Generator: Adobe Illustrator 25.2.1, SVG Export Plug-In . SVG Version: 6.00 Build 0)  -->
<svg version="1.1" id="Layer_1" xmlns="http://www.w3.org/2000/svg" xmlns:xlink="http://www.w3.org/1999/xlink" x="0px" y="0px"
	 width="361.2px" height="509px" viewBox="0 0 361.2 509" style="enable-background:new 0 0 361.2 509;" xml:space="preserve">
<style type="text/css">
	.st0{clip-path:url(#SVGID_2_);}
	.st1{fill:none;stroke:#B6C9CF;stroke-width:2;stroke-linecap:round;stroke-linejoin:round;}
	.st2{fill:#E3EBFA;}
	.st3{fill:#F5F5F5;}
	.st4{fill:#0D51D9;}
	.st5{opacity:0.2;enable-background:new    ;}
	.st6{opacity:0.4;fill:#FFFFFF;enable-background:new    ;}
	.st7{fill:#263238;}
	.st8{fill:#FFC3BD;}
	.st9{opacity:0.3;enable-background:new    ;}
	.st10{opacity:0.2;fill:#FFFFFF;enable-background:new    ;}
	.st11{fill:#ED847E;}
	.st12{clip-path:url(#SVGID_4_);}
	.st13{fill:none;stroke:#B6C9CF;stroke-width:6;stroke-linecap:round;stroke-linejoin:round;}
</style>
<g>
	<g>
		<defs>
			
				<rect id="SVGID_1_" x="-10.4" y="67.8" transform="matrix(0.9659 -0.2588 0.2588 0.9659 -28.6951 13.6843)" width="96" height="96"/>
		</defs>
		<clipPath id="SVGID_2_">
			<use xlink:href="#SVGID_1_"  style="overflow:visible;"/>
		</clipPath>
		<g class="st0">
			<path class="st1" d="M59.2,72.8L-2.6,89.3c-4.3,1.1-6.8,5.5-5.7,9.8l10.4,38.6c1.1,4.3,5.5,6.8,9.8,5.7l61.8-16.6
				c4.3-1.1,6.8-5.5,5.7-9.8L69,78.4C67.9,74.2,63.5,71.6,59.2,72.8z"/>
			<path class="st1" d="M31.5,154.7l30.9-8.3"/>
			<path class="st1" d="M42.8,135.1l4.1,15.5"/>
		</g>
	</g>
</g>
<g>
	<g>
		<defs>
			<rect id="SVGID_3_" x="-17" y="333.4" transform="matrix(0.5 -0.866 0.866 0.5 -311.7135 205.8949)" width="79" height="79"/>
		</defs>
		<clipPath id="SVGID_4_">
			<use xlink:href="#SVGID_3_"  style="overflow:visible;"/>
		</clipPath>
		<g class="st12">
			<path class="st1" d="M53.2,352.6l-28.5-16.5c-3.1-1.8-7.2-0.7-9,2.4l-26.3,45.6c-1.8,3.1-0.7,7.2,2.4,9l28.5,16.5
				c3.1,1.8,7.2,0.7,9-2.4l26.3-45.6C57.4,358.5,56.3,354.4,53.2,352.6z"/>
			<path class="st13" d="M12.6,390L12.6,390"/>
		</g>
	</g>
</g>
</svg>
