<?xml version="1.0" encoding="utf-8"?>
<!-- Generator: Adobe Illustrator 25.2.1, SVG Export Plug-In . SVG Version: 6.00 Build 0)  -->
<svg version="1.1" id="Layer_1" xmlns="http://www.w3.org/2000/svg" xmlns:xlink="http://www.w3.org/1999/xlink" x="0px" y="0px"
	 width="1357px" height="470px" viewBox="0 0 1357 470" style="enable-background:new 0 0 1357 470;" xml:space="preserve">
<style type="text/css">
	.st0{fill:#EE6F57;}
	.st1{fill:#E5ECFF;}
	.st2{fill:none;stroke:#FBC343;stroke-width:3.8197;stroke-miterlimit:10;}
	.st3{fill:none;stroke:#FBC343;stroke-width:3.75;stroke-miterlimit:10;}
	.st4{fill:#F8F4ED;}
	.st5{fill:#FFFFFF;}
	.st6{fill:#E28B6D;}
	.st7{fill:#0D51D9;}
	.st8{opacity:0.8;fill:#FFFFFF;enable-background:new    ;}
	.st9{fill:#1F3C88;}
	.st10{fill:#6F3428;}
	.st11{fill:#708CD5;}
	.st12{opacity:0.3;fill:#1F3C88;enable-background:new    ;}
	.st13{fill:#F9B384;}
	.st14{fill:none;stroke:#0D51D9;stroke-width:5;stroke-miterlimit:10;}
	.st15{fill:#3C1C16;}
	.st16{opacity:0.15;fill:#3C1C16;enable-background:new    ;}
	.st17{opacity:0.5;fill:#FC8879;enable-background:new    ;}
	.st18{fill:#FFFFFF;stroke:#1F3C88;stroke-width:3.75;stroke-miterlimit:10;}
	.st19{fill:#8CBFBE;}
	.st20{fill:#C6EAE9;}
	.st21{fill:#FFFFFF;stroke:#708CD5;stroke-miterlimit:10;}
	.st22{fill:none;stroke:#0D51D9;}
	.st23{fill:#FBC343;}
	.st24{opacity:0.8;}
	.st25{fill:none;stroke:#407BFF;stroke-dasharray:2,2;}
	.st26{fill:none;stroke:#0D51D9;stroke-dasharray:2,2;}
	.st27{fill:#407BFF;}
	.st28{opacity:0.2;fill:#FFFFFF;enable-background:new    ;}
	.st29{opacity:0.2;enable-background:new    ;}
	.st30{opacity:0.6;fill:#FFFFFF;enable-background:new    ;}
	.st31{opacity:0.3;enable-background:new    ;}
	.st32{fill:#263238;}
	.st33{opacity:0.4;fill:#FFFFFF;enable-background:new    ;}
	.st34{fill:#B55B52;}
	.st35{fill:#A02724;}
	.st36{opacity:0.2;}
	.st37{opacity:0.4;enable-background:new    ;}
	.st38{opacity:0.3;}
	.st39{opacity:0.3;fill:#91B3FA;enable-background:new    ;}
	.st40{fill:#91B3FA;}
	.st41{fill:#BDD0FB;}
	.st42{fill:url(#SVGID_1_);}
	.st43{opacity:0.6;}
	.st44{fill:url(#SVGID_2_);}
	.st45{fill:url(#SVGID_3_);}
	.st46{fill:url(#SVGID_4_);}
	.st47{fill:url(#SVGID_5_);}
	.st48{fill:url(#SVGID_6_);}
	.st49{fill:url(#SVGID_7_);}
	.st50{fill:url(#SVGID_8_);}
	.st51{fill:url(#SVGID_9_);}
	.st52{fill:url(#SVGID_10_);}
	.st53{fill:url(#SVGID_11_);}
	.st54{fill:url(#SVGID_12_);}
	.st55{fill:url(#SVGID_13_);}
	.st56{fill:url(#SVGID_14_);}
	.st57{fill:url(#SVGID_15_);}
	.st58{fill:url(#SVGID_16_);}
	.st59{fill:url(#SVGID_17_);}
	.st60{fill:url(#SVGID_18_);}
	.st61{fill:url(#SVGID_19_);}
	.st62{fill:url(#SVGID_20_);}
	.st63{fill:url(#SVGID_21_);}
	.st64{fill:url(#SVGID_22_);}
	.st65{fill:url(#SVGID_23_);}
	.st66{fill:url(#SVGID_24_);}
	.st67{fill:url(#SVGID_25_);}
	.st68{fill:url(#SVGID_26_);}
	.st69{fill:#D7E4FF;}
</style>
<g>
	<path class="st0" d="M1330.2,435.2C1330.2,435.2,1330.1,435.2,1330.2,435.2l0.2-5h-25.3l1.2,21.1c0.2,3.9,3.5,7,7.5,7h7.9
		c4,0,7.2-3.1,7.5-7l0.3-4.9c0.2,0,0.5,0,0.8,0c3.7,0,6.7-2.5,6.7-5.7C1336.9,437.7,1333.9,435.2,1330.2,435.2z M1330.2,444.2
		c-0.2,0-0.4,0-0.6,0l0.4-6.6c0.1,0,0.2,0,0.2,0c2.4,0,4.4,1.5,4.4,3.3C1334.5,442.7,1332.6,444.2,1330.2,444.2z"/>
	<path class="st1" d="M1320.3,428.3c-2.5-0.3-4.8-1.8-6.4-3.8c-0.8-1-1.4-2.2-1.8-3.5c-0.1-0.3-0.2-0.6-0.2-1c0-0.3-0.1-0.7-0.1-1
		c-0.1-0.7,0-1.3,0-2c0.1-1.3,0.5-2.6,1.1-3.8c0.3-0.6,0.6-1.2,1-1.7c0.4-0.5,0.9-1,1.3-1.4c0.5-0.4,0.9-0.8,1.2-1.1
		c0.2-0.2,0.4-0.3,0.5-0.5c0.2-0.2,0.3-0.4,0.4-0.5c0.2-0.4,0.3-0.8,0.3-1.2c0-0.4-0.1-0.8-0.3-1.1l0.6-0.9c0.3,0.2,0.7,0.4,0.9,0.8
		c0.2,0.3,0.4,0.7,0.5,1.1c0.2,0.7,0.1,1.5-0.1,2.2c-0.5,1.4-1.5,2.4-2.2,3.2c-0.4,0.4-0.7,0.8-0.9,1.2c-0.2,0.2-0.3,0.4-0.4,0.7
		c-0.1,0.2-0.2,0.4-0.3,0.7c-0.4,0.9-0.7,1.9-0.8,2.9c-0.2,2,0.2,4,1.3,5.8c1.1,1.7,2.7,3.2,4.7,4.1L1320.3,428.3z"/>
	<path class="st1" d="M1321.1,422.4c1-0.9,1.9-1.9,2.5-2.9c0.6-1.1,1-2.2,1.3-3.4c0.2-1.2,0.2-2.4-0.1-3.6c-0.2-1.2-0.7-2.4-1.3-3.6
		l0.8-0.8c1.3,0.8,2.3,2.2,2.9,3.7c0.6,1.5,0.8,3.2,0.4,4.8c-0.3,1.6-1.1,3.1-2.1,4.3c-1.1,1.2-2.4,2.1-3.9,2.5L1321.1,422.4z"/>
	<path class="st2" d="M1121.6,463.4c-32.3-6.2-55.1-25-65.7-54.2c-16.8-46.3,1.2-114.6,49.5-129.6c19.1-5.9,42.6,4.7,62.2,4.6
		c27.6-0.2,52.4-17.1,79.8-15c35.7,2.8,61.7,35.7,68.4,69c2.3,11.4,2.6,23.3,0.7,34.8c-2,12.5-6.1,24.8-12.2,35.6
		c-5.3,9.3-17.6,21.7-28.1,24.2L1121.6,463.4z"/>
	<path class="st3" d="M1208,458.2c31.9-7.9,56.3-31.7,64.7-58.9c13.3-43.3-9.9-104.2-59.4-114.6c-10.1-2.1-20.7-1.6-30.9-0.4
		c-16.7,1.9-33.8,4.4-50.6,3.8c-16.3-0.5-32.2-5.3-48.7-5c-54.4,1.2-87,53.2-74.5,100.8c3,11.2,8,22.1,15,31.6
		c6,8.1,19.3,18.5,30,20.1C1053.5,435.7,1208,458.2,1208,458.2z"/>
	<path class="st4" d="M1288,406.3c-8.6,24.7-18.8,49.2-54.3,58.6l-153.6-1.6c-34.6-16.3-53.5-48.6-56.7-83.4
		c-1-11.5-0.4-23.3,2.1-34.9c0.6-3,1.4-6.1,2.2-9.1c7.9-27.4,24.7-53.1,49.7-67.7c16.1-9.4,36.6-6.3,53.7-1.5
		c15.4,4.3,30.4,10.4,46.3,12.2c12.6,1.4,25.5,0.2,38.2,0.7c4.5,0.2,9.1,0.6,13.5,1.4c19.2,3.6,36.2,15.4,47.8,31
		c4,5.4,7.4,11.3,10,17.4C1297.2,353.6,1296.6,381.5,1288,406.3z"/>
	<path class="st5" d="M995.8,443.8c-0.7-8.5,4.1-17.7,12.4-23.9c7.6-5.7,17-8.6,26-10.9c50.1-12.7,103.1-11.2,154.3-9.7
		c45.8,1.3,93.1,2.7,138.4-6.1c6.4-1.2,13.2-2.8,19-6.3c6.2-3.8,10.1-9.9,10.2-15.7c0.2-11-11.7-18.5-18.8-22
		c-27-13.3-60.2-18.3-104.5-15.8c-33.3,1.9-66.8,7.3-99.4,16c-7.3,2-14.8,4.1-22,6.2c-25.8,7.4-52.4,15.1-79.6,15.1
		c-0.1,0-0.3,0-0.4,0c-7.4,0-16.9-1.5-20.1-8.5c-2.3-4.9-0.4-10.6,1.6-14.4c6.7-12.9,19.4-20.4,28.9-24.4c10.6-4.5,22.2-7,33.4-9.4
		c1.3-0.3,2.7-0.6,4-0.9c25-5.4,50-12.1,74.2-20c11.5-3.7,17.4-8.6,18.1-14.9c0.6-5.6-3.5-10.4-7.8-12.8c-5.1-2.8-11.2-3.2-16-3.2
		c0,0,0,0-0.1,0c-14.3,0-28.4,3.5-41,10.1c-4.6,2.5-9.1,5.4-13.5,8.2c-5.8,3.7-11.7,7.6-18.1,10.5c-12.4,5.5-27.1,7.5-43.6,6
		c-12.8-1.2-22.5-4.3-29.8-9.6c-4.4-3.2-8-7.3-11.6-11.3c-4.3-4.8-8.7-9.8-14.4-13.1l0.4-0.7c5.8,3.3,10.3,8.4,14.6,13.2
		c3.5,3.9,7.1,8,11.4,11.2c7.1,5.2,16.8,8.3,29.4,9.4c16.4,1.5,30.9-0.5,43.2-6c6.4-2.8,12.3-6.7,18-10.4c4.4-2.8,8.9-5.8,13.5-8.3
		c12.6-6.7,26.9-10.2,41.3-10.2c0,0,0,0,0.1,0c4.8,0,11,0.4,16.3,3.3c4.5,2.5,8.8,7.6,8.2,13.5c-0.7,6.6-6.8,11.7-18.6,15.5
		c-24.3,7.9-49.3,14.6-74.3,20c-1.3,0.3-2.7,0.6-4,0.9c-11.1,2.4-22.7,4.8-33.2,9.3c-9.4,4-21.9,11.4-28.5,24.1
		c-1.9,3.7-3.8,9.1-1.6,13.7c3.1,6.6,12.2,8.1,19.4,8.1c0.1,0,0.3,0,0.4,0c27.1,0,53.7-7.7,79.4-15.1c7.2-2.1,14.7-4.2,22-6.2
		c32.7-8.7,66.1-14,99.5-16c44.4-2.6,77.8,2.5,104.8,15.8c7.3,3.6,19.4,11.3,19.2,22.7c-0.1,6.1-4.2,12.4-10.6,16.3
		c-5.9,3.6-12.7,5.2-19.3,6.4c-45.4,8.8-92.7,7.4-138.6,6.1c-51.2-1.4-104.1-2.9-154.1,9.8c-8.9,2.3-18.3,5.1-25.8,10.8
		c-8.2,6.1-12.8,15-12.1,23.3L995.8,443.8z"/>
	<path class="st6" d="M1217.5,444.1c10.4,2.7,24.6,5,20.1,13.9l-25.8,0L1217.5,444.1z"/>
	<path class="st7" d="M1110.2,464.9h-25c-8.5,0-15.4-6.9-15.4-15.5v-51c0-8.5,6.9-15.5,15.4-15.5h25c8.5,0,15.5,6.9,15.5,15.5v51
		C1125.7,458,1118.7,464.9,1110.2,464.9z"/>
	<path class="st8" d="M1082.2,390.5c-0.9,0.2-1.6,1.1-2,2c-0.4,0.9-0.7,1.9-0.9,2.8c-0.4,2-0.6,4-0.7,6c-0.2,4-0.1,8.1,0.1,12.1
		c0.2,4,0.6,8.1,1.1,12.1c0.2,2,0.5,4,0.8,6c0.3,2,0.6,4,1,6l-0.3,0.1c-0.5-2-0.9-4-1.3-6c-0.4-2-0.7-4-0.9-6c-0.6-4-1-8.1-1.2-12.2
		c-0.2-4.1-0.3-8.2,0-12.2c0.2-2,0.4-4.1,0.9-6.1c0.3-1,0.6-2,1.1-2.9c0.2-0.5,0.5-0.9,0.9-1.3c0.4-0.4,0.8-0.7,1.4-0.8
		L1082.2,390.5z"/>
	<path class="st9" d="M1091.8,395.9c0,0,1.6,32.1,11.5,67.3h27.2L1091.8,395.9z"/>
	<path class="st10" d="M1104.2,379.6c-6.8-3.7-8.7-12.9-3.7-18.9c0.5-0.6,1-1.2,1.6-1.7c7.6-7.6,2.9-15.2,1.8-32.7
		c-1.1-17.5,18.4-22.2,18.4-22.2c0.9-0.2,2.7-2.8,3.4-3.5c8.8-7.6,21.4-7.1,31-1.3c4.6,2.8,9.2,7,11.7,11.9
		c3.9,7.7,4.6,17.9,11.3,23.9c9.4,8.6,19.9,15.9,19.5,29.7c-0.1,4.9-1.4,10.1-4.4,14c-2.6,3.4-6.6,5.7-10.2,8
		c-5.8,3.6-12,6.8-18.5,8.9c-6.3,2.1-12.7,3.9-19.1,5.7c-0.6,0.2-1.2,0.3-1.8,0.5L1104.2,379.6z"/>
	<path class="st11" d="M1148.7,372c22.8-7.8,35.2,17.7,52.3,67.6l16.4,4.4l-1.9,17.8l-6,1.2l-48.9,0.2L1148.7,372z"/>
	<path class="st1" d="M1343.4,457.4H996v12h347.4V457.4z"/>
	<path class="st11" d="M1116.5,368.3l51.1,12.8l21.5,64.3l-71.7,2.2l-4.7-47.6L1116.5,368.3z"/>
	<path class="st12" d="M1118.4,395.9c12.5,12.6,9.8,31.1,20.5,33c7.1,1.2,27.3,4.1,36.9,8.1c1.9,0.8,7.3,4.8,6.5,8.4
		c-0.5,2.3-7.7,0.4-7.7,0.4l-53.6-5.4l-11.4-26.3L1118.4,395.9z"/>
	<path class="st7" d="M1162.4,442.3c0.4-0.6,8.1-2.1,8.9-2c2.9,0.4,4.4,2.6,5.1,4.4l-11.4,6L1162.4,442.3z"/>
	<path class="st7" d="M1170.9,395.9l1.3,3c0.4,1,0.8,2,1.3,3c0.8,2,1.6,4.1,2.3,6.1c1.5,4.1,2.8,8.3,4,12.5
		c1.2,4.2,2.3,8.5,3.3,12.7c0.5,2.1,0.9,4.3,1.3,6.4c0.4,2.2,0.7,4.3,1,6.5l-0.3,0c-0.4-2.2-0.8-4.3-1.2-6.4
		c-0.4-2.1-0.9-4.3-1.4-6.4c-1-4.2-2.1-8.5-3.3-12.7c-1.2-4.2-2.5-8.4-3.9-12.5c-0.7-2.1-1.4-4.1-2.2-6.2c-0.4-1-0.8-2.1-1.2-3.1
		l-1.2-3L1170.9,395.9z"/>
	<path class="st13" d="M1211.8,453.1c0,0-2.2,2.5-8.9,0.1c-3.2,0.4-9.2,0.1-20.4-1.7c0,0,4.1,2.9,13.4,3.4c0,0-0.4,2.7-5.3,2.6
		c-5.9-0.1-6.6-0.5-11.9-0.3c-1.1,0-3.5,0-6.1-0.1c-4.5-0.1-9.6-0.4-9.6-0.4l-4.5-8l8.9-4.3c2.8-1.1,4.1-1.4,5.5-1.6
		c5.8-0.8,9.4-1.5,13.5-0.8C1190.9,442.8,1204.9,447.4,1211.8,453.1z"/>
	<path class="st6" d="M1172.7,456.9l-0.2,0.1c-4.5-0.1-9.6-0.4-9.6-0.4l-4.5-8l8.9-4.3c2.8-1.1,4.1-1.4,5.4-1.6
		C1169.5,444.1,1166.8,447.6,1172.7,456.9z"/>
	<path class="st11" d="M1137.6,371.9c-11.6-2.4-39.9-4.4-47.8,10.3c-6.5,12.1,9.8,52.5,16.9,66.7c2.9,5.9,11.4,8.7,14.6,8.8
		l46.7-0.3c-3.1-0.7-7.1-17.6,3.4-17.1l-38.6-5.4c-1.5-0.2-2.8-1.1-3.7-2.3c-0.6-0.9-1.2-1.9-1.5-3.1l-11-40.2L1137.6,371.9z"/>
	<path class="st5" d="M1240.8,457.6l-45.5,0v-4.3h45.8L1240.8,457.6z"/>
	<path class="st7" d="M1279.3,457.6l-54.9,0l20-58.6h54.9L1279.3,457.6z"/>
	<path class="st5" d="M1266.3,431.5c-1.7,2.7-4.8,3.8-7.2,2.6c-0.2-0.1-0.3-0.1-0.4-0.2c-2.4-1.5-3-5.1-1.2-7.9
		c1.8-2.8,5.2-3.9,7.6-2.4c0.7,0.5,1.3,1.1,1.7,1.9C1267.6,427.2,1267.5,429.5,1266.3,431.5z"/>
	<path class="st11" d="M1266.3,431.5c-1.7,2.7-5.8,4.6-8.7,1.4c6.3,0.6,8.4-3.6,8.3-8.8C1268,426.5,1267.5,429.5,1266.3,431.5z"/>
	<path class="st10" d="M1186.3,441.8c2.3,0.3,4.6,1,6.8,1.7c2.2,0.7,4.4,1.5,6.6,2.4c2.2,0.9,4.3,1.9,6.3,3c2.1,1.2,4.1,2.4,5.8,4
		l-0.2,0.2c-0.9-0.7-1.9-1.3-2.9-1.9c-1-0.6-2-1.2-3-1.7c-2.1-1.1-4.2-2.1-6.3-2.9c-2.1-0.9-4.3-1.7-6.5-2.5
		c-1.1-0.4-2.2-0.8-3.3-1.1c-1.1-0.3-2.2-0.7-3.4-0.9L1186.3,441.8z"/>
	<path class="st10" d="M1185.4,452.7l2.5,0.7c0.8,0.2,1.6,0.4,2.5,0.6c0.8,0.2,1.7,0.3,2.5,0.4c0.8,0.1,1.7,0.2,2.5,0.3l0.3,0l0,0.2
		c0,0.3,0,0.6-0.1,0.9c-0.1,0.3-0.3,0.6-0.5,0.8c-0.2,0.2-0.5,0.3-0.8,0.4c-0.1,0-0.3,0-0.4,0.1l-0.4,0v-0.3l0.4-0.1
		c0.1,0,0.2-0.1,0.3-0.1c0.2-0.1,0.4-0.2,0.5-0.4c0.1-0.2,0.2-0.3,0.3-0.5c0-0.2,0-0.4,0-0.7l0.3,0.3c-1.7,0-3.5-0.2-5.1-0.6
		c-0.9-0.2-1.7-0.4-2.5-0.7c-0.8-0.3-1.6-0.6-2.4-1L1185.4,452.7z"/>
	<path class="st10" d="M1183.3,446.8c2,0.2,4,0.4,6,0.7c2,0.2,4,0.4,6,0.7c2,0.3,3.9,0.7,5.9,1c2,0.4,3.9,0.7,5.9,1.1l0.5,0.1
		l-0.2,0.4c-0.1,0.3-0.2,0.7-0.5,1.1c-0.1,0.2-0.3,0.3-0.4,0.5c-0.2,0.1-0.3,0.3-0.5,0.4c-0.7,0.4-1.5,0.6-2.2,0.7
		c-1.5,0.2-3,0.2-4.5,0.2c-0.8,0-1.5-0.1-2.2-0.1c-0.8-0.1-1.5-0.1-2.2-0.2c-1.5-0.2-3-0.4-4.4-0.6l0-0.3c1.5,0.1,3,0.3,4.5,0.4
		c0.7,0.1,1.5,0.1,2.2,0.1c0.7,0,1.5,0.1,2.2,0.1c1.5,0,3,0,4.4-0.3c0.7-0.1,1.4-0.3,2-0.6c0.2-0.1,0.3-0.2,0.4-0.3
		c0.1-0.1,0.2-0.2,0.3-0.4c0.2-0.3,0.3-0.6,0.4-1l0.3,0.5c-3.9-0.7-7.8-1.5-11.8-2.2c-2-0.3-3.9-0.6-5.9-0.9c-2-0.3-4-0.5-5.9-0.9
		L1183.3,446.8z"/>
	<path class="st14" d="M996,457.4h347.4"/>
	<path class="st7" d="M1131.9,387.1c1.7,1.1,3.5,2,5.5,2.4c2,0.4,4,0.6,6,0.2c2-0.3,3.9-1.1,5.5-2.3c1.6-1.2,2.9-2.8,3.8-4.6
		l0.3,0.1c-0.2,0.5-0.4,1-0.6,1.4c-0.3,0.4-0.6,0.9-0.8,1.3c-0.3,0.4-0.7,0.8-1,1.2c-0.4,0.4-0.8,0.7-1.2,1.1
		c-1.7,1.3-3.7,2.2-5.8,2.5c-2.1,0.3-4.2,0.2-6.3-0.3c-2-0.5-3.9-1.5-5.6-2.8L1131.9,387.1z"/>
	<path class="st7" d="M1118.5,395.9l2.5,8.7l2.5,8.7l2.5,8.7l1.2,4.4l0.6,2.2c0.2,0.7,0.4,1.5,0.7,2.1c0.6,1.3,1.7,2.3,3,2.9
		c1.3,0.7,2.7,1.1,4.2,1.4c1.5,0.3,2.9,0.5,4.4,0.7l4.5,0.6l9,1.2l8.9,1.3l0,0.3l-9-1.1l-9-1.1l-4.5-0.6c-1.5-0.2-3-0.4-4.5-0.7
		c-1.5-0.3-3-0.7-4.4-1.4c-1.4-0.7-2.7-1.8-3.3-3.3c-0.1-0.2-0.2-0.4-0.2-0.5c-0.1-0.2-0.1-0.4-0.2-0.5l-0.3-1.1l-0.6-2.2l-1.2-4.4
		l-2.4-8.7l-2.4-8.7l-2.3-8.7L1118.5,395.9z"/>
	<path class="st13" d="M1147.5,353.8l2.3,19.7c0.7,5.9-5.5,10.8-11.8,9.1c-3.6-0.9-7.3-3.4-11.2-7.1c-0.8-0.8-1.3-1.7-1.4-2.8
		l-2.4-23.7L1147.5,353.8z"/>
	<path class="st15" d="M1147.8,356.4l1.2,10.7c-5.1,0.8-12.2-2.1-19.4-11.7L1147.8,356.4z"/>
	<path class="st13" d="M1160.3,339.6c-0.3,3.6-0.9,7.3-1.9,10.7c-1.7,5.6-4.7,10.2-9.7,11c-14.9,2.5-25.7-12.3-25.7-12.3l-1.7-20.1
		l9-15.6l20.1-0.6l9.8,11.6C1160.3,324.2,1161,331.5,1160.3,339.6z"/>
	<path class="st10" d="M1120.8,336.4c8-0.6,9.8-7.4,10.4-16.1c0,0,21.7-5.4,29.3,10l5.8,0.6l-17.7-23.4l-27.4,3.3l-5.4,17.8
		L1120.8,336.4z"/>
	<path class="st13" d="M1125.1,333.8c-0.9-1-2.3-1.6-3.8-1.4c-5.3,0.6-6.2,7.7-5,10.7c1.8,4.5,6.8,5.8,6.8,5.8l4.2-4.5
		C1127.6,339.8,1127.1,336,1125.1,333.8z"/>
	<path class="st16" d="M1125.1,354.3c2.9,8.3,11.9,31.7-2.8,31.1c-7.1-0.3-13.3-14-23.4-11.4c1.1-0.5,2.4-1,3.8-1.5L1125.1,354.3z"
		/>
	<path class="st10" d="M1123,348.9c2.8,5.4,10.8,32-2.7,30.4c-6.5-0.7-8.1-8.6-17.5-6.7L1123,348.9z"/>
	<path class="st15" d="M1123.5,338.7c0-0.6-0.2-1.2-0.5-1.7c-0.3-0.5-0.8-0.9-1.2-1.1c-0.5-0.2-1-0.3-1.5-0.1
		c-0.5,0.2-1,0.6-1.4,1.1l-0.3-0.2c0.3-0.6,0.7-1.3,1.4-1.6c0.2-0.1,0.3-0.2,0.6-0.2c0.2,0,0.4-0.1,0.6-0.1h0.3l0.3,0.1
		c0.2,0,0.4,0.1,0.6,0.2c0.7,0.3,1.3,0.9,1.6,1.6c0.3,0.7,0.4,1.5,0.1,2.2L1123.5,338.7z"/>
	<path class="st15" d="M1152,335.7c0,1.4,0.9,2.5,1.8,2.4c0.9,0,1.6-1.2,1.6-2.5c0-1.4-0.8-2.5-1.8-2.4
		C1152.7,333.2,1152,334.3,1152,335.7z"/>
	<path class="st15" d="M1137.2,336.2c0,1.4,0.9,2.5,1.8,2.4c0.9,0,1.7-1.2,1.6-2.5s-0.8-2.5-1.8-2.4
		C1137.9,333.7,1137.2,334.8,1137.2,336.2z"/>
	<path class="st15" d="M1151.8,349.6c-0.6,0.8-1.4,1.6-2.4,2.1c-1,0.5-2.3,0.5-3.3,0.2c-1.1-0.3-2-0.9-2.8-1.5
		c-0.8-0.7-1.5-1.4-2.2-2.2l0.3-0.3c0.8,0.6,1.6,1.2,2.5,1.7c0.8,0.5,1.7,1,2.6,1.3c0.9,0.3,1.8,0.2,2.7,0c0.9-0.3,1.7-0.9,2.5-1.5
		L1151.8,349.6z"/>
	<path class="st15" d="M1157,331.4c-0.7-0.4-1.3-0.9-1.9-1.2c-0.6-0.3-1.2-0.4-1.8-0.3c-0.6,0.1-1.3,0.3-1.9,0.6
		c-0.7,0.3-1.3,0.7-2,1l-0.2-0.2c0.4-0.7,0.9-1.4,1.6-1.9c0.7-0.5,1.5-0.9,2.5-1c0.9-0.1,1.9,0.2,2.6,0.8c0.7,0.5,1.2,1.2,1.5,2
		L1157,331.4z"/>
	<path class="st15" d="M1142.2,331.9c-0.7-0.5-1.4-0.9-2.1-1.1c-0.7-0.2-1.5-0.3-2.2-0.2c-0.7,0.1-1.5,0.3-2.2,0.6
		c-0.7,0.3-1.5,0.7-2.3,1.1l-0.2-0.2c0.5-0.8,1.1-1.4,1.8-2c0.8-0.5,1.7-0.9,2.7-1c1-0.1,2,0.1,2.8,0.6c0.8,0.5,1.5,1.2,1.9,2.1
		L1142.2,331.9z"/>
	<path class="st17" d="M1127.9,345.6c0.1,3,2.6,5.3,5.6,5.2c3-0.1,5.3-2.6,5.2-5.6c-0.1-3-2.6-5.3-5.6-5.2
		C1130.1,340.2,1127.8,342.7,1127.9,345.6z"/>
	<path class="st17" d="M1160.3,339.6c-0.3,3.6-0.9,7.3-1.9,10.7c-2.3-0.6-4-2.6-4.1-5.1c-0.1-3,2.2-5.5,5.2-5.6
		C1159.8,339.5,1160.1,339.5,1160.3,339.6z"/>
	<path class="st17" d="M1145.9,334.6c0-0.3,0.4-0.3,0.4,0c1.2,3.9,5.2,6.8,4.5,8c-0.4,0.8-2.1,1.7-3.3,2.3c-0.6,0.3-1.4-0.1-1.5-0.7
		C1145.5,341.2,1145.6,338,1145.9,334.6z"/>
	<path class="st15" d="M1146.7,334.2c0.3,1.2,0.8,2.2,1.4,3.2c0.6,1,1.4,1.9,2.2,2.9c0.2,0.2,0.4,0.5,0.6,0.8
		c0.2,0.3,0.4,0.5,0.5,0.9c0.1,0.2,0.1,0.4,0.1,0.7c-0.1,0.3-0.2,0.5-0.3,0.6c-0.2,0.3-0.5,0.5-0.8,0.7c-1.1,0.7-2.2,1.2-3.4,1.5
		l-0.2-0.4c0.5-0.3,1.1-0.6,1.5-0.9c0.5-0.3,1-0.7,1.4-1c0.2-0.2,0.4-0.4,0.6-0.5c0.1-0.1,0.1-0.2,0.1-0.2c0,0,0-0.1,0-0.2
		c-0.2-0.4-0.6-0.9-0.9-1.4c-0.7-1-1.5-2-2.1-3.1c-0.6-1.1-1-2.4-1.1-3.6L1146.7,334.2z"/>
	<path class="st15" d="M1118.3,350.4c-0.3,0.8-0.4,1.6-0.4,2.4c0.1,0.8,0.3,1.6,0.6,2.4c0.7,1.5,1.5,3,2.3,4.6
		c0.8,1.5,1.5,3.2,1.8,5c0.1,0.9,0.2,1.8,0.1,2.7c-0.1,0.4-0.1,0.9-0.2,1.4c-0.1,0.4-0.3,0.9-0.5,1.3c-0.4,0.8-1.1,1.6-1.9,2.1
		c-0.8,0.5-1.8,0.8-2.8,0.7c-1-0.1-1.8-0.5-2.6-0.8c-0.8-0.3-1.6-0.7-2.4-1c-1.6-0.7-3.2-1.4-4.8-1.7c-0.8-0.2-1.7-0.2-2.4,0
		c-0.4,0.1-0.8,0.3-1.1,0.5c-0.3,0.2-0.6,0.5-0.8,0.9l-0.3-0.2c0.2-0.4,0.5-0.8,0.8-1.1c0.4-0.3,0.8-0.5,1.2-0.7
		c0.9-0.3,1.8-0.3,2.7-0.2c1.8,0.3,3.4,0.9,5,1.6l2.4,1c0.8,0.3,1.6,0.6,2.3,0.7c0.8,0.1,1.5-0.1,2.2-0.5c0.7-0.4,1.2-1,1.5-1.7
		c0.2-0.3,0.3-0.7,0.4-1.1c0.1-0.4,0.1-0.8,0.2-1.2c0.1-0.8,0-1.6-0.1-2.5c-0.3-1.6-0.9-3.2-1.6-4.8c-0.7-1.6-1.5-3.1-2.2-4.7
		c-0.3-0.8-0.5-1.7-0.5-2.6c0-0.9,0.2-1.8,0.6-2.6L1118.3,350.4z"/>
	<path class="st15" d="M1118.6,305.1c1.5-0.7,3-1.1,4.5-1.5c1.6-0.4,3.1-0.7,4.7-1c1.6-0.2,3.2-0.4,4.8-0.4c0.8,0,1.6,0,2.4,0
		c0.8,0.1,1.6,0.1,2.4,0.3l-0.1,0.4c-0.8,0-1.6-0.1-2.3,0c-0.8,0-1.6,0.1-2.3,0.1c-1.6,0.1-3.1,0.3-4.7,0.5
		c-1.5,0.2-3.1,0.5-4.6,0.8c-0.8,0.1-1.6,0.3-2.3,0.5c-0.8,0.2-1.5,0.4-2.3,0.6L1118.6,305.1z"/>
	<path class="st15" d="M1131.1,320.1c0.7-0.3,1.3-0.5,2-0.7c0.7-0.2,1.4-0.3,2.1-0.4c1.4-0.2,2.8-0.3,4.2-0.3c2.8,0,5.7,0.4,8.4,1.1
		c2.7,0.8,5.4,2,7.6,3.7c1.1,0.9,2.2,1.9,3,3c0.9,1.1,1.6,2.4,2.2,3.7l-0.3,0.2c-1.3-2.4-3.1-4.6-5.4-6.1c-1.1-0.8-2.3-1.5-3.5-2.1
		c-1.2-0.6-2.5-1-3.9-1.4c-2.6-0.8-5.4-1.1-8.2-1.2c-1.4-0.1-2.8,0-4.1,0.1c-1.4,0.1-2.8,0.3-4,0.8L1131.1,320.1z"/>
	<path class="st15" d="M1035.4,396l5.2,1.7c0.5,0.1,0.8,0.5,0.8,1c0,0.5-0.2,0.9-0.7,1.1l-5.7,2.7v0.1l8,1.6
		c0.3,0.1,0.5,0.3,0.4,0.7c-0.1,0.3-0.3,0.5-0.6,0.4l-8-1.6c-0.5-0.1-0.9-0.5-0.9-1c-0.1-0.5,0.2-1,0.7-1.2l5.7-2.7v-0.1l-5.2-1.7
		c-0.3-0.1-0.5-0.4-0.4-0.7C1034.8,396,1035.1,395.9,1035.4,396z"/>
	<path class="st15" d="M1021.9,388.8l4.6,1.5c0.4,0.1,0.7,0.5,0.7,0.9c0,0.4-0.2,0.8-0.6,1l-5.1,2.4v0.1l7.1,1.4
		c0.3,0.1,0.4,0.3,0.4,0.6c-0.1,0.3-0.3,0.4-0.6,0.4l-7.1-1.4c-0.5-0.1-0.8-0.4-0.8-0.9c-0.1-0.4,0.2-0.9,0.6-1.1l5.1-2.4v-0.1
		l-4.6-1.5c-0.3-0.1-0.4-0.4-0.3-0.6C1021.4,388.8,1021.6,388.7,1021.9,388.8z"/>
	<path class="st15" d="M1049.9,407l3.7,1.2c0.3,0.1,0.5,0.4,0.6,0.7c0,0.3-0.2,0.6-0.5,0.8l-4,1.9v0.1l5.6,1.1
		c0.2,0,0.3,0.2,0.3,0.5c0,0.2-0.2,0.3-0.5,0.3l-5.6-1.1c-0.3-0.1-0.6-0.3-0.7-0.7c0-0.3,0.1-0.7,0.4-0.8l4-1.9V409l-3.7-1.2
		c-0.2-0.1-0.3-0.3-0.2-0.5C1049.5,407.1,1049.7,406.9,1049.9,407z"/>
	<path class="st18" d="M1279.9,378.1h-16.3c-2.7,0-4.9-2.2-4.9-4.9v-14.7c0-2.7,2.2-4.9,4.9-4.9h16.3c2.7,0,4.8,2.2,4.8,4.9v14.7
		C1284.8,376,1282.6,378.1,1279.9,378.1z"/>
	<path class="st9" d="M1271.7,383l-4.7-4.8h9.5L1271.7,383z"/>
	<path class="st9" d="M1271.3,372.9c-0.2,0-0.5-0.1-0.7-0.3l-4.7-5.6c-0.3-0.4-0.3-0.9,0.1-1.2c0.4-0.3,0.9-0.3,1.2,0.1l3.9,4.6
		l6.1-11c0.2-0.4,0.8-0.6,1.2-0.3c0.4,0.2,0.6,0.8,0.3,1.2l-6.7,12.1C1272,372.6,1271.7,372.8,1271.3,372.9
		C1271.4,372.9,1271.4,372.9,1271.3,372.9z"/>
	<path class="st19" d="M1267,314h8.6l-6.9-44.4h-8.6L1267,314z"/>
	<path class="st20" d="M1275.5,314h8.6l-6.8-44.4h-8.6L1275.5,314z"/>
	<path class="st19" d="M1319.1,293.6h-31.7V314h31.7V293.6z"/>
	<path class="st5" d="M1309.9,300.3h-13.4v3.6h13.4V300.3z"/>
	<path class="st20" d="M1260.1,256.2h-14.9V314h14.9V256.2z"/>
	<path class="st19" d="M1326.4,314h-89.3v6.4h89.3V314z"/>
	<path class="st21" d="M1182.9,252.6c6.7-6.7,6.7-17.5,0-24.2c-6.7-6.7-17.5-6.7-24.2,0c-6.7,6.7-6.7,17.5,0,24.2
		C1165.4,259.3,1176.2,259.3,1182.9,252.6z"/>
	<path class="st22" d="M1170,229.3v13h12"/>
	<path class="st20" d="M1079.6,283.8h-44.7c-3.5,0-6.3-2.8-6.3-6.3v-25.1c0-3.5,2.8-6.3,6.3-6.3h44.7c3.4,0,6.3,2.8,6.3,6.3v25.1
		C1085.9,281,1083.1,283.8,1079.6,283.8z"/>
	<path class="st19" d="M1078.6,255.6h-42.8v3.6h42.8V255.6z"/>
	<path class="st8" d="M1078.6,263.2h-42.8v3.6h42.8V263.2z"/>
	<path class="st8" d="M1078.6,270.8h-42.8v3.6h42.8V270.8z"/>
	<path class="st23" d="M1043.1,322l-8.1-6.4h16.2L1043.1,322z"/>
	<path class="st23" d="M1053.4,315.6h-44.7c-3.4,0-6.3-2.8-6.3-6.3v-25.1c0-3.5,2.8-6.3,6.3-6.3h44.7c3.5,0,6.3,2.8,6.3,6.3v25.1
		C1059.7,312.8,1056.9,315.6,1053.4,315.6z"/>
	<g class="st24">
		<path class="st8" d="M1020.1,299.4h-5.6v6.9h5.6V299.4z"/>
		<path class="st8" d="M1029,291.8h-5.6v14.5h5.6V291.8z"/>
		<path class="st8" d="M1038.3,295.1h-5.6v11.2h5.6V295.1z"/>
		<path class="st8" d="M1047.6,287.3h-5.6v19h5.6V287.3z"/>
	</g>
	<line class="st25" x1="91" y1="227.8" x2="289" y2="227.8"/>
	<line class="st25" x1="288" y1="366.8" x2="950" y2="366.8"/>
	<line class="st25" x1="288.5" y1="227.3" x2="288.5" y2="367.3"/>
	<line class="st25" x1="1098" y1="366.8" x2="952" y2="366.8"/>
	<line class="st26" x1="1231" y1="436.8" x2="1097" y2="436.8"/>
	<line class="st26" x1="1097.5" y1="436.3" x2="1097.5" y2="366.3"/>
	<path class="st27" d="M492.2,291.3c-0.5-1.6-1.1-3.1-1.9-4.6l1.2-3.9l-7.7-7.7l-3.9,1.2c-1.5-0.8-3-1.4-4.6-1.9l-1.9-3.6h-10.8
		l-1.9,3.6c-1.6,0.5-3.1,1.1-4.6,1.9l-3.9-1.2l-7.7,7.7l1.2,3.9c-0.8,1.5-1.4,3-1.9,4.6l-3.6,1.9V304l3.6,1.9
		c0.5,1.6,1.1,3.1,1.9,4.6l-1.2,3.9l7.7,7.7l3.9-1.2c1.5,0.8,3,1.4,4.6,1.9l1.9,3.6h10.8l1.9-3.6c1.6-0.5,3.1-1.1,4.6-1.9l3.9,1.2
		l7.7-7.7l-1.2-3.9c0.8-1.5,1.4-3,1.9-4.6l3.6-1.9v-10.8L492.2,291.3z M468,314c-3,0-6-0.9-8.6-2.6c-2.5-1.7-4.5-4.1-5.7-6.9
		c-1.2-2.8-1.5-5.9-0.9-8.9c0.6-3,2.1-5.7,4.2-7.9c2.2-2.2,4.9-3.6,7.9-4.2c3-0.6,6.1-0.3,8.9,0.9c2.8,1.2,5.2,3.1,6.9,5.7
		c1.7,2.5,2.6,5.5,2.6,8.6c0,4.1-1.6,8-4.5,10.9C476,312.3,472.1,314,468,314z"/>
	<path class="st28" d="M492.2,291.3c-0.5-1.6-1.1-3.1-1.9-4.6l1.2-3.9l-7.7-7.7l-3.9,1.2c-1.5-0.8-3-1.4-4.6-1.9l-1.9-3.6h-10.8
		l-1.9,3.6c-1.6,0.5-3.1,1.1-4.6,1.9l-3.9-1.2l-7.7,7.7l1.2,3.9c-0.8,1.5-1.4,3-1.9,4.6l-3.6,1.9V304l3.6,1.9
		c0.5,1.6,1.1,3.1,1.9,4.6l-1.2,3.9l7.7,7.7l3.9-1.2c1.5,0.8,3,1.4,4.6,1.9l1.9,3.6h10.8l1.9-3.6c1.6-0.5,3.1-1.1,4.6-1.9l3.9,1.2
		l7.7-7.7l-1.2-3.9c0.8-1.5,1.4-3,1.9-4.6l3.6-1.9v-10.8L492.2,291.3z M468,314c-3,0-6-0.9-8.6-2.6c-2.5-1.7-4.5-4.1-5.7-6.9
		c-1.2-2.8-1.5-5.9-0.9-8.9c0.6-3,2.1-5.7,4.2-7.9c2.2-2.2,4.9-3.6,7.9-4.2c3-0.6,6.1-0.3,8.9,0.9c2.8,1.2,5.2,3.1,6.9,5.7
		c1.7,2.5,2.6,5.5,2.6,8.6c0,4.1-1.6,8-4.5,10.9C476,312.3,472.1,314,468,314z"/>
	<path class="st27" d="M468,293.5c-1,0-2,0.3-2.8,0.9c-0.8,0.6-1.5,1.4-1.9,2.3c-0.4,0.9-0.5,2-0.3,2.9c0.2,1,0.7,1.9,1.4,2.6
		c0.7,0.7,1.6,1.2,2.6,1.4c1,0.2,2,0.1,2.9-0.3c0.9-0.4,1.7-1,2.3-1.9c0.6-0.8,0.9-1.8,0.9-2.8c0-1.4-0.5-2.7-1.5-3.6
		C470.7,294,469.4,293.5,468,293.5z"/>
	<path class="st27" d="M569.3,308.4c-0.7-2.3-1.6-4.5-2.7-6.6l1.7-5.5l-10.9-10.9l-5.5,1.7c-2.1-1.1-4.3-2-6.6-2.7l-2.7-5.1H527
		l-2.7,5.1c-2.3,0.7-4.5,1.6-6.6,2.7l-5.5-1.7l-10.9,10.9l1.7,5.5c-1.1,2.1-2,4.3-2.7,6.6l-5.1,2.7v15.5l5.1,2.7
		c0.7,2.3,1.6,4.5,2.7,6.6l-1.7,5.5l10.9,10.9l5.5-1.7c2.1,1.1,4.3,2,6.6,2.7l2.7,5.1h15.5l2.7-5.1c2.3-0.7,4.5-1.6,6.6-2.7l5.5,1.7
		l10.9-10.9l-1.7-5.5c1.1-2.1,2-4.3,2.7-6.6l5.1-2.7v-15.5L569.3,308.4z M534.8,347c-5.6,0-11-1.6-15.6-4.7
		c-4.6-3.1-8.2-7.5-10.3-12.6c-2.1-5.1-2.7-10.8-1.6-16.2c1.1-5.4,3.8-10.4,7.7-14.4c3.9-3.9,8.9-6.6,14.4-7.7
		c5.4-1.1,11.1-0.5,16.2,1.6c5.1,2.1,9.5,5.7,12.6,10.3c3.1,4.6,4.7,10,4.7,15.6c0,3.7-0.7,7.3-2.1,10.7c-1.4,3.4-3.5,6.5-6.1,9.1
		c-2.6,2.6-5.7,4.7-9.1,6.1C542.1,346.2,538.4,347,534.8,347z"/>
	<path class="st27" d="M534.8,294.8c-4.8,0-9.4,1.4-13.4,4.1c-4,2.7-7.1,6.4-8.9,10.8c-1.8,4.4-2.3,9.3-1.4,13.9
		c0.9,4.7,3.2,9,6.6,12.4s7.7,5.7,12.4,6.6c4.7,0.9,9.5,0.5,13.9-1.4c4.4-1.8,8.2-4.9,10.8-8.9c2.7-4,4.1-8.6,4.1-13.4
		c0-6.4-2.6-12.5-7.1-17.1C547.3,297.3,541.2,294.8,534.8,294.8z M534.8,339.8c-4.1,0-8.2-1.2-11.6-3.5c-3.4-2.3-6.1-5.6-7.7-9.4
		c-1.6-3.8-2-8-1.2-12.1c0.8-4.1,2.8-7.8,5.7-10.7c2.9-2.9,6.7-4.9,10.7-5.7c4.1-0.8,8.3-0.4,12.1,1.2c3.8,1.6,7.1,4.3,9.4,7.7
		c2.3,3.4,3.5,7.5,3.5,11.6c0,5.5-2.2,10.9-6.1,14.8C545.6,337.6,540.3,339.8,534.8,339.8z"/>
	<path class="st29" d="M534.8,294.8c-4.8,0-9.4,1.4-13.4,4.1c-4,2.7-7.1,6.4-8.9,10.8c-1.8,4.4-2.3,9.3-1.4,13.9
		c0.9,4.7,3.2,9,6.6,12.4s7.7,5.7,12.4,6.6c4.7,0.9,9.5,0.5,13.9-1.4c4.4-1.8,8.2-4.9,10.8-8.9c2.7-4,4.1-8.6,4.1-13.4
		c0-6.4-2.6-12.5-7.1-17.1C547.3,297.3,541.2,294.8,534.8,294.8z M534.8,339.8c-4.1,0-8.2-1.2-11.6-3.5c-3.4-2.3-6.1-5.6-7.7-9.4
		c-1.6-3.8-2-8-1.2-12.1c0.8-4.1,2.8-7.8,5.7-10.7c2.9-2.9,6.7-4.9,10.7-5.7c4.1-0.8,8.3-0.4,12.1,1.2c3.8,1.6,7.1,4.3,9.4,7.7
		c2.3,3.4,3.5,7.5,3.5,11.6c0,5.5-2.2,10.9-6.1,14.8C545.6,337.6,540.3,339.8,534.8,339.8z"/>
	<path class="st27" d="M479.3,360.1c-0.2,0-0.3-0.1-0.4-0.2s-0.2-0.3-0.2-0.4v-1.2c0-0.2,0.1-0.3,0.2-0.4s0.3-0.2,0.4-0.2
		s0.3,0.1,0.4,0.2c0.1,0.1,0.2,0.3,0.2,0.4v1.2c0,0.2-0.1,0.3-0.2,0.4C479.6,360,479.5,360.1,479.3,360.1z"/>
	<path class="st27" d="M470.1,344.8c-0.5-0.3-1-0.9-1.2-1.5c-0.1-0.1-0.2-0.3-0.3-0.3c-0.1-0.1-0.3-0.1-0.5,0
		c-0.1,0.1-0.3,0.2-0.3,0.3c-0.1,0.1-0.1,0.3,0,0.5c0.3,0.8,0.9,1.5,1.7,2c0.1,0.1,0.2,0.1,0.3,0.1c0.1,0,0.3,0,0.4-0.1
		c0.1-0.1,0.2-0.2,0.2-0.3c0-0.1,0-0.3,0-0.4C470.3,345,470.2,344.9,470.1,344.8z"/>
	<path class="st27" d="M468,337.4c0.2,0,0.3-0.1,0.4-0.2c0.1-0.1,0.2-0.3,0.2-0.4v-2.3c0-0.2-0.1-0.3-0.2-0.4
		c-0.1-0.1-0.3-0.2-0.4-0.2c-0.2,0-0.3,0.1-0.4,0.2c-0.1,0.1-0.2,0.3-0.2,0.4v2.3c0,0.2,0.1,0.3,0.2,0.4
		C467.7,337.3,467.9,337.4,468,337.4z"/>
	<path class="st27" d="M474.2,345.3h-2.3c-0.2,0-0.3,0.1-0.4,0.2c-0.1,0.1-0.2,0.3-0.2,0.4c0,0.2,0.1,0.3,0.2,0.4
		c0.1,0.1,0.3,0.2,0.4,0.2h2.3c0.2,0,0.3-0.1,0.4-0.2c0.1-0.1,0.2-0.3,0.2-0.4c0-0.2-0.1-0.3-0.2-0.4
		C474.5,345.4,474.3,345.3,474.2,345.3z"/>
	<path class="st27" d="M468.6,341.3v-2.3c0-0.2-0.1-0.3-0.2-0.4c-0.1-0.1-0.3-0.2-0.4-0.2c-0.2,0-0.3,0.1-0.4,0.2
		c-0.1,0.1-0.2,0.3-0.2,0.4v2.3c0,0.2,0.1,0.3,0.2,0.4c0.1,0.1,0.3,0.2,0.4,0.2c0.2,0,0.3-0.1,0.4-0.2
		C468.6,341.7,468.6,341.5,468.6,341.3z"/>
	<path class="st27" d="M479.9,349.2c0-0.2-0.1-0.3-0.2-0.4c-0.1-0.1-0.3-0.1-0.4-0.1c-0.1,0-0.2,0-0.2,0.1c-0.1,0-0.1,0.1-0.2,0.2
		c0,0.1-0.1,0.1-0.1,0.2c0,0.1,0,0.2,0,0.2c0,0.1,0,0.3,0,0.4v1.8c0,0.2,0.1,0.3,0.2,0.4c0.1,0.1,0.3,0.2,0.4,0.2s0.3-0.1,0.4-0.2
		c0.1-0.1,0.2-0.3,0.2-0.4v-1.8C479.9,349.6,479.9,349.4,479.9,349.2z"/>
	<path class="st27" d="M479.3,353.2c-0.2,0-0.3,0.1-0.4,0.2c-0.1,0.1-0.2,0.3-0.2,0.4v2.3c0,0.2,0.1,0.3,0.2,0.4s0.3,0.2,0.4,0.2
		s0.3-0.1,0.4-0.2c0.1-0.1,0.2-0.3,0.2-0.4v-2.3c0-0.2-0.1-0.3-0.2-0.4C479.6,353.2,479.5,353.2,479.3,353.2z"/>
	<path class="st27" d="M478.8,346.8c-0.6-0.7-1.3-1.1-2.2-1.4c-0.1,0-0.2,0-0.2,0c-0.1,0-0.2,0-0.2,0.1c-0.1,0-0.1,0.1-0.2,0.2
		c0,0.1-0.1,0.1-0.1,0.2c0,0.1,0,0.2,0,0.2c0,0.1,0,0.2,0.1,0.2c0,0.1,0.1,0.1,0.2,0.2c0.1,0,0.1,0.1,0.2,0.1c0.6,0.2,1.2,0.5,1.6,1
		c0.1,0.1,0.1,0.1,0.2,0.1c0.1,0,0.2,0.1,0.2,0.1c0.1,0,0.2,0,0.3-0.1c0.1-0.1,0.2-0.1,0.2-0.3c0-0.1,0.1-0.2,0-0.3
		C478.9,347,478.9,346.9,478.8,346.8z"/>
	<path class="st27" d="M468,332.8c-0.2,0-0.3-0.1-0.4-0.2c-0.1-0.1-0.2-0.3-0.2-0.4v-1.2c0-0.2,0.1-0.3,0.2-0.4
		c0.1-0.1,0.3-0.2,0.4-0.2c0.2,0,0.3,0.1,0.4,0.2c0.1,0.1,0.2,0.3,0.2,0.4v1.2c0,0.2-0.1,0.3-0.2,0.4
		C468.3,332.8,468.2,332.8,468,332.8z"/>
	<path class="st27" d="M507.4,389.9H370.3v2.2h137.1V389.9z"/>
	<path class="st27" d="M507.4,392.1h29.7v-2.2h-29.7V392.1z"/>
	<path class="st29" d="M507.4,392.1h29.7v-2.2h-29.7V392.1z"/>
	<path class="st27" d="M527.2,394.4H380.2l-4.9-2.3h156.8L527.2,394.4z"/>
	<path class="st30" d="M527.2,394.4H380.2l-4.9-2.3h156.8L527.2,394.4z"/>
	<path class="st27" d="M384.7,394.4v70.1h1.9l2.4-70.1H384.7z"/>
	<path class="st27" d="M406.9,394.4v70.1h1.9l2.4-70.1H406.9z"/>
	<path class="st27" d="M527.2,394.4v70.1h-1.9l-2.4-70.1H527.2z"/>
	<path class="st27" d="M504.9,394.4v70.1h-1.9l-2.4-70.1H504.9z"/>
	<path class="st27" d="M460.2,363.3l-6.2,25.2l-0.2,1.4h42.7l0.2-1.4l6.2-25.2H460.2z"/>
	<path class="st31" d="M460.2,363.3l-6.2,25.2l-0.2,1.4h42.7l0.2-1.4l6.2-25.2H460.2z"/>
	<path class="st27" d="M501.6,363.3h-42.7l-6.2,25.2h42.7L501.6,363.3z"/>
	<path class="st5" d="M494.5,387.3l5.6-22.9h-40.3l-5.6,22.9H494.5z"/>
	<path class="st27" d="M484.3,388.5l-0.2,1.4h-47l0.2-1.4H484.3z"/>
	<path class="st30" d="M484.3,388.5l-0.2,1.4h-47l0.2-1.4H484.3z"/>
	<path class="st27" d="M395.5,385.3c0-0.9-0.4-1.8-1-2.4c-0.6-0.7-1.4-1.1-2.3-1.2V381c0,0,0-0.1,0-0.1c0,0,0-0.1-0.1-0.1
		c0,0-0.1,0-0.1-0.1c0,0-0.1,0-0.1,0h-6.4c0,0-0.1,0-0.1,0c0,0-0.1,0-0.1,0.1c0,0-0.1,0.1-0.1,0.1c0,0,0,0.1,0,0.1v8.9h7v-1
		c0.9-0.1,1.7-0.5,2.3-1.2C395.1,387.1,395.5,386.2,395.5,385.3z M392.2,387.8v-4.9c0.6,0.1,1.1,0.4,1.5,0.8c0.4,0.5,0.6,1,0.6,1.6
		c0,0.6-0.2,1.2-0.6,1.6C393.3,387.4,392.8,387.7,392.2,387.8z"/>
	<path class="st32" d="M515.2,389.9h5.9l-1.8-13h-4.2V389.9z"/>
	<path class="st27" d="M506.4,389.9h11.3l2.1-15.2h-11.3L506.4,389.9z"/>
	<path class="st31" d="M506.4,389.9h11.3l2.1-15.2h-11.3L506.4,389.9z"/>
	<path class="st27" d="M504.9,389.9h11.7l2.1-15.2H507L504.9,389.9z"/>
	<path class="st33" d="M515.6,388.7l1.8-12.8h-9.3l-1.8,12.8H515.6z"/>
	<path class="st34" d="M426.9,367.4l-0.5,0.5l-0.5,0.6c-0.3,0.4-0.7,0.8-1,1.2c-0.7,0.8-1.3,1.7-1.9,2.6c-1.2,1.7-2.2,3.5-3,5.5
		c-0.4,0.9-0.6,1.9-0.8,2.8c-0.1,0.5-0.2,0.8-0.2,1c0,0.2,0,0.4,0,0.6c0.1,0.3,0.3,0.6,0.5,0.8c0.2,0.2,0.5,0.4,0.7,0.5
		c0.4,0.2,0.8,0.5,1.3,0.6c0.2,0.1,0.5,0.2,0.7,0.3c0.2,0.1,0.5,0.2,0.7,0.2v3.3c-0.4,0.1-0.7,0.1-1.1,0.1c-0.3,0-0.7,0-1,0
		c-0.7,0-1.4-0.1-2.1-0.3c-0.8-0.2-1.5-0.5-2.2-0.9c-0.8-0.5-1.5-1.1-2.1-1.9c-0.6-0.8-0.9-1.8-1.1-2.8c0-0.2-0.1-0.5-0.1-0.7
		c0-0.2,0-0.5,0-0.7v-0.3c0-0.1,0-0.2,0-0.3l0-0.5c0.2-1.4,0.4-2.7,0.9-4c0.8-2.5,1.9-4.9,3.4-7.1c0.7-1.1,1.4-2.1,2.2-3.1
		c0.4-0.5,0.8-1,1.2-1.5c0.2-0.2,0.4-0.5,0.7-0.7c0.2-0.2,0.4-0.4,0.7-0.7L426.9,367.4z"/>
	<path class="st34" d="M421.7,384.6l2.8-2l1.6,5.7c0,0-2.4,0.9-4.3-0.3L421.7,384.6z"/>
	<path class="st34" d="M428.3,381.2l1.1,4.7l-3.3,2.3l-1.6-5.7L428.3,381.2z"/>
	<path class="st32" d="M445.7,345.6c-0.1,0.3,0,0.7,0.2,0.8c0.2,0.1,0.5-0.1,0.6-0.5c0.1-0.3,0-0.7-0.2-0.8
		C446.1,345.1,445.8,345.3,445.7,345.6z"/>
	<path class="st35" d="M445.7,346.3c0,1.2,0.3,2.4,0.6,3.6c-0.3,0.1-0.6,0.1-0.9,0.1c-0.3,0-0.6-0.2-0.9-0.3L445.7,346.3z"/>
	<path class="st32" d="M445.1,343.3c0,0,0.1,0,0.1,0c0.3-0.1,0.5-0.1,0.8-0.1c0.3,0,0.5,0.1,0.8,0.3c0,0,0.1,0,0.2,0
		c0.1,0,0.1,0,0.1-0.1c0,0,0.1-0.1,0.1-0.1c0-0.1,0-0.1-0.1-0.1c-0.3-0.2-0.6-0.3-0.9-0.4c-0.3-0.1-0.7,0-1,0.1c0,0-0.1,0-0.1,0.1
		c0,0,0,0.1,0,0.1S445,343.1,445.1,343.3C445.1,343.2,445.1,343.2,445.1,343.3L445.1,343.3z"/>
	<path class="st34" d="M432.7,346.9c0.7,3.4,1.3,9.5-1,11.8c0,0,0.9,3.4,7.2,3.4c6.9,0,3.3-3.4,3.3-3.4c-3.8-0.9-3.7-3.7-3-6.3
		L432.7,346.9z"/>
	<path class="st32" d="M430.8,359.9c-0.5-1.1-1-2.3,0.1-2.7c1.2-0.4,8-0.9,10.3-0.1c0.3,0.1,0.6,0.2,0.8,0.4
		c0.3,0.2,0.5,0.4,0.6,0.7c0.2,0.3,0.3,0.6,0.3,0.9c0,0.3,0,0.6-0.1,0.9L430.8,359.9z"/>
	<path class="st34" d="M454.4,365.7c1.5,2.6,3,5.3,4.6,7.9c1.6,2.6,3.2,5.2,5,7.5c0.4,0.6,0.9,1.2,1.3,1.7c0.2,0.3,0.5,0.5,0.7,0.8
		l0.3,0.4l0.1,0.1l0,0l0,0.1c0.3,0.3,0.6,0.5,1,0.6c0.6,0.2,1.1,0.3,1.7,0.4c2.9,0.3,5.8,0.3,8.6-0.1l0.9,3.1
		c-0.8,0.4-1.5,0.6-2.3,0.9c-0.8,0.3-1.6,0.5-2.4,0.7c-1.7,0.4-3.4,0.7-5.1,0.7c-1,0-1.9-0.1-2.9-0.3c-1.2-0.2-2.3-0.7-3.2-1.4
		l-0.4-0.3l-0.1-0.1l-0.1-0.1l-0.1-0.1l-0.5-0.5c-0.3-0.3-0.6-0.6-0.9-0.9c-0.6-0.6-1.1-1.2-1.7-1.9c-2.1-2.5-4-5.1-5.7-7.9
		c-0.9-1.4-1.7-2.7-2.5-4.1c-0.8-1.4-1.6-2.8-2.3-4.2L454.4,365.7z"/>
	<path class="st27" d="M423.5,359.8c-4.3,1-9.3,12.8-9.3,12.8l8.7,5.9c2.2-3.1,4.1-6.3,5.7-9.7C431.1,363.3,427.9,358.7,423.5,359.8
		z"/>
	<path class="st29" d="M426.5,367.3l-4.1,10.9l0.4,0.3c0,0,1.8-2.5,3.7-5.9V367.3z"/>
	<path class="st27" d="M449.3,360c0,0,4.9,5.5,0.3,39.8h-24.6c-0.2-3.8,2.2-22.2-1.4-40.1c2.7-0.5,5.5-0.9,8.2-1
		c3.5-0.2,7-0.2,10.5,0C444.6,359,446.9,359.4,449.3,360z"/>
	<path class="st29" d="M446.5,369.9c0.6,3.9,2.3,7.5,4.9,10.5c0.1-2.2,0.1-4.2,0.1-6L446.5,369.9z"/>
	<path class="st27" d="M444.4,363.7c-0.6,4.4,8,15.5,8,15.5l8.6-5.9c0,0-2.4-6.1-6.4-10.2C450,358.5,445.1,359,444.4,363.7z"/>
	<path class="st34" d="M476.9,385.1l3.5-1.4l3.6,2.7c0,0-3.5,3.1-6.6,1.9L476.9,385.1z"/>
	<path class="st34" d="M482.8,383.5l2.7,1.9l-1.4,1l-3.6-2.7L482.8,383.5z"/>
	<path class="st34" d="M434.3,340.8c-1.2,4.4-2.2,6.9-0.8,9.9c2.1,4.5,8.1,4.3,10.7,0.4c2.3-3.6,3.9-10.2,0.3-13.3
		c-0.8-0.7-1.8-1.2-2.8-1.4c-1-0.2-2.1-0.2-3.1,0.1c-1,0.3-1.9,0.9-2.7,1.6C435.1,338.8,434.5,339.8,434.3,340.8z"/>
	<path class="st32" d="M443.6,340.9c-1.8,5.1-3.9,10.6-9,9.6c-3.3-0.7-3.6-6-4.7-8.4c-1-2.1-1-6.4,1.2-6.4c-1-1.4,3.9-6.6,7.3-3.8
		c0.9-1.2,7-4.7,11.6,0.9C454.4,337.9,452.2,342.2,443.6,340.9z"/>
	<path class="st34" d="M439.6,344.1c-0.1,1.1,0.1,2.3,0.7,3.2c0.8,1.3,1.9,0.8,2.4-0.5c0.4-1.2,0.4-3.2-0.7-4
		C441,341.9,439.8,342.7,439.6,344.1z"/>
	<path class="st27" d="M477.5,461.2c0.6,0,1.2-0.1,1.4-0.3c0-0.1,0.1-0.2,0.1-0.2s0-0.2-0.1-0.2c-0.1-0.1-0.2-0.2-0.3-0.3
		c-0.8-0.2-2.4,0.7-2.4,0.8c0,0,0,0,0,0c0,0,0,0,0,0.1c0,0,0,0,0,0.1c0,0,0,0,0.1,0C476.5,461.1,477,461.2,477.5,461.2z
		 M478.2,460.3c0.1,0,0.1,0,0.2,0c0,0,0.1,0,0.1,0.1c0,0,0.1,0.1,0.1,0.1c0.1,0.1,0.1,0.2,0,0.2c-0.2,0.3-1.4,0.3-2.2,0.2
		C476.9,460.5,477.6,460.3,478.2,460.3z"/>
	<path class="st27" d="M476.1,461L476.1,461c0.6-0.2,1.7-1.2,1.6-1.8c0-0.1-0.1-0.3-0.4-0.3c-0.1,0-0.2,0-0.3,0
		c-0.1,0-0.2,0.1-0.3,0.2c-0.6,0.5-0.7,1.7-0.7,1.8C476,460.9,476,460.9,476.1,461C476,461,476,461,476.1,461
		C476,461,476.1,461,476.1,461z M477.2,459.2L477.2,459.2c0.3,0,0.3,0.1,0.3,0.1c0.1,0.3-0.7,1.1-1.3,1.4c0-0.5,0.3-1,0.6-1.4
		C476.9,459.2,477.1,459.2,477.2,459.2z"/>
	<path class="st34" d="M470.7,460.9h4.6l1-10.7h-4.6L470.7,460.9z"/>
	<path class="st32" d="M475.6,460.4h-5c-0.1,0-0.2,0-0.3,0.1c-0.1,0.1-0.1,0.1-0.1,0.2l-0.9,4.1c0,0.1,0,0.2,0,0.3
		c0,0.1,0.1,0.2,0.1,0.3c0.1,0.1,0.1,0.1,0.2,0.2c0.1,0,0.2,0.1,0.3,0.1c1.8,0,4.4-0.1,6.7-0.1c2.7,0,5,0.1,8.1,0.1
		c1.9,0,2.4-1.9,1.6-2.1c-3.6-0.8-6.5-0.9-9.7-2.8C476.4,460.5,476,460.4,475.6,460.4z"/>
	<path class="st29" d="M476.4,450.2l-0.5,5.5h-4.6l0.5-5.5H476.4z"/>
	<path class="st27" d="M459,461.1c0.2,0,0.4,0,0.6,0s0.4-0.1,0.5-0.3c0.1-0.1,0.1-0.2,0.1-0.3c0-0.1,0-0.2-0.1-0.3
		c0-0.1-0.1-0.1-0.1-0.2c-0.1,0-0.1-0.1-0.2-0.1c-0.7-0.2-1.9,0.7-2,0.7c0,0,0,0,0,0c0,0,0,0,0,0.1c0,0,0,0,0,0.1s0,0,0.1,0
		C458.2,461.1,458.6,461.1,459,461.1z M459.6,460.3c0,0,0.1,0,0.1,0c0,0,0.1,0,0.1,0c0,0,0.1,0.1,0.1,0.1c0.1,0.2,0,0.3,0,0.3
		c-0.2,0.3-1.1,0.3-1.8,0.1C458.5,460.5,459,460.3,459.6,460.3L459.6,460.3z"/>
	<path class="st27" d="M457.8,461L457.8,461c0.5-0.3,1.5-1.3,1.3-1.8c0-0.1-0.1-0.2-0.1-0.2c-0.1-0.1-0.1-0.1-0.2-0.1
		c-0.1,0-0.2,0-0.2,0c-0.1,0-0.2,0.1-0.2,0.1c-0.5,0.4-0.6,1.8-0.7,1.8C457.7,460.9,457.7,461,457.8,461
		C457.7,461,457.8,461,457.8,461C457.8,461,457.8,461,457.8,461z M458.8,459.2L458.8,459.2c0.2,0,0.2,0.1,0.2,0.1
		c0.1,0.3-0.5,1.1-1,1.4c0-0.5,0.2-1,0.5-1.4C458.6,459.2,458.7,459.2,458.8,459.2z"/>
	<path class="st34" d="M452.5,460.9h4.6l2.3-10.7h-4.6L452.5,460.9z"/>
	<path class="st32" d="M457.5,460.4h-5.2c-0.1,0-0.2,0-0.3,0.1c-0.1,0.1-0.1,0.1-0.1,0.2l-0.9,4.1c0,0.1,0,0.2,0,0.3
		c0,0.1,0.1,0.2,0.1,0.3c0.1,0.1,0.1,0.1,0.2,0.2c0.1,0,0.2,0.1,0.3,0.1c1.8,0,2.7-0.1,5-0.1c1.4,0,3.2,0.1,5.1,0.1s2.2-1.9,1.4-2.1
		c-3.6-0.8-3.8-1.8-4.9-2.9C458,460.5,457.8,460.4,457.5,460.4z"/>
	<g class="st36">
		<path class="st29" d="M454.9,450.2h4.6l-1.2,5.5h-4.6L454.9,450.2z"/>
	</g>
	<path class="st32" d="M449.5,399.8c0,0,34.5,3.7,34.1,21.3c-0.2,11.1-2.4,22-6.3,32.3h-6.8c0,0,0.3-11.2,0.1-29.2
		c-0.1-5.4-11-7.2-21.6-7.8c-4.5-0.3-8.9-1.8-12.5-4.4c-3.7-2.6-6.6-6.2-8.3-10.4l-0.7-1.7H449.5z"/>
	<path class="st27" d="M479.1,451.6c0,0-0.4,3.2-0.4,3.2h-9.5l-0.3-2.9L479.1,451.6z"/>
	<path class="st32" d="M442.1,399.8c0,0,25,8.3,25.7,18.6c1.2,18.9-8.1,35-8.1,35h-6.9c0,0,2.6-8,3.6-25.1c1.2-21.5-39,0-31.4-28.5
		H442.1z"/>
	<path class="st27" d="M461.8,451.6c0,0-0.9,3.2-0.9,3.2h-9.5l0.2-2.9L461.8,451.6z"/>
	<path class="st27" d="M460.2,417.9h-38.5c0-1.2,0.5-2.3,1.3-3.1c0.8-0.8,1.9-1.3,3.1-1.3h29.7c1.2,0,2.3,0.5,3.1,1.3
		C459.7,415.7,460.2,416.8,460.2,417.9z"/>
	<path class="st27" d="M423.5,417.9l-5.8,48.6h1.2l7.4-48.6H423.5z"/>
	<path class="st37" d="M423.5,417.9l-5.8,48.6h1.2l7.4-48.6H423.5z"/>
	<path class="st27" d="M431.3,417.9l-0.1,48.6h1.2l1.7-48.6H431.3z"/>
	<path class="st37" d="M431.3,417.9l-0.1,48.6h1.2l1.7-48.6H431.3z"/>
	<path class="st27" d="M458.4,417.9l5.8,48.6H463l-7.4-48.6H458.4z"/>
	<path class="st37" d="M458.4,417.9l5.8,48.6H463l-7.4-48.6H458.4z"/>
	<path class="st27" d="M450.6,417.9l0.1,48.6h-1.2l-1.7-48.6H450.6z"/>
	<path class="st37" d="M450.6,417.9l0.1,48.6h-1.2l-1.7-48.6H450.6z"/>
	<circle class="st27" cx="339.5" cy="366.8" r="4.5"/>
	<circle class="st27" cx="312.5" cy="366.8" r="4.5"/>
	<g class="st38">
		<path class="st39" d="M64.2,236.1c0.4,0.1,0.7,0.4,0.7,0.8c0,0.9-0.1,1.9-0.2,2.8c0,0.5-0.4,0.8-0.9,0.7c0,0,0,0,0,0
			c-0.4-0.1-0.8-0.5-0.7-0.9c0.1-0.9,0.1-1.8,0.2-2.6C63.3,236.4,63.7,236.1,64.2,236.1C64.2,236.1,64.2,236.1,64.2,236.1z
			 M63.3,243.1C63.4,243.1,63.4,243.1,63.3,243.1c0.5,0.1,0.8,0.6,0.7,1c-0.2,0.9-0.5,1.8-0.8,2.7c-0.1,0.4-0.6,0.7-1,0.5
			c-0.4-0.1-0.7-0.6-0.5-1c0.3-0.8,0.5-1.7,0.7-2.5C62.5,243.3,62.9,243.1,63.3,243.1z M60.9,249.8c0.1,0,0.2,0,0.3,0.1
			c0.4,0.2,0.6,0.7,0.4,1.1c-0.4,0.8-0.9,1.6-1.3,2.4c-0.2,0.4-0.7,0.5-1.1,0.3c-0.4-0.2-0.5-0.7-0.3-1.1c0.5-0.7,0.9-1.5,1.3-2.3
			C60.2,249.9,60.6,249.7,60.9,249.8z M57.1,255.7c0.2,0,0.3,0.1,0.4,0.2c0.3,0.3,0.4,0.8,0.1,1.1c-0.6,0.7-1.2,1.4-1.8,2.1
			c-0.3,0.3-0.8,0.3-1.1,0c-0.3-0.3-0.3-0.8,0-1.1c0.6-0.6,1.2-1.3,1.8-2C56.5,255.8,56.8,255.7,57.1,255.7z M52,260.7
			c0.2,0,0.4,0.1,0.5,0.3c0.3,0.4,0.2,0.9-0.1,1.1c-0.7,0.6-1.5,1.1-2.3,1.6c-0.4,0.2-0.9,0.1-1.1-0.2c-0.2-0.4-0.1-0.9,0.2-1.1
			c0.7-0.5,1.5-1,2.1-1.5C51.6,260.7,51.8,260.7,52,260.7z M46,264.4c0.3,0,0.5,0.2,0.6,0.5c0.2,0.4,0,0.9-0.4,1.1
			c-0.8,0.4-1.7,0.7-2.6,1.1c-0.4,0.2-0.9-0.1-1-0.5c-0.2-0.4,0.1-0.9,0.5-1c0.8-0.3,1.6-0.6,2.4-1C45.7,264.4,45.8,264.4,46,264.4z
			 M16.1,262.8c0.1,0,0.2,0.1,0.3,0.1c0.7,0.5,1.5,0.9,2.3,1.3c0.4,0.2,0.6,0.7,0.4,1.1c-0.2,0.4-0.7,0.6-1.1,0.4
			c-0.8-0.4-1.6-0.9-2.4-1.3c-0.4-0.2-0.5-0.7-0.3-1.1C15.5,262.9,15.8,262.8,16.1,262.8z M39.3,266.7c0.3,0,0.6,0.3,0.7,0.6
			c0.1,0.4-0.2,0.9-0.6,1c-0.9,0.2-1.8,0.4-2.7,0.5c-0.5,0.1-0.9-0.3-0.9-0.7c-0.1-0.4,0.3-0.8,0.7-0.9c0.9-0.1,1.7-0.3,2.6-0.5
			C39.1,266.6,39.2,266.6,39.3,266.7z M22.6,265.8c0.1,0,0.1,0,0.2,0c0.8,0.3,1.7,0.5,2.5,0.7c0.4,0.1,0.7,0.5,0.6,1
			c-0.1,0.4-0.5,0.7-1,0.6c-0.9-0.2-1.8-0.5-2.7-0.8c-0.4-0.1-0.7-0.6-0.5-1C21.8,265.9,22.2,265.7,22.6,265.8z M32.2,267.4
			c0.4,0.1,0.7,0.4,0.7,0.8c0,0.5-0.4,0.8-0.8,0.8c-0.9,0-1.9-0.1-2.8-0.2c0,0,0,0,0,0c-0.4-0.1-0.8-0.4-0.7-0.9
			c0-0.5,0.4-0.8,0.9-0.7C30.4,267.3,31.2,267.3,32.2,267.4C32.2,267.4,32.2,267.4,32.2,267.4z"/>
		<path class="st39" d="M11.5,259.4c0.2,0,0.3,0.1,0.4,0.2c0.3,0.3,0.6,0.6,1,0.8c0.3,0.3,0.4,0.8,0.1,1.1c-0.3,0.3-0.8,0.4-1.1,0.1
			c-0.3-0.3-0.7-0.6-1-0.9c-0.3-0.3-0.4-0.8-0.1-1.1C11,259.5,11.3,259.4,11.5,259.4z"/>
	</g>
	<g class="st38">
		<path class="st39" d="M0.9,237c0.4,0.1,0.7,0.4,0.7,0.8c0,0.4,0,0.8,0.1,1.3c0,0.5-0.3,0.8-0.7,0.9c-0.5,0-0.8-0.3-0.9-0.7
			c0-0.4-0.1-0.9-0.1-1.3c0-0.5,0.3-0.8,0.8-0.9C0.8,237,0.9,237,0.9,237z"/>
		<path class="st39" d="M36.3,204.3c0.4,0,0.7,0.1,1.1,0.2c0.4,0.1,0.7,0.5,0.7,0.9c-0.1,0.4-0.5,0.7-0.9,0.7
			c-0.9-0.1-1.7-0.2-2.6-0.3c-0.4,0-0.8-0.4-0.8-0.9c0-0.4,0.4-0.8,0.9-0.8C35.2,204.1,35.7,204.2,36.3,204.3z M41.6,205.3
			c0,0,0.1,0,0.1,0c0.9,0.3,1.7,0.6,2.6,0.9c0.4,0.2,0.6,0.6,0.5,1.1c-0.2,0.4-0.6,0.6-1.1,0.5c-0.8-0.3-1.6-0.6-2.5-0.8
			c-0.4-0.1-0.7-0.6-0.6-1C40.8,205.5,41.2,205.3,41.6,205.3z M30.4,204.1c0.4,0,0.7,0.4,0.7,0.7c0,0.5-0.3,0.8-0.8,0.9
			c-0.9,0.1-1.7,0.2-2.6,0.3c-0.4,0.1-0.9-0.2-0.9-0.7c-0.1-0.4,0.2-0.9,0.7-0.9c0.9-0.1,1.8-0.2,2.7-0.3
			C30.3,204.1,30.3,204.1,30.4,204.1z M48,208c0.1,0,0.2,0,0.3,0.1c0.8,0.4,1.6,0.9,2.3,1.4c0.4,0.3,0.5,0.8,0.2,1.1
			c-0.3,0.4-0.8,0.5-1.1,0.2c-0.7-0.5-1.5-0.9-2.2-1.4c-0.4-0.2-0.5-0.7-0.3-1.1C47.4,208.2,47.7,208,48,208z M23.5,205.3
			c0.3,0,0.6,0.3,0.7,0.6c0.1,0.4-0.1,0.9-0.5,1c-0.8,0.2-1.6,0.5-2.4,0.8c-0.4,0.2-0.9,0-1.1-0.5c-0.2-0.4,0-0.9,0.5-1.1
			c0.8-0.3,1.7-0.6,2.6-0.9C23.3,205.3,23.4,205.3,23.5,205.3z M17.1,208.1c0.2,0,0.5,0.2,0.6,0.4c0.2,0.4,0.1,0.9-0.3,1.1
			c-0.7,0.4-1.5,0.9-2.2,1.4c-0.4,0.3-0.9,0.2-1.1-0.2c-0.3-0.4-0.2-0.9,0.2-1.1c0.7-0.5,1.5-1,2.3-1.4
			C16.8,208.1,17,208,17.1,208.1z M11.4,212.1c0.2,0,0.4,0.1,0.5,0.3c0.3,0.3,0.3,0.8-0.1,1.1c-0.6,0.6-1.3,1.2-1.9,1.8
			c-0.3,0.3-0.8,0.3-1.1,0c-0.3-0.3-0.3-0.8,0-1.1c0.6-0.7,1.3-1.3,2-1.9C11,212.1,11.2,212.1,11.4,212.1z M6.8,217.3
			c0.1,0,0.3,0.1,0.4,0.1c0.4,0.3,0.5,0.8,0.2,1.1c-0.5,0.7-1,1.4-1.4,2.2c-0.2,0.4-0.7,0.5-1.1,0.3c-0.4-0.2-0.5-0.7-0.3-1.1
			c0.5-0.8,1-1.5,1.5-2.3C6.2,217.4,6.5,217.2,6.8,217.3z M3.4,223.4c0.1,0,0.1,0,0.2,0.1c0.4,0.2,0.6,0.7,0.4,1.1
			c-0.3,0.8-0.6,1.6-0.9,2.4c-0.1,0.4-0.6,0.7-1,0.5c-0.4-0.1-0.7-0.6-0.5-1c0.3-0.9,0.6-1.7,1-2.6C2.7,223.5,3,223.3,3.4,223.4z
			 M1.4,230C1.4,230,1.4,230,1.4,230c0.5,0.1,0.8,0.5,0.7,1c-0.1,0.6-0.2,1.3-0.3,1.9c0,0.2-0.1,0.5-0.1,0.7c0,0.5-0.4,0.8-0.9,0.7
			c-0.5,0-0.8-0.4-0.7-0.9c0-0.2,0.1-0.5,0.1-0.7c0.1-0.7,0.2-1.3,0.3-2C0.6,230.3,1,230,1.4,230z"/>
		<path class="st39" d="M53.7,212.1c0.2,0,0.3,0.1,0.5,0.2c0.3,0.3,0.7,0.6,1,0.9c0.3,0.3,0.3,0.8,0,1.1c-0.3,0.3-0.8,0.3-1.1,0
			c-0.3-0.3-0.6-0.6-0.9-0.9c-0.3-0.3-0.4-0.8-0.1-1.1C53.2,212.2,53.4,212.1,53.7,212.1z"/>
	</g>
	<path class="st40" d="M51.5,221.3c-0.1-0.1-0.3-0.2-0.4-0.2l-4.5,1.1c-1.5-1.5-3.3-2.8-5.3-3.7l-0.5-4.6c0-0.2-0.1-0.3-0.3-0.3
		l-5.4-1.2c-0.2,0-0.3,0-0.4,0.2l-2.4,3.9c-2.2,0-4.4,0.4-6.4,1.1l-3.6-2.9c-0.1-0.1-0.3-0.1-0.4,0l-4.7,3c-0.1,0.1-0.2,0.3-0.2,0.4
		l1.1,4.5c-1.5,1.5-2.8,3.3-3.7,5.3l-4.6,0.5c-0.2,0-0.3,0.1-0.3,0.3L8,234.2c0,0.2,0,0.3,0.2,0.4l3.9,2.4c0,2.2,0.4,4.4,1.1,6.4
		l-2.9,3.6c-0.1,0.1-0.1,0.3,0,0.4l3,4.7c0.1,0.1,0.3,0.2,0.4,0.2l4.5-1.1c1.5,1.5,3.3,2.8,5.3,3.7l0.5,4.6c0,0.2,0.1,0.3,0.3,0.3
		l5.4,1.2c0.2,0,0.3,0,0.4-0.2l2.4-3.9c2.2,0,4.4-0.4,6.4-1.1l3.6,2.9c0.1,0.1,0.3,0.1,0.4,0l4.7-3c0.1-0.1,0.2-0.3,0.2-0.4
		l-1.1-4.5c1.5-1.5,2.8-3.3,3.7-5.3l4.6-0.5c0.2,0,0.3-0.1,0.3-0.3l1.2-5.4c0-0.2,0-0.3-0.2-0.4l-3.9-2.4c0-2.2-0.4-4.4-1.1-6.4
		l2.9-3.6c0.1-0.1,0.1-0.3,0-0.4L51.5,221.3z"/>
	<path class="st41" d="M33.1,231.2c2.7,0.3,4.8,2.6,4.9,5.4c0.1,3.1-2.3,5.6-5.4,5.7c-1.5,0-2.9-0.5-4-1.5c-1.1-1-1.7-2.4-1.7-3.9
		c-0.1-3.1,2.3-5.6,5.4-5.7C32.5,231.2,32.8,231.2,33.1,231.2z M31.9,241c0.2,0,0.4,0,0.6,0c2.4-0.1,4.2-2,4.2-4.4
		c-0.1-2.4-2-4.2-4.4-4.2c-2.4,0.1-4.2,2-4.2,4.4c0,1.1,0.5,2.2,1.3,3C30.1,240.5,31,240.9,31.9,241z"/>
	<path class="st41" d="M33.9,223.2c0.5,0.1,0.9,0.1,1.4,0.2c0.1,0,0.3,0.1,0.4,0.1c0.7,0.2,1.4,0.4,2.1,0.7c0,0,0,0,0,0
		c0,0,0.1,0,0.1,0c0.1,0,0.1,0,0.2,0.1c0.1,0.1,0.2,0.2,0.2,0.3c0,0,0,0.1,0,0.1c-0.1,0.2-0.3,0.2-0.4,0.2c-0.8-0.4-1.7-0.7-2.6-0.9
		c-4.5-1-9,0.5-12.1,3.5c-1.7,1.7-3,3.9-3.5,6.4c-0.1,0.4-0.2,0.9-0.2,1.3c-0.4,3,0.3,6,1.9,8.5c1.9,2.9,4.8,5,8.2,5.7
		c7,1.6,14-2.9,15.6-9.9c0.1-0.4,0.2-0.9,0.2-1.3c0.2-1.9,0-3.8-0.6-5.6c0-0.1,0-0.1,0-0.1c0-0.1,0.1-0.2,0.2-0.3
		c0.2-0.1,0.4,0,0.4,0.2c0.6,1.9,0.8,3.9,0.6,5.9c-0.1,0.5-0.1,0.9-0.2,1.4c-1.6,7.4-9,12-16.4,10.4c-3.6-0.8-6.6-2.9-8.6-6
		c-1.7-2.7-2.4-5.8-2-8.9c0.1-0.5,0.1-0.9,0.2-1.4c0.8-3.6,2.9-6.6,6-8.6C27.7,223.5,30.8,222.8,33.9,223.2z"/>
	<g class="st38">
		<path class="st39" d="M94.3,218.1c0.2,0,0.4,0.2,0.4,0.4c0.1,0.4,0.1,0.9,0.2,1.3c0,0.3-0.2,0.5-0.4,0.6c-0.3,0-0.5-0.2-0.6-0.5
			c0-0.4-0.1-0.8-0.2-1.2c-0.1-0.3,0.1-0.5,0.4-0.6C94.2,218.1,94.3,218.1,94.3,218.1z"/>
		<path class="st39" d="M94.6,222c0.3,0,0.4,0.2,0.4,0.5c0,0.7-0.1,1.5-0.2,2.2c0,0.2,0,0.3-0.1,0.5c0,0.3-0.3,0.4-0.6,0.4
			c-0.3,0-0.5-0.3-0.4-0.6c0-0.1,0-0.3,0.1-0.4c0.1-0.7,0.1-1.4,0.1-2.1C94,222.2,94.3,222,94.6,222C94.6,222,94.6,222,94.6,222z
			 M93.9,227.1C93.9,227.1,93.9,227.1,93.9,227.1c0.3,0.1,0.5,0.4,0.4,0.6c-0.2,0.9-0.5,1.7-0.9,2.5c-0.1,0.3-0.4,0.4-0.7,0.3
			c-0.3-0.1-0.4-0.4-0.3-0.7c0.3-0.8,0.6-1.6,0.8-2.4C93.4,227.3,93.6,227.1,93.9,227.1z M91.9,232c0.1,0,0.1,0,0.2,0.1
			c0.2,0.1,0.3,0.4,0.2,0.7c-0.4,0.8-0.9,1.5-1.4,2.3c-0.2,0.2-0.5,0.3-0.7,0.1c-0.2-0.2-0.3-0.5-0.1-0.7c0.5-0.7,1-1.4,1.4-2.1
			C91.5,232,91.7,231.9,91.9,232z M88.8,236.2c0.1,0,0.2,0.1,0.3,0.1c0.2,0.2,0.2,0.5,0,0.7c-0.6,0.6-1.3,1.3-2,1.8
			c-0.2,0.2-0.5,0.1-0.7-0.1c-0.2-0.2-0.1-0.5,0.1-0.7c0.7-0.5,1.3-1.1,1.9-1.7C88.5,236.2,88.7,236.1,88.8,236.2z M84.8,239.5
			c0.1,0,0.3,0.1,0.4,0.2c0.2,0.2,0.1,0.5-0.2,0.7c-0.7,0.5-1.5,0.9-2.3,1.3c-0.2,0.1-0.6,0-0.7-0.2c-0.1-0.2,0-0.6,0.2-0.7
			c0.8-0.4,1.5-0.8,2.2-1.2C84.6,239.5,84.7,239.5,84.8,239.5z M80.1,241.7c0.2,0,0.4,0.2,0.4,0.3c0.1,0.3-0.1,0.5-0.3,0.6
			c-0.8,0.3-1.7,0.5-2.6,0.7c-0.3,0.1-0.5-0.1-0.6-0.4c-0.1-0.3,0.1-0.5,0.4-0.6c0.8-0.2,1.7-0.4,2.5-0.7
			C80,241.7,80,241.7,80.1,241.7z M75,242.8c0.2,0,0.4,0.2,0.4,0.5c0,0.3-0.2,0.5-0.5,0.5c-0.9,0.1-1.8,0.1-2.7,0
			c-0.3,0-0.5-0.2-0.5-0.5c0-0.3,0.2-0.5,0.5-0.5c0.8,0,1.7,0,2.5,0C74.9,242.8,75,242.8,75,242.8z M67.3,241.9
			C67.3,241.9,67.3,241.9,67.3,241.9c0.8,0.2,1.5,0.4,2.2,0.6c0.1,0,0.2,0,0.3,0.1c0.3,0.1,0.5,0.3,0.4,0.6
			c-0.1,0.3-0.3,0.5-0.6,0.4c-0.1,0-0.2,0-0.3-0.1c-0.8-0.1-1.5-0.3-2.3-0.6c-0.3-0.1-0.4-0.4-0.3-0.6C66.8,242,67,241.9,67.3,241.9
			z"/>
	</g>
	<g class="st38">
		<path class="st39" d="M75.6,200.6c0.3,0,0.5,0.3,0.4,0.6c0,0.3-0.3,0.5-0.6,0.4c-0.8-0.1-1.7-0.1-2.5-0.1c-0.3,0-0.5-0.2-0.5-0.5
			c0-0.3,0.2-0.5,0.5-0.5C73.9,200.4,74.7,200.5,75.6,200.6C75.6,200.6,75.6,200.6,75.6,200.6z M78.2,201
			C78.2,201,78.2,201,78.2,201c0.9,0.2,1.8,0.4,2.6,0.7c0.3,0.1,0.4,0.4,0.3,0.6c-0.1,0.3-0.4,0.4-0.6,0.3c-0.8-0.3-1.6-0.5-2.4-0.7
			c-0.3-0.1-0.4-0.3-0.4-0.6C77.7,201.1,77.9,200.9,78.2,201z M70.5,200.6c0.2,0,0.4,0.2,0.4,0.4c0,0.3-0.2,0.5-0.4,0.6
			c-0.8,0.1-1.7,0.3-2.5,0.5c-0.3,0.1-0.5-0.1-0.6-0.4c-0.1-0.3,0.1-0.5,0.4-0.6c0.8-0.2,1.7-0.4,2.6-0.5
			C70.4,200.6,70.4,200.6,70.5,200.6z M83,202.7c0.1,0,0.1,0,0.2,0.1c0.8,0.4,1.5,0.8,2.3,1.3c0.2,0.2,0.3,0.5,0.1,0.7
			c-0.2,0.2-0.5,0.3-0.7,0.1c-0.7-0.5-1.4-0.9-2.2-1.3c-0.2-0.1-0.3-0.4-0.2-0.7C82.6,202.8,82.8,202.7,83,202.7z M65.5,202
			c0.2,0,0.3,0.1,0.4,0.3c0.1,0.3,0,0.6-0.3,0.7c-0.8,0.3-1.5,0.7-2.3,1.1c-0.2,0.1-0.6,0-0.7-0.2c-0.1-0.2,0-0.6,0.2-0.7
			c0.8-0.4,1.6-0.8,2.4-1.1C65.4,202,65.5,202,65.5,202z M61,204.4c0.1,0,0.3,0.1,0.3,0.2c0.2,0.2,0.1,0.5-0.1,0.7
			c-0.7,0.5-1.3,1-1.9,1.6c-0.2,0.2-0.5,0.2-0.7,0c-0.2-0.2-0.2-0.5,0-0.7c0.6-0.6,1.3-1.1,2-1.7C60.8,204.4,60.9,204.4,61,204.4z
			 M57.3,207.9c0.1,0,0.2,0.1,0.3,0.1c0.2,0.2,0.2,0.5,0.1,0.7c-0.5,0.6-1.1,1.3-1.5,2c-0.2,0.2-0.5,0.3-0.7,0.1
			c-0.2-0.2-0.3-0.5-0.1-0.7c0.5-0.7,1-1.4,1.6-2.1C56.9,207.9,57.1,207.9,57.3,207.9z"/>
		<path class="st39" d="M87.3,205.6c0.1,0,0.2,0.1,0.3,0.1c0.3,0.3,0.6,0.6,0.9,0.9c0.2,0.2,0.2,0.5,0,0.7c-0.2,0.2-0.5,0.2-0.7,0
			c-0.3-0.3-0.6-0.6-0.9-0.8c-0.2-0.2-0.2-0.5-0.1-0.7C86.9,205.6,87.1,205.6,87.3,205.6z"/>
	</g>
	<path class="st40" d="M86.1,212c-0.1-0.1-0.2-0.1-0.3-0.1l-3,0.7c-1-1-2.2-1.9-3.6-2.5l-0.3-3.1c0-0.1-0.1-0.2-0.2-0.2l-3.6-0.8
		c-0.1,0-0.2,0-0.3,0.1l-1.6,2.6c-1.5,0-2.9,0.3-4.3,0.8l-2.4-1.9c-0.1-0.1-0.2-0.1-0.3,0l-3.1,2c-0.1,0.1-0.1,0.2-0.1,0.3l0.7,3
		c-1,1-1.9,2.2-2.5,3.6l-3.1,0.3c-0.1,0-0.2,0.1-0.2,0.2l-0.8,3.6c0,0.1,0,0.2,0.1,0.3l2.6,1.6c0,1.5,0.3,2.9,0.8,4.3l-1.9,2.4
		c-0.1,0.1-0.1,0.2,0,0.3l2,3.1c0.1,0.1,0.2,0.1,0.3,0.1l3-0.7c1,1,2.2,1.9,3.6,2.5l0.3,3.1c0,0.1,0.1,0.2,0.2,0.2l3.6,0.8
		c0.1,0,0.2,0,0.3-0.1l1.6-2.6c1.5,0,2.9-0.3,4.3-0.8l2.4,1.9c0.1,0.1,0.2,0.1,0.3,0l3.1-2c0.1-0.1,0.1-0.2,0.1-0.3l-0.7-3
		c1-1,1.9-2.2,2.5-3.6l3.1-0.3c0.1,0,0.2-0.1,0.2-0.2l0.8-3.6c0-0.1,0-0.2-0.1-0.3l-2.6-1.6c0-1.5-0.3-2.9-0.8-4.3l1.9-2.4
		c0.1-0.1,0.1-0.2,0-0.3L86.1,212z"/>
	<path class="st41" d="M73.8,218.5c0.8,0.1,1.6,0.4,2.2,1c0.7,0.7,1.2,1.6,1.2,2.7c0.1,2.1-1.6,3.8-3.7,3.9
		c-2.1,0.1-3.8-1.6-3.9-3.7c0-1,0.3-2,1-2.7s1.6-1.2,2.7-1.2C73.4,218.5,73.6,218.5,73.8,218.5z M73,225.1c0.1,0,0.3,0,0.4,0
		c1.5,0,2.8-1.3,2.7-2.9c0-0.7-0.3-1.4-0.9-2c-0.5-0.5-1.2-0.8-2-0.8c-0.7,0-1.4,0.3-2,0.9c-0.5,0.5-0.8,1.2-0.8,2
		C70.6,223.8,71.6,224.9,73,225.1z"/>
	<path class="st41" d="M74.4,212.9c0.3,0,0.6,0.1,1,0.2c0.6,0.1,1.2,0.3,1.8,0.6c0,0,0.1,0,0.1,0c0.2,0.1,0.3,0.3,0.3,0.5
		c0,0.1,0,0.1,0,0.2c-0.1,0.3-0.4,0.4-0.7,0.2c-0.5-0.3-1.1-0.4-1.7-0.6c0,0-0.1,0-0.1,0c-1.4-0.3-2.8-0.2-4.1,0.2
		c-0.7,0.2-1.4,0.5-2.1,0.9c0,0,0,0,0,0c0,0,0,0-0.1,0c-1.9,1.2-3.2,3.1-3.7,5.3c-0.1,0.3-0.1,0.6-0.1,0.9c-0.2,1.9,0.2,3.9,1.3,5.5
		c1.2,1.9,3.1,3.2,5.3,3.7c2.2,0.5,4.5,0.1,6.4-1.1c1.9-1.2,3.2-3.1,3.7-5.3c0.1-0.3,0.1-0.6,0.1-0.8c0.1-1.2,0-2.5-0.4-3.7
		c0-0.1,0-0.1,0-0.2c0-0.2,0.2-0.4,0.3-0.4c0.3-0.1,0.5,0.1,0.6,0.3c0.4,1.3,0.6,2.7,0.4,4.1c0,0.3-0.1,0.6-0.2,1
		c-0.6,2.5-2,4.6-4.2,5.9c-2.1,1.4-4.7,1.8-7.1,1.2c-2.5-0.6-4.6-2-5.9-4.2c-1.2-1.9-1.7-4-1.4-6.2c0-0.3,0.1-0.6,0.2-1
		C65.1,215.5,69.6,212.4,74.4,212.9z"/>
	
		<linearGradient id="SVGID_1_" gradientUnits="userSpaceOnUse" x1="184.0091" y1="261.6183" x2="77.9011" y2="172.5033" gradientTransform="matrix(1 0 0 -1 0 472)">
		<stop  offset="0" style="stop-color:#09005D"/>
		<stop  offset="1" style="stop-color:#1A0F91"/>
	</linearGradient>
	<path class="st42" d="M125.6,195.6l51.7,11.6c2.8,0.6,4.7,3.4,4.2,6.3l-13,75.8c-0.4,2.3-2.6,3.7-4.8,3.3l-59.4-12.3
		c-2.1-0.4-3.4-2.5-3-4.6l17-75.4C118.9,196.9,122.3,194.8,125.6,195.6z"/>
	<path class="st5" d="M113.2,281.1C113.1,281.1,113.1,281.1,113.2,281.1l-6.7-1.6c-2.3-0.6-3.8-2.9-3.2-5.2l2.3-10
		c0-0.2,0.2-0.3,0.4-0.3c0.2,0,0.3,0.2,0.3,0.4l-2.3,10c-0.4,2,0.8,3.9,2.7,4.4l6.6,1.6c0.2,0,0.3,0.2,0.3,0.4
		C113.5,281,113.3,281.1,113.2,281.1z"/>
	<path class="st5" d="M106.5,261.7C106.5,261.7,106.5,261.7,106.5,261.7c-0.3-0.1-0.4-0.2-0.3-0.4l0.4-1.6c0-0.2,0.2-0.3,0.4-0.3
		c0.2,0,0.3,0.2,0.3,0.4l-0.4,1.6C106.8,261.6,106.7,261.7,106.5,261.7z"/>
	<path class="st40" d="M125.9,195c6.8,2.5,30.4,11,50.8,13.9c0.9,0.1,1.6,1,1.4,1.9L165.2,287c-0.2,1-1.2,1.8-2.2,1.6
		c-8.5-1.4-43.7-7.3-55.8-11.4c-0.7-0.2-1.2-1-1-1.8l17.3-79.1C123.8,195.2,124.9,194.6,125.9,195z"/>
	<path class="st41" d="M126.2,197.1c6.6,2.4,29.3,10.6,48.9,13.4c0.9,0.1,1.5,1,1.4,1.9l-12.5,73.3c-0.2,1-1.1,1.7-2.1,1.5
		c-8.2-1.4-42.1-7-53.7-11c-0.7-0.2-1.1-1-1-1.7l16.7-76.1C124.2,197.3,125.3,196.8,126.2,197.1z"/>
	<g class="st43">
		<path class="st30" d="M170.4,216.1c0.7,0.2,1.4,0.1,1.5-0.2c0.1-0.3-0.5-0.7-1.2-0.8l-17.1-4.2c-0.7-0.2-1.3,0-1.2,0.4
			c0.1,0.4,0.7,0.9,1.4,1.1L170.4,216.1z"/>
	</g>
	<g class="st43">
		<path class="st30" d="M152.9,213.8c-0.7-0.2-1.3,0-1.2,0.4c0.1,0.4,0.7,0.9,1.4,1.1l16.7,3.8c0.7,0.2,1.4,0.1,1.5-0.2
			c0.1-0.3-0.5-0.7-1.2-0.9L152.9,213.8z"/>
	</g>
	<g class="st43">
		<path class="st30" d="M152.2,216.7c-0.7-0.2-1.3,0-1.2,0.4c0.1,0.4,0.7,0.9,1.4,1.1l16.7,3.8c0.7,0.2,1.4,0.1,1.5-0.2
			c0.1-0.3-0.5-0.7-1.2-0.9L152.2,216.7z"/>
	</g>
	<g class="st43">
		<path class="st30" d="M169.6,228.4c0.7,0.2,1.4,0.1,1.4-0.2c0.1-0.3-0.5-0.7-1.3-0.8l-42.1-9.8c-0.7-0.2-1.2,0.1-0.9,0.5
			c0.2,0.4,1,1,1.7,1.1L169.6,228.4z"/>
	</g>
	<g class="st43">
		<path class="st30" d="M127,220.4c-0.7-0.2-1.2,0.1-0.9,0.5c0.2,0.5,1,1,1.7,1.1l41.1,9.3c0.7,0.2,1.4,0.1,1.4-0.2
			c0-0.3-0.5-0.7-1.3-0.8L127,220.4z"/>
	</g>
	<path class="st5" d="M132.4,228.5c-0.2-0.1-0.4-0.2-0.6-0.2c0,0,0,0,0,0c-0.2,0-0.4-0.1-0.6-0.1c-1.1-0.2-2.6-0.3-4-0.5
		c-0.8-0.1-1.4-0.2-1.9-0.2c-0.4,0-0.7,0.1-1,0.3c-0.2,0.2-0.4,0.5-0.4,0.8l-0.4,5c-0.1,0.8,0.5,1.5,1.4,1.7l5.8,1.2c0,0,0,0,0,0
		c0.8,0.2,1.6-0.3,1.8-1.1c0.5-2.3,0.9-4.4,0.8-5.6C133.1,229.2,132.8,228.8,132.4,228.5z M132.7,229.8c0.1,1.1-0.3,3.2-0.8,5.4
		c-0.1,0.5-0.7,0.6-1.2,0.7h0l-5.8-1.2c-0.6-0.1-1-0.6-1-1.1l0.4-5c0-0.2,0.1-0.3,0.2-0.4c0.2-0.1,0.4-0.2,0.6-0.2
		c0.5,0.1,1.2,0.1,2,0.2c1.2,0.1,2.7,0.3,3.7,0.4c0.3,0.1,0.6,0.1,0.8,0.1c0.2,0,0.4,0.1,0.6,0.2
		C132.5,229.2,132.7,229.5,132.7,229.8z"/>
	<path class="st30" d="M125.6,228.6c1.2,0.2,4,0.4,5.2,0.6c0.5,0.1,1,0.5,1,1c0.1,1-0.3,2.7-0.7,4.4c-0.1,0.5-0.6,0.8-1.2,0.7
		l-4.7-0.9c-0.6-0.1-1-0.6-0.9-1.1l0.3-4C124.8,228.8,125.2,228.5,125.6,228.6z"/>
	<g class="st43">
		<path class="st30" d="M137.6,232.5c-0.7-0.2-1.3,0.3-1.3,1.1l0,0.3c0.1,0.8,0.7,1.5,1.5,1.6l27.7,5.3c0.7,0.1,1.4-0.2,1.5-0.8
			c0.1-0.6-0.4-1.2-1.2-1.4L137.6,232.5z"/>
	</g>
	
		<linearGradient id="SVGID_2_" gradientUnits="userSpaceOnUse" x1="1355.8269" y1="1009.6026" x2="1310.8269" y2="981.4236" gradientTransform="matrix(1 0 0 -1 0 472)">
		<stop  offset="0" style="stop-color:#FF928E"/>
		<stop  offset="1" style="stop-color:#FE7062"/>
	</linearGradient>
	<path class="st44" d="M125.7,229.4c0.5-0.2,1,0.1,1.2,0.6l0.8,2.3c0.1,0.2,0.4,0.3,0.5,0.1l4.1-5.8c0.2-0.3,0.7-0.1,0.6,0.3
		c-0.4,1.9-1.6,5.5-5.3,8.1c0,0-1.6-1-2.4-4.3C125,230.1,125.3,229.6,125.7,229.4z"/>
	<path class="st5" d="M130,241.1c-0.2-0.1-0.4-0.2-0.6-0.2c0,0,0,0,0,0c-0.2,0-0.4-0.1-0.6-0.1c-1.1-0.2-2.6-0.3-4-0.5
		c-0.8-0.1-1.4-0.2-1.9-0.2c-0.4,0-0.7,0.1-1,0.3c-0.2,0.2-0.4,0.5-0.4,0.8l-0.4,5c-0.1,0.8,0.5,1.5,1.4,1.7l5.8,1.2c0,0,0,0,0,0
		c0.8,0.2,1.6-0.3,1.8-1.1c0.5-2.3,0.9-4.4,0.8-5.6C130.7,241.8,130.4,241.3,130,241.1z M130.3,242.3c0.1,1.1-0.3,3.2-0.8,5.4
		c-0.1,0.5-0.6,0.8-1.2,0.7c0,0,0,0,0,0l-5.8-1.2c-0.6-0.1-1-0.6-1-1.1l0.4-5c0-0.2,0.1-0.3,0.2-0.4c0.2-0.1,0.4-0.2,0.6-0.2
		c0.5,0.1,1.2,0.1,2,0.2c1.2,0.1,2.7,0.3,3.7,0.4c0.3,0.1,0.6,0.1,0.8,0.1c0.2,0,0.4,0.1,0.5,0.2C130.1,241.7,130.3,242,130.3,242.3
		z"/>
	<path class="st30" d="M123.2,241.1c1.2,0.2,4,0.4,5.2,0.6c0.5,0.1,1,0.5,1,1c0.1,1-0.3,2.7-0.7,4.4c-0.1,0.5-0.6,0.8-1.2,0.7
		l-4.7-0.9c-0.6-0.1-1-0.6-0.9-1.1l0.3-4C122.4,241.4,122.8,241.1,123.2,241.1z"/>
	<g class="st43">
		<path class="st30" d="M135.1,245c-0.7-0.2-1.3,0.3-1.3,1.1l0,0.3c0.1,0.8,0.7,1.5,1.5,1.6l27.7,5.3c0.7,0.1,1.4-0.2,1.5-0.8
			c0.1-0.6-0.4-1.2-1.2-1.4L135.1,245z"/>
	</g>
	
		<linearGradient id="SVGID_3_" gradientUnits="userSpaceOnUse" x1="1360.7904" y1="1001.6961" x2="1315.7905" y2="973.5161" gradientTransform="matrix(1 0 0 -1 0 472)">
		<stop  offset="0" style="stop-color:#FF928E"/>
		<stop  offset="1" style="stop-color:#FE7062"/>
	</linearGradient>
	<path class="st45" d="M123.3,242c0.5-0.2,1,0.1,1.2,0.6l0.8,2.3c0.1,0.2,0.4,0.3,0.5,0.1l4.1-5.8c0.2-0.3,0.7-0.1,0.6,0.3
		c-0.4,1.9-1.6,5.5-5.3,8.1c0,0-1.6-1-2.4-4.3C122.6,242.6,122.9,242.1,123.3,242z"/>
	<path class="st5" d="M127.1,253c-0.2-0.1-0.4-0.2-0.6-0.2c-0.2,0-0.4-0.1-0.6-0.1c-1.1-0.2-2.7-0.3-4-0.5c-0.8-0.1-1.4-0.2-2-0.2
		c-0.4,0-0.7,0.1-1,0.3c-0.2,0.2-0.4,0.5-0.4,0.8l-0.4,5c-0.1,0.8,0.5,1.5,1.4,1.7l5.8,1.2h0c0.8,0.2,1.6-0.3,1.8-1.1
		c0.5-2.3,0.9-4.4,0.8-5.6C127.9,253.7,127.6,253.3,127.1,253z M127.4,254.3c0.1,1.1-0.3,3.2-0.8,5.4c-0.1,0.5-0.7,0.8-1.2,0.7
		l-5.8-1.2c-0.6-0.1-1-0.6-1-1.1l0.4-5c0-0.2,0.1-0.3,0.2-0.4c0.2-0.1,0.4-0.2,0.6-0.2c0.5,0.1,1.2,0.1,2,0.2
		c1.2,0.1,2.7,0.3,3.7,0.4c0.3,0,0.6,0.1,0.8,0.1c0.2,0,0.4,0.1,0.6,0.2C127.2,253.7,127.4,254,127.4,254.3z"/>
	<path class="st30" d="M120.4,253.1c1.2,0.2,4,0.4,5.2,0.6c0.5,0.1,1,0.5,1,1c0.1,1-0.3,2.7-0.7,4.4c-0.1,0.5-0.6,0.8-1.2,0.7
		l-4.7-0.9c-0.6-0.1-1-0.6-0.9-1.1l0.3-4C119.5,253.3,119.9,253,120.4,253.1z"/>
	<g class="st43">
		<path class="st30" d="M132.3,256.9c-0.7-0.2-1.3,0.3-1.3,1.1l0,0.3c0.1,0.8,0.7,1.5,1.5,1.6l27.7,5.3c0.7,0.1,1.4-0.2,1.5-0.8
			c0.1-0.6-0.4-1.2-1.2-1.4L132.3,256.9z"/>
	</g>
	
		<linearGradient id="SVGID_4_" gradientUnits="userSpaceOnUse" x1="1365.3633" y1="994.3826" x2="1320.3633" y2="966.2036" gradientTransform="matrix(1 0 0 -1 0 472)">
		<stop  offset="0" style="stop-color:#FF928E"/>
		<stop  offset="1" style="stop-color:#FE7062"/>
	</linearGradient>
	<path class="st46" d="M120.5,253.9c0.5-0.2,1,0.1,1.2,0.6l0.8,2.3c0.1,0.2,0.4,0.3,0.5,0.1l4.1-5.8c0.2-0.3,0.7-0.1,0.6,0.3
		c-0.4,1.9-1.6,5.5-5.3,8.1c0,0-1.6-1-2.4-4.3C119.8,254.5,120,254.1,120.5,253.9z"/>
	<path class="st5" d="M124.1,265.3c-0.2-0.1-0.4-0.2-0.6-0.2c-0.2,0-0.4-0.1-0.6-0.1c-1.1-0.2-2.6-0.3-4-0.5c-0.8-0.1-1.5-0.2-2-0.2
		c-0.4,0-0.7,0.1-1,0.3c-0.2,0.2-0.4,0.5-0.4,0.8l-0.4,5c-0.1,0.8,0.5,1.5,1.4,1.7l5.8,1.2c0,0,0,0,0,0c0.8,0.2,1.6-0.3,1.8-1.1
		c0.5-2.3,0.9-4.4,0.8-5.6C124.8,266,124.5,265.6,124.1,265.3z M124.4,266.6c0.1,1.1-0.3,3.2-0.8,5.4c-0.1,0.5-0.6,0.8-1.2,0.7
		c0,0,0,0,0,0l-5.8-1.2c-0.6-0.1-1-0.6-1-1.1l0.4-5c0-0.2,0.1-0.3,0.2-0.4c0.2-0.1,0.4-0.2,0.6-0.2c0.5,0.1,1.2,0.1,2,0.2
		c1.2,0.1,2.7,0.3,3.7,0.4c0.3,0,0.6,0.1,0.8,0.1c0.2,0,0.4,0.1,0.6,0.2C124.2,266,124.4,266.3,124.4,266.6z"/>
	<path class="st30" d="M117.3,265.4c1.2,0.2,4,0.4,5.2,0.6c0.5,0.1,1,0.5,1,1c0.1,1-0.3,2.7-0.7,4.4c-0.1,0.5-0.6,0.8-1.2,0.7
		l-4.7-0.9c-0.6-0.1-1-0.6-0.9-1.1l0.3-4C116.5,265.6,116.9,265.3,117.3,265.4z"/>
	<g class="st43">
		<path class="st30" d="M129.2,269.2c-0.7-0.2-1.3,0.3-1.3,1.1l0,0.3c0.1,0.8,0.7,1.5,1.5,1.6l27.7,5.3c0.7,0.1,1.4-0.2,1.5-0.8
			c0.1-0.6-0.4-1.2-1.2-1.4L129.2,269.2z"/>
	</g>
	
		<linearGradient id="SVGID_5_" gradientUnits="userSpaceOnUse" x1="1370.0229" y1="986.9351" x2="1325.0229" y2="958.7551" gradientTransform="matrix(1 0 0 -1 0 472)">
		<stop  offset="0" style="stop-color:#FF928E"/>
		<stop  offset="1" style="stop-color:#FE7062"/>
	</linearGradient>
	<path class="st47" d="M117.5,266.2c0.5-0.2,1,0.1,1.2,0.6l0.8,2.3c0.1,0.2,0.4,0.3,0.5,0.1l4.1-5.8c0.2-0.3,0.7-0.1,0.6,0.3
		c-0.4,1.9-1.6,5.5-5.3,8.1c0,0-1.6-1-2.4-4.3C116.7,266.8,117,266.4,117.5,266.2z"/>
	
		<linearGradient id="SVGID_6_" gradientUnits="userSpaceOnUse" x1="166.9753" y1="282.1663" x2="129.4574" y2="268.5423" gradientTransform="matrix(1 0 0 -1 0 472)">
		<stop  offset="0" style="stop-color:#09005D"/>
		<stop  offset="1" style="stop-color:#1A0F91"/>
	</linearGradient>
	<path class="st48" d="M157,191.9c-1.6-1.7-3.2-2.1-4.4-2c-1.1,0.1-2,0.9-2.2,2l-0.6,4.8l-0.1,0.7l5.7,1.8c0,0,0.4-0.3,0.8-0.8
		C157.4,197.1,159.2,194.3,157,191.9z M152.3,193.9c0.2-0.8,1-1.3,1.8-1.1c0.8,0.2,1.3,1,1.1,1.8c-0.2,0.8-1,1.3-1.8,1.1
		C152.6,195.5,152.1,194.7,152.3,193.9z"/>
	<path class="st40" d="M155.2,191.1c-0.7-0.3-1.5-0.5-2.2-0.4c-1.1,0.1-2.1,0.9-2.2,2.1l-0.1,0.7c0,0.1,0,0.2,0.1,0.3
		c0,0,0.1,0,0.1,0c0.2,0,0.3-0.1,0.3-0.3l0.1-0.7c0.1-0.8,0.8-1.5,1.6-1.5c0.7,0,1.3,0.1,1.9,0.4c0.1,0.1,0.3,0,0.4-0.1
		C155.5,191.3,155.4,191.2,155.2,191.1z M150.9,194c-0.2,0-0.3,0.1-0.3,0.3l-0.1,0.9c0,0.1,0,0.2,0.1,0.3c0,0,0.1,0,0.1,0
		c0.2,0,0.3-0.1,0.3-0.3l0.1-0.9C151.2,194.2,151.1,194,150.9,194z"/>
	
		<linearGradient id="SVGID_7_" gradientUnits="userSpaceOnUse" x1="166.6228" y1="283.9516" x2="135.8208" y2="258.0436" gradientTransform="matrix(1 0 0 -1 0 472)">
		<stop  offset="0" style="stop-color:#09005D"/>
		<stop  offset="1" style="stop-color:#1A0F91"/>
	</linearGradient>
	<path class="st49" d="M140.9,199.1l0.6-2.7c0.2-0.9,1.1-1.5,2.1-1.3l18.5,4.8c0.8,0.2,1.3,1,1.2,1.9l-0.4,2.6L140.9,199.1z"/>
	<path class="st40" d="M147.8,197l0.8,0.2L147.8,197z"/>
	<path class="st40" d="M142,198.6c-0.1-0.1-0.2-0.2-0.1-0.3l0.2-1.1c0.1-0.5,0.4-0.8,0.8-1.1c0.4-0.2,0.9-0.3,1.3-0.2l2.9,0.7
		c0.2,0,0.3,0.2,0.2,0.4c0,0.2-0.2,0.3-0.4,0.2l-2.9-0.7c-0.6-0.1-1.2,0.2-1.4,0.9l-0.2,1.1C142.4,198.6,142.2,198.7,142,198.6
		C142,198.6,142,198.6,142,198.6z"/>
	<path class="st40" d="M135.3,196.8l32.6,7.3c1.2,0.3,2,1.3,1.9,2.5l0,0.2c-0.1,1.3-1.3,2.3-2.6,2l-33.4-7.5c-0.8-0.2-1.2-1-1-1.7
		l0.4-1.5C133.4,197.1,134.3,196.6,135.3,196.8z"/>
	
		<linearGradient id="SVGID_8_" gradientUnits="userSpaceOnUse" x1="78.0135" y1="38.5054" x2="57.2965" y2="-9.1426" gradientTransform="matrix(1 0 0 -1 0 472)">
		<stop  offset="0" style="stop-color:#09005D"/>
		<stop  offset="1" style="stop-color:#1A0F91"/>
	</linearGradient>
	<path class="st50" d="M52.4,456.7c0,0-0.8,4.5-1.2,8.9c-0.2,1.7,1.2,3.2,2.9,3.3c5.9,0.2,18.6,0.7,23.1,0.5c0.7,0,1.1-0.7,0.9-1.4
		c-0.2-0.5-0.6-1-1.1-1.2l-20.9-9.6L52.4,456.7z"/>
	
		<linearGradient id="SVGID_9_" gradientUnits="userSpaceOnUse" x1="51.7481" y1="15.3202" x2="58.5571" y2="15.3202" gradientTransform="matrix(1 0 0 -1 0 472)">
		<stop  offset="0" style="stop-color:#FEBBBA"/>
		<stop  offset="1" style="stop-color:#FF928E"/>
	</linearGradient>
	<path class="st51" d="M51.7,454.1l0.6,5.4c0,0,3.7,1.7,6.2-0.2l-1.5-6L51.7,454.1z"/>
	
		<linearGradient id="SVGID_10_" gradientUnits="userSpaceOnUse" x1="35.6054" y1="67.3716" x2="58.1167" y2="67.3716" gradientTransform="matrix(1 0 0 -1 0 472)">
		<stop  offset="0" style="stop-color:#09005D"/>
		<stop  offset="1" style="stop-color:#1A0F91"/>
	</linearGradient>
	<path class="st52" d="M52.2,353c-0.3,1.4-1.5,70,5.9,100.8c0.1,0.5-0.1,1-0.6,1.2c-1.1,0.5-3.3,1.1-6,1.2c-0.8,0-1.6-0.5-1.8-1.3
		c-2.1-7.1-12.1-42.9-13.5-77c-1.5-38.2,0-1.3,0-1.3l0.9-23.6L52.2,353z"/>
	
		<linearGradient id="SVGID_11_" gradientUnits="userSpaceOnUse" x1="50.8293" y1="50.3241" x2="30.1123" y2="2.6761" gradientTransform="matrix(1 0 0 -1 0 472)">
		<stop  offset="0" style="stop-color:#09005D"/>
		<stop  offset="1" style="stop-color:#1A0F91"/>
	</linearGradient>
	<path class="st53" d="M28.3,459c0,0-1.3,2.3-2.5,8.3c-0.2,1.1,0.5,2.1,1.6,2.2c2,0.2,5,0.4,7.4,0.4c1.1,0,2-1,1.8-2.1
		c-0.3-2.2-1.1-5.8-3.7-8.6L28.3,459z"/>
	
		<linearGradient id="SVGID_12_" gradientUnits="userSpaceOnUse" x1="27.2151" y1="15.6783" x2="33.0931" y2="15.6783" gradientTransform="matrix(1 0 0 -1 0 472)">
		<stop  offset="0" style="stop-color:#FEBBBA"/>
		<stop  offset="1" style="stop-color:#FF928E"/>
	</linearGradient>
	<path class="st54" d="M27.2,452.1l1.5,8.1c0,0,1.5,1.1,4.4,0.3l-0.7-8.7L27.2,452.1z"/>
	
		<linearGradient id="SVGID_13_" gradientUnits="userSpaceOnUse" x1="20.8812" y1="68.1015" x2="52.8331" y2="68.1015" gradientTransform="matrix(1 0 0 -1 0 472)">
		<stop  offset="0" style="stop-color:#09005D"/>
		<stop  offset="1" style="stop-color:#1A0F91"/>
	</linearGradient>
	<path class="st55" d="M23.2,355.1c-6,36.2,1.3,89.5,3.8,99.9c0.2,0.6,0.7,1.1,1.3,1.2c1.1,0.2,2.9,0.3,4.7-0.2
		c0.6-0.2,1-0.7,1.1-1.4c0.3-8.4-0.3-60.2,5.3-80.7c0.3-1,0.9-1.9,1.8-2.6l10.9-7.7l0.8-12.5L23.2,355.1z"/>
	
		<linearGradient id="SVGID_14_" gradientUnits="userSpaceOnUse" x1="11.7924" y1="129.4032" x2="118.9154" y2="206.4952" gradientTransform="matrix(1 0 0 -1 0 472)">
		<stop  offset="0" style="stop-color:#4F52FF"/>
		<stop  offset="0.866" style="stop-color:#4244E6"/>
		<stop  offset="1" style="stop-color:#4042E2"/>
	</linearGradient>
	<path class="st56" d="M61.4,286.5c-18-0.3-37.8,4.7-37.8,4.7c-5.4,31.3-0.9,67.4-0.9,67.4c13.9,3.7,29.6-2.2,29.6-2.2
		c2.3-13.1,13.1-49.9,13.1-49.9c8.8-1.1,16-3.6,22-7c-4.5-5.3-6.7-12-7.6-15.9C73.4,285.5,67,286.6,61.4,286.5z"/>
	
		<linearGradient id="SVGID_15_" gradientUnits="userSpaceOnUse" x1="75.3173" y1="173.0062" x2="121.5843" y2="211.6762" gradientTransform="matrix(1 0 0 -1 0 472)">
		<stop  offset="0" style="stop-color:#FEBBBA"/>
		<stop  offset="1" style="stop-color:#FF928E"/>
	</linearGradient>
	<path class="st57" d="M114.5,260c-1.8-2.1-4-1.1-4-1.1c-2.6,11.2-16.5,20.2-30.8,24.7c0.9,4,3.1,10.7,7.6,15.9
		C111,286.2,114.5,260,114.5,260z"/>
	
		<linearGradient id="SVGID_16_" gradientUnits="userSpaceOnUse" x1="105.1738" y1="203.9304" x2="121.5168" y2="226.4884" gradientTransform="matrix(1 0 0 -1 0 472)">
		<stop  offset="0" style="stop-color:#FEBBBA"/>
		<stop  offset="1" style="stop-color:#FF928E"/>
	</linearGradient>
	<path class="st58" d="M114.1,260.5c0.2,0.6-2,1.5-3.2-0.9c0-1.1-0.7-6.1-0.1-7c3.7-5,10.8-11.3,10.8-11.3c1.2,1.2,0.2,2.3,0.2,2.3
		l-3.5,3.6c0.7,1.3,1.6,2.4,2,4c0.3,1.2,0.1,2.5-0.5,3.6c-0.6,1.1-1.4,2.5-2.2,3.6C116.2,260.5,114.1,260.5,114.1,260.5z"/>
	
		<linearGradient id="SVGID_17_" gradientUnits="userSpaceOnUse" x1="113.0494" y1="214.9389" x2="145.5054" y2="253.6099" gradientTransform="matrix(1 0 0 -1 0 472)">
		<stop  offset="0" style="stop-color:#FEBBBA"/>
		<stop  offset="1" style="stop-color:#FF928E"/>
	</linearGradient>
	<path class="st59" d="M116.9,249.6l-3.1,2.7l-1,2.7l2.8,3.1c0,0,0.9-5.3,1.6-6.4C117.9,250.5,117.5,249.9,116.9,249.6z"/>
	
		<linearGradient id="SVGID_18_" gradientUnits="userSpaceOnUse" x1="-2.3226" y1="149.0164" x2="104.799" y2="226.1084" gradientTransform="matrix(1 0 0 -1 0 472)">
		<stop  offset="0" style="stop-color:#4F52FF"/>
		<stop  offset="0.866" style="stop-color:#4244E6"/>
		<stop  offset="1" style="stop-color:#4042E2"/>
	</linearGradient>
	<path class="st60" d="M30.5,308.6l-6.9-17.4c0,0-16.8,11.4-19.6,25.9c3.2,0.2,8.9,1.1,14.6,3.9C19.9,314.2,30.5,308.6,30.5,308.6z"
		/>
	
		<linearGradient id="SVGID_19_" gradientUnits="userSpaceOnUse" x1="3.6636" y1="143.6669" x2="47.6721" y2="143.6669" gradientTransform="matrix(1 0 0 -1 0 472)">
		<stop  offset="0" style="stop-color:#FEBBBA"/>
		<stop  offset="1" style="stop-color:#FF928E"/>
	</linearGradient>
	<path class="st61" d="M45.2,325c0,0-18.9,10.7-25.2,1.6c-1.3-1.9-1.6-3.8-1.3-5.6c-5.7-2.9-11.4-3.7-14.6-3.9
		c-0.8,4.4-0.4,9,2.2,13.7c11.1,20.4,41.5-1.1,41.5-1.1L45.2,325z"/>
	<path class="st40" d="M42.9,338.5l10.3-35.9c0.1-0.4,0.5-0.7,0.9-0.8c1.9-0.2,7.3-0.8,13.5-1.4c7.5-0.6,16.2-1.1,21.5-0.7
		c0.7,0.1,1.2,0.9,0.9,1.5c-3,6-15.2,30.4-21.3,38.4c-0.2,0.3-0.5,0.4-0.9,0.4l-23.9-0.2C43.2,339.8,42.7,339.2,42.9,338.5z"/>
	
		<linearGradient id="SVGID_20_" gradientUnits="userSpaceOnUse" x1="96.3914" y1="209.1227" x2="82.9264" y2="189.4427" gradientTransform="matrix(1 0 0 -1 0 472)">
		<stop  offset="0" style="stop-color:#09005D"/>
		<stop  offset="1" style="stop-color:#1A0F91"/>
	</linearGradient>
	<path class="st62" d="M68.7,297.3l7.5-1.2c0.4-0.1,0.7,0.3,0.6,0.7L76,299c-0.1,0.2-0.2,0.3-0.4,0.4l-7.2,1
		c-0.4,0.1-0.7-0.3-0.6-0.7l0.5-2C68.3,297.5,68.5,297.4,68.7,297.3z"/>
	
		<linearGradient id="SVGID_21_" gradientUnits="userSpaceOnUse" x1="97.5717" y1="208.3154" x2="84.1067" y2="188.6344" gradientTransform="matrix(1 0 0 -1 0 472)">
		<stop  offset="0" style="stop-color:#09005D"/>
		<stop  offset="1" style="stop-color:#1A0F91"/>
	</linearGradient>
	<path class="st63" d="M63.1,303.6l0.6-3.2c0.1-0.3,0.3-0.6,0.7-0.6l15.1-1.5c0.5-0.1,0.9,0.4,0.8,0.9l-1,4
		c-0.1,0.3-0.4,0.6-0.7,0.6l-14.7,0.7C63.4,304.5,63,304.1,63.1,303.6z"/>
	
		<linearGradient id="SVGID_22_" gradientUnits="userSpaceOnUse" x1="44.4038" y1="148.2789" x2="58.1161" y2="148.2789" gradientTransform="matrix(1 0 0 -1 0 472)">
		<stop  offset="0" style="stop-color:#FEBBBA"/>
		<stop  offset="1" style="stop-color:#FF928E"/>
	</linearGradient>
	<path class="st64" d="M45.4,329.8c0,0-1.4-5.9-0.9-8c0.6-2.1,1.7-4.8,5.4-4.2s8.1,2.2,8.1,2.2s-0.2,2.7-3.1,1.8l1.8,1.4
		c0,0-0.3,2.2-2.7,1l1.6,1.8c0,0-1,1.8-2.8,0.6S50.4,330.5,45.4,329.8z"/>
	
		<linearGradient id="SVGID_23_" gradientUnits="userSpaceOnUse" x1="38.1851" y1="173.4998" x2="50.1551" y2="196.7488" gradientTransform="matrix(1 0 0 -1 0 472)">
		<stop  offset="0" style="stop-color:#FEBBBA"/>
		<stop  offset="1" style="stop-color:#FF928E"/>
	</linearGradient>
	<path class="st65" d="M43.2,271.9l-5.7,16.5c-0.1,0.3,0,0.6,0.3,0.7c1.6,0.9,7.2,3.4,14-0.9c0.7-0.5,1.2-1.2,1.3-2l1.9-14.3
		L43.2,271.9L43.2,271.9z"/>
	
		<linearGradient id="SVGID_24_" gradientUnits="userSpaceOnUse" x1="318.1907" y1="40.7624" x2="347.9527" y2="22.2823" gradientTransform="matrix(1 0 0 -1 0 472)">
		<stop  offset="0" style="stop-color:#FEBBBA"/>
		<stop  offset="1" style="stop-color:#FF928E"/>
	</linearGradient>
	<path class="st66" d="M55.7,256.6c0,0,6.3,11.8,5.5,16.6c-0.8,4.8-8.6,4.4-15.4,0.6L41,261L55.7,256.6z"/>
	
		<linearGradient id="SVGID_25_" gradientUnits="userSpaceOnUse" x1="29.7319" y1="225.758" x2="54.4499" y2="206.235" gradientTransform="matrix(1 0 0 -1 0 472)">
		<stop  offset="0" style="stop-color:#09005D"/>
		<stop  offset="1" style="stop-color:#1A0F91"/>
	</linearGradient>
	<path class="st67" d="M46,267.5c0.3-0.1,0.4-0.5,0.2-0.7c-0.5-0.8-1.4-2.3-1.8-3.7c0,0-1.1-0.7,2.9-1.7c4-1,10-2.4,11.2-5.9
		c1.2-3.3-2-11.7-7.1-5c-0.2,0.3-0.6,0.3-0.8,0c-0.8-1.1-3.1-3.4-6.1-2c-2.9,1.3-3.2,3.4-3.2,4.5c0,0.3-0.3,0.6-0.6,0.5
		c-1.5-0.3-4.9-0.5-6.6,3.1c-1.3,2.9-0.5,4.6,0.3,5.4c0.3,0.3,0.1,0.7-0.2,0.8c-1,0.3-2.2,1.1-2.1,3.3c0.2,3.1,3.6,2.8,4.6,2.7
		c0.2,0,0.3,0,0.4,0.2c0.8,0.9,4.6,4.9,8.8,5.4c0.4,0,0.6-0.3,0.5-0.6l-1.8-5.2c-0.1-0.2,0-0.5,0.3-0.6L46,267.5z"/>
	
		<linearGradient id="SVGID_26_" gradientUnits="userSpaceOnUse" x1="314.8394" y1="35.3667" x2="344.6024" y2="16.8867" gradientTransform="matrix(1 0 0 -1 0 472)">
		<stop  offset="0" style="stop-color:#FEBBBA"/>
		<stop  offset="1" style="stop-color:#FF928E"/>
	</linearGradient>
	<path class="st68" d="M46.8,268.2c0,0-4.5-3.1-4.8-0.5c-0.3,2.6,4,3.7,6.2,2.8L46.8,268.2z"/>
	<circle class="st27" cx="325.5" cy="366.8" r="4.5"/>
	<path class="st69" d="M751,318.3h91c12.7,0,23,10.3,23,23v36c0,12.7-10.3,23-23,23h-91c-12.7,0-23-10.3-23-23v-36
		C728,328.6,738.3,318.3,751,318.3z"/>
	<path class="st69" d="M287,256.3h3c14.9,0,27,12.1,27,27l0,0c0,14.9-12.1,27-27,27h-3c-14.9,0-27-12.1-27-27l0,0
		C260,268.4,272.1,256.3,287,256.3z"/>
	<path class="st5" d="M749.5,341.3h57c3.6,0,6.5,2.9,6.5,6.5l0,0c0,3.6-2.9,6.5-6.5,6.5h-57c-3.6,0-6.5-2.9-6.5-6.5l0,0
		C743,344.2,745.9,341.3,749.5,341.3z"/>
	<path class="st5" d="M276,273.3h13c2.2,0,4,1.8,4,4l0,0c0,2.2-1.8,4-4,4h-13c-2.2,0-4-1.8-4-4l0,0C272,275.1,273.8,273.3,276,273.3
		z"/>
	<path class="st5" d="M749.5,361.3h94c3.6,0,6.5,2.9,6.5,6.5l0,0c0,3.6-2.9,6.5-6.5,6.5h-94c-3.6,0-6.5-2.9-6.5-6.5l0,0
		C743,364.2,745.9,361.3,749.5,361.3z"/>
	<path class="st5" d="M276,285.3h24c2.2,0,4,1.8,4,4l0,0c0,2.2-1.8,4-4,4h-24c-2.2,0-4-1.8-4-4l0,0C272,287.1,273.8,285.3,276,285.3
		z"/>
</g>
</svg>
