<?xml version="1.0" encoding="utf-8"?>
<!-- Generator: Adobe Illustrator 25.2.1, SVG Export Plug-In . SVG Version: 6.00 Build 0)  -->
<svg version="1.1" id="Layer_1" xmlns="http://www.w3.org/2000/svg" xmlns:xlink="http://www.w3.org/1999/xlink" x="0px" y="0px"
	 width="590.2px" height="509px" viewBox="0 0 590.2 509" style="enable-background:new 0 0 590.2 509;" xml:space="preserve">
<style type="text/css">
	.st0{clip-path:url(#SVGID_2_);}
	.st1{fill:#F5F5F5;}
	.st2{fill:#E0E0E0;}
	.st3{fill:#FFFFFF;}
	.st4{fill:#263238;}
	.st5{fill:#FF725E;}
	.st6{fill:none;stroke:#FFFFFF;stroke-linecap:round;stroke-linejoin:round;}
	.st7{fill:none;stroke:#FF725E;stroke-miterlimit:10;}
	.st8{fill:#455A64;}
	.st9{fill:#FFBF9D;}
	.st10{fill:#FF9A6C;}
	.st11{fill:#0D51D9;}
	.st12{clip-path:url(#SVGID_4_);}
	.st13{fill:none;stroke:#B6C9CF;stroke-width:3;stroke-linecap:round;stroke-linejoin:round;}
</style>
<g>
	<g>
		<defs>
			<rect id="SVGID_1_" x="270" y="273" width="298" height="236"/>
		</defs>
		<clipPath id="SVGID_2_">
			<use xlink:href="#SVGID_1_"  style="overflow:visible;"/>
		</clipPath>
		<g class="st0">
			<path class="st1" d="M487.7,465.7v24.3h-4.1v2.6h4.1V509h76v-14.8H558v-3.2h5.6v-4.9h2.5v-2.2h-3v-18.2H487.7z"/>
			<path class="st2" d="M543.5,465.8v42.9h20.2v-14.8H558v-3l5.6,0.1v-4.8l2.5,0l0-2.5l-3-0.1v-17.9L543.5,465.8z"/>
			<path class="st2" d="M545,492.4c0,0.2-13.7,0.3-30.7,0.3c-17,0-30.7-0.1-30.7-0.3s13.7-0.3,30.7-0.3
				C531.2,492.1,545,492.2,545,492.4z"/>
			<path class="st2" d="M545,489.9c0,0.1-13.7,0.3-30.7,0.3c-17,0-30.7-0.1-30.7-0.3c0-0.1,13.7-0.3,30.7-0.3
				C531.2,489.6,545,489.7,545,489.9z"/>
			<path class="st2" d="M548.9,483.2c0,0.1-13.7,0.3-30.7,0.3s-30.7-0.1-30.7-0.3c0-0.1,13.7-0.3,30.7-0.3S548.9,483.1,548.9,483.2z
				"/>
			<path class="st2" d="M549.3,501.4c0,0.1-13.7,0.3-30.7,0.3c-17,0-30.7-0.1-30.7-0.3c0-0.1,13.7-0.3,30.7-0.3
				C535.5,501.1,549.3,501.2,549.3,501.4z"/>
			<path class="st3" d="M452.4,337.3h109c0.8,0,1.7,0.2,2.5,0.5c0.8,0.3,1.5,0.8,2.1,1.4c0.6,0.6,1.1,1.3,1.4,2.1
				c0.3,0.8,0.5,1.6,0.5,2.5v79.1c0,1.3-0.3,2.6-0.8,3.9c-0.5,1.2-1.3,2.3-2.2,3.3c-0.9,0.9-2.1,1.7-3.3,2.2
				c-1.2,0.5-2.5,0.8-3.9,0.8H454.7c-2.7,0-5.3-1.1-7.2-3c-1.9-1.9-3-4.5-3-7.2v-77.6c0-2.1,0.8-4.1,2.3-5.6
				C448.3,338.2,450.3,337.3,452.4,337.3z"/>
			<path class="st2" d="M452.4,337.3h109c0.8,0,1.7,0.2,2.5,0.5c0.8,0.3,1.5,0.8,2.1,1.4c0.6,0.6,1.1,1.3,1.4,2.1
				c0.3,0.8,0.5,1.6,0.5,2.5v7H444.5v-5.5c0-2.1,0.8-4.1,2.3-5.6C448.3,338.2,450.3,337.3,452.4,337.3z"/>
			<path class="st3" d="M453.3,344.3c0,0.3-0.1,0.7-0.3,1c-0.2,0.3-0.5,0.5-0.8,0.6c-0.3,0.1-0.7,0.2-1,0.1
				c-0.3-0.1-0.6-0.2-0.9-0.5c-0.2-0.2-0.4-0.6-0.5-0.9c-0.1-0.3,0-0.7,0.1-1c0.1-0.3,0.4-0.6,0.6-0.8c0.3-0.2,0.6-0.3,1-0.3
				c0.5,0,0.9,0.2,1.2,0.5C453.1,343.4,453.3,343.8,453.3,344.3z"/>
			<path class="st3" d="M459.1,344.3c0,0.3-0.1,0.7-0.3,1c-0.2,0.3-0.5,0.5-0.8,0.6c-0.3,0.1-0.7,0.2-1,0.1
				c-0.3-0.1-0.6-0.2-0.9-0.5c-0.2-0.2-0.4-0.6-0.5-0.9c-0.1-0.3,0-0.7,0.1-1c0.1-0.3,0.4-0.6,0.6-0.8c0.3-0.2,0.6-0.3,1-0.3
				c0.2,0,0.5,0,0.7,0.1c0.2,0.1,0.4,0.2,0.6,0.4c0.2,0.2,0.3,0.4,0.4,0.6C459,343.8,459.1,344,459.1,344.3z"/>
			<path class="st3" d="M464.8,344.3c0,0.3-0.1,0.7-0.3,1c-0.2,0.3-0.5,0.5-0.8,0.6c-0.3,0.1-0.7,0.2-1,0.1
				c-0.3-0.1-0.6-0.2-0.9-0.5c-0.2-0.2-0.4-0.6-0.5-0.9c-0.1-0.3,0-0.7,0.1-1c0.1-0.3,0.4-0.6,0.6-0.8c0.3-0.2,0.6-0.3,1-0.3
				c0.5,0,0.9,0.2,1.2,0.5C464.6,343.4,464.8,343.8,464.8,344.3z"/>
			<path class="st4" d="M491.9,366.7v1.6H486V361h5.7v1.6h-3.7v1.2h3.2v1.5h-3.2v1.3H491.9z M498.8,362.7l-2.3,5.6h-2l-2.3-5.6h2
				l1.3,3.4l1.4-3.4H498.8z M504.9,365.5c0,0,0,0.2,0,0.5h-4.1c0.1,0.3,0.2,0.5,0.5,0.7c0.2,0.2,0.5,0.2,0.9,0.2
				c0.3,0,0.5,0,0.7-0.1c0.2-0.1,0.4-0.2,0.6-0.4l1,1.1c-0.5,0.6-1.3,0.9-2.4,0.9c-0.7,0-1.2-0.1-1.7-0.4c-0.5-0.2-0.9-0.6-1.2-1
				c-0.3-0.4-0.4-0.9-0.4-1.5c0-0.6,0.1-1,0.4-1.5c0.3-0.4,0.6-0.8,1.1-1c0.5-0.2,1-0.4,1.6-0.4c0.6,0,1.1,0.1,1.5,0.4
				c0.5,0.2,0.8,0.6,1.1,1C504.7,364.4,504.9,364.9,504.9,365.5z M501.9,364c-0.3,0-0.6,0.1-0.8,0.3c-0.2,0.2-0.3,0.4-0.4,0.7h2.3
				c-0.1-0.3-0.2-0.5-0.4-0.7C502.4,364.1,502.2,364,501.9,364z M509.4,362.6c0.7,0,1.3,0.2,1.7,0.6c0.4,0.4,0.6,1,0.6,1.9v3.2h-2
				v-2.9c0-0.8-0.3-1.1-0.9-1.1c-0.3,0-0.6,0.1-0.8,0.3c-0.2,0.2-0.3,0.6-0.3,1v2.7h-2v-5.6h1.9v0.6c0.2-0.2,0.5-0.4,0.8-0.5
				C508.8,362.6,509.1,362.6,509.4,362.6z M516.9,368c-0.2,0.1-0.4,0.2-0.6,0.2c-0.2,0.1-0.5,0.1-0.8,0.1c-0.7,0-1.3-0.2-1.7-0.5
				c-0.4-0.4-0.6-0.9-0.6-1.6v-1.9h-0.8v-1.5h0.8v-1.5h2v1.5h1.3v1.5h-1.3v1.9c0,0.2,0.1,0.4,0.2,0.5c0.1,0.1,0.3,0.2,0.4,0.2
				c0.2,0,0.4-0.1,0.6-0.2L516.9,368z M519.7,368.4c-0.5,0-0.9-0.1-1.4-0.2c-0.5-0.1-0.8-0.3-1.1-0.4l0.6-1.3
				c0.3,0.2,0.6,0.3,0.9,0.4c0.4,0.1,0.7,0.1,1,0.1c0.3,0,0.5,0,0.7-0.1c0.1-0.1,0.2-0.2,0.2-0.3s-0.1-0.2-0.2-0.3
				c-0.2-0.1-0.4-0.1-0.8-0.2c-0.4-0.1-0.8-0.1-1.1-0.2c-0.3-0.1-0.6-0.3-0.8-0.5c-0.2-0.2-0.3-0.6-0.3-1c0-0.4,0.1-0.7,0.3-1
				c0.2-0.3,0.5-0.5,0.9-0.7c0.4-0.2,0.9-0.2,1.5-0.2c0.4,0,0.8,0,1.2,0.1c0.4,0.1,0.7,0.2,1,0.4l-0.6,1.3c-0.5-0.3-1-0.4-1.6-0.4
				c-0.3,0-0.5,0-0.7,0.1c-0.1,0.1-0.2,0.2-0.2,0.3c0,0.1,0.1,0.2,0.2,0.3c0.2,0,0.4,0.1,0.8,0.2c0.5,0.1,0.8,0.1,1.1,0.2
				c0.3,0.1,0.6,0.3,0.8,0.5c0.2,0.2,0.3,0.6,0.3,1c0,0.4-0.1,0.7-0.3,1c-0.2,0.3-0.5,0.5-1,0.7
				C520.8,368.3,520.3,368.4,519.7,368.4z"/>
			<path class="st2" d="M479.6,433c-0.1,0-0.1-18.3-0.1-40.8c0-22.5,0.1-40.8,0.1-40.8c0.1,0,0.1,18.3,0.1,40.8
				C479.8,414.7,479.7,433,479.6,433z"/>
			<path class="st2" d="M473.6,363.5h-22.1v2.8h22.1V363.5z"/>
			<path class="st2" d="M544,371.3h-58.6v2.8H544V371.3z"/>
			<path class="st2" d="M460.3,371.9h-8.8v2.8h8.8V371.9z"/>
			<path class="st2" d="M460.3,379.9h-8.8v2.8h8.8V379.9z"/>
			<path class="st5" d="M556.6,370.2h-3.8c-0.4,0-0.7,0.3-0.7,0.7v3.8c0,0.4,0.3,0.7,0.7,0.7h3.8c0.4,0,0.7-0.3,0.7-0.7v-3.8
				C557.3,370.5,557,370.2,556.6,370.2z"/>
			<path class="st6" d="M553.2,372.7l1.2,1.1l2.2-2.1"/>
			<path class="st2" d="M544,382.3h-58.6v2.8H544V382.3z"/>
			<path class="st7" d="M556.6,381.2h-3.8c-0.4,0-0.7,0.3-0.7,0.7v3.8c0,0.4,0.3,0.7,0.7,0.7h3.8c0.4,0,0.7-0.3,0.7-0.7v-3.8
				C557.3,381.5,557,381.2,556.6,381.2z"/>
			<path class="st2" d="M544,393.3h-58.6v2.8H544V393.3z"/>
			<path class="st7" d="M556.6,392.2h-3.8c-0.4,0-0.7,0.3-0.7,0.7v3.8c0,0.4,0.3,0.7,0.7,0.7h3.8c0.4,0,0.7-0.3,0.7-0.7v-3.8
				C557.3,392.5,557,392.2,556.6,392.2z"/>
			<path class="st2" d="M544,404.3h-58.6v2.8H544V404.3z"/>
			<path class="st7" d="M556.6,403.2h-3.8c-0.4,0-0.7,0.3-0.7,0.7v3.8c0,0.4,0.3,0.7,0.7,0.7h3.8c0.4,0,0.7-0.3,0.7-0.7v-3.8
				C557.3,403.5,557,403.2,556.6,403.2z"/>
			<path class="st2" d="M544,415.3h-58.6v2.8H544V415.3z"/>
			<path class="st7" d="M556.6,414.2h-3.8c-0.4,0-0.7,0.3-0.7,0.7v3.8c0,0.4,0.3,0.7,0.7,0.7h3.8c0.4,0,0.7-0.3,0.7-0.7v-3.8
				C557.3,414.5,557,414.2,556.6,414.2z"/>
			<path class="st4" d="M557.8,433h0.3c0.2,0,0.5,0,0.8-0.1c1.1-0.1,2.1-0.4,3.1-0.9c1.6-0.7,2.9-1.8,4-3.2c0.6-0.9,1.2-1.9,1.5-2.9
				c0.1-0.3,0.2-0.6,0.2-0.9c0.1-0.3,0.1-0.6,0.1-0.9c0.1-0.6,0.1-1.3,0.1-1.9c0-10.7,0-26.2,0-45.3c0-9.6,0-20.1,0-31.3
				c0-0.7,0-1.4,0-2.1c-0.1-1.4-0.7-2.8-1.6-3.8c-1-1.1-2.3-1.7-3.7-2c-0.7-0.1-1.4-0.1-2.2-0.1h-23H455c-1.8,0-3.7-0.2-5.3,0.5
				c-1.3,0.5-2.4,1.3-3.2,2.3c-0.9,1-1.4,2.3-1.6,3.6c-0.1,0.9-0.2,1.8-0.1,2.7v5.4c0,7.1,0,14.1,0,21c0,13.8,0,27.1,0,39.7
				c0,3.2,0,6.3,0,9.4c0,0.4,0,0.8,0,1.2c0,0.4,0,0.8,0.1,1.1l0.1,0.5l0.1,0.5c0.1,0.4,0.2,0.7,0.3,1.1c0.5,1.4,1.4,2.7,2.5,3.7
				c1.1,1,2.4,1.8,3.8,2.2c0.4,0.1,0.7,0.2,1.1,0.3c0.4,0.1,0.7,0.1,1.1,0.2c0.7,0.1,1.5,0.1,2.2,0h8.6h31.3l45.3,0l12.3,0h3.2
				C557.4,433,557.7,433,557.8,433l-1.1,0h-3.2h-12.3l-45.3,0h-31.3h-8.6c-0.7,0-1.5,0-2.2,0c-0.4,0-0.7-0.1-1.1-0.2
				c-0.3,0-0.7-0.2-1.1-0.3c-1.4-0.5-2.8-1.2-3.9-2.3c-1.1-1-2-2.3-2.6-3.8c-0.1-0.4-0.3-0.7-0.4-1.1l-0.1-0.5l-0.1-0.6
				c-0.1-0.4-0.1-0.8-0.1-1.2c0-0.4,0-0.8,0-1.2v-9.3c0-12.7,0-25.9,0-39.7v-26.4c0-0.9,0-1.8,0.1-2.7c0.2-0.9,0.5-1.8,0.9-2.6
				c0.9-1.6,2.3-2.9,4-3.6c0.9-0.3,1.8-0.5,2.7-0.5c0.9,0,1.8,0,2.7,0h82.3h23c0.7,0,1.5,0,2.2,0.1c1.5,0.2,2.8,0.9,3.8,2
				c1,1.1,1.6,2.5,1.7,4c0,0.7,0,1.4,0,2.1c0,11.3,0,21.7,0,31.3c0,19.1,0,34.6,0,45.3c0,0.7,0,1.3-0.1,2c-0.1,0.3-0.1,0.6-0.2,0.9
				c-0.1,0.3-0.2,0.6-0.2,0.9c-0.3,1.1-0.9,2.1-1.5,3c-1,1.4-2.4,2.5-4,3.2c-1,0.4-2,0.7-3.1,0.8C558.1,433,557.8,433,557.8,433z"/>
			<path class="st1" d="M394.6,330.6c8.9-3.8,13.1-14.1,9.3-23.1c-3.8-8.9-14.1-13.1-23.1-9.3c-8.9,3.8-13.1,14.1-9.3,23.1
				C375.3,330.2,385.7,334.4,394.6,330.6z"/>
			<path class="st2" d="M393.2,327.7c7.3-3,10.8-11.3,7.8-18.7c-3-7.3-11.3-10.8-18.7-7.9s-10.8,11.3-7.8,18.7
				C377.6,327.1,385.9,330.6,393.2,327.7z"/>
			<path class="st4" d="M391.8,323.8c5.2-2.2,7.7-8.2,5.5-13.4s-8.2-7.7-13.4-5.5c-5.2,2.2-7.7,8.2-5.5,13.4
				C380.6,323.6,386.6,326,391.8,323.8z"/>
			<path class="st2" d="M391.7,315c0.3-2.1-1.1-4.2-3.2-4.5c-2.1-0.3-4.2,1.1-4.5,3.2c-0.3,2.1,1.1,4.2,3.2,4.5
				C389.3,318.6,391.4,317.2,391.7,315z"/>
			<path class="st1" d="M490.2,305.7c3.8-13.7-4.2-27.9-17.9-31.7c-13.7-3.8-27.9,4.2-31.7,17.9c-3.8,13.7,4.2,27.9,17.9,31.7
				C472.2,327.4,486.4,319.4,490.2,305.7z"/>
			<path class="st8" d="M479.5,311.6l-3.8-4.4v-10.5c0-2.4-0.9-4.8-2.5-6.7c-1.6-1.9-3.8-3.1-6.2-3.5v-4.4h-2.8v4.3
				c-2.5,0.3-4.8,1.5-6.5,3.4c-1.7,1.9-2.6,4.3-2.6,6.8v10l-3.8,4.9h10.4c0.2,0.7,0.7,1.2,1.2,1.7c0.5,0.5,1.2,0.8,1.9,1
				c0.7,0.2,1.4,0.2,2.1,0c0.7-0.2,1.3-0.5,1.8-1c0.5-0.5,0.9-1,1.1-1.7L479.5,311.6z"/>
			<path class="st5" d="M484.7,291.8c0,1.3-0.4,2.6-1.1,3.6c-0.7,1.1-1.7,1.9-2.9,2.4c-1.2,0.5-2.5,0.6-3.8,0.4
				c-1.3-0.3-2.4-0.9-3.3-1.8c-0.9-0.9-1.5-2.1-1.8-3.3c-0.3-1.3-0.1-2.6,0.4-3.8c0.5-1.2,1.3-2.2,2.4-2.9c1.1-0.7,2.3-1.1,3.6-1.1
				c0.9,0,1.7,0.2,2.5,0.5c0.8,0.3,1.5,0.8,2.1,1.4c0.6,0.6,1.1,1.3,1.4,2.1C484.5,290.1,484.7,291,484.7,291.8z"/>
			<path class="st3" d="M480.8,290l-0.9-0.9l-4.1,4.1l0.9,0.9L480.8,290z"/>
			<path class="st3" d="M476.7,289.1l-0.9,0.9l4.1,4.1l0.9-0.9L476.7,289.1z"/>
			<path class="st4" d="M327.4,317.6c-6.6-1.1-12.4,1.4-17.9,5.1c-5.5,3.7-9.7,9.3-12.2,15.6c-2.5,6.6-3.2,14-1.2,20.7
				c2,6.8,6.6,12.8,12.9,16c8.6,4.4,19.5,2.8,27.2-3c7.7-5.8,12.1-15.4,12.4-25c0.3-6.6-1.3-13.4-5-18.9
				C339.8,322.7,333.9,318.6,327.4,317.6"/>
			<path class="st4" d="M308.7,340c1-2.5,0.6-5.3,1-8c0.8-5.9,5.6-10.6,11.1-12.9c5.1-2.2,11.3-1.7,17.5,0.3c4.2,1.4,8.2,3.7,11,7.2
				c1.8,2.3,3.1,5,3.7,7.9s0.5,5.9-0.3,8.7l-30.1-4.4c-2.8,2.3-5.7,4.7-9.1,6c-1,0.4-2.1,0.6-3.1,0.5c-0.5-0.1-1-0.3-1.5-0.6
				c-0.4-0.3-0.7-0.8-0.9-1.3C307.6,342.3,308.2,341.1,308.7,340z"/>
			<path class="st9" d="M338.8,327.8l-26.3,5.6c-1.2,0.1-2.4,0.6-3.2,1.5c-0.8,0.9-1.3,2.1-1.4,3.3l0.3,56.9c0,3.9,1.3,7.7,3.7,10.7
				l2.5,3.2c5.7,7.4,17.3,6.6,21.7-1.6c0.3-0.5,0.5-1,0.6-1.5c0.1-0.4,0.2-0.9,0.2-1.3l0.5-5.5c0.3-5.1,0.3-10.2,0.3-10.2
				c0,0,10.8-1.4,13.5-15.2c1.4-6.9,1.5-18.3,1.2-27.6C352.3,337.7,347.2,327.2,338.8,327.8z"/>
			<path class="st4" d="M348.5,356.8c0,0.5-0.2,0.9-0.5,1.2c-0.3,0.3-0.8,0.5-1.2,0.5c-0.2,0-0.5,0-0.7-0.1
				c-0.2-0.1-0.4-0.2-0.6-0.4c-0.2-0.2-0.3-0.3-0.4-0.6c-0.1-0.2-0.1-0.4-0.1-0.7c0-0.5,0.2-0.9,0.5-1.2c0.3-0.3,0.8-0.5,1.3-0.5
				c0.2,0,0.5,0,0.7,0.1c0.2,0.1,0.4,0.2,0.6,0.4c0.2,0.2,0.3,0.3,0.4,0.6C348.5,356.3,348.5,356.5,348.5,356.8z"/>
			<path class="st4" d="M349.8,351.9c-0.2,0.2-1.5-0.8-3.5-0.9c-1.9-0.1-3.4,0.8-3.6,0.6c-0.1-0.1,0.1-0.5,0.8-0.9
				c0.9-0.5,1.9-0.8,2.9-0.8c1,0,2,0.4,2.7,1C349.8,351.4,349.9,351.8,349.8,351.9z"/>
			<path class="st4" d="M331.3,356.3c0,0.5-0.2,0.9-0.5,1.2c-0.3,0.3-0.8,0.5-1.3,0.5c-0.2,0-0.5,0-0.7-0.1
				c-0.2-0.1-0.4-0.2-0.6-0.4s-0.3-0.3-0.4-0.6c-0.1-0.2-0.1-0.4-0.1-0.7c0-0.5,0.2-0.9,0.5-1.2c0.3-0.3,0.8-0.5,1.3-0.5
				c0.2,0,0.5,0,0.7,0.1c0.2,0.1,0.4,0.2,0.6,0.4c0.2,0.2,0.3,0.3,0.4,0.6C331.2,355.9,331.3,356.1,331.3,356.3z"/>
			<path class="st4" d="M331.6,351.4c-0.2,0.2-1.6-0.8-3.5-0.9c-1.9-0.1-3.4,0.8-3.6,0.6c-0.1-0.1,0.1-0.5,0.8-0.9
				c0.9-0.5,1.9-0.8,2.9-0.8c1,0,2,0.4,2.8,1C331.5,350.9,331.7,351.3,331.6,351.4z"/>
			<path class="st4" d="M337.3,366.1c0-0.1,1.2-0.3,3.1-0.4c0.5,0,1-0.1,1.1-0.4c0.1-0.5,0-1-0.3-1.5c-0.4-1.2-0.9-2.5-1.3-3.8
				c-1.8-5.4-3.1-9.8-2.9-9.9c0.2-0.1,1.9,4.3,3.7,9.7c0.4,1.3,0.9,2.6,1.2,3.8c0.2,0.5,0.5,1.2,0.2,1.9c-0.1,0.2-0.2,0.3-0.3,0.4
				c-0.1,0.1-0.3,0.2-0.5,0.2c-0.3,0.1-0.6,0.1-0.8,0.1C338.5,366.2,337.3,366.2,337.3,366.1z"/>
			<path class="st10" d="M337.8,388.9c-6.6-0.2-13-2.1-18.5-5.7c0,0,4.3,9.8,18.3,9.1L337.8,388.9z"/>
			<path class="st10" d="M336.3,370.7c-0.3-0.5-0.8-0.9-1.3-1.1c-0.5-0.2-1.1-0.4-1.7-0.3c-0.4,0-0.8,0.1-1.2,0.3
				c-0.4,0.2-0.7,0.4-1,0.8c-0.3,0.3-0.4,0.7-0.5,1.1c0,0.4,0,0.8,0.2,1.2c0.5,0.8,1.6,1,2.5,0.7c0.9-0.3,1.8-0.8,2.5-1.4
				c0.2-0.1,0.4-0.3,0.6-0.5c0.1-0.1,0.1-0.2,0.1-0.4C336.5,371,336.4,370.9,336.3,370.7"/>
			<path class="st4" d="M331.6,367.2c0.3,0,0.2,2.1,2,3.6c1.7,1.5,4,1.4,4,1.7c0,0.1-0.5,0.4-1.5,0.4c-1.2,0-2.4-0.5-3.3-1.3
				c-0.9-0.8-1.4-1.9-1.5-3C331.2,367.7,331.5,367.2,331.6,367.2z"/>
			<path class="st4" d="M331.5,345.7c-0.2,0.5-2.1,0.2-4.4,0.4c-2.3,0.2-4.1,0.7-4.4,0.2c-0.1-0.2,0.2-0.7,1-1.2
				c1-0.6,2.1-0.9,3.3-1c1.2-0.1,2.3,0.1,3.4,0.5C331.1,345,331.5,345.5,331.5,345.7z"/>
			<path class="st4" d="M349.6,343.5c-0.4,0.4-1.7-0.1-3.2-0.2c-1.6-0.1-3,0.2-3.2-0.3c-0.1-0.2,0.1-0.7,0.7-1
				c0.8-0.5,1.7-0.7,2.7-0.6c0.9,0.1,1.8,0.4,2.6,1C349.6,342.8,349.8,343.3,349.6,343.5z"/>
			<path class="st4" d="M303.8,336c2.7-8,14.6-18.9,23-18.2l13.3,8.3c-0.5,2.3-1.6,4.4-3.2,6.1c-1.6,1.7-3.6,3-5.8,3.6
				c-2.4,0.7-5.3,0.8-6.7,2.9c-1.5,2-0.7,5.1-2.1,7.3c-1.9,3-7,2.7-8.5,5.9c-0.6,1.4-0.4,3.1-1,4.5c-0.9,1.9-5.7,4.1-7.6,3.5
				c-1.9-0.7-1.9-4-2.5-5.7c-1-3-0.5-4.5-0.2-6.2C303.5,344,302.5,339.8,303.8,336z"/>
			<path class="st9" d="M311,361.7c0-1-1.1-3.5-2.1-3.7c-2.7-0.5-7.7-0.5-8,6.5c-0.4,9.5,9.2,8,9.2,7.7
				C310.2,371.8,310.9,365.2,311,361.7z"/>
			<path class="st10" d="M307.4,368.4c0,0-0.2,0.1-0.5,0.2c-0.4,0.2-0.8,0.1-1.2,0c-1-0.4-1.8-2-1.7-3.8c0-0.8,0.2-1.6,0.6-2.4
				c0.1-0.3,0.3-0.6,0.5-0.8c0.2-0.2,0.5-0.4,0.8-0.4c0.2,0,0.4,0,0.6,0.1c0.2,0.1,0.3,0.2,0.4,0.4c0.1,0.3,0,0.5,0.1,0.5
				s0.2-0.1,0.2-0.5c0-0.2-0.2-0.5-0.4-0.6c-0.3-0.2-0.6-0.3-0.9-0.3c-0.4,0.1-0.8,0.2-1.1,0.5s-0.6,0.6-0.7,0.9
				c-0.4,0.8-0.7,1.7-0.7,2.6c0,1.9,0.9,3.8,2.2,4.2c0.3,0.1,0.5,0.1,0.8,0.1c0.3,0,0.5-0.1,0.7-0.3
				C307.4,368.6,307.4,368.4,307.4,368.4z"/>
			<path class="st4" d="M337.4,323.3c0.9,3.9,6.8,8.8,9.3,11.9c4.9,5.7,5.9,7.7,5.8,20.5c2.3-4.4,4.1-8.8,3.9-13.8
				c-0.2-5-2-10-5.5-13.6C347.6,324.6,342.4,322.6,337.4,323.3"/>
			<path class="st4" d="M313.6,312.5c-2.2-2-5.2-3-8.3-3.4c-4.3-0.6-8.8,0.3-12.5,2.5c-3.6,2.3-6.2,6-6.5,10.1
				c-0.2,2.1,0.3,4.1,1.2,6c0.9,1.8,2.4,3.4,4.1,4.5c-1.9,2.4-4.4,4.2-7.2,5.4c0.5,0.5,1.1,1,1.8,1.3c0.7,0.3,1.4,0.5,2.2,0.5
				c1.5,0,3-0.2,4.5-0.5c-0.8,1.6-2.3,2.9-4,3.6c2.5,0.3,5-0.1,7.3-1.1c2.2-1,4.4-2.2,6.3-3.7c6.7-5,10.3-9.1,14.4-16.1
				C317.2,318.6,315.8,314.4,313.6,312.5z"/>
			<path class="st8" d="M307.4,377.6c2.3,0,4.1-1.9,4.1-4.1c0-2.3-1.9-4.1-4.1-4.1c-2.3,0-4.1,1.9-4.1,4.1
				C303.3,375.8,305.1,377.6,307.4,377.6z"/>
			<path class="st4" d="M300.3,333.9c4.4-8.3,10.7-13.2,16.6-15.2L300.3,333.9z"/>
			<path class="st8" d="M316.9,318.8c-0.3,0.1-0.5,0.3-0.8,0.4c-0.5,0.2-1.3,0.5-2.2,1c-2.4,1.3-4.6,2.8-6.6,4.7
				c-2,1.9-3.7,4-5.2,6.2c-0.5,0.9-1,1.6-1.3,2.1c-0.1,0.3-0.3,0.5-0.5,0.8c0.1-0.3,0.3-0.6,0.4-0.8c0.3-0.5,0.7-1.3,1.2-2.2
				c1.5-2.3,3.2-4.4,5.2-6.3c2-1.9,4.2-3.5,6.7-4.7c0.7-0.4,1.5-0.7,2.3-1C316.3,318.9,316.6,318.8,316.9,318.8z"/>
			<path class="st8" d="M294.8,341.3c0,0,0,0,0.1,0l0.4,0.1c0.3,0.1,0.8,0.2,1.4,0.4c1.7,0.4,3.4,0.5,5.2,0.5
				c2.6-0.1,5.1-0.5,7.6-1.3c3-1,5.9-2.3,8.7-3.8c3-1.6,5.7-3.2,8.2-4.8c2.2-1.4,4.3-2.9,6.2-4.6c1.3-1.1,2.5-2.4,3.7-3.7
				c0.4-0.5,0.7-0.9,0.9-1.1l0.2-0.3c0,0,0.1-0.1,0.1-0.1c0,0,0,0.1-0.1,0.1l-0.2,0.3c-0.2,0.3-0.5,0.7-0.9,1.1
				c-1.1,1.4-2.3,2.6-3.6,3.8c-1.9,1.7-4,3.3-6.2,4.7c-2.5,1.6-5.2,3.2-8.2,4.9c-2.8,1.6-5.7,2.8-8.7,3.8c-2.5,0.8-5.1,1.2-7.7,1.3
				c-1.8,0-3.5-0.1-5.2-0.5c-0.5-0.1-0.9-0.2-1.4-0.4l-0.4-0.1C294.8,341.3,294.8,341.3,294.8,341.3z"/>
			<path class="st9" d="M375.6,428.5l15.9,29.1l23.3-13l11.3,3.7c0,0-28.6,31-33.2,32.6c-4.6,1.6-13.4,1.9-18.4-4.4
				c-4.6-5.7-17.9-35.8-17.9-35.8L375.6,428.5z"/>
			<path class="st8" d="M441,409.6c-0.2-0.3-0.5-0.4-0.8-0.6c-0.3-0.1-0.6-0.2-0.9-0.1l-11.1,1.5c-0.5,0.1-0.9,0.2-1.3,0.5
				c-0.4,0.3-0.8,0.6-1,1l-23,35.4l1.8,1l12.2-0.4l24.5-37.9L441,409.6z"/>
			<path class="st3" d="M433.2,414.2c0.1,0.1,0.2,0.2,0.4,0.3c0.2,0.1,0.3,0.1,0.5,0c0.2,0,0.3-0.1,0.4-0.3c0.1-0.1,0.2-0.3,0.2-0.4
				c0-0.2,0-0.3-0.1-0.5c-0.1-0.1-0.2-0.3-0.4-0.3c-0.2-0.1-0.3-0.1-0.5,0c-0.2,0-0.3,0.1-0.4,0.2c-0.1,0.1-0.2,0.3-0.2,0.5
				S433.1,414,433.2,414.2z"/>
			<path class="st4" d="M441.4,410c-0.7,0.2-1.4,0.3-2.2,0.4l-5.9,0.9l-4.1,0.6c-0.3,0-0.7,0.1-1,0.3c-0.3,0.2-0.6,0.4-0.7,0.7
				l-1.3,2l-5.9,9.1c-4.2,6.4-8,12.2-10.8,16.4l-3.3,4.9c-0.4,0.6-0.8,1.2-1.3,1.8c0.3-0.7,0.7-1.3,1.1-1.9c0.8-1.3,1.9-3,3.2-5
				c2.7-4.2,6.5-10.1,10.6-16.5c2.1-3.2,4.1-6.2,5.9-9l1.3-2c0.2-0.3,0.6-0.6,0.9-0.8c0.4-0.2,0.8-0.3,1.2-0.4l4.1-0.5l5.9-0.7
				C440,410,440.7,410,441.4,410z"/>
			<path class="st9" d="M429.1,422.6c0,0-1-0.2-1.5,2.5c-0.5,2.7-2.3,10.5-2.3,10.5l-5.2-2.8l-6.5,0.8c0,0-1.4,1.3-0.4,2
				c1,0.7,5.1,1.4,5.1,1.4l3,4.3l-8.7-4.2c0,0-2.9,0.8-2,2.5c0.8,1.8,6.7,7.3,6.7,7.3l-4.3-0.3l-5.2-3.1c0,0-1.6,0.1-1,1.4
				c0.6,1.3,5.9,6.2,5.9,6.2l6.5,3.2c0,0,3.6-0.3,3.9-1.3c0.2-0.8,0.4-1.7,0.4-2.5c0,0,1.9-0.5,2.2-1.4c0.2-0.8,0.2-1.6,0.1-2.4
				c0,0,3,0.5,3.3-1.1c0.4-1.7,0.1-4.9-0.2-6.2c-0.3-1.3,1.3-13.1,1.1-13.4C430.1,425.7,430.9,421.9,429.1,422.6z"/>
			<path class="st10" d="M423.5,453.1c0,0.1-0.6,0.4-1.7,0.5c-2.9,0.4-5.8-0.3-8.2-2c-0.9-0.6-1.3-1.2-1.3-1.2
				c0.1-0.2,2.2,1.6,5.3,2.3C420.8,453.6,423.4,453,423.5,453.1z"/>
			<path class="st10" d="M421.9,450.8c-0.1,0.2-1.3-0.5-2.5-1.5c-1.2-1-2-2-1.9-2.2c0.1-0.1,1.1,0.6,2.3,1.6
				C421.1,449.8,422,450.7,421.9,450.8z"/>
			<path class="st10" d="M425.4,445.2c-0.1,0.2-1.2-0.4-2.4-1.5c-1.2-1.1-1.8-2.2-1.7-2.3c0.1-0.1,1,0.8,2.2,1.8
				C424.5,444.2,425.5,445.1,425.4,445.2z"/>
			<path class="st10" d="M428.9,440.7c-0.2,0.1-0.8-1.1-1.9-2.5c-1-1.3-2-2.3-1.9-2.4c0.1-0.2,1.4,0.6,2.4,2
				C428.7,439.2,429.1,440.6,428.9,440.7z"/>
			<path class="st11" d="M377.7,429.1c0,0-10.2-17.1-13.1-20.5c-2.3-2.7-5.2-4.8-8.4-6.2c-1.3-0.5-2.6-0.9-4-1.2l-14.7-3.3
				c0,0-0.1,6.7-10.7,7.1c-12.1,0.4-19.3-10.5-19.3-10.5s-17,2.6-21.1,4.7c-4.1,2.1-10.5,4.8-14,22.4L270,439l29.3,2.7l2.8,43.6
				l14.6,10.1c0,0,40.4,10.5,42.9,11.2s3.4-65,3.4-65S373.4,435,377.7,429.1z"/>
			<path class="st4" d="M299.2,421.9c0.1,0,0.2,5.1,0.4,11.5c0.1,6.3,0.2,11.5,0.1,11.5c-0.1,0-0.2-5.1-0.4-11.5
				C299.1,427.1,299.1,421.9,299.2,421.9z"/>
			<path class="st4" d="M358.1,421.7c0.1,0.1,0.1,0.2,0.2,0.3l0.4,0.8c0.2,0.3,0.4,0.7,0.6,1.2c0.2,0.5,0.5,1,0.8,1.7
				c0.6,1.5,1.2,3,1.6,4.5c0.5,1.9,0.9,3.8,1.2,5.8c0.4,3.5,0.6,7.1,0.3,10.6c-0.1,1.4-0.2,2.5-0.3,3.2c0,0.3-0.1,0.6-0.1,0.9
				c0,0.1,0,0.2-0.1,0.3c0-0.1,0-0.2,0-0.3l0.1-0.9c0.1-0.8,0.1-1.9,0.2-3.2c0.2-3.5,0.1-7.1-0.4-10.6c-0.3-1.9-0.7-3.8-1.2-5.7
				c-0.4-1.5-1-3-1.6-4.5c-0.2-0.6-0.5-1.2-0.7-1.7c-0.2-0.5-0.4-0.9-0.6-1.2c-0.2-0.3-0.3-0.6-0.4-0.8
				C358.2,421.9,358.1,421.8,358.1,421.7z"/>
			<path class="st4" d="M341.2,398.8c0,0.6,0,1.2-0.2,1.9c-0.4,1.7-1.2,3.2-2.4,4.4c-1.8,1.8-4.1,3-6.6,3.5c-3,0.6-6.2,0.6-9.2-0.1
				c-3-0.7-5.9-1.8-8.5-3.4c-2.2-1.3-4.2-2.8-6-4.5c-1.2-1.2-2.3-2.5-3.3-3.8c-0.3-0.5-0.6-0.9-0.7-1.2c-0.1-0.1-0.2-0.3-0.2-0.4
				c0.1,0.1,0.2,0.2,0.3,0.4c0.2,0.3,0.4,0.6,0.8,1.1c1,1.3,2.1,2.6,3.4,3.7c1.8,1.7,3.8,3.2,6,4.4c2.6,1.5,5.5,2.7,8.5,3.3
				c3,0.7,6.1,0.7,9.1,0.1c2.5-0.5,4.7-1.6,6.5-3.4c1.2-1.2,2-2.7,2.4-4.3c0.1-0.4,0.2-0.9,0.2-1.3
				C341.2,398.9,341.2,398.8,341.2,398.8z"/>
			<path class="st9" d="M357.2,493.2l-55.3-12l-2.6-39.5l-24.6-2.3c0,0,0.9,27,1.9,35.1c1.4,11.6,8.2,27.3,12.2,30.5
				s70.8,1.7,70.8,1.7L357.2,493.2z"/>
			<path class="st9" d="M388.5,500.4c-0.2,0.4-0.5,0.7-0.8,0.9c-0.4,0.2-0.8,0.3-1.2,0.3c-0.2,0-0.4-0.1-0.5-0.1
				c-1.2-0.4-1.1-2.9-1.1-2.9l-5.9-1c0,0-7.6,4.9-10.3,8.2c-2.7,3.3-9.6,0.6-9.6,0.6l-2.4-12.5l10.8-9.8c0,0-0.7,0.6,0.1-1.2
				c0.7-1.8,4.1-1.1,4.1-1.1c0.5-0.9,2.7-1.2,2.7-1.2l9.5,1.1c1,0.1,1.9,0.4,2.7,0.9c0.8,0.5,1.5,1.2,2,2l4,6.3c0,0,2.1,4.6,1.8,5.6
				c-0.1,0.4-0.5,0.8-0.9,1s-0.9,0.3-1.3,0.2c0,0-0.5,3-1.3,3.1C390.1,501.1,388.5,500.4,388.5,500.4L388.5,500.4z"/>
			<path class="st10" d="M368.4,491.4c0,0.1,1.3,0,3.3,0.1c2.6,0.1,5.2,0.6,7.7,1.4c1.4,0.5,2.7,1,4,1.7c1.1,0.6,2.3,1.2,2.7,2
				c0.1,0.2,0.1,0.4,0.1,0.6c0,0.2-0.1,0.4-0.2,0.5c-0.2,0.3-0.4,0.5-0.7,0.6c-0.3,0.1-0.5,0.1-0.8,0.1c0,0,0.3,0.3,0.9,0.1
				c0.4-0.1,0.7-0.3,0.9-0.6c0.2-0.2,0.3-0.5,0.3-0.7c0-0.3,0-0.5-0.1-0.8c-0.2-0.5-0.7-1-1.2-1.3c-0.5-0.3-1.1-0.7-1.7-1
				c-3.7-2-7.8-3.1-12-3.1C369.6,491.1,368.4,491.4,368.4,491.4z"/>
			<path class="st10" d="M367.7,497.5c0,0.2,3.9,0,8.6,0.3c4.7,0.3,8.5,0.9,8.6,0.7c0-0.1-0.9-0.3-2.5-0.6c-2-0.3-4-0.6-6.1-0.7
				c-2-0.1-4.1-0.1-6.1,0C368.7,497.2,367.7,497.4,367.7,497.5z"/>
			<path class="st10" d="M388.5,500.2c0.1-0.3,0.1-0.7,0.1-1c0.1-0.9,0.1-1.8,0-2.8c0-0.6-0.1-1.3-0.3-1.9c-0.2-0.7-0.5-1.4-0.9-2.1
				c-0.9-1.4-2.1-2.7-3.5-3.6c-1.4-1-2.9-1.7-4.5-2.3c-1.3-0.4-2.7-0.6-4.1-0.6c-1.2,0-2.1,0-2.8,0c-0.3,0-0.7,0-1,0.1
				c0,0.1,1.4,0.1,3.7,0.3c1.3,0.1,2.7,0.3,3.9,0.7c1.5,0.6,3,1.3,4.4,2.3c1.3,0.9,2.5,2.1,3.4,3.4c0.9,1.2,1.1,2.6,1.2,3.7
				C388.4,498.7,388.3,500.2,388.5,500.2z"/>
			<path class="st10" d="M374.8,483c0,0.1,1.4,0.1,3.7,0.4c2.2,0.3,5.7,0.5,7.6,3.5c2.2,2.7,4,5.3,4.8,7.4c0.8,2.1,0.8,3.5,0.9,3.5
				c0.1-0.3,0.1-0.7,0-1c-0.1-0.9-0.2-1.8-0.5-2.7c-0.7-2.2-2.5-4.9-4.7-7.6c-0.5-0.7-1.1-1.3-1.8-1.9c-0.7-0.5-1.4-0.8-2.2-1
				c-1.3-0.3-2.7-0.6-4-0.6C376.2,482.8,374.8,482.9,374.8,483z"/>
			<path class="st10" d="M370.7,503.8c0.2-0.1,0.4-0.3,0.5-0.4l1.6-1.3c2-1.5,4.1-3,6.2-4.3l-0.1,0l5.8,1l-0.2-0.2
				c0,0.5,0,1,0.1,1.4c0.1,0.5,0.3,1,0.7,1.4c0.2,0.2,0.5,0.3,0.8,0.4c0.3,0.1,0.5,0.1,0.8,0c0.6-0.1,1.1-0.4,1.5-0.8
				c0.1-0.1,0.2-0.2,0.3-0.4l0.1-0.1l0,0c0.1,0-0.7,0.2-0.3,0.1l0.2,0.1c0.2,0.1,0.5,0.2,0.8,0.3c0.3,0.1,0.5,0.1,0.8,0.2
				c0.1,0,0.3,0,0.4,0c0.2,0,0.4,0,0.5-0.1c0.3-0.2,0.5-0.5,0.6-0.8c0.1-0.3,0.2-0.5,0.3-0.8c0.2-0.5,0.3-1.1,0.4-1.7l-0.3,0.2
				c0.4,0.1,0.8,0.1,1.2-0.1c0.4-0.1,0.7-0.4,1-0.7c0.3-0.3,0.4-0.8,0.4-1.2c0-0.4-0.1-0.8-0.2-1.1c-0.4-1.4-1-2.8-1.6-4.2l-2.2-3.4
				l-1.4-2.2c-0.4-0.7-0.9-1.4-1.5-2.1c-0.6-0.6-1.3-1.1-2.1-1.4c-0.8-0.3-1.6-0.5-2.4-0.5l-8.9-1h-0.1c-0.5,0.1-1.1,0.2-1.6,0.4
				c-0.5,0.2-1,0.5-1.4,0.9l0.3-0.1c-0.5-0.2-1-0.3-1.5-0.3c-0.5,0-1,0.2-1.5,0.5c-0.8,0.6-1.3,1.4-1.5,2.4l0.1-0.1l-7.4,6.7l-2,1.8
				c-0.2,0.2-0.5,0.4-0.7,0.7c0.3-0.2,0.5-0.4,0.8-0.6l2.1-1.8l7.5-6.5l0.1,0v-0.1c0.2-0.8,0.6-1.6,1.3-2.1c0.4-0.2,0.8-0.3,1.3-0.4
				c0.4,0,0.9,0.1,1.3,0.3l0.2,0.1l0.1-0.2c0.3-0.3,0.7-0.6,1.1-0.7c0.5-0.2,1-0.3,1.5-0.4h-0.1l8.9,1.1c0.8,0,1.5,0.2,2.3,0.5
				c0.7,0.3,1.4,0.7,1.9,1.3c0.5,0.6,1,1.3,1.4,2l1.4,2.2l2.2,3.4v0c0.6,1.3,1.2,2.7,1.6,4.1c0.1,0.3,0.2,0.7,0.2,1
				c0,0.3-0.1,0.6-0.3,0.8c-0.2,0.2-0.4,0.4-0.7,0.5c-0.3,0.1-0.6,0.1-0.9,0l-0.3,0l0,0.3c-0.1,0.5-0.2,1.1-0.4,1.6
				c-0.1,0.5-0.3,0.9-0.6,1.3c-0.1,0-0.2,0-0.2,0c-0.1,0-0.2,0-0.4,0c-0.2,0-0.5-0.1-0.7-0.2c-0.2-0.1-0.5-0.2-0.7-0.2l-0.2-0.1
				l-0.3,0.1v0l0,0.1c-0.1,0.1-0.1,0.2-0.2,0.3c-0.3,0.3-0.7,0.6-1.1,0.6c-0.2,0-0.4,0-0.6,0c-0.2,0-0.4-0.1-0.5-0.2
				c-0.5-0.6-0.6-1.6-0.6-2.4v-0.2h-0.2l-5.9-0.9h-0.1l-0.1,0c-2.1,1.3-4.2,2.8-6.1,4.5c-0.7,0.6-1.2,1-1.5,1.4
				C371,503.5,370.9,503.6,370.7,503.8z"/>
			<path class="st2" d="M468.6,445.6l-72.8,0.6c-2.4,0-4.6,1.1-5,3.5l-8,53.1h-37.5c-0.6,0-1.1,0.3-1.5,0.7s-0.6,0.9-0.6,1.5
				c0,0.6,0.2,1.1,0.6,1.5c0.4,0.4,0.9,0.7,1.5,0.7h119.8l8.2-56c0.1-0.7,0.1-1.4-0.1-2c-0.2-0.7-0.5-1.3-1-1.8
				c-0.4-0.5-1-0.9-1.6-1.2C470,445.8,469.3,445.6,468.6,445.6z"/>
			<path class="st4" d="M468.6,445.6c0.4,0,0.8,0,1.1,0.1c1,0.2,1.8,0.8,2.5,1.5c0.7,0.7,1.1,1.7,1.2,2.7c0.1,0.9-0.2,1.9-0.3,3
				c-0.3,2.2-0.7,4.6-1,7.4c-1.6,11.1-3.9,27.2-6.8,46.9v0.2h-0.2L349,507.4h-3.1c-0.6,0.1-1.1-0.1-1.6-0.3
				c-0.5-0.3-0.9-0.8-1.1-1.3c-0.2-0.6-0.2-1.2,0-1.7c0.2-0.6,0.6-1,1.1-1.3c0.5-0.3,1.1-0.4,1.6-0.3h13.7h23.3l-0.3,0.2
				c2.9-19,5.5-36.7,7.9-52.6c0.1-1.1,0.6-2.1,1.3-2.8c0.8-0.7,1.8-1.1,2.8-1.2c1-0.1,2-0.1,2.9-0.1h2.9l11-0.1l19.5-0.1l27.7-0.1
				h7.4h1.9C468.4,445.6,468.6,445.6,468.6,445.6c0,0-0.2,0-0.6,0l-1.9,0l-7.4,0.1l-27.7,0.3l-19.5,0.2l-11,0.1l-2.9,0
				c-1,0-1.9,0-2.9,0.1c-0.9,0.1-1.8,0.5-2.5,1.1c-0.7,0.6-1.1,1.5-1.2,2.5c-2.4,15.9-5,33.6-7.9,52.7l0,0.2h-37.3
				c-0.5-0.1-0.9,0-1.4,0.2c-0.3,0.2-0.5,0.4-0.7,0.7c-0.2,0.3-0.3,0.6-0.3,1c0,0.3,0.1,0.7,0.3,1c0.2,0.3,0.4,0.5,0.7,0.7
				c0.4,0.2,0.9,0.3,1.4,0.2h3.1l116.2,0.1l-0.2,0.2c2.9-19.7,5.3-35.7,6.9-46.9c0.4-2.8,0.8-5.2,1.1-7.4c0.1-1.1,0.4-2.1,0.3-3
				c-0.1-0.8-0.4-1.6-0.8-2.3c-0.7-0.9-1.6-1.6-2.7-1.9C469.3,445.7,469,445.7,468.6,445.6z"/>
			<path class="st3" d="M429.1,480.3c2.5,0,4.6-2,4.6-4.6c0-2.5-2-4.6-4.6-4.6c-2.5,0-4.6,2-4.6,4.6
				C424.5,478.2,426.6,480.3,429.1,480.3z"/>
			<path class="st4" d="M385.8,506.7c0.1,0,2.4-13.5,5.2-30.2c2.8-16.7,4.9-30.2,4.8-30.2s-2.4,13.5-5.2,30.2
				C387.9,493.1,385.7,506.6,385.8,506.7z"/>
		</g>
	</g>
</g>
<g>
	<g>
		<defs>
			<rect id="SVGID_3_" x="517.7" y="97.4" transform="matrix(0.5 -0.866 0.866 0.5 160.3995 549.6159)" width="77" height="77"/>
		</defs>
		<clipPath id="SVGID_4_">
			<use xlink:href="#SVGID_3_"  style="overflow:visible;"/>
		</clipPath>
		<g class="st12">
			<path class="st13" d="M590.1,122.1l-38.9-22.5c-3.1-1.8-7-0.7-8.8,2.3l-22.5,38.9c-1.8,3.1-0.7,7,2.3,8.8l38.9,22.5
				c3.1,1.8,7,0.7,8.8-2.3l22.5-38.9C594.2,127.8,593.1,123.9,590.1,122.1z"/>
			<path class="st13" d="M536,113.1l50,28.9"/>
			<path class="st13" d="M533.4,156.1l19.2-33.3"/>
		</g>
	</g>
</g>
</svg>
