<?xml version="1.0" encoding="utf-8"?>
<!-- Generator: Adobe Illustrator 25.2.1, SVG Export Plug-In . SVG Version: 6.00 Build 0)  -->
<svg version="1.1" id="Layer_1" xmlns="http://www.w3.org/2000/svg" xmlns:xlink="http://www.w3.org/1999/xlink" x="0px" y="0px"
	 width="361.2px" height="509px" viewBox="0 0 361.2 509" style="enable-background:new 0 0 361.2 509;" xml:space="preserve">
<style type="text/css">
	.st0{clip-path:url(#SVGID_2_);}
	.st1{fill:#EE6F57;}
	.st2{fill:#E5ECFF;}
	.st3{fill:none;stroke:#FBC343;stroke-width:3.8197;stroke-miterlimit:10;}
	.st4{fill:none;stroke:#FBC343;stroke-width:3.75;stroke-miterlimit:10;}
	.st5{fill:#F8F4ED;}
	.st6{fill:#FFFFFF;}
	.st7{fill:#E28B6D;}
	.st8{fill:#0D51D9;}
	.st9{opacity:0.8;fill:#FFFFFF;enable-background:new    ;}
	.st10{fill:#1F3C88;}
	.st11{fill:#6F3428;}
	.st12{fill:#708CD5;}
	.st13{opacity:0.3;fill:#1F3C88;enable-background:new    ;}
	.st14{fill:#F9B384;}
	.st15{fill:none;stroke:#0D51D9;stroke-width:5;stroke-miterlimit:10;}
	.st16{fill:#3C1C16;}
	.st17{opacity:0.15;fill:#3C1C16;enable-background:new    ;}
	.st18{opacity:0.5;fill:#FC8879;enable-background:new    ;}
	.st19{fill:#FFFFFF;stroke:#1F3C88;stroke-width:3.75;stroke-miterlimit:10;}
	.st20{fill:#8CBFBE;}
	.st21{fill:#C6EAE9;}
	.st22{fill:#FFFFFF;stroke:#708CD5;stroke-miterlimit:10;}
	.st23{fill:none;stroke:#0D51D9;}
	.st24{fill:#FBC343;}
	.st25{opacity:0.8;}
</style>
<g>
	<g>
		<g>
			<defs>
				<rect id="SVGID_1_" x="-19.8" y="240.9" width="381" height="268.1"/>
			</defs>
			<clipPath id="SVGID_2_">
				<use xlink:href="#SVGID_1_"  style="overflow:visible;"/>
			</clipPath>
			<g class="st0">
				<path class="st1" d="M334.4,474.8h-0.1l0.3-5h-25.3l1.2,21.1c0.2,3.9,3.5,7,7.5,7h7.9c4,0,7.2-3.1,7.5-7l0.3-4.9
					c0.2,0,0.5,0,0.8,0c3.7,0,6.7-2.5,6.7-5.7C341.1,477.4,338.1,474.8,334.4,474.8z M334.4,483.8c-0.2,0-0.4,0-0.6,0l0.4-6.6
					c0.1,0,0.2,0,0.2,0c2.4,0,4.4,1.5,4.4,3.3C338.8,482.3,336.8,483.8,334.4,483.8z"/>
				<path class="st2" d="M324.5,468c-2.5-0.3-4.8-1.8-6.4-3.8c-0.8-1-1.4-2.2-1.8-3.5c-0.1-0.3-0.2-0.7-0.2-1s-0.1-0.6-0.1-1
					c-0.1-0.7,0-1.3,0-2c0.1-1.3,0.5-2.6,1.1-3.8c0.3-0.6,0.6-1.2,1-1.7s0.9-1,1.3-1.4s0.9-0.8,1.2-1.1c0.2-0.2,0.4-0.3,0.5-0.5
					c0.2-0.2,0.3-0.4,0.4-0.5c0.2-0.4,0.3-0.8,0.3-1.2c0-0.4-0.1-0.8-0.3-1.1l0.6-0.9c0.3,0.2,0.7,0.4,0.9,0.8
					c0.2,0.3,0.4,0.7,0.5,1.1c0.2,0.7,0.1,1.5-0.1,2.2c-0.5,1.4-1.5,2.4-2.2,3.2c-0.4,0.4-0.7,0.8-0.9,1.2c-0.1,0.2-0.3,0.4-0.4,0.6
					s-0.2,0.4-0.3,0.7c-0.4,0.9-0.6,1.9-0.8,2.9c-0.2,2,0.2,4,1.3,5.8c1.1,1.7,2.7,3.2,4.7,4.1L324.5,468z"/>
				<path class="st2" d="M325.3,462.1c1-0.9,1.9-1.9,2.5-2.9c0.6-1.1,1.1-2.2,1.3-3.4s0.2-2.4-0.1-3.6c-0.2-1.2-0.7-2.4-1.3-3.6
					l0.8-0.8c1.3,0.8,2.3,2.2,2.9,3.7s0.8,3.2,0.4,4.8c-0.3,1.6-1.1,3.1-2.1,4.3c-1.1,1.2-2.4,2.1-3.9,2.5L325.3,462.1z"/>
				<path class="st3" d="M125.8,503c-32.3-6.2-55.1-25-65.6-54.2c-16.8-46.3,1.2-114.6,49.4-129.6c19.1-5.9,42.6,4.7,62.2,4.6
					c27.6-0.2,52.4-17.1,79.8-15c35.7,2.8,61.7,35.7,68.4,69c2.3,11.4,2.6,23.3,0.7,34.8c-2,12.5-6.1,24.8-12.2,35.6
					c-5.3,9.3-17.6,21.7-28.1,24.2L125.8,503z"/>
				<path class="st4" d="M212.2,497.8c31.9-7.9,56.3-31.7,64.7-58.9c13.4-43.3-9.9-104.2-59.4-114.6c-10.1-2.1-20.7-1.6-30.9-0.4
					c-16.7,1.9-33.8,4.4-50.6,3.8c-16.3-0.5-32.2-5.3-48.7-5c-54.4,1.2-87,53.2-74.5,100.8c2.9,11.2,8,22.1,15,31.6
					c6,8.1,19.3,18.5,30,20.1C57.8,475.4,212.2,497.8,212.2,497.8z"/>
				<path class="st5" d="M292.2,445.9c-8.6,24.7-18.8,49.2-54.3,58.6l-153.6-1.6c-34.6-16.3-53.5-48.6-56.7-83.4
					c-1-11.5-0.4-23.3,2.1-34.9c0.6-3,1.4-6.1,2.3-9.1c7.9-27.4,24.7-53.1,49.7-67.7c16.1-9.4,36.6-6.3,53.7-1.5
					c15.4,4.3,30.4,10.4,46.3,12.2c12.6,1.4,25.5,0.2,38.2,0.7c4.5,0.2,9,0.6,13.5,1.4c19.2,3.6,36.1,15.3,47.8,31
					c4,5.4,7.4,11.3,10,17.4C301.4,393.2,300.8,421.2,292.2,445.9z"/>
				<path class="st6" d="M0.1,483.4c-0.7-8.5,4.1-17.7,12.4-23.9c7.6-5.7,17-8.6,26-10.9c50.1-12.7,103.1-11.2,154.3-9.7
					c45.8,1.3,93.1,2.7,138.4-6.1c6.4-1.2,13.2-2.8,19-6.3c6.2-3.8,10.1-9.9,10.2-15.7c0.2-11-11.7-18.5-18.8-22
					c-27-13.3-60.2-18.3-104.5-15.8c-33.3,1.9-66.8,7.3-99.4,16c-7.3,2-14.8,4.1-22,6.2c-25.8,7.4-52.4,15.1-79.6,15.1
					c-0.1,0-0.3,0-0.4,0c-7.4,0-16.9-1.5-20.1-8.5c-2.3-4.9-0.4-10.6,1.6-14.4c6.7-12.9,19.4-20.4,28.9-24.4
					c10.6-4.5,22.2-7,33.4-9.4c1.3-0.3,2.7-0.6,4-0.9c25-5.4,50-12.1,74.2-20c11.5-3.7,17.4-8.6,18.1-14.9
					c0.6-5.6-3.5-10.4-7.8-12.8c-5.1-2.8-11.2-3.2-16-3.2c0,0,0,0-0.1,0c-14.3,0-28.4,3.5-41,10.1c-4.7,2.5-9.1,5.4-13.5,8.2
					c-5.8,3.7-11.7,7.6-18.1,10.5c-12.4,5.5-27.1,7.5-43.6,6c-12.8-1.2-22.5-4.3-29.8-9.6c-4.4-3.2-8-7.3-11.6-11.3
					c-4.3-4.8-8.7-9.8-14.4-13.1l0.4-0.7c5.8,3.3,10.3,8.4,14.6,13.2c3.5,3.9,7.1,8,11.4,11.2c7.1,5.2,16.8,8.3,29.4,9.4
					c16.4,1.5,30.9-0.5,43.2-6c6.3-2.8,12.3-6.7,18-10.4c4.4-2.8,8.9-5.8,13.5-8.3c12.6-6.7,26.9-10.2,41.3-10.2c0,0,0,0,0.1,0
					c4.8,0,11,0.4,16.3,3.3c4.5,2.5,8.8,7.6,8.2,13.5c-0.7,6.6-6.8,11.7-18.6,15.5c-24.3,7.9-49.3,14.6-74.3,20
					c-1.3,0.3-2.6,0.6-4,0.9c-11.1,2.4-22.7,4.8-33.2,9.3c-9.4,4-21.9,11.4-28.5,24.1c-1.9,3.7-3.8,9.1-1.6,13.7
					c3.1,6.6,12.2,8.1,19.4,8.1c0.1,0,0.3,0,0.4,0c27.1,0,53.7-7.7,79.4-15.1c7.2-2.1,14.7-4.2,22-6.2c32.7-8.7,66.1-14,99.5-16
					c44.4-2.6,77.7,2.5,104.8,15.8c7.3,3.6,19.4,11.3,19.2,22.7c-0.1,6.1-4.2,12.4-10.6,16.3c-5.9,3.6-12.7,5.2-19.3,6.4
					c-45.4,8.8-92.8,7.4-138.6,6.1c-51.2-1.4-104.1-2.9-154.1,9.8c-8.9,2.3-18.3,5.1-25.8,10.8c-8.2,6.1-12.8,15-12.1,23.3
					L0.1,483.4z"/>
				<path class="st7" d="M221.7,483.7c10.4,2.7,24.6,5,20.1,13.9H216L221.7,483.7z"/>
				<path class="st8" d="M114.4,504.5h-25c-8.5,0-15.5-6.9-15.5-15.5v-51c0-8.5,6.9-15.5,15.5-15.5h25c8.5,0,15.5,6.9,15.5,15.5v51
					C129.9,497.6,123,504.5,114.4,504.5z"/>
				<path class="st9" d="M86.5,430.2c-0.9,0.2-1.6,1.1-2,2s-0.7,1.9-0.9,2.8c-0.4,2-0.6,4-0.7,6c-0.2,4-0.1,8.1,0.1,12.1
					s0.6,8.1,1.1,12.1c0.2,2,0.5,4,0.8,6s0.6,4,1,6l-0.3,0.1c-0.5-2-0.9-4-1.3-6s-0.7-4-1-6c-0.5-4-1-8.1-1.2-12.2s-0.3-8.2,0-12.2
					c0.2-2,0.4-4.1,0.9-6.1c0.3-1,0.6-2,1.1-2.9c0.2-0.5,0.5-0.9,0.9-1.3s0.9-0.7,1.4-0.8L86.5,430.2z"/>
				<path class="st10" d="M96,435.6c0,0,1.6,32.1,11.5,67.3h27.2L96,435.6z"/>
				<path class="st11" d="M108.5,419.2c-6.8-3.7-8.7-12.9-3.7-18.9c0.5-0.6,1-1.2,1.6-1.7c7.6-7.6,2.9-15.2,1.8-32.7
					s18.4-22.2,18.4-22.2c0.9-0.2,2.7-2.8,3.4-3.5c8.8-7.6,21.4-7.1,31-1.3c4.6,2.8,9.2,7,11.7,11.9c3.9,7.7,4.6,17.9,11.3,23.9
					c9.4,8.6,19.9,15.9,19.5,29.7c-0.1,4.9-1.4,10.1-4.4,14c-2.6,3.4-6.6,5.7-10.2,8c-5.8,3.6-12,6.8-18.5,8.9
					c-6.3,2.1-12.7,3.9-19.1,5.7c-0.6,0.2-1.2,0.3-1.8,0.5L108.5,419.2z"/>
				<path class="st12" d="M153,411.7c22.9-7.8,35.3,17.7,52.3,67.6l16.4,4.4l-1.9,17.8l-6,1.2l-48.9,0.2L153,411.7z"/>
				<path class="st2" d="M347.6,497H0.2v12h347.4V497z"/>
				<path class="st12" d="M120.8,407.9l51.1,12.8l21.5,64.3l-71.7,2.2l-4.7-47.6L120.8,407.9z"/>
				<path class="st13" d="M122.6,435.6c12.5,12.6,9.8,31.1,20.5,33c7.1,1.2,27.3,4.1,36.9,8.1c2,0.8,7.3,4.8,6.5,8.4
					c-0.5,2.3-7.7,0.4-7.7,0.4l-53.6-5.4l-11.3-26.3L122.6,435.6z"/>
				<path class="st8" d="M166.7,481.9c0.4-0.6,8.1-2.1,8.9-2c2.9,0.4,4.4,2.6,5.1,4.4l-11.4,6L166.7,481.9z"/>
				<path class="st8" d="M175.2,435.5l1.3,3c0.4,1,0.8,2,1.3,3c0.8,2,1.6,4.1,2.3,6.1c1.5,4.1,2.8,8.3,4,12.5s2.3,8.5,3.3,12.7
					c0.5,2.1,0.9,4.3,1.3,6.4c0.4,2.2,0.7,4.3,1,6.5h-0.3c-0.4-2.2-0.8-4.3-1.2-6.4s-0.9-4.3-1.4-6.4c-1-4.2-2.1-8.5-3.3-12.7
					s-2.5-8.4-3.9-12.5c-0.7-2.1-1.4-4.1-2.2-6.2c-0.4-1-0.8-2.1-1.2-3.1l-1.2-3.1L175.2,435.5z"/>
				<path class="st14" d="M216,492.7c0,0-2.2,2.5-8.9,0.1c-3.2,0.4-9.1,0.1-20.5-1.7c0,0,4.1,2.9,13.4,3.4c0,0-0.4,2.7-5.3,2.6
					c-5.9-0.1-6.6-0.5-11.9-0.3c-1.1,0-3.5,0-6.1-0.1c-4.5-0.1-9.6-0.4-9.6-0.4l-4.5-8l8.9-4.3c2.7-1.1,4.1-1.4,5.4-1.6
					c5.8-0.8,9.4-1.5,13.5-0.8C195.1,482.4,209.1,487.1,216,492.7z"/>
				<path class="st7" d="M177,496.5l-0.2,0.1c-4.5-0.1-9.6-0.4-9.6-0.4l-4.5-8l8.9-4.3c2.7-1.1,4.1-1.4,5.4-1.6
					C173.7,483.7,171,487.2,177,496.5z"/>
				<path class="st12" d="M141.8,411.6c-11.6-2.4-39.9-4.4-47.8,10.3c-6.5,12.1,9.8,52.5,16.9,66.7c2.9,5.9,11.4,8.7,14.6,8.8
					l46.7-0.3c-3.1-0.7-7.2-17.6,3.4-17.1l-38.6-5.4c-1.5-0.2-2.8-1.1-3.7-2.3c-0.5-0.9-1.2-1.9-1.5-3.1l-11-40.2L141.8,411.6z"/>
				<path class="st6" d="M245.1,497.3h-45.5V493h45.8L245.1,497.3z"/>
				<path class="st8" d="M283.6,497.3h-54.9l20-58.6h54.9L283.6,497.3z"/>
				<path class="st6" d="M270.5,471.1c-1.7,2.7-4.8,3.8-7.2,2.6c-0.1-0.1-0.3-0.1-0.4-0.2c-2.4-1.5-3-5.1-1.2-7.9s5.2-3.9,7.6-2.4
					c0.7,0.5,1.3,1.1,1.7,1.8C271.9,466.8,271.8,469.1,270.5,471.1z"/>
				<path class="st12" d="M270.5,471.1c-1.7,2.7-5.8,4.6-8.7,1.4c6.3,0.6,8.4-3.6,8.3-8.8C272.2,466.2,271.8,469.1,270.5,471.1z"/>
				<path class="st11" d="M190.5,481.5c2.3,0.3,4.6,1,6.8,1.7s4.4,1.5,6.6,2.4c2.2,0.9,4.3,1.9,6.3,3c2.1,1.2,4,2.4,5.8,4l-0.2,0.2
					c-0.9-0.7-1.9-1.3-2.9-1.9s-2-1.2-3-1.7c-2.1-1.1-4.2-2.1-6.3-2.9c-2.1-0.9-4.3-1.7-6.5-2.5c-1.1-0.4-2.2-0.8-3.3-1.1
					c-1.1-0.3-2.2-0.7-3.4-0.9L190.5,481.5z"/>
				<path class="st11" d="M189.6,492.3l2.5,0.7c0.8,0.2,1.6,0.4,2.5,0.6c0.8,0.2,1.7,0.3,2.5,0.4s1.7,0.2,2.5,0.3h0.3v0.2
					c0,0.3,0,0.6-0.1,0.9s-0.3,0.6-0.5,0.8c-0.2,0.2-0.5,0.3-0.8,0.4c-0.1,0-0.3,0-0.4,0.1h-0.4v-0.3l0.4-0.1c0.1,0,0.2-0.1,0.3-0.1
					c0.2-0.1,0.4-0.2,0.5-0.4c0.1-0.2,0.2-0.3,0.3-0.5c0-0.2,0-0.4,0-0.6l0.3,0.3c-1.7,0-3.5-0.2-5.1-0.6c-0.9-0.2-1.7-0.4-2.5-0.7
					c-0.8-0.3-1.6-0.6-2.4-1L189.6,492.3z"/>
				<path class="st11" d="M187.6,486.4c2,0.2,4,0.4,6,0.6s4,0.4,6,0.7c2,0.3,3.9,0.7,5.9,1c2,0.4,3.9,0.7,5.9,1.1l0.5,0.1l-0.2,0.4
					c-0.1,0.3-0.2,0.7-0.5,1.1c-0.1,0.2-0.3,0.3-0.4,0.5c-0.2,0.1-0.3,0.3-0.5,0.4c-0.7,0.4-1.5,0.6-2.2,0.7c-1.5,0.2-3,0.2-4.5,0.2
					c-0.8,0-1.5-0.1-2.2-0.1c-0.8-0.1-1.5-0.1-2.2-0.2c-1.5-0.2-3-0.4-4.4-0.6V492c1.5,0.1,3,0.3,4.5,0.4c0.7,0.1,1.5,0.1,2.2,0.1
					s1.5,0.1,2.2,0.1c1.5,0,3,0,4.4-0.3c0.7-0.1,1.4-0.3,2-0.6c0.1-0.1,0.3-0.2,0.4-0.3c0.1-0.1,0.2-0.2,0.3-0.4
					c0.2-0.3,0.3-0.6,0.4-1l0.3,0.5c-3.9-0.7-7.8-1.5-11.8-2.2c-2-0.3-3.9-0.6-5.9-0.9s-4-0.5-5.9-0.9L187.6,486.4z"/>
				<path class="st15" d="M0.2,497h347.4"/>
				<path class="st8" d="M136.1,426.8c1.7,1.1,3.6,2,5.5,2.4c2,0.4,4,0.6,6,0.2c2-0.3,3.9-1.1,5.5-2.3c1.6-1.2,2.9-2.8,3.8-4.6
					l0.3,0.1c-0.2,0.5-0.4,1-0.7,1.4s-0.5,0.9-0.8,1.3s-0.7,0.8-1,1.2c-0.4,0.4-0.8,0.7-1.2,1.1c-1.7,1.3-3.7,2.2-5.8,2.5
					s-4.2,0.2-6.3-0.3c-2-0.5-3.9-1.5-5.6-2.8L136.1,426.8z"/>
				<path class="st8" d="M122.7,435.5l2.5,8.7l2.5,8.7l2.5,8.7l1.2,4.4l0.6,2.2c0.2,0.7,0.4,1.5,0.7,2.1c0.6,1.3,1.7,2.3,3,2.9
					c1.3,0.7,2.7,1.1,4.2,1.4s2.9,0.5,4.4,0.7l4.5,0.6l8.9,1.2l8.9,1.3v0.3l-9-1.1l-9-1.1l-4.5-0.6c-1.5-0.2-3-0.4-4.5-0.7
					c-1.5-0.3-3-0.7-4.4-1.4c-1.4-0.7-2.7-1.8-3.3-3.3c-0.1-0.2-0.2-0.4-0.2-0.5s-0.1-0.4-0.2-0.5l-0.3-1.1l-0.6-2.2l-1.2-4.4
					l-2.4-8.7l-2.4-8.7l-2.3-8.7L122.7,435.5z"/>
				<path class="st14" d="M151.7,393.4l2.3,19.7c0.7,5.9-5.5,10.8-11.8,9.1c-3.6-0.9-7.3-3.4-11.2-7.1c-0.8-0.8-1.3-1.7-1.4-2.8
					l-2.4-23.7L151.7,393.4z"/>
				<path class="st16" d="M152.1,396.1l1.2,10.7c-5.1,0.8-12.2-2.1-19.4-11.6L152.1,396.1z"/>
				<path class="st14" d="M164.5,379.2c-0.3,3.6-0.9,7.3-1.8,10.7c-1.7,5.6-4.7,10.2-9.7,11c-14.9,2.5-25.7-12.3-25.7-12.3
					l-1.7-20.1l9-15.6l20.1-0.6l9.8,11.6C164.5,363.9,165.2,371.1,164.5,379.2z"/>
				<path class="st11" d="M125.1,376.1c8-0.6,9.8-7.4,10.4-16.1c0,0,21.7-5.4,29.4,10l5.8,0.6L153,347.2l-27.4,3.3l-5.4,17.8
					L125.1,376.1z"/>
				<path class="st14" d="M129.3,373.4c-0.9-1-2.3-1.6-3.7-1.4c-5.3,0.7-6.2,7.7-5,10.7c1.8,4.5,6.8,5.8,6.8,5.8l4.2-4.5
					C131.8,379.4,131.3,375.7,129.3,373.4z"/>
				<path class="st17" d="M129.4,394c2.9,8.3,11.9,31.7-2.8,31.1c-7.1-0.3-13.3-14-23.4-11.4c1.1-0.5,2.4-1,3.8-1.5L129.4,394z"/>
				<path class="st11" d="M127.3,388.6c2.8,5.4,10.8,32-2.7,30.4c-6.5-0.7-8.1-8.6-17.5-6.7L127.3,388.6z"/>
				<path class="st16" d="M127.7,378.3c0-0.6-0.2-1.2-0.5-1.7s-0.8-0.9-1.2-1.1c-0.5-0.2-1-0.3-1.5-0.1c-0.5,0.2-1,0.6-1.4,1.1
					l-0.3-0.2c0.3-0.6,0.7-1.3,1.4-1.6c0.2-0.1,0.3-0.2,0.5-0.2s0.4-0.1,0.6-0.1h0.3l0.3,0.1c0.2,0,0.4,0.1,0.5,0.2
					c0.7,0.3,1.3,0.9,1.6,1.6c0.3,0.7,0.4,1.5,0.1,2.2L127.7,378.3z"/>
				<path class="st16" d="M156.2,375.3c0,1.4,0.9,2.5,1.8,2.4c0.9,0,1.6-1.2,1.6-2.5c0-1.4-0.9-2.5-1.8-2.4
					C156.9,372.8,156.2,373.9,156.2,375.3z"/>
				<path class="st16" d="M141.5,375.8c0,1.4,0.9,2.5,1.8,2.4c0.9,0,1.6-1.2,1.6-2.5c0-1.4-0.9-2.5-1.8-2.4
					C142.2,373.3,141.4,374.5,141.5,375.8z"/>
				<path class="st16" d="M156.1,389.3c-0.6,0.8-1.4,1.6-2.4,2.1s-2.3,0.5-3.3,0.2c-1.1-0.3-2-0.9-2.8-1.5c-0.8-0.7-1.5-1.4-2.2-2.2
					l0.3-0.3c0.8,0.6,1.6,1.2,2.5,1.7c0.8,0.5,1.7,1,2.6,1.3c0.9,0.3,1.8,0.2,2.7,0c0.9-0.3,1.7-0.9,2.5-1.5L156.1,389.3z"/>
				<path class="st16" d="M161.2,371.1c-0.7-0.4-1.3-0.9-1.9-1.2c-0.6-0.3-1.2-0.4-1.9-0.3c-0.6,0.1-1.3,0.3-1.9,0.6
					c-0.7,0.3-1.3,0.7-2.1,1l-0.2-0.2c0.4-0.7,0.9-1.4,1.6-1.9c0.7-0.5,1.5-0.9,2.5-1c0.9-0.1,1.9,0.2,2.6,0.8
					c0.7,0.5,1.2,1.2,1.5,2L161.2,371.1z"/>
				<path class="st16" d="M146.4,371.6c-0.7-0.5-1.4-0.9-2.1-1.1c-0.7-0.2-1.5-0.3-2.2-0.2c-0.7,0.1-1.5,0.3-2.2,0.6
					c-0.7,0.3-1.5,0.7-2.3,1.1l-0.2-0.2c0.5-0.8,1.1-1.4,1.9-2c0.8-0.5,1.7-0.9,2.7-1s2,0.1,2.8,0.6s1.5,1.2,1.9,2.1L146.4,371.6z"
					/>
				<path class="st18" d="M132.2,385.3c0.1,3,2.6,5.3,5.6,5.2c3-0.1,5.3-2.6,5.2-5.6s-2.6-5.3-5.6-5.2
					C134.4,379.8,132,382.3,132.2,385.3z"/>
				<path class="st18" d="M164.5,379.2c-0.3,3.6-0.9,7.3-1.8,10.7c-2.3-0.6-4-2.6-4.1-5.1c-0.1-3,2.2-5.5,5.2-5.6
					C164,379.2,164.3,379.2,164.5,379.2z"/>
				<path class="st18" d="M150.1,374.2c0-0.3,0.4-0.3,0.4,0c1.2,3.9,5.1,6.8,4.5,8c-0.4,0.8-2.1,1.7-3.3,2.3
					c-0.6,0.3-1.4-0.1-1.5-0.7C149.8,380.8,149.8,377.6,150.1,374.2z"/>
				<path class="st16" d="M151,373.8c0.3,1.2,0.8,2.2,1.4,3.2c0.6,1,1.4,1.9,2.2,2.9c0.2,0.2,0.4,0.5,0.6,0.8
					c0.2,0.3,0.4,0.5,0.5,0.9c0.1,0.2,0.1,0.4,0.1,0.7c-0.1,0.3-0.2,0.5-0.3,0.6c-0.2,0.3-0.5,0.5-0.8,0.7c-1.1,0.7-2.2,1.2-3.4,1.5
					l-0.2-0.4c0.5-0.3,1.1-0.6,1.5-0.9c0.5-0.3,1-0.7,1.4-1c0.2-0.2,0.4-0.4,0.6-0.5c0.1-0.1,0.1-0.2,0.1-0.2s0-0.1,0-0.2
					c-0.2-0.4-0.6-0.9-0.9-1.4c-0.7-1-1.5-2-2.1-3.1s-1-2.4-1.1-3.6H151z"/>
				<path class="st16" d="M122.6,390c-0.3,0.8-0.4,1.6-0.4,2.4c0.1,0.8,0.3,1.6,0.6,2.4c0.7,1.5,1.5,3,2.3,4.6
					c0.8,1.5,1.5,3.2,1.8,5c0.1,0.9,0.2,1.8,0.1,2.7c-0.1,0.4-0.1,0.9-0.2,1.4c-0.1,0.4-0.3,0.9-0.5,1.3c-0.4,0.8-1.1,1.6-1.9,2.1
					s-1.8,0.8-2.8,0.6c-1-0.1-1.8-0.5-2.6-0.8c-0.8-0.3-1.6-0.7-2.4-1c-1.6-0.7-3.2-1.4-4.8-1.7c-0.8-0.2-1.6-0.2-2.4,0
					c-0.4,0.1-0.8,0.3-1.1,0.5c-0.3,0.2-0.6,0.5-0.8,0.9l-0.3-0.2c0.2-0.4,0.5-0.8,0.9-1.1c0.4-0.3,0.8-0.5,1.2-0.7
					c0.9-0.3,1.8-0.3,2.7-0.2c1.8,0.3,3.4,0.9,5,1.6l2.4,1c0.8,0.3,1.6,0.6,2.3,0.7c0.8,0.1,1.5-0.1,2.2-0.5c0.6-0.4,1.2-1,1.5-1.7
					c0.2-0.3,0.3-0.7,0.4-1.1s0.1-0.8,0.2-1.2c0.1-0.8,0-1.6-0.1-2.5c-0.3-1.6-0.9-3.2-1.6-4.8c-0.7-1.6-1.5-3.1-2.2-4.7
					c-0.3-0.8-0.5-1.7-0.5-2.6s0.2-1.8,0.6-2.6L122.6,390z"/>
				<path class="st16" d="M122.8,344.7c1.5-0.7,3-1.1,4.5-1.5s3.1-0.7,4.7-1c1.6-0.2,3.2-0.4,4.8-0.4c0.8,0,1.6,0,2.4,0
					c0.8,0.1,1.6,0.1,2.4,0.3l-0.1,0.4c-0.8,0-1.6-0.1-2.3,0c-0.8,0-1.6,0.1-2.3,0.1c-1.6,0.1-3.1,0.3-4.7,0.5
					c-1.5,0.2-3.1,0.5-4.6,0.8c-0.8,0.1-1.5,0.3-2.3,0.5s-1.5,0.4-2.3,0.6L122.8,344.7z"/>
				<path class="st16" d="M135.4,359.8c0.7-0.3,1.3-0.5,2-0.7s1.4-0.3,2.1-0.4c1.4-0.2,2.8-0.3,4.2-0.3c2.8,0,5.7,0.4,8.4,1.1
					c2.7,0.8,5.4,2,7.6,3.7c1.1,0.9,2.2,1.9,3.1,3c0.9,1.1,1.6,2.4,2.2,3.7l-0.3,0.2c-1.3-2.4-3.1-4.6-5.4-6.1
					c-1.1-0.8-2.3-1.5-3.5-2.1s-2.5-1-3.9-1.4c-2.6-0.8-5.4-1.1-8.2-1.2c-1.4-0.1-2.8,0-4.1,0.1c-1.4,0.1-2.8,0.3-4,0.8L135.4,359.8
					z"/>
				<path class="st16" d="M39.6,435.6l5.2,1.7c0.4,0.1,0.8,0.5,0.8,1s-0.2,0.9-0.7,1.1l-5.7,2.7v0.1l8,1.6c0.3,0.1,0.5,0.3,0.4,0.6
					c-0.1,0.3-0.3,0.5-0.7,0.4l-8-1.6c-0.5-0.1-0.9-0.5-0.9-1c-0.1-0.5,0.2-1,0.7-1.2l5.7-2.7v-0.1l-5.2-1.7
					c-0.3-0.1-0.4-0.4-0.4-0.7C39,435.7,39.3,435.5,39.6,435.6z"/>
				<path class="st16" d="M26.1,428.4l4.6,1.5c0.4,0.1,0.7,0.5,0.7,0.9s-0.2,0.8-0.6,1l-5.1,2.4v0.1l7.1,1.4
					c0.3,0.1,0.4,0.3,0.4,0.6c-0.1,0.3-0.3,0.4-0.6,0.4l-7.1-1.4c-0.4-0.1-0.8-0.4-0.8-0.9c-0.1-0.4,0.2-0.9,0.6-1.1l5.1-2.4v-0.1
					l-4.6-1.5c-0.3-0.1-0.4-0.4-0.3-0.6C25.6,428.5,25.9,428.3,26.1,428.4z"/>
				<path class="st16" d="M54.2,446.6l3.7,1.2c0.3,0.1,0.5,0.4,0.5,0.7c0,0.3-0.2,0.6-0.5,0.8l-4,1.9v0.1l5.6,1.1
					c0.2,0,0.3,0.2,0.3,0.5c0,0.2-0.2,0.3-0.5,0.3l-5.6-1.1c-0.3-0.1-0.6-0.3-0.7-0.7c0-0.3,0.1-0.7,0.4-0.8l4-1.9v-0.1l-3.7-1.2
					c-0.2-0.1-0.3-0.3-0.2-0.5C53.7,446.7,54,446.6,54.2,446.6z"/>
				<path class="st19" d="M284.2,417.8h-16.3c-2.7,0-4.9-2.2-4.9-4.9v-14.7c0-2.7,2.2-4.9,4.9-4.9h16.3c2.7,0,4.9,2.2,4.9,4.9v14.7
					C289,415.6,286.8,417.8,284.2,417.8z"/>
				<path class="st10" d="M276,422.6l-4.7-4.8h9.5L276,422.6z"/>
				<path class="st10" d="M275.6,412.5c-0.2,0-0.5-0.1-0.6-0.3l-4.7-5.6c-0.3-0.4-0.3-0.9,0.1-1.2c0.4-0.3,0.9-0.3,1.2,0.1l3.9,4.6
					l6.1-11c0.2-0.4,0.8-0.6,1.2-0.3c0.4,0.2,0.6,0.8,0.3,1.2l-6.7,12.1C276.3,412.3,276,412.5,275.6,412.5
					C275.6,412.5,275.6,412.5,275.6,412.5z"/>
				<path class="st20" d="M271.2,353.7h8.6l-6.9-44.4h-8.6L271.2,353.7z"/>
				<path class="st21" d="M279.8,353.7h8.6l-6.9-44.4h-8.6L279.8,353.7z"/>
				<path class="st20" d="M323.3,333.3h-31.7v20.4h31.7V333.3z"/>
				<path class="st6" d="M314.2,339.9h-13.4v3.6h13.4V339.9z"/>
				<path class="st21" d="M264.4,295.9h-14.9v57.8h14.9V295.9z"/>
				<path class="st20" d="M330.7,353.7h-89.3v6.4h89.3V353.7z"/>
				<path class="st22" d="M187.2,292.2c6.7-6.7,6.7-17.5,0-24.2s-17.5-6.7-24.2,0s-6.7,17.5,0,24.2
					C169.6,298.9,180.5,298.9,187.2,292.2z"/>
				<path class="st23" d="M174.2,268.9v13h12"/>
				<path class="st21" d="M83.9,323.5H39.2c-3.5,0-6.3-2.8-6.3-6.3v-25.1c0-3.5,2.8-6.3,6.3-6.3h44.7c3.5,0,6.3,2.8,6.3,6.3v25.1
					C90.1,320.7,87.3,323.5,83.9,323.5z"/>
				<path class="st20" d="M82.9,295.3H40.1v3.6h42.8C82.9,298.9,82.9,295.3,82.9,295.3z"/>
				<path class="st9" d="M82.9,302.9H40.1v3.6h42.8C82.9,306.5,82.9,302.9,82.9,302.9z"/>
				<path class="st9" d="M82.9,310.5H40.1v3.6h42.8C82.9,314.1,82.9,310.5,82.9,310.5z"/>
				<path class="st24" d="M47.4,361.6l-8.1-6.4h16.2L47.4,361.6z"/>
				<path class="st24" d="M57.7,355.3H13c-3.5,0-6.3-2.8-6.3-6.3v-25.1c0-3.5,2.8-6.3,6.3-6.3h44.7c3.5,0,6.3,2.8,6.3,6.3V349
					C64,352.5,61.2,355.3,57.7,355.3z"/>
				<g class="st25">
					<path class="st9" d="M24.4,339.1h-5.6v6.9h5.6V339.1z"/>
					<path class="st9" d="M33.3,331.5h-5.6V346h5.6V331.5z"/>
					<path class="st9" d="M42.6,334.7H37v11.2h5.6V334.7z"/>
					<path class="st9" d="M51.8,326.9h-5.6v19h5.6V326.9z"/>
				</g>
			</g>
		</g>
	</g>
</g>
</svg>
