<?xml version="1.0" encoding="utf-8"?>
<!-- Generator: Adobe Illustrator 25.2.1, SVG Export Plug-In . SVG Version: 6.00 Build 0)  -->
<svg version="1.1" id="Layer_1" xmlns="http://www.w3.org/2000/svg" xmlns:xlink="http://www.w3.org/1999/xlink" x="0px" y="0px"
	 width="590.2px" height="509px" viewBox="0 0 590.2 509" style="enable-background:new 0 0 590.2 509;" xml:space="preserve">
<style type="text/css">
	.st0{clip-path:url(#SVGID_2_);}
	.st1{fill:none;stroke:#B6C9CF;stroke-width:2;stroke-linecap:round;stroke-linejoin:round;}
	.st2{clip-path:url(#SVGID_4_);}
	.st3{fill:none;stroke:#B6C9CF;stroke-width:6;stroke-linecap:round;stroke-linejoin:round;}
</style>
<g>
	<g>
		<defs>
			
				<rect id="SVGID_1_" x="-9.2" y="97.8" transform="matrix(0.9659 -0.2588 0.2588 0.9659 -36.411 15.0066)" width="96" height="96"/>
		</defs>
		<clipPath id="SVGID_2_">
			<use xlink:href="#SVGID_1_"  style="overflow:visible;"/>
		</clipPath>
		<g class="st0">
			<path class="st1" d="M60.4,102.7l-61.8,16.6c-4.3,1.1-6.8,5.5-5.7,9.8l10.4,38.6c1.1,4.3,5.5,6.8,9.8,5.7l61.8-16.6
				c4.3-1.1,6.8-5.5,5.7-9.8l-10.4-38.6C69,104.1,64.6,101.6,60.4,102.7z"/>
			<path class="st1" d="M32.7,184.7l30.9-8.3"/>
			<path class="st1" d="M44,165.1l4.1,15.5"/>
		</g>
	</g>
</g>
<g>
	<g>
		<defs>
			<rect id="SVGID_3_" x="-9.5" y="359.5" transform="matrix(0.5 -0.866 0.866 0.5 -330.5287 225.4234)" width="79" height="79"/>
		</defs>
		<clipPath id="SVGID_4_">
			<use xlink:href="#SVGID_3_"  style="overflow:visible;"/>
		</clipPath>
		<g class="st2">
			<path class="st1" d="M60.7,378.7l-28.5-16.5c-3.1-1.8-7.2-0.7-9,2.4l-26.3,45.6c-1.8,3.1-0.7,7.2,2.4,9l28.5,16.5
				c3.1,1.8,7.2,0.7,9-2.4l26.3-45.6C64.9,384.5,63.8,380.5,60.7,378.7z"/>
			<path class="st3" d="M20.1,416.1L20.1,416.1"/>
		</g>
	</g>
</g>
</svg>
