<svg width="199" height="198" viewBox="0 0 199 198" fill="none" xmlns="http://www.w3.org/2000/svg">
<g opacity="0.2">
<path d="M62.673 362.561C54.5839 362.561 46.4184 360.163 39.3646 355.18L94.6262 280.663L119.198 247.527L130.738 231.966L131.344 231.149L178.503 167.558L187.685 155.177L188.037 154.701L220.132 177.374L220.288 177.484L217.883 180.727L213.691 186.38L209.707 191.754L143.771 280.661L119.199 313.798L94.9579 346.485C87.171 356.983 75.0087 362.561 62.673 362.561Z" fill="#1F6AFF"/>
<path d="M120.287 167.709C91.3346 167.709 67.87 144.808 67.87 116.552C67.87 88.295 91.3346 65.3942 120.287 65.3942C122.088 65.3942 123.869 65.4836 125.62 65.655C125.676 65.662 125.726 65.6686 125.782 65.6756C143.365 67.4608 158.358 77.7335 166.407 92.2157C165.929 92.1881 165.45 92.1745 164.965 92.1745L144.561 92.1745C137.567 92.1745 131.235 94.942 126.648 99.4119C122.067 103.889 119.232 110.069 119.232 116.895C119.232 130.546 130.574 141.615 144.561 141.615L164.965 141.615C165.31 141.615 165.655 141.602 165.993 141.588C157.191 156.866 140.6 167.283 121.463 167.695C121.068 167.702 120.681 167.709 120.287 167.709Z" fill="#0D4BC8"/>
<path d="M169.827 130.629L147.404 130.629C138.827 130.629 131.868 124.476 131.868 116.895C131.868 109.314 138.827 103.162 147.404 103.162L169.827 103.162C170.122 103.162 170.418 103.169 170.706 103.182C170.826 103.375 170.939 103.567 171.051 103.766C172.134 107.852 172.704 112.136 172.704 116.552C172.704 121.173 172.078 125.65 170.896 129.901C170.755 130.141 170.608 130.382 170.46 130.615C170.249 130.622 170.038 130.629 169.827 130.629Z" fill="#1F6AFF"/>
<path d="M235.472 402.03L143.613 280.661L119.04 247.528L107.512 231.982L107.5 231.965C107.557 231.971 107.614 231.977 107.671 231.982L107.041 231.133L60.5512 168.445C60.2766 168.152 60.0048 167.855 59.7345 167.557L50.5551 155.178C50.4691 155.034 50.3822 154.891 50.297 154.746C43.6273 143.409 39.8127 130.268 39.8127 116.256C39.8127 73.5094 75.3199 38.8554 119.12 38.8554C162.919 38.8554 198.426 73.5095 198.426 116.256C198.426 130.446 194.515 143.743 187.685 155.177C185.042 159.603 181.962 163.748 178.503 167.558L131.344 231.149L130.738 231.966C162.278 228.988 190.22 214.003 209.707 191.753C227.496 171.441 238.239 145.073 238.239 116.256C238.239 52.0491 184.908 -8.46202e-06 119.119 -1.89007e-05C67.7615 -2.70497e-05 23.9969 31.719 7.26776 76.1797C2.5664 88.6722 -4.33041e-06 102.173 -4.92733e-06 116.256C-5.00212e-06 118.021 0.0395152 119.777 0.120494 121.523C1.34365 148.276 11.8299 172.678 28.5261 191.746L29.3433 192.848L94.4676 280.663L119.04 313.798L179.878 393.336C187.664 403.835 199.825 409.412 212.162 409.412C220.251 409.412 228.417 407.013 235.472 402.03Z" fill="#0A46BE"/>
</g>
</svg>
