<?xml version="1.0" encoding="utf-8"?>
<!-- Generator: Adobe Illustrator 25.2.1, SVG Export Plug-In . SVG Version: 6.00 Build 0)  -->
<svg version="1.1" id="Layer_1" xmlns="http://www.w3.org/2000/svg" xmlns:xlink="http://www.w3.org/1999/xlink" x="0px" y="0px"
	 width="178.6px" height="436px" viewBox="0 0 178.6 436" style="enable-background:new 0 0 178.6 436;" xml:space="preserve">
<style type="text/css">
	.st0{fill:#497FEA;}
	.st1{fill:#59C3FF;}
	.st2{fill:#E0E0E0;}
	.st3{fill:#263238;}
	.st4{fill:#37474F;}
	.st5{fill:#455A64;}
	.st6{fill:#778FD9;}
	.st7{fill:#27DEBF;}
	.st8{fill:#0D51D9;}
	.st9{opacity:0.2;fill:#778FD9;enable-background:new    ;}
	.st10{opacity:0.3;fill:#356EFF;enable-background:new    ;}
	.st11{fill:#FAFAFA;}
	.st12{fill:#F0F0F0;}
	.st13{fill:#88A9FF;}
	.st14{opacity:0.4;}
	.st15{opacity:0.4;fill:#FFFFFF;enable-background:new    ;}
	.st16{opacity:0.15;enable-background:new    ;}
	.st17{fill:#EBEBEB;}
	.st18{fill:#F5F5F5;}
	.st19{opacity:0.8;fill:#FFFFFF;enable-background:new    ;}
	.st20{opacity:0.3;fill:#0D51D9;enable-background:new    ;}
	.st21{opacity:0.4;fill:#0D51D9;enable-background:new    ;}
	.st22{opacity:0.5;fill:#0D51D9;enable-background:new    ;}
	.st23{opacity:0.6;fill:#59C3FF;enable-background:new    ;}
	.st24{fill:#FAFAFA;stroke:#E0E0E0;stroke-width:46.6885;stroke-miterlimit:10;}
	.st25{fill:none;stroke:#59C3FF;stroke-width:35.0164;stroke-linecap:round;stroke-linejoin:round;stroke-miterlimit:10;}
	.st26{opacity:0.3;fill:#FFFFFF;enable-background:new    ;}
	.st27{opacity:0.1;enable-background:new    ;}
	.st28{opacity:0.88;fill:#FFFFFF;enable-background:new    ;}
	.st29{opacity:0.75;fill:#FFFFFF;enable-background:new    ;}
	.st30{opacity:0.6;fill:#FFFFFF;enable-background:new    ;}
	.st31{opacity:0.3;enable-background:new    ;}
	.st32{opacity:0.4;enable-background:new    ;}
	.st33{opacity:0.55;enable-background:new    ;}
	.st34{fill:#44566A;}
	.st35{fill:#FFA8A7;}
	.st36{fill:#F28F8F;}
	.st37{opacity:0.5;enable-background:new    ;}
</style>
<g>
	<path class="st0" d="M68.3,172.2L68.3,172.2c8.7,5,11.7,16.2,6.7,24.9c-5,8.7-16.2,11.7-24.9,6.7c-8.7-5-11.7-16.2-6.7-24.9
		c2.3-4.1,6-6.8,10.1-8.2l0.2-0.1l-0.1-0.2l-6.5-22.3l-0.1-0.3l-0.3,0.1c-7.2,3.5-16,3.4-23.4-0.9c-4-2.3-7-5.5-9.2-9.2l-0.1-0.2
		l-0.2,0.1l-19.4,10l-0.2,0.1l0.1,0.2c3.2,6.7,3.2,14.9-0.8,21.8c-6.4,11.1-20.7,14.9-31.8,8.5c-11.1-6.4-14.9-20.7-8.5-31.8
		c6.4-11.1,20.7-14.9,31.8-8.5c3.2,1.9,5.8,4.4,7.7,7.3l0.1,0.2l0.2-0.1l19.5-10.1l0.2-0.1l-0.1-0.2c-2.9-7-2.7-15.2,1.4-22.2
		c3.6-6.2,9.4-10.2,15.8-11.8l0.2-0.1l0-0.2l-5.6-31.3l0-0.2l-0.2,0c-2.3-0.2-4.5-0.9-6.6-2.1C10,62.7,7.4,52.9,11.8,45.2
		c4.4-7.7,14.3-10.3,21.9-5.9c7.7,4.4,10.3,14.3,5.9,21.9c-2.6,4.6-7.2,7.4-12.1,7.9l-0.3,0l0,0.3l5.5,30.8l0,0.2l0.2,0
		c5.2-0.6,10.5,0.4,15.4,3.2c4.9,2.8,8.4,7,10.5,11.9l0.1,0.2l0.2-0.1l23.1-5.6l0.2-0.1l0-0.2c-0.7-3.4-0.2-7.1,1.7-10.4
		c4.1-7.2,13.4-9.6,20.5-5.5c7.2,4.1,9.6,13.4,5.5,20.5c-4.1,7.2-13.4,9.6-20.5,5.5c-2.9-1.7-5.1-4.2-6.3-7.1l-0.1-0.2l-0.2,0.1
		l-22.9,5.6l-0.3,0.1l0.1,0.2c1.8,6.3,1.1,13.3-2.4,19.4c-2,3.5-4.8,6.3-8,8.4l-0.2,0.1l0.1,0.2l6.8,23.2l0.1,0.2l0.2,0
		C60.5,169.4,64.6,170.1,68.3,172.2z M107.8,113c3.4-5.9,1.4-13.4-4.5-16.8c-5.9-3.4-13.4-1.4-16.8,4.5c-3.4,5.9-1.4,13.4,4.5,16.8
		C96.9,120.9,104.5,118.9,107.8,113z M32.3,41.7C26,38,17.8,40.2,14.1,46.6C10.5,53,12.7,61.1,19,64.8c6.4,3.7,14.5,1.5,18.2-4.9
		C40.9,53.6,38.7,45.4,32.3,41.7z M-36.9,176.1c9.8,5.7,22.4,2.3,28.1-7.5c5.7-9.8,2.3-22.4-7.5-28.1c-9.8-5.7-22.4-2.3-28.1,7.5
		C-50.1,157.8-46.7,170.4-36.9,176.1z M16.5,114.1c-6.2,10.7-2.5,24.4,8.2,30.6c10.7,6.2,24.4,2.5,30.6-8.2
		c6.2-10.7,2.5-24.4-8.2-30.6C36.4,99.8,22.7,103.5,16.5,114.1z M45.7,180.2c-4.3,7.4-1.7,16.9,5.7,21.2c7.4,4.3,16.9,1.7,21.2-5.7
		c4.3-7.4,1.7-16.9-5.7-21.2C59.5,170.3,50,172.8,45.7,180.2z"/>
</g>
<g>
	<path class="st1" d="M575.1-118.3c61.5,0,111.3-21.6,111.3-48.1c0-26.6-49.8-48.1-111.3-48.1c-61.5,0-111.3,21.6-111.3,48.1
		C463.8-139.9,513.6-118.3,575.1-118.3z"/>
	<path class="st2" d="M636.1-135.5c12.3,0,22.3-4.3,22.3-9.6s-10-9.6-22.3-9.6c-12.3,0-22.3,4.3-22.3,9.6S623.8-135.5,636.1-135.5z"
		/>
	<path class="st2" d="M491.1-149.5l-18.3-7.9c-1-0.5-1-1.2,0-1.6l106.4-46c1-0.5,2.7-0.5,3.7,0l18.3,7.9c1,0.5,1,1.2,0,1.6
		l-106.4,46C493.8-149,492.2-149,491.1-149.5z"/>
	<path class="st1" d="M503.4-266.5l-4.1,1.8c0-0.1,0-0.3,0-0.4v-0.9c0-1.6-1.5-2.3-3.3-1.5c-0.7,0.3-1.4,0.8-2,1.4
		c-0.3-2-2.4-2.8-5-1.7c-2.8,1.2-5,4.1-5,6.5v1.4c0,0.6,0.1,1.1,0.4,1.6l-3.4,1.5c-1,0.5-1.9,1.5-1.9,2.4c0,0.9,0.8,1.2,1.9,0.8
		l22.3-9.6c1-0.5,1.9-1.5,1.9-2.4C505.2-266.6,504.4-266.9,503.4-266.5z"/>
	<path class="st1" d="M524.8-259l-3.1,1.4c0-0.1,0-0.2,0-0.3v-0.7c0-1.2-1.1-1.7-2.5-1.1c-0.6,0.2-1.1,0.6-1.5,1.1
		c-0.2-1.5-1.8-2.1-3.7-1.2c-2.1,0.9-3.8,3.1-3.8,4.9v1c0,0.5,0.1,0.9,0.3,1.2l-2.6,1.1c-0.8,0.3-1.4,1.1-1.4,1.8s0.6,0.9,1.4,0.6
		l16.9-7.3c0.8-0.3,1.4-1.1,1.4-1.8C526.2-259.1,525.6-259.4,524.8-259z"/>
	<path class="st3" d="M556.9-163.6l15.7-6.8c1.6-0.7,2.5-1.6,2.5-2.5c0-0.9,0-1.6,0-1.6l-16.3-6.9c-0.9-0.4-1.6-1.3-1.6-2V-198
		l-27.5,11.9v14.5c0,0.8,0.7,1.7,1.6,2l13.9,6C548.4-162.2,553.6-162.2,556.9-163.6z"/>
	<path d="M536.3-169v1.6l-5-2.2c-0.9-0.4-1.6-1.3-1.6-2v-14.5l5.2-2.3c0.1,1,0.2,2,0.3,3l-3.7,1.6v11.3c0,0.8,0.7,1.7,1.6,2
		L536.3-169z"/>
	<path class="st4" d="M531.6-172.4c0,0.8,0.7,1.7,1.6,2l12,5.2c3.2,1.4,8.5,1.4,11.8,0l15.7-6.8c3.2-1.4,3.2-3.7,0-5.1l-12-5.2
		c-0.9-0.4-1.6-1.3-1.6-2v-11.3l-27.5,11.9V-172.4z"/>
	<path class="st3" d="M563.8-180.9l-3.2-1.4c-0.9-0.4-1.6-1.3-1.6-2v-11.3l-27.5,11.9v11.3c0,0.8,0.7,1.7,1.6,2l3.1,1.4L563.8-180.9
		z"/>
	<path class="st5" d="M575-174.6c0,0,0,0.7,0,1.6c0,0.9-0.8,1.8-2.5,2.5l-15.7,6.8c-1.6,0.7-3.6,1-5.6,1v-1.6c2,0,4.1-0.4,5.6-1
		l15.7-6.8C574.2-172.7,575-173.6,575-174.6z"/>
	<path class="st6" d="M487.5-158.3c1,0.5,2.7,0.4,3.8-0.1c13.5-5.8,92.7-40.1,106.2-45.9c1.1-0.5,1.9-1.6,1.9-2.5v-64.6
		c0-0.9-0.8-2-1.9-2.5c-1-0.5-2.7-0.4-3.8,0.1l-106.2,45.9c-1.1,0.5-1.9,1.6-1.9,2.5v64.6C485.6-159.8,486.5-158.7,487.5-158.3z"/>
	<path class="st7" d="M491.3-158.3l106.2-45.9c1.1-0.5,1.9-1.6,1.9-2.5v-64.6c0-0.9-0.9-1.3-1.9-0.8l-106.2,45.9
		c-1.1,0.5-1.9,1.6-1.9,2.5v64.6C489.3-158.3,490.2-157.9,491.3-158.3z"/>
	<path class="st8" d="M491.3-158.3l106.2-45.9c1.1-0.5,1.9-1.6,1.9-2.5v-64.6c0-0.9-0.9-1.3-1.9-0.8l-106.2,45.9
		c-1.1,0.5-1.9,1.6-1.9,2.5v64.6C489.3-158.3,490.2-157.9,491.3-158.3z"/>
	<path class="st6" d="M491-156.7c-1.1,0.3-2.6,0.3-3.5-0.1c-1-0.5-1.9-1.6-1.9-2.5v-5.9l3.7,1.6v5.9
		C489.3-156.8,490-156.4,491-156.7z"/>
	<path class="st4" d="M489.3-163.5v5.9c0,0.9,0.9,1.3,1.9,0.8l106.2-45.9c1.1-0.5,1.9-1.6,1.9-2.5v-5.9L489.3-163.5z"/>
	<path class="st9" d="M489.3-163.5v5.9c0,0.9,0.9,1.3,1.9,0.8l106.2-45.9c1.1-0.5,1.9-1.6,1.9-2.5v-5.9L489.3-163.5z"/>
	<path class="st7" d="M493-170.9v-52c0-0.6,0.5-1.2,1.2-1.5l100.4-43.4c0.6-0.3,1.2-0.1,1.2,0.5v52c0,0.6-0.5,1.2-1.2,1.5
		l-100.4,43.4C493.5-170.1,493-170.3,493-170.9z"/>
	<path class="st10" d="M493-170.9v-52c0-0.6,0.5-1.2,1.2-1.5l100.4-43.4c0.6-0.3,1.2-0.1,1.2,0.5v52c0,0.6-0.5,1.2-1.2,1.5
		l-100.4,43.4C493.5-170.1,493-170.3,493-170.9z"/>
	<path class="st5" d="M544.4-185.5c-1,0.5-1.9,1.5-1.9,2.4c0,0.9,0.8,1.2,1.9,0.8c1-0.5,1.9-1.5,1.9-2.4
		C546.2-185.5,545.4-185.9,544.4-185.5z"/>
	<path class="st6" d="M489.9-225.2c-0.4,0.5-0.6,1-0.6,1.5v60.3l-3.7-1.6v-60.3c0-0.5,0.2-1,0.6-1.5L489.9-225.2z"/>
	<path class="st7" d="M614.2-271.7c-0.3-0.1-0.6-0.1-1,0.1l-105.8,45.8c-0.7,0.3-1.4,1.1-1.4,1.8v53.5c0,0.4,0.2,0.8,0.6,0.9
		c0.2,0.1,1.4,0.6,1.8,0.7c0.2,0.1,0.5,0.1,0.8,0l105.9-45.8c0.7-0.3,1.4-1.1,1.4-1.8v-53.7c0-0.3-0.2-0.6-0.4-0.7
		S614.5-271.6,614.2-271.7z"/>
	<path class="st11" d="M508.7-169.1c-0.4,0-0.7-0.3-0.7-0.8v-53.5c0-0.6,0.6-1.4,1.2-1.6l105.9-45.8c0.2-0.1,0.4-0.1,0.5-0.1
		c0.3,0,0.5,0.2,0.5,0.6v53.7c0,0.6-0.6,1.3-1.2,1.6L509-169.2C508.9-169.1,508.8-169.1,508.7-169.1z"/>
	<path class="st2" d="M615.6-270.7c0.3,0,0.3,0.2,0.3,0.4v53.7c0,0.5-0.5,1.2-1.2,1.5l-105.8,45.8c-0.1,0-0.1,0.1-0.2,0.1
		c-0.2,0-0.5-0.3-0.5-0.6v-53.5c0-0.5,0.5-1.2,1.2-1.5l105.9-45.8C615.4-270.7,615.5-270.7,615.6-270.7z M615.6-271.1
		c-0.2,0-0.4,0-0.6,0.1l-105.9,45.8c-0.7,0.3-1.4,1.1-1.4,1.8v53.5c0,0.5,0.4,1,0.9,1c0.1,0,0.3,0,0.5-0.1L615-214.8
		c0.7-0.3,1.4-1.1,1.4-1.8v-53.7C616.3-270.8,616-271.1,615.6-271.1z"/>
	<path class="st12" d="M506.6-169.7c0.1,0.1,1.2,0.5,1.7,0.7c-0.3-0.2-0.5-0.5-0.5-0.9V-220l-1.8-0.8v50.1
		C506-170.2,506.2-169.9,506.6-169.7z"/>
	<path class="st13" d="M616.3-270.3c0-0.7-0.6-0.9-1.4-0.6l-105.8,45.8c-0.7,0.3-1.4,1.1-1.4,1.8v3.4l108.6-47V-270.3z"/>
	<g class="st14">
		<path class="st15" d="M615-270.9l-105.9,45.8c-0.4,0.2-0.7,0.5-1,0.8l-1.8-0.8c0.2-0.3,0.6-0.6,1-0.8l105.9-45.8
			c0.4-0.2,0.7-0.2,1-0.1c0.2,0.1,1.4,0.6,1.7,0.7C615.6-271.1,615.3-271.1,615-270.9z"/>
	</g>
	<path class="st16" d="M506-220.7v-3.3c0-0.3,0.2-0.7,0.4-1l1.8,0.8c-0.2,0.3-0.4,0.7-0.4,1v3.4L506-220.7z"/>
	<path class="st17" d="M507.7-220v6.1l108.6-47v-6.1L507.7-220z"/>
	<path class="st2" d="M512.3-220.4l7-3v3l-7,3.1V-220.4z"/>
	<path class="st2" d="M521-224.2v1.2l3.5-1.5v-1.2L521-224.2z"/>
	<path class="st2" d="M521-222.4v1.2l3.5-1.5v-1.2L521-222.4z"/>
	<path class="st2" d="M526.3-226.5v1.2l3.5-1.5v-1.2L526.3-226.5z"/>
	<path class="st2" d="M526.3-224.7v1.2l3.5-1.5v-1.2L526.3-224.7z"/>
	<path class="st2" d="M531.5-228.7v1.2l3.5-1.5v-1.2L531.5-228.7z"/>
	<path class="st2" d="M531.5-226.9v1.2l3.5-1.5v-1.2L531.5-226.9z"/>
	<path class="st2" d="M547.3-235.6v1.2l3.5-1.5v-1.2L547.3-235.6z"/>
	<path class="st2" d="M547.3-233.7v1.2l3.5-1.5v-1.2L547.3-233.7z"/>
	<path class="st2" d="M552.6-237.9v1.2l3.5-1.5v-1.2L552.6-237.9z"/>
	<path class="st2" d="M552.6-236v1.2l3.5-1.5v-1.2L552.6-236z"/>
	<path class="st2" d="M557.8-240.1v1.2l3.5-1.5v-1.2L557.8-240.1z"/>
	<path class="st2" d="M557.8-238.3v1.2l3.5-1.5v-1.2L557.8-238.3z"/>
	<path class="st2" d="M536.8-231l8.7-3.8v3l-8.7,3.8V-231z"/>
	<path class="st2" d="M563.1-242.4l7-3v3l-7,3.1V-242.4z"/>
	<path class="st2" d="M571.8-246.2v1.2l3.5-1.5v-1.2L571.8-246.2z"/>
	<path class="st2" d="M571.8-244.3v1.2l3.5-1.5v-1.2L571.8-244.3z"/>
	<path class="st2" d="M577.1-248.5v1.2l3.5-1.5v-1.2L577.1-248.5z"/>
	<path class="st2" d="M577.1-246.6v1.2l3.5-1.5v-1.2L577.1-246.6z"/>
	<path class="st2" d="M582.3-250.7v1.2l3.5-1.5v-1.2L582.3-250.7z"/>
	<path class="st2" d="M582.3-248.9v1.2l3.5-1.5v-1.2L582.3-248.9z"/>
	<path class="st2" d="M598.1-257.6v1.2l3.5-1.5v-1.2L598.1-257.6z"/>
	<path class="st2" d="M598.1-255.7v1.2l3.5-1.5v-1.2L598.1-255.7z"/>
	<path class="st2" d="M603.4-259.8v1.2l3.5-1.5v-1.2L603.4-259.8z"/>
	<path class="st2" d="M603.4-258v1.2l3.5-1.5v-1.2L603.4-258z"/>
	<path class="st2" d="M608.6-262.1v1.2l3.5-1.5v-1.2L608.6-262.1z"/>
	<path class="st2" d="M608.6-260.3v1.2l3.5-1.5v-1.2L608.6-260.3z"/>
	<path class="st2" d="M587.6-253l8.7-3.8v3l-8.7,3.8V-253z"/>
	<path class="st2" d="M507.7-220l-1.8-0.8v6.1l1.8,0.8V-220z"/>
	<path class="st18" d="M588.3-257.2v0.2c0,0.3,0.3,0.5,0.7,0.3l21.3-9.2c0.4-0.2,0.7-0.6,0.7-1v-0.2c0-0.3-0.3-0.5-0.7-0.3
		l-21.3,9.2C588.7-258,588.3-257.6,588.3-257.2z"/>
	<path class="st5" d="M611.1-266.8v-0.2c0-0.3-0.3-0.5-0.7-0.3l-2.8,1.2v1.5l2.8-1.2C610.8-266,611.1-266.5,611.1-266.8z"/>
	<path class="st12" d="M509.5-213.2l105.1-45.4v3l-96.4,41.7v39.4l-8.7,3.8V-213.2z"/>
	<path class="st1" d="M518.2-213.9l8.7-3.8v3.1l-8.7,3.8V-213.9z"/>
	<path class="st1" d="M518.2-189.7l8.7-3.8v3l-8.7,3.8V-189.7z"/>
	<path class="st7" d="M518.2-186.7l8.7-3.8v3l-8.7,3.8V-186.7z"/>
	<path class="st19" d="M518.2-186.7l8.7-3.8v3l-8.7,3.8V-186.7z"/>
	<path class="st8" d="M570.8-212.4l8.7-3.8v3l-8.7,3.8V-212.4z"/>
	<path class="st20" d="M570.8-212.4l8.7-3.8v3l-8.7,3.8V-212.4z"/>
	<path class="st8" d="M570.8-209.4l8.7-3.8v3l-8.7,3.8V-209.4z"/>
	<path class="st21" d="M570.8-209.4l8.7-3.8v3l-8.7,3.8V-209.4z"/>
	<path class="st8" d="M570.8-206.4l8.7-3.8v3l-8.7,3.8V-206.4z"/>
	<path class="st22" d="M570.8-206.4l8.7-3.8v3l-8.7,3.8V-206.4z"/>
	<path class="st8" d="M570.8-203.3l8.7-3.8v3.1l-8.7,3.8V-203.3z"/>
	<path class="st20" d="M570.8-203.3l8.7-3.8v3.1l-8.7,3.8V-203.3z"/>
	<path class="st1" d="M562.1-232.9l8.7-3.8v15.1l-8.7,3.8V-232.9z"/>
	<path class="st1" d="M562.1-214.7l8.7-3.8v21.2l-8.7,3.8V-214.7z"/>
	<path class="st8" d="M527-199.5l8.8-3.8v3l-8.8,3.8V-199.5z"/>
	<path class="st20" d="M527-199.5l8.8-3.8v3l-8.8,3.8V-199.5z"/>
	<path class="st1" d="M544.5-222.3l8.7-3.8v3l-8.7,3.8V-222.3z"/>
	<path class="st23" d="M544.5-222.3l8.7-3.8v3l-8.7,3.8V-222.3z"/>
	<path class="st7" d="M588.3-223l8.7-3.8v3l-8.7,3.8V-223z"/>
	<path class="st19" d="M588.3-223l8.7-3.8v3l-8.7,3.8V-223z"/>
	<path class="st1" d="M588.3-217l8.7-3.8v3l-8.7,3.8V-217z"/>
	<path class="st2" d="M509.4-213.3L509.4-213.3l-0.1,42.8l105.4-45.6l0.1,0v-42.8L509.4-213.3z M614.4-219.3l-8.3,3.6v-2.7l8.3-3.6
		V-219.3z M509.7-210l8.3-3.6v2.7l-8.3,3.6V-210z M561.8-214.4v2.7l-8.3,3.6v-2.7L561.8-214.4z M553.5-211.2v-2.7l8.3-3.6v2.7
		L553.5-211.2z M562.2-214.6l8.3-3.6v2.7l-8.3,3.6V-214.6z M562.2-215v-2.7l8.3-3.6v2.7L562.2-215z M562.2-218v-2.6l8.3-3.6v2.7
		L562.2-218z M562.2-221v-2.7l8.3-3.6v2.7L562.2-221z M561.8-220.8l-8.3,3.6v-2.7l8.3-3.6V-220.8z M561.8-220.5v2.7l-8.3,3.6v-2.7
		L561.8-220.5z M553.1-214l-8.3,3.6v-2.7l8.3-3.6V-214z M553.1-213.6v2.7l-8.3,3.6v-2.7L553.1-213.6z M553.1-210.6v2.7l-8.3,3.6
		v-2.7L553.1-210.6z M553.1-207.6v2.7l-8.3,3.6v-2.7L553.1-207.6z M553.5-207.8l8.3-3.6v2.7l-8.3,3.6V-207.8z M561.8-208.3v2.7
		l-8.3,3.6v-2.7L561.8-208.3z M562.2-208.5l8.3-3.6v2.7l-8.3,3.6V-208.5z M562.2-208.9v-2.7l8.3-3.6v2.7L562.2-208.9z M571-215.3
		l8.3-3.6v2.7l-8.3,3.6V-215.3z M571-215.7v-2.7l8.3-3.6v2.7L571-215.7z M571-218.7v-2.7l8.3-3.6v2.7L571-218.7z M571-221.8v-2.7
		l8.3-3.6v2.7L571-221.8z M571-224.8v-2.7l8.3-3.6v2.7L571-224.8z M571-227.8v-2.7l8.3-3.6v2.7L571-227.8z M570.6-227.6l-8.3,3.6
		v-2.7l8.3-3.6V-227.6z M561.8-223.9l-8.3,3.6v-2.7l8.3-3.6V-223.9z M553.1-220.1l-8.3,3.6v-2.7l8.3-3.6V-220.1z M553.1-219.7v2.7
		l-8.3,3.6v-2.7L553.1-219.7z M544.3-213.3l-8.3,3.6v-2.7l8.3-3.6V-213.3z M544.3-212.9v2.7l-8.3,3.6v-2.7L544.3-212.9z
		 M544.3-209.9v2.7l-8.3,3.6v-2.7L544.3-209.9z M544.3-206.8v2.7l-8.3,3.6v-2.7L544.3-206.8z M544.3-203.8v2.7l-8.3,3.6v-2.7
		L544.3-203.8z M544.3-200.8v2.7l-8.3,3.6v-2.7L544.3-200.8z M544.8-200.9l8.3-3.6v2.7l-8.3,3.6V-200.9z M553.1-201.5v2.7l-8.3,3.6
		v-2.7L553.1-201.5z M553.5-201.7l8.3-3.6v2.7l-8.3,3.6V-201.7z M562.2-205.5l8.3-3.6v2.7l-8.3,3.6V-205.5z M571-209.3l8.3-3.6v2.7
		l-8.3,3.6V-209.3z M571-209.6v-2.7l8.3-3.6v2.7L571-209.6z M579.8-216.1l8.3-3.6v2.7l-8.3,3.6V-216.1z M579.8-216.5v-2.7l8.3-3.6
		v2.7L579.8-216.5z M579.8-219.5v-2.7l8.3-3.6v2.7L579.8-219.5z M579.8-222.5v-2.7l8.3-3.6v2.7L579.8-222.5z M579.8-225.6v-2.7
		l8.3-3.6v2.7L579.8-225.6z M579.8-228.6v-2.7l8.3-3.6v2.7L579.8-228.6z M579.8-231.6v-2.7l8.3-3.6v2.7L579.8-231.6z M579.8-234.7
		v-2.7l8.3-3.6v2.7L579.8-234.7z M579.4-234.5l-8.3,3.6v-2.7l8.3-3.6V-234.5z M570.6-230.7l-8.3,3.6v-2.7l8.3-3.6V-230.7z
		 M561.8-226.9l-8.3,3.6v-2.7l8.3-3.6V-226.9z M553.1-223.1l-8.3,3.6v-2.7l8.3-3.6V-223.1z M544.3-219.3l-8.3,3.6v-2.7l8.3-3.6
		V-219.3z M544.3-218.9v2.7l-8.3,3.6v-2.7L544.3-218.9z M535.5-212.5l-8.3,3.6v-2.7l8.3-3.6V-212.5z M535.5-212.1v2.7l-8.3,3.6v-2.7
		L535.5-212.1z M535.5-209.1v2.7l-8.3,3.6v-2.7L535.5-209.1z M535.5-206.1v2.7l-8.3,3.6v-2.7L535.5-206.1z M535.5-203v2.7l-8.3,3.6
		v-2.7L535.5-203z M535.5-200v2.7l-8.3,3.6v-2.7L535.5-200z M535.5-197v2.7l-8.3,3.6v-2.7L535.5-197z M535.5-193.9v2.7l-8.3,3.6
		v-2.7L535.5-193.9z M536-194.1l8.3-3.6v2.7l-8.3,3.6V-194.1z M544.3-194.7v2.7l-8.3,3.6v-2.7L544.3-194.7z M544.8-194.9l8.3-3.6
		v2.7l-8.3,3.6V-194.9z M553.5-198.7l8.3-3.6v2.7l-8.3,3.6V-198.7z M562.2-202.5l8.3-3.6v2.7l-8.3,3.6V-202.5z M571-206.3l8.3-3.6
		v2.7l-8.3,3.6V-206.3z M579.8-210l8.3-3.6v2.7l-8.3,3.6V-210z M579.8-210.4v-2.7l8.3-3.6v2.7L579.8-210.4z M588.5-216.9l8.3-3.6
		v2.7l-8.3,3.6V-216.9z M588.5-217.2v-2.7l8.3-3.6v2.7L588.5-217.2z M588.5-220.3v-2.7l8.3-3.6v2.7L588.5-220.3z M588.5-223.3v-2.7
		l8.3-3.6v2.7L588.5-223.3z M588.5-226.3v-2.7l8.3-3.6v2.7L588.5-226.3z M588.5-229.3v-2.7l8.3-3.6v2.7L588.5-229.3z M588.5-232.4
		v-2.7l8.3-3.6v2.7L588.5-232.4z M588.5-235.4v-2.7l8.3-3.6v2.7L588.5-235.4z M588.5-238.5v-2.7l8.3-3.6v2.7L588.5-238.5z
		 M588.5-241.5v-2.7l8.3-3.6v2.7L588.5-241.5z M588.1-241.3l-8.3,3.6v-2.7l8.3-3.6V-241.3z M579.4-237.5l-8.3,3.6v-2.7l8.3-3.6
		V-237.5z M570.6-233.7l-8.3,3.6v-2.7l8.3-3.6V-233.7z M561.8-229.9l-8.3,3.6v-2.7l8.3-3.6V-229.9z M553.1-226.2l-8.3,3.6v-2.7
		l8.3-3.6V-226.2z M544.3-222.3l-8.3,3.6v-2.7l8.3-3.6V-222.3z M535.5-218.6l-8.3,3.6v-2.7l8.3-3.6V-218.6z M535.5-218.2v2.7
		l-8.3,3.6v-2.7L535.5-218.2z M526.8-211.7l-8.3,3.6v-2.7l8.3-3.6V-211.7z M526.8-211.4v2.7l-8.3,3.6v-2.7L526.8-211.4z
		 M526.8-208.3v2.7l-8.3,3.6v-2.7L526.8-208.3z M526.8-205.3v2.7l-8.3,3.6v-2.7L526.8-205.3z M526.8-202.3v2.7l-8.3,3.6v-2.7
		L526.8-202.3z M526.8-199.3v2.7l-8.3,3.6v-2.7L526.8-199.3z M526.8-196.2v2.7l-8.3,3.6v-2.7L526.8-196.2z M526.8-193.2v2.7
		l-8.3,3.6v-2.7L526.8-193.2z M526.8-190.2v2.7l-8.3,3.6v-2.7L526.8-190.2z M526.8-187.1v2.7l-8.3,3.6v-2.7L526.8-187.1z
		 M527.2-187.3l8.3-3.6v2.7l-8.3,3.6V-187.3z M535.5-187.9v2.7l-8.3,3.6v-2.7L535.5-187.9z M536-188.1l8.3-3.6v2.7l-8.3,3.6V-188.1z
		 M544.8-191.9l8.3-3.6v2.7l-8.3,3.6V-191.9z M553.5-195.6l8.3-3.6v2.7l-8.3,3.6V-195.6z M562.2-199.4l8.3-3.6v2.7l-8.3,3.6V-199.4z
		 M571-203.2l8.3-3.6v2.7l-8.3,3.6V-203.2z M579.8-207l8.3-3.6v2.7l-8.3,3.6V-207z M588.5-210.8l8.3-3.6v2.7l-8.3,3.6V-210.8z
		 M588.5-211.2v-2.7l8.3-3.6v2.7L588.5-211.2z M597.3-217.6l8.3-3.6v2.7l-8.3,3.6V-217.6z M597.3-218v-2.6l8.3-3.6v2.7L597.3-218z
		 M597.3-221v-2.7l8.3-3.6v2.7L597.3-221z M597.3-224v-2.7l8.3-3.6v2.7L597.3-224z M597.3-227.1v-2.7l8.3-3.6v2.7L597.3-227.1z
		 M597.3-230.1v-2.7l8.3-3.6v2.7L597.3-230.1z M597.3-233.2v-2.7l8.3-3.6v2.7L597.3-233.2z M597.3-236.2v-2.7l8.3-3.6v2.7
		L597.3-236.2z M597.3-239.2v-2.7l8.3-3.6v2.7L597.3-239.2z M597.3-242.2v-2.7l8.3-3.6v2.7L597.3-242.2z M597.3-245.3v-2.7l8.3-3.6
		v2.7L597.3-245.3z M597.3-248.3v-2.7l8.3-3.6v2.7L597.3-248.3z M596.8-248.1l-8.3,3.6v-2.7l8.3-3.6V-248.1z M588.1-244.3l-8.3,3.6
		v-2.7l8.3-3.6V-244.3z M579.4-240.5l-8.3,3.6v-2.7l8.3-3.6V-240.5z M570.6-236.8l-8.3,3.6v-2.7l8.3-3.6V-236.8z M561.8-232.9
		l-8.3,3.6v-2.7l8.3-3.6V-232.9z M553.1-229.2l-8.3,3.6v-2.7l8.3-3.6V-229.2z M544.3-225.4l-8.3,3.6v-2.7l8.3-3.6V-225.4z
		 M535.5-221.6l-8.3,3.6v-2.6l8.3-3.6V-221.6z M526.8-217.8l-8.3,3.6v-2.7l8.3-3.6V-217.8z M526.8-217.4v2.7l-8.3,3.6v-2.7
		L526.8-217.4z M509.7-207l8.3-3.6v2.7l-8.3,3.6V-207z M509.7-204l8.3-3.6v2.7l-8.3,3.6V-204z M509.7-200.9l8.3-3.6v2.7l-8.3,3.6
		V-200.9z M509.7-197.9l8.3-3.6v2.7l-8.3,3.6V-197.9z M509.7-194.9l8.3-3.6v2.7l-8.3,3.6V-194.9z M509.7-191.9l8.3-3.6v2.7l-8.3,3.6
		V-191.9z M509.7-188.8l8.3-3.6v2.7l-8.3,3.6V-188.8z M509.7-185.8l8.3-3.6v2.7l-8.3,3.6V-185.8z M509.7-182.8l8.3-3.6v2.7l-8.3,3.6
		V-182.8z M509.7-179.7l8.3-3.6v2.7l-8.3,3.6V-179.7z M509.7-176.7l8.3-3.6v2.7l-8.3,3.6V-176.7z M518.5-180.5l8.3-3.6v2.7l-8.3,3.6
		V-180.5z M526.8-181.1v2.6l-8.3,3.6v-2.6L526.8-181.1z M527.2-181.3l8.3-3.6v2.6l-8.3,3.6V-181.3z M536-185l8.3-3.6v2.6l-8.3,3.6
		V-185z M544.8-188.8l8.3-3.6v2.6l-8.3,3.6V-188.8z M553.5-192.6l8.3-3.6v2.6l-8.3,3.6V-192.6z M562.2-196.4l8.3-3.6v2.6l-8.3,3.6
		V-196.4z M571-200.2l8.3-3.6v2.6l-8.3,3.6V-200.2z M579.8-204l8.3-3.6v2.6l-8.3,3.6V-204z M588.5-207.8l8.3-3.6v2.6l-8.3,3.6
		V-207.8z M597.3-211.6l8.3-3.6v2.6l-8.3,3.6V-211.6z M597.3-211.9v-2.7l8.3-3.6v2.7L597.3-211.9z M614.4-222.3l-8.3,3.6v-2.7
		l8.3-3.6V-222.3z M614.4-225.4l-8.3,3.6v-2.7l8.3-3.6V-225.4z M614.4-228.4l-8.3,3.6v-2.7l8.3-3.6V-228.4z M614.4-231.5l-8.3,3.6
		v-2.7l8.3-3.6V-231.5z M614.4-234.5l-8.3,3.6v-2.7l8.3-3.6V-234.5z M614.4-237.5l-8.3,3.6v-2.7l8.3-3.6V-237.5z M614.4-240.5
		l-8.3,3.6v-2.7l8.3-3.6V-240.5z M614.4-243.6l-8.3,3.6v-2.7l8.3-3.6V-243.6z M614.4-246.6l-8.3,3.6v-2.7l8.3-3.6V-246.6z
		 M614.4-249.6l-8.3,3.6v-2.7l8.3-3.6V-249.6z M614.4-252.7l-8.3,3.6v-2.7l8.3-3.6V-252.7z M614.4-255.7l-8.3,3.6v-2.7l8.3-3.6
		V-255.7z M518.1-216.7v2.7l-8.3,3.6v-2.7L518.1-216.7z M509.7-173.7l8.3-3.6v2.6l-8.3,3.6V-173.7z M606.1-212.7v-2.6l8.3-3.6v2.6
		L606.1-212.7z"/>
	<path class="st24" d="M579.5-240.4l35.1-15.1v15.1l-35.1,15.1V-240.4z"/>
	<path class="st25" d="M581.3-229.1l4.8-9.7l5.2,2.4l5.3-4l5.2,2.6l5.3-9.7l5.2,2"/>
	<path class="st7" d="M586.1-239.2c-0.3,0.1-0.5,0.5-0.5,0.7c0,0.2,0.2,0.3,0.5,0.2c0.3-0.1,0.5-0.5,0.5-0.7
		C586.6-239.3,586.3-239.4,586.1-239.2z"/>
	<path class="st7" d="M591.3-236.9c-0.3,0.1-0.5,0.5-0.5,0.7s0.2,0.3,0.5,0.2c0.3-0.1,0.5-0.5,0.5-0.7
		C591.9-236.9,591.6-237,591.3-236.9z"/>
	<path class="st7" d="M596.6-240.9c-0.3,0.1-0.5,0.5-0.5,0.7s0.2,0.3,0.5,0.2c0.3-0.1,0.5-0.5,0.5-0.7
		C597.1-240.9,596.8-241,596.6-240.9z"/>
	<path class="st7" d="M601.8-238.3c-0.3,0.1-0.5,0.5-0.5,0.7c0,0.2,0.2,0.3,0.5,0.2c0.3-0.1,0.5-0.5,0.5-0.7
		C602.4-238.3,602.1-238.4,601.8-238.3z"/>
	<path class="st7" d="M607.1-248c-0.3,0.1-0.5,0.5-0.5,0.7s0.2,0.3,0.5,0.2c0.3-0.1,0.5-0.5,0.5-0.7
		C607.6-248,607.3-248.1,607.1-248z"/>
	<path class="st7" d="M612.3-246c-0.3,0.1-0.5,0.5-0.5,0.7c0,0.2,0.2,0.3,0.5,0.2c0.3-0.1,0.5-0.5,0.5-0.7
		C612.9-246,612.6-246.1,612.3-246z"/>
	<path class="st5" d="M629.2-199.8l-9.3,4l9.3,4.1l9.3-4.1L629.2-199.8z"/>
	<path class="st4" d="M638.5-195.7v16l-9.3,4v-16L638.5-195.7z"/>
	<path class="st3" d="M629.2-191.7v16l-9.3-4v-16L629.2-191.7z"/>
	<path class="st7" d="M616.9-187.5l-9.3,4l9.3,4l9.3-4L616.9-187.5z"/>
	<path class="st26" d="M616.9-187.5l-9.3,4l9.3,4l9.3-4L616.9-187.5z"/>
	<path class="st7" d="M626.2-183.5v9.1l-9.3,4v-9.1L626.2-183.5z"/>
	<path class="st7" d="M616.9-179.5v9.1l-9.3-4v-9.1L616.9-179.5z"/>
	<path class="st27" d="M616.9-179.5v9.1l-9.3-4v-9.1L616.9-179.5z"/>
	<path class="st7" d="M604.7-186l-9.3,4l9.3,4l9.3-4L604.7-186z"/>
	<path class="st28" d="M604.7-186l-9.3,4l9.3,4l9.3-4L604.7-186z"/>
	<path class="st7" d="M614-182v12.9l-9.3,4v-12.9L614-182z"/>
	<path class="st29" d="M614-182v12.9l-9.3,4v-12.9L614-182z"/>
	<path class="st7" d="M604.7-177.9v12.9l-9.3-4V-182L604.7-177.9z"/>
	<path class="st30" d="M604.7-177.9v12.9l-9.3-4V-182L604.7-177.9z"/>
	<path class="st7" d="M592.4-172.4l-9.3,4.1l9.3,4l9.3-4L592.4-172.4z"/>
	<path class="st31" d="M592.4-172.4l-9.3,4.1l9.3,4l9.3-4L592.4-172.4z"/>
	<path class="st7" d="M601.7-168.3v4.5l-9.3,4v-4.5L601.7-168.3z"/>
	<path class="st32" d="M601.7-168.3v4.5l-9.3,4v-4.5L601.7-168.3z"/>
	<path class="st7" d="M592.4-164.3v4.5l-9.3-4.1v-4.5L592.4-164.3z"/>
	<path class="st33" d="M592.4-164.3v4.5l-9.3-4.1v-4.5L592.4-164.3z"/>
	<path class="st3" d="M541.7-144.2v2.6l-3.5-7.1v-2.6L541.7-144.2z"/>
	<path class="st4" d="M541.7-144.2v2.6l14.3-3.7v-2.7L541.7-144.2z"/>
	<path class="st34" d="M538.1-151.3l3.5,7.1l14.4-3.7C552.1-150.5,545.2-151.8,538.1-151.3z"/>
	<path class="st7" d="M540.2-140.8l-2.1,7.5c-8.7-0.6-15-4-14.9-7.7v-2.6c0,3.7,6.3,7,14.9,7.7l1.5-5.2L540.2-140.8z"/>
	<path class="st32" d="M540.2-140.8l-2.1,7.5c-8.7-0.6-15-4-14.9-7.7v-2.6c0,3.7,6.3,7,14.9,7.7l1.5-5.2L540.2-140.8z"/>
	<path class="st7" d="M539.7-135.9v2.6c3.8,0.1,7.3-0.2,10.6-1.1c4.1-1.1,7-2.8,8.2-4.8c0.4-0.6,0.5-1.2,0.6-1.8c0-0.2,0-2.7,0-2.7
		s-1-0.1-2.2-1l-2.7,0.7l-12.3,3.2L539.7-135.9z"/>
	<path class="st30" d="M539.7-135.9v2.6c3.8,0.1,7.3-0.2,10.6-1.1c4.1-1.1,7-2.8,8.2-4.8c0.4-0.6,0.5-1.2,0.6-1.8c0-0.2,0-2.7,0-2.7
		s-1-0.1-2.2-1l-2.7,0.7l-12.3,3.2L539.7-135.9z"/>
	<path class="st7" d="M529-146.7l10.7,4.6v-2.7l-10.7-4.6V-146.7z"/>
	<path class="st27" d="M529-146.7l10.7,4.6v-2.7l-10.7-4.6V-146.7z"/>
	<path class="st7" d="M523.3-144.6c-1.2,4.1,5.4,7.9,14.8,8.6l2.1-7.5l-12.4-5.4C525.2-147.6,523.8-146.2,523.3-144.6z"/>
	<path class="st20" d="M523.3-144.6c-1.2,4.1,5.4,7.9,14.8,8.6l2.1-7.5l-12.4-5.4C525.2-147.6,523.8-146.2,523.3-144.6z"/>
	<path class="st7" d="M539.8-136.1l0,0.2c3.8,0.1,7.3-0.2,10.6-1.1c4.1-1.1,7-2.8,8.2-4.8c1.1-1.9,0.5-3.8-1.6-5.6l-2.7,0.7
		l-12.3,3.2L539.8-136.1z"/>
	<path class="st29" d="M539.8-136.1l0,0.2c3.8,0.1,7.3-0.2,10.6-1.1c4.1-1.1,7-2.8,8.2-4.8c1.1-1.9,0.5-3.8-1.6-5.6l-2.7,0.7
		l-12.3,3.2L539.8-136.1z"/>
	<path class="st7" d="M529-149.3l10.7,4.6l-3.1-6.4C533.6-150.8,531.2-150.2,529-149.3z"/>
	<path class="st7" d="M540.2-140.8v-2.6L538-136v2.6L540.2-140.8z"/>
	<path class="st33" d="M540.2-140.8v-2.6L538-136v2.6L540.2-140.8z"/>
	<path class="st7" d="M553.9-155.2l-2.4,1l2.4,1l2.3-1L553.9-155.2z"/>
	<path class="st31" d="M553.9-155.2l-2.4,1l2.4,1l2.3-1L553.9-155.2z"/>
	<path class="st7" d="M556.2-154.2v1l-2.3,1v-1L556.2-154.2z"/>
	<path class="st32" d="M556.2-154.2v1l-2.3,1v-1L556.2-154.2z"/>
	<path class="st7" d="M553.9-153.2v1l-2.4-1v-1L553.9-153.2z"/>
	<path class="st33" d="M553.9-153.2v1l-2.4-1v-1L553.9-153.2z"/>
	<path class="st2" d="M557.4-156l8.7-3.7c0.5-0.2,1.3-0.2,1.8,0c0.5,0.2,0.5,0.6,0,0.8l-8.7,3.7c-0.5,0.2-1.3,0.2-1.8,0
		C556.9-155.4,556.9-155.8,557.4-156z"/>
	<path class="st7" d="M559.1-152.9l-2.3,1l2.3,1l2.4-1L559.1-152.9z"/>
	<path class="st28" d="M559.1-152.9l-2.3,1l2.3,1l2.4-1L559.1-152.9z"/>
	<path class="st7" d="M561.5-151.9v1l-2.4,1v-1L561.5-151.9z"/>
	<path class="st29" d="M561.5-151.9v1l-2.4,1v-1L561.5-151.9z"/>
	<path class="st7" d="M559.1-150.9v1l-2.3-1v-1L559.1-150.9z"/>
	<path class="st30" d="M559.1-150.9v1l-2.3-1v-1L559.1-150.9z"/>
	<path class="st2" d="M562.7-153.7l8.7-3.7c0.5-0.2,1.3-0.2,1.8,0c0.5,0.2,0.5,0.6,0,0.8l-8.7,3.7c-0.5,0.2-1.3,0.2-1.8,0
		C562.2-153.1,562.2-153.5,562.7-153.7z"/>
	<path class="st7" d="M564.4-150.7l-2.3,1l2.3,1l2.3-1L564.4-150.7z"/>
	<path class="st26" d="M564.4-150.7l-2.3,1l2.3,1l2.3-1L564.4-150.7z"/>
	<path class="st7" d="M566.7-149.7v1l-2.3,1v-1L566.7-149.7z"/>
	<path class="st7" d="M564.4-148.7v1l-2.3-1v-1L564.4-148.7z"/>
	<path class="st27" d="M564.4-148.7v1l-2.3-1v-1L564.4-148.7z"/>
	<path class="st2" d="M567.9-151.4l8.7-3.7c0.5-0.2,1.3-0.2,1.8,0s0.5,0.6,0,0.8l-8.7,3.7c-0.5,0.2-1.3,0.2-1.8,0
		C567.4-150.9,567.4-151.2,567.9-151.4z"/>
	<path class="st5" d="M569.6-148.4l-2.4,1l2.4,1l2.3-1L569.6-148.4z"/>
	<path class="st4" d="M572-147.4v1l-2.3,1v-1L572-147.4z"/>
	<path class="st3" d="M569.6-146.4v1l-2.4-1v-1L569.6-146.4z"/>
	<path class="st2" d="M573.2-149.2l8.7-3.7c0.5-0.2,1.3-0.2,1.8,0c0.5,0.2,0.5,0.6,0,0.8l-8.7,3.7c-0.5,0.2-1.3,0.2-1.8,0
		C572.7-148.6,572.7-149,573.2-149.2z"/>
	<path class="st35" d="M642.7-203.1c3.2,0,4.7,0.7,5.9,3c1.2,2.3,4.2,7.6,4.3,9.2c0,1.6-6.9,6.6-6.7,6.5c0.1,0-2.1-3-2.1-3l3.9-3.6
		l-2.3-4.9L642.7-203.1z"/>
	<path class="st3" d="M646.7-149.3c0.2,0.1,0.2,0.3,0.2,0.8c0,0.5,0.3,1.1,0,1.6c-0.3,0.3-1.6,0.6-2.3,0.3c-0.6-0.2-1.1-0.7-1.6-1.1
		c-0.4-0.3-0.9-0.7-1.4-1c-0.6-0.3-1.2-0.5-1.9-0.8c-0.9-0.5-1.6-1.2-1.7-2.1c0-0.2,0-0.6,0.2-0.8c0.2-0.3,0.8-0.3,1.2-0.3
		c0.6,0.1,2.9,1,3.4,1.3C643.6-151,646.5-149.4,646.7-149.3z"/>
	<path class="st35" d="M643.5-151.4c0,0.4-2.1-0.5-3-0.4c0,0,0,0,0,0c-0.8,0.3-0.1,1.1,0.6,1.5c0.7,0.4,3.1,1.7,3.1,1.7l0.5-2.1
		L643.5-151.4z"/>
	<path class="st3" d="M634.5-145.4c0.4,0,0.6,0.9,0.6,1.7c0,0.6,0.3,1.5,0.1,1.9c-0.3,0.4-1.3,0.7-2.8,0.7c-1,0-2.6,0.5-3.7,0.9
		c-1.1,0.5-2.3,0.5-3.5,0.3c-1.4-0.1-2.8-0.8-3-1.2c-0.2-0.4,0.1-0.6,3.4-1.7c0,0,3.5-1.1,5.1-2.4L634.5-145.4z"/>
	<path class="st35" d="M625.5-142.8c-0.5,0.1-0.8,0.3-1.2,0.4c-0.1,0.2,0,0.6,1.5,0.8c2.2,0.3,8.7-3.4,8.7-3.4s-0.9,0.2-1.1-0.2
		h-2.8C629-143.9,625.5-142.8,625.5-142.8z"/>
	<path class="st35" d="M648.1-161.3c0-3-0.6-4.8-0.6-4.8s0.4-6.2,0.4-10.1c0.1-7.7-0.1-8.8-2.4-12.1c0,0-13.3-1.2-13.8,3.7
		c-0.7,6-1.5,16.1-1.5,19c0,2.1,0.3,4.5,0.5,9.3c0.1,3.1,0.6,7.5,0,11.2c0.7,0.9,2.8,0.9,3.9,0.2c0.3-3.6,2.7-10.5,3.1-12.9
		c0.4-2.5-0.3-5.2-0.3-5.2s1.8-10.3,2.1-11.8c0,0,0.8,2.9,0.8,5c0,0.7,0.3,3,0.8,6.8c0.3,2.4,2.5,11.5,3,14.5
		c1.1,0.8,2.5,0.2,2.6-0.1C647-152.4,648.1-159.1,648.1-161.3z"/>
	<path class="st16" d="M639.4-175l1.2-5c0,0,2.7-0.2,5.2-2c0,0-0.7,2-4.2,2.7l-1.4,4.5l-0.2,4.1L639.4-175z"/>
	<path class="st35" d="M636.1-204.8l0.6,4.5l5.3-0.2l-0.4-5L636.1-204.8z"/>
	<path class="st7" d="M646.7-187.2c-0.5-1-0.8-1.6-2.3-3.4c2.3-5.5,3-7.3,2.5-9.6c-0.3-1.5-1.9-3-3.8-2.9c0,0-1.1,0-1.5,0
		c-0.1,1-3.9,1.1-5.4,0.4l-1.3,0c-1,0.2-4.2,3.8-4.5,6.1c-0.3,1.9,1.7,3.6,1.7,3.6c0.1,0.8-0.2,2.4-0.2,2.4s0,4.6,0,6.9
		c0,0,0.7,1.8,8.5,1.2c6.9-0.5,7.1-2.3,7.1-2.3S647.4-185.9,646.7-187.2z"/>
	<path class="st3" d="M636.9-215.4c0,0-2.5-0.3-4.3,1.1c-2.7,2.3,0.3,4,0.3,4L636.9-215.4z"/>
	<path class="st36" d="M632.1-209.8c0,0-1.2,1.3-1,1.5c0.1,0.1,0.9,0.3,0.9,0.3L632.1-209.8z"/>
	<path class="st35" d="M635.8-214c-1.2,0.5-3.1,1.2-3.7,4.4c-0.5,3.2,0.4,4.4,1,4.8c0.4,0.3,2.5,0.4,3.5,0.1
		c1.3-0.3,4.3-1.4,5.6-3.1c1.6-2,1.9-4.6,0.1-5.6C639.8-214.7,636.7-214.4,635.8-214z"/>
	<path class="st3" d="M635.2-210.3c-2.4-0.9-1.8-3.3-1.8-3.3s3.4-3.6,9.7-1.3c2.2,0.8,3.5,2.7,3.4,4.9c0,2.8-3.1,5.1-6.8,5.1
		c-2.2,0-4-1.4-4-3v-0.2l0.2,0c0.3,0.1,1.1,0.1,1.9-0.4c1.1-0.7,1.2-2-0.1-2.3c-1.3-0.3-2,0.8-2,0.8l-0.5,1c-0.5-0.1-0.8-0.6-0.6-1
		C634.6-210.1,634.9-210.2,635.2-210.3z"/>
	<path class="st7" d="M620.7-209.5l-11.4,4.3l5.4,11.5l10.6-4.3L620.7-209.5z"/>
	<path class="st18" d="M620.2-208.4l-9.6,3.6l4.8,9.9l8.9-3.6L620.2-208.4z"/>
	<path class="st16" d="M618.2-207.4c0,0-0.1-0.2-0.2-0.3c-0.1-0.2-0.9-0.1-1.8,0.2l-1.7,0.6c-0.9,0.3-1.5,0.8-1.4,0.9l0.2,0.3
		L618.2-207.4z"/>
	<path class="st4" d="M618-208.8c0-0.1-0.4-0.1-0.8,0l-0.6,0.2c0,0-0.4-0.8-1.9-0.2c-1.5,0.5-1.2,1.4-1.2,1.4s-0.3,0.1-0.7,0.3
		c-0.4,0.1-0.6,0.4-0.6,0.5l0.1,0.2l5.9-2.2C618.1-208.6,618.1-208.7,618-208.8z"/>
	<path class="st3" d="M617.4-208.3c-0.6,0.2-0.7,0.3-0.6,0.6c0.2,0.3,0.3,0.6,0.3,0.6l-2.6,1c0,0-0.2-0.5-0.3-0.6
		c-0.1-0.2-0.3-0.2-0.7-0.1l-0.1-0.1l4.1-1.5L617.4-208.3z"/>
	<path class="st4" d="M618.3-207.4c0,0-0.1-0.2-0.2-0.3c-0.1-0.2-0.9-0.1-1.8,0.2l-1.7,0.6c-0.9,0.3-1.5,0.8-1.4,0.9l0.2,0.3
		L618.3-207.4z"/>
	<path class="st35" d="M635-202.8c-1.8,0-2.9,0.1-5.3,2.8c-2.5,2.7-7,7.7-7.5,8.4c-0.7,0.9-0.9,2.3-0.3,3.1c0.6,0.8,1.6,1.1,4.3-1.2
		c2.1-1.7,6.5-6.1,6.5-6.1S636.1-200.4,635-202.8z"/>
	<path class="st35" d="M622.9-187.8c-1.5,0.3-6.9-4.5-8.4-5.9c-1.7-1.6-3-2.5-4.2-3.2c-2.1-1.2-1.8-3-0.8-4.6
		c0.3-0.6,1.4-0.2,1.4-0.2l0.4,0.8l0.6,1.4c0.5,0.3,0.7,0.4,0.7,0.3c0-0.2-0.3-0.9-0.3-1.7c0-0.9,0.9-0.3,1.1,0
		c0.2,0.3,0.6,0.8,0.9,1.5c0.4,0.8,0.2,1.6,0.7,2.2c0.5,0.6,7.9,5.1,7.9,5.1L622.9-187.8L622.9-187.8z"/>
	<path class="st7" d="M644.4-190.6c0,0-5.2,2.3-12.4,0c0,0-1,4.3-1.3,8.6c-0.3,3.7-0.8,11.6-0.8,11.6s2.1,1.9,9.8,1.5
		c7.4-0.4,8.7-1.8,8.7-1.8s0-7.1,0-10.2C648.4-184.9,647.6-187,644.4-190.6z"/>
	<path class="st37" d="M644.4-190.6c0,0-5.2,2.3-12.4,0c0,0-1,4.3-1.3,8.6c-0.3,3.7-0.8,11.6-0.8,11.6s2.1,1.9,9.8,1.5
		c7.4-0.4,8.7-1.8,8.7-1.8s0-7.1,0-10.2C648.4-184.9,647.6-187,644.4-190.6z"/>
	<path class="st3" d="M646.8-211.5l1.2-0.8c-0.4-0.3-1.1-0.3-1.5,0c-0.3,0.2-0.4,0.5-0.3,0.8c-0.1,0-0.3,0-0.5,0v7.3
		c0,2.1,2.3,3.8,5.1,3.8v-7.4C650.8-209.6,649.1-211.2,646.8-211.5z"/>
</g>
<g>
	<path class="st0" d="M9.9,408.5l-0.3-1.2l-1.2,0.3l-3.8,1c-0.7,0.2-1.4,0.1-2-0.3c-0.6-0.4-1.1-0.9-1.2-1.6l-32.4-121.1
		c-0.4-1.4,0.5-2.9,1.9-3.3l174-46.6l0,0c0.7-0.2,1.4-0.1,2,0.3l0.6-1.1l-0.6,1.1c0.6,0.4,1.1,0.9,1.2,1.6l32.4,121.1
		c0.2,0.7,0.1,1.4-0.3,2c-0.4,0.6-0.9,1.1-1.6,1.2l-3.8,1l-1.2,0.3l0.3,1.2c0.2,0.7,0.1,1.4-0.3,2c-0.4,0.6-0.9,1.1-1.6,1.2
		l-15.1,4.1c-0.7,0.2-1.4,0.1-2-0.3c-0.6-0.4-1.1-0.9-1.2-1.6l-0.3-1.2l-1.2,0.3L31.1,401.6l-1.2,0.3l0.3,1.2c0.2,0.7,0.1,1.4-0.3,2
		c-0.4,0.6-0.9,1.1-1.6,1.2l-15.1,4.1c-0.7,0.2-1.4,0.1-2-0.3C10.5,409.8,10.1,409.2,9.9,408.5z M176.3,358.9l1.2-0.3l-0.3-1.2
		l-31.3-116.8l-0.3-1.2l-1.2,0.3L-27,285.5l-1.2,0.3l0.3,1.2L3.4,403.9l0.3,1.2l1.2-0.3L176.3,358.9z"/>
	<path class="st0" d="M-13.1,297.1l9.9,37.5L148.1,294l-9.9-37.5L-13.1,297.1z M139.5,254.2l0.6-1.1L139.5,254.2
		c0.6,0.4,1.1,0.9,1.2,1.6l10.1,37.8c0.2,0.7,0.1,1.4-0.3,2l1.1,0.6l-1.1-0.6c-0.4,0.6-0.9,1.1-1.6,1.2L-2.3,337.5
		c-0.7,0.2-1.4,0.1-2-0.3l-0.6,1.1l0.6-1.1c-0.6-0.4-1.1-0.9-1.2-1.6l-10.1-37.8c-0.4-1.4,0.5-2.9,1.9-3.3L137.5,254
		C138.2,253.8,138.9,253.9,139.5,254.2z"/>
	<path class="st0" d="M0.7,350.1l9.9,37.5L162,347l-9.9-37.5L0.7,350.1z M153.3,307.2l0.6-1.1L153.3,307.2c0.6,0.4,1.1,0.9,1.2,1.6
		l10.1,37.8c0.2,0.7,0.1,1.4-0.3,2l1.1,0.6l-1.1-0.6c-0.4,0.6-0.9,1.1-1.6,1.2L11.5,390.5c-0.7,0.2-1.4,0.1-2-0.3l-0.6,1.1l0.6-1.1
		c-0.6-0.4-1.1-0.9-1.2-1.6l-10.1-37.8c-0.4-1.4,0.5-2.9,1.9-3.3l151.3-40.5C152,306.8,152.7,306.9,153.3,307.2z"/>
	<path class="st0" d="M78.2,290.1l1.2-0.3l-0.3-1.2l-0.7-2.6l5.2-1.4l3.4,12.7l-5.2,1.4l-0.7-2.6l-0.3-1.2l-1.2,0.3l-22.7,6.1
		l-1.2,0.3l0.3,1.2l0.7,2.6l-5.2,1.4l-3.4-12.7l5.2-1.4l0.7,2.6l0.3,1.2l1.2-0.3L78.2,290.1z"/>
	<path class="st0" d="M92.4,343.1l1.2-0.3l-0.3-1.2l-0.7-2.6l5.2-1.4l3.4,12.7l-5.2,1.4l-0.7-2.6l-0.3-1.2l-1.2,0.3l-22.7,6.1
		l-1.2,0.3l0.3,1.2l0.7,2.6l-5.2,1.4l-3.4-12.7l5.2-1.4l0.7,2.6l0.3,1.2l1.2-0.3L92.4,343.1z"/>
</g>
</svg>
