<?xml version="1.0" encoding="utf-8"?>
<!-- Generator: Adobe Illustrator 25.2.1, SVG Export Plug-In . SVG Version: 6.00 Build 0)  -->
<svg version="1.1" id="Layer_1" xmlns="http://www.w3.org/2000/svg" xmlns:xlink="http://www.w3.org/1999/xlink" x="0px" y="0px"
	 width="102px" height="436px" viewBox="0 0 102 436" style="enable-background:new 0 0 102 436;" xml:space="preserve">
<style type="text/css">
	.st0{fill:#497FEA;}
	.st1{fill:#5E93FF;}
	.st2{opacity:0.3;}
	.st3{opacity:0.3;fill:#91B3FA;enable-background:new    ;}
	.st4{fill:#91B3FA;}
	.st5{fill:#BDD0FB;}
	.st6{fill:#D1DBFF;}
	.st7{fill:#3461FF;}
	.st8{opacity:0.53;}
	.st9{opacity:0.53;fill:#FFFFFF;enable-background:new    ;}
	.st10{fill:#0D51D9;}
	.st11{opacity:0.57;fill:#E5ECFE;enable-background:new    ;}
	.st12{opacity:0.44;fill:#FFFFFF;enable-background:new    ;}
	.st13{fill:#FFFFFF;}
	.st14{fill:url(#SVGID_1_);}
	.st15{fill:url(#SVGID_2_);}
	.st16{fill:url(#SVGID_3_);}
	.st17{fill:url(#SVGID_4_);}
	.st18{fill:url(#SVGID_5_);}
	.st19{fill:url(#SVGID_6_);}
	.st20{opacity:0.48;}
	.st21{opacity:0.48;fill:#FFFFFF;enable-background:new    ;}
	.st22{fill:url(#SVGID_7_);}
	.st23{opacity:0.5;fill:#FFFFFF;enable-background:new    ;}
	.st24{fill:url(#SVGID_8_);}
	.st25{opacity:0.91;fill:#FFFFFF;enable-background:new    ;}
	.st26{fill:url(#SVGID_9_);}
	.st27{fill:url(#SVGID_10_);}
	.st28{fill:url(#SVGID_11_);}
	.st29{fill:#6691E7;}
	.st30{fill:url(#SVGID_12_);}
	.st31{fill:url(#SVGID_13_);}
	.st32{fill:url(#SVGID_14_);}
	.st33{fill:url(#SVGID_15_);}
	.st34{fill:url(#SVGID_16_);}
	.st35{fill:url(#SVGID_17_);}
	.st36{fill:url(#SVGID_18_);}
	.st37{fill:url(#SVGID_19_);}
	.st38{fill:url(#SVGID_20_);}
	.st39{fill:url(#SVGID_21_);}
	.st40{fill:url(#SVGID_22_);}
	.st41{fill:url(#SVGID_23_);}
	.st42{fill:url(#SVGID_24_);}
	.st43{fill:url(#SVGID_25_);}
</style>
<g>
	<path class="st0" d="M60.4,184.7L60.4,184.7c8.2,4.8,11.1,15.3,6.3,23.6c-4.8,8.2-15.3,11.1-23.6,6.3c-8.2-4.8-11.1-15.3-6.3-23.6
		c2.2-3.8,5.7-6.5,9.6-7.7l0.2-0.1l-0.1-0.2l-6.2-21.1l-0.1-0.3l-0.3,0.1c-6.8,3.3-15.1,3.3-22.2-0.8c-3.7-2.2-6.6-5.2-8.7-8.7
		l-0.1-0.2L9,152.2l-18.3,9.5l-0.2,0.1l0.1,0.2c3.1,6.3,3,14-0.7,20.6c-6.1,10.5-19.6,14.1-30.1,8.1c-10.5-6.1-14.1-19.6-8.1-30.1
		c6.1-10.5,19.6-14.1,30.1-8.1c3,1.8,5.5,4.1,7.3,6.9l0.1,0.2l0.2-0.1l18.5-9.6l0.2-0.1l-0.1-0.2c-2.8-6.6-2.5-14.4,1.3-21
		c3.4-5.8,8.8-9.7,14.9-11.2l0.2-0.1l0-0.2L19,87.6l0-0.2l-0.2,0c-2.1-0.2-4.2-0.8-6.2-2C5.3,81.2,2.8,71.9,7,64.7
		c4.2-7.2,13.5-9.7,20.7-5.6c7.2,4.2,9.7,13.5,5.6,20.7c-2.5,4.3-6.8,7-11.5,7.5l-0.3,0l0,0.2l5.2,29.1l0,0.2l0.2,0
		c4.9-0.6,10,0.4,14.5,3c4.6,2.7,8,6.7,9.9,11.2l0.1,0.2l0.2,0l21.8-5.3l0.2-0.1l0-0.2c-0.6-3.2-0.2-6.7,1.6-9.8
		c3.9-6.8,12.6-9.1,19.4-5.2c6.8,3.9,9.1,12.6,5.2,19.4c-3.9,6.8-12.6,9.1-19.4,5.2c-2.8-1.6-4.8-4-6-6.7l-0.1-0.2l-0.2,0l-21.7,5.3
		l-0.2,0.1l0.1,0.2c1.7,6,1.1,12.6-2.3,18.3c-1.9,3.3-4.5,6-7.6,8l-0.1,0.1l0,0.2l6.4,21.9l0.1,0.2l0.2,0
		C53.1,182.1,57,182.7,60.4,184.7z M97.9,128.8c3.2-5.6,1.3-12.7-4.3-15.9c-5.6-3.2-12.7-1.3-15.9,4.3c-3.2,5.6-1.3,12.7,4.3,15.9
		C87.5,136.2,94.6,134.3,97.9,128.8z M26.5,61.4c-6-3.5-13.7-1.4-17.2,4.6c-3.5,6-1.4,13.7,4.6,17.2c6,3.5,13.7,1.4,17.2-4.6
		C34.5,72.6,32.5,64.8,26.5,61.4z M-39,188.4c9.3,5.4,21.2,2.2,26.6-7.1c5.4-9.3,2.2-21.2-7.1-26.6c-9.3-5.4-21.2-2.2-26.6,7.1
		C-51.5,171.1-48.3,183-39,188.4z M11.5,129.8c-5.8,10.1-2.4,23.1,7.7,28.9c10.1,5.8,23.1,2.4,28.9-7.7c5.8-10.1,2.4-23.1-7.7-28.9
		C30.3,116.3,17.3,119.7,11.5,129.8z M39.1,192.3c-4.1,7-1.6,16,5.4,20.1c7,4.1,16,1.6,20.1-5.4c4.1-7,1.6-16-5.4-20.1
		C52.1,182.9,43.1,185.3,39.1,192.3z"/>
</g>
<g>
	<path class="st0" d="M67.6,385.1 M67.6,385.1 M67.6,385.1 M67.7,385.1c6-8,9.7-18.3,10.5-28.3l0.1-1.3h-1.4h-6.5
		c-1.5,0-2.7-1.2-2.7-2.7c0-1.5,1.2-2.7,2.7-2.7H77h1.3l-0.1-1.3c-0.8-11.1-5.2-21.6-12.5-30l-0.9-1l-1,0.9l-4.6,4.5l0,0
		c-0.5,0.5-1.2,0.8-1.9,0.8c-0.7,0-1.4-0.3-1.9-0.8c-1-1-1-2.7,0-3.8l0,0l4.5-4.6l0.9-1l-1-0.9c-8.4-7.3-19-11.7-30.1-12.5l-1.3-0.1
		v1.3v6.5c0,1.5-1.2,2.7-2.7,2.7s-2.7-1.2-2.7-2.7v-6.5v-1.3l-1.3,0.1c-11.1,0.8-21.7,5.2-30.1,12.5l-1,0.9l1,0.9l4.6,4.5
		c1,1,1,2.7,0,3.7c-0.5,0.5-1.2,0.8-1.9,0.8c-0.7,0-1.4-0.3-1.9-0.8h0l0,0l-4.6-4.5l-1-0.9l-0.9,1c-7.3,8.4-11.6,19-12.5,30.1
		l-0.1,1.3h1.3h6.6c1.5,0,2.7,1.2,2.7,2.7c0,1.5-1.2,2.7-2.7,2.7h-6.6h-1.4l0.1,1.3c0.8,10.1,4.5,19.8,10.7,27.9l0.4,0.5h0.6H8.1h1
		l0.2-1c1.2-5.4,5-9.9,10.1-12.1c5.1-2.1,11-1.6,15.7,1.4L36,374l0.7-0.7L59,351l0,0c0.5-0.5,1.2-0.8,1.9-0.8c0.7,0,1.4,0.3,1.9,0.8
		c1,1,1,2.7,0,3.8c0,0,0,0,0,0L40.5,377l-0.7,0.7l0.5,0.8c1.1,1.7,1.9,3.6,2.3,5.5l0.2,1h1H67.7L67.7,385.1z M83.8,352.8L83.8,352.8
		c-0.1,13.4-4.8,26.3-13.2,36.6c-0.4,0.4-0.8,0.7-1.4,0.9l0,0l0,0c-0.2,0.1-0.4,0.1-0.6,0.1c0,0,0,0,0,0H43.8h-1l-0.2,1
		c-3.9,17.6-29.4,17.7-33.3,0l-0.2-1h-1h-24.7h-0.1l-0.1,0c-0.2,0-0.4,0-0.6,0c-0.5-0.2-1-0.5-1.3-0.9
		c-9.1-11.1-13.8-25.1-13.2-39.4l-1.2-0.1l1.2,0.1c0.7-14.3,6.7-27.9,16.8-38l0.2-0.2l0,0l0,0c21.5-22.3,60-22.3,81.5,0l0,0l0,0
		l0.2,0.2c5.4,5.3,9.6,11.7,12.5,18.7v0C82.3,337.7,83.8,345.2,83.8,352.8z M14.3,387.9L14.3,387.9c0,3.1,1.3,6,3.4,8.1
		c3.5,3.6,8.6,4.1,12.7,2.4c4.1-1.6,7.4-5.5,7.3-10.6v-0.2v0l0,0c-0.1-3.7-1.6-6.6-3.8-8.6c-2.2-1.9-5.1-2.9-7.9-2.9
		c-2.8,0-5.7,0.9-7.9,2.9c-2.2,1.9-3.7,4.8-3.8,8.6l0,0v0L14.3,387.9z"/>
</g>
</svg>
