<?xml version="1.0" encoding="utf-8"?>
<!-- Generator: Adobe Illustrator 25.2.1, SVG Export Plug-In . SVG Version: 6.00 Build 0)  -->
<svg version="1.1" id="Layer_1" xmlns="http://www.w3.org/2000/svg" xmlns:xlink="http://www.w3.org/1999/xlink" x="0px" y="0px"
	 width="137.6px" height="436px" viewBox="0 0 137.6 436" style="enable-background:new 0 0 137.6 436;" xml:space="preserve">
<style type="text/css">
	.st0{fill:none;stroke:#497FEA;stroke-width:3;}
	.st1{fill:#497FEA;}
	.st2{clip-path:url(#SVGID_2_);}
	.st3{fill:none;stroke:#497FEA;stroke-width:3;stroke-linecap:round;stroke-linejoin:round;}
</style>
<g>
	<path class="st0" d="M-16.9,281.1l88.2-20.9c4.6-1.1,9.1,1.7,10.2,6.3l25,105.4c1.1,4.6-1.7,9.1-6.3,10.2L12,403.1
		c-4.6,1.1-9.1-1.7-10.2-6.3l-25-105.4C-24.3,286.7-21.5,282.2-16.9,281.1z"/>
	<circle class="st1" cx="-1.9" cy="325.4" r="3.4"/>
	<circle class="st1" cx="5.5" cy="356.7" r="3.4"/>
	<circle class="st1" cx="12.9" cy="387.9" r="3.4"/>
	<circle class="st1" cx="2.2" cy="291.5" r="3.4"/>
	<circle class="st1" cx="9.6" cy="322.7" r="3.4"/>
	<circle class="st1" cx="17" cy="353.9" r="3.4"/>
	<circle class="st1" cx="24.4" cy="385.2" r="3.4"/>
	<circle class="st1" cx="13.7" cy="288.8" r="3.4"/>
	<circle class="st1" cx="21.1" cy="320" r="3.4"/>
	<circle class="st1" cx="28.5" cy="351.2" r="3.4"/>
	<circle class="st1" cx="35.9" cy="382.4" r="3.4"/>
	<line class="st0" x1="-18.3" y1="311.3" x2="86.1" y2="286.5"/>
	<line class="st0" x1="-10.9" y1="342.5" x2="93.5" y2="317.8"/>
	<line class="st0" x1="-3.5" y1="373.8" x2="100.9" y2="349"/>
</g>
<g>
	<g>
		<defs>
			
				<rect id="SVGID_1_" x="-19.5" y="42.9" transform="matrix(0.2588 -0.9659 0.9659 0.2588 -73.7285 148.6883)" width="159" height="159"/>
		</defs>
		<clipPath id="SVGID_2_">
			<use xlink:href="#SVGID_1_"  style="overflow:visible;"/>
		</clipPath>
		<g class="st2">
			<path class="st3" d="M126.6,78.5L24.3,51.1C17.2,49.2,9.9,53.4,8,60.4l-17.1,64c-1.9,7.1,2.3,14.3,9.4,16.2l102.4,27.4
				c7.1,1.9,14.3-2.3,16.2-9.4l17.1-64C137.9,87.7,133.7,80.4,126.6,78.5z"/>
			<path class="st3" d="M19,173.1l51.2,13.7"/>
			<path class="st3" d="M51.4,154.4L44.6,180"/>
		</g>
	</g>
</g>
</svg>
