<?xml version="1.0" encoding="utf-8"?>
<!-- Generator: Adobe Illustrator 25.2.1, SVG Export Plug-In . SVG Version: 6.00 Build 0)  -->
<svg version="1.1" id="Layer_1" xmlns="http://www.w3.org/2000/svg" xmlns:xlink="http://www.w3.org/1999/xlink" x="0px" y="0px"
	 width="155.5px" height="436px" viewBox="0 0 155.5 436" style="enable-background:new 0 0 155.5 436;" xml:space="preserve">
<style type="text/css">
	.st0{fill:#497FEA;}
	.st1{clip-path:url(#SVGID_2_);}
	.st2{fill:#6691E7;}
	.st3{fill:#FFFFFF;}
	.st4{fill:#5184CE;}
	.st5{fill:#8A8A8A;}
	.st6{opacity:0.3;fill:#184655;enable-background:new    ;}
	.st7{fill:#DBDBDB;}
	.st8{fill:#184655;}
	.st9{fill:#CCE6FF;}
	.st10{fill:#E9FFFF;}
	.st11{opacity:0.6;fill:#9BC1F9;enable-background:new    ;}
	.st12{opacity:0.3;fill:#9BC1F9;enable-background:new    ;}
	.st13{fill:#13375B;}
	.st14{fill:#355389;}
	.st15{fill:#9BC1F9;}
	.st16{fill:#F47458;}
	.st17{fill:#5076C1;}
	.st18{fill:#F7A491;}
	.st19{fill:#E0973F;}
	.st20{fill:#DD513A;}
	.st21{fill:#F7CC7F;}
	.st22{fill:#0E2E35;}
	.st23{fill:#F38B80;}
	.st24{opacity:0.5;fill:#F47458;enable-background:new    ;}
	.st25{fill:#F48C7F;}
	.st26{fill:#50BFA5;}
	.st27{fill:#96D9C9;}
	.st28{opacity:0.6;fill:#C5DDF9;enable-background:new    ;}
	.st29{opacity:0.5;fill:#50BFA5;enable-background:new    ;}
	.st30{fill:#F8A492;}
	.st31{fill:none;stroke:#497FEA;stroke-width:3;stroke-miterlimit:10;}
</style>
<g>
	<path class="st0" d="M66.6,172.2L66.6,172.2c8.7,5,11.7,16.2,6.7,24.9c-5,8.7-16.2,11.7-24.9,6.7c-8.7-5-11.7-16.2-6.7-24.9
		c2.3-4.1,6-6.8,10.1-8.2l0.2-0.1l-0.1-0.2l-6.5-22.3l-0.1-0.3l-0.3,0.1c-7.2,3.5-16,3.4-23.4-0.9c-4-2.3-7-5.5-9.2-9.2l-0.1-0.2
		l-0.2,0.1l-19.4,10l-0.2,0.1l0.1,0.2c3.2,6.7,3.2,14.9-0.8,21.8c-6.4,11.1-20.7,14.9-31.8,8.5c-11.1-6.4-14.9-20.7-8.5-31.8
		c6.4-11.1,20.7-14.9,31.8-8.5c3.2,1.9,5.8,4.4,7.7,7.3l0.1,0.2l0.2-0.1l19.5-10.1l0.2-0.1l-0.1-0.2c-2.9-7-2.7-15.2,1.4-22.2
		c3.6-6.2,9.4-10.2,15.8-11.8l0.2-0.1l0-0.2l-5.6-31.3l0-0.2l-0.2,0C20.3,69,18,68.4,16,67.2c-7.7-4.4-10.3-14.3-5.9-21.9
		c4.4-7.7,14.3-10.3,21.9-5.9c7.7,4.4,10.3,14.3,5.9,21.9c-2.6,4.6-7.2,7.4-12.1,7.9l-0.3,0l0,0.3l5.5,30.8l0,0.2l0.2,0
		c5.2-0.6,10.5,0.4,15.4,3.2c4.9,2.8,8.4,7,10.5,11.9l0.1,0.2l0.2-0.1l23.1-5.6l0.2-0.1l0-0.2c-0.7-3.4-0.2-7.1,1.7-10.4
		c4.1-7.2,13.4-9.6,20.5-5.5c7.2,4.1,9.6,13.4,5.5,20.5c-4.1,7.2-13.4,9.6-20.5,5.5c-2.9-1.7-5.1-4.2-6.3-7.1l-0.1-0.2l-0.2,0.1
		l-22.9,5.6l-0.3,0.1l0.1,0.2c1.8,6.3,1.1,13.3-2.4,19.4c-2,3.5-4.8,6.3-8,8.4l-0.2,0.1l0.1,0.2l6.8,23.2l0.1,0.2l0.2,0
		C58.8,169.4,62.9,170.1,66.6,172.2z M106.1,113c3.4-5.9,1.4-13.4-4.5-16.8c-5.9-3.4-13.4-1.4-16.8,4.5c-3.4,5.9-1.4,13.4,4.5,16.8
		C95.2,120.9,102.8,118.9,106.1,113z M30.6,41.7c-6.4-3.7-14.5-1.5-18.2,4.9C8.8,53,11,61.1,17.3,64.8c6.4,3.7,14.5,1.5,18.2-4.9
		C39.2,53.6,37,45.4,30.6,41.7z M-38.6,176.1c9.8,5.7,22.4,2.3,28.1-7.5c5.7-9.8,2.3-22.4-7.5-28.1c-9.8-5.7-22.4-2.3-28.1,7.5
		C-51.8,157.8-48.4,170.4-38.6,176.1z M14.8,114.1c-6.2,10.7-2.5,24.4,8.2,30.6c10.7,6.2,24.4,2.5,30.6-8.2
		c6.2-10.7,2.5-24.4-8.2-30.6C34.7,99.8,21,103.5,14.8,114.1z M44,180.2c-4.3,7.4-1.7,16.9,5.7,21.2c7.4,4.3,16.9,1.7,21.2-5.7
		c4.3-7.4,1.7-16.9-5.7-21.2C57.8,170.3,48.3,172.8,44,180.2z"/>
</g>
<g>
	<circle class="st31" cx="34" cy="325.2" r="50.1"/>
	<polyline class="st31" points="9.6,369 4.6,410.8 23.9,396.8 37.9,415.4 42.8,374.6 	"/>
	<polyline class="st31" points="50.7,372.5 73.1,405.6 78.8,382.9 101,385.4 78.3,348.7 	"/>
	<polygon class="st31" points="24,297.7 38.5,310.6 57.4,305.9 49.6,323.7 59.9,340.2 40.6,338.4 28.1,353.2 23.9,334.3 5.9,327 
		22.6,317.1 	"/>
</g>
</svg>
