<?xml version="1.0" encoding="utf-8"?>
<!-- Generator: Adobe Illustrator 25.2.1, SVG Export Plug-In . SVG Version: 6.00 Build 0)  -->
<svg version="1.1" id="Layer_1" xmlns="http://www.w3.org/2000/svg" xmlns:xlink="http://www.w3.org/1999/xlink" x="0px" y="0px"
	 width="502.1px" height="436px" viewBox="0 0 502.1 436" style="enable-background:new 0 0 502.1 436;" xml:space="preserve">
<style type="text/css">
	.st0{fill:#6691E7;}
	.st1{fill:#239D4C;}
	.st2{fill:#FFA982;}
	.st3{fill:#ECF2FF;}
	.st4{fill:#FFFFFF;}
	.st5{fill:#F9AA4B;}
	.st6{fill:#020202;}
	.st7{fill:#65B5B7;}
	.st8{fill:#DEEBE9;}
	.st9{fill:#F18C7E;}
	.st10{fill:#060633;}
	.st11{fill:#FF6757;}
	.st12{opacity:0.3;}
	.st13{opacity:0.3;fill:#FFFFFF;enable-background:new    ;}
</style>
<g>
	<path class="st0" d="M383.1,407.7c29.1-29.1,29.1-76.4,0-105.5c-29.1-29.1-76.4-29.1-105.5,0c-29.1,29.1-29.1,76.4,0,105.5
		C306.7,436.9,353.9,436.9,383.1,407.7z"/>
	<path class="st1" d="M337,280.7c0.3,0.2,0.6,0.4,1,0.6c0-0.2,15.7,4.8,17.3,5.5c4.7,2.1,7.5,2.9,2.4,4.5
		c2.2-0.7,7.2,12.9,10.8,12.4c3.4-0.6,4.4,3.3,5.3,6c0.5,1.4,2,2.2,1.4,3.9c-0.2,0.5-2.6,1.6-2.4,2c1,2,5.7,2.2,5.7,5.1
		c-0.4,0.7-1.1,1.1-2.1,1c-2.2,0.9-0.1,2.6,0.3,4c1,3.3,4.1,6.2,6.4,2.5c2.3-3.7-2.9-7.4,0.2-11.2c1.9-2.2,6.8,1.8,5.6-2.5
		c-0.3-1.2-5.5-6.7-2.6-7.4c0.1,0,0.2-0.3,0.3-0.8c-8.5-9.8-19.7-17.5-32.8-21.9C348.2,282.3,342.6,281.2,337,280.7z"/>
	<path class="st1" d="M396.7,321c-0.4-0.7-4.1,3.4-4.8,3.8c-2.8,1.5-3.4-1.5-5.8,1.7c-0.4,0.6-4.6,6.2-4.7,5.6
		c0.1,2.1-0.8,4.2,0.2,6.2c0.9,1.8-1.2,3.4-1.1,5.3c0.2,2.5-2.1,4.2-1.5,6.7c0.5,2.2,1.8,3.7,1.8,6c0,3.6-0.7,5.3,2.3,7.9
		c1.9,1.7,4.3,7.5,7.6,4.2c0.6-0.6,6.7-5.5,6.3-5.8c2.2,2.3,0.3,0.8,3.3,0.6c0.8,0-0.6,21-1.9,20.5c0.2,0.1,0.4,0.1,0.7-0.1
		c0.7-1.7,1.3-3.4,1.9-5.1C407.7,358.7,405.5,338.2,396.7,321z"/>
	<path class="st1" d="M361.8,390.8c0-2.2-4-4.2-6.2-4.1c-4.7,0.2-5.9-1.3-10.3-2.4c-3.6-0.9-3.1-7.1-8.6-7.4
		c-2.9-0.1-8.5-8.2-11.4-5.8c-1.9,1.6-5.6-2.7-6.9-2.7c-3,0-0.6,1.7-2.5-0.5c-1.3-1.5-4.8,1.6-5.5,2.5c-1.4,1.7-7.7-0.8-8.7-3.3
		c-0.3-0.9,1.7-4.3,0.2-6.8c-0.6-1-4.7-0.3-5.4-0.9c-0.9-0.8,2.2-3.9,1.9-4.6c-1.5-2.7-6.2,4.1-8.3-1.4c-1.7-4.4,0.5-6.1,1-10.3
		c0.2-2,3.6-3,5.3-2.3c2.7,1.2,2.3,0.1,4.3-0.1c1.6-0.2,3.3,1.6,4.8,1.9c1.8,0.3,0.6,5.4,2.3,6.6c1,0.7,1-6.8,1-7
		c1.1-3,5.8-2.8,6.5-5.3c1.9-6.3,6.1-5.8,11.3-8.1c2.5-1.1,8.6-2.3,10.1-4.7c2.9-4.5-4.7-11.2-6.7-14.4c0,0-1.7,1.9-2.1,2
		c-1.5,0.1-2.8-8.2-5.6-3.4c-0.5,0.9-2.6,1.2-1.4,2.5c2.2,2.6-2.1,3.2-3.4,2.9c-1.4-0.4-8.1-4.3-5.7-6.4c4.8-4.4,5.9-2.1,10.9-2.2
		c5.7,0,5.9,5.4,10.7-0.4c1.3-1.6-7.3-6.1-5.6-8.2c6-7.2,9.3,8.7,11.5,11.5c3.3,4,5.4,1.9,5.1-2.5c-0.1-2.1,4.3-4,4.6-6.3
		c0.1-0.5-2.9-4.6-3.3-4.9c-1.5-1-1.9-2-2.7-3c-1-1.3-2.6,0.6-3.5-0.5c-0.4-0.5-7.9-0.2-8.7-0.2c-3.9-0.1-8.4,0-12.4,0
		c-1.6-0.1-10.3,4.2-10.5,0.7c-0.1-1.7,1.9-4.7-1.7-3.3c-1.2,0.4-1.9-0.2-1.7-0.3c-2.5,0.5-7.3,2.3-9.3,4.1c-1.1,1,1.6,1.5,1.8,2.3
		c0.4,1.7-3.9,4.8-4.8,5.9c-3.4,3.9-3.2,9-7.7,12.7c-5.2,4.3-5.5,10.7-5.5,16.6c0,2.9-2.5,4.1-0.9,7.4c1.3,2.8,3.8,4.1,4.2,7.5
		c0.3,2.2-1.5,4.3-0.6,6.5c1,2.7,3,5,5.4,6.3c5.2,2.7,8.5,4.7,11.8,9.7c4.1,6.1,11.4,3.5,9,9.7c-1,2.6-3.6,3.9-4.6,6.7
		c-1.3,3.4,1.2,5.8,2.7,8.5c1.6,2.7,2.2,6,4.9,7.9c2,1.3,5.6,2.4,6.1,5.2c0.8,4.3-2.8,9.7-2.5,13.7c0.3,2.7,0.3,5.4,2.6,7.1
		c4.2,3.1,3.2-1.2,5.8-3.3c2.4-1.9,5.3-1.4,8.1-2.1c2.5-0.7-0.5-1.6,0.5-2.2c2.2-1.2,3.5,0.6,5.6-1.3c1.9-1.7,4.5-2.2,5.3-4.9
		c1.5-4.4,8-2.8,10.8-6.1c1.7-2.1,2.4-4.3,3.2-6.8C357.2,395.6,361.7,394.2,361.8,390.8C361.8,388.6,361.8,393.1,361.8,390.8z"/>
	<path class="st2" d="M316.1,256c-0.9,1.5-9.6,14.9-7.8,28l9.5-3.4l4.3-17.7L316.1,256z"/>
	<path class="st3" d="M354.1,250.5c0,0-5.8-10.4-20.1-7.5c-14.2,2.9-22,23-18.1,62.9c0,0,22.6-8.9,52-1.7
		C367.9,304.2,363,265.5,354.1,250.5z"/>
	<path class="st3" d="M364.9,246.3l-10,9.9c0,0-25.6,6.8-32.7,6.8c-7.1-0.1-9.9-5.2-9.9-5.2s6-9.4,18.2-13.7
		c1.1-0.4,2.3-0.8,3.6-1.1c2.1-0.5,4.2-0.8,6.3-0.9C352.9,241.3,364.9,246.3,364.9,246.3z"/>
	<path class="st4" d="M364.9,246.3c1.6,1.7-0.9,3.6-3.6,6.3c-2.8,2.7-5.6,4.3-6.4,3.6c-0.8-0.8,0.9-3.6,3.6-6.3
		C361.3,247.1,364.2,245.5,364.9,246.3z"/>
	<path class="st2" d="M356.3,256.2c0,0-0.1-2,2.3-4.5c1.5-1.5,3.4-2.5,4.7-3.1c0.8-0.3,1.6,0,1.9,0.8l0.8,2l-3.7,2.4L356.3,256.2z"
		/>
	<path class="st5" d="M338.6,292.8c0,0,30.8-16.5,41.9,1.5c8.2,13.4-4.1,25.8-49.7,24.5c0,0-4.5-2.1-3.4-12.9
		C327.8,301.6,338.6,292.8,338.6,292.8z"/>
	<path class="st5" d="M338.6,292.8c0,0-41.1-16.7-49.2-6.2c-9.3,12-0.4,32.3,42.9,25l5.3-5.7L338.6,292.8z"/>
	<path class="st4" d="M327.1,308.9c0,0-7.6,0.3-11.1,2c-3.6,1.7-1.7,5.9,5.6,5.8c7.2-0.1,6.7-1.2,6.7-1.2S326.8,311.9,327.1,308.9z"
		/>
	<path class="st6" d="M330.7,318.9c-5.1-3.6-3.5-12.9-3.4-13v-0.1l0.1,0l31.2-11.2l0.1,0.2L327.4,306c-0.1,0.7-1.4,9.4,3.4,12.8
		L330.7,318.9z"/>
	<path class="st2" d="M336.8,293.6c-2.5,0-4.6-0.6-6.2-1.9c-3.2-2.3-3.7-6.1-3.3-8.6l3-1.7c0.1-0.8,6,2.2,6,2.2c0,0,2.8,0.8,12.3-4
		c6.6-3.4,10-8.1,10.2-14.6c0.2-4.9-2-7.6-2.5-8.8c-0.1-0.2,3.2-3.4,3.1-3.7l2.5-1.2c-0.1-0.3,2.4-1.2,2.3-1.3l1.9,1.6
		c0.9,2.2,2.9,7.1,2.7,13.8c-0.3,7-3.2,16.8-15.7,23.1C346.2,291.9,340.9,293.6,336.8,293.6z"/>
	<path class="st7" d="M334.7,294h-26.6c-0.6,0-1.1-0.4-1.2-0.9l-5.5-16.4c-0.3-0.8,0.3-1.7,1.2-1.7h25.6c1.2,0,2.2,0.7,2.6,1.8
		l5.2,15.4C336.2,293.1,335.6,294,334.7,294z"/>
	<path class="st7" d="M333.1,294h-26.6c-0.6,0-1.1-0.4-1.2-0.9l-5.5-16.4c-0.3-0.8,0.3-1.7,1.2-1.7h25.6c1.2,0,2.2,0.7,2.6,1.8
		l5.2,15.4C334.6,293.1,334,294,333.1,294z"/>
	<path class="st8" d="M314.4,284c0-0.6,0.7-0.9,1.4-0.9c0.6,0,1.7,0.7,1.6,1.6c0,0.9-0.8,1.1-1.4,1.1
		C315.4,285.7,314.4,284.8,314.4,284z"/>
	<path class="st7" d="M342.9,291.7h-36.4v2.3h37.2c0.4,0,0.8-0.3,0.8-0.8C344.4,292.4,343.7,291.7,342.9,291.7z"/>
	<path class="st4" d="M331.2,283.4c0-0.1-1.3-4.9-2.2-6.4c-0.8-1.5-1.9-1.8-1.9-1.8l0.1-0.2c0,0,1.1,0.3,2,1.9
		c0.9,1.5,2.1,6.2,2.2,6.4L331.2,283.4z"/>
	<path class="st4" d="M335.1,291.8c-1,0-1.2-0.4-1.2-0.4v0l-2.1-6.1l0.2-0.1l2.1,6.1c0,0,0.3,0.4,1.1,0.4L335.1,291.8L335.1,291.8z"
		/>
	<path class="st9" d="M360.7,279.4c-0.2,0-0.3,0-0.4-0.1c-0.6-0.4-0.6-1.6,0-2.8c0.3-0.5,0.7-1,1.1-1.3c0.5-0.3,0.9-0.3,1.2-0.2
		c0.6,0.4,0.6,1.6,0,2.8C362.1,278.8,361.3,279.4,360.7,279.4z M362.2,275.4c-0.2,0-0.4,0.1-0.6,0.2c-0.4,0.2-0.8,0.6-1,1.1
		c-0.6,1-0.6,2-0.2,2.3c0.5,0.3,1.3-0.3,1.9-1.3s0.6-2,0.2-2.3C362.4,275.4,362.3,275.4,362.2,275.4z"/>
	<path class="st2" d="M340.6,242c-1.8-0.1-3.1-0.2-4.1-1.4l-3.1-3.6l-0.9-1.1l-5.3-6.2l2.8,7.3l1.7,4.4l0.5,1.4
		c0.4,0.9-0.1,1.4-0.4,2.5c-0.1,0.4-1.1,3.2,1.3,3.2C336,248.4,339.8,245,340.6,242C340.6,242,340.6,242,340.6,242z"/>
	<path d="M334.3,234.7c0,0,5.9-5.6,2.5-10.3c-3.4-4.7-4.2,7.6-4.2,7.6l1,2.8L334.3,234.7z"/>
	<path class="st4" d="M333.4,236.9c0,0,0,0.1,0,0.1c0.5,2.5-1.7,4.4-1.7,4.4h0L330,237c0.7-0.5,1.8-1.2,2.5-1.1
		C332.9,236,333.2,236.3,333.4,236.9z"/>
	<path class="st2" d="M321,233.8c-1.3-4.4,0.5-8.8,4.2-9.9c3.6-1.1,7.6,1.5,8.9,5.9c1.3,4.4-0.5,8.8-4.2,9.9
		C326.3,240.8,322.3,238.2,321,233.8z"/>
	<path d="M332.8,229.2c0,0-1.9,1.3-3.4,0.2s-2.7-2.2-6.2-0.5c-3.5,1.7-7.4,1-8-1c-0.7-2,1-3.5,3.2-3.4c2.2,0.1-0.5-1.1,1.1-3.2
		c1.5-2.1,5.4,0.1,7.4-1c1.9-1,8.8-1.9,10,3.9L332.8,229.2z"/>
	<path class="st2" d="M334.3,230.4c-0.4,0.7-1.3,0.9-1.9,0.5c-0.6-0.4-0.8-1.3-0.3-2c0.4-0.7,1.3-0.9,1.9-0.5
		C334.6,228.8,334.7,229.7,334.3,230.4z"/>
	<path class="st4" d="M319,227.3c-0.1,0-0.3,0-0.4,0c-0.8-0.2-1-0.6-0.9-0.9c0.1-0.4,0.5-0.7,1.2-0.6c1,0.1,1.6-0.3,1.6-0.3l0.1,0.2
		c0,0-0.6,0.4-1.8,0.3c-0.5-0.1-0.9,0.2-0.9,0.4c-0.1,0.3,0.3,0.5,0.8,0.6c1.3,0.3,3.7-1.7,3.7-1.8l0.2,0.2
		C322.5,225.5,320.5,227.3,319,227.3z"/>
	<path class="st4" d="M325.1,222.4c-1.4,0-2.7-0.6-2.8-0.7l0.2-0.2l-0.1,0.1l0.1-0.1c0.1,0.1,2.2,1.1,4,0.4c0.6-0.2,1.1-0.5,1.6-0.8
		c1-0.5,1.9-1,3-0.8l-0.1,0.3c-0.9-0.2-1.8,0.3-2.8,0.8c-0.5,0.3-1,0.5-1.6,0.8C326.1,222.3,325.6,222.4,325.1,222.4z"/>
	<path class="st4" d="M335,224.1c-0.4,0-1.1-0.6-1.3-1c-0.1-0.3,0-0.4,0.1-0.4c0.5-0.3,1.3,0.7,1.4,0.9l0,0v0
		c0.1,0.3-0.1,0.4-0.1,0.4C335,224.1,335,224.1,335,224.1z M334,222.9C334,222.9,334,222.9,334,222.9c-0.1,0-0.1,0.2,0.2,0.4
		c0.3,0.3,0.7,0.5,0.8,0.5c0,0,0,0,0-0.1C334.7,223.3,334.3,222.9,334,222.9z"/>
	<path class="st4" d="M375.4,304.7c-0.5,0-1-0.1-1.4-0.4c-0.8-0.4-1.3-1.2-1.4-2.1c-0.2-0.9,0-1.9,0.5-2.7c1-1.8,3.1-2.5,4.7-1.6
		c1.5,0.9,2,3.1,0.9,4.9c-0.5,0.9-1.3,1.5-2.1,1.8C376.1,304.6,375.7,304.7,375.4,304.7z M376.2,297.8c-1.1,0-2.3,0.7-2.9,1.8
		c-0.4,0.8-0.6,1.7-0.5,2.5c0.2,0.8,0.6,1.5,1.3,1.9c0.7,0.4,1.5,0.4,2.3,0.2c0.8-0.3,1.5-0.9,1.9-1.7c0.9-1.6,0.6-3.6-0.8-4.4
		C377.1,297.9,376.7,297.8,376.2,297.8z"/>
	<path class="st10" d="M326.2,232.1c0,0-0.1,0-0.1-0.1c0-0.1,0-0.1,0.1-0.2c0,0,0.9-0.6,1.8,0.2c0.1,0.1,0.1,0.1,0,0.2
		c-0.1,0.1-0.1,0.1-0.2,0C327.1,231.8,326.3,232,326.2,232.1C326.2,232.1,326.2,232.1,326.2,232.1z"/>
	<path class="st10" d="M327.5,233.4c0.1,0.3-0.1,0.6-0.3,0.7c-0.2,0-0.5-0.2-0.5-0.5c-0.1-0.3,0.1-0.6,0.3-0.7
		C327.2,232.9,327.4,233.1,327.5,233.4z"/>
	<path class="st10" d="M321.3,233.8C321.3,233.8,321.3,233.8,321.3,233.8c-0.1-0.1-0.1-0.2-0.1-0.2c0,0,0.4-0.9,1.4-0.4
		c0.1,0,0.1,0.1,0.1,0.2c0,0.1-0.1,0.1-0.1,0.1C321.9,233.3,321.4,233.8,321.3,233.8C321.4,233.8,321.3,233.8,321.3,233.8z"/>
	<path class="st10" d="M323.1,234.6c0.2,0.3,0.1,0.6-0.1,0.7c-0.2,0.1-0.5,0-0.7-0.3c-0.2-0.3-0.1-0.6,0.1-0.7
		C322.6,234.2,322.9,234.3,323.1,234.6z"/>
	<path class="st6" d="M327.1,238.1c-0.5,0-0.8-0.1-0.8-0.1c-0.1,0-0.1-0.1-0.1-0.1c0-0.1,0.1-0.1,0.1-0.1c0.1,0,2.3,0.6,3.5-1.4
		c0-0.1,0.1-0.1,0.1,0c0.1,0,0.1,0.1,0,0.1C329.1,237.8,327.9,238.1,327.1,238.1z"/>
	<path class="st6" d="M330.1,236.8C330,236.8,330,236.8,330.1,236.8c-0.1-0.2-0.3-0.4-0.6-0.6c0,0,0,0,0,0c0,0-0.1-0.1,0-0.1
		c0,0,0.1-0.1,0.1,0l0,0c0.3,0.2,0.6,0.4,0.6,0.7C330.2,236.8,330.1,236.8,330.1,236.8C330.1,236.8,330.1,236.8,330.1,236.8z"/>
	<path class="st4" d="M331.7,251.7l0-0.4c7.6-0.2,10.4-6.8,10.4-6.8l0.4,0.2c0,0.1-0.7,1.7-2.4,3.5
		C338.6,249.6,335.9,251.5,331.7,251.7z"/>
	<path class="st4" d="M335.4,255.3l-0.2-0.4c0,0,3.9-2.5,4.4-6.9l0.4,0.1C339.5,252.7,335.4,255.3,335.4,255.3z"/>
	<path class="st4" d="M319.1,257.3l-1.6,4.7l0.4,0.1l1.6-4.7L319.1,257.3z"/>
	<path class="st11" d="M322.3,239.3c-0.1,0-0.2,0-0.3,0c-1-0.1-2.1-1-2.9-2.3c-1.2-2.1-1.3-4.8-0.1-5.9c0.4-0.4,1-0.6,1.6-0.5
		c1,0.1,2.1,1,2.9,2.3c1.2,2.1,1.3,4.8,0.1,5.9C323.2,239.1,322.8,239.3,322.3,239.3z M320.3,230.7c-0.4,0-0.8,0.2-1.1,0.5
		c-1.1,1.1-1,3.6,0.2,5.6c0.7,1.2,1.7,2,2.7,2.2c0.5,0.1,1-0.1,1.4-0.4c1.1-1.1,1-3.6-0.2-5.6c-0.7-1.2-1.7-2-2.7-2.2
		C320.5,230.7,320.4,230.7,320.3,230.7z"/>
	<g class="st12">
		<path class="st13" d="M330.5,229.7c1,2.1,0.7,4.7-0.6,5.7c-1.3,1.1-3.2,0.2-4.2-1.9c-1-2.1-0.7-4.7,0.6-5.7
			C327.5,226.7,329.4,227.6,330.5,229.7z"/>
	</g>
	<g class="st12">
		<path class="st13" d="M323.6,233c1,2.1,0.9,4.7-0.3,5.8c-1.2,1.1-2.9,0.2-3.9-1.9c-1-2.1-0.9-4.7,0.3-5.8
			C320.8,230,322.6,230.8,323.6,233z"/>
	</g>
	<path class="st11" d="M328.3,236c-0.2,0-0.4,0-0.6-0.1c-1.1-0.3-2-1.1-2.7-2.5c-1.1-2.3-0.8-5,0.7-6.2c0.6-0.5,1.3-0.6,2-0.4
		c1.1,0.3,2,1.1,2.7,2.5c1.1,2.3,0.8,5-0.7,6.2C329.4,235.8,328.9,236,328.3,236z M327.2,227c-0.5,0-0.9,0.1-1.3,0.4
		c-1.4,1.1-1.7,3.7-0.6,5.8c0.6,1.2,1.5,2.1,2.5,2.3c0.6,0.2,1.3,0,1.8-0.4c1.4-1.1,1.7-3.7,0.6-5.8c-0.6-1.2-1.5-2.1-2.5-2.3
		C327.6,227.1,327.4,227,327.2,227z"/>
	<path class="st11" d="M323.4,233.8c-0.1,0-0.1,0-0.2-0.1c-0.1-0.1-0.1-0.3-0.1-0.4c0,0,0.7-0.9,2.2-1c0.1,0,0.3,0.1,0.3,0.3
		c0,0.1-0.1,0.3-0.3,0.3c-1.2,0-1.8,0.7-1.8,0.8C323.6,233.8,323.5,233.8,323.4,233.8z"/>
	<path class="st4" d="M303.4,273.3c-0.1,0-0.2,0-0.2-0.1c-0.3-0.4-0.7-0.9-1.1-1.3c-0.1-0.1-0.1-0.3,0-0.4c0.1-0.1,0.3-0.1,0.4,0
		c0.4,0.4,0.7,0.9,1.1,1.3c0.1,0.1,0.1,0.3-0.1,0.4C303.6,273.3,303.5,273.3,303.4,273.3z"/>
	<path class="st4" d="M265.4,397.4c-0.1,0-0.3-0.1-0.3-0.3c0-0.2,0.1-0.3,0.3-0.3c1.1,0,2.2,0,3.3-0.1c0.1,0,0.3,0.1,0.3,0.3
		c0,0.2-0.1,0.3-0.3,0.3C267.6,397.4,266.5,397.4,265.4,397.4z M262.1,397.4c-1.1,0-2.2-0.1-3.3-0.1c-0.2,0-0.3-0.1-0.3-0.3
		c0-0.2,0.1-0.3,0.3-0.3c1.1,0.1,2.2,0.1,3.3,0.1c0.2,0,0.3,0.1,0.3,0.3C262.4,397.3,262.2,397.4,262.1,397.4z M272,397.1
		c-0.1,0-0.3-0.1-0.3-0.3c0-0.2,0.1-0.3,0.3-0.3c1.1-0.1,2.2-0.2,3.3-0.3c0.2,0,0.3,0.1,0.3,0.3c0,0.2-0.1,0.3-0.3,0.3
		C274.3,396.9,273.2,397,272,397.1C272.1,397.1,272,397.1,272,397.1z M255.5,397C255.5,397,255.5,397,255.5,397
		c-1.1-0.1-2.3-0.3-3.3-0.4c-0.1,0-0.3-0.2-0.2-0.3c0-0.1,0.2-0.3,0.3-0.2c1.1,0.2,2.2,0.3,3.3,0.4c0.2,0,0.3,0.1,0.3,0.3
		C255.8,396.9,255.6,397,255.5,397z M278.6,396.5c-0.1,0-0.3-0.1-0.3-0.3c0-0.1,0.1-0.3,0.2-0.3c1.1-0.1,2.2-0.3,3.3-0.5
		c0.1,0,0.3,0.1,0.3,0.2c0,0.1-0.1,0.3-0.2,0.3C280.9,396.2,279.7,396.3,278.6,396.5C278.7,396.5,278.6,396.5,278.6,396.5z
		 M248.9,396C248.9,396,248.9,396,248.9,396c-1.1-0.2-2.2-0.4-3.3-0.7c-0.1,0-0.2-0.2-0.2-0.3c0-0.1,0.2-0.2,0.3-0.2
		c1.1,0.3,2.1,0.5,3.2,0.7c0.1,0,0.3,0.2,0.2,0.3C249.2,395.9,249.1,396,248.9,396z M285.2,395.4c-0.1,0-0.3-0.1-0.3-0.2
		c0-0.1,0.1-0.3,0.2-0.3c1.1-0.2,2.2-0.4,3.2-0.6c0.1,0,0.3,0.1,0.3,0.2c0,0.1-0.1,0.3-0.2,0.3C287.4,395,286.3,395.2,285.2,395.4
		C285.2,395.4,285.2,395.4,285.2,395.4z M242.5,394.5C242.5,394.5,242.4,394.5,242.5,394.5c-1.1-0.3-2.2-0.7-3.2-1
		c-0.1-0.1-0.2-0.2-0.2-0.4c0.1-0.1,0.2-0.2,0.4-0.2c1,0.4,2.1,0.7,3.1,1c0.1,0,0.2,0.2,0.2,0.3
		C242.7,394.4,242.6,394.5,242.5,394.5z M291.7,394.1c-0.1,0-0.2-0.1-0.3-0.2c0-0.1,0.1-0.3,0.2-0.3c1.1-0.3,2.2-0.5,3.2-0.8
		c0.1,0,0.3,0.1,0.3,0.2c0,0.1-0.1,0.3-0.2,0.3C293.9,393.6,292.8,393.8,291.7,394.1C291.7,394.1,291.7,394.1,291.7,394.1z
		 M298.1,392.4c-0.1,0-0.2-0.1-0.3-0.2c0-0.1,0-0.3,0.2-0.3c1.1-0.3,2.1-0.6,3.2-0.9c0.1,0,0.3,0,0.3,0.2c0,0.1,0,0.3-0.2,0.3
		C300.3,391.8,299.2,392.1,298.1,392.4C298.1,392.4,298.1,392.4,298.1,392.4z M236.2,392.3c0,0-0.1,0-0.1,0c-1-0.4-2.1-0.9-3-1.3
		c-0.1-0.1-0.2-0.2-0.1-0.4c0.1-0.1,0.2-0.2,0.4-0.1c1,0.5,2,0.9,3,1.3c0.1,0.1,0.2,0.2,0.1,0.4
		C236.4,392.3,236.3,392.3,236.2,392.3z M304.4,390.5c-0.1,0-0.2-0.1-0.3-0.2c-0.1-0.1,0-0.3,0.2-0.4c1.1-0.4,2.1-0.7,3.1-1.1
		c0.1-0.1,0.3,0,0.4,0.2c0.1,0.1,0,0.3-0.2,0.4C306.6,389.8,305.6,390.1,304.4,390.5C304.5,390.5,304.4,390.5,304.4,390.5z
		 M230.3,389.5c-0.1,0-0.1,0-0.1,0c-1-0.5-1.9-1.1-2.9-1.7c-0.1-0.1-0.2-0.3-0.1-0.4c0.1-0.1,0.3-0.2,0.4-0.1
		c0.9,0.6,1.9,1.1,2.8,1.7c0.1,0.1,0.2,0.3,0.1,0.4C230.5,389.4,230.4,389.5,230.3,389.5z M224.7,386c-0.1,0-0.1,0-0.2-0.1
		c-0.9-0.6-1.8-1.3-2.6-2c-0.1-0.1-0.1-0.3,0-0.4c0.1-0.1,0.3-0.1,0.4,0c0.8,0.7,1.7,1.4,2.6,2c0.1,0.1,0.2,0.3,0.1,0.4
		C224.8,385.9,224.7,386,224.7,386z M219.5,381.8c-0.1,0-0.1,0-0.2-0.1c-0.2-0.2-0.4-0.4-0.6-0.6c-0.6-0.6-1.2-1.2-1.8-1.7
		c-0.1-0.1-0.1-0.3,0-0.4c0.1-0.1,0.3-0.1,0.4,0c0.6,0.6,1.1,1.2,1.7,1.7c0.2,0.2,0.4,0.4,0.6,0.6c0.1,0.1,0.1,0.3,0,0.4
		C219.7,381.8,219.6,381.8,219.5,381.8z M215,377c-0.1,0-0.2,0-0.2-0.1c-0.7-0.9-1.4-1.7-2.1-2.6c-0.1-0.1-0.1-0.3,0.1-0.4
		s0.3-0.1,0.4,0.1c0.6,0.9,1.3,1.7,2,2.6c0.1,0.1,0.1,0.3,0,0.4C215.1,377,215,377,215,377z M211.1,371.6c-0.1,0-0.2-0.1-0.2-0.1
		c-0.6-0.9-1.1-1.9-1.6-2.9c-0.1-0.1,0-0.3,0.1-0.4c0.1-0.1,0.3,0,0.4,0.1c0.5,1,1,1.9,1.6,2.9c0.1,0.1,0,0.3-0.1,0.4
		C211.2,371.6,211.1,371.6,211.1,371.6z M208.1,365.7c-0.1,0-0.2-0.1-0.3-0.2c-0.4-1-0.8-2.1-1.1-3.1c0-0.1,0-0.3,0.2-0.3
		c0.1,0,0.3,0,0.3,0.2c0.3,1,0.7,2.1,1.1,3.1C208.4,365.5,208.3,365.7,208.1,365.7C208.2,365.7,208.1,365.7,208.1,365.7z
		 M206.2,359.4c-0.1,0-0.3-0.1-0.3-0.2c-0.2-1.1-0.4-2.2-0.5-3.3c0-0.2,0.1-0.3,0.3-0.3c0.2,0,0.3,0.1,0.3,0.3
		c0.1,1.1,0.3,2.2,0.5,3.2C206.5,359.2,206.4,359.4,206.2,359.4C206.2,359.4,206.2,359.4,206.2,359.4z M205.5,352.8
		c-0.1,0-0.3-0.1-0.3-0.3c0-0.1,0-0.2,0-0.3c0-1,0-2,0.1-3c0-0.2,0.1-0.3,0.3-0.3c0.2,0,0.3,0.1,0.3,0.3c-0.1,1-0.1,2-0.1,3
		c0,0.1,0,0.2,0,0.3C205.8,352.7,205.6,352.8,205.5,352.8z M206.1,346.3C206,346.3,206,346.3,206.1,346.3c-0.2,0-0.3-0.2-0.3-0.3
		c0.2-1.1,0.4-2.2,0.7-3.2c0-0.1,0.2-0.2,0.3-0.2c0.1,0,0.2,0.2,0.2,0.3c-0.3,1.1-0.5,2.1-0.7,3.2
		C206.3,346.1,206.2,346.3,206.1,346.3z M229.5,346.2c-0.8,0-1.5-0.1-2.3-0.1c-0.1,0-0.3-0.2-0.2-0.3c0-0.2,0.2-0.3,0.3-0.2
		c1.1,0.1,2.2,0.2,3.2,0.1c0.2,0,0.3,0.1,0.3,0.3c0,0.2-0.1,0.3-0.3,0.3C230.2,346.2,229.9,346.2,229.5,346.2z M233.8,345.7
		c-0.1,0-0.2-0.1-0.3-0.2c0-0.1,0.1-0.3,0.2-0.3c1.1-0.3,2.1-0.7,3-1.2c0.1-0.1,0.3,0,0.4,0.1c0.1,0.1,0,0.3-0.1,0.4
		C236.1,345,235,345.4,233.8,345.7C233.9,345.7,233.9,345.7,233.8,345.7z M224,345.4C224,345.4,224,345.4,224,345.4
		c-1.1-0.3-2.2-0.8-3.2-1.3c-0.1-0.1-0.2-0.2-0.1-0.4c0.1-0.1,0.2-0.2,0.4-0.1c1,0.5,2,0.9,3,1.2c0.1,0.1,0.2,0.2,0.2,0.3
		C224.3,345.3,224.2,345.4,224,345.4z M239.6,342.6c-0.1,0-0.1,0-0.2-0.1c-0.1-0.1-0.1-0.3,0-0.4c0.8-0.8,1.5-1.6,2-2.5
		c0.1-0.1,0.3-0.2,0.4-0.1c0.1,0.1,0.2,0.3,0.1,0.4c-0.6,1-1.3,1.8-2.1,2.6C239.8,342.6,239.7,342.6,239.6,342.6z M218.1,342.5
		c-0.1,0-0.1,0-0.2-0.1c-0.9-0.6-1.8-1.4-2.6-2.2c-0.1-0.1-0.1-0.3,0-0.4c0.1-0.1,0.3-0.1,0.4,0c0.8,0.8,1.6,1.5,2.5,2.1
		c0.1,0.1,0.2,0.3,0.1,0.4C218.3,342.4,218.2,342.5,218.1,342.5z M207.8,339.9C207.8,339.9,207.7,339.9,207.8,339.9
		c-0.2-0.1-0.3-0.2-0.3-0.4c0.4-1,0.8-2.1,1.3-3.1c0.1-0.1,0.2-0.2,0.4-0.1c0.1,0.1,0.2,0.2,0.1,0.4c-0.5,1-0.9,2-1.3,3
		C208,339.8,207.9,339.9,207.8,339.9z M213.4,337.9c-0.1,0-0.2,0-0.2-0.1c-0.7-0.9-1.3-1.8-1.9-2.8c-0.1-0.1,0-0.3,0.1-0.4
		c0.1-0.1,0.3,0,0.4,0.1c0.6,1,1.2,1.9,1.8,2.7c0.1,0.1,0.1,0.3-0.1,0.4C213.5,337.8,213.5,337.9,213.4,337.9z M242.9,336.9
		C242.9,336.9,242.8,336.9,242.9,336.9c-0.2,0-0.3-0.2-0.3-0.3c0.2-0.8,0.3-1.6,0.3-2.4c0-0.3,0-0.5,0-0.8c0-0.2,0.1-0.3,0.3-0.3
		c0.2,0,0.3,0.1,0.3,0.3c0,0.3,0,0.6,0,0.8c0,0.9-0.1,1.7-0.3,2.5C243.1,336.9,243,336.9,242.9,336.9z M210.6,333.9
		c-0.1,0-0.1,0-0.1,0c-0.1-0.1-0.2-0.3-0.1-0.4c0.6-1,1.2-1.9,1.8-2.8c0.1-0.1,0.3-0.2,0.4-0.1c0.1,0.1,0.2,0.3,0.1,0.4
		c-0.6,0.9-1.2,1.8-1.8,2.8C210.8,333.8,210.7,333.9,210.6,333.9z M210,332.2c-0.1,0-0.2-0.1-0.3-0.2c-0.4-1-0.9-2-1.2-3.1
		c-0.1-0.1,0-0.3,0.2-0.4c0.1-0.1,0.3,0,0.4,0.2c0.4,1.1,0.8,2.1,1.2,3c0.1,0.1,0,0.3-0.1,0.4C210.1,332.2,210.1,332.2,210,332.2z
		 M242.5,330.4c-0.1,0-0.2-0.1-0.3-0.2c0-0.1-0.1-0.2-0.1-0.3c-0.3-1-0.6-1.9-1-2.7c-0.1-0.1,0-0.3,0.1-0.4c0.1-0.1,0.3,0,0.4,0.1
		c0.4,0.9,0.8,1.8,1.1,2.8c0,0.1,0.1,0.2,0.1,0.4C242.8,330.2,242.8,330.4,242.5,330.4C242.6,330.4,242.6,330.4,242.5,330.4z
		 M214.5,328.5c-0.1,0-0.1,0-0.2-0.1c-0.1-0.1-0.1-0.3,0-0.4c0.7-0.9,1.5-1.7,2.3-2.4c0.1-0.1,0.3-0.1,0.4,0c0.1,0.1,0.1,0.3,0,0.4
		c-0.8,0.7-1.5,1.5-2.3,2.4C214.6,328.5,214.6,328.5,214.5,328.5z M207.9,325.9c-0.1,0-0.2-0.1-0.3-0.2c-0.3-1.1-0.5-2.2-0.7-3.3
		c0-0.1,0.1-0.3,0.2-0.3c0.1,0,0.3,0.1,0.3,0.2c0.2,1.1,0.4,2.2,0.6,3.2C208.2,325.7,208.1,325.9,207.9,325.9
		C207.9,325.9,207.9,325.9,207.9,325.9z M239.7,324.4c-0.1,0-0.2,0-0.2-0.1c-0.7-0.9-1.4-1.7-2.2-2.4c-0.1-0.1-0.1-0.3,0-0.4
		c0.1-0.1,0.3-0.1,0.4,0c0.8,0.7,1.6,1.5,2.3,2.5c0.1,0.1,0.1,0.3-0.1,0.4C239.9,324.4,239.8,324.4,239.7,324.4z M219.3,323.9
		c-0.1,0-0.2,0-0.2-0.1c-0.1-0.1-0.1-0.3,0.1-0.4c0.9-0.7,1.8-1.3,2.8-1.9c0.1-0.1,0.3,0,0.4,0.1c0.1,0.1,0,0.3-0.1,0.4
		c-0.9,0.5-1.8,1.1-2.7,1.8C219.4,323.9,219.3,323.9,219.3,323.9z M225,320.6c-0.1,0-0.2-0.1-0.3-0.2c-0.1-0.1,0-0.3,0.2-0.4
		c1.1-0.4,2.2-0.7,3.2-0.9c0.1,0,0.3,0.1,0.3,0.2c0,0.1-0.1,0.3-0.2,0.3c-1,0.2-2.1,0.5-3.1,0.9C225.1,320.6,225,320.6,225,320.6z
		 M234.7,320.3c0,0-0.1,0-0.1,0c-1-0.4-2-0.6-3.1-0.7c-0.2,0-0.3-0.1-0.3-0.3s0.1-0.3,0.3-0.3c1.1,0.1,2.3,0.3,3.3,0.8
		c0.1,0.1,0.2,0.2,0.2,0.4C234.9,320.2,234.8,320.3,234.7,320.3z M206.8,319.4c-0.1,0-0.3-0.1-0.3-0.3c-0.1-1.1-0.2-2.2-0.2-3.3
		c0-0.2,0.1-0.3,0.3-0.3c0.2,0,0.3,0.1,0.3,0.3c0,1.1,0.1,2.2,0.2,3.3C207.1,319.3,207,319.4,206.8,319.4
		C206.8,319.4,206.8,319.4,206.8,319.4z M206.6,312.8c-0.2,0-0.3-0.1-0.3-0.3c0-1.1,0.1-2.2,0.1-3.3c0-0.2,0.1-0.3,0.3-0.3
		c0.2,0,0.3,0.1,0.3,0.3c-0.1,1.1-0.1,2.2-0.1,3.3C206.9,312.7,206.7,312.8,206.6,312.8z M207,306.2C207,306.2,207,306.2,207,306.2
		c-0.2,0-0.3-0.2-0.3-0.3c0.1-1.1,0.3-2.2,0.4-3.3c0-0.1,0.2-0.3,0.3-0.2c0.1,0,0.3,0.2,0.2,0.3c-0.2,1.1-0.3,2.2-0.4,3.3
		C207.3,306.1,207.1,306.2,207,306.2z M208,299.7C208,299.7,208,299.7,208,299.7c-0.2,0-0.3-0.2-0.3-0.3c0.2-1.1,0.5-2.2,0.8-3.2
		c0-0.1,0.2-0.2,0.3-0.2c0.1,0,0.2,0.2,0.2,0.3c-0.3,1-0.6,2.1-0.8,3.2C208.3,299.6,208.2,299.7,208,299.7z M209.8,293.3
		C209.8,293.3,209.8,293.3,209.8,293.3c-0.2-0.1-0.3-0.2-0.3-0.4c0.4-1.1,0.8-2.1,1.2-3.1c0.1-0.1,0.2-0.2,0.4-0.1
		c0.1,0.1,0.2,0.2,0.1,0.4c-0.4,1-0.8,2-1.2,3.1C210,293.2,209.9,293.3,209.8,293.3z M212.3,287.2c0,0-0.1,0-0.1,0
		c-0.1-0.1-0.2-0.2-0.1-0.4c0.5-1,1-2,1.5-2.9c0.1-0.1,0.3-0.2,0.4-0.1s0.2,0.3,0.1,0.4c-0.5,1-1.1,1.9-1.5,2.9
		C212.5,287.1,212.4,287.2,212.3,287.2z M215.6,281.4c-0.1,0-0.1,0-0.1-0.1c-0.1-0.1-0.2-0.3-0.1-0.4c0.6-0.9,1.3-1.8,1.9-2.7
		c0.1-0.1,0.3-0.1,0.4-0.1c0.1,0.1,0.1,0.3,0.1,0.4c-0.7,0.9-1.3,1.8-1.9,2.7C215.8,281.4,215.7,281.4,215.6,281.4z M219.6,276.1
		c-0.1,0-0.1,0-0.2-0.1c-0.1-0.1-0.1-0.3,0-0.4c0.7-0.8,1.5-1.7,2.3-2.5c0.1-0.1,0.3-0.1,0.4,0c0.1,0.1,0.1,0.3,0,0.4
		c-0.8,0.8-1.5,1.6-2.2,2.4C219.7,276.1,219.6,276.1,219.6,276.1z M224.2,271.4c-0.1,0-0.1,0-0.2-0.1c-0.1-0.1-0.1-0.3,0-0.4
		c0.8-0.7,1.7-1.5,2.5-2.1c0.1-0.1,0.3-0.1,0.4,0.1c0.1,0.1,0.1,0.3-0.1,0.4c-0.9,0.7-1.7,1.4-2.5,2.1
		C224.3,271.4,224.3,271.4,224.2,271.4z M300.1,269.6c-0.1,0-0.1,0-0.2-0.1c-0.8-0.8-1.6-1.5-2.5-2.2c-0.1-0.1-0.1-0.3,0-0.4
		c0.1-0.1,0.3-0.1,0.4,0c0.9,0.7,1.7,1.5,2.5,2.2c0.1,0.1,0.1,0.3,0,0.4C300.2,269.6,300.2,269.6,300.1,269.6z M229.4,267.3
		c-0.1,0-0.2,0-0.2-0.1c-0.1-0.1-0.1-0.3,0.1-0.4c0.9-0.6,1.8-1.2,2.8-1.8c0.1-0.1,0.3,0,0.4,0.1c0.1,0.1,0,0.3-0.1,0.4
		c-0.9,0.6-1.9,1.2-2.8,1.8C229.5,267.3,229.4,267.3,229.4,267.3z M295,265.4c-0.1,0-0.1,0-0.2-0.1c-0.9-0.6-1.8-1.2-2.8-1.8
		c-0.1-0.1-0.2-0.3-0.1-0.4c0.1-0.1,0.3-0.2,0.4-0.1c1,0.6,1.9,1.2,2.8,1.8c0.1,0.1,0.2,0.3,0.1,0.4
		C295.2,265.4,295.1,265.4,295,265.4z M235,263.8c-0.1,0-0.2-0.1-0.3-0.1c-0.1-0.1,0-0.3,0.1-0.4c1-0.5,2-1,3-1.5
		c0.1-0.1,0.3,0,0.4,0.1c0.1,0.1,0,0.3-0.1,0.4c-1,0.5-2,1-2.9,1.5C235.1,263.8,235.1,263.8,235,263.8z M289.3,262.1
		c0,0-0.1,0-0.1,0c-1-0.5-2-0.9-3-1.3c-0.1-0.1-0.2-0.2-0.1-0.4c0.1-0.1,0.2-0.2,0.4-0.1c1,0.4,2,0.9,3,1.4c0.1,0.1,0.2,0.2,0.1,0.4
		C289.5,262,289.4,262.1,289.3,262.1z M241,261.1c-0.1,0-0.2-0.1-0.3-0.2c-0.1-0.1,0-0.3,0.2-0.4c1-0.4,2.1-0.8,3.1-1.1
		c0.1-0.1,0.3,0,0.4,0.2c0.1,0.1,0,0.3-0.2,0.4c-1,0.4-2.1,0.7-3.1,1.1C241.1,261,241.1,261.1,241,261.1z M283.2,259.6
		C283.1,259.6,283.1,259.6,283.2,259.6c-1.1-0.4-2.2-0.7-3.2-1c-0.1,0-0.2-0.2-0.2-0.3c0-0.1,0.2-0.2,0.3-0.2c1.1,0.3,2.2,0.6,3.2,1
		c0.1,0.1,0.2,0.2,0.2,0.4C283.4,259.5,283.3,259.6,283.2,259.6z M247.3,259c-0.1,0-0.2-0.1-0.3-0.2c0-0.1,0.1-0.3,0.2-0.3
		c1.1-0.3,2.2-0.6,3.2-0.8c0.1,0,0.3,0.1,0.3,0.2c0,0.1-0.1,0.3-0.2,0.3C249.5,258.4,248.4,258.7,247.3,259
		C247.4,259,247.3,259,247.3,259z M276.8,257.9C276.8,257.9,276.8,257.9,276.8,257.9c-1.1-0.2-2.2-0.4-3.3-0.6
		c-0.1,0-0.3-0.2-0.2-0.3c0-0.1,0.2-0.3,0.3-0.2c1.1,0.2,2.2,0.4,3.3,0.6c0.1,0,0.3,0.2,0.2,0.3C277,257.8,276.9,257.9,276.8,257.9z
		 M253.8,257.5c-0.1,0-0.3-0.1-0.3-0.2c0-0.1,0.1-0.3,0.2-0.3c1.1-0.2,2.2-0.3,3.3-0.5c0.1,0,0.3,0.1,0.3,0.3c0,0.2-0.1,0.3-0.3,0.3
		C256,257.2,254.9,257.3,253.8,257.5C253.8,257.5,253.8,257.5,253.8,257.5z M270.2,256.9L270.2,256.9c-1.1-0.1-2.2-0.2-3.3-0.2
		c-0.2,0-0.3-0.1-0.3-0.3c0-0.2,0.1-0.3,0.3-0.3c1.1,0,2.2,0.1,3.3,0.2c0.2,0,0.3,0.1,0.3,0.3C270.5,256.8,270.4,256.9,270.2,256.9z
		 M260.3,256.7c-0.1,0-0.3-0.1-0.3-0.3c0-0.2,0.1-0.3,0.3-0.3c1.1-0.1,2.2-0.1,3.3-0.1c0.1,0,0.3,0.1,0.3,0.3c0,0.2-0.1,0.3-0.3,0.3
		C262.5,256.7,261.4,256.7,260.3,256.7C260.3,256.7,260.3,256.7,260.3,256.7z"/>
	<path class="st4" d="M310.8,388.2c-0.1,0-0.2-0.1-0.3-0.2c-0.1-0.1,0-0.3,0.2-0.4c1-0.4,1.5-0.6,1.5-0.6c0.1-0.1,0.3,0,0.4,0.1
		c0.1,0.1,0,0.3-0.1,0.4c0,0-0.6,0.2-1.6,0.6C310.9,388.2,310.8,388.2,310.8,388.2z"/>
	<path class="st4" d="M326.1,270.2C326.1,270.2,326.1,270.2,326.1,270.2c-0.2,0-0.3-0.2-0.3-0.3c0.1-0.5,0.3-1.1,0.4-1.6
		c0.1-0.1,0.2-0.2,0.4-0.2c0.1,0.1,0.2,0.2,0.2,0.4c-0.2,0.5-0.3,1.1-0.4,1.6C326.4,270.2,326.3,270.2,326.1,270.2z"/>
	<path class="st4" d="M400.7,348.7c-0.1,0-0.2-0.1-0.3-0.2c-0.1-0.1,0-0.3,0.2-0.4c1-0.4,2-0.8,3-1.4c0.1-0.1,0.3,0,0.4,0.1
		c0.1,0.1,0,0.3-0.1,0.4c-1,0.5-2,1-3,1.4C400.8,348.7,400.8,348.7,400.7,348.7z M406.5,345.6c-0.1,0-0.2,0-0.2-0.1
		c-0.1-0.1-0.1-0.3,0.1-0.4c0.9-0.6,1.7-1.3,2.5-2.1c0.1-0.1,0.3-0.1,0.4,0c0.1,0.1,0.1,0.3,0,0.4c-0.8,0.8-1.7,1.5-2.6,2.1
		C406.6,345.6,406.5,345.6,406.5,345.6z M411.3,341.1c-0.1,0-0.1,0-0.2-0.1c-0.1-0.1-0.1-0.3,0-0.4c0.7-0.8,1.3-1.7,1.9-2.6
		c0.1-0.1,0.3-0.2,0.4-0.1c0.1,0.1,0.2,0.3,0.1,0.4c-0.6,0.9-1.3,1.8-2,2.7C411.5,341.1,411.4,341.1,411.3,341.1z M414.9,335.6
		c0,0-0.1,0-0.1,0c-0.1-0.1-0.2-0.2-0.1-0.4c0.4-1,0.8-2,1.2-3c0.1-0.1,0.2-0.2,0.3-0.2c0.1,0.1,0.2,0.2,0.2,0.3
		c-0.3,1.1-0.7,2.1-1.2,3.1C415.1,335.5,415,335.6,414.9,335.6z M416.8,329.3C416.8,329.3,416.8,329.3,416.8,329.3
		c-0.2,0-0.3-0.2-0.3-0.3c0.2-1.1,0.3-2.1,0.4-3.2c0-0.2,0.1-0.3,0.3-0.3c0.2,0,0.3,0.1,0.3,0.3c-0.1,1.1-0.2,2.2-0.4,3.3
		C417.1,329.2,416.9,329.3,416.8,329.3z M417.2,322.7c-0.1,0-0.3-0.1-0.3-0.3c-0.1-1.1-0.2-2.2-0.4-3.2c0-0.1,0.1-0.3,0.2-0.3
		c0.1,0,0.3,0.1,0.3,0.2c0.2,1.1,0.3,2.2,0.4,3.3C417.5,322.6,417.3,322.7,417.2,322.7C417.2,322.7,417.2,322.7,417.2,322.7z
		 M416.2,316.2c-0.1,0-0.2-0.1-0.3-0.2c-0.3-1-0.6-2.1-0.9-3.1c-0.1-0.1,0-0.3,0.2-0.4c0.1-0.1,0.3,0,0.4,0.2
		c0.3,1.1,0.7,2.1,0.9,3.2C416.5,316,416.4,316.2,416.2,316.2C416.2,316.2,416.2,316.2,416.2,316.2z M414.2,310
		c-0.1,0-0.2-0.1-0.3-0.2c-0.3-1.1-0.6-2.1-0.9-3.2c0-0.1,0.1-0.3,0.2-0.3c0.1,0,0.3,0.1,0.3,0.2c0.2,1,0.5,2.1,0.9,3.2
		C414.5,309.7,414.4,309.9,414.2,310C414.2,309.9,414.2,310,414.2,310z M412.8,303.5c-0.1,0-0.3-0.1-0.3-0.3c-0.1-1-0.1-1.9-0.1-2.9
		c0-0.2,0-0.3,0-0.5c0-0.1,0.1-0.3,0.3-0.3c0.2,0,0.3,0.1,0.3,0.3c0,0.1,0,0.3,0,0.4c0,0.9,0.1,1.9,0.1,2.8
		C413.1,303.4,413,303.5,412.8,303.5C412.8,303.5,412.8,303.5,412.8,303.5z M412.9,296.9C412.9,296.9,412.9,296.9,412.9,296.9
		c-0.2,0-0.3-0.2-0.3-0.3c0.1-1.1,0.4-2.2,0.6-3.3c0-0.1,0.2-0.2,0.3-0.2c0.1,0,0.2,0.2,0.2,0.3c-0.3,1-0.5,2.1-0.6,3.2
		C413.1,296.9,413,296.9,412.9,296.9z M435.9,296.5c-0.1,0-0.3-0.1-0.3-0.3c0-0.2,0.1-0.3,0.3-0.3c1.1,0,2.2-0.1,3.2-0.3
		c0.1,0,0.3,0.1,0.3,0.2c0,0.1-0.1,0.3-0.2,0.3C438.2,296.4,437.1,296.5,435.9,296.5z M432.6,296.4
		C432.6,296.4,432.6,296.4,432.6,296.4c-1.1-0.1-2.2-0.3-3.3-0.5c-0.1,0-0.3-0.2-0.2-0.3c0-0.1,0.2-0.3,0.3-0.2
		c1.1,0.2,2.2,0.4,3.2,0.5c0.2,0,0.3,0.1,0.3,0.3C432.9,296.3,432.8,296.4,432.6,296.4z M442.4,295.5c-0.1,0-0.2-0.1-0.3-0.2
		c-0.1-0.1,0-0.3,0.2-0.3c1.1-0.3,2.1-0.8,3-1.2c0.1-0.1,0.3,0,0.4,0.1c0.1,0.1,0,0.3-0.1,0.4C444.7,294.8,443.6,295.2,442.4,295.5
		C442.5,295.5,442.5,295.5,442.4,295.5z M426.2,295.1C426.2,295.1,426.1,295.1,426.2,295.1c-1.1-0.3-2.2-0.7-3.2-1.2
		c-0.1-0.1-0.2-0.2-0.1-0.4c0.1-0.1,0.2-0.2,0.4-0.1c1,0.4,2,0.8,3.1,1.1c0.1,0.1,0.2,0.2,0.2,0.3
		C426.4,295,426.3,295.1,426.2,295.1z M420.1,292.5c0,0-0.1,0-0.1,0c-1-0.5-1.9-1.1-2.8-1.7c-0.1-0.1-0.2-0.3-0.1-0.4
		c0.1-0.1,0.3-0.2,0.4-0.1c0.9,0.6,1.8,1.2,2.8,1.7c0.1,0.1,0.2,0.2,0.1,0.4C420.3,292.5,420.2,292.5,420.1,292.5z M448.1,292.4
		c-0.1,0-0.1,0-0.2-0.1c-0.1-0.1-0.1-0.3,0-0.4c0.8-0.8,1.4-1.7,1.8-2.6c0.1-0.1,0.2-0.2,0.4-0.2c0.1,0.1,0.2,0.2,0.2,0.4
		c-0.4,1-1,2-1.9,2.8C448.3,292.3,448.2,292.4,448.1,292.4z M414.5,290.6c0,0-0.1,0-0.1,0c-0.1-0.1-0.2-0.2-0.2-0.4
		c0.4-1,0.9-2,1.4-3c0.1-0.1,0.2-0.2,0.4-0.1c0.1,0.1,0.2,0.2,0.1,0.4c-0.5,1-1,2-1.4,3C414.8,290.5,414.7,290.6,414.5,290.6z
		 M414.7,288.8c-0.1,0-0.1,0-0.2-0.1c-0.8-0.7-1.7-1.5-2.5-2.2c-0.1-0.1-0.1-0.3,0-0.4c0.1-0.1,0.3-0.1,0.4,0
		c0.8,0.8,1.6,1.5,2.4,2.2c0.1,0.1,0.1,0.3,0,0.4C414.8,288.8,414.8,288.8,414.7,288.8z M450.4,286.4c-0.1,0-0.3-0.1-0.3-0.3
		c-0.1-1-0.3-2-0.8-3.1c-0.1-0.1,0-0.3,0.1-0.4c0.1-0.1,0.3,0,0.4,0.1c0.5,1.1,0.8,2.2,0.8,3.3C450.7,286.3,450.6,286.4,450.4,286.4
		C450.4,286.4,450.4,286.4,450.4,286.4z M417.6,284.8c-0.1,0-0.1,0-0.2-0.1c-0.1-0.1-0.2-0.3-0.1-0.4c0.6-0.9,1.3-1.8,2-2.6
		c0.1-0.1,0.3-0.1,0.4,0c0.1,0.1,0.1,0.3,0,0.4c-0.7,0.8-1.4,1.7-2,2.6C417.8,284.7,417.7,284.8,417.6,284.8z M410,284.2
		c-0.1,0-0.2,0-0.2-0.1c-0.7-0.8-1.4-1.7-2-2.6c-0.1-0.1-0.1-0.3,0.1-0.4c0.1-0.1,0.3-0.1,0.4,0.1c0.6,0.9,1.3,1.8,2,2.6
		c0.1,0.1,0.1,0.3,0,0.4C410.1,284.2,410.1,284.2,410,284.2z M448,280.4c-0.1,0-0.2,0-0.2-0.1c-0.6-0.9-1.4-1.7-2.1-2.4
		c-0.1-0.1-0.1-0.3,0-0.4c0.1-0.1,0.3-0.1,0.4,0c0.8,0.7,1.5,1.6,2.2,2.5c0.1,0.1,0.1,0.3-0.1,0.4C448.1,280.4,448,280.4,448,280.4z
		 M422,279.9c-0.1,0-0.2,0-0.2-0.1c-0.1-0.1-0.1-0.3,0-0.4c0.8-0.8,1.7-1.4,2.6-2.1c0.1-0.1,0.3-0.1,0.4,0.1
		c0.1,0.1,0.1,0.3-0.1,0.4c-0.9,0.6-1.7,1.3-2.6,2C422.1,279.8,422,279.9,422,279.9z M406.2,278.8c-0.1,0-0.2-0.1-0.2-0.1
		c-0.6-0.9-1.1-1.9-1.6-2.9c-0.1-0.1,0-0.3,0.1-0.4c0.1-0.1,0.3,0,0.4,0.1c0.5,1,1,2,1.5,2.9c0.1,0.1,0,0.3-0.1,0.4
		C406.3,278.8,406.3,278.8,406.2,278.8z M427.4,276.1c-0.1,0-0.2-0.1-0.3-0.2c-0.1-0.1,0-0.3,0.1-0.4c1-0.5,2-0.9,3.1-1.3
		c0.1-0.1,0.3,0,0.4,0.2c0.1,0.1,0,0.3-0.2,0.4c-1,0.3-2,0.7-3,1.2C427.5,276.1,427.4,276.1,427.4,276.1z M443.2,275.9
		c-0.1,0-0.1,0-0.1,0c-0.9-0.6-1.9-1-2.9-1.3c-0.1,0-0.2-0.2-0.2-0.3c0-0.1,0.2-0.2,0.3-0.2c1.1,0.3,2.1,0.8,3.1,1.3
		c0.1,0.1,0.2,0.3,0.1,0.4C443.4,275.9,443.3,275.9,443.2,275.9z M433.6,274.1c-0.1,0-0.3-0.1-0.3-0.2c0-0.1,0.1-0.3,0.2-0.3
		c1.1-0.2,2.3-0.2,3.3-0.1c0.2,0,0.3,0.1,0.3,0.3s-0.1,0.3-0.3,0.3C435.8,274,434.8,274,433.6,274.1
		C433.7,274.1,433.7,274.1,433.6,274.1z M403.3,272.9c-0.1,0-0.2-0.1-0.3-0.2c-0.4-1-0.8-2.1-1.1-3.1c-0.1-0.1,0-0.3,0.2-0.3
		c0.1-0.1,0.3,0,0.3,0.2c0.3,1,0.7,2.1,1.1,3.1C403.6,272.7,403.6,272.8,403.3,272.9C403.4,272.9,403.4,272.9,403.3,272.9z
		 M401.2,266.7c-0.1,0-0.2-0.1-0.3-0.2c-0.4-1-0.8-2-1.3-3c-0.1-0.1,0-0.3,0.1-0.4c0.1-0.1,0.3,0,0.4,0.1c0.5,1,0.9,2,1.3,3
		c0.1,0.1,0,0.3-0.2,0.4C401.3,266.7,401.2,266.7,401.2,266.7z M327.8,265.6c0,0-0.1,0-0.1,0c-0.1-0.1-0.2-0.2-0.1-0.4
		c0.5-1,1.1-1.9,1.7-2.9c0.1-0.1,0.3-0.2,0.4-0.1c0.1,0.1,0.2,0.3,0.1,0.4c-0.6,0.9-1.2,1.8-1.7,2.8
		C328,265.5,327.9,265.6,327.8,265.6z M398.3,260.8c-0.1,0-0.2-0.1-0.2-0.1c-0.6-0.9-1.2-1.8-1.9-2.7c-0.1-0.1-0.1-0.3,0.1-0.4
		c0.1-0.1,0.3-0.1,0.4,0.1c0.7,0.9,1.3,1.8,1.9,2.7c0.1,0.1,0,0.3-0.1,0.4C398.4,260.8,398.4,260.8,398.3,260.8z M331.6,260.2
		c-0.1,0-0.1,0-0.2-0.1c-0.1-0.1-0.1-0.3,0-0.4c0.7-0.8,1.5-1.6,2.3-2.3c0.1-0.1,0.3-0.1,0.4,0c0.1,0.1,0.1,0.3,0,0.4
		c-0.8,0.8-1.6,1.5-2.3,2.3C331.7,260.2,331.7,260.2,331.6,260.2z M336.5,255.8c-0.1,0-0.2,0-0.2-0.1c-0.1-0.1-0.1-0.3,0.1-0.4
		c0.9-0.7,1.8-1.3,2.7-1.9c0.1-0.1,0.3-0.1,0.4,0.1c0.1,0.1,0.1,0.3-0.1,0.4c-0.9,0.6-1.8,1.2-2.7,1.9
		C336.6,255.8,336.5,255.8,336.5,255.8z M394.3,255.6c-0.1,0-0.1,0-0.2-0.1c-0.8-0.8-1.6-1.5-2.4-2.2c-0.1-0.1-0.1-0.3,0-0.4
		c0.1-0.1,0.3-0.1,0.4,0c0.8,0.7,1.7,1.5,2.4,2.3c0.1,0.1,0.1,0.3,0,0.4C394.4,255.6,394.3,255.6,394.3,255.6z M342,252.2
		c-0.1,0-0.2-0.1-0.3-0.1c-0.1-0.1,0-0.3,0.1-0.4c1-0.5,2-1,3-1.5c0.1-0.1,0.3,0,0.4,0.1c0.1,0.1,0,0.3-0.1,0.4c-1,0.5-2,1-2.9,1.5
		C342.1,252.2,342,252.2,342,252.2z M389.2,251.4c-0.1,0-0.1,0-0.2-0.1c-0.9-0.6-1.8-1.1-2.8-1.6c-0.1-0.1-0.2-0.2-0.1-0.4
		c0.1-0.1,0.2-0.2,0.4-0.1c1,0.5,2,1.1,2.9,1.7c0.1,0.1,0.2,0.3,0.1,0.4C389.4,251.3,389.3,251.4,389.2,251.4z M348,249.4
		c-0.1,0-0.2-0.1-0.3-0.2c-0.1-0.1,0-0.3,0.2-0.4c1-0.4,2.1-0.8,3.1-1.1c0.1-0.1,0.3,0,0.4,0.2c0.1,0.1,0,0.3-0.2,0.4
		c-1,0.3-2.1,0.7-3.1,1.1C348,249.4,348,249.4,348,249.4z M383.4,248.4c0,0-0.1,0-0.1,0c-1-0.4-2-0.8-3.1-1.1
		c-0.1,0-0.2-0.2-0.2-0.3c0-0.1,0.2-0.2,0.3-0.2c1.1,0.3,2.1,0.7,3.1,1.1c0.1,0.1,0.2,0.2,0.2,0.4
		C383.6,248.3,383.5,248.4,383.4,248.4z M354.2,247.4c-0.1,0-0.2-0.1-0.3-0.2c0-0.1,0.1-0.3,0.2-0.3c1.1-0.3,2.2-0.5,3.2-0.8
		c0.1,0,0.3,0.1,0.3,0.2c0,0.1-0.1,0.3-0.2,0.3C356.4,246.8,355.3,247.1,354.2,247.4C354.3,247.4,354.2,247.4,354.2,247.4z
		 M377.1,246.5C377.1,246.5,377,246.5,377.1,246.5c-1.1-0.2-2.2-0.4-3.3-0.5c-0.1,0-0.3-0.2-0.2-0.3c0-0.1,0.2-0.3,0.3-0.2
		c1.1,0.1,2.2,0.3,3.3,0.6c0.1,0,0.3,0.2,0.2,0.3C377.3,246.4,377.2,246.5,377.1,246.5z M360.7,246.1c-0.1,0-0.3-0.1-0.3-0.2
		c0-0.1,0.1-0.3,0.2-0.3c1.1-0.2,2.2-0.3,3.3-0.4c0.2,0,0.3,0.1,0.3,0.3c0,0.2-0.1,0.3-0.3,0.3C362.9,245.8,361.8,245.9,360.7,246.1
		C360.7,246.1,360.7,246.1,360.7,246.1z M370.5,245.6C370.5,245.6,370.5,245.6,370.5,245.6c-1.1-0.1-2.2-0.1-3.3-0.1
		c-0.2,0-0.3-0.1-0.3-0.3c0-0.2,0.1-0.3,0.3-0.3c1.1,0,2.2,0,3.3,0.1c0.2,0,0.3,0.1,0.3,0.3C370.8,245.5,370.7,245.6,370.5,245.6z"
		/>
	<path class="st4" d="M395.8,349.8c-0.2,0-0.3-0.1-0.3-0.3c0-0.1,0.1-0.3,0.3-0.3c0.5,0,1-0.1,1.6-0.1c0.1,0,0.3,0.1,0.3,0.2
		c0,0.1-0.1,0.3-0.2,0.3C396.9,349.7,396.3,349.8,395.8,349.8z"/>
	<path class="st4" d="M346.1,274.6L346.1,274.6c-0.6,0-1.1-0.1-1.7-0.1c-0.2,0-0.3-0.1-0.3-0.3c0-0.2,0.1-0.3,0.3-0.3
		c0.6,0,1.1,0.1,1.7,0.1c0.2,0,0.3,0.1,0.3,0.3C346.3,274.4,346.2,274.6,346.1,274.6z"/>
	<path class="st4" d="M398.6,433.4c-0.2,0-0.5,0-0.7,0c-0.2,0-0.3-0.1-0.3-0.3c0-0.1,0.1-0.3,0.3-0.3c1.1,0,2.2,0,3.3-0.1
		c0.2,0,0.3,0.1,0.3,0.3c0,0.2-0.1,0.3-0.3,0.3C400.4,433.3,399.5,433.4,398.6,433.4z M394.6,433.2
		C394.6,433.2,394.6,433.2,394.6,433.2c-1.1-0.1-2.3-0.3-3.4-0.4c-0.1,0-0.3-0.2-0.2-0.3c0-0.1,0.2-0.3,0.3-0.2
		c1.1,0.2,2.2,0.3,3.3,0.4c0.2,0,0.3,0.1,0.3,0.3C394.8,433.1,394.7,433.2,394.6,433.2z M404.6,432.9c-0.1,0-0.3-0.1-0.3-0.2
		c0-0.1,0.1-0.3,0.2-0.3c1.1-0.2,2.2-0.4,3.2-0.6c0.1,0,0.3,0.1,0.3,0.2c0,0.1-0.1,0.3-0.2,0.3C406.9,432.5,405.7,432.7,404.6,432.9
		C404.6,432.9,404.6,432.9,404.6,432.9z M388,432.1C388,432.1,388,432.1,388,432.1c-1.1-0.3-2.2-0.5-3.3-0.8c-0.1,0-0.2-0.2-0.2-0.3
		c0-0.1,0.2-0.2,0.3-0.2c1.1,0.3,2.1,0.6,3.2,0.8c0.1,0,0.3,0.2,0.2,0.3C388.2,432,388.1,432.1,388,432.1z M411,431.4
		c-0.1,0-0.2-0.1-0.3-0.2c-0.1-0.1,0-0.3,0.2-0.4c1-0.3,2.1-0.7,3.1-1.2c0.1-0.1,0.3,0,0.4,0.1c0.1,0.1,0,0.3-0.1,0.4
		C413.3,430.6,412.2,431,411,431.4C411.1,431.4,411.1,431.4,411,431.4z M381.6,430.2C381.6,430.2,381.5,430.2,381.6,430.2
		c-1.1-0.4-2.2-0.8-3.2-1.2c-0.1-0.1-0.2-0.2-0.1-0.4c0.1-0.1,0.2-0.2,0.4-0.1c1,0.4,2.1,0.8,3.1,1.2c0.1,0.1,0.2,0.2,0.2,0.4
		C381.8,430.1,381.7,430.2,381.6,430.2z M417.2,428.8c-0.1,0-0.2-0.1-0.3-0.1c-0.1-0.1,0-0.3,0.1-0.4c1-0.5,1.9-1.1,2.9-1.7
		c0.1-0.1,0.3,0,0.4,0.1c0.1,0.1,0,0.3-0.1,0.4c-1,0.6-1.9,1.2-2.9,1.7C417.3,428.8,417.2,428.8,417.2,428.8z M375.4,427.6
		c0,0-0.1,0-0.1,0c-1-0.5-2-1-3-1.6c-0.1-0.1-0.2-0.3-0.1-0.4c0.1-0.1,0.3-0.2,0.4-0.1c1,0.5,1.9,1.1,2.9,1.6
		c0.1,0.1,0.2,0.2,0.1,0.4C375.6,427.6,375.5,427.6,375.4,427.6z M422.8,425.2c-0.1,0-0.2,0-0.2-0.1c-0.1-0.1-0.1-0.3,0.1-0.4
		c0.9-0.7,1.7-1.4,2.6-2.1c0.1-0.1,0.3-0.1,0.4,0c0.1,0.1,0.1,0.3,0,0.4c-0.8,0.7-1.7,1.5-2.6,2.1
		C422.9,425.2,422.9,425.2,422.8,425.2z M369.6,424.3c-0.1,0-0.1,0-0.1-0.1c-0.9-0.6-1.9-1.3-2.8-1.9c-0.1-0.1-0.1-0.3-0.1-0.4
		c0.1-0.1,0.3-0.1,0.4-0.1c0.9,0.7,1.8,1.3,2.7,1.9c0.1,0.1,0.2,0.3,0.1,0.4C369.8,424.3,369.7,424.3,369.6,424.3z M427.8,420.8
		c-0.1,0-0.1,0-0.2-0.1c-0.1-0.1-0.1-0.3,0-0.4c0.8-0.8,1.5-1.6,2.2-2.5c0.1-0.1,0.3-0.1,0.4,0c0.1,0.1,0.1,0.3,0,0.4
		c-0.7,0.9-1.5,1.7-2.2,2.5C428,420.7,427.9,420.8,427.8,420.8z M364.3,420.3c-0.1,0-0.1,0-0.2-0.1c-0.8-0.7-1.7-1.5-2.5-2.2
		c-0.1-0.1-0.1-0.3,0-0.4c0.1-0.1,0.3-0.1,0.4,0c0.8,0.8,1.6,1.5,2.5,2.2c0.1,0.1,0.1,0.3,0,0.4
		C364.4,420.3,364.4,420.3,364.3,420.3z M359.4,415.7c-0.1,0-0.1,0-0.2-0.1c-0.8-0.8-1.5-1.7-2.2-2.5c-0.1-0.1-0.1-0.3,0-0.4
		c0.1-0.1,0.3-0.1,0.4,0c0.7,0.8,1.5,1.7,2.2,2.5c0.1,0.1,0.1,0.3,0,0.4C359.6,415.7,359.5,415.7,359.4,415.7z M432.1,415.6
		c-0.1,0-0.1,0-0.2-0.1c-0.1-0.1-0.2-0.3-0.1-0.4c0.6-0.9,1.2-1.8,1.8-2.8c0.1-0.1,0.3-0.2,0.4-0.1c0.1,0.1,0.2,0.3,0.1,0.4
		c-0.6,0.9-1.2,1.9-1.8,2.8C432.2,415.6,432.2,415.6,432.1,415.6z M355.2,410.6c-0.1,0-0.2,0-0.2-0.1c-0.7-0.9-1.3-1.8-1.9-2.8
		c-0.1-0.1-0.1-0.3,0.1-0.4c0.1-0.1,0.3-0.1,0.4,0.1c0.6,0.9,1.2,1.8,1.9,2.7c0.1,0.1,0.1,0.3-0.1,0.4
		C355.3,410.6,355.2,410.6,355.2,410.6z M435.5,409.9c0,0-0.1,0-0.1,0c-0.1-0.1-0.2-0.2-0.1-0.4c0.5-1,0.9-2,1.3-3
		c0.1-0.1,0.2-0.2,0.4-0.2c0.1,0.1,0.2,0.2,0.2,0.4c-0.4,1-0.9,2.1-1.3,3.1C435.6,409.8,435.6,409.9,435.5,409.9z M351.5,405
		c-0.1,0-0.2-0.1-0.2-0.1c-0.6-1-1.1-2-1.6-3c-0.1-0.1,0-0.3,0.1-0.4c0.1-0.1,0.3,0,0.4,0.1c0.5,1,1,2,1.6,2.9
		c0.1,0.1,0,0.3-0.1,0.4C351.6,405,351.6,405,351.5,405z M437.9,403.6C437.8,403.6,437.8,403.6,437.9,403.6
		c-0.2-0.1-0.3-0.2-0.3-0.4c0.3-1.1,0.6-2.2,0.8-3.2c0-0.1,0.2-0.3,0.3-0.2c0.1,0,0.3,0.2,0.2,0.3c-0.2,1.1-0.5,2.2-0.8,3.3
		C438.1,403.6,438,403.6,437.9,403.6z M439.1,397.1L439.1,397.1c-0.2,0-0.3-0.1-0.3-0.3c0.1-0.9,0.1-1.9,0.1-2.8c0-0.2,0-0.3,0-0.5
		c0-0.2,0.1-0.3,0.3-0.3c0.1,0,0.3,0.1,0.3,0.3c0,0.2,0,0.3,0,0.5c0,1,0,1.9-0.1,2.9C439.4,397,439.3,397.1,439.1,397.1z M439,390.4
		c-0.1,0-0.3-0.1-0.3-0.2c-0.1-1.1-0.4-2.2-0.6-3.2c0-0.1,0.1-0.3,0.2-0.3s0.3,0.1,0.3,0.2c0.3,1.1,0.5,2.2,0.6,3.3
		C439.3,390.3,439.2,390.4,439,390.4C439,390.4,439,390.4,439,390.4z M437.3,384c-0.1,0-0.2-0.1-0.3-0.2c-0.4-1-0.9-2-1.4-3
		c-0.1-0.1,0-0.3,0.1-0.4c0.1-0.1,0.3,0,0.4,0.1c0.5,1,1,2,1.5,3c0.1,0.1,0,0.3-0.2,0.4C437.4,384,437.4,384,437.3,384z M416,381
		c-0.9,0-1.7-0.1-2.4-0.4c-0.1-0.1-0.2-0.2-0.2-0.4c0.1-0.1,0.2-0.2,0.4-0.2c0.9,0.3,2,0.4,3.2,0.3c0.2,0,0.3,0.1,0.3,0.3
		c0,0.2-0.1,0.3-0.3,0.3C416.7,381,416.3,381,416,381z M420.2,380.1c-0.1,0-0.2-0.1-0.3-0.2c-0.1-0.1,0-0.3,0.2-0.4
		c1-0.4,1.9-0.9,2.9-1.5c0.1-0.1,0.3,0,0.4,0.1c0.1,0.1,0,0.3-0.1,0.4c-1,0.6-2.1,1.1-3,1.5C420.3,380.1,420.2,380.1,420.2,380.1z
		 M411,378.7c-0.1,0-0.2,0-0.2-0.1c-0.7-0.9-1.1-2-1.3-3.2c0-0.1,0.1-0.3,0.2-0.3c0.1,0,0.3,0.1,0.3,0.2c0.2,1.1,0.6,2.1,1.2,2.9
		c0.1,0.1,0.1,0.3-0.1,0.4C411.1,378.7,411.1,378.7,411,378.7z M434.1,378.2c-0.1,0-0.2,0-0.2-0.1c-0.6-0.9-1.4-1.7-2.1-2.5
		c-0.1-0.1-0.1-0.3,0-0.4c0.1-0.1,0.3-0.1,0.4,0c0.8,0.8,1.5,1.7,2.2,2.6c0.1,0.1,0.1,0.3-0.1,0.4
		C434.2,378.1,434.1,378.2,434.1,378.2z M426,376.8c-0.1,0-0.2,0-0.2-0.1c-0.1-0.1-0.1-0.3,0.1-0.4c0.9-0.6,1.6-1.4,2.4-2.3
		c0.1-0.1,0.3-0.1,0.4,0c0.1,0.1,0.1,0.3,0,0.4c-0.8,0.9-1.6,1.7-2.5,2.3C426.1,376.8,426,376.8,426,376.8z M429.5,373.4
		c-0.1,0-0.1,0-0.2-0.1c-0.1-0.1-0.2-0.2-0.3-0.3c-0.8-0.6-1.6-1.2-2.3-1.8c-0.1-0.1-0.2-0.3-0.1-0.4c0.1-0.1,0.3-0.2,0.4-0.1
		c0.8,0.5,1.6,1.1,2.4,1.8c0.1,0.1,0.2,0.2,0.3,0.3c0.1,0.1,0.1,0.3,0,0.4C429.6,373.3,429.6,373.4,429.5,373.4z M410,372.3
		C409.9,372.3,409.9,372.3,410,372.3c-0.2-0.1-0.3-0.2-0.3-0.4c0.3-1.1,0.9-2.2,1.7-3c0.1-0.1,0.3-0.1,0.4,0c0.1,0.1,0.1,0.3,0,0.4
		c-0.7,0.8-1.3,1.7-1.6,2.8C410.2,372.3,410.1,372.3,410,372.3z M430.3,371.7c-0.1,0-0.1,0-0.1,0c-0.1-0.1-0.2-0.3-0.1-0.4
		c0.5-0.9,1-1.9,1.4-3c0.1-0.1,0.2-0.2,0.4-0.2c0.1,0.1,0.2,0.2,0.2,0.4c-0.4,1.1-0.9,2.1-1.4,3
		C430.5,371.7,430.4,371.7,430.3,371.7z M424,369.6c0,0-0.1,0-0.1,0c-1-0.6-2-1-3-1.4c-0.1-0.1-0.2-0.2-0.2-0.4
		c0.1-0.1,0.2-0.2,0.4-0.2c1,0.4,2,0.8,3.1,1.4c0.1,0.1,0.2,0.2,0.1,0.4C424.2,369.5,424.1,369.6,424,369.6z M414.4,367.7
		c-0.1,0-0.2-0.1-0.3-0.2c0-0.1,0-0.3,0.2-0.3c1-0.3,2.2-0.4,3.4-0.3c0.2,0,0.3,0.1,0.3,0.3c0,0.2-0.1,0.3-0.3,0.3
		C416.5,367.4,415.4,367.4,414.4,367.7C414.5,367.7,414.4,367.7,414.4,367.7z M432.7,365.5C432.7,365.5,432.7,365.5,432.7,365.5
		c-0.2,0-0.3-0.2-0.3-0.3c0.3-1,0.5-2.1,0.6-3.2c0-0.1,0.2-0.3,0.3-0.2c0.1,0,0.3,0.2,0.2,0.3c-0.2,1.1-0.4,2.3-0.6,3.3
		C433,365.5,432.8,365.5,432.7,365.5z M433.7,358.9C433.7,358.9,433.7,358.9,433.7,358.9c-0.2,0-0.3-0.1-0.3-0.3
		c0-0.8,0.1-1.6,0.1-2.4c0-0.3,0-0.6,0-0.9c0-0.2,0.1-0.3,0.3-0.3c0.2,0,0.3,0.1,0.3,0.3c0,0.3,0,0.6,0,0.9c0,0.8,0,1.6-0.1,2.4
		C433.9,358.8,433.8,358.9,433.7,358.9z M433.6,352.3c-0.1,0-0.3-0.1-0.3-0.3c-0.1-1.1-0.2-2.2-0.4-3.3c0-0.1,0.1-0.3,0.2-0.3
		c0.1,0,0.3,0.1,0.3,0.2c0.2,1.1,0.3,2.2,0.4,3.3C433.9,352.1,433.7,352.2,433.6,352.3C433.6,352.3,433.6,352.3,433.6,352.3z
		 M432.6,345.6c-0.1,0-0.3-0.1-0.3-0.2c-0.2-1.1-0.4-2.2-0.7-3.2c0-0.1,0.1-0.3,0.2-0.3c0.1,0,0.3,0.1,0.3,0.2
		c0.3,1.1,0.5,2.2,0.7,3.3C432.9,345.5,432.8,345.6,432.6,345.6C432.6,345.6,432.6,345.6,432.6,345.6z M431,339.2
		c-0.1,0-0.2-0.1-0.3-0.2c-0.3-1.1-0.7-2.1-1-3.2c-0.1-0.1,0-0.3,0.2-0.4c0.1-0.1,0.3,0,0.4,0.2c0.4,1.1,0.7,2.1,1,3.2
		C431.3,339,431.2,339.1,431,339.2C431.1,339.2,431,339.2,431,339.2z M428.8,332.8c-0.1,0-0.2-0.1-0.3-0.2c-0.4-1-0.8-2.1-1.3-3.1
		c-0.1-0.1,0-0.3,0.1-0.4c0.1-0.1,0.3,0,0.4,0.1c0.4,1,0.9,2.1,1.3,3.1c0.1,0.1,0,0.3-0.2,0.4C428.9,332.8,428.9,332.8,428.8,332.8z
		 M426.1,326.7c-0.1,0-0.2-0.1-0.3-0.2c-0.5-1-1-2-1.5-3c-0.1-0.1,0-0.3,0.1-0.4c0.1-0.1,0.3,0,0.4,0.1c0.5,1,1,2,1.5,3
		c0.1,0.1,0,0.3-0.1,0.4C426.2,326.7,426.2,326.7,426.1,326.7z M423,320.8c-0.1,0-0.2-0.1-0.2-0.1c-0.6-1-1.1-1.9-1.7-2.9
		c-0.1-0.1,0-0.3,0.1-0.4c0.1-0.1,0.3,0,0.4,0.1c0.6,1,1.2,1.9,1.7,2.9c0.1,0.1,0,0.3-0.1,0.4C423.1,320.8,423,320.8,423,320.8z
		 M419.4,315.2c-0.1,0-0.2,0-0.2-0.1c-0.6-0.9-1.3-1.8-1.9-2.7c-0.1-0.1-0.1-0.3,0.1-0.4c0.1-0.1,0.3-0.1,0.4,0.1
		c0.7,0.9,1.3,1.8,2,2.7c0.1,0.1,0.1,0.3-0.1,0.4C419.5,315.2,419.5,315.2,419.4,315.2z M415.4,309.8c-0.1,0-0.2,0-0.2-0.1
		c-0.7-0.9-1.4-1.7-2.1-2.6c-0.1-0.1-0.1-0.3,0-0.4c0.1-0.1,0.3-0.1,0.4,0c0.7,0.8,1.5,1.7,2.1,2.6c0.1,0.1,0.1,0.3,0,0.4
		C415.5,309.8,415.5,309.8,415.4,309.8z M411.1,304.8c-0.1,0-0.1,0-0.2-0.1c-0.8-0.8-1.5-1.6-2.3-2.4c-0.1-0.1-0.1-0.3,0-0.4
		c0.1-0.1,0.3-0.1,0.4,0c0.8,0.8,1.6,1.6,2.3,2.4c0.1,0.1,0.1,0.3,0,0.4C411.2,304.7,411.1,304.8,411.1,304.8z M406.4,300
		c-0.1,0-0.1,0-0.2-0.1c-0.8-0.8-1.6-1.5-2.5-2.2c-0.1-0.1-0.1-0.3,0-0.4c0.1-0.1,0.3-0.1,0.4,0c0.8,0.7,1.7,1.5,2.5,2.2
		c0.1,0.1,0.1,0.3,0,0.4C406.5,300,406.4,300,406.4,300z M401.3,295.7c-0.1,0-0.1,0-0.2-0.1c-0.9-0.7-1.7-1.4-2.6-2
		c-0.1-0.1-0.1-0.3-0.1-0.4c0.1-0.1,0.3-0.1,0.4-0.1c0.9,0.7,1.8,1.4,2.6,2.1c0.1,0.1,0.1,0.3,0,0.4
		C401.5,295.6,401.4,295.7,401.3,295.7z M396,291.6c-0.1,0-0.1,0-0.2-0.1c-0.9-0.6-1.8-1.3-2.8-1.8c-0.1-0.1-0.2-0.3-0.1-0.4
		c0.1-0.1,0.3-0.2,0.4-0.1c0.9,0.6,1.9,1.2,2.8,1.9c0.1,0.1,0.2,0.3,0.1,0.4C396.2,291.6,396.1,291.6,396,291.6z M390.4,288
		c-0.1,0-0.1,0-0.1,0c-0.9-0.6-1.9-1.1-2.9-1.6c-0.1-0.1-0.2-0.3-0.1-0.4c0.1-0.1,0.3-0.2,0.4-0.1c1,0.5,2,1.1,2.9,1.7
		c0.1,0.1,0.2,0.3,0.1,0.4C390.6,288,390.5,288,390.4,288z M384.5,284.8c0,0-0.1,0-0.1,0c-1-0.5-2-1-3-1.4c-0.1-0.1-0.2-0.2-0.1-0.4
		c0.1-0.1,0.2-0.2,0.4-0.1c1,0.5,2,1,3,1.5c0.1,0.1,0.2,0.2,0.1,0.4C384.7,284.8,384.6,284.8,384.5,284.8z M378.5,282
		c0,0-0.1,0-0.1,0c-1-0.4-2.1-0.8-3.1-1.2c-0.1-0.1-0.2-0.2-0.2-0.4c0.1-0.1,0.2-0.2,0.4-0.2c1,0.4,2.1,0.8,3.1,1.2
		c0.1,0.1,0.2,0.2,0.1,0.4C378.7,282,378.6,282,378.5,282z M372.2,279.7C372.2,279.7,372.1,279.7,372.2,279.7
		c-1.1-0.4-2.2-0.7-3.3-1c-0.1,0-0.2-0.2-0.2-0.3c0-0.1,0.2-0.2,0.3-0.2c1.1,0.3,2.1,0.7,3.2,1c0.1,0.1,0.2,0.2,0.2,0.4
		C372.4,279.6,372.3,279.7,372.2,279.7z M365.8,277.8C365.8,277.8,365.7,277.8,365.8,277.8c-1.1-0.3-2.2-0.6-3.3-0.8
		c-0.1,0-0.3-0.2-0.2-0.3c0-0.1,0.2-0.3,0.3-0.2c1.1,0.3,2.2,0.5,3.2,0.8c0.1,0,0.2,0.2,0.2,0.3C366,277.7,365.9,277.8,365.8,277.8z
		 M359.3,276.3C359.3,276.3,359.2,276.3,359.3,276.3c-1.1-0.2-2.2-0.4-3.3-0.6c-0.1,0-0.3-0.2-0.2-0.3c0-0.1,0.2-0.3,0.3-0.2
		c1.1,0.2,2.2,0.4,3.3,0.6c0.1,0,0.3,0.2,0.2,0.3C359.5,276.2,359.4,276.3,359.3,276.3z M352.7,275.2
		C352.7,275.2,352.7,275.2,352.7,275.2c-1.1-0.1-2.2-0.3-3.3-0.4c-0.2,0-0.3-0.1-0.3-0.3c0-0.2,0.2-0.3,0.3-0.3
		c1.1,0.1,2.2,0.2,3.3,0.4c0.1,0,0.3,0.2,0.2,0.3C353,275.1,352.8,275.2,352.7,275.2z"/>
	<path class="st4" d="M348.5,399c-0.1,0-0.2-0.1-0.3-0.2c-0.4-1-0.6-1.6-0.6-1.6c-0.1-0.1,0-0.3,0.2-0.4c0.1-0.1,0.3,0,0.4,0.2
		c0,0,0.2,0.6,0.6,1.5c0.1,0.1,0,0.3-0.1,0.4C348.6,398.9,348.5,399,348.5,399z"/>
	<path class="st4" d="M285.1,332.9c-0.6,0-1.1,0-1.7-0.1c-0.1,0-0.2-0.1-0.2-0.2c0-0.1,0.1-0.2,0.2-0.2c1.1,0.1,2.2,0.1,3.3,0
		c0.1,0,0.2,0.1,0.2,0.2c0,0.1-0.1,0.2-0.2,0.2C286.3,332.9,285.7,332.9,285.1,332.9z M290.1,332.4c-0.1,0-0.2-0.1-0.2-0.2
		c0-0.1,0.1-0.2,0.2-0.3c0.3-0.1,0.5-0.1,0.8-0.2c0.1,0,0.2,0,0.3,0.2c0,0.1,0,0.2-0.2,0.3C290.7,332.3,290.4,332.3,290.1,332.4
		C290.1,332.4,290.1,332.4,290.1,332.4z M280.2,332.4C280.2,332.4,280.1,332.4,280.2,332.4c-1.1-0.2-2.2-0.6-3.3-0.9
		c-0.1,0-0.2-0.2-0.1-0.3c0-0.1,0.2-0.2,0.3-0.1c1,0.4,2.1,0.7,3.2,0.9c0.1,0,0.2,0.1,0.2,0.3C280.4,332.3,280.3,332.4,280.2,332.4z
		 M274,330c0,0-0.1,0-0.1,0c-1-0.5-1.9-1.2-2.8-1.8c-0.1-0.1-0.1-0.2,0-0.3c0.1-0.1,0.2-0.1,0.3,0c0.9,0.7,1.8,1.3,2.8,1.8
		c0.1,0.1,0.1,0.2,0.1,0.3C274.1,330,274,330,274,330z M268.7,326c-0.1,0-0.1,0-0.1-0.1c-0.8-0.8-1.5-1.6-2.2-2.6
		c-0.1-0.1-0.1-0.2,0-0.3c0.1-0.1,0.2-0.1,0.3,0c0.6,0.9,1.4,1.7,2.1,2.5c0.1,0.1,0.1,0.2,0,0.3C268.8,326,268.7,326,268.7,326z
		 M264.8,320.6c-0.1,0-0.1,0-0.2-0.1c-0.5-1-1-2-1.4-3c0-0.1,0-0.2,0.1-0.3c0.1,0,0.2,0,0.3,0.1c0.4,1,0.9,2,1.4,3
		c0.1,0.1,0,0.2-0.1,0.3C264.8,320.6,264.8,320.6,264.8,320.6z M262.4,314.4c-0.1,0-0.2-0.1-0.2-0.2c-0.3-1.1-0.5-2.2-0.6-3.3
		c0-0.1,0.1-0.2,0.2-0.2c0.1,0,0.2,0.1,0.2,0.2c0.1,1.1,0.3,2.2,0.6,3.2C262.6,314.3,262.5,314.4,262.4,314.4
		C262.4,314.4,262.4,314.4,262.4,314.4z M261.5,307.8c-0.1,0-0.2-0.1-0.2-0.2c0-0.2,0-0.3,0-0.5c0-1,0-1.9,0.1-2.9
		c0-0.1,0.1-0.2,0.2-0.2c0.1,0,0.2,0.1,0.2,0.2c-0.1,1-0.1,1.9-0.1,2.8c0,0.2,0,0.3,0,0.5C261.7,307.7,261.7,307.8,261.5,307.8z
		 M262.1,301.2C262.1,301.2,262.1,301.2,262.1,301.2c-0.1,0-0.2-0.1-0.2-0.2c0.1-0.5,0.2-1,0.3-1.5c0.1-0.6,0.2-1.2,0.3-1.7
		c0-0.1,0.1-0.2,0.2-0.2c0.1,0,0.2,0.1,0.2,0.2c-0.1,0.6-0.1,1.2-0.3,1.8c-0.1,0.5-0.2,1-0.3,1.5
		C262.3,301.1,262.2,301.2,262.1,301.2z M262.4,294.6c-0.1,0-0.2-0.1-0.2-0.1c-0.3-1-0.8-1.9-1.6-2.8c-0.1-0.1-0.1-0.2,0-0.3
		c0.1-0.1,0.2-0.1,0.3,0c0.8,0.9,1.3,1.8,1.6,2.9C262.6,294.5,262.6,294.6,262.4,294.6C262.4,294.6,262.4,294.6,262.4,294.6z
		 M258.2,289.7c0,0-0.1,0-0.1,0c-0.8-0.5-1.8-1-3-1.4c-0.1,0-0.2-0.2-0.1-0.3c0-0.1,0.2-0.2,0.3-0.1c1.2,0.5,2.2,0.9,3,1.5
		c0.1,0.1,0.1,0.2,0.1,0.3C258.4,289.7,258.3,289.7,258.2,289.7z M252.1,287.2C252,287.2,252,287.2,252.1,287.2
		c-1.2-0.4-2.3-0.7-3.3-1c-0.1,0-0.2-0.1-0.1-0.3c0-0.1,0.1-0.2,0.3-0.1c1,0.3,2.1,0.6,3.2,0.9c0.1,0,0.2,0.1,0.1,0.3
		C252.2,287.2,252.2,287.2,252.1,287.2z M245.6,285.4C245.6,285.4,245.6,285.4,245.6,285.4c-1.3-0.4-2.3-0.6-3.3-1
		c-0.1,0-0.2-0.1-0.1-0.3c0-0.1,0.1-0.2,0.3-0.1c0.9,0.3,2,0.6,3.2,1c0.1,0,0.2,0.1,0.1,0.3C245.8,285.3,245.7,285.4,245.6,285.4z
		 M239.3,283.4C239.2,283.4,239.2,283.4,239.3,283.4c-1.2-0.4-2.2-0.9-3.2-1.3c-0.1-0.1-0.1-0.2-0.1-0.3c0.1-0.1,0.2-0.1,0.3-0.1
		c1,0.4,2,0.9,3.1,1.3c0.1,0,0.2,0.2,0.1,0.3C239.4,283.3,239.4,283.4,239.3,283.4z M233.3,280.5c0,0-0.1,0-0.1,0
		c-1-0.6-1.9-1.3-2.7-2c-0.1-0.1-0.1-0.2,0-0.3c0.1-0.1,0.2-0.1,0.3,0c0.8,0.7,1.7,1.3,2.7,1.9c0.1,0.1,0.1,0.2,0.1,0.3
		C233.4,280.4,233.3,280.5,233.3,280.5z M228.3,276.2c-0.1,0-0.1,0-0.2-0.1c-0.7-0.9-1.3-1.8-1.8-2.8c-0.1-0.1,0-0.2,0.1-0.3
		s0.2,0,0.3,0.1c0.5,1,1.1,1.9,1.8,2.7c0.1,0.1,0.1,0.2,0,0.3C228.3,276.1,228.3,276.2,228.3,276.2z M314.2,270.5
		c-0.1,0-0.2-0.1-0.2-0.1c-0.3-1.1-0.6-2.1-1-3.2c0-0.1,0-0.2,0.1-0.3c0.1,0,0.2,0,0.3,0.1c0.4,1,0.7,2.1,1,3.2
		C314.4,270.3,314.4,270.4,314.2,270.5C314.2,270.5,314.2,270.5,314.2,270.5z M225.2,270.3c-0.1,0-0.2-0.1-0.2-0.1
		c-0.3-1-0.6-2.1-0.8-3.3c0-0.1,0.1-0.2,0.2-0.2c0.1,0,0.2,0.1,0.2,0.2c0.2,1.1,0.4,2.2,0.7,3.2
		C225.4,270.2,225.3,270.3,225.2,270.3C225.2,270.3,225.2,270.3,225.2,270.3z M312.1,264.2c-0.1,0-0.2-0.1-0.2-0.1
		c-0.4-1-0.8-2.1-1.3-3.1c-0.1-0.1,0-0.2,0.1-0.3c0.1-0.1,0.2,0,0.3,0.1c0.4,1,0.9,2,1.3,3.1C312.3,264,312.2,264.1,312.1,264.2
		C312.1,264.2,312.1,264.2,312.1,264.2z M224.1,263.8c-0.1,0-0.2-0.1-0.2-0.2c0-0.3,0-0.6,0-1c0-0.8,0-1.6,0.1-2.4
		c0-0.1,0.1-0.2,0.2-0.2c0.1,0,0.2,0.1,0.2,0.2c-0.1,0.8-0.1,1.6-0.1,2.4c0,0.3,0,0.6,0,0.9C224.3,263.7,224.2,263.8,224.1,263.8z
		 M257.8,262c-0.6,0-1.2,0-1.8-0.1c-0.1,0-0.2-0.1-0.2-0.2c0-0.1,0.1-0.2,0.2-0.2c1.1,0.1,2.2,0.1,3.3,0c0.1,0,0.2,0.1,0.2,0.2
		c0,0.1-0.1,0.2-0.2,0.2C258.9,262,258.3,262,257.8,262z M262.6,261.2c-0.1,0-0.2-0.1-0.2-0.1c0-0.1,0-0.2,0.1-0.3
		c1-0.4,2-0.8,3-1.4c0.1-0.1,0.2,0,0.3,0.1c0.1,0.1,0,0.2-0.1,0.3C264.7,260.3,263.7,260.8,262.6,261.2
		C262.6,261.2,262.6,261.2,262.6,261.2z M252.8,261.1C252.8,261.1,252.7,261.1,252.8,261.1c-1.1-0.4-2.2-0.9-3.1-1.5
		c-0.1-0.1-0.1-0.2-0.1-0.3c0.1-0.1,0.2-0.1,0.3-0.1c0.9,0.6,1.9,1.1,2.9,1.5c0.1,0,0.2,0.2,0.1,0.3
		C252.9,261,252.9,261.1,252.8,261.1z M309.4,258.1c-0.1,0-0.1,0-0.2-0.1c-0.5-1-1-2-1.6-2.9c-0.1-0.1,0-0.2,0.1-0.3
		c0.1-0.1,0.2,0,0.3,0.1c0.5,1,1.1,2,1.6,3C309.6,257.9,309.6,258,309.4,258.1C309.4,258.1,309.4,258.1,309.4,258.1z M268.2,257.7
		c-0.1,0-0.1,0-0.1-0.1c-0.1-0.1-0.1-0.2,0-0.3c0.8-0.8,1.3-1.8,1.7-2.8c0-0.1,0.2-0.2,0.3-0.1c0.1,0,0.2,0.2,0.1,0.3
		c-0.4,1.1-1,2-1.8,2.9C268.3,257.6,268.2,257.7,268.2,257.7z M247.2,257.5c-0.1,0-0.1,0-0.1-0.1c-0.8-0.8-1.5-1.8-2-2.7
		c-0.1-0.1,0-0.2,0.1-0.3s0.2,0,0.3,0.1c0.5,1,1.1,1.8,1.9,2.7c0.1,0.1,0.1,0.2,0,0.3C247.3,257.5,247.3,257.5,247.2,257.5z
		 M224.5,257.2C224.5,257.2,224.5,257.2,224.5,257.2c-0.1,0-0.2-0.1-0.2-0.2c0.2-1.1,0.4-2.2,0.6-3.3c0-0.1,0.1-0.2,0.3-0.2
		c0.1,0,0.2,0.1,0.2,0.3c-0.2,1.1-0.4,2.2-0.6,3.3C224.7,257.1,224.6,257.2,224.5,257.2z M306.1,252.2c-0.1,0-0.1,0-0.2-0.1
		c-0.6-0.9-1.2-1.9-1.8-2.8c-0.1-0.1-0.1-0.2,0.1-0.3c0.1-0.1,0.2-0.1,0.3,0.1c0.6,0.9,1.3,1.8,1.9,2.8c0.1,0.1,0,0.2-0.1,0.3
		C306.2,252.2,306.1,252.2,306.1,252.2z M244.2,251.7c-0.1,0-0.2-0.1-0.2-0.2c-0.2-0.8-0.3-1.6-0.3-2.5c0-0.3,0-0.6,0-0.9
		c0-0.1,0.1-0.2,0.2-0.2c0.1,0,0.2,0.1,0.2,0.2c0,0.3,0,0.6,0,0.9c0,0.8,0.1,1.6,0.2,2.4C244.4,251.5,244.3,251.7,244.2,251.7
		C244.2,251.7,244.2,251.7,244.2,251.7z M270.4,251.6c-0.1,0-0.2-0.1-0.2-0.2c0-1-0.3-2.1-0.6-3.2c0-0.1,0-0.2,0.1-0.3
		c0.1,0,0.2,0,0.3,0.1c0.4,1.1,0.6,2.3,0.6,3.3C270.6,251.5,270.5,251.5,270.4,251.6z M225.9,250.6
		C225.9,250.6,225.9,250.6,225.9,250.6c-0.2,0-0.2-0.1-0.2-0.3c0.3-1.1,0.6-2.2,1-3.2c0-0.1,0.2-0.2,0.3-0.1c0.1,0,0.2,0.2,0.1,0.3
		c-0.4,1-0.7,2.1-1,3.2C226.1,250.6,226,250.6,225.9,250.6z M302.2,246.8c-0.1,0-0.1,0-0.2-0.1c-0.7-0.9-1.4-1.7-2.2-2.5
		c-0.1-0.1-0.1-0.2,0-0.3c0.1-0.1,0.2-0.1,0.3,0c0.7,0.8,1.5,1.7,2.2,2.5c0.1,0.1,0.1,0.2,0,0.3
		C302.3,246.8,302.3,246.8,302.2,246.8z M268.3,245.3c-0.1,0-0.1,0-0.2-0.1c-0.5-0.9-1.2-1.8-1.9-2.7c-0.1-0.1-0.1-0.2,0-0.3
		c0.1-0.1,0.2-0.1,0.3,0c0.7,0.9,1.4,1.8,1.9,2.8c0.1,0.1,0,0.2-0.1,0.3C268.4,245.3,268.4,245.3,268.3,245.3z M244.6,245.1
		C244.6,245.1,244.6,245.1,244.6,245.1c-0.2-0.1-0.3-0.2-0.2-0.3c0.3-1,0.8-2.1,1.3-3.1c0.1-0.1,0.2-0.1,0.3-0.1
		c0.1,0.1,0.1,0.2,0.1,0.3c-0.5,1-1,2-1.3,3C244.7,245.1,244.7,245.1,244.6,245.1z M228.2,244.4
		C228.1,244.4,228.1,244.4,228.2,244.4c-0.2-0.1-0.2-0.2-0.2-0.3c0.5-1,1-2,1.6-3c0.1-0.1,0.2-0.1,0.3-0.1c0.1,0.1,0.1,0.2,0.1,0.3
		c-0.6,0.9-1.1,1.9-1.6,2.9C228.3,244.3,228.2,244.4,228.2,244.4z M297.8,241.9c-0.1,0-0.1,0-0.1-0.1c-0.8-0.8-1.6-1.5-2.5-2.2
		c-0.1-0.1-0.1-0.2,0-0.3c0.1-0.1,0.2-0.1,0.3,0c0.8,0.7,1.7,1.5,2.5,2.3c0.1,0.1,0.1,0.2,0,0.3
		C297.9,241.9,297.8,241.9,297.8,241.9z M264.1,240.1c-0.1,0-0.1,0-0.1-0.1c-0.8-0.8-1.6-1.5-2.5-2.2c-0.1-0.1-0.1-0.2,0-0.3
		c0.1-0.1,0.2-0.1,0.3,0c0.9,0.7,1.8,1.4,2.5,2.2c0.1,0.1,0.1,0.2,0,0.3C264.3,240.1,264.2,240.1,264.1,240.1z M247.7,239.3
		c0,0-0.1,0-0.1,0c-0.1-0.1-0.1-0.2,0-0.3c0.5-0.6,1-1.2,1.5-1.9c0.2-0.2,0.4-0.5,0.6-0.7c0.1-0.1,0.2-0.1,0.3,0
		c0.1,0.1,0.1,0.2,0,0.3c-0.2,0.2-0.4,0.5-0.6,0.7c-0.5,0.6-1,1.2-1.5,1.8C247.8,239.2,247.8,239.3,247.7,239.3z M231.7,238.7
		c-0.1,0-0.1,0-0.1-0.1c-0.1-0.1-0.1-0.2,0-0.3c0.7-0.9,1.5-1.7,2.3-2.4c0.1-0.1,0.2-0.1,0.3,0c0.1,0.1,0.1,0.2,0,0.3
		c-0.8,0.7-1.6,1.5-2.3,2.4C231.8,238.7,231.7,238.7,231.7,238.7z M292.7,237.6c0,0-0.1,0-0.1,0c-0.9-0.7-1.8-1.3-2.7-1.9
		c-0.1-0.1-0.1-0.2-0.1-0.3c0.1-0.1,0.2-0.1,0.3-0.1c0.9,0.6,1.9,1.2,2.8,1.9c0.1,0.1,0.1,0.2,0,0.3
		C292.8,237.6,292.7,237.6,292.7,237.6z M258.9,236.1c0,0-0.1,0-0.1,0c-1-0.6-1.9-1.1-2.9-1.6c-0.1-0.1-0.1-0.2-0.1-0.3
		c0.1-0.1,0.2-0.1,0.3-0.1c1,0.5,2,1,3,1.6c0.1,0.1,0.1,0.2,0.1,0.3C259,236,258.9,236.1,258.9,236.1z M252.3,234.5
		c-0.1,0-0.1,0-0.2-0.1c-0.1-0.1-0.1-0.2,0-0.3c0.9-0.7,1.8-1.3,2.8-1.9c0.1-0.1,0.2,0,0.3,0.1c0.1,0.1,0,0.2-0.1,0.3
		c-1,0.5-1.9,1.2-2.7,1.8C252.4,234.5,252.4,234.5,252.3,234.5z M236.7,234.4c-0.1,0-0.1,0-0.2-0.1c-0.1-0.1,0-0.2,0.1-0.3
		c1-0.6,2-1,3.1-1.4c0.1,0,0.2,0,0.3,0.1c0,0.1,0,0.2-0.1,0.3c-1,0.4-2,0.8-3,1.4C236.8,234.4,236.7,234.4,236.7,234.4z M287,234
		C287,234,287,234,287,234c-1.1-0.5-2.1-1-3.1-1.5c-0.1-0.1-0.2-0.2-0.1-0.3c0.1-0.1,0.2-0.2,0.3-0.1c1,0.4,2,1,3,1.5
		c0.1,0.1,0.1,0.2,0.1,0.3C287.2,234,287.1,234,287,234z M252.8,233.3C252.8,233.3,252.8,233.3,252.8,233.3
		c-1.1-0.4-2.2-0.6-3.3-0.8c-0.1,0-0.2-0.1-0.2-0.3c0-0.1,0.1-0.2,0.3-0.2c1.1,0.2,2.2,0.5,3.3,0.8c0.1,0,0.2,0.2,0.1,0.3
		C253,233.2,252.9,233.3,252.8,233.3z M243,232.2c-0.1,0-0.2-0.1-0.2-0.2c0-0.1,0.1-0.2,0.2-0.2c1.1-0.2,2.2-0.2,3.4-0.2
		c0.1,0,0.2,0.1,0.2,0.2c0,0.1-0.1,0.2-0.2,0.2C245.1,232,244.1,232.1,243,232.2C243,232.2,243,232.2,243,232.2z M281,231.3
		C280.9,231.3,280.9,231.3,281,231.3c-1.1-0.4-2.2-0.7-3.2-1c-0.1,0-0.2-0.1-0.1-0.3c0-0.1,0.1-0.2,0.3-0.1c1.1,0.3,2.2,0.6,3.2,1
		c0.1,0,0.2,0.2,0.1,0.3C281.1,231.3,281,231.3,281,231.3z M258.1,231.2c-0.1,0-0.2-0.1-0.2-0.1c0-0.1,0-0.2,0.1-0.3
		c1-0.4,2.1-0.8,3.2-1.1c0.1,0,0.2,0,0.3,0.1c0,0.1,0,0.2-0.1,0.3C260.2,230.4,259.2,230.8,258.1,231.2
		C258.2,231.2,258.1,231.2,258.1,231.2z M274.5,229.7C274.5,229.7,274.5,229.7,274.5,229.7c-1.1-0.2-2.2-0.3-3.3-0.4
		c-0.1,0-0.2-0.1-0.2-0.2s0.1-0.2,0.2-0.2c1.1,0.1,2.2,0.2,3.3,0.4c0.1,0,0.2,0.1,0.2,0.2C274.7,229.6,274.6,229.7,274.5,229.7z
		 M264.5,229.5c-0.1,0-0.2-0.1-0.2-0.2c0-0.1,0.1-0.2,0.2-0.2c1.1-0.2,2.2-0.3,3.3-0.3c0.1,0,0.2,0.1,0.2,0.2c0,0.1-0.1,0.2-0.2,0.2
		C266.8,229.3,265.7,229.3,264.5,229.5C264.6,229.5,264.5,229.5,264.5,229.5z"/>
	<path class="st3" d="M231.5,255h-9.2c-0.5,0-0.9-0.4-0.9-0.9v-5.4c0-0.5,0.4-0.9,0.9-0.9h9.2c0.5,0,0.9,0.4,0.9,0.9v5.4
		C232.4,254.6,232,255,231.5,255z"/>
	<path class="st3" d="M232.3,254.4l-5.4-3.3l-5.4,3.3c0.1,0.3,0.5,0.6,0.8,0.6h9.2C231.9,255,232.2,254.7,232.3,254.4z"/>
	<path class="st3" d="M221.5,248.3l5.4,3.7l5.4-3.7c-0.1-0.3-0.5-0.6-0.8-0.6h-9.2C222,247.8,221.7,248,221.5,248.3z"/>
	<path class="st4" d="M226.9,252.1l-5.5-3.7l0.1-0.1l5.4,3.7l5.4-3.6l0.1,0.1L226.9,252.1z"/>
	<path class="st3" d="M406.7,273.8h-9.2c-0.5,0-0.9-0.4-0.9-0.9v-5.4c0-0.5,0.4-0.9,0.9-0.9h9.2c0.5,0,0.9,0.4,0.9,0.9v5.4
		C407.6,273.4,407.2,273.8,406.7,273.8z"/>
	<path class="st3" d="M407.6,273.3l-5.4-3.3l-5.4,3.3c0.1,0.3,0.5,0.6,0.8,0.6h9.2C407.1,273.8,407.4,273.6,407.6,273.3z"/>
	<path class="st3" d="M396.7,267.2l5.4,3.7l5.4-3.7c-0.1-0.3-0.5-0.6-0.8-0.6h-9.2C397.2,266.7,396.9,266.9,396.7,267.2z"/>
	<path class="st3" d="M402.2,271l-5.5-3.7l0.1-0.1l5.4,3.6l5.4-3.6l0.1,0.1L402.2,271z"/>
	<path class="st3" d="M444.1,395.4h-9.2c-0.5,0-0.9-0.4-0.9-0.9v-5.4c0-0.5,0.4-0.9,0.9-0.9h9.2c0.5,0,0.9,0.4,0.9,0.9v5.4
		C445,395,444.6,395.4,444.1,395.4z"/>
	<path class="st3" d="M444.9,394.8l-5.4-3.3l-5.4,3.3c0.1,0.3,0.5,0.6,0.8,0.6h9.2C444.5,395.4,444.8,395.2,444.9,394.8z"/>
	<path class="st3" d="M434.1,388.8l5.4,3.7l5.4-3.7c-0.1-0.3-0.5-0.6-0.8-0.6h-9.2C434.6,388.2,434.3,388.4,434.1,388.8z"/>
	<path class="st3" d="M439.5,392.5l-5.5-3.7l0.1-0.1l5.4,3.7l5.4-3.7l0.1,0.1L439.5,392.5z"/>
	<path class="st3" d="M246.8,332.2h-9.2c-0.5,0-0.9-0.4-0.9-0.9V326c0-0.5,0.4-0.9,0.9-0.9h9.2c0.5,0,0.9,0.4,0.9,0.9v5.4
		C247.7,331.8,247.3,332.2,246.8,332.2z"/>
	<path class="st3" d="M247.6,331.7l-5.4-3.3l-5.4,3.3c0.1,0.3,0.5,0.6,0.8,0.6h9.2C247.1,332.2,247.5,332,247.6,331.7z"/>
	<path class="st3" d="M236.8,325.6l5.4,3.7l5.4-3.7c-0.1-0.3-0.5-0.6-0.8-0.6h-9.2C237.2,325.1,236.9,325.3,236.8,325.6z"/>
	<path class="st4" d="M242.2,329.4l-5.5-3.7l0.1-0.1l5.4,3.7l5.4-3.6l0.1,0.1L242.2,329.4z"/>
</g>
</svg>
