<?xml version="1.0" encoding="utf-8"?>
<!-- Generator: Adobe Illustrator 25.2.1, SVG Export Plug-In . SVG Version: 6.00 Build 0)  -->
<svg version="1.1" id="Layer_1" xmlns="http://www.w3.org/2000/svg" xmlns:xlink="http://www.w3.org/1999/xlink" x="0px" y="0px"
	 width="362.8px" height="436px" viewBox="0 0 362.8 436" style="enable-background:new 0 0 362.8 436;" xml:space="preserve">
<style type="text/css">
	.st0{fill:#5E93FF;}
	.st1{opacity:0.3;}
	.st2{opacity:0.3;fill:#91B3FA;enable-background:new    ;}
	.st3{fill:#91B3FA;}
	.st4{fill:#BDD0FB;}
	.st5{fill:#D1DBFF;}
	.st6{fill:#3461FF;}
	.st7{opacity:0.53;}
	.st8{opacity:0.53;fill:#FFFFFF;enable-background:new    ;}
	.st9{fill:#0D51D9;}
	.st10{opacity:0.57;fill:#E5ECFE;enable-background:new    ;}
	.st11{opacity:0.44;fill:#FFFFFF;enable-background:new    ;}
	.st12{fill:#FFFFFF;}
	.st13{fill:url(#SVGID_1_);}
	.st14{fill:url(#SVGID_2_);}
	.st15{fill:url(#SVGID_3_);}
	.st16{fill:url(#SVGID_4_);}
	.st17{fill:url(#SVGID_5_);}
	.st18{fill:url(#SVGID_6_);}
	.st19{opacity:0.48;}
	.st20{opacity:0.48;fill:#FFFFFF;enable-background:new    ;}
	.st21{fill:url(#SVGID_7_);}
	.st22{opacity:0.5;fill:#FFFFFF;enable-background:new    ;}
	.st23{fill:url(#SVGID_8_);}
	.st24{opacity:0.91;fill:#FFFFFF;enable-background:new    ;}
	.st25{fill:url(#SVGID_9_);}
	.st26{fill:url(#SVGID_10_);}
	.st27{fill:url(#SVGID_11_);}
	.st28{fill:#6691E7;}
	.st29{fill:url(#SVGID_12_);}
	.st30{fill:url(#SVGID_13_);}
	.st31{fill:url(#SVGID_14_);}
	.st32{fill:url(#SVGID_15_);}
	.st33{fill:url(#SVGID_16_);}
	.st34{fill:url(#SVGID_17_);}
	.st35{fill:url(#SVGID_18_);}
	.st36{fill:url(#SVGID_19_);}
	.st37{fill:url(#SVGID_20_);}
	.st38{fill:url(#SVGID_21_);}
	.st39{fill:url(#SVGID_22_);}
	.st40{fill:url(#SVGID_23_);}
	.st41{fill:url(#SVGID_24_);}
	.st42{fill:url(#SVGID_25_);}
</style>
<g>
	<path class="st0" d="M269.4,391.9c-15,15.9-35,27.5-58.9,32.2c-55.1,10.8-129.6-5.7-146.4-66.4c-10.2-37-3.1-80.3,17.9-112.4
		c23.1-35.3,64.7-59.1,107.4-57.4c41.7,1.6,82.6,34.5,99.9,71C311.2,305,301.5,358.1,269.4,391.9z"/>
	<g class="st1">
		<path class="st2" d="M123.4,213.6c-0.4,0.3-1,0.1-1.2-0.3c-0.5-0.8-1-1.6-1.6-2.4c-0.3-0.4-0.2-1,0.2-1.3c0,0,0,0,0,0
			c0.4-0.3,1-0.2,1.3,0.2c0.6,0.8,1.2,1.7,1.7,2.6C123.9,212.8,123.8,213.3,123.4,213.6C123.5,213.6,123.4,213.6,123.4,213.6z
			 M117.5,207.3c-0.7-0.7-1.4-1.4-2.1-2c-0.4-0.3-0.4-0.9-0.1-1.3s0.9-0.4,1.3-0.1c0.8,0.7,1.5,1.4,2.2,2.1c0.3,0.4,0.3,0.9,0,1.3
			c0,0-0.1,0-0.1,0.1C118.3,207.6,117.8,207.6,117.5,207.3z M111.6,202.4c-0.8-0.5-1.7-1-2.5-1.5c-0.4-0.2-0.6-0.8-0.4-1.2
			c0.2-0.4,0.8-0.6,1.2-0.4c0.9,0.5,1.8,1,2.6,1.6c0.4,0.3,0.5,0.8,0.3,1.2c-0.1,0.1-0.1,0.2-0.2,0.2
			C112.4,202.6,111.9,202.6,111.6,202.4z M104.8,198.9c-0.9-0.3-1.8-0.6-2.8-0.9c-0.5-0.1-0.8-0.6-0.6-1.1c0.1-0.5,0.6-0.8,1.1-0.6
			c1,0.3,2,0.6,2.9,0.9c0.5,0.2,0.7,0.7,0.5,1.2c-0.1,0.2-0.2,0.3-0.3,0.4C105.4,199,105.1,199,104.8,198.9z M97.4,197.1
			c-1-0.1-1.9-0.2-2.9-0.3c-0.5,0-0.9-0.4-0.9-0.9c0-0.5,0.4-0.9,0.9-0.9c1,0,2.1,0.1,3.1,0.3c0.5,0.1,0.8,0.5,0.8,1
			c0,0.2-0.2,0.5-0.3,0.6C97.8,197.1,97.6,197.1,97.4,197.1z M89.7,196.9c-1,0.1-1.9,0.2-2.9,0.4c-0.5,0.1-1-0.2-1-0.7
			c-0.1-0.5,0.2-1,0.7-1c1-0.2,2-0.3,3-0.4c0.5,0,0.9,0.3,1,0.8c0,0.3-0.1,0.6-0.4,0.8C90.1,196.9,89.9,196.9,89.7,196.9z
			 M61.6,215.1c-0.4-0.2-0.6-0.8-0.4-1.2c0.5-0.9,1-1.8,1.6-2.6c0.3-0.4,0.8-0.5,1.3-0.3c0.4,0.3,0.5,0.8,0.3,1.2
			c-0.5,0.8-1,1.7-1.5,2.5c-0.1,0.1-0.2,0.2-0.2,0.3C62.3,215.2,61.9,215.2,61.6,215.1z M82.2,198.5c-0.9,0.3-1.8,0.6-2.7,1
			c-0.5,0.2-1,0-1.2-0.5c-0.2-0.5,0-1,0.5-1.2c0.9-0.4,1.9-0.8,2.9-1.1c0.5-0.2,1,0.1,1.1,0.6c0.1,0.4,0,0.8-0.3,1
			C82.4,198.4,82.3,198.5,82.2,198.5z M65.9,208.5c-0.4-0.3-0.4-0.9-0.1-1.3c0.7-0.8,1.4-1.5,2.1-2.2c0.4-0.3,0.9-0.3,1.3,0
			c0.3,0.4,0.3,0.9,0,1.3c-0.7,0.7-1.4,1.4-2,2.1c0,0-0.1,0.1-0.1,0.1C66.7,208.8,66.2,208.8,65.9,208.5z M75.3,201.7
			c-0.8,0.5-1.7,1-2.4,1.6c-0.4,0.3-1,0.2-1.3-0.2c-0.3-0.4-0.2-1,0.2-1.2c0,0,0,0,0,0c0.8-0.6,1.7-1.2,2.6-1.7
			c0.4-0.3,1-0.1,1.2,0.3C75.8,200.8,75.7,201.3,75.3,201.7C75.3,201.6,75.3,201.6,75.3,201.7z"/>
		<path class="st2" d="M60.1,220.8c0.1-0.1,0.2-0.3,0.3-0.4c0.1-0.4,0.3-0.9,0.5-1.3c0.2-0.5-0.1-1-0.5-1.2c-0.5-0.2-1,0.1-1.2,0.5
			c-0.2,0.5-0.3,0.9-0.5,1.4c-0.2,0.5,0.1,1,0.6,1.1C59.5,221,59.8,221,60.1,220.8z"/>
	</g>
	<g class="st1">
		<path class="st2" d="M62.4,248.2c0.3-0.3,0.5-0.7,0.2-1.1c-0.2-0.4-0.4-0.8-0.6-1.3c-0.2-0.5-0.8-0.6-1.2-0.4
			c-0.5,0.2-0.6,0.8-0.4,1.2c0.2,0.4,0.4,0.9,0.7,1.3c0.2,0.4,0.8,0.6,1.2,0.4C62.4,248.2,62.4,248.2,62.4,248.2z"/>
		<path class="st2" d="M113.1,260.7c-0.4,0.3-1,0.2-1.3-0.2c-0.3-0.4-0.2-1,0.2-1.3c0.8-0.5,1.6-1.1,2.3-1.7c0.4-0.3,1-0.3,1.3,0.1
			c0.3,0.4,0.3,1-0.1,1.3c-0.3,0.3-0.6,0.5-1,0.8C114.1,260,113.6,260.4,113.1,260.7z M117.9,255.6c-0.4-0.3-0.4-0.9,0-1.3
			c0.7-0.7,1.3-1.4,1.9-2.2c0.3-0.4,0.9-0.5,1.3-0.2c0.4,0.3,0.5,0.9,0.2,1.3c-0.6,0.8-1.3,1.6-2,2.3c0,0-0.1,0.1-0.1,0.1
			C118.7,255.9,118.2,255.9,117.9,255.6z M108.9,263.2c-0.9,0.4-1.8,0.9-2.8,1.2c-0.5,0.2-1,0-1.2-0.5c-0.2-0.5,0-1,0.5-1.2
			c0.9-0.4,1.8-0.7,2.6-1.2c0.4-0.2,1,0,1.2,0.4c0.2,0.4,0.1,0.9-0.3,1.1C109,263.1,109,263.2,108.9,263.2z M122.7,249.6
			c-0.4-0.2-0.6-0.8-0.3-1.2c0.5-0.8,0.9-1.7,1.3-2.5c0.2-0.5,0.8-0.6,1.2-0.4c0.5,0.2,0.6,0.8,0.4,1.2c-0.4,0.9-0.9,1.8-1.4,2.7
			c-0.1,0.1-0.1,0.2-0.2,0.3C123.4,249.7,123,249.7,122.7,249.6z M101.5,265.9c-1,0.2-2,0.4-3,0.6c-0.5,0.1-1-0.3-1-0.7
			c-0.1-0.5,0.3-1,0.7-1c0.9-0.2,1.9-0.3,2.8-0.6c0.5-0.1,1,0.2,1.1,0.7c0.1,0.4-0.1,0.7-0.3,0.9
			C101.7,265.8,101.6,265.9,101.5,265.9z M93.6,267c-1,0-2,0-3-0.1c-0.5,0-0.9-0.5-0.8-1c0-0.5,0.5-0.9,1-0.8c1,0.1,1.9,0.1,2.9,0.1
			c0.5,0,0.9,0.4,0.9,0.9c0,0.3-0.1,0.6-0.4,0.7C94,266.9,93.8,267,93.6,267z M85.7,266.2c-1-0.2-2-0.4-2.9-0.7
			c-0.5-0.1-0.8-0.6-0.6-1.1c0.1-0.5,0.6-0.8,1.1-0.6c0.9,0.3,1.9,0.5,2.8,0.7c0.5,0.1,0.8,0.6,0.7,1.1c0,0.2-0.2,0.4-0.3,0.5
			C86.2,266.2,86,266.3,85.7,266.2z M78.2,263.8c-0.9-0.4-1.8-0.9-2.7-1.3c-0.4-0.2-0.6-0.8-0.4-1.2c0.2-0.4,0.8-0.6,1.2-0.4
			c0.8,0.5,1.7,0.9,2.6,1.3c0.5,0.2,0.7,0.7,0.5,1.2c-0.1,0.1-0.2,0.3-0.3,0.3C78.8,263.9,78.5,264,78.2,263.8z M71.3,259.8
			c-0.8-0.6-1.6-1.2-2.3-1.9c-0.4-0.3-0.4-0.9-0.1-1.3c0.3-0.4,0.9-0.4,1.3-0.1c0.7,0.6,1.5,1.2,2.2,1.8c0.4,0.3,0.5,0.9,0.2,1.3
			c-0.1,0.1-0.1,0.1-0.2,0.2C72.1,260.1,71.7,260.1,71.3,259.8z M65.6,254.4c-0.5-0.6-1-1.1-1.4-1.7c-0.2-0.2-0.3-0.4-0.5-0.6
			c-0.3-0.4-0.2-1,0.2-1.3c0.4-0.3,1-0.2,1.3,0.2c0.2,0.2,0.3,0.4,0.5,0.6c0.4,0.6,0.9,1.1,1.3,1.6c0.3,0.4,0.3,1-0.1,1.3
			c0,0,0,0,0,0C66.4,254.8,65.9,254.8,65.6,254.4z"/>
		<path class="st2" d="M126.8,242.4c0.1-0.1,0.3-0.3,0.3-0.4c0.2-0.5,0.3-0.9,0.4-1.4c0.1-0.5-0.2-1-0.6-1.1c-0.5-0.1-1,0.2-1.1,0.6
			c-0.1,0.5-0.3,0.9-0.4,1.3c-0.2,0.5,0.1,1,0.6,1.1C126.3,242.7,126.6,242.6,126.8,242.4z"/>
	</g>
	<path class="st3" d="M119.8,228.7c0-0.2-0.1-0.3-0.3-0.4l-4.8-1.8c-0.5-2.3-1.3-4.6-2.5-6.8l2.4-4.5c0.1-0.2,0.1-0.4-0.1-0.5
		l-4.2-4.5c-0.1-0.1-0.3-0.2-0.5-0.1l-4.7,2.1c-2-1.4-4.3-2.4-6.6-3l-1.5-4.9c-0.1-0.2-0.2-0.3-0.4-0.3l-6.1-0.2
		c-0.2,0-0.3,0.1-0.4,0.3l-1.8,4.8c-2.3,0.5-4.6,1.3-6.8,2.5l-4.5-2.4c-0.2-0.1-0.4-0.1-0.5,0.1l-4.5,4.2c-0.1,0.1-0.2,0.3-0.1,0.5
		l2.1,4.7c-1.4,2-2.4,4.3-3,6.6l-4.9,1.5c-0.2,0.1-0.3,0.2-0.3,0.4l-0.2,6.1c0,0.2,0.1,0.3,0.3,0.4l4.8,1.8c0.5,2.3,1.3,4.6,2.5,6.8
		l-2.4,4.5c-0.1,0.2-0.1,0.4,0.1,0.5l4.2,4.5c0.1,0.1,0.3,0.2,0.5,0.1l4.7-2.1c2,1.4,4.3,2.4,6.6,3l1.5,4.9c0.1,0.2,0.2,0.3,0.4,0.3
		l6.1,0.2c0.2,0,0.3-0.1,0.4-0.3l1.8-4.8c2.3-0.5,4.6-1.3,6.8-2.5l4.5,2.4c0.2,0.1,0.4,0.1,0.5-0.1l4.5-4.2c0.1-0.1,0.2-0.3,0.1-0.5
		l-2.1-4.7c1.4-2,2.4-4.3,3-6.6l4.9-1.5c0.2-0.1,0.3-0.2,0.3-0.4L119.8,228.7z"/>
	<path class="st4" d="M95.7,236.2c-3,1.6-6.7,0.5-8.4-2.4c-0.8-1.4-1-3.1-0.5-4.7c0.5-1.6,1.5-2.9,3-3.7c3-1.6,6.7-0.5,8.4,2.4
		c1.5,2.7,0.7,6.1-1.7,7.9C96.2,235.9,95.9,236,95.7,236.2z M88.2,229.4c-0.4,1.2-0.2,2.5,0.4,3.6c1.3,2.3,4.1,3.1,6.4,1.9
		c2.3-1.3,3.1-4.1,1.9-6.4c-1.3-2.3-4.1-3.1-6.4-1.9c-0.2,0.1-0.4,0.2-0.6,0.4C89,227.6,88.4,228.5,88.2,229.4z"/>
	<path class="st4" d="M101.7,242.9c0.4-0.3,0.8-0.6,1.2-1c0.1-0.1,0.2-0.2,0.4-0.3c0.6-0.6,1.1-1.2,1.6-1.8c0,0,0,0,0,0
		c0,0,0-0.1,0.1-0.1c0-0.1,0.1-0.1,0.1-0.2c0.1-0.1,0.1-0.3,0-0.4c0,0-0.1-0.1-0.1-0.1c-0.2-0.1-0.4-0.1-0.5,0.1
		c-0.6,0.8-1.3,1.6-2,2.3c-3.8,3.5-8.9,4.6-13.5,3.4c-2.6-0.7-5-2.1-6.9-4.1c-0.3-0.4-0.7-0.7-1-1.1c-2-2.6-3-5.9-2.9-9.2
		c0.1-3.9,1.8-7.4,4.6-10.1c5.8-5.4,15-5.1,20.5,0.7c0.3,0.4,0.6,0.7,0.9,1.1c1.3,1.7,2.2,3.6,2.6,5.7c0,0.1,0,0.1,0.1,0.1
		c0.1,0.1,0.2,0.2,0.4,0.1c0.2,0,0.3-0.2,0.3-0.4c-0.5-2.2-1.4-4.2-2.7-6c-0.3-0.4-0.6-0.8-1-1.2c-5.7-6.1-15.3-6.5-21.5-0.8
		c-3,2.8-4.7,6.5-4.8,10.6c-0.1,3.5,1,6.9,3.1,9.7c0.3,0.4,0.6,0.8,1,1.2c2.8,3,6.5,4.7,10.6,4.8C95.5,246.1,98.9,245,101.7,242.9z"
		/>
	<g class="st1">
		<path class="st2" d="M162.3,213.9c0.2-0.1,0.3-0.4,0.2-0.6c-0.2-0.4-0.3-0.9-0.5-1.3c-0.1-0.3-0.5-0.4-0.7-0.3
			c-0.3,0.1-0.4,0.5-0.3,0.7c0.2,0.4,0.4,0.8,0.5,1.3c0.1,0.3,0.4,0.4,0.7,0.3C162.2,214,162.3,214,162.3,213.9z"/>
		<path class="st2" d="M160.4,210.1c-0.3,0.2-0.6,0.1-0.8-0.2c-0.4-0.7-0.8-1.3-1.3-1.9c-0.1-0.1-0.2-0.3-0.3-0.4
			c-0.2-0.2-0.2-0.6,0.1-0.8c0.2-0.2,0.6-0.2,0.8,0.1c0.1,0.1,0.2,0.3,0.3,0.4c0.5,0.6,1,1.3,1.4,2
			C160.7,209.6,160.7,209.9,160.4,210.1C160.4,210.1,160.4,210.1,160.4,210.1z M156.1,205.5c-0.7-0.7-1.4-1.3-2.1-1.9
			c-0.2-0.2-0.3-0.5-0.1-0.8c0.2-0.2,0.5-0.3,0.8-0.1c0.8,0.6,1.5,1.3,2.2,1.9c0.2,0.2,0.2,0.6,0,0.8c0,0,0,0-0.1,0.1
			C156.6,205.7,156.3,205.7,156.1,205.5z M151.7,202.1c-0.8-0.5-1.7-0.9-2.5-1.3c-0.3-0.1-0.4-0.5-0.3-0.7c0.1-0.3,0.5-0.4,0.7-0.3
			c0.9,0.4,1.8,0.8,2.6,1.3c0.3,0.2,0.4,0.5,0.2,0.8c0,0.1-0.1,0.1-0.1,0.2C152.1,202.2,151.9,202.2,151.7,202.1z M146.5,199.8
			c-0.9-0.3-1.8-0.5-2.8-0.6c-0.3-0.1-0.5-0.3-0.5-0.6c0.1-0.3,0.3-0.5,0.6-0.5c1,0.2,1.9,0.4,2.9,0.7c0.3,0.1,0.5,0.4,0.4,0.7
			c0,0.1-0.1,0.2-0.2,0.3C146.8,199.9,146.7,199.9,146.5,199.8z M140.9,198.9c-0.9,0-1.9,0-2.8,0.1c-0.3,0-0.6-0.2-0.6-0.5
			c0-0.3,0.2-0.6,0.5-0.6c1-0.1,2-0.1,3-0.1c0.3,0,0.6,0.3,0.5,0.6c0,0.2-0.1,0.3-0.2,0.4C141.2,198.9,141,198.9,140.9,198.9z
			 M135.3,199.4c-0.9,0.2-1.8,0.4-2.7,0.7c-0.3,0.1-0.6-0.1-0.7-0.3c-0.1-0.3,0.1-0.6,0.3-0.7c0.9-0.3,1.9-0.6,2.9-0.8
			c0.3-0.1,0.6,0.1,0.7,0.4c0,0.2,0,0.4-0.2,0.6C135.5,199.3,135.4,199.4,135.3,199.4z M130,201.2c-0.8,0.4-1.7,0.9-2.5,1.4
			c-0.3,0.2-0.6,0.1-0.8-0.2c-0.2-0.3-0.1-0.6,0.2-0.8c0.8-0.5,1.7-1,2.6-1.5c0.3-0.1,0.6,0,0.7,0.3
			C130.3,200.7,130.3,201,130,201.2C130,201.2,130,201.2,130,201.2z M122.4,206.3c-0.2-0.2-0.2-0.6,0-0.8c0.6-0.6,1.2-1.2,1.8-1.8
			c0.1-0.1,0.2-0.2,0.3-0.3c0.2-0.2,0.6-0.2,0.8,0.1c0.2,0.2,0.2,0.6-0.1,0.8c-0.1,0.1-0.2,0.2-0.3,0.2c-0.6,0.5-1.2,1.1-1.8,1.7
			c0,0,0,0-0.1,0.1C122.9,206.5,122.6,206.5,122.4,206.3z"/>
	</g>
	<g class="st1">
		<path class="st2" d="M154.3,241.2c-0.8,0.6-1.6,1.1-2.4,1.6c-0.3,0.2-0.6,0.1-0.8-0.2c-0.2-0.3-0.1-0.6,0.2-0.8
			c0.8-0.5,1.6-1,2.3-1.5c0.2-0.2,0.6-0.1,0.8,0.1C154.6,240.7,154.5,241,154.3,241.2C154.3,241.2,154.3,241.2,154.3,241.2z
			 M155.7,239.3c-0.2-0.2-0.2-0.6,0-0.8c0.7-0.6,1.3-1.3,1.9-2c0.2-0.2,0.6-0.3,0.8-0.1c0.2,0.2,0.3,0.6,0.1,0.8
			c-0.6,0.7-1.3,1.5-2,2.1c0,0,0,0,0,0C156.2,239.5,155.9,239.5,155.7,239.3z M149.2,244.1c-0.9,0.4-1.8,0.7-2.8,1
			c-0.3,0.1-0.6-0.1-0.7-0.4c-0.1-0.3,0.1-0.6,0.4-0.7c0.9-0.2,1.8-0.6,2.6-0.9c0.3-0.1,0.6,0,0.7,0.3c0.1,0.2,0,0.5-0.2,0.7
			C149.3,244,149.3,244,149.2,244.1z M159.5,235c-0.3-0.2-0.3-0.5-0.2-0.8c0.5-0.8,1-1.6,1.4-2.4c0.1-0.3,0.5-0.4,0.7-0.3
			c0.3,0.1,0.4,0.5,0.3,0.7c-0.4,0.9-0.9,1.7-1.4,2.5c0,0.1-0.1,0.1-0.1,0.1C159.9,235.1,159.7,235.2,159.5,235z M143.6,245.6
			c-1,0.1-1.9,0.2-2.9,0.3c-0.3,0-0.6-0.2-0.6-0.5c0-0.3,0.2-0.6,0.5-0.6c0.9,0,1.9-0.1,2.8-0.2c0.3,0,0.6,0.2,0.6,0.5
			c0,0.2-0.1,0.4-0.2,0.5C143.8,245.5,143.7,245.6,143.6,245.6z M137.8,245.8c-1-0.1-1.9-0.2-2.9-0.4c-0.3-0.1-0.5-0.4-0.4-0.7
			c0.1-0.3,0.4-0.5,0.7-0.4c0.9,0.2,1.8,0.3,2.7,0.4c0.3,0,0.5,0.3,0.5,0.6c0,0.2-0.1,0.3-0.2,0.4
			C138.1,245.7,137.9,245.8,137.8,245.8z M132.1,244.5c-0.9-0.3-1.8-0.7-2.7-1.1c-0.3-0.1-0.4-0.5-0.3-0.7c0.1-0.3,0.5-0.4,0.7-0.3
			c0.8,0.4,1.7,0.8,2.6,1.1c0.3,0.1,0.4,0.4,0.3,0.7c0,0.1-0.1,0.2-0.2,0.3C132.5,244.6,132.3,244.6,132.1,244.5z"/>
		<path class="st2" d="M162.6,229.9c0.1-0.1,0.2-0.2,0.2-0.3c0.2-0.5,0.3-0.9,0.4-1.4c0.1-0.3-0.1-0.6-0.4-0.7
			c-0.3-0.1-0.6,0.1-0.7,0.4c-0.1,0.4-0.2,0.9-0.4,1.3c-0.1,0.3,0.1,0.6,0.3,0.7C162.3,230,162.4,230,162.6,229.9z"/>
	</g>
	<path class="st3" d="M158,220.3c0-0.1-0.1-0.2-0.2-0.3l-3.2-1.2c-0.3-1.6-0.9-3.1-1.7-4.5l1.6-3c0.1-0.1,0-0.2,0-0.3l-2.8-3
		c-0.1-0.1-0.2-0.1-0.3-0.1l-3.1,1.4c-1.4-0.9-2.9-1.6-4.4-2l-1-3.3c0-0.1-0.1-0.2-0.3-0.2l-4.1-0.2c-0.1,0-0.2,0.1-0.3,0.2
		l-1.2,3.2c-1.6,0.3-3.1,0.9-4.5,1.7l-3-1.6c-0.1-0.1-0.2,0-0.3,0l-3,2.8c-0.1,0.1-0.1,0.2-0.1,0.3l1.4,3.1c-0.9,1.4-1.6,2.9-2,4.4
		l-3.3,1c-0.1,0-0.2,0.1-0.2,0.3l-0.2,4.1c0,0.1,0.1,0.2,0.2,0.3l3.2,1.2c0.3,1.6,0.9,3.1,1.7,4.5l-1.6,3c-0.1,0.1,0,0.2,0,0.3
		l2.8,3c0.1,0.1,0.2,0.1,0.3,0.1l3.1-1.4c1.4,0.9,2.9,1.6,4.4,2l1,3.3c0,0.1,0.1,0.2,0.3,0.2l4.1,0.2c0.1,0,0.2-0.1,0.3-0.2l1.2-3.2
		c1.6-0.3,3.1-0.9,4.5-1.7l3,1.6c0.1,0.1,0.2,0,0.3,0l3-2.8c0.1-0.1,0.1-0.2,0.1-0.3l-1.4-3.1c0.9-1.4,1.6-2.9,2-4.4l3.3-1
		c0.1,0,0.2-0.1,0.2-0.3L158,220.3z"/>
	<path class="st4" d="M141.9,225.4c-1,0.5-2.1,0.7-3.2,0.4c-1.1-0.3-2-1-2.5-2c-1.1-2-0.4-4.6,1.7-5.7c2-1.1,4.6-0.4,5.7,1.7
		c0.5,1,0.7,2.1,0.4,3.2c-0.3,0.9-0.8,1.6-1.5,2.2C142.3,225.2,142.1,225.3,141.9,225.4z M137.2,223.2c0.4,0.7,1.1,1.3,1.8,1.5
		c0.8,0.2,1.6,0.1,2.4-0.3c0.7-0.4,1.3-1.1,1.5-1.8c0.2-0.8,0.1-1.6-0.3-2.4c-0.8-1.5-2.7-2-4.2-1.2c-0.1,0.1-0.3,0.2-0.4,0.2
		C136.8,220.1,136.4,221.8,137.2,223.2z"/>
	<path class="st4" d="M146.1,230c0.3-0.2,0.6-0.4,0.8-0.7c0.5-0.5,1-1,1.4-1.6c0,0,0-0.1,0.1-0.1c0.1-0.2,0.1-0.5,0-0.7
		c0,0-0.1-0.1-0.1-0.1c-0.2-0.2-0.6-0.1-0.8,0.1c-0.4,0.5-0.8,1-1.3,1.5c0,0-0.1,0.1-0.1,0.1c-1.2,1.1-2.5,1.8-4,2.2
		c-0.8,0.2-1.7,0.3-2.5,0.3c0,0,0,0,0,0c0,0,0,0-0.1,0c-2.5-0.1-4.8-1.2-6.5-3c-0.2-0.2-0.4-0.5-0.6-0.7c-1.3-1.7-2-3.8-1.9-6
		c0.1-2.5,1.2-4.8,3-6.5c1.8-1.7,4.2-2.6,6.7-2.5c2.5,0.1,4.8,1.2,6.5,3c0.2,0.2,0.4,0.5,0.6,0.7c0.8,1.1,1.4,2.4,1.7,3.7
		c0,0.1,0.1,0.2,0.1,0.2c0.1,0.2,0.3,0.3,0.6,0.2c0.3-0.1,0.5-0.4,0.4-0.7c-0.3-1.5-1-2.9-1.9-4.1c-0.2-0.3-0.4-0.6-0.7-0.8
		c-1.9-2.1-4.5-3.2-7.3-3.3c-2.8-0.1-5.5,0.9-7.5,2.8c-2.1,1.9-3.2,4.5-3.3,7.3c-0.1,2.4,0.7,4.8,2.1,6.7c0.2,0.3,0.4,0.6,0.7,0.8
		C135.8,232.8,141.9,233.3,146.1,230z"/>
	<path class="st5" d="M158.2,377.9l-5.4,37.5h63.1l-8.2-37.5H158.2z"/>
	<path class="st5" d="M52.2,257.8v111.7c0,9.2,7.3,16.7,16.5,16.9c40.8,1,183.5,3.6,222.3,3c6.7-0.1,12.1-5.4,12.3-12.1
		c0.7-26,2-88.3-2.5-117.3c-1-6.1-6.1-10.7-12.3-10.9c-34.2-1.1-185.4-4.6-224.3-3.7C57.5,245.6,52.2,251.1,52.2,257.8z"/>
	<path class="st3" d="M59.2,257.2v106.1c0,5.4,4.3,9.7,9.7,9.8l216.6,2.7c5.3,0.1,9.7-4.2,9.7-9.5l0.4-105.2c0-3.8-3-6.9-6.8-7
		l-221.7-4.5C62.7,249.5,59.2,253,59.2,257.2z"/>
	<path class="st3" d="M296.7,380.2l-237.6-4.1c-0.2,0-0.3-0.1-0.3-0.3c0-0.2,0.1-0.3,0.3-0.3l237.6,4.1c0.2,0,0.3,0.1,0.3,0.3
		C297.1,380,296.9,380.2,296.7,380.2z"/>
	<path class="st3" d="M180.3,385.1c-1.5,0-2.8-1.2-2.8-2.8c0-1.5,1.2-2.8,2.8-2.8c1.5,0,2.8,1.2,2.8,2.8
		C183.1,383.9,181.8,385.1,180.3,385.1z M180.3,380.2c-1.2,0-2.2,1-2.2,2.2s1,2.2,2.2,2.2s2.2-1,2.2-2.2S181.5,380.2,180.3,380.2z"
		/>
	<path class="st6" d="M229.4,425.4h-92.3c-2.5,0-4.4-1.8-3.9-3.7l1.2-4.7c0.4-1.4,1.9-2.4,3.7-2.5l89-2.8c1.9-0.1,3.6,1,4.1,2.4
		l2.1,7.5C233.8,423.6,232,425.4,229.4,425.4z"/>
	<path class="st3" d="M186.8,415.8c-0.2,0-0.3-0.1-0.3-0.3c0-0.2,0.1-0.3,0.3-0.3l3.8-0.1c0.2,0,0.3,0.1,0.3,0.3
		c0,0.2-0.1,0.3-0.3,0.3L186.8,415.8z"/>
	<path class="st3" d="M136.6,422.8C136.6,422.8,136.5,422.8,136.6,422.8c-0.2,0-0.3-0.2-0.3-0.3l0.5-3.4c0.3-1.8,1.8-3.2,3.7-3.2
		l40.5-0.6h0c0.2,0,0.3,0.1,0.3,0.3c0,0.2-0.1,0.3-0.3,0.3l-40.5,0.6c-1.6,0-2.9,1.2-3.1,2.7l-0.5,3.4
		C136.8,422.7,136.7,422.8,136.6,422.8z"/>
	<g class="st7">
		<path class="st8" d="M185.1,264.6h-5.7v100.5h5.7V264.6z"/>
		<path class="st8" d="M194.6,264.6h-5.7v100.5h5.7V264.6z"/>
		<path class="st8" d="M204.1,264.6h-5.7v100.5h5.7V264.6z"/>
		<path class="st8" d="M213.7,264.6H208v100.5h5.7V264.6z"/>
		<path class="st8" d="M223.2,264.6h-5.7v100.5h5.7V264.6z"/>
		<path class="st8" d="M232.7,264.6H227v100.5h5.7V264.6z"/>
		<path class="st8" d="M242.2,264.6h-5.7v100.5h5.7V264.6z"/>
	</g>
	<path class="st9" d="M185.1,312.5h-5.7v52.6h5.7V312.5z"/>
	<path class="st9" d="M204.5,330.6h-5.7v34.5h5.7V330.6z"/>
	<path class="st9" d="M194.8,285.9h-5.7v79.2h5.7V285.9z"/>
	<path class="st9" d="M214.2,346.1h-5.7v19h5.7V346.1z"/>
	<path class="st9" d="M223.9,296.5h-5.7v68.6h5.7V296.5z"/>
	<path class="st9" d="M233.6,308.4h-5.7v56.7h5.7V308.4z"/>
	<path class="st9" d="M243.3,321.3h-5.7v43.8h5.7V321.3z"/>
	<path class="st10" d="M85.5,260c-7.6,0-13.8,6.2-13.8,13.8c0,7.6,6.2,13.8,13.8,13.8c7.6,0,13.8-6.2,13.8-13.8S93.1,260,85.5,260z
		 M85.5,281.8c-4.4,0-7.9-3.5-7.9-7.9c0-4.4,3.5-7.9,7.9-7.9c4.4,0,7.9,3.5,7.9,7.9C93.4,278.2,89.8,281.8,85.5,281.8z"/>
	<path class="st9" d="M107.2,270.8H66.1v17.4h41.1V270.8z"/>
	<path class="st10" d="M119.2,260c-7.6,0-13.8,6.2-13.8,13.8c0,7.6,6.2,13.8,13.8,13.8c7.6,0,13.8-6.2,13.8-13.8
		C133,266.2,126.8,260,119.2,260z M119.2,281.8c-4.4,0-7.9-3.5-7.9-7.9c0-4.4,3.5-7.9,7.9-7.9c4.4,0,7.9,3.5,7.9,7.9
		C127.1,278.2,123.6,281.8,119.2,281.8z"/>
	<path class="st9" d="M141,264.1H99.9v24.1H141V264.1z"/>
	<path class="st10" d="M152.9,260c-7.6,0-13.8,6.2-13.8,13.8c0,7.6,6.2,13.8,13.8,13.8c7.6,0,13.8-6.2,13.8-13.8
		C166.8,266.2,160.6,260,152.9,260z M152.9,281.8c-4.4,0-7.9-3.5-7.9-7.9c0-4.4,3.5-7.9,7.9-7.9c4.4,0,7.9,3.5,7.9,7.9
		C160.8,278.2,157.3,281.8,152.9,281.8z"/>
	<path class="st9" d="M174.7,279.5h-41.1v8.7h41.1V279.5z"/>
	<path class="st11" d="M163.6,365.7L74.8,365c-1.7,0-3.2-1.4-3.2-3.2v-45.6c0-1.8,1.4-3.2,3.2-3.2h88.8c1.8,0,3.2,1.4,3.2,3.2v46.3
		C166.8,364.2,165.3,365.7,163.6,365.7z"/>
	<path class="st11" d="M149.8,333.6l-11.4-12.1L122,339.3l-11.5-12.5l-10.8,12.2L91.3,329l-16.4,17v12.3c0,1.6,1.3,2.9,2.9,3
		l82.6,0.6c1.6,0,3-1.3,3-3v-33.5L149.8,333.6z"/>
	<path class="st12" d="M150.2,333.3h-0.3V362h0.3V333.3z"/>
	<path class="st12" d="M138.5,321.5h-0.3v40.3h0.3V321.5z"/>
	<path class="st12" d="M122.2,339.1h-0.3v22.6h0.3V339.1z"/>
	<path class="st12" d="M110.9,327.3h-0.3v34.4h0.3V327.3z"/>
	<path class="st12" d="M99.8,338.8h-0.3v22.9h0.3V338.8z"/>
	<path class="st12" d="M91.7,328.2h-0.3v33.3h0.3V328.2z"/>
	
		<linearGradient id="SVGID_1_" gradientUnits="userSpaceOnUse" x1="324.5839" y1="372.1718" x2="314.06" y2="340.3558" gradientTransform="matrix(1 0 0 -1 -230.9792 694)">
		<stop  offset="0" style="stop-color:#FEBBBA"/>
		<stop  offset="1" style="stop-color:#FF928E"/>
	</linearGradient>
	<path class="st13" d="M91.5,330.7c1.4,0,2.5-1.1,2.5-2.5s-1.1-2.5-2.5-2.5c-1.4,0-2.5,1.1-2.5,2.5S90.1,330.7,91.5,330.7z"/>
	
		<linearGradient id="SVGID_2_" gradientUnits="userSpaceOnUse" x1="331.9972" y1="359.4283" x2="325.0645" y2="338.4693" gradientTransform="matrix(1 0 0 -1 -230.9792 694)">
		<stop  offset="0" style="stop-color:#FEBBBA"/>
		<stop  offset="1" style="stop-color:#FF928E"/>
	</linearGradient>
	<path class="st14" d="M101.3,338.8c0,0.9-0.7,1.7-1.7,1.7c-0.9,0-1.7-0.7-1.7-1.7c0-0.9,0.7-1.7,1.7-1.7
		C100.5,337.1,101.3,337.8,101.3,338.8z"/>
	
		<linearGradient id="SVGID_3_" gradientUnits="userSpaceOnUse" x1="343.1326" y1="370.8647" x2="336.2" y2="349.9057" gradientTransform="matrix(1 0 0 -1 -230.9792 694)">
		<stop  offset="0" style="stop-color:#FEBBBA"/>
		<stop  offset="1" style="stop-color:#FF928E"/>
	</linearGradient>
	<path class="st15" d="M112.4,327.3c0,0.9-0.7,1.7-1.7,1.7c-0.9,0-1.7-0.7-1.7-1.7c0-0.9,0.7-1.7,1.7-1.7
		C111.7,325.7,112.4,326.4,112.4,327.3z"/>
	
		<linearGradient id="SVGID_4_" gradientUnits="userSpaceOnUse" x1="354.3763" y1="359.0621" x2="347.4437" y2="338.1031" gradientTransform="matrix(1 0 0 -1 -230.9792 694)">
		<stop  offset="0" style="stop-color:#FEBBBA"/>
		<stop  offset="1" style="stop-color:#FF928E"/>
	</linearGradient>
	<path class="st16" d="M123.7,339.1c0,0.9-0.7,1.7-1.7,1.7c-0.9,0-1.7-0.7-1.7-1.7s0.7-1.7,1.7-1.7
		C122.9,337.5,123.7,338.2,123.7,339.1z"/>
	
		<linearGradient id="SVGID_5_" gradientUnits="userSpaceOnUse" x1="370.7443" y1="376.6457" x2="363.8117" y2="355.6867" gradientTransform="matrix(1 0 0 -1 -230.9792 694)">
		<stop  offset="0" style="stop-color:#FEBBBA"/>
		<stop  offset="1" style="stop-color:#FF928E"/>
	</linearGradient>
	<path class="st17" d="M140,321.5c0,0.9-0.7,1.7-1.7,1.7c-0.9,0-1.7-0.7-1.7-1.7c0-0.9,0.7-1.7,1.7-1.7
		C139.3,319.9,140,320.6,140,321.5z"/>
	
		<linearGradient id="SVGID_6_" gradientUnits="userSpaceOnUse" x1="382.3774" y1="364.9138" x2="375.4446" y2="343.9538" gradientTransform="matrix(1 0 0 -1 -230.9792 694)">
		<stop  offset="0" style="stop-color:#4F52FF"/>
		<stop  offset="1" style="stop-color:#4042E2"/>
	</linearGradient>
	<path class="st18" d="M151.7,333.3c0,0.9-0.7,1.7-1.7,1.7c-0.9,0-1.7-0.7-1.7-1.7c0-0.9,0.7-1.7,1.7-1.7
		C150.9,331.6,151.7,332.4,151.7,333.3z"/>
	<g class="st19">
		<path class="st20" d="M97.3,305.4H72.9c-1,0-1.8,0.6-1.8,1.3c0,0.7,0.8,1.3,1.8,1.3h24.3c1,0,1.8-0.6,1.8-1.3
			C99.1,306,98.3,305.4,97.3,305.4z"/>
		<path class="st20" d="M97.3,299.7H72.9c-1,0-1.8,0.6-1.8,1.3c0,0.7,0.8,1.3,1.8,1.3h24.3c1,0,1.8-0.6,1.8-1.3
			C99.1,300.3,98.3,299.7,97.3,299.7z"/>
		<path class="st20" d="M97.3,294H72.9c-1,0-1.8,0.6-1.8,1.3c0,0.7,0.8,1.3,1.8,1.3h24.3c1,0,1.8-0.6,1.8-1.3
			C99.1,294.6,98.3,294,97.3,294z"/>
	</g>
	<g class="st19">
		<path class="st20" d="M131.1,305.4h-24.3c-1,0-1.8,0.6-1.8,1.3c0,0.7,0.8,1.3,1.8,1.3h24.3c1,0,1.8-0.6,1.8-1.3
			C132.9,306,132.1,305.4,131.1,305.4z"/>
		<path class="st20" d="M131.1,299.7h-24.3c-1,0-1.8,0.6-1.8,1.3c0,0.7,0.8,1.3,1.8,1.3h24.3c1,0,1.8-0.6,1.8-1.3
			C133,300.3,132.1,299.7,131.1,299.7z"/>
		<path class="st20" d="M131.1,294h-24.3c-1,0-1.8,0.6-1.8,1.3c0,0.7,0.8,1.3,1.8,1.3h24.3c1,0,1.8-0.6,1.8-1.3
			C132.9,294.6,132.1,294,131.1,294z"/>
	</g>
	<g class="st19">
		<path class="st20" d="M164.9,305.4h-24.3c-1,0-1.8,0.6-1.8,1.3c0,0.7,0.8,1.3,1.8,1.3h24.3c1,0,1.8-0.6,1.8-1.3
			C166.8,306,165.9,305.4,164.9,305.4z"/>
		<path class="st20" d="M164.9,299.7h-24.3c-1,0-1.8,0.6-1.8,1.3c0,0.7,0.8,1.3,1.8,1.3h24.3c1,0,1.8-0.6,1.8-1.3
			C166.8,300.3,165.9,299.7,164.9,299.7z"/>
		<path class="st20" d="M164.9,294h-24.3c-1,0-1.8,0.6-1.8,1.3c0,0.7,0.8,1.3,1.8,1.3h24.3c1,0,1.8-0.6,1.8-1.3
			C166.8,294.6,165.9,294,164.9,294z"/>
	</g>
	
		<linearGradient id="SVGID_7_" gradientUnits="userSpaceOnUse" x1="487.604" y1="383.2395" x2="510.126" y2="383.2395" gradientTransform="matrix(1 0 0 -1 -230.9792 694)">
		<stop  offset="0" style="stop-color:#DAE3FE"/>
		<stop  offset="1" style="stop-color:#E9EFFD"/>
	</linearGradient>
	<path class="st21" d="M267.9,322c6.2,0,11.3-5,11.3-11.3c0-6.2-5-11.3-11.3-11.3c-6.2,0-11.3,5-11.3,11.3
		C256.6,317,261.7,322,267.9,322z"/>
	<path class="st3" d="M274.6,308.4c0.3,0.8,0.5,1.8,0.5,2.7c0,4-3.2,7.2-7.2,7.2c-4,0-7.2-3.2-7.2-7.2c0-4,3.2-7.2,7.2-7.2
		c0.1,0,0.2,0,0.4,0v-1.8c-0.1,0-0.2,0-0.4,0c-5,0-9.1,4.1-9.1,9.1s4.1,9.1,9.1,9.1s9.1-4.1,9.1-9.1c0-1.2-0.2-2.4-0.7-3.5
		L274.6,308.4z"/>
	<path class="st22" d="M277.1,326.8h-18.3c-1.2,0-2.1,0.9-2.1,2.1c0,1.2,0.9,2.1,2.1,2.1h18.3c1.2,0,2.1-0.9,2.1-2.1
		C279.2,327.7,278.3,326.8,277.1,326.8z"/>
	
		<linearGradient id="SVGID_8_" gradientUnits="userSpaceOnUse" x1="487.551" y1="419.4296" x2="510.074" y2="419.4296" gradientTransform="matrix(1 0 0 -1 -230.9792 694)">
		<stop  offset="0" style="stop-color:#DAE3FE"/>
		<stop  offset="1" style="stop-color:#E9EFFD"/>
	</linearGradient>
	<path class="st23" d="M267.8,285.8c6.2,0,11.3-5,11.3-11.3c0-6.2-5-11.3-11.3-11.3c-6.2,0-11.3,5-11.3,11.3
		C256.6,280.8,261.6,285.8,267.8,285.8z"/>
	<path class="st3" d="M271.7,281.1c-1.1,0.7-2.4,1.1-3.9,1.1c-4,0-7.2-3.2-7.2-7.2c0-4,3.2-7.2,7.2-7.2c0.1,0,0.2,0,0.4,0v-1.8
		c-0.1,0-0.2,0-0.4,0c-5,0-9.1,4.1-9.1,9.1c0,5,4.1,9.1,9.1,9.1c1.8,0,3.4-0.5,4.8-1.4L271.7,281.1z"/>
	<path class="st22" d="M277.2,290.6h-18.3c-1.2,0-2.1,0.9-2.1,2.1c0,1.2,0.9,2.1,2.1,2.1h18.3c1.2,0,2.1-0.9,2.1-2.1
		C279.3,291.5,278.3,290.6,277.2,290.6z"/>
	<path class="st24" d="M275.9,355.1c4.4-4.4,4.4-11.5,0-15.9c-4.4-4.4-11.5-4.4-15.9,0c-4.4,4.4-4.4,11.5,0,15.9
		C264.4,359.5,271.5,359.5,275.9,355.1z"/>
	
		<linearGradient id="SVGID_9_" gradientUnits="userSpaceOnUse" x1="511.9343" y1="359.0808" x2="477.0883" y2="326.0108" gradientTransform="matrix(1 0 0 -1 -230.9792 694)">
		<stop  offset="0" style="stop-color:#FDF53F"/>
		<stop  offset="1" style="stop-color:#D93C65"/>
	</linearGradient>
	<path class="st25" d="M274.1,351.2c-1.3,1.9-3.5,3.2-6,3.2c-4,0-7.2-3.2-7.2-7.2c0-4,3.2-7.2,7.2-7.2c0.1,0,0.2,0,0.4,0v-1.8
		c-0.1,0-0.2,0-0.4,0c-5,0-9.1,4.1-9.1,9.1s4.1,9.1,9.1,9.1c3.1,0,5.8-1.6,7.5-3.9L274.1,351.2z"/>
	<path class="st22" d="M258.7,367h18.3c1.2,0,2.1-0.9,2.1-2.1c0-1.2-0.9-2.1-2.1-2.1h-18.3c-1.2,0-2.1,0.9-2.1,2.1
		C256.7,366,257.6,367,258.7,367z"/>
	
		<linearGradient id="SVGID_10_" gradientUnits="userSpaceOnUse" x1="487.9536" y1="269.4831" x2="534.8736" y2="218.4471" gradientTransform="matrix(1 0 0 -1 -230.9792 694)">
		<stop  offset="0" style="stop-color:#09005D"/>
		<stop  offset="1" style="stop-color:#1A0F91"/>
	</linearGradient>
	<path class="st26" d="M271.8,428.3c0,0,0.5,2.8,0.7,5.5c0.1,1.1-0.7,2-1.8,2c-3.6,0.2-11.4,0.4-14.2,0.3c-0.4,0-0.7-0.4-0.5-0.8
		c0.1-0.3,0.4-0.6,0.7-0.7l12.8-5.9L271.8,428.3z"/>
	
		<linearGradient id="SVGID_11_" gradientUnits="userSpaceOnUse" x1="503.182" y1="265.6976" x2="499.016" y2="265.6976" gradientTransform="matrix(1 0 0 -1 -230.9792 694)">
		<stop  offset="0" style="stop-color:#FEBBBA"/>
		<stop  offset="1" style="stop-color:#FF928E"/>
	</linearGradient>
	<path class="st27" d="M272.2,426.7l-0.4,3.3c0,0-2.2,1-3.8-0.1l0.9-3.7L272.2,426.7z"/>
	<path class="st28" d="M271.9,364.8c0.2,0.9,0.9,42.9-3.6,61.7c-0.1,0.3,0.1,0.6,0.4,0.7c0.7,0.3,2,0.7,3.7,0.7c0.5,0,1-0.3,1.1-0.8
		c1.3-4.4,7.4-26.3,8.2-47.2c0.9-23.4,0-0.8,0-0.8l-0.5-14.4H271.9z"/>
	
		<linearGradient id="SVGID_12_" gradientUnits="userSpaceOnUse" x1="498.477" y1="279.1586" x2="545.397" y2="228.1226" gradientTransform="matrix(1 0 0 -1 -230.9792 694)">
		<stop  offset="0" style="stop-color:#09005D"/>
		<stop  offset="1" style="stop-color:#1A0F91"/>
	</linearGradient>
	<path class="st29" d="M286.5,429.8c0,0,0.8,1.4,1.5,5.1c0.1,0.7-0.3,1.3-1,1.4c-1.2,0.1-3,0.3-4.5,0.3c-0.7,0-1.2-0.6-1.1-1.3
		c0.2-1.3,0.7-3.6,2.2-5.3L286.5,429.8z"/>
	
		<linearGradient id="SVGID_13_" gradientUnits="userSpaceOnUse" x1="518.203" y1="265.9073" x2="514.607" y2="265.9073" gradientTransform="matrix(1 0 0 -1 -230.9792 694)">
		<stop  offset="0" style="stop-color:#FEBBBA"/>
		<stop  offset="1" style="stop-color:#FF928E"/>
	</linearGradient>
	<path class="st30" d="M287.2,425.5l-0.9,5c0,0-0.9,0.7-2.7,0.2l0.4-5.4L287.2,425.5z"/>
	<path class="st28" d="M289.7,366.1c3.7,22.2-0.8,54.8-2.3,61.2c-0.1,0.4-0.4,0.7-0.8,0.8c-0.7,0.1-1.8,0.2-2.9-0.1
		c-0.4-0.1-0.6-0.5-0.7-0.8c-0.2-5.2,0.2-36.9-3.3-49.4c-0.2-0.6-0.6-1.2-1.1-1.6l-6.6-4.7l-0.5-7.6L289.7,366.1z"/>
	<path class="st9" d="M266.3,324.1c11-0.2,23.2,2.9,23.2,2.9c3.3,19.1,0.6,41.2,0.6,41.2c-8.5,2.2-18.1-1.4-18.1-1.4
		c-1.4-8-8-30.5-8-30.5c-5.4-0.7-9.8-2.2-13.5-4.3c2.8-3.2,4.1-7.3,4.7-9.8C258.9,323.5,262.9,324.2,266.3,324.1z"/>
	
		<linearGradient id="SVGID_14_" gradientUnits="userSpaceOnUse" x1="486.041" y1="374.415" x2="464.744" y2="374.415" gradientTransform="matrix(1 0 0 -1 -230.9792 694)">
		<stop  offset="0" style="stop-color:#FEBBBA"/>
		<stop  offset="1" style="stop-color:#FF928E"/>
	</linearGradient>
	<path class="st31" d="M233.8,307.9c1.1-1.3,2.5-0.7,2.5-0.7c1.6,6.8,10.1,12.4,18.8,15.1c-0.6,2.4-1.9,6.5-4.7,9.8
		C235.9,323.9,233.8,307.9,233.8,307.9z"/>
	
		<linearGradient id="SVGID_15_" gradientUnits="userSpaceOnUse" x1="469.48" y1="377.9888" x2="483.7681" y2="345.4818" gradientTransform="matrix(1 0 0 -1 -230.9792 694)">
		<stop  offset="0" style="stop-color:#FEBBBA"/>
		<stop  offset="1" style="stop-color:#FF928E"/>
	</linearGradient>
	<path class="st32" d="M234,308.2c-0.1,0.4,1.2,0.9,2-0.6c0-0.7,0.5-3.7,0-4.3c-2.2-3.1-6.6-6.9-6.6-6.9c-0.7,0.7-0.1,1.4-0.1,1.4
		l2.1,2.2c-0.4,0.8-1,1.5-1.2,2.4c-0.2,0.7-0.1,1.5,0.3,2.2c0.4,0.7,0.9,1.5,1.4,2.2C232.7,308.2,234,308.2,234,308.2z"/>
	
		<linearGradient id="SVGID_16_" gradientUnits="userSpaceOnUse" x1="464.8449" y1="388.8171" x2="458.883" y2="397.9831" gradientTransform="matrix(1 0 0 -1 -230.9792 694)">
		<stop  offset="0" style="stop-color:#FEBBBA"/>
		<stop  offset="1" style="stop-color:#FF928E"/>
	</linearGradient>
	<path class="st33" d="M232.3,301.5l1.9,1.6l0.6,1.6l-1.7,1.9c0,0-0.6-3.2-1-3.9C231.7,302.1,231.9,301.7,232.3,301.5z"/>
	<path class="st9" d="M285.2,337.7l4.2-10.7c0,0,10.3,7,12,15.8c-1.9,0.1-5.5,0.6-8.9,2.4C291.7,341.1,285.2,337.7,285.2,337.7z"/>
	
		<linearGradient id="SVGID_17_" gradientUnits="userSpaceOnUse" x1="532.6234" y1="344.2657" x2="505.676" y2="344.2657" gradientTransform="matrix(1 0 0 -1 -230.9792 694)">
		<stop  offset="0" style="stop-color:#FEBBBA"/>
		<stop  offset="1" style="stop-color:#FF928E"/>
	</linearGradient>
	<path class="st34" d="M276.2,347.7c0,0,11.5,6.5,15.4,1c0.8-1.2,1-2.3,0.8-3.4c3.5-1.8,7-2.3,8.9-2.4c0.5,2.7,0.2,5.5-1.3,8.4
		c-6.8,12.5-25.4-0.7-25.4-0.7L276.2,347.7z"/>
	
		<linearGradient id="SVGID_18_" gradientUnits="userSpaceOnUse" x1="497.5335" y1="363.4182" x2="482.7176" y2="301.6841" gradientTransform="matrix(1 0 0 -1 -230.9792 694)">
		<stop  offset="0" style="stop-color:#09005D"/>
		<stop  offset="1" style="stop-color:#1A0F91"/>
	</linearGradient>
	<path class="st35" d="M277.6,356l-6.3-22c-0.1-0.2-0.3-0.4-0.5-0.5c-1.1-0.1-4.4-0.5-8.3-0.8c-4.6-0.4-9.9-0.7-13.1-0.4
		c-0.5,0-0.7,0.5-0.5,0.9c1.8,3.7,9.3,18.6,13,23.5c0.1,0.2,0.3,0.3,0.5,0.3l14.6-0.1C277.4,356.8,277.7,356.4,277.6,356z"/>
	
		<linearGradient id="SVGID_19_" gradientUnits="userSpaceOnUse" x1="488.2549" y1="373.1513" x2="491.4099" y2="359.2944" gradientTransform="matrix(1 0 0 -1 -230.9792 694)">
		<stop  offset="0" style="stop-color:#4F52FF"/>
		<stop  offset="1" style="stop-color:#4042E2"/>
	</linearGradient>
	<path class="st36" d="M261.8,330.8l-4.6-0.8c-0.2,0-0.4,0.2-0.4,0.4l0.5,1.4c0,0.1,0.1,0.2,0.3,0.2l4.4,0.6c0.2,0,0.4-0.2,0.4-0.4
		l-0.3-1.2C262.1,330.9,262,330.8,261.8,330.8z"/>
	
		<linearGradient id="SVGID_20_" gradientUnits="userSpaceOnUse" x1="489.8989" y1="367.3368" x2="491.4079" y2="358.2828" gradientTransform="matrix(1 0 0 -1 -230.9792 694)">
		<stop  offset="0" style="stop-color:#4F52FF"/>
		<stop  offset="1" style="stop-color:#4042E2"/>
	</linearGradient>
	<path class="st37" d="M265.3,334.6l-0.4-2c0-0.2-0.2-0.3-0.4-0.4l-9.2-0.9c-0.3,0-0.6,0.2-0.5,0.6l0.6,2.4c0,0.2,0.2,0.3,0.4,0.3
		l9,0.5C265.1,335.2,265.3,334.9,265.3,334.6z"/>
	
		<linearGradient id="SVGID_21_" gradientUnits="userSpaceOnUse" x1="507.6784" y1="347.0862" x2="499.281" y2="347.0862" gradientTransform="matrix(1 0 0 -1 -230.9792 694)">
		<stop  offset="0" style="stop-color:#FEBBBA"/>
		<stop  offset="1" style="stop-color:#FF928E"/>
	</linearGradient>
	<path class="st38" d="M276.1,350.6c0,0,0.9-3.6,0.5-4.9c-0.4-1.3-1-2.9-3.3-2.6c-2.3,0.4-5,1.3-5,1.3s0.1,1.7,1.9,1.1l-1.1,0.8
		c0,0,0.2,1.3,1.6,0.6l-1,1.1c0,0,0.6,1.1,1.7,0.4C272.5,347.9,273,351.1,276.1,350.6z"/>
	
		<linearGradient id="SVGID_22_" gradientUnits="userSpaceOnUse" x1="511.9343" y1="373.073" x2="501.273" y2="373.073" gradientTransform="matrix(1 0 0 -1 -230.9792 694)">
		<stop  offset="0" style="stop-color:#FEBBBA"/>
		<stop  offset="1" style="stop-color:#FF928E"/>
	</linearGradient>
	<path class="st39" d="M277.4,315.2l3.5,10.1c0.1,0.2,0,0.4-0.2,0.4c-1,0.5-4.4,2.1-8.5-0.6c-0.4-0.3-0.7-0.7-0.8-1.2l-1.1-8.8
		H277.4z"/>
	
		<linearGradient id="SVGID_23_" gradientUnits="userSpaceOnUse" x1="502.6989" y1="387.6424" x2="503.228" y2="364.9394" gradientTransform="matrix(1 0 0 -1 -230.9792 694)">
		<stop  offset="0" style="stop-color:#FEBBBA"/>
		<stop  offset="1" style="stop-color:#FF928E"/>
	</linearGradient>
	<path class="st40" d="M269.6,304.7c-0.1,0.1-3.4,11.6-3.4,11.6l6.6,1.7l4.7-10.4C277.5,307.7,271.4,302.3,269.6,304.7z"/>
	
		<linearGradient id="SVGID_24_" gradientUnits="userSpaceOnUse" x1="508.653" y1="377.9963" x2="495.3759" y2="387.5549" gradientTransform="matrix(1 0 0 -1 -230.9792 694)">
		<stop  offset="0" style="stop-color:#09005D"/>
		<stop  offset="1" style="stop-color:#1A0F91"/>
	</linearGradient>
	<path class="st41" d="M274.9,308.4c0.2,0.3,0.2,0.6,0.1,0.9l-2,5.6c0,0.1-0.1,0.2-0.1,0.2c-0.3,0.4-1.3,1.6-2.5,0.5
		c-1-1-2-1.8-2.9-2.1c-0.5-0.2-1.1,0.2-1.2,0.7c-0.3,1.1-0.9,3.3-1.1,5.3c-0.1,0.5,0.3,1,0.8,1.1c1.3,0.3,3.9,0.7,6.1,0.6
		c0.4,0,0.7-0.2,0.8-0.6c0.7-1.4,2.6-5.5,3.3-6.5c0.7-1,2.2-1,3-0.9c0.3,0,0.5-0.1,0.7-0.2c0.6-0.6,1.6-1.8,0.2-3.4
		c-0.4-0.4-0.3-1,0-1.4c0.7-0.7,1.3-1.8,0.2-3.2c-1.1-1.4-2.6-1.3-3.6-1c-0.4,0.1-0.9,0-1.2-0.4c-0.1-0.2-0.3-0.3-0.6-0.3
		c-0.5,0-1-0.4-1-0.9c0-0.9-0.4-2.1-1.9-2.6c-2.9-0.9-4.7,1.8-4.9,3.9c-0.2,2.1,3,2.9,4.8,2.8C273.4,306.4,274.5,307.7,274.9,308.4z
		"/>
	
		<linearGradient id="SVGID_25_" gradientUnits="userSpaceOnUse" x1="510.6003" y1="364.2818" x2="508.2703" y2="379.8448" gradientTransform="matrix(1 0 0 -1 -230.9792 694)">
		<stop  offset="0" style="stop-color:#FEBBBA"/>
		<stop  offset="1" style="stop-color:#FF928E"/>
	</linearGradient>
	<path class="st42" d="M275.4,316.1c0,0,0.5-3.6,2-3.8c1.5-0.2,3,1.1,1.4,3.1C276.9,317.9,275.4,316.1,275.4,316.1z"/>
</g>
</svg>
