<?xml version="1.0" encoding="utf-8"?>
<!-- Generator: Adobe Illustrator 25.2.1, SVG Export Plug-In . SVG Version: 6.00 Build 0)  -->
<svg version="1.1" id="Layer_1" xmlns="http://www.w3.org/2000/svg" xmlns:xlink="http://www.w3.org/1999/xlink" x="0px" y="0px"
	 width="382px" height="436px" viewBox="0 0 382 436" style="enable-background:new 0 0 382 436;" xml:space="preserve">
<style type="text/css">
	.st0{fill:#397AFC;}
	.st1{opacity:0.8;}
	.st2{opacity:0.8;fill:#D7E5FF;enable-background:new    ;}
	.st3{opacity:0.8;fill:#0D51D9;enable-background:new    ;}
	.st4{fill:#A8D29F;}
	.st5{fill:#7599EA;}
	.st6{fill:#90AFF4;}
	.st7{fill:#AEC3FF;}
	.st8{fill:#5888DD;}
	.st9{opacity:0.4;fill:#5888DD;enable-background:new    ;}
	.st10{fill:#739AF0;}
	.st11{fill:#607CF4;}
	.st12{fill:#E9F3FE;}
	.st13{fill:#0D51D9;}
	.st14{fill:#E6EFFF;}
	.st15{fill:#FFB27D;}
	.st16{fill:#113C68;}
	.st17{fill:#2A4E96;}
	.st18{fill:#233862;}
	.st19{fill:#15447C;}
	.st20{fill:#FCA56B;}
	.st21{fill:#163560;}
	.st22{fill:#ED7D2B;}
	.st23{fill:#1F4D84;}
	.st24{opacity:0.5;}
	.st25{opacity:0.5;fill:#B3CFF9;enable-background:new    ;}
	.st26{fill:#ED975D;}
	.st27{fill:#191775;}
	.st28{fill:#FFFFFF;}
	.st29{fill:#1F447F;}
	.st30{fill:#1C3154;}
	.st31{fill:#B5453C;}
	.st32{fill:#E8945B;}
	.st33{fill:none;stroke:#497FEA;stroke-width:3;}
	.st34{fill:none;stroke:#FFFFFF;stroke-width:3;}
</style>
<g>
	<path class="st0" d="M285.4,435.6c-18.8,0-273.2-0.5-273.2-0.6c-0.1-0.2-32.3-40,8.2-81.5c20.1-20.6-18.4-47.2,0-70.1
		c31.6-39.2,62.8-17.1,88.9-28.2c4.6-1.9,9.2-5.1,13.8-9.9c2.6-2.7,5.4-5.1,8.5-7.1c0.5-0.3,0.9-0.6,1.4-0.9
		c1.8-1.1,3.7-2.2,5.7-3.1c1.3-0.6,2.6-1.2,4-1.7c2.2-0.8,4.4-1.6,6.6-2.2c3.2-0.9,6.5-1.5,9.9-2c1.5-0.2,3-0.3,4.5-0.5
		c29.1-2.2,61.8,10.2,78.7,28.3c3.4,3.6,18.9,22.5,6.7,48.4c-7.7,16.4,24.6,32,36,50.7C314.3,402.8,285.7,434.9,285.4,435.6z"/>
	<g class="st1">
		<path class="st2" d="M219.6,325.1c-0.8,2.1-1.7,4.2-2.8,6.1c-2.7,4.6-6.2,8.4-10.3,11.4c-9.6,6.9-22.3,9.1-34.2,4.8
			c-14.2-5.2-23.3-18.2-24.3-32.5c-0.1-1.9-0.1-3.8,0.1-5.7c0.3-3.2,1-6.4,2.1-9.6c0.9-2.6,2.1-4.9,3.5-7.2c0,0,0-0.1,0.1-0.1
			c3.8-6.1,9.3-10.8,15.6-13.8c1.8-0.8,3.6-1.5,5.5-2.1c0.9-0.3,1.8-0.5,2.7-0.7c6.5-1.3,13.4-0.9,20,1.5c0.9,0.3,1.8,0.7,2.6,1.1
			c1.2,0.5,2.3,1.1,3.4,1.8c4.7,2.7,8.6,6.4,11.5,10.7c1.9,2.7,3.4,5.5,4.5,8.6c0.6,1.6,1.1,3.2,1.4,4.9c0.2,1,0.4,2.1,0.5,3.2
			c0.3,2.6,0.4,5.2,0.2,7.8C221.4,318.6,220.7,321.8,219.6,325.1z"/>
		<g class="st1">
			<path class="st3" d="M178.7,292.3c-2.2,1.7-1.6,6.3-5.4,3.7c-3.8-2.6-6.2-4-7.2-1.7c-1.1,2.2,2.3,3.5,1.4,5.9
				c-0.9,2.4-2.7,2.7-4.6,0.7c-1.9-2-1.9-3.9-5-3.9c-3.1,0.1-4.4-1.2-4.2-3.5c0-0.4,0-0.8-0.1-1.1c0,0,0-0.1,0.1-0.1
				c3.8-6.1,9.3-10.8,15.6-13.8c1.8-0.8,3.6-1.5,5.5-2.1c0.9-0.3,1.8-0.5,2.7-0.7c1.1,0.4,2.2,1.3,2.8,3.1c1.3,3.9,3.5,3,1.7,6.3
				c-1.8,3.3-1.1,4.1,0.9,4.7c2,0.6,4.3,1.4,4,3C186.5,294.6,180.8,290.6,178.7,292.3z"/>
			<path class="st3" d="M219.6,325.1c-0.8,2.1-1.7,4.2-2.8,6.1c-2.7,4.6-6.2,8.4-10.3,11.4c-1,0-2-0.4-2.8-1.1
				c-3.7-3.3,1.2-6.9,3.8-8.6c2.6-1.7-2.2-2.3-4.6-5.7c-2.4-3.4,3.2-7.9-0.4-8.1c-3.6-0.2-8.1-0.5-8.8-4.4c-0.7-3.9,3.1-3.1,2.4-6.4
				c-0.7-3.3,2.5-3.9,5.9-3c3.4,0.9,3.8-1.6,8-0.4c4.2,1.1,2.2,6.4,6.9,7.6c4.6,1.3,4.1,2.3,4.1,2.3c0.3,0.1,0.6,0.3,0.9,0.5
				C221.4,318.6,220.7,321.8,219.6,325.1z"/>
			<path class="st3" d="M221.5,307.5c-4.4,0.5-4.1-5.1-7.9-4.8c-3.8,0.3-2.2-2.4-4-5.2c-1.9-2.8-8.2-1.3-6.9-4.1
				c1.3-2.8,4.8-0.6,6.4-2.6c1.7-2,5.1-0.1,5.1-0.1c0.2,0,0.5,0,0.7,0.1c1.9,2.7,3.4,5.5,4.5,8.6c0.6,1.6,1.1,3.2,1.4,4.9
				C221.2,305.4,221.3,306.5,221.5,307.5z"/>
			<path class="st3" d="M193.5,285.9c0,0,3-2.1,0.2-4.1c-2.8-2-3.2-0.9-5.5-2c-2.3-1.2-4,0.4-2.9,3.1c1.1,2.7,1.1,7.2,3.5,5.7
				C191.3,287.1,191.5,285.4,193.5,285.9z"/>
		</g>
	</g>
	<path class="st4" d="M20.6,435.1h12.9c0.7-0.6-0.5-1.9-1.7-2c-0.5,0-1.2,0.1-2,0.2c-0.2-2.4-1.2-13-5-12.6c-4.3,0.5,0,4.7,1.2,7.2
		c0.9,1.9,1.9,4.5,2.3,5.8c-0.3,0.1-0.7,0.2-1.1,0.2c-0.6-1.8-2.7-7.7-5.4-7.3c-3.2,0.4-1.9,2.8,0.4,4.2c1.7,1,3.7,2.5,4.6,3.2
		c-0.8,0.1-1.7,0.2-2.5,0.2C22.1,434.1,21,434.7,20.6,435.1z"/>
	<path class="st4" d="M225.9,435.1h-12c-0.6-0.5,0.4-1.8,1.6-1.9c0.5,0,1.1,0.1,1.8,0.2c0.2-2.2,1.1-12.1,4.7-11.7
		c4,0.4,0,4.4-1.1,6.7c-0.8,1.7-1.7,4.2-2.1,5.3c0.3,0.1,0.7,0.1,1,0.2c0.5-1.6,2.5-7.1,5-6.8c2.9,0.4,1.8,2.6-0.3,3.9
		c-1.5,1-3.4,2.3-4.3,3c0.7,0.1,1.5,0.2,2.3,0.2C224.5,434.2,225.5,434.8,225.9,435.1z"/>
	<path class="st5" d="M124.2,354.8l-6.3,75.7c0,0-0.7,4.6,2.7,4.6c5.6,0,27.7,0,27.7,0s-4.2-1-4.1-3.1c0.1-2.5,7.4-77.9,7.4-77.9
		L124.2,354.8z"/>
	<path class="st6" d="M150.4,433.7c-1.1,0-22.5,0-28,0c-2.4,0-2.8-2.1-2.8-3.5c0-0.7,0.1-1.1,0.1-1.1l0.2-2l0.4-5l0.4-4.4l0.5-5.7
		l0.4-4.8l4.5-53.8l27.4-0.7c0,0-3.1,31.5-5.3,54.5c-0.2,2.6-0.5,5-0.7,7.3c-0.1,0.7-0.1,1.4-0.2,2.1c-0.2,2.2-0.4,4.2-0.5,5.9
		c-0.1,0.9-0.2,1.8-0.2,2.6c-0.3,3.1-0.4,5.1-0.4,5.4c0,0.2,0,0.4,0.1,0.6C146.5,433.6,150,433.7,150.4,433.7z"/>
	<path class="st7" d="M57.7,313.6l15.4,62.3l2.1,8.5l7.2,29h133.2l-26.4-99.8H57.7z"/>
	<path class="st6" d="M57.7,313.6l-2.1,0.7l24,101.2l2.8-2.2L57.7,313.6z"/>
	<path class="st5" d="M79.5,415.6h132.4l3.7-2.2H82.3L79.5,415.6z"/>
	<path class="st7" d="M126,435.1h28.7v-1.4H126V435.1z"/>
	<path class="st8" d="M147.4,415.6l-0.2,1l-27,5.5l0.4-4.4l0.2-2.1H147.4z"/>
	<path class="st9" d="M150.4,433.7c-1.1,0-22.5,0-28,0c-2.4,0-2.8-2.1-2.8-3.5l26.8-5.1c-0.3,3.1-0.4,5.1-0.4,5.4
		c0,0.2,0,0.4,0.1,0.6C146.5,433.6,150,433.7,150.4,433.7z"/>
	<path class="st7" d="M57.7,313.6h131.4l21.3,80.2H77.5L57.7,313.6z"/>
	<path class="st10" d="M204.2,390.4H81.2l-4.4-17.6l-1.7-6.8l-0.7-2.8L69.9,345l-0.2-0.9l-2.4-9.6l-1.1-4.3l-0.9-3.7l-2.1-8.6h121.3
		l2.3,8.6l1,3.7l1.2,4.3l7.7,28.3l0.6,2.4l0.3,1.1l5.3,19.5L204.2,390.4z"/>
	<path class="st11" d="M186.8,326.5H65.3l-2.1-8.6h121.3L186.8,326.5z"/>
	<path class="st12" d="M68.1,321.8c-0.2-0.6,0.2-1.1,0.8-1.1c0.6,0,1.2,0.5,1.3,1.1c0.2,0.6-0.2,1.1-0.8,1.1
		C68.9,322.9,68.3,322.4,68.1,321.8z"/>
	<path class="st12" d="M71.7,321.8c-0.2-0.6,0.2-1.1,0.8-1.1s1.2,0.5,1.3,1.1c0.2,0.6-0.2,1.1-0.8,1.1
		C72.4,322.9,71.8,322.4,71.7,321.8z"/>
	<path class="st12" d="M75.5,321.8c-0.2-0.6,0.2-1.1,0.8-1.1s1.2,0.5,1.3,1.1c0.2,0.6-0.2,1.1-0.8,1.1S75.6,322.4,75.5,321.8z"/>
	<path class="st13" d="M160.3,268.1c5-5.9,12.6-17.7,17.8-23.7c1.1-1.2,0.2-3.2-1.4-3.2h-9.4l8.9-20.2c0.4-0.9-0.8-1.5-1.3-0.8
		l-21.4,28.9c-0.6,0.8,0.1,2,1.1,1.9l10.6-1.3l-6.3,17.5C158.4,268.1,159.6,268.9,160.3,268.1z"/>
	<path class="st7" d="M116,303.9c1.1-5.8,1.8-16.5,3-22.5c0.2-1.2-1.1-2.2-2.1-1.6l-6.2,3.5l-1.6-16.7c-0.1-0.7-1.1-0.7-1.2,0
		l-3.5,27.3c-0.1,0.8,0.8,1.3,1.4,0.8l6.6-4.9l2.3,14C114.8,304.7,115.9,304.7,116,303.9z"/>
	<path class="st14" d="M209.6,392.1l-106.9,9.1c-8.1,0.7-14-7.6-10.7-15.1l45.3-102.1c3.4-7.7,14-8.6,18.7-1.6l61.6,93
		C222.1,382.2,217.7,391.4,209.6,392.1z"/>
	<path class="st13" d="M209.9,396.1L103,405.2c-5.3,0.4-10.2-1.9-13.3-6.2c-3.1-4.3-3.6-9.8-1.4-14.7l45.3-102.1
		c2.2-5,6.8-8.3,12.2-8.7s10.5,2,13.5,6.6l61.6,93c2.9,4.4,3.3,9.9,1,14.7C219.7,392.6,215.2,395.7,209.9,396.1z M146.5,281.6
		c-2.5,0.2-4.5,1.7-5.5,3.9L95.7,387.7c-1,2.2-0.7,4.7,0.6,6.6c1.4,2,3.6,3,6,2.8l106.9-9.1c2.4-0.2,4.4-1.6,5.4-3.8
		c1-2.2,0.9-4.6-0.5-6.6l-61.6-93C151.3,282.5,149,281.4,146.5,281.6z"/>
	<path class="st13" d="M144,376.4c-0.1-1.4,0-2.7,0.4-3.9c0.4-1.2,1-2.3,1.8-3.2c0.8-0.9,1.9-1.7,3.1-2.3c1.2-0.6,2.6-1,4.2-1.1
		c1.6-0.1,3,0,4.4,0.4c1.3,0.4,2.5,1,3.4,1.7c1,0.8,1.8,1.8,2.3,2.9c0.6,1.1,0.9,2.4,1.1,3.8c0.1,1.4,0,2.7-0.4,3.9
		c-0.4,1.2-1,2.3-1.8,3.2c-0.8,0.9-1.9,1.7-3.1,2.3c-1.2,0.6-2.7,1-4.2,1.1c-1.6,0.1-3,0-4.3-0.4c-1.3-0.4-2.4-1-3.4-1.7
		c-1-0.8-1.8-1.7-2.3-2.9C144.5,379.1,144.1,377.8,144,376.4z M160.6,357l-15.4,1.3l-6.6-52.8l19.8-1.7L160.6,357z"/>
	<path class="st15" d="M77.6,360.2c0,0,0.3-0.8,0.6-1.1c0.2-0.4,1.1-1.4,1.3-1.2c0.2,0.2,0.8,1.8,0.5,2.3c-0.3,0.4,0,1.2-1.7,1.7
		L77.6,360.2z"/>
	<path class="st13" d="M59.1,355.4c0,0,8.5,7.2,11.9,6.5c2.6-0.5,6.7-1.8,6.7-1.8s1.1,1,0.8,2.3c0,0-5.2,5-9,5
		c-5.8,0.1-8.6-2.9-8.6-2.9L59.1,355.4z"/>
	<path class="st16" d="M44.1,431.1c0,0,0.3,4,1,4.1c0.1,0,3.9,0,3.9,0l4.9,0c0,0,0-1.2-1.5-1.4c-1.4-0.3-3.8-1.3-4.7-3.2
		C46.9,428.6,44.1,431.1,44.1,431.1z"/>
	<path class="st17" d="M43.8,431.4c0,0,1.5,0.5,2.6,0.5c1.3,0,2.5-0.4,2.5-0.4s0.3-2.7,1.8-8.7c0.8-3.1,2-7.2,3.6-12.2
		c4.5-13.9,5.9-22,6-22.7c0,0,0-0.1,0-0.1l0,0l-13.9-6.1c0,0,1.7,19.1-0.5,26.5c-0.3,1-0.6,2.2-0.8,3.5
		C43.8,419.6,43.8,431.4,43.8,431.4z"/>
	<path class="st18" d="M50.7,422.9c0.8-3.1,2-7.2,3.6-12.2c4.5-13.9,5.9-22,6-22.7c0,0,0,0,0-0.1l-13.9-6.1c0,0,1.7,19.1-0.5,26.5
		C45.7,409.2,50.7,422.9,50.7,422.9z"/>
	<path class="st19" d="M55,431.1c0,0,0.3,4,1,4.1c0.1,0,3.9,0,3.9,0l4.9,0c0,0,0-1.2-1.5-1.4c-1.4-0.3-3.8-1.3-4.7-3.2
		C57.7,428.6,55,431.1,55,431.1z"/>
	<path class="st17" d="M62.8,382.1c0,0,0.2,12.4-1.9,27.6c-2.1,15.2-1.4,21.7-1.4,21.7s-1.5,0.5-2.1,0.5c-1.5,0.1-3-0.4-3-0.4
		s-3-15.2-2.2-22.8S48,382.6,48,382.6L62.8,382.1z"/>
	<path class="st15" d="M53,353.2l2.7,1.8l2.5-0.7c0.5-0.7,0.6-1.9,0.6-3c0-1.1-0.1-2-0.1-2l-3.7-1.6l-1.4-0.6c0,0,0.1,1.1,0.1,1.3
		C54,351.2,53,353.2,53,353.2z"/>
	<path class="st13" d="M62.9,385.6c-3.4,3.3-16.2,2.7-17-0.9c-0.8-3.6,0.9-30.8,6.6-32.5c1.2-0.4,7.6,1.7,7.6,1.7s1,2.6,1.7,6
		c0.1,0.7,0.5,7.6,0.8,14.1c0.1,3,0.2,6,0.3,8.1C63,384.2,63,385.5,62.9,385.6z"/>
	<path class="st20" d="M54,348.4c0.7,1.3,3.4,2.4,4.7,2.9c0-1.1-0.1-2-0.1-2l-3.7-1.6C54.2,347.6,53.7,347.8,54,348.4z"/>
	<path class="st15" d="M60,349c0,0-5.9,1.9-7-1.9c-1.1-3.7-2.6-6,1.1-7.3c3.7-1.3,4.9-0.1,5.5,1C60.4,342,61.5,348.5,60,349z"/>
	<path class="st21" d="M59.5,340.5c0,0-0.4,4.3-1.3,4.1c-0.9-0.2-1.9-0.6-1.7,0.7c0.1,1.3-0.9,3.5-2.1,3.5c-2.8,0-5.7-7.1-5-8.5
		C51.5,336.6,62.6,335.8,59.5,340.5z"/>
	<path class="st22" d="M58.6,352.3c-0.1,0-4.4-2-4.9-1.8c-0.5,0.2-1.1,1.7-1.1,1.7l7.6,1.7C60.2,353.9,59.6,352.7,58.6,352.3z"/>
	<path class="st23" d="M85.5,373.3l-24.2,23c-0.5,0.4-1.1,0.6-1.3,0.3l-0.8-0.9c-0.3-0.3-0.1-0.9,0.4-1.3l24.2-23
		c0.5-0.4,1.1-0.6,1.3-0.3l0.8,0.9C86.2,372.3,86,372.9,85.5,373.3z"/>
	<path class="st10" d="M71.9,386.2l-10.6,10.1c-0.5,0.4-1.1,0.6-1.3,0.3l-0.8-0.9c-0.3-0.3-0.1-0.9,0.4-1.3l10.6-10.1L71.9,386.2z"
		/>
	<path class="st23" d="M79.9,364.7c0.9,3.1,2.7,6,5.2,8.3c7.6,7.2,19.6,6.9,26.8-0.8c7.1-7.6,6.8-19.5-0.5-26.7
		c-0.1-0.1-0.2-0.2-0.3-0.3c-7.6-7.2-19.6-6.9-26.8,0.8C79.4,351.2,78,358.3,79.9,364.7z M85.4,347c4.2-4.5,10.1-6.3,15.7-5.3
		c3.3,0.6,6.4,2.1,9,4.5c7,6.7,7.4,17.8,0.7,24.9c-2.4,2.6-5.5,4.3-8.7,5.1c-5.5,1.3-11.6-0.1-16-4.3
		C79.1,365.2,78.8,354.1,85.4,347z"/>
	<g class="st24">
		<path class="st25" d="M110.8,371.2c-2.4,2.6-5.5,4.3-8.7,5.1c-5.5,1.3-11.6-0.1-16-4.3c-7-6.7-7.4-17.8-0.7-24.9
			c4.2-4.5,10.1-6.3,15.7-5.3c3.3,0.6,6.4,2.1,9,4.5C117.1,352.9,117.5,364.1,110.8,371.2z"/>
	</g>
	<path class="st13" d="M62.9,382.2c-13.3-9.6-12.2-22.3-12.2-22.3c4.9,2.8,9.7,8.9,11.9,14.2C62.8,377.1,62.9,380,62.9,382.2z"/>
	<path class="st15" d="M76.1,377.8c0.9-0.2,1.6-0.9,1.7-1.1c0,0,0.4,0-0.1,0.9c0,0.1-0.1,0.3-0.2,0.4c0,0.1,0,0.1,0.1,0.1
		c0.5,0,1.1-0.2,2.1,0.1c0.1,0,0.2,0.4,0.2,0.5c0,0.3,0,0.5-0.3,0.9c-0.2,0.2-0.6,0.5-1.7,0.9c-0.4,0.2-1.5,0-2.6-0.3l-0.9-0.4
		l0.3-1.6l0.2,0.1C75.3,378.3,75.7,377.9,76.1,377.8z"/>
	<path class="st13" d="M54.8,353.9c0,0-12,2.3,3.5,19.8c2.5,2.8,15.9,6.4,15.9,6.4s1.4-1.2,0.7-2.1c0,0-9.2-6.8-11.3-7.8
		c-0.9-0.5-3.5-10.8-5-13.3C57.1,354.5,54.8,353.9,54.8,353.9z"/>
	<path class="st15" d="M77.9,360.4c0,0,0.4-0.8,0.5-1.2c0.1-0.4,0.6-1.6,0.8-1.8c0.1-0.1,0.4,0,0.4,0.4c0,0.2-0.1,0.4-0.2,0.8
		c-0.2,0.5-0.2,1.3-0.3,1.5C78.9,360.8,77.9,360.4,77.9,360.4z"/>
	<path class="st15" d="M82.7,330.5c-0.2,0.2-0.2,0.5-0.1,0.8c0.2,0.5,0.8,1.1,1.5,1.7c0.1,0.1,0.2,0.1,0.2,0.2c0,0,0,0,0.1,0.1
		c0,0,0,0,0,0c0.7,0.6,0.4,0.8,1.6,2c1.4,1.4,2.3,1.5,2.6,1.3c0.2-0.1-0.2-0.9-0.7-1.7c0,0-0.1-0.1-0.1-0.1
		c-0.1-0.1-0.1-0.2-0.2-0.3c-0.6-1-0.4-1.5-0.3-3c0.1-1.2,1.9-6.9,1.9-6.9l-2.6-0.5c0,0-0.8,4.5-1.7,5.2c-0.5,0.4-1,0.4-1.4,0.7
		c0,0-0.1,0-0.1,0.1C83.2,330.1,82.9,330.2,82.7,330.5z"/>
	<path class="st18" d="M82.7,330.5c-0.2,0.2-0.2,0.5-0.1,0.8c0.2,0.5,0.8,1.1,1.5,1.7c0.1,0.1,0.2,0.1,0.2,0.2c0,0,0,0,0.1,0.1
		c0,0,0,0,0,0c0.7,0.6,0.4,0.8,1.6,2c1.4,1.4,2.3,1.5,2.6,1.3c0.2-0.1-0.2-0.9-0.7-1.7c-0.3-0.1-1.5-0.6-2.4-1.8
		c-0.8-1-1.3-2.3-1.9-3.1c-0.1,0-0.1,0-0.2,0C83.2,330.1,82.9,330.2,82.7,330.5z"/>
	<path class="st15" d="M103.8,328.8c0.2,0.8,1.3,0.7,2.6,0.4c1.3-0.3,1,0.1,2.8-0.1c1.8-0.2,2.4-0.9,2.5-1.2c0-0.2-0.9-0.3-1.8-0.4
		c-0.1,0-0.2,0-0.4,0c-1.1-0.1-1.9-0.9-2.9-1.4c-0.9-0.6-2.3-2.8-2.3-2.8l-2.5,0.2c0,0,1.3,2,1.8,2.9c0.3,0.5,0.3,1.2,0.2,1.7
		C103.8,328.2,103.8,328.5,103.8,328.8z"/>
	<path class="st18" d="M106.4,329.2c1.3-0.3,1,0.1,2.8-0.1c1.8-0.2,2.4-0.9,2.5-1.2c0-0.2-0.9-0.3-1.8-0.4l0,0c0,0-1.1,0.8-2.6,0.8
		c-1.2,0-2.6-0.3-3.4-0.3c0,0.3,0,0.6,0,0.9C104,329.6,105.2,329.5,106.4,329.2z"/>
	<path class="st18" d="M94.2,312.6l-2.3,6.4l-3.1,8.3c0,0-0.8,0.1-1.6-0.2c-0.7-0.2-1.6-0.8-1.6-0.8s0.9-8.9,2.5-14
		c0.4-1.3,0.9-2.4,1.4-3C91.9,306.4,94.2,312.6,94.2,312.6z"/>
	<path class="st17" d="M91.8,302.5c-1.3-0.4-4.8,0-8.6,0.7c-1,0.2-2.1-0.3-2.7-1.2l-9.5-0.8c0,0-3.1,7-1.4,11.5
		c0.3,0.7,0.8,1.1,1.7,1.1c0,0,5.8,0,7.6,0c4.7,0,10-3.3,10.7-3.4c1.1-0.2,1.6,2,2.7,4.4c1.1,2.4,10.5,10.5,10.5,10.5s1.4,0,2-0.2
		c0.6-0.2,0.9-0.6,0.9-0.6S95.3,303.6,91.8,302.5z"/>
	<path class="st18" d="M79.6,273.8c-0.7-0.4-1.4-0.5-1.8-0.5c-0.3,0-0.6,0-0.9-0.1c-3.6-0.5-5.8,4.8-6,6.4c-0.2,3-1.8,3.4-4,5.3
		c-4.4,3.7-3.1,8-0.7,9.6c1.4,1,4,0,4,0c0,0,6.9-3.9,10.3-5.8C85.6,288,81.6,275,79.6,273.8z"/>
	<path class="st15" d="M77.7,287.2c0,0-1.7,0.6-2.8,0.1c-1.1-0.5-1.9-2.2-1.8-2.2c0.5,0,1-0.4,1.4-3.2l0.2,0.1l3.5,1.3
		c0,0-0.3,1.1-0.4,2.2C77.6,286.2,77.5,287,77.7,287.2z"/>
	<path class="st26" d="M78.1,283.1c0,0-0.1,0.6-0.3,1.7c-2-0.4-2.8-1.9-3.1-3L78.1,283.1z"/>
	<path class="st15" d="M78.6,284.2c0,0-4.7-0.6-4.3-3.6c0.4-3,0.1-5,3.2-4.7c3,0.3,3.5,1.5,3.5,2.5
		C81.1,279.4,79.9,284.3,78.6,284.2z"/>
	<path class="st18" d="M80.9,276.8c0,0-3,2.6-5.1,2.8c-2.1,0.2-2.8-0.5-2.8-0.5s1.2-1,1.9-2.6c0.2-0.5,0.7-0.8,1.2-0.9
		C77.6,275.5,80.3,275.5,80.9,276.8z"/>
	<path class="st18" d="M79,276.6c0,0,1,1,1.3,1.7c0.3,0.7,0.4,2.4,0.2,3.1c0,0,1.6-3.1,0.7-4.6C80.2,275.2,79,276.6,79,276.6z"/>
	<path class="st13" d="M81.6,294.2c-0.2,9.6,0,7.6-1.1,8.5c-0.3,0.2-1,0.3-1.9,0.4c-2.9,0.2-8.1-0.3-8.3-0.8
		c-0.7-1.9-0.2-2.5-0.8-5.4c-0.1-0.3-0.1-0.6-0.2-1c-0.5-2-0.9-2.7,0.7-5.8c1.5-2.9,3.1-5.2,3.2-5.2c4,2.4,4.3,0.4,4.3,0.4
		S81.7,289.5,81.6,294.2z"/>
	<path class="st17" d="M91.9,319l-3.1,8.3c0,0-0.8,0.1-1.6-0.2c-0.7-0.2-1.6-0.8-1.6-0.8s0.9-8.9,2.5-14L91.9,319z"/>
	<path class="st13" d="M77.7,285.3c0,0,4.1,0.7,4.6,2.5c0.5,1.8,2.1,12.6,2.1,12.6s-1.2,1.1-2.1,0.2c-1-1-3-10.1-3-10.1L77.7,285.3z
		"/>
	<path class="st27" d="M78.7,303.1c-2.9,0.2-8.1-0.3-8.3-0.8c-0.7-1.9-0.2-2.5-0.8-5.4l1.4-4c0,0-0.2,4.5,1.1,5.6
		c1.3,1.2,5.4,2.3,6,3.2C78.4,302.3,78.6,302.7,78.7,303.1z"/>
	<path class="st15" d="M75.3,301.2c0,0,2.9-0.7,3.4-0.4c0.5,0.3,1.6,1.2,1.8,1.5c0.1,0.3-1-0.2-1.4-0.4c-0.3-0.1-0.9,0.2-1.2,0.3
		c-1.4,0.5-2.2,0.2-2.2,0.2L75.3,301.2z"/>
	<path class="st13" d="M73.4,284.9c0,0-3.9,0.2-5.2,2.1c-1.9,2.7-5.6,14-3.5,15.5c2.4,1.7,11,0.4,11,0.4s0.3-1.3-0.1-2
		c-0.4-0.7-6.9-1.7-7.2-2c-0.3-0.3,3.7-5.9,3.7-6.8C72.1,291.3,73.4,284.9,73.4,284.9z"/>
	<path class="st15" d="M78.8,301.7c0,0,0.6,0.8,0.8,0.9c0.2,0.1,0.3,0.1,0.3,0.1l-0.4-0.7L78.8,301.7z"/>
	<path class="st15" d="M78.7,300.9l1.8,0.9c0,0-0.1,0.1-0.3,0.1c-0.2,0-0.8-0.2-0.8-0.2L78.7,300.9z"/>
	<path class="st18" d="M93.7,302.9l-18.4,0v0.4l18.2,0L93.7,302.9z"/>
	<path class="st18" d="M79.6,303.3l13.9,0l4.2-10.5l-13.9,0L79.6,303.3z"/>
	<path class="st28" d="M90,298c0.1-0.4-0.1-0.7-0.5-0.7s-0.7,0.3-0.9,0.7c-0.1,0.4,0.1,0.7,0.5,0.7C89.5,298.7,89.9,298.4,90,298z"
		/>
	<path class="st21" d="M184.3,342.9c-1.9-0.6-3.2,0.2-3.2,0.2c-5.4,0.2-5.6,5.8-5,7.9c0.9,2.9-2.3,5.2,1.2,6.4
		c4.1,1.4,7.5-0.3,7.2,0.4C197.5,358.8,188.6,344.3,184.3,342.9z"/>
	<path class="st13" d="M178.7,370c0,0-0.5,1-1.4,2.2c-1.1,1.4-7-1.9-6.5-2.2c0.5-0.3,3.5-8.8,4.2-9.9c0.7-1.1,3.1-1.6,3.1-1.6
		L178.7,370z"/>
	<path class="st29" d="M198.6,427.9c0,0,1.6,1.5,1.3,2.6c-0.3,1.1-1.8,1.8-2,3.1c-0.2,1.3-1,2-1.7,2s-3.4,0-3.4,0s-0.5-0.9,0.7-1.2
		c1.3-0.3,1.8-1.8,1.7-3.2c-0.1-1.4,0.1-3.3,0.1-3.3l2.7-0.6L198.6,427.9z"/>
	<path class="st30" d="M184.8,428.6c0,0,0.6,6.3-0.1,6.7l-9.1,0c0,0,0-1.1,1.5-1.3c1.5-0.2,4.1-1.1,4.5-3
		C182,429,184.8,428.6,184.8,428.6z"/>
	<path class="st13" d="M191.9,365.7c0,0,0.1,1.9,0,4.3c-0.1,1.5-1.6,3.6-1.9,4.1c-0.5,1.3-1.2,1.5-1.2,1.5l-4.8,1.2l-1.7,0.4
		l-5.3-1.6c0,0-2.4-6.8-1.4-10.6c1-3.8,2.5-6.5,2.5-6.5s3.6-0.8,10-0.4L191.9,365.7z"/>
	<path class="st27" d="M192.3,370c-0.1,1.5-2.1,3.5-2.3,4.1c-0.5,1.3-1.2,1.5-1.2,1.5l-4.8,1.2l-0.9-2.5c0,0,7-1.9,5.9-8.4
		L192.3,370z"/>
	<path class="st18" d="M177.4,376.6c0,0-2.6,8.3-2.8,11.1c-0.2,2.8,5,39.9,5.2,41.2c0.2,1.2,1.7,2,1.7,2s0.7,0.4,1.7,0.1
		c1.4-0.4,1.8-0.9,1.8-0.9s2.1-26.5,0.8-35.9c-1.3-9.5-1.3-17.6-1.3-17.6H177.4z"/>
	<path class="st17" d="M188.6,376.4c0,0,4,5.4,4.4,9.1c0.4,3.7,0.6,16.6,1.4,20.1c0.8,3.6,3.7,10.5,3.7,21.6c0,0-0.3,0.6-1.2,1
		c-0.3,0.1-0.7,0.2-1.1,0.3c-0.8,0.2-1.6-0.2-1.9-0.9c-2-4-8.3-17-8.6-19.7c-0.2-1.9-2.2-14.5-6.6-21.9c-1-1.8,0.6-8.8,0.6-8.8
		L188.6,376.4z"/>
	<path class="st18" d="M177,375.3c0,0,1.1,0.8,3.2,0.9c2.5,0.1,8.7-0.6,8.7-0.6s0.3,0.8,0.3,1.6c0,0-7.6,1.9-12,0.3
		C177.1,377.5,176.6,376.4,177,375.3z"/>
	<path class="st28" d="M179.5,378.4c-0.6,0-1.1-0.6-1.1-1.3s0.5-1.3,1.1-1.3c0.6,0,1.1,0.6,1.1,1.3S180.2,378.4,179.5,378.4z
		 M179.5,376.2c-0.4,0-0.8,0.4-0.8,0.9c0,0.5,0.3,0.9,0.8,0.9c0.4,0,0.8-0.4,0.8-0.9C180.3,376.6,179.9,376.2,179.5,376.2z"/>
	<path class="st31" d="M185,380.8l-11.4,0.1l-5.6-13.3l11.4-0.1L185,380.8z"/>
	<path class="st15" d="M183.5,374.8l-0.8-1c0,0-0.6-0.5-1-0.6c-0.4-0.1-1.3-0.6-1.4-0.4c-0.1,0.1,0.7,1.1,0.7,1.1h0
		c-0.9,0.7-3,0.1-3.3,0.3c-0.3,0.3,0.4,1,0.9,1.4c0.4,0.4,1.6,1,2.5,0.8c0.7-0.2,1.7-0.4,1.7-0.4L183.5,374.8z"/>
	<path class="st15" d="M168.8,369.9c0,0,0.7-0.8,1.2-0.4c0.5,0.4-0.1,2.3-0.6,2.1C169,371.4,168.6,370.2,168.8,369.9z"/>
	<path class="st13" d="M188.1,358.1c0,0,3.3,0.4,5.6,4.7c1.9,3.4,5,9.6,3.8,11.4c-0.5,0.8-5.5,3.5-15.2,2c0,0,0.2-1.2,0.9-1.8
		c0,0,8.2-2.6,8.1-3.2c0-1-1.1-1.9-5.6-6.4C184.4,363.4,188.1,358.1,188.1,358.1z"/>
	<path class="st15" d="M185.5,358.2c0.1-0.2,0-0.6-0.2-1.5c-0.2-0.8-0.4-2.1-0.4-3.5l-0.2,0l-4.1,0.7c0,0,0.1,1.1,0.1,2.1
		c0,0,0,0,0,0c0,0.9-0.2,2.2,0.1,2.4C182.3,359.4,185.1,358.8,185.5,358.2z"/>
	<path class="st32" d="M180.6,353.9c0,0,0.1,1.5,0.1,2.6c2.3-0.1,3.5-2.3,4-3.2L180.6,353.9z"/>
	<path class="st15" d="M180.4,355.8c0,0,5.3-0.8,4.8-4.1c-0.5-3.3-0.2-5.7-3.6-5.3c-3.4,0.3-3.9,1.7-4,2.9
		C177.5,350.4,179,355.9,180.4,355.8z"/>
	<path class="st21" d="M179.1,346.7c0,0,2.1,3.7,4.4,3.9c2.3,0.2,3.2-0.5,3.2-0.5s-1.9-1.1-2.7-3.4
		C184,346.6,179.9,344.7,179.1,346.7z"/>
	<path class="st21" d="M179.5,346.9c0,0-1,0.6-1.3,1.4c-0.3,0.8-0.5,1.9-0.2,3.2c0,0-1.5-2.5-0.5-4.2
		C178.5,345.6,179.5,346.9,179.5,346.9z"/>
	<path class="st18" d="M296.5,436H2.2c-0.2,0-0.4-0.2-0.4-0.4v-0.2c0-0.2,0.2-0.4,0.4-0.4h294.3c0.2,0,0.4,0.2,0.4,0.4v0.2
		C296.9,435.9,296.7,436,296.5,436z"/>
</g>
<g>
	<g>
		<path class="st33" d="M271.4,154.5h35c1.4,0,2.5,1.1,2.5,2.5v34c0,1.4-1.1,2.5-2.5,2.5h-35c-1.4,0-2.5-1.1-2.5-2.5v-34
			C268.9,155.6,270,154.5,271.4,154.5z"/>
	</g>
	<g>
		<path class="st34" d="M271.9,61.8h34c1.4,0,2.5,1.1,2.5,2.5v34c0,1.4-1.1,2.5-2.5,2.5h-34c-1.4,0-2.5-1.1-2.5-2.5v-34
			C269.4,63,270.5,61.8,271.9,61.8z"/>
	</g>
	<g>
		<path class="st33" d="M318.2,61.8h34c1.4,0,2.5,1.1,2.5,2.5v34c0,1.4-1.1,2.5-2.5,2.5h-34c-1.4,0-2.5-1.1-2.5-2.5v-34
			C315.7,63,316.8,61.8,318.2,61.8z"/>
	</g>
	<g>
		<path class="st33" d="M364.5,61.8h34c1.4,0,2.5,1.1,2.5,2.5v34c0,1.4-1.1,2.5-2.5,2.5h-34c-1.4,0-2.5-1.1-2.5-2.5v-34
			C362,63,363.1,61.8,364.5,61.8z"/>
	</g>
	<g>
		<path class="st33" d="M271.9,108.2h34c1.4,0,2.5,1.1,2.5,2.5v34c0,1.4-1.1,2.5-2.5,2.5h-34c-1.4,0-2.5-1.1-2.5-2.5v-34
			C269.4,109.3,270.5,108.2,271.9,108.2z"/>
	</g>
	<g>
		<path class="st33" d="M225.6,61.8h34c1.4,0,2.5,1.1,2.5,2.5v34c0,1.4-1.1,2.5-2.5,2.5h-34c-1.4,0-2.5-1.1-2.5-2.5v-34
			C223.1,63,224.2,61.8,225.6,61.8z"/>
	</g>
</g>
</svg>
