<?xml version="1.0" encoding="utf-8"?>
<!-- Generator: Adobe Illustrator 25.2.1, SVG Export Plug-In . SVG Version: 6.00 Build 0)  -->
<svg version="1.1" id="Layer_1" xmlns="http://www.w3.org/2000/svg" xmlns:xlink="http://www.w3.org/1999/xlink" x="0px" y="0px"
	 width="370px" height="436px" viewBox="0 0 370 436" style="enable-background:new 0 0 370 436;" xml:space="preserve">
<style type="text/css">
	.st0{fill:#407FFD;}
	.st1{clip-path:url(#SVGID_2_);}
	.st2{fill:#BCBEC0;}
	.st3{fill:#FFFFFF;}
	.st4{fill:#0D51D9;}
	.st5{fill:#3B455A;}
	.st6{fill:#EAC5B0;}
	.st7{fill:#CFCEF9;}
	.st8{fill:#ABADB2;}
	.st9{fill:#7DB5DB;}
	.st10{fill:#B9916F;}
	.st11{fill:#305399;}
	.st12{opacity:6.000000e-02;fill:#0D51D9;enable-background:new    ;}
</style>
<g>
	<ellipse class="st0" cx="185" cy="339.2" rx="185" ry="96.5"/>
</g>
<g>
	<g>
		<defs>
			<rect id="SVGID_1_" x="5" y="201.8" width="360" height="262"/>
		</defs>
		<clipPath id="SVGID_2_">
			<use xlink:href="#SVGID_1_"  style="overflow:visible;"/>
		</clipPath>
		<g class="st1">
			<path class="st2" d="M30.3,292.8l-0.1,1.5l46.9,2.1l0.1-1.5L30.3,292.8z"/>
			<path class="st2" d="M43.8,249.9l-1.2,0.9l34,45.4l1.2-0.9L43.8,249.9z"/>
			<path class="st3" d="M214.7,326.8l0.2-3.5l1.5-0.1l0.4,2.4l0.7-0.4l-0.6,3l-1.6,0.3L214.7,326.8z"/>
			<path class="st3" d="M234.5,340.9l-11.2-1l-5.5-13.3l-3.1,1l2.9,18.4l17.5,3.2L234.5,340.9z"/>
			<path class="st4" d="M73.7,320l-0.5-3.5l-1.5,0.1l-0.2,2.5l-0.8-0.3l0.8,3l1.6,0.1L73.7,320z"/>
			<path class="st4" d="M51.7,337.3l16.2-3.2l2.8-14.1l3.1,0.7l-0.9,19.6l-16.2,5.4L51.7,337.3z"/>
			<path class="st5" d="M118.8,426.5c-0.4-0.4-0.8-0.6-1.2-0.5c-0.4,0.1-0.8,0.4-1,0.8c-0.1,0.3-0.2,0.6-0.2,0.9
				c-0.1,1.5-0.1,5.2,1.9,5.7c0.9,0.2,1.6-0.4,1.8-1.1C120.5,431,120,427.8,118.8,426.5z"/>
			<path class="st6" d="M119.5,403.4l-0.1,9.3c0.1,4.2-0.5,8.3-0.4,12.5c0,0.9,0.3,2,0,2.9c-0.2,0.9-1,1.1-1.8,0.6
				c-1-0.6-0.9-2.1-1-3.2c-0.5-2.9-1-5.9-1.5-8.8c-0.2-1.4,0.3-3.5,0.2-4.9l-1.5-7.8L119.5,403.4z"/>
			<path class="st7" d="M108.8,388.3l4.1,18.1l0.9,17.1l6.4-0.2l1.7-47.7l-12.5,0.2L108.8,388.3z"/>
			<path class="st7" d="M128,426.2c-0.4-0.4-0.8-0.6-1.2-0.5c-0.4,0.1-0.8,0.4-1,0.8c-0.1,0.3-0.1,0.6-0.1,0.9
				c-0.1,1.5,0.1,5.2,2.2,5.6c0.9,0.2,1.5-0.5,1.7-1.3C129.9,430.6,129.2,427.4,128,426.2z"/>
			<path class="st7" d="M124.6,404.7l0.6,9.3c0,2.6,0.4,5.2,0.7,7.7c0.3,2.4-0.1,4.9,1.1,7.1c0.4,0.7,1.2,1.1,1.7,0.3
				c0.4-0.7,0.2-1.7,0.3-2.4c0.3-2.9,0.8-5.9,1.1-8.9c0.2-1.4-0.4-3.4-0.4-4.9l1.1-7.9L124.6,404.7z"/>
			<path class="st7" d="M132.8,387.2l0.5,17.6l-2.7,17.8l-6.5,0.2l0.3-19.2l-3.5-15.9l-1.2-10.4l10.4-1.2L132.8,387.2z"/>
			<path class="st3" d="M124.6,340l-11.2-0.3l-6.5,12.1l2.3,11.3l0.4,13.6l16,0.2l5.3-0.9l-1.4-14.5l0.8-19.4L124.6,340z"/>
			<path class="st6" d="M109.6,371.4l-0.5,1.9l2.6,2.1l2-0.9l0.6-2.2l-1.6-0.6l0.1-0.5l-0.4-0.6L109.6,371.4z"/>
			<path class="st3" d="M113.4,340.2l-13.7,15l-2.1,6.1l11.2,11.8l3.4-2.3l-7.2-9.8l6.8-5.1L113.4,340.2z"/>
			<path class="st8" d="M124.1,347.3L130,359l6.3,1.2l12.1-10.2l-2.7-3.1l-10.8,6l-5.7-10.7L124.1,347.3z"/>
			<path class="st6" d="M123.8,330.6c-1.7-4.9-8.2-3.1-9.5,1.3c-0.9,2.8,1.3,6.6,4.3,7.4c0,0.1,0,0.2,0,0.3c0,0.5,0.1,0.9,0.1,1.4
				c0,0.2,2.6-0.3,2.9-0.4c0.1,0,0.2,0,0.3-0.1c0.1-0.2-0.1-0.7-0.1-0.8c0-0.2,0-0.4-0.1-0.7c1.5-0.7,2.4-2.2,2.7-3.8
				C124.7,333.7,124.4,332.1,123.8,330.6z"/>
			<path class="st5" d="M119.6,326.2c-0.4,0.4-0.5,0.9-0.6,1.3c-0.1,0.3-0.1,0.6-0.1,0.9c0.2,1.1,1.3,1,2.2,1.4c1,0.5,2,1.2,2.6,2.2
				c0.9,1.5,0.5,3.4,0.1,5c-0.1,0.6-0.4,1.4,0,1.9c0.5,0.5,1.5,0.4,2,0.2c0.5-0.2,0.9-0.7,1.4-0.8c0.6-0.1,1.3,0.2,1.6-0.4
				c0.1-0.1,0.1-0.3,0.2-0.5c0.3-0.5,1.1,0.1,1.5-0.2c0.3-0.2,0.3-0.6,0.2-1c-0.1-0.3-0.3-0.7-0.2-1c0.1-0.3,0.3-0.5,0.4-0.8
				c0.3-0.5,0.2-1.2-0.2-1.6c-0.7-0.8-2.1-0.7-2.8-1.4c-0.4-0.4-0.6-1-0.7-1.5c-0.1-0.6-0.3-1.1-0.8-1.5c-0.5-0.5-1.3-0.4-1.8-0.9
				c-0.3-0.3-0.5-0.7-0.9-1c-0.5-0.4-1.3-0.7-1.9-0.8C121.2,325.3,120.3,325.5,119.6,326.2z"/>
			<path class="st5" d="M115.5,334c0,1.6,0.8,3.4,0,4.8c-0.8,1.4-2.6,1.7-4.2,1.8c-0.3,0-3.6,0.3-3.6,0.2c-0.3-1.1-0.5-2.3-1.1-3.3
				c-0.6-1-1.6-1.8-2.7-1.9c0.3-0.1,0.5-0.5,0.5-0.8c0-0.3-0.2-0.7-0.3-1c-0.3-0.8,0-1.7,0.6-2.3c1.2-1.1,3.3-0.7,4.4-1.9
				c0.6-0.8,0.6-1.9,0.9-2.9c0.7-1.9,2.7-2.3,4.2-3.1c1.6-0.9,3.1-1.4,5-1.1c2.3,0.4,4,2.8,3.1,4.9c-1.1,2.8-5.7,2.6-6.6,5.5
				C115.6,333.4,115.5,333.7,115.5,334z"/>
			<path class="st9" d="M116.7,339.9l3.5,4.9l1.6-0.2l2.7-5L116.7,339.9z"/>
			<path class="st2" d="M255.6,249.4l-0.2,1.5l56.2,7.5l0.2-1.5L255.6,249.4z"/>
			<path class="st2" d="M68.2,300.7l-1.1,1.1l59,55.4l1.1-1.1L68.2,300.7z"/>
			<path class="st2" d="M256.4,253.3l-0.9,1.3l72.8,49.4l0.9-1.3L256.4,253.3z"/>
			<path class="st7" d="M65.7,380.8c-0.3-2.8-0.6-5.5-0.9-8.3c-0.7-5.5-1.6-11-3.2-16.3c-0.6-2-1.3-4-2-6.1
				c-0.9-2.5-1.7-4.9-2.5-7.3c-1-3-2.8-5.2-5.9-6.2c-0.6-0.2-1.1-0.3-1.7-0.5c0,0.1,0,0.1,0,0.2c0,0.3-0.1,0.6-0.3,0.8l2,0
				c0,0,5.7,19.9,5.9,23.4c0.1,1.3,0.4,4.2,0.7,7.2l3.1,0.5l0.1,11.5c0.2,0.1,0.4,0.1,0.5,0.1c1,0.3,1.8,1,2.6,1.5
				C65.3,382.1,65.8,382.4,65.7,380.8z"/>
			<path class="st7" d="M41.6,367.4c0.6-2.8,1-5.4,1-6.8c0.1-4.2,0.7-18.2,0.7-18.2l2.6-5.3h0.5c0,0-0.1,0-0.1,0c0-0.5,0-0.8,0-1.2
				c-4.6,0.3-9.3,2.7-10.6,7.1c-0.1,0.4-0.2,0.8-0.2,1.1c-0.2,2.3,0.5,4-0.1,6.3c-0.6,2-1.1,4-1.5,6.1c-0.6,2.9-1,5.9-1.5,8.8
				c-0.5,3.2-0.8,6.5-0.9,9.7c0,0.4-0.1,1.3-0.1,2.6c-0.1,2.5,0,5.8,1,6c0.2,0,0.4-0.1,0.6-0.2c1.3-0.7,2.4-1.5,3.6-2.3l0.1-13
				L41.6,367.4z"/>
			<path class="st7" d="M52.7,377.9c-0.2,0-0.5,0-0.7,0.1l-2.2,21.3l2.4,31h0v-0.5h4l5-34.6L61,379.6c-2.4-0.7-5-1.8-7.5-1.7
				C53.2,377.9,52.9,377.9,52.7,377.9z"/>
			<path class="st7" d="M57.8,367.7c0.5,4.7,1,9.9,1,9.9s-2.5,0.1-6.1,0.3c0.3,0,0.5,0,0.8,0c2.5,0,5.1,1,7.5,1.7l-0.1-11.5
				L57.8,367.7z"/>
			<path class="st5" d="M52.2,430.3v1.7l4.3,2.1l2.1-2.1l-2.1-2.1h-0.3l-0.1,0.5H52.2z"/>
			<path class="st5" d="M52.2,430.3h3.9l0.1-0.5h-4V430.3z"/>
			<path class="st7" d="M46.4,378.5c-0.1,0-0.2,0-0.3,0c-2.5,0.6-4.2,0.8-5.2,0.8c-1,0.3-2,0.6-3,1c-0.5,0.2-0.9,0.5-1.3,0.7v2.7
				l4.8,46h4v0.5h0l4.4-30.9l0-0.2l-0.1-1.3L46.4,378.5z"/>
			<path class="st7" d="M40.9,379.3c-1.7,0.1-1.9-0.2-1.9-0.2s1.6-6.3,2.7-11.7l-4.9,0.7l-0.1,13c0.4-0.3,0.9-0.5,1.3-0.7
				C38.8,380,39.9,379.6,40.9,379.3z"/>
			<path class="st5" d="M46.4,378.5l3.2,19.5l0.1,1.3l2.2-21.3C50.3,378.1,48.4,378.3,46.4,378.5z"/>
			<path class="st5" d="M41.4,429.8h-0.3L39,432l2.1,2.1l4.3-2.1v-1.7h-3.9L41.4,429.8z"/>
			<path class="st5" d="M41.4,429.8l0.1,0.5h3.9v-0.5H41.4z"/>
			<path class="st3" d="M48.9,337.3c-0.2,0.1-0.4,0-0.5,0c-0.7-0.1-1.3-0.2-2-0.2h-0.5l-2.6,5.3c0,0-0.6,14-0.7,18.2
				c0,1.4-0.5,4-1,6.8l2.9-0.4l-0.2-1.3l1.6,0.2l-0.1-0.2l0.7-25.7l-0.4-1.7c-0.1-0.5,0.2-0.9,0.7-0.9h2.6c0.6,0,0.9,0.7,0.6,1.2
				l-1.1,1.4l2.8,25.9l1.6-0.2l-0.1,1.3l4.6,0.7c-0.3-3-0.6-5.9-0.7-7.2c-0.2-3.4-5.9-23.4-5.9-23.4l-2,0c0,0,0,0.1-0.1,0.1
				C49.1,337.2,49,337.3,48.9,337.3z"/>
			<path class="st3" d="M52,377.9c0.2,0,0.5,0,0.7-0.1C52.4,377.9,52.2,377.9,52,377.9L52,377.9z"/>
			<path class="st3" d="M52,377.9c0.2,0,0.5,0,0.7,0c3.6-0.3,6.1-0.3,6.1-0.3s-0.6-5.1-1-9.9l-4.6-0.7L52,377.9z"/>
			<path class="st3" d="M45.8,365.9l-1.6-0.2l0.2,1.3l1.8-0.3L45.8,365.9z"/>
			<path class="st3" d="M44,378.7c-1,0.2-2.1,0.4-3.1,0.6c1.1-0.1,2.7-0.3,5.2-0.8c0.1,0,0.2,0,0.3,0l0-0.1
				C45.6,378.4,44.8,378.6,44,378.7z"/>
			<path class="st3" d="M51.3,366.7l1.8,0.3l0.1-1.3l-1.6,0.2l0.1,0.5L51.3,366.7z"/>
			<path class="st3" d="M46.4,378.4L44.5,367l-2.9,0.4c-1.1,5.4-2.7,11.7-2.7,11.7s0.2,0.3,1.9,0.2c1-0.3,2.1-0.5,3.1-0.6
				C44.8,378.6,45.6,378.4,46.4,378.4z"/>
			<path class="st3" d="M46.4,378.4l0,0.1c2-0.2,3.9-0.4,5.6-0.6v0C50.1,378,48.2,378.1,46.4,378.4z"/>
			<path class="st3" d="M52,377.9l1.1-10.9l-1.8-0.3l-3.2,3.1l-1.8-3.1l-1.8,0.3l1.9,11.4C48.2,378.1,50.1,378,52,377.9z"/>
			<path class="st9" d="M51.6,365.9L48.8,340l1.1-1.4c0.4-0.5,0-1.2-0.6-1.2h-2.6c-0.5,0-0.8,0.5-0.7,0.9l0.4,1.7l-0.7,25.7l0.1,0.2
				l2.9,0.4L51.6,365.9z"/>
			<path class="st9" d="M48.8,366.3l-2.9-0.4l0.5,0.8L48.8,366.3z"/>
			<path class="st9" d="M51.3,366.7l0.4-0.4l-0.1-0.5l-2.8,0.4L51.3,366.7z"/>
			<path class="st9" d="M46.3,366.7l1.8,3.1l3.2-3.1l-2.6-0.4L46.3,366.7z"/>
			<path class="st10" d="M49.5,336.1c0.3-1.1,1.5-1.6,2.2-2.6c0.8-1.1,1.1-2.5,1.3-3.8c0,0,0,0,0-0.1c-0.1,0.1-0.2,0.1-0.3,0.1
				c-0.1-0.5,0.1-1.1,0.2-1.6c0-0.1,0-0.3,0-0.4c-0.9-0.2-1.9-0.5-2.7-0.8c-1.5-0.7-4.3-1.3-5.9-0.6c-1.2,0.6-0.9,2.5-0.8,3.7
				c0,0.3,0,0.6,0,0.9c-0.1,0.3-0.3,0.5-0.4,0.8c0.1,0.5,0.4,0.9,0.7,1.3c1,1.1,2,1.6,2.2,2.8C47.3,335.8,48.5,335.9,49.5,336.1z"/>
			<path class="st10" d="M46.3,337.1C46.3,337.1,46.3,337.1,46.3,337.1l2.9,0c0.2-0.2,0.3-0.5,0.3-0.8c0-0.1,0-0.1,0-0.2
				c-1-0.2-2.2-0.3-3.3-0.2C46.3,336.2,46.3,336.6,46.3,337.1z"/>
			<path class="st6" d="M48.4,337.3c0.2,0,0.4,0,0.5,0c0.1,0,0.2-0.1,0.2-0.1c0,0,0,0,0.1-0.1l-2.8,0
				C47.1,337.2,47.7,337.2,48.4,337.3z"/>
			<path class="st5" d="M53.1,327.7c0.1,0.6,0.1,1.3,0,1.9c0.7-0.4,1.1-1.1,1.4-1.8C54,327.8,53.5,327.8,53.1,327.7z"/>
			<path class="st5" d="M53.1,327.7C53,327.7,53,327.7,53.1,327.7c-0.1,0.1-0.1,0.3-0.1,0.4c-0.1,0.6-0.4,1.1-0.2,1.6
				c0.1,0,0.2-0.1,0.3-0.1C53.1,329,53.2,328.3,53.1,327.7z"/>
			<path class="st5" d="M43.2,328c0-0.5,0-1,0.3-1.4c0.4-0.8,1.2-1.2,2-1.4c2.1-0.6,4.4-0.5,6.2,0.7c0.5,0.3,0.9,0.7,1.2,1.2
				c0,0.1,0.1,0.2,0.1,0.2c-0.1-0.6-0.4-1.2-0.3-1.6c0.1-0.6,1-0.8,1.4-0.4c0.3,0.2,0.5,0.7,0.6,1.1c0,0.4-0.1,0.9-0.2,1.3
				c0,0,0,0.1,0,0.1c0.3,0,0.6-0.1,0.8-0.2c1.3-0.6,2.3-2.8,2.3-4.2c0-0.7-0.3-1.2-0.9-1.6c-0.5-0.3-1.1-0.6-1.4-1.1
				c-0.2-0.4-0.3-0.9-0.5-1.3c-0.4-0.8-1.3-1-2.1-1.2c-2-0.7-3.1-1.4-5.2-0.6c-1.5,0.6-3.4,0.7-4.8,1.5c-0.6,0.4-1.1,0.9-1.5,1.6
				c-1.4,2.2-1.7,5.3-0.8,7.6c0.2,0.5,0.5,1,0.8,1.4c0.6,0.9,1.1,2,2.1,2.5c0-0.1,0.1-0.2,0.1-0.3C43,330.6,43.2,329.3,43.2,328z"/>
			<path class="st5" d="M43.7,330c-0.1-1.2-0.4-3.1,0.8-3.7c1.5-0.8,4.4-0.1,5.9,0.6c0.7,0.3,1.7,0.7,2.7,0.8c0-0.1,0-0.2-0.1-0.4
				c0-0.1-0.1-0.2-0.1-0.2c-0.3-0.5-0.7-0.9-1.2-1.2c-1.8-1.1-4.2-1.3-6.2-0.7c-0.8,0.3-1.6,0.7-2,1.4c-0.2,0.4-0.2,0.9-0.3,1.4
				c-0.1,1.2-0.3,2.5,0.1,3.7c0.1-0.3,0.3-0.5,0.4-0.8C43.8,330.6,43.7,330.3,43.7,330z"/>
			<path class="st5" d="M54.7,326.4c0-0.4-0.2-0.9-0.6-1.1c-0.5-0.3-1.3-0.2-1.4,0.4c-0.1,0.4,0.2,1,0.3,1.6c0,0.1,0.1,0.3,0.1,0.4
				c0.5,0.1,0.9,0.1,1.4,0.1c0,0,0-0.1,0-0.1C54.6,327.3,54.7,326.8,54.7,326.4z"/>
			<path class="st5" d="M52.9,327.3c0,0.1,0,0.3,0.1,0.4c0,0,0,0,0.1,0C53,327.6,53,327.5,52.9,327.3z"/>
			<path class="st5" d="M309.5,332.1c-0.9,1.4-0.5,3.2-0.1,4.8c0.2,0.6,0.4,1.5-0.2,2c-0.7,0.5-1.8,0-2.2-0.7
				c-0.3-0.5-0.3-1-0.3-1.5c0-2.4-0.1-5.6,0.8-7.8c0.7-1.7,3.9-4.2,5.8-2.4c0.4,0.3,0.5,0.8,0.6,1.3c0.1,0.3,0.1,0.6,0.1,0.8
				c-0.2,1.1-1.3,1-2.1,1.4C310.9,330.4,310.1,331.2,309.5,332.1z"/>
			<path class="st6" d="M311.5,338.9c-1.4-0.7-2.4-2.1-2.7-3.6c-0.3-1.5,0-3,0.5-4.4c1.6-4.7,8-3,9.4,1.2
				C319.9,335.7,315.7,340.8,311.5,338.9z"/>
			<path class="st5" d="M317.7,334.2c-0.1,0.6,0,1.3-0.1,1.9c-0.2,1.1-0.9,2.5-0.8,3.6c1.1,0.2,2.7-0.1,3.8-0.6
				c1.1-0.5,1.3-1.7,1.8-2.8c0.5-1,1-2,1.3-3.1c1.5-6-3.3-11-9.3-10c-2.3,0.4-3.9,2.7-3,4.8c1,2.3,4.4,2.5,5.8,4.4
				C317.5,332.9,317.7,333.5,317.7,334.2z"/>
			<path class="st6" d="M311.5,338.5c0,0.5-0.1,0.9-0.1,1.3c0,0.2-0.2,0.8-0.1,1c0.1,0.1,0.2,0.1,0.3,0.1c0.3,0.1,2.8,0.5,2.8,0.3
				c0.1-0.5,0.1-1,0.1-1.5c0-0.4,0.2-1.1,0.1-1.5c-0.5,0.2-1,0.3-1.5,0.3C312.5,338.4,312,338.4,311.5,338.5
				C311.5,338.4,311.5,338.4,311.5,338.5z"/>
			<path class="st7" d="M292.7,376.1l-1.8-0.3l-1.8,2.5l1,1.8l2.1,0.4l0.8-2.6L292.7,376.1z"/>
			<path class="st7" d="M309.4,344.4l-8.1,0l-2.6,18l-7.8,12.9l2.2,2.5l10.3-10.3L309.4,344.4z"/>
			<path class="st5" d="M306.7,428.3c0.3-0.5,0.7-0.8,1.2-0.9c0.5,0,1,0.2,1.3,0.6c0.2,0.3,0.3,0.6,0.4,0.9c0.5,1.6,1.4,5.6-0.8,6.7
				c-0.9,0.4-1.9-0.1-2.3-0.9C305.9,433.6,305.7,429.9,306.7,428.3z"/>
			<path class="st6" d="M310.6,402.8l-0.3,10.5c0.1,4.6-0.8,9.3-0.7,14c0,1.1,0.3,2.2,0,3.3c-0.3,1-1.1,1.2-2,0.7
				c-1.2-0.7-0.9-2.4-1.1-3.6c-0.5-3.3-1.1-6.6-1.6-9.9c-0.3-1.6,0.4-3.9,0.3-5.5l-1.6-8.8L310.6,402.8z"/>
			<path class="st5" d="M314.1,428.7c0.4-0.5,0.8-0.7,1.4-0.7c0.5,0.1,1,0.4,1.2,0.8c0.2,0.3,0.2,0.6,0.2,1c0.2,1.7,0.4,5.8-1.9,6.5
				c-1,0.3-1.8-0.4-2.1-1.2C312.4,433.8,312.8,430.2,314.1,428.7z"/>
			<path class="st6" d="M312.1,402.8l0.6,10.5c0.1,4.6,1,9.3,1.1,14c0,1.1-0.2,2.2,0.1,3.3c0.3,1,1.2,1.2,2.1,0.6
				c1.1-0.8,0.9-2.4,1-3.6c0.4-3.3,0.9-6.6,1.3-10c0.2-1.6-0.5-3.9-0.4-5.5l1.3-8.9L312.1,402.8z"/>
			<path class="st9" d="M317.4,340.4L308,341l-5.1,3.9c0,0,0.5,16.1,0.3,22.1c-0.2,6-0.6,10.8-1.1,19.6c-0.6,9.6,1.9,21.2,1.9,21.2
				l20-0.3c0,0,4.1-21.9,2-27.6c-2.1-5.7-0.9-11.3-0.9-16c-0.1-4.7-2-20.2-2-20.2L317.4,340.4z"/>
			<path class="st7" d="M321.9,341.6l4.8,4c0,0-2.1,17.9-2.1,20.9c-0.1,3,1.5,11.8,1.5,11.8l-7-0.7c0,0-3.2-4.7-4-11
				c-0.8-6.3,3.4-26.4,3.4-26.4L321.9,341.6z"/>
			<path class="st7" d="M304.6,341.9l-3.6,2.5c0,0,1.7,19.5,1.8,22.4c0.2,2.9-2.3,12.4-2.3,12.4l7.7-1.5c0,0,2.9-4.8,3.4-11.1
				c0.5-6.3-4-26.3-4-26.3L304.6,341.9z"/>
			<path class="st7" d="M336.3,326.5l2.1,0.7l2.6-2.9l-0.9-2.4l-2.5-0.8l-1.4,3.1L336.3,326.5z"/>
			<path class="st7" d="M318.6,349.8l14.1-4.6l7.1-18.9l-4.2-1l-8.3,14.3l-8.6,1.8L318.6,349.8z"/>
			<path class="st2" d="M194.1,309l-67.8,47.1l0.9,1.3l67.8-47.1L194.1,309z"/>
			<path class="st2" d="M124.5,265.3l-0.8,1.3l70.4,43.7l0.8-1.3L124.5,265.3z"/>
			<path class="st2" d="M63.7,296.4l-0.1,1.5l131,12.4l0.1-1.5L63.7,296.4z"/>
			<path class="st2" d="M255.4,249.6l-63.3,59.5l1.1,1.1l63.3-59.5L255.4,249.6z"/>
			<path class="st2" d="M193,309l-0.8,1.3l83.8,54.6l0.8-1.3L193,309z"/>
			<path class="st2" d="M331.8,302.6L194.5,307l0,1.5l137.3-4.5L331.8,302.6z"/>
			<path class="st7" d="M189,344.8c22.9,0,41.4-18.5,41.4-41.4c0-22.9-18.5-41.4-41.4-41.4c-22.9,0-41.4,18.5-41.4,41.4
				C147.6,326.3,166.1,344.8,189,344.8z"/>
			<path class="st7" d="M122.6,280.7c10.7,0,19.4-8.7,19.4-19.4s-8.7-19.4-19.4-19.4s-19.4,8.7-19.4,19.4S111.9,280.7,122.6,280.7z"
				/>
			<path class="st7" d="M54.5,295.7c0-12.2,9.9-22.1,22.1-22.1s23.2,9.9,23.2,22.1c0,12.2-11,22.1-23.2,22.1S54.5,307.9,54.5,295.7z
				"/>
			<path class="st7" d="M129.7,374.1c9.6,0,17.4-7.8,17.4-17.4c0-9.6-7.8-17.4-17.4-17.4c-9.6,0-17.4,7.8-17.4,17.4
				C112.2,366.3,120,374.1,129.7,374.1z"/>
			<path class="st7" d="M255.4,270.9c10.6,0,19.2-8.6,19.2-19.3c0-10.6-8.6-19.3-19.2-19.3s-19.2,8.6-19.2,19.3
				C236.2,262.2,244.8,270.9,255.4,270.9z"/>
			<path class="st7" d="M276.4,383c11.6,0,20.9-9.4,20.9-21c0-11.6-9.4-21-20.9-21c-11.6,0-20.9,9.4-20.9,21
				C255.5,373.6,264.8,383,276.4,383z"/>
			<path class="st7" d="M345.6,320.1c9.3-9.3,9.3-24.3,0-33.6c-9.3-9.3-24.3-9.3-33.6,0c-9.3,9.3-9.3,24.3,0,33.6
				S336.3,329.4,345.6,320.1z"/>
			<path class="st7" d="M311.7,269.4c6.5,0,11.7-5.3,11.7-11.8c0-6.5-5.3-11.8-11.7-11.8c-6.5,0-11.8,5.3-11.8,11.8
				C299.9,264.1,305.2,269.4,311.7,269.4z"/>
			<path class="st7" d="M44.3,262.1c6.5,0,11.7-5.3,11.7-11.8c0-6.5-5.3-11.8-11.7-11.8c-6.5,0-11.7,5.3-11.7,11.8
				C32.5,256.9,37.8,262.1,44.3,262.1z"/>
			<path class="st9" d="M42.8,296.5c1.6-6.9-2.6-13.9-9.6-15.5c-6.9-1.6-13.8,2.7-15.5,9.6c-1.6,6.9,2.6,13.8,9.6,15.5
				C34.2,307.7,41.2,303.4,42.8,296.5z"/>
			<path class="st11" d="M66.2,368c7.9,0,14.4-6.4,14.4-14.4s-6.4-14.4-14.4-14.4c-7.9,0-14.4,6.4-14.4,14.4S58.3,368,66.2,368z"/>
			<path class="st7" d="M48.7,357.4l2.3-0.1l1.3-1.5l0.5,0.1l-0.1,0.6l1.4-1l1.4,0.1l0.9,1.6l-0.3,1.9l-1.7,0.8l-2.2-0.3l-3.1,0.4
				L48.7,357.4z"/>
			<path class="st7" d="M49.9,356.3l-12.4,0.3l2.5-19l-8.4,8.4l-1.3,17.6l4.5,2.5l16.9-5.4L49.9,356.3z"/>
			<path class="st3" d="M225.7,343.5l3.3-3.2l9,0.6c0,0,0.9,6.4,5,20.8c4.1,14.3-1.9,32.6-1.9,32.6s-23.2-5.5-27.9-6.4l5.8-26.2
				L225.7,343.5z"/>
			<path class="st7" d="M233.1,378v5.1l-6.8,22.1l1.7,23l-4.3,0.9l-6.8-28.1l0.3-8.3l3.1-16.9L233.1,378z"/>
			<path class="st7" d="M227.7,384l6.8,46.8h3.1l2-25.5l4.3-25.5L227.7,384z"/>
			<path d="M224.3,428.7l-3.2,3.4l0.9,1.7l6.7-3.2l-1.2-2.6L224.3,428.7z"/>
			<path d="M234.6,430.2l-4,2.5l0.5,1.9l7.3-1.4l-0.6-2.8L234.6,430.2z"/>
			<path class="st10" d="M233.2,327c1.9,2,5.3,2.1,7,4.3c1,1.5,1,3.6,0.2,5.2c-0.4,0.8-0.9,1.5-1.6,1.9c-0.5,0.3-1,0.4-1.6,0.5
				c-0.7,0.1-1.5,0.1-2.2-0.1c-0.1,0.7-0.2,1.3-0.2,2c-1.3-0.5-2.9-0.1-4.2-0.6c0.3-0.7,1-2.4,1.3-3.1c-0.3-0.3-0.5-0.6-0.7-0.9
				c-1.3-2-1.3-4.7-0.1-6.7C231.6,328.6,232.4,327.8,233.2,327z"/>
			<path class="st5" d="M233.1,328.1l7,5l-3.1,6l3,0.2l6.3-8.7l-8.7-8.3l-5.9-1.2l-1.9,2.4l1.3,5.5L233.1,328.1z"/>
			<path class="st3" d="M228.7,340.6l12.2,0c0,0,1.8,4.2,5.9,18.5c4.1,14.3-1.9,32.6-1.9,32.6s-20.7-10.3-25.4-11.2l3.4-21.5
				L228.7,340.6z"/>
			<path class="st3" d="M246.9,359.5c-4.1-14.3-6-18.8-6-18.8l-11.8-0.4l0,0.1c0.2,0.6,0.5,1.2,0.7,1.8c0.8,2.4,1.4,4.7,1.8,7.2
				c0.7,4.3,0.7,8.7,0.6,13.1c-0.1,4.2-0.6,8.3-1.3,12.4c-1,5.4-2.6,10.7-4.5,15.9c9.4,1.9,20.5,4.2,20.5,4.2S251,373.8,246.9,359.5
				z"/>
			<path class="st5" d="M224.3,362.8c-0.5,1.9-0.9,4.1-0.6,6c0,0,1.3,2.7,1.4,2.5c0-0.1,1.4-1.3,1.8-2.2c0.7-1.5,0.8-3.4,0.9-5.1
				c0.1-6-0.3-12.1,0.7-18.1c1.2-0.4,2.2-1.2,1.5-2.5c-2.3,0.9-2.6,6.1-3.1,8.2C226,355.4,225.2,359.1,224.3,362.8z"/>
			<path class="st6" d="M147.3,350.9l0.9-1.7l-2.1-2.7l-2.2,0.5l-1,2l1.4,1l-0.2,0.5l0.3,0.6L147.3,350.9z"/>
			<path class="st4" d="M219,290.7c-1.6-3.9-4-7.4-7-10.4s-6.5-5.3-10.4-7c-4-1.7-8.3-2.6-12.7-2.6c-4.4,0-8.7,0.9-12.7,2.6
				c-3.9,1.6-7.4,4-10.4,7s-5.3,6.5-7,10.4c-1.7,4-2.6,8.3-2.6,12.7c0,4.4,0.9,8.7,2.6,12.7c1.6,3.9,4,7.4,7,10.4s6.5,5.3,10.4,7
				c4,1.7,8.3,2.6,12.7,2.6c4.4,0,8.7-0.9,12.7-2.6c3.9-1.6,7.4-4,10.4-7s5.3-6.5,7-10.4c1.7-4,2.6-8.3,2.6-12.7
				C221.6,299,220.7,294.7,219,290.7z M173.1,302.4c0-2.6,0.3-5,0.9-7.5h13.4v15.5h-13.3C173.4,307.8,173.1,305.1,173.1,302.4z
				 M197.2,281c2.4,2.8,4.2,5.8,5.6,8.9c0.3,0.6,0.5,1.2,0.7,1.8h-12.8v-16.7C192.2,276,194.7,278,197.2,281z M187.4,275.2v16.4H175
				c0.2-0.6,0.4-1.1,0.7-1.7c1.3-3.1,3.2-6.2,5.5-8.9C183.5,278.3,185.8,276.4,187.4,275.2z M187.4,313.7v17.6
				c-1.6-1.3-3.8-3.5-6.1-6.4c-2.4-3-4.3-6.3-5.6-9.7c-0.2-0.5-0.4-1-0.6-1.5H187.4z M190.6,331.7v-18h12.7c-0.2,0.5-0.4,1-0.6,1.5
				c-1.3,3.3-3.2,6.6-5.6,9.6C194.7,328.1,192.2,330.4,190.6,331.7z M190.6,310.5v-15.5h13.8c0.6,2.4,0.9,4.9,0.9,7.5
				c0,2.7-0.3,5.4-1,8.1L190.6,310.5L190.6,310.5z M207.8,294.9h9.3c0.8,2.7,1.2,5.6,1.2,8.5c0,2.4-0.3,4.7-0.9,7h-9.8
				c0.6-2.7,0.9-5.3,0.9-8.1C208.6,299.8,208.3,297.4,207.8,294.9z M209.7,282.7c2.6,2.6,4.7,5.7,6.2,9h-9c-0.3-1-0.7-2.1-1.1-3
				c-1.5-3.5-3.5-6.8-6.1-9.8c-1.3-1.6-2.7-2.9-3.9-4C201,276.1,205.8,278.8,209.7,282.7z M168.2,282.7c4-4,9.1-6.7,14.5-7.9
				c-1.2,1.1-2.6,2.5-4,4.1c-2.6,3-4.6,6.3-6.1,9.8c-0.4,1-0.8,2-1.1,3h-9.4C163.6,288.3,165.6,285.3,168.2,282.7z M160.9,294.9h9.8
				c-0.5,2.4-0.8,4.9-0.8,7.5c0,2.7,0.3,5.4,0.9,8.1h-10.2c-0.6-2.3-0.9-4.6-0.9-7C159.6,300.5,160.1,297.6,160.9,294.9z
				 M168.2,324.2c-3-3-5.3-6.5-6.7-10.4h10.1c0.3,1,0.6,1.9,1,2.8c1.5,3.6,3.5,7.1,6.1,10.4c1.7,2.2,3.3,3.9,4.8,5.3
				C177.7,331.2,172.5,328.4,168.2,324.2z M209.7,324.2c-4.1,4.1-9.1,6.8-14.7,8c1.4-1.4,3-3.1,4.6-5.2c2.6-3.3,4.6-6.8,6.1-10.4
				c0.4-0.9,0.7-1.8,1-2.8h9.7C215,317.6,212.8,321.2,209.7,324.2z"/>
			<path class="st4" d="M347,300.7c-2-3.3-6.1-4.9-9.8-3.9c0,0,0,0,0,0c-1.1,0.4-2.1,1.2-2.5,2.5c-0.1,0.3-0.5,0.2-0.4-0.1
				c0.4-1.4,1.4-2.3,2.6-2.7c-1.3-4.1-5.3-7-9.7-6.7c-4.3,0.3-7.8,3.6-8.6,7.8c0.4,0.1,0.7,0.2,1,0.4c1.4,0.6,2.4,1.7,3.2,3
				c0.2,0.3-0.2,0.5-0.4,0.2c-0.3-0.4-0.5-0.8-0.9-1.2c-1.2-1.3-2.9-2.2-4.8-2.1c-1.9,0.1-3.8,1.1-5.1,2.4c-1.4,1.5-2.2,3.6-2,5.8
				c0.2,2.1,1.3,4,2.9,5.2c1.5,1.1,3.3,1.7,5.3,1.8c1.2,0,2.5,0.1,3.8,0.1c3.6,0,7.2,0.1,10.8,0.1c1.6,0,3.1,0,4.7,0
				c1.3,0,2.7,0.1,3.9-0.1c4.2-0.8,7.3-4.6,6.9-9C348,302.9,347.6,301.7,347,300.7z"/>
			<path class="st4" d="M84.7,301.4c-1.4-0.6-2.9-0.2-4,0.8l-7.2-4.1c0.5-1.4,0.4-2.9-0.2-4.1l6.7-4.5c0.4,0.4,0.9,0.8,1.5,1
				c2.3,0.9,4.9-0.2,5.9-2.5c0.9-2.3-0.2-4.9-2.5-5.9c-2.3-0.9-4.9,0.2-5.9,2.5c-0.4,1-0.4,2-0.1,3l-6.9,4.6c-0.5-0.4-1-0.7-1.5-0.9
				c-2.8-1.1-6,0.2-7.1,3c-1.1,2.8,0.2,6,3,7.1c2.1,0.9,4.5,0.3,6-1.3l7.2,4.1c-0.4,1.8,0.6,3.6,2.3,4.3c1.9,0.8,4.1-0.2,4.9-2.1
				C87.5,304.3,86.6,302.1,84.7,301.4z"/>
			<path class="st4" d="M280.1,371.7c0.5-2.3-0.9-4.5-3.1-5c-2.3-0.5-4.5,0.9-5,3.1c-0.5,2.3,0.9,4.5,3.1,5
				C277.3,375.4,279.6,374,280.1,371.7z"/>
			<path class="st12" d="M279.1,368.5c0.2,0.5,0.2,1.1,0.2,1.7c-0.1,0.9-0.4,1.7-1,2.4c-0.6,0.7-1.4,1.1-2.2,1.3
				c-0.4,0.1-0.9,0.1-1.3,0.1h0c0.2,0.2,0.4,0.3,0.7,0.4c1.6,0.7,3.6-0.3,4.3-2.1C280.3,370.9,280,369.4,279.1,368.5z"/>
			<path class="st4" d="M283.8,368.2c-3.3-3-6.9-3.9-10.7-2.7c-2.9,0.9-4.8,2.7-4.8,2.7l-2.2-2.2c0.1-0.1,2.5-2.3,6-3.4
				c3.4-1,8.5-1.3,13.7,3.4L283.8,368.2z"/>
			<path class="st4" d="M287.3,364.9c-2.7-2.4-5.5-3.9-8.4-4.5c-2.3-0.4-4.7-0.3-7.1,0.5c-4.2,1.3-6.9,3.9-7,3.9l-2.2-2.2
				c0.1-0.1,3.3-3.1,8.2-4.7c2.9-0.9,5.8-1.1,8.6-0.6c3.5,0.7,6.9,2.4,10,5.2L287.3,364.9z"/>
			<path class="st4" d="M290.8,361.6c-3.5-3.1-7.2-5.1-11-5.8c-3-0.6-6.2-0.4-9.3,0.6c-5.5,1.7-9.2,5.1-9.2,5.2l-2.2-2.2
				c0.2-0.2,4.2-3.9,10.3-5.8c3.7-1.1,7.3-1.4,10.9-0.7c4.4,0.8,8.6,3,12.6,6.6L290.8,361.6z"/>
			<path class="st4" d="M206.6,334l-1.3-3.4l1.4-0.7l1.4,2.2l0.6-0.6l0.8,3l-1.4,0.9L206.6,334z"/>
			<path class="st3" d="M236.9,345.1l-15,1.4l-12.3-13.1l-2.7,1.8l9.9,17.3l20.1,3.3V345.1z"/>
			<path class="st4" d="M137.5,346.4c-1.1-0.7-2.5-0.7-3.6-0.1c-0.3,0.1-0.5,0.3-0.8,0.4c-1.3,0.7-2.6,1.4-3.9,2.1
				c-1,0.5-2,1-2.9,1.6c-0.9,0.5-1.6,1.3-1.8,2.3c-0.2,1-0.1,1.9,0.4,2.7c-0.5,0.3-1,0.6-1.6,0.9c-1,0.5-2,1-2.9,1.6
				c-0.9,0.5-1.6,1.3-1.8,2.3c-0.3,1-0.1,1.9,0.4,2.8c0.3,0.6,0.7,1.3,1,1.9c0.3,0.6,0.6,1.2,1,1.7c0.9,0.9,2.2,1.4,3.5,1.1
				c0.5-0.1,0.9-0.3,1.3-0.6c2.3-1.2,4.7-2.5,7-3.8c0.1,0,0.1-0.1,0.2-0.1c1.1-0.6,1.9-1.8,1.9-3.2c0-0.7-0.2-1.2-0.5-1.8
				c0.1-0.1,0.2-0.1,0.3-0.2c1.3-0.7,2.7-1.4,4.1-2.2c0.1,0,0.1-0.1,0.2-0.1c1.1-0.6,1.9-1.8,1.9-3.2c0-0.8-0.3-1.5-0.7-2.2
				c-0.4-0.7-0.7-1.3-1.1-2C138.7,347.5,138.2,346.8,137.5,346.4z M134.9,347.6C134.9,347.6,134.9,347.6,134.9,347.6L134.9,347.6z
				 M129,355C129,355,129,355,129,355c0.1,0,0.2-0.1,0.3-0.1c0,0,0.1,0,0.1,0h0h0c0.1,0,0.2,0,0.4,0h0.1c0,0,0.1,0,0.1,0
				c0.2,0,0.3,0.1,0.4,0.1c0,0,0,0,0,0c0.1,0,0.1,0.1,0.2,0.1c0,0,0.3,0.2,0.2,0.1c0.1,0.1,0.2,0.2,0.2,0.2c0,0,0.1,0.1,0.1,0.1
				c0,0,0.1,0.1,0.1,0.1c0.3,0.4,0.5,0.9,0.8,1.4c0.1,0.1,0.1,0.2,0.2,0.3c0,0-0.1,0.1-0.1,0.1c0,0-0.1,0-0.1,0
				c-0.4,0.2-0.8,0.5-1.2,0.7c-0.1,0-0.1,0.1-0.2,0.1c-0.1,0-0.2,0.1-0.2,0.1c0,0-0.2,0.1-0.3,0.1c-0.1,0-0.1,0-0.2,0h0
				c-0.2,0-0.3,0-0.5,0c0,0,0,0-0.1,0c-0.1,0-0.1,0-0.2,0c-0.1,0-0.2-0.1-0.3-0.1h0c0,0,0,0,0,0c0,0-0.1,0-0.1-0.1
				c-0.1,0-0.1-0.1-0.2-0.1c0,0-0.1,0-0.1-0.1c-0.1-0.1-0.2-0.2-0.3-0.3c0,0,0,0,0-0.1c0,0-0.1-0.1-0.1-0.1c0-0.1-0.1-0.1-0.1-0.2
				c-0.3-0.5-0.5-0.9-0.8-1.4c0.4-0.2,0.8-0.5,1.2-0.7c0.1-0.1,0.2-0.1,0.4-0.2c0,0,0,0,0.1,0C128.8,355.1,128.9,355,129,355z
				 M128.9,355C128.9,355,128.9,355,128.9,355L128.9,355z M133,358.9C133,358.9,133,358.9,133,358.9c0.1,0.2,0.1,0.2,0.2,0.3
				c0,0,0,0,0,0c0,0.2,0.1,0.3,0.1,0.5c0,0,0,0,0,0.1c0,0.1,0,0.1,0,0.2c0,0.1,0,0.2,0,0.3l0,0.1c0,0,0,0.1,0,0.1
				c0,0.1,0,0.1-0.1,0.2c0,0,0,0.1,0,0.1s0,0,0,0c-0.1,0.1-0.1,0.2-0.2,0.3c0,0,0,0,0,0.1l-0.1,0.1c-0.1,0.1-0.2,0.2-0.3,0.2l0,0
				c0,0,0,0,0,0c-0.1,0-0.1,0.1-0.2,0.1c-2.1,1.1-4.1,2.2-6.2,3.3c-0.4,0.2-0.8,0.5-1.2,0.7c-0.1,0-0.1,0.1-0.2,0.1
				c-0.1,0-0.2,0.1-0.2,0.1c0,0-0.2,0.1-0.3,0.1c-0.1,0-0.1,0-0.2,0h0c-0.2,0-0.3,0-0.5,0c0,0,0,0-0.1,0c-0.1,0-0.1,0-0.2,0
				c-0.1,0-0.2-0.1-0.3-0.1h0c0,0,0,0,0,0c0,0-0.1,0-0.1-0.1c-0.1,0-0.1-0.1-0.2-0.1c0,0-0.1,0-0.1-0.1c-0.1-0.1-0.2-0.2-0.3-0.3
				c0,0,0,0,0-0.1c0,0-0.1-0.1-0.1-0.1c0-0.1-0.1-0.1-0.1-0.2c-0.3-0.6-0.6-1.1-0.9-1.7c-0.2-0.5-0.5-0.9-0.7-1.3c0,0,0-0.1-0.1-0.1
				c0,0,0,0,0,0v0c0-0.1-0.1-0.2-0.1-0.4c0,0,0-0.2,0-0.1c0,0,0-0.1,0-0.1c0-0.1,0-0.1,0-0.2c0,0,0-0.2,0-0.2c0-0.1,0-0.2,0.1-0.3
				c0-0.1,0-0.1,0.1-0.2c0,0,0,0,0-0.1c0-0.1,0.1-0.2,0.2-0.3c0,0,0.1-0.1,0.1-0.1c0,0,0.1-0.1,0.1-0.1c0.1-0.1,0.2-0.2,0.3-0.2l0,0
				c0.1,0,0.1-0.1,0.2-0.1l0,0c0.1-0.1,0.2-0.1,0.3-0.2c0.5-0.3,0.9-0.5,1.4-0.8c0.9-0.5,1.8-1,2.7-1.5c0,0,0,0,0,0l0.1,0.1
				c0.1,0.1,0.2,0.3,0.2,0.4c0.3,0.6,0.6,1.2,1,1.7c0.9,0.9,2.2,1.4,3.5,1.1c0.5-0.1,0.9-0.3,1.3-0.6c0.4-0.2,0.7-0.4,1.1-0.6
				C132.9,358.9,132.9,358.9,133,358.9z M138,349.8c0.3,0.6,0.6,1.1,0.9,1.7c0,0,0,0.1,0.1,0.1c0,0.1,0.1,0.1,0.1,0.2c0,0,0,0,0,0
				c0,0.2,0.1,0.3,0.1,0.5c0,0,0,0,0,0.1c0,0.1,0,0.1,0,0.2c0,0.1,0,0.2,0,0.3l0,0.1c0,0,0,0.1,0,0.1c0,0.1,0,0.1-0.1,0.2
				c0,0,0,0.1,0,0.1s0,0,0,0c-0.1,0.1-0.1,0.2-0.2,0.3c0,0,0,0,0,0.1l-0.1,0.1c-0.1,0.1-0.2,0.2-0.3,0.2l0,0c0,0,0,0,0,0
				c-0.1,0-0.1,0.1-0.2,0.1c-1.4,0.8-2.8,1.5-4.3,2.3c-0.1,0.1-0.2,0.1-0.3,0.2c-0.2-0.4-0.4-0.7-0.6-1c-0.4-0.7-0.8-1.4-1.5-1.8
				c-1.1-0.7-2.5-0.7-3.6-0.1c-0.3,0.1-0.5,0.3-0.8,0.4c-0.3,0.2-0.6,0.3-0.9,0.5c0-0.1-0.1-0.1-0.1-0.2c0,0,0-0.1-0.1-0.1
				c0,0,0,0,0,0v0c0-0.1-0.1-0.2-0.1-0.4c0,0,0-0.2,0-0.1c0,0,0-0.1,0-0.1c0-0.1,0-0.1,0-0.2c0,0,0-0.2,0-0.2c0-0.1,0-0.2,0.1-0.3
				c0-0.1,0-0.1,0.1-0.2c0,0,0,0,0-0.1c0-0.1,0.1-0.2,0.2-0.3c0,0,0.1-0.1,0.1-0.1c0,0,0.1-0.1,0.1-0.1c0.1-0.1,0.2-0.2,0.3-0.2l0,0
				c0.1,0,0.1-0.1,0.2-0.1l0,0c0.1-0.1,0.2-0.1,0.3-0.2c0.5-0.3,0.9-0.5,1.4-0.8c1.3-0.7,2.6-1.4,3.9-2.1c0.5-0.3,1-0.5,1.5-0.8
				c0.1-0.1,0.2-0.1,0.4-0.2c0,0,0,0,0.1,0c0.1,0,0.2-0.1,0.3-0.1c0,0,0,0,0,0c0.1,0,0.2-0.1,0.3-0.1c0,0,0.1,0,0.1,0h0h0
				c0.1,0,0.2,0,0.4,0h0.1c0,0,0.1,0,0.1,0c0.2,0,0.3,0.1,0.4,0.1c0,0,0,0,0,0c0.1,0,0.1,0.1,0.2,0.1c0,0,0.3,0.2,0.2,0.1
				c0.1,0.1,0.2,0.2,0.2,0.2c0,0,0.1,0.1,0.1,0.1c0,0,0.1,0.1,0.1,0.1C137.5,348.8,137.8,349.3,138,349.8z"/>
			<path class="st4" d="M128.4,249.6c-0.7-0.9-1.6-1.5-2.6-1.9c-0.7-0.2-1.4-0.2-2.1-0.2h-2c-0.9,0-1.8,0.2-2.5,0.6
				c-1,0.5-1.8,1.3-2.3,2.3c-0.4,0.7-0.6,1.5-0.6,2.4v10.7h1.6v-10.7c0-0.4,0-0.7,0.2-1.1c0.1-0.3,0.4-0.8,0.6-1.1
				c0.3-0.4,0.6-0.6,1-0.9c0.4-0.2,0.8-0.4,1.3-0.5c0,0,0.1,0,0.3,0c0.1,0,0.2,0,0.2,0h2.8c0.4,0,0.7,0,1.1,0.2
				c0.3,0.1,0.8,0.4,1.1,0.6c0.4,0.3,0.6,0.6,0.9,1c0.2,0.4,0.4,0.8,0.5,1.3c0,0,0,0.1,0,0.3c0,0.1,0,0.2,0,0.2v10.7h1.6v-10.7
				C129.4,251.6,129.1,250.5,128.4,249.6z"/>
			<path class="st4" d="M114.4,259.4V271c0,1.6,1.3,2.8,2.8,2.8H128c1.6,0,2.8-1.3,2.8-2.8v-11.6H114.4z M123.2,266.9v2.8
				c0,0.2-0.2,0.4-0.6,0.4c-0.3,0-0.6-0.2-0.6-0.4v-2.8c-0.9-0.2-1.6-1.1-1.6-2.1c0-1.2,0.9-2.2,2.2-2.2s2.2,0.9,2.2,2.2
				C124.8,265.8,124.1,266.6,123.2,266.9z"/>
			<path class="st4" d="M257.3,240.3l-0.3-1.1c-0.4-0.1-0.8-0.1-1.2-0.1c-0.4,0-0.8,0-1.2,0l-0.3,1.1c-0.4,1.3-2,1.7-2.9,0.7
				l-0.8-0.9c-0.8,0.3-1.5,0.7-2.1,1.1l0.3,1.1c0.3,1.3-0.9,2.5-2.2,2l-1.1-0.4c-0.5,0.7-0.9,1.3-1.3,2.1l0.8,0.9
				c0.9,0.9,0.5,2.6-0.9,2.8L243,250c-0.1,0.4-0.1,0.8-0.1,1.2c0,0.4,0,0.8,0,1.2l1.1,0.3c1.3,0.4,1.7,2,0.7,2.9l-0.9,0.8
				c0.3,0.8,0.7,1.5,1.1,2.1l1.1-0.3c1.3-0.3,2.5,0.9,2,2.2l-0.4,1.1c0.7,0.5,1.3,0.9,2.1,1.3l0.9-0.8c0.9-0.9,2.6-0.5,2.8,0.9
				l0.3,1.1c0.4,0.1,0.8,0.1,1.2,0.1s0.8,0,1.2,0l0.3-1.1c0.4-1.3,2-1.7,2.9-0.7l0.8,0.9c0.8-0.3,1.5-0.7,2.1-1.1l-0.3-1.1
				c-0.3-1.3,0.9-2.5,2.2-2l1.1,0.4c0.5-0.7,0.9-1.3,1.3-2.1l-0.8-0.9c-0.9-0.9-0.5-2.6,0.9-2.8l1.1-0.3c0.1-0.4,0.1-0.8,0.1-1.2
				c0-0.4,0-0.8,0-1.2l-1.1-0.3c-1.3-0.4-1.7-2-0.7-2.9l0.9-0.8c-0.3-0.8-0.7-1.5-1.1-2.1l-1.1,0.3c-1.3,0.3-2.5-0.9-2-2.2l0.4-1.1
				c-0.7-0.5-1.3-0.9-2.1-1.3l-0.8,0.8C259.2,242.1,257.6,241.6,257.3,240.3z M260.6,251.8c-0.1,2.8-2.5,5.1-5.3,5
				c-2.8-0.1-5.1-2.5-5-5.3c0.1-2.8,2.5-5.1,5.3-5C258.4,246.6,260.7,249,260.6,251.8z"/>
			<path class="st3" d="M75.6,352.5c0-3.7-4.2-6.6-9.4-6.6c-5.2,0-9.4,3-9.4,6.6c0,2.3,1.7,4.4,4.2,5.5l5.2,5.8l-0.9-4.7
				c0.3,0,0.5,0,0.8,0C71.4,359.2,75.6,356.2,75.6,352.5z M62.3,353.6c-0.8,0-0.8-1.3,0-1.3C63.1,352.3,63.1,353.6,62.3,353.6z
				 M70.6,352.3c0.8,0,0.8,1.3,0,1.3S69.8,352.3,70.6,352.3z M66.7,352.3c0.8,0,0.8,1.3,0,1.3S65.8,352.3,66.7,352.3z"/>
		</g>
	</g>
</g>
</svg>
