<?xml version="1.0" encoding="utf-8"?>
<!-- Generator: Adobe Illustrator 25.2.1, SVG Export Plug-In . SVG Version: 6.00 Build 0)  -->
<svg version="1.1" id="Layer_1" xmlns="http://www.w3.org/2000/svg" xmlns:xlink="http://www.w3.org/1999/xlink" x="0px" y="0px"
	 width="145.2px" height="436px" viewBox="0 0 145.2 436" style="enable-background:new 0 0 145.2 436;" xml:space="preserve">
<style type="text/css">
	.st0{fill:none;stroke:#497FEA;stroke-width:3;}
	.st1{fill:#497FEA;}
	.st2{fill:#397AFC;}
	.st3{opacity:0.8;}
	.st4{opacity:0.8;fill:#D7E5FF;enable-background:new    ;}
	.st5{opacity:0.8;fill:#0D51D9;enable-background:new    ;}
	.st6{fill:#A8D29F;}
	.st7{fill:#7599EA;}
	.st8{fill:#90AFF4;}
	.st9{fill:#AEC3FF;}
	.st10{fill:#5888DD;}
	.st11{opacity:0.4;fill:#5888DD;enable-background:new    ;}
	.st12{fill:#739AF0;}
	.st13{fill:#607CF4;}
	.st14{fill:#E9F3FE;}
	.st15{fill:#0D51D9;}
	.st16{fill:#E6EFFF;}
	.st17{fill:#FFB27D;}
	.st18{fill:#113C68;}
	.st19{fill:#2A4E96;}
	.st20{fill:#233862;}
	.st21{fill:#15447C;}
	.st22{fill:#FCA56B;}
	.st23{fill:#163560;}
	.st24{fill:#ED7D2B;}
	.st25{fill:#1F4D84;}
	.st26{opacity:0.5;}
	.st27{opacity:0.5;fill:#B3CFF9;enable-background:new    ;}
	.st28{fill:#ED975D;}
	.st29{fill:#191775;}
	.st30{fill:#FFFFFF;}
	.st31{fill:#1F447F;}
	.st32{fill:#1C3154;}
	.st33{fill:#B5453C;}
	.st34{fill:#E8945B;}
</style>
<g>
	<circle class="st0" cx="42.3" cy="114.7" r="54"/>
	<path class="st1" d="M44,73.8c-0.6-0.6-1.5-0.6-2.1,0l-9.5,9.5c-0.6,0.6-0.6,1.5,0,2.1s1.5,0.6,2.1,0L43,77l8.5,8.5
		c0.6,0.6,1.5,0.6,2.1,0s0.6-1.5,0-2.1L44,73.8z M44.5,103.6V74.9h-3v28.7H44.5z"/>
	<path class="st1" d="M84.5,116.4c0.6-0.6,0.6-1.5,0-2.1l-9.5-9.5c-0.6-0.6-1.5-0.6-2.1,0s-0.6,1.5,0,2.1l8.5,8.5l-8.5,8.5
		c-0.6,0.6-0.6,1.5,0,2.1s1.5,0.6,2.1,0L84.5,116.4z M57.3,116.8h26.1v-3H57.3V116.8z"/>
	<path class="st1" d="M41.9,158.2c0.6,0.6,1.5,0.6,2.1,0l9.5-9.5c0.6-0.6,0.6-1.5,0-2.1s-1.5-0.6-2.1,0L43,155l-8.5-8.5
		c-0.6-0.6-1.5-0.6-2.1,0s-0.6,1.5,0,2.1L41.9,158.2z M41.5,131.7v25.5h3v-25.5H41.5z"/>
	<path class="st1" d="M0.1,114.3c-0.6,0.6-0.6,1.5,0,2.1l9.5,9.5c0.6,0.6,1.5,0.6,2.1,0c0.6-0.6,0.6-1.5,0-2.1l-8.5-8.5l8.5-8.5
		c0.6-0.6,0.6-1.5,0-2.1c-0.6-0.6-1.5-0.6-2.1,0L0.1,114.3z M23.4,113.8H1.2v3h22.2V113.8z"/>
</g>
<g>
	<path class="st0" d="M52.5,229.8l88.4,51c4.1,2.3,5.5,7.5,3.1,11.6L67.1,425.6c-2.3,4.1-7.5,5.5-11.6,3.1l-88.4-51
		c-4.1-2.3-5.5-7.5-3.1-11.6l76.9-133.2C43.3,228.8,48.5,227.4,52.5,229.8z"/>
	<path class="st1" d="M60.6,257.1c-0.2-0.8-1-1.3-1.8-1.1l-13,3.5c-0.8,0.2-1.3,1-1.1,1.8c0.2,0.8,1,1.3,1.8,1.1l11.6-3.1l3.1,11.6
		c0.2,0.8,1,1.3,1.8,1.1s1.3-1,1.1-1.8L60.6,257.1z M32.7,306.3l27.7-48l-2.6-1.5l-27.7,48L32.7,306.3z"/>
	<path class="st1" d="M47.7,405.8c0.2,0.8,1,1.3,1.8,1.1l13-3.5c0.8-0.2,1.3-1,1.1-1.8c-0.2-0.8-1-1.3-1.8-1.1l-11.6,3.1L47.1,392
		c-0.2-0.8-1-1.3-1.8-1.1c-0.8,0.2-1.3,1-1.1,1.8L47.7,405.8z M75.6,356.7l-27.7,48l2.6,1.5l27.7-48L75.6,356.7z"/>
	<path class="st1" d="M95.8,277.4c-0.2-0.8-1-1.3-1.8-1.1l-13,3.5c-0.8,0.2-1.3,1-1.1,1.8s1,1.3,1.8,1.1l11.6-3.1l3.1,11.6
		c0.2,0.8,1,1.3,1.8,1.1c0.8-0.2,1.3-1,1.1-1.8L95.8,277.4z M67.9,326.6l27.7-48l-2.6-1.5l-27.7,48L67.9,326.6z"/>
	<path class="st1" d="M12.5,385.5c0.2,0.8,1,1.3,1.8,1.1l13-3.5c0.8-0.2,1.3-1,1.1-1.8c-0.2-0.8-1-1.3-1.8-1.1L15,383.3l-3.1-11.6
		c-0.2-0.8-1-1.3-1.8-1.1c-0.8,0.2-1.3,1-1.1,1.8L12.5,385.5z M40.4,336.3l-27.7,48l2.6,1.5l27.7-48L40.4,336.3z"/>
</g>
</svg>
