<?xml version="1.0" encoding="utf-8"?>
<!-- Generator: Adobe Illustrator 25.2.1, SVG Export Plug-In . SVG Version: 6.00 Build 0)  -->
<svg version="1.1" id="Layer_1" xmlns="http://www.w3.org/2000/svg" xmlns:xlink="http://www.w3.org/1999/xlink" x="0px" y="0px"
	 width="327.9px" height="436px" viewBox="0 0 327.9 436" style="enable-background:new 0 0 327.9 436;" xml:space="preserve">
<style type="text/css">
	.st0{fill:#497FEA;}
	.st1{fill:#EBEBEB;}
	.st2{fill:#6562FF;}
	.st3{fill:#B55B52;}
	.st4{fill:#263238;}
	.st5{fill:#B65B52;}
	.st6{fill:#6691E7;}
	.st7{opacity:0.2;enable-background:new    ;}
	.st8{fill:#407BFF;}
	.st9{fill:#FFFFFF;}
	.st10{fill:#A02724;}
	.st11{opacity:0.2;fill:#407BFF;enable-background:new    ;}
	.st12{opacity:0.5;fill:#FFFFFF;enable-background:new    ;}
	.st13{opacity:0.4;fill:#407BFF;enable-background:new    ;}
	.st14{opacity:0.8;fill:#FFFFFF;enable-background:new    ;}
	.st15{opacity:0.5;fill:#407BFF;enable-background:new    ;}
	.st16{opacity:0.8;}
	.st17{opacity:0.3;fill:#407BFF;enable-background:new    ;}
	.st18{opacity:0.8;fill-rule:evenodd;clip-rule:evenodd;fill:#FFFFFF;enable-background:new    ;}
</style>
<g>
	<path class="st1" d="M350.6,428.7h-318v0.2h318V428.7z"/>
	<path class="st1" d="M87.1,434.7H66v0.2h21.1V434.7z"/>
	<path class="st1" d="M176.7,433h-35.2v0.2h35.2V433z"/>
	<path class="st1" d="M305.3,434.6h-27.5v0.2h27.5V434.6z"/>
	<path class="st1" d="M314.9,434.6h-4v0.2h4V434.6z"/>
	<path class="st1" d="M183.3,400.3H60.5c-2,0-3.6-1.7-3.6-3.6V224.1c0-2,1.7-3.6,3.6-3.6h122.8c2,0,3.6,1.7,3.6,3.6v172.6
		C187,398.6,185.4,400.3,183.3,400.3z M60.5,220.6c-1.9,0-3.5,1.5-3.5,3.5v172.6c0,1.9,1.5,3.5,3.5,3.5h122.8c1.9,0,3.5-1.5,3.5-3.5
		V224.1c0-1.9-1.5-3.5-3.5-3.5H60.5z"/>
	<path class="st1" d="M320.9,400.3H198.1c-2,0-3.6-1.7-3.6-3.6V224.1c0-2,1.7-3.6,3.6-3.6h122.8c2,0,3.6,1.7,3.6,3.6v172.6
		C324.5,398.6,323,400.3,320.9,400.3z M198.1,220.6c-1.9,0-3.5,1.5-3.5,3.5v172.6c0,1.9,1.5,3.5,3.5,3.5h122.8
		c1.9,0,3.5-1.5,3.5-3.5V224.1c0-1.9-1.5-3.5-3.5-3.5H198.1z"/>
	<path class="st2" d="M188.9,435.2c68.1,0,123.3-3.2,123.3-7.2s-55.2-7.2-123.3-7.2c-68.1,0-123.3,3.2-123.3,7.2
		S120.8,435.2,188.9,435.2z"/>
	<path class="st3" d="M123.7,423l5-1.8l-3.1-12.1l-5,1.9L123.7,423z"/>
	<path class="st3" d="M86.3,423.2h5.3l0.8-12.3h-5.3L86.3,423.2z"/>
	<path class="st4" d="M92.1,422.5h-6.5c-0.2,0-0.4,0.1-0.4,0.4l-0.8,4.7c-0.1,0.5,0.3,1,0.8,1c2.1-0.1,3.6-0.1,6.2-0.1
		c1.6,0,6.5,0.2,8.7,0.2c2.2,0,2.4-2.2,1.5-2.4c-4.1-0.9-7.3-2.2-8.6-3.3C92.8,422.7,92.5,422.5,92.1,422.5z"/>
	<path class="st4" d="M128.5,420.6l-5.5,2c-0.2,0.1-0.3,0.3-0.3,0.5l0.7,4.8c0.1,0.5,0.6,0.8,1.1,0.6c2-0.8,3.6-1.8,6.1-2.7
		c2.9-1,5.8-2.2,8.1-3.6c1.8-1.1,1.1-3.4,0.2-3.1c-3.9,1.6-4.9,2.1-9.1,1.3C129.3,420.4,128.9,420.4,128.5,420.6z"/>
	<path class="st5" d="M114.4,260.9c1.7,3,3.4,6,5.2,9c1.8,3,3.6,5.9,5.5,8.6c0.4,0.7,1,1.3,1.5,2c0.2,0.3,0.3,0.4,0.4,0.5
		c0.1,0.1,0.4,0.2,1,0.1c0.5-0.1,1.1-0.2,1.8-0.4c1.3-0.5,2.7-1.3,4.1-2.2c0.7-0.4,1.4-0.9,2-1.4c0.7-0.5,1.4-1,2-1.5l3,2.7
		c-0.6,0.8-1.1,1.5-1.7,2.3c-0.6,0.7-1.2,1.5-1.9,2.1c-0.7,0.7-1.4,1.3-2.2,2c-0.8,0.6-1.6,1.2-2.5,1.7c-1,0.5-2,1-3.2,1.3
		c-1.2,0.3-2.7,0.4-4.3,0c-1.6-0.4-3-1.4-3.9-2.5c-0.6-0.8-1.3-1.5-1.8-2.2c-2.4-2.9-4.5-5.9-6.4-8.9c-2-3.1-3.8-6.2-5.5-9.4
		L114.4,260.9z"/>
	<path class="st6" d="M104.9,261.1c-1.5,4.9,8.6,18.2,8.6,18.2l10.2-6.6c0,0-3-6.8-7.1-12C112.5,255.5,106.5,255.7,104.9,261.1z"/>
	<path class="st7" d="M111.2,266.8c2.1,0.9,5.2,5.9,6.8,9.7l-4.3,2.8c0,0-3.9-5.2-6.5-10.2C108.5,267.6,110.1,266.4,111.2,266.8z"/>
	<path class="st3" d="M137.3,277.3l1.8-5.2l5.3,2.5c0,0-1.1,4.6-5,4.6L137.3,277.3z"/>
	<path class="st3" d="M143.9,268.6l2.2,2.5l-1.7,3.5l-5.3-2.5L143.9,268.6z"/>
	<path class="st7" d="M125.7,409.1l1.6,6.2l-5,1.9l-1.5-6.2L125.7,409.1z"/>
	<path class="st7" d="M87.1,410.8h5.3l-0.4,6.4h-5.3L87.1,410.8z"/>
	<path class="st6" d="M81.2,259c5.7,20.2,4.8,41.7,5.2,46c4.2-0.1,19.9-0.8,28.5-1.1c4.8-30.1-3.9-46.9-3.9-46.9s-1.8-0.4-4.3-0.6
		c-0.8-0.1-1.6-0.1-2.5-0.2c-0.5,0-1-0.1-1.5-0.1c-3.2-0.1-8.5,0.4-12.1,0.9c-0.8,0.1-1.5,0.2-2.3,0.3c-0.7,0.1-1.4,0.3-2,0.4
		C83.4,258.3,81.2,259,81.2,259z"/>
	<path class="st7" d="M87.2,267.6c0.5,2-0.1,10.9-2.1,13.1c-0.3-2.9-0.6-5.9-1.1-8.9L87.2,267.6z"/>
	<path class="st3" d="M90.8,243.4c1.1,3.8,2.4,10.9-0.2,13.7c2.3,2,5.2,4.1,9.9,4c4.6-0.2,3.6-3.3,2.2-4.9c-4.4-0.7-4.5-3.9-4-7
		L90.8,243.4z"/>
	<path class="st8" d="M100.6,260.4l0.8,0.6l-3.1,0.9l0.8-1.4L100.6,260.4z"/>
	<path class="st8" d="M101.7,260l-0.3,0.9l3.1,0.9l-0.2-1.7L101.7,260z"/>
	<path class="st9" d="M88.8,256.7l1.2-0.6c0.4-0.2,0.9-0.2,1.2,0.1c1.3,1,4.6,3.2,9.3,4.1c-2.4,1.1-1.8,4.3-1.8,4.3
		s-7.8-2.5-10.2-7.2C88.4,257.2,88.5,256.9,88.8,256.7z"/>
	<path class="st9" d="M104,256l-1.8-0.3c-0.2,0-0.3,0.2-0.3,0.4c0.6,0.9,1.7,2.8-0.3,4c2.4,1.1,3.2,4,3.2,4s3.2-3.4-0.5-8
		C104.3,256,104.2,256,104,256z"/>
	<path class="st7" d="M94,245.7l4.6,3.4c-0.1,0.7-0.2,1.5-0.2,2.2c-1.7-0.1-4.1-1.8-4.4-3.5C93.9,246.9,93.9,246.1,94,245.7z"/>
	<path class="st4" d="M104.3,235.5c-0.2,1.8-2,3.4-3.1,3.8l-1.4-8.1C102.9,229,104.6,232.9,104.3,235.5z"/>
	<path class="st3" d="M89.2,237.7c1,5.2,1.2,8.3,4.1,10.7c4.5,3.6,10.6,0.4,11.3-5c0.6-4.8-1-12.5-6.4-14.1
		C93,228,88.3,232.5,89.2,237.7z"/>
	<path class="st4" d="M90.2,241.2c2.4,1.3,3.5-1.6,3.5-2.7c0.1-1.8-0.8-3.9-1.7-4.6c4.6,0,13.9-0.3,11.5-4.6
		c-2.4-4.5-7-3.9-10.5-1.5c-1.8,1.3-7.8,0.2-6.4,3.6C83.5,232.9,86.2,239.1,90.2,241.2z"/>
	<path class="st4" d="M87.2,231c0,0-1,0.1-2.3-0.8c0.4,1.7,2,1.7,2,1.7L87.2,231z"/>
	<path class="st3" d="M87.2,242c0.6,1.3,1.8,2.2,2.9,2.5c1.7,0.6,2-1,1.7-2.6c-0.4-1.5-1.1-3.4-2.9-3.3
		C87.2,238.8,86.5,240.5,87.2,242z"/>
	<path class="st4" d="M121,360.3c-2.2-16.1-6.2-56.3-6.2-56.3l-18.7,0.7c0,0,8.8,40.2,12,56.5c3.2,16.3,12.1,55.6,12.1,55.6l8.5-3.2
		C128.6,413.5,123.3,377,121,360.3z"/>
	<path class="st7" d="M103.1,315.5c-1.1,0.3-3,1-4.1,2.1c1.8,8.1,4.1,18.8,6,28.2C106.4,337.7,106.4,322.2,103.1,315.5z"/>
	<path class="st4" d="M104.7,304.3c0,0-3.9,43.6-5.8,59.1c-2,17-4.5,52.5-4.5,52.5h-9.8c0,0-0.4-31.5,0.9-48.1
		c1.5-19,0.8-62.9,0.8-62.9L104.7,304.3z"/>
	<path class="st8" d="M95.8,416.2H84.2l-0.2-3.4l12.8-0.3L95.8,416.2z"/>
	<path class="st8" d="M129.8,413.3l-10,3.8l-1.2-3.2l11.1-4.4L129.8,413.3z"/>
	<path class="st4" d="M97.3,238.3c0.1,0.4,0.3,0.8,0.6,0.7s0.4-0.4,0.4-0.8c-0.1-0.4-0.3-0.8-0.6-0.7
		C97.5,237.5,97.3,237.8,97.3,238.3z"/>
	<path class="st4" d="M102.1,237.7c0.1,0.4,0.3,0.8,0.6,0.7c0.3-0.1,0.4-0.4,0.4-0.8c-0.1-0.4-0.3-0.8-0.6-0.7
		C102.3,236.9,102.1,237.3,102.1,237.7z"/>
	<path class="st10" d="M100.7,238.1c0,0,1.3,2.4,2.5,3.4c-0.7,0.8-2,0.6-2,0.6L100.7,238.1z"/>
	<path class="st4" d="M99.4,243.5c-1.7,0-2.5-1.1-2.5-1.1c-0.1-0.1-0.1-0.1,0-0.2c0.1-0.1,0.1-0.1,0.2,0c0,0,1,1.2,2.9,1
		c0.1,0,0.1,0.1,0.1,0.1c0,0.1-0.1,0.1-0.1,0.1C99.8,243.5,99.6,243.5,99.4,243.5z"/>
	<path class="st4" d="M95.6,236.9c-0.1,0-0.1,0-0.1-0.1c-0.1-0.1-0.2-0.3-0.1-0.3c0.7-1.2,1.8-1.3,1.9-1.3c0.1,0,0.3,0.1,0.3,0.3
		s-0.1,0.3-0.3,0.3c-0.1,0-1,0.1-1.5,1C95.8,236.8,95.8,236.9,95.6,236.9z"/>
	<path class="st4" d="M104,235.8c-0.1,0-0.2-0.1-0.2-0.1c-0.6-1-1.5-1-1.5-1c-0.1,0-0.3-0.1-0.3-0.3c0-0.1,0.1-0.3,0.3-0.3
		c0.1,0,1.2,0,2,1.2c0.1,0.1,0.1,0.3-0.1,0.3C104.2,235.8,104.1,235.8,104,235.8z"/>
	<path class="st8" d="M94,423.5c-0.5,0-1-0.1-1.4-0.2c-0.1,0-0.1-0.1-0.1-0.1c0-0.1,0-0.1,0.1-0.1c0.2-0.1,1.8-1.2,2.5-0.9
		c0.1,0.1,0.2,0.1,0.3,0.4c0,0.3-0.1,0.5-0.3,0.6C94.7,423.4,94.4,423.5,94,423.5z M92.9,423.1c0.9,0.2,1.6,0.1,1.9-0.1
		c0.1-0.1,0.2-0.3,0.1-0.4c0-0.1-0.1-0.1-0.1-0.1C94.6,422.2,93.6,422.7,92.9,423.1z"/>
	<path class="st8" d="M92.6,423.3L92.6,423.3c-0.1,0-0.1-0.1-0.1-0.1c0-0.1,0.1-1.6,0.6-2.1c0.1-0.1,0.3-0.2,0.5-0.2
		c0.3,0.1,0.4,0.3,0.4,0.3C94.2,421.8,93.2,423,92.6,423.3C92.6,423.3,92.6,423.3,92.6,423.3z M93.5,421.1c-0.1,0-0.2,0.1-0.3,0.1
		c-0.4,0.3-0.5,1.2-0.6,1.7c0.5-0.4,1.1-1.3,1.1-1.7C93.8,421.2,93.8,421.1,93.5,421.1C93.6,421.1,93.6,421.1,93.5,421.1z"/>
	<path class="st8" d="M129.2,421.1c-0.1,0-0.1,0-0.1-0.1c0-0.1,0-0.1,0-0.1c0.2-0.2,1.8-2,2.5-1.8c0.1,0,0.3,0.1,0.3,0.3
		c0.1,0.3,0.1,0.4,0,0.6C131.6,420.6,130.1,420.9,129.2,421.1z M131.6,419.3c-0.4,0-1.3,0.8-2,1.5c1.1-0.3,2-0.6,2.2-1
		c0.1-0.1,0.1-0.3,0-0.4C131.7,419.3,131.6,419.3,131.6,419.3z"/>
	<path class="st8" d="M129.2,421.1C129.1,421.1,129.1,421.1,129.2,421.1c-0.1,0-0.1-0.1-0.1-0.1c0-0.1-0.4-1.5,0.1-2.2
		c0.1-0.3,0.3-0.4,0.6-0.4c0.3-0.1,0.5,0.1,0.6,0.2c0.3,0.5-0.5,2-1,2.5C129.3,421.1,129.2,421.1,129.2,421.1z M129.9,418.6
		c-0.1,0-0.1,0-0.1,0c-0.2,0.1-0.3,0.1-0.4,0.3c-0.3,0.5-0.2,1.4-0.1,1.8c0.4-0.6,1-1.8,0.8-2.1C130,418.7,130,418.6,129.9,418.6z"
		/>
	<path class="st5" d="M87,266.5c-1.6,3.3-3.2,6.7-4.8,10c-0.8,1.7-1.6,3.4-2.3,5l-1.1,2.5l-0.5,1.3l-0.1,0.3l-0.1,0.3
		c-0.1,0.1-0.1,0.3-0.2,0.4c-0.4,1.2-0.5,2.5-0.2,3.9c0.3,1.4,0.8,2.8,1.7,4.3c0.8,1.4,1.8,2.8,3.1,4.1c0.6,0.6,1.2,1.3,1.8,1.9
		c0.3,0.3,0.6,0.6,1,0.9c0.3,0.3,0.7,0.6,1,0.8l-2.1,3.4c-1-0.5-1.8-1-2.7-1.6c-0.8-0.6-1.7-1.1-2.5-1.8c-1.6-1.3-3.1-2.7-4.5-4.5
		c-1.3-1.7-2.5-3.7-3.2-6c-0.7-2.3-0.9-4.9-0.3-7.4c0.1-0.3,0.1-0.6,0.3-0.9l0.3-0.8l0.4-1.4c0.3-1,0.6-1.8,1-2.7
		c0.6-1.8,1.3-3.6,2.1-5.4c1.5-3.6,3.1-7,4.9-10.5L87,266.5z"/>
	<path class="st6" d="M81.2,259c-4.8,1.5-9.7,18-9.7,18l11.3,4.9c0,0,3.6-8,5.7-14.2C90.8,260.9,87.1,257.1,81.2,259z"/>
	<path class="st3" d="M85,301.2l4.6,2.7l-4.5,4.5c0,0-3.9-3.1-2.7-5.4L85,301.2z"/>
	<path class="st3" d="M92.8,308.4l-4.7,3.2l-2.9-3.2l4.5-4.5L92.8,308.4z"/>
	<path class="st8" d="M317.7,300l-0.2,3l0.6,0l0.2-3L317.7,300z"/>
	<path class="st8" d="M318.5,288.4l-0.6,8.9l0.6,0l0.6-8.9L318.5,288.4z"/>
	<path class="st8" d="M301.1,388.4H145.4c-4.8,0-8.4-3.9-8-8.6l8.3-115c0.3-4.8,4.5-8.6,9.3-8.6h155.8c4.8,0,8.4,3.9,8,8.6l-8.3,115
		C310.1,384.4,305.9,388.4,301.1,388.4z"/>
	<path class="st8" d="M264.9,428.6h-50.6l-9-62.5h50.6L264.9,428.6z"/>
	<path class="st8" d="M256.9,424.9h-54.7l-1.1,3.7h54.7L256.9,424.9z"/>
	<path class="st4" d="M258.6,396.2l-49.3-2.7l-3.9-27.4h48.9L258.6,396.2z"/>
	<path class="st4" d="M299.4,388.4H143.6c-4.8,0-8.4-3.9-8-8.6l8.3-115c0.3-4.8,4.5-8.6,9.3-8.6h155.8c4.8,0,8.4,3.9,8,8.6l-8.3,115
		C308.3,384.4,304.1,388.4,299.4,388.4z"/>
	<path class="st9" d="M316.5,265.8l-4.7,66l0.6,0l4.7-66L316.5,265.8z"/>
	<path class="st9" d="M311.4,337.5l-1.6,22.8l0.6,0l1.6-22.8L311.4,337.5z"/>
	<path class="st9" d="M299,386.2H144.2c-3.7,0-6.6-3.1-6.2-6.7l8.2-114.5c0.3-3.7,3.5-6.7,7.3-6.7h154.8c3.7,0,6.6,3.1,6.2,6.7
		l-8.2,114.5C306,383.2,302.8,386.2,299,386.2z"/>
	<path class="st11" d="M299,386.2H144.2c-3.7,0-6.6-3.1-6.2-6.7l8.2-114.5c0.3-3.7,3.5-6.7,7.3-6.7h154.8c3.7,0,6.6,3.1,6.2,6.7
		l-8.2,114.5C306,383.2,302.8,386.2,299,386.2z"/>
	<path class="st12" d="M184,381.1h-36.1c-1.8,0-3.2-1.5-3.1-3.2l7.9-111.3c0.1-1.8,1.7-3.2,3.5-3.2h36.1c1.8,0,3.2,1.5,3.1,3.2
		l-7.9,111.3C187.3,379.7,185.8,381.1,184,381.1z"/>
	<path class="st13" d="M182.6,279h-18.7c-1.6,0-2.9-1.3-2.7-2.9l0.2-2.9c0.1-1.6,1.5-2.9,3.1-2.9h18.7c1.6,0,2.9,1.3,2.7,2.9
		l-0.2,2.9C185.6,277.7,184.2,279,182.6,279z"/>
	<path class="st8" d="M170.7,324h-28.6c-2.8,0-5-2.3-4.8-5.1l2-28.6c0.2-2.8,2.7-5.1,5.5-5.1h28.6c2.8,0,5,2.3,4.8,5.1l-2,28.6
		C176,321.7,173.5,324,170.7,324z"/>
	<path class="st9" d="M174.7,300.6c-1.1,0-2,0.9-2.1,2l-0.3,4.1c-0.1,1.1,0.8,2,1.8,2h2.9c0.3,0,0.5-0.2,0.5-0.5l0.5-7.1
		c0-0.3-0.2-0.5-0.4-0.5H174.7z"/>
	<path class="st9" d="M163.7,292.5h-18c-0.4,0-0.8-0.4-0.7-0.8c0-0.4,0.4-0.8,0.8-0.8h18c0.4,0,0.8,0.4,0.7,0.8
		C164.5,292.2,164.1,292.5,163.7,292.5z"/>
	<path class="st9" d="M163.4,296.5h-18c-0.4,0-0.8-0.4-0.7-0.8c0-0.4,0.4-0.8,0.8-0.8h18c0.4,0,0.8,0.4,0.7,0.8
		C164.3,296.1,163.9,296.5,163.4,296.5z"/>
	<path class="st9" d="M156.9,300.4h-11.8c-0.4,0-0.8-0.4-0.7-0.8c0-0.4,0.4-0.8,0.8-0.8h11.8c0.4,0,0.8,0.4,0.7,0.8
		C157.8,300.1,157.4,300.4,156.9,300.4z"/>
	<path class="st12" d="M163.7,319.4h-17.4c-1.8,0-3.2-1.5-3.1-3.4l0.6-9.2c0.1-1.8,1.7-3.4,3.6-3.4h17.4c1.8,0,3.2,1.5,3.1,3.4
		l-0.6,9.2C167.2,317.9,165.6,319.4,163.7,319.4z"/>
	<path class="st13" d="M180,334.7h-21.7c-0.8,0-1.4-0.6-1.3-1.5c0.1-0.8,0.8-1.5,1.5-1.5h21.7c0.8,0,1.4,0.6,1.3,1.5
		C181.6,334.1,180.9,334.7,180,334.7z"/>
	<path class="st14" d="M175.6,340.4h-13.7c-0.8,0-1.4-0.6-1.3-1.5c0.1-0.8,0.8-1.5,1.5-1.5h13.7c0.8,0,1.4,0.6,1.3,1.5
		C177.2,339.7,176.5,340.4,175.6,340.4z"/>
	<path class="st13" d="M178.9,350.4h-21.7c-0.8,0-1.4-0.6-1.3-1.5c0.1-0.8,0.8-1.5,1.5-1.5h21.7c0.8,0,1.4,0.6,1.3,1.5
		C180.4,349.8,179.7,350.4,178.9,350.4z"/>
	<path class="st14" d="M174.6,356.1h-13.7c-0.8,0-1.4-0.6-1.3-1.5c0.1-0.8,0.8-1.5,1.5-1.5h13.7c0.8,0,1.4,0.6,1.3,1.5
		C176,355.4,175.3,356.1,174.6,356.1z"/>
	<path class="st13" d="M177.8,366.1h-21.7c-0.8,0-1.4-0.6-1.3-1.5c0.1-0.8,0.8-1.5,1.5-1.5H178c0.8,0,1.4,0.6,1.3,1.5
		C179.3,365.5,178.6,366.1,177.8,366.1z"/>
	<path class="st14" d="M173.4,371.8h-13.7c-0.8,0-1.4-0.6-1.3-1.5c0.1-0.8,0.8-1.5,1.5-1.5h13.7c0.8,0,1.4,0.6,1.3,1.5
		C174.9,371.1,174.2,371.8,173.4,371.8z"/>
	<path class="st15" d="M300.7,348.5c1-1.5,3.1-0.8,3,0.8l-2.1,29.1c-0.1,1.5-1.2,2.7-2.5,2.7H194.3c-1.3,0-2.2-1.2-2.2-2.7l1.2-17.3
		c0.2-2.4,2.5-4,4.7-3.3c5.9,1.8,11,0.8,15.6-1.6c10-5,18.5-15.7,30.1-15.7c0.4,0,0.9,0,1.3,0.1c17.2,1,22.5,22.4,35.8,22.4
		c3.9,0,7.6-1.7,10.7-4.1C295.4,355.9,298.5,351.8,300.7,348.5z"/>
	<path class="st15" d="M302.9,360.5l-1.3,17.9c-0.1,1.5-1.2,2.7-2.5,2.7H194.3c-1.3,0-2.2-1.2-2.2-2.7l2.5-35.7
		c0.2-2.4,3.4-3.5,4.6-1.5c3.4,5.1,8.5,11.7,14.4,14.9c2.3,1.3,4.6,2,7.1,2c8.5,0,15.6-10,24.3-17.7c5.3-4.7,11.1-8.5,18-8.5
		c14.5,0,16.6,23.5,28.4,26.8c2.3,0.6,4.9,0.5,8.1-0.7C301.3,357.5,303,358.7,302.9,360.5z"/>
	<g class="st16">
		<path class="st14" d="M303.4,353.5c-0.1,0-0.1,0-0.1-0.1l-0.1-0.1v-0.1c0-0.1,0-0.1,0.1-0.1c0.1-0.1,0.2-0.1,0.3,0
			c0.1,0.1,0.1,0.1,0.1,0.1v0.1c0,0,0,0.1-0.1,0.1C303.5,353.5,303.5,353.5,303.4,353.5z"/>
		<path class="st14" d="M201.5,368.4c-0.1,0-0.2-0.1-0.2-0.2c0-0.1,0.1-0.2,0.2-0.2c0.1,0,0.2,0.1,0.2,0.2
			C201.7,368.3,201.6,368.4,201.5,368.4z M199.3,368.3c-0.1,0-0.2-0.1-0.2-0.3c0-0.1,0.1-0.2,0.3-0.2c0.1,0,0.2,0.1,0.2,0.3
			S199.4,368.3,199.3,368.3z M203.4,368.1c0-0.1,0.1-0.3,0.2-0.3c0.1,0,0.3,0.1,0.3,0.2c0,0.1-0.1,0.3-0.2,0.3
			C203.5,368.3,203.4,368.2,203.4,368.1z M197.1,368c-0.1,0-0.2-0.1-0.2-0.3c0-0.1,0.1-0.2,0.3-0.2s0.2,0.1,0.2,0.3
			C197.4,367.9,197.3,368,197.1,368C197.2,368,197.1,368,197.1,368z M205.5,367.8c0-0.1,0.1-0.3,0.2-0.3c0.1,0,0.3,0.1,0.3,0.2
			c0,0.1-0.1,0.3-0.2,0.3h-0.1C205.7,367.9,205.5,367.8,205.5,367.8z M275.1,367.8c-0.1,0-0.2-0.1-0.2-0.2c0-0.1,0.1-0.2,0.2-0.2
			c0.1,0,0.2,0.1,0.2,0.2S275.2,367.8,275.1,367.8z M277,367.5c0-0.1,0.1-0.3,0.2-0.3c0.1,0,0.3,0.1,0.3,0.2c0,0.1-0.1,0.3-0.2,0.3
			C277.1,367.7,277.1,367.6,277,367.5z M272.9,367.7c-0.1,0-0.2-0.1-0.2-0.3c0-0.1,0.1-0.2,0.3-0.2c0.1,0,0.2,0.1,0.2,0.3
			C273.1,367.6,273.1,367.7,272.9,367.7z M195,367.5c-0.1-0.1-0.2-0.1-0.1-0.3c0.1-0.1,0.1-0.2,0.3-0.1c0.1,0.1,0.2,0.1,0.1,0.3
			C195.3,367.4,195.2,367.5,195,367.5C195.1,367.5,195,367.5,195,367.5z M279.2,367.3c0-0.1,0.1-0.3,0.2-0.3c0.1,0,0.3,0.1,0.3,0.2
			c0,0.1-0.1,0.3-0.2,0.3c0,0,0,0-0.1,0C279.3,367.4,279.2,367.3,279.2,367.3z M270.8,367.3c-0.1,0-0.2-0.1-0.2-0.3
			c0-0.1,0.1-0.2,0.3-0.2c0.1,0,0.2,0.1,0.2,0.3C271,367.3,270.9,367.3,270.8,367.3C270.9,367.3,270.8,367.3,270.8,367.3z
			 M207.6,367.1c-0.1-0.1,0-0.3,0.1-0.3c0.1-0.1,0.3,0,0.3,0.1c0.1,0.1,0,0.3-0.1,0.3h-0.1C207.7,367.3,207.6,367.2,207.6,367.1z
			 M281.3,366.8c0-0.1,0.1-0.3,0.1-0.3c0.1,0,0.3,0.1,0.3,0.1c0,0.1-0.1,0.3-0.1,0.3h-0.1C281.4,366.9,281.3,366.8,281.3,366.8z
			 M268.7,366.7c-0.1-0.1-0.2-0.2-0.1-0.3c0.1-0.1,0.2-0.2,0.3-0.1c0.1,0.1,0.2,0.2,0.1,0.3C268.9,366.6,268.8,366.7,268.7,366.7
			C268.8,366.7,268.8,366.7,268.7,366.7z M209.6,366.2c-0.1-0.1,0-0.3,0.1-0.3c0.1-0.1,0.3,0,0.3,0.1c0.1,0.1,0,0.3-0.1,0.3
			c0,0-0.1,0-0.1,0C209.7,366.4,209.6,366.4,209.6,366.2z M283.4,366.1c-0.1-0.1,0-0.3,0.1-0.3c0.1-0.1,0.3,0,0.3,0.1
			c0.1,0.1,0,0.3-0.1,0.3h-0.1C283.4,366.2,283.4,366.2,283.4,366.1z M266.7,365.9c-0.1-0.1-0.2-0.2-0.1-0.3
			c0.1-0.1,0.2-0.1,0.3-0.1c0.1,0.1,0.2,0.2,0.1,0.3c-0.1,0.1-0.1,0.1-0.2,0.1S266.7,365.9,266.7,365.9z M285.4,365.4
			c-0.1-0.1,0-0.3,0.1-0.3c0.1-0.1,0.3,0,0.3,0.1c0.1,0.1,0,0.3-0.1,0.3h-0.1C285.5,365.5,285.4,365.4,285.4,365.4z M211.4,365.2
			c-0.1-0.1,0-0.3,0.1-0.3c0.1-0.1,0.3-0.1,0.3,0.1c0.1,0.1,0,0.3-0.1,0.3c0,0-0.1,0.1-0.1,0.1C211.6,365.4,211.5,365.3,211.4,365.2
			z M264.7,364.8c-0.1-0.1-0.1-0.2-0.1-0.3c0.1-0.1,0.2-0.1,0.3-0.1c0.1,0.1,0.1,0.2,0.1,0.3c-0.1,0.1-0.1,0.1-0.2,0.1
			C264.8,364.9,264.8,364.9,264.7,364.8z M287.3,364.5c-0.1-0.1,0-0.3,0.1-0.3c0.1-0.1,0.3,0,0.3,0.1c0.1,0.1,0,0.3-0.1,0.3h-0.1
			C287.4,364.6,287.4,364.6,287.3,364.5z M213.2,364c-0.1-0.1-0.1-0.3,0.1-0.3c0.1-0.1,0.3-0.1,0.3,0.1c0.1,0.1,0.1,0.3-0.1,0.3
			c-0.1,0-0.1,0.1-0.1,0.1S213.3,364.1,213.2,364z M262.9,363.8c-0.1-0.1-0.1-0.2-0.1-0.3c0.1-0.1,0.2-0.1,0.3-0.1
			c0.1,0.1,0.1,0.2,0.1,0.3c-0.1,0.1-0.1,0.1-0.2,0.1S262.9,363.8,262.9,363.8z M289.3,363.5c-0.1-0.1,0-0.3,0.1-0.3
			c0.1-0.1,0.3,0,0.3,0.1c0.1,0.1,0,0.3-0.1,0.3c0,0-0.1,0-0.1,0C289.4,363.6,289.3,363.6,289.3,363.5z M215,362.7
			c-0.1-0.1-0.1-0.3,0-0.3c0.1-0.1,0.3-0.1,0.3,0.1c0.1,0.1,0.1,0.3,0,0.3c-0.1,0-0.1,0.1-0.1,0.1C215.1,362.8,215,362.8,215,362.7z
			 M261.1,362.6c-0.1-0.1-0.1-0.2-0.1-0.3c0.1-0.1,0.2-0.1,0.3-0.1c0.1,0.1,0.1,0.2,0.1,0.3c-0.1,0.1-0.1,0.1-0.2,0.1
			C261.1,362.7,261.1,362.6,261.1,362.6z M291.1,362.5c-0.1-0.1,0-0.3,0.1-0.3c0.1-0.1,0.3,0,0.3,0.1c0.1,0.1,0,0.3-0.1,0.3
			c-0.1,0-0.1,0-0.1,0S291.2,362.6,291.1,362.5z M259.3,361.4c-0.1-0.1-0.1-0.2-0.1-0.3c0.1-0.1,0.2-0.1,0.3-0.1
			c0.1,0.1,0.1,0.2,0.1,0.3c-0.1,0.1-0.1,0.1-0.2,0.1C259.3,361.5,259.3,361.5,259.3,361.4z M293,361.3c-0.1-0.1,0-0.3,0.1-0.3
			c0.1-0.1,0.3,0,0.3,0.1c0.1,0.1,0,0.3-0.1,0.3c0,0-0.1,0.1-0.1,0.1C293.1,361.5,293,361.4,293,361.3z M216.7,361.3
			c-0.1-0.1-0.1-0.3,0-0.3c0.1-0.1,0.3-0.1,0.3,0c0.1,0.1,0.1,0.3-0.1,0.3c-0.1,0.1-0.1,0.1-0.1,0.1
			C216.8,361.4,216.7,361.4,216.7,361.3z M294.8,360.1c-0.1-0.1-0.1-0.3,0.1-0.3c0.1-0.1,0.3-0.1,0.3,0.1c0.1,0.1,0.1,0.3-0.1,0.3
			c-0.1,0-0.1,0.1-0.1,0.1C295,360.3,294.9,360.2,294.8,360.1z M257.4,360.2c-0.1-0.1-0.1-0.2-0.1-0.3c0.1-0.1,0.2-0.1,0.3-0.1
			c0.1,0.1,0.1,0.2,0.1,0.3c-0.1,0.1-0.1,0.1-0.2,0.1C257.6,360.3,257.5,360.3,257.4,360.2z M218.3,359.9c-0.1-0.1-0.1-0.3,0-0.3
			c0.1-0.1,0.3-0.1,0.3,0c0.1,0.1,0.1,0.3,0,0.3c-0.1,0.1-0.1,0.1-0.1,0.1C218.4,360.1,218.4,360,218.3,359.9z M255.6,359
			c-0.1-0.1-0.1-0.2-0.1-0.3c0.1-0.1,0.2-0.1,0.3-0.1c0.1,0.1,0.1,0.2,0.1,0.3c-0.1,0.1-0.1,0.1-0.2,0.1
			C255.8,359.1,255.7,359.1,255.6,359z M296.6,358.9c-0.1-0.1-0.1-0.3,0.1-0.3c0.1-0.1,0.3-0.1,0.3,0.1c0.1,0.1,0.1,0.3-0.1,0.3
			c-0.1,0-0.1,0.1-0.1,0.1C296.7,359,296.6,359,296.6,358.9z M220,358.6c-0.1-0.1-0.1-0.3,0-0.3c0.1-0.1,0.3-0.1,0.3,0
			c0.1,0.1,0.1,0.3,0,0.3c-0.1,0.1-0.1,0.1-0.1,0.1C220.1,358.7,220,358.7,220,358.6z M253.9,357.9c-0.1-0.1-0.1-0.2-0.1-0.3
			c0.1-0.1,0.2-0.1,0.3-0.1s0.1,0.2,0.1,0.3c-0.1,0.1-0.1,0.1-0.2,0.1C253.9,357.9,253.9,357.9,253.9,357.9z M298.3,357.7
			c-0.1-0.1-0.1-0.3,0.1-0.3c0.1-0.1,0.3-0.1,0.3,0.1c0.1,0.1,0.1,0.3-0.1,0.3c-0.1,0-0.1,0.1-0.1,0.1
			C298.5,357.7,298.4,357.7,298.3,357.7z M221.7,357.3c-0.1-0.1-0.1-0.3,0.1-0.3c0.1-0.1,0.3-0.1,0.3,0.1c0.1,0.1,0.1,0.3-0.1,0.3
			c-0.1,0-0.1,0.1-0.1,0.1C221.8,357.3,221.8,357.3,221.7,357.3z M252,356.8c-0.1-0.1-0.1-0.2-0.1-0.3c0.1-0.1,0.2-0.1,0.3-0.1
			c0.1,0.1,0.1,0.2,0.1,0.3c-0.1,0.1-0.1,0.1-0.2,0.1C252.1,356.8,252,356.8,252,356.8z M300,356.3c-0.1-0.1-0.1-0.3,0-0.3
			c0.1-0.1,0.3-0.1,0.3,0c0.1,0.1,0.1,0.3,0,0.3c-0.1,0-0.1,0.1-0.1,0.1C300.1,356.4,300,356.3,300,356.3z M223.4,356
			c-0.1-0.1-0.1-0.3,0.1-0.3c0.1-0.1,0.3-0.1,0.3,0.1c0.1,0.1,0.1,0.3-0.1,0.3c-0.1,0-0.1,0.1-0.1,0.1
			C223.5,356.1,223.5,356.1,223.4,356z M250.1,355.8c-0.1-0.1-0.1-0.2-0.1-0.3c0.1-0.1,0.2-0.1,0.3-0.1c0.1,0.1,0.1,0.2,0.1,0.3
			c-0.1,0.1-0.1,0.1-0.2,0.1C250.2,355.8,250.1,355.8,250.1,355.8z M301.6,354.9c-0.1-0.1-0.1-0.3,0-0.3c0.1-0.1,0.3-0.1,0.3,0
			c0.1,0.1,0.1,0.3,0,0.3c-0.1,0.1-0.1,0.1-0.1,0.1C301.8,355,301.7,354.9,301.6,354.9z M225.2,354.9c-0.1-0.1,0-0.3,0.1-0.3
			c0.1-0.1,0.3,0,0.3,0.1c0.1,0.1,0,0.3-0.1,0.3c-0.1,0-0.1,0-0.1,0C225.4,355,225.3,354.9,225.2,354.9z M248.2,354.8
			c-0.1-0.1-0.2-0.2-0.1-0.3c0.1-0.1,0.2-0.2,0.3-0.1c0.1,0.1,0.2,0.2,0.1,0.3c0,0.1-0.1,0.1-0.2,0.1
			C248.2,354.9,248.2,354.9,248.2,354.8z M246.2,354c-0.1-0.1-0.2-0.2-0.1-0.3c0.1-0.1,0.2-0.2,0.3-0.1c0.1,0.1,0.2,0.2,0.1,0.3
			C246.4,354,246.3,354,246.2,354C246.2,354,246.2,354,246.2,354z M227.2,353.8c-0.1-0.1,0-0.3,0.1-0.3c0.1-0.1,0.3,0,0.3,0.1
			c0.1,0.1,0,0.3-0.1,0.3h-0.1C227.3,354,227.2,353.9,227.2,353.8z M244.1,353.3c-0.1-0.1-0.2-0.1-0.1-0.3c0-0.1,0.2-0.2,0.3-0.1
			c0.1,0,0.2,0.1,0.1,0.3C244.4,353.3,244.3,353.3,244.1,353.3C244.2,353.3,244.2,353.3,244.1,353.3z M229.1,353
			c-0.1-0.1,0-0.3,0.1-0.3c0.1-0.1,0.3,0,0.3,0.1c0.1,0.1,0,0.3-0.1,0.3h-0.1C229.3,353.2,229.2,353.1,229.1,353z M242.1,352.8
			c-0.1,0-0.2-0.1-0.2-0.3c0-0.1,0.1-0.2,0.3-0.2s0.2,0.1,0.2,0.3C242.4,352.8,242.2,352.8,242.1,352.8z M231.2,352.4
			c0-0.1,0.1-0.3,0.2-0.3s0.3,0.1,0.3,0.2c0,0.1-0.1,0.3-0.2,0.3c0,0,0,0-0.1,0C231.4,352.6,231.2,352.6,231.2,352.4z M240,352.4
			c-0.1,0-0.2-0.1-0.2-0.3c0-0.1,0.1-0.2,0.3-0.2c0.1,0,0.2,0.1,0.2,0.3C240.2,352.4,240.1,352.4,240,352.4z M233.3,352.1
			c0-0.1,0.1-0.2,0.2-0.3c0.1,0,0.3,0.1,0.3,0.2c0,0.1-0.1,0.3-0.2,0.3S233.4,352.2,233.3,352.1z M237.8,352.2
			c-0.1,0-0.2-0.1-0.2-0.3c0-0.1,0.1-0.2,0.3-0.2s0.2,0.1,0.2,0.3C238.1,352.1,238,352.3,237.8,352.2
			C237.8,352.3,237.8,352.2,237.8,352.2z M235.5,351.9c0-0.1,0.1-0.2,0.2-0.2s0.2,0.1,0.2,0.2c0,0.1-0.1,0.2-0.2,0.2
			C235.6,352.1,235.5,352.1,235.5,351.9z"/>
		<path class="st14" d="M193,366.8L193,366.8c-0.1,0-0.1,0-0.1-0.1l-0.1-0.1v-0.1c0-0.1,0-0.1,0.1-0.1l0.1-0.1c0.1,0,0.1,0,0.2,0
			c0,0,0.1,0,0.1,0.1c0.1,0.1,0.1,0.1,0.1,0.1v0.1c0,0,0,0.1-0.1,0.1l-0.1,0.1C193,366.8,193,366.8,193,366.8z"/>
	</g>
	<path class="st9" d="M227.9,301.6l-1.5-1.6c-2.6,2.5-6.2,4-9.9,4c-6.3,0-11.3-4.3-12.4-10l-2.2,0.6l-2,0.5c0.6,3.1,2,5.8,4.1,8
		c6.4,6.9,17.9,6.9,25.4,0L227.9,301.6z"/>
	<path class="st4" d="M231,277.7l-2,1.8l-1.3,1.3c2.3,2.5,3.6,5.9,3.3,9.6c-0.3,3.8-2,7.1-4.6,9.6l1.1,1.3l1.7,1.8
		c3.6-3.4,5.8-8,6.2-12.7C235.7,285.7,234.2,281.1,231,277.7z"/>
	<path class="st8" d="M231,277.7c-6.5-6.9-17.9-6.9-25.4,0c-4.8,4.5-7.1,11.1-5.9,17.3l2.5-0.6l1.7-0.4c-0.2-1.1-0.3-2.3-0.2-3.5
		c0.5-7.5,7.1-13.6,14.6-13.6c3.8,0,7.1,1.5,9.3,4l1.7-1.6L231,277.7z"/>
	<path class="st9" d="M249.3,301.6l1.7-1.6c-2.3-2.5-3.6-5.9-3.3-9.6c0.4-6.3,5.1-11.6,11-13.1l-0.4-2.2l-0.4-2
		c-3.1,0.8-6,2.4-8.4,4.6c-7.4,6.9-8.3,18.4-1.8,25.4L249.3,301.6z"/>
	<path class="st4" d="M273.1,303.1l-1.7-1.8l-1.1-1.3c-2.6,2.5-6.2,4-9.9,4c-3.8,0-7.1-1.5-9.3-4l-1.3,1.3l-1.9,1.8
		c3.1,3.4,7.6,5.3,12.3,5.3C264.7,308.4,269.5,306.5,273.1,303.1z"/>
	<path class="st8" d="M273.1,303.1c7.4-6.9,8.3-18.4,1.8-25.4c-4.2-4.5-10.7-6.3-17-4.6l0.5,2.5l0.3,1.7c1.1-0.3,2.4-0.4,3.6-0.4
		c7.5,0,13.2,6.1,12.6,13.6c-0.3,3.8-2,7.1-4.6,9.6l1.5,1.6L273.1,303.1z"/>
	<path class="st17" d="M303.1,274.1c0.4,0,0.7,0.1,1,0.4c0.3,0.3,0.4,0.6,0.3,1l-0.8,10.9c-0.1,0.8-0.8,1.5-1.5,1.5h-10.9
		c-0.4,0-0.7-0.1-1-0.4c-0.3-0.3-0.4-0.6-0.3-1l0.8-10.9c0.1-0.8,0.8-1.5,1.5-1.5H303.1z M303.1,273.5h-10.9c-1.1,0-2,0.9-2.1,2
		l-0.8,10.9c-0.1,1.1,0.8,2,1.8,2h10.9c1.1,0,2-0.9,2.1-2l0.8-10.9C305,274.4,304.2,273.5,303.1,273.5z"/>
	<path class="st17" d="M301.8,293c0.4,0,0.7,0.1,1,0.4c0.3,0.3,0.4,0.6,0.3,1l-0.8,10.9c-0.1,0.8-0.8,1.5-1.5,1.5h-10.9
		c-0.4,0-0.7-0.1-1-0.4c-0.3-0.3-0.4-0.6-0.3-1l0.8-10.9c0.1-0.8,0.8-1.5,1.5-1.5H301.8z M301.8,292.4h-11c-1.1,0-2,0.9-2.1,2
		l-0.8,10.9c-0.1,1.1,0.8,2,1.8,2h10.9c1.1,0,2-0.9,2.1-2l0.8-10.9C303.7,293.3,302.8,292.4,301.8,292.4z"/>
	<path class="st8" d="M285.7,353.7c0.3,0,0.6,0.1,0.8,0.3c0.2,0.2,0.3,0.5,0.3,0.8c-0.1,0.7-0.6,1.2-1.3,1.2c-0.3,0-0.6-0.1-0.8-0.3
		c-0.2-0.2-0.3-0.5-0.3-0.8C284.5,354.2,285,353.7,285.7,353.7z M285.7,353.1c-1,0-1.8,0.8-1.8,1.7c-0.1,1,0.6,1.7,1.6,1.7
		c1,0,1.8-0.8,1.8-1.7C287.4,353.9,286.7,353.1,285.7,353.1z"/>
	<path class="st8" d="M285.9,353.1l-0.3-0.1l0.1-0.5h0.3V353.1z"/>
	<path class="st8" d="M286,351.4h-0.3l0.1-1.1h0.3L286,351.4z M286.1,349.1h-0.3l0.1-1.1h0.3L286.1,349.1z M286.3,346.8h-0.3
		l0.1-1.1h0.3L286.3,346.8z M286.4,344.5h-0.3l0.1-1.1h0.3L286.4,344.5z M286.6,342.2h-0.3l0.1-1.1h0.3L286.6,342.2z M286.8,339.9
		h-0.3l0.1-1.1h0.3L286.8,339.9z M286.9,337.6h-0.3l0.1-1.1h0.3L286.9,337.6z M287.1,335.3h-0.3l0.1-1.1h0.3L287.1,335.3z
		 M287.3,333H287l0.1-1.1h0.3L287.3,333z M287.4,330.8h-0.3l0.1-1.1h0.3L287.4,330.8z M287.6,328.5h-0.3l0.1-1.1h0.3L287.6,328.5z"
		/>
	<path class="st8" d="M287.6,325.5l0,0.6l0.3,0l0-0.6L287.6,325.5z"/>
	<path class="st8" d="M299.5,325.9H198.8c-0.6,0-1.1-0.3-1.5-0.6c-0.4-0.4-0.6-1-0.5-1.5l0.5-6.9c0.1-1.1,1.1-2.1,2.2-2.1h100.7
		c0.6,0,1.1,0.3,1.5,0.6c0.4,0.4,0.6,1,0.5,1.5l-0.5,6.9C301.7,324.9,300.7,325.9,299.5,325.9z M199.6,315.3c-0.8,0-1.6,0.7-1.7,1.5
		l-0.5,6.9c0,0.4,0.1,0.8,0.4,1.1c0.3,0.3,0.6,0.4,1,0.4h100.7c0.8,0,1.6-0.7,1.7-1.5l0.5-6.9c0-0.4-0.1-0.8-0.4-1.1
		c-0.3-0.3-0.6-0.4-1-0.4H199.6z"/>
	<path class="st18" d="M297.4,319.2h-95.5c-0.5,0-0.9-0.4-0.9-1c0.1-0.5,0.5-1,1-1h95.5c0.5,0,0.9,0.4,0.9,1
		C298.3,318.7,297.9,319.2,297.4,319.2z"/>
	<path class="st18" d="M281.5,323.1h-79.9c-0.5,0-0.9-0.4-0.9-1c0.1-0.5,0.5-1,1-1h79.8c0.5,0,0.9,0.4,0.9,1
		C282.4,322.7,282,323.1,281.5,323.1z"/>
</g>
</svg>
