<svg width="1440" height="469" viewBox="0 0 1440 469" fill="none" xmlns="http://www.w3.org/2000/svg">
<mask id="mask0_1228_5553" style="mask-type:alpha" maskUnits="userSpaceOnUse" x="0" y="0" width="1440" height="469">
<rect width="1440" height="469" fill="#0D51D9"/>
</mask>
<g mask="url(#mask0_1228_5553)">
<path d="M1040.12 731.261C1024.23 731.261 1008.19 726.551 994.333 716.762L1102.9 570.37L1151.17 505.275L1173.84 474.705L1175.03 473.099L1267.67 348.172L1285.71 323.849L1286.4 322.916L1349.46 367.456L1349.76 367.672L1345.04 374.043L1336.8 385.15L1328.97 395.706L1199.44 570.367L1151.17 635.466L1103.55 699.679C1088.25 720.304 1064.36 731.261 1040.12 731.261Z" fill="#1F6AFF"/>
<path d="M1153.31 348.469C1096.43 348.469 1050.33 303.48 1050.33 247.969C1050.33 192.458 1096.43 147.469 1153.31 147.469C1156.85 147.469 1160.34 147.644 1163.78 147.981C1163.9 147.995 1163.99 148.008 1164.1 148.022C1198.64 151.529 1228.1 171.71 1243.91 200.16C1242.97 200.106 1242.03 200.08 1241.08 200.08L1200.99 200.08C1187.26 200.08 1174.82 205.516 1165.8 214.298C1156.8 223.093 1151.24 235.234 1151.24 248.643C1151.24 275.461 1173.52 297.207 1201 297.207L1241.08 297.207C1241.76 297.207 1242.43 297.18 1243.1 297.153C1225.81 327.168 1193.21 347.632 1155.62 348.442C1154.84 348.456 1154.08 348.469 1153.31 348.469Z" fill="#0D4BC8"/>
<path d="M1250.63 275.624L1206.58 275.624C1189.73 275.624 1176.06 263.537 1176.06 248.644C1176.06 233.751 1189.73 221.664 1206.58 221.664L1250.63 221.664C1251.21 221.664 1251.79 221.678 1252.36 221.705C1252.59 222.083 1252.81 222.46 1253.03 222.851C1255.16 230.878 1256.28 239.295 1256.28 247.97C1256.28 257.048 1255.05 265.844 1252.73 274.195C1252.45 274.667 1252.16 275.139 1251.87 275.597C1251.46 275.611 1251.04 275.624 1250.63 275.624Z" fill="#1F6AFF"/>
<path d="M1379.59 808.8L1199.13 570.368L1150.86 505.275L1128.21 474.736L1128.19 474.702C1128.3 474.713 1128.41 474.725 1128.52 474.736L1127.29 473.067L1035.95 349.915C1035.42 349.339 1034.88 348.756 1034.35 348.171L1016.32 323.852C1016.15 323.569 1015.98 323.287 1015.81 323.004C1002.71 300.731 995.213 274.914 995.213 247.389C995.213 163.411 1064.97 95.3326 1151.01 95.3326C1237.06 95.3326 1306.81 163.412 1306.81 247.389C1306.81 275.264 1299.13 301.387 1285.71 323.849C1280.52 332.544 1274.47 340.688 1267.67 348.172L1175.03 473.099L1173.84 474.705C1235.8 468.853 1290.69 439.415 1328.98 395.705C1363.92 355.8 1385.03 304 1385.03 247.389C1385.03 121.252 1280.26 19 1151.01 19C1050.12 19 964.142 81.313 931.278 168.657C922.042 193.199 917 219.721 917 247.389C917 250.856 917.078 254.305 917.237 257.735C919.639 310.293 940.24 358.232 973.04 395.69L974.646 397.855L1102.58 570.371L1150.86 635.466L1270.37 791.72C1285.67 812.345 1309.56 823.302 1333.8 823.302C1349.69 823.302 1365.73 818.589 1379.59 808.8Z" fill="#0D4BC8"/>
</g>
</svg>
