<svg width="202" height="209" viewBox="0 0 202 209" fill="none" xmlns="http://www.w3.org/2000/svg">
<path d="M49.1901 88.6222C56.7856 59.3445 91.6886 41.8252 124.421 50.9794C125.054 51.1372 125.778 51.374 126.411 51.5318C169.18 64.3951 155.165 102.275 176.505 113.954C197.935 125.634 213.216 142.522 203.903 164.697C194.589 186.872 137.714 207.864 92.9545 183.952C57.6898 165.17 39.4245 125.791 49.1901 88.6222Z" stroke="#BFD9FF" stroke-width="1.1086" stroke-miterlimit="10"/>
<path d="M59.2057 53.9671C61.6281 40.7554 51.32 28.3314 36.1819 26.2173C21.0439 24.1032 6.80836 33.0996 4.38602 46.3113C1.96369 59.523 12.2718 71.947 27.4099 74.061C42.5479 76.1751 56.7834 67.1787 59.2057 53.9671Z" stroke="#BFD9FF" stroke-width="1.1086" stroke-miterlimit="10"/>
<path d="M165.112 159.41H68.1795C66.0094 159.41 64.5626 157.437 65.4669 155.701L134.278 20.9914C134.73 20.0444 135.815 19.4131 136.991 19.4131H234.014C236.184 19.4131 237.631 21.386 236.727 23.1221L167.915 157.831C167.373 158.857 166.378 159.41 165.112 159.41Z" fill="url(#paint0_linear_3216_55463)"/>
<path d="M194.59 64.3952L225.876 3.15663C226.599 1.65723 225.424 0 223.525 0H135.725C132.47 0 129.486 1.65722 128.22 4.26144L96.4817 66.447C95.7584 67.9464 96.9338 69.6036 98.8327 69.6036H185.457C189.345 69.6036 192.962 67.5518 194.59 64.3952Z" fill="#DEE9FF"/>
<path d="M183.196 106.378L214.482 45.1398C215.206 43.6404 214.03 41.9832 212.131 41.9832H124.331C121.076 41.9832 118.092 43.6404 116.826 46.2446L85.0879 108.43C84.3646 109.93 85.54 111.587 87.4389 111.587H174.063C177.952 111.587 181.569 109.535 183.196 106.378Z" stroke="white" stroke-width="1.1086" stroke-miterlimit="10"/>
<path opacity="0.39" d="M143.41 84.7556H147.388L136.628 103.143H71.4336L74.0558 98.6448" stroke="#A1C2FF" stroke-width="0.5543" stroke-miterlimit="10"/>
<path d="M150.947 33.8492C159.211 27.5973 161.561 18.1509 156.197 12.7501C150.832 7.34922 139.785 8.03912 131.521 14.291C123.257 20.5429 120.907 29.9893 126.271 35.3902C131.636 40.791 142.683 40.1011 150.947 33.8492Z" fill="#E6F4FF"/>
<path d="M149.821 32.7149C157.104 27.2052 159.163 18.8677 154.42 14.0926C149.677 9.31744 139.928 9.91288 132.645 15.4225C125.363 20.9322 123.304 29.2697 128.047 34.0448C132.79 38.82 142.538 38.2245 149.821 32.7149Z" fill="#94C3FF"/>
<path d="M141.512 26.6738C141.512 26.6738 133.555 27.8576 130.209 28.9624C127.949 30.1461 127.496 31.172 126.954 32.5925C128.762 35.4335 132.289 37.1696 136.9 37.1696C142.868 37.1696 148.926 34.1708 152.815 29.8304C150.735 27.2262 141.512 26.6738 141.512 26.6738Z" fill="#4361C4"/>
<path d="M138.708 23.754L137.352 28.8046C137.171 29.4359 137.533 29.9883 138.256 30.0672C139.341 30.225 141.059 30.2251 142.868 29.1992C143.41 28.8835 143.772 28.41 143.862 27.8576C144.043 25.4901 144.586 20.6763 144.586 20.6763L138.708 23.754Z" fill="#FF8D68"/>
<path d="M137.533 18.3876C137.533 18.3876 133.826 25.0165 134.549 26.7526C135.363 27.9364 142.868 25.2532 144.134 23.4382C145.4 21.702 148.203 18.4665 146.033 16.4936C143.682 14.5207 140.336 15.231 137.533 18.3876Z" fill="#FF8D68"/>
<path d="M137.533 18.3874C137.533 18.3874 136.9 16.0199 139.16 14.6783C141.421 13.3367 144.314 13.5735 145.399 14.9151C146.485 16.2566 146.575 16.4934 146.575 16.4934C146.575 16.4934 147.66 16.7301 148.022 17.756C148.383 18.7819 146.032 21.3861 145.128 22.1753C144.224 22.9645 144.405 22.9645 144.405 22.9645L144.043 22.5699C144.043 22.5699 144.224 20.597 144.676 19.4133C144.766 18.7819 143.953 17.9139 142.596 17.6771C140.969 17.5193 140.517 18.703 137.533 18.3874Z" fill="#7E3636"/>
<path d="M144.767 21.3861C144.767 21.3861 145.31 20.518 146.214 20.7548C147.118 20.9915 145.31 23.5168 144.315 23.359C143.411 23.2011 144.767 21.3861 144.767 21.3861Z" fill="#FF8D68"/>
<path d="M143.863 26.9104C143.863 26.9104 141.874 28.8044 139.884 29.3568C139.523 29.4357 139.071 30.067 139.071 30.067L138.709 29.2779C138.709 29.2779 137.352 28.5676 137.714 27.3839L137.443 27.5417L136.72 29.12C136.72 29.12 136.177 30.6194 136.177 31.1718L137.985 30.3038C137.985 30.3038 139.071 30.6194 139.975 30.3827C139.975 30.3827 140.336 31.4875 140.698 31.5664C141.06 31.6453 143.772 29.4357 144.134 28.6466C144.586 27.8574 144.496 27.0682 144.496 27.0682L143.863 26.9104Z" fill="white"/>
<path opacity="0.39" d="M201.461 29.8301H163.393C162.218 29.8301 161.585 29.0409 162.037 28.015L167.462 15.0729C167.914 14.047 169.18 13.2578 170.356 13.2578H208.424C209.599 13.2578 210.232 14.047 209.78 15.0729L204.355 28.015C203.903 28.962 202.637 29.8301 201.461 29.8301Z" fill="#A1C2FF"/>
<path d="M203.631 19.0975H170.898L171.441 17.677H204.264L203.631 19.0975Z" fill="#94C3FF"/>
<path d="M189.255 22.2539H169.542L170.175 20.9124H189.887L189.255 22.2539Z" fill="#94C3FF"/>
<path d="M173.431 25.1741H168.367L168.91 23.8325H174.064L173.431 25.1741Z" fill="#94C3FF"/>
<path d="M165.202 35.7488C164.659 36.9326 163.212 37.8006 161.856 37.8006C160.5 37.8006 159.867 36.8537 160.409 35.7488C160.952 34.5651 162.399 33.697 163.755 33.697C165.111 33.697 165.744 34.644 165.202 35.7488Z" fill="#94C3FF"/>
<path d="M173.43 35.7488C172.887 36.9326 171.44 37.8006 170.084 37.8006C168.728 37.8006 168.095 36.8537 168.637 35.7488C169.18 34.644 170.627 33.697 171.983 33.697C173.339 33.697 173.972 34.644 173.43 35.7488Z" fill="#94C3FF"/>
<path d="M181.749 35.7488C181.206 36.9326 179.76 37.8006 178.403 37.8006C177.047 37.8006 176.414 36.8537 176.956 35.7488C177.499 34.644 178.946 33.697 180.302 33.697C181.658 33.697 182.291 34.644 181.749 35.7488Z" fill="#94C3FF"/>
<path d="M189.977 35.7488C189.434 36.9326 187.988 37.8006 186.631 37.8006C185.275 37.8006 184.642 36.8537 185.184 35.7488C185.727 34.5651 187.174 33.697 188.53 33.697C189.886 33.697 190.519 34.644 189.977 35.7488Z" fill="#FF8D02"/>
<path opacity="0.39" d="M198.296 35.7488C197.753 36.9326 196.307 37.8006 194.95 37.8006C193.594 37.8006 192.961 36.8537 193.504 35.7488C194.046 34.5651 195.493 33.697 196.849 33.697C198.206 33.697 198.839 34.644 198.296 35.7488Z" fill="#A1C2FF"/>
<path opacity="0.39" d="M178.584 42.0623L168.095 51.611L157.244 55.399L169.542 63.2906L181.93 54.0574L178.584 42.0623Z" fill="#A1C2FF"/>
<path opacity="0.7" d="M176.142 47.5862L168.095 51.6109L161.313 55.3199L170.536 61.0808L179.217 54.1362L176.142 47.5862Z" fill="#A1C2FF"/>
<path d="M178.584 42.0623L168.095 51.611L157.244 55.399L169.542 63.3695L181.93 54.0574L178.584 42.0623Z" stroke="#4361C4" stroke-width="0.2806" stroke-miterlimit="10"/>
<path d="M173.701 54.9255C173.52 55.3201 173.068 55.5568 172.616 55.5568C172.164 55.5568 171.983 55.2412 172.164 54.9255C172.345 54.5309 172.797 54.2942 173.249 54.2942C173.611 54.2942 173.882 54.5309 173.701 54.9255Z" fill="#4361C4"/>
<path d="M163.393 48.3755L172.616 54.7676L156.069 55.4779" stroke="#4361C4" stroke-width="0.2806" stroke-miterlimit="10"/>
<path d="M168.819 65.579L172.978 54.7675L183.919 53.8206" stroke="#4361C4" stroke-width="0.2806" stroke-miterlimit="10"/>
<path d="M179.217 40.7207L172.978 54.7677" stroke="#4361C4" stroke-width="0.2806" stroke-miterlimit="10"/>
<path d="M164.207 48.2176C163.936 48.8489 163.122 49.3224 162.399 49.3224C161.676 49.3224 161.314 48.8489 161.676 48.2176C161.947 47.5863 162.761 47.1128 163.484 47.1128C164.117 47.1128 164.479 47.5863 164.207 48.2176Z" fill="#94C3FF"/>
<path d="M156.702 55.5569C156.43 56.1883 155.617 56.6618 154.893 56.6618C154.17 56.6618 153.808 56.1883 154.17 55.5569C154.441 54.9256 155.255 54.4521 155.978 54.4521C156.611 54.3732 156.973 54.9256 156.702 55.5569Z" fill="#FF8D02"/>
<path d="M170.085 65.7369C169.813 66.3682 169 66.8417 168.276 66.8417C167.553 66.8417 167.191 66.3682 167.553 65.7369C167.824 65.1056 168.638 64.6321 169.361 64.6321C169.994 64.6321 170.356 65.1056 170.085 65.7369Z" fill="#94C3FF"/>
<path d="M185.366 53.8206C185.094 54.452 184.281 54.9254 183.557 54.9254C182.834 54.9254 182.472 54.452 182.834 53.8206C183.105 53.1893 183.919 52.7158 184.642 52.7158C185.366 52.7158 185.727 53.1893 185.366 53.8206Z" fill="#94C3FF"/>
<path d="M180.664 40.4051C180.392 41.0364 179.579 41.5099 178.855 41.5099C178.132 41.5099 177.77 41.0364 178.132 40.4051C178.403 39.7738 179.217 39.3003 179.94 39.3003C180.573 39.3003 180.935 39.7738 180.664 40.4051Z" fill="#FF8D02"/>
<path d="M151.639 49.7168H119.811L122.252 44.4294H154.081L151.639 49.7168Z" fill="#4361C4"/>
<path opacity="0.39" d="M132.47 61.5542H114.295L115.38 59.2656H133.465L132.47 61.5542Z" fill="#A1C2FF"/>
<path opacity="0.39" d="M129.757 56.977H116.375L118.816 51.7686H132.199L129.757 56.977Z" fill="#A1C2FF"/>
<path d="M200.466 113.086L216.019 82.5458C216.381 81.8356 215.748 80.9675 214.844 80.9675H171.079C169.452 80.9675 168.005 81.8356 167.281 83.0983L151.457 114.033C151.096 114.743 151.729 115.612 152.633 115.612H195.764C197.844 115.69 199.653 114.665 200.466 113.086Z" fill="white"/>
<path opacity="0.39" d="M191.627 105.631C198.971 100.387 201.644 92.6362 197.596 88.3182C193.549 84.0003 184.314 84.7506 176.97 89.9941C169.626 95.2376 166.954 102.989 171.001 107.307C175.049 111.625 184.283 110.874 191.627 105.631Z" fill="#A1C2FF"/>
<path d="M185.455 99.0391C185.455 99.0391 192.508 102.117 193.322 104.958C194.045 107.799 190.971 115.217 190.971 115.217H162.759C162.759 115.217 167.371 106.536 170.988 104.484C174.605 102.432 181.477 100.854 181.477 100.854L185.455 99.0391Z" fill="#0D51D9"/>
<path d="M182.561 97.0658L180.391 101.248C180.119 101.801 180.3 102.274 180.752 102.353C181.566 102.59 182.922 102.669 184.55 101.959C185.093 101.722 185.454 101.327 185.635 100.933C186.358 98.9598 187.805 94.9351 187.805 94.9351L182.561 97.0658Z" fill="#94C3FF"/>
<path d="M182.832 92.4098C182.832 92.4098 178.401 97.6972 178.582 99.2755C178.944 100.38 185.454 98.6442 186.81 97.2237C188.167 95.8032 191.151 93.3568 189.794 91.4628C188.528 89.6478 185.725 89.9634 182.832 92.4098Z" fill="#94C3FF"/>
<path d="M183.013 91.6207C183.013 91.6207 182.923 91.6996 182.832 91.8574C182.561 92.252 182.199 92.9622 183.285 93.0411C184.731 93.1201 184.731 93.1201 184.731 93.1201C184.731 93.1201 186.992 92.0152 187.896 93.199C188.529 94.3827 186.359 95.093 186.54 95.7243C186.721 96.3556 186.63 96.1978 186.359 96.5134C186.088 96.8291 185.816 97.3815 184.822 97.7761C183.827 98.1707 183.013 98.0918 182.019 98.5653C181.024 99.0387 179.125 98.4863 178.944 98.0918C178.492 97.7761 178.221 98.4863 177.95 98.9598C177.678 99.4333 176.774 99.5912 177.588 100.144C178.492 100.775 179.125 101.012 180.572 100.222C182.109 99.4333 182.109 99.5122 183.646 99.1966C185.183 98.8809 186.268 98.1707 186.901 97.3815C187.534 96.5924 187.625 95.4875 188.167 95.093C188.71 94.6984 188.891 95.093 188.71 95.5664C188.529 96.0399 190.609 95.1719 191.061 93.7514C191.513 92.3309 190.699 92.4098 190.609 91.6207C190.518 90.8315 191.603 89.8845 190.428 89.1743C189.343 88.464 188.258 89.411 187.896 88.9375C187.534 88.464 185.816 88.3851 184.37 89.411C183.013 90.4369 182.923 91.7785 182.923 91.7785" fill="#4361C4"/>
<path d="M187.897 95.1717C187.897 95.1717 188.53 94.4615 189.162 94.7772C189.795 95.0928 187.806 97.0657 187.083 96.829C186.359 96.5133 187.897 95.1717 187.897 95.1717Z" fill="#94C3FF"/>
<path d="M178.401 98.2497C178.401 98.2497 179.034 96.1979 180.662 95.9612C182.29 95.7244 183.013 96.5925 182.922 97.3027C182.832 98.013 183.555 98.4075 183.555 98.4075C183.555 98.4075 179.486 100.144 178.401 98.2497Z" fill="#4361C4"/>
<path d="M180.846 154.28L196.399 123.74C196.76 123.029 196.127 122.161 195.223 122.161H151.459C149.831 122.161 148.384 123.029 147.661 124.292L131.837 155.227C131.475 155.937 132.108 156.805 133.013 156.805H176.144C178.314 156.884 180.032 155.858 180.846 154.28Z" fill="white"/>
<path opacity="0.39" d="M172.015 146.712C179.552 141.331 182.33 133.413 178.219 129.028C174.108 124.642 164.666 125.45 157.128 130.831C149.591 136.213 146.813 144.131 150.924 148.516C155.035 152.901 164.478 152.094 172.015 146.712Z" fill="#A1C2FF"/>
<path d="M168.637 135.183C168.637 135.183 170.807 134.315 171.078 135.341C171.35 136.446 170.445 137.156 170.445 137.156C170.445 137.156 172.344 136.682 172.887 138.103C173.429 139.523 171.802 140.234 172.525 140.786C173.158 141.339 174.514 142.364 172.616 144.258C170.717 146.073 168.004 148.204 164.839 146.863C161.675 145.521 162.669 138.892 162.669 138.892L163.483 136.998L168.637 135.183Z" fill="#4361C4"/>
<path d="M166.557 129.659C166.557 129.659 161.765 129.974 160.227 132.894C158.69 135.814 161.674 136.051 161.674 136.051L166.557 129.659Z" fill="#4361C4"/>
<path d="M135.452 149.545C135.723 150.019 135.723 150.019 135.723 150.019C135.723 150.019 139.43 153.886 142.685 156.332H149.467C152.994 153.491 157.876 148.598 157.876 148.362C157.876 148.046 162.126 144.021 161.222 142.364C160.318 140.707 159.052 141.023 159.052 141.023C159.052 141.023 157.696 141.18 156.068 142.601C154.531 144.021 146.845 154.359 146.845 154.359C146.845 154.359 145.85 152.781 144.042 151.597C142.233 150.414 136.898 147.888 136.898 147.888C136.898 147.888 137.26 145.915 137.17 145.521C137.17 145.126 135.813 143.39 135.452 143.785C135.09 144.179 135.994 145.836 135.994 145.836C135.994 145.836 135.18 148.993 135.452 149.545Z" fill="#94C3FF"/>
<path d="M152.542 153.413C152.542 153.413 152.723 154.675 153.175 156.332H166.738C167.009 153.649 167.642 148.283 168.095 147.02C168.637 145.284 168.185 141.654 168.275 140.628C168.456 139.602 165.201 139.997 165.201 139.997L160.951 140.076L160.228 140.313C159.324 140.628 158.419 141.26 157.877 142.049C157.334 142.759 156.611 143.785 155.526 145.126C153.808 146.231 150.101 148.204 150.372 150.651C150.553 153.018 152.542 153.413 152.542 153.413Z" fill="#4385FF"/>
<path d="M162.307 137.787C162.307 137.787 158.509 141.891 157.514 147.02C158.78 146.705 162.487 143.706 164.748 141.812C165.652 141.023 165.743 140.628 165.562 139.839C165.471 139.444 165.833 138.339 166.376 137.156C166.647 135.42 162.307 137.787 162.307 137.787Z" fill="#94C3FF"/>
<path d="M174.153 154.517C174.153 154.517 174.786 155.227 175.69 156.332H181.748C180.573 154.991 179.669 153.886 179.397 153.491C178.403 152.15 171.44 138.971 167.281 140.628C166.467 140.944 163.664 142.995 164.839 145.284C165.924 147.573 174.153 154.517 174.153 154.517Z" fill="#94C3FF"/>
<path d="M162.127 132.342C161.494 132.973 160.047 134.709 159.143 136.209C158.329 137.55 158.871 138.734 160.318 138.892C162.398 139.049 165.563 138.655 166.648 137.629C168.185 136.051 171.53 133.368 170.174 131.237C168.818 129.185 165.834 129.422 162.669 131.947C162.398 132.026 162.307 132.184 162.127 132.342Z" fill="#94C3FF"/>
<path d="M163.482 131C163.482 131 161.402 133.999 167.37 135.893L168.093 136.209C168.093 136.209 170.716 134.394 170.716 132.5C170.716 130.606 169.631 129.896 168.455 129.501C167.37 129.106 164.296 130.29 163.482 131Z" fill="#4361C4"/>
<path d="M167.19 136.367C167.19 136.367 168.727 135.499 168.637 136.288C168.637 137.156 166.467 138.024 166.286 137.708C166.105 137.314 167.19 136.367 167.19 136.367Z" fill="#94C3FF"/>
<path d="M133.374 129.027H85.1793C83.7326 129.027 83.0092 128.001 83.5517 126.66L86.9878 119.242C87.6207 117.979 89.2483 116.874 90.7855 116.874H138.981C140.427 116.874 141.151 117.9 140.608 119.242L137.172 126.66C136.539 128.001 134.821 129.027 133.374 129.027Z" fill="#4385FF"/>
<path d="M133.013 123.582H91.509L92.3228 121.846H133.827L133.013 123.582Z" fill="white"/>
<path d="M94.4016 7.26005H92.774C92.5027 7.26005 92.3219 7.0233 92.5027 6.78655L93.1357 5.36607C93.2261 5.12932 93.5878 4.89258 93.8591 4.89258H95.4867C95.7579 4.89258 95.9388 5.12932 95.7579 5.36607L95.125 6.78655C95.0345 7.0233 94.6729 7.26005 94.4016 7.26005Z" fill="#F9FBFC"/>
<path d="M111.129 7.26005H109.502C109.23 7.26005 109.049 7.0233 109.23 6.78655L109.863 5.36607C109.954 5.12932 110.315 4.89258 110.587 4.89258H112.214C112.485 4.89258 112.666 5.12932 112.485 5.36607L111.853 6.78655C111.762 7.0233 111.4 7.26005 111.129 7.26005Z" fill="#BFD9FF"/>
<path d="M91.3279 13.9681H89.7003C89.429 13.9681 89.2482 13.7313 89.429 13.4946L90.062 12.0741C90.1524 11.8373 90.5141 11.6006 90.7853 11.6006H92.4129C92.6842 11.6006 92.865 11.8373 92.6842 12.0741L92.0512 13.4946C91.8704 13.7313 91.5991 13.9681 91.3279 13.9681Z" fill="#BFD9FF"/>
<path d="M99.647 13.9681H98.0193C97.7481 13.9681 97.5672 13.7313 97.7481 13.4946L98.381 12.0741C98.4715 11.8373 98.8332 11.6006 99.1044 11.6006H100.732C101.003 11.6006 101.184 11.8373 101.003 12.0741L100.37 13.4946C100.28 13.7313 99.9182 13.9681 99.647 13.9681Z" fill="#F9FBFC"/>
<path d="M107.966 13.9681H106.338C106.067 13.9681 105.886 13.7313 106.067 13.4946L106.7 12.0741C106.79 11.8373 107.152 11.6006 107.423 11.6006H109.051C109.322 11.6006 109.503 11.8373 109.322 12.0741L108.689 13.4946C108.599 13.7313 108.328 13.9681 107.966 13.9681Z" fill="#F9FBFC"/>
<path d="M114.656 13.9681H113.029C112.758 13.9681 112.577 13.7313 112.758 13.4946L113.391 12.0741C113.481 11.8373 113.843 11.6006 114.114 11.6006H115.742C116.013 11.6006 116.194 11.8373 116.013 12.0741L115.38 13.4946C115.289 13.7313 114.928 13.9681 114.656 13.9681Z" fill="#F9FBFC"/>
<path d="M88.1621 20.597H86.5345C86.2632 20.597 86.0824 20.3602 86.2632 20.1235L86.8962 18.703C86.9866 18.4662 87.3483 18.2295 87.6196 18.2295H89.2472C89.5184 18.2295 89.6993 18.4662 89.5184 18.703L88.8855 20.1235C88.7951 20.4391 88.4334 20.597 88.1621 20.597Z" fill="#F9FBFC"/>
<path d="M81.4714 20.597H79.8438C79.5726 20.597 79.3917 20.3602 79.5726 20.1235L80.2055 18.703C80.2959 18.4662 80.6576 18.2295 80.9289 18.2295H82.5565C82.8277 18.2295 83.0086 18.4662 82.8277 18.703L82.1948 20.1235C82.1043 20.4391 81.8331 20.597 81.4714 20.597Z" fill="#F9FBFC"/>
<path d="M96.572 20.597H94.9444C94.6731 20.597 94.4923 20.3602 94.6731 20.1235L95.3061 18.703C95.3965 18.4662 95.7582 18.2295 96.0295 18.2295H97.6571C97.9283 18.2295 98.1092 18.4662 97.9283 18.703L97.2954 20.1235C97.1146 20.4391 96.8433 20.597 96.572 20.597Z" fill="#F9FBFC"/>
<path d="M104.891 20.597H103.264C102.992 20.597 102.811 20.3602 102.992 20.1235L103.625 18.703C103.716 18.4662 104.077 18.2295 104.349 18.2295H105.976C106.247 18.2295 106.428 18.4662 106.247 18.703L105.614 20.1235C105.524 20.4391 105.162 20.597 104.891 20.597Z" fill="#BFD9FF"/>
<path d="M85.0886 27.3047H83.461C83.1897 27.3047 83.0089 27.068 83.1897 26.8312L83.8227 25.4108C83.9131 25.174 84.2748 24.9373 84.5461 24.9373H86.1737C86.4449 24.9373 86.6258 25.174 86.4449 25.4108L85.812 26.8312C85.7215 27.1469 85.3599 27.3047 85.0886 27.3047Z" fill="#F9FBFC"/>
<path d="M95.0349 138.892H92.7743C92.4126 138.892 92.1414 138.576 92.3222 138.26L93.2264 136.287C93.4073 135.972 93.8594 135.656 94.2211 135.656H96.4816C96.8433 135.656 97.1146 135.972 96.9337 136.287L96.0295 138.26C95.9391 138.576 95.487 138.892 95.0349 138.892Z" fill="#4385FF"/>
<path d="M118.635 138.892H116.374C116.012 138.892 115.741 138.576 115.922 138.26L116.826 136.287C117.007 135.972 117.459 135.656 117.821 135.656H120.081C120.443 135.656 120.714 135.972 120.534 136.287L119.629 138.26C119.449 138.576 118.996 138.892 118.635 138.892Z" fill="#4385FF"/>
<path d="M90.6943 148.361H88.4337C88.0721 148.361 87.8008 148.046 87.9816 147.73L88.8859 145.757C89.0667 145.442 89.5188 145.126 89.8805 145.126H92.141C92.5027 145.126 92.774 145.442 92.5932 145.757L91.6889 147.73C91.5985 148.046 91.056 148.361 90.6943 148.361Z" fill="#BFD9FF"/>
<path d="M102.449 148.361H100.188C99.8267 148.361 99.5554 148.046 99.7363 147.73L100.64 145.757C100.821 145.442 101.273 145.126 101.635 145.126H103.896C104.257 145.126 104.529 145.442 104.348 145.757L103.444 147.73C103.353 148.046 102.901 148.361 102.449 148.361Z" fill="#FF8D02"/>
<path d="M114.205 148.361H111.944C111.582 148.361 111.311 148.046 111.492 147.73L112.396 145.757C112.577 145.442 113.029 145.126 113.391 145.126H115.651C116.013 145.126 116.284 145.442 116.103 145.757L115.199 147.73C115.109 148.046 114.657 148.361 114.205 148.361Z" fill="#BFD9FF"/>
<path d="M123.608 148.361H121.348C120.986 148.361 120.715 148.046 120.896 147.73L121.8 145.757C121.981 145.442 122.433 145.126 122.795 145.126H125.055C125.417 145.126 125.688 145.442 125.507 145.757L124.603 147.73C124.513 148.046 124.06 148.361 123.608 148.361Z" fill="#BFD9FF"/>
<path d="M86.2634 157.831H84.0028C83.6411 157.831 83.3699 157.516 83.5507 157.2L84.455 155.227C84.6358 154.912 85.0879 154.596 85.4496 154.596H87.7102C88.0719 154.596 88.3431 154.912 88.1623 155.227L87.2581 157.2C87.1676 157.516 86.7155 157.831 86.2634 157.831Z" fill="#BFD9FF"/>
<path d="M76.8598 157.831H74.5993C74.2376 157.831 73.9663 157.516 74.1472 157.2L75.0514 155.227C75.2322 154.912 75.6843 154.596 76.046 154.596H78.3066C78.6683 154.596 78.9395 154.912 78.7587 155.227L77.8545 157.2C77.7641 157.516 77.3119 157.831 76.8598 157.831Z" fill="#BFD9FF"/>
<path d="M98.1089 157.831H95.8483C95.4866 157.831 95.2153 157.516 95.3962 157.2L96.3004 155.227C96.4813 154.912 96.9334 154.596 97.2951 154.596H99.5556C99.9173 154.596 100.189 154.912 100.008 155.227L99.1035 157.2C98.9227 157.516 98.4705 157.831 98.1089 157.831Z" fill="#BFD9FF"/>
<path d="M109.863 157.831H107.603C107.241 157.831 106.97 157.516 107.151 157.2L108.055 155.227C108.236 154.912 108.688 154.596 109.049 154.596H111.31C111.672 154.596 111.943 154.912 111.762 155.227L110.858 157.2C110.767 157.516 110.225 157.831 109.863 157.831Z" fill="#FF8D02"/>
<path d="M81.924 167.222H79.6635C79.3018 167.222 79.0305 166.907 79.2114 166.591L80.1156 164.618C80.2964 164.302 80.7485 163.987 81.1102 163.987H83.3708C83.7325 163.987 84.0038 164.302 83.8229 164.618L82.9187 166.591C82.8283 166.986 82.3762 167.222 81.924 167.222Z" fill="#FF8D02"/>
<path opacity="0.39" d="M135.091 99.1185H69.9866L80.7468 80.7312H145.851L135.091 99.1185Z" fill="#A1C2FF"/>
<path d="M129.63 94.8112C133.635 91.7244 134.631 86.9974 131.855 84.2531C129.078 81.5087 123.58 81.7863 119.575 84.8731C115.569 87.9599 114.573 92.6869 117.35 95.4312C120.126 98.1755 125.624 97.8979 129.63 94.8112Z" fill="#73A5FF"/>
<path d="M122.431 93.5943C122.16 93.5943 121.889 93.5154 121.798 93.3576L119.628 90.7533C119.357 90.3588 119.447 89.8064 119.99 89.4907C120.532 89.0961 121.165 89.0961 121.437 89.4907L123.064 91.3847L128.942 87.281C129.484 86.8865 130.117 86.8865 130.388 87.281C130.66 87.6756 130.569 88.228 130.027 88.5437L123.155 93.3576C122.974 93.5154 122.702 93.5943 122.431 93.5943Z" fill="white"/>
<path d="M73.2422 45.7715C73.2422 47.1919 72.0667 48.3757 70.5296 48.3757C69.0828 48.3757 67.8169 47.1919 67.8169 45.7715C67.8169 44.351 68.9924 43.1672 70.5296 43.1672C72.0667 43.1672 73.2422 44.2721 73.2422 45.7715Z" stroke="#505E83" stroke-width="0.5192" stroke-miterlimit="10"/>
<path d="M44.9395 59.8975C44.9395 59.8975 40.5993 60.1342 37.4345 63.9222C34.1793 67.7101 38.8812 81.6782 52.7159 87.2812C61.7581 90.3589 62.391 83.3354 60.1305 78.4426C57.8699 73.471 51.3595 61.0023 44.9395 59.8975Z" fill="white"/>
<path d="M46.2962 198.473C46.2962 198.473 47.2004 196.737 50.7269 197.211C54.1629 197.684 54.6151 198.237 54.9767 199.815C55.3384 201.314 56.6043 202.972 57.4181 203.287C58.2319 203.603 61.1255 205.418 63.5669 205.734C66.0083 206.049 66.2795 207.391 65.737 207.943C65.1945 208.496 56.0618 208.969 54.0725 208.732C54.0725 208.732 47.2908 208.654 45.6632 208.18C44.0356 207.707 46.1154 199.026 46.2962 198.473Z" fill="#16142A"/>
<path d="M63.7479 198.473C63.7479 198.473 64.6521 196.737 68.1785 197.211C71.6146 197.684 72.0667 198.237 72.4284 199.815C72.7901 201.314 74.056 202.972 74.8698 203.287C75.6836 203.603 78.5771 205.418 81.0185 205.734C83.4599 206.049 83.7311 207.391 83.1886 207.943C82.6461 208.496 73.5134 208.969 71.5242 208.732C71.5242 208.732 64.7425 208.654 63.1149 208.18C61.4873 207.707 63.567 199.026 63.7479 198.473Z" fill="#16142A"/>
<path d="M43.0415 154.991C43.0415 154.991 42.0469 150.177 47.8339 148.52C53.7113 146.862 54.7964 149.23 56.6049 153.649C58.4133 158.069 55.0677 199.736 55.0677 199.736C55.0677 199.736 47.9243 199.894 46.2063 199.026C46.2063 199.026 41.4139 171.405 41.7756 164.619C42.1373 157.832 43.0415 154.991 43.0415 154.991Z" fill="#2B3554"/>
<path d="M70.4382 47.5078C70.4382 47.5078 71.7946 49.0861 71.7946 49.9542C71.7946 50.8223 69.9861 50.8223 69.9861 50.8223L70.4382 47.5078Z" fill="#FF7759"/>
<path d="M63.8377 31.0933C63.8377 31.0933 67.8163 31.9614 70.0768 37.2487C72.3374 42.5361 70.8002 53.821 69.3534 55.1626C67.8163 56.5041 63.2952 55.9517 57.056 54.1366C50.3648 52.2427 48.1946 46.1662 46.9287 42.2204C44.5777 34.5656 52.1732 26.7529 63.8377 31.0933Z" fill="#FF8D68"/>
<path d="M49.6416 60.3708L52.8968 50.2696C52.8968 50.2696 59.3168 48.6124 63.2954 52.4003L64.6517 54.0576V60.6076C64.6517 60.6076 57.9604 61.7124 49.6416 60.3708Z" fill="#FF8D68"/>
<path d="M40.6898 114.428C40.6898 114.428 38.2484 126.66 40.6898 140.707C43.1312 154.754 47.9236 156.096 52.3543 156.096C56.785 156.096 57.9605 144.89 58.7743 139.997C59.5881 135.104 62.7528 118.295 56.785 114.428C50.7267 110.561 43.945 110.246 40.6898 114.428Z" fill="#2B3554"/>
<path d="M57.5985 130.843C57.5985 130.843 52.8061 119.637 61.2154 114.744C69.6247 109.851 76.0447 110.561 78.034 118.611C80.0232 126.66 80.4754 154.359 77.6723 159.962C74.8692 165.565 64.8323 156.806 57.5985 130.843Z" fill="#2B3F63"/>
<path d="M48.0132 60.2921C48.0132 60.2921 48.9174 57.5301 49.7312 57.2933C50.545 57.0566 60.401 56.1096 65.8264 58.9505C68.2678 60.6078 67.9965 61.7915 67.9965 61.7915C67.9965 61.7915 51.9013 59.0295 48.0132 60.2921Z" fill="white"/>
<path d="M77.4008 114.428C77.4008 114.428 78.2146 116.085 77.7625 116.717C77.1295 117.269 58.8642 122.872 39.6947 118.848C39.333 118.848 40.1468 116.007 40.1468 116.007L77.4008 114.428Z" fill="#6060E7"/>
<path d="M39.5149 89.0962C38.9723 85.8607 37.3447 69.683 37.8873 67.3944C38.4298 65.1848 40.5095 61.1601 44.9402 59.8974C45.2115 59.8185 45.5732 59.7396 45.9349 59.6607C45.9349 59.6607 62.4821 58.7137 74.3274 63.133C74.3274 63.133 78.3964 66.0528 79.1198 80.9679C79.1198 80.9679 78.939 83.4932 78.2156 88.8595C77.5826 94.2257 78.5773 98.1715 79.4815 103.459C80.4762 108.825 82.375 114.112 75.3221 115.296C68.5404 116.401 49.823 119.242 38.8819 116.401C36.6214 114.981 39.8766 108.509 39.8766 103.459C39.8766 98.4083 39.5149 89.0962 39.5149 89.0962Z" fill="#0D51D9"/>
<path d="M65.1947 155.78C65.1947 155.78 64.8331 150.887 70.8009 149.861C76.8592 148.835 77.5826 151.282 78.8485 155.78C80.024 160.357 72.8806 200.052 72.8806 200.052C72.8806 200.052 65.0139 200.446 63.3863 199.42C63.3863 199.42 61.5778 171.879 62.7533 165.25C64.0192 158.542 65.1947 155.78 65.1947 155.78Z" fill="#2B3F63"/>
<path d="M55.9717 128.239C55.9717 128.239 61.5779 144.022 65.8277 151.677" stroke="#2A2E59" stroke-width="0.6659" stroke-miterlimit="10"/>
<path d="M67.364 154.912C67.364 154.912 70.8001 153.176 74.1457 154.912" stroke="#2A2E59" stroke-width="0.6659" stroke-miterlimit="10"/>
<path d="M66.8218 156.806C66.8218 156.806 69.6249 155.385 74.4173 158.384" stroke="#2A2E59" stroke-width="0.6659" stroke-miterlimit="10"/>
<path d="M45.7532 152.781C45.7532 152.781 47.9233 151.045 52.987 152.939" stroke="#2A2E59" stroke-width="0.6659" stroke-miterlimit="10"/>
<path d="M47.2905 154.518C47.2905 154.518 50.5457 153.097 53.5296 155.228" stroke="#2A2E59" stroke-width="0.6659" stroke-miterlimit="10"/>
<path d="M54.7957 157.358L53.5298 193.028" stroke="#2A2E59" stroke-width="0.6659" stroke-miterlimit="10"/>
<path d="M71.3433 127.37C71.3433 127.37 75.8644 129.738 77.7632 125.95" stroke="#2A2E59" stroke-width="0.6659" stroke-miterlimit="10"/>
<path d="M75.8635 127.844C75.8635 127.844 78.0337 142.285 77.4911 151.913" stroke="#2A2E59" stroke-width="0.6659" stroke-miterlimit="10"/>
<path d="M62.1199 52.8738C62.1199 52.8738 63.5666 56.0304 68.2686 55.478" stroke="#E66657" stroke-width="0.6659" stroke-miterlimit="10"/>
<path d="M68.1778 33.3817C68.1778 33.3817 70.4384 36.1437 70.6193 37.7221C70.8001 39.3793 67.7257 40.9576 67.3641 41.9835C66.9119 43.0094 67.9066 44.2721 67.4545 44.8245C67.0024 45.4558 66.9119 46.7184 66.9119 46.7184L67.0928 48.1389C67.1832 48.6913 66.7311 49.0859 66.1886 49.2437L65.8269 49.3227C65.3748 49.4016 64.8322 49.1648 64.6514 48.7702C64.1089 47.6654 63.1142 45.5347 62.21 45.3769C61.0345 45.1401 59.9494 46.8763 59.4973 47.7443C59.2261 48.2178 58.6835 49.5594 58.141 50.6642C57.6889 51.6112 56.6942 52.2425 55.6092 52.3215C54.3432 52.4004 52.8965 52.4793 52.3539 52.3215C51.3593 52.0847 46.2052 43.7986 46.1148 39.8528C45.934 35.8281 49.0988 31.8823 52.4444 30.6196C55.5187 29.2781 62.0291 28.1733 68.1778 33.3817Z" fill="#7E3636"/>
<path d="M45.0305 68.0256C45.0305 69.1305 50.4559 86.0973 49.5516 89.0961C48.7378 92.0949 46.2964 113.008 46.2964 113.008" stroke="#6060E7" stroke-width="0.6659" stroke-miterlimit="10"/>
<path d="M59.9495 27.9366C59.9495 27.9366 63.1143 28.0155 64.1994 26.6739C65.2844 25.3324 68.8109 25.0167 71.3427 27.2263C73.8746 29.436 73.7841 33.5396 71.614 35.039C71.614 35.039 74.1458 34.6444 74.5075 36.2227C74.8692 37.801 71.7044 40.2474 67.9971 40.9577C67.9971 40.9577 61.9388 39.4583 60.1304 40.4053C58.3219 41.3522 46.1149 40.3263 46.1149 40.3263C46.1149 40.3263 43.4927 38.1956 44.2161 36.3016C44.9394 34.4077 45.6628 36.3806 45.6628 36.3806C45.6628 36.3806 45.0299 33.7763 49.0084 29.9095C52.8966 26.1215 58.4124 28.2522 59.9495 27.9366Z" fill="#7E3636"/>
<path d="M119.267 84.519L127.857 84.8347C127.857 84.8347 127.586 85.5449 126.32 85.7817C124.963 86.0184 119.99 86.4919 119.99 86.4919L119.267 84.519Z" fill="#EB7754"/>
<path d="M120.351 86.0973C120.351 86.0973 123.245 85.7028 123.878 85.7817C124.511 85.8606 125.053 88.9383 125.053 88.9383L122.793 91.069C122.793 91.069 121.979 90.7534 122.793 89.5696L123.245 88.8594L119.719 87.6756L120.351 86.0973Z" fill="#FF8D68"/>
<path d="M112.033 87.8337L115.65 87.4391C115.65 87.4391 118.634 84.8349 119.267 84.5192C119.9 84.2036 122.884 88.3072 123.246 88.8596C123.246 89.2542 121.437 90.6747 119.629 90.8325C117.82 91.0692 117.187 90.5958 117.187 90.5958L113.209 91.9373L112.033 87.8337Z" fill="#FF8D68"/>
<path d="M74.3277 63.1331C74.3277 63.1331 66.1897 63.0542 66.461 71.7349C66.7322 80.4156 83.6412 94.5415 88.2528 96.1987C92.8643 97.856 112.396 93.2789 114.114 92.4108C115.832 91.5427 115.289 87.9915 112.667 87.1234L92.593 86.2554C92.5026 86.2554 79.9339 63.8433 74.3277 63.1331Z" fill="white"/>
<path d="M92.8645 87.6758C92.8645 87.6758 95.3059 89.9643 94.673 92.8842" stroke="#A6D0F4" stroke-width="0.5347" stroke-miterlimit="10"/>
<path d="M94.1306 87.2815C94.1306 87.2815 98.1996 88.3863 98.4709 92.1743" stroke="#A6D0F4" stroke-width="0.5347" stroke-miterlimit="10"/>
<path d="M73.2412 45.7715H64.9224" stroke="#505E83" stroke-width="0.5192" stroke-miterlimit="10"/>
<path d="M65.9177 46.6397C65.9177 46.6397 65.3752 44.509 63.2955 45.456C61.2158 46.4819 63.6572 51.6114 65.3752 51.2958C67.0028 50.9012 66.2794 47.4289 65.9177 46.6397Z" fill="#FF7759"/>
<path d="M48.4661 36.4593C48.4661 36.4593 54.2531 35.2756 58.4125 39.0635" stroke="#663136" stroke-width="0.5347" stroke-miterlimit="10"/>
<path d="M49.1887 35.7492C49.1887 35.7492 51.7205 33.4606 55.9704 34.4076" stroke="#663136" stroke-width="0.5347" stroke-miterlimit="10"/>
<path d="M48.6465 37.4854C48.6465 37.4854 50.4549 37.6432 51.6304 39.3793" stroke="#663136" stroke-width="0.5347" stroke-miterlimit="10"/>
<path d="M66.1887 27.384C66.1887 27.384 71.9758 28.9623 70.6194 33.6184" stroke="#663136" stroke-width="0.5347" stroke-miterlimit="10"/>
<defs>
<linearGradient id="paint0_linear_3216_55463" x1="65.1439" y1="89.4586" x2="236.989" y2="89.4586" gradientUnits="userSpaceOnUse">
<stop stop-color="white" stop-opacity="0.2"/>
<stop offset="1" stop-color="white" stop-opacity="0.7"/>
</linearGradient>
</defs>
</svg>
