<svg width="290" height="211" viewBox="0 0 290 211" fill="none" xmlns="http://www.w3.org/2000/svg">
<path d="M290 190.792H0V190.966H290V190.792Z" fill="#EBEBEB"/>
<path d="M260.942 200.13H241.744V200.304H260.942V200.13Z" fill="#EBEBEB"/>
<path d="M192.096 201.696H187.05V201.87H192.096V201.696Z" fill="#EBEBEB"/>
<path d="M241.164 194.736H230.028V194.91H241.164V194.736Z" fill="#EBEBEB"/>
<path d="M55.5062 195.722H30.4502V195.896H55.5062V195.722Z" fill="#EBEBEB"/>
<path d="M64.322 195.722H60.668V195.896H64.322V195.722Z" fill="#EBEBEB"/>
<path d="M130.616 198.158H76.2695V198.332H130.616V198.158Z" fill="#EBEBEB"/>
<path d="M137.46 164.924H25.4622C23.6643 164.924 22.1562 163.416 22.1562 161.618V4.2059C22.1562 2.4079 23.6643 0.899902 25.4622 0.899902H137.46C139.258 0.899902 140.766 2.4079 140.766 4.2059V161.618C140.766 163.416 139.316 164.924 137.46 164.924ZM25.4622 1.0159C23.7223 1.0159 22.2723 2.4079 22.2723 4.2059V161.618C22.2723 163.358 23.6643 164.808 25.4622 164.808H137.46C139.2 164.808 140.65 163.416 140.65 161.618V4.2059C140.65 2.4659 139.258 1.0159 137.46 1.0159H25.4622Z" fill="#EBEBEB"/>
<path d="M262.914 164.924H150.916C149.118 164.924 147.61 163.416 147.61 161.618V4.2059C147.61 2.4079 149.118 0.899902 150.916 0.899902H262.914C264.712 0.899902 266.22 2.4079 266.22 4.2059V161.618C266.22 163.416 264.77 164.924 262.914 164.924ZM150.916 1.0159C149.176 1.0159 147.726 2.4079 147.726 4.2059V161.618C147.726 163.358 149.118 164.808 150.916 164.808H262.914C264.654 164.808 266.104 163.416 266.104 161.618V4.2059C266.104 2.4659 264.712 1.0159 262.914 1.0159H150.916Z" fill="#EBEBEB"/>
<path d="M103.912 109.763L238.298 109.763V20.3852L103.912 20.3852V109.763Z" fill="#E6E6E6"/>
<path d="M101.84 109.763L236.226 109.763V20.3852L101.84 20.3852V109.763Z" fill="#F5F5F5"/>
<path d="M232.487 105.564L232.487 24.5959L105.583 24.5959L105.583 105.564L232.487 105.564Z" fill="white"/>
<path d="M107.118 105.538L107.118 24.5698H105.552L105.552 105.538H107.118Z" fill="#E6E6E6"/>
<path d="M103.348 85.9995L234.66 85.9995V80.3735L103.348 80.3735V85.9995Z" fill="#F5F5F5"/>
<g opacity="0.4">
<path opacity="0.4" d="M110.374 15.9797H97.6719V91.5538H110.374V15.9797Z" fill="#E6E6E6"/>
<path opacity="0.4" d="M110.383 85.5137H116.647L116.647 15.9717H110.383L110.383 85.5137Z" fill="#F5F5F5"/>
<path opacity="0.4" d="M129.34 15.98H116.638V91.554H129.34V15.98Z" fill="#E6E6E6"/>
<path opacity="0.4" d="M129.313 85.5137H135.577V15.9717H129.313V85.5137Z" fill="#F5F5F5"/>
<path opacity="0.4" d="M148.306 15.98H135.604V91.554H148.306V15.98Z" fill="#E6E6E6"/>
<path opacity="0.4" d="M148.3 85.5137H154.564V15.9717H148.3V85.5137Z" fill="#F5F5F5"/>
<path opacity="0.4" d="M167.272 15.98H154.57V91.554H167.272V15.98Z" fill="#E6E6E6"/>
<path opacity="0.4" d="M167.288 85.5137H173.552V15.9717H167.288V85.5137Z" fill="#F5F5F5"/>
<path opacity="0.4" d="M186.238 15.98H173.536V91.554H186.238V15.98Z" fill="#E6E6E6"/>
<path opacity="0.4" d="M186.275 85.5137H192.539V15.9717H186.275V85.5137Z" fill="#F5F5F5"/>
<path opacity="0.4" d="M205.262 15.98H192.56V91.554H205.262V15.98Z" fill="#E6E6E6"/>
<path opacity="0.4" d="M205.262 85.5137H211.526V15.9717H205.262V85.5137Z" fill="#F5F5F5"/>
<path opacity="0.4" d="M224.228 15.98H211.526V91.554H224.228V15.98Z" fill="#E6E6E6"/>
<path opacity="0.4" d="M224.25 85.5137H230.514V15.9717H224.25V85.5137Z" fill="#F5F5F5"/>
<path opacity="0.4" d="M243.194 15.98H230.492V91.554H243.194V15.98Z" fill="#E6E6E6"/>
</g>
<path d="M48.0087 190.791H77.7627L77.7627 129.659H48.0087L48.0087 190.791Z" fill="#EBEBEB"/>
<path d="M53.6494 190.792H48.0234V178.322H59.5654L53.6494 190.792Z" fill="#F5F5F5"/>
<path d="M217.758 190.791H247.512V129.659H217.758V190.791Z" fill="#EBEBEB"/>
<path d="M48.0368 183.152L222.675 183.152V129.676L48.0368 129.676V183.152Z" fill="#F5F5F5"/>
<path d="M216.862 168.056H165.068C164.778 168.056 164.604 167.824 164.604 167.592V133.72C164.604 133.43 164.836 133.256 165.068 133.256H174.638C174.754 133.256 174.812 133.314 174.928 133.372C176.32 134.358 177.886 135.17 179.568 135.75C181.54 136.388 183.628 136.736 185.832 136.736H196.098C200.216 136.736 204.044 135.518 207.002 133.372C207.06 133.314 207.176 133.256 207.292 133.256H216.862C217.152 133.256 217.326 133.488 217.326 133.72V167.592C217.326 167.824 217.152 168.056 216.862 168.056ZM165.59 167.128H216.398V134.242H207.466C204.392 136.504 200.332 137.722 196.098 137.722H185.832C183.57 137.722 181.366 137.374 179.278 136.678C177.538 136.098 175.914 135.286 174.464 134.242H165.532V167.128H165.59Z" fill="#E6E6E6"/>
<path d="M161.239 168.056H109.445C109.155 168.056 108.981 167.824 108.981 167.592V133.72C108.981 133.43 109.213 133.256 109.445 133.256H118.493C118.609 133.256 118.667 133.314 118.783 133.372C120.175 134.416 121.741 135.17 123.423 135.75C125.395 136.388 127.483 136.736 129.687 136.736H139.953C144.013 136.736 147.899 135.518 150.857 133.372C150.915 133.314 151.031 133.256 151.147 133.256H161.239C161.529 133.256 161.703 133.488 161.703 133.72V167.592C161.703 167.824 161.471 168.056 161.239 168.056ZM109.909 167.128H160.717V134.242H151.263C148.189 136.504 144.129 137.722 139.895 137.722H129.629C127.367 137.722 125.163 137.374 123.075 136.678C121.335 136.098 119.711 135.286 118.261 134.242H109.851V167.128H109.909Z" fill="#E6E6E6"/>
<path d="M105.617 168.056H53.8234C53.5334 168.056 53.3594 167.824 53.3594 167.592V133.72C53.3594 133.43 53.5914 133.256 53.8234 133.256H62.8714C62.9874 133.256 63.0454 133.314 63.1614 133.372C64.5534 134.358 66.1194 135.17 67.8594 135.75C69.8314 136.388 71.9194 136.736 74.1234 136.736H84.3894C88.5074 136.736 92.3354 135.518 95.2934 133.372C95.3514 133.314 95.4674 133.256 95.5834 133.256H105.675C105.965 133.256 106.139 133.488 106.139 133.72V167.592C106.081 167.824 105.849 168.056 105.617 168.056ZM54.2874 167.128H105.095V134.242H95.6994C92.6254 136.504 88.5654 137.722 84.3314 137.722H74.0654C71.8034 137.722 69.5994 137.374 67.5114 136.678C65.7714 136.098 64.1474 135.286 62.6974 134.242H54.2874V167.128Z" fill="#E6E6E6"/>
<path d="M217.036 190.792H222.662V178.322H211.12L217.036 190.792Z" fill="#F5F5F5"/>
<path d="M83.4624 119.394H78.7644C78.8224 116.146 78.7644 107.91 78.4164 89.0021C77.8364 54.7821 76.7344 52.6941 76.7344 52.6941L82.3024 69.5721C83.6364 73.5741 84.3904 77.6921 84.5644 81.8681C85.2604 95.0921 82.9404 105.59 83.4624 119.394Z" fill="#E6E6E6"/>
<path d="M87.0585 64.526C93.3225 55.072 105.792 50.084 118.552 45.444C123.54 43.646 109.504 66.266 99.2385 76.532C91.2925 84.536 83.6365 84.362 81.3165 92.25C80.9105 83.086 81.6645 72.646 87.0585 64.526Z" fill="#E6E6E6"/>
<path d="M80.3301 129.66C85.8401 129.66 90.3641 125.368 90.7121 119.858L91.6401 110.462H69.0781L70.0061 119.858C70.2961 125.368 74.8201 129.66 80.3301 129.66Z" fill="#F0F0F0"/>
<path d="M67.57 110.52H93.09L93.844 107.214H66.874L67.57 110.52Z" fill="#F0F0F0"/>
<path d="M68.846 116.262H91.814L92.51 112.898H68.208L68.846 116.262Z" fill="#F0F0F0"/>
<path d="M235.074 153.614H54.9258V174.03H235.074V153.614Z" fill="#0D51D9"/>
<path opacity="0.3" d="M235.074 153.614H196.446V174.03H235.074V153.614Z" fill="#96B9FF"/>
<path d="M74.8198 174.03H54.9258V210.396H74.8198V174.03Z" fill="#407BFF"/>
<path opacity="0.3" d="M54.9258 174.03V176.06L69.0198 180.294V210.396H74.8198V174.03H54.9258Z" fill="black"/>
<path d="M235.074 174.03H215.18V210.396H235.074V174.03Z" fill="#407BFF"/>
<path opacity="0.2" d="M235.074 174.03H215.18V210.396H235.074V174.03Z" fill="black"/>
<path opacity="0.3" d="M215.18 174.03V176.06L229.274 180.294V210.396H235.074V174.03H215.18Z" fill="black"/>
<path d="M196.446 174.03H176.552V210.396H196.446V174.03Z" fill="#407BFF"/>
<path opacity="0.3" d="M176.552 174.03V176.06L190.646 180.294V210.396H196.446V174.03H176.552Z" fill="black"/>
<path d="M113.448 174.03H93.5537V210.396H113.448V174.03Z" fill="#407BFF"/>
<path opacity="0.2" d="M113.448 174.03H93.5537V210.396H113.448V174.03Z" fill="black"/>
<path opacity="0.3" d="M93.5537 174.03V176.06L107.648 180.294V210.396H113.448V174.03H93.5537Z" fill="black"/>
<path d="M210.25 149.612H100.108C98.6585 149.612 97.4984 148.394 97.6144 146.944L102.138 74.9658C102.254 73.5158 103.53 72.2979 104.98 72.2979H215.122C216.572 72.2979 217.732 73.5158 217.616 74.9658L213.092 146.944C212.976 148.394 211.7 149.612 210.25 149.612Z" fill="#263238"/>
<path opacity="0.6" d="M210.25 149.612H100.108C98.6585 149.612 97.4984 148.394 97.6144 146.944L102.138 74.9658C102.254 73.5158 103.53 72.2979 104.98 72.2979H215.122C216.572 72.2979 217.732 73.5158 217.616 74.9658L213.092 146.944C212.976 148.394 211.7 149.612 210.25 149.612Z" fill="black"/>
<path d="M209.438 149.612H99.296C97.846 149.612 96.6859 148.394 96.8019 146.944L101.326 74.9658C101.442 73.5158 102.718 72.2979 104.168 72.2979H214.31C215.76 72.2979 216.92 73.5158 216.804 74.9658L212.28 146.944C212.164 148.394 210.888 149.612 209.438 149.612Z" fill="#0D51D9"/>
<path d="M209.264 150.54H78.2422C76.9662 150.54 75.8642 151.294 75.3422 152.338C75.0522 152.918 75.5162 153.672 76.1542 153.672H211.236C211.932 153.672 212.396 152.976 212.048 152.338C211.642 151.294 210.54 150.54 209.264 150.54Z" fill="#263238"/>
<path opacity="0.6" d="M209.265 150.54H190.647C189.371 150.54 188.269 151.294 187.747 152.338C187.457 152.918 187.921 153.672 188.559 153.672H211.237C211.933 153.672 212.397 152.976 212.049 152.338C211.643 151.294 210.541 150.54 209.265 150.54Z" fill="black"/>
<path d="M197.722 152.802H192.908C192.676 152.802 192.502 152.628 192.502 152.396C192.502 152.164 192.676 151.99 192.908 151.99H197.722C197.954 151.99 198.128 152.164 198.128 152.396C198.128 152.628 197.954 152.802 197.722 152.802Z" fill="#407BFF"/>
<path opacity="0.7" d="M135.836 152.802H131.022C130.79 152.802 130.616 152.628 130.616 152.396C130.616 152.164 130.79 151.99 131.022 151.99H135.836C136.068 151.99 136.242 152.164 136.242 152.396C136.242 152.628 136.068 152.802 135.836 152.802Z" fill="white"/>
<path d="M202.71 152.802H199.578C199.404 152.802 199.23 152.628 199.23 152.454V152.28C199.23 152.106 199.404 151.932 199.578 151.932H202.71C202.884 151.932 203.058 152.106 203.058 152.28V152.454C203.058 152.628 202.884 152.802 202.71 152.802Z" fill="#407BFF"/>
<path d="M99.2959 144.334L103.53 77.5757C103.588 76.9957 104.052 76.5317 104.632 76.5317H213.382C213.962 76.5317 214.368 76.9957 214.368 77.5757L210.134 144.334C210.076 144.914 209.612 145.378 209.032 145.378H100.224C99.7019 145.378 99.2379 144.914 99.2959 144.334Z" fill="white"/>
<path opacity="0.1" d="M161.124 74.502L124.932 143.348H98.194C97.614 143.348 97.208 142.884 97.208 142.304L101.442 75.546C101.5 74.966 101.964 74.502 102.544 74.502H161.124Z" fill="#407BFF"/>
<path opacity="0.1" d="M192.85 74.502L156.658 143.348H148.19L184.44 74.502H192.85Z" fill="#407BFF"/>
<path opacity="0.1" d="M212.222 75.546L207.988 142.304C207.93 142.884 207.466 143.348 206.886 143.348H165.706L201.898 74.502H211.178C211.874 74.502 212.28 74.966 212.222 75.546Z" fill="#407BFF"/>
<path opacity="0.4" d="M159.848 74.5599C159.848 74.9659 159.442 75.3139 159.036 75.3139C158.63 75.3139 158.282 74.9659 158.282 74.5599C158.282 74.1539 158.688 73.8059 159.094 73.8059C159.558 73.7479 159.906 74.0959 159.848 74.5599Z" fill="white"/>
<path d="M141.868 58.552C138.678 62.206 136.88 73.284 139.2 78.794C141.578 84.246 114.318 89.756 136.764 98.63C159.268 107.504 177.248 97.2379 170.752 88.0159C164.256 78.794 171.448 63.482 163.908 59.596C157.122 56.058 148.248 51.244 141.868 58.552Z" fill="#263238"/>
<path d="M135.198 103.386C133.98 107.446 132.762 111.506 131.428 115.566C130.094 119.626 128.76 123.628 127.31 127.688L126.788 129.196L126.498 129.95L126.44 130.182L126.324 130.53C126.266 130.762 126.092 130.994 125.976 131.226C125.454 132.154 124.584 133.14 123.54 133.72C122.496 134.3 121.394 134.474 120.524 134.532C118.726 134.532 117.392 134.126 116.174 133.662C114.956 133.198 113.912 132.618 112.926 132.038C108.924 129.66 105.676 126.818 102.544 123.628L105.038 120.67C105.908 121.192 106.778 121.772 107.648 122.294C108.518 122.816 109.446 123.338 110.316 123.86C112.114 124.904 113.912 125.832 115.652 126.586C116.522 126.992 117.392 127.282 118.204 127.514C119.016 127.746 119.77 127.804 120.118 127.746C120.292 127.688 120.234 127.63 120.118 127.688C120.002 127.746 119.828 127.862 119.828 127.862C119.828 127.862 119.828 127.862 119.828 127.804C119.828 127.804 119.828 127.804 119.828 127.746L119.886 127.572L120.118 126.818L120.582 125.31L124.12 113.13C125.338 109.07 126.556 105.01 127.832 100.95L135.198 103.386Z" fill="#B65B52"/>
<path d="M104.748 120.554L98.0195 118.06L100.688 125.194C100.688 125.194 105.444 125.89 107.3 123.396L105.792 121.366C105.56 120.96 105.154 120.728 104.748 120.554Z" fill="#B55B52"/>
<path d="M92.0459 120.148L94.6559 125.948L100.746 125.194L98.0199 118.06L92.0459 120.148Z" fill="#B55B52"/>
<path d="M130.268 92.888C127.194 93.7 125.048 106.344 125.048 106.344L133.516 112.144C133.516 112.144 141.636 99.326 139.316 95.962C136.822 92.366 134.734 91.728 130.268 92.888Z" fill="#0D51D9"/>
<path opacity="0.5" d="M130.268 92.888C127.194 93.7 125.048 106.344 125.048 106.344L133.516 112.144C133.516 112.144 141.636 99.326 139.316 95.962C136.822 92.366 134.734 91.728 130.268 92.888Z" fill="white"/>
<path opacity="0.2" d="M129.978 97.47L136.59 98.978L137.228 105.416C135.488 108.954 133.516 112.086 133.516 112.086L128.354 108.606C128.586 105.648 129.166 99.5 129.978 97.47Z" fill="black"/>
<path d="M130.268 92.888C130.268 92.888 126.73 94.164 133.864 138.012C145.928 138.012 158.398 138.012 164.256 138.012C163.734 125.658 163.734 118.002 169.65 92.656C169.65 92.656 163.27 91.264 156.774 90.974C151.67 90.742 147.494 90.568 142.97 90.974C136.996 91.496 130.268 92.888 130.268 92.888Z" fill="#407BFF"/>
<path opacity="0.5" d="M130.268 92.888C130.268 92.888 126.73 94.164 133.864 138.012C145.928 138.012 158.398 138.012 164.256 138.012C163.734 125.658 163.734 118.002 169.65 92.656C169.65 92.656 163.27 91.264 156.774 90.974C151.67 90.742 147.494 90.568 142.97 90.974C136.996 91.496 130.268 92.888 130.268 92.888Z" fill="white"/>
<path opacity="0.2" d="M162.458 104.43L166.402 107.794C165.59 112.202 165.01 115.914 164.662 119.22C163.85 115.856 161.994 106.924 162.458 104.43Z" fill="black"/>
<path d="M155.324 75.4299C154.454 79.8959 153.584 88.0159 156.716 90.9739C156.716 90.9739 153.816 97.6439 146.102 97.6439C138.388 97.6439 142.912 90.9739 142.912 90.9739C147.842 89.8139 147.726 86.1019 146.856 82.6799L155.324 75.4299Z" fill="#B55B52"/>
<path d="M155.672 89.292C154.918 90.8 152.598 94.164 145.986 95.382C145.812 95.44 145.638 95.382 145.464 95.266C144.246 94.396 143.492 92.598 144.014 90.51C144.188 89.93 143.608 89.408 143.028 89.64C142.39 89.93 141.81 90.22 141.578 90.394C141.462 90.452 141.404 90.568 141.346 90.684C140.882 91.612 138.91 96.02 144.826 98.746C144.942 98.804 145 98.804 145.116 98.804C148.596 98.862 154.686 98.166 158.514 91.264C158.63 91.032 158.63 90.684 158.456 90.452C158.05 89.93 157.238 89.35 156.658 89.002C156.368 88.77 155.904 88.886 155.672 89.292Z" fill="#FAFAFA"/>
<path d="M157.296 107.562L149.466 107.33C149.118 107.33 148.886 107.04 148.886 106.692L148.944 105.706C148.944 105.358 149.292 105.068 149.64 105.126L157.47 105.358C157.818 105.358 158.05 105.648 158.05 105.996L157.992 106.982C157.992 107.272 157.644 107.562 157.296 107.562Z" fill="#FAFAFA"/>
<path opacity="0.2" d="M151.843 78.3879L146.855 82.6799C147.087 83.4919 147.203 84.3039 147.261 85.1159C149.175 84.8259 151.727 82.7959 151.959 80.7659C152.075 79.7799 152.017 78.8519 151.843 78.3879Z" fill="black"/>
<path d="M161.182 67.0201C159.79 74.3281 159.326 77.4021 155.15 80.7081C148.828 85.6381 140.186 82.3321 139.374 74.7921C138.678 68.0061 141.056 57.2181 148.654 55.1881C156.078 53.2741 162.574 59.7701 161.182 67.0201Z" fill="#B55B52"/>
<path d="M157.006 61.6259C156.078 66.2079 155.904 72.2399 160.08 72.2399C164.256 72.2399 167.562 65.1059 163.908 59.5379C160.37 53.9699 157.528 58.9579 157.006 61.6259Z" fill="#263238"/>
<path d="M164.256 62.206C164.256 67.194 157.992 64.7 155.208 62.554C152.424 60.408 152.308 60.64 147.204 60.64C142.1 60.64 141.056 60.292 139.548 57.856C138.04 55.42 138.156 53.796 141.578 54.318C145 54.84 142.1 51.36 144.652 49.446C147.204 47.532 150.22 47.996 153.7 52.404C157.18 56.754 164.256 53.564 164.256 62.206Z" fill="#263238"/>
<path d="M162.362 73.4729C163.02 71.229 162.382 69.0666 160.937 68.6431C159.493 68.2196 157.788 69.6954 157.13 71.9393C156.473 74.1832 157.111 76.3455 158.555 76.769C160 77.1925 161.704 75.7168 162.362 73.4729Z" fill="white"/>
<path d="M150.8 79.142C149.466 79.142 148.132 78.852 146.914 78.33C146.798 78.272 146.74 78.156 146.798 78.04C146.856 77.924 146.972 77.866 147.088 77.924C149.466 78.91 152.076 78.968 154.454 77.982C156.774 76.996 158.572 75.198 159.558 72.878C161.298 67.89 163.096 61.684 161.008 57.798C160.196 56.29 158.862 55.304 157.006 54.84C156.89 54.782 156.832 54.666 156.832 54.55C156.89 54.434 157.006 54.376 157.122 54.376C159.094 54.898 160.544 55.942 161.414 57.566C163.56 61.568 161.762 67.89 159.964 72.994C158.978 75.43 157.064 77.286 154.628 78.33C153.352 78.852 152.076 79.142 150.8 79.142Z" fill="white"/>
<path opacity="0.6" d="M162.226 73.5159C161.704 75.2559 160.544 76.4739 159.558 76.1839C158.63 75.8939 158.282 74.2699 158.804 72.4719C159.326 70.6739 160.486 69.5139 161.472 69.8039C162.342 70.0939 162.69 71.7759 162.226 73.5159Z" fill="#407BFF"/>
<path d="M147.204 78.9099L144.942 78.4459C144.536 78.3879 144.304 77.9819 144.362 77.5759V77.4599C144.42 77.0539 144.826 76.8219 145.232 76.8799L147.494 77.3439C147.9 77.4019 148.132 77.8079 148.074 78.2139V78.3299C147.958 78.7359 147.61 79.0259 147.204 78.9099Z" fill="white"/>
<path d="M144.536 67.5999C144.536 67.5999 143.202 70.0359 141.926 71.1379C142.622 71.9498 144.014 71.8338 144.014 71.8338L144.536 67.5999Z" fill="#A02724"/>
<path d="M145.812 74.966C147.9 75.256 149.466 73.922 149.524 73.864C149.582 73.806 149.582 73.748 149.524 73.69C149.466 73.632 149.408 73.632 149.35 73.69C149.35 73.69 147.784 74.966 145.87 74.734C145.812 74.734 145.754 74.792 145.754 74.85C145.754 74.908 145.754 74.966 145.812 74.966Z" fill="#263238"/>
<path d="M152.423 64.758C152.481 64.816 152.597 64.758 152.655 64.758C152.771 64.7 152.771 64.526 152.713 64.468C151.727 62.844 150.161 62.844 150.045 62.844C149.929 62.844 149.813 62.96 149.813 63.076C149.813 63.192 149.929 63.308 150.045 63.308C150.103 63.308 151.437 63.366 152.307 64.758C152.365 64.7 152.365 64.758 152.423 64.758Z" fill="#263238"/>
<path d="M149.118 67.7161C149.002 68.2961 148.596 68.7601 148.248 68.7021C147.842 68.6441 147.61 68.1221 147.726 67.4841C147.842 66.9041 148.248 66.4401 148.596 66.4981C149.002 66.6141 149.234 67.1361 149.118 67.7161Z" fill="#263238"/>
<path d="M142.332 66.5559C142.216 67.1359 141.81 67.5999 141.462 67.5419C141.056 67.4839 140.824 66.9619 140.94 66.3239C141.056 65.7439 141.462 65.2799 141.81 65.3379C142.216 65.4539 142.448 65.9759 142.332 66.5559Z" fill="#263238"/>
<path d="M141.984 65.4539L140.592 64.8159C140.65 64.7579 141.172 66.0339 141.984 65.4539Z" fill="#263238"/>
<path d="M148.77 66.614L147.378 65.976C147.378 65.918 147.958 67.194 148.77 66.614Z" fill="#263238"/>
<path d="M140.07 62.5541C140.128 62.6121 140.244 62.5541 140.302 62.5541C141.578 61.5681 142.854 61.9741 142.912 61.9741C143.028 62.0321 143.144 61.9741 143.202 61.8581C143.26 61.7421 143.202 61.6261 143.086 61.5681C143.028 61.5681 141.52 61.046 140.012 62.2061C139.896 62.2641 139.896 62.4381 139.954 62.4961C140.012 62.4961 140.012 62.4961 140.07 62.5541Z" fill="#263238"/>
<path d="M132.704 145.378C132.704 145.378 132.646 141.202 133.864 137.954C136.532 137.954 164.256 137.954 164.256 137.954C164.256 137.954 166.982 142.362 167.678 145.378C164.198 145.378 132.704 145.378 132.704 145.378Z" fill="#407BFF"/>
<path d="M164.661 136.214L164.893 138.94C165.009 139.172 164.777 139.346 164.371 139.346H133.631C133.341 139.346 133.109 139.23 133.109 139.056L132.819 136.33C132.819 136.156 133.051 135.982 133.341 135.982H164.081C164.371 135.982 164.603 136.098 164.661 136.214Z" fill="#407BFF"/>
<path opacity="0.3" d="M164.661 136.214L164.893 138.94C165.009 139.172 164.777 139.346 164.371 139.346H133.631C133.341 139.346 133.109 139.23 133.109 139.056L132.819 136.33C132.819 136.156 133.051 135.982 133.341 135.982H164.081C164.371 135.982 164.603 136.098 164.661 136.214Z" fill="#FAFAFA"/>
<path d="M160.544 139.636H161.356C161.53 139.636 161.646 139.578 161.646 139.462L161.24 135.924C161.24 135.808 161.066 135.75 160.95 135.75H160.08C159.906 135.75 159.79 135.808 159.79 135.924L160.196 139.462C160.196 139.578 160.37 139.636 160.544 139.636Z" fill="#407BFF"/>
<path d="M136.009 139.636H136.821C136.995 139.636 137.111 139.578 137.111 139.462L136.705 135.924C136.705 135.808 136.531 135.75 136.415 135.75H135.603C135.429 135.75 135.313 135.808 135.313 135.924L135.719 139.462C135.661 139.578 135.835 139.636 136.009 139.636Z" fill="#407BFF"/>
<path d="M148.248 139.636H149.06C149.234 139.636 149.35 139.578 149.35 139.462L148.944 135.924C148.944 135.808 148.77 135.75 148.654 135.75H147.842C147.668 135.75 147.552 135.808 147.552 135.924L147.958 139.462C147.958 139.578 148.074 139.636 148.248 139.636Z" fill="#407BFF"/>
<path d="M172.202 101.24C173.536 105.59 174.812 109.94 176.03 114.29L177.886 120.844L178.814 124.092L179.046 124.904L179.162 125.31V125.426L179.046 125.31C178.988 125.194 178.872 125.02 178.524 124.788C178.234 124.556 177.596 124.266 176.958 124.266C176.378 124.266 175.914 124.382 175.74 124.498C175.334 124.73 175.392 124.788 175.392 124.73C175.45 124.672 175.566 124.556 175.682 124.44C175.914 124.15 176.204 123.744 176.436 123.338C176.958 122.526 177.48 121.54 177.944 120.612C178.93 118.698 179.8 116.668 180.728 114.58C181.598 112.55 182.468 110.462 183.338 108.374C184.208 106.286 185.02 104.198 185.89 102.11L189.602 103.212C188.616 107.736 187.514 112.202 186.122 116.61C185.426 118.814 184.672 121.018 183.802 123.28C183.338 124.382 182.874 125.484 182.294 126.644C182.004 127.224 181.656 127.804 181.25 128.442C181.018 128.79 180.786 129.08 180.438 129.486C180.09 129.834 179.684 130.298 178.756 130.762C178.292 130.994 177.596 131.226 176.726 131.168C175.856 131.168 174.928 130.762 174.406 130.298C173.826 129.892 173.536 129.486 173.304 129.138C173.072 128.79 172.956 128.5 172.84 128.268C172.782 128.152 172.724 127.978 172.666 127.92L172.55 127.63L172.376 127.224L172.086 126.412C171.68 125.31 171.274 124.266 170.926 123.164C170.172 121.018 169.418 118.814 168.722 116.668C167.33 112.318 165.996 107.968 164.72 103.56L172.202 101.24Z" fill="#B65B52"/>
<path d="M169.592 92.6561C172.608 93.5841 177.306 105.532 177.306 105.532L165.474 114C165.474 114 160.138 103.792 161.472 99.8481C162.806 95.7301 166.112 91.6121 169.592 92.6561Z" fill="#0D51D9"/>
<path opacity="0.5" d="M169.592 92.6561C172.608 93.5841 177.306 105.532 177.306 105.532L165.474 114C165.474 114 160.138 103.792 161.472 99.8481C162.806 95.7301 166.112 91.6121 169.592 92.6561Z" fill="white"/>
<path d="M186.006 103.618L184.382 96.4841L191.11 100.022C191.11 100.022 191.168 104.836 188.5 106.344L186.006 103.618Z" fill="#B55B52"/>
<path d="M187.224 90.8L191.516 93.8161L191.11 100.022L184.382 96.4841L187.224 90.8Z" fill="#B55B52"/>
<path d="M66.6997 54.8977H113.68C117.508 54.8977 120.466 58.0297 120.234 61.8577L118.958 83.1437C118.726 86.9717 115.42 90.1037 111.592 90.1037H106.14L108.344 97.4117L97.7297 90.1037H64.6117C60.7837 90.1037 57.8257 86.9717 58.0577 83.1437L59.3337 61.8577C59.5657 58.0297 62.8717 54.8977 66.6997 54.8977Z" fill="#0D51D9"/>
<path d="M109.388 66.0337H69.6576C68.9616 66.0337 68.3816 65.4537 68.4396 64.6997C68.4976 64.0037 69.1356 63.3657 69.8316 63.3657H109.562C110.258 63.3657 110.838 63.9457 110.78 64.6997C110.722 65.4537 110.084 66.0337 109.388 66.0337Z" fill="white"/>
<path d="M85.8391 73.8057H69.1351C68.4391 73.8057 67.8591 73.2257 67.9171 72.4717C67.9751 71.7757 68.6131 71.1377 69.3091 71.1377H86.0131C86.7091 71.1377 87.2891 71.7177 87.2311 72.4717C87.2311 73.2257 86.5931 73.8057 85.8391 73.8057Z" fill="white"/>
<path d="M100.107 81.5777H68.6712C67.9752 81.5777 67.3952 80.9977 67.4532 80.2437C67.5112 79.5477 68.1492 78.9097 68.8452 78.9097H100.281C100.977 78.9097 101.557 79.4897 101.499 80.2437C101.499 80.9397 100.861 81.5777 100.107 81.5777Z" fill="white"/>
<path d="M98.0768 73.8057H91.5228C90.8268 73.8057 90.2468 73.2257 90.3048 72.4717C90.3628 71.7757 91.0008 71.1377 91.6968 71.1377H98.2508C98.9468 71.1377 99.5268 71.7177 99.4688 72.4717C99.4108 73.2257 98.7728 73.8057 98.0768 73.8057Z" fill="white"/>
<path d="M132.123 16.6758H106.487C103.529 16.6758 100.919 19.1118 100.745 22.0698L99.7594 38.5998C99.5854 41.5578 101.847 43.9938 104.863 43.9938H109.097L106.661 49.6778L115.651 43.9938H130.499C133.457 43.9938 136.067 41.5578 136.241 38.5998L137.227 22.0698C137.401 19.1118 135.081 16.6758 132.123 16.6758Z" fill="#0D51D9"/>
<g opacity="0.5">
<path opacity="0.5" d="M132.123 16.6758H106.487C103.529 16.6758 100.919 19.1118 100.745 22.0698L99.7594 38.5998C99.5854 41.5578 101.847 43.9938 104.863 43.9938H109.097L106.661 49.6778L115.651 43.9938H130.499C133.457 43.9938 136.067 41.5578 136.241 38.5998L137.227 22.0698C137.401 19.1118 135.081 16.6758 132.123 16.6758Z" fill="#0D51D9"/>
</g>
<path d="M119.769 33.0898C119.595 33.8438 118.899 34.3658 118.145 34.3658H116.637C116.637 33.9598 116.695 33.6698 116.695 33.5538C116.753 32.5678 116.985 31.8138 117.333 31.1758C117.681 30.5378 118.377 29.8418 119.363 29.0878C120.349 28.3338 120.987 27.8118 121.161 27.5218C121.451 27.1158 121.625 26.7098 121.683 26.2458C121.741 25.6078 121.509 25.0278 120.987 24.6218C120.523 24.1578 119.827 23.9258 118.957 23.9258C118.145 23.9258 117.391 24.1578 116.811 24.6218C116.463 24.9118 116.173 25.2598 115.941 25.7238C115.593 26.3618 114.955 26.7678 114.259 26.6518C113.215 26.5358 112.635 25.3758 113.215 24.3898C113.563 23.8098 113.969 23.2878 114.549 22.8238C115.709 21.8378 117.217 21.3738 119.015 21.3738C120.929 21.3738 122.379 21.8958 123.423 22.8818C124.467 23.8678 124.989 25.0278 124.873 26.3618C124.815 27.1158 124.583 27.7538 124.119 28.4498C123.655 29.0878 122.727 29.9578 121.335 31.1178C120.581 31.6978 120.117 32.1618 119.943 32.5098C119.885 32.6258 119.827 32.7998 119.769 33.0898ZM116.463 37.2078V37.0338C116.521 36.1638 117.275 35.4678 118.145 35.4678H118.319C119.189 35.4678 119.827 36.1638 119.769 37.0338V37.2078C119.711 38.0778 118.957 38.7738 118.087 38.7738H117.913C117.043 38.7738 116.405 38.0778 116.463 37.2078Z" fill="white"/>
</svg>
