<?xml version="1.0" encoding="utf-8"?>
<!-- Generator: Adobe Illustrator 25.2.1, SVG Export Plug-In . SVG Version: 6.00 Build 0)  -->
<svg version="1.1" id="Layer_1" xmlns="http://www.w3.org/2000/svg" xmlns:xlink="http://www.w3.org/1999/xlink" x="0px" y="0px"
	 width="400px" height="438px" viewBox="0 0 400 438" style="enable-background:new 0 0 400 438;" xml:space="preserve">
<style type="text/css">
	.st0{fill:#EBEBEB;}
	.st1{fill:#E6E6E6;}
	.st2{fill:#F0F0F0;}
	.st3{fill:#F5F5F5;}
	.st4{fill:#FFFFFF;}
	.st5{fill:#FAFAFA;}
	.st6{fill:#E0E0E0;}
	.st7{fill:#FFB573;}
	.st8{fill:#263238;}
	.st9{fill:#407BFF;}
	.st10{opacity:0.2;enable-background:new    ;}
	.st11{fill:#ED893E;}
</style>
<g>
	<path class="st0" d="M400,411H1.1v0.2h399V411z"/>
	<path class="st0" d="M69.3,418.6H42.9v0.2h26.4V418.6z"/>
	<path class="st0" d="M144.6,416.4H117v0.2h27.5V416.4z"/>
	<path class="st0" d="M106,422.4H61.8v0.2H106V422.4z"/>
	<path class="st0" d="M359.2,423.1h-34.5v0.2h34.5V423.1z"/>
	<path class="st0" d="M314.9,418.2h-18.3v0.2h18.3V418.2z"/>
	<path class="st0" d="M231.9,421.4h-74.8v0.2h74.8V421.4z"/>
	<path class="st0" d="M190.2,375.4H36.1c-1.2,0-2.4-0.5-3.2-1.3c-0.9-0.9-1.3-2-1.3-3.2V154.2c0-1.2,0.5-2.3,1.3-3.2s2-1.3,3.2-1.3
		h154.1c1.2,0,2.4,0.5,3.2,1.3c0.9,0.9,1.3,2,1.3,3.2v216.5c0,1.2-0.5,2.4-1.3,3.2C192.5,374.9,191.4,375.4,190.2,375.4z
		 M36.1,149.9c-1.2,0-2.3,0.5-3.1,1.3c-0.8,0.8-1.3,1.9-1.3,3.1v216.6c0,1.2,0.5,2.3,1.3,3.1c0.8,0.8,1.9,1.3,3.1,1.3h154.1
		c1.2,0,2.3-0.5,3.1-1.3c0.8-0.8,1.3-1.9,1.3-3.1V154.2c0-1.2-0.5-2.3-1.3-3.1c-0.8-0.8-1.9-1.3-3.1-1.3H36.1z"/>
	<path class="st0" d="M362.8,375.4H208.7c-1.2,0-2.4-0.5-3.2-1.3c-0.9-0.9-1.3-2-1.3-3.2V154.2c0-1.2,0.5-2.3,1.3-3.2
		c0.9-0.8,2-1.3,3.2-1.3h154.1c1.2,0,2.3,0.5,3.2,1.3c0.9,0.8,1.3,2,1.3,3.2v216.6c0,1.2-0.5,2.4-1.3,3.2
		C365.1,374.9,364,375.4,362.8,375.4z M208.7,149.9c-1.2,0-2.3,0.5-3.1,1.3c-0.8,0.8-1.3,1.9-1.3,3.1v216.6c0,1.2,0.5,2.3,1.3,3.1
		c0.8,0.8,1.9,1.3,3.1,1.3h154.1c1.2,0,2.3-0.5,3.1-1.3c0.8-0.8,1.3-1.9,1.3-3.1V154.2c0-1.2-0.5-2.3-1.3-3.1
		c-0.8-0.8-1.9-1.3-3.1-1.3H208.7z"/>
	<path class="st1" d="M106.6,357.9h12.1v-47h-12.1V357.9z"/>
	<path class="st2" d="M73.7,357.9H114l6.1-55H79.8L73.7,357.9z"/>
	<path class="st3" d="M69.3,357.9h41.6l6.1-55H75.4L69.3,357.9z"/>
	<path class="st4" d="M107.9,353.5l5.1-46.4H78.4l-5.1,46.4H107.9z"/>
	<path class="st3" d="M100.8,342.3l0.2-1.9c1.3-11.6-6-22-15.4-22l-0.2,1.9C84.1,331.9,91.4,342.3,100.8,342.3z"/>
	<path class="st1" d="M87,266.1h238.6v-86.5H87V266.1z"/>
	<path class="st2" d="M82.7,266.1h240.9v-86.5H82.7V266.1z"/>
	<path class="st1" d="M87,274.2h238.6v-8.1H87V274.2z"/>
	<path class="st2" d="M75.4,274.2h240.9v-8.1H75.4V274.2z"/>
	<path class="st5" d="M317.5,260v-74.4H88.8V260H317.5z"/>
	<path class="st4" d="M293.1,260l-29.7-74.4h-26.1L267,260H293.1z"/>
	<path class="st4" d="M164.2,260l-29.7-74.4h-26.1l29.7,74.4H164.2z"/>
	<path class="st4" d="M261.4,260l-29.7-74.4h-10.2l29.7,74.4H261.4z"/>
	<path class="st1" d="M89.5,260v-74.4h-0.8V260H89.5z"/>
	<path class="st1" d="M46.8,411h35.8v-53.1H46.8V411z"/>
	<path class="st2" d="M50.4,411h-3.6v-10.2h7.4L50.4,411z"/>
	<path class="st1" d="M147.1,411h35.8v-53.1h-35.8V411z"/>
	<path class="st2" d="M46.8,404.7h103.4v-46.8H46.8V404.7z"/>
	<path class="st2" d="M146.7,411h3.6v-10.2h-7.4L146.7,411z"/>
	<path class="st1" d="M49.6,379.7h97.8v-18.9H49.6V379.7z"/>
	<path class="st2" d="M92,373.1h13c2.8,0,5.6-0.6,8.2-1.7c2.6-1.1,4.9-2.7,6.8-4.8H77c1.9,2,4.2,3.7,6.8,4.8
		C86.4,372.6,89.2,373.1,92,373.1z"/>
	<path class="st1" d="M49.6,401.6h97.8v-18.9H49.6V401.6z"/>
	<path class="st2" d="M92,395.1h13c2.8,0,5.6-0.6,8.2-1.7c2.6-1.1,4.9-2.7,6.8-4.8H77c1.9,2,4.2,3.7,6.8,4.8
		C86.4,394.5,89.2,395.1,92,395.1z"/>
	<path class="st2" d="M276.3,335.7c0-0.2-0.1-0.3-0.3-0.4c-0.1-0.1-0.3-0.2-0.5-0.2h-28.7c-0.2,0-0.3,0.1-0.5,0.2
		c-0.1,0.1-0.2,0.3-0.3,0.4L235.9,411h1.5l10-74.3h27.5l10,74.3h1.5L276.3,335.7z"/>
	<path class="st2" d="M331.9,335.7c0-0.2-0.1-0.3-0.3-0.4c-0.1-0.1-0.3-0.2-0.5-0.2h-28.7c-0.2,0-0.3,0.1-0.5,0.2
		c-0.1,0.1-0.2,0.3-0.3,0.4L291.5,411h1.5l10-74.3h27.5l10,74.3h1.5L331.9,335.7z"/>
	<path class="st6" d="M332.7,329.4h-90.4c-4.3,0-7.8,2.1-7.8,4.6v0.2c0,0.9,1.3,1.7,2.8,1.7h100.3c1.6,0,2.9-0.8,2.9-1.7V334
		C340.6,331.5,337.1,329.4,332.7,329.4z"/>
	<path class="st1" d="M338.3,292.2h-59.8l-8.7,35.3h59.8L338.3,292.2z"/>
	<path class="st1" d="M329.6,327.4l-0.2,1.9h-59.8l0.2-1.9H329.6z"/>
	<path class="st2" d="M336.4,292.2h-59.8l-8.7,35.3h59.8L336.4,292.2z"/>
	<path class="st4" d="M326.5,325.8l7.9-32.1h-56.4l-7.9,32.1H326.5z"/>
	<path class="st2" d="M312.2,327.4l-0.2,1.9h-65.8l0.2-1.9H312.2z"/>
	<path class="st1" d="M143.7,355.7h0.9c0-1.9,0-6.7,0.1-17.8c0.2-20.1,0.5-21.3,0.5-21.3l-2.2,9.3
		C141.6,336.1,143.4,346.4,143.7,355.7z"/>
	<path class="st1" d="M141.9,324.5c-3.2-3.8-9.9-4.9-16.9-5.8c-2.7-0.4,7.2,5.8,12,10.3c3.7,3.4,6.1,4.4,7.2,7.8
		C144.7,332.4,144.6,327.7,141.9,324.5z"/>
	<path class="st1" d="M146.1,331.2c3.2-3.8,9.9-4.9,16.9-5.8c2.7-0.4-7.2,5.8-12,10.3c-3.7,3.4-6.1,4.4-7.2,7.8
		C143.3,339.2,143.4,334.5,146.1,331.2z"/>
	<path class="st1" d="M144.7,315.7c2.4-4.5,8.4-8.8,15.1-10.4c2.6-0.6-6.1,8.3-9.4,14.1c-2.6,4.5-6,9.8-6.5,13.6
		C143,325.5,142.4,320.2,144.7,315.7z"/>
	<path class="st2" d="M144.4,357.9c-2.8,0-5.2-1.4-5.3-3.2l-0.5-3.1h11.6l-0.5,3.1C149.6,356.5,147.3,357.9,144.4,357.9z"/>
	<path class="st2" d="M151,352.7h-13.1l-0.4-3.5h13.9L151,352.7z"/>
	<path class="st7" d="M249.4,425l-6.1-1.5l1.8-14.4l6.1,1.5L249.4,425z"/>
	<path class="st7" d="M302.3,431.6H296l-4.9-14.5h6.2L302.3,431.6z"/>
	<path class="st8" d="M295.2,430.9h7.6c0.1,0,0.2,0,0.3,0.1c0.1,0.1,0.2,0.2,0.2,0.3l1.2,5.6c0,0.1,0,0.3,0,0.4
		c0,0.1-0.1,0.3-0.2,0.4c-0.1,0.1-0.2,0.2-0.3,0.2c-0.1,0.1-0.3,0.1-0.4,0.1c-2.4,0-4.2-0.2-7.3-0.2c-1.9,0-7.6,0.2-10.2,0.2
		c-2.6,0-3-2.6-1.9-2.8c4.8-1,8.4-2.5,10-3.9C294.5,431,294.8,430.9,295.2,430.9z"/>
	<path class="st8" d="M243.6,422.8l6.6,1.6c0.1,0,0.2,0.1,0.3,0.2c0.1,0.1,0.1,0.2,0.1,0.3l-0.1,5.7c0,0.1,0,0.3-0.1,0.4
		c-0.1,0.1-0.2,0.2-0.3,0.3c-0.1,0.1-0.2,0.1-0.4,0.2s-0.3,0-0.4,0c-2.4-0.6-5.8-1.6-8.8-2.3c-3.5-0.9-6.6-1.4-10.7-2.4
		c-2.5-0.6-2.6-3.3-1.5-3.3c5,0.1,8.9,1,13.6-0.6C242.6,422.8,243.1,422.7,243.6,422.8z"/>
	<path class="st7" d="M273.9,243.8c-0.4,1.3-0.8,2.4-1.3,3.6c-0.5,1.2-0.9,2.3-1.4,3.4c-1,2.3-2.1,4.5-3.3,6.7
		c-1.2,2.2-2.6,4.4-4.1,6.5c-1.6,2.2-3.3,4.2-5.3,6.1c-0.5,0.5-1.1,0.9-1.7,1.4c-0.3,0.2-0.6,0.4-0.9,0.7c-0.4,0.2-0.8,0.5-1.1,0.7
		c-1.7,0.9-3.5,1.3-5.4,1.3c-1.7,0-3.4-0.4-5-1.1c-1.4-0.6-2.6-1.4-3.8-2.3c-2.1-1.7-3.9-3.6-5.5-5.8c-0.8-1-1.5-2.1-2.1-3.2
		c-0.7-1.1-1.3-2.2-1.9-3.4l4-2.5c0.7,0.8,1.5,1.7,2.2,2.5c0.8,0.8,1.6,1.6,2.4,2.4c1.5,1.5,3.2,2.8,5,3.9c1.7,1,3.4,1.5,4.5,1.3
		c0.5-0.1,1-0.3,1.4-0.6c0.1-0.1,0.2-0.2,0.4-0.3c0.1-0.1,0.3-0.3,0.5-0.4c0.4-0.3,0.7-0.6,1-1c2.7-2.8,5.1-6.7,7.1-10.7
		c1-2,2-4.1,2.9-6.1c0.5-1,0.9-2.1,1.3-3.2c0.4-1.1,0.9-2.2,1.2-3.1L273.9,243.8z"/>
	<path class="st9" d="M276.4,240.8c1.3,5.8-11.4,20.7-11.4,20.7l-11.5-8.4c2.5-4.8,5.6-9.4,9.1-13.6
		C267.9,233.6,274.9,234.4,276.4,240.8z"/>
	<path class="st10" d="M263.6,250.5c-1.2,2.5-2.3,5-3.2,7.6l4.6,3.4c0,0,7.6-8.8,10.4-15.6C272,242.9,266.6,244.6,263.6,250.5z"/>
	<path class="st7" d="M235.6,256.9l-2.9-3.9l-4.9,5.8c0,0,3,3,6.7,1.8L235.6,256.9z"/>
	<path class="st7" d="M226.2,250.8l-1.6,6.7l3.2,1.3l4.9-5.8L226.2,250.8z"/>
	<path class="st10" d="M245.2,409.1l-0.9,7.5l6.1,1.5l0.9-7.4L245.2,409.1z"/>
	<path class="st10" d="M297.4,417.1h-6.2l2.5,7.5h6.2L297.4,417.1z"/>
	<path class="st9" d="M304.3,239.9c-2.3,6.6-4,13.4-5.3,20.3c-0.9,4.8-1.6,9.4-2,13.6c-1.1,9.8-1.4,17.3-1.9,19.8L262,289
		c-2.2-35.7,7.6-53.5,7.6-53.5c2.7-0.3,5.3-0.5,8-0.5c0.6,0,1.1,0,1.7,0c4.7,0.4,9.4,1,14.1,1.9c0.9,0.2,1.8,0.4,2.6,0.6
		C300.5,238.6,304.3,239.9,304.3,239.9z"/>
	<path class="st10" d="M279.9,244.5c-6.1-0.8-8.8,1-9.3,3.2c-1.9,8.7,4.8,16.8,4.8,16.8s9.9-6,11.8-14.7
		C287.7,247.5,285.9,245.2,279.9,244.5z"/>
	<path class="st4" d="M276.1,261.4c-1.7-2.6-4.5-8-3.3-13.6c0.2-1,2.6-1.8,6.6-1.3c4,0.5,5.9,1.8,5.7,2.8
		C283.8,255,278.7,259.4,276.1,261.4z"/>
	<path class="st10" d="M299.1,260.1c-0.9,4.8-1.6,9.4-2,13.6l-4.5-10.4L299.1,260.1z"/>
	<path class="st7" d="M294.2,221c-1.5,4.4-3.5,12.6-0.7,16c-1.6,1.3-3.4,2.2-5.4,2.7c-2,0.5-4,0.6-6,0.2c-3.9-0.6-3.7-3.4-2.6-4.7
		c5.2-0.5,5.6-4.3,5.2-7.9L294.2,221z"/>
	<path class="st10" d="M290.3,223.5l-5.7,3.7c0.1,0.8,0.1,1.7,0.1,2.6c2,0,4.9-1.8,5.4-3.8C290.3,225.2,290.3,224.3,290.3,223.5z"/>
	<path class="st8" d="M282.7,203.3c-4.8-0.4-6.5,11.3-3.5,13.5C282.3,219,291.8,204,282.7,203.3z"/>
	<path class="st7" d="M295.6,214.2c-1.2,6.1-1.6,9.7-5.1,12.4c-5.3,4.1-12.5,0.3-13.1-6c-0.6-5.7,1.5-14.7,7.8-16.3
		c1.4-0.4,2.9-0.4,4.3,0c1.4,0.4,2.7,1.1,3.7,2.1c1,1,1.8,2.2,2.2,3.6C295.9,211.3,295.9,212.8,295.6,214.2z"/>
	<path class="st8" d="M294.4,220.2c-3,1.9-5.5-16.8,2.4-14.4C309.8,209.8,298,218,294.4,220.2z"/>
	<path class="st8" d="M294.4,209.3c-1.8-2.2-12.8-0.9-17.9-4.2c-5.1-3.3-1.9-10.6,7.4-9.5c-4.3,0.5-3.5,4.1-0.6,4.1
		c3,0,9.8-3.7,12.8-0.6c4.1,4.4,6.2,1.8,8.3,4.2C307.5,206.9,298.3,214.1,294.4,209.3z"/>
	<path class="st7" d="M297.5,221.4c-0.5,0.6-1.1,1.1-1.8,1.4c-0.7,0.4-1.4,0.6-2.2,0.6c-2.1,0.2-2.7-1.8-1.8-3.5
		c0.8-1.6,2.9-3.5,4.8-2.9C298.4,217.7,298.7,219.9,297.5,221.4z"/>
	<path class="st8" d="M242.3,414.6l10.3,2.5c0,0,6.6-35,9.7-54.3c0.9-5.8,3-13.9,5.5-22.6c3.2-10.9,7-22.6,10.2-31.8
		c3.3-9.7,5.8-16.5,5.8-16.5l-21.8-2.9c0,0-16.6,50.9-18.4,69.9C241.7,378.5,242.3,414.6,242.3,414.6z"/>
	<path class="st10" d="M267.8,340.3c3.2-10.9,7-22.6,10.2-31.8l-2-5C270.2,309.5,267.5,329.4,267.8,340.3z"/>
	<path class="st8" d="M273.8,290.6c0,0-1.1,53.5,0.4,71.8c1.6,19.9,16.6,60.8,16.6,60.8h11.4c0,0-7.6-37.4-10-56.8
		c-2.7-22.1,2.9-72.9,2.9-72.9L273.8,290.6z"/>
	<path class="st9" d="M289.4,423.4h13.5v-4l-15.1-0.3L289.4,423.4z"/>
	<path class="st9" d="M241,414.5l12.2,3l1-4l-13.6-3.6L241,414.5z"/>
	<path class="st8" d="M286.1,214.7c-0.1,0.5-0.4,0.9-0.7,0.8c-0.3-0.1-0.5-0.5-0.5-1c0.1-0.5,0.4-0.9,0.7-0.8
		C286,213.8,286.2,214.2,286.1,214.7z"/>
	<path class="st8" d="M280.5,213.9c-0.1,0.5-0.4,0.9-0.7,0.8c-0.3-0.1-0.5-0.5-0.5-1c0.1-0.5,0.4-0.9,0.7-0.8
		C280.3,213,280.5,213.4,280.5,213.9z"/>
	<path class="st11" d="M282.2,214.4c-0.8,1.5-1.8,2.8-3,4c0.3,0.3,0.7,0.5,1.1,0.7c0.4,0.1,0.8,0.2,1.3,0.1L282.2,214.4z"/>
	<path class="st8" d="M283.5,220.7c-0.2,0-0.4,0-0.7,0c0,0,0,0-0.1,0c0,0,0,0,0,0c0,0,0,0,0-0.1c0,0,0,0,0-0.1c0,0,0,0,0-0.1
		c0,0,0,0,0,0c0,0,0,0,0.1,0c0,0,0,0,0.1,0c0.6,0.1,1.3,0,1.8-0.1c0.6-0.2,1.1-0.5,1.6-1c0,0,0.1,0,0.1,0c0,0,0.1,0,0.1,0
		c0,0,0,0,0,0c0,0,0,0,0,0.1c0,0,0,0,0,0.1c0,0,0,0,0,0c-0.4,0.4-0.9,0.7-1.4,0.9C284.6,220.6,284.1,220.7,283.5,220.7z"/>
	<path class="st8" d="M288.1,213.1c-0.1,0-0.1,0-0.1,0c0,0-0.1-0.1-0.1-0.1c-0.2-0.3-0.4-0.6-0.7-0.8c-0.3-0.2-0.7-0.4-1-0.4
		c0,0-0.1,0-0.1,0c0,0-0.1,0-0.1-0.1s0-0.1-0.1-0.1c0,0,0-0.1,0-0.1c0-0.1,0-0.1,0.1-0.2c0.1-0.1,0.1-0.1,0.2-0.1
		c0.5,0.1,0.9,0.2,1.3,0.5c0.4,0.3,0.7,0.6,0.9,1c0,0,0,0.1,0,0.1s0,0.1,0,0.1c0,0,0,0.1-0.1,0.1c0,0-0.1,0.1-0.1,0.1
		C288.2,213.1,288.2,213.1,288.1,213.1z"/>
	<path class="st8" d="M278.3,211.6c-0.1,0-0.1,0-0.2,0c-0.1,0-0.1-0.1-0.1-0.2c0-0.1,0-0.2,0-0.2c0.3-0.4,0.6-0.7,1-1
		c0.4-0.2,0.9-0.4,1.3-0.4c0.1,0,0.2,0,0.2,0.1c0.1,0.1,0.1,0.1,0.1,0.2s0,0.2-0.1,0.2c-0.1,0.1-0.1,0.1-0.2,0.1
		c-0.4,0-0.7,0.1-1.1,0.3c-0.3,0.2-0.6,0.5-0.8,0.8c0,0-0.1,0.1-0.1,0.1C278.4,211.6,278.4,211.6,278.3,211.6z"/>
	<path class="st9" d="M293.2,432c-0.4,0-0.9-0.1-1.2-0.3c-0.1-0.1-0.2-0.2-0.3-0.4c-0.1-0.1-0.1-0.3,0-0.4c0-0.1,0-0.2,0.1-0.2
		c0-0.1,0.1-0.1,0.2-0.2c0.7-0.4,2.7,0.9,2.9,1c0,0,0,0,0.1,0.1s0,0.1,0,0.1c0,0,0,0.1,0,0.1c0,0,0,0-0.1,0
		C294.3,431.9,293.7,431.9,293.2,432z M292.2,430.7c-0.1,0-0.1,0-0.2,0c0,0-0.1,0-0.1,0.1s0,0.1,0,0.1c0,0.1,0,0.2,0,0.3
		c0,0.1,0.1,0.2,0.2,0.2c0.7,0.3,1.5,0.4,2.2,0.1C293.7,431.1,293,430.8,292.2,430.7z"/>
	<path class="st9" d="M294.8,431.7L294.8,431.7c-0.7-0.4-2-1.7-1.8-2.4c0-0.1,0.1-0.2,0.2-0.3c0.1-0.1,0.2-0.1,0.3-0.1
		c0.1,0,0.2,0,0.3,0c0.1,0,0.2,0.1,0.3,0.2c0.7,0.6,0.9,2.4,0.9,2.5c0,0,0,0.1,0,0.1C294.9,431.7,294.9,431.7,294.8,431.7
		C294.8,431.8,294.8,431.7,294.8,431.7z M293.5,429.2L293.5,429.2c-0.3,0-0.3,0.1-0.3,0.2c-0.1,0.4,0.7,1.4,1.4,1.9
		c0-0.7-0.3-1.4-0.7-2C293.7,429.3,293.6,429.2,293.5,429.2z"/>
	<path class="st9" d="M242.8,423.5c-1,0-2.8-0.2-3.4-1c-0.1-0.1-0.1-0.2-0.1-0.4c0-0.1,0-0.3,0-0.4c0-0.1,0.1-0.1,0.1-0.2
		c0.1-0.1,0.1-0.1,0.2-0.1c0.8-0.2,3,1.6,3.2,1.8c0,0,0,0,0,0.1c0,0,0,0.1,0,0.1C242.9,423.4,242.9,423.5,242.8,423.5
		C242.8,423.5,242.8,423.5,242.8,423.5z M239.8,421.7L239.8,421.7c-0.1,0-0.1,0-0.1,0c0,0,0,0.1,0,0.1c0,0.1,0,0.2,0,0.3
		c0,0.1,0,0.2,0.1,0.2c0.3,0.4,1.3,0.7,2.7,0.8C241.5,422.5,240.3,421.7,239.8,421.7z"/>
	<path class="st9" d="M242.8,423.5c0,0-0.1,0-0.1,0c-0.7-0.5-1.8-2.2-1.5-2.8c0.1-0.2,0.2-0.3,0.6-0.3c0.1,0,0.3,0.1,0.4,0.1
		c0.1,0.1,0.2,0.2,0.3,0.3c0.6,0.8,0.4,2.5,0.4,2.6c0,0,0,0,0,0.1C242.9,423.5,242.8,423.5,242.8,423.5L242.8,423.5z M241.6,420.7
		c-0.1,0-0.2,0.1-0.2,0.1c-0.2,0.4,0.6,1.7,1.2,2.3c0.1-0.7,0-1.4-0.3-2.1c-0.1-0.1-0.1-0.2-0.2-0.2c-0.1-0.1-0.2-0.1-0.3-0.1H241.6
		z"/>
	<path class="st7" d="M307.8,247.2c-0.1,1.2-0.2,2.2-0.4,3.3c-0.2,1.1-0.3,2.1-0.5,3.2c-0.4,2.1-0.8,4.2-1.3,6.3
		c-0.5,2.1-1.1,4.2-1.8,6.3c-0.7,2.1-1.5,4.2-2.5,6.2l-0.7,1.5l0,0.1l-0.1,0.2l-0.2,0.4c-0.2,0.2-0.3,0.5-0.5,0.7
		c-0.3,0.4-0.7,0.8-1.2,1.2c-0.7,0.6-1.6,1.1-2.4,1.4c-0.7,0.3-1.5,0.5-2.2,0.6c-2.4,0.4-4.9,0.3-7.3-0.1c-4.3-0.7-8.5-1.9-12.5-3.7
		l1.3-4.5c1.9,0.3,4,0.5,5.9,0.7c1.9,0.2,3.9,0.3,5.8,0.3c1.7,0,3.4-0.1,5-0.6c0.6-0.2,1-0.5,0.9-0.5c0,0-0.1,0-0.1,0.1l-0.1,0.1
		l0,0v-0.1l0.5-1.3c1.3-3.6,2.3-7.3,3.1-11.1c0.4-1.9,0.7-3.9,1.1-5.8c0.2-1,0.3-1.9,0.5-2.9l0.4-2.9L307.8,247.2z"/>
	<path class="st9" d="M309,243.4c3.5,4.8-0.5,19.8-0.5,19.8l-16.4,0.5c0,0,1.3-9.8,3.8-17.2C298.4,238.6,304.7,237.6,309,243.4z"/>
	<path class="st7" d="M276.2,270.4l-5.8-2.7v8c0,0,5.4,1.2,6.3-1.6L276.2,270.4z"/>
	<path class="st7" d="M265.4,268.9l0.3,6.6l4.8,0.2l0-8L265.4,268.9z"/>
	<path class="st8" d="M243.2,321.2H90.7c-2,0-3.9-0.8-5.3-2.2c-1.5-1.4-2.4-3.2-2.5-5.2l-6.8-97.3c-0.1-0.9,0-1.9,0.3-2.8
		c0.3-0.9,0.8-1.7,1.4-2.4c0.6-0.7,1.4-1.2,2.3-1.6c0.9-0.4,1.8-0.6,2.8-0.5h152.5c2,0,3.9,0.8,5.3,2.2c1.5,1.4,2.4,3.2,2.5,5.2
		l6.8,97.3c0.1,0.9,0,1.9-0.3,2.8c-0.3,0.9-0.8,1.7-1.4,2.4c-0.6,0.7-1.4,1.2-2.3,1.6C245.1,321,244.2,321.2,243.2,321.2z"/>
	<path class="st8" d="M286.9,400.6H115c-4.6,0-9.2-2.9-10.2-6.5l-19.9-67.6c-0.9-2.9,1.8-5.2,5.8-5.2h152.5c4,0,8.7,2.3,10.3,5.2
		l38,67.6C293.5,397.6,291.4,400.6,286.9,400.6z"/>
	<path class="st9" d="M245.1,321.2H92.6c-2,0-3.9-0.8-5.3-2.2c-1.5-1.4-2.4-3.2-2.5-5.2l-6.9-97.3c-0.1-0.9,0-1.9,0.3-2.8
		c0.3-0.9,0.8-1.7,1.4-2.4c0.6-0.7,1.4-1.2,2.3-1.6c0.9-0.4,1.8-0.6,2.7-0.6h152.5c2,0,3.9,0.8,5.3,2.2s2.4,3.2,2.5,5.2l6.9,97.3
		c0.1,0.9,0,1.9-0.3,2.8c-0.3,0.9-0.8,1.7-1.4,2.4s-1.4,1.2-2.3,1.6C247,321,246,321.2,245.1,321.2z"/>
	<path class="st4" d="M93.8,315.1c-0.8,0-1.5-0.3-2.1-0.9c-0.6-0.5-0.9-1.3-1-2l-6.6-93.9c0-0.4,0-0.7,0.1-1.1
		c0.1-0.4,0.3-0.7,0.6-0.9c0.3-0.3,0.6-0.5,0.9-0.6c0.3-0.1,0.7-0.2,1.1-0.2H236c0.8,0,1.5,0.3,2.1,0.9c0.6,0.5,0.9,1.3,1,2
		l6.6,93.9c0,0.4,0,0.7-0.1,1.1c-0.1,0.4-0.3,0.7-0.6,1c-0.3,0.3-0.6,0.5-0.9,0.6c-0.3,0.1-0.7,0.2-1.1,0.2H93.8z"/>
	<path class="st10" d="M162,213.3c0.4-0.4,0.4-1.2-0.1-1.6c-0.5-0.5-1.2-0.5-1.6,0c-0.4,0.4-0.4,1.2,0.1,1.6
		C160.9,213.7,161.6,213.8,162,213.3z"/>
	<path class="st9" d="M288.7,400.6H116.9c-4.6,0-9.1-2.9-10.2-6.5l-19.9-67.6c-0.8-2.9,1.8-5.2,5.8-5.2h152.5c4,0,8.7,2.3,10.3,5.2
		l38,67.6C295.3,397.6,293.3,400.6,288.7,400.6z"/>
	<path class="st10" d="M107.6,364.5c-1.7,0-3.4-1.1-3.8-2.3l-10.5-34.5c-0.4-1.1,0.7-2.1,2.3-2.1h150.2c0.8,0,1.6,0.2,2.3,0.5
		c0.7,0.4,1.3,0.9,1.8,1.5l19,34.5c0.7,1.3-0.1,2.3-1.8,2.3L107.6,364.5z"/>
	<path class="st10" d="M176.4,394.6c-0.5,0-1-0.1-1.4-0.4c-0.4-0.3-0.8-0.6-1-1.1l-8.8-22.5c-0.3-0.8,0.3-1.4,1.3-1.4h45.9
		c0.5,0,1,0.1,1.4,0.4c0.4,0.2,0.8,0.6,1.1,1l10.4,22.5c0.4,0.8-0.2,1.5-1.2,1.5H176.4z"/>
	<path class="st6" d="M90,301.3l3.8-7.5h12.4l3.5,5.4l3.5,5.4l-2.7,5.4l-2.6,5.1h0.3l2.5-5l2.7-5.4h12.4l3.5,5.4l3.2,5h0.3l-3.4-5.1
		l-3.5-5.4l2.7-5.4l2.7-5.4h12.4l3.5,5.4l3.5,5.4l-2.7,5.4l-2.6,5.1h0.3l2.5-5l2.7-5.4h12.4l3.5,5.4l3.2,5h0.3l-3.3-5.1l-3.4-5.4
		l2.7-5.4l2.7-5.4h12.4l3.5,5.4l3.5,5.4L186,310l-2.6,5.1h0.3l2.5-5l2.7-5.4h12.4l3.5,5.4l3.2,5h0.3l-3.3-5.1l-3.5-5.4l2.7-5.4
		l2.7-5.4h12.4l3.5,5.4l3.5,5.4l-2.8,5.4l-2.6,5.1h0.3l2.5-5l2.7-5.4h12.5l3.5,5.4l2.6,3.9l0.2-0.2l-2.5-3.8l-3.5-5.4l2.7-5.4
		l2.4-4.8v-0.5l-2.6,5.1l-2.7,5.4h-12.5l-3.5-5.4l-3.5-5.4l2.7-5.4l2.7-5.4h12.4l6.9,10.5l0-0.5l-6.6-10.2l5.2-10.2V272l-5.4,10.6
		h-12.5l-3.5-5.4l-3.5-5.4l2.7-5.4l2.7-5.4h12.4l6.9,10.6l0-0.5l-6.6-10.2l5.2-10.3v-0.5l-5.4,10.7h-12.5l-3.5-5.4l-3.5-5.4l2.7-5.4
		l2.7-5.4h12.4l6.9,10.7v-0.5l-6.7-10.3l5.2-10.4v-0.5l-5.5,10.8h-12.4l-3.5-5.4l-3.5-5.4l2.7-5.4l2.7-5.4h12.4l3.5,5.4l3.5,5.4
		v-0.5l-3.3-5l-3.5-5.4l1-2h-0.3l-0.9,1.9h-12.4l-1.2-1.9h-0.3l1.3,2l-2.7,5.4l-2.7,5.4h-12.4l-3.5-5.4l-3.5-5.4l1-2H196l-0.9,1.9
		h-12.4l-1.2-1.9h-0.3l1.3,2l-2.7,5.4l-2.7,5.4h-12.5l-3.5-5.4l-3.5-5.4l1-2h-0.3l-0.9,1.9h-12.4l-1.2-1.9h-0.3l1.3,2l-2.7,5.4
		l-2.7,5.4h-12.4l-3.5-5.4l-3.5-5.4l1-2h-0.3l-1,1.9h-12.4l-1.2-1.9h-0.3l1.3,2l-2.7,5.4l-2.7,5.4H89l-4.7-7.2v0.5l4.4,6.8l-3.5,6.9
		l0,0.5l3.7-7.2h12.4l3.5,5.4l3.5,5.4l-2.7,5.4L103,250H90.6l-3.5-5.4l-1.2-1.9v0.5l1,1.5l3.5,5.4l-2.7,5.4l-0.8,1.6v0.5l1-1.9
		l2.7-5.4h12.4l3.5,5.4l3.5,5.4l-2.7,5.4l-2.7,5.4H92.1l-3.5-5.4l-1.3-2v0.5l1,1.6l3.5,5.4l-2.7,5.4l-0.8,1.6v0.5l1-2l2.7-5.4h12.4
		l3.5,5.4l3.5,5.4l-2.7,5.4l-2.7,5.4H93.7l-4.8-7.5l0,0.5l4.6,7l-3.6,7.1L90,301.3z M143.9,293.6h-12.4l-3.5-5.4l-3.5-5.4l2.7-5.4
		l2.7-5.4h12.4l3.5,5.4l3.5,5.4l-2.7,5.4L143.9,293.6z M198.1,260.8h-12.4l-3.5-5.4l-3.5-5.4l2.7-5.4l2.7-5.4h12.4l3.5,5.4l3.5,5.4
		l-2.7,5.4L198.1,260.8z M198.1,261.1l3.5,5.4l3.5,5.4l-2.7,5.4l-2.7,5.4h-12.4l-3.5-5.4l-3.5-5.4l2.7-5.4l2.7-5.4L198.1,261.1z
		 M182,255.6l3.5,5.4l-2.7,5.4l-2.7,5.4h-12.4l-3.5-5.4l-3.5-5.4l2.7-5.4l2.7-5.4h12.4L182,255.6z M167.4,271.9l-2.7,5.4l-2.7,5.4
		h-12.4l-3.5-5.4l-3.5-5.4l2.7-5.4l2.7-5.4h12.4l3.5,5.4L167.4,271.9z M163.1,255.5l-2.7,5.4H148l-3.5-5.4l-3.5-5.4l2.7-5.4l2.7-5.4
		h12.4l3.5,5.4l3.5,5.4L163.1,255.5z M144.3,255.6l3.5,5.4l-2.7,5.4l-2.8,5.4h-12.4l-3.5-5.4l-3.5-5.4l2.7-5.4l2.7-5.4h12.4
		L144.3,255.6z M166.3,299.1l-2.7,5.4h-12.4l-3.5-5.4l-3.5-5.4l2.7-5.4l2.7-5.4H162l3.5,5.4l3.5,5.4L166.3,299.1z M181.7,293.6
		h-12.4l-3.5-5.4l-3.5-5.4l2.7-5.4l2.7-5.4h12.4l3.5,5.4l3.5,5.4l-2.7,5.4L181.7,293.6z M204,299.1l-2.7,5.4h-12.4l-3.5-5.4
		l-3.5-5.4l2.7-5.4l2.7-5.4h12.4l3.5,5.4l3.5,5.4L204,299.1z M221.3,277.4l3.5,5.4l-2.7,5.4l-2.7,5.4H207l-3.5-5.4l-3.5-5.4l2.7-5.4
		l2.7-5.4h12.4L221.3,277.4z M219.7,255.6l3.5,5.4l-2.7,5.4l-2.7,5.4h-12.4l-3.5-5.4l-3.5-5.4l2.7-5.4l2.7-5.4h12.4L219.7,255.6z
		 M202.2,228.4h12.4l3.5,5.4l3.5,5.4l-2.7,5.4l-2.7,5.4h-12.4l-3.5-5.4l-3.5-5.4l2.7-5.4L202.2,228.4z M179.9,222.9l2.7-5.4H195
		l3.5,5.4l3.5,5.4l-2.7,5.4l-2.7,5.4h-12.4l-3.5-5.4l-3.5-5.4L179.9,222.9z M164.5,228.4h12.4l3.5,5.4l3.5,5.4l-2.7,5.4l-2.7,5.4
		h-12.4l-3.5-5.4l-3.5-5.4l2.7-5.4L164.5,228.4z M142.1,222.9l2.7-5.4h12.4l3.5,5.4l3.5,5.4l-2.7,5.4l-2.8,5.4h-12.4l-3.5-5.4
		l-3.5-5.4L142.1,222.9z M126.8,228.4h12.4l3.5,5.4l3.5,5.4l-2.7,5.4l-2.7,5.4h-12.4l-3.5-5.4l-3.5-5.4l2.7-5.4L126.8,228.4z
		 M105.2,233.7l-3.5-5.4l2.7-5.4l2.7-5.4h12.4l3.5,5.4l3.5,5.4l-2.7,5.4l-2.7,5.4h-12.5L105.2,233.7z M106.8,255.5l-3.6-5.4l2.7-5.4
		l2.7-5.4h12.4l3.5,5.4l3.5,5.4l-2.7,5.4l-2.7,5.4h-12.4L106.8,255.5z M108.4,277.3l-3.6-5.4l2.7-5.4l2.7-5.4h12.4l3.5,5.4l3.5,5.4
		l-2.7,5.4l-2.7,5.4h-12.4L108.4,277.3z M109.2,288.3l2.7-5.4h12.4l3.5,5.4l3.5,5.4l-2.7,5.4l-2.7,5.4h-12.5l-3.5-5.4l-3.5-5.4
		L109.2,288.3z"/>
	<path class="st6" d="M95.1,315.1l-4.7-7.3l0,0.5l4.4,6.7H95.1z"/>
</g>
</svg>
