<?xml version="1.0" encoding="utf-8"?>
<!-- Generator: Adobe Illustrator 25.2.1, SVG Export Plug-In . SVG Version: 6.00 Build 0)  -->
<svg version="1.1" id="Layer_1" xmlns="http://www.w3.org/2000/svg" xmlns:xlink="http://www.w3.org/1999/xlink" x="0px" y="0px"
	 width="311.4px" height="438px" viewBox="0 0 311.4 438" style="enable-background:new 0 0 311.4 438;" xml:space="preserve">
<style type="text/css">
	.st0{fill:url(#SVGID_1_);}
	.st1{fill:#BDD0FB;}
	.st2{fill:#FFFFFF;}
	.st3{fill:#91B3FA;}
	.st4{fill:url(#SVGID_2_);}
	.st5{fill:url(#SVGID_3_);}
	.st6{opacity:0.42;fill:#FFFFFF;enable-background:new    ;}
	.st7{opacity:0.55;fill:#FFFFFF;enable-background:new    ;}
	.st8{opacity:0.28;fill:#FFFFFF;enable-background:new    ;}
	.st9{fill:url(#SVGID_4_);}
	.st10{fill:url(#SVGID_5_);}
	.st11{fill:url(#SVGID_6_);}
	.st12{fill:url(#SVGID_7_);}
	.st13{fill:url(#SVGID_8_);}
	.st14{fill:url(#SVGID_9_);}
	.st15{fill:url(#SVGID_10_);}
	.st16{fill:url(#SVGID_11_);}
	.st17{fill:url(#SVGID_12_);}
	.st18{fill:url(#SVGID_13_);}
	.st19{fill:url(#SVGID_14_);}
	.st20{fill:url(#SVGID_15_);}
	.st21{fill:url(#SVGID_16_);}
	.st22{fill:url(#SVGID_17_);}
	.st23{fill:url(#SVGID_18_);}
	.st24{fill:url(#SVGID_19_);}
	.st25{fill:url(#SVGID_20_);}
	.st26{fill:url(#SVGID_21_);}
	.st27{fill:url(#SVGID_22_);}
	.st28{fill:url(#SVGID_23_);}
	.st29{fill:url(#SVGID_24_);}
	.st30{fill:url(#SVGID_25_);}
	.st31{fill:url(#SVGID_26_);}
	.st32{fill:url(#SVGID_27_);}
	.st33{fill:url(#SVGID_28_);}
	.st34{fill:url(#SVGID_29_);}
	.st35{fill:url(#SVGID_30_);}
	.st36{fill:url(#SVGID_31_);}
	.st37{fill:url(#SVGID_32_);}
	.st38{fill:url(#SVGID_33_);}
	.st39{fill:url(#SVGID_34_);}
	.st40{opacity:0.3;}
	.st41{opacity:0.3;fill:url(#SVGID_35_);enable-background:new    ;}
	.st42{opacity:0.3;fill:url(#SVGID_36_);enable-background:new    ;}
	.st43{opacity:0.3;fill:url(#SVGID_37_);enable-background:new    ;}
	.st44{opacity:0.3;fill:url(#SVGID_38_);enable-background:new    ;}
	.st45{opacity:0.3;fill:url(#SVGID_39_);enable-background:new    ;}
	.st46{fill:url(#SVGID_40_);}
	.st47{opacity:0.5;fill:#FFFFFF;enable-background:new    ;}
	.st48{opacity:0.3;fill:url(#SVGID_41_);enable-background:new    ;}
	.st49{opacity:0.3;fill:url(#SVGID_42_);enable-background:new    ;}
	.st50{opacity:0.3;fill:url(#SVGID_43_);enable-background:new    ;}
	.st51{opacity:0.3;fill:url(#SVGID_44_);enable-background:new    ;}
	.st52{fill:url(#SVGID_45_);}
</style>
<g>
	
		<linearGradient id="SVGID_1_" gradientUnits="userSpaceOnUse" x1="706.2554" y1="174.325" x2="438.485" y2="506.8793" gradientTransform="matrix(1 0 0 -1 -367.0507 699)">
		<stop  offset="0" style="stop-color:#DAE3FE"/>
		<stop  offset="1" style="stop-color:#E9EFFD"/>
	</linearGradient>
	<path class="st0" d="M265.5,393.5c-6.1,6.5-12,10.7-16.6,13.9c-54,38.8-118,27.5-131.6,24.7c-20.1-4.1-58.9-12-86.9-44.9
		C-12,337.3-5.4,258.7,27.5,206.8c6-9.5,37.8-62.2,102.5-70.6c39.1-5.1,84.7,5.2,117.7,32.9C317.1,227.1,312.1,344.5,265.5,393.5z"
		/>
	<path class="st1" d="M10.3,154.9c-0.2-1.2,1.6-1.9,2.5-0.9c9.6,9.4,32.3,37,21.9,80.6c-13,54.7-1.5,76.2,14,90
		c0,0-22.3-7.9-34.8-29.8C-16.7,241.2,13.3,176.6,10.3,154.9z"/>
	<path class="st2" d="M16.6,173c0.7,6.3,1.3,12.6,1.6,18.9c0.4,6.3,0.5,12.6,0.4,18.9c-0.1,6.3-0.4,12.6-1,18.8
		c-0.5,6.3-1.4,12.5-2.3,18.7c-0.8,6.2-1.7,12.5-1.9,18.9c-0.1,6.4,0.6,12.9,2.7,19.2c0.5,1.6,1.1,3.1,1.7,4.6
		c0.6,1.5,1.3,3,2.1,4.5c1.5,3,3.2,5.9,5.1,8.7c3.9,5.6,8.8,10.6,14.3,15.1c0.6,0.5,1.5,0.4,2,0c0.5-0.5,0.5-1.2-0.1-1.7
		c-1.3-1.1-2.6-2.2-3.8-3.4c-0.6-0.6-1.2-1.2-1.8-1.8c-0.6-0.6-1.2-1.2-1.7-1.8c-2.3-2.4-4.4-5-6.2-7.7c-3.7-5.4-6.6-11.2-8.6-17.2
		c-1-3-1.7-6-2.1-9.1c-0.4-3.1-0.6-6.2-0.6-9.3c0.1-6.2,0.9-12.5,1.7-18.7c0.8-6.3,1.5-12.6,1.9-18.9c0.2-3.2,0.4-6.3,0.5-9.5
		c0.1-1.6,0.1-3.2,0.1-4.7c0-1.6,0-3.2,0-4.7c-0.1-6.3-0.4-12.7-0.9-19c-0.6-6.3-1.3-12.6-2.4-18.9c0-0.2-0.2-0.3-0.4-0.3
		C16.7,172.7,16.5,172.8,16.6,173z"/>
	<path class="st3" d="M17.9,287.8c-1.4,1.2-3.6,0.6-4.2-1.1c-3.4-9.7-10.4-38.2,8.4-68.4c15.9-25.5,22.1-40.9,24.4-48
		c0.5-1.5,2.6-1.5,3.1,0C55.1,186.9,68.7,243.1,17.9,287.8z"/>
	<path class="st2" d="M15.6,286.6c0,0-0.1,0-0.1,0c-0.4,0-0.7-0.4-0.6-0.8c0.1-0.5,5.2-45.8,25.7-82.3c0.2-0.3,0.6-0.5,1-0.3
		c0.3,0.2,0.5,0.6,0.3,1c-20.3,36.2-25.4,81.3-25.5,81.8C16.3,286.3,16,286.6,15.6,286.6z"/>
	
		<linearGradient id="SVGID_2_" gradientUnits="userSpaceOnUse" x1="497.3751" y1="336.4213" x2="559.8781" y2="523.9315" gradientTransform="matrix(1 0 0 -1 -367.0507 699)">
		<stop  offset="0" style="stop-color:#09005D"/>
		<stop  offset="1" style="stop-color:#1A0F91"/>
	</linearGradient>
	<path class="st4" d="M291.7,369.4c0,2.7-2.2,4.9-4.9,4.9H22.2c-2.7,0-4.9-2.2-4.9-4.9l-2.2-152.1c0-2.7,3.2-7.9,9-7.5l258.6-6.7
		c3.4-0.1,6.6,1.2,9,3.6c2.4,2.4,3.7,5.6,3.6,9L291.7,369.4z"/>
	<path class="st3" d="M286.9,364.7c0,2.5-2.1,4.6-4.6,4.6H28.6c-2.5,0-4.6-2.1-4.6-4.6l-2.1-138.1c0.2-8.3,7.5-11.3,11.9-11.1
		l247.9-6.6c2.4-0.1,4.7,0.8,6.3,2.5c1.7,1.7,2.6,4,2.5,6.3L286.9,364.7z"/>
	<path class="st2" d="M26.7,298.9c-0.2,0-0.4-0.2-0.4-0.4l-0.2-11.2c0-0.2,0.2-0.4,0.4-0.4c0.2,0,0.4,0.2,0.4,0.4l0.2,11.2
		C27.1,298.7,26.9,298.9,26.7,298.9z"/>
	<path class="st2" d="M26.3,271.4c-0.2,0-0.4-0.2-0.4-0.4l-0.6-42.9c0-2.9,0.9-5.2,2.6-6.9c3.2-3,8.1-2.9,8.3-2.9l79.2-2.1
		c0.2,0,0.4,0.2,0.4,0.4c0,0.2-0.2,0.4-0.4,0.4l-79.2,2.1c-0.2,0-4.8-0.2-7.7,2.6c-1.6,1.5-2.4,3.6-2.4,6.2l0.6,42.9
		C26.7,271.2,26.5,271.4,26.3,271.4z"/>
	
		<linearGradient id="SVGID_3_" gradientUnits="userSpaceOnUse" x1="507.9895" y1="256.602" x2="530.9504" y2="382.146" gradientTransform="matrix(1 0 0 -1 -367.0507 699)">
		<stop  offset="0" style="stop-color:#09005D"/>
		<stop  offset="1" style="stop-color:#1A0F91"/>
	</linearGradient>
	<path class="st5" d="M297,386.9H7.6c-3.6,0-6.5-3-6.5-6.7c0-3.7,2.9-6.7,6.5-6.7H297c3.6,0,6.5,3,6.5,6.7
		C303.5,383.9,300.5,386.9,297,386.9z"/>
	<path class="st6" d="M278.6,249.3l-244.9,1.7c-2.4,0-4.4-1.5-4.4-3.4v-21c0-1.8,1.9-3.3,4.2-3.4l244.9-7.1c2.5-0.1,4.6,1.5,4.6,3.4
		v26.4C282.9,247.8,281,249.3,278.6,249.3z"/>
	<path class="st7" d="M198.8,343.4h-85.1c-1.7,0-3.1-1.4-3.1-3.1v-78.9c0-1.7,1.4-3.1,3.1-3.1h84.3c1.2,0,2.2,1,2.2,2.2V342
		C200.1,342.8,199.5,343.4,198.8,343.4z"/>
	<path class="st8" d="M201.3,357.8c-0.1,2.7-2.3,4.7-5,4.7l-165.1,1c-2,0-3.7-1.7-3.7-3.7v-6c0-2.8,2.3-5.2,5.2-5.2h167
		c1.1,0,2,0.9,2,2L201.3,357.8z"/>
	<path class="st7" d="M102.6,341.4H30.3c-1.5,0-2.8-1.2-2.8-2.8v-80c0-1.5,1.2-2.8,2.8-2.8h72.4c1.5,0,2.8,1.2,2.8,2.8v80
		C105.4,340.2,104.2,341.4,102.6,341.4z"/>
	<path class="st7" d="M280.3,363.7h-72.8c-0.8,0-1.5-0.6-1.5-1.5V259.5c0-2.4,2-4.4,4.4-4.4h70.2c0.6,0,1.1,0.5,1.1,1.1v106
		C281.8,363,281.1,363.7,280.3,363.7z"/>
	
		<linearGradient id="SVGID_4_" gradientUnits="userSpaceOnUse" x1="545.7399" y1="477.4314" x2="426.4595" y2="369.0944" gradientTransform="matrix(1 0 0 -1 -367.0507 699)">
		<stop  offset="0" style="stop-color:#4F52FF"/>
		<stop  offset="1" style="stop-color:#4042E2"/>
	</linearGradient>
	<path class="st9" d="M150.1,251.7L70.2,251c-1.6,0-2.8,1.3-2.8,2.8l0.3,61.3c0,1.6,1.3,2.8,2.9,2.8c14.4-0.4,78.6-2.3,81.4-2.2
		c2.8,0.1,1.3-49.1,0.9-61.3C152.8,253,151.6,251.8,150.1,251.7z"/>
	<path class="st2" d="M70.5,315.7c-0.3,0-0.5-0.2-0.5-0.5l-0.3-61.3c0-0.1,0.1-0.3,0.2-0.4c0.1-0.1,0.2-0.2,0.4-0.2l79.9,0.7
		c0.3,0,0.5,0.2,0.5,0.5c1,30,1.1,53.1,0.1,58.8l0,0.2h-0.2C139.8,313.6,82,315.3,70.5,315.7L70.5,315.7L70.5,315.7z M70.2,253.7
		C70.1,253.7,70.1,253.7,70.2,253.7c-0.1,0.1-0.1,0.1-0.1,0.1l0.3,61.3c0,0.1,0.1,0.1,0.1,0.1l0,0.2v-0.2c11.4-0.3,68.8-2,79.8-2.2
		c1-5.9,0.9-28.8-0.1-58.5c0-0.1-0.1-0.1-0.1-0.1L70.2,253.7z"/>
	<path class="st2" d="M140.5,307.8H88.1c-1.6,0-2.6-1.8-1.8-3.2l20.7-35.3c0.9-1.5,3-1.4,3.7,0.2l10,21.9c0.6,1.3,2.3,1.6,3.3,0.7
		l4-3.7c0.9-0.9,2.4-0.7,3.2,0.3l10.9,15.7C143.2,305.9,142.2,307.8,140.5,307.8z"/>
	<path class="st2" d="M94.9,272.7c2.4-3.4,1.7-8.1-1.7-10.5c-3.4-2.4-8.1-1.7-10.5,1.7c-2.4,3.4-1.7,8.1,1.7,10.5
		C87.8,276.8,92.5,276.1,94.9,272.7z"/>
	
		<linearGradient id="SVGID_5_" gradientUnits="userSpaceOnUse" x1="411.6166" y1="344.8728" x2="384.9016" y2="413.4538" gradientTransform="matrix(1 0 0 -1 -367.0507 699)">
		<stop  offset="0" style="stop-color:#09005D"/>
		<stop  offset="1" style="stop-color:#1A0F91"/>
	</linearGradient>
	<path class="st10" d="M15,326c2-7.6,8.4-13.8,15.4-15.3c1.3-0.3,2-1.6,1.7-2.9c0,0,0,0,0,0c-1-4.4,1.8-7.9,6.1-8.9
		c4.3-1,8.3,0.9,9.3,5.3c0.7,3-0.2,6.3-2.1,8.5c-0.8,0.9-0.9,2.2-0.1,3.1c4.3,5,6,12.7,4.2,19.6c-2.7,10.1-12.2,14.6-21.8,12
		S12.2,336.1,15,326z"/>
	<path class="st3" d="M17.9,335.7l0.2-0.1c-1.7-2.4-1.9-5.9-0.6-9.1c1.1-2.5,3-4.9,6.1-7.3c1.1-0.9,2.3-1.8,3.5-2.6
		c1.4-1,2.9-2,4.2-3.2c1.2-1,2.5-2.3,2.8-3.9c0.1-0.8,0-1.7-0.1-2.6c-0.2-1.3-0.4-2.6,0.4-3.6l-0.2-0.1c-0.8,1-0.6,2.4-0.5,3.7
		c0.1,0.8,0.2,1.7,0.1,2.5c-0.3,1.6-1.5,2.8-2.7,3.8c-1.3,1.1-2.8,2.2-4.2,3.2c-1.2,0.8-2.4,1.7-3.5,2.6c-3.1,2.5-5,4.8-6.1,7.4
		C15.9,329.6,16.2,333.2,17.9,335.7z"/>
	<path class="st3" d="M22.4,337.1l0.2-0.1c-1.2-3.2-0.8-7.1,0.9-10.8c1.7-3.6,4.6-6.6,6.9-8.8l-0.2-0.2c-2.3,2.2-5.2,5.2-6.9,8.8
		C21.6,329.9,21.3,333.9,22.4,337.1z"/>
	
		<linearGradient id="SVGID_6_" gradientUnits="userSpaceOnUse" x1="403.1649" y1="366.9124" x2="437.0904" y2="413.2404" gradientTransform="matrix(1 0 0 -1 -367.0507 699)">
		<stop  offset="0" style="stop-color:#FEBBBA"/>
		<stop  offset="1" style="stop-color:#FF928E"/>
	</linearGradient>
	<path class="st11" d="M68.1,295.7l0.1-2.6l-2.7-5.4c-0.5-1-0.5-2.2,0-3.2l3.1-6.2c0,0,1.8,13.6,2.3,14.7c0.5,1.1-1.3,3.2-1.3,3.2
		L68.1,295.7z"/>
	
		<linearGradient id="SVGID_7_" gradientUnits="userSpaceOnUse" x1="409.2605" y1="362.4492" x2="443.186" y2="408.7782" gradientTransform="matrix(1 0 0 -1 -367.0507 699)">
		<stop  offset="0" style="stop-color:#FEBBBA"/>
		<stop  offset="1" style="stop-color:#FF928E"/>
	</linearGradient>
	<path class="st12" d="M68.2,293c0,0-8.3,22.6-22.4,29.7c0,0,4.7,7.7,7.2,8.2c0,0,15.1-19.3,16.7-35.2L68.2,293z"/>
	
		<linearGradient id="SVGID_8_" gradientUnits="userSpaceOnUse" x1="378.3331" y1="265.9945" x2="370.9653" y2="265.9945" gradientTransform="matrix(1 0 0 -1 -367.0507 699)">
		<stop  offset="0" style="stop-color:#09005D"/>
		<stop  offset="1" style="stop-color:#1A0F91"/>
	</linearGradient>
	<path class="st13" d="M11.3,429.2l-0.4,3.4c-0.4,1.6-2.5,5.7-5.2,5.5c-1.7-0.2-1.9-5-1.6-5.7c0.4-1.3,1.2-3.3,2.3-4.5h3.8
		C10.8,427.9,11.4,428.5,11.3,429.2z"/>
	
		<linearGradient id="SVGID_9_" gradientUnits="userSpaceOnUse" x1="430.1016" y1="304.5014" x2="383.0438" y2="266.9274" gradientTransform="matrix(1 0 0 -1 -367.0507 699)">
		<stop  offset="0" style="stop-color:#FEBBBA"/>
		<stop  offset="1" style="stop-color:#FF928E"/>
	</linearGradient>
	<path class="st14" d="M41.1,389l0.6,3.8c0,0-2.2,21.8-2.5,30.5c-0.1,1.4,0.3,2.7,1,3.9l3.7,6.1l-9.5-5.6l-0.2-1.2l1.6-2.1l-2-24.4
		c-0.1-1.4,0.2-2.9,0.9-4.1l2-3.7L41.1,389z"/>
	
		<linearGradient id="SVGID_10_" gradientUnits="userSpaceOnUse" x1="404.4065" y1="269.3789" x2="392.5276" y2="269.3789" gradientTransform="matrix(1 0 0 -1 -367.0507 699)">
		<stop  offset="0" style="stop-color:#09005D"/>
		<stop  offset="1" style="stop-color:#1A0F91"/>
	</linearGradient>
	<path class="st15" d="M44.6,434.1h-3c-0.6,0-1.1-0.3-1.5-0.7c-0.9-1.2-2.9-3.6-3.8-3.7c-1.3-0.1-1.1,4.4-1.1,4.4h-0.7l-0.9-5.6
		c-0.2-1.4,0.5-2.8,1.7-3.5c0,0,0.3,2.1,1.9,3.1c1.6,0.9,6.4,4.3,6.4,4.3s0.6-0.1,1.2,0C45.7,432.7,45.6,434.1,44.6,434.1z"/>
	
		<linearGradient id="SVGID_11_" gradientUnits="userSpaceOnUse" x1="388.1047" y1="237.2494" x2="377.537" y2="360.7604" gradientTransform="matrix(1 0 0 -1 -367.0507 699)">
		<stop  offset="0" style="stop-color:#FEBBBA"/>
		<stop  offset="1" style="stop-color:#FF928E"/>
	</linearGradient>
	<path class="st16" d="M28.1,390.8c0,0-12.6,23.9-14.6,29.4c-2,5.5-2.7,10-2.7,10.4c0,0.7-0.9,1.3-3.2,1.3c-1.2,0-1.8-0.5-2.1-0.9
		c-0.2-0.4-0.3-0.9-0.1-1.3c0.7-1.5,3-6.2,3.9-8.3c1-2.6,3.2-14.1,4.4-18.2c1.2-4,2.6-8.4,7.8-12.4
		C21.6,390.8,25.2,387.2,28.1,390.8z"/>
	
		<linearGradient id="SVGID_12_" gradientUnits="userSpaceOnUse" x1="476.8479" y1="294.8526" x2="428.539" y2="341.9386" gradientTransform="matrix(1 0 0 -1 -367.0507 699)">
		<stop  offset="0" style="stop-color:#FF928E"/>
		<stop  offset="1" style="stop-color:#FE7062"/>
	</linearGradient>
	<path class="st17" d="M36,351.6c1.9-7.8,0-13.7-2-17.4c-1.6-2.9-0.5-6.5,2.5-8c4.6-2.4,9.2-3.5,9.2-3.5s9,6.6,8,11.8
		c-0.6,3-6.4,18.2-6.4,18.2S42,355.2,36,351.6z"/>
	
		<linearGradient id="SVGID_13_" gradientUnits="userSpaceOnUse" x1="388.2319" y1="326.5821" x2="415.0403" y2="326.5821" gradientTransform="matrix(1 0 0 -1 -367.0507 699)">
		<stop  offset="0" style="stop-color:#4F52FF"/>
		<stop  offset="1" style="stop-color:#4042E2"/>
	</linearGradient>
	<path class="st18" d="M28.8,358.4c1.3-4,7.2-6.8,7.2-6.8c6,3.6,11.3,1.1,11.3,1.1s1.2,4.5,0.4,8.8c-0.8,4.2-6,31.3-6,31.3
		c-8.1,1.6-20.6-1.7-20.6-1.7C26.3,382,27.5,362.4,28.8,358.4z"/>
	
		<linearGradient id="SVGID_14_" gradientUnits="userSpaceOnUse" x1="410.5159" y1="360.7994" x2="408.5313" y2="375.3184" gradientTransform="matrix(1 0 0 -1 -367.0507 699)">
		<stop  offset="0" style="stop-color:#FEBBBA"/>
		<stop  offset="1" style="stop-color:#FF928E"/>
	</linearGradient>
	<path class="st19" d="M39.8,313.6l-2.6,11.9c-0.2,1,0.7,0.9,1.8,0.7c1.7-0.3,4-1,4.7-2.3c0.1-0.1,0.1-0.3,0.1-0.4l1.1-8.2
		c0.1-0.6-0.3-1.3-0.9-1.6l-2.2-1C41,312.3,40,312.7,39.8,313.6z"/>
	
		<linearGradient id="SVGID_15_" gradientUnits="userSpaceOnUse" x1="-2004.1818" y1="1575.5759" x2="-2061.8218" y2="1604.0259" gradientTransform="matrix(1 0 0 -1 -367.0507 699)">
		<stop  offset="0" style="stop-color:#FEBBBA"/>
		<stop  offset="1" style="stop-color:#FF928E"/>
	</linearGradient>
	<path class="st20" d="M72.9,305.8c0,0-7,24.2-35,21.9c-1.8-0.1-3.4,1.2-3.5,3l-0.1,1c-0.2,2.6,1.9,4.8,4.5,4.7
		c9.3-0.5,29.4-4.1,36.3-26.3L72.9,305.8z"/>
	
		<linearGradient id="SVGID_16_" gradientUnits="userSpaceOnUse" x1="-1992.4849" y1="1599.2662" x2="-2050.115" y2="1627.7262" gradientTransform="matrix(1 0 0 -1 -367.0507 699)">
		<stop  offset="0" style="stop-color:#FEBBBA"/>
		<stop  offset="1" style="stop-color:#FF928E"/>
	</linearGradient>
	<path class="st21" d="M75,310c0,0,1.3-3.9,1.7-6.4c0.3-2.5-0.9-8-2-9.5c-1.1-1.5-1.2,2.3-1.7,4c-0.5,1.8,0.3,4.3,0.3,4.3l-0.5,3.3
		L75,310z"/>
	
		<linearGradient id="SVGID_17_" gradientUnits="userSpaceOnUse" x1="412.9911" y1="393.2121" x2="404.1532" y2="374.9911" gradientTransform="matrix(1 0 0 -1 -367.0507 699)">
		<stop  offset="0" style="stop-color:#FEBBBA"/>
		<stop  offset="1" style="stop-color:#FF928E"/>
	</linearGradient>
	<path class="st22" d="M45.2,303.8c0,0,6.7,9.7,2.5,12.5c-4.2,2.7-8.9-4.2-8.9-4.2s-1.5-5.3,0.2-7C40.8,303.3,45.2,303.8,45.2,303.8
		z"/>
	
		<linearGradient id="SVGID_18_" gradientUnits="userSpaceOnUse" x1="425.7269" y1="349.5862" x2="398.7738" y2="418.7792" gradientTransform="matrix(1 0 0 -1 -367.0507 699)">
		<stop  offset="0" style="stop-color:#09005D"/>
		<stop  offset="1" style="stop-color:#1A0F91"/>
	</linearGradient>
	<path class="st23" d="M42.4,301.5c0,0,2.9,0.7,3.3,2.1c0.4,1.3-4.2,2.5-5.5,2.5l-1.1,5.3c0,0-2.9-5.1-1.7-7.9
		C38.7,300.5,42.4,301.5,42.4,301.5z"/>
	
		<linearGradient id="SVGID_19_" gradientUnits="userSpaceOnUse" x1="409.0426" y1="395.1276" x2="400.2048" y2="376.9066" gradientTransform="matrix(1 0 0 -1 -367.0507 699)">
		<stop  offset="0" style="stop-color:#FEBBBA"/>
		<stop  offset="1" style="stop-color:#FF928E"/>
	</linearGradient>
	<path class="st24" d="M40.2,311.4c0,0-2.6-3.2-3.7-1.1c-1.1,2,2.3,3.6,3.6,2.6L40.2,311.4z"/>
	
		<linearGradient id="SVGID_20_" gradientUnits="userSpaceOnUse" x1="627.0792" y1="418.0046" x2="610.7131" y2="394.7466" gradientTransform="matrix(1 0 0 -1 -367.0507 699)">
		<stop  offset="0" style="stop-color:#09005D"/>
		<stop  offset="1" style="stop-color:#1A0F91"/>
	</linearGradient>
	<path class="st25" d="M236.2,302.5c-0.1,0.1-4.1,3.1-4.1,3.1s0.9,6.3,4.5,8.8c3.9,2.7,9.5-2.3,9.5-2.3s4.4,1.1,6.8-8.2
		c0.5-2.1-2.6-2.3-6.3-1.9C241.7,302.6,236.2,302.5,236.2,302.5z"/>
	
		<linearGradient id="SVGID_21_" gradientUnits="userSpaceOnUse" x1="641.6902" y1="429.9016" x2="603.7522" y2="344.5406" gradientTransform="matrix(1 0 0 -1 -367.0507 699)">
		<stop  offset="0" style="stop-color:#FF928E"/>
		<stop  offset="1" style="stop-color:#FE7062"/>
	</linearGradient>
	<path class="st26" d="M228.7,324c1.6-1.1,3.3-1.9,5.1-2.4c0.7-0.2,4.4,0.9,6.7,0.8c3.2-0.1,6.4-1.5,9-0.9c2.6,0.6,4.7,1.5,5.9,2.3
		c3.7,2.6,5.8,7.4,7.1,12.2c-2.5,2.5-5.6,3.7-5.6,3.7l-0.6,23.3l-13.8,7l-15.7-7.9l0.6-22.8c0,0-5-2.3-5.4-3.2
		C221.7,335.6,224.3,327.1,228.7,324z"/>
	
		<linearGradient id="SVGID_22_" gradientUnits="userSpaceOnUse" x1="585.9076" y1="367.6881" x2="612.0856" y2="304.4511" gradientTransform="matrix(1 0 0 -1 -367.0507 699)">
		<stop  offset="0" style="stop-color:#FEBBBA"/>
		<stop  offset="1" style="stop-color:#FF928E"/>
	</linearGradient>
	<path class="st27" d="M222.3,336.3c0,0-6.7,18.5,8.6,26.2c3.2-0.4,1.9-5.7,1.9-5.7s-6.6-1.5-4.6-16.9
		C226.3,338.3,222.3,336.3,222.3,336.3z"/>
	
		<linearGradient id="SVGID_23_" gradientUnits="userSpaceOnUse" x1="632.316" y1="367.8266" x2="606.137" y2="304.5896" gradientTransform="matrix(1 0 0 -1 -367.0507 699)">
		<stop  offset="0" style="stop-color:#FEBBBA"/>
		<stop  offset="1" style="stop-color:#FF928E"/>
	</linearGradient>
	<path class="st28" d="M262.2,336.3c0,0,4.6,19.4-8.6,26.2c-3.2-0.4-1.9-5.7-1.9-5.7s5.3-2.6,4.6-16.9
		C258.1,338.3,262.2,336.3,262.2,336.3z"/>
	
		<linearGradient id="SVGID_24_" gradientUnits="userSpaceOnUse" x1="609.1683" y1="359.5153" x2="607.8073" y2="304.4063" gradientTransform="matrix(1 0 0 -1 -367.0507 699)">
		<stop  offset="0" style="stop-color:#09005D"/>
		<stop  offset="1" style="stop-color:#1A0F91"/>
	</linearGradient>
	<path class="st29" d="M256,363.8h-28.4c-0.5,0-0.9-0.4-0.9-0.9v-18.6c0-0.5,0.4-0.9,0.9-0.9H256c0.5,0,0.9,0.4,0.9,0.9v18.6
		C256.9,363.4,256.5,363.8,256,363.8z"/>
	
		<linearGradient id="SVGID_25_" gradientUnits="userSpaceOnUse" x1="638.767" y1="315.7843" x2="624.4949" y2="336.0943" gradientTransform="matrix(1 0 0 -1 -367.0507 699)">
		<stop  offset="0" style="stop-color:#4F52FF"/>
		<stop  offset="1" style="stop-color:#4042E2"/>
	</linearGradient>
	<path class="st30" d="M270.1,369.8c-3.5-0.8-11.4-0.4-11.4-0.4l-0.3,0.9l-0.5,4.4c0,0,7.6,1.4,11.4,1.4c0.4,0,0.7-0.1,1-0.2
		c0.1-0.1,0.2-0.2,0.3-0.3C272.1,373.9,271.7,371.3,270.1,369.8z"/>
	
		<linearGradient id="SVGID_26_" gradientUnits="userSpaceOnUse" x1="634.3156" y1="352.1492" x2="619.2156" y2="311.2482" gradientTransform="matrix(1 0 0 -1 -367.0507 699)">
		<stop  offset="0" style="stop-color:#FEBBBA"/>
		<stop  offset="1" style="stop-color:#FF928E"/>
	</linearGradient>
	<path class="st31" d="M256.4,369.2l1.4,0.1c0.7,0,1.4,0.4,1.9,1c0.5,0.6,0.7,1.4,0.7,2.2c0,0.6-0.3,1.2-0.7,1.7
		c-0.4,0.4-1,0.6-1.6,0.6l-2.1-0.2L256.4,369.2z"/>
	
		<linearGradient id="SVGID_27_" gradientUnits="userSpaceOnUse" x1="579.5354" y1="317.2659" x2="587.6324" y2="335.6539" gradientTransform="matrix(1 0 0 -1 -367.0507 699)">
		<stop  offset="0" style="stop-color:#4F52FF"/>
		<stop  offset="1" style="stop-color:#4042E2"/>
	</linearGradient>
	<path class="st32" d="M210.9,369.4c3.5-0.7,11.5,0,11.5,0l0.3,0.9l0.4,4.4c0,0-7.6,1.1-11.4,1c-0.4,0-0.7-0.1-1.1-0.2
		c-0.1-0.1-0.2-0.2-0.3-0.3C208.8,373.4,209.3,370.8,210.9,369.4z"/>
	
		<linearGradient id="SVGID_28_" gradientUnits="userSpaceOnUse" x1="604.0598" y1="364.4755" x2="588.9518" y2="323.5525" gradientTransform="matrix(1 0 0 -1 -367.0507 699)">
		<stop  offset="0" style="stop-color:#FEBBBA"/>
		<stop  offset="1" style="stop-color:#FF928E"/>
	</linearGradient>
	<path class="st33" d="M224.6,369.2l-1.4,0c-0.7,0-1.4,0.3-1.9,0.9c-0.5,0.6-0.8,1.4-0.7,2.2c0,0.6,0.3,1.3,0.7,1.7
		c0.4,0.4,1,0.7,1.6,0.7l2.1-0.1L224.6,369.2z"/>
	
		<linearGradient id="SVGID_29_" gradientUnits="userSpaceOnUse" x1="534.8422" y1="263.8404" x2="580.6302" y2="303.8234" gradientTransform="matrix(1 0 0 -1 -367.0507 699)">
		<stop  offset="0" style="stop-color:#4F52FF"/>
		<stop  offset="1" style="stop-color:#4042E2"/>
	</linearGradient>
	<path class="st34" d="M271.1,356.1c-1.6-3.6-5.4-4.2-8.7-2.5c-0.1,0.1-20.7,10.7-39,15.3c0.5,1.7,0.8,3.5,0.8,5.2
		c0,0.4,0,0.8,0,1.2c14-0.7,29.2-5.4,42.2-9.5C270.5,364.5,272.8,360.1,271.1,356.1z"/>
	
		<linearGradient id="SVGID_30_" gradientUnits="userSpaceOnUse" x1="601.9976" y1="331.5485" x2="601.4506" y2="391.7355" gradientTransform="matrix(1 0 0 -1 -367.0507 699)">
		<stop  offset="0" style="stop-color:#4F52FF"/>
		<stop  offset="1" style="stop-color:#4042E2"/>
	</linearGradient>
	<path class="st35" d="M256.5,374.4c-0.1-2,0.3-3.9,1.2-5.6c0-0.1,0.1-0.2,0.1-0.2c-1-0.3-2.4-0.8-4.1-1.4
		c-12.9-4.4-22.8-8.9-32.2-14.1c-3.7-2-7.8-0.7-9,3.7c-1.1,3.9,1.3,7.2,4.7,8.3c10.4,3.5,5,2.5,8.4,3.6c9.2,2.8,20.5,5.4,31,6.1
		C256.5,374.7,256.5,374.5,256.5,374.4z"/>
	
		<linearGradient id="SVGID_31_" gradientUnits="userSpaceOnUse" x1="608.894" y1="362.4675" x2="608.546" y2="392.7745" gradientTransform="matrix(1 0 0 -1 -367.0507 699)">
		<stop  offset="0" style="stop-color:#FEBBBA"/>
		<stop  offset="1" style="stop-color:#FF928E"/>
	</linearGradient>
	<path class="st36" d="M233.8,321.7c0,0,1.4,6,8.2,5.9c6.9-0.1,7.5-5.9,7.5-5.9l-4.5-1l-0.4-5l-6.8,0.5l-0.1,4.8L233.8,321.7z"/>
	
		<linearGradient id="SVGID_32_" gradientUnits="userSpaceOnUse" x1="607.8826" y1="379.29" x2="613.1946" y2="405.144" gradientTransform="matrix(1 0 0 -1 -367.0507 699)">
		<stop  offset="0" style="stop-color:#FEBBBA"/>
		<stop  offset="1" style="stop-color:#FF928E"/>
	</linearGradient>
	<path class="st37" d="M238.8,301.5c0,0-7.8,15,1.4,18.7c6.5,2.6,10.6-10,9.3-13.4c-1.9-5.3-3.1-4.6-3.1-4.6L238.8,301.5z"/>
	
		<linearGradient id="SVGID_33_" gradientUnits="userSpaceOnUse" x1="627.7545" y1="421.5392" x2="609.3385" y2="395.3692" gradientTransform="matrix(1 0 0 -1 -367.0507 699)">
		<stop  offset="0" style="stop-color:#09005D"/>
		<stop  offset="1" style="stop-color:#1A0F91"/>
	</linearGradient>
	<path class="st38" d="M251.5,300.1c3.8,1.1,0.6,9.4-5.2,7.4c-5.8-2-8-1.9-8.9-0.4c-0.9,1.6-1.1,7.2-3,4.4c-2.1-3-3.3-9.2-0.7-11.1
		c2.3-1.8,2.9-4.5,5.7-4.4c3.7,0.1,6.6-1.5,8.3-0.3C249.5,297.1,248.6,299.3,251.5,300.1z"/>
	
		<linearGradient id="SVGID_34_" gradientUnits="userSpaceOnUse" x1="604.3669" y1="375.857" x2="600.5599" y2="417.042" gradientTransform="matrix(1 0 0 -1 -367.0507 699)">
		<stop  offset="0" style="stop-color:#FEBBBA"/>
		<stop  offset="1" style="stop-color:#FF928E"/>
	</linearGradient>
	<path class="st39" d="M237,308.4c0,0-1.7-1.8-1.9,0.4c-0.3,2.1,0.6,4.9,1.6,3.4C237.6,310.7,237,308.4,237,308.4z"/>
	<path class="st3" d="M243.6,348.9c0.2,1.1-0.4,2.1-1.5,2.2c-1.1,0.2-2.1-0.6-2.3-1.7c-0.2-1.1,0.3-2.2,1.4-2.3
		C242.3,347,243.4,347.8,243.6,348.9z"/>
	<path class="st2" d="M188.9,342.5c16.7,0,30.2-13.5,30.2-30.2c0-16.7-13.5-30.2-30.2-30.2s-30.2,13.5-30.2,30.2
		C158.7,329,172.2,342.5,188.9,342.5z"/>
	<path class="st3" d="M161.9,310.7l6.9-3.6v1.5c0,0.1,0,0.2-0.1,0.3c-0.1,0.1-0.2,0.2-0.3,0.2l-3.2,1.6c-0.1,0.1-0.3,0.1-0.4,0.2
		c-0.2,0.1-0.3,0.1-0.5,0.1c0.2,0,0.3,0.1,0.5,0.1c0.2,0.1,0.3,0.1,0.4,0.2l3.2,1.6c0.1,0.1,0.2,0.2,0.3,0.2
		c0.1,0.1,0.1,0.2,0.1,0.3v1.5l-6.9-3.6V310.7z"/>
	<path class="st3" d="M171.9,317v-12.9h2.1v5c0.3-0.3,0.7-0.6,1.1-0.8c0.4-0.2,0.9-0.3,1.5-0.3c0.5,0,0.9,0.1,1.3,0.2
		c0.4,0.2,0.7,0.4,0.9,0.7c0.2,0.3,0.4,0.7,0.6,1.1c0.1,0.4,0.2,0.9,0.2,1.4v5.7h-2.1v-5.7c0-0.5-0.1-1-0.4-1.3
		c-0.2-0.3-0.6-0.4-1.1-0.4c-0.4,0-0.7,0.1-1,0.2c-0.3,0.2-0.6,0.4-0.9,0.7v6.5H171.9z"/>
	<path class="st3" d="M184.7,317.2c-0.8,0-1.4-0.2-1.8-0.7c-0.4-0.4-0.6-1-0.6-1.8v-5h-0.9c-0.1,0-0.2,0-0.3-0.1
		c-0.1-0.1-0.1-0.2-0.1-0.3v-0.9l1.4-0.2l0.5-2.4c0-0.1,0.1-0.2,0.2-0.3c0.1-0.1,0.2-0.1,0.3-0.1h1.1v2.8h2.4v1.5h-2.4v4.8
		c0,0.3,0.1,0.5,0.2,0.6c0.1,0.2,0.3,0.2,0.6,0.2c0.1,0,0.2,0,0.3,0c0.1,0,0.2-0.1,0.2-0.1c0.1,0,0.1-0.1,0.2-0.1c0.1,0,0.1,0,0.2,0
		c0.1,0,0.1,0,0.2,0c0,0,0.1,0.1,0.1,0.1l0.6,1c-0.3,0.3-0.7,0.5-1.1,0.6C185.6,317.1,185.1,317.2,184.7,317.2z"/>
	<path class="st3" d="M188.5,317v-8.9h1.3c0.3,0,0.5,0.1,0.6,0.4l0.1,0.7c0.2-0.2,0.3-0.3,0.5-0.5c0.2-0.1,0.4-0.3,0.6-0.4
		c0.2-0.1,0.4-0.2,0.6-0.2c0.2-0.1,0.5-0.1,0.7-0.1c0.6,0,1,0.2,1.4,0.5c0.4,0.3,0.6,0.7,0.8,1.2c0.1-0.3,0.3-0.6,0.5-0.8
		c0.2-0.2,0.4-0.4,0.7-0.5c0.2-0.1,0.5-0.2,0.8-0.3c0.3-0.1,0.6-0.1,0.8-0.1c0.5,0,0.9,0.1,1.3,0.2c0.4,0.2,0.7,0.4,1,0.7
		c0.3,0.3,0.5,0.6,0.6,1.1c0.1,0.4,0.2,0.9,0.2,1.4v5.7h-2.1v-5.7c0-0.6-0.1-1-0.4-1.3c-0.2-0.3-0.6-0.4-1.1-0.4
		c-0.2,0-0.4,0-0.6,0.1c-0.2,0.1-0.4,0.2-0.5,0.3c-0.1,0.1-0.2,0.3-0.3,0.5c-0.1,0.2-0.1,0.5-0.1,0.7v5.7h-2.2v-5.7
		c0-0.6-0.1-1-0.4-1.3c-0.2-0.3-0.6-0.4-1.1-0.4c-0.3,0-0.6,0.1-0.9,0.2c-0.3,0.2-0.5,0.4-0.7,0.6v6.5L188.5,317L188.5,317z"/>
	<path class="st3" d="M205.4,304.1V317h-2.1v-12.9H205.4z"/>
	<path class="st3" d="M208.7,315.2v-1.5c0-0.1,0-0.2,0.1-0.3c0.1-0.1,0.2-0.2,0.3-0.2l3.2-1.6c0.3-0.1,0.6-0.2,0.9-0.3
		c-0.2,0-0.3-0.1-0.5-0.1c-0.2-0.1-0.3-0.1-0.4-0.2l-3.2-1.6c-0.1-0.1-0.2-0.2-0.3-0.2c-0.1-0.1-0.1-0.2-0.1-0.3v-1.5l6.9,3.6v0.9
		L208.7,315.2z"/>
	<path class="st2" d="M270.8,281.7c12.9,0,23.3-10.5,23.3-23.3c0-12.9-10.5-23.3-23.3-23.3c-12.9,0-23.3,10.5-23.3,23.3
		C247.4,271.3,257.9,281.7,270.8,281.7z"/>
	<path class="st3" d="M256.6,262.7l-5-3.1v-1.1l5-3.1v1.6l-3.5,2l3.5,2.1V262.7z"/>
	<path class="st3" d="M265.4,255.3c-0.6,0-1,0.3-1.3,1c-0.3,0.6-0.5,1.6-0.5,2.7c0,2.4,0.6,3.6,1.9,3.6c0.6,0,1.1-0.2,1.7-0.5v1.7
		c-0.5,0.3-1.2,0.5-2,0.5c-1.2,0-2.1-0.5-2.7-1.4c-0.6-0.9-0.9-2.3-0.9-3.9c0-1.7,0.3-3,1-4c0.6-1,1.5-1.4,2.7-1.4
		c0.4,0,0.7,0.1,1.1,0.2c0.3,0.1,0.7,0.3,1.1,0.6l-0.6,1.6c-0.2-0.2-0.4-0.3-0.7-0.4C265.9,255.4,265.7,255.3,265.4,255.3z"/>
	<path class="st3" d="M273.4,261.3c0,1-0.2,1.7-0.7,2.2c-0.5,0.5-1.2,0.8-2.1,0.8c-0.9,0-1.7-0.2-2.3-0.5v-1.9
		c0.8,0.5,1.5,0.8,2.2,0.8c0.4,0,0.6-0.1,0.8-0.3c0.2-0.2,0.3-0.5,0.3-0.8c0-0.3-0.1-0.7-0.3-1c-0.2-0.3-0.6-0.6-1.1-1
		c-0.4-0.3-0.8-0.6-1-0.9c-0.2-0.3-0.4-0.6-0.5-1c-0.1-0.4-0.2-0.8-0.2-1.2c0-0.9,0.2-1.6,0.7-2.1c0.5-0.5,1.2-0.8,2-0.8
		c0.8,0,1.6,0.2,2.3,0.7l-0.6,1.6c-0.2-0.1-0.5-0.2-0.7-0.4c-0.2-0.1-0.5-0.2-0.8-0.2c-0.3,0-0.6,0.1-0.7,0.3
		c-0.2,0.2-0.2,0.5-0.2,0.8c0,0.4,0.1,0.7,0.3,0.9c0.2,0.3,0.6,0.6,1.1,0.9c0.7,0.5,1.2,0.9,1.4,1.4
		C273.3,260.2,273.4,260.7,273.4,261.3z"/>
	<path class="st3" d="M279.5,261.3c0,1-0.2,1.7-0.7,2.2c-0.5,0.5-1.2,0.8-2.1,0.8c-0.9,0-1.7-0.2-2.3-0.5v-1.9
		c0.8,0.5,1.5,0.8,2.2,0.8c0.4,0,0.6-0.1,0.8-0.3c0.2-0.2,0.3-0.5,0.3-0.8c0-0.3-0.1-0.7-0.3-1c-0.2-0.3-0.6-0.6-1.1-1
		c-0.4-0.3-0.8-0.6-1-0.9c-0.2-0.3-0.4-0.6-0.5-1c-0.1-0.4-0.2-0.8-0.2-1.2c0-0.9,0.2-1.6,0.7-2.1c0.5-0.5,1.2-0.8,2-0.8
		c0.8,0,1.6,0.2,2.3,0.7l-0.6,1.6c-0.2-0.1-0.5-0.2-0.7-0.4c-0.2-0.1-0.5-0.2-0.8-0.2c-0.3,0-0.6,0.1-0.7,0.3
		c-0.2,0.2-0.2,0.5-0.2,0.8c0,0.4,0.1,0.7,0.3,0.9c0.2,0.3,0.6,0.6,1.1,0.9c0.7,0.5,1.2,0.9,1.4,1.4
		C279.3,260.2,279.5,260.7,279.5,261.3z"/>
	<path class="st3" d="M284.2,261.1l3.5-2.1l-3.5-2v-1.6l5,3.1v1.1l-5,3.1V261.1z"/>
	<path class="st2" d="M232,276.4c6.6-6.6,6.6-17.4,0-24.1c-6.6-6.6-17.4-6.6-24.1,0c-6.6,6.6-6.6,17.4,0,24.1
		C214.6,283.1,225.4,283.1,232,276.4z"/>
	<path class="st3" d="M211,264.4l4.9-2.6v1.1c0,0.1,0,0.2-0.1,0.2c0,0.1-0.1,0.1-0.2,0.2l-2.3,1.2c-0.1,0.1-0.2,0.1-0.3,0.1
		c-0.1,0-0.2,0.1-0.3,0.1c0.1,0,0.2,0.1,0.3,0.1c0.1,0,0.2,0.1,0.3,0.1l2.3,1.2c0.1,0.1,0.2,0.1,0.2,0.2c0,0.1,0.1,0.1,0.1,0.2v1.1
		l-4.9-2.6V264.4z"/>
	<path class="st3" d="M218.7,268.9c0,0.1-0.1,0.2-0.1,0.2c-0.1,0.1-0.1,0.1-0.2,0.2c-0.1,0-0.2,0.1-0.2,0.1c-0.1,0-0.2,0-0.2,0h-0.7
		l3.6-9.3c0.1-0.2,0.2-0.3,0.3-0.4c0.1-0.1,0.3-0.1,0.5-0.1h0.6L218.7,268.9z"/>
	<path class="st3" d="M223.6,267.6v-1.1c0-0.1,0-0.2,0.1-0.2s0.1-0.1,0.2-0.2l2.3-1.2c0.2-0.1,0.4-0.2,0.6-0.2
		c-0.1,0-0.2-0.1-0.3-0.1c-0.1,0-0.2-0.1-0.3-0.1l-2.3-1.2c-0.1-0.1-0.2-0.1-0.2-0.2c0-0.1-0.1-0.1-0.1-0.2v-1.1l4.9,2.6v0.6
		L223.6,267.6z"/>
	<g class="st40">
		
			<linearGradient id="SVGID_35_" gradientUnits="userSpaceOnUse" x1="688.7482" y1="603.9659" x2="467.6852" y2="398.2242" gradientTransform="matrix(1 0 0 -1 -367.0507 699)">
			<stop  offset="0" style="stop-color:#FF928E"/>
			<stop  offset="1" style="stop-color:#FE7062"/>
		</linearGradient>
		<path class="st41" d="M201.9,191.8c-0.6-0.2-0.9-0.7-0.8-1.4c0.2-1.3,0.5-2.7,0.9-4c0.2-0.6,0.8-1,1.5-0.8c0,0,0,0,0,0
			c0.6,0.2,1,0.8,0.8,1.5c-0.3,1.2-0.6,2.5-0.9,3.8c-0.1,0.6-0.7,1.1-1.4,1C202,191.8,201.9,191.8,201.9,191.8z M204.9,181.8
			c0,0-0.1,0-0.1,0c-0.6-0.3-0.9-1-0.6-1.6c0.5-1.2,1.1-2.5,1.7-3.7c0.3-0.6,1-0.8,1.6-0.5c0.6,0.3,0.8,1,0.5,1.6
			c-0.6,1.1-1.2,2.3-1.7,3.5C206.1,181.7,205.5,182,204.9,181.8z M210,172.8c-0.1,0-0.2-0.1-0.4-0.2c-0.5-0.4-0.6-1.1-0.3-1.7
			c0.8-1.1,1.6-2.2,2.5-3.2c0.4-0.5,1.2-0.6,1.7-0.1c0.5,0.4,0.6,1.2,0.1,1.7c-0.8,1-1.6,2-2.4,3C211,172.8,210.5,172.9,210,172.8z
			 M217,165.1c-0.2-0.1-0.4-0.2-0.6-0.4c-0.4-0.5-0.4-1.2,0.1-1.7c1-0.9,2.1-1.7,3.2-2.5c0.5-0.4,1.3-0.3,1.7,0.3
			c0.4,0.5,0.3,1.3-0.3,1.7c-1,0.8-2,1.6-3,2.4C217.8,165.2,217.4,165.2,217,165.1z M225.5,159.2c-0.3-0.1-0.6-0.3-0.7-0.6
			c-0.3-0.6-0.1-1.3,0.5-1.6c1.2-0.6,2.4-1.2,3.6-1.8c0.6-0.3,1.3,0,1.6,0.6s0,1.3-0.6,1.6c-1.2,0.5-2.3,1.1-3.5,1.7
			C226.1,159.3,225.8,159.3,225.5,159.2z M235.1,155.3c-0.4-0.1-0.7-0.4-0.8-0.8c-0.2-0.6,0.2-1.3,0.8-1.5c1.3-0.4,2.6-0.7,4-0.9
			c0.7-0.1,1.3,0.3,1.4,1c0.1,0.6-0.3,1.3-1,1.4c-1.3,0.2-2.5,0.5-3.8,0.9C235.6,155.4,235.3,155.4,235.1,155.3z M277.8,164.9
			c-0.2,0-0.3-0.1-0.4-0.2c-1-0.8-2-1.6-3-2.4c-0.5-0.4-0.6-1.1-0.3-1.7c0.4-0.5,1.1-0.6,1.7-0.3c1.1,0.8,2.2,1.6,3.2,2.5
			c0.5,0.4,0.6,1.2,0.1,1.7C278.7,164.9,278.3,165,277.8,164.9z M245.4,153.7c-0.5-0.1-0.8-0.6-0.9-1.1c0-0.7,0.5-1.2,1.1-1.2
			c1.3-0.1,2.7-0.1,4.1,0c0.7,0,1.2,0.6,1.1,1.2c0,0.7-0.6,1.2-1.2,1.1c-1.3-0.1-2.6,0-3.9,0C245.6,153.7,245.5,153.7,245.4,153.7z
			 M269.2,159.1c-0.1,0-0.2-0.1-0.2-0.1c-1.1-0.6-2.3-1.2-3.5-1.7c-0.6-0.3-0.9-1-0.6-1.6c0.3-0.6,1-0.9,1.6-0.6
			c1.2,0.5,2.5,1.1,3.7,1.7c0.6,0.3,0.8,1,0.5,1.6C270.4,159,269.8,159.2,269.2,159.1z M255.7,154.4c-0.6-0.2-0.9-0.7-0.8-1.4
			c0.1-0.6,0.7-1.1,1.4-1c1.3,0.2,2.7,0.5,4,0.9c0,0,0,0,0,0c0.6,0.2,1,0.8,0.8,1.5c-0.2,0.6-0.8,1-1.5,0.8
			c-1.2-0.3-2.5-0.6-3.8-0.8C255.8,154.4,255.8,154.4,255.7,154.4z"/>
		
			<linearGradient id="SVGID_36_" gradientUnits="userSpaceOnUse" x1="707.863" y1="583.4278" x2="486.8" y2="377.6851" gradientTransform="matrix(1 0 0 -1 -367.0507 699)">
			<stop  offset="0" style="stop-color:#FF928E"/>
			<stop  offset="1" style="stop-color:#FE7062"/>
		</linearGradient>
		<path class="st42" d="M283.6,170.9c-0.2-0.1-0.4-0.2-0.6-0.4c-0.4-0.5-0.8-1-1.2-1.4c-0.4-0.5-0.4-1.2,0.1-1.7
			c0.5-0.4,1.2-0.4,1.7,0.1c0.4,0.5,0.9,1,1.3,1.5c0.4,0.5,0.3,1.3-0.2,1.7C284.4,171,284,171,283.6,170.9z"/>
	</g>
	<g class="st40">
		
			<linearGradient id="SVGID_37_" gradientUnits="userSpaceOnUse" x1="730.1107" y1="559.5233" x2="509.0477" y2="353.7824" gradientTransform="matrix(1 0 0 -1 -367.0507 699)">
			<stop  offset="0" style="stop-color:#FF928E"/>
			<stop  offset="1" style="stop-color:#FE7062"/>
		</linearGradient>
		<path class="st43" d="M293.6,205.8c-0.6-0.2-0.9-0.7-0.8-1.3c0.1-0.6,0.1-1.2,0.2-1.8c0.1-0.7,0.6-1.1,1.3-1.1
			c0.7,0.1,1.1,0.6,1.1,1.3c-0.1,0.6-0.1,1.3-0.2,1.9c-0.1,0.6-0.7,1.1-1.3,1C293.7,205.9,293.6,205.9,293.6,205.8z"/>
		
			<linearGradient id="SVGID_38_" gradientUnits="userSpaceOnUse" x1="723.0341" y1="567.1273" x2="501.9711" y2="361.3853" gradientTransform="matrix(1 0 0 -1 -367.0507 699)">
			<stop  offset="0" style="stop-color:#FF928E"/>
			<stop  offset="1" style="stop-color:#FE7062"/>
		</linearGradient>
		<path class="st44" d="M234.5,244.6c-0.5-0.2-1.1-0.3-1.6-0.5c-0.6-0.2-1-0.9-0.8-1.5c0.2-0.6,0.9-1,1.5-0.8c1.2,0.4,2.4,0.7,3.6,1
			c0.6,0.2,1,0.8,0.9,1.4c-0.2,0.6-0.8,1-1.4,0.9C236,245,235.3,244.8,234.5,244.6z M227.1,241.7c-0.1,0-0.1,0-0.2-0.1
			c-1.2-0.6-2.4-1.2-3.5-1.9c-0.6-0.3-0.7-1.1-0.4-1.6s1.1-0.7,1.6-0.4c1.1,0.6,2.2,1.3,3.3,1.8c0.6,0.3,0.8,1,0.6,1.6
			C228.3,241.6,227.7,241.9,227.1,241.7z M243,246.2c-0.5-0.2-0.9-0.7-0.8-1.3c0.1-0.6,0.6-1.1,1.3-1.1c1.3,0.1,2.5,0.2,3.8,0.2
			c0.7,0,1.2,0.6,1.2,1.2c0,0.7-0.6,1.2-1.2,1.2c-1.3,0-2.7-0.1-4-0.2C243.1,246.2,243,246.2,243,246.2z M218.5,236.2
			c-0.1,0-0.3-0.1-0.4-0.2c-1-0.8-2-1.7-3-2.6c-0.5-0.5-0.5-1.2,0-1.7c0.5-0.5,1.2-0.5,1.7,0c0.9,0.9,1.9,1.7,2.9,2.5
			c0.5,0.4,0.6,1.2,0.2,1.7C219.5,236.2,218.9,236.4,218.5,236.2z M253.2,246.1c-0.4-0.1-0.8-0.5-0.8-1c-0.1-0.6,0.4-1.2,1-1.3
			c1.2-0.2,2.5-0.4,3.7-0.6c0.6-0.1,1.3,0.3,1.4,0.9c0.1,0.6-0.3,1.3-0.9,1.4c-1.3,0.3-2.6,0.5-3.9,0.7
			C253.5,246.1,253.3,246.1,253.2,246.1z M263.1,243.7c-0.4-0.1-0.6-0.4-0.8-0.7c-0.2-0.6,0.1-1.3,0.7-1.5c1.2-0.4,2.4-0.9,3.5-1.4
			c0.6-0.3,1.3,0,1.6,0.6c0.3,0.6,0,1.3-0.6,1.6c-1.2,0.6-2.5,1.1-3.7,1.5C263.6,243.8,263.3,243.8,263.1,243.7z M272.3,239.3
			c-0.3-0.1-0.5-0.2-0.7-0.5c-0.3-0.6-0.2-1.3,0.4-1.6c1.1-0.7,2.1-1.4,3.1-2.2c0.5-0.4,1.3-0.3,1.7,0.2c0.4,0.5,0.3,1.3-0.2,1.7
			c-1.1,0.8-2.2,1.6-3.3,2.3C273,239.3,272.6,239.4,272.3,239.3z M280.3,232.9c-0.2-0.1-0.4-0.2-0.5-0.3c-0.5-0.5-0.5-1.2,0-1.7
			c0.9-0.9,1.8-1.8,2.6-2.8c0.4-0.5,1.2-0.6,1.7-0.1c0.5,0.4,0.6,1.2,0.1,1.7c-0.9,1-1.8,2-2.7,2.9
			C281.1,232.9,280.7,233,280.3,232.9z M286.7,224.9c-0.1,0-0.2-0.1-0.3-0.1c-0.6-0.4-0.7-1.1-0.4-1.6c0.7-1.1,1.3-2.2,1.9-3.3
			c0.3-0.6,1-0.8,1.6-0.5c0.6,0.3,0.8,1,0.5,1.6c-0.6,1.2-1.3,2.3-2,3.5C287.7,224.9,287.2,225.1,286.7,224.9z M291.2,215.8
			C291.1,215.8,291.1,215.8,291.2,215.8c-0.7-0.2-1-0.9-0.8-1.5c0.3-0.9,0.6-1.8,0.9-2.7c0.1-0.3,0.2-0.6,0.3-1
			c0.2-0.6,0.8-1,1.5-0.8c0.6,0.2,1,0.8,0.8,1.5c-0.1,0.3-0.2,0.7-0.3,1c-0.3,0.9-0.6,1.9-0.9,2.8
			C292.4,215.6,291.8,215.9,291.2,215.8z"/>
		
			<linearGradient id="SVGID_39_" gradientUnits="userSpaceOnUse" x1="703.2374" y1="588.3974" x2="482.1754" y2="382.6563" gradientTransform="matrix(1 0 0 -1 -367.0507 699)">
			<stop  offset="0" style="stop-color:#FF928E"/>
			<stop  offset="1" style="stop-color:#FE7062"/>
		</linearGradient>
		<path class="st45" d="M211.3,229c-0.2-0.1-0.4-0.2-0.6-0.4c-0.4-0.5-0.8-1-1.2-1.5c-0.4-0.5-0.3-1.3,0.3-1.7
			c0.5-0.4,1.3-0.3,1.7,0.3c0.4,0.5,0.7,1,1.1,1.5c0.4,0.5,0.3,1.3-0.2,1.7C212,229,211.6,229.1,211.3,229z"/>
	</g>
	
		<linearGradient id="SVGID_40_" gradientUnits="userSpaceOnUse" x1="706.17" y1="585.2474" x2="485.107" y2="379.5061" gradientTransform="matrix(1 0 0 -1 -367.0507 699)">
		<stop  offset="0" style="stop-color:#FF928E"/>
		<stop  offset="1" style="stop-color:#FE7062"/>
	</linearGradient>
	<path class="st46" d="M216.7,216.2c0.1,0.2,0.3,0.4,0.6,0.3l6.8-0.5c1.9,2.6,4.1,4.8,6.8,6.7l-0.4,6.8c0,0.2,0.1,0.5,0.3,0.5
		l7.5,3.1c0.2,0.1,0.5,0,0.6-0.2l4.4-5.1c3.2,0.5,6.4,0.5,9.6-0.1l4.5,5c0.2,0.2,0.4,0.2,0.6,0.1l7.5-3.2c0.2-0.1,0.4-0.3,0.3-0.6
		l-0.5-6.8c2.6-1.9,4.8-4.1,6.7-6.8l6.8,0.4c0.2,0,0.5-0.1,0.5-0.3l3.1-7.5c0.1-0.2,0-0.5-0.2-0.6l-5.1-4.5c0.5-3.2,0.5-6.4-0.1-9.6
		l5-4.5c0.2-0.2,0.2-0.4,0.1-0.6l-3.2-7.5c-0.1-0.2-0.3-0.4-0.6-0.3l-6.8,0.5c-1.9-2.6-4.1-4.8-6.8-6.7l0.4-6.8
		c0-0.2-0.1-0.5-0.3-0.5l-7.5-3.1c-0.2-0.1-0.5,0-0.6,0.2l-4.5,5.1c-3.2-0.5-6.4-0.5-9.6,0.1l-4.5-5c-0.2-0.2-0.4-0.2-0.6-0.1
		l-7.5,3.2c-0.2,0.1-0.4,0.3-0.3,0.6l0.5,6.8c-2.6,1.9-4.8,4.1-6.7,6.8L217,181c-0.2,0-0.5,0.1-0.5,0.3l-3.1,7.5
		c-0.1,0.2,0,0.5,0.2,0.6l5.1,4.5c-0.5,3.2-0.5,6.4,0.1,9.6l-5,4.5c-0.2,0.2-0.2,0.4-0.1,0.6L216.7,216.2z"/>
	<path class="st47" d="M245.7,206.4c-3.8-1.1-6.4-4.9-5.8-9c0.6-4.5,4.8-7.6,9.2-7c2.2,0.3,4.1,1.4,5.4,3.2c1.3,1.7,1.9,3.9,1.6,6.1
		c-0.6,4.5-4.8,7.6-9.2,7C246.5,206.6,246.1,206.5,245.7,206.4z M249.8,192.5c-0.3-0.1-0.6-0.2-0.9-0.2c-3.4-0.5-6.6,1.9-7.1,5.3
		c-0.5,3.4,1.9,6.6,5.3,7.1c3.4,0.5,6.6-1.9,7.1-5.3c0.2-1.7-0.2-3.3-1.2-4.6C252.2,193.7,251.1,192.9,249.8,192.5z"/>
	<path class="st47" d="M242.5,217.8c-0.7-0.2-1.3-0.4-1.9-0.7c-0.2-0.1-0.4-0.2-0.6-0.3c-1-0.4-1.9-1-2.8-1.5c0,0,0,0,0,0
		c0,0-0.1,0-0.1-0.1c-0.1,0-0.1-0.1-0.2-0.1c-0.2-0.1-0.2-0.3-0.2-0.5c0,0,0-0.1,0.1-0.1c0.2-0.2,0.4-0.3,0.7-0.1
		c1.1,0.8,2.3,1.4,3.6,1.9c6.3,2.6,13.1,1.5,18.3-2.1c2.9-2,5.2-4.9,6.6-8.4c0.2-0.6,0.5-1.2,0.6-1.9c1.2-4.2,1-8.7-0.7-12.8
		c-2-4.7-5.7-8.4-10.4-10.3c-9.8-4-21,0.7-24.9,10.5c-0.2,0.6-0.5,1.2-0.6,1.8c-0.8,2.7-1,5.5-0.6,8.3c0,0.1,0,0.1,0,0.2
		c-0.1,0.2-0.2,0.3-0.4,0.3c-0.3,0-0.5-0.1-0.5-0.4c-0.5-2.9-0.2-5.9,0.6-8.7c0.2-0.6,0.4-1.3,0.7-1.9c4.2-10.3,15.9-15.2,26.2-11
		c5,2,8.9,5.9,10.9,10.8c1.8,4.3,2.1,9,0.8,13.4c-0.2,0.7-0.4,1.3-0.7,1.9c-2,5-5.9,8.9-10.8,10.9
		C251.6,218.8,247,219.1,242.5,217.8z"/>
	<g class="st40">
		
			<linearGradient id="SVGID_41_" gradientUnits="userSpaceOnUse" x1="667.7858" y1="626.4886" x2="446.7231" y2="420.7474" gradientTransform="matrix(1 0 0 -1 -367.0507 699)">
			<stop  offset="0" style="stop-color:#FF928E"/>
			<stop  offset="1" style="stop-color:#FE7062"/>
		</linearGradient>
		<path class="st48" d="M154.1,210.4c-0.3-0.1-0.5-0.4-0.5-0.7c0-0.6,0-1.3,0.1-1.9c0-0.4,0.4-0.7,0.8-0.7c0.4,0,0.7,0.4,0.7,0.8
			c0,0.6-0.1,1.2-0.1,1.8c0,0.4-0.3,0.7-0.7,0.7C154.2,210.5,154.1,210.5,154.1,210.4z"/>
		
			<linearGradient id="SVGID_42_" gradientUnits="userSpaceOnUse" x1="668.3431" y1="625.8914" x2="447.2799" y2="420.1502" gradientTransform="matrix(1 0 0 -1 -367.0507 699)">
			<stop  offset="0" style="stop-color:#FF928E"/>
			<stop  offset="1" style="stop-color:#FE7062"/>
		</linearGradient>
		<path class="st49" d="M154.6,204.8c-0.4-0.1-0.6-0.5-0.5-0.8c0.2-1.1,0.4-2.1,0.7-3.2c0.1-0.2,0.1-0.4,0.2-0.6
			c0.1-0.4,0.6-0.6,0.9-0.5c0.4,0.1,0.6,0.5,0.5,0.9c-0.1,0.2-0.1,0.4-0.2,0.6c-0.3,1-0.5,2-0.7,3
			C155.4,204.6,155,204.9,154.6,204.8C154.6,204.8,154.6,204.8,154.6,204.8z M156.9,197.5C156.8,197.5,156.8,197.5,156.9,197.5
			c-0.5-0.2-0.6-0.6-0.5-1c0.5-1.2,1.2-2.3,1.8-3.5c0.2-0.3,0.7-0.5,1-0.2c0.3,0.2,0.5,0.7,0.2,1c-0.7,1.1-1.2,2.2-1.8,3.3
			C157.6,197.5,157.2,197.6,156.9,197.5z M160.9,191c-0.1,0-0.2-0.1-0.2-0.1c-0.3-0.2-0.4-0.7-0.1-1c0.8-1,1.7-2,2.6-2.9
			c0.3-0.3,0.8-0.3,1,0c0.3,0.3,0.3,0.8,0,1c-0.9,0.9-1.7,1.8-2.5,2.8C161.5,191,161.2,191.1,160.9,191z M166.4,185.7
			c-0.1,0-0.3-0.1-0.4-0.3c-0.2-0.3-0.2-0.8,0.1-1c1-0.8,2.1-1.5,3.3-2.2c0.3-0.2,0.8-0.1,1,0.3c0.2,0.3,0.1,0.8-0.3,1
			c-1.1,0.6-2.1,1.3-3.1,2.1C166.8,185.7,166.6,185.8,166.4,185.7z M173,181.9c-0.2-0.1-0.4-0.2-0.5-0.4c-0.2-0.4,0-0.8,0.4-1
			c1.2-0.5,2.4-1,3.7-1.3c0.4-0.1,0.8,0.1,0.9,0.5c0.1,0.4-0.1,0.8-0.5,0.9c-1.2,0.3-2.4,0.8-3.5,1.2
			C173.3,181.9,173.1,181.9,173,181.9z M180.3,179.8c-0.3-0.1-0.5-0.3-0.5-0.6c-0.1-0.4,0.2-0.8,0.6-0.8c1.3-0.2,2.6-0.3,3.9-0.4
			c0.4,0,0.7,0.3,0.8,0.7c0,0.4-0.3,0.7-0.7,0.8c-1.2,0-2.5,0.2-3.7,0.3C180.5,179.8,180.4,179.8,180.3,179.8z M187.9,179.5
			c-0.3-0.1-0.6-0.4-0.5-0.8c0-0.4,0.4-0.7,0.8-0.7c1.3,0.1,2.6,0.3,3.9,0.6c0.4,0.1,0.6,0.5,0.6,0.9c-0.1,0.4-0.5,0.6-0.9,0.6
			c-1.2-0.3-2.5-0.5-3.7-0.6C188,179.5,188,179.5,187.9,179.5z M198.9,182.6c0,0-0.1,0-0.1,0c-1-0.5-2-0.9-3-1.3
			c-0.2-0.1-0.3-0.1-0.5-0.2c-0.4-0.1-0.6-0.6-0.5-0.9c0.1-0.4,0.6-0.6,0.9-0.5c0.2,0.1,0.3,0.1,0.5,0.2c1.1,0.4,2.1,0.8,3.1,1.3
			c0.4,0.2,0.5,0.6,0.3,1C199.6,182.6,199.3,182.7,198.9,182.6z"/>
	</g>
	<g class="st40">
		
			<linearGradient id="SVGID_43_" gradientUnits="userSpaceOnUse" x1="693.8963" y1="598.4352" x2="472.8333" y2="392.6938" gradientTransform="matrix(1 0 0 -1 -367.0507 699)">
			<stop  offset="0" style="stop-color:#FF928E"/>
			<stop  offset="1" style="stop-color:#FE7062"/>
		</linearGradient>
		<path class="st50" d="M176.8,240.3c-0.4-0.1-0.6-0.5-0.5-0.9c0.1-0.4,0.5-0.6,0.9-0.5c1.2,0.3,2.4,0.6,3.6,0.8
			c0.4,0.1,0.7,0.4,0.6,0.8c-0.1,0.4-0.4,0.7-0.8,0.6C179.3,240.9,178,240.7,176.8,240.3z M173.2,239.1
			C173.2,239.1,173.2,239.1,173.2,239.1c-1.3-0.5-2.4-1.1-3.5-1.7c-0.4-0.2-0.5-0.7-0.3-1c0.2-0.4,0.6-0.5,1-0.3
			c1.1,0.6,2.2,1.1,3.3,1.6c0.4,0.2,0.6,0.6,0.4,1C174,239,173.6,239.2,173.2,239.1z M184.2,241.5c-0.3-0.1-0.5-0.4-0.5-0.7
			c0-0.4,0.3-0.7,0.8-0.7c1.2,0,2.5,0,3.7-0.1c0.4,0,0.8,0.3,0.8,0.7c0,0.4-0.3,0.8-0.7,0.8c-1.3,0.1-2.6,0.2-3.9,0.1
			C184.3,241.5,184.3,241.5,184.2,241.5z M166.7,235.4c-0.1,0-0.2-0.1-0.2-0.1c-1-0.8-2-1.6-3-2.5c-0.3-0.3-0.3-0.7,0-1
			c0.3-0.3,0.7-0.3,1,0c0.9,0.8,1.8,1.6,2.8,2.4c0.3,0.2,0.4,0.7,0.2,1C167.3,235.4,167,235.5,166.7,235.4z M191.7,240.8
			c-0.2-0.1-0.5-0.3-0.5-0.6c-0.1-0.4,0.2-0.8,0.6-0.9c1.2-0.3,2.4-0.6,3.5-1c0.4-0.1,0.8,0.1,0.9,0.5c0.1,0.4-0.1,0.8-0.5,0.9
			c-1.2,0.4-2.5,0.8-3.7,1.1C191.9,240.8,191.8,240.8,191.7,240.8z M198.8,238.3c-0.2-0.1-0.4-0.2-0.5-0.4c-0.2-0.4,0-0.8,0.3-1
			c1.1-0.5,2.2-1.1,3.2-1.8c0.3-0.2,0.8-0.1,1,0.2c0.2,0.3,0.1,0.8-0.2,1c-1.1,0.7-2.2,1.3-3.3,1.9
			C199.1,238.3,198.9,238.3,198.8,238.3z M205.1,234.2c-0.1,0-0.3-0.1-0.4-0.2c-0.3-0.3-0.2-0.8,0.1-1c0.9-0.8,1.8-1.6,2.7-2.5
			c0.3-0.3,0.7-0.3,1,0c0.3,0.3,0.3,0.7,0,1c-0.9,0.9-1.8,1.8-2.8,2.7C205.6,234.2,205.3,234.3,205.1,234.2z"/>
		
			<linearGradient id="SVGID_44_" gradientUnits="userSpaceOnUse" x1="680.796" y1="612.5093" x2="459.7331" y2="406.7689" gradientTransform="matrix(1 0 0 -1 -367.0507 699)">
			<stop  offset="0" style="stop-color:#FF928E"/>
			<stop  offset="1" style="stop-color:#FE7062"/>
		</linearGradient>
		<path class="st51" d="M161.2,230.2c-0.1,0-0.3-0.1-0.4-0.2c-0.4-0.5-0.8-1-1.2-1.5c-0.2-0.3-0.2-0.8,0.2-1c0.3-0.2,0.8-0.2,1,0.2
			c0.3,0.5,0.7,1,1.1,1.4c0.3,0.3,0.2,0.8-0.1,1C161.7,230.3,161.4,230.3,161.2,230.2z"/>
	</g>
	
		<linearGradient id="SVGID_45_" gradientUnits="userSpaceOnUse" x1="682.5743" y1="610.5995" x2="461.5119" y2="404.8582" gradientTransform="matrix(1 0 0 -1 -367.0507 699)">
		<stop  offset="0" style="stop-color:#FF928E"/>
		<stop  offset="1" style="stop-color:#FE7062"/>
	</linearGradient>
	<path class="st52" d="M164.4,221.3c0.1,0.2,0.2,0.2,0.4,0.2l4.5-0.3c1.2,1.7,2.8,3.2,4.5,4.5l-0.2,4.5c0,0.2,0.1,0.3,0.2,0.4l5,2
		c0.2,0.1,0.3,0,0.4-0.1l3-3.4c2.2,0.3,4.3,0.3,6.4,0l3,3.4c0.1,0.1,0.3,0.2,0.4,0.1l5-2.1c0.2-0.1,0.2-0.2,0.2-0.4l-0.3-4.5
		c1.7-1.2,3.2-2.8,4.5-4.5l4.5,0.2c0.2,0,0.3-0.1,0.4-0.2l2-5c0.1-0.2,0-0.3-0.1-0.4l-3.4-3c0.3-2.2,0.3-4.3,0-6.4l3.4-3
		c0.1-0.1,0.2-0.3,0.1-0.4l-2.1-5c-0.1-0.2-0.2-0.2-0.4-0.2l-4.5,0.3c-1.2-1.7-2.8-3.2-4.5-4.5l0.2-4.5c0-0.2-0.1-0.3-0.2-0.4l-5-2
		c-0.2-0.1-0.3,0-0.4,0.1l-3,3.4c-2.2-0.3-4.3-0.3-6.4,0l-3-3.4c-0.1-0.1-0.3-0.2-0.4-0.1l-5,2.1c-0.2,0.1-0.2,0.2-0.2,0.4l0.3,4.5
		c-1.7,1.2-3.2,2.8-4.5,4.5l-4.5-0.2c-0.2,0-0.3,0.1-0.4,0.2l-2,5c-0.1,0.2,0,0.3,0.1,0.4l3.4,3c-0.3,2.2-0.3,4.3,0,6.4l-3.4,3
		c-0.1,0.1-0.2,0.3-0.1,0.4L164.4,221.3z"/>
	<path class="st47" d="M183.8,214.8c-1.1-0.3-2.1-1-2.9-2c-0.9-1.2-1.3-2.7-1.1-4.1c0.4-3,3.2-5.2,6.3-4.7c3,0.4,5.2,3.2,4.7,6.3
		c-0.2,1.5-1,2.8-2.2,3.7c-1.2,0.9-2.7,1.3-4.1,1.1C184.4,215,184.1,214.9,183.8,214.8z M186.6,205.6c-0.2-0.1-0.4-0.1-0.6-0.1
		c-2.2-0.3-4.3,1.3-4.6,3.5c-0.2,1.1,0.1,2.2,0.8,3c0.7,0.9,1.6,1.4,2.7,1.6c1.1,0.2,2.2-0.1,3-0.8c0.9-0.7,1.4-1.6,1.6-2.7
		C189.7,208,188.5,206.1,186.6,205.6z"/>
	<path class="st47" d="M181.6,222.7c-0.4-0.1-0.9-0.3-1.3-0.5c-0.9-0.4-1.7-0.8-2.5-1.3c0,0-0.1,0-0.1-0.1c-0.3-0.2-0.4-0.5-0.3-0.8
		c0-0.1,0.1-0.1,0.1-0.2c0.2-0.3,0.7-0.4,1-0.2c0.7,0.5,1.5,0.9,2.3,1.2c0,0,0.1,0,0.1,0.1c1.9,0.8,4,1,6,0.8
		c1.1-0.1,2.2-0.4,3.2-0.8c0,0,0,0,0,0c0,0,0.1,0,0.1,0c3.1-1.3,5.4-3.7,6.7-6.7c0.2-0.4,0.3-0.8,0.4-1.2c0.8-2.7,0.6-5.6-0.5-8.3
		c-1.3-3.1-3.7-5.4-6.7-6.7c-3.1-1.2-6.4-1.2-9.5,0.1c-3.1,1.3-5.4,3.7-6.7,6.7c-0.2,0.4-0.3,0.8-0.4,1.2c-0.5,1.7-0.6,3.6-0.4,5.4
		c0,0.1,0,0.2,0,0.3c-0.1,0.3-0.3,0.5-0.6,0.5c-0.4,0.1-0.8-0.2-0.8-0.6c-0.3-2-0.2-4.1,0.4-6c0.1-0.5,0.3-0.9,0.5-1.3
		c1.4-3.4,4-6.1,7.4-7.5c3.4-1.4,7.2-1.5,10.6-0.1c3.4,1.4,6.1,4,7.5,7.4c1.3,3,1.4,6.2,0.5,9.3c-0.1,0.5-0.3,0.9-0.5,1.3
		C195.6,221.3,188.3,224.7,181.6,222.7z"/>
</g>
</svg>
