<?xml version="1.0" encoding="utf-8"?>
<!-- Generator: Adobe Illustrator 25.2.1, SVG Export Plug-In . SVG Version: 6.00 Build 0)  -->
<svg version="1.1" id="Layer_1" xmlns="http://www.w3.org/2000/svg" xmlns:xlink="http://www.w3.org/1999/xlink" x="0px" y="0px"
	 width="252.1px" height="509px" viewBox="0 0 252.1 509" style="enable-background:new 0 0 252.1 509;" xml:space="preserve">
<style type="text/css">
	.st0{fill:#BACCD1;stroke:#F5F5F5;stroke-width:1.2112;}
	.st1{fill:#0D51D9;}
	.st2{fill:#D9E2ED;}
	.st3{fill:#F4F4F6;}
	.st4{fill:#FF9675;}
	.st5{opacity:0.5;fill:#7CB2AB;enable-background:new    ;}
	.st6{fill:#7CB2AB;}
	.st7{fill:#A1C5FF;}
</style>
<g>
	<path class="st0" d="M78,145.6l0.5,0.3l0.3-0.5L85,136c0.8-1.2,0.5-2.8-0.8-3.6l-65.8-43c-1.2-0.8-2.8-0.4-3.6,0.8l-6.1,9.4
		L8.4,100l0.5,0.3L78,145.6z M7.3,102.7l-0.5-0.3l-0.3,0.5L-19.1,142c-0.8,1.2-0.4,2.8,0.8,3.6l65.8,43c1.2,0.8,2.8,0.5,3.6-0.8
		l25.6-39.2l0.3-0.5l-0.5-0.3L7.3,102.7z M20,87l65.8,43c2.5,1.6,3.2,5,1.6,7.5l-33.9,51.9c-1.6,2.5-5,3.2-7.5,1.6l-65.8-43
		c-2.5-1.6-3.2-5-1.6-7.5l33.9-51.9C14.1,86.1,17.5,85.4,20,87z"/>
	<path class="st0" d="M61.5,126.4c-0.8,1.2-2.3,1.5-3.4,0.7c-1.2-0.8-1.5-2.3-0.7-3.4c0.8-1.2,2.3-1.5,3.4-0.7
		C62,123.7,62.3,125.2,61.5,126.4z"/>
	<path class="st0" d="M69.5,131.5c-0.8,1.2-2.3,1.5-3.4,0.7c-1.2-0.8-1.5-2.3-0.7-3.4c0.8-1.2,2.3-1.5,3.4-0.7
		C69.9,128.8,70.2,130.4,69.5,131.5z"/>
	<path class="st0" d="M77.4,136.7c-0.8,1.2-2.3,1.5-3.4,0.7c-1.2-0.8-1.5-2.3-0.7-3.4c0.8-1.2,2.3-1.5,3.4-0.7
		C77.8,134,78.1,135.6,77.4,136.7z"/>
	<path class="st0" d="M34.3,151.9l0.7,0l5-0.2L34.3,151.9z M34.3,151.9l0.1,0.7 M34.3,151.9l0.1,0.7 M34.5,152.6l1.9,8.9l0,0
		c0.1,0.4,0,0.7-0.2,1.1c-0.2,0.3-0.5,0.5-0.9,0.6l-5.7,1.2h0c-0.4,0.1-0.7,0-1.1-0.2c-0.3-0.2-0.5-0.5-0.6-0.9l-1.9-8.9l-0.1-0.7
		l-0.7,0.3l-4.6,1.8l0.2,0.6 M34.5,152.6l-9,2.5 M25.5,155.1L25.5,155.1l-0.1-0.6l-0.6,0.1l0,0.1l-4,1.6 M25.5,155.1l1.7,8.3
		c0.1,0.5,0.4,1,0.9,1.3c0.4,0.3,1,0.4,1.5,0.3L25.5,155.1z M20.8,156.3c-0.7,0.3-1.4,0.1-2-0.3 M20.8,156.3l-0.2-0.6 M18.8,156
		l1.8-0.3 M18.8,156c-0.6-0.5-0.8-1.2-0.7-1.9 M18.8,156l0.4-0.5c0,0,0,0,0,0 M18.8,156l0.4-0.5c0,0,0,0,0,0 M18.8,156l-0.7-1.9
		 M20.6,155.7c-0.5,0.2-1,0.1-1.4-0.2 M20.6,155.7l-1.4-0.2 M19.2,155.5c-0.4-0.3-0.6-0.8-0.5-1.3l0,0l4.5-28.3l-0.6-0.1
		 M19.2,155.5l20.9-3.9c0.5,0,1-0.3,1.2-0.8c0.2-0.4,0.2-1-0.1-1.4v0l-15.5-24.2l0,0c-0.3-0.5-0.9-0.7-1.5-0.6l0,0l0,0
		c-0.6,0.1-1,0.6-1.1,1.2v0l-0.6-0.1 M22.5,125.8l-4.5,28.3 M22.5,125.8c0.1-0.8,0.8-1.5,1.6-1.7l-6,30 M30.3,161.2l-0.1-0.6
		l-1.9-9.2v0c-0.1-0.4-0.3-0.7-0.6-0.9c0,0-0.1,0-0.1-0.1l0,0l0,0c-0.4-0.2-0.8-0.2-1.2-0.1c0,0,0,0,0,0l-3.6,1.4l-1,0.4l0.2-1
		l3.1-19.6l0.2-1.6l0.9,1.3L36.9,148l0.6,0.9l-1.1,0l-3.8,0.1L30.3,161.2z M30.3,161.2l0.6-0.1 M30.3,161.2l0.6-0.1 M30.9,161.1
		l1.8-0.4l0.6-0.1l-0.1-0.6l-1.9-9.2v0 M30.9,161.1l0.3-10.3 M31.2,150.8c-0.1-0.4,0-0.8,0.3-1.2c0.3-0.3,0.6-0.5,1.1-0.5
		L31.2,150.8z"/>
</g>
<g>
	<path class="st1" d="M232.5,497.4H87.2c-4.1,0-7.4-3.3-7.4-7.4v-95.3c0-4.1,3.3-7.4,7.4-7.4h145.4c4.1,0,7.4,3.3,7.4,7.4V490
		C240,494.1,236.6,497.4,232.5,497.4z"/>
	<path class="st2" d="M232.9,396.5h-146v91.6h146V396.5z"/>
	<path class="st3" d="M159.9,393.9c1.1,0,2-0.9,2-2s-0.9-2-2-2s-2,0.9-2,2S158.8,393.9,159.9,393.9z"/>
	<path class="st1" d="M245.4,508.7h-171c-3.7,0-6.7-3-6.7-6.7v-4.2h184.5v4.2C252.1,505.8,249.1,508.7,245.4,508.7z"/>
	<path class="st3" d="M172.1,500.9h-24.4c-0.8,0-1.3-0.6-1.3-1.3v-1.6h27.1v1.6C173.4,500.3,172.8,500.9,172.1,500.9z"/>
	<path class="st4" d="M232.9,396.5h-146v9.4h146V396.5z"/>
	<path class="st3" d="M182,416.9h-39v24.1h39V416.9z"/>
	<path class="st3" d="M227.3,441.1h-39c0,0,0-4.1,0-4.1c0,0,0-3.3,0-3.3c0-5.6,0-11.2,0-16.8c13,0,26,0,39,0V441.1z"/>
	<path class="st3" d="M137.4,416.9h-45v61.8h45V416.9z"/>
	<path class="st3" d="M227.3,446.7H143v6.4h84.3V446.7z"/>
	<path class="st3" d="M227.3,458.8H143v6.4h84.3V458.8z"/>
	<path class="st5" d="M108.4,457.7l12-14.8l12,14.8L108.4,457.7z"/>
	<path class="st6" d="M97.4,457.7l14.2-17.4l14.2,17.5L97.4,457.7z"/>
	<path class="st4" d="M116.9,442.6c1.3,0,2.3-1,2.3-2.3c0-1.3-1-2.3-2.3-2.3c-1.3,0-2.3,1-2.3,2.3
		C114.6,441.5,115.6,442.6,116.9,442.6z"/>
	<path class="st7" d="M147.2,435.6h-3.6v5.5h3.6V435.6z"/>
	<path class="st7" d="M152.2,431.9h-3.6v9.1h3.6V431.9z"/>
	<path class="st7" d="M167,431.9h-3.6v9.1h3.6V431.9z"/>
	<path class="st7" d="M157.1,428.4h-3.6V441h3.6V428.4z"/>
	<path class="st7" d="M171.9,428.4h-3.6V441h3.6V428.4z"/>
	<path class="st7" d="M162.1,426.1h-3.6V441h3.6V426.1z"/>
	<path class="st7" d="M176.9,426.1h-3.6V441h3.6V426.1z"/>
	<path class="st7" d="M181.3,426.1h-3V441h3V426.1z"/>
	<path class="st7" d="M192.6,435.6H189v5.5h3.6V435.6z"/>
	<path class="st7" d="M197.5,431.9h-3.6v9.1h3.6V431.9z"/>
	<path class="st7" d="M212.3,431.9h-3.6v9.1h3.6V431.9z"/>
	<path class="st7" d="M202.4,428.4h-3.6V441h3.6V428.4z"/>
	<path class="st7" d="M217.3,428.4h-3.6V441h3.6V428.4z"/>
	<path class="st7" d="M207.4,426.1h-3.6V441h3.6V426.1z"/>
	<path class="st7" d="M222.2,426.1h-3.6V441h3.6V426.1z"/>
	<path class="st7" d="M226.6,426.1h-3V441h3V426.1z"/>
</g>
</svg>
