<?xml version="1.0" encoding="utf-8"?>
<!-- Generator: Adobe Illustrator 25.2.1, SVG Export Plug-In . SVG Version: 6.00 Build 0)  -->
<svg version="1.1" id="Layer_1" xmlns="http://www.w3.org/2000/svg" xmlns:xlink="http://www.w3.org/1999/xlink" x="0px" y="0px"
	 width="222px" height="234px" viewBox="0 0 222 234" style="enable-background:new 0 0 222 234;" xml:space="preserve">
<style type="text/css">
	.st0{fill:#FFFFFF;}
	.st1{fill:#E0E0E0;}
	.st2{fill:#0D51D9;}
	.st3{fill:#E3E3E3;}
	.st4{fill:#4F4F4F;}
</style>
<g>
	<path class="st0" d="M0,0h196c14.4,0,26,11.6,26,26v208H0V0z"/>
</g>
<path d="M28.8,33.3l3-5.7h1.7l-3.9,7.1V39H28v-4.2l-3.9-7.1h1.7L28.8,33.3z M33.8,34.7c0-0.8,0.2-1.6,0.5-2.2
	c0.3-0.7,0.8-1.2,1.4-1.5c0.6-0.4,1.2-0.5,2-0.5c1.2,0,2.1,0.4,2.8,1.2c0.7,0.8,1.1,1.9,1.1,3.2v0.1c0,0.8-0.2,1.6-0.5,2.2
	c-0.3,0.7-0.8,1.2-1.4,1.5c-0.6,0.4-1.3,0.5-2,0.5c-1.1,0-2.1-0.4-2.8-1.2c-0.7-0.8-1.1-1.9-1.1-3.2V34.7z M35.3,34.9
	c0,0.9,0.2,1.7,0.6,2.3c0.4,0.6,1,0.9,1.8,0.9c0.7,0,1.3-0.3,1.8-0.9c0.4-0.6,0.6-1.4,0.6-2.4c0-0.9-0.2-1.7-0.7-2.2
	c-0.4-0.6-1-0.9-1.8-0.9c-0.7,0-1.3,0.3-1.7,0.9C35.5,33,35.3,33.8,35.3,34.9z M48.5,38.2c-0.6,0.7-1.4,1-2.5,1
	c-0.9,0-1.6-0.3-2.1-0.8c-0.5-0.5-0.7-1.3-0.7-2.3v-5.5h1.4V36c0,1.3,0.5,1.9,1.6,1.9c1.1,0,1.8-0.4,2.2-1.2v-6.1h1.4V39h-1.4
	L48.5,38.2z M56.2,31.8c-0.2,0-0.5-0.1-0.7-0.1c-0.9,0-1.6,0.4-1.9,1.2v6h-1.4v-8.5h1.4l0,1c0.5-0.8,1.1-1.1,2-1.1
	c0.3,0,0.5,0,0.6,0.1V31.8z M63.4,39h-1.5V27.6h1.5V39z M67.3,30.5l0,1.1c0.6-0.8,1.5-1.2,2.5-1.2c1.8,0,2.7,1,2.7,3V39h-1.4v-5.6
	c0-0.6-0.1-1.1-0.4-1.4c-0.3-0.3-0.7-0.4-1.3-0.4c-0.5,0-0.9,0.1-1.2,0.4c-0.4,0.2-0.6,0.6-0.8,1v6h-1.4v-8.5H67.3z M77.5,37
	l2.1-6.5h1.5L78,39h-1.1l-3.1-8.5h1.5L77.5,37z M85.9,39.2c-1.1,0-2.1-0.4-2.8-1.1c-0.7-0.8-1.1-1.8-1.1-3v-0.3
	c0-0.8,0.2-1.6,0.5-2.2c0.3-0.7,0.8-1.2,1.3-1.5c0.6-0.4,1.2-0.6,1.9-0.6c1.1,0,2,0.4,2.6,1.1c0.6,0.7,0.9,1.8,0.9,3.1v0.6h-5.7
	c0,0.8,0.3,1.5,0.7,2c0.5,0.5,1.1,0.8,1.8,0.8c0.5,0,0.9-0.1,1.3-0.3c0.4-0.2,0.7-0.5,0.9-0.8l0.9,0.7
	C88.3,38.6,87.3,39.2,85.9,39.2z M85.7,31.6c-0.6,0-1.1,0.2-1.5,0.6c-0.4,0.4-0.6,1-0.7,1.8h4.2v-0.1c0-0.7-0.2-1.3-0.6-1.7
	C86.8,31.8,86.3,31.6,85.7,31.6z M92.2,30.5l0,1.1c0.6-0.8,1.5-1.2,2.5-1.2c1.8,0,2.7,1,2.7,3V39H96v-5.6c0-0.6-0.1-1.1-0.4-1.4
	c-0.3-0.3-0.7-0.4-1.3-0.4c-0.5,0-0.9,0.1-1.2,0.4c-0.4,0.2-0.6,0.6-0.8,1v6h-1.4v-8.5H92.2z M101.6,28.5v2h1.6v1.1h-1.6v5.2
	c0,0.3,0.1,0.6,0.2,0.8c0.1,0.2,0.4,0.2,0.7,0.2c0.2,0,0.4,0,0.7-0.1V39c-0.4,0.1-0.8,0.2-1.1,0.2c-0.6,0-1.1-0.2-1.5-0.6
	c-0.3-0.4-0.5-0.9-0.5-1.7v-5.2h-1.5v-1.1h1.5v-2H101.6z M104.4,34.7c0-0.8,0.2-1.6,0.5-2.2c0.3-0.7,0.8-1.2,1.4-1.5
	c0.6-0.4,1.2-0.5,2-0.5c1.2,0,2.1,0.4,2.8,1.2c0.7,0.8,1.1,1.9,1.1,3.2v0.1c0,0.8-0.2,1.6-0.5,2.2c-0.3,0.7-0.8,1.2-1.4,1.5
	c-0.6,0.4-1.3,0.5-2,0.5c-1.1,0-2.1-0.4-2.8-1.2c-0.7-0.8-1.1-1.9-1.1-3.2V34.7z M105.8,34.9c0,0.9,0.2,1.7,0.6,2.3
	c0.4,0.6,1,0.9,1.8,0.9c0.7,0,1.3-0.3,1.8-0.9c0.4-0.6,0.6-1.4,0.6-2.4c0-0.9-0.2-1.7-0.7-2.2c-0.4-0.6-1-0.9-1.8-0.9
	c-0.7,0-1.3,0.3-1.7,0.9C106,33,105.8,33.8,105.8,34.9z M118,31.8c-0.2,0-0.5-0.1-0.7-0.1c-0.9,0-1.6,0.4-1.9,1.2v6h-1.4v-8.5h1.4
	l0,1c0.5-0.8,1.1-1.1,2-1.1c0.3,0,0.5,0,0.6,0.1V31.8z M122.2,36.9l2-6.3h1.5l-3.4,9.8c-0.5,1.4-1.4,2.1-2.5,2.1l-0.3,0l-0.5-0.1
	v-1.2l0.4,0c0.5,0,0.9-0.1,1.1-0.3c0.3-0.2,0.5-0.6,0.7-1.1l0.3-0.9l-3-8.4h1.6L122.2,36.9z"/>
<path class="st1" d="M61.5,85h120c2.5,0,4.5,2,4.5,4.5l0,0c0,2.5-2,4.5-4.5,4.5h-120C59,94,57,92,57,89.5l0,0C57,87,59,85,61.5,85z"
	/>
<path class="st1" d="M61.5,101h120c2.5,0,4.5,2,4.5,4.5l0,0c0,2.5-2,4.5-4.5,4.5h-120c-2.5,0-4.5-2-4.5-4.5l0,0
	C57,103,59,101,61.5,101z"/>
<path class="st1" d="M61.5,117h120c2.5,0,4.5,2,4.5,4.5l0,0c0,2.5-2,4.5-4.5,4.5h-120c-2.5,0-4.5-2-4.5-4.5l0,0
	C57,119,59,117,61.5,117z"/>
<path class="st1" d="M61.5,133h120c2.5,0,4.5,2,4.5,4.5l0,0c0,2.5-2,4.5-4.5,4.5h-120c-2.5,0-4.5-2-4.5-4.5l0,0
	C57,135,59,133,61.5,133z"/>
<path class="st2" d="M33,73l-7.8-13.5h15.6L33,73z"/>
<path class="st3" d="M42,198l-13.5,7.8v-15.6L42,198z"/>
<path class="st3" d="M42,172l-13.5,7.8v-15.6L42,172z"/>
<path class="st4" d="M63.7,66.8h-4V71H58V61h6.3v1.4h-4.6v3h4V66.8z M67.3,71h-1.7v-7.4h1.7V71z M65.6,61.7c0-0.3,0.1-0.5,0.2-0.6
	c0.2-0.2,0.4-0.3,0.7-0.3c0.3,0,0.5,0.1,0.7,0.3c0.2,0.2,0.2,0.4,0.2,0.6c0,0.2-0.1,0.5-0.2,0.6c-0.2,0.2-0.4,0.2-0.7,0.2
	c-0.3,0-0.5-0.1-0.7-0.2C65.6,62.1,65.6,61.9,65.6,61.7z M73,65.1c-0.2,0-0.4-0.1-0.7-0.1c-0.8,0-1.3,0.3-1.5,0.9V71h-1.7v-7.4h1.6
	l0,0.8c0.4-0.6,1-1,1.7-1c0.2,0,0.4,0,0.6,0.1L73,65.1z M77.2,71.1c-1.1,0-1.9-0.3-2.6-1c-0.7-0.7-1-1.6-1-2.7v-0.2
	c0-0.7,0.1-1.4,0.4-2c0.3-0.6,0.7-1,1.2-1.4c0.5-0.3,1.1-0.5,1.7-0.5c1,0,1.8,0.3,2.3,1c0.6,0.6,0.8,1.6,0.8,2.7v0.7h-4.8
	c0,0.6,0.3,1.1,0.6,1.4c0.4,0.4,0.8,0.5,1.4,0.5c0.8,0,1.4-0.3,1.9-0.9l0.9,0.9c-0.3,0.4-0.7,0.8-1.2,1C78.3,71,77.8,71.1,77.2,71.1
	z M77,64.8c-0.5,0-0.8,0.2-1.1,0.5c-0.3,0.3-0.5,0.8-0.5,1.3h3.2v-0.1c0-0.6-0.2-1-0.4-1.3C77.8,64.9,77.4,64.8,77,64.8z M87.9,68.7
	l1.2-5.1h1.6l-2,7.4h-1.4l-1.6-5.1L84.2,71h-1.4l-2-7.4h1.6l1.2,5.1l1.5-5.1h1.3L87.9,68.7z M96.3,71c-0.1-0.1-0.1-0.4-0.2-0.7
	c-0.5,0.6-1.2,0.8-1.9,0.8c-0.7,0-1.3-0.2-1.8-0.6c-0.5-0.4-0.7-0.9-0.7-1.6c0-0.8,0.3-1.4,0.9-1.8c0.6-0.4,1.4-0.6,2.5-0.6h1V66
	c0-0.4-0.1-0.7-0.3-0.9c-0.2-0.2-0.5-0.3-1-0.3c-0.4,0-0.7,0.1-0.9,0.3c-0.2,0.2-0.4,0.4-0.4,0.7h-1.7c0-0.4,0.1-0.8,0.4-1.1
	c0.3-0.4,0.6-0.6,1.1-0.8c0.5-0.2,1-0.3,1.6-0.3c0.9,0,1.6,0.2,2.1,0.7c0.5,0.4,0.8,1,0.8,1.8v3.3c0,0.7,0.1,1.2,0.3,1.6V71H96.3z
	 M94.4,69.8c0.3,0,0.6-0.1,0.9-0.2c0.3-0.2,0.5-0.4,0.7-0.6v-1.4h-0.9c-0.6,0-1.1,0.1-1.4,0.3c-0.3,0.2-0.5,0.5-0.5,0.9
	c0,0.3,0.1,0.6,0.3,0.8C93.8,69.7,94.1,69.8,94.4,69.8z M101.2,71h-1.7V60.5h1.7V71z M104.8,71h-1.7V60.5h1.7V71z M110.1,67
	c0-1.1,0.1-2.1,0.4-3c0.3-0.9,0.7-1.8,1.2-2.5c0.5-0.7,1.1-1.3,1.7-1.6l0.3,1c-0.6,0.5-1.2,1.2-1.6,2.2c-0.4,1-0.6,2.1-0.7,3.4
	l0,0.6c0,1.4,0.2,2.6,0.6,3.7c0.4,1.1,0.9,1.9,1.6,2.5l-0.3,0.9c-0.6-0.3-1.2-0.8-1.7-1.6c-0.5-0.7-1-1.6-1.2-2.5
	C110.2,69.1,110.1,68.1,110.1,67z M121.5,71h-6.7v-1.1l3.3-3.6c0.5-0.5,0.8-1,1-1.3c0.2-0.4,0.3-0.7,0.3-1.1c0-0.5-0.1-0.9-0.4-1.1
	c-0.3-0.3-0.6-0.4-1.1-0.4c-0.5,0-1,0.2-1.3,0.5c-0.3,0.3-0.4,0.8-0.4,1.3h-1.7c0-0.6,0.1-1.2,0.4-1.6c0.3-0.5,0.7-0.9,1.2-1.1
	c0.5-0.3,1.1-0.4,1.8-0.4c1,0,1.7,0.2,2.3,0.7c0.6,0.5,0.8,1.2,0.8,2c0,0.5-0.1,1-0.4,1.6c-0.3,0.5-0.7,1.2-1.4,1.9l-2.4,2.6h4.6V71
	z M124.7,65.3h1c0.5,0,0.9-0.1,1.2-0.4c0.3-0.3,0.5-0.6,0.5-1.1c0-0.5-0.1-0.8-0.4-1.1c-0.2-0.3-0.6-0.4-1.1-0.4
	c-0.4,0-0.8,0.1-1.1,0.4c-0.3,0.3-0.4,0.6-0.4,1h-1.7c0-0.5,0.1-1,0.4-1.4c0.3-0.4,0.7-0.7,1.1-1c0.5-0.2,1-0.4,1.6-0.4
	c1,0,1.8,0.3,2.3,0.8c0.6,0.5,0.9,1.2,0.9,2.1c0,0.4-0.1,0.9-0.4,1.3c-0.3,0.4-0.6,0.7-1.1,0.9c0.5,0.2,1,0.5,1.2,0.9
	c0.3,0.4,0.4,0.9,0.4,1.4c0,0.9-0.3,1.6-0.9,2.1c-0.6,0.5-1.4,0.8-2.4,0.8c-1,0-1.7-0.3-2.4-0.8c-0.6-0.5-0.9-1.2-0.9-2h1.7
	c0,0.4,0.1,0.8,0.4,1.1c0.3,0.3,0.7,0.4,1.2,0.4c0.5,0,0.9-0.1,1.2-0.4c0.3-0.3,0.4-0.7,0.4-1.2c0-0.5-0.2-0.9-0.5-1.2
	s-0.8-0.4-1.4-0.4h-1V65.3z M134.1,67.1c0,1-0.1,2-0.4,2.9c-0.3,0.9-0.7,1.8-1.3,2.6c-0.6,0.8-1.2,1.3-1.8,1.6l-0.3-0.9
	c0.7-0.5,1.2-1.3,1.6-2.4c0.4-1.1,0.6-2.3,0.6-3.7v-0.2c0-1.3-0.2-2.4-0.5-3.5c-0.3-1-0.8-1.9-1.5-2.5l-0.2-0.2l0.3-0.9
	c0.6,0.3,1.1,0.8,1.7,1.5c0.5,0.7,1,1.5,1.3,2.4c0.3,0.9,0.5,1.8,0.5,2.8L134.1,67.1z"/>
<path class="st4" d="M61.8,173h-2.3v4h-1.3v-10h3.3c1.1,0,2,0.3,2.6,0.8c0.6,0.5,0.9,1.3,0.9,2.2c0,0.6-0.2,1.2-0.5,1.6
	c-0.3,0.5-0.8,0.8-1.4,1l2.3,4.2v0.1H64L61.8,173z M59.5,171.9h2c0.7,0,1.2-0.2,1.6-0.5c0.4-0.3,0.6-0.8,0.6-1.4
	c0-0.6-0.2-1.1-0.6-1.4c-0.4-0.3-0.9-0.5-1.6-0.5h-2V171.9z M66.2,173.2c0-0.7,0.1-1.4,0.4-2c0.3-0.6,0.7-1,1.2-1.3
	c0.5-0.3,1.1-0.5,1.7-0.5c1,0,1.8,0.3,2.4,1c0.6,0.7,0.9,1.6,0.9,2.8v0.1c0,0.7-0.1,1.4-0.4,1.9c-0.3,0.6-0.7,1-1.2,1.3
	c-0.5,0.3-1.1,0.5-1.8,0.5c-1,0-1.8-0.3-2.4-1C66.6,175.4,66.2,174.5,66.2,173.2L66.2,173.2z M67.5,173.4c0,0.8,0.2,1.5,0.6,2
	c0.4,0.5,0.9,0.7,1.5,0.7c0.6,0,1.2-0.2,1.5-0.8c0.4-0.5,0.6-1.2,0.6-2.1c0-0.8-0.2-1.5-0.6-2c-0.4-0.5-0.9-0.8-1.5-0.8
	c-0.6,0-1.1,0.2-1.5,0.7C67.7,171.7,67.5,172.5,67.5,173.4z M79.1,176.3c-0.5,0.6-1.2,0.9-2.2,0.9c-0.8,0-1.4-0.2-1.8-0.7
	c-0.4-0.5-0.6-1.1-0.6-2v-4.8h1.3v4.8c0,1.1,0.5,1.7,1.4,1.7c1,0,1.6-0.4,1.9-1.1v-5.4h1.3v7.4h-1.2L79.1,176.3z M84,167.8v1.8h1.4
	v1H84v4.6c0,0.3,0.1,0.5,0.2,0.7c0.1,0.1,0.3,0.2,0.6,0.2c0.1,0,0.3,0,0.6-0.1v1c-0.3,0.1-0.7,0.1-1,0.1c-0.6,0-1-0.2-1.3-0.5
	c-0.3-0.3-0.4-0.8-0.4-1.5v-4.6h-1.3v-1h1.3v-1.8H84z M89.9,177.1c-1,0-1.8-0.3-2.4-1c-0.6-0.7-0.9-1.5-0.9-2.6v-0.2
	c0-0.7,0.1-1.4,0.4-2c0.3-0.6,0.7-1,1.2-1.4c0.5-0.3,1.1-0.5,1.6-0.5c1,0,1.7,0.3,2.2,1c0.5,0.6,0.8,1.5,0.8,2.7v0.5h-5
	c0,0.7,0.2,1.3,0.6,1.8c0.4,0.4,0.9,0.7,1.6,0.7c0.4,0,0.8-0.1,1.1-0.3c0.3-0.2,0.6-0.4,0.8-0.7l0.8,0.6
	C92.1,176.7,91.2,177.1,89.9,177.1z M89.8,170.5c-0.5,0-0.9,0.2-1.3,0.6c-0.3,0.4-0.6,0.9-0.6,1.6h3.7v-0.1c0-0.6-0.2-1.1-0.5-1.5
	C90.7,170.7,90.3,170.5,89.8,170.5z M97.9,170.7c-0.2,0-0.4,0-0.6,0c-0.8,0-1.4,0.4-1.7,1.1v5.2h-1.3v-7.4h1.2l0,0.9
	c0.4-0.7,1-1,1.8-1c0.2,0,0.4,0,0.6,0.1V170.7z M103.3,175c0-0.3-0.1-0.6-0.4-0.8c-0.3-0.2-0.7-0.4-1.3-0.5
	c-0.6-0.1-1.1-0.3-1.5-0.5c-0.4-0.2-0.7-0.4-0.8-0.7c-0.2-0.3-0.3-0.6-0.3-0.9c0-0.6,0.3-1.1,0.8-1.5c0.5-0.4,1.2-0.6,2-0.6
	c0.8,0,1.5,0.2,2,0.6c0.5,0.4,0.8,1,0.8,1.7h-1.3c0-0.3-0.1-0.6-0.4-0.9c-0.3-0.3-0.7-0.4-1.1-0.4c-0.5,0-0.8,0.1-1.1,0.3
	c-0.3,0.2-0.4,0.5-0.4,0.8c0,0.3,0.1,0.5,0.4,0.7c0.2,0.2,0.7,0.3,1.3,0.4c0.6,0.1,1.1,0.3,1.5,0.5s0.7,0.4,0.9,0.7
	c0.2,0.3,0.3,0.6,0.3,1c0,0.7-0.3,1.2-0.8,1.6c-0.5,0.4-1.2,0.6-2.1,0.6c-0.6,0-1.1-0.1-1.6-0.3c-0.5-0.2-0.8-0.5-1.1-0.9
	c-0.3-0.4-0.4-0.8-0.4-1.2h1.3c0,0.4,0.2,0.8,0.5,1c0.3,0.2,0.7,0.4,1.3,0.4c0.5,0,0.9-0.1,1.1-0.3
	C103.2,175.6,103.3,175.4,103.3,175z M109.7,173c0-1,0.1-2,0.4-3c0.3-0.9,0.7-1.8,1.2-2.6c0.5-0.8,1.1-1.3,1.7-1.6l0.3,0.8
	c-0.7,0.5-1.2,1.3-1.6,2.3c-0.4,1-0.7,2.2-0.7,3.5l0,0.6c0,1.8,0.3,3.3,1,4.6c0.4,0.8,0.8,1.4,1.4,1.8l-0.3,0.8
	c-0.6-0.3-1.2-0.9-1.7-1.7C110.2,177,109.7,175.1,109.7,173z M120.9,177h-6.5v-0.9l3.4-3.8c0.5-0.6,0.9-1,1.1-1.4
	c0.2-0.4,0.3-0.7,0.3-1.1c0-0.5-0.2-0.9-0.5-1.3c-0.3-0.3-0.7-0.5-1.3-0.5c-0.6,0-1.1,0.2-1.5,0.5c-0.3,0.4-0.5,0.9-0.5,1.5h-1.3
	c0-0.9,0.3-1.7,0.9-2.2c0.6-0.6,1.4-0.8,2.4-0.8c0.9,0,1.7,0.2,2.2,0.7c0.5,0.5,0.8,1.1,0.8,1.9c0,1-0.6,2.1-1.9,3.5l-2.7,2.9h5V177
	z M122.8,172l0.5-5h5.1v1.2h-4l-0.3,2.7c0.5-0.3,1-0.4,1.7-0.4c0.9,0,1.6,0.3,2.2,0.9c0.5,0.6,0.8,1.4,0.8,2.4c0,1-0.3,1.8-0.8,2.4
	c-0.6,0.6-1.3,0.9-2.3,0.9c-0.9,0-1.6-0.2-2.2-0.7c-0.6-0.5-0.9-1.2-0.9-2h1.2c0.1,0.6,0.3,1,0.6,1.3c0.3,0.3,0.8,0.4,1.3,0.4
	c0.6,0,1-0.2,1.4-0.6c0.3-0.4,0.5-1,0.5-1.7c0-0.7-0.2-1.2-0.5-1.6c-0.4-0.4-0.8-0.6-1.4-0.6c-0.6,0-1,0.1-1.3,0.4l-0.3,0.3
	L122.8,172z M134.3,177H133v-8.4l-2.5,0.9v-1.1l3.6-1.4h0.2V177z M141,173c0,1-0.1,2-0.4,2.9c-0.3,0.9-0.7,1.8-1.2,2.6
	c-0.5,0.8-1.1,1.3-1.7,1.7l-0.3-0.8c0.7-0.5,1.3-1.4,1.7-2.5c0.4-1.1,0.6-2.4,0.7-3.8v-0.2c0-1-0.1-1.8-0.3-2.7
	c-0.2-0.8-0.5-1.6-0.8-2.2c-0.4-0.7-0.8-1.2-1.2-1.5l0.3-0.8c0.6,0.3,1.2,0.9,1.7,1.7c0.5,0.8,1,1.6,1.2,2.6
	C140.9,171,141,172,141,173z"/>
<path class="st4" d="M61.1,197.6c-1.1-0.3-1.9-0.7-2.5-1.2c-0.5-0.5-0.8-1.1-0.8-1.8c0-0.8,0.3-1.4,0.9-1.9c0.6-0.5,1.4-0.8,2.4-0.8
	c0.7,0,1.3,0.1,1.8,0.4c0.5,0.3,1,0.6,1.2,1.1c0.3,0.5,0.4,1,0.4,1.5h-1.3c0-0.6-0.2-1.1-0.6-1.4c-0.4-0.3-0.9-0.5-1.6-0.5
	c-0.6,0-1.2,0.1-1.5,0.4c-0.4,0.3-0.5,0.7-0.5,1.2c0,0.4,0.2,0.7,0.5,1c0.3,0.3,0.9,0.5,1.8,0.8c0.8,0.2,1.5,0.5,1.9,0.8
	c0.5,0.3,0.8,0.6,1,1c0.2,0.4,0.3,0.8,0.3,1.3c0,0.8-0.3,1.5-0.9,1.9c-0.6,0.5-1.5,0.7-2.5,0.7c-0.7,0-1.3-0.1-1.9-0.4
	c-0.6-0.3-1.1-0.6-1.4-1.1c-0.3-0.5-0.5-1-0.5-1.6h1.3c0,0.6,0.2,1.1,0.7,1.4c0.4,0.3,1,0.5,1.8,0.5c0.7,0,1.2-0.1,1.6-0.4
	c0.4-0.3,0.6-0.7,0.6-1.2c0-0.5-0.2-0.9-0.5-1.1C62.6,198.1,62,197.8,61.1,197.6z M72.8,200.3l1.4-5.7h1.3l-2.2,7.4h-1l-1.8-5.6
	l-1.8,5.6h-1l-2.1-7.4h1.3l1.5,5.5l1.7-5.5h1L72.8,200.3z M78.2,202h-1.3v-7.4h1.3V202z M76.8,192.6c0-0.2,0.1-0.4,0.2-0.5
	c0.1-0.1,0.3-0.2,0.6-0.2s0.4,0.1,0.6,0.2c0.1,0.1,0.2,0.3,0.2,0.5s-0.1,0.4-0.2,0.5c-0.1,0.1-0.3,0.2-0.6,0.2s-0.4-0.1-0.6-0.2
	C76.9,193,76.8,192.8,76.8,192.6z M81.9,192.8v1.8h1.4v1h-1.4v4.6c0,0.3,0.1,0.5,0.2,0.7c0.1,0.1,0.3,0.2,0.6,0.2
	c0.1,0,0.3,0,0.6-0.1v1c-0.3,0.1-0.7,0.1-1,0.1c-0.6,0-1-0.2-1.3-0.5c-0.3-0.3-0.4-0.8-0.4-1.5v-4.6h-1.3v-1h1.3v-1.8H81.9z
	 M87.7,201.1c0.5,0,0.8-0.1,1.2-0.4c0.3-0.3,0.5-0.6,0.6-1h1.2c0,0.4-0.2,0.8-0.4,1.2s-0.6,0.7-1.1,0.9c-0.4,0.2-0.9,0.3-1.4,0.3
	c-1,0-1.8-0.3-2.4-1c-0.6-0.7-0.9-1.6-0.9-2.8v-0.2c0-0.7,0.1-1.4,0.4-1.9c0.3-0.6,0.6-1,1.1-1.3c0.5-0.3,1.1-0.5,1.8-0.5
	c0.8,0,1.5,0.2,2.1,0.7c0.6,0.5,0.8,1.1,0.9,1.9h-1.2c0-0.5-0.2-0.9-0.5-1.2c-0.3-0.3-0.7-0.5-1.2-0.5c-0.6,0-1.1,0.2-1.5,0.7
	c-0.4,0.5-0.5,1.1-0.5,2v0.2c0,0.9,0.2,1.5,0.5,2C86.6,200.9,87.1,201.1,87.7,201.1z M93.4,195.5c0.6-0.7,1.3-1,2.2-1
	c1.6,0,2.4,0.9,2.4,2.6v4.9h-1.3v-4.9c0-0.5-0.1-0.9-0.4-1.2c-0.2-0.3-0.6-0.4-1.1-0.4c-0.4,0-0.8,0.1-1.1,0.3
	c-0.3,0.2-0.6,0.5-0.7,0.9v5.3h-1.3v-10.5h1.3V195.5z M102.9,202.1c-1,0-1.8-0.3-2.4-1c-0.6-0.7-0.9-1.5-0.9-2.6v-0.2
	c0-0.7,0.1-1.4,0.4-2c0.3-0.6,0.7-1,1.2-1.4c0.5-0.3,1.1-0.5,1.6-0.5c1,0,1.7,0.3,2.2,1c0.5,0.6,0.8,1.5,0.8,2.7v0.5h-5
	c0,0.7,0.2,1.3,0.6,1.8c0.4,0.4,0.9,0.7,1.6,0.7c0.4,0,0.8-0.1,1.1-0.3c0.3-0.2,0.6-0.4,0.8-0.7l0.8,0.6
	C105.1,201.7,104.1,202.1,102.9,202.1z M102.7,195.5c-0.5,0-0.9,0.2-1.3,0.6c-0.3,0.4-0.6,0.9-0.6,1.6h3.7v-0.1
	c0-0.6-0.2-1.1-0.5-1.5C103.7,195.7,103.3,195.5,102.7,195.5z M111.6,200c0-0.3-0.1-0.6-0.4-0.8c-0.3-0.2-0.7-0.4-1.3-0.5
	c-0.6-0.1-1.1-0.3-1.5-0.5c-0.4-0.2-0.7-0.4-0.8-0.7c-0.2-0.3-0.3-0.6-0.3-0.9c0-0.6,0.3-1.1,0.8-1.5c0.5-0.4,1.2-0.6,2-0.6
	c0.8,0,1.5,0.2,2,0.6c0.5,0.4,0.8,1,0.8,1.7h-1.3c0-0.3-0.1-0.6-0.4-0.9c-0.3-0.3-0.7-0.4-1.1-0.4c-0.5,0-0.8,0.1-1.1,0.3
	c-0.3,0.2-0.4,0.5-0.4,0.8c0,0.3,0.1,0.5,0.4,0.7c0.2,0.2,0.7,0.3,1.3,0.4c0.6,0.1,1.1,0.3,1.5,0.5s0.7,0.4,0.9,0.7
	c0.2,0.3,0.3,0.6,0.3,1c0,0.7-0.3,1.2-0.8,1.6c-0.5,0.4-1.2,0.6-2.1,0.6c-0.6,0-1.1-0.1-1.6-0.3c-0.5-0.2-0.8-0.5-1.1-0.9
	c-0.3-0.4-0.4-0.8-0.4-1.2h1.3c0,0.4,0.2,0.8,0.5,1c0.3,0.2,0.7,0.4,1.3,0.4c0.5,0,0.9-0.1,1.1-0.3
	C111.4,200.6,111.6,200.4,111.6,200z M117.9,198c0-1,0.1-2,0.4-3c0.3-0.9,0.7-1.8,1.2-2.6c0.5-0.8,1.1-1.3,1.7-1.6l0.3,0.8
	c-0.7,0.5-1.2,1.3-1.6,2.3c-0.4,1-0.7,2.2-0.7,3.5l0,0.6c0,1.8,0.3,3.3,1,4.6c0.4,0.8,0.8,1.4,1.4,1.8l-0.3,0.8
	c-0.6-0.3-1.2-0.9-1.7-1.7C118.4,202,117.9,200.1,117.9,198z M126.7,202h-1.3v-8.4l-2.6,0.9v-1.1l3.6-1.4h0.2V202z M130.5,204
	l-0.7-0.5c0.4-0.6,0.7-1.2,0.7-1.8v-1.1h1.2v1c0,0.5-0.1,0.9-0.3,1.4C131.2,203.3,130.9,203.7,130.5,204z M138,197.6
	c-0.3,0.3-0.6,0.6-0.9,0.8c-0.4,0.2-0.8,0.3-1.2,0.3c-0.6,0-1.1-0.1-1.5-0.4c-0.4-0.3-0.8-0.7-1-1.2c-0.2-0.5-0.3-1.1-0.3-1.7
	c0-0.7,0.1-1.3,0.4-1.8c0.3-0.5,0.6-0.9,1.1-1.2s1-0.4,1.6-0.4c1,0,1.8,0.4,2.3,1.1c0.6,0.7,0.9,1.7,0.9,3v0.4
	c0,1.9-0.4,3.4-1.1,4.2c-0.8,0.9-1.9,1.3-3.5,1.4h-0.2v-1.1h0.3c1,0,1.8-0.3,2.4-0.8C137.7,199.6,138,198.8,138,197.6z M136.1,197.6
	c0.4,0,0.8-0.1,1.2-0.4c0.4-0.3,0.6-0.6,0.8-1v-0.5c0-0.8-0.2-1.5-0.5-2c-0.4-0.5-0.8-0.8-1.4-0.8c-0.6,0-1,0.2-1.3,0.6
	c-0.3,0.4-0.5,1-0.5,1.7c0,0.7,0.2,1.2,0.5,1.7C135.1,197.4,135.6,197.6,136.1,197.6z M141.6,197l0.5-5h5.1v1.2h-4l-0.3,2.7
	c0.5-0.3,1-0.4,1.7-0.4c0.9,0,1.6,0.3,2.2,0.9c0.5,0.6,0.8,1.4,0.8,2.4c0,1-0.3,1.8-0.8,2.4c-0.6,0.6-1.3,0.9-2.3,0.9
	c-0.9,0-1.6-0.2-2.2-0.7c-0.6-0.5-0.9-1.2-0.9-2h1.2c0.1,0.6,0.3,1,0.6,1.3c0.3,0.3,0.8,0.4,1.3,0.4c0.6,0,1-0.2,1.4-0.6
	c0.3-0.4,0.5-1,0.5-1.7c0-0.7-0.2-1.2-0.5-1.6c-0.4-0.4-0.8-0.6-1.4-0.6c-0.6,0-1,0.1-1.3,0.4l-0.3,0.3L141.6,197z M149.5,197l0.5-5
	h5.1v1.2h-4l-0.3,2.7c0.5-0.3,1-0.4,1.7-0.4c0.9,0,1.6,0.3,2.2,0.9c0.5,0.6,0.8,1.4,0.8,2.4c0,1-0.3,1.8-0.8,2.4
	c-0.6,0.6-1.3,0.9-2.3,0.9c-0.9,0-1.6-0.2-2.2-0.7c-0.6-0.5-0.9-1.2-1-2h1.2c0.1,0.6,0.3,1,0.6,1.3c0.3,0.3,0.8,0.4,1.3,0.4
	c0.6,0,1-0.2,1.4-0.6c0.3-0.4,0.5-1,0.5-1.7c0-0.7-0.2-1.2-0.5-1.6c-0.4-0.4-0.8-0.6-1.4-0.6c-0.6,0-1,0.1-1.3,0.4l-0.3,0.3
	L149.5,197z M159.8,198c0,1-0.1,2-0.4,2.9c-0.3,0.9-0.7,1.8-1.2,2.6c-0.5,0.8-1.1,1.3-1.7,1.7l-0.3-0.8c0.7-0.5,1.3-1.4,1.7-2.5
	c0.4-1.1,0.6-2.4,0.7-3.8v-0.2c0-1-0.1-1.8-0.3-2.7c-0.2-0.8-0.5-1.6-0.8-2.2c-0.4-0.7-0.8-1.2-1.2-1.5l0.3-0.8
	c0.6,0.3,1.2,0.9,1.7,1.7c0.5,0.8,1,1.6,1.2,2.6C159.7,196,159.8,197,159.8,198z"/>
</svg>
