<svg width="506" height="310" viewBox="0 0 506 310" fill="none" xmlns="http://www.w3.org/2000/svg">
<path d="M0 12C0 5.37259 5.37258 0 12 0H494C500.627 0 506 5.37258 506 12V298C506 304.627 500.627 310 494 310H0V12Z" fill="white"/>
<path d="M25.2695 42V27.7812H29.6445C30.8945 27.7812 32.0111 28.0645 32.9941 28.6309C33.9837 29.1908 34.7552 29.9915 35.3086 31.0332C35.862 32.0684 36.1387 33.2467 36.1387 34.5684V35.2227C36.1387 36.5443 35.8652 37.7194 35.3184 38.748C34.778 39.7767 34.013 40.5742 33.0234 41.1406C32.0339 41.707 30.9173 41.9935 29.6738 42H25.2695ZM28.1992 30.1543V39.6465H29.6152C30.7611 39.6465 31.6367 39.2721 32.2422 38.5234C32.8477 37.7747 33.1569 36.7038 33.1699 35.3105V34.5586C33.1699 33.1133 32.8704 32.0195 32.2715 31.2773C31.6725 30.5286 30.7969 30.1543 29.6445 30.1543H28.1992ZM44.2148 42C44.0846 41.7461 43.9902 41.4303 43.9316 41.0527C43.248 41.8145 42.3594 42.1953 41.2656 42.1953C40.2305 42.1953 39.3711 41.8958 38.6875 41.2969C38.0104 40.6979 37.6719 39.9427 37.6719 39.0312C37.6719 37.9115 38.0853 37.0521 38.9121 36.4531C39.7454 35.8542 40.9466 35.5514 42.5156 35.5449H43.8145V34.9395C43.8145 34.4512 43.6875 34.0605 43.4336 33.7676C43.1862 33.4746 42.7923 33.3281 42.252 33.3281C41.7767 33.3281 41.4023 33.4421 41.1289 33.6699C40.862 33.8978 40.7285 34.2103 40.7285 34.6074H37.9062C37.9062 33.9954 38.0951 33.429 38.4727 32.9082C38.8503 32.3874 39.3841 31.9805 40.0742 31.6875C40.7643 31.388 41.5391 31.2383 42.3984 31.2383C43.7005 31.2383 44.7324 31.5671 45.4941 32.2246C46.2624 32.8757 46.6465 33.7936 46.6465 34.9785V39.5586C46.653 40.5612 46.793 41.3197 47.0664 41.834V42H44.2148ZM41.8809 40.0371C42.2975 40.0371 42.6816 39.946 43.0332 39.7637C43.3848 39.5749 43.6452 39.3242 43.8145 39.0117V37.1953H42.7598C41.347 37.1953 40.5951 37.6836 40.5039 38.6602L40.4941 38.8262C40.4941 39.1777 40.6178 39.4674 40.8652 39.6953C41.1126 39.9232 41.4512 40.0371 41.8809 40.0371ZM54.5371 39.0801C54.5371 38.735 54.3646 38.4648 54.0195 38.2695C53.681 38.0677 53.1341 37.8887 52.3789 37.7324C49.8659 37.2051 48.6094 36.1374 48.6094 34.5293C48.6094 33.5918 48.9967 32.8105 49.7715 32.1855C50.5527 31.554 51.5716 31.2383 52.8281 31.2383C54.1693 31.2383 55.2402 31.554 56.041 32.1855C56.8483 32.8171 57.252 33.6374 57.252 34.6465H54.4297C54.4297 34.2428 54.2995 33.9108 54.0391 33.6504C53.7786 33.3835 53.3717 33.25 52.8184 33.25C52.3431 33.25 51.9753 33.3574 51.7148 33.5723C51.4544 33.7871 51.3242 34.0605 51.3242 34.3926C51.3242 34.7051 51.4707 34.959 51.7637 35.1543C52.0632 35.3431 52.5645 35.5091 53.2676 35.6523C53.9707 35.7891 54.5632 35.9453 55.0449 36.1211C56.5358 36.668 57.2812 37.6152 57.2812 38.9629C57.2812 39.9264 56.8678 40.7077 56.041 41.3066C55.2142 41.8991 54.1465 42.1953 52.8379 42.1953C51.9525 42.1953 51.1647 42.0391 50.4746 41.7266C49.791 41.4076 49.2539 40.9746 48.8633 40.4277C48.4727 39.8743 48.2773 39.2786 48.2773 38.6406H50.9531C50.9792 39.1419 51.1647 39.526 51.5098 39.793C51.8548 40.0599 52.3171 40.1934 52.8965 40.1934C53.4368 40.1934 53.8438 40.0924 54.1172 39.8906C54.3971 39.6823 54.5371 39.4121 54.5371 39.0801ZM61.8613 32.5859C62.61 31.6875 63.5508 31.2383 64.6836 31.2383C66.9753 31.2383 68.1374 32.5697 68.1699 35.2324V42H65.3477V35.3105C65.3477 34.7051 65.2174 34.2591 64.957 33.9727C64.6966 33.6797 64.2637 33.5332 63.6582 33.5332C62.8314 33.5332 62.2324 33.8522 61.8613 34.4902V42H59.0391V27H61.8613V32.5859ZM79.8203 36.8145C79.8203 38.5072 79.459 39.8288 78.7363 40.7793C78.0137 41.7233 77.0046 42.1953 75.709 42.1953C74.5632 42.1953 73.6484 41.7559 72.9648 40.877L72.8379 42H70.2988V27H73.1211V32.3809C73.7721 31.6191 74.6283 31.2383 75.6895 31.2383C76.9785 31.2383 77.9876 31.7135 78.7168 32.6641C79.4525 33.6081 79.8203 34.9395 79.8203 36.6582V36.8145ZM76.998 36.6094C76.998 35.5417 76.8288 34.7637 76.4902 34.2754C76.1517 33.7806 75.6471 33.5332 74.9766 33.5332C74.0781 33.5332 73.4596 33.901 73.1211 34.6367V38.8066C73.4661 39.5488 74.0911 39.9199 74.9961 39.9199C75.9076 39.9199 76.5065 39.4707 76.793 38.5723C76.9297 38.1426 76.998 37.4883 76.998 36.6094ZM81.1289 36.6191C81.1289 35.571 81.3307 34.6367 81.7344 33.8164C82.138 32.9961 82.7174 32.3613 83.4727 31.9121C84.2344 31.4629 85.1165 31.2383 86.1191 31.2383C87.5449 31.2383 88.707 31.6745 89.6055 32.5469C90.5104 33.4193 91.015 34.6042 91.1191 36.1016L91.1387 36.8242C91.1387 38.4453 90.6862 39.7474 89.7812 40.7305C88.8763 41.707 87.6621 42.1953 86.1387 42.1953C84.6152 42.1953 83.3978 41.707 82.4863 40.7305C81.5814 39.7539 81.1289 38.4258 81.1289 36.7461V36.6191ZM83.9512 36.8242C83.9512 37.8268 84.14 38.5951 84.5176 39.1289C84.8952 39.6562 85.4355 39.9199 86.1387 39.9199C86.8223 39.9199 87.3561 39.6595 87.7402 39.1387C88.1243 38.6113 88.3164 37.7715 88.3164 36.6191C88.3164 35.6361 88.1243 34.8743 87.7402 34.334C87.3561 33.7936 86.8158 33.5234 86.1191 33.5234C85.429 33.5234 84.8952 33.7936 84.5176 34.334C84.14 34.8678 83.9512 35.6979 83.9512 36.8242ZM99 42C98.8698 41.7461 98.7754 41.4303 98.7168 41.0527C98.0332 41.8145 97.1445 42.1953 96.0508 42.1953C95.0156 42.1953 94.1562 41.8958 93.4727 41.2969C92.7956 40.6979 92.457 39.9427 92.457 39.0312C92.457 37.9115 92.8704 37.0521 93.6973 36.4531C94.5306 35.8542 95.7318 35.5514 97.3008 35.5449H98.5996V34.9395C98.5996 34.4512 98.4727 34.0605 98.2188 33.7676C97.9714 33.4746 97.5775 33.3281 97.0371 33.3281C96.5618 33.3281 96.1875 33.4421 95.9141 33.6699C95.6471 33.8978 95.5137 34.2103 95.5137 34.6074H92.6914C92.6914 33.9954 92.8802 33.429 93.2578 32.9082C93.6354 32.3874 94.1693 31.9805 94.8594 31.6875C95.5495 31.388 96.3242 31.2383 97.1836 31.2383C98.4857 31.2383 99.5176 31.5671 100.279 32.2246C101.048 32.8757 101.432 33.7936 101.432 34.9785V39.5586C101.438 40.5612 101.578 41.3197 101.852 41.834V42H99ZM96.666 40.0371C97.0827 40.0371 97.4668 39.946 97.8184 39.7637C98.1699 39.5749 98.4303 39.3242 98.5996 39.0117V37.1953H97.5449C96.1322 37.1953 95.3802 37.6836 95.2891 38.6602L95.2793 38.8262C95.2793 39.1777 95.403 39.4674 95.6504 39.6953C95.8978 39.9232 96.2363 40.0371 96.666 40.0371ZM109.537 34.0801C109.153 34.028 108.814 34.002 108.521 34.002C107.454 34.002 106.754 34.3633 106.422 35.0859V42H103.6V31.4336H106.266L106.344 32.6934C106.91 31.7233 107.695 31.2383 108.697 31.2383C109.01 31.2383 109.303 31.2806 109.576 31.3652L109.537 34.0801ZM110.27 36.6387C110.27 34.9915 110.637 33.6797 111.373 32.7031C112.115 31.7266 113.128 31.2383 114.41 31.2383C115.439 31.2383 116.288 31.6224 116.959 32.3906V27H119.791V42H117.242L117.105 40.877C116.402 41.7559 115.497 42.1953 114.391 42.1953C113.147 42.1953 112.148 41.707 111.393 40.7305C110.644 39.7474 110.27 38.3835 110.27 36.6387ZM113.092 36.8438C113.092 37.8333 113.264 38.5918 113.609 39.1191C113.954 39.6465 114.456 39.9102 115.113 39.9102C115.986 39.9102 116.601 39.5423 116.959 38.8066V34.6367C116.607 33.901 115.999 33.5332 115.133 33.5332C113.772 33.5332 113.092 34.6367 113.092 36.8438Z" fill="#333333"/>
<rect x="392" y="24" width="90" height="32" rx="16" fill="#CCFFE1"/>
<rect x="410" y="35" width="55" height="9" rx="4.5" fill="#27AE60"/>
<rect x="24" y="74.6575" width="46.3279" height="210.781" rx="23.1639" fill="#E3EBFA"/>
<rect x="90.918" y="74.6575" width="46.3279" height="210.781" rx="23.1639" fill="#E3EBFA"/>
<rect x="157.836" y="74.6575" width="46.3279" height="210.781" rx="23.1639" fill="#E3EBFA"/>
<rect x="157.836" y="172.992" width="46.3279" height="112.446" rx="23.1639" fill="#386FDC"/>
<rect x="90.918" y="228.554" width="46.3279" height="56.8843" rx="23.1639" fill="#386FDC"/>
<g filter="url(#filter0_d_2550_48963)">
<rect x="24" y="168.583" width="46.3279" height="116.855" rx="23.1639" fill="#386FDC"/>
</g>
<rect x="224.755" y="74.6575" width="46.3279" height="210.781" rx="23.1639" fill="#E3EBFA"/>
<rect x="224.755" y="94.5007" width="46.3279" height="190.937" rx="23.1639" fill="#386FDC"/>
<rect x="291.673" y="74.6575" width="46.3279" height="210.781" rx="23.1639" fill="#E3EBFA"/>
<rect x="291.673" y="164.173" width="46.3279" height="121.265" rx="23.1639" fill="#386FDC"/>
<circle cx="432.136" cy="141.152" r="50.104" fill="white"/>
<path d="M467.587 176.603C461.933 182.257 455.009 186.477 447.393 188.91C439.777 191.343 431.689 191.919 423.805 190.591C415.92 189.262 408.468 186.067 402.07 181.273C395.672 176.478 390.513 170.222 387.024 163.028L401.972 155.78C404.304 160.59 407.754 164.773 412.032 167.979C416.31 171.185 421.293 173.321 426.565 174.21C431.837 175.098 437.245 174.713 442.337 173.086C447.43 171.459 452.06 168.637 455.84 164.857L467.587 176.603Z" fill="#0D51D9"/>
<path d="M388.717 166.203C384.719 159.279 382.435 151.499 382.056 143.513C381.677 135.526 383.214 127.565 386.538 120.293C389.862 113.022 394.876 106.65 401.164 101.711C407.451 96.7717 414.829 93.4077 422.68 91.8999L425.814 108.218C420.564 109.226 415.632 111.475 411.429 114.777C407.225 118.08 403.872 122.339 401.65 127.201C399.428 132.063 398.4 137.385 398.654 142.725C398.907 148.064 400.434 153.266 403.107 157.895L388.717 166.203Z" fill="#F2C94C"/>
<path d="M422.582 91.9423C430.25 90.4343 438.164 90.7397 445.693 92.834C453.222 94.9284 460.156 98.7537 465.944 104.005L454.795 116.293C450.923 112.78 446.283 110.221 441.246 108.82C436.209 107.418 430.914 107.214 425.784 108.223L422.582 91.9423Z" fill="#4F4F4F"/>
<path d="M465.77 103.958C470.811 108.526 474.87 114.078 477.7 120.275C480.53 126.472 482.07 133.183 482.226 139.998C482.382 146.813 481.152 153.589 478.609 159.91C476.067 166.231 472.266 171.965 467.44 176.76L455.882 165.04C459.12 161.823 461.67 157.977 463.376 153.736C465.081 149.495 465.907 144.95 465.802 140.378C465.697 135.806 464.664 131.304 462.766 127.146C460.867 122.989 458.144 119.264 454.762 116.2L465.77 103.958Z" fill="#27AE60"/>
<rect x="417.579" y="151.173" width="29.4952" height="3.02515" rx="1.51257" fill="#F3F3F3"/>
<rect x="417.73" y="135.22" width="29.3777" height="14.1239" rx="6" fill="#BDBDBD"/>
<rect x="386" y="229.142" width="54.6795" height="4.40964" rx="2.20482" fill="#F3F3F3"/>
<rect x="386" y="254.718" width="54.6795" height="4.40964" rx="2.20482" fill="#F3F3F3"/>
<rect x="386" y="280.294" width="54.6795" height="4.40964" rx="2.20482" fill="#F3F3F3"/>
<rect x="386" y="219" width="92.6024" height="5.73253" rx="2.86627" fill="#4F4F4F"/>
<rect x="386" y="244.576" width="92.6024" height="5.73253" rx="2.86627" fill="#4F4F4F"/>
<rect x="386" y="270.152" width="92.6024" height="5.73253" rx="2.86627" fill="#4F4F4F"/>
<defs>
<filter id="filter0_d_2550_48963" x="14" y="158.583" width="66.3281" height="136.855" filterUnits="userSpaceOnUse" color-interpolation-filters="sRGB">
<feFlood flood-opacity="0" result="BackgroundImageFix"/>
<feColorMatrix in="SourceAlpha" type="matrix" values="0 0 0 0 0 0 0 0 0 0 0 0 0 0 0 0 0 0 127 0" result="hardAlpha"/>
<feMorphology radius="10" operator="dilate" in="SourceAlpha" result="effect1_dropShadow_2550_48963"/>
<feOffset/>
<feComposite in2="hardAlpha" operator="out"/>
<feColorMatrix type="matrix" values="0 0 0 0 0.533333 0 0 0 0 0.533333 0 0 0 0 0.533333 0 0 0 0.25 0"/>
<feBlend mode="normal" in2="BackgroundImageFix" result="effect1_dropShadow_2550_48963"/>
<feBlend mode="normal" in="SourceGraphic" in2="effect1_dropShadow_2550_48963" result="shape"/>
</filter>
</defs>
</svg>
