<svg width="506" height="310" viewBox="0 0 506 310" fill="none" xmlns="http://www.w3.org/2000/svg">
<path d="M0 12C0 5.37259 5.37258 0 12 0H494C500.627 0 506 5.37258 506 12V298C506 304.627 500.627 310 494 310H0V12Z" fill="white"/>
<path d="M31.4375 36.6562H27.3281L26.5469 39H24.0547L28.2891 27.625H30.4609L34.7188 39H32.2266L31.4375 36.6562ZM27.9609 34.7578H30.8047L29.375 30.5L27.9609 34.7578ZM38.0156 39H35.75V27H38.0156V39ZM43.7734 39.1562C42.5339 39.1562 41.5234 38.776 40.7422 38.0156C39.9661 37.2552 39.5781 36.2422 39.5781 34.9766V34.7578C39.5781 33.9089 39.7422 33.151 40.0703 32.4844C40.3984 31.8125 40.862 31.2969 41.4609 30.9375C42.0651 30.5729 42.7526 30.3906 43.5234 30.3906C44.6797 30.3906 45.5885 30.7552 46.25 31.4844C46.9167 32.2135 47.25 33.2474 47.25 34.5859V35.5078H41.8672C41.9401 36.0599 42.1589 36.5026 42.5234 36.8359C42.8932 37.1693 43.3594 37.3359 43.9219 37.3359C44.7917 37.3359 45.4714 37.0208 45.9609 36.3906L47.0703 37.6328C46.7318 38.112 46.2734 38.487 45.6953 38.7578C45.1172 39.0234 44.4766 39.1562 43.7734 39.1562ZM43.5156 32.2188C43.0677 32.2188 42.7031 32.3698 42.4219 32.6719C42.1458 32.974 41.9688 33.4062 41.8906 33.9688H45.0312V33.7891C45.0208 33.2891 44.8854 32.9036 44.625 32.6328C44.3646 32.3568 43.9948 32.2188 43.5156 32.2188ZM53.2891 32.6641C52.9818 32.6224 52.7109 32.6016 52.4766 32.6016C51.6224 32.6016 51.0625 32.8906 50.7969 33.4688V39H48.5391V30.5469H50.6719L50.7344 31.5547C51.1875 30.7786 51.8151 30.3906 52.6172 30.3906C52.8672 30.3906 53.1016 30.4245 53.3203 30.4922L53.2891 32.6641ZM57.4766 28.4688V30.5469H58.9219V32.2031H57.4766V36.4219C57.4766 36.7344 57.5365 36.9583 57.6562 37.0938C57.776 37.2292 58.0052 37.2969 58.3438 37.2969C58.5938 37.2969 58.8151 37.2786 59.0078 37.2422V38.9531C58.5651 39.0885 58.1094 39.1562 57.6406 39.1562C56.0573 39.1562 55.25 38.3568 55.2188 36.7578V32.2031H53.9844V30.5469H55.2188V28.4688H57.4766Z" fill="#EB5757"/>
<path d="M350.907 69H349.636V60.5713L347.086 61.5078V60.3594L350.709 58.999H350.907V69ZM361.134 69H354.612V68.0908L358.058 64.2627C358.568 63.6839 358.919 63.2145 359.11 62.8545C359.306 62.4899 359.404 62.1139 359.404 61.7266C359.404 61.207 359.247 60.7809 358.933 60.4482C358.618 60.1156 358.199 59.9492 357.675 59.9492C357.046 59.9492 356.556 60.1292 356.205 60.4893C355.859 60.8447 355.686 61.3415 355.686 61.9795H354.421C354.421 61.0635 354.715 60.3229 355.303 59.7578C355.895 59.1927 356.686 58.9102 357.675 58.9102C358.6 58.9102 359.331 59.154 359.869 59.6416C360.407 60.1247 360.676 60.7695 360.676 61.5762C360.676 62.556 360.051 63.7227 358.803 65.0762L356.137 67.9678H361.134V69ZM366.274 69V59.0469H369.084C369.95 59.0469 370.715 59.2383 371.381 59.6211C372.046 60.0039 372.559 60.5485 372.919 61.2549C373.284 61.9613 373.468 62.7725 373.473 63.6885V64.3242C373.473 65.263 373.29 66.0856 372.926 66.792C372.566 67.4984 372.049 68.0407 371.374 68.4189C370.704 68.7972 369.923 68.9909 369.029 69H366.274ZM367.587 60.127V67.9268H368.968C369.979 67.9268 370.766 67.6123 371.326 66.9834C371.891 66.3545 372.174 65.459 372.174 64.2969V63.7158C372.174 62.5856 371.907 61.7083 371.374 61.084C370.845 60.4551 370.093 60.1361 369.118 60.127H367.587ZM378.333 69.1367C377.33 69.1367 376.515 68.8086 375.886 68.1523C375.257 67.4915 374.942 66.6097 374.942 65.5068V65.2744C374.942 64.5407 375.081 63.8867 375.359 63.3125C375.642 62.7337 376.034 62.2826 376.535 61.959C377.041 61.6309 377.588 61.4668 378.176 61.4668C379.137 61.4668 379.885 61.7835 380.418 62.417C380.951 63.0505 381.218 63.9574 381.218 65.1377V65.6641H376.207C376.225 66.3932 376.437 66.9834 376.843 67.4346C377.253 67.8812 377.772 68.1045 378.401 68.1045C378.848 68.1045 379.226 68.0133 379.536 67.8311C379.846 67.6488 380.117 67.4072 380.35 67.1064L381.122 67.708C380.502 68.6605 379.573 69.1367 378.333 69.1367ZM378.176 62.5059C377.665 62.5059 377.237 62.6927 376.891 63.0664C376.544 63.4355 376.33 63.9551 376.248 64.625H379.953V64.5293C379.917 63.8867 379.743 63.39 379.434 63.0391C379.124 62.6836 378.704 62.5059 378.176 62.5059ZM385.654 68.1045C386.105 68.1045 386.5 67.9678 386.837 67.6943C387.174 67.4209 387.361 67.0791 387.397 66.6689H388.594C388.571 67.0928 388.425 67.4961 388.156 67.8789C387.887 68.2617 387.527 68.5671 387.076 68.7949C386.63 69.0228 386.156 69.1367 385.654 69.1367C384.647 69.1367 383.845 68.8018 383.248 68.1318C382.656 67.4574 382.359 66.5368 382.359 65.3701V65.1582C382.359 64.4382 382.492 63.7979 382.756 63.2373C383.02 62.6768 383.398 62.2415 383.891 61.9316C384.387 61.6217 384.973 61.4668 385.647 61.4668C386.477 61.4668 387.165 61.7152 387.712 62.2119C388.263 62.7087 388.557 63.3535 388.594 64.1465H387.397C387.361 63.668 387.179 63.276 386.851 62.9707C386.527 62.6608 386.126 62.5059 385.647 62.5059C385.005 62.5059 384.506 62.7383 384.15 63.2031C383.799 63.6634 383.624 64.3311 383.624 65.2061V65.4453C383.624 66.2975 383.799 66.9538 384.15 67.4141C384.501 67.8743 385.003 68.1045 385.654 68.1045ZM399.88 69H393.358V68.0908L396.804 64.2627C397.314 63.6839 397.665 63.2145 397.856 62.8545C398.052 62.4899 398.15 62.1139 398.15 61.7266C398.15 61.207 397.993 60.7809 397.679 60.4482C397.364 60.1156 396.945 59.9492 396.421 59.9492C395.792 59.9492 395.302 60.1292 394.951 60.4893C394.605 60.8447 394.432 61.3415 394.432 61.9795H393.167C393.167 61.0635 393.461 60.3229 394.049 59.7578C394.641 59.1927 395.432 58.9102 396.421 58.9102C397.346 58.9102 398.077 59.154 398.615 59.6416C399.153 60.1247 399.422 60.7695 399.422 61.5762C399.422 62.556 398.798 63.7227 397.549 65.0762L394.883 67.9678H399.88V69ZM407.461 64.7549C407.461 66.236 407.208 67.3366 406.702 68.0566C406.196 68.7767 405.406 69.1367 404.33 69.1367C403.268 69.1367 402.482 68.7858 401.972 68.084C401.461 67.3776 401.197 66.3249 401.179 64.9258V63.2373C401.179 61.7744 401.432 60.6875 401.938 59.9766C402.443 59.2656 403.236 58.9102 404.316 58.9102C405.387 58.9102 406.176 59.2542 406.682 59.9424C407.188 60.626 407.447 61.6833 407.461 63.1143V64.7549ZM406.196 63.0254C406.196 61.9544 406.046 61.1751 405.745 60.6875C405.444 60.1953 404.968 59.9492 404.316 59.9492C403.669 59.9492 403.198 60.193 402.901 60.6807C402.605 61.1683 402.452 61.918 402.443 62.9297V64.9531C402.443 66.0286 402.598 66.8239 402.908 67.3389C403.223 67.8493 403.697 68.1045 404.33 68.1045C404.954 68.1045 405.417 67.863 405.718 67.3799C406.023 66.8968 406.183 66.1357 406.196 65.0967V63.0254ZM415.603 69H409.081V68.0908L412.526 64.2627C413.037 63.6839 413.388 63.2145 413.579 62.8545C413.775 62.4899 413.873 62.1139 413.873 61.7266C413.873 61.207 413.716 60.7809 413.401 60.4482C413.087 60.1156 412.668 59.9492 412.144 59.9492C411.515 59.9492 411.025 60.1292 410.674 60.4893C410.327 60.8447 410.154 61.3415 410.154 61.9795H408.89C408.89 61.0635 409.184 60.3229 409.771 59.7578C410.364 59.1927 411.155 58.9102 412.144 58.9102C413.069 58.9102 413.8 59.154 414.338 59.6416C414.876 60.1247 415.145 60.7695 415.145 61.5762C415.145 62.556 414.52 63.7227 413.271 65.0762L410.605 67.9678H415.603V69ZM421.099 69H419.827V60.5713L417.277 61.5078V60.3594L420.9 58.999H421.099V69ZM424.893 70.9824L424.175 70.4902C424.603 69.8932 424.826 69.278 424.845 68.6445V67.5029H426.082V68.4941C426.082 68.9544 425.968 69.4147 425.74 69.875C425.517 70.3353 425.234 70.7044 424.893 70.9824ZM435.871 64.625C435.607 64.9395 435.29 65.1924 434.921 65.3838C434.556 65.5752 434.155 65.6709 433.718 65.6709C433.144 65.6709 432.642 65.5296 432.214 65.2471C431.79 64.9645 431.462 64.568 431.229 64.0576C430.997 63.5426 430.881 62.9753 430.881 62.3555C430.881 61.6901 431.006 61.0908 431.257 60.5576C431.512 60.0244 431.872 59.6165 432.337 59.334C432.802 59.0514 433.344 58.9102 433.964 58.9102C434.948 58.9102 435.723 59.2793 436.288 60.0176C436.858 60.7513 437.143 61.7539 437.143 63.0254V63.3945C437.143 65.3314 436.76 66.7464 435.994 67.6396C435.229 68.5283 434.073 68.984 432.528 69.0068H432.282V67.9404H432.549C433.592 67.9222 434.395 67.651 434.955 67.127C435.516 66.5983 435.821 65.7643 435.871 64.625ZM433.923 64.625C434.347 64.625 434.736 64.4951 435.092 64.2354C435.452 63.9756 435.714 63.6543 435.878 63.2715V62.7656C435.878 61.9362 435.698 61.2617 435.338 60.7422C434.978 60.2227 434.522 59.9629 433.971 59.9629C433.415 59.9629 432.968 60.1771 432.631 60.6055C432.294 61.0293 432.125 61.5898 432.125 62.2871C432.125 62.9661 432.287 63.5267 432.61 63.9688C432.938 64.4062 433.376 64.625 433.923 64.625ZM438.975 68.3369C438.975 68.1182 439.038 67.9359 439.166 67.79C439.298 67.6442 439.494 67.5713 439.754 67.5713C440.014 67.5713 440.21 67.6442 440.342 67.79C440.479 67.9359 440.547 68.1182 440.547 68.3369C440.547 68.5465 440.479 68.722 440.342 68.8633C440.21 69.0046 440.014 69.0752 439.754 69.0752C439.494 69.0752 439.298 69.0046 439.166 68.8633C439.038 68.722 438.975 68.5465 438.975 68.3369ZM438.981 62.3008C438.981 62.082 439.045 61.8997 439.173 61.7539C439.305 61.6081 439.501 61.5352 439.761 61.5352C440.021 61.5352 440.216 61.6081 440.349 61.7539C440.485 61.8997 440.554 62.082 440.554 62.3008C440.554 62.5104 440.485 62.6859 440.349 62.8271C440.216 62.9684 440.021 63.0391 439.761 63.0391C439.501 63.0391 439.305 62.9684 439.173 62.8271C439.045 62.6859 438.981 62.5104 438.981 62.3008ZM448.518 64.7549C448.518 66.236 448.265 67.3366 447.759 68.0566C447.253 68.7767 446.462 69.1367 445.387 69.1367C444.325 69.1367 443.539 68.7858 443.028 68.084C442.518 67.3776 442.254 66.3249 442.235 64.9258V63.2373C442.235 61.7744 442.488 60.6875 442.994 59.9766C443.5 59.2656 444.293 58.9102 445.373 58.9102C446.444 58.9102 447.232 59.2542 447.738 59.9424C448.244 60.626 448.504 61.6833 448.518 63.1143V64.7549ZM447.253 63.0254C447.253 61.9544 447.103 61.1751 446.802 60.6875C446.501 60.1953 446.025 59.9492 445.373 59.9492C444.726 59.9492 444.254 60.193 443.958 60.6807C443.662 61.1683 443.509 61.918 443.5 62.9297V64.9531C443.5 66.0286 443.655 66.8239 443.965 67.3389C444.279 67.8493 444.753 68.1045 445.387 68.1045C446.011 68.1045 446.474 67.863 446.774 67.3799C447.08 66.8968 447.239 66.1357 447.253 65.0967V63.0254ZM456.379 64.7549C456.379 66.236 456.126 67.3366 455.62 68.0566C455.114 68.7767 454.324 69.1367 453.248 69.1367C452.186 69.1367 451.4 68.7858 450.89 68.084C450.379 67.3776 450.115 66.3249 450.097 64.9258V63.2373C450.097 61.7744 450.35 60.6875 450.855 59.9766C451.361 59.2656 452.154 58.9102 453.234 58.9102C454.305 58.9102 455.094 59.2542 455.6 59.9424C456.105 60.626 456.365 61.6833 456.379 63.1143V64.7549ZM455.114 63.0254C455.114 61.9544 454.964 61.1751 454.663 60.6875C454.362 60.1953 453.886 59.9492 453.234 59.9492C452.587 59.9492 452.116 60.193 451.819 60.6807C451.523 61.1683 451.37 61.918 451.361 62.9297V64.9531C451.361 66.0286 451.516 66.8239 451.826 67.3389C452.141 67.8493 452.615 68.1045 453.248 68.1045C453.872 68.1045 454.335 67.863 454.636 67.3799C454.941 66.8968 455.101 66.1357 455.114 65.0967V63.0254ZM467.296 66.4023H463.126L462.189 69H460.836L464.637 59.0469H465.785L469.593 69H468.246L467.296 66.4023ZM463.522 65.3223H466.906L465.211 60.667L463.522 65.3223ZM472.628 59.0469L475.882 67.168L479.136 59.0469H480.838V69H479.525V65.124L479.648 60.9404L476.381 69H475.376L472.115 60.9609L472.245 65.124V69H470.933V59.0469H472.628Z" fill="#828282"/>
<path d="M37.125 62.2734V64.1133H27.8906V62.2734H37.125ZM28.2422 54.9375V72H25.9805V54.9375H28.2422ZM39.0938 54.9375V72H36.8438V54.9375H39.0938ZM48.0469 72.2344C47.1641 72.2344 46.3633 72.0859 45.6445 71.7891C44.9336 71.4844 44.3203 71.0586 43.8047 70.5117C43.2969 69.9648 42.9062 69.3164 42.6328 68.5664C42.3594 67.8164 42.2227 66.9961 42.2227 66.1055V65.6133C42.2227 64.582 42.375 63.6641 42.6797 62.8594C42.9844 62.0469 43.3984 61.3594 43.9219 60.7969C44.4453 60.2344 45.0391 59.8086 45.7031 59.5195C46.3672 59.2305 47.0547 59.0859 47.7656 59.0859C48.6719 59.0859 49.4531 59.2422 50.1094 59.5547C50.7734 59.8672 51.3164 60.3047 51.7383 60.8672C52.1602 61.4219 52.4727 62.0781 52.6758 62.8359C52.8789 63.5859 52.9805 64.4062 52.9805 65.2969V66.2695H43.5117V64.5H50.8125V64.3359C50.7812 63.7734 50.6641 63.2266 50.4609 62.6953C50.2656 62.1641 49.9531 61.7266 49.5234 61.3828C49.0938 61.0391 48.5078 60.8672 47.7656 60.8672C47.2734 60.8672 46.8203 60.9727 46.4062 61.1836C45.9922 61.3867 45.6367 61.6914 45.3398 62.0977C45.043 62.5039 44.8125 63 44.6484 63.5859C44.4844 64.1719 44.4023 64.8477 44.4023 65.6133V66.1055C44.4023 66.707 44.4844 67.2734 44.6484 67.8047C44.8203 68.3281 45.0664 68.7891 45.3867 69.1875C45.7148 69.5859 46.1094 69.8984 46.5703 70.125C47.0391 70.3516 47.5703 70.4648 48.1641 70.4648C48.9297 70.4648 49.5781 70.3086 50.1094 69.9961C50.6406 69.6836 51.1055 69.2656 51.5039 68.7422L52.8164 69.7852C52.543 70.1992 52.1953 70.5938 51.7734 70.9688C51.3516 71.3438 50.832 71.6484 50.2148 71.8828C49.6055 72.1172 48.8828 72.2344 48.0469 72.2344ZM62.9883 69.832V63.3047C62.9883 62.8047 62.8867 62.3711 62.6836 62.0039C62.4883 61.6289 62.1914 61.3398 61.793 61.1367C61.3945 60.9336 60.9023 60.832 60.3164 60.832C59.7695 60.832 59.2891 60.9258 58.875 61.1133C58.4688 61.3008 58.1484 61.5469 57.9141 61.8516C57.6875 62.1562 57.5742 62.4844 57.5742 62.8359H55.4062C55.4062 62.3828 55.5234 61.9336 55.7578 61.4883C55.9922 61.043 56.3281 60.6406 56.7656 60.2812C57.2109 59.9141 57.7422 59.625 58.3594 59.4141C58.9844 59.1953 59.6797 59.0859 60.4453 59.0859C61.3672 59.0859 62.1797 59.2422 62.8828 59.5547C63.5938 59.8672 64.1484 60.3398 64.5469 60.9727C64.9531 61.5977 65.1562 62.3828 65.1562 63.3281V69.2344C65.1562 69.6562 65.1914 70.1055 65.2617 70.582C65.3398 71.0586 65.4531 71.4688 65.6016 71.8125V72H63.3398C63.2305 71.75 63.1445 71.418 63.082 71.0039C63.0195 70.582 62.9883 70.1914 62.9883 69.832ZM63.3633 64.3125L63.3867 65.8359H61.1953C60.5781 65.8359 60.0273 65.8867 59.543 65.9883C59.0586 66.082 58.6523 66.2266 58.3242 66.4219C57.9961 66.6172 57.7461 66.8633 57.5742 67.1602C57.4023 67.4492 57.3164 67.7891 57.3164 68.1797C57.3164 68.5781 57.4062 68.9414 57.5859 69.2695C57.7656 69.5977 58.0352 69.8594 58.3945 70.0547C58.7617 70.2422 59.2109 70.3359 59.7422 70.3359C60.4062 70.3359 60.9922 70.1953 61.5 69.9141C62.0078 69.6328 62.4102 69.2891 62.707 68.8828C63.0117 68.4766 63.1758 68.082 63.1992 67.6992L64.125 68.7422C64.0703 69.0703 63.9219 69.4336 63.6797 69.832C63.4375 70.2305 63.1133 70.6133 62.707 70.9805C62.3086 71.3398 61.832 71.6406 61.2773 71.8828C60.7305 72.1172 60.1133 72.2344 59.4258 72.2344C58.5664 72.2344 57.8125 72.0664 57.1641 71.7305C56.5234 71.3945 56.0234 70.9453 55.6641 70.3828C55.3125 69.8125 55.1367 69.1758 55.1367 68.4727C55.1367 67.793 55.2695 67.1953 55.5352 66.6797C55.8008 66.1562 56.1836 65.7227 56.6836 65.3789C57.1836 65.0273 57.7852 64.7617 58.4883 64.582C59.1914 64.4023 59.9766 64.3125 60.8438 64.3125H63.3633ZM76.5586 69.5391V54H78.7383V72H76.7461L76.5586 69.5391ZM68.0273 65.8008V65.5547C68.0273 64.5859 68.1445 63.707 68.3789 62.918C68.6211 62.1211 68.9609 61.4375 69.3984 60.8672C69.8438 60.2969 70.3711 59.8594 70.9805 59.5547C71.5977 59.2422 72.2852 59.0859 73.043 59.0859C73.8398 59.0859 74.5352 59.2266 75.1289 59.5078C75.7305 59.7812 76.2383 60.1836 76.6523 60.7148C77.0742 61.2383 77.4062 61.8711 77.6484 62.6133C77.8906 63.3555 78.0586 64.1953 78.1523 65.1328V66.2109C78.0664 67.1406 77.8984 67.9766 77.6484 68.7188C77.4062 69.4609 77.0742 70.0938 76.6523 70.6172C76.2383 71.1406 75.7305 71.543 75.1289 71.8242C74.5273 72.0977 73.8242 72.2344 73.0195 72.2344C72.2773 72.2344 71.5977 72.0742 70.9805 71.7539C70.3711 71.4336 69.8438 70.9844 69.3984 70.4062C68.9609 69.8281 68.6211 69.1484 68.3789 68.3672C68.1445 67.5781 68.0273 66.7227 68.0273 65.8008ZM70.207 65.5547V65.8008C70.207 66.4336 70.2695 67.0273 70.3945 67.582C70.5273 68.1367 70.7305 68.625 71.0039 69.0469C71.2773 69.4688 71.625 69.8008 72.0469 70.043C72.4688 70.2773 72.9727 70.3945 73.5586 70.3945C74.2773 70.3945 74.8672 70.2422 75.3281 69.9375C75.7969 69.6328 76.1719 69.2305 76.4531 68.7305C76.7344 68.2305 76.9531 67.6875 77.1094 67.1016V64.2773C77.0156 63.8477 76.8789 63.4336 76.6992 63.0352C76.5273 62.6289 76.3008 62.2695 76.0195 61.957C75.7461 61.6367 75.4062 61.3828 75 61.1953C74.6016 61.0078 74.1289 60.9141 73.582 60.9141C72.9883 60.9141 72.4766 61.0391 72.0469 61.2891C71.625 61.5312 71.2773 61.8672 71.0039 62.2969C70.7305 62.7188 70.5273 63.2109 70.3945 63.7734C70.2695 64.3281 70.207 64.9219 70.207 65.5547ZM101.531 62.9297V64.0078C101.531 65.2891 101.371 66.4375 101.051 67.4531C100.73 68.4688 100.27 69.332 99.668 70.043C99.0664 70.7539 98.3438 71.2969 97.5 71.6719C96.6641 72.0469 95.7266 72.2344 94.6875 72.2344C93.6797 72.2344 92.7539 72.0469 91.9102 71.6719C91.0742 71.2969 90.3477 70.7539 89.7305 70.043C89.1211 69.332 88.6484 68.4688 88.3125 67.4531C87.9766 66.4375 87.8086 65.2891 87.8086 64.0078V62.9297C87.8086 61.6484 87.9727 60.5039 88.3008 59.4961C88.6367 58.4805 89.1094 57.6172 89.7188 56.9062C90.3281 56.1875 91.0508 55.6406 91.8867 55.2656C92.7305 54.8906 93.6562 54.7031 94.6641 54.7031C95.7031 54.7031 96.6406 54.8906 97.4766 55.2656C98.3203 55.6406 99.043 56.1875 99.6445 56.9062C100.254 57.6172 100.719 58.4805 101.039 59.4961C101.367 60.5039 101.531 61.6484 101.531 62.9297ZM99.293 64.0078V62.9062C99.293 61.8906 99.1875 60.9922 98.9766 60.2109C98.7734 59.4297 98.4727 58.7734 98.0742 58.2422C97.6758 57.7109 97.1875 57.3086 96.6094 57.0352C96.0391 56.7617 95.3906 56.625 94.6641 56.625C93.9609 56.625 93.3242 56.7617 92.7539 57.0352C92.1914 57.3086 91.707 57.7109 91.3008 58.2422C90.9023 58.7734 90.5938 59.4297 90.375 60.2109C90.1562 60.9922 90.0469 61.8906 90.0469 62.9062V64.0078C90.0469 65.0312 90.1562 65.9375 90.375 66.7266C90.5938 67.5078 90.9062 68.168 91.3125 68.707C91.7266 69.2383 92.2148 69.6406 92.7773 69.9141C93.3477 70.1875 93.9844 70.3242 94.6875 70.3242C95.4219 70.3242 96.0742 70.1875 96.6445 69.9141C97.2148 69.6406 97.6953 69.2383 98.0859 68.707C98.4844 68.168 98.7852 67.5078 98.9883 66.7266C99.1914 65.9375 99.293 65.0312 99.293 64.0078ZM107.824 72H105.656V57.9844C105.656 57.0703 105.82 56.3008 106.148 55.6758C106.484 55.043 106.965 54.5664 107.59 54.2461C108.215 53.918 108.957 53.7539 109.816 53.7539C110.066 53.7539 110.316 53.7695 110.566 53.8008C110.824 53.832 111.074 53.8789 111.316 53.9414L111.199 55.7109C111.035 55.6719 110.848 55.6445 110.637 55.6289C110.434 55.6133 110.23 55.6055 110.027 55.6055C109.566 55.6055 109.168 55.6992 108.832 55.8867C108.504 56.0664 108.254 56.332 108.082 56.6836C107.91 57.0352 107.824 57.4688 107.824 57.9844V72ZM110.637 59.3203V60.9844H103.652V59.3203H110.637ZM114.68 72H112.512V58.2188C112.512 57.2578 112.695 56.4453 113.062 55.7812C113.438 55.1172 113.973 54.6133 114.668 54.2695C115.363 53.9258 116.188 53.7539 117.141 53.7539C117.711 53.7539 118.266 53.8242 118.805 53.9648C119.344 54.0977 119.898 54.2656 120.469 54.4688L120.094 56.2969C119.742 56.1562 119.328 56.0234 118.852 55.8984C118.375 55.7656 117.859 55.6992 117.305 55.6992C116.375 55.6992 115.703 55.9102 115.289 56.332C114.883 56.7461 114.68 57.375 114.68 58.2188V72ZM117.27 59.3203V60.9844H110.508V59.3203H117.27ZM121.535 59.3203V72H119.367V59.3203H121.535ZM130.148 70.4531C130.664 70.4531 131.141 70.3477 131.578 70.1367C132.016 69.9258 132.375 69.6367 132.656 69.2695C132.938 68.8945 133.098 68.4688 133.137 67.9922H135.199C135.16 68.7422 134.906 69.4414 134.438 70.0898C133.977 70.7305 133.371 71.25 132.621 71.6484C131.871 72.0391 131.047 72.2344 130.148 72.2344C129.195 72.2344 128.363 72.0664 127.652 71.7305C126.949 71.3945 126.363 70.9336 125.895 70.3477C125.434 69.7617 125.086 69.0898 124.852 68.332C124.625 67.5664 124.512 66.7578 124.512 65.9062V65.4141C124.512 64.5625 124.625 63.7578 124.852 63C125.086 62.2344 125.434 61.5586 125.895 60.9727C126.363 60.3867 126.949 59.9258 127.652 59.5898C128.363 59.2539 129.195 59.0859 130.148 59.0859C131.141 59.0859 132.008 59.2891 132.75 59.6953C133.492 60.0938 134.074 60.6406 134.496 61.3359C134.926 62.0234 135.16 62.8047 135.199 63.6797H133.137C133.098 63.1562 132.949 62.6836 132.691 62.2617C132.441 61.8398 132.098 61.5039 131.66 61.2539C131.23 60.9961 130.727 60.8672 130.148 60.8672C129.484 60.8672 128.926 61 128.473 61.2656C128.027 61.5234 127.672 61.875 127.406 62.3203C127.148 62.7578 126.961 63.2461 126.844 63.7852C126.734 64.3164 126.68 64.8594 126.68 65.4141V65.9062C126.68 66.4609 126.734 67.0078 126.844 67.5469C126.953 68.0859 127.137 68.5742 127.395 69.0117C127.66 69.4492 128.016 69.8008 128.461 70.0664C128.914 70.3242 129.477 70.4531 130.148 70.4531ZM142.898 72.2344C142.016 72.2344 141.215 72.0859 140.496 71.7891C139.785 71.4844 139.172 71.0586 138.656 70.5117C138.148 69.9648 137.758 69.3164 137.484 68.5664C137.211 67.8164 137.074 66.9961 137.074 66.1055V65.6133C137.074 64.582 137.227 63.6641 137.531 62.8594C137.836 62.0469 138.25 61.3594 138.773 60.7969C139.297 60.2344 139.891 59.8086 140.555 59.5195C141.219 59.2305 141.906 59.0859 142.617 59.0859C143.523 59.0859 144.305 59.2422 144.961 59.5547C145.625 59.8672 146.168 60.3047 146.59 60.8672C147.012 61.4219 147.324 62.0781 147.527 62.8359C147.73 63.5859 147.832 64.4062 147.832 65.2969V66.2695H138.363V64.5H145.664V64.3359C145.633 63.7734 145.516 63.2266 145.312 62.6953C145.117 62.1641 144.805 61.7266 144.375 61.3828C143.945 61.0391 143.359 60.8672 142.617 60.8672C142.125 60.8672 141.672 60.9727 141.258 61.1836C140.844 61.3867 140.488 61.6914 140.191 62.0977C139.895 62.5039 139.664 63 139.5 63.5859C139.336 64.1719 139.254 64.8477 139.254 65.6133V66.1055C139.254 66.707 139.336 67.2734 139.5 67.8047C139.672 68.3281 139.918 68.7891 140.238 69.1875C140.566 69.5859 140.961 69.8984 141.422 70.125C141.891 70.3516 142.422 70.4648 143.016 70.4648C143.781 70.4648 144.43 70.3086 144.961 69.9961C145.492 69.6836 145.957 69.2656 146.355 68.7422L147.668 69.7852C147.395 70.1992 147.047 70.5938 146.625 70.9688C146.203 71.3438 145.684 71.6484 145.066 71.8828C144.457 72.1172 143.734 72.2344 142.898 72.2344ZM160.828 63.8555V65.6367H155.109V63.8555H160.828ZM175.523 65.3086H170.965V63.4688H175.523C176.406 63.4688 177.121 63.3281 177.668 63.0469C178.215 62.7656 178.613 62.375 178.863 61.875C179.121 61.375 179.25 60.8047 179.25 60.1641C179.25 59.5781 179.121 59.0273 178.863 58.5117C178.613 57.9961 178.215 57.582 177.668 57.2695C177.121 56.9492 176.406 56.7891 175.523 56.7891H171.492V72H169.23V54.9375H175.523C176.812 54.9375 177.902 55.1602 178.793 55.6055C179.684 56.0508 180.359 56.668 180.82 57.457C181.281 58.2383 181.512 59.1328 181.512 60.1406C181.512 61.2344 181.281 62.168 180.82 62.9414C180.359 63.7148 179.684 64.3047 178.793 64.7109C177.902 65.1094 176.812 65.3086 175.523 65.3086ZM186.211 61.3125V72H184.043V59.3203H186.152L186.211 61.3125ZM190.172 59.25L190.16 61.2656C189.98 61.2266 189.809 61.2031 189.645 61.1953C189.488 61.1797 189.309 61.1719 189.105 61.1719C188.605 61.1719 188.164 61.25 187.781 61.4062C187.398 61.5625 187.074 61.7812 186.809 62.0625C186.543 62.3438 186.332 62.6797 186.176 63.0703C186.027 63.4531 185.93 63.875 185.883 64.3359L185.273 64.6875C185.273 63.9219 185.348 63.2031 185.496 62.5312C185.652 61.8594 185.891 61.2656 186.211 60.75C186.531 60.2266 186.938 59.8203 187.43 59.5312C187.93 59.2344 188.523 59.0859 189.211 59.0859C189.367 59.0859 189.547 59.1055 189.75 59.1445C189.953 59.1758 190.094 59.2109 190.172 59.25ZM194.531 59.3203V72H192.352V59.3203H194.531ZM192.188 55.957C192.188 55.6055 192.293 55.3086 192.504 55.0664C192.723 54.8242 193.043 54.7031 193.465 54.7031C193.879 54.7031 194.195 54.8242 194.414 55.0664C194.641 55.3086 194.754 55.6055 194.754 55.957C194.754 56.293 194.641 56.582 194.414 56.8242C194.195 57.0586 193.879 57.1758 193.465 57.1758C193.043 57.1758 192.723 57.0586 192.504 56.8242C192.293 56.582 192.188 56.293 192.188 55.957ZM200.168 61.8398V72H197.988V59.3203H200.051L200.168 61.8398ZM199.723 65.1797L198.715 65.1445C198.723 64.2773 198.836 63.4766 199.055 62.7422C199.273 62 199.598 61.3555 200.027 60.8086C200.457 60.2617 200.992 59.8398 201.633 59.543C202.273 59.2383 203.016 59.0859 203.859 59.0859C204.453 59.0859 205 59.1719 205.5 59.3438C206 59.5078 206.434 59.7695 206.801 60.1289C207.168 60.4883 207.453 60.9492 207.656 61.5117C207.859 62.0742 207.961 62.7539 207.961 63.5508V72H205.793V63.6562C205.793 62.9922 205.68 62.4609 205.453 62.0625C205.234 61.6641 204.922 61.375 204.516 61.1953C204.109 61.0078 203.633 60.9141 203.086 60.9141C202.445 60.9141 201.91 61.0273 201.48 61.2539C201.051 61.4805 200.707 61.793 200.449 62.1914C200.191 62.5898 200.004 63.0469 199.887 63.5625C199.777 64.0703 199.723 64.6094 199.723 65.1797ZM207.938 63.9844L206.484 64.4297C206.492 63.7344 206.605 63.0664 206.824 62.4258C207.051 61.7852 207.375 61.2148 207.797 60.7148C208.227 60.2148 208.754 59.8203 209.379 59.5312C210.004 59.2344 210.719 59.0859 211.523 59.0859C212.203 59.0859 212.805 59.1758 213.328 59.3555C213.859 59.5352 214.305 59.8125 214.664 60.1875C215.031 60.5547 215.309 61.0273 215.496 61.6055C215.684 62.1836 215.777 62.8711 215.777 63.668V72H213.598V63.6445C213.598 62.9336 213.484 62.3828 213.258 61.9922C213.039 61.5938 212.727 61.3164 212.32 61.1602C211.922 60.9961 211.445 60.9141 210.891 60.9141C210.414 60.9141 209.992 60.9961 209.625 61.1602C209.258 61.3242 208.949 61.5508 208.699 61.8398C208.449 62.1211 208.258 62.4453 208.125 62.8125C208 63.1797 207.938 63.5703 207.938 63.9844ZM226.535 69.832V63.3047C226.535 62.8047 226.434 62.3711 226.23 62.0039C226.035 61.6289 225.738 61.3398 225.34 61.1367C224.941 60.9336 224.449 60.832 223.863 60.832C223.316 60.832 222.836 60.9258 222.422 61.1133C222.016 61.3008 221.695 61.5469 221.461 61.8516C221.234 62.1562 221.121 62.4844 221.121 62.8359H218.953C218.953 62.3828 219.07 61.9336 219.305 61.4883C219.539 61.043 219.875 60.6406 220.312 60.2812C220.758 59.9141 221.289 59.625 221.906 59.4141C222.531 59.1953 223.227 59.0859 223.992 59.0859C224.914 59.0859 225.727 59.2422 226.43 59.5547C227.141 59.8672 227.695 60.3398 228.094 60.9727C228.5 61.5977 228.703 62.3828 228.703 63.3281V69.2344C228.703 69.6562 228.738 70.1055 228.809 70.582C228.887 71.0586 229 71.4688 229.148 71.8125V72H226.887C226.777 71.75 226.691 71.418 226.629 71.0039C226.566 70.582 226.535 70.1914 226.535 69.832ZM226.91 64.3125L226.934 65.8359H224.742C224.125 65.8359 223.574 65.8867 223.09 65.9883C222.605 66.082 222.199 66.2266 221.871 66.4219C221.543 66.6172 221.293 66.8633 221.121 67.1602C220.949 67.4492 220.863 67.7891 220.863 68.1797C220.863 68.5781 220.953 68.9414 221.133 69.2695C221.312 69.5977 221.582 69.8594 221.941 70.0547C222.309 70.2422 222.758 70.3359 223.289 70.3359C223.953 70.3359 224.539 70.1953 225.047 69.9141C225.555 69.6328 225.957 69.2891 226.254 68.8828C226.559 68.4766 226.723 68.082 226.746 67.6992L227.672 68.7422C227.617 69.0703 227.469 69.4336 227.227 69.832C226.984 70.2305 226.66 70.6133 226.254 70.9805C225.855 71.3398 225.379 71.6406 224.824 71.8828C224.277 72.1172 223.66 72.2344 222.973 72.2344C222.113 72.2344 221.359 72.0664 220.711 71.7305C220.07 71.3945 219.57 70.9453 219.211 70.3828C218.859 69.8125 218.684 69.1758 218.684 68.4727C218.684 67.793 218.816 67.1953 219.082 66.6797C219.348 66.1562 219.73 65.7227 220.23 65.3789C220.73 65.0273 221.332 64.7617 222.035 64.582C222.738 64.4023 223.523 64.3125 224.391 64.3125H226.91ZM234.281 61.3125V72H232.113V59.3203H234.223L234.281 61.3125ZM238.242 59.25L238.23 61.2656C238.051 61.2266 237.879 61.2031 237.715 61.1953C237.559 61.1797 237.379 61.1719 237.176 61.1719C236.676 61.1719 236.234 61.25 235.852 61.4062C235.469 61.5625 235.145 61.7812 234.879 62.0625C234.613 62.3438 234.402 62.6797 234.246 63.0703C234.098 63.4531 234 63.875 233.953 64.3359L233.344 64.6875C233.344 63.9219 233.418 63.2031 233.566 62.5312C233.723 61.8594 233.961 61.2656 234.281 60.75C234.602 60.2266 235.008 59.8203 235.5 59.5312C236 59.2344 236.594 59.0859 237.281 59.0859C237.438 59.0859 237.617 59.1055 237.82 59.1445C238.023 59.1758 238.164 59.2109 238.242 59.25ZM244.02 70.6875L247.547 59.3203H249.867L244.781 73.957C244.664 74.2695 244.508 74.6055 244.312 74.9648C244.125 75.332 243.883 75.6797 243.586 76.0078C243.289 76.3359 242.93 76.6016 242.508 76.8047C242.094 77.0156 241.598 77.1211 241.02 77.1211C240.848 77.1211 240.629 77.0977 240.363 77.0508C240.098 77.0039 239.91 76.9648 239.801 76.9336L239.789 75.1758C239.852 75.1836 239.949 75.1914 240.082 75.1992C240.223 75.2148 240.32 75.2227 240.375 75.2227C240.867 75.2227 241.285 75.1562 241.629 75.0234C241.973 74.8984 242.262 74.6836 242.496 74.3789C242.738 74.082 242.945 73.6719 243.117 73.1484L244.02 70.6875ZM241.43 59.3203L244.723 69.1641L245.285 71.4492L243.727 72.2461L239.062 59.3203H241.43Z" fill="black"/>
<rect x="24" y="114" width="76" height="18" rx="9" fill="#E0E0E0"/>
<rect x="57" y="155" width="379" height="18" rx="9" fill="#E0E0E0"/>
<rect x="57" y="181" width="410" height="18" rx="9" fill="#E0E0E0"/>
<rect x="57" y="207" width="253" height="18" rx="9" fill="#E0E0E0"/>
<rect x="112" y="114" width="76" height="18" rx="9" fill="#E0E0E0"/>
<path fill-rule="evenodd" clip-rule="evenodd" d="M35 160C35 159.448 35.448 159 36 159C36.552 159 37 159.448 37 160V165C37 165.552 36.552 166 36 166C35.448 166 35 165.552 35 165V160ZM35 168C35 167.448 35.448 167 36 167C36.552 167 37 167.448 37 168C37 168.552 36.552 169 36 169C35.448 169 35 168.552 35 168ZM36 172C31.589 172 28 168.411 28 164C28 159.589 31.589 156 36 156C40.411 156 44 159.589 44 164C44 168.411 40.411 172 36 172ZM36 154C30.477 154 26 158.477 26 164C26 169.523 30.477 174 36 174C41.523 174 46 169.523 46 164C46 158.477 41.523 154 36 154Z" fill="#231F20"/>
<mask id="mask0_2727_50821" style="mask-type:alpha" maskUnits="userSpaceOnUse" x="26" y="154" width="20" height="20">
<path fill-rule="evenodd" clip-rule="evenodd" d="M35 160C35 159.448 35.448 159 36 159C36.552 159 37 159.448 37 160V165C37 165.552 36.552 166 36 166C35.448 166 35 165.552 35 165V160ZM35 168C35 167.448 35.448 167 36 167C36.552 167 37 167.448 37 168C37 168.552 36.552 169 36 169C35.448 169 35 168.552 35 168ZM36 172C31.589 172 28 168.411 28 164C28 159.589 31.589 156 36 156C40.411 156 44 159.589 44 164C44 168.411 40.411 172 36 172ZM36 154C30.477 154 26 158.477 26 164C26 169.523 30.477 174 36 174C41.523 174 46 169.523 46 164C46 158.477 41.523 154 36 154Z" fill="white"/>
</mask>
<g mask="url(#mask0_2727_50821)">
<rect x="24" y="152" width="24" height="24" fill="#828282"/>
</g>
<rect x="24" y="247" width="105" height="38" rx="19" fill="#BDBDBD"/>
<rect x="141" y="247" width="106" height="38" rx="19" fill="#BDBDBD"/>
<rect x="259" y="247" width="106" height="38" rx="19" fill="#BDBDBD"/>
<rect x="377" y="247" width="105" height="38" rx="19" fill="#BDBDBD"/>
<rect x="41" y="260" width="67" height="13" rx="6.5" fill="white"/>
<rect x="160" y="260" width="67" height="13" rx="6.5" fill="white"/>
<rect x="278" y="260" width="67" height="13" rx="6.5" fill="white"/>
<rect x="396" y="260" width="67" height="13" rx="6.5" fill="white"/>
<rect x="414" y="24" width="68" height="24" rx="12" fill="#EB5757"/>
<path d="M434.477 37.8418C434.354 38.8945 433.964 39.708 433.308 40.2822C432.656 40.8519 431.788 41.1367 430.703 41.1367C429.527 41.1367 428.584 40.7152 427.873 39.8721C427.167 39.029 426.813 37.901 426.813 36.4883V35.5312C426.813 34.6061 426.978 33.7926 427.306 33.0908C427.638 32.389 428.108 31.8512 428.714 31.4775C429.32 31.0993 430.022 30.9102 430.819 30.9102C431.877 30.9102 432.724 31.2064 433.362 31.7988C434 32.3867 434.372 33.2025 434.477 34.2461H433.157C433.043 33.4531 432.795 32.8789 432.412 32.5234C432.034 32.168 431.503 31.9902 430.819 31.9902C429.981 31.9902 429.322 32.3001 428.844 32.9199C428.37 33.5397 428.133 34.4215 428.133 35.5654V36.5293C428.133 37.6094 428.358 38.4684 428.81 39.1064C429.261 39.7445 429.892 40.0635 430.703 40.0635C431.432 40.0635 431.991 39.8994 432.378 39.5713C432.77 39.2386 433.03 38.6621 433.157 37.8418H434.477ZM439.651 34.7383C439.46 34.7064 439.253 34.6904 439.029 34.6904C438.2 34.6904 437.637 35.0436 437.341 35.75V41H436.076V33.6035H437.307L437.327 34.458C437.742 33.7972 438.33 33.4668 439.091 33.4668C439.337 33.4668 439.524 33.4987 439.651 33.5625V34.7383ZM442.194 41H440.93V33.6035H442.194V41ZM440.827 31.6416C440.827 31.4365 440.889 31.2633 441.012 31.1221C441.139 30.9808 441.326 30.9102 441.572 30.9102C441.818 30.9102 442.005 30.9808 442.133 31.1221C442.26 31.2633 442.324 31.4365 442.324 31.6416C442.324 31.8467 442.26 32.0176 442.133 32.1543C442.005 32.291 441.818 32.3594 441.572 32.3594C441.326 32.3594 441.139 32.291 441.012 32.1543C440.889 32.0176 440.827 31.8467 440.827 31.6416ZM445.94 31.8125V33.6035H447.321V34.5811H445.94V39.168C445.94 39.4642 446.002 39.6875 446.125 39.8379C446.248 39.9837 446.458 40.0566 446.754 40.0566C446.9 40.0566 447.1 40.0293 447.355 39.9746V41C447.023 41.0911 446.699 41.1367 446.385 41.1367C445.82 41.1367 445.394 40.9658 445.106 40.624C444.819 40.2822 444.676 39.7969 444.676 39.168V34.5811H443.329V33.6035H444.676V31.8125H445.94ZM450.179 41H448.914V33.6035H450.179V41ZM448.812 31.6416C448.812 31.4365 448.873 31.2633 448.996 31.1221C449.124 30.9808 449.311 30.9102 449.557 30.9102C449.803 30.9102 449.99 30.9808 450.117 31.1221C450.245 31.2633 450.309 31.4365 450.309 31.6416C450.309 31.8467 450.245 32.0176 450.117 32.1543C449.99 32.291 449.803 32.3594 449.557 32.3594C449.311 32.3594 449.124 32.291 448.996 32.1543C448.873 32.0176 448.812 31.8467 448.812 31.6416ZM455.176 40.1045C455.627 40.1045 456.021 39.9678 456.358 39.6943C456.696 39.4209 456.882 39.0791 456.919 38.6689H458.115C458.092 39.0928 457.947 39.4961 457.678 39.8789C457.409 40.2617 457.049 40.5671 456.598 40.7949C456.151 41.0228 455.677 41.1367 455.176 41.1367C454.169 41.1367 453.367 40.8018 452.77 40.1318C452.177 39.4574 451.881 38.5368 451.881 37.3701V37.1582C451.881 36.4382 452.013 35.7979 452.277 35.2373C452.542 34.6768 452.92 34.2415 453.412 33.9316C453.909 33.6217 454.494 33.4668 455.169 33.4668C455.998 33.4668 456.687 33.7152 457.233 34.2119C457.785 34.7087 458.079 35.3535 458.115 36.1465H456.919C456.882 35.668 456.7 35.276 456.372 34.9707C456.049 34.6608 455.647 34.5059 455.169 34.5059C454.526 34.5059 454.027 34.7383 453.672 35.2031C453.321 35.6634 453.146 36.3311 453.146 37.2061V37.4453C453.146 38.2975 453.321 38.9538 453.672 39.4141C454.023 39.8743 454.524 40.1045 455.176 40.1045ZM464.104 41C464.031 40.8542 463.971 40.5944 463.926 40.2207C463.338 40.8314 462.636 41.1367 461.82 41.1367C461.091 41.1367 460.492 40.9316 460.022 40.5215C459.558 40.1068 459.325 39.5827 459.325 38.9492C459.325 38.179 459.617 37.582 460.2 37.1582C460.788 36.7298 461.613 36.5156 462.675 36.5156H463.905V35.9346C463.905 35.4925 463.773 35.1416 463.509 34.8818C463.244 34.6175 462.855 34.4854 462.34 34.4854C461.889 34.4854 461.51 34.5993 461.205 34.8271C460.9 35.055 460.747 35.3307 460.747 35.6543H459.476C459.476 35.2852 459.605 34.9297 459.865 34.5879C460.13 34.2415 460.485 33.9681 460.932 33.7676C461.383 33.5671 461.877 33.4668 462.415 33.4668C463.267 33.4668 463.935 33.681 464.418 34.1094C464.901 34.5332 465.152 35.1188 465.17 35.8662V39.2705C465.17 39.9495 465.257 40.4896 465.43 40.8906V41H464.104ZM462.005 40.0361C462.401 40.0361 462.777 39.9336 463.133 39.7285C463.488 39.5234 463.746 39.2568 463.905 38.9287V37.4111H462.914C461.365 37.4111 460.59 37.8646 460.59 38.7715C460.59 39.168 460.722 39.4779 460.986 39.7012C461.251 39.9245 461.59 40.0361 462.005 40.0361ZM468.526 41H467.262V30.5H468.526V41Z" fill="white"/>
</svg>
