<?xml version="1.0" encoding="utf-8"?>
<!-- Generator: Adobe Illustrator 25.2.1, SVG Export Plug-In . SVG Version: 6.00 Build 0)  -->
<svg version="1.1" id="Layer_1" xmlns="http://www.w3.org/2000/svg" xmlns:xlink="http://www.w3.org/1999/xlink" x="0px" y="0px"
	 width="530px" height="346px" viewBox="0 0 530 346" style="enable-background:new 0 0 530 346;" xml:space="preserve">
<style type="text/css">
	.st0{opacity:0.1;}
	.st1{fill:#231F20;}
	.st2{fill:#FFFFFF;}
	.st3{fill:#828282;}
	.st4{fill:#E0E0E0;}
	.st5{fill:#EB5757;}
	.st6{fill:#F2F2F2;}
	.st7{clip-path:url(#SVGID_2_);}
	.st8{fill:#0D51D9;}
	.st9{fill:#DCE8FF;}
</style>
<g class="st0">
	<rect x="33" y="4" class="st1" width="374" height="165"/>
</g>
<rect class="st2" width="530" height="346"/>
<path class="st3" d="M37.2,37.6h-1.3L35.5,40h-1l0.4-2.4h-1.4v-0.9h1.5l0.3-1.8H34v-0.9h1.6l0.5-2.4h1l-0.5,2.4h1.3l0.5-2.4h1
	l-0.5,2.4h1.2v0.9h-1.4l-0.3,1.8h1.3v0.9h-1.5L37.7,40h-1L37.2,37.6z M36.1,36.7h1.3l0.3-1.8h-1.3L36.1,36.7z M44.6,40h-1.4v-6.8
	l-2.1,0.7v-1.2l3.3-1.2h0.2V40z M53,40h-5.7v-1l2.8-3.1c0.4-0.5,0.7-0.8,0.9-1.1c0.2-0.3,0.3-0.6,0.3-0.9c0-0.4-0.1-0.7-0.3-1
	c-0.2-0.2-0.5-0.4-0.9-0.4c-0.5,0-0.8,0.1-1.1,0.4c-0.3,0.3-0.4,0.7-0.4,1.2h-1.4c0-0.5,0.1-1,0.4-1.4c0.2-0.4,0.6-0.7,1-1
	c0.4-0.2,0.9-0.3,1.5-0.3c0.8,0,1.5,0.2,2,0.6c0.5,0.4,0.7,1,0.7,1.7c0,0.4-0.1,0.9-0.4,1.3c-0.2,0.5-0.6,1-1.2,1.6l-2.1,2.2h4V40z
	 M58.7,37h1.1v1.1h-1.1V40h-1.4v-1.9h-3.7l0-0.9l3.7-5.8h1.5V37z M55,37h2.2v-3.6l-0.1,0.2L55,37z M64.3,40h-1.4v-6.8l-2.1,0.7v-1.2
	l3.3-1.2h0.2V40z M67.4,35.8l0.5-4.3h4.6v1.2h-3.4l-0.2,2c0.4-0.2,0.8-0.3,1.3-0.3c0.8,0,1.4,0.3,1.9,0.8c0.5,0.5,0.7,1.2,0.7,2.1
	c0,0.9-0.2,1.6-0.8,2.1c-0.5,0.5-1.2,0.8-2.1,0.8c-0.8,0-1.4-0.2-1.9-0.7c-0.5-0.4-0.8-1-0.8-1.8h1.4c0.1,0.4,0.2,0.7,0.4,1
	c0.2,0.2,0.6,0.3,0.9,0.3c0.4,0,0.8-0.2,1-0.5c0.2-0.3,0.4-0.7,0.4-1.3c0-0.5-0.1-0.9-0.4-1.2c-0.3-0.3-0.6-0.5-1.1-0.5
	c-0.3,0-0.5,0-0.7,0.1c-0.2,0.1-0.4,0.2-0.6,0.4L67.4,35.8z M78.4,37h1.1v1.1h-1.1V40H77v-1.9h-3.7l0-0.9l3.7-5.8h1.5V37z M74.8,37
	H77v-3.6l-0.1,0.2L74.8,37z M84.1,40h-1.4v-6.8l-2.1,0.7v-1.2l3.3-1.2h0.2V40z"/>
<path class="st1" d="M41.9,62.3c0-0.6-0.2-1.1-0.7-1.4c-0.4-0.3-1.2-0.7-2.4-1c-1.1-0.3-2.1-0.7-2.7-1.2c-1.3-0.8-1.9-1.9-1.9-3.2
	c0-1.1,0.5-2.1,1.4-2.8c0.9-0.7,2.2-1.1,3.6-1.1c1,0,1.9,0.2,2.6,0.5c0.8,0.4,1.4,0.9,1.8,1.6c0.4,0.7,0.7,1.4,0.7,2.2h-2.5
	c0-0.7-0.2-1.3-0.7-1.7c-0.5-0.4-1.1-0.6-2-0.6c-0.8,0-1.4,0.2-1.9,0.5c-0.4,0.3-0.7,0.8-0.7,1.4c0,0.5,0.2,1,0.7,1.3
	c0.5,0.3,1.3,0.7,2.4,1c1.1,0.3,2,0.7,2.7,1.1c0.7,0.4,1.2,0.9,1.5,1.4c0.3,0.5,0.5,1.2,0.5,1.9c0,1.2-0.5,2.1-1.4,2.8
	c-0.9,0.7-2.1,1-3.7,1c-1,0-2-0.2-2.8-0.6c-0.9-0.4-1.5-0.9-2-1.6c-0.5-0.7-0.7-1.5-0.7-2.3h2.5c0,0.8,0.3,1.4,0.8,1.9
	c0.5,0.4,1.3,0.7,2.3,0.7c0.9,0,1.5-0.2,1.9-0.5C41.7,63.4,41.9,62.9,41.9,62.3z M57.4,59.3c0,1.3-0.2,2.5-0.6,3.5
	c-0.4,1-1,1.8-1.8,2.3l2.4,1.9l-1.6,1.4l-3-2.4c-0.4,0.1-0.8,0.1-1.3,0.1c-1.1,0-2.2-0.3-3.1-0.8c-0.9-0.6-1.6-1.4-2.1-2.4
	c-0.5-1-0.7-2.2-0.7-3.6v-0.8c0-1.4,0.2-2.6,0.7-3.7c0.5-1.1,1.2-1.9,2.1-2.4c0.9-0.6,1.9-0.9,3.1-0.9c1.2,0,2.2,0.3,3.1,0.8
	c0.9,0.6,1.6,1.4,2.1,2.4c0.5,1,0.7,2.3,0.7,3.6V59.3z M54.9,58.5c0-1.6-0.3-2.8-0.9-3.6c-0.6-0.8-1.4-1.2-2.5-1.2
	c-1.1,0-1.9,0.4-2.5,1.3c-0.6,0.8-0.9,2-0.9,3.5v0.8c0,1.5,0.3,2.7,0.9,3.6c0.6,0.9,1.5,1.3,2.5,1.3c1.1,0,1.9-0.4,2.5-1.2
	c0.6-0.8,0.9-2.1,0.9-3.7V58.5z M62,64h6.5v2h-8.9V51.8H62V64z M82,62.3c0-0.6-0.2-1.1-0.7-1.4c-0.4-0.3-1.2-0.7-2.4-1
	c-1.1-0.3-2.1-0.7-2.7-1.2c-1.3-0.8-1.9-1.9-1.9-3.2c0-1.1,0.5-2.1,1.4-2.8c0.9-0.7,2.2-1.1,3.6-1.1c1,0,1.9,0.2,2.6,0.5
	c0.8,0.4,1.4,0.9,1.8,1.6c0.4,0.7,0.7,1.4,0.7,2.2H82c0-0.7-0.2-1.3-0.7-1.7c-0.5-0.4-1.1-0.6-2-0.6c-0.8,0-1.4,0.2-1.9,0.5
	c-0.4,0.3-0.7,0.8-0.7,1.4c0,0.5,0.2,1,0.7,1.3c0.5,0.3,1.3,0.7,2.4,1c1.1,0.3,2,0.7,2.7,1.1c0.7,0.4,1.2,0.9,1.5,1.4
	c0.3,0.5,0.5,1.2,0.5,1.9c0,1.2-0.5,2.1-1.4,2.8c-0.9,0.7-2.1,1-3.7,1c-1,0-2-0.2-2.8-0.6c-0.9-0.4-1.5-0.9-2-1.6
	c-0.5-0.7-0.7-1.5-0.7-2.3h2.5c0,0.8,0.3,1.4,0.8,1.9c0.5,0.4,1.3,0.7,2.3,0.7c0.9,0,1.5-0.2,1.9-0.5C81.7,63.4,82,62.9,82,62.3z
	 M90.6,66.2c-1.5,0-2.7-0.5-3.7-1.4c-0.9-1-1.4-2.2-1.4-3.8v-0.3c0-1.1,0.2-2,0.6-2.8c0.4-0.8,1-1.5,1.7-1.9
	c0.7-0.5,1.6-0.7,2.5-0.7c1.4,0,2.5,0.5,3.3,1.4c0.8,0.9,1.2,2.2,1.2,3.9v1H88c0.1,0.9,0.4,1.6,0.9,2.1c0.5,0.5,1.2,0.8,1.9,0.8
	c1.1,0,2-0.4,2.7-1.3l1.3,1.2c-0.4,0.6-1,1.1-1.7,1.5C92.3,66,91.5,66.2,90.6,66.2z M90.3,57.1c-0.7,0-1.2,0.2-1.6,0.7
	c-0.4,0.5-0.7,1.1-0.8,1.9h4.5v-0.2c-0.1-0.8-0.3-1.4-0.6-1.8C91.5,57.3,91,57.1,90.3,57.1z M101.8,57.6c-0.3-0.1-0.6-0.1-1-0.1
	c-1.1,0-1.8,0.4-2.2,1.2V66h-2.4V55.4h2.3l0.1,1.2c0.6-0.9,1.4-1.4,2.4-1.4c0.3,0,0.6,0,0.8,0.1L101.8,57.6z M106.8,63l2.2-7.6h2.5
	L107.9,66h-2.1l-3.7-10.6h2.5L106.8,63z M117.1,66.2c-1.5,0-2.7-0.5-3.7-1.4c-0.9-1-1.4-2.2-1.4-3.8v-0.3c0-1.1,0.2-2,0.6-2.8
	c0.4-0.8,1-1.5,1.7-1.9c0.7-0.5,1.6-0.7,2.5-0.7c1.4,0,2.5,0.5,3.3,1.4c0.8,0.9,1.2,2.2,1.2,3.9v1h-6.9c0.1,0.9,0.4,1.6,0.9,2.1
	c0.5,0.5,1.2,0.8,1.9,0.8c1.1,0,2-0.4,2.7-1.3l1.3,1.2c-0.4,0.6-1,1.1-1.7,1.5C118.8,66,118,66.2,117.1,66.2z M116.9,57.1
	c-0.7,0-1.2,0.2-1.6,0.7c-0.4,0.5-0.7,1.1-0.8,1.9h4.5v-0.2c-0.1-0.8-0.3-1.4-0.6-1.8C118,57.3,117.5,57.1,116.9,57.1z M128.4,57.6
	c-0.3-0.1-0.6-0.1-1-0.1c-1.1,0-1.8,0.4-2.2,1.2V66h-2.4V55.4h2.3l0.1,1.2c0.6-0.9,1.4-1.4,2.4-1.4c0.3,0,0.6,0,0.8,0.1L128.4,57.6z
	 M134.3,66V51.8h4.2c1.3,0,2.4,0.3,3.3,0.8c1,0.6,1.7,1.4,2.3,2.4c0.5,1,0.8,2.2,0.8,3.5v0.7c0,1.3-0.3,2.5-0.8,3.6
	c-0.5,1-1.3,1.8-2.3,2.4c-1,0.6-2.1,0.8-3.4,0.8H134.3z M136.7,53.8V64h1.6c1.3,0,2.3-0.4,3-1.2c0.7-0.8,1.1-2,1.1-3.5v-0.8
	c0-1.5-0.3-2.7-1-3.5c-0.7-0.8-1.6-1.2-2.9-1.2H136.7z M146.3,60.6c0-1,0.2-2,0.6-2.8c0.4-0.8,1-1.5,1.7-1.9
	c0.7-0.4,1.6-0.7,2.6-0.7c1.4,0,2.6,0.5,3.5,1.4c0.9,0.9,1.4,2.1,1.4,3.7l0,0.6c0,1-0.2,2-0.6,2.8c-0.4,0.8-1,1.5-1.7,1.9
	c-0.7,0.4-1.6,0.7-2.6,0.7c-1.5,0-2.7-0.5-3.6-1.5c-0.9-1-1.3-2.3-1.3-4V60.6z M148.6,60.8c0,1.1,0.2,1.9,0.7,2.6
	c0.4,0.6,1.1,0.9,1.9,0.9c0.8,0,1.4-0.3,1.9-0.9c0.4-0.6,0.7-1.5,0.7-2.7c0-1.1-0.2-1.9-0.7-2.5c-0.5-0.6-1.1-0.9-1.9-0.9
	c-0.8,0-1.4,0.3-1.8,0.9C148.9,58.7,148.6,59.6,148.6,60.8z M167,62.7l1.7-7.3h2.3L168.1,66h-2l-2.3-7.3l-2.2,7.3h-2l-2.9-10.6h2.3
	l1.7,7.2l2.2-7.2h1.8L167,62.7z M174.4,55.4l0.1,1.2c0.8-0.9,1.8-1.4,3.1-1.4c2.2,0,3.3,1.3,3.4,3.8v7h-2.4v-6.8
	c0-0.7-0.1-1.2-0.4-1.5c-0.3-0.3-0.8-0.5-1.4-0.5c-1,0-1.7,0.4-2.1,1.3V66h-2.4V55.4H174.4z"/>
<path class="st4" d="M37,90h44c5,0,9,4,9,9l0,0c0,5-4,9-9,9H37c-5,0-9-4-9-9l0,0C28,94,32,90,37,90z"/>
<path class="st4" d="M107,90h44c5,0,9,4,9,9l0,0c0,5-4,9-9,9h-44c-5,0-9-4-9-9l0,0C98,94,102,90,107,90z"/>
<path class="st5" d="M435,23h65c5.5,0,10,4.5,10,10l0,0c0,5.5-4.5,10-10,10h-65c-5.5,0-10-4.5-10-10l0,0C425,27.5,429.5,23,435,23z"
	/>
<path class="st6" d="M38,138h387c5.5,0,10,4.5,10,10v1c0,5.5-4.5,10-10,10H38c-5.5,0-10-4.5-10-10v-1C28,142.5,32.5,138,38,138z"/>
<path class="st6" d="M38,167h336c5.5,0,10,4.5,10,10v1c0,5.5-4.5,10-10,10H38c-5.5,0-10-4.5-10-10v-1C28,171.5,32.5,167,38,167z"/>
<path class="st6" d="M38,196h224c5.5,0,10,4.5,10,10v1c0,5.5-4.5,10-10,10H38c-5.5,0-10-4.5-10-10v-1C28,200.5,32.5,196,38,196z"/>
<g>
	<defs>
		<rect id="SVGID_1_" x="28" y="244" width="502" height="58"/>
	</defs>
	<clipPath id="SVGID_2_">
		<use xlink:href="#SVGID_1_"  style="overflow:visible;"/>
	</clipPath>
	<g class="st7">
		<path class="st8" d="M38,244h125c5.5,0,10,4.5,10,10v38c0,5.5-4.5,10-10,10H38c-5.5,0-10-4.5-10-10v-38C28,248.5,32.5,244,38,244z
			"/>
		<path class="st8" d="M201,244h96c5.5,0,10,4.5,10,10v38c0,5.5-4.5,10-10,10h-96c-5.5,0-10-4.5-10-10v-38
			C191,248.5,195.5,244,201,244z"/>
		<path class="st9" d="M331,244h109c5.5,0,10,4.5,10,10v38c0,5.5-4.5,10-10,10H331c-5.5,0-10-4.5-10-10v-38
			C321,248.5,325.5,244,331,244z"/>
		<path class="st9" d="M474,244h98c5.5,0,10,4.5,10,10v38c0,5.5-4.5,10-10,10h-98c-5.5,0-10-4.5-10-10v-38
			C464,248.5,468.5,244,474,244z"/>
		<path class="st2" d="M59.5,276.4h-4.4l-0.9,2.6h-2.1l4.3-11.4h1.8l4.3,11.4h-2.1L59.5,276.4z M55.7,274.8H59l-1.6-4.7L55.7,274.8z
			 M67.1,277.6c0.5,0,0.9-0.1,1.2-0.4c0.3-0.3,0.5-0.6,0.5-1h1.8c0,0.5-0.2,1-0.5,1.5c-0.3,0.5-0.7,0.8-1.2,1.1
			c-0.5,0.3-1.1,0.4-1.7,0.4c-1.2,0-2.1-0.4-2.8-1.1c-0.7-0.8-1-1.8-1-3.2v-0.2c0-1.3,0.3-2.3,1-3.1c0.7-0.8,1.6-1.2,2.8-1.2
			c1,0,1.8,0.3,2.5,0.9c0.6,0.6,1,1.4,1,2.3h-1.8c0-0.5-0.2-0.9-0.5-1.2c-0.3-0.3-0.7-0.5-1.2-0.5c-0.6,0-1.1,0.2-1.4,0.7
			c-0.3,0.4-0.5,1.1-0.5,2v0.3c0,0.9,0.2,1.6,0.5,2.1C66,277.4,66.5,277.6,67.1,277.6z M74.8,275.4l-0.8,0.9v2.8H72v-12h1.9v6.9
			l0.6-0.7l2.3-2.6h2.3l-3.1,3.5l3.5,4.9h-2.2L74.8,275.4z M82.1,270.5l0.1,1c0.6-0.8,1.4-1.1,2.5-1.1c1.8,0,2.7,1,2.7,3v5.6h-1.9
			v-5.5c0-0.5-0.1-0.9-0.4-1.2c-0.2-0.3-0.6-0.4-1.1-0.4c-0.8,0-1.3,0.3-1.7,1v6h-1.9v-8.5H82.1z M88.9,274.7c0-0.8,0.2-1.6,0.5-2.2
			c0.3-0.7,0.8-1.2,1.4-1.5c0.6-0.4,1.3-0.5,2-0.5c1.1,0,2.1,0.4,2.8,1.1c0.7,0.7,1.1,1.7,1.2,2.9l0,0.4c0,0.8-0.2,1.6-0.5,2.2
			c-0.3,0.7-0.8,1.2-1.4,1.5c-0.6,0.4-1.3,0.5-2.1,0.5c-1.2,0-2.1-0.4-2.9-1.2C89.3,277.2,88.9,276.1,88.9,274.7L88.9,274.7z
			 M90.8,274.9c0,0.9,0.2,1.6,0.5,2c0.4,0.5,0.9,0.7,1.5,0.7c0.6,0,1.1-0.2,1.5-0.8c0.4-0.5,0.5-1.2,0.5-2.2c0-0.9-0.2-1.5-0.6-2
			c-0.4-0.5-0.9-0.8-1.5-0.8c-0.6,0-1.1,0.2-1.5,0.7C91,273.1,90.8,273.9,90.8,274.9z M105.8,276.4l1.3-5.8h1.9l-2.3,8.5h-1.6
			l-1.8-5.8l-1.8,5.8H100l-2.3-8.5h1.9l1.4,5.8l1.7-5.8h1.4L105.8,276.4z M112.3,279h-1.9v-12h1.9V279z M118.1,279.2
			c-1.2,0-2.2-0.4-2.9-1.1c-0.7-0.8-1.1-1.8-1.1-3v-0.2c0-0.8,0.2-1.6,0.5-2.3c0.3-0.7,0.8-1.2,1.4-1.6c0.6-0.4,1.2-0.6,2-0.6
			c1.2,0,2,0.4,2.7,1.1c0.6,0.7,0.9,1.8,0.9,3.1v0.8H116c0.1,0.7,0.3,1.2,0.7,1.7c0.4,0.4,0.9,0.6,1.5,0.6c0.9,0,1.6-0.4,2.1-1.1
			l1,1c-0.3,0.5-0.8,0.9-1.4,1.2C119.4,279,118.8,279.2,118.1,279.2z M117.9,271.9c-0.5,0-0.9,0.2-1.3,0.5c-0.3,0.4-0.5,0.9-0.6,1.5
			h3.6v-0.1c0-0.6-0.2-1.1-0.5-1.4C118.8,272.1,118.4,271.9,117.9,271.9z M122.6,274.7c0-1.3,0.3-2.3,0.9-3.1
			c0.6-0.8,1.4-1.2,2.4-1.2c0.9,0,1.6,0.3,2.2,0.9V267h1.9v12h-1.7l-0.1-0.9c-0.6,0.7-1.3,1-2.3,1c-1,0-1.8-0.4-2.4-1.2
			C122.9,277.2,122.6,276.1,122.6,274.7z M124.5,274.9c0,0.9,0.2,1.5,0.5,2c0.3,0.5,0.8,0.7,1.4,0.7c0.8,0,1.3-0.3,1.7-1V273
			c-0.3-0.7-0.9-1-1.7-1c-0.6,0-1.1,0.2-1.4,0.7C124.7,273.2,124.5,273.9,124.5,274.9z M131.7,274.7c0-1.3,0.3-2.4,0.9-3.1
			c0.6-0.8,1.4-1.2,2.5-1.2c1,0,1.7,0.3,2.3,1l0.1-0.9h1.7v8.2c0,1.1-0.3,2-1,2.6c-0.7,0.6-1.6,1-2.8,1c-0.6,0-1.2-0.1-1.8-0.4
			c-0.6-0.3-1-0.6-1.3-1l0.9-1.1c0.6,0.7,1.3,1,2.2,1c0.6,0,1.1-0.2,1.5-0.5c0.4-0.3,0.5-0.8,0.5-1.5v-0.6c-0.5,0.6-1.3,0.9-2.2,0.9
			c-1,0-1.8-0.4-2.4-1.2C132,277.2,131.7,276.1,131.7,274.7z M133.5,274.9c0,0.8,0.2,1.5,0.5,2c0.3,0.5,0.8,0.7,1.4,0.7
			c0.8,0,1.3-0.3,1.7-1v-3.7c-0.4-0.6-0.9-1-1.7-1c-0.6,0-1.1,0.2-1.5,0.7C133.7,273.2,133.5,273.9,133.5,274.9z M144.8,279.2
			c-1.2,0-2.2-0.4-2.9-1.1c-0.7-0.8-1.1-1.8-1.1-3v-0.2c0-0.8,0.2-1.6,0.5-2.3c0.3-0.7,0.8-1.2,1.4-1.6c0.6-0.4,1.2-0.6,2-0.6
			c1.2,0,2,0.4,2.7,1.1c0.6,0.7,0.9,1.8,0.9,3.1v0.8h-5.5c0.1,0.7,0.3,1.2,0.7,1.7c0.4,0.4,0.9,0.6,1.5,0.6c0.9,0,1.6-0.4,2.1-1.1
			l1,1c-0.3,0.5-0.8,0.9-1.4,1.2C146.1,279,145.5,279.2,144.8,279.2z M144.6,271.9c-0.5,0-0.9,0.2-1.3,0.5c-0.3,0.4-0.5,0.9-0.6,1.5
			h3.6v-0.1c0-0.6-0.2-1.1-0.5-1.4C145.5,272.1,145.1,271.9,144.6,271.9z"/>
		<path class="st2" d="M216.2,279v-11.4h3.4c1,0,1.9,0.2,2.7,0.7c0.8,0.4,1.4,1.1,1.8,1.9s0.6,1.8,0.6,2.8v0.6c0,1.1-0.2,2-0.6,2.8
			c-0.4,0.8-1,1.4-1.8,1.9c-0.8,0.4-1.7,0.7-2.7,0.7H216.2z M218.1,269.2v8.2h1.3c1,0,1.8-0.3,2.4-1c0.6-0.7,0.8-1.6,0.9-2.8V273
			c0-1.2-0.3-2.2-0.8-2.8c-0.5-0.7-1.3-1-2.3-1H218.1z M228.4,279h-1.9v-8.5h1.9V279z M226.4,268.4c0-0.3,0.1-0.5,0.3-0.7
			c0.2-0.2,0.5-0.3,0.8-0.3s0.6,0.1,0.8,0.3c0.2,0.2,0.3,0.4,0.3,0.7c0,0.3-0.1,0.5-0.3,0.7c-0.2,0.2-0.5,0.3-0.8,0.3
			s-0.6-0.1-0.8-0.3C226.5,268.9,226.4,268.6,226.4,268.4z M235.6,279c-0.1-0.2-0.2-0.4-0.2-0.8c-0.6,0.6-1.3,0.9-2.2,0.9
			c-0.8,0-1.5-0.2-2.1-0.7c-0.5-0.5-0.8-1.1-0.8-1.8c0-0.9,0.3-1.6,1-2.1c0.7-0.5,1.6-0.7,2.9-0.7h1.2v-0.6c0-0.4-0.1-0.8-0.4-1
			c-0.2-0.3-0.6-0.4-1.1-0.4c-0.4,0-0.8,0.1-1.1,0.3c-0.3,0.2-0.4,0.5-0.4,0.8h-1.9c0-0.5,0.2-0.9,0.5-1.3c0.3-0.4,0.7-0.7,1.2-1
			c0.5-0.2,1.1-0.3,1.8-0.3c1,0,1.8,0.2,2.4,0.8c0.6,0.5,0.9,1.2,0.9,2.1v3.8c0,0.8,0.1,1.4,0.3,1.8v0.1H235.6z M233.5,277.6
			c0.4,0,0.7-0.1,1.1-0.3c0.3-0.2,0.6-0.4,0.8-0.7V275h-1c-0.7,0-1.2,0.1-1.6,0.4c-0.4,0.2-0.5,0.6-0.5,1c0,0.4,0.1,0.7,0.4,0.9
			C232.8,277.5,233.1,277.6,233.5,277.6z M238.8,274.7c0-1.3,0.3-2.4,0.9-3.1c0.6-0.8,1.4-1.2,2.5-1.2c1,0,1.7,0.3,2.3,1l0.1-0.9
			h1.7v8.2c0,1.1-0.3,2-1,2.6c-0.7,0.6-1.6,1-2.8,1c-0.6,0-1.2-0.1-1.8-0.4c-0.6-0.3-1-0.6-1.3-1l0.9-1.1c0.6,0.7,1.3,1,2.2,1
			c0.6,0,1.1-0.2,1.5-0.5c0.4-0.3,0.5-0.8,0.5-1.5v-0.6c-0.5,0.6-1.3,0.9-2.2,0.9c-1,0-1.8-0.4-2.4-1.2
			C239.2,277.2,238.8,276.1,238.8,274.7z M240.7,274.9c0,0.8,0.2,1.5,0.5,2c0.3,0.5,0.8,0.7,1.4,0.7c0.8,0,1.3-0.3,1.7-1v-3.7
			c-0.4-0.6-0.9-1-1.7-1c-0.6,0-1.1,0.2-1.5,0.7C240.9,273.2,240.7,273.9,240.7,274.9z M250,270.5l0.1,1c0.6-0.8,1.4-1.1,2.5-1.1
			c1.8,0,2.7,1,2.7,3v5.6h-1.9v-5.5c0-0.5-0.1-0.9-0.4-1.2c-0.2-0.3-0.6-0.4-1.1-0.4c-0.8,0-1.3,0.3-1.7,1v6h-1.9v-8.5H250z
			 M256.8,274.7c0-0.8,0.2-1.6,0.5-2.2c0.3-0.7,0.8-1.2,1.4-1.5c0.6-0.4,1.3-0.5,2-0.5c1.1,0,2.1,0.4,2.8,1.1
			c0.7,0.7,1.1,1.7,1.2,2.9l0,0.4c0,0.8-0.2,1.6-0.5,2.2c-0.3,0.7-0.8,1.2-1.4,1.5c-0.6,0.4-1.3,0.5-2.1,0.5c-1.2,0-2.1-0.4-2.9-1.2
			C257.2,277.2,256.8,276.1,256.8,274.7L256.8,274.7z M258.7,274.9c0,0.9,0.2,1.6,0.5,2c0.4,0.5,0.9,0.7,1.5,0.7
			c0.6,0,1.1-0.2,1.5-0.8c0.4-0.5,0.5-1.2,0.5-2.2c0-0.9-0.2-1.5-0.6-2c-0.4-0.5-0.9-0.8-1.5-0.8c-0.6,0-1.1,0.2-1.5,0.7
			C258.9,273.1,258.7,273.9,258.7,274.9z M271,276.7c0-0.3-0.1-0.6-0.4-0.8c-0.3-0.2-0.7-0.3-1.4-0.5s-1.2-0.3-1.6-0.5
			c-0.9-0.5-1.4-1.1-1.4-2c0-0.7,0.3-1.3,0.9-1.8s1.4-0.7,2.3-0.7c1,0,1.8,0.2,2.4,0.8c0.6,0.5,0.9,1.1,0.9,1.9h-1.9
			c0-0.4-0.1-0.7-0.4-0.9c-0.3-0.2-0.6-0.4-1.1-0.4c-0.4,0-0.8,0.1-1,0.3c-0.3,0.2-0.4,0.5-0.4,0.8c0,0.3,0.1,0.5,0.4,0.7
			c0.2,0.2,0.7,0.3,1.5,0.5c0.7,0.2,1.3,0.4,1.8,0.6c0.4,0.2,0.7,0.5,0.9,0.8c0.2,0.3,0.3,0.7,0.3,1.2c0,0.8-0.3,1.4-0.9,1.9
			c-0.6,0.5-1.5,0.7-2.5,0.7c-0.7,0-1.3-0.1-1.9-0.4c-0.5-0.2-1-0.6-1.3-1s-0.5-0.9-0.5-1.4h1.8c0,0.4,0.2,0.8,0.5,1
			c0.3,0.2,0.7,0.4,1.2,0.4c0.5,0,0.9-0.1,1.1-0.3C270.9,277.3,271,277,271,276.7z M278.3,279.2c-1.2,0-2.2-0.4-2.9-1.1
			c-0.7-0.8-1.1-1.8-1.1-3v-0.2c0-0.8,0.2-1.6,0.5-2.3c0.3-0.7,0.8-1.2,1.4-1.6c0.6-0.4,1.2-0.6,2-0.6c1.2,0,2,0.4,2.7,1.1
			c0.6,0.7,0.9,1.8,0.9,3.1v0.8h-5.5c0.1,0.7,0.3,1.2,0.7,1.7c0.4,0.4,0.9,0.6,1.5,0.6c0.9,0,1.6-0.4,2.1-1.1l1,1
			c-0.3,0.5-0.8,0.9-1.4,1.2C279.6,279,279,279.2,278.3,279.2z M278,271.9c-0.5,0-0.9,0.2-1.3,0.5c-0.3,0.4-0.5,0.9-0.6,1.5h3.6
			v-0.1c0-0.6-0.2-1.1-0.5-1.4C279,272.1,278.6,271.9,278,271.9z"/>
		<path class="st8" d="M354.8,275.3c-0.1,1.2-0.6,2.2-1.3,2.8c-0.8,0.7-1.8,1-3.1,1c-0.9,0-1.7-0.2-2.4-0.6c-0.7-0.4-1.2-1-1.6-1.8
			c-0.4-0.8-0.6-1.7-0.6-2.8v-1.1c0-1.1,0.2-2,0.6-2.8c0.4-0.8,0.9-1.4,1.6-1.9c0.7-0.4,1.5-0.7,2.5-0.7c1.3,0,2.3,0.3,3,1
			s1.2,1.6,1.3,2.9h-2c-0.1-0.8-0.3-1.4-0.7-1.8c-0.4-0.4-0.9-0.5-1.7-0.5c-0.9,0-1.5,0.3-2,0.9c-0.5,0.6-0.7,1.5-0.7,2.8v1
			c0,1.2,0.2,2.2,0.7,2.8c0.4,0.6,1.1,1,1.9,1c0.8,0,1.4-0.2,1.8-0.5s0.6-0.9,0.7-1.7H354.8z M358.4,279h-1.9v-12h1.9V279z
			 M364.2,279.2c-1.2,0-2.2-0.4-2.9-1.1c-0.7-0.8-1.1-1.8-1.1-3v-0.2c0-0.8,0.2-1.6,0.5-2.3c0.3-0.7,0.8-1.2,1.4-1.6
			c0.6-0.4,1.2-0.6,2-0.6c1.2,0,2,0.4,2.7,1.1c0.6,0.7,0.9,1.8,0.9,3.1v0.8h-5.5c0.1,0.7,0.3,1.2,0.7,1.7c0.4,0.4,0.9,0.6,1.5,0.6
			c0.9,0,1.6-0.4,2.1-1.1l1,1c-0.3,0.5-0.8,0.9-1.4,1.2C365.6,279,364.9,279.2,364.2,279.2z M364,271.9c-0.5,0-0.9,0.2-1.3,0.5
			c-0.3,0.4-0.5,0.9-0.6,1.5h3.6v-0.1c0-0.6-0.2-1.1-0.5-1.4C365,272.1,364.5,271.9,364,271.9z M374.2,279c-0.1-0.2-0.2-0.4-0.2-0.8
			c-0.6,0.6-1.3,0.9-2.2,0.9c-0.8,0-1.5-0.2-2.1-0.7c-0.5-0.5-0.8-1.1-0.8-1.8c0-0.9,0.3-1.6,1-2.1c0.7-0.5,1.6-0.7,2.9-0.7h1.2
			v-0.6c0-0.4-0.1-0.8-0.4-1c-0.2-0.3-0.6-0.4-1.1-0.4c-0.4,0-0.8,0.1-1.1,0.3c-0.3,0.2-0.4,0.5-0.4,0.8H369c0-0.5,0.2-0.9,0.5-1.3
			c0.3-0.4,0.7-0.7,1.2-1c0.5-0.2,1.1-0.3,1.8-0.3c1,0,1.8,0.2,2.4,0.8c0.6,0.5,0.9,1.2,0.9,2.1v3.8c0,0.8,0.1,1.4,0.3,1.8v0.1
			H374.2z M372.1,277.6c0.4,0,0.7-0.1,1.1-0.3c0.3-0.2,0.6-0.4,0.8-0.7V275h-1c-0.7,0-1.2,0.1-1.6,0.4c-0.4,0.2-0.5,0.6-0.5,1
			c0,0.4,0.1,0.7,0.4,0.9C371.3,277.5,371.7,277.6,372.1,277.6z M382.2,272.3c-0.2,0-0.5-0.1-0.8-0.1c-0.9,0-1.5,0.3-1.8,1v5.8h-1.9
			v-8.5h1.8l0,0.9c0.5-0.7,1.1-1.1,1.9-1.1c0.3,0,0.5,0,0.7,0.1L382.2,272.3z M391.1,279.2c-1.2,0-2.2-0.4-2.9-1.1
			c-0.7-0.8-1.1-1.8-1.1-3v-0.2c0-0.8,0.2-1.6,0.5-2.3c0.3-0.7,0.8-1.2,1.4-1.6c0.6-0.4,1.2-0.6,2-0.6c1.2,0,2,0.4,2.7,1.1
			c0.6,0.7,0.9,1.8,0.9,3.1v0.8H389c0.1,0.7,0.3,1.2,0.7,1.7c0.4,0.4,0.9,0.6,1.5,0.6c0.9,0,1.6-0.4,2.1-1.1l1,1
			c-0.3,0.5-0.8,0.9-1.4,1.2C392.4,279,391.8,279.2,391.1,279.2z M390.9,271.9c-0.5,0-0.9,0.2-1.3,0.5c-0.3,0.4-0.5,0.9-0.6,1.5h3.6
			v-0.1c0-0.6-0.2-1.1-0.5-1.4C391.8,272.1,391.4,271.9,390.9,271.9z M398.8,276.6l1.8-6h2l-2.9,8.5H398l-3-8.5h2L398.8,276.6z
			 M407.4,279.2c-1.2,0-2.2-0.4-2.9-1.1c-0.7-0.8-1.1-1.8-1.1-3v-0.2c0-0.8,0.2-1.6,0.5-2.3c0.3-0.7,0.8-1.2,1.4-1.6
			c0.6-0.4,1.2-0.6,2-0.6c1.2,0,2,0.4,2.7,1.1c0.6,0.7,0.9,1.8,0.9,3.1v0.8h-5.5c0.1,0.7,0.3,1.2,0.7,1.7c0.4,0.4,0.9,0.6,1.5,0.6
			c0.9,0,1.6-0.4,2.1-1.1l1,1c-0.3,0.5-0.8,0.9-1.4,1.2C408.7,279,408.1,279.2,407.4,279.2z M407.2,271.9c-0.5,0-0.9,0.2-1.3,0.5
			c-0.3,0.4-0.5,0.9-0.6,1.5h3.6v-0.1c0-0.6-0.2-1.1-0.5-1.4C408.1,272.1,407.7,271.9,407.2,271.9z M414,270.5l0.1,1
			c0.6-0.8,1.4-1.1,2.5-1.1c1.8,0,2.7,1,2.7,3v5.6h-1.9v-5.5c0-0.5-0.1-0.9-0.4-1.2c-0.2-0.3-0.6-0.4-1.1-0.4c-0.8,0-1.3,0.3-1.7,1
			v6h-1.9v-8.5H414z M423.6,268.5v2.1h1.5v1.4h-1.5v4.7c0,0.3,0.1,0.6,0.2,0.7c0.1,0.1,0.4,0.2,0.7,0.2c0.2,0,0.4,0,0.7-0.1v1.5
			c-0.4,0.1-0.8,0.2-1.2,0.2c-1.5,0-2.2-0.8-2.2-2.4V272h-1.4v-1.4h1.4v-2.1H423.6z"/>
		<path class="st8" d="M497.8,275.3c-0.1,1.2-0.6,2.2-1.3,2.8c-0.8,0.7-1.8,1-3.1,1c-0.9,0-1.7-0.2-2.4-0.6c-0.7-0.4-1.2-1-1.6-1.8
			c-0.4-0.8-0.6-1.7-0.6-2.8v-1.1c0-1.1,0.2-2,0.6-2.8c0.4-0.8,0.9-1.4,1.6-1.9c0.7-0.4,1.5-0.7,2.5-0.7c1.3,0,2.3,0.3,3,1
			s1.2,1.6,1.3,2.9h-2c-0.1-0.8-0.3-1.4-0.7-1.8c-0.4-0.4-0.9-0.5-1.7-0.5c-0.9,0-1.5,0.3-2,0.9c-0.5,0.6-0.7,1.5-0.7,2.8v1
			c0,1.2,0.2,2.2,0.7,2.8c0.4,0.6,1.1,1,1.9,1c0.8,0,1.4-0.2,1.8-0.5s0.6-0.9,0.7-1.7H497.8z M499.1,274.7c0-0.8,0.2-1.6,0.5-2.2
			c0.3-0.7,0.8-1.2,1.4-1.5c0.6-0.4,1.3-0.5,2-0.5c1.1,0,2.1,0.4,2.8,1.1c0.7,0.7,1.1,1.7,1.2,2.9l0,0.4c0,0.8-0.2,1.6-0.5,2.2
			c-0.3,0.7-0.8,1.2-1.4,1.5c-0.6,0.4-1.3,0.5-2.1,0.5c-1.2,0-2.1-0.4-2.9-1.2C499.4,277.2,499.1,276.1,499.1,274.7L499.1,274.7z
			 M501,274.9c0,0.9,0.2,1.6,0.5,2c0.4,0.5,0.9,0.7,1.5,0.7c0.6,0,1.1-0.2,1.5-0.8c0.4-0.5,0.5-1.2,0.5-2.2c0-0.9-0.2-1.5-0.6-2
			c-0.4-0.5-0.9-0.8-1.5-0.8c-0.6,0-1.1,0.2-1.5,0.7C501.2,273.1,501,273.9,501,274.9z M510.3,270.5l0.1,0.9c0.6-0.7,1.4-1,2.4-1
			c1.1,0,1.9,0.4,2.3,1.3c0.6-0.9,1.5-1.3,2.6-1.3c0.9,0,1.6,0.3,2.1,0.8c0.5,0.5,0.7,1.3,0.7,2.3v5.6h-1.9v-5.5
			c0-0.5-0.1-0.9-0.4-1.2c-0.2-0.2-0.6-0.4-1.2-0.4c-0.4,0-0.8,0.1-1.1,0.4c-0.3,0.2-0.5,0.5-0.6,0.9l0,5.8h-1.9v-5.6
			c0-1-0.5-1.5-1.5-1.5c-0.8,0-1.3,0.3-1.6,0.9v6.1h-1.9v-8.5H510.3z M524.2,270.5l0.1,0.9c0.6-0.7,1.4-1,2.4-1
			c1.1,0,1.9,0.4,2.3,1.3c0.6-0.9,1.5-1.3,2.6-1.3c0.9,0,1.6,0.3,2.1,0.8c0.5,0.5,0.7,1.3,0.7,2.3v5.6h-1.9v-5.5
			c0-0.5-0.1-0.9-0.4-1.2c-0.2-0.2-0.6-0.4-1.2-0.4c-0.4,0-0.8,0.1-1.1,0.4c-0.3,0.2-0.5,0.5-0.6,0.9l0,5.8h-1.9v-5.6
			c0-1-0.5-1.5-1.5-1.5c-0.8,0-1.3,0.3-1.6,0.9v6.1h-1.9v-8.5H524.2z M540.1,279.2c-1.2,0-2.2-0.4-2.9-1.1c-0.7-0.8-1.1-1.8-1.1-3
			v-0.2c0-0.8,0.2-1.6,0.5-2.3c0.3-0.7,0.8-1.2,1.4-1.6c0.6-0.4,1.2-0.6,2-0.6c1.2,0,2,0.4,2.7,1.1c0.6,0.7,0.9,1.8,0.9,3.1v0.8H538
			c0.1,0.7,0.3,1.2,0.7,1.7c0.4,0.4,0.9,0.6,1.5,0.6c0.9,0,1.6-0.4,2.1-1.1l1,1c-0.3,0.5-0.8,0.9-1.4,1.2
			C541.4,279,540.8,279.2,540.1,279.2z M539.9,271.9c-0.5,0-0.9,0.2-1.3,0.5c-0.3,0.4-0.5,0.9-0.6,1.5h3.6v-0.1
			c0-0.6-0.2-1.1-0.5-1.4C540.8,272.1,540.4,271.9,539.9,271.9z M546.7,270.5l0.1,1c0.6-0.8,1.4-1.1,2.5-1.1c1.8,0,2.7,1,2.7,3v5.6
			H550v-5.5c0-0.5-0.1-0.9-0.4-1.2c-0.2-0.3-0.6-0.4-1.1-0.4c-0.8,0-1.3,0.3-1.7,1v6h-1.9v-8.5H546.7z M556.3,268.5v2.1h1.5v1.4
			h-1.5v4.7c0,0.3,0.1,0.6,0.2,0.7c0.1,0.1,0.4,0.2,0.7,0.2c0.2,0,0.4,0,0.7-0.1v1.5c-0.4,0.1-0.8,0.2-1.2,0.2
			c-1.5,0-2.2-0.8-2.2-2.4V272H553v-1.4h1.4v-2.1H556.3z"/>
	</g>
</g>
</svg>
