<svg width="506" height="310" viewBox="0 0 506 310" fill="none" xmlns="http://www.w3.org/2000/svg">
<path d="M0 12C0 5.37259 5.37258 0 12 0H494C500.627 0 506 5.37258 506 12V298C506 304.627 500.627 310 494 310H0V12Z" fill="white"/>
<path d="M36.832 42H33.9023L28.1992 32.6445V42H25.2695V27.7812H28.1992L33.9121 37.1562V27.7812H36.832V42ZM44.0684 42.1953C42.5189 42.1953 41.2559 41.7201 40.2793 40.7695C39.3092 39.819 38.8242 38.5527 38.8242 36.9707V36.6973C38.8242 35.6361 39.0293 34.6888 39.4395 33.8555C39.8496 33.0156 40.429 32.3711 41.1777 31.9219C41.9329 31.4661 42.7923 31.2383 43.7559 31.2383C45.2012 31.2383 46.3372 31.694 47.1641 32.6055C47.9974 33.5169 48.4141 34.8092 48.4141 36.4824V37.6348H41.6855C41.7767 38.3249 42.0501 38.8783 42.5059 39.2949C42.9681 39.7116 43.5508 39.9199 44.2539 39.9199C45.3411 39.9199 46.1908 39.526 46.8027 38.7383L48.1895 40.291C47.7663 40.89 47.1934 41.3587 46.4707 41.6973C45.748 42.0293 44.9473 42.1953 44.0684 42.1953ZM43.7461 33.5234C43.1862 33.5234 42.7305 33.7122 42.3789 34.0898C42.0339 34.4674 41.8125 35.0078 41.7148 35.7109H45.6406V35.4863C45.6276 34.8613 45.4583 34.3796 45.1328 34.041C44.8073 33.696 44.3451 33.5234 43.7461 33.5234ZM53.4043 28.8359V31.4336H55.2109V33.5039H53.4043V38.7773C53.4043 39.168 53.4792 39.4479 53.6289 39.6172C53.7786 39.7865 54.0651 39.8711 54.4883 39.8711C54.8008 39.8711 55.0775 39.8483 55.3184 39.8027V41.9414C54.765 42.1107 54.1953 42.1953 53.6094 42.1953C51.6302 42.1953 50.6211 41.196 50.582 39.1973V33.5039H49.0391V31.4336H50.582V28.8359H53.4043ZM65.9727 38.1621L67.3594 31.4336H70.084L67.3887 42H65.0254L63.0234 35.3496L61.0215 42H58.668L55.9727 31.4336H58.6973L60.0742 38.1523L62.0078 31.4336H64.0488L65.9727 38.1621ZM71.0508 36.6191C71.0508 35.571 71.2526 34.6367 71.6562 33.8164C72.0599 32.9961 72.6393 32.3613 73.3945 31.9121C74.1562 31.4629 75.0384 31.2383 76.041 31.2383C77.4668 31.2383 78.6289 31.6745 79.5273 32.5469C80.4323 33.4193 80.9368 34.6042 81.041 36.1016L81.0605 36.8242C81.0605 38.4453 80.6081 39.7474 79.7031 40.7305C78.7982 41.707 77.584 42.1953 76.0605 42.1953C74.5371 42.1953 73.3197 41.707 72.4082 40.7305C71.5033 39.7539 71.0508 38.4258 71.0508 36.7461V36.6191ZM73.873 36.8242C73.873 37.8268 74.0618 38.5951 74.4395 39.1289C74.8171 39.6562 75.3574 39.9199 76.0605 39.9199C76.7441 39.9199 77.278 39.6595 77.6621 39.1387C78.0462 38.6113 78.2383 37.7715 78.2383 36.6191C78.2383 35.6361 78.0462 34.8743 77.6621 34.334C77.278 33.7936 76.7376 33.5234 76.041 33.5234C75.3509 33.5234 74.8171 33.7936 74.4395 34.334C74.0618 34.8678 73.873 35.6979 73.873 36.8242ZM88.7363 34.0801C88.3522 34.028 88.0137 34.002 87.7207 34.002C86.653 34.002 85.9531 34.3633 85.6211 35.0859V42H82.7988V31.4336H85.4648L85.543 32.6934C86.1094 31.7233 86.8939 31.2383 87.8965 31.2383C88.209 31.2383 88.502 31.2806 88.7754 31.3652L88.7363 34.0801ZM93.9414 37.7617L92.9258 38.7773V42H90.1035V27H92.9258V35.3105L93.4727 34.6074L96.1777 31.4336H99.5664L95.748 35.8379L99.8984 42H96.6562L93.9414 37.7617ZM113.326 38.2695C113.326 37.7161 113.131 37.293 112.74 37C112.35 36.7005 111.646 36.388 110.631 36.0625C109.615 35.7305 108.811 35.4049 108.219 35.0859C106.604 34.2135 105.797 33.0384 105.797 31.5605C105.797 30.7923 106.012 30.1087 106.441 29.5098C106.878 28.9043 107.499 28.4323 108.307 28.0938C109.12 27.7552 110.032 27.5859 111.041 27.5859C112.057 27.5859 112.962 27.7715 113.756 28.1426C114.55 28.5072 115.165 29.0247 115.602 29.6953C116.044 30.3659 116.266 31.1276 116.266 31.9805H113.336C113.336 31.3294 113.131 30.8249 112.721 30.4668C112.311 30.1022 111.734 29.9199 110.992 29.9199C110.276 29.9199 109.719 30.0729 109.322 30.3789C108.925 30.6784 108.727 31.0755 108.727 31.5703C108.727 32.0326 108.958 32.4199 109.42 32.7324C109.889 33.0449 110.576 33.3379 111.48 33.6113C113.147 34.1126 114.361 34.7344 115.123 35.4766C115.885 36.2188 116.266 37.1432 116.266 38.25C116.266 39.4805 115.8 40.4473 114.869 41.1504C113.938 41.847 112.685 42.1953 111.109 42.1953C110.016 42.1953 109.02 41.9967 108.121 41.5996C107.223 41.196 106.536 40.6458 106.061 39.9492C105.592 39.2526 105.357 38.4453 105.357 37.5273H108.297C108.297 39.0964 109.234 39.8809 111.109 39.8809C111.806 39.8809 112.35 39.7409 112.74 39.4609C113.131 39.1745 113.326 38.7773 113.326 38.2695ZM121.188 39.6465H127.408V42H118.258V27.7812H121.188V39.6465ZM137.32 39.0703H132.184L131.207 42H128.092L133.385 27.7812H136.1L141.422 42H138.307L137.32 39.0703ZM132.975 36.6973H136.529L134.742 31.375L132.975 36.6973Z" fill="#333333"/>
<rect x="482" y="72" width="106" height="457" transform="rotate(90 482 72)" fill="#E9F1FF"/>
<rect x="392" y="72" width="106" height="368" transform="rotate(90 392 72)" fill="#93B7FE"/>
<rect x="482" y="178" width="108" height="458" transform="rotate(90 482 178)" fill="#FFE9E9"/>
<rect x="114" y="178" width="106" height="90" transform="rotate(90 114 178)" fill="#EB5757"/>
<path d="M75.5039 128.714C75.3369 130.143 74.8081 131.247 73.9175 132.026C73.033 132.799 71.8548 133.186 70.3828 133.186C68.7871 133.186 67.5068 132.613 66.542 131.469C65.5833 130.325 65.104 128.794 65.104 126.877V125.578C65.104 124.323 65.3267 123.219 65.772 122.266C66.2235 121.314 66.8605 120.584 67.6831 120.077C68.5057 119.563 69.4582 119.307 70.5405 119.307C71.9754 119.307 73.1258 119.709 73.9917 120.513C74.8576 121.311 75.3617 122.418 75.5039 123.834H73.7134C73.5588 122.758 73.2217 121.979 72.7021 121.496C72.1888 121.014 71.4683 120.772 70.5405 120.772C69.4025 120.772 68.5088 121.193 67.8594 122.034C67.2161 122.875 66.8945 124.072 66.8945 125.625V126.933C66.8945 128.398 67.2007 129.564 67.813 130.43C68.4253 131.296 69.2819 131.729 70.3828 131.729C71.3724 131.729 72.13 131.506 72.6558 131.061C73.1877 130.61 73.5402 129.827 73.7134 128.714H75.5039ZM77.2202 127.888C77.2202 126.905 77.4119 126.02 77.7954 125.235C78.1851 124.449 78.7231 123.843 79.4097 123.417C80.1024 122.99 80.891 122.776 81.7754 122.776C83.1423 122.776 84.2463 123.25 85.0874 124.196C85.9347 125.142 86.3584 126.401 86.3584 127.972V128.092C86.3584 129.069 86.1698 129.948 85.7925 130.727C85.4214 131.5 84.8864 132.103 84.1875 132.536C83.4948 132.969 82.6969 133.186 81.7939 133.186C80.4333 133.186 79.3293 132.712 78.4819 131.766C77.6408 130.82 77.2202 129.567 77.2202 128.009V127.888ZM78.9458 128.092C78.9458 129.206 79.2025 130.099 79.7158 130.773C80.2354 131.448 80.9281 131.785 81.7939 131.785C82.666 131.785 83.3587 131.444 83.8721 130.764C84.3854 130.078 84.6421 129.119 84.6421 127.888C84.6421 126.787 84.3792 125.897 83.8535 125.216C83.334 124.53 82.6413 124.187 81.7754 124.187C80.9281 124.187 80.2446 124.524 79.7251 125.198C79.2056 125.872 78.9458 126.837 78.9458 128.092ZM90.125 122.962L90.1714 124.075C90.9074 123.209 91.9001 122.776 93.1494 122.776C94.5534 122.776 95.509 123.314 96.0161 124.391C96.3501 123.908 96.783 123.519 97.3149 123.222C97.853 122.925 98.487 122.776 99.2168 122.776C101.419 122.776 102.538 123.942 102.575 126.274V133H100.859V126.376C100.859 125.659 100.695 125.124 100.367 124.771C100.039 124.412 99.4889 124.233 98.7158 124.233C98.0788 124.233 97.55 124.425 97.1294 124.808C96.7088 125.185 96.4645 125.696 96.3965 126.339V133H94.6709V126.422C94.6709 124.963 93.9565 124.233 92.5278 124.233C91.4022 124.233 90.6322 124.712 90.2178 125.671V133H88.5015V122.962H90.125ZM113.652 128.092C113.652 129.62 113.303 130.851 112.604 131.785C111.905 132.719 110.959 133.186 109.765 133.186C108.547 133.186 107.588 132.799 106.889 132.026V136.859H105.173V122.962H106.741L106.824 124.075C107.523 123.209 108.494 122.776 109.737 122.776C110.943 122.776 111.896 123.231 112.595 124.14C113.3 125.049 113.652 126.314 113.652 127.935V128.092ZM111.936 127.897C111.936 126.766 111.695 125.872 111.212 125.216C110.73 124.561 110.068 124.233 109.227 124.233C108.188 124.233 107.409 124.694 106.889 125.615V130.412C107.403 131.327 108.188 131.785 109.246 131.785C110.068 131.785 110.721 131.46 111.203 130.811C111.692 130.155 111.936 129.184 111.936 127.897ZM117.707 133H115.99V118.75H117.707V133ZM122.327 133H120.61V122.962H122.327V133ZM120.471 120.299C120.471 120.021 120.555 119.786 120.722 119.594C120.895 119.403 121.148 119.307 121.482 119.307C121.816 119.307 122.07 119.403 122.243 119.594C122.416 119.786 122.503 120.021 122.503 120.299C122.503 120.578 122.416 120.81 122.243 120.995C122.07 121.181 121.816 121.273 121.482 121.273C121.148 121.273 120.895 121.181 120.722 120.995C120.555 120.81 120.471 120.578 120.471 120.299ZM131.279 133C131.18 132.802 131.1 132.45 131.038 131.942C130.24 132.771 129.288 133.186 128.181 133.186C127.191 133.186 126.378 132.907 125.741 132.351C125.11 131.788 124.794 131.076 124.794 130.217C124.794 129.172 125.19 128.361 125.982 127.786C126.78 127.205 127.899 126.914 129.34 126.914H131.01V126.125C131.01 125.526 130.831 125.049 130.472 124.697C130.113 124.338 129.585 124.159 128.886 124.159C128.273 124.159 127.76 124.313 127.346 124.623C126.931 124.932 126.724 125.306 126.724 125.745H124.999C124.999 125.244 125.175 124.762 125.527 124.298C125.886 123.828 126.368 123.457 126.975 123.185C127.587 122.912 128.258 122.776 128.988 122.776C130.144 122.776 131.05 123.067 131.706 123.648C132.362 124.224 132.702 125.018 132.727 126.033V130.653C132.727 131.574 132.844 132.307 133.079 132.852V133H131.279ZM128.431 131.692C128.969 131.692 129.479 131.553 129.962 131.274C130.444 130.996 130.794 130.634 131.01 130.189V128.129H129.665C127.562 128.129 126.511 128.745 126.511 129.976C126.511 130.514 126.69 130.934 127.049 131.237C127.408 131.54 127.868 131.692 128.431 131.692ZM137.041 122.962L137.096 124.224C137.863 123.259 138.865 122.776 140.102 122.776C142.223 122.776 143.293 123.973 143.312 126.367V133H141.596V126.357C141.59 125.634 141.423 125.099 141.095 124.752C140.773 124.406 140.269 124.233 139.583 124.233C139.026 124.233 138.537 124.381 138.117 124.678C137.696 124.975 137.368 125.365 137.133 125.847V133H135.417V122.962H137.041ZM148.229 120.531V122.962H150.103V124.289H148.229V130.514C148.229 130.916 148.312 131.219 148.479 131.423C148.646 131.621 148.931 131.72 149.333 131.72C149.531 131.72 149.803 131.683 150.149 131.608V133C149.698 133.124 149.259 133.186 148.832 133.186C148.065 133.186 147.487 132.954 147.097 132.49C146.708 132.026 146.513 131.367 146.513 130.514V124.289H144.685V122.962H146.513V120.531H148.229Z" fill="black"/>
<path d="M75.9492 239H74.1587L67.3584 228.591V239H65.5679V225.492H67.3584L74.1772 235.948V225.492H75.9492V239ZM78.3892 233.888C78.3892 232.905 78.5809 232.02 78.9644 231.235C79.354 230.449 79.8921 229.843 80.5786 229.417C81.2713 228.99 82.0599 228.776 82.9443 228.776C84.3112 228.776 85.4152 229.25 86.2563 230.196C87.1037 231.142 87.5273 232.401 87.5273 233.972V234.092C87.5273 235.069 87.3387 235.948 86.9614 236.727C86.5903 237.5 86.0553 238.103 85.3564 238.536C84.6637 238.969 83.8659 239.186 82.9629 239.186C81.6022 239.186 80.4982 238.712 79.6509 237.766C78.8097 236.82 78.3892 235.567 78.3892 234.009V233.888ZM80.1147 234.092C80.1147 235.206 80.3714 236.099 80.8848 236.773C81.4043 237.448 82.097 237.785 82.9629 237.785C83.835 237.785 84.5277 237.444 85.041 236.764C85.5544 236.078 85.811 235.119 85.811 233.888C85.811 232.787 85.5482 231.897 85.0225 231.216C84.5029 230.53 83.8102 230.187 82.9443 230.187C82.097 230.187 81.4136 230.524 80.894 231.198C80.3745 231.872 80.1147 232.837 80.1147 234.092ZM92.0083 226.531V228.962H93.8823V230.289H92.0083V236.514C92.0083 236.916 92.0918 237.219 92.2588 237.423C92.4258 237.621 92.7103 237.72 93.1123 237.72C93.3102 237.72 93.5824 237.683 93.9287 237.608V239C93.4772 239.124 93.0381 239.186 92.6113 239.186C91.8444 239.186 91.2661 238.954 90.8765 238.49C90.4868 238.026 90.292 237.367 90.292 236.514V230.289H88.4644V228.962H90.292V226.531H92.0083ZM110.813 234.714C110.646 236.143 110.118 237.247 109.227 238.026C108.343 238.799 107.164 239.186 105.692 239.186C104.097 239.186 102.816 238.613 101.852 237.469C100.893 236.325 100.414 234.794 100.414 232.877V231.578C100.414 230.323 100.636 229.219 101.082 228.266C101.533 227.314 102.17 226.584 102.993 226.077C103.815 225.563 104.768 225.307 105.85 225.307C107.285 225.307 108.435 225.709 109.301 226.513C110.167 227.311 110.671 228.418 110.813 229.834H109.023C108.868 228.758 108.531 227.979 108.012 227.496C107.498 227.014 106.778 226.772 105.85 226.772C104.712 226.772 103.818 227.193 103.169 228.034C102.526 228.875 102.204 230.072 102.204 231.625V232.933C102.204 234.398 102.51 235.564 103.123 236.43C103.735 237.296 104.591 237.729 105.692 237.729C106.682 237.729 107.44 237.506 107.965 237.061C108.497 236.61 108.85 235.827 109.023 234.714H110.813ZM112.53 233.888C112.53 232.905 112.722 232.02 113.105 231.235C113.495 230.449 114.033 229.843 114.719 229.417C115.412 228.99 116.201 228.776 117.085 228.776C118.452 228.776 119.556 229.25 120.397 230.196C121.244 231.142 121.668 232.401 121.668 233.972V234.092C121.668 235.069 121.479 235.948 121.102 236.727C120.731 237.5 120.196 238.103 119.497 238.536C118.804 238.969 118.007 239.186 117.104 239.186C115.743 239.186 114.639 238.712 113.792 237.766C112.95 236.82 112.53 235.567 112.53 234.009V233.888ZM114.255 234.092C114.255 235.206 114.512 236.099 115.025 236.773C115.545 237.448 116.238 237.785 117.104 237.785C117.976 237.785 118.668 237.444 119.182 236.764C119.695 236.078 119.952 235.119 119.952 233.888C119.952 232.787 119.689 231.897 119.163 231.216C118.644 230.53 117.951 230.187 117.085 230.187C116.238 230.187 115.554 230.524 115.035 231.198C114.515 231.872 114.255 232.837 114.255 234.092ZM125.435 228.962L125.481 230.075C126.217 229.209 127.21 228.776 128.459 228.776C129.863 228.776 130.819 229.314 131.326 230.391C131.66 229.908 132.093 229.519 132.625 229.222C133.163 228.925 133.797 228.776 134.526 228.776C136.728 228.776 137.848 229.942 137.885 232.274V239H136.168V232.376C136.168 231.659 136.005 231.124 135.677 230.771C135.349 230.412 134.799 230.233 134.025 230.233C133.388 230.233 132.86 230.425 132.439 230.808C132.018 231.185 131.774 231.696 131.706 232.339V239H129.98V232.422C129.98 230.963 129.266 230.233 127.837 230.233C126.712 230.233 125.942 230.712 125.527 231.671V239H123.811V228.962H125.435ZM148.962 234.092C148.962 235.62 148.612 236.851 147.914 237.785C147.215 238.719 146.268 239.186 145.075 239.186C143.856 239.186 142.898 238.799 142.199 238.026V242.859H140.482V228.962H142.05L142.134 230.075C142.833 229.209 143.804 228.776 145.047 228.776C146.253 228.776 147.205 229.231 147.904 230.14C148.609 231.049 148.962 232.314 148.962 233.935V234.092ZM147.246 233.897C147.246 232.766 147.004 231.872 146.522 231.216C146.04 230.561 145.378 230.233 144.537 230.233C143.498 230.233 142.718 230.694 142.199 231.615V236.412C142.712 237.327 143.498 237.785 144.555 237.785C145.378 237.785 146.03 237.46 146.513 236.811C147.001 236.155 147.246 235.184 147.246 233.897ZM153.016 239H151.3V224.75H153.016V239ZM157.636 239H155.92V228.962H157.636V239ZM155.781 226.299C155.781 226.021 155.864 225.786 156.031 225.594C156.204 225.403 156.458 225.307 156.792 225.307C157.126 225.307 157.38 225.403 157.553 225.594C157.726 225.786 157.812 226.021 157.812 226.299C157.812 226.578 157.726 226.81 157.553 226.995C157.38 227.181 157.126 227.273 156.792 227.273C156.458 227.273 156.204 227.181 156.031 226.995C155.864 226.81 155.781 226.578 155.781 226.299ZM166.589 239C166.49 238.802 166.41 238.45 166.348 237.942C165.55 238.771 164.597 239.186 163.49 239.186C162.501 239.186 161.687 238.907 161.05 238.351C160.419 237.788 160.104 237.076 160.104 236.217C160.104 235.172 160.5 234.361 161.292 233.786C162.089 233.205 163.209 232.914 164.65 232.914H166.32V232.125C166.32 231.526 166.14 231.049 165.782 230.697C165.423 230.338 164.894 230.159 164.195 230.159C163.583 230.159 163.07 230.313 162.655 230.623C162.241 230.932 162.034 231.306 162.034 231.745H160.308C160.308 231.244 160.484 230.762 160.837 230.298C161.196 229.828 161.678 229.457 162.284 229.185C162.896 228.912 163.568 228.776 164.297 228.776C165.454 228.776 166.36 229.067 167.016 229.648C167.671 230.224 168.011 231.018 168.036 232.033V236.653C168.036 237.574 168.154 238.307 168.389 238.852V239H166.589ZM163.741 237.692C164.279 237.692 164.789 237.553 165.271 237.274C165.754 236.996 166.103 236.634 166.32 236.189V234.129H164.975C162.872 234.129 161.82 234.745 161.82 235.976C161.82 236.514 162 236.934 162.358 237.237C162.717 237.54 163.178 237.692 163.741 237.692ZM172.35 228.962L172.406 230.224C173.173 229.259 174.175 228.776 175.412 228.776C177.533 228.776 178.603 229.973 178.622 232.367V239H176.905V232.357C176.899 231.634 176.732 231.099 176.404 230.752C176.083 230.406 175.579 230.233 174.892 230.233C174.335 230.233 173.847 230.381 173.426 230.678C173.006 230.975 172.678 231.365 172.443 231.847V239H170.727V228.962H172.35ZM183.539 226.531V228.962H185.413V230.289H183.539V236.514C183.539 236.916 183.622 237.219 183.789 237.423C183.956 237.621 184.241 237.72 184.643 237.72C184.84 237.72 185.113 237.683 185.459 237.608V239C185.007 239.124 184.568 239.186 184.142 239.186C183.375 239.186 182.796 238.954 182.407 238.49C182.017 238.026 181.822 237.367 181.822 236.514V230.289H179.995V228.962H181.822V226.531H183.539Z" fill="black"/>
</svg>
