<svg width="499" height="333" viewBox="0 0 499 333" fill="none" xmlns="http://www.w3.org/2000/svg">
<path d="M0 20C0 8.95431 8.9543 0 20 0H479C490.046 0 499 8.95431 499 20V313C499 324.046 490.046 333 479 333H0V20Z" fill="white"/>
<path d="M35.6602 27.7812V37.4492C35.6536 38.7904 35.2305 39.8874 34.3906 40.7402C33.5573 41.5931 32.4245 42.0716 30.9922 42.1758L30.4941 42.1953C28.9382 42.1953 27.6979 41.7754 26.7734 40.9355C25.849 40.0957 25.3802 38.9401 25.3672 37.4688V27.7812H27.2227V37.4102C27.2227 38.4388 27.5059 39.2396 28.0723 39.8125C28.6387 40.3789 29.446 40.6621 30.4941 40.6621C31.5553 40.6621 32.3659 40.3789 32.9258 39.8125C33.4922 39.2461 33.7754 38.4486 33.7754 37.4199V27.7812H35.6602ZM43.834 36.248H40.4941V42H38.6094V27.7812H43.3164C44.918 27.7812 46.1484 28.1458 47.0078 28.875C47.8737 29.6042 48.3066 30.6654 48.3066 32.0586C48.3066 32.944 48.0658 33.7155 47.584 34.373C47.1087 35.0306 46.4447 35.5221 45.5918 35.8477L48.9316 41.8828V42H46.9199L43.834 36.248ZM40.4941 34.7148H43.375C44.306 34.7148 45.0449 34.474 45.5918 33.9922C46.1452 33.5104 46.4219 32.8659 46.4219 32.0586C46.4219 31.1797 46.1582 30.5059 45.6309 30.0371C45.11 29.5684 44.3548 29.3307 43.3652 29.3242H40.4941V34.7148ZM52.8281 40.4668H59.5664V42H50.9434V27.7812H52.8281V40.4668ZM69.0879 27.7812L73.7363 39.3828L78.3848 27.7812H80.8164V42H78.9414V36.4629L79.1172 30.4863L74.4492 42H73.0137L68.3555 30.5156L68.541 36.4629V42H66.666V27.7812H69.0879ZM83.3652 36.6191C83.3652 35.584 83.5671 34.653 83.9707 33.8262C84.3809 32.9993 84.9473 32.3613 85.6699 31.9121C86.3991 31.4629 87.2292 31.2383 88.1602 31.2383C89.599 31.2383 90.7611 31.7363 91.6465 32.7324C92.5384 33.7285 92.9844 35.0534 92.9844 36.707V36.834C92.9844 37.8626 92.7858 38.7871 92.3887 39.6074C91.998 40.4212 91.4349 41.056 90.6992 41.5117C89.9701 41.9674 89.1302 42.1953 88.1797 42.1953C86.7474 42.1953 85.5853 41.6973 84.6934 40.7012C83.8079 39.7051 83.3652 38.3867 83.3652 36.7461V36.6191ZM85.1816 36.834C85.1816 38.0059 85.4518 38.9466 85.9922 39.6562C86.5391 40.3659 87.2682 40.7207 88.1797 40.7207C89.0977 40.7207 89.8268 40.3626 90.3672 39.6465C90.9076 38.9238 91.1777 37.9147 91.1777 36.6191C91.1777 35.4603 90.901 34.5228 90.3477 33.8066C89.8008 33.084 89.0716 32.7227 88.1602 32.7227C87.2682 32.7227 86.5488 33.0775 86.002 33.7871C85.4551 34.4967 85.1816 35.5124 85.1816 36.834ZM96.959 31.4336L97.0176 32.7617C97.8249 31.7461 98.8796 31.2383 100.182 31.2383C102.415 31.2383 103.541 32.498 103.561 35.0176V42H101.754V35.0078C101.747 34.2461 101.572 33.6829 101.227 33.3184C100.888 32.9538 100.357 32.7715 99.6348 32.7715C99.0488 32.7715 98.5345 32.9277 98.0918 33.2402C97.6491 33.5527 97.304 33.9629 97.0566 34.4707V42H95.25V31.4336H96.959ZM108.248 42H106.441V31.4336H108.248V42ZM106.295 28.6309C106.295 28.3379 106.383 28.0905 106.559 27.8887C106.741 27.6868 107.008 27.5859 107.359 27.5859C107.711 27.5859 107.978 27.6868 108.16 27.8887C108.342 28.0905 108.434 28.3379 108.434 28.6309C108.434 28.9238 108.342 29.168 108.16 29.3633C107.978 29.5586 107.711 29.6562 107.359 29.6562C107.008 29.6562 106.741 29.5586 106.559 29.3633C106.383 29.168 106.295 28.9238 106.295 28.6309ZM113.6 28.875V31.4336H115.572V32.8301H113.6V39.3828C113.6 39.806 113.688 40.125 113.863 40.3398C114.039 40.5482 114.339 40.6523 114.762 40.6523C114.97 40.6523 115.257 40.6133 115.621 40.5352V42C115.146 42.1302 114.684 42.1953 114.234 42.1953C113.427 42.1953 112.818 41.9512 112.408 41.4629C111.998 40.9746 111.793 40.2812 111.793 39.3828V32.8301H109.869V31.4336H111.793V28.875H113.6ZM117.018 36.6191C117.018 35.584 117.219 34.653 117.623 33.8262C118.033 32.9993 118.6 32.3613 119.322 31.9121C120.051 31.4629 120.882 31.2383 121.812 31.2383C123.251 31.2383 124.413 31.7363 125.299 32.7324C126.191 33.7285 126.637 35.0534 126.637 36.707V36.834C126.637 37.8626 126.438 38.7871 126.041 39.6074C125.65 40.4212 125.087 41.056 124.352 41.5117C123.622 41.9674 122.783 42.1953 121.832 42.1953C120.4 42.1953 119.238 41.6973 118.346 40.7012C117.46 39.7051 117.018 38.3867 117.018 36.7461V36.6191ZM118.834 36.834C118.834 38.0059 119.104 38.9466 119.645 39.6562C120.191 40.3659 120.921 40.7207 121.832 40.7207C122.75 40.7207 123.479 40.3626 124.02 39.6465C124.56 38.9238 124.83 37.9147 124.83 36.6191C124.83 35.4603 124.553 34.5228 124 33.8066C123.453 33.084 122.724 32.7227 121.812 32.7227C120.921 32.7227 120.201 33.0775 119.654 33.7871C119.107 34.4967 118.834 35.5124 118.834 36.834ZM134.01 33.0547C133.736 33.0091 133.44 32.9863 133.121 32.9863C131.936 32.9863 131.132 33.4909 130.709 34.5V42H128.902V31.4336H130.66L130.689 32.6543C131.282 31.7103 132.122 31.2383 133.209 31.2383C133.561 31.2383 133.827 31.2839 134.01 31.375V33.0547ZM137.643 42H135.836V31.4336H137.643V42ZM135.689 28.6309C135.689 28.3379 135.777 28.0905 135.953 27.8887C136.135 27.6868 136.402 27.5859 136.754 27.5859C137.105 27.5859 137.372 27.6868 137.555 27.8887C137.737 28.0905 137.828 28.3379 137.828 28.6309C137.828 28.9238 137.737 29.168 137.555 29.3633C137.372 29.5586 137.105 29.6562 136.754 29.6562C136.402 29.6562 136.135 29.5586 135.953 29.3633C135.777 29.168 135.689 28.9238 135.689 28.6309ZM142.252 31.4336L142.311 32.7617C143.118 31.7461 144.173 31.2383 145.475 31.2383C147.708 31.2383 148.834 32.498 148.854 35.0176V42H147.047V35.0078C147.04 34.2461 146.865 33.6829 146.52 33.3184C146.181 32.9538 145.65 32.7715 144.928 32.7715C144.342 32.7715 143.827 32.9277 143.385 33.2402C142.942 33.5527 142.597 33.9629 142.35 34.4707V42H140.543V31.4336H142.252ZM151.148 36.6289C151.148 34.9818 151.529 33.6732 152.291 32.7031C153.053 31.7266 154.062 31.2383 155.318 31.2383C156.607 31.2383 157.613 31.694 158.336 32.6055L158.424 31.4336H160.074V41.7461C160.074 43.1133 159.667 44.1908 158.854 44.9785C158.046 45.7663 156.959 46.1602 155.592 46.1602C154.83 46.1602 154.085 45.9974 153.355 45.6719C152.626 45.3464 152.07 44.9004 151.686 44.334L152.623 43.25C153.398 44.207 154.345 44.6855 155.465 44.6855C156.344 44.6855 157.027 44.4382 157.516 43.9434C158.01 43.4486 158.258 42.752 158.258 41.8535V40.9453C157.535 41.7786 156.549 42.1953 155.299 42.1953C154.062 42.1953 153.059 41.6973 152.291 40.7012C151.529 39.7051 151.148 38.3477 151.148 36.6289ZM152.965 36.834C152.965 38.0254 153.209 38.9629 153.697 39.6465C154.186 40.3236 154.869 40.6621 155.748 40.6621C156.887 40.6621 157.724 40.1445 158.258 39.1094V34.2852C157.704 33.276 156.874 32.7715 155.768 32.7715C154.889 32.7715 154.202 33.1133 153.707 33.7969C153.212 34.4805 152.965 35.4928 152.965 36.834Z" fill="black"/>
<circle cx="32" cy="71" r="8" fill="#B4CDFF"/>
<circle cx="158" cy="71" r="8" fill="#EB5757"/>
<rect x="47" y="63" width="83" height="16" rx="8" fill="#E0E0E0"/>
<rect x="24" y="294" width="18" height="12" rx="6" fill="#E0E0E0"/>
<rect x="78" y="294" width="18" height="12" rx="6" fill="#E0E0E0"/>
<rect x="132" y="294" width="17" height="12" rx="6" fill="#E0E0E0"/>
<rect x="185" y="294" width="18" height="12" rx="6" fill="#E0E0E0"/>
<rect x="239" y="294" width="18" height="12" rx="6" fill="#E0E0E0"/>
<rect x="293" y="294" width="18" height="12" rx="6" fill="#E0E0E0"/>
<rect x="347" y="294" width="18" height="12" rx="6" fill="#E0E0E0"/>
<rect x="400" y="294" width="18" height="12" rx="6" fill="#E0E0E0"/>
<rect x="454" y="294" width="18" height="12" rx="6" fill="#E0E0E0"/>
<rect x="173" y="63" width="83" height="16" rx="8" fill="#E0E0E0"/>
<rect x="24" y="108" width="37" height="174" fill="#B4CDFF"/>
<rect x="61" y="108" width="82" height="174" fill="#FB7878"/>
<rect x="358" y="108" width="123" height="174" fill="#FB7878"/>
<rect x="143" y="108" width="215" height="174" fill="#B4CDFF"/>
<rect x="383" y="17" width="98" height="36" rx="18" fill="#F2F2F2"/>
<rect x="400" y="31" width="41" height="9" rx="4.5" fill="#C4C4C4"/>
<path d="M460 39L456.536 33L463.464 33L460 39Z" fill="#C4C4C4"/>
<line x1="24.5" y1="97" x2="24.5" y2="291" stroke="#B6B6B6" stroke-dasharray="2 2"/>
<line x1="78.5" y1="97" x2="78.5" y2="291" stroke="#B6B6B6" stroke-dasharray="2 2"/>
<line x1="132.5" y1="97" x2="132.5" y2="291" stroke="#B6B6B6" stroke-dasharray="2 2"/>
<line x1="186.5" y1="97" x2="186.5" y2="291" stroke="#B6B6B6" stroke-dasharray="2 2"/>
<line x1="240.5" y1="97" x2="240.5" y2="291" stroke="#B6B6B6" stroke-dasharray="2 2"/>
<line x1="294.5" y1="97" x2="294.5" y2="291" stroke="#B6B6B6" stroke-dasharray="2 2"/>
<line x1="326.5" y1="97" x2="326.5" y2="291" stroke="#231F20"/>
<line x1="348.5" y1="97" x2="348.5" y2="291" stroke="#B6B6B6" stroke-dasharray="2 2"/>
<line x1="402.5" y1="97" x2="402.5" y2="291" stroke="#B6B6B6" stroke-dasharray="2 2"/>
<line x1="456.5" y1="97" x2="456.5" y2="291" stroke="#B6B6B6" stroke-dasharray="2 2"/>
<g opacity="0.31" filter="url(#filter0_f_2844_53750)">
<rect x="342" y="135" width="67" height="40" fill="black"/>
</g>
<path fill-rule="evenodd" clip-rule="evenodd" d="M282 94C270.954 94 262 102.954 262 114V143C262 154.046 270.954 163 282 163H314.737L320.314 168.577C323.047 171.311 327.48 171.311 330.213 168.577L335.79 163H372C383.046 163 392 154.046 392 143V114C392 102.954 383.046 94 372 94H282Z" fill="#231F20"/>
<path d="M284.651 120.402H280.481L279.545 123H278.191L281.992 113.047H283.141L286.948 123H285.602L284.651 120.402ZM280.878 119.322H284.262L282.566 114.667L280.878 119.322ZM290.188 121.284L292.021 115.604H293.312L290.66 123H289.696L287.017 115.604H288.309L290.188 121.284ZM298.986 123C298.913 122.854 298.854 122.594 298.809 122.221C298.221 122.831 297.519 123.137 296.703 123.137C295.974 123.137 295.375 122.932 294.905 122.521C294.44 122.107 294.208 121.583 294.208 120.949C294.208 120.179 294.5 119.582 295.083 119.158C295.671 118.73 296.496 118.516 297.558 118.516H298.788V117.935C298.788 117.493 298.656 117.142 298.392 116.882C298.127 116.618 297.738 116.485 297.223 116.485C296.771 116.485 296.393 116.599 296.088 116.827C295.783 117.055 295.63 117.331 295.63 117.654H294.358C294.358 117.285 294.488 116.93 294.748 116.588C295.012 116.242 295.368 115.968 295.814 115.768C296.266 115.567 296.76 115.467 297.298 115.467C298.15 115.467 298.818 115.681 299.301 116.109C299.784 116.533 300.035 117.119 300.053 117.866V121.271C300.053 121.95 300.139 122.49 300.312 122.891V123H298.986ZM296.888 122.036C297.284 122.036 297.66 121.934 298.016 121.729C298.371 121.523 298.629 121.257 298.788 120.929V119.411H297.797C296.247 119.411 295.473 119.865 295.473 120.771C295.473 121.168 295.605 121.478 295.869 121.701C296.133 121.924 296.473 122.036 296.888 122.036ZM303.409 123H302.145V115.604H303.409V123ZM302.042 113.642C302.042 113.437 302.104 113.263 302.227 113.122C302.354 112.981 302.541 112.91 302.787 112.91C303.033 112.91 303.22 112.981 303.348 113.122C303.475 113.263 303.539 113.437 303.539 113.642C303.539 113.847 303.475 114.018 303.348 114.154C303.22 114.291 303.033 114.359 302.787 114.359C302.541 114.359 302.354 114.291 302.227 114.154C302.104 114.018 302.042 113.847 302.042 113.642ZM306.813 123H305.549V112.5H306.813V123ZM313.41 123C313.337 122.854 313.278 122.594 313.232 122.221C312.645 122.831 311.943 123.137 311.127 123.137C310.398 123.137 309.799 122.932 309.329 122.521C308.864 122.107 308.632 121.583 308.632 120.949C308.632 120.179 308.924 119.582 309.507 119.158C310.095 118.73 310.92 118.516 311.981 118.516H313.212V117.935C313.212 117.493 313.08 117.142 312.815 116.882C312.551 116.618 312.161 116.485 311.646 116.485C311.195 116.485 310.817 116.599 310.512 116.827C310.206 117.055 310.054 117.331 310.054 117.654H308.782C308.782 117.285 308.912 116.93 309.172 116.588C309.436 116.242 309.792 115.968 310.238 115.768C310.689 115.567 311.184 115.467 311.722 115.467C312.574 115.467 313.242 115.681 313.725 116.109C314.208 116.533 314.458 117.119 314.477 117.866V121.271C314.477 121.95 314.563 122.49 314.736 122.891V123H313.41ZM311.312 122.036C311.708 122.036 312.084 121.934 312.439 121.729C312.795 121.523 313.052 121.257 313.212 120.929V119.411H312.221C310.671 119.411 309.896 119.865 309.896 120.771C309.896 121.168 310.029 121.478 310.293 121.701C310.557 121.924 310.897 122.036 311.312 122.036ZM322.721 119.384C322.721 120.514 322.461 121.423 321.941 122.111C321.422 122.795 320.725 123.137 319.85 123.137C318.915 123.137 318.193 122.806 317.683 122.146L317.621 123H316.459V112.5H317.724V116.417C318.234 115.784 318.938 115.467 319.836 115.467C320.734 115.467 321.438 115.806 321.948 116.485C322.463 117.164 322.721 118.094 322.721 119.274V119.384ZM321.456 119.24C321.456 118.379 321.29 117.714 320.957 117.244C320.624 116.775 320.146 116.54 319.521 116.54C318.688 116.54 318.088 116.927 317.724 117.702V120.901C318.111 121.676 318.715 122.063 319.535 122.063C320.141 122.063 320.613 121.829 320.95 121.359C321.287 120.89 321.456 120.184 321.456 119.24ZM325.694 123H324.43V115.604H325.694V123ZM324.327 113.642C324.327 113.437 324.389 113.263 324.512 113.122C324.639 112.981 324.826 112.91 325.072 112.91C325.318 112.91 325.505 112.981 325.633 113.122C325.76 113.263 325.824 113.437 325.824 113.642C325.824 113.847 325.76 114.018 325.633 114.154C325.505 114.291 325.318 114.359 325.072 114.359C324.826 114.359 324.639 114.291 324.512 114.154C324.389 114.018 324.327 113.847 324.327 113.642ZM329.099 123H327.834V112.5H329.099V123ZM332.503 123H331.238V115.604H332.503V123ZM331.136 113.642C331.136 113.437 331.197 113.263 331.32 113.122C331.448 112.981 331.635 112.91 331.881 112.91C332.127 112.91 332.314 112.981 332.441 113.122C332.569 113.263 332.633 113.437 332.633 113.642C332.633 113.847 332.569 114.018 332.441 114.154C332.314 114.291 332.127 114.359 331.881 114.359C331.635 114.359 331.448 114.291 331.32 114.154C331.197 114.018 331.136 113.847 331.136 113.642ZM336.249 113.812V115.604H337.63V116.581H336.249V121.168C336.249 121.464 336.311 121.688 336.434 121.838C336.557 121.984 336.766 122.057 337.062 122.057C337.208 122.057 337.409 122.029 337.664 121.975V123C337.331 123.091 337.008 123.137 336.693 123.137C336.128 123.137 335.702 122.966 335.415 122.624C335.128 122.282 334.984 121.797 334.984 121.168V116.581H333.638V115.604H334.984V113.812H336.249ZM341.533 121.147L343.256 115.604H344.609L341.636 124.142C341.175 125.372 340.444 125.987 339.441 125.987L339.202 125.967L338.73 125.878V124.853L339.072 124.88C339.501 124.88 339.833 124.793 340.07 124.62C340.312 124.447 340.51 124.13 340.665 123.67L340.945 122.918L338.307 115.604H339.688L341.533 121.147ZM354.426 119.657H355.807V120.689H354.426V123H353.154V120.689H348.622V119.944L353.079 113.047H354.426V119.657ZM350.058 119.657H353.154V114.776L353.004 115.05L350.058 119.657ZM362.984 115.645C362.984 116.141 362.852 116.583 362.588 116.971C362.328 117.358 361.975 117.661 361.528 117.88C362.048 118.103 362.458 118.429 362.759 118.857C363.064 119.286 363.217 119.771 363.217 120.313C363.217 121.175 362.925 121.861 362.342 122.371C361.763 122.882 361 123.137 360.052 123.137C359.095 123.137 358.327 122.882 357.748 122.371C357.174 121.856 356.887 121.17 356.887 120.313C356.887 119.776 357.033 119.29 357.324 118.857C357.62 118.424 358.028 118.096 358.548 117.873C358.106 117.654 357.757 117.351 357.502 116.964C357.247 116.576 357.119 116.137 357.119 115.645C357.119 114.806 357.388 114.141 357.926 113.648C358.464 113.156 359.172 112.91 360.052 112.91C360.927 112.91 361.633 113.156 362.171 113.648C362.713 114.141 362.984 114.806 362.984 115.645ZM361.952 120.286C361.952 119.73 361.774 119.277 361.419 118.926C361.068 118.575 360.608 118.399 360.038 118.399C359.468 118.399 359.01 118.573 358.664 118.919C358.322 119.265 358.151 119.721 358.151 120.286C358.151 120.851 358.318 121.296 358.65 121.619C358.988 121.943 359.455 122.104 360.052 122.104C360.644 122.104 361.109 121.943 361.446 121.619C361.784 121.291 361.952 120.847 361.952 120.286ZM360.052 113.949C359.555 113.949 359.152 114.104 358.842 114.414C358.536 114.719 358.384 115.136 358.384 115.665C358.384 116.171 358.534 116.581 358.835 116.896C359.14 117.205 359.546 117.36 360.052 117.36C360.558 117.36 360.961 117.205 361.262 116.896C361.567 116.581 361.72 116.171 361.72 115.665C361.72 115.159 361.562 114.747 361.248 114.428C360.934 114.109 360.535 113.949 360.052 113.949ZM364.7 114.961C364.7 114.364 364.889 113.872 365.268 113.484C365.65 113.097 366.14 112.903 366.737 112.903C367.343 112.903 367.833 113.099 368.207 113.491C368.585 113.879 368.774 114.382 368.774 115.002V115.487C368.774 116.089 368.583 116.581 368.2 116.964C367.822 117.342 367.339 117.531 366.751 117.531C366.159 117.531 365.669 117.342 365.281 116.964C364.894 116.581 364.7 116.073 364.7 115.439V114.961ZM365.644 115.487C365.644 115.843 365.744 116.137 365.944 116.369C366.145 116.597 366.414 116.711 366.751 116.711C367.075 116.711 367.334 116.599 367.53 116.376C367.731 116.153 367.831 115.847 367.831 115.46V114.961C367.831 114.605 367.733 114.312 367.537 114.079C367.341 113.847 367.075 113.73 366.737 113.73C366.4 113.73 366.133 113.847 365.938 114.079C365.742 114.312 365.644 114.615 365.644 114.988V115.487ZM369.547 120.56C369.547 119.963 369.736 119.473 370.114 119.09C370.497 118.702 370.987 118.509 371.584 118.509C372.181 118.509 372.671 118.7 373.054 119.083C373.437 119.466 373.628 119.974 373.628 120.607V121.093C373.628 121.69 373.437 122.182 373.054 122.569C372.675 122.952 372.19 123.144 371.598 123.144C371.005 123.144 370.515 122.954 370.128 122.576C369.741 122.193 369.547 121.685 369.547 121.052V120.56ZM370.49 121.093C370.49 121.453 370.59 121.749 370.791 121.981C370.992 122.209 371.26 122.323 371.598 122.323C371.926 122.323 372.188 122.212 372.384 121.988C372.58 121.76 372.678 121.453 372.678 121.065V120.56C372.678 120.2 372.577 119.906 372.377 119.678C372.181 119.45 371.917 119.336 371.584 119.336C371.26 119.336 370.996 119.45 370.791 119.678C370.59 119.901 370.49 120.204 370.49 120.587V121.093ZM367.038 122.248L366.32 121.797L371.181 114.018L371.898 114.469L367.038 122.248Z" fill="white"/>
<path d="M280.468 140.104V144H279.155V134.047H282.826C283.915 134.047 284.768 134.325 285.383 134.881C286.003 135.437 286.312 136.173 286.312 137.089C286.312 138.055 286.009 138.8 285.403 139.324C284.802 139.844 283.938 140.104 282.812 140.104H280.468ZM280.468 139.03H282.826C283.528 139.03 284.066 138.866 284.439 138.538C284.813 138.205 285 137.727 285 137.103C285 136.51 284.813 136.036 284.439 135.681C284.066 135.325 283.553 135.141 282.901 135.127H280.468V139.03ZM292.273 144C292.201 143.854 292.141 143.594 292.096 143.221C291.508 143.831 290.806 144.137 289.99 144.137C289.261 144.137 288.662 143.932 288.192 143.521C287.728 143.107 287.495 142.583 287.495 141.949C287.495 141.179 287.787 140.582 288.37 140.158C288.958 139.73 289.783 139.516 290.845 139.516H292.075V138.935C292.075 138.493 291.943 138.142 291.679 137.882C291.414 137.618 291.025 137.485 290.51 137.485C290.059 137.485 289.68 137.599 289.375 137.827C289.07 138.055 288.917 138.331 288.917 138.654H287.646C287.646 138.285 287.775 137.93 288.035 137.588C288.299 137.242 288.655 136.968 289.102 136.768C289.553 136.567 290.047 136.467 290.585 136.467C291.437 136.467 292.105 136.681 292.588 137.109C293.071 137.533 293.322 138.119 293.34 138.866V142.271C293.34 142.95 293.426 143.49 293.6 143.891V144H292.273ZM290.175 143.036C290.571 143.036 290.947 142.934 291.303 142.729C291.658 142.523 291.916 142.257 292.075 141.929V140.411H291.084C289.535 140.411 288.76 140.865 288.76 141.771C288.76 142.168 288.892 142.478 289.156 142.701C289.421 142.924 289.76 143.036 290.175 143.036ZM298.289 143.104C298.74 143.104 299.134 142.968 299.472 142.694C299.809 142.421 299.996 142.079 300.032 141.669H301.229C301.206 142.093 301.06 142.496 300.791 142.879C300.522 143.262 300.162 143.567 299.711 143.795C299.264 144.023 298.79 144.137 298.289 144.137C297.282 144.137 296.48 143.802 295.883 143.132C295.29 142.457 294.994 141.537 294.994 140.37V140.158C294.994 139.438 295.126 138.798 295.391 138.237C295.655 137.677 296.033 137.242 296.525 136.932C297.022 136.622 297.608 136.467 298.282 136.467C299.112 136.467 299.8 136.715 300.347 137.212C300.898 137.709 301.192 138.354 301.229 139.146H300.032C299.996 138.668 299.813 138.276 299.485 137.971C299.162 137.661 298.761 137.506 298.282 137.506C297.64 137.506 297.141 137.738 296.785 138.203C296.434 138.663 296.259 139.331 296.259 140.206V140.445C296.259 141.298 296.434 141.954 296.785 142.414C297.136 142.874 297.637 143.104 298.289 143.104ZM304.715 140.575L303.922 141.402V144H302.657V133.5H303.922V139.851L304.599 139.037L306.902 136.604H308.44L305.562 139.693L308.775 144H307.292L304.715 140.575ZM312.679 144.137C311.676 144.137 310.86 143.809 310.231 143.152C309.603 142.492 309.288 141.61 309.288 140.507V140.274C309.288 139.541 309.427 138.887 309.705 138.312C309.988 137.734 310.38 137.283 310.881 136.959C311.387 136.631 311.934 136.467 312.521 136.467C313.483 136.467 314.23 136.784 314.764 137.417C315.297 138.05 315.563 138.957 315.563 140.138V140.664H310.553C310.571 141.393 310.783 141.983 311.188 142.435C311.599 142.881 312.118 143.104 312.747 143.104C313.194 143.104 313.572 143.013 313.882 142.831C314.192 142.649 314.463 142.407 314.695 142.106L315.468 142.708C314.848 143.66 313.918 144.137 312.679 144.137ZM312.521 137.506C312.011 137.506 311.583 137.693 311.236 138.066C310.89 138.436 310.676 138.955 310.594 139.625H314.299V139.529C314.262 138.887 314.089 138.39 313.779 138.039C313.469 137.684 313.05 137.506 312.521 137.506ZM318.749 134.812V136.604H320.13V137.581H318.749V142.168C318.749 142.464 318.811 142.688 318.934 142.838C319.057 142.984 319.266 143.057 319.562 143.057C319.708 143.057 319.909 143.029 320.164 142.975V144C319.831 144.091 319.508 144.137 319.193 144.137C318.628 144.137 318.202 143.966 317.915 143.624C317.628 143.282 317.484 142.797 317.484 142.168V137.581H316.138V136.604H317.484V134.812H318.749ZM326.604 142.927H331.32V144H325.284V134.047H326.604V142.927ZM332.284 140.233C332.284 139.509 332.425 138.857 332.708 138.278C332.995 137.7 333.392 137.253 333.897 136.938C334.408 136.624 334.989 136.467 335.641 136.467C336.648 136.467 337.461 136.815 338.081 137.513C338.705 138.21 339.018 139.137 339.018 140.295V140.384C339.018 141.104 338.879 141.751 338.601 142.325C338.327 142.895 337.933 143.339 337.418 143.658C336.908 143.977 336.32 144.137 335.654 144.137C334.652 144.137 333.838 143.788 333.214 143.091C332.594 142.394 332.284 141.471 332.284 140.322V140.233ZM333.556 140.384C333.556 141.204 333.745 141.863 334.123 142.359C334.506 142.856 335.016 143.104 335.654 143.104C336.297 143.104 336.807 142.854 337.186 142.353C337.564 141.847 337.753 141.14 337.753 140.233C337.753 139.422 337.559 138.766 337.172 138.265C336.789 137.759 336.279 137.506 335.641 137.506C335.016 137.506 334.513 137.754 334.13 138.251C333.747 138.748 333.556 139.459 333.556 140.384ZM344.91 142.038C344.91 141.696 344.78 141.432 344.521 141.245C344.265 141.054 343.816 140.89 343.174 140.753C342.536 140.616 342.028 140.452 341.649 140.261C341.276 140.069 340.998 139.841 340.815 139.577C340.638 139.313 340.549 138.998 340.549 138.634C340.549 138.028 340.804 137.515 341.314 137.096C341.829 136.676 342.486 136.467 343.283 136.467C344.122 136.467 344.801 136.683 345.32 137.116C345.844 137.549 346.106 138.103 346.106 138.777H344.835C344.835 138.431 344.687 138.132 344.391 137.882C344.099 137.631 343.73 137.506 343.283 137.506C342.823 137.506 342.463 137.606 342.203 137.807C341.943 138.007 341.813 138.269 341.813 138.593C341.813 138.898 341.934 139.128 342.176 139.283C342.417 139.438 342.853 139.586 343.481 139.728C344.115 139.869 344.628 140.037 345.02 140.233C345.411 140.429 345.701 140.666 345.888 140.944C346.079 141.218 346.175 141.553 346.175 141.949C346.175 142.61 345.91 143.141 345.382 143.542C344.853 143.938 344.167 144.137 343.324 144.137C342.732 144.137 342.208 144.032 341.752 143.822C341.296 143.613 340.938 143.321 340.679 142.947C340.424 142.569 340.296 142.161 340.296 141.724H341.561C341.583 142.147 341.752 142.485 342.066 142.735C342.385 142.981 342.805 143.104 343.324 143.104C343.803 143.104 344.186 143.009 344.473 142.817C344.764 142.621 344.91 142.362 344.91 142.038ZM352.129 142.038C352.129 141.696 351.999 141.432 351.739 141.245C351.484 141.054 351.035 140.89 350.393 140.753C349.755 140.616 349.246 140.452 348.868 140.261C348.494 140.069 348.216 139.841 348.034 139.577C347.856 139.313 347.768 138.998 347.768 138.634C347.768 138.028 348.023 137.515 348.533 137.096C349.048 136.676 349.704 136.467 350.502 136.467C351.34 136.467 352.02 136.683 352.539 137.116C353.063 137.549 353.325 138.103 353.325 138.777H352.054C352.054 138.431 351.906 138.132 351.609 137.882C351.318 137.631 350.949 137.506 350.502 137.506C350.042 137.506 349.682 137.606 349.422 137.807C349.162 138.007 349.032 138.269 349.032 138.593C349.032 138.898 349.153 139.128 349.395 139.283C349.636 139.438 350.071 139.586 350.7 139.728C351.334 139.869 351.846 140.037 352.238 140.233C352.63 140.429 352.92 140.666 353.106 140.944C353.298 141.218 353.394 141.553 353.394 141.949C353.394 142.61 353.129 143.141 352.601 143.542C352.072 143.938 351.386 144.137 350.543 144.137C349.951 144.137 349.426 144.032 348.971 143.822C348.515 143.613 348.157 143.321 347.897 142.947C347.642 142.569 347.515 142.161 347.515 141.724H348.779C348.802 142.147 348.971 142.485 349.285 142.735C349.604 142.981 350.023 143.104 350.543 143.104C351.021 143.104 351.404 143.009 351.691 142.817C351.983 142.621 352.129 142.362 352.129 142.038ZM364.625 139.755C364.625 141.236 364.372 142.337 363.866 143.057C363.36 143.777 362.57 144.137 361.494 144.137C360.432 144.137 359.646 143.786 359.136 143.084C358.625 142.378 358.361 141.325 358.343 139.926V138.237C358.343 136.774 358.596 135.688 359.102 134.977C359.607 134.266 360.4 133.91 361.48 133.91C362.551 133.91 363.34 134.254 363.846 134.942C364.352 135.626 364.611 136.683 364.625 138.114V139.755ZM363.36 138.025C363.36 136.954 363.21 136.175 362.909 135.688C362.608 135.195 362.132 134.949 361.48 134.949C360.833 134.949 360.362 135.193 360.065 135.681C359.769 136.168 359.617 136.918 359.607 137.93V139.953C359.607 141.029 359.762 141.824 360.072 142.339C360.387 142.849 360.861 143.104 361.494 143.104C362.118 143.104 362.581 142.863 362.882 142.38C363.187 141.897 363.347 141.136 363.36 140.097V138.025ZM366.136 135.961C366.136 135.364 366.325 134.872 366.703 134.484C367.086 134.097 367.576 133.903 368.173 133.903C368.779 133.903 369.269 134.099 369.643 134.491C370.021 134.879 370.21 135.382 370.21 136.002V136.487C370.21 137.089 370.019 137.581 369.636 137.964C369.257 138.342 368.774 138.531 368.187 138.531C367.594 138.531 367.104 138.342 366.717 137.964C366.329 137.581 366.136 137.073 366.136 136.439V135.961ZM367.079 136.487C367.079 136.843 367.179 137.137 367.38 137.369C367.58 137.597 367.849 137.711 368.187 137.711C368.51 137.711 368.77 137.599 368.966 137.376C369.166 137.153 369.267 136.847 369.267 136.46V135.961C369.267 135.605 369.169 135.312 368.973 135.079C368.777 134.847 368.51 134.73 368.173 134.73C367.836 134.73 367.569 134.847 367.373 135.079C367.177 135.312 367.079 135.615 367.079 135.988V136.487ZM370.982 141.56C370.982 140.963 371.172 140.473 371.55 140.09C371.933 139.702 372.423 139.509 373.02 139.509C373.617 139.509 374.106 139.7 374.489 140.083C374.872 140.466 375.063 140.974 375.063 141.607V142.093C375.063 142.69 374.872 143.182 374.489 143.569C374.111 143.952 373.626 144.144 373.033 144.144C372.441 144.144 371.951 143.954 371.563 143.576C371.176 143.193 370.982 142.685 370.982 142.052V141.56ZM371.926 142.093C371.926 142.453 372.026 142.749 372.227 142.981C372.427 143.209 372.696 143.323 373.033 143.323C373.361 143.323 373.623 143.212 373.819 142.988C374.015 142.76 374.113 142.453 374.113 142.065V141.56C374.113 141.2 374.013 140.906 373.812 140.678C373.617 140.45 373.352 140.336 373.02 140.336C372.696 140.336 372.432 140.45 372.227 140.678C372.026 140.901 371.926 141.204 371.926 141.587V142.093ZM368.474 143.248L367.756 142.797L372.616 135.018L373.334 135.469L368.474 143.248Z" fill="white"/>
<defs>
<filter id="filter0_f_2844_53750" x="299" y="92" width="153" height="126" filterUnits="userSpaceOnUse" color-interpolation-filters="sRGB">
<feFlood flood-opacity="0" result="BackgroundImageFix"/>
<feBlend mode="normal" in="SourceGraphic" in2="BackgroundImageFix" result="shape"/>
<feGaussianBlur stdDeviation="21.5" result="effect1_foregroundBlur_2844_53750"/>
</filter>
</defs>
</svg>
