<svg width="506" height="310" viewBox="0 0 506 310" fill="none" xmlns="http://www.w3.org/2000/svg">
<path d="M0 12C0 5.37259 5.37258 0 12 0H494C500.627 0 506 5.37258 506 12V298C506 304.627 500.627 310 494 310H0V12Z" fill="white"/>
<path d="M33.4043 38.6895H27.8965L26.7441 42H24.1758L29.5469 27.7812H31.7637L37.1445 42H34.5664L33.4043 38.6895ZM28.5898 36.6973H32.7109L30.6504 30.7988L28.5898 36.6973ZM47.3203 36.8242C47.3203 38.4583 46.9492 39.7637 46.207 40.7402C45.4648 41.7103 44.4688 42.1953 43.2188 42.1953C42.0599 42.1953 41.1322 41.8145 40.4355 41.0527V46.0625H38.0625V31.4336H40.25L40.3477 32.5078C41.0443 31.6615 41.9915 31.2383 43.1895 31.2383C44.4785 31.2383 45.4876 31.7201 46.2168 32.6836C46.9525 33.6406 47.3203 34.972 47.3203 36.6777V36.8242ZM44.957 36.6191C44.957 35.5645 44.7454 34.7279 44.3223 34.1094C43.9056 33.4909 43.3066 33.1816 42.5254 33.1816C41.5553 33.1816 40.8587 33.582 40.4355 34.3828V39.0703C40.8652 39.8906 41.5684 40.3008 42.5449 40.3008C43.3001 40.3008 43.8893 39.998 44.3125 39.3926C44.7422 38.7806 44.957 37.8561 44.957 36.6191ZM58.5898 36.8242C58.5898 38.4583 58.2188 39.7637 57.4766 40.7402C56.7344 41.7103 55.7383 42.1953 54.4883 42.1953C53.3294 42.1953 52.4017 41.8145 51.7051 41.0527V46.0625H49.332V31.4336H51.5195L51.6172 32.5078C52.3138 31.6615 53.2611 31.2383 54.459 31.2383C55.748 31.2383 56.7572 31.7201 57.4863 32.6836C58.222 33.6406 58.5898 34.972 58.5898 36.6777V36.8242ZM56.2266 36.6191C56.2266 35.5645 56.015 34.7279 55.5918 34.1094C55.1751 33.4909 54.5762 33.1816 53.7949 33.1816C52.8249 33.1816 52.1283 33.582 51.7051 34.3828V39.0703C52.1348 39.8906 52.8379 40.3008 53.8145 40.3008C54.5697 40.3008 55.1589 39.998 55.582 39.3926C56.0117 38.7806 56.2266 37.8561 56.2266 36.6191ZM63.1309 42H60.7578V27H63.1309V42ZM68.248 42H65.875V31.4336H68.248V42ZM65.7285 28.6895C65.7285 28.3249 65.8424 28.0221 66.0703 27.7812C66.3047 27.5404 66.6367 27.4199 67.0664 27.4199C67.4961 27.4199 67.8281 27.5404 68.0625 27.7812C68.2969 28.0221 68.4141 28.3249 68.4141 28.6895C68.4141 29.0475 68.2969 29.347 68.0625 29.5879C67.8281 29.8223 67.4961 29.9395 67.0664 29.9395C66.6367 29.9395 66.3047 29.8223 66.0703 29.5879C65.8424 29.347 65.7285 29.0475 65.7285 28.6895ZM75.1816 40.3008C75.7741 40.3008 76.2656 40.1283 76.6562 39.7832C77.0469 39.4382 77.2552 39.0117 77.2812 38.5039H79.5176C79.4915 39.1615 79.2865 39.7767 78.9023 40.3496C78.5182 40.916 77.9974 41.3652 77.3398 41.6973C76.6823 42.0293 75.9727 42.1953 75.2109 42.1953C73.7331 42.1953 72.5612 41.7168 71.6953 40.7598C70.8294 39.8027 70.3965 38.4811 70.3965 36.7949V36.5508C70.3965 34.9427 70.8262 33.6569 71.6855 32.6934C72.5449 31.7233 73.7168 31.2383 75.2012 31.2383C76.4577 31.2383 77.4798 31.6061 78.2676 32.3418C79.0618 33.071 79.4785 34.0312 79.5176 35.2227H77.2812C77.2552 34.6172 77.0469 34.1191 76.6562 33.7285C76.2721 33.3379 75.7806 33.1426 75.1816 33.1426C74.4134 33.1426 73.821 33.4225 73.4043 33.9824C72.9876 34.5358 72.776 35.3789 72.7695 36.5117V36.8926C72.7695 38.0384 72.9746 38.8945 73.3848 39.4609C73.8014 40.0208 74.4004 40.3008 75.1816 40.3008ZM87.623 42C87.5189 41.7982 87.4277 41.4694 87.3496 41.0137C86.5944 41.8014 85.6699 42.1953 84.5762 42.1953C83.515 42.1953 82.6491 41.8926 81.9785 41.2871C81.3079 40.6816 80.9727 39.9329 80.9727 39.041C80.9727 37.9147 81.3893 37.0521 82.2227 36.4531C83.0625 35.8477 84.2604 35.5449 85.8164 35.5449H87.2715V34.8516C87.2715 34.3047 87.1185 33.8685 86.8125 33.543C86.5065 33.2109 86.041 33.0449 85.416 33.0449C84.8757 33.0449 84.4329 33.1816 84.0879 33.4551C83.7428 33.722 83.5703 34.0638 83.5703 34.4805H81.1973C81.1973 33.901 81.3893 33.3607 81.7734 32.8594C82.1576 32.3516 82.6784 31.9544 83.3359 31.668C84 31.3815 84.7389 31.2383 85.5527 31.2383C86.7897 31.2383 87.776 31.5508 88.5117 32.1758C89.2474 32.7943 89.625 33.6667 89.6445 34.793V39.5586C89.6445 40.5091 89.778 41.2676 90.0449 41.834V42H87.623ZM85.0156 40.291C85.4844 40.291 85.9238 40.1771 86.334 39.9492C86.7507 39.7214 87.0632 39.4154 87.2715 39.0312V37.0391H85.9922C85.1133 37.0391 84.4525 37.1921 84.0098 37.498C83.5671 37.804 83.3457 38.237 83.3457 38.7969C83.3457 39.2526 83.4954 39.6172 83.7949 39.8906C84.1009 40.1576 84.5078 40.291 85.0156 40.291ZM95.1035 28.8652V31.4336H96.9688V33.1914H95.1035V39.0898C95.1035 39.4935 95.1816 39.7865 95.3379 39.9688C95.5007 40.1445 95.7871 40.2324 96.1973 40.2324C96.4707 40.2324 96.7474 40.1999 97.0273 40.1348V41.9707C96.487 42.1204 95.9661 42.1953 95.4648 42.1953C93.6419 42.1953 92.7305 41.1895 92.7305 39.1777V33.1914H90.9922V31.4336H92.7305V28.8652H95.1035ZM101.314 42H98.9414V31.4336H101.314V42ZM98.7949 28.6895C98.7949 28.3249 98.9089 28.0221 99.1367 27.7812C99.3711 27.5404 99.7031 27.4199 100.133 27.4199C100.562 27.4199 100.895 27.5404 101.129 27.7812C101.363 28.0221 101.48 28.3249 101.48 28.6895C101.48 29.0475 101.363 29.347 101.129 29.5879C100.895 29.8223 100.562 29.9395 100.133 29.9395C99.7031 29.9395 99.3711 29.8223 99.1367 29.5879C98.9089 29.347 98.7949 29.0475 98.7949 28.6895ZM103.463 36.6191C103.463 35.584 103.668 34.653 104.078 33.8262C104.488 32.9928 105.064 32.3548 105.807 31.9121C106.549 31.4629 107.402 31.2383 108.365 31.2383C109.791 31.2383 110.947 31.6973 111.832 32.6152C112.724 33.5332 113.206 34.7507 113.277 36.2676L113.287 36.8242C113.287 37.8659 113.085 38.7969 112.682 39.6172C112.285 40.4375 111.712 41.0723 110.963 41.5215C110.221 41.9707 109.361 42.1953 108.385 42.1953C106.894 42.1953 105.699 41.7005 104.801 40.7109C103.909 39.7148 103.463 38.39 103.463 36.7363V36.6191ZM105.836 36.8242C105.836 37.9115 106.061 38.7643 106.51 39.3828C106.959 39.9948 107.584 40.3008 108.385 40.3008C109.186 40.3008 109.807 39.9883 110.25 39.3633C110.699 38.7383 110.924 37.8236 110.924 36.6191C110.924 35.5514 110.693 34.7051 110.23 34.0801C109.775 33.4551 109.153 33.1426 108.365 33.1426C107.59 33.1426 106.975 33.4518 106.52 34.0703C106.064 34.6823 105.836 35.6003 105.836 36.8242ZM117.496 31.4336L117.564 32.6543C118.346 31.7103 119.371 31.2383 120.641 31.2383C122.841 31.2383 123.961 32.498 124 35.0176V42H121.627V35.1543C121.627 34.4837 121.48 33.9889 121.188 33.6699C120.901 33.3444 120.429 33.1816 119.771 33.1816C118.814 33.1816 118.102 33.6146 117.633 34.4805V42H115.26V31.4336H117.496ZM132.35 39.1289C132.35 38.7057 132.174 38.3835 131.822 38.1621C131.477 37.9408 130.901 37.7454 130.094 37.5762C129.286 37.4069 128.613 37.1921 128.072 36.9316C126.887 36.3587 126.295 35.5286 126.295 34.4414C126.295 33.5299 126.679 32.7682 127.447 32.1562C128.215 31.5443 129.192 31.2383 130.377 31.2383C131.64 31.2383 132.659 31.5508 133.434 32.1758C134.215 32.8008 134.605 33.6113 134.605 34.6074H132.232C132.232 34.1517 132.063 33.7741 131.725 33.4746C131.386 33.1686 130.937 33.0156 130.377 33.0156C129.856 33.0156 129.43 33.1361 129.098 33.377C128.772 33.6178 128.609 33.9401 128.609 34.3438C128.609 34.7083 128.762 34.9915 129.068 35.1934C129.374 35.3952 129.993 35.6003 130.924 35.8086C131.855 36.0104 132.584 36.2546 133.111 36.541C133.645 36.821 134.039 37.1595 134.293 37.5566C134.553 37.9538 134.684 38.4355 134.684 39.002C134.684 39.9525 134.29 40.724 133.502 41.3164C132.714 41.9023 131.682 42.1953 130.406 42.1953C129.54 42.1953 128.769 42.0391 128.092 41.7266C127.415 41.4141 126.887 40.9844 126.51 40.4375C126.132 39.8906 125.943 39.3014 125.943 38.6699H128.248C128.281 39.2298 128.492 39.6628 128.883 39.9688C129.273 40.2682 129.791 40.418 130.436 40.418C131.061 40.418 131.536 40.3008 131.861 40.0664C132.187 39.8255 132.35 39.513 132.35 39.1289Z" fill="black"/>
<path d="M111.688 185.652H94.4918V182.75L103.011 173.556C104.24 172.201 105.113 171.071 105.628 170.167C106.155 169.252 106.418 168.336 106.418 167.421C106.418 166.216 106.073 165.243 105.382 164.501C104.703 163.76 103.784 163.389 102.624 163.389C101.243 163.389 100.171 163.806 99.4099 164.64C98.6488 165.475 98.2682 166.616 98.2682 168.064H94C94 166.523 94.3513 165.139 95.0539 163.91C95.7682 162.671 96.7811 161.709 98.0926 161.025C99.4158 160.342 100.938 160 102.659 160C105.142 160 107.097 160.62 108.526 161.86C109.966 163.088 110.687 164.791 110.687 166.969C110.687 168.232 110.324 169.559 109.597 170.949C108.883 172.328 107.706 173.898 106.067 175.659L99.8139 182.281H111.688V185.652Z" fill="black"/>
<path d="M119.873 171.071H122.472C123.784 171.059 124.82 170.723 125.581 170.063C126.354 169.402 126.741 168.447 126.741 167.195C126.741 165.99 126.419 165.057 125.775 164.397C125.142 163.725 124.17 163.389 122.859 163.389C121.711 163.389 120.769 163.719 120.031 164.38C119.293 165.029 118.924 165.88 118.924 166.934H114.656C114.656 165.637 115.002 164.455 115.692 163.389C116.395 162.323 117.367 161.495 118.608 160.904C119.861 160.301 121.26 160 122.806 160C125.359 160 127.361 160.637 128.813 161.912C130.277 163.175 131.009 164.936 131.009 167.195C131.009 168.331 130.64 169.402 129.902 170.41C129.176 171.407 128.234 172.16 127.074 172.67C128.48 173.145 129.545 173.892 130.271 174.912C131.009 175.931 131.378 177.148 131.378 178.561C131.378 180.832 130.587 182.64 129.007 183.984C127.437 185.328 125.371 186 122.806 186C120.347 186 118.333 185.351 116.764 184.053C115.195 182.756 114.41 181.029 114.41 178.874H118.678C118.678 179.987 119.053 180.89 119.803 181.586C120.564 182.281 121.583 182.628 122.859 182.628C124.182 182.628 125.224 182.281 125.985 181.586C126.747 180.89 127.127 179.882 127.127 178.561C127.127 177.229 126.729 176.204 125.933 175.485C125.136 174.767 123.954 174.408 122.385 174.408H119.873V171.071Z" fill="black"/>
<path d="M149.821 176.632H153V180.021H149.821V185.652H145.553V180.021H134.504L134.381 177.449L145.412 160.348H149.821V176.632ZM138.86 176.632H145.553V166.066L145.236 166.622L138.86 176.632Z" fill="black"/>
<path d="M218 170C218 185.59 214.242 200.95 207.046 214.779C199.849 228.608 189.425 240.498 176.657 249.443C163.889 258.389 149.153 264.124 133.698 266.165C118.243 268.206 102.523 266.492 87.8708 261.167C73.2187 255.843 60.0657 247.065 49.5262 235.578C38.9866 224.091 31.371 210.233 27.3245 195.178C23.2781 180.122 22.9199 164.313 26.2805 149.09C29.641 133.867 36.6212 119.679 46.6297 107.726L76.1055 132.408C70.0637 139.623 65.8501 148.188 63.8214 157.378C61.7928 166.567 62.009 176.11 64.4517 185.199C66.8944 194.287 71.4916 202.653 77.854 209.587C84.2163 216.521 92.1562 221.82 101.001 225.034C109.846 228.248 119.335 229.283 128.665 228.051C137.995 226.819 146.891 223.357 154.598 217.957C162.306 212.557 168.598 205.379 172.943 197.031C177.287 188.683 179.555 179.411 179.555 170H218Z" fill="#386FDC"/>
<path d="M47 108.518C56.2053 97.2013 67.821 88.1308 80.9805 81.9832C94.1401 75.8356 108.504 72.7694 123 73.0135L122.364 111.567C113.613 111.42 104.942 113.271 96.9985 116.982C89.0546 120.693 82.0426 126.169 76.4857 133L47 108.518Z" fill="#A8E4C2"/>
<path d="M121.458 73C141.583 73.2349 161.151 79.5988 177.521 91.2328C193.891 102.867 206.275 119.211 213 138.058L176.261 151C172.201 139.622 164.725 129.756 154.843 122.733C144.961 115.71 133.149 111.869 121 111.727L121.458 73Z" fill="#F2994A"/>
<path d="M211.833 136C216.244 147.816 218.325 160.383 217.959 173L179.698 171.876C179.919 164.26 178.663 156.673 176 149.541L211.833 136Z" fill="#386FDC"/>
<circle opacity="0.7" cx="129" cy="243" r="8" fill="white"/>
<ellipse opacity="0.7" cx="168" cy="108.5" rx="8" ry="8.5" fill="white"/>
<ellipse opacity="0.7" cx="85.5" cy="102" rx="8.5" ry="8" fill="white"/>
<rect x="256" y="127" width="16" height="16" rx="8" fill="#386FDC"/>
<path d="M295.494 129.203V137.904C295.488 139.111 295.107 140.099 294.352 140.866C293.602 141.634 292.582 142.064 291.293 142.158L290.845 142.176C289.444 142.176 288.328 141.798 287.496 141.042C286.664 140.286 286.242 139.246 286.23 137.922V129.203H287.9V137.869C287.9 138.795 288.155 139.516 288.665 140.031C289.175 140.541 289.901 140.796 290.845 140.796C291.8 140.796 292.529 140.541 293.033 140.031C293.543 139.521 293.798 138.804 293.798 137.878V129.203H295.494ZM305.936 137.351C305.936 138.798 305.604 139.964 304.942 140.849C304.28 141.733 303.384 142.176 302.253 142.176C301.099 142.176 300.19 141.81 299.528 141.077V145.656H297.902V132.49H299.388L299.467 133.545C300.129 132.725 301.049 132.314 302.227 132.314C303.369 132.314 304.271 132.745 304.934 133.606C305.602 134.468 305.936 135.666 305.936 137.201V137.351ZM304.31 137.166C304.31 136.094 304.081 135.247 303.624 134.626C303.167 134.005 302.54 133.694 301.743 133.694C300.759 133.694 300.021 134.131 299.528 135.004V139.548C300.015 140.415 300.759 140.849 301.761 140.849C302.54 140.849 303.158 140.541 303.615 139.926C304.078 139.305 304.31 138.385 304.31 137.166ZM312.413 136.806C312.413 135.481 312.589 134.21 312.94 132.991C313.298 131.772 313.828 130.665 314.531 129.669C315.234 128.673 315.964 127.97 316.72 127.56L317.054 128.632C316.198 129.288 315.495 130.29 314.944 131.638C314.399 132.985 314.101 134.494 314.048 136.164L314.039 136.911C314.039 139.173 314.452 141.136 315.278 142.8C315.776 143.796 316.368 144.575 317.054 145.138L316.72 146.131C315.94 145.697 315.196 144.971 314.487 143.951C313.104 141.959 312.413 139.577 312.413 136.806ZM326.845 142H318.46V140.831L322.89 135.909C323.546 135.165 323.997 134.562 324.243 134.099C324.495 133.63 324.621 133.146 324.621 132.648C324.621 131.98 324.419 131.433 324.015 131.005C323.61 130.577 323.071 130.363 322.397 130.363C321.589 130.363 320.959 130.595 320.508 131.058C320.062 131.515 319.84 132.153 319.84 132.974H318.214C318.214 131.796 318.592 130.844 319.348 130.117C320.109 129.391 321.126 129.027 322.397 129.027C323.587 129.027 324.527 129.341 325.219 129.968C325.91 130.589 326.256 131.418 326.256 132.455C326.256 133.715 325.453 135.215 323.848 136.955L320.42 140.673H326.845V142ZM333.911 142H332.276V131.163L328.998 132.367V130.891L333.656 129.142H333.911V142ZM344.019 142H342.384V131.163L339.105 132.367V130.891L343.764 129.142H344.019V142ZM352.702 136.894C352.702 138.2 352.529 139.454 352.184 140.655C351.844 141.851 351.319 142.955 350.61 143.969C349.907 144.982 349.169 145.703 348.396 146.131L348.053 145.138C348.955 144.446 349.679 143.374 350.224 141.921C350.774 140.462 351.056 138.845 351.067 137.069V136.788C351.067 135.558 350.938 134.415 350.681 133.36C350.423 132.3 350.062 131.351 349.6 130.513C349.143 129.675 348.627 129.021 348.053 128.553L348.396 127.56C349.169 127.987 349.904 128.702 350.602 129.704C351.305 130.706 351.829 131.811 352.175 133.018C352.526 134.225 352.702 135.517 352.702 136.894Z" fill="black"/>
<rect x="256" y="162" width="16" height="16" rx="8" fill="#F2994A"/>
<path d="M286.485 177V164.203H290.098C291.211 164.203 292.195 164.449 293.051 164.941C293.906 165.434 294.565 166.134 295.028 167.042C295.497 167.95 295.734 168.993 295.74 170.171V170.988C295.74 172.195 295.506 173.253 295.037 174.161C294.574 175.069 293.909 175.767 293.042 176.253C292.181 176.739 291.176 176.988 290.027 177H286.485ZM288.173 165.592V175.62H289.948C291.249 175.62 292.26 175.216 292.98 174.407C293.707 173.599 294.07 172.447 294.07 170.953V170.206C294.07 168.753 293.728 167.625 293.042 166.822C292.362 166.014 291.396 165.604 290.142 165.592H288.173ZM297.612 172.157C297.612 171.226 297.794 170.388 298.157 169.644C298.526 168.899 299.036 168.325 299.687 167.921C300.343 167.517 301.09 167.314 301.928 167.314C303.223 167.314 304.269 167.763 305.065 168.659C305.868 169.556 306.27 170.748 306.27 172.236V172.351C306.27 173.276 306.091 174.108 305.733 174.847C305.382 175.579 304.875 176.15 304.213 176.561C303.557 176.971 302.801 177.176 301.945 177.176C300.656 177.176 299.61 176.728 298.808 175.831C298.011 174.935 297.612 173.748 297.612 172.271V172.157ZM299.247 172.351C299.247 173.405 299.49 174.252 299.977 174.891C300.469 175.529 301.125 175.849 301.945 175.849C302.771 175.849 303.428 175.526 303.914 174.882C304.4 174.231 304.644 173.323 304.644 172.157C304.644 171.114 304.395 170.271 303.896 169.626C303.404 168.976 302.748 168.65 301.928 168.65C301.125 168.65 300.478 168.97 299.985 169.608C299.493 170.247 299.247 171.161 299.247 172.351ZM316.729 174.759L318.557 167.49H320.183L317.414 177H316.096L313.784 169.793L311.534 177H310.216L307.456 167.49H309.073L310.945 174.609L313.16 167.49H314.47L316.729 174.759ZM323.382 167.49L323.435 168.686C324.161 167.771 325.11 167.314 326.282 167.314C328.292 167.314 329.306 168.448 329.323 170.716V177H327.697V170.707C327.691 170.021 327.533 169.515 327.223 169.187C326.918 168.858 326.44 168.694 325.79 168.694C325.263 168.694 324.8 168.835 324.401 169.116C324.003 169.397 323.692 169.767 323.47 170.224V177H321.844V167.49H323.382ZM336.179 171.806C336.179 170.481 336.354 169.21 336.706 167.991C337.063 166.772 337.594 165.665 338.297 164.669C339 163.673 339.729 162.97 340.485 162.56L340.819 163.632C339.964 164.288 339.261 165.29 338.71 166.638C338.165 167.985 337.866 169.494 337.813 171.164L337.805 171.911C337.805 174.173 338.218 176.136 339.044 177.8C339.542 178.796 340.134 179.575 340.819 180.138L340.485 181.131C339.706 180.697 338.962 179.971 338.253 178.951C336.87 176.959 336.179 174.577 336.179 171.806ZM348.457 171.375C348.117 171.779 347.71 172.104 347.235 172.351C346.767 172.597 346.251 172.72 345.688 172.72C344.95 172.72 344.306 172.538 343.755 172.175C343.21 171.812 342.788 171.302 342.489 170.646C342.19 169.983 342.041 169.254 342.041 168.457C342.041 167.602 342.202 166.831 342.524 166.146C342.853 165.46 343.315 164.936 343.913 164.572C344.511 164.209 345.208 164.027 346.005 164.027C347.271 164.027 348.267 164.502 348.993 165.451C349.726 166.395 350.092 167.684 350.092 169.318V169.793C350.092 172.283 349.6 174.103 348.615 175.251C347.631 176.394 346.146 176.979 344.159 177.009H343.843V175.638H344.186C345.527 175.614 346.559 175.266 347.279 174.592C348 173.912 348.393 172.84 348.457 171.375ZM345.952 171.375C346.497 171.375 346.998 171.208 347.455 170.874C347.918 170.54 348.255 170.127 348.466 169.635V168.984C348.466 167.918 348.234 167.051 347.771 166.383C347.309 165.715 346.723 165.381 346.014 165.381C345.299 165.381 344.725 165.656 344.291 166.207C343.857 166.752 343.641 167.473 343.641 168.369C343.641 169.242 343.849 169.963 344.265 170.531C344.687 171.094 345.249 171.375 345.952 171.375ZM356.253 171.894C356.253 173.2 356.08 174.454 355.734 175.655C355.395 176.851 354.87 177.955 354.161 178.969C353.458 179.982 352.72 180.703 351.946 181.131L351.604 180.138C352.506 179.446 353.229 178.374 353.774 176.921C354.325 175.462 354.606 173.845 354.618 172.069V171.788C354.618 170.558 354.489 169.415 354.231 168.36C353.974 167.3 353.613 166.351 353.15 165.513C352.693 164.675 352.178 164.021 351.604 163.553L351.946 162.56C352.72 162.987 353.455 163.702 354.152 164.704C354.855 165.706 355.38 166.811 355.726 168.018C356.077 169.225 356.253 170.517 356.253 171.894Z" fill="black"/>
<rect x="256" y="197" width="16" height="16" rx="8" fill="#A8E4C2"/>
<path d="M286.485 212V199.203H290.098C291.211 199.203 292.195 199.449 293.051 199.941C293.906 200.434 294.565 201.134 295.028 202.042C295.497 202.95 295.734 203.993 295.74 205.171V205.988C295.74 207.195 295.506 208.253 295.037 209.161C294.574 210.069 293.909 210.767 293.042 211.253C292.181 211.739 291.176 211.988 290.027 212H286.485ZM288.173 200.592V210.62H289.948C291.249 210.62 292.26 210.216 292.98 209.407C293.707 208.599 294.07 207.447 294.07 205.953V205.206C294.07 203.753 293.728 202.625 293.042 201.822C292.362 201.014 291.396 200.604 290.142 200.592H288.173ZM299.81 212H298.184V202.49H299.81V212ZM298.052 199.968C298.052 199.704 298.131 199.481 298.289 199.3C298.453 199.118 298.693 199.027 299.01 199.027C299.326 199.027 299.566 199.118 299.73 199.3C299.895 199.481 299.977 199.704 299.977 199.968C299.977 200.231 299.895 200.451 299.73 200.627C299.566 200.803 299.326 200.891 299.01 200.891C298.693 200.891 298.453 200.803 298.289 200.627C298.131 200.451 298.052 200.231 298.052 199.968ZM307.957 209.478C307.957 209.038 307.79 208.698 307.456 208.458C307.128 208.212 306.551 208.001 305.725 207.825C304.904 207.649 304.251 207.438 303.765 207.192C303.284 206.946 302.927 206.653 302.692 206.313C302.464 205.974 302.35 205.569 302.35 205.101C302.35 204.321 302.678 203.662 303.334 203.123C303.996 202.584 304.84 202.314 305.865 202.314C306.943 202.314 307.816 202.593 308.484 203.149C309.158 203.706 309.495 204.418 309.495 205.285H307.86C307.86 204.84 307.67 204.456 307.289 204.134C306.914 203.812 306.439 203.65 305.865 203.65C305.273 203.65 304.811 203.779 304.477 204.037C304.143 204.295 303.976 204.632 303.976 205.048C303.976 205.44 304.131 205.736 304.441 205.936C304.752 206.135 305.312 206.325 306.12 206.507C306.935 206.688 307.594 206.905 308.098 207.157C308.602 207.409 308.974 207.714 309.214 208.071C309.46 208.423 309.583 208.854 309.583 209.363C309.583 210.213 309.243 210.896 308.563 211.411C307.884 211.921 307.002 212.176 305.918 212.176C305.156 212.176 304.482 212.041 303.896 211.771C303.311 211.502 302.851 211.127 302.517 210.646C302.188 210.16 302.024 209.636 302.024 209.073H303.65C303.68 209.618 303.896 210.052 304.301 210.374C304.711 210.69 305.25 210.849 305.918 210.849C306.533 210.849 307.025 210.726 307.395 210.479C307.77 210.228 307.957 209.894 307.957 209.478ZM317.572 212C317.479 211.812 317.402 211.479 317.344 210.998C316.588 211.783 315.686 212.176 314.637 212.176C313.699 212.176 312.929 211.912 312.325 211.385C311.728 210.852 311.429 210.178 311.429 209.363C311.429 208.373 311.804 207.605 312.554 207.061C313.31 206.51 314.37 206.234 315.735 206.234H317.317V205.487C317.317 204.919 317.147 204.468 316.808 204.134C316.468 203.794 315.967 203.624 315.305 203.624C314.725 203.624 314.238 203.771 313.846 204.063C313.453 204.356 313.257 204.711 313.257 205.127H311.622C311.622 204.652 311.789 204.195 312.123 203.756C312.463 203.311 312.92 202.959 313.494 202.701C314.074 202.443 314.71 202.314 315.401 202.314C316.497 202.314 317.355 202.59 317.977 203.141C318.598 203.686 318.92 204.438 318.943 205.399V209.776C318.943 210.649 319.055 211.344 319.277 211.859V212H317.572ZM314.874 210.761C315.384 210.761 315.867 210.629 316.324 210.365C316.781 210.102 317.112 209.759 317.317 209.337V207.386H316.043C314.051 207.386 313.055 207.969 313.055 209.135C313.055 209.645 313.225 210.043 313.564 210.33C313.904 210.617 314.341 210.761 314.874 210.761ZM329.543 207.351C329.543 208.804 329.209 209.973 328.541 210.857C327.873 211.736 326.977 212.176 325.852 212.176C324.65 212.176 323.722 211.751 323.065 210.901L322.986 212H321.492V198.5H323.118V203.536C323.774 202.722 324.68 202.314 325.834 202.314C326.988 202.314 327.894 202.751 328.55 203.624C329.212 204.497 329.543 205.692 329.543 207.21V207.351ZM327.917 207.166C327.917 206.059 327.703 205.203 327.275 204.6C326.848 203.996 326.232 203.694 325.43 203.694C324.357 203.694 323.587 204.192 323.118 205.188V209.302C323.616 210.298 324.393 210.796 325.447 210.796C326.227 210.796 326.833 210.494 327.267 209.891C327.7 209.287 327.917 208.379 327.917 207.166ZM333.366 212H331.74V198.5H333.366V212ZM339.923 212.176C338.634 212.176 337.585 211.754 336.776 210.91C335.968 210.061 335.563 208.927 335.563 207.509V207.21C335.563 206.267 335.742 205.426 336.1 204.688C336.463 203.943 336.967 203.363 337.611 202.947C338.262 202.525 338.965 202.314 339.721 202.314C340.957 202.314 341.918 202.722 342.604 203.536C343.289 204.351 343.632 205.517 343.632 207.034V207.711H337.189C337.213 208.648 337.485 209.407 338.007 209.987C338.534 210.562 339.202 210.849 340.011 210.849C340.585 210.849 341.071 210.731 341.47 210.497C341.868 210.263 342.217 209.952 342.516 209.565L343.509 210.339C342.712 211.563 341.517 212.176 339.923 212.176ZM339.721 203.65C339.064 203.65 338.514 203.891 338.068 204.371C337.623 204.846 337.348 205.514 337.242 206.375H342.006V206.252C341.959 205.426 341.736 204.787 341.338 204.336C340.939 203.879 340.4 203.65 339.721 203.65ZM345.126 207.166C345.126 205.707 345.472 204.535 346.163 203.65C346.854 202.76 347.76 202.314 348.879 202.314C349.992 202.314 350.874 202.695 351.524 203.457V198.5H353.15V212H351.656L351.577 210.98C350.927 211.777 350.021 212.176 348.861 212.176C347.76 212.176 346.86 211.725 346.163 210.822C345.472 209.92 345.126 208.742 345.126 207.289V207.166ZM346.752 207.351C346.752 208.429 346.975 209.272 347.42 209.882C347.865 210.491 348.48 210.796 349.266 210.796C350.297 210.796 351.05 210.333 351.524 209.407V205.039C351.038 204.143 350.291 203.694 349.283 203.694C348.486 203.694 347.865 204.002 347.42 204.617C346.975 205.232 346.752 206.144 346.752 207.351ZM360.085 206.806C360.085 205.481 360.261 204.21 360.612 202.991C360.97 201.772 361.5 200.665 362.203 199.669C362.906 198.673 363.636 197.97 364.392 197.56L364.726 198.632C363.87 199.288 363.167 200.29 362.616 201.638C362.071 202.985 361.772 204.494 361.72 206.164L361.711 206.911C361.711 209.173 362.124 211.136 362.95 212.8C363.448 213.796 364.04 214.575 364.726 215.138L364.392 216.131C363.612 215.697 362.868 214.971 362.159 213.951C360.776 211.959 360.085 209.577 360.085 206.806ZM371.476 212H369.841V201.163L366.562 202.367V200.891L371.221 199.142H371.476V212ZM384.264 206.542C384.264 208.446 383.938 209.861 383.288 210.787C382.638 211.713 381.621 212.176 380.238 212.176C378.873 212.176 377.862 211.725 377.206 210.822C376.55 209.914 376.21 208.561 376.187 206.762V204.591C376.187 202.71 376.512 201.312 377.162 200.398C377.812 199.484 378.832 199.027 380.221 199.027C381.598 199.027 382.611 199.47 383.262 200.354C383.912 201.233 384.246 202.593 384.264 204.433V206.542ZM382.638 204.318C382.638 202.941 382.444 201.939 382.058 201.312C381.671 200.68 381.059 200.363 380.221 200.363C379.389 200.363 378.782 200.677 378.401 201.304C378.021 201.931 377.824 202.895 377.812 204.195V206.797C377.812 208.18 378.012 209.202 378.41 209.864C378.814 210.521 379.424 210.849 380.238 210.849C381.041 210.849 381.636 210.538 382.022 209.917C382.415 209.296 382.62 208.317 382.638 206.981V204.318ZM390.267 206.894C390.267 208.2 390.094 209.454 389.748 210.655C389.408 211.851 388.884 212.955 388.175 213.969C387.472 214.982 386.733 215.703 385.96 216.131L385.617 215.138C386.52 214.446 387.243 213.374 387.788 211.921C388.339 210.462 388.62 208.845 388.632 207.069V206.788C388.632 205.558 388.503 204.415 388.245 203.36C387.987 202.3 387.627 201.351 387.164 200.513C386.707 199.675 386.191 199.021 385.617 198.553L385.96 197.56C386.733 197.987 387.469 198.702 388.166 199.704C388.869 200.706 389.394 201.811 389.739 203.018C390.091 204.225 390.267 205.517 390.267 206.894Z" fill="black"/>
</svg>
