<svg width="470" height="565" viewBox="0 0 470 565" fill="none" xmlns="http://www.w3.org/2000/svg">
<path d="M5.10132 87.4588C8.46148 84.3154 13.014 82.7437 17.6206 83.1502C66.8036 87.5672 158.558 63.8835 218.526 2.53343C222.699 -1.72097 230.286 0.690773 235.056 4.24062C301.744 54.074 412.304 64.3983 450.675 66.512C458.615 66.9456 465.064 73.0968 465.877 81.0094C500.779 418.082 281.312 540.213 235.787 561.783C230.801 564.141 224.948 563.789 220.287 560.889C-6.57796 419.6 3.15026 235.821 0.00688606 99.68C-0.128604 95.0462 1.74116 90.6022 5.10132 87.4588Z" fill="#0D51D9"/>
<path d="M229.638 537.504C228.581 537.504 227.524 537.206 226.603 536.61C139.591 480.977 82.8748 414.479 53.2295 333.32C26.7547 260.832 25.454 187.017 24.3159 121.9L24.1533 113.229C24.1262 111.712 24.6952 110.303 25.7521 109.219C26.8089 108.135 28.2451 107.539 29.7626 107.539C83.5793 107.539 164.359 83.7735 223.595 30.6884C225.492 28.9812 228.31 28.7915 230.424 30.2006C258.362 48.7357 322.503 81.1179 437.995 89.6267C440.732 89.8164 442.9 91.9842 443.144 94.7211C454.688 226.282 427.318 337.547 361.795 425.426C312.856 491.058 254.839 525.255 232.158 536.908C231.399 537.314 230.505 537.504 229.638 537.504ZM29.8168 110.194C28.9496 110.194 28.218 110.519 27.6489 111.088C27.107 111.657 26.8089 112.389 26.8089 113.175L26.9715 121.846C28.1096 186.746 29.4103 260.318 55.7225 332.398C85.1781 413.015 141.542 479.08 228.039 534.388C228.933 534.957 230.044 535.011 230.966 534.523C253.484 522.952 311.095 488.998 359.682 423.827C424.798 336.49 451.978 225.849 440.515 94.9379C440.38 93.5017 439.242 92.3636 437.805 92.2552C414.338 90.5209 378.325 86.5375 340.063 77.4326C295.297 66.7559 257.928 51.6081 228.961 32.3955C227.85 31.6639 226.359 31.7723 225.356 32.6665C165.605 86.2123 84.0942 110.194 29.8168 110.194Z" fill="white"/>
<path d="M303.207 143.444L355.777 249.18L423.36 99.0027L353.149 176.72L303.207 143.444Z" fill="#BBC9E3"/>
<path d="M104.473 177.722C104.12 178.806 108.077 180.459 110.407 176.015C110.489 173.874 111.789 164.769 110.516 163.035C103.741 153.795 90.5985 142.224 90.5985 142.224C88.3764 144.419 90.2191 146.559 90.2191 146.559L96.5872 153.198C95.2594 155.61 93.6335 157.642 92.8747 160.542C92.3057 162.737 92.658 165.094 93.769 167.1C94.88 169.105 96.4246 171.733 97.8608 173.793C100.598 177.695 104.473 177.722 104.473 177.722Z" fill="url(#paint0_linear_2969_52878)"/>
<path d="M99.3784 157.534L105.177 162.466L106.993 167.371L101.817 173.115C101.817 173.115 100.083 163.387 98.7822 161.301C97.5086 159.16 98.186 158.13 99.3784 157.534Z" fill="url(#paint1_linear_2969_52878)"/>
<path d="M218.525 540.213C218.525 540.213 219.988 548.505 220.72 556.743C220.991 559.968 218.525 562.731 215.3 562.867C204.353 563.328 180.94 564.222 172.539 563.843C171.266 563.788 170.453 562.488 170.913 561.322C171.293 560.347 172.052 559.534 173.027 559.1L211.696 541.324L218.525 540.213Z" fill="url(#paint2_linear_2969_52878)"/>
<path d="M219.717 535.309L218.552 545.254C218.552 545.254 211.777 548.397 207.144 544.847L209.962 533.791L219.717 535.309Z" fill="url(#paint3_linear_2969_52878)"/>
<path d="M218.823 348.602C219.338 351.204 221.56 478.023 207.984 534.875C207.767 535.796 208.228 536.771 209.122 537.124C211.208 537.964 215.273 539.21 220.151 539.373C221.668 539.427 223.023 538.452 223.457 536.988C227.332 523.791 245.894 457.726 248.333 394.615C251.043 324.079 248.333 392.203 248.333 392.203L246.734 348.602H218.823Z" fill="url(#paint4_linear_2969_52878)"/>
<path d="M263.021 544.522C263.021 544.522 265.351 548.722 267.628 559.86C268.034 561.865 266.625 563.789 264.593 564.006C260.989 564.358 255.406 564.819 250.962 564.791C248.903 564.764 247.304 562.976 247.548 560.943C248.036 556.879 249.58 550.213 254.323 545.01L263.021 544.522Z" fill="url(#paint5_linear_2969_52878)"/>
<path d="M265.053 531.759L262.289 546.771C262.289 546.771 259.579 548.803 254.187 547.34L255.487 531.189L265.053 531.759Z" fill="url(#paint6_linear_2969_52878)"/>
<path d="M272.504 352.477C283.587 419.41 270.092 517.884 265.54 537.151C265.269 538.343 264.321 539.237 263.101 539.427C261.069 539.752 257.736 540.05 254.43 539.075C253.292 538.75 252.506 537.72 252.452 536.528C251.828 520.946 252.939 425.29 242.615 387.461C242.1 385.537 240.935 383.884 239.309 382.719L219.257 368.465L217.712 345.432L272.504 352.477Z" fill="url(#paint7_linear_2969_52878)"/>
<path d="M201.832 225.686C235.054 225.144 271.718 234.412 271.718 234.412C281.636 292.212 273.452 358.873 273.452 358.873C247.736 365.621 218.714 354.754 218.714 354.754C214.432 330.583 194.488 262.594 194.488 262.594C178.256 260.589 164.87 255.901 153.868 249.695C162.269 239.967 166.225 227.556 167.959 220.24C179.693 223.898 191.589 225.849 201.832 225.686Z" fill="#BBC9E3"/>
<path d="M103.684 176.72C106.935 172.791 111.081 174.633 111.081 174.633C115.959 195.282 141.621 212.029 167.96 220.239C166.253 227.556 162.27 239.967 153.869 249.695C110.16 225.117 103.684 176.72 103.684 176.72Z" fill="#BBC9E3"/>
<path d="M258.982 266.577L271.719 234.411C271.719 234.411 302.746 255.494 307.867 282.239C302.014 282.673 291.338 284.191 280.878 289.475C278.601 276.847 258.982 266.577 258.982 266.577Z" fill="#BBC9E3"/>
<path d="M235.489 198.696L246.057 229.262C246.219 229.777 246.03 230.319 245.542 230.59C242.67 232.189 232.264 236.796 219.772 228.856C218.471 228.043 217.577 226.688 217.387 225.144L213.973 198.669H235.489V198.696Z" fill="url(#paint8_linear_2969_52878)"/>
<path d="M212.483 170.379C212.483 170.379 200.885 192.247 202.348 201.054C203.839 209.888 218.228 209.237 230.801 202.083L239.581 178.481L212.483 170.379Z" fill="url(#paint9_linear_2969_52878)"/>
<path d="M230.259 190.512C229.744 190.296 229.554 189.672 229.852 189.185C230.774 187.776 232.535 184.876 233.077 182.329C233.077 182.329 235.164 181.001 227.766 179.213C220.368 177.451 209.339 174.687 207.009 168.4C204.759 162.249 210.694 146.803 220.178 159.133C220.531 159.594 221.235 159.621 221.615 159.133C223.159 157.101 227.251 152.9 232.914 155.448C238.226 157.832 238.822 161.707 238.741 163.685C238.713 164.254 239.228 164.715 239.797 164.607C242.48 164.092 248.929 163.658 251.937 170.27C254.403 175.717 252.804 178.806 251.341 180.296C250.853 180.784 251.07 181.597 251.721 181.787C253.482 182.329 255.758 183.819 255.541 187.965C255.216 193.683 248.848 193.168 247.033 192.924C246.734 192.87 246.436 192.978 246.22 193.195C244.648 194.929 237.629 202.246 230.042 203.14C229.392 203.221 228.877 202.571 229.094 201.948L232.372 192.382C232.535 191.949 232.318 191.461 231.885 191.271L230.259 190.512Z" fill="url(#paint10_linear_2969_52878)"/>
<path d="M228.932 191.868C228.932 191.868 237.197 186.204 237.793 190.973C238.389 195.743 230.341 197.883 226.357 196.122L228.932 191.868Z" fill="url(#paint11_linear_2969_52878)"/>
<path d="M280.905 289.475C280.905 289.475 291.744 338.414 281.935 365.946C293.994 371.528 291.745 370.471 291.745 370.471C291.745 370.471 315.591 300.829 307.895 282.24C292.72 280.614 285.187 284.705 280.905 289.475Z" fill="url(#paint12_linear_2969_52878)"/>
<path d="M281.907 365.918C281.907 365.918 275.702 373.967 276.189 377.164C276.677 380.362 276.813 381.662 276.813 381.662C276.813 381.662 279.929 379.522 279.739 376.812C279.306 385.456 276.406 395.293 279.035 394.832C281.663 394.344 295.294 381.798 292.204 368.411C285.24 363.534 283.289 364.049 281.907 365.918Z" fill="url(#paint13_linear_2969_52878)"/>
<defs>
<linearGradient id="paint0_linear_2969_52878" x1="94.6242" y1="143.717" x2="116.82" y2="207.135" gradientUnits="userSpaceOnUse">
<stop stop-color="#F9B776"/>
<stop offset="1" stop-color="#F47960"/>
</linearGradient>
<linearGradient id="paint1_linear_2969_52878" x1="111.676" y1="184.235" x2="94.9565" y2="150.508" gradientUnits="userSpaceOnUse">
<stop stop-color="#F9B776"/>
<stop offset="1" stop-color="#F47960"/>
</linearGradient>
<linearGradient id="paint2_linear_2969_52878" x1="173.749" y1="528.724" x2="315.379" y2="682.778" gradientUnits="userSpaceOnUse">
<stop stop-color="#2B3582"/>
<stop offset="1" stop-color="#150E42"/>
</linearGradient>
<linearGradient id="paint3_linear_2969_52878" x1="219.72" y1="540.166" x2="207.14" y2="540.166" gradientUnits="userSpaceOnUse">
<stop stop-color="#F9B776"/>
<stop offset="1" stop-color="#F47960"/>
</linearGradient>
<linearGradient id="paint4_linear_2969_52878" x1="741.529" y1="-142.152" x2="20.5872" y2="668.567" gradientUnits="userSpaceOnUse">
<stop stop-color="#53D8FF"/>
<stop offset="1" stop-color="#3840F7"/>
</linearGradient>
<linearGradient id="paint5_linear_2969_52878" x1="205.523" y1="499.514" x2="347.154" y2="653.567" gradientUnits="userSpaceOnUse">
<stop stop-color="#2B3582"/>
<stop offset="1" stop-color="#150E42"/>
</linearGradient>
<linearGradient id="paint6_linear_2969_52878" x1="265.06" y1="539.52" x2="254.198" y2="539.52" gradientUnits="userSpaceOnUse">
<stop stop-color="#F9B776"/>
<stop offset="1" stop-color="#F47960"/>
</linearGradient>
<linearGradient id="paint7_linear_2969_52878" x1="752.248" y1="-132.619" x2="31.307" y2="678.099" gradientUnits="userSpaceOnUse">
<stop stop-color="#53D8FF"/>
<stop offset="1" stop-color="#3840F7"/>
</linearGradient>
<linearGradient id="paint8_linear_2969_52878" x1="246.136" y1="216.045" x2="213.979" y2="216.045" gradientUnits="userSpaceOnUse">
<stop stop-color="#F9B776"/>
<stop offset="1" stop-color="#F47960"/>
</linearGradient>
<linearGradient id="paint9_linear_2969_52878" x1="206.331" y1="195.587" x2="241.688" y2="174.022" gradientUnits="userSpaceOnUse">
<stop stop-color="#F9B776"/>
<stop offset="1" stop-color="#F47960"/>
</linearGradient>
<linearGradient id="paint10_linear_2969_52878" x1="260.404" y1="151.29" x2="214.726" y2="187.367" gradientUnits="userSpaceOnUse">
<stop stop-color="#2B3582"/>
<stop offset="1" stop-color="#150E42"/>
</linearGradient>
<linearGradient id="paint11_linear_2969_52878" x1="215.618" y1="203.629" x2="247.429" y2="184.227" gradientUnits="userSpaceOnUse">
<stop stop-color="#F9B776"/>
<stop offset="1" stop-color="#F47960"/>
</linearGradient>
<linearGradient id="paint12_linear_2969_52878" x1="273.063" y1="452.488" x2="299.206" y2="264.732" gradientUnits="userSpaceOnUse">
<stop stop-color="#F9B776"/>
<stop offset="1" stop-color="#F47960"/>
</linearGradient>
<linearGradient id="paint13_linear_2969_52878" x1="276.175" y1="434.427" x2="297.037" y2="284.597" gradientUnits="userSpaceOnUse">
<stop stop-color="#F9B776"/>
<stop offset="1" stop-color="#F47960"/>
</linearGradient>
</defs>
</svg>
