<svg width="506" height="310" viewBox="0 0 506 310" fill="none" xmlns="http://www.w3.org/2000/svg">
<path d="M0 12C0 5.37259 5.37258 0 12 0H494C500.627 0 506 5.37258 506 12V298C506 304.627 500.627 310 494 310H0V12Z" fill="white"/>
<path d="M31.0508 30.2129L27.1836 42H24.0684L29.3516 27.7812H31.334L31.0508 30.2129ZM34.2637 42L30.3867 30.2129L30.0742 27.7812H32.0762L37.3887 42H34.2637ZM34.0879 36.707V39.002H26.5781V36.707H34.0879ZM44.2441 39.0801C44.2441 38.8783 44.1855 38.696 44.0684 38.5332C43.9512 38.3704 43.7331 38.2207 43.4141 38.084C43.1016 37.9408 42.6491 37.8105 42.0566 37.6934C41.5228 37.5762 41.0247 37.4297 40.5625 37.2539C40.1068 37.0716 39.7096 36.8535 39.3711 36.5996C39.0391 36.3457 38.7786 36.0462 38.5898 35.7012C38.401 35.3496 38.3066 34.9492 38.3066 34.5C38.3066 34.0573 38.401 33.6406 38.5898 33.25C38.7852 32.8594 39.0618 32.5143 39.4199 32.2148C39.7845 31.9089 40.2272 31.6712 40.748 31.502C41.2754 31.3262 41.8678 31.2383 42.5254 31.2383C43.4434 31.2383 44.2311 31.3848 44.8887 31.6777C45.5527 31.9707 46.0605 32.3743 46.4121 32.8887C46.7702 33.3965 46.9492 33.9759 46.9492 34.627H44.1367C44.1367 34.3535 44.0781 34.1094 43.9609 33.8945C43.8503 33.6732 43.6745 33.5007 43.4336 33.377C43.1992 33.2467 42.8932 33.1816 42.5156 33.1816C42.2031 33.1816 41.9329 33.237 41.7051 33.3477C41.4772 33.4518 41.3014 33.5951 41.1777 33.7773C41.0605 33.9531 41.002 34.1484 41.002 34.3633C41.002 34.526 41.0345 34.6725 41.0996 34.8027C41.1712 34.9264 41.2852 35.0404 41.4414 35.1445C41.5977 35.2487 41.7995 35.3464 42.0469 35.4375C42.3008 35.5221 42.6133 35.6003 42.9844 35.6719C43.7461 35.8281 44.4264 36.0332 45.0254 36.2871C45.6243 36.5345 46.0996 36.873 46.4512 37.3027C46.8027 37.7259 46.9785 38.2826 46.9785 38.9727C46.9785 39.4414 46.8743 39.8711 46.666 40.2617C46.4577 40.6523 46.1582 40.9941 45.7676 41.2871C45.377 41.5736 44.9082 41.7982 44.3613 41.9609C43.821 42.1172 43.2122 42.1953 42.5352 42.1953C41.5521 42.1953 40.7188 42.0195 40.0352 41.668C39.3581 41.3164 38.8438 40.8704 38.4922 40.3301C38.1471 39.7832 37.9746 39.2233 37.9746 38.6504H40.6406C40.6536 39.0345 40.7513 39.3438 40.9336 39.5781C41.1224 39.8125 41.36 39.9818 41.6465 40.0859C41.9395 40.1901 42.2552 40.2422 42.5938 40.2422C42.9583 40.2422 43.2611 40.1934 43.502 40.0957C43.7428 39.9915 43.9251 39.8548 44.0488 39.6855C44.179 39.5098 44.2441 39.3079 44.2441 39.0801ZM54.5176 39.0801C54.5176 38.8783 54.459 38.696 54.3418 38.5332C54.2246 38.3704 54.0065 38.2207 53.6875 38.084C53.375 37.9408 52.9225 37.8105 52.3301 37.6934C51.7962 37.5762 51.2982 37.4297 50.8359 37.2539C50.3802 37.0716 49.9831 36.8535 49.6445 36.5996C49.3125 36.3457 49.0521 36.0462 48.8633 35.7012C48.6745 35.3496 48.5801 34.9492 48.5801 34.5C48.5801 34.0573 48.6745 33.6406 48.8633 33.25C49.0586 32.8594 49.3353 32.5143 49.6934 32.2148C50.0579 31.9089 50.5007 31.6712 51.0215 31.502C51.5488 31.3262 52.1413 31.2383 52.7988 31.2383C53.7168 31.2383 54.5046 31.3848 55.1621 31.6777C55.8262 31.9707 56.334 32.3743 56.6855 32.8887C57.0436 33.3965 57.2227 33.9759 57.2227 34.627H54.4102C54.4102 34.3535 54.3516 34.1094 54.2344 33.8945C54.1237 33.6732 53.9479 33.5007 53.707 33.377C53.4727 33.2467 53.1667 33.1816 52.7891 33.1816C52.4766 33.1816 52.2064 33.237 51.9785 33.3477C51.7507 33.4518 51.5749 33.5951 51.4512 33.7773C51.334 33.9531 51.2754 34.1484 51.2754 34.3633C51.2754 34.526 51.3079 34.6725 51.373 34.8027C51.4447 34.9264 51.5586 35.0404 51.7148 35.1445C51.8711 35.2487 52.0729 35.3464 52.3203 35.4375C52.5742 35.5221 52.8867 35.6003 53.2578 35.6719C54.0195 35.8281 54.6999 36.0332 55.2988 36.2871C55.8978 36.5345 56.373 36.873 56.7246 37.3027C57.0762 37.7259 57.252 38.2826 57.252 38.9727C57.252 39.4414 57.1478 39.8711 56.9395 40.2617C56.7311 40.6523 56.4316 40.9941 56.041 41.2871C55.6504 41.5736 55.1816 41.7982 54.6348 41.9609C54.0944 42.1172 53.4857 42.1953 52.8086 42.1953C51.8255 42.1953 50.9922 42.0195 50.3086 41.668C49.6315 41.3164 49.1172 40.8704 48.7656 40.3301C48.4206 39.7832 48.248 39.2233 48.248 38.6504H50.9141C50.9271 39.0345 51.0247 39.3438 51.207 39.5781C51.3958 39.8125 51.6335 39.9818 51.9199 40.0859C52.2129 40.1901 52.5286 40.2422 52.8672 40.2422C53.2318 40.2422 53.5345 40.1934 53.7754 40.0957C54.0163 39.9915 54.1986 39.8548 54.3223 39.6855C54.4525 39.5098 54.5176 39.3079 54.5176 39.0801ZM63.9414 42.1953C63.1211 42.1953 62.3854 42.0651 61.7344 41.8047C61.0833 41.5378 60.5299 41.1699 60.0742 40.7012C59.625 40.2324 59.2799 39.6888 59.0391 39.0703C58.7982 38.4453 58.6777 37.7812 58.6777 37.0781V36.6875C58.6777 35.8867 58.7917 35.1543 59.0195 34.4902C59.2474 33.8262 59.5729 33.25 59.9961 32.7617C60.4258 32.2734 60.9466 31.8991 61.5586 31.6387C62.1706 31.3717 62.8607 31.2383 63.6289 31.2383C64.3776 31.2383 65.0417 31.362 65.6211 31.6094C66.2005 31.8568 66.6855 32.2083 67.0762 32.6641C67.4733 33.1198 67.7728 33.6667 67.9746 34.3047C68.1764 34.9362 68.2773 35.6393 68.2773 36.4141V37.5859H59.8789V35.7109H65.5137V35.4961C65.5137 35.1055 65.4421 34.7572 65.2988 34.4512C65.1621 34.1387 64.9538 33.8913 64.6738 33.709C64.3939 33.5267 64.0358 33.4355 63.5996 33.4355C63.2285 33.4355 62.9095 33.5169 62.6426 33.6797C62.3757 33.8424 62.1576 34.0703 61.9883 34.3633C61.8255 34.6562 61.7018 35.0013 61.6172 35.3984C61.5391 35.7891 61.5 36.2188 61.5 36.6875V37.0781C61.5 37.5013 61.5586 37.8919 61.6758 38.25C61.7995 38.6081 61.972 38.9173 62.1934 39.1777C62.4212 39.4382 62.6947 39.64 63.0137 39.7832C63.3392 39.9264 63.707 39.998 64.1172 39.998C64.625 39.998 65.097 39.9004 65.5332 39.7051C65.9759 39.5033 66.3568 39.2005 66.6758 38.7969L68.043 40.2812C67.8216 40.6003 67.5189 40.9062 67.1348 41.1992C66.7572 41.4922 66.3014 41.7331 65.7676 41.9219C65.2337 42.1042 64.625 42.1953 63.9414 42.1953ZM75.0547 31.4336V33.4258H68.9023V31.4336H75.0547ZM70.4258 28.8262H73.2383V38.8164C73.2383 39.1224 73.2773 39.3568 73.3555 39.5195C73.4401 39.6823 73.5638 39.7962 73.7266 39.8613C73.8893 39.9199 74.0944 39.9492 74.3418 39.9492C74.5176 39.9492 74.6738 39.9427 74.8105 39.9297C74.9538 39.9102 75.0742 39.8906 75.1719 39.8711L75.1816 41.9414C74.9408 42.0195 74.6803 42.0814 74.4004 42.127C74.1204 42.1725 73.8112 42.1953 73.4727 42.1953C72.8542 42.1953 72.3138 42.0944 71.8516 41.8926C71.3958 41.6842 71.0443 41.3522 70.7969 40.8965C70.5495 40.4408 70.4258 39.8418 70.4258 39.0996V28.8262ZM90.9531 39.7148V42H83.7949V39.7148H90.9531ZM84.7422 27.7812V42H81.8125V27.7812H84.7422ZM95.4258 31.4336V42H92.6035V31.4336H95.4258ZM92.4277 28.6797C92.4277 28.2695 92.571 27.931 92.8574 27.6641C93.1439 27.3971 93.528 27.2637 94.0098 27.2637C94.485 27.2637 94.8659 27.3971 95.1523 27.6641C95.4453 27.931 95.5918 28.2695 95.5918 28.6797C95.5918 29.0898 95.4453 29.4284 95.1523 29.6953C94.8659 29.9622 94.485 30.0957 94.0098 30.0957C93.528 30.0957 93.1439 29.9622 92.8574 29.6953C92.571 29.4284 92.4277 29.0898 92.4277 28.6797ZM101.334 42H98.502V30.4961C98.502 29.6953 98.6582 29.0215 98.9707 28.4746C99.2897 27.9212 99.7357 27.5046 100.309 27.2246C100.888 26.9382 101.575 26.7949 102.369 26.7949C102.63 26.7949 102.88 26.8145 103.121 26.8535C103.362 26.8861 103.596 26.9284 103.824 26.9805L103.795 29.0996C103.671 29.0671 103.541 29.0443 103.404 29.0312C103.268 29.0182 103.108 29.0117 102.926 29.0117C102.587 29.0117 102.298 29.0703 102.057 29.1875C101.822 29.2982 101.643 29.4642 101.52 29.6855C101.396 29.9069 101.334 30.1771 101.334 30.4961V42ZM103.443 31.4336V33.4258H96.9297V31.4336H103.443ZM109.547 42.1953C108.727 42.1953 107.991 42.0651 107.34 41.8047C106.689 41.5378 106.135 41.1699 105.68 40.7012C105.23 40.2324 104.885 39.6888 104.645 39.0703C104.404 38.4453 104.283 37.7812 104.283 37.0781V36.6875C104.283 35.8867 104.397 35.1543 104.625 34.4902C104.853 33.8262 105.178 33.25 105.602 32.7617C106.031 32.2734 106.552 31.8991 107.164 31.6387C107.776 31.3717 108.466 31.2383 109.234 31.2383C109.983 31.2383 110.647 31.362 111.227 31.6094C111.806 31.8568 112.291 32.2083 112.682 32.6641C113.079 33.1198 113.378 33.6667 113.58 34.3047C113.782 34.9362 113.883 35.6393 113.883 36.4141V37.5859H105.484V35.7109H111.119V35.4961C111.119 35.1055 111.048 34.7572 110.904 34.4512C110.768 34.1387 110.559 33.8913 110.279 33.709C109.999 33.5267 109.641 33.4355 109.205 33.4355C108.834 33.4355 108.515 33.5169 108.248 33.6797C107.981 33.8424 107.763 34.0703 107.594 34.3633C107.431 34.6562 107.307 35.0013 107.223 35.3984C107.145 35.7891 107.105 36.2188 107.105 36.6875V37.0781C107.105 37.5013 107.164 37.8919 107.281 38.25C107.405 38.6081 107.577 38.9173 107.799 39.1777C108.027 39.4382 108.3 39.64 108.619 39.7832C108.945 39.9264 109.312 39.998 109.723 39.998C110.23 39.998 110.702 39.9004 111.139 39.7051C111.581 39.5033 111.962 39.2005 112.281 38.7969L113.648 40.2812C113.427 40.6003 113.124 40.9062 112.74 41.1992C112.363 41.4922 111.907 41.7331 111.373 41.9219C110.839 42.1042 110.23 42.1953 109.547 42.1953ZM119.85 39.998C120.195 39.998 120.501 39.9329 120.768 39.8027C121.035 39.666 121.243 39.4772 121.393 39.2363C121.549 38.9889 121.63 38.6992 121.637 38.3672H124.283C124.277 39.1094 124.078 39.7702 123.688 40.3496C123.297 40.9225 122.773 41.375 122.115 41.707C121.458 42.0326 120.722 42.1953 119.908 42.1953C119.088 42.1953 118.372 42.0586 117.76 41.7852C117.154 41.5117 116.65 41.1341 116.246 40.6523C115.842 40.1641 115.54 39.5977 115.338 38.9531C115.136 38.3021 115.035 37.6055 115.035 36.8633V36.5801C115.035 35.8314 115.136 35.1348 115.338 34.4902C115.54 33.8392 115.842 33.2728 116.246 32.791C116.65 32.3027 117.154 31.9219 117.76 31.6484C118.365 31.375 119.075 31.2383 119.889 31.2383C120.755 31.2383 121.513 31.4043 122.164 31.7363C122.822 32.0684 123.336 32.5436 123.707 33.1621C124.085 33.7741 124.277 34.5 124.283 35.3398H121.637C121.63 34.9883 121.555 34.6693 121.412 34.3828C121.275 34.0964 121.074 33.8685 120.807 33.6992C120.546 33.5234 120.224 33.4355 119.84 33.4355C119.43 33.4355 119.094 33.5234 118.834 33.6992C118.574 33.8685 118.372 34.1029 118.229 34.4023C118.085 34.6953 117.984 35.0306 117.926 35.4082C117.874 35.7793 117.848 36.1699 117.848 36.5801V36.8633C117.848 37.2734 117.874 37.6673 117.926 38.0449C117.978 38.4225 118.076 38.7578 118.219 39.0508C118.368 39.3438 118.574 39.5749 118.834 39.7441C119.094 39.9134 119.433 39.998 119.85 39.998ZM129.049 40.8086L131.852 31.4336H134.869L130.621 43.5918C130.53 43.8587 130.406 44.1452 130.25 44.4512C130.1 44.7572 129.895 45.0469 129.635 45.3203C129.381 45.6003 129.059 45.8281 128.668 46.0039C128.284 46.1797 127.812 46.2676 127.252 46.2676C126.985 46.2676 126.767 46.2513 126.598 46.2188C126.428 46.1862 126.227 46.1406 125.992 46.082V44.0215C126.064 44.0215 126.139 44.0215 126.217 44.0215C126.295 44.028 126.37 44.0312 126.441 44.0312C126.812 44.0312 127.115 43.9889 127.35 43.9043C127.584 43.8197 127.773 43.6895 127.916 43.5137C128.059 43.3444 128.173 43.123 128.258 42.8496L129.049 40.8086ZM127.877 31.4336L130.172 39.0898L130.572 42.0684L128.658 42.2734L124.859 31.4336H127.877ZM140.221 39.998C140.566 39.998 140.872 39.9329 141.139 39.8027C141.406 39.666 141.614 39.4772 141.764 39.2363C141.92 38.9889 142.001 38.6992 142.008 38.3672H144.654C144.648 39.1094 144.449 39.7702 144.059 40.3496C143.668 40.9225 143.144 41.375 142.486 41.707C141.829 42.0326 141.093 42.1953 140.279 42.1953C139.459 42.1953 138.743 42.0586 138.131 41.7852C137.525 41.5117 137.021 41.1341 136.617 40.6523C136.214 40.1641 135.911 39.5977 135.709 38.9531C135.507 38.3021 135.406 37.6055 135.406 36.8633V36.5801C135.406 35.8314 135.507 35.1348 135.709 34.4902C135.911 33.8392 136.214 33.2728 136.617 32.791C137.021 32.3027 137.525 31.9219 138.131 31.6484C138.736 31.375 139.446 31.2383 140.26 31.2383C141.126 31.2383 141.884 31.4043 142.535 31.7363C143.193 32.0684 143.707 32.5436 144.078 33.1621C144.456 33.7741 144.648 34.5 144.654 35.3398H142.008C142.001 34.9883 141.926 34.6693 141.783 34.3828C141.646 34.0964 141.445 33.8685 141.178 33.6992C140.917 33.5234 140.595 33.4355 140.211 33.4355C139.801 33.4355 139.465 33.5234 139.205 33.6992C138.945 33.8685 138.743 34.1029 138.6 34.4023C138.456 34.6953 138.355 35.0306 138.297 35.4082C138.245 35.7793 138.219 36.1699 138.219 36.5801V36.8633C138.219 37.2734 138.245 37.6673 138.297 38.0449C138.349 38.4225 138.447 38.7578 138.59 39.0508C138.74 39.3438 138.945 39.5749 139.205 39.7441C139.465 39.9134 139.804 39.998 140.221 39.998ZM149.254 27V42H146.432V27H149.254ZM156.441 42.1953C155.621 42.1953 154.885 42.0651 154.234 41.8047C153.583 41.5378 153.03 41.1699 152.574 40.7012C152.125 40.2324 151.78 39.6888 151.539 39.0703C151.298 38.4453 151.178 37.7812 151.178 37.0781V36.6875C151.178 35.8867 151.292 35.1543 151.52 34.4902C151.747 33.8262 152.073 33.25 152.496 32.7617C152.926 32.2734 153.447 31.8991 154.059 31.6387C154.671 31.3717 155.361 31.2383 156.129 31.2383C156.878 31.2383 157.542 31.362 158.121 31.6094C158.701 31.8568 159.186 32.2083 159.576 32.6641C159.973 33.1198 160.273 33.6667 160.475 34.3047C160.676 34.9362 160.777 35.6393 160.777 36.4141V37.5859H152.379V35.7109H158.014V35.4961C158.014 35.1055 157.942 34.7572 157.799 34.4512C157.662 34.1387 157.454 33.8913 157.174 33.709C156.894 33.5267 156.536 33.4355 156.1 33.4355C155.729 33.4355 155.41 33.5169 155.143 33.6797C154.876 33.8424 154.658 34.0703 154.488 34.3633C154.326 34.6562 154.202 35.0013 154.117 35.3984C154.039 35.7891 154 36.2188 154 36.6875V37.0781C154 37.5013 154.059 37.8919 154.176 38.25C154.299 38.6081 154.472 38.9173 154.693 39.1777C154.921 39.4382 155.195 39.64 155.514 39.7832C155.839 39.9264 156.207 39.998 156.617 39.998C157.125 39.998 157.597 39.9004 158.033 39.7051C158.476 39.5033 158.857 39.2005 159.176 38.7969L160.543 40.2812C160.322 40.6003 160.019 40.9062 159.635 41.1992C159.257 41.4922 158.801 41.7331 158.268 41.9219C157.734 42.1042 157.125 42.1953 156.441 42.1953Z" fill="#333333"/>
<path fill-rule="evenodd" clip-rule="evenodd" d="M260.667 173.091H300C309.941 173.091 318 181.15 318 191.091C318 201.032 309.941 209.091 300 209.091H208C198.059 209.091 190 201.032 190 191.091C190 181.15 198.059 173.091 208 173.091H248L252.212 168.879C253.384 167.707 255.283 167.707 256.455 168.879L260.667 173.091Z" fill="#231F20"/>
<path d="M215.792 197.091L213.168 192.051C214.448 191.699 215.44 190.659 215.44 189.027C215.44 187.091 214.064 185.699 211.904 185.699H207.488V197.091H209.216V192.291H211.376L213.776 197.091H215.792ZM213.712 189.043C213.712 190.163 212.928 190.819 211.776 190.819H209.216V187.251H211.776C212.928 187.251 213.712 187.923 213.712 189.043ZM224.244 193.507V192.787C224.244 190.483 222.98 188.883 220.804 188.883C218.724 188.883 217.364 190.403 217.364 193.027C217.364 196.115 218.98 197.187 221.012 197.187C222.436 197.187 223.22 196.755 224.052 195.923L223.012 194.947C222.436 195.523 221.956 195.779 221.044 195.779C219.716 195.779 218.98 194.899 218.98 193.507H224.244ZM222.628 192.371H218.98C218.996 191.875 219.028 191.635 219.188 191.267C219.444 190.659 220.036 190.243 220.804 190.243C221.572 190.243 222.148 190.659 222.404 191.267C222.564 191.635 222.612 191.875 222.628 192.371ZM232.981 197.091V191.907C232.981 190.995 232.789 190.227 232.165 189.619C231.685 189.155 230.997 188.883 230.165 188.883C229.349 188.883 228.565 189.187 228.005 189.795V188.979H226.405V197.091H228.037V192.147C228.037 190.899 228.805 190.339 229.717 190.339C230.629 190.339 231.349 190.883 231.349 192.147V197.091H232.981ZM241.963 193.507V192.787C241.963 190.483 240.699 188.883 238.523 188.883C236.443 188.883 235.083 190.403 235.083 193.027C235.083 196.115 236.699 197.187 238.731 197.187C240.155 197.187 240.939 196.755 241.771 195.923L240.731 194.947C240.155 195.523 239.675 195.779 238.763 195.779C237.435 195.779 236.699 194.899 236.699 193.507H241.963ZM240.347 192.371H236.699C236.715 191.875 236.747 191.635 236.907 191.267C237.163 190.659 237.755 190.243 238.523 190.243C239.291 190.243 239.867 190.659 240.123 191.267C240.283 191.635 240.331 191.875 240.347 192.371ZM254.463 188.979H252.719L251.151 194.691L249.279 188.979H248.015L246.127 194.691L244.559 188.979H242.831L245.343 197.091H246.751L248.639 191.427L250.543 197.091H251.935L254.463 188.979ZM261.858 197.091V191.667C261.858 189.827 260.738 188.883 258.514 188.883C257.17 188.883 256.37 189.155 255.602 190.051L256.674 191.059C257.122 190.483 257.554 190.275 258.45 190.275C259.714 190.275 260.226 190.771 260.226 191.795V192.371H258.082C256.226 192.371 255.282 193.347 255.282 194.707C255.282 195.395 255.506 196.019 255.922 196.451C256.418 196.947 257.09 197.187 258.098 197.187C259.106 197.187 259.666 196.947 260.258 196.355V197.091H261.858ZM260.226 194.163C260.226 194.739 260.114 195.123 259.874 195.363C259.442 195.779 258.978 195.827 258.354 195.827C257.33 195.827 256.866 195.411 256.866 194.675C256.866 193.939 257.362 193.507 258.322 193.507H260.226V194.163ZM267.558 197.091V195.699H266.838C266.182 195.699 265.958 195.379 265.958 194.755V185.699H264.326V194.851C264.326 196.051 264.998 197.091 266.55 197.091H267.558ZM279.059 196.035L277.939 194.963C277.427 195.523 277.027 195.731 276.387 195.731C275.763 195.731 275.235 195.475 274.883 195.011C274.531 194.563 274.403 193.971 274.403 193.027C274.403 192.083 274.531 191.507 274.883 191.059C275.235 190.595 275.763 190.339 276.387 190.339C277.027 190.339 277.427 190.547 277.939 191.107L279.059 190.019C278.291 189.203 277.507 188.883 276.387 188.883C274.563 188.883 272.771 189.987 272.771 193.027C272.771 196.067 274.563 197.187 276.387 197.187C277.507 197.187 278.291 196.851 279.059 196.035ZM287.055 193.027C287.055 191.667 286.863 190.643 286.095 189.843C285.567 189.299 284.767 188.883 283.663 188.883C282.559 188.883 281.775 189.299 281.247 189.843C280.479 190.643 280.287 191.667 280.287 193.027C280.287 194.403 280.479 195.427 281.247 196.227C281.775 196.771 282.559 197.187 283.663 197.187C284.767 197.187 285.567 196.771 286.095 196.227C286.863 195.427 287.055 194.403 287.055 193.027ZM285.423 193.027C285.423 193.907 285.359 194.755 284.863 195.251C284.559 195.555 284.143 195.731 283.663 195.731C283.183 195.731 282.783 195.555 282.479 195.251C281.983 194.755 281.919 193.907 281.919 193.027C281.919 192.147 281.983 191.299 282.479 190.803C282.783 190.499 283.183 190.339 283.663 190.339C284.143 190.339 284.559 190.499 284.863 190.803C285.359 191.299 285.423 192.147 285.423 193.027ZM295.265 194.611C295.265 193.171 294.369 192.451 292.849 192.323L291.569 192.211C290.705 192.131 290.449 191.763 290.449 191.283C290.449 190.675 290.945 190.243 291.921 190.243C292.689 190.243 293.409 190.403 293.921 190.835L294.945 189.795C294.193 189.139 293.153 188.883 291.937 188.883C290.241 188.883 288.881 189.779 288.881 191.363C288.881 192.787 289.761 193.475 291.281 193.603L292.577 193.715C293.361 193.779 293.665 194.131 293.665 194.675C293.665 195.443 292.881 195.795 291.889 195.795C291.089 195.795 290.209 195.619 289.553 194.947L288.481 196.019C289.441 196.963 290.561 197.187 291.889 197.187C293.825 197.187 295.265 196.307 295.265 194.611ZM300.485 197.091V195.699H299.813C299.205 195.699 298.917 195.347 298.917 194.755V190.371H300.485V189.123H298.917V186.659H297.285V189.123H296.357V190.371H297.285V194.835C297.285 196.003 297.989 197.091 299.509 197.091H300.485Z" fill="white"/>
<rect x="24" y="86" width="458" height="9" rx="4.5" fill="#E0E0E0"/>
<rect x="24" y="86" width="123" height="9" rx="4.5" fill="#5D5FEF"/>
<g filter="url(#filter0_d_2465_54582)">
<circle cx="144.5" cy="90.5" r="11.5" fill="#F178B6"/>
</g>
<g filter="url(#filter1_d_2465_54582)">
<circle cx="253.5" cy="90.5" r="11.5" fill="#F178B6"/>
</g>
<g filter="url(#filter2_d_2465_54582)">
<circle cx="362.5" cy="90.5" r="11.5" fill="#F178B6"/>
</g>
<g filter="url(#filter3_d_2465_54582)">
<circle cx="471.5" cy="90.5" r="11.5" fill="#F178B6"/>
</g>
<g filter="url(#filter4_d_2465_54582)">
<circle cx="35.5" cy="90.5" r="11.5" fill="#F178B6"/>
</g>
<rect x="24" y="117" width="73" height="17" rx="8.5" fill="#E0E0E0"/>
<rect x="133" y="117" width="73" height="17" rx="8.5" fill="#E0E0E0"/>
<rect x="242" y="117" width="73" height="17" rx="8.5" fill="#E0E0E0"/>
<rect x="351" y="117" width="73" height="17" rx="8.5" fill="#E0E0E0"/>
<rect x="24" y="138" width="33" height="17" rx="8.5" fill="#E0E0E0"/>
<rect x="133" y="138" width="33" height="17" rx="8.5" fill="#E0E0E0"/>
<rect x="242" y="138" width="33" height="17" rx="8.5" fill="#E0E0E0"/>
<rect x="351" y="138" width="33" height="17" rx="8.5" fill="#E0E0E0"/>
<g clip-path="url(#clip0_2465_54582)">
<rect x="460" y="117" width="73" height="17" rx="8.5" fill="#E0E0E0"/>
<rect x="460" y="138" width="33" height="17" rx="8.5" fill="#E0E0E0"/>
</g>
<rect x="24" y="244" width="90" height="32" rx="16" fill="#27AE60"/>
<rect x="121" y="244" width="90" height="32" rx="16" fill="#CCFFE1"/>
<rect x="42" y="255" width="55" height="9" rx="4.5" fill="white"/>
<rect x="139" y="255" width="55" height="9" rx="4.5" fill="#27AE60"/>
<defs>
<filter id="filter0_d_2465_54582" x="119" y="69" width="51" height="51" filterUnits="userSpaceOnUse" color-interpolation-filters="sRGB">
<feFlood flood-opacity="0" result="BackgroundImageFix"/>
<feColorMatrix in="SourceAlpha" type="matrix" values="0 0 0 0 0 0 0 0 0 0 0 0 0 0 0 0 0 0 127 0" result="hardAlpha"/>
<feOffset dy="4"/>
<feGaussianBlur stdDeviation="7"/>
<feComposite in2="hardAlpha" operator="out"/>
<feColorMatrix type="matrix" values="0 0 0 0 0 0 0 0 0 0 0 0 0 0 0 0 0 0 0.17 0"/>
<feBlend mode="normal" in2="BackgroundImageFix" result="effect1_dropShadow_2465_54582"/>
<feBlend mode="normal" in="SourceGraphic" in2="effect1_dropShadow_2465_54582" result="shape"/>
</filter>
<filter id="filter1_d_2465_54582" x="228" y="69" width="51" height="51" filterUnits="userSpaceOnUse" color-interpolation-filters="sRGB">
<feFlood flood-opacity="0" result="BackgroundImageFix"/>
<feColorMatrix in="SourceAlpha" type="matrix" values="0 0 0 0 0 0 0 0 0 0 0 0 0 0 0 0 0 0 127 0" result="hardAlpha"/>
<feOffset dy="4"/>
<feGaussianBlur stdDeviation="7"/>
<feComposite in2="hardAlpha" operator="out"/>
<feColorMatrix type="matrix" values="0 0 0 0 0 0 0 0 0 0 0 0 0 0 0 0 0 0 0.17 0"/>
<feBlend mode="normal" in2="BackgroundImageFix" result="effect1_dropShadow_2465_54582"/>
<feBlend mode="normal" in="SourceGraphic" in2="effect1_dropShadow_2465_54582" result="shape"/>
</filter>
<filter id="filter2_d_2465_54582" x="337" y="69" width="51" height="51" filterUnits="userSpaceOnUse" color-interpolation-filters="sRGB">
<feFlood flood-opacity="0" result="BackgroundImageFix"/>
<feColorMatrix in="SourceAlpha" type="matrix" values="0 0 0 0 0 0 0 0 0 0 0 0 0 0 0 0 0 0 127 0" result="hardAlpha"/>
<feOffset dy="4"/>
<feGaussianBlur stdDeviation="7"/>
<feComposite in2="hardAlpha" operator="out"/>
<feColorMatrix type="matrix" values="0 0 0 0 0 0 0 0 0 0 0 0 0 0 0 0 0 0 0.17 0"/>
<feBlend mode="normal" in2="BackgroundImageFix" result="effect1_dropShadow_2465_54582"/>
<feBlend mode="normal" in="SourceGraphic" in2="effect1_dropShadow_2465_54582" result="shape"/>
</filter>
<filter id="filter3_d_2465_54582" x="446" y="69" width="51" height="51" filterUnits="userSpaceOnUse" color-interpolation-filters="sRGB">
<feFlood flood-opacity="0" result="BackgroundImageFix"/>
<feColorMatrix in="SourceAlpha" type="matrix" values="0 0 0 0 0 0 0 0 0 0 0 0 0 0 0 0 0 0 127 0" result="hardAlpha"/>
<feOffset dy="4"/>
<feGaussianBlur stdDeviation="7"/>
<feComposite in2="hardAlpha" operator="out"/>
<feColorMatrix type="matrix" values="0 0 0 0 0 0 0 0 0 0 0 0 0 0 0 0 0 0 0.17 0"/>
<feBlend mode="normal" in2="BackgroundImageFix" result="effect1_dropShadow_2465_54582"/>
<feBlend mode="normal" in="SourceGraphic" in2="effect1_dropShadow_2465_54582" result="shape"/>
</filter>
<filter id="filter4_d_2465_54582" x="10" y="69" width="51" height="51" filterUnits="userSpaceOnUse" color-interpolation-filters="sRGB">
<feFlood flood-opacity="0" result="BackgroundImageFix"/>
<feColorMatrix in="SourceAlpha" type="matrix" values="0 0 0 0 0 0 0 0 0 0 0 0 0 0 0 0 0 0 127 0" result="hardAlpha"/>
<feOffset dy="4"/>
<feGaussianBlur stdDeviation="7"/>
<feComposite in2="hardAlpha" operator="out"/>
<feColorMatrix type="matrix" values="0 0 0 0 0 0 0 0 0 0 0 0 0 0 0 0 0 0 0.17 0"/>
<feBlend mode="normal" in2="BackgroundImageFix" result="effect1_dropShadow_2465_54582"/>
<feBlend mode="normal" in="SourceGraphic" in2="effect1_dropShadow_2465_54582" result="shape"/>
</filter>
<clipPath id="clip0_2465_54582">
<rect width="46" height="38" fill="white" transform="translate(460 117)"/>
</clipPath>
</defs>
</svg>
