<?xml version="1.0" encoding="utf-8"?>
<!-- Generator: Adobe Illustrator 25.2.1, SVG Export Plug-In . SVG Version: 6.00 Build 0)  -->
<svg version="1.1" id="Layer_1" xmlns="http://www.w3.org/2000/svg" xmlns:xlink="http://www.w3.org/1999/xlink" x="0px" y="0px"
	 width="204px" height="201px" viewBox="0 0 204 201" style="enable-background:new 0 0 204 201;" xml:space="preserve">
<style type="text/css">
	.st0{fill:#FFFFFF;}
	.st1{fill:#828282;}
	.st2{fill:#0D51D9;}
	.st3{fill-rule:evenodd;clip-rule:evenodd;fill:#231F20;}
	.st4{fill-rule:evenodd;clip-rule:evenodd;fill:#FFFFFF;filter:url(#Adobe_OpacityMaskFilter);}
	.st5{mask:url(#mask0_2498_47951_1_);}
	.st6{fill:#EB5757;}
	.st7{fill:none;stroke:#FFFFFF;stroke-width:2;stroke-linecap:round;stroke-linejoin:round;}
</style>
<g>
	<path class="st0" d="M0,26C0,11.6,11.6,0,26,0h178v201H0V26z"/>
</g>
<path class="st1" d="M29,174h-1.3v-8.4l-2.5,0.9v-1.1l3.6-1.4H29V174z M38,170.7h1.4v1H38v2.3h-1.3v-2.3h-4.5v-0.7l4.5-6.9H38V170.7
	z M33.7,170.7h3.1v-4.9l-0.2,0.3L33.7,170.7z M44.4,174v-10h2.8c0.9,0,1.6,0.2,2.3,0.6s1.2,0.9,1.5,1.6c0.4,0.7,0.5,1.5,0.6,2.4v0.6
	c0,0.9-0.2,1.8-0.5,2.5c-0.4,0.7-0.9,1.2-1.6,1.6c-0.7,0.4-1.5,0.6-2.3,0.6H44.4z M45.7,165.1v7.8H47c1,0,1.8-0.3,2.4-0.9
	c0.6-0.6,0.8-1.5,0.8-2.7v-0.6c0-1.1-0.3-2-0.8-2.6c-0.5-0.6-1.3-0.9-2.3-1H45.7z M56.4,174.1c-1,0-1.8-0.3-2.4-1
	c-0.6-0.7-0.9-1.5-0.9-2.6v-0.2c0-0.7,0.1-1.4,0.4-2c0.3-0.6,0.7-1,1.2-1.4c0.5-0.3,1.1-0.5,1.6-0.5c1,0,1.7,0.3,2.2,1
	c0.5,0.6,0.8,1.5,0.8,2.7v0.5h-5c0,0.7,0.2,1.3,0.6,1.8c0.4,0.4,0.9,0.7,1.6,0.7c0.4,0,0.8-0.1,1.1-0.3c0.3-0.2,0.6-0.4,0.8-0.7
	l0.8,0.6C58.6,173.7,57.6,174.1,56.4,174.1z M56.3,167.5c-0.5,0-0.9,0.2-1.3,0.6c-0.3,0.4-0.6,0.9-0.6,1.6H58v-0.1
	c0-0.6-0.2-1.1-0.5-1.5C57.2,167.7,56.8,167.5,56.3,167.5z M63.7,173.1c0.5,0,0.8-0.1,1.2-0.4c0.3-0.3,0.5-0.6,0.6-1h1.2
	c0,0.4-0.2,0.8-0.4,1.2c-0.3,0.4-0.6,0.7-1.1,0.9c-0.4,0.2-0.9,0.3-1.4,0.3c-1,0-1.8-0.3-2.4-1c-0.6-0.7-0.9-1.6-0.9-2.8v-0.2
	c0-0.7,0.1-1.4,0.4-1.9c0.3-0.6,0.6-1,1.1-1.3c0.5-0.3,1.1-0.5,1.8-0.5c0.8,0,1.5,0.2,2.1,0.7c0.6,0.5,0.8,1.1,0.9,1.9h-1.2
	c0-0.5-0.2-0.9-0.5-1.2c-0.3-0.3-0.7-0.5-1.2-0.5c-0.6,0-1.1,0.2-1.5,0.7c-0.4,0.5-0.5,1.1-0.5,2v0.2c0,0.9,0.2,1.5,0.5,2
	C62.6,172.9,63.1,173.1,63.7,173.1z M78,174h-6.5v-0.9l3.4-3.8c0.5-0.6,0.9-1,1.1-1.4c0.2-0.4,0.3-0.7,0.3-1.1
	c0-0.5-0.2-0.9-0.5-1.3c-0.3-0.3-0.7-0.5-1.3-0.5c-0.6,0-1.1,0.2-1.5,0.5c-0.3,0.4-0.5,0.9-0.5,1.5h-1.3c0-0.9,0.3-1.7,0.9-2.2
	c0.6-0.6,1.4-0.8,2.4-0.8c0.9,0,1.7,0.2,2.2,0.7c0.5,0.5,0.8,1.1,0.8,1.9c0,1-0.6,2.1-1.9,3.5L73,173h5V174z M85.5,169.8
	c0,1.5-0.3,2.6-0.8,3.3c-0.5,0.7-1.3,1.1-2.4,1.1c-1.1,0-1.8-0.4-2.4-1.1c-0.5-0.7-0.8-1.8-0.8-3.2v-1.7c0-1.5,0.3-2.5,0.8-3.3
	c0.5-0.7,1.3-1.1,2.4-1.1c1.1,0,1.9,0.3,2.4,1c0.5,0.7,0.8,1.7,0.8,3.2V169.8z M84.3,168c0-1.1-0.2-1.8-0.5-2.3
	c-0.3-0.5-0.8-0.7-1.4-0.7c-0.6,0-1.1,0.2-1.4,0.7c-0.3,0.5-0.4,1.2-0.5,2.2v2c0,1.1,0.2,1.9,0.5,2.4c0.3,0.5,0.8,0.8,1.4,0.8
	c0.6,0,1.1-0.2,1.4-0.7c0.3-0.5,0.5-1.2,0.5-2.3V168z M93.7,174h-6.5v-0.9l3.4-3.8c0.5-0.6,0.9-1,1.1-1.4c0.2-0.4,0.3-0.7,0.3-1.1
	c0-0.5-0.2-0.9-0.5-1.3c-0.3-0.3-0.7-0.5-1.3-0.5c-0.6,0-1.1,0.2-1.5,0.5c-0.3,0.4-0.5,0.9-0.5,1.5H87c0-0.9,0.3-1.7,0.9-2.2
	c0.6-0.6,1.4-0.8,2.4-0.8c0.9,0,1.7,0.2,2.2,0.7c0.5,0.5,0.8,1.1,0.8,1.9c0,1-0.6,2.1-1.9,3.5l-2.7,2.9h5V174z M99.2,174h-1.3v-8.4
	l-2.5,0.9v-1.1L99,164h0.2V174z M103,176l-0.7-0.5c0.4-0.6,0.7-1.2,0.7-1.8v-1.1h1.2v1c0,0.5-0.1,0.9-0.3,1.4
	C103.6,175.3,103.3,175.7,103,176z M113.3,174H112v-8.4l-2.5,0.9v-1.1l3.6-1.4h0.2V174z M123.2,169.8c0,1.5-0.3,2.6-0.8,3.3
	c-0.5,0.7-1.3,1.1-2.4,1.1c-1.1,0-1.8-0.4-2.4-1.1c-0.5-0.7-0.8-1.8-0.8-3.2v-1.7c0-1.5,0.3-2.5,0.8-3.3c0.5-0.7,1.3-1.1,2.4-1.1
	c1.1,0,1.9,0.3,2.4,1c0.5,0.7,0.8,1.7,0.8,3.2V169.8z M121.9,168c0-1.1-0.2-1.8-0.5-2.3c-0.3-0.5-0.8-0.7-1.4-0.7
	c-0.6,0-1.1,0.2-1.4,0.7c-0.3,0.5-0.4,1.2-0.5,2.2v2c0,1.1,0.2,1.9,0.5,2.4c0.3,0.5,0.8,0.8,1.4,0.8c0.6,0,1.1-0.2,1.4-0.7
	c0.3-0.5,0.5-1.2,0.5-2.3V168z M124.9,173.3c0-0.2,0.1-0.4,0.2-0.5c0.1-0.1,0.3-0.2,0.6-0.2c0.3,0,0.5,0.1,0.6,0.2
	c0.1,0.1,0.2,0.3,0.2,0.5c0,0.2-0.1,0.4-0.2,0.5c-0.1,0.1-0.3,0.2-0.6,0.2c-0.3,0-0.5-0.1-0.6-0.2
	C125,173.7,124.9,173.5,124.9,173.3z M124.9,167.3c0-0.2,0.1-0.4,0.2-0.5c0.1-0.1,0.3-0.2,0.6-0.2s0.5,0.1,0.6,0.2
	c0.1,0.1,0.2,0.3,0.2,0.5c0,0.2-0.1,0.4-0.2,0.5c-0.1,0.1-0.3,0.2-0.6,0.2s-0.5-0.1-0.6-0.2C125,167.7,124.9,167.5,124.9,167.3z
	 M134.7,174h-6.5v-0.9l3.4-3.8c0.5-0.6,0.9-1,1.1-1.4c0.2-0.4,0.3-0.7,0.3-1.1c0-0.5-0.2-0.9-0.5-1.3c-0.3-0.3-0.7-0.5-1.3-0.5
	c-0.6,0-1.1,0.2-1.5,0.5c-0.3,0.4-0.5,0.9-0.5,1.5H128c0-0.9,0.3-1.7,0.9-2.2c0.6-0.6,1.4-0.8,2.4-0.8c0.9,0,1.7,0.2,2.2,0.7
	c0.5,0.5,0.8,1.1,0.8,1.9c0,1-0.6,2.1-1.9,3.5l-2.7,2.9h5V174z M141.4,170.7h1.4v1h-1.4v2.3h-1.3v-2.3h-4.5v-0.7l4.5-6.9h1.3V170.7z
	 M137,170.7h3.1v-4.9l-0.2,0.3L137,170.7z M153.2,171.4h-4.2l-0.9,2.6h-1.4l3.8-10h1.1l3.8,10h-1.3L153.2,171.4z M149.5,170.3h3.4
	l-1.7-4.7L149.5,170.3z M158.6,164l3.3,8.1l3.3-8.1h1.7v10h-1.3v-3.9l0.1-4.2l-3.3,8.1h-1l-3.3-8l0.1,4.2v3.9h-1.3v-10H158.6z"/>
<path d="M95.7,33.3c0,1-0.3,1.9-0.8,2.7c-0.5,0.8-1.2,1.4-2.1,1.8c1,0.4,1.9,1.1,2.5,2c0.6,0.9,0.9,1.8,0.9,2.9
	c0,1.7-0.6,3.1-1.8,4.1c-1.2,1-2.7,1.5-4.6,1.5c-1.9,0-3.4-0.5-4.6-1.5c-1.1-1-1.7-2.4-1.7-4.1c0-1.1,0.3-2,0.9-2.9
	c0.6-0.9,1.4-1.5,2.4-2c-0.9-0.4-1.6-1-2.1-1.8c-0.5-0.8-0.8-1.7-0.8-2.6c0-1.7,0.5-3,1.6-4c1.1-1,2.5-1.5,4.3-1.5
	c1.8,0,3.2,0.5,4.2,1.5C95.2,30.3,95.7,31.6,95.7,33.3z M93.7,42.6c0-1.1-0.4-2-1.1-2.7c-0.7-0.7-1.6-1.1-2.8-1.1
	c-1.1,0-2.1,0.3-2.7,1c-0.7,0.7-1,1.6-1,2.7c0,1.1,0.3,2,1,2.7c0.7,0.6,1.6,1,2.8,1c1.2,0,2.1-0.3,2.8-1
	C93.3,44.6,93.7,43.7,93.7,42.6z M89.9,29.9c-1,0-1.8,0.3-2.4,0.9c-0.6,0.6-0.9,1.4-0.9,2.5c0,1,0.3,1.8,0.9,2.5
	c0.6,0.6,1.4,0.9,2.4,0.9c1,0,1.8-0.3,2.4-0.9c0.6-0.6,0.9-1.4,0.9-2.5c0-1-0.3-1.8-0.9-2.5C91.6,30.2,90.8,29.9,89.9,29.9z
	 M109.3,28.1v2.1h-0.5c-2,0-3.5,0.6-4.7,1.8c-1.2,1.1-1.8,2.7-2,4.8c1-1.2,2.5-1.8,4.3-1.8c1.7,0,3.1,0.6,4.1,1.8
	c1,1.2,1.6,2.8,1.6,4.7c0,2.1-0.6,3.7-1.7,4.9c-1.1,1.2-2.6,1.8-4.5,1.8c-1.9,0-3.4-0.7-4.6-2.2c-1.2-1.5-1.8-3.4-1.8-5.7v-1
	c0-3.7,0.8-6.5,2.3-8.4c1.6-1.9,3.9-2.9,7-3H109.3z M106,37c-0.9,0-1.7,0.3-2.4,0.8c-0.7,0.5-1.2,1.2-1.5,2v0.9c0,1.6,0.4,3,1.1,4
	c0.7,1,1.7,1.5,2.8,1.5c1.1,0,2-0.4,2.7-1.3c0.7-0.8,1-1.9,1-3.3c0-1.4-0.3-2.5-1-3.3C107.9,37.5,107.1,37,106,37z M114.9,31.9
	c0-1.2,0.4-2.2,1.1-3c0.8-0.8,1.7-1.2,2.9-1.2c1.2,0,2.2,0.4,2.9,1.2c0.8,0.8,1.1,1.8,1.1,3v1c0,1.2-0.4,2.2-1.1,3
	c-0.8,0.8-1.7,1.1-2.9,1.1c-1.2,0-2.2-0.4-2.9-1.1c-0.8-0.8-1.2-1.8-1.2-3V31.9z M116.8,33c0,0.7,0.2,1.3,0.6,1.8
	c0.4,0.5,0.9,0.7,1.6,0.7c0.6,0,1.2-0.2,1.6-0.7c0.4-0.4,0.6-1.1,0.6-1.8v-1c0-0.7-0.2-1.3-0.6-1.8c-0.4-0.5-0.9-0.7-1.6-0.7
	c-0.7,0-1.2,0.2-1.6,0.7c-0.4,0.5-0.6,1.1-0.6,1.8V33z M124.6,43.1c0-1.2,0.4-2.2,1.1-2.9c0.8-0.8,1.7-1.2,2.9-1.2s2.2,0.4,2.9,1.1
	c0.8,0.8,1.1,1.8,1.1,3v1c0,1.2-0.4,2.2-1.1,3c-0.8,0.8-1.7,1.1-2.9,1.1s-2.2-0.4-2.9-1.1c-0.8-0.8-1.2-1.8-1.2-3V43.1z M126.5,44.2
	c0,0.7,0.2,1.3,0.6,1.8c0.4,0.5,0.9,0.7,1.6,0.7c0.7,0,1.2-0.2,1.6-0.7c0.4-0.5,0.6-1.1,0.6-1.8v-1c0-0.7-0.2-1.3-0.6-1.8
	c-0.4-0.5-0.9-0.7-1.6-0.7c-0.6,0-1.2,0.2-1.6,0.7c-0.4,0.4-0.6,1.1-0.6,1.8V44.2z M119.6,46.5l-1.4-0.9l9.7-15.6l1.4,0.9
	L119.6,46.5z M88.7,65.4h-4.2L83.5,68h-1.4L86,58h1.1l3.8,10h-1.3L88.7,65.4z M84.9,64.3h3.4l-1.7-4.7L84.9,64.3z M94.2,66.3
	l1.8-5.7h1.3L94.7,68h-1L91,60.6h1.3L94.2,66.3z M103,68c-0.1-0.1-0.1-0.4-0.2-0.8c-0.6,0.6-1.3,0.9-2.1,0.9c-0.7,0-1.3-0.2-1.8-0.6
	c-0.5-0.4-0.7-0.9-0.7-1.6c0-0.8,0.3-1.4,0.9-1.8c0.6-0.4,1.4-0.6,2.5-0.6h1.2v-0.6c0-0.4-0.1-0.8-0.4-1.1c-0.3-0.3-0.7-0.4-1.2-0.4
	c-0.5,0-0.8,0.1-1.1,0.3c-0.3,0.2-0.5,0.5-0.5,0.8h-1.3c0-0.4,0.1-0.7,0.4-1.1c0.3-0.3,0.6-0.6,1.1-0.8c0.5-0.2,0.9-0.3,1.5-0.3
	c0.9,0,1.5,0.2,2,0.6c0.5,0.4,0.7,1,0.8,1.8v3.4c0,0.7,0.1,1.2,0.3,1.6V68H103z M100.9,67c0.4,0,0.8-0.1,1.1-0.3
	c0.4-0.2,0.6-0.5,0.8-0.8v-1.5h-1c-1.6,0-2.3,0.5-2.3,1.4c0,0.4,0.1,0.7,0.4,0.9C100.1,66.9,100.5,67,100.9,67z M107.4,68h-1.3v-7.4
	h1.3V68z M106,58.6c0-0.2,0.1-0.4,0.2-0.5c0.1-0.1,0.3-0.2,0.6-0.2s0.4,0.1,0.6,0.2c0.1,0.1,0.2,0.3,0.2,0.5s-0.1,0.4-0.2,0.5
	c-0.1,0.1-0.3,0.2-0.6,0.2s-0.4-0.1-0.6-0.2C106.1,59,106,58.8,106,58.6z M110.8,68h-1.3V57.5h1.3V68z M117.4,68
	c-0.1-0.1-0.1-0.4-0.2-0.8c-0.6,0.6-1.3,0.9-2.1,0.9c-0.7,0-1.3-0.2-1.8-0.6c-0.5-0.4-0.7-0.9-0.7-1.6c0-0.8,0.3-1.4,0.9-1.8
	c0.6-0.4,1.4-0.6,2.5-0.6h1.2v-0.6c0-0.4-0.1-0.8-0.4-1.1c-0.3-0.3-0.7-0.4-1.2-0.4c-0.5,0-0.8,0.1-1.1,0.3
	c-0.3,0.2-0.5,0.5-0.5,0.8h-1.3c0-0.4,0.1-0.7,0.4-1.1c0.3-0.3,0.6-0.6,1.1-0.8c0.5-0.2,0.9-0.3,1.5-0.3c0.9,0,1.5,0.2,2,0.6
	c0.5,0.4,0.7,1,0.8,1.8v3.4c0,0.7,0.1,1.2,0.3,1.6V68H117.4z M115.3,67c0.4,0,0.8-0.1,1.1-0.3c0.4-0.2,0.6-0.5,0.8-0.8v-1.5h-1
	c-1.5,0-2.3,0.5-2.3,1.4c0,0.4,0.1,0.7,0.4,0.9C114.6,66.9,114.9,67,115.3,67z M126.7,64.4c0,1.1-0.3,2-0.8,2.7
	c-0.5,0.7-1.2,1-2.1,1c-0.9,0-1.7-0.3-2.2-1l-0.1,0.9h-1.2V57.5h1.3v3.9c0.5-0.6,1.2-0.9,2.1-0.9s1.6,0.3,2.1,1
	c0.5,0.7,0.8,1.6,0.8,2.8V64.4z M125.5,64.2c0-0.9-0.2-1.5-0.5-2c-0.3-0.5-0.8-0.7-1.4-0.7c-0.8,0-1.4,0.4-1.8,1.2v3.2
	c0.4,0.8,1,1.2,1.8,1.2c0.6,0,1.1-0.2,1.4-0.7C125.3,65.9,125.5,65.2,125.5,64.2z M129.7,68h-1.3v-7.4h1.3V68z M128.3,58.6
	c0-0.2,0.1-0.4,0.2-0.5c0.1-0.1,0.3-0.2,0.6-0.2c0.2,0,0.4,0.1,0.6,0.2c0.1,0.1,0.2,0.3,0.2,0.5s-0.1,0.4-0.2,0.5
	c-0.1,0.1-0.3,0.2-0.6,0.2c-0.2,0-0.4-0.1-0.6-0.2C128.4,59,128.3,58.8,128.3,58.6z M133.1,68h-1.3V57.5h1.3V68z M136.5,68h-1.3
	v-7.4h1.3V68z M135.1,58.6c0-0.2,0.1-0.4,0.2-0.5c0.1-0.1,0.3-0.2,0.6-0.2s0.4,0.1,0.6,0.2c0.1,0.1,0.2,0.3,0.2,0.5
	s-0.1,0.4-0.2,0.5c-0.1,0.1-0.3,0.2-0.6,0.2s-0.4-0.1-0.6-0.2C135.2,59,135.1,58.8,135.1,58.6z M140.2,58.8v1.8h1.4v1h-1.4v4.6
	c0,0.3,0.1,0.5,0.2,0.7c0.1,0.1,0.3,0.2,0.6,0.2c0.1,0,0.3,0,0.6-0.1v1c-0.3,0.1-0.7,0.1-1,0.1c-0.6,0-1-0.2-1.3-0.5
	c-0.3-0.3-0.4-0.8-0.4-1.5v-4.6h-1.3v-1h1.3v-1.8H140.2z M145.5,66.1l1.7-5.5h1.4l-3,8.5c-0.5,1.2-1.2,1.8-2.2,1.8l-0.2,0l-0.5-0.1
	v-1l0.3,0c0.4,0,0.8-0.1,1-0.3c0.2-0.2,0.4-0.5,0.6-1l0.3-0.8l-2.6-7.3h1.4L145.5,66.1z"/>
<path d="M96.1,104.5c0,3-0.5,5.2-1.5,6.6c-1,1.4-2.6,2.2-4.7,2.2c-2.1,0-3.7-0.7-4.7-2.1c-1-1.4-1.5-3.5-1.6-6.3v-3.4
	c0-2.9,0.5-5.1,1.5-6.5c1-1.4,2.6-2.1,4.8-2.1c2.1,0,3.7,0.7,4.7,2.1c1,1.4,1.5,3.5,1.6,6.3V104.5z M93.6,101.1
	c0-2.1-0.3-3.7-0.9-4.7c-0.6-1-1.6-1.5-2.9-1.5c-1.3,0-2.2,0.5-2.8,1.5c-0.6,1-0.9,2.5-0.9,4.5v4c0,2.2,0.3,3.7,0.9,4.8
	c0.6,1,1.6,1.5,2.8,1.5c1.2,0,2.2-0.5,2.8-1.4c0.6-1,0.9-2.5,1-4.6V101.1z M99.2,96.9c0-1.2,0.4-2.2,1.1-3c0.8-0.8,1.7-1.2,2.9-1.2
	c1.2,0,2.2,0.4,2.9,1.2c0.8,0.8,1.1,1.8,1.1,3v1c0,1.2-0.4,2.2-1.1,3c-0.8,0.8-1.7,1.1-2.9,1.1c-1.2,0-2.2-0.4-2.9-1.1
	c-0.8-0.8-1.2-1.8-1.2-3V96.9z M101,98c0,0.7,0.2,1.3,0.6,1.8c0.4,0.5,0.9,0.7,1.6,0.7c0.6,0,1.2-0.2,1.6-0.7
	c0.4-0.4,0.6-1.1,0.6-1.8v-1c0-0.7-0.2-1.3-0.6-1.8c-0.4-0.5-0.9-0.7-1.6-0.7c-0.7,0-1.2,0.2-1.6,0.7c-0.4,0.5-0.6,1.1-0.6,1.8V98z
	 M108.9,108.1c0-1.2,0.4-2.2,1.1-2.9c0.8-0.8,1.7-1.2,2.9-1.2s2.2,0.4,2.9,1.1c0.8,0.8,1.1,1.8,1.1,3v1c0,1.2-0.4,2.2-1.1,3
	c-0.8,0.8-1.7,1.1-2.9,1.1s-2.2-0.4-2.9-1.1c-0.8-0.8-1.2-1.8-1.2-3V108.1z M110.7,109.2c0,0.7,0.2,1.3,0.6,1.8
	c0.4,0.5,0.9,0.7,1.6,0.7c0.7,0,1.2-0.2,1.6-0.7c0.4-0.5,0.6-1.1,0.6-1.8v-1c0-0.7-0.2-1.3-0.6-1.8c-0.4-0.5-0.9-0.7-1.6-0.7
	c-0.6,0-1.2,0.2-1.6,0.7c-0.4,0.4-0.6,1.1-0.6,1.8V109.2z M103.8,111.5l-1.4-0.9l9.7-15.6l1.4,0.9L103.8,111.5z M84.5,129.1v3.9
	h-1.3v-10h3.7c1.1,0,1.9,0.3,2.6,0.8c0.6,0.6,0.9,1.3,0.9,2.2c0,1-0.3,1.7-0.9,2.2c-0.6,0.5-1.5,0.8-2.6,0.8H84.5z M84.5,128h2.4
	c0.7,0,1.2-0.2,1.6-0.5c0.4-0.3,0.6-0.8,0.6-1.4c0-0.6-0.2-1.1-0.6-1.4c-0.4-0.4-0.9-0.5-1.5-0.6h-2.4V128z M96.3,133
	c-0.1-0.1-0.1-0.4-0.2-0.8c-0.6,0.6-1.3,0.9-2.1,0.9c-0.7,0-1.3-0.2-1.8-0.6c-0.5-0.4-0.7-0.9-0.7-1.6c0-0.8,0.3-1.4,0.9-1.8
	c0.6-0.4,1.4-0.6,2.5-0.6h1.2v-0.6c0-0.4-0.1-0.8-0.4-1.1c-0.3-0.3-0.7-0.4-1.2-0.4c-0.5,0-0.8,0.1-1.1,0.3s-0.5,0.5-0.5,0.8h-1.3
	c0-0.4,0.1-0.7,0.4-1.1c0.3-0.3,0.6-0.6,1.1-0.8c0.5-0.2,0.9-0.3,1.5-0.3c0.9,0,1.5,0.2,2,0.6c0.5,0.4,0.7,1,0.8,1.8v3.4
	c0,0.7,0.1,1.2,0.3,1.6v0.1H96.3z M94.2,132c0.4,0,0.8-0.1,1.1-0.3c0.4-0.2,0.6-0.5,0.8-0.8v-1.5h-1c-1.5,0-2.3,0.5-2.3,1.4
	c0,0.4,0.1,0.7,0.4,0.9C93.4,131.9,93.8,132,94.2,132z M102.3,132.1c0.5,0,0.8-0.1,1.2-0.4c0.3-0.3,0.5-0.6,0.6-1h1.2
	c0,0.4-0.2,0.8-0.4,1.2s-0.6,0.7-1.1,0.9c-0.4,0.2-0.9,0.3-1.4,0.3c-1,0-1.8-0.3-2.4-1c-0.6-0.7-0.9-1.6-0.9-2.8v-0.2
	c0-0.7,0.1-1.4,0.4-1.9c0.3-0.6,0.6-1,1.1-1.3c0.5-0.3,1.1-0.5,1.8-0.5c0.8,0,1.5,0.2,2.1,0.7c0.6,0.5,0.8,1.1,0.9,1.9H104
	c0-0.5-0.2-0.9-0.5-1.2c-0.3-0.3-0.7-0.5-1.2-0.5c-0.6,0-1.1,0.2-1.5,0.7c-0.4,0.5-0.5,1.1-0.5,2v0.2c0,0.9,0.2,1.5,0.5,2
	C101.1,131.9,101.6,132.1,102.3,132.1z M108.7,129.6l-0.8,0.8v2.6h-1.3v-10.5h1.3v6.4l0.7-0.8l2.3-2.4h1.5l-2.9,3.1l3.2,4.3h-1.5
	L108.7,129.6z M116.7,133.1c-1,0-1.8-0.3-2.4-1c-0.6-0.7-0.9-1.5-0.9-2.6v-0.2c0-0.7,0.1-1.4,0.4-2c0.3-0.6,0.7-1,1.2-1.4
	c0.5-0.3,1.1-0.5,1.6-0.5c1,0,1.7,0.3,2.2,1c0.5,0.6,0.8,1.5,0.8,2.7v0.5h-5c0,0.7,0.2,1.3,0.6,1.8c0.4,0.4,0.9,0.7,1.6,0.7
	c0.4,0,0.8-0.1,1.1-0.3c0.3-0.2,0.6-0.4,0.8-0.7l0.8,0.6C118.8,132.7,117.9,133.1,116.7,133.1z M116.5,126.5c-0.5,0-0.9,0.2-1.3,0.6
	c-0.3,0.4-0.6,0.9-0.6,1.6h3.7v-0.1c0-0.6-0.2-1.1-0.5-1.5C117.5,126.7,117.1,126.5,116.5,126.5z M122.7,123.8v1.8h1.4v1h-1.4v4.6
	c0,0.3,0.1,0.5,0.2,0.7c0.1,0.1,0.3,0.2,0.6,0.2c0.1,0,0.3,0,0.6-0.1v1c-0.3,0.1-0.7,0.1-1,0.1c-0.6,0-1-0.2-1.3-0.5
	c-0.3-0.3-0.4-0.8-0.4-1.5v-4.6h-1.3v-1h1.3v-1.8H122.7z M130.6,131.9h4.7v1.1h-6v-10h1.3V131.9z M136.3,129.2c0-0.7,0.1-1.4,0.4-2
	c0.3-0.6,0.7-1,1.2-1.3c0.5-0.3,1.1-0.5,1.7-0.5c1,0,1.8,0.3,2.4,1c0.6,0.7,0.9,1.6,0.9,2.8v0.1c0,0.7-0.1,1.4-0.4,1.9
	c-0.3,0.6-0.7,1-1.2,1.3c-0.5,0.3-1.1,0.5-1.8,0.5c-1,0-1.8-0.3-2.4-1C136.6,131.4,136.3,130.5,136.3,129.2L136.3,129.2z
	 M137.6,129.4c0,0.8,0.2,1.5,0.6,2c0.4,0.5,0.9,0.7,1.5,0.7c0.6,0,1.2-0.2,1.5-0.8c0.4-0.5,0.6-1.2,0.6-2.1c0-0.8-0.2-1.5-0.6-2
	c-0.4-0.5-0.9-0.8-1.5-0.8c-0.6,0-1.1,0.2-1.5,0.7C137.7,127.7,137.6,128.5,137.6,129.4z M148.9,131c0-0.3-0.1-0.6-0.4-0.8
	c-0.3-0.2-0.7-0.4-1.3-0.5c-0.6-0.1-1.1-0.3-1.5-0.5c-0.4-0.2-0.7-0.4-0.8-0.7c-0.2-0.3-0.3-0.6-0.3-0.9c0-0.6,0.3-1.1,0.8-1.5
	c0.5-0.4,1.2-0.6,2-0.6c0.8,0,1.5,0.2,2,0.6c0.5,0.4,0.8,1,0.8,1.7h-1.3c0-0.3-0.1-0.6-0.4-0.9c-0.3-0.3-0.7-0.4-1.1-0.4
	c-0.5,0-0.8,0.1-1.1,0.3c-0.3,0.2-0.4,0.5-0.4,0.8c0,0.3,0.1,0.5,0.4,0.7c0.2,0.2,0.7,0.3,1.3,0.4c0.6,0.1,1.1,0.3,1.5,0.5
	c0.4,0.2,0.7,0.4,0.9,0.7c0.2,0.3,0.3,0.6,0.3,1c0,0.7-0.3,1.2-0.8,1.6c-0.5,0.4-1.2,0.6-2.1,0.6c-0.6,0-1.1-0.1-1.6-0.3
	c-0.5-0.2-0.8-0.5-1.1-0.9c-0.3-0.4-0.4-0.8-0.4-1.2h1.3c0,0.4,0.2,0.8,0.5,1c0.3,0.2,0.7,0.4,1.3,0.4c0.5,0,0.9-0.1,1.1-0.3
	C148.8,131.6,148.9,131.4,148.9,131z M156.1,131c0-0.3-0.1-0.6-0.4-0.8c-0.3-0.2-0.7-0.4-1.3-0.5c-0.6-0.1-1.1-0.3-1.5-0.5
	c-0.4-0.2-0.7-0.4-0.8-0.7c-0.2-0.3-0.3-0.6-0.3-0.9c0-0.6,0.3-1.1,0.8-1.5c0.5-0.4,1.2-0.6,2-0.6c0.8,0,1.5,0.2,2,0.6
	c0.5,0.4,0.8,1,0.8,1.7h-1.3c0-0.3-0.1-0.6-0.4-0.9c-0.3-0.3-0.7-0.4-1.1-0.4c-0.5,0-0.8,0.1-1.1,0.3c-0.3,0.2-0.4,0.5-0.4,0.8
	c0,0.3,0.1,0.5,0.4,0.7c0.2,0.2,0.7,0.3,1.3,0.4c0.6,0.1,1.1,0.3,1.5,0.5c0.4,0.2,0.7,0.4,0.9,0.7c0.2,0.3,0.3,0.6,0.3,1
	c0,0.7-0.3,1.2-0.8,1.6c-0.5,0.4-1.2,0.6-2.1,0.6c-0.6,0-1.1-0.1-1.6-0.3c-0.5-0.2-0.8-0.5-1.1-0.9c-0.3-0.4-0.4-0.8-0.4-1.2h1.3
	c0,0.4,0.2,0.8,0.5,1c0.3,0.2,0.7,0.4,1.3,0.4c0.5,0,0.9-0.1,1.1-0.3C156,131.6,156.1,131.4,156.1,131z"/>
<path class="st2" d="M47.5,24L47.5,24C60.5,24,71,34.5,71,47.5l0,0C71,60.5,60.5,71,47.5,71l0,0C34.5,71,24,60.5,24,47.5l0,0
	C24,34.5,34.5,24,47.5,24z"/>
<path class="st3" d="M46.5,39.9c2.2-2.2,5.7-2.6,8.1-0.7c2.9,2.3,3.1,6.5,0.6,9.1l-1.4,1.4c-0.4,0.4-1,0.4-1.4,0
	c-0.4-0.4-0.4-1,0-1.4l1.4-1.4c1.7-1.7,1.6-4.4-0.3-5.9c-1.6-1.4-4.1-1.1-5.6,0.4l-1.3,1.3c-0.4,0.4-1,0.4-1.4,0
	c-0.4-0.4-0.4-1,0.2-1.6L46.5,39.9z M48.3,45.3l-4,4c-0.4,0.4-0.4,1,0,1.4c0.2,0.2,0.5,0.3,0.7,0.3c0.3,0,0.5-0.1,0.7-0.3l4-4
	c0.4-0.4,0.4-1,0-1.4S48.7,44.9,48.3,45.3z M47.3,53.4L46,54.7c-1.5,1.5-3.9,1.8-5.6,0.4c-1.8-1.5-1.9-4.3-0.3-5.9l1.4-1.4
	c0.4-0.4,0.4-1,0-1.4c-0.4-0.4-1-0.4-1.4,0l-1.3,1.3c-2.2,2.2-2.6,5.7-0.7,8.1c2.3,2.9,6.5,3.1,9.1,0.6l1.4-1.4c0.4-0.4,0.4-1,0-1.4
	C48.3,53,47.7,53,47.3,53.4z"/>
<defs>
	<filter id="Adobe_OpacityMaskFilter" filterUnits="userSpaceOnUse" x="35" y="36" width="24" height="24">
		<feColorMatrix  type="matrix" values="1 0 0 0 0  0 1 0 0 0  0 0 1 0 0  0 0 0 1 0"/>
	</filter>
</defs>
<mask maskUnits="userSpaceOnUse" x="35" y="36" width="24" height="24" id="mask0_2498_47951_1_">
	<path class="st4" d="M46.5,39.9c2.2-2.2,5.7-2.6,8.1-0.7c2.9,2.3,3.1,6.5,0.6,9.1l-1.4,1.4c-0.4,0.4-1,0.4-1.4,0
		c-0.4-0.4-0.4-1,0-1.4l1.4-1.4c1.7-1.7,1.6-4.4-0.3-5.9c-1.6-1.4-4.1-1.1-5.6,0.4l-1.3,1.3c-0.4,0.4-1,0.4-1.4,0
		c-0.4-0.4-0.4-1,0.2-1.6L46.5,39.9z M48.3,45.3l-4,4c-0.4,0.4-0.4,1,0,1.4c0.2,0.2,0.5,0.3,0.7,0.3c0.3,0,0.5-0.1,0.7-0.3l4-4
		c0.4-0.4,0.4-1,0-1.4S48.7,44.9,48.3,45.3z M47.3,53.4L46,54.7c-1.5,1.5-3.9,1.8-5.6,0.4c-1.8-1.5-1.9-4.3-0.3-5.9l1.4-1.4
		c0.4-0.4,0.4-1,0-1.4c-0.4-0.4-1-0.4-1.4,0l-1.3,1.3c-2.2,2.2-2.6,5.7-0.7,8.1c2.3,2.9,6.5,3.1,9.1,0.6l1.4-1.4
		c0.4-0.4,0.4-1,0-1.4C48.3,53,47.7,53,47.3,53.4z"/>
</mask>
<g class="st5">
	<rect x="35" y="36" class="st0" width="24" height="24"/>
</g>
<path class="st6" d="M47.5,89L47.5,89c13,0,23.5,10.5,23.5,23.5l0,0c0,13-10.5,23.5-23.5,23.5l0,0c-13,0-23.5-10.5-23.5-23.5l0,0
	C24,99.5,34.5,89,47.5,89z"/>
<path class="st7" d="M48,108v4 M48,116L48,116 M58,112c0,5.5-4.5,10-10,10c-5.5,0-10-4.5-10-10s4.5-10,10-10
	C53.5,102,58,106.5,58,112z"/>
</svg>
