<svg width="506" height="310" viewBox="0 0 506 310" fill="none" xmlns="http://www.w3.org/2000/svg">
<path d="M0 12C0 5.37259 5.37258 0 12 0H494C500.627 0 506 5.37258 506 12V298C506 304.627 500.627 310 494 310H0V12Z" fill="white"/>
<path d="M36.0312 27.7812V37.1465C36.0312 38.7025 35.543 39.9329 34.5664 40.8379C33.5964 41.7428 32.2682 42.1953 30.582 42.1953C28.9219 42.1953 27.6035 41.7559 26.627 40.877C25.6504 39.998 25.1523 38.7904 25.1328 37.2539V27.7812H28.0625V37.166C28.0625 38.097 28.2839 38.7773 28.7266 39.207C29.1758 39.6302 29.7943 39.8418 30.582 39.8418C32.2292 39.8418 33.0658 38.9759 33.0918 37.2441V27.7812H36.0312ZM41.627 28.8359V31.4336H43.4336V33.5039H41.627V38.7773C41.627 39.168 41.7018 39.4479 41.8516 39.6172C42.0013 39.7865 42.2878 39.8711 42.7109 39.8711C43.0234 39.8711 43.3001 39.8483 43.541 39.8027V41.9414C42.9876 42.1107 42.418 42.1953 41.832 42.1953C39.8529 42.1953 38.8438 41.196 38.8047 39.1973V33.5039H37.2617V31.4336H38.8047V28.8359H41.627ZM47.9844 42H45.1523V31.4336H47.9844V42ZM44.9863 28.6992C44.9863 28.276 45.1263 27.9277 45.4062 27.6543C45.6927 27.3809 46.0801 27.2441 46.5684 27.2441C47.0501 27.2441 47.4342 27.3809 47.7207 27.6543C48.0072 27.9277 48.1504 28.276 48.1504 28.6992C48.1504 29.1289 48.0039 29.4805 47.7109 29.7539C47.4245 30.0273 47.0436 30.1641 46.5684 30.1641C46.0931 30.1641 45.709 30.0273 45.416 29.7539C45.1296 29.4805 44.9863 29.1289 44.9863 28.6992ZM53.2969 42H50.4648V27H53.2969V42ZM58.6094 42H55.7773V31.4336H58.6094V42ZM55.6113 28.6992C55.6113 28.276 55.7513 27.9277 56.0312 27.6543C56.3177 27.3809 56.7051 27.2441 57.1934 27.2441C57.6751 27.2441 58.0592 27.3809 58.3457 27.6543C58.6322 27.9277 58.7754 28.276 58.7754 28.6992C58.7754 29.1289 58.6289 29.4805 58.3359 29.7539C58.0495 30.0273 57.6686 30.1641 57.1934 30.1641C56.7181 30.1641 56.334 30.0273 56.041 29.7539C55.7546 29.4805 55.6113 29.1289 55.6113 28.6992ZM64.1855 39.7246H69.3516V42H60.582V40.2812L65.5527 33.7188H60.7285V31.4336H69.1953V33.1035L64.1855 39.7246ZM77.2422 42C77.112 41.7461 77.0176 41.4303 76.959 41.0527C76.2754 41.8145 75.3867 42.1953 74.293 42.1953C73.2578 42.1953 72.3984 41.8958 71.7148 41.2969C71.0378 40.6979 70.6992 39.9427 70.6992 39.0312C70.6992 37.9115 71.1126 37.0521 71.9395 36.4531C72.7728 35.8542 73.974 35.5514 75.543 35.5449H76.8418V34.9395C76.8418 34.4512 76.7148 34.0605 76.4609 33.7676C76.2135 33.4746 75.8197 33.3281 75.2793 33.3281C74.804 33.3281 74.4297 33.4421 74.1562 33.6699C73.8893 33.8978 73.7559 34.2103 73.7559 34.6074H70.9336C70.9336 33.9954 71.1224 33.429 71.5 32.9082C71.8776 32.3874 72.4115 31.9805 73.1016 31.6875C73.7917 31.388 74.5664 31.2383 75.4258 31.2383C76.7279 31.2383 77.7598 31.5671 78.5215 32.2246C79.2897 32.8757 79.6738 33.7936 79.6738 34.9785V39.5586C79.6803 40.5612 79.8203 41.3197 80.0938 41.834V42H77.2422ZM74.9082 40.0371C75.3249 40.0371 75.709 39.946 76.0605 39.7637C76.4121 39.5749 76.6725 39.3242 76.8418 39.0117V37.1953H75.7871C74.3743 37.1953 73.6224 37.6836 73.5312 38.6602L73.5215 38.8262C73.5215 39.1777 73.6452 39.4674 73.8926 39.6953C74.14 39.9232 74.4785 40.0371 74.9082 40.0371ZM85.2207 28.8359V31.4336H87.0273V33.5039H85.2207V38.7773C85.2207 39.168 85.2956 39.4479 85.4453 39.6172C85.5951 39.7865 85.8815 39.8711 86.3047 39.8711C86.6172 39.8711 86.8939 39.8483 87.1348 39.8027V41.9414C86.5814 42.1107 86.0117 42.1953 85.4258 42.1953C83.4466 42.1953 82.4375 41.196 82.3984 39.1973V33.5039H80.8555V31.4336H82.3984V28.8359H85.2207ZM91.5781 42H88.7461V31.4336H91.5781V42ZM88.5801 28.6992C88.5801 28.276 88.7201 27.9277 89 27.6543C89.2865 27.3809 89.6738 27.2441 90.1621 27.2441C90.6439 27.2441 91.028 27.3809 91.3145 27.6543C91.6009 27.9277 91.7441 28.276 91.7441 28.6992C91.7441 29.1289 91.5977 29.4805 91.3047 29.7539C91.0182 30.0273 90.6374 30.1641 90.1621 30.1641C89.6868 30.1641 89.3027 30.0273 89.0098 29.7539C88.7233 29.4805 88.5801 29.1289 88.5801 28.6992ZM93.4727 36.6191C93.4727 35.571 93.6745 34.6367 94.0781 33.8164C94.4818 32.9961 95.0612 32.3613 95.8164 31.9121C96.5781 31.4629 97.4603 31.2383 98.4629 31.2383C99.8887 31.2383 101.051 31.6745 101.949 32.5469C102.854 33.4193 103.359 34.6042 103.463 36.1016L103.482 36.8242C103.482 38.4453 103.03 39.7474 102.125 40.7305C101.22 41.707 100.006 42.1953 98.4824 42.1953C96.959 42.1953 95.7415 41.707 94.8301 40.7305C93.9251 39.7539 93.4727 38.4258 93.4727 36.7461V36.6191ZM96.2949 36.8242C96.2949 37.8268 96.4837 38.5951 96.8613 39.1289C97.2389 39.6562 97.7793 39.9199 98.4824 39.9199C99.166 39.9199 99.6999 39.6595 100.084 39.1387C100.468 38.6113 100.66 37.7715 100.66 36.6191C100.66 35.6361 100.468 34.8743 100.084 34.334C99.6999 33.7936 99.1595 33.5234 98.4629 33.5234C97.7728 33.5234 97.2389 33.7936 96.8613 34.334C96.4837 34.8678 96.2949 35.6979 96.2949 36.8242ZM107.818 31.4336L107.906 32.6543C108.661 31.7103 109.674 31.2383 110.943 31.2383C112.063 31.2383 112.896 31.5671 113.443 32.2246C113.99 32.8822 114.27 33.8652 114.283 35.1738V42H111.461V35.2422C111.461 34.6432 111.331 34.2103 111.07 33.9434C110.81 33.6699 110.377 33.5332 109.771 33.5332C108.977 33.5332 108.382 33.8717 107.984 34.5488V42H105.162V31.4336H107.818ZM128.971 38.2695C128.971 37.7161 128.775 37.293 128.385 37C127.994 36.7005 127.291 36.388 126.275 36.0625C125.26 35.7305 124.456 35.4049 123.863 35.0859C122.249 34.2135 121.441 33.0384 121.441 31.5605C121.441 30.7923 121.656 30.1087 122.086 29.5098C122.522 28.9043 123.144 28.4323 123.951 28.0938C124.765 27.7552 125.676 27.5859 126.686 27.5859C127.701 27.5859 128.606 27.7715 129.4 28.1426C130.195 28.5072 130.81 29.0247 131.246 29.6953C131.689 30.3659 131.91 31.1276 131.91 31.9805H128.98C128.98 31.3294 128.775 30.8249 128.365 30.4668C127.955 30.1022 127.379 29.9199 126.637 29.9199C125.921 29.9199 125.364 30.0729 124.967 30.3789C124.57 30.6784 124.371 31.0755 124.371 31.5703C124.371 32.0326 124.602 32.4199 125.064 32.7324C125.533 33.0449 126.22 33.3379 127.125 33.6113C128.792 34.1126 130.006 34.7344 130.768 35.4766C131.529 36.2188 131.91 37.1432 131.91 38.25C131.91 39.4805 131.445 40.4473 130.514 41.1504C129.583 41.847 128.329 42.1953 126.754 42.1953C125.66 42.1953 124.664 41.9967 123.766 41.5996C122.867 41.196 122.18 40.6458 121.705 39.9492C121.236 39.2526 121.002 38.4453 121.002 37.5273H123.941C123.941 39.0964 124.879 39.8809 126.754 39.8809C127.451 39.8809 127.994 39.7409 128.385 39.4609C128.775 39.1745 128.971 38.7773 128.971 38.2695ZM140.045 40.9258C139.348 41.7721 138.385 42.1953 137.154 42.1953C136.021 42.1953 135.156 41.8698 134.557 41.2188C133.964 40.5677 133.661 39.6139 133.648 38.3574V31.4336H136.471V38.2598C136.471 39.36 136.972 39.9102 137.975 39.9102C138.932 39.9102 139.589 39.5781 139.947 38.9141V31.4336H142.779V42H140.123L140.045 40.9258ZM147.555 31.4336L147.643 32.6152C148.391 31.6973 149.404 31.2383 150.68 31.2383C152.04 31.2383 152.975 31.7754 153.482 32.8496C154.225 31.7754 155.283 31.2383 156.656 31.2383C157.802 31.2383 158.655 31.5736 159.215 32.2441C159.775 32.9082 160.055 33.9108 160.055 35.252V42H157.223V35.2617C157.223 34.6628 157.105 34.2266 156.871 33.9531C156.637 33.6732 156.223 33.5332 155.631 33.5332C154.785 33.5332 154.199 33.9368 153.873 34.7441L153.883 42H151.061V35.2715C151.061 34.6595 150.94 34.2168 150.699 33.9434C150.458 33.6699 150.048 33.5332 149.469 33.5332C148.668 33.5332 148.089 33.8652 147.73 34.5293V42H144.908V31.4336H147.555ZM164.879 31.4336L164.967 32.6152C165.715 31.6973 166.728 31.2383 168.004 31.2383C169.365 31.2383 170.299 31.7754 170.807 32.8496C171.549 31.7754 172.607 31.2383 173.98 31.2383C175.126 31.2383 175.979 31.5736 176.539 32.2441C177.099 32.9082 177.379 33.9108 177.379 35.252V42H174.547V35.2617C174.547 34.6628 174.43 34.2266 174.195 33.9531C173.961 33.6732 173.548 33.5332 172.955 33.5332C172.109 33.5332 171.523 33.9368 171.197 34.7441L171.207 42H168.385V35.2715C168.385 34.6595 168.264 34.2168 168.023 33.9434C167.783 33.6699 167.372 33.5332 166.793 33.5332C165.992 33.5332 165.413 33.8652 165.055 34.5293V42H162.232V31.4336H164.879ZM185.68 42C185.549 41.7461 185.455 41.4303 185.396 41.0527C184.713 41.8145 183.824 42.1953 182.73 42.1953C181.695 42.1953 180.836 41.8958 180.152 41.2969C179.475 40.6979 179.137 39.9427 179.137 39.0312C179.137 37.9115 179.55 37.0521 180.377 36.4531C181.21 35.8542 182.411 35.5514 183.98 35.5449H185.279V34.9395C185.279 34.4512 185.152 34.0605 184.898 33.7676C184.651 33.4746 184.257 33.3281 183.717 33.3281C183.242 33.3281 182.867 33.4421 182.594 33.6699C182.327 33.8978 182.193 34.2103 182.193 34.6074H179.371C179.371 33.9954 179.56 33.429 179.938 32.9082C180.315 32.3874 180.849 31.9805 181.539 31.6875C182.229 31.388 183.004 31.2383 183.863 31.2383C185.165 31.2383 186.197 31.5671 186.959 32.2246C187.727 32.8757 188.111 33.7936 188.111 34.9785V39.5586C188.118 40.5612 188.258 41.3197 188.531 41.834V42H185.68ZM183.346 40.0371C183.762 40.0371 184.146 39.946 184.498 39.7637C184.85 39.5749 185.11 39.3242 185.279 39.0117V37.1953H184.225C182.812 37.1953 182.06 37.6836 181.969 38.6602L181.959 38.8262C181.959 39.1777 182.083 39.4674 182.33 39.6953C182.577 39.9232 182.916 40.0371 183.346 40.0371ZM196.217 34.0801C195.833 34.028 195.494 34.002 195.201 34.002C194.133 34.002 193.434 34.3633 193.102 35.0859V42H190.279V31.4336H192.945L193.023 32.6934C193.59 31.7233 194.374 31.2383 195.377 31.2383C195.689 31.2383 195.982 31.2806 196.256 31.3652L196.217 34.0801ZM201.705 38.0059L203.658 31.4336H206.686L202.438 43.6406L202.203 44.1973C201.572 45.5775 200.53 46.2676 199.078 46.2676C198.668 46.2676 198.251 46.2057 197.828 46.082V43.9434L198.258 43.9531C198.792 43.9531 199.189 43.8717 199.449 43.709C199.716 43.5462 199.924 43.276 200.074 42.8984L200.406 42.0293L196.705 31.4336H199.742L201.705 38.0059Z" fill="#333333"/>
<path d="M207 174.5C207 225.034 166.034 266 115.5 266C64.9659 266 24 225.034 24 174.5C24 123.966 64.9659 83 115.5 83C166.034 83 207 123.966 207 174.5ZM33.5375 174.5C33.5375 219.767 70.2334 256.463 115.5 256.463C160.767 256.463 197.463 219.767 197.463 174.5C197.463 129.233 160.767 92.5375 115.5 92.5375C70.2334 92.5375 33.5375 129.233 33.5375 174.5Z" fill="#E0E0E0"/>
<g filter="url(#filter0_d_2550_49065)">
<path d="M115.5 87.7687C115.5 85.135 117.637 82.987 120.267 83.1242C134.829 83.8838 149.023 88.1147 161.654 95.4931C175.659 103.675 187.238 115.432 195.204 129.561C203.17 143.69 207.238 159.682 206.989 175.9C206.741 192.118 202.186 207.979 193.791 221.857C185.396 235.736 173.463 247.133 159.214 254.882C144.965 262.631 128.912 266.454 112.7 265.957C96.4873 265.461 80.6983 260.664 66.95 252.057C54.5512 244.296 44.2141 233.688 36.781 221.143C35.4384 218.877 36.349 215.988 38.6817 214.765C41.0144 213.542 43.8847 214.45 45.241 216.708C51.8798 227.759 61.0451 237.109 72.0106 243.973C84.3259 251.682 98.4691 255.979 112.992 256.424C127.514 256.869 141.894 253.445 154.658 246.504C167.421 239.562 178.111 229.353 185.631 216.921C193.15 204.489 197.231 190.282 197.453 175.754C197.675 161.227 194.032 146.901 186.896 134.245C179.76 121.589 169.388 111.057 156.843 103.728C145.672 97.2029 133.136 93.4258 120.266 92.6762C117.637 92.523 115.5 90.4025 115.5 87.7687Z" fill="#386FDC"/>
</g>
<path d="M190 174.5C190 215.645 156.645 249 115.5 249C74.3548 249 41 215.645 41 174.5C41 133.355 74.3548 100 115.5 100C156.645 100 190 133.355 190 174.5ZM50.1605 174.5C50.1605 210.586 79.414 239.84 115.5 239.84C151.586 239.84 180.84 210.586 180.84 174.5C180.84 138.414 151.586 109.16 115.5 109.16C79.414 109.16 50.1605 138.414 50.1605 174.5Z" fill="#E0E0E0"/>
<path d="M113.743 104.602C113.68 102.074 115.68 99.9573 118.208 100.049C132.933 100.584 147.208 105.478 159.198 114.161C172.427 123.742 182.141 137.405 186.845 153.048C191.548 168.69 190.98 185.445 185.229 200.733C180.016 214.589 170.807 226.544 158.819 235.111C156.761 236.582 153.925 235.92 152.584 233.776C151.242 231.631 151.904 228.818 153.949 227.329C164.241 219.839 172.15 209.483 176.655 197.507C181.699 184.099 182.197 169.405 178.072 155.686C173.947 141.967 165.428 129.983 153.825 121.581C143.462 114.076 131.153 109.799 118.438 109.226C115.911 109.113 113.807 107.131 113.743 104.602Z" fill="#F2994A"/>
<path d="M173 174.5C173 206.256 147.256 232 115.5 232C83.7436 232 58 206.256 58 174.5C58 142.744 83.7436 117 115.5 117C147.256 117 173 142.744 173 174.5ZM66.1859 174.5C66.1859 201.735 88.2646 223.814 115.5 223.814C142.735 223.814 164.814 201.735 164.814 174.5C164.814 147.265 142.735 125.186 115.5 125.186C88.2646 125.186 66.1859 147.265 66.1859 174.5Z" fill="#E0E0E0"/>
<path d="M115.5 121.093C115.5 118.832 117.335 116.985 119.59 117.146C132.581 118.071 144.921 123.388 154.542 132.287C164.163 141.185 170.425 153.072 172.361 165.952C172.697 168.188 170.998 170.161 168.745 170.337C166.491 170.513 164.539 168.824 164.176 166.593C162.418 155.769 157.092 145.795 148.984 138.296C140.876 130.797 130.517 126.264 119.589 125.356C117.336 125.168 115.5 123.353 115.5 121.093Z" fill="#EB5757"/>
<circle cx="254" cy="128" r="11" fill="#386FDC"/>
<circle cx="254" cy="174" r="11" fill="#F2994A"/>
<circle cx="254" cy="220" r="11" fill="#F2994A"/>
<path d="M290.688 130.391C290.547 131.594 290.102 132.523 289.352 133.18C288.607 133.831 287.615 134.156 286.375 134.156C285.031 134.156 283.953 133.674 283.141 132.711C282.333 131.747 281.93 130.458 281.93 128.844V127.75C281.93 126.693 282.117 125.763 282.492 124.961C282.872 124.159 283.409 123.544 284.102 123.117C284.794 122.685 285.596 122.469 286.508 122.469C287.716 122.469 288.685 122.807 289.414 123.484C290.143 124.156 290.568 125.089 290.688 126.281H289.18C289.049 125.375 288.766 124.719 288.328 124.312C287.896 123.906 287.289 123.703 286.508 123.703C285.549 123.703 284.797 124.057 284.25 124.766C283.708 125.474 283.438 126.482 283.438 127.789V128.891C283.438 130.125 283.695 131.107 284.211 131.836C284.727 132.565 285.448 132.93 286.375 132.93C287.208 132.93 287.846 132.742 288.289 132.367C288.737 131.987 289.034 131.328 289.18 130.391H290.688ZM294.242 129.547V134H292.742V122.625H296.938C298.182 122.625 299.156 122.943 299.859 123.578C300.568 124.214 300.922 125.055 300.922 126.102C300.922 127.206 300.576 128.057 299.883 128.656C299.195 129.25 298.208 129.547 296.922 129.547H294.242ZM294.242 128.32H296.938C297.74 128.32 298.354 128.133 298.781 127.758C299.208 127.378 299.422 126.831 299.422 126.117C299.422 125.44 299.208 124.898 298.781 124.492C298.354 124.086 297.768 123.875 297.023 123.859H294.242V128.32ZM310.844 122.625V130.359C310.839 131.432 310.5 132.31 309.828 132.992C309.161 133.674 308.255 134.057 307.109 134.141L306.711 134.156C305.466 134.156 304.474 133.82 303.734 133.148C302.995 132.477 302.62 131.552 302.609 130.375V122.625H304.094V130.328C304.094 131.151 304.32 131.792 304.773 132.25C305.227 132.703 305.872 132.93 306.711 132.93C307.56 132.93 308.208 132.703 308.656 132.25C309.109 131.797 309.336 131.159 309.336 130.336V122.625H310.844Z" fill="black"/>
<path d="M282.32 180V168.625H285.531C286.521 168.625 287.396 168.844 288.156 169.281C288.917 169.719 289.503 170.341 289.914 171.148C290.331 171.956 290.542 172.883 290.547 173.93V174.656C290.547 175.729 290.339 176.669 289.922 177.477C289.51 178.284 288.919 178.904 288.148 179.336C287.383 179.768 286.49 179.99 285.469 180H282.32ZM283.82 169.859V178.773H285.398C286.555 178.773 287.453 178.414 288.094 177.695C288.74 176.977 289.062 175.953 289.062 174.625V173.961C289.062 172.669 288.758 171.667 288.148 170.953C287.544 170.234 286.685 169.87 285.57 169.859H283.82ZM294.164 180H292.719V171.547H294.164V180ZM292.602 169.305C292.602 169.07 292.672 168.872 292.812 168.711C292.958 168.549 293.172 168.469 293.453 168.469C293.734 168.469 293.948 168.549 294.094 168.711C294.24 168.872 294.312 169.07 294.312 169.305C294.312 169.539 294.24 169.734 294.094 169.891C293.948 170.047 293.734 170.125 293.453 170.125C293.172 170.125 292.958 170.047 292.812 169.891C292.672 169.734 292.602 169.539 292.602 169.305ZM301.406 177.758C301.406 177.367 301.258 177.065 300.961 176.852C300.669 176.633 300.156 176.445 299.422 176.289C298.693 176.133 298.112 175.945 297.68 175.727C297.253 175.508 296.935 175.247 296.727 174.945C296.523 174.643 296.422 174.284 296.422 173.867C296.422 173.174 296.714 172.589 297.297 172.109C297.885 171.63 298.635 171.391 299.547 171.391C300.505 171.391 301.281 171.638 301.875 172.133C302.474 172.628 302.773 173.26 302.773 174.031H301.32C301.32 173.635 301.151 173.294 300.812 173.008C300.479 172.721 300.057 172.578 299.547 172.578C299.021 172.578 298.609 172.693 298.312 172.922C298.016 173.151 297.867 173.451 297.867 173.82C297.867 174.169 298.005 174.432 298.281 174.609C298.557 174.786 299.055 174.956 299.773 175.117C300.497 175.279 301.083 175.471 301.531 175.695C301.979 175.919 302.31 176.19 302.523 176.508C302.742 176.82 302.852 177.203 302.852 177.656C302.852 178.411 302.549 179.018 301.945 179.477C301.341 179.93 300.557 180.156 299.594 180.156C298.917 180.156 298.318 180.036 297.797 179.797C297.276 179.557 296.867 179.224 296.57 178.797C296.279 178.365 296.133 177.898 296.133 177.398H297.578C297.604 177.883 297.797 178.268 298.156 178.555C298.521 178.836 299 178.977 299.594 178.977C300.141 178.977 300.578 178.867 300.906 178.648C301.24 178.424 301.406 178.128 301.406 177.758ZM307.094 176.086L306.188 177.031V180H304.742V168H306.188V175.258L306.961 174.328L309.594 171.547H311.352L308.062 175.078L311.734 180H310.039L307.094 176.086Z" fill="black"/>
<path d="M284.258 214.625L287.977 223.906L291.695 214.625H293.641V226H292.141V221.57L292.281 216.789L288.547 226H287.398L283.672 216.812L283.82 221.57V226H282.32V214.625H284.258ZM299.57 226.156C298.424 226.156 297.492 225.781 296.773 225.031C296.055 224.276 295.695 223.268 295.695 222.008V221.742C295.695 220.904 295.854 220.156 296.172 219.5C296.495 218.839 296.943 218.323 297.516 217.953C298.094 217.578 298.719 217.391 299.391 217.391C300.49 217.391 301.344 217.753 301.953 218.477C302.562 219.201 302.867 220.237 302.867 221.586V222.188H297.141C297.161 223.021 297.404 223.695 297.867 224.211C298.336 224.721 298.93 224.977 299.648 224.977C300.159 224.977 300.591 224.872 300.945 224.664C301.299 224.456 301.609 224.18 301.875 223.836L302.758 224.523C302.049 225.612 300.987 226.156 299.57 226.156ZM299.391 218.578C298.807 218.578 298.318 218.792 297.922 219.219C297.526 219.641 297.281 220.234 297.188 221H301.422V220.891C301.38 220.156 301.182 219.589 300.828 219.188C300.474 218.781 299.995 218.578 299.391 218.578ZM305.906 217.547L305.945 218.484C306.565 217.755 307.401 217.391 308.453 217.391C309.635 217.391 310.44 217.844 310.867 218.75C311.148 218.344 311.513 218.016 311.961 217.766C312.414 217.516 312.948 217.391 313.562 217.391C315.417 217.391 316.359 218.372 316.391 220.336V226H314.945V220.422C314.945 219.818 314.807 219.367 314.531 219.07C314.255 218.768 313.792 218.617 313.141 218.617C312.604 218.617 312.159 218.779 311.805 219.102C311.451 219.419 311.245 219.849 311.188 220.391V226H309.734V220.461C309.734 219.232 309.133 218.617 307.93 218.617C306.982 218.617 306.333 219.021 305.984 219.828V226H304.539V217.547H305.906ZM318.195 221.695C318.195 220.867 318.357 220.122 318.68 219.461C319.008 218.799 319.461 218.289 320.039 217.93C320.622 217.57 321.286 217.391 322.031 217.391C323.182 217.391 324.112 217.789 324.82 218.586C325.534 219.383 325.891 220.443 325.891 221.766V221.867C325.891 222.69 325.732 223.43 325.414 224.086C325.102 224.737 324.651 225.245 324.062 225.609C323.479 225.974 322.807 226.156 322.047 226.156C320.901 226.156 319.971 225.758 319.258 224.961C318.549 224.164 318.195 223.109 318.195 221.797V221.695ZM319.648 221.867C319.648 222.805 319.865 223.557 320.297 224.125C320.734 224.693 321.318 224.977 322.047 224.977C322.781 224.977 323.365 224.69 323.797 224.117C324.229 223.539 324.445 222.732 324.445 221.695C324.445 220.768 324.224 220.018 323.781 219.445C323.344 218.867 322.76 218.578 322.031 218.578C321.318 218.578 320.742 218.862 320.305 219.43C319.867 219.997 319.648 220.81 319.648 221.867ZM331.789 218.844C331.57 218.807 331.333 218.789 331.078 218.789C330.13 218.789 329.487 219.193 329.148 220V226H327.703V217.547H329.109L329.133 218.523C329.607 217.768 330.279 217.391 331.148 217.391C331.43 217.391 331.643 217.427 331.789 217.5V218.844ZM336.031 223.883L338 217.547H339.547L336.148 227.305C335.622 228.711 334.786 229.414 333.641 229.414L333.367 229.391L332.828 229.289V228.117L333.219 228.148C333.708 228.148 334.089 228.049 334.359 227.852C334.635 227.654 334.862 227.292 335.039 226.766L335.359 225.906L332.344 217.547H333.922L336.031 223.883Z" fill="black"/>
<g filter="url(#filter1_d_2550_49065)">
<path fill-rule="evenodd" clip-rule="evenodd" d="M173 79C163.059 79 155 87.0589 155 97C155 106.941 163.059 115 173 115H181.909L187.212 120.303C188.384 121.474 190.283 121.474 191.455 120.303L196.757 115H206C215.941 115 224 106.941 224 97C224 87.0589 215.941 79 206 79H173Z" fill="#231F20"/>
<path d="M183.232 99.6828H181.488C181.216 100.835 180.432 101.635 179.168 101.635C178.496 101.635 177.888 101.379 177.488 100.947C176.928 100.339 176.8 99.6828 176.8 97.3948C176.8 95.1068 176.928 94.4508 177.488 93.8428C177.888 93.4108 178.496 93.1548 179.168 93.1548C180.432 93.1548 181.2 93.9548 181.472 95.1068H183.232C182.832 92.8348 181.264 91.6028 179.168 91.6028C177.984 91.6028 176.96 92.0348 176.176 92.8188C175.056 93.9388 175.072 95.2028 175.072 97.3948C175.072 99.5868 175.056 100.851 176.176 101.971C176.96 102.755 177.984 103.187 179.168 103.187C181.232 103.187 182.848 101.955 183.232 99.6828ZM193.503 95.1548C193.503 93.1708 192.079 91.6988 189.855 91.6988H185.535V103.091H187.263V98.6108H189.855C192.079 98.6108 193.503 97.1388 193.503 95.1548ZM191.775 95.1548C191.775 96.3548 190.959 97.0428 189.759 97.0428H187.263V93.2508H189.759C190.959 93.2508 191.775 93.9548 191.775 95.1548ZM203.597 99.2508V91.6988H201.869V99.1708C201.869 100.691 200.925 101.635 199.501 101.635C198.077 101.635 197.149 100.691 197.149 99.1708V91.6988H195.421V99.2508C195.421 101.603 197.181 103.187 199.501 103.187C201.821 103.187 203.597 101.603 203.597 99.2508Z" fill="white"/>
</g>
<defs>
<filter id="filter0_d_2550_49065" x="32.1562" y="79.118" width="178.844" height="190.882" filterUnits="userSpaceOnUse" color-interpolation-filters="sRGB">
<feFlood flood-opacity="0" result="BackgroundImageFix"/>
<feColorMatrix in="SourceAlpha" type="matrix" values="0 0 0 0 0 0 0 0 0 0 0 0 0 0 0 0 0 0 127 0" result="hardAlpha"/>
<feMorphology radius="4" operator="dilate" in="SourceAlpha" result="effect1_dropShadow_2550_49065"/>
<feOffset/>
<feComposite in2="hardAlpha" operator="out"/>
<feColorMatrix type="matrix" values="0 0 0 0 0 0 0 0 0 0 0 0 0 0 0 0 0 0 0.19 0"/>
<feBlend mode="normal" in2="BackgroundImageFix" result="effect1_dropShadow_2550_49065"/>
<feBlend mode="normal" in="SourceGraphic" in2="effect1_dropShadow_2550_49065" result="shape"/>
</filter>
<filter id="filter1_d_2550_49065" x="141" y="79" width="97" height="80.1814" filterUnits="userSpaceOnUse" color-interpolation-filters="sRGB">
<feFlood flood-opacity="0" result="BackgroundImageFix"/>
<feColorMatrix in="SourceAlpha" type="matrix" values="0 0 0 0 0 0 0 0 0 0 0 0 0 0 0 0 0 0 127 0" result="hardAlpha"/>
<feOffset dy="24"/>
<feGaussianBlur stdDeviation="7"/>
<feComposite in2="hardAlpha" operator="out"/>
<feColorMatrix type="matrix" values="0 0 0 0 0 0 0 0 0 0 0 0 0 0 0 0 0 0 0.14 0"/>
<feBlend mode="normal" in2="BackgroundImageFix" result="effect1_dropShadow_2550_49065"/>
<feBlend mode="normal" in="SourceGraphic" in2="effect1_dropShadow_2550_49065" result="shape"/>
</filter>
</defs>
</svg>
