<svg width="506" height="304" viewBox="0 0 506 304" fill="none" xmlns="http://www.w3.org/2000/svg">
<path d="M0 10C0 4.47715 4.47715 0 10 0H496C501.523 0 506 4.47715 506 10V294C506 299.523 501.523 304 496 304H0V10Z" fill="white"/>
<ellipse cx="253" cy="142.5" rx="74" ry="73.5" fill="white"/>
<path d="M232.847 215.478C219.506 211.904 207.432 204.666 197.99 194.586C188.548 184.505 182.116 171.983 179.422 158.437C176.727 144.89 177.878 130.86 182.743 117.933C187.608 105.007 195.994 93.7 206.952 85.2919C217.909 76.8838 231.001 71.7102 244.747 70.3564C258.492 69.0026 272.342 71.5226 284.729 77.6314C297.117 83.7403 307.547 93.194 314.841 104.923C322.135 116.652 326 130.188 326 144H314.996C314.996 132.242 311.705 120.719 305.496 110.734C299.287 100.749 290.408 92.7014 279.862 87.501C269.317 82.3006 257.527 80.1553 245.825 81.3078C234.124 82.4602 222.979 86.8645 213.651 94.0222C204.323 101.18 197.184 110.805 193.042 121.81C188.9 132.814 187.921 144.758 190.215 156.29C192.509 167.822 197.984 178.482 206.022 187.063C214.059 195.645 224.338 201.806 235.696 204.849L232.847 215.478Z" fill="#386FDC"/>
<path d="M326 144C326 155.345 323.391 166.538 318.376 176.714C313.361 186.889 306.073 195.776 297.076 202.687C288.079 209.597 277.614 214.346 266.488 216.568C255.363 218.789 243.876 218.423 232.915 215.497L235.753 204.865C245.084 207.355 254.863 207.667 264.334 205.776C273.805 203.885 282.714 199.842 290.373 193.959C298.032 188.077 304.236 180.511 308.505 171.849C312.775 163.186 314.996 153.658 314.996 144H326Z" fill="#FF9696"/>
<path d="M233.401 128.124V133.053H232.815C230.078 133.094 227.871 133.798 226.196 135.165C224.534 136.532 223.535 138.43 223.2 140.86C224.82 139.231 226.866 138.416 229.338 138.416C231.991 138.416 234.099 139.355 235.663 141.232C237.228 143.11 238.01 145.581 238.01 148.646C238.01 150.606 237.577 152.38 236.711 153.968C235.859 155.556 234.644 156.791 233.066 157.675C231.502 158.558 229.729 159 227.746 159C224.534 159 221.936 157.896 219.953 155.687C217.984 153.478 217 150.53 217 146.844V144.691C217 141.419 217.621 138.534 218.864 136.035C220.121 133.522 221.915 131.582 224.248 130.216C226.594 128.835 229.31 128.138 232.396 128.124H233.401ZM227.494 143.22C226.517 143.22 225.63 143.476 224.834 143.987C224.038 144.484 223.452 145.146 223.075 145.975V147.797C223.075 149.799 223.473 151.366 224.268 152.498C225.064 153.616 226.182 154.175 227.62 154.175C228.919 154.175 229.966 153.671 230.762 152.663C231.572 151.642 231.977 150.323 231.977 148.708C231.977 147.065 231.572 145.74 230.762 144.732C229.952 143.724 228.863 143.22 227.494 143.22Z" fill="#0D51D9"/>
<path d="M262.35 131.79L250.557 158.586H244.168L255.982 133.281H240.816V128.435H262.35V131.79Z" fill="#0D51D9"/>
<path d="M266.162 134.233C266.162 132.383 266.769 130.885 267.984 129.739C269.199 128.58 270.791 128 272.76 128C274.757 128 276.363 128.573 277.578 129.719C278.793 130.851 279.4 132.39 279.4 134.337V135.828C279.4 137.691 278.793 139.189 277.578 140.321C276.363 141.453 274.771 142.019 272.802 142.019C270.819 142.019 269.213 141.453 267.984 140.321C266.769 139.175 266.162 137.636 266.162 135.703V134.233ZM270.184 135.828C270.184 136.656 270.421 137.326 270.896 137.836C271.385 138.333 272.02 138.582 272.802 138.582C273.584 138.582 274.205 138.326 274.666 137.816C275.127 137.305 275.357 136.621 275.357 135.766V134.233C275.357 133.405 275.127 132.735 274.666 132.224C274.205 131.714 273.57 131.458 272.76 131.458C271.992 131.458 271.371 131.714 270.896 132.224C270.421 132.721 270.184 133.419 270.184 134.316V135.828ZM280.741 151.193C280.741 149.329 281.355 147.831 282.584 146.699C283.813 145.554 285.405 144.981 287.36 144.981C289.343 144.981 290.942 145.547 292.157 146.679C293.386 147.797 294 149.343 294 151.317V152.808C294 154.658 293.4 156.156 292.199 157.302C290.998 158.434 289.399 159 287.402 159C285.391 159 283.778 158.427 282.563 157.281C281.348 156.135 280.741 154.617 280.741 152.725V151.193ZM284.763 152.808C284.763 153.568 285.014 154.216 285.517 154.755C286.019 155.293 286.648 155.562 287.402 155.562C289.105 155.562 289.957 154.631 289.957 152.767V151.193C289.957 150.365 289.72 149.702 289.245 149.205C288.77 148.694 288.142 148.439 287.36 148.439C286.578 148.439 285.949 148.694 285.475 149.205C285 149.702 284.763 150.385 284.763 151.255V152.808ZM273.996 156.329L271.042 154.755L285.936 131.189L288.889 132.763L273.996 156.329Z" fill="#0D51D9"/>
<path d="M143.651 260.402H139.481L138.545 263H137.191L140.992 253.047H142.141L145.948 263H144.602L143.651 260.402ZM139.878 259.322H143.262L141.566 254.667L139.878 259.322ZM149.188 261.284L151.021 255.604H152.312L149.66 263H148.696L146.017 255.604H147.309L149.188 261.284ZM157.986 263C157.913 262.854 157.854 262.594 157.809 262.221C157.221 262.831 156.519 263.137 155.703 263.137C154.974 263.137 154.375 262.932 153.905 262.521C153.44 262.107 153.208 261.583 153.208 260.949C153.208 260.179 153.5 259.582 154.083 259.158C154.671 258.73 155.496 258.516 156.558 258.516H157.788V257.935C157.788 257.493 157.656 257.142 157.392 256.882C157.127 256.618 156.738 256.485 156.223 256.485C155.771 256.485 155.393 256.599 155.088 256.827C154.783 257.055 154.63 257.331 154.63 257.654H153.358C153.358 257.285 153.488 256.93 153.748 256.588C154.012 256.242 154.368 255.968 154.814 255.768C155.266 255.567 155.76 255.467 156.298 255.467C157.15 255.467 157.818 255.681 158.301 256.109C158.784 256.533 159.035 257.119 159.053 257.866V261.271C159.053 261.95 159.139 262.49 159.312 262.891V263H157.986ZM155.888 262.036C156.284 262.036 156.66 261.934 157.016 261.729C157.371 261.523 157.629 261.257 157.788 260.929V259.411H156.797C155.247 259.411 154.473 259.865 154.473 260.771C154.473 261.168 154.605 261.478 154.869 261.701C155.133 261.924 155.473 262.036 155.888 262.036ZM162.409 263H161.145V255.604H162.409V263ZM161.042 253.642C161.042 253.437 161.104 253.263 161.227 253.122C161.354 252.981 161.541 252.91 161.787 252.91C162.033 252.91 162.22 252.981 162.348 253.122C162.475 253.263 162.539 253.437 162.539 253.642C162.539 253.847 162.475 254.018 162.348 254.154C162.22 254.291 162.033 254.359 161.787 254.359C161.541 254.359 161.354 254.291 161.227 254.154C161.104 254.018 161.042 253.847 161.042 253.642ZM165.813 263H164.549V252.5H165.813V263ZM172.41 263C172.337 262.854 172.278 262.594 172.232 262.221C171.645 262.831 170.943 263.137 170.127 263.137C169.398 263.137 168.799 262.932 168.329 262.521C167.864 262.107 167.632 261.583 167.632 260.949C167.632 260.179 167.924 259.582 168.507 259.158C169.095 258.73 169.92 258.516 170.981 258.516H172.212V257.935C172.212 257.493 172.08 257.142 171.815 256.882C171.551 256.618 171.161 256.485 170.646 256.485C170.195 256.485 169.817 256.599 169.512 256.827C169.206 257.055 169.054 257.331 169.054 257.654H167.782C167.782 257.285 167.912 256.93 168.172 256.588C168.436 256.242 168.792 255.968 169.238 255.768C169.689 255.567 170.184 255.467 170.722 255.467C171.574 255.467 172.242 255.681 172.725 256.109C173.208 256.533 173.458 257.119 173.477 257.866V261.271C173.477 261.95 173.563 262.49 173.736 262.891V263H172.41ZM170.312 262.036C170.708 262.036 171.084 261.934 171.439 261.729C171.795 261.523 172.052 261.257 172.212 260.929V259.411H171.221C169.671 259.411 168.896 259.865 168.896 260.771C168.896 261.168 169.029 261.478 169.293 261.701C169.557 261.924 169.897 262.036 170.312 262.036ZM181.721 259.384C181.721 260.514 181.461 261.423 180.941 262.111C180.422 262.795 179.725 263.137 178.85 263.137C177.915 263.137 177.193 262.806 176.683 262.146L176.621 263H175.459V252.5H176.724V256.417C177.234 255.784 177.938 255.467 178.836 255.467C179.734 255.467 180.438 255.806 180.948 256.485C181.463 257.164 181.721 258.094 181.721 259.274V259.384ZM180.456 259.24C180.456 258.379 180.29 257.714 179.957 257.244C179.624 256.775 179.146 256.54 178.521 256.54C177.688 256.54 177.088 256.927 176.724 257.702V260.901C177.111 261.676 177.715 262.063 178.535 262.063C179.141 262.063 179.613 261.829 179.95 261.359C180.287 260.89 180.456 260.184 180.456 259.24ZM184.694 263H183.43V255.604H184.694V263ZM183.327 253.642C183.327 253.437 183.389 253.263 183.512 253.122C183.639 252.981 183.826 252.91 184.072 252.91C184.318 252.91 184.505 252.981 184.633 253.122C184.76 253.263 184.824 253.437 184.824 253.642C184.824 253.847 184.76 254.018 184.633 254.154C184.505 254.291 184.318 254.359 184.072 254.359C183.826 254.359 183.639 254.291 183.512 254.154C183.389 254.018 183.327 253.847 183.327 253.642ZM188.099 263H186.834V252.5H188.099V263ZM191.503 263H190.238V255.604H191.503V263ZM190.136 253.642C190.136 253.437 190.197 253.263 190.32 253.122C190.448 252.981 190.635 252.91 190.881 252.91C191.127 252.91 191.314 252.981 191.441 253.122C191.569 253.263 191.633 253.437 191.633 253.642C191.633 253.847 191.569 254.018 191.441 254.154C191.314 254.291 191.127 254.359 190.881 254.359C190.635 254.359 190.448 254.291 190.32 254.154C190.197 254.018 190.136 253.847 190.136 253.642ZM195.249 253.812V255.604H196.63V256.581H195.249V261.168C195.249 261.464 195.311 261.688 195.434 261.838C195.557 261.984 195.766 262.057 196.062 262.057C196.208 262.057 196.409 262.029 196.664 261.975V263C196.331 263.091 196.008 263.137 195.693 263.137C195.128 263.137 194.702 262.966 194.415 262.624C194.128 262.282 193.984 261.797 193.984 261.168V256.581H192.638V255.604H193.984V253.812H195.249ZM200.533 261.147L202.256 255.604H203.609L200.636 264.142C200.175 265.372 199.444 265.987 198.441 265.987L198.202 265.967L197.73 265.878V264.853L198.072 264.88C198.501 264.88 198.833 264.793 199.07 264.62C199.312 264.447 199.51 264.13 199.665 263.67L199.945 262.918L197.307 255.604H198.688L200.533 261.147ZM213.05 253.04V254.113H212.817C211.833 254.132 211.049 254.423 210.466 254.988C209.882 255.553 209.545 256.349 209.454 257.374C209.978 256.772 210.694 256.472 211.601 256.472C212.466 256.472 213.157 256.777 213.672 257.388C214.191 257.998 214.451 258.787 214.451 259.753C214.451 260.778 214.171 261.599 213.61 262.214C213.054 262.829 212.307 263.137 211.368 263.137C210.416 263.137 209.643 262.772 209.051 262.043C208.458 261.309 208.162 260.366 208.162 259.213V258.728C208.162 256.896 208.552 255.496 209.331 254.53C210.115 253.56 211.279 253.063 212.824 253.04H213.05ZM211.389 257.524C210.956 257.524 210.557 257.654 210.192 257.914C209.828 258.174 209.575 258.5 209.434 258.892V259.356C209.434 260.177 209.618 260.838 209.987 261.339C210.356 261.84 210.817 262.091 211.368 262.091C211.938 262.091 212.384 261.881 212.708 261.462C213.036 261.043 213.2 260.493 213.2 259.814C213.2 259.131 213.034 258.579 212.701 258.16C212.373 257.736 211.936 257.524 211.389 257.524ZM222.374 253.758L218.252 263H216.926L221.034 254.086H215.647V253.047H222.374V253.758ZM223.7 254.961C223.7 254.364 223.889 253.872 224.268 253.484C224.65 253.097 225.14 252.903 225.737 252.903C226.343 252.903 226.833 253.099 227.207 253.491C227.585 253.879 227.774 254.382 227.774 255.002V255.487C227.774 256.089 227.583 256.581 227.2 256.964C226.822 257.342 226.339 257.531 225.751 257.531C225.159 257.531 224.669 257.342 224.281 256.964C223.894 256.581 223.7 256.073 223.7 255.439V254.961ZM224.644 255.487C224.644 255.843 224.744 256.137 224.944 256.369C225.145 256.597 225.414 256.711 225.751 256.711C226.075 256.711 226.334 256.599 226.53 256.376C226.731 256.153 226.831 255.847 226.831 255.46V254.961C226.831 254.605 226.733 254.312 226.537 254.079C226.341 253.847 226.075 253.73 225.737 253.73C225.4 253.73 225.133 253.847 224.938 254.079C224.742 254.312 224.644 254.615 224.644 254.988V255.487ZM228.547 260.56C228.547 259.963 228.736 259.473 229.114 259.09C229.497 258.702 229.987 258.509 230.584 258.509C231.181 258.509 231.671 258.7 232.054 259.083C232.437 259.466 232.628 259.974 232.628 260.607V261.093C232.628 261.69 232.437 262.182 232.054 262.569C231.675 262.952 231.19 263.144 230.598 263.144C230.005 263.144 229.515 262.954 229.128 262.576C228.741 262.193 228.547 261.685 228.547 261.052V260.56ZM229.49 261.093C229.49 261.453 229.59 261.749 229.791 261.981C229.992 262.209 230.26 262.323 230.598 262.323C230.926 262.323 231.188 262.212 231.384 261.988C231.58 261.76 231.678 261.453 231.678 261.065V260.56C231.678 260.2 231.577 259.906 231.377 259.678C231.181 259.45 230.917 259.336 230.584 259.336C230.26 259.336 229.996 259.45 229.791 259.678C229.59 259.901 229.49 260.204 229.49 260.587V261.093ZM226.038 262.248L225.32 261.797L230.181 254.018L230.898 254.469L226.038 262.248Z" fill="#626262"/>
<path d="M303.166 259.657H304.547V260.689H303.166V263H301.895V260.689H297.362V259.944L301.819 253.047H303.166V259.657ZM298.798 259.657H301.895V254.776L301.744 255.05L298.798 259.657ZM305.511 259.24C305.511 258.105 305.78 257.194 306.317 256.506C306.855 255.813 307.559 255.467 308.43 255.467C309.296 255.467 309.981 255.763 310.487 256.355V252.5H311.752V263H310.59L310.528 262.207C310.022 262.827 309.318 263.137 308.416 263.137C307.559 263.137 306.86 262.786 306.317 262.084C305.78 261.382 305.511 260.466 305.511 259.336V259.24ZM306.775 259.384C306.775 260.222 306.949 260.879 307.295 261.353C307.641 261.826 308.12 262.063 308.73 262.063C309.533 262.063 310.118 261.703 310.487 260.983V257.586C310.109 256.889 309.528 256.54 308.744 256.54C308.124 256.54 307.641 256.779 307.295 257.258C306.949 257.736 306.775 258.445 306.775 259.384ZM317.645 258.01L318.15 253.047H323.25V254.216H319.224L318.923 256.93C319.41 256.643 319.964 256.499 320.584 256.499C321.491 256.499 322.211 256.8 322.744 257.401C323.277 257.998 323.544 258.807 323.544 259.828C323.544 260.854 323.266 261.662 322.71 262.255C322.159 262.843 321.386 263.137 320.393 263.137C319.513 263.137 318.795 262.893 318.239 262.405C317.683 261.918 317.367 261.243 317.289 260.382H318.485C318.563 260.951 318.766 261.382 319.094 261.674C319.422 261.961 319.855 262.104 320.393 262.104C320.98 262.104 321.441 261.904 321.773 261.503C322.111 261.102 322.279 260.548 322.279 259.842C322.279 259.176 322.097 258.643 321.732 258.242C321.372 257.837 320.892 257.634 320.29 257.634C319.739 257.634 319.306 257.755 318.991 257.996L318.656 258.27L317.645 258.01ZM326.319 256.499C326.88 255.811 327.609 255.467 328.507 255.467C330.07 255.467 330.858 256.349 330.872 258.112V263H329.607V258.105C329.603 257.572 329.48 257.178 329.238 256.923C329.001 256.668 328.63 256.54 328.124 256.54C327.714 256.54 327.354 256.649 327.044 256.868C326.734 257.087 326.493 257.374 326.319 257.729V263H325.055V252.5H326.319V256.499ZM335.931 259.24C335.931 258.105 336.2 257.194 336.737 256.506C337.275 255.813 337.979 255.467 338.85 255.467C339.715 255.467 340.401 255.763 340.907 256.355V252.5H342.172V263H341.01L340.948 262.207C340.442 262.827 339.738 263.137 338.836 263.137C337.979 263.137 337.28 262.786 336.737 262.084C336.2 261.382 335.931 260.466 335.931 259.336V259.24ZM337.195 259.384C337.195 260.222 337.368 260.879 337.715 261.353C338.061 261.826 338.54 262.063 339.15 262.063C339.952 262.063 340.538 261.703 340.907 260.983V257.586C340.529 256.889 339.948 256.54 339.164 256.54C338.544 256.54 338.061 256.779 337.715 257.258C337.368 257.736 337.195 258.445 337.195 259.384ZM343.806 259.233C343.806 258.509 343.947 257.857 344.229 257.278C344.517 256.7 344.913 256.253 345.419 255.938C345.929 255.624 346.51 255.467 347.162 255.467C348.169 255.467 348.983 255.815 349.603 256.513C350.227 257.21 350.539 258.137 350.539 259.295V259.384C350.539 260.104 350.4 260.751 350.122 261.325C349.849 261.895 349.454 262.339 348.939 262.658C348.429 262.977 347.841 263.137 347.176 263.137C346.173 263.137 345.36 262.788 344.735 262.091C344.116 261.394 343.806 260.471 343.806 259.322V259.233ZM345.077 259.384C345.077 260.204 345.266 260.863 345.645 261.359C346.027 261.856 346.538 262.104 347.176 262.104C347.818 262.104 348.329 261.854 348.707 261.353C349.085 260.847 349.274 260.14 349.274 259.233C349.274 258.422 349.081 257.766 348.693 257.265C348.311 256.759 347.8 256.506 347.162 256.506C346.538 256.506 346.034 256.754 345.651 257.251C345.269 257.748 345.077 258.459 345.077 259.384ZM358.674 261.257L360.096 255.604H361.36L359.207 263H358.182L356.384 257.395L354.634 263H353.608L351.462 255.604H352.72L354.176 261.141L355.898 255.604H356.917L358.674 261.257ZM363.849 255.604L363.89 256.533C364.455 255.822 365.193 255.467 366.104 255.467C367.668 255.467 368.456 256.349 368.47 258.112V263H367.205V258.105C367.201 257.572 367.077 257.178 366.836 256.923C366.599 256.668 366.228 256.54 365.722 256.54C365.312 256.54 364.951 256.649 364.642 256.868C364.332 257.087 364.09 257.374 363.917 257.729V263H362.652V255.604H363.849ZM372.093 253.812V255.604H373.474V256.581H372.093V261.168C372.093 261.464 372.154 261.688 372.277 261.838C372.4 261.984 372.61 262.057 372.906 262.057C373.052 262.057 373.253 262.029 373.508 261.975V263C373.175 263.091 372.852 263.137 372.537 263.137C371.972 263.137 371.546 262.966 371.259 262.624C370.972 262.282 370.828 261.797 370.828 261.168V256.581H369.481V255.604H370.828V253.812H372.093ZM376.331 263H375.066V255.604H376.331V263ZM374.964 253.642C374.964 253.437 375.025 253.263 375.148 253.122C375.276 252.981 375.463 252.91 375.709 252.91C375.955 252.91 376.142 252.981 376.27 253.122C376.397 253.263 376.461 253.437 376.461 253.642C376.461 253.847 376.397 254.018 376.27 254.154C376.142 254.291 375.955 254.359 375.709 254.359C375.463 254.359 375.276 254.291 375.148 254.154C375.025 254.018 374.964 253.847 374.964 253.642ZM379.551 255.604L379.585 256.424C380.127 255.786 380.859 255.467 381.779 255.467C382.814 255.467 383.518 255.863 383.892 256.656C384.138 256.301 384.457 256.014 384.849 255.795C385.245 255.576 385.712 255.467 386.25 255.467C387.872 255.467 388.697 256.326 388.725 258.044V263H387.46V258.119C387.46 257.59 387.339 257.196 387.098 256.937C386.856 256.672 386.451 256.54 385.881 256.54C385.411 256.54 385.022 256.681 384.712 256.964C384.402 257.242 384.222 257.618 384.172 258.092V263H382.9V258.153C382.9 257.078 382.374 256.54 381.321 256.54C380.492 256.54 379.924 256.893 379.619 257.6V263H378.354V255.604H379.551ZM393.708 263.137C392.705 263.137 391.89 262.809 391.261 262.152C390.632 261.492 390.317 260.61 390.317 259.507V259.274C390.317 258.541 390.456 257.887 390.734 257.312C391.017 256.734 391.409 256.283 391.91 255.959C392.416 255.631 392.963 255.467 393.551 255.467C394.512 255.467 395.26 255.784 395.793 256.417C396.326 257.05 396.593 257.957 396.593 259.138V259.664H391.582C391.6 260.393 391.812 260.983 392.218 261.435C392.628 261.881 393.147 262.104 393.776 262.104C394.223 262.104 394.601 262.013 394.911 261.831C395.221 261.649 395.492 261.407 395.725 261.106L396.497 261.708C395.877 262.66 394.948 263.137 393.708 263.137ZM393.551 256.506C393.04 256.506 392.612 256.693 392.266 257.066C391.919 257.436 391.705 257.955 391.623 258.625H395.328V258.529C395.292 257.887 395.118 257.39 394.809 257.039C394.499 256.684 394.079 256.506 393.551 256.506Z" fill="#626262"/>
<rect x="109" y="250" width="17" height="17" rx="5" fill="#386FDC"/>
<rect x="269" y="250" width="17" height="17" rx="5" fill="#FF9696"/>
<path d="M46.2852 45.0273H39.6758L38.293 49H35.2109L41.6562 31.9375H44.3164L50.7734 49H47.6797L46.2852 45.0273ZM40.5078 42.6367H45.4531L42.9805 35.5586L40.5078 42.6367ZM56.3281 45.3906L59.0117 36.3203H61.9531L57.5586 49H55.0859L50.6562 36.3203H53.6094L56.3281 45.3906ZM71.1289 49C71.0039 48.7578 70.8945 48.3633 70.8008 47.8164C69.8945 48.7617 68.7852 49.2344 67.4727 49.2344C66.1992 49.2344 65.1602 48.8711 64.3555 48.1445C63.5508 47.418 63.1484 46.5195 63.1484 45.4492C63.1484 44.0977 63.6484 43.0625 64.6484 42.3438C65.6562 41.6172 67.0938 41.2539 68.9609 41.2539H70.707V40.4219C70.707 39.7656 70.5234 39.2422 70.1562 38.8516C69.7891 38.4531 69.2305 38.2539 68.4805 38.2539C67.832 38.2539 67.3008 38.418 66.8867 38.7461C66.4727 39.0664 66.2656 39.4766 66.2656 39.9766H63.418C63.418 39.2812 63.6484 38.6328 64.1094 38.0312C64.5703 37.4219 65.1953 36.9453 65.9844 36.6016C66.7812 36.2578 67.668 36.0859 68.6445 36.0859C70.1289 36.0859 71.3125 36.4609 72.1953 37.2109C73.0781 37.9531 73.5312 39 73.5547 40.3516V46.0703C73.5547 47.2109 73.7148 48.1211 74.0352 48.8008V49H71.1289ZM68 46.9492C68.5625 46.9492 69.0898 46.8125 69.582 46.5391C70.082 46.2656 70.457 45.8984 70.707 45.4375V43.0469H69.1719C68.1172 43.0469 67.3242 43.2305 66.793 43.5977C66.2617 43.9648 65.9961 44.4844 65.9961 45.1562C65.9961 45.7031 66.1758 46.1406 66.5352 46.4688C66.9023 46.7891 67.3906 46.9492 68 46.9492ZM79.5664 49H76.7188V36.3203H79.5664V49ZM76.543 33.0273C76.543 32.5898 76.6797 32.2266 76.9531 31.9375C77.2344 31.6484 77.6328 31.5039 78.1484 31.5039C78.6641 31.5039 79.0625 31.6484 79.3438 31.9375C79.625 32.2266 79.7656 32.5898 79.7656 33.0273C79.7656 33.457 79.625 33.8164 79.3438 34.1055C79.0625 34.3867 78.6641 34.5273 78.1484 34.5273C77.6328 34.5273 77.2344 34.3867 76.9531 34.1055C76.6797 33.8164 76.543 33.457 76.543 33.0273ZM85.707 49H82.8594V31H85.707V49ZM96.3945 49C96.2695 48.7578 96.1602 48.3633 96.0664 47.8164C95.1602 48.7617 94.0508 49.2344 92.7383 49.2344C91.4648 49.2344 90.4258 48.8711 89.6211 48.1445C88.8164 47.418 88.4141 46.5195 88.4141 45.4492C88.4141 44.0977 88.9141 43.0625 89.9141 42.3438C90.9219 41.6172 92.3594 41.2539 94.2266 41.2539H95.9727V40.4219C95.9727 39.7656 95.7891 39.2422 95.4219 38.8516C95.0547 38.4531 94.4961 38.2539 93.7461 38.2539C93.0977 38.2539 92.5664 38.418 92.1523 38.7461C91.7383 39.0664 91.5312 39.4766 91.5312 39.9766H88.6836C88.6836 39.2812 88.9141 38.6328 89.375 38.0312C89.8359 37.4219 90.4609 36.9453 91.25 36.6016C92.0469 36.2578 92.9336 36.0859 93.9102 36.0859C95.3945 36.0859 96.5781 36.4609 97.4609 37.2109C98.3438 37.9531 98.7969 39 98.8203 40.3516V46.0703C98.8203 47.2109 98.9805 48.1211 99.3008 48.8008V49H96.3945ZM93.2656 46.9492C93.8281 46.9492 94.3555 46.8125 94.8477 46.5391C95.3477 46.2656 95.7227 45.8984 95.9727 45.4375V43.0469H94.4375C93.3828 43.0469 92.5898 43.2305 92.0586 43.5977C91.5273 43.9648 91.2617 44.4844 91.2617 45.1562C91.2617 45.7031 91.4414 46.1406 91.8008 46.4688C92.168 46.7891 92.6562 46.9492 93.2656 46.9492ZM112.93 42.7891C112.93 44.7578 112.488 46.3242 111.605 47.4883C110.73 48.6523 109.523 49.2344 107.984 49.2344C106.5 49.2344 105.344 48.6992 104.516 47.6289L104.375 49H101.797V31H104.645V37.5391C105.465 36.5703 106.57 36.0859 107.961 36.0859C109.508 36.0859 110.723 36.6602 111.605 37.8086C112.488 38.957 112.93 40.5625 112.93 42.625V42.7891ZM110.082 42.543C110.082 41.168 109.84 40.1367 109.355 39.4492C108.871 38.7617 108.168 38.418 107.246 38.418C106.012 38.418 105.145 38.957 104.645 40.0352V45.2617C105.152 46.3633 106.027 46.9141 107.27 46.9141C108.16 46.9141 108.848 46.582 109.332 45.918C109.816 45.2539 110.066 44.25 110.082 42.9062V42.543ZM118.355 49H115.508V36.3203H118.355V49ZM115.332 33.0273C115.332 32.5898 115.469 32.2266 115.742 31.9375C116.023 31.6484 116.422 31.5039 116.938 31.5039C117.453 31.5039 117.852 31.6484 118.133 31.9375C118.414 32.2266 118.555 32.5898 118.555 33.0273C118.555 33.457 118.414 33.8164 118.133 34.1055C117.852 34.3867 117.453 34.5273 116.938 34.5273C116.422 34.5273 116.023 34.3867 115.742 34.1055C115.469 33.8164 115.332 33.457 115.332 33.0273ZM124.496 49H121.648V31H124.496V49ZM130.637 49H127.789V36.3203H130.637V49ZM127.613 33.0273C127.613 32.5898 127.75 32.2266 128.023 31.9375C128.305 31.6484 128.703 31.5039 129.219 31.5039C129.734 31.5039 130.133 31.6484 130.414 31.9375C130.695 32.2266 130.836 32.5898 130.836 33.0273C130.836 33.457 130.695 33.8164 130.414 34.1055C130.133 34.3867 129.734 34.5273 129.219 34.5273C128.703 34.5273 128.305 34.3867 128.023 34.1055C127.75 33.8164 127.613 33.457 127.613 33.0273ZM137.316 33.2383V36.3203H139.555V38.4297H137.316V45.5078C137.316 45.9922 137.41 46.3438 137.598 46.5625C137.793 46.7734 138.137 46.8789 138.629 46.8789C138.957 46.8789 139.289 46.8398 139.625 46.7617V48.9648C138.977 49.1445 138.352 49.2344 137.75 49.2344C135.562 49.2344 134.469 48.0273 134.469 45.6133V38.4297H132.383V36.3203H134.469V33.2383H137.316ZM146.176 44.9219L148.754 36.3203H151.789L146.75 50.9219C145.977 53.0547 144.664 54.1211 142.812 54.1211C142.398 54.1211 141.941 54.0508 141.441 53.9102V51.707L141.98 51.7422C142.699 51.7422 143.238 51.6094 143.598 51.3438C143.965 51.0859 144.254 50.6484 144.465 50.0312L144.875 48.9414L140.422 36.3203H143.492L146.176 44.9219Z" fill="black"/>
</svg>
