<?xml version="1.0" encoding="utf-8"?>
<!-- Generator: Adobe Illustrator 25.2.1, SVG Export Plug-In . SVG Version: 6.00 Build 0)  -->
<svg version="1.1" id="Layer_1" xmlns="http://www.w3.org/2000/svg" xmlns:xlink="http://www.w3.org/1999/xlink" x="0px" y="0px"
	 width="43.2px" height="43.2px" viewBox="0 0 43.2 43.2" style="enable-background:new 0 0 43.2 43.2;" xml:space="preserve">
<style type="text/css">
	.st0{fill:#F5F5F5;}
	.st1{fill:#0D51D9;}
</style>
<g>
	<circle class="st0" cx="21.6" cy="21.6" r="21.5"/>
</g>
<g>
	<path class="st1" d="M30.6,16.2c0-0.1-0.1-0.3-0.2-0.4l-4.5-4.5c-0.1-0.1-0.2-0.2-0.4-0.2c-0.1,0-0.1,0-0.2,0h-9
		c-0.2,0-0.4,0.1-0.5,0.2c-0.1,0.1-0.2,0.3-0.2,0.5v3.9c0.5-0.1,1-0.2,1.5-0.2c2.1,0,4,1.1,5.1,2.8c1.1,1.8,1.2,4,0.3,5.8l2.3,2.6
		c0.5,0.6,0.7,1.4,0.5,2.2c-0.3,0.8-0.9,1.3-1.7,1.5c-0.8,0.2-1.6-0.1-2.1-0.7l-2.2-2.6c-0.7,0.2-1.4,0.3-2.1,0.3
		c-0.5,0-1-0.1-1.5-0.2v3.9c0,0.2,0.1,0.4,0.2,0.5c0.1,0.1,0.3,0.2,0.5,0.2h13.5c0.2,0,0.4-0.1,0.5-0.2c0.1-0.1,0.2-0.3,0.2-0.5v-15
		C30.6,16.3,30.6,16.2,30.6,16.2L30.6,16.2z M28,15.6h-1.9v-1.9L28,15.6z"/>
	<path class="st1" d="M17.1,26.1c0.8,0,1.7-0.2,2.4-0.7l3,3.4c0.1,0.1,0.3,0.2,0.5,0.3c0.2,0,0.4-0.1,0.5-0.2
		c0.1-0.1,0.2-0.3,0.3-0.5c0-0.2-0.1-0.4-0.2-0.5l-3-3.5c0.7-0.8,1-1.8,1-2.8c0-1.2-0.5-2.3-1.3-3.2c-0.8-0.8-2-1.3-3.2-1.3
		c-0.5,0-1,0.1-1.5,0.3c-1.2,0.4-2.1,1.3-2.6,2.4c-0.5,1.1-0.5,2.4,0,3.6c0.5,1.1,1.4,2,2.6,2.4C16.1,26,16.6,26.1,17.1,26.1
		L17.1,26.1z"/>
</g>
</svg>
