<?xml version="1.0" encoding="utf-8"?>
<!-- Generator: Adobe Illustrator 25.2.1, SVG Export Plug-In . SVG Version: 6.00 Build 0)  -->
<svg version="1.1" id="Layer_1" xmlns="http://www.w3.org/2000/svg" xmlns:xlink="http://www.w3.org/1999/xlink" x="0px" y="0px"
	 width="49px" height="49px" viewBox="0 0 49 49" style="enable-background:new 0 0 49 49;" xml:space="preserve">
<style type="text/css">
	.st0{fill:#F2994A;}
	.st1{fill:none;stroke:#FFFFFF;stroke-width:1.5;stroke-linecap:round;stroke-miterlimit:10;}
	.st2{fill:#27AE60;}
	.st3{fill:#7879F1;}
</style>
<circle class="st2" cx="24.5" cy="24.5" r="24.5"/>
<path class="st1" d="M30.8,31.6H18.2c-0.4,0-0.8-0.4-0.8-0.8V18.2c0-0.4,0.4-0.8,0.8-0.8h8.5c0.2,0,0.4,0.1,0.6,0.3l4,4.5
	c0.1,0.1,0.2,0.3,0.2,0.5v8C31.6,31.2,31.2,31.6,30.8,31.6z"/>
<path class="st1" d="M27,28h-5c-0.4,0-0.8,0.4-0.8,0.8v2.7h6.5v-2.7C27.8,28.4,27.4,28,27,28z"/>
<path class="st1" d="M21.2,17.4v5.4c0,0.4,0.4,0.8,0.8,0.8h3.8"/>
</svg>
