<?xml version="1.0" encoding="utf-8"?>
<!-- Generator: Adobe Illustrator 25.2.1, SVG Export Plug-In . SVG Version: 6.00 Build 0)  -->
<svg version="1.1" id="Layer_1" xmlns="http://www.w3.org/2000/svg" xmlns:xlink="http://www.w3.org/1999/xlink" x="0px" y="0px"
	 width="78px" height="78px" viewBox="0 0 78 78" style="enable-background:new 0 0 78 78;" xml:space="preserve">
<style type="text/css">
	.st0{fill:#F5F5F5;stroke:#E4E4E4;}
	.st1{fill:none;stroke:#BBC9E3;stroke-width:3;stroke-linecap:round;stroke-linejoin:round;}
	.st2{fill:none;stroke:#0D51D9;stroke-width:3;stroke-linecap:round;stroke-linejoin:round;}
	.st3{display:none;}
	.st4{display:inline;fill:none;stroke:#BBC9E3;stroke-width:3;stroke-linecap:round;stroke-linejoin:round;}
	.st5{display:inline;fill:none;stroke:#0D51D9;stroke-width:3;stroke-linecap:round;stroke-linejoin:round;}
</style>
<g>
	<circle class="st0" cx="39" cy="39" r="38.5"/>
</g>
<g>
	<path class="st1" d="M49,33c0-2.4-0.9-4.7-2.6-6.4C44.7,25,42.4,24,40,24s-4.7,0.9-6.4,2.6c-1.7,1.7-2.6,4-2.6,6.4
		c0,10.5-4.5,13.5-4.5,13.5h27C53.5,46.5,49,43.5,49,33z"/>
	<path class="st1" d="M42.6,52.5c-0.3,0.5-0.6,0.8-1.1,1.1C41,53.9,40.5,54,40,54s-1-0.1-1.5-0.4c-0.5-0.3-0.8-0.6-1.1-1.1"/>
	<path class="st2" d="M47,33c0-2.4-0.9-4.7-2.6-6.4C42.7,25,40.4,24,38,24s-4.7,0.9-6.4,2.6c-1.7,1.7-2.6,4-2.6,6.4
		c0,10.5-4.5,13.5-4.5,13.5h27C51.5,46.5,47,43.5,47,33z"/>
	<path class="st2" d="M40.6,52.5c-0.3,0.5-0.6,0.8-1.1,1.1C39,53.9,38.5,54,38,54s-1-0.1-1.5-0.4c-0.5-0.3-0.8-0.6-1.1-1.1"/>
</g>
<g class="st3">
	<path class="st4" d="M-79.1-3.4c5.8,0,10.5-4.7,10.5-10.5c0-5.8-4.7-10.5-10.5-10.5c-5.8,0-10.5,4.7-10.5,10.5
		C-89.6-8.1-84.9-3.4-79.1-3.4z"/>
	<path class="st4" d="M-84.8-5.1l-1.8,13.7l7.5-4.5l7.5,4.5l-1.8-13.7"/>
	<path class="st5" d="M-81.1-3.4c5.8,0,10.5-4.7,10.5-10.5c0-5.8-4.7-10.5-10.5-10.5c-5.8,0-10.5,4.7-10.5,10.5
		C-91.6-8.1-86.9-3.4-81.1-3.4z"/>
	<path class="st5" d="M-86.8-5.1l-1.8,13.7l7.5-4.5l7.5,4.5l-1.8-13.7"/>
</g>
</svg>
