<svg width="37" height="38" viewBox="0 0 37 38" fill="none" xmlns="http://www.w3.org/2000/svg">
<path d="M34.6666 27.2V32.2C34.6685 32.6641 34.5734 33.1236 34.3875 33.5489C34.2015 33.9742 33.9288 34.3559 33.5868 34.6697C33.2447 34.9835 32.8409 35.2224 32.4012 35.3711C31.9615 35.5198 31.4956 35.5751 31.0333 35.5333C25.9047 34.976 20.9783 33.2235 16.65 30.4166C12.623 27.8577 9.20886 24.4436 6.64997 20.4166C3.83327 16.0686 2.08037 11.1183 1.5333 5.96662C1.49165 5.50574 1.54643 5.04123 1.69414 4.60267C1.84185 4.16411 2.07925 3.76111 2.39125 3.41933C2.70324 3.07755 3.08298 2.80447 3.50629 2.61749C3.9296 2.43052 4.3872 2.33373 4.84997 2.33329H9.84997C10.6588 2.32533 11.443 2.61176 12.0562 3.13918C12.6695 3.6666 13.0701 4.39904 13.1833 5.19996C13.3943 6.80007 13.7857 8.37117 14.35 9.88329C14.5742 10.4798 14.6227 11.1281 14.4898 11.7514C14.3569 12.3747 14.0481 12.9468 13.6 13.4L11.4833 15.5166C13.8559 19.6892 17.3107 23.144 21.4833 25.5166L23.6 23.4C24.0531 22.9519 24.6252 22.643 25.2485 22.5101C25.8718 22.3772 26.5201 22.4257 27.1166 22.65C28.6288 23.2142 30.1999 23.6056 31.8 23.8166C32.6096 23.9308 33.349 24.3386 33.8775 24.9625C34.4061 25.5863 34.6869 26.3826 34.6666 27.2Z" stroke="#232647" stroke-width="3" stroke-linecap="round" stroke-linejoin="round"/>
</svg>
