<?xml version="1.0" encoding="utf-8"?>
<!-- Generator: Adobe Illustrator 25.2.1, SVG Export Plug-In . SVG Version: 6.00 Build 0)  -->
<svg version="1.1" id="Layer_1" xmlns="http://www.w3.org/2000/svg" xmlns:xlink="http://www.w3.org/1999/xlink" x="0px" y="0px"
	 width="78px" height="78px" viewBox="0 0 78 78" style="enable-background:new 0 0 78 78;" xml:space="preserve">
<style type="text/css">
	.st0{fill:#F5F5F5;stroke:#E4E4E4;}
	.st1{fill:none;stroke:#BBC9E3;stroke-width:3;stroke-linecap:round;stroke-linejoin:round;}
	.st2{fill:none;stroke:#0D51D9;stroke-width:3;stroke-linecap:round;stroke-linejoin:round;}
</style>
<g>
	<circle class="st0" cx="39" cy="39" r="38.5"/>
</g>
<g>
	<path class="st1" d="M47.6,24.8H33.4c-1.6,0-2.8,1.3-2.8,2.8v22.7c0,1.6,1.3,2.8,2.8,2.8h14.2c1.6,0,2.8-1.3,2.8-2.8V27.7
		C50.4,26.1,49.1,24.8,47.6,24.8z"/>
	<path class="st1" d="M40.5,47.5L40.5,47.5"/>
	<path class="st2" d="M44.6,24.8H30.4c-1.6,0-2.8,1.3-2.8,2.8v22.7c0,1.6,1.3,2.8,2.8,2.8h14.2c1.6,0,2.8-1.3,2.8-2.8V27.7
		C47.4,26.1,46.1,24.8,44.6,24.8z"/>
	<path class="st2" d="M37.5,47.5L37.5,47.5"/>
</g>
</svg>
