<?xml version="1.0" encoding="utf-8"?>
<!-- Generator: Adobe Illustrator 25.2.1, SVG Export Plug-In . SVG Version: 6.00 Build 0)  -->
<svg version="1.1" id="Layer_1" xmlns="http://www.w3.org/2000/svg" xmlns:xlink="http://www.w3.org/1999/xlink" x="0px" y="0px"
	 width="78px" height="78px" viewBox="0 0 78 78" style="enable-background:new 0 0 78 78;" xml:space="preserve">
<style type="text/css">
	.st0{fill:#F5F5F5;stroke:#E4E4E4;}
	.st1{display:none;}
	.st2{display:inline;fill:none;stroke:#BBC9E3;stroke-width:3;stroke-linecap:round;stroke-linejoin:round;}
	.st3{display:inline;fill:none;stroke:#0D51D9;stroke-width:3;stroke-linecap:round;stroke-linejoin:round;}
	.st4{fill:#BBC9E3;}
	.st5{fill:#0D51D9;}
	.st6{display:inline;fill-rule:evenodd;clip-rule:evenodd;fill:#FFFFFF;}
	.st7{display:inline;fill-rule:evenodd;clip-rule:evenodd;fill:#231F20;}
	.st8{display:inline;fill-rule:evenodd;clip-rule:evenodd;fill:#FFFFFF;filter:url(#Adobe_OpacityMaskFilter);}
	.st9{display:inline;mask:url(#mask0_2031_46172_1_);}
	.st10{display:inline;fill-rule:evenodd;clip-rule:evenodd;fill:#FFFFFF;filter:url(#Adobe_OpacityMaskFilter_1_);}
	.st11{display:inline;mask:url(#mask1_2031_46172_1_);}
</style>
<g>
	<circle class="st0" cx="39" cy="39" r="38.5"/>
</g>
<g class="st1">
	<path class="st2" d="M52.5,24h-24c-1.7,0-3,1.3-3,3v6c0,1.7,1.3,3,3,3h24c1.7,0,3-1.3,3-3v-6C55.5,25.3,54.2,24,52.5,24z"/>
	<path class="st2" d="M52.5,42h-24c-1.7,0-3,1.3-3,3v6c0,1.7,1.3,3,3,3h24c1.7,0,3-1.3,3-3v-6C55.5,43.3,54.2,42,52.5,42z"/>
	<path class="st2" d="M31.5,30L31.5,30"/>
	<path class="st2" d="M31.5,48L31.5,48"/>
	<path class="st3" d="M49.5,24h-24c-1.7,0-3,1.3-3,3v6c0,1.7,1.3,3,3,3h24c1.7,0,3-1.3,3-3v-6C52.5,25.3,51.2,24,49.5,24z"/>
	<path class="st3" d="M49.5,42h-24c-1.7,0-3,1.3-3,3v6c0,1.7,1.3,3,3,3h24c1.7,0,3-1.3,3-3v-6C52.5,43.3,51.2,42,49.5,42z"/>
	<path class="st3" d="M28.5,30L28.5,30"/>
	<path class="st3" d="M28.5,48L28.5,48"/>
</g>
<g>
	<path class="st4" d="M37.2,42.8L37.2,42.8c0-3.9,3-7,7.1-7.9c-0.5-3.5-4.2-6.3-8.8-6.3c-5,0-8.9,3.3-8.9,7.2c0,1.5,0.5,2.9,1.6,4
		c0,0.1,0.1,0.1,0.2,0.2c0.9,0.9,1.4,2.1,1.5,3.4c1.1-0.6,2.3-0.9,3.5-0.7c0.2,0,0.5,0.1,0.6,0.1C35.1,43,36.1,42.9,37.2,42.8
		L37.2,42.8z M37.8,45.7c-1.4,0.2-2.8,0.3-4.1,0.1c-0.2,0-0.5-0.1-0.7-0.1c-0.6-0.1-1.1,0-1.6,0.3l-2.9,1.7
		c-0.2,0.1-0.5,0.2-0.7,0.2c-0.2,0-0.3-0.1-0.4-0.1c-0.1-0.1-0.3-0.2-0.4-0.3c-0.1-0.1-0.2-0.3-0.2-0.4c0-0.1-0.1-0.3-0.1-0.5
		l0.2-2.7c0-0.3,0-0.7-0.1-1c-0.1-0.3-0.3-0.6-0.5-0.8c-0.1-0.1-0.2-0.3-0.4-0.4c-1.4-1.7-2.3-3.8-2.3-6c0-5.6,5.3-10.2,11.9-10.2
		c6.1,0,11.1,3.9,11.8,9c5.1,0.2,9.1,3.8,9.1,8.1c0,1.8-0.7,3.4-1.8,4.8c-0.1,0.1-0.2,0.2-0.3,0.3c-0.2,0.2-0.3,0.4-0.4,0.7
		c-0.1,0.3-0.1,0.5-0.1,0.8l0.2,2.1c0,0.1,0,0.3,0,0.4c0,0.1-0.1,0.2-0.2,0.3c-0.1,0.1-0.2,0.2-0.3,0.2c-0.1,0.1-0.2,0.1-0.4,0.1
		c-0.2,0-0.4,0-0.6-0.1l-2.3-1.4c-0.4-0.2-0.9-0.3-1.3-0.3c-0.2,0-0.4,0.1-0.6,0.1c-0.5,0.1-1,0.1-1.5,0.1
		C42.7,50.8,39.3,48.7,37.8,45.7z M48.3,47.7c0.8-0.1,1.7,0,2.5,0.3c0.2-0.9,0.6-1.6,1.3-2.3c0.1-0.1,0.1-0.1,0.2-0.2
		c0.7-0.8,1.1-1.8,1.1-2.8c0-2.7-2.9-5.1-6.6-5.1s-6.6,2.4-6.6,5.1c0,2.7,2.9,5.1,6.6,5.1c0.4,0,0.7,0,1.1-0.1
		C47.9,47.7,48.1,47.7,48.3,47.7L48.3,47.7z"/>
	<path class="st5" d="M35.2,42.8L35.2,42.8c0-3.9,3-7,7.1-7.9c-0.5-3.5-4.2-6.3-8.8-6.3c-5,0-8.9,3.3-8.9,7.2c0,1.5,0.5,2.9,1.6,4
		c0,0.1,0.1,0.1,0.2,0.2c0.9,0.9,1.4,2.1,1.5,3.4c1.1-0.6,2.3-0.9,3.5-0.7c0.2,0,0.5,0.1,0.6,0.1C33.1,43,34.1,42.9,35.2,42.8
		L35.2,42.8z M35.8,45.7c-1.4,0.2-2.8,0.3-4.1,0.1c-0.2,0-0.5-0.1-0.7-0.1c-0.6-0.1-1.1,0-1.6,0.3l-2.9,1.7
		c-0.2,0.1-0.5,0.2-0.7,0.2c-0.2,0-0.3-0.1-0.4-0.1c-0.1-0.1-0.3-0.2-0.4-0.3c-0.1-0.1-0.2-0.3-0.2-0.4c0-0.1-0.1-0.3-0.1-0.5
		l0.2-2.7c0-0.3,0-0.7-0.1-1c-0.1-0.3-0.3-0.6-0.5-0.8c-0.1-0.1-0.2-0.3-0.4-0.4c-1.4-1.7-2.3-3.8-2.3-6c0-5.6,5.3-10.2,11.9-10.2
		c6.1,0,11.1,3.9,11.8,9c5.1,0.2,9.1,3.8,9.1,8.1c0,1.8-0.7,3.4-1.8,4.8c-0.1,0.1-0.2,0.2-0.3,0.3c-0.2,0.2-0.3,0.4-0.4,0.7
		c-0.1,0.3-0.1,0.5-0.1,0.8l0.2,2.1c0,0.1,0,0.3,0,0.4c0,0.1-0.1,0.2-0.2,0.3c-0.1,0.1-0.2,0.2-0.3,0.2c-0.1,0.1-0.2,0.1-0.4,0.1
		c-0.2,0-0.4,0-0.6-0.1l-2.3-1.4c-0.4-0.2-0.9-0.3-1.3-0.3c-0.2,0-0.4,0.1-0.6,0.1c-0.5,0.1-1,0.1-1.5,0.1
		C40.7,50.8,37.3,48.7,35.8,45.7z M46.3,47.7c0.8-0.1,1.7,0,2.5,0.3c0.2-0.9,0.6-1.6,1.3-2.3c0.1-0.1,0.1-0.1,0.2-0.2
		c0.7-0.8,1.1-1.8,1.1-2.8c0-2.7-2.9-5.1-6.6-5.1s-6.6,2.4-6.6,5.1c0,2.7,2.9,5.1,6.6,5.1c0.4,0,0.7,0,1.1-0.1
		C45.9,47.7,46.1,47.7,46.3,47.7L46.3,47.7z"/>
</g>
<g class="st1">
	<path class="st6" d="M141-130c0-0.8,0.7-1.5,1.5-1.5s1.5,0.7,1.5,1.5s-0.7,1.5-1.5,1.5S141-129.2,141-130z M147-130
		c0-0.8,0.7-1.5,1.5-1.5s1.5,0.7,1.5,1.5s-0.7,1.5-1.5,1.5S147-129.2,147-130z M138-127v-4.5c0-0.8,0.7-1.5,1.5-1.5h18
		c0.8,0,1.5,0.7,1.5,1.5v4.5H138z M159-113.5c0,0.8-0.7,1.5-1.5,1.5h-18c-0.8,0-1.5-0.7-1.5-1.5V-124h21V-113.5z M157.5-136h-18
		c-2.5,0-4.5,2-4.5,4.5v4.5v3v10.5c0,2.5,2,4.5,4.5,4.5h18c2.5,0,4.5-2,4.5-4.5V-124v-3v-4.5C162-134,160-136,157.5-136z"/>
	<path class="st6" d="M143-130c0-0.8,0.7-1.5,1.5-1.5s1.5,0.7,1.5,1.5s-0.7,1.5-1.5,1.5S143-129.2,143-130z M149-130
		c0-0.8,0.7-1.5,1.5-1.5s1.5,0.7,1.5,1.5s-0.7,1.5-1.5,1.5S149-129.2,149-130z M140-127v-4.5c0-0.8,0.7-1.5,1.5-1.5h18
		c0.8,0,1.5,0.7,1.5,1.5v4.5H140z M161-113.5c0,0.8-0.7,1.5-1.5,1.5h-18c-0.8,0-1.5-0.7-1.5-1.5V-124h21V-113.5z M159.5-136h-18
		c-2.5,0-4.5,2-4.5,4.5v4.5v3v10.5c0,2.5,2,4.5,4.5,4.5h18c2.5,0,4.5-2,4.5-4.5V-124v-3v-4.5C164-134,162-136,159.5-136z"/>
	<path class="st7" d="M143-130c0-0.8,0.7-1.5,1.5-1.5s1.5,0.7,1.5,1.5s-0.7,1.5-1.5,1.5S143-129.2,143-130z M149-130
		c0-0.8,0.7-1.5,1.5-1.5s1.5,0.7,1.5,1.5s-0.7,1.5-1.5,1.5S149-129.2,149-130z M140-127v-4.5c0-0.8,0.7-1.5,1.5-1.5h18
		c0.8,0,1.5,0.7,1.5,1.5v4.5H140z M161-113.5c0,0.8-0.7,1.5-1.5,1.5h-18c-0.8,0-1.5-0.7-1.5-1.5V-124h21V-113.5z M159.5-136h-18
		c-2.5,0-4.5,2-4.5,4.5v4.5v3v10.5c0,2.5,2,4.5,4.5,4.5h18c2.5,0,4.5-2,4.5-4.5V-124v-3v-4.5C164-134,162-136,159.5-136z"/>
	<defs>
		<filter id="Adobe_OpacityMaskFilter" filterUnits="userSpaceOnUse" x="132.5" y="-140.5" width="36" height="36">
			<feColorMatrix  type="matrix" values="1 0 0 0 0  0 1 0 0 0  0 0 1 0 0  0 0 0 1 0"/>
		</filter>
	</defs>
	<mask maskUnits="userSpaceOnUse" x="132.5" y="-140.5" width="36" height="36" id="mask0_2031_46172_1_" style="display:inline;">
		<path style="fill-rule:evenodd;clip-rule:evenodd;fill:#FFFFFF;filter:url(#Adobe_OpacityMaskFilter);" d="M143-130
			c0-0.8,0.7-1.5,1.5-1.5s1.5,0.7,1.5,1.5s-0.7,1.5-1.5,1.5S143-129.2,143-130z M149-130c0-0.8,0.7-1.5,1.5-1.5s1.5,0.7,1.5,1.5
			s-0.7,1.5-1.5,1.5S149-129.2,149-130z M140-127v-4.5c0-0.8,0.7-1.5,1.5-1.5h18c0.8,0,1.5,0.7,1.5,1.5v4.5H140z M161-113.5
			c0,0.8-0.7,1.5-1.5,1.5h-18c-0.8,0-1.5-0.7-1.5-1.5V-124h21V-113.5z M159.5-136h-18c-2.5,0-4.5,2-4.5,4.5v4.5v3v10.5
			c0,2.5,2,4.5,4.5,4.5h18c2.5,0,4.5-2,4.5-4.5V-124v-3v-4.5C164-134,162-136,159.5-136z"/>
	</mask>
	<g class="st9">
		<rect x="132.5" y="-140.5" class="st4" width="36" height="36"/>
	</g>
	<path class="st7" d="M141-130c0-0.8,0.7-1.5,1.5-1.5s1.5,0.7,1.5,1.5s-0.7,1.5-1.5,1.5S141-129.2,141-130z M147-130
		c0-0.8,0.7-1.5,1.5-1.5s1.5,0.7,1.5,1.5s-0.7,1.5-1.5,1.5S147-129.2,147-130z M138-127v-4.5c0-0.8,0.7-1.5,1.5-1.5h18
		c0.8,0,1.5,0.7,1.5,1.5v4.5H138z M159-113.5c0,0.8-0.7,1.5-1.5,1.5h-18c-0.8,0-1.5-0.7-1.5-1.5V-124h21V-113.5z M157.5-136h-18
		c-2.5,0-4.5,2-4.5,4.5v4.5v3v10.5c0,2.5,2,4.5,4.5,4.5h18c2.5,0,4.5-2,4.5-4.5V-124v-3v-4.5C162-134,160-136,157.5-136z"/>
	<defs>
		<filter id="Adobe_OpacityMaskFilter_1_" filterUnits="userSpaceOnUse" x="130.5" y="-140.5" width="36" height="36">
			<feColorMatrix  type="matrix" values="1 0 0 0 0  0 1 0 0 0  0 0 1 0 0  0 0 0 1 0"/>
		</filter>
	</defs>
	<mask maskUnits="userSpaceOnUse" x="130.5" y="-140.5" width="36" height="36" id="mask1_2031_46172_1_" style="display:inline;">
		<path style="fill-rule:evenodd;clip-rule:evenodd;fill:#FFFFFF;filter:url(#Adobe_OpacityMaskFilter_1_);" d="M141-130
			c0-0.8,0.7-1.5,1.5-1.5s1.5,0.7,1.5,1.5s-0.7,1.5-1.5,1.5S141-129.2,141-130z M147-130c0-0.8,0.7-1.5,1.5-1.5s1.5,0.7,1.5,1.5
			s-0.7,1.5-1.5,1.5S147-129.2,147-130z M138-127v-4.5c0-0.8,0.7-1.5,1.5-1.5h18c0.8,0,1.5,0.7,1.5,1.5v4.5H138z M159-113.5
			c0,0.8-0.7,1.5-1.5,1.5h-18c-0.8,0-1.5-0.7-1.5-1.5V-124h21V-113.5z M157.5-136h-18c-2.5,0-4.5,2-4.5,4.5v4.5v3v10.5
			c0,2.5,2,4.5,4.5,4.5h18c2.5,0,4.5-2,4.5-4.5V-124v-3v-4.5C162-134,160-136,157.5-136z"/>
	</mask>
	<g class="st11">
		<rect x="130.5" y="-140.5" class="st5" width="36" height="36"/>
	</g>
</g>
</svg>
