<?xml version="1.0" encoding="utf-8"?>
<!-- Generator: Adobe Illustrator 25.2.1, SVG Export Plug-In . SVG Version: 6.00 Build 0)  -->
<svg version="1.1" id="Layer_1" xmlns="http://www.w3.org/2000/svg" xmlns:xlink="http://www.w3.org/1999/xlink" x="0px" y="0px"
	 width="78px" height="78px" viewBox="0 0 78 78" style="enable-background:new 0 0 78 78;" xml:space="preserve">
<style type="text/css">
	.st0{fill:#F5F5F5;stroke:#E4E4E4;}
	.st1{fill:none;stroke:#BBC9E3;stroke-width:3;stroke-linecap:round;stroke-linejoin:round;}
	.st2{fill:none;stroke:#BBC9E3;stroke-width:2;stroke-linecap:round;stroke-linejoin:round;}
	.st3{fill:none;stroke:#0D51D9;stroke-width:3;stroke-linecap:round;stroke-linejoin:round;}
	.st4{fill:none;stroke:#0D51D9;stroke-width:2;stroke-linecap:round;stroke-linejoin:round;}
</style>
<circle class="st0" cx="39" cy="39" r="38.5"/>
<g>
	<path class="st1" d="M49,27H31c-1.7,0-3,1.3-3,3v18c0,1.7,1.3,3,3,3h18c1.7,0,3-1.3,3-3V30C52,28.3,50.7,27,49,27z"/>
	<path class="st1" d="M44.5,34.5h-9v9h9V34.5z"/>
	<path class="st2" d="M35.5,22.5V27"/>
	<path class="st1" d="M44.5,22.5V27"/>
	<path class="st1" d="M35.5,51v4.5"/>
	<path class="st1" d="M44.5,51v4.5"/>
	<path class="st1" d="M52,34.5h4.5"/>
	<path class="st1" d="M52,42h4.5"/>
	<path class="st1" d="M23.5,34.5H28"/>
	<path class="st1" d="M23.5,42H28"/>
	<path class="st3" d="M47,27H29c-1.7,0-3,1.3-3,3v18c0,1.7,1.3,3,3,3h18c1.7,0,3-1.3,3-3V30C50,28.3,48.7,27,47,27z"/>
	<path class="st3" d="M42.5,34.5h-9v9h9V34.5z"/>
	<path class="st4" d="M33.5,22.5V27"/>
	<path class="st3" d="M42.5,22.5V27"/>
	<path class="st3" d="M33.5,51v4.5"/>
	<path class="st3" d="M42.5,51v4.5"/>
	<path class="st3" d="M50,34.5h4.5"/>
	<path class="st3" d="M50,42h4.5"/>
	<path class="st3" d="M21.5,34.5H26"/>
	<path class="st3" d="M21.5,42H26"/>
</g>
</svg>
