<?xml version="1.0" encoding="utf-8"?>
<!-- Generator: Adobe Illustrator 25.2.1, SVG Export Plug-In . SVG Version: 6.00 Build 0)  -->
<svg version="1.1" id="Layer_1" xmlns="http://www.w3.org/2000/svg" xmlns:xlink="http://www.w3.org/1999/xlink" x="0px" y="0px"
	 width="33px" height="34.5px" viewBox="0 0 33 34.5" style="enable-background:new 0 0 33 34.5;" xml:space="preserve">
<style type="text/css">
	.st0{fill:none;stroke:#232647;stroke-width:3;stroke-linecap:round;stroke-linejoin:round;}
</style>
<g>
	<path class="st0" d="M1.5,26.5v-10c0-4,1.6-7.8,4.4-10.6c2.8-2.8,6.6-4.4,10.6-4.4s7.8,1.6,10.6,4.4c2.8,2.8,4.4,6.6,4.4,10.6v10"
		/>
	<path class="st0" d="M31.5,29.6c0,0.9-0.4,1.7-1,2.4c-0.6,0.6-1.5,1-2.4,1h-1.7c-0.9,0-1.7-0.4-2.4-1c-0.6-0.6-1-1.5-1-2.4v-5
		c0-0.9,0.4-1.7,1-2.4c0.6-0.6,1.5-1,2.4-1h5V29.6z M1.5,29.6c0,0.9,0.4,1.7,1,2.4c0.6,0.6,1.5,1,2.4,1h1.7c0.9,0,1.7-0.4,2.4-1
		c0.6-0.6,1-1.5,1-2.4v-5c0-0.9-0.4-1.7-1-2.4c-0.6-0.6-1.5-1-2.4-1h-5V29.6z"/>
</g>
</svg>
