<svg width="26" height="24" viewBox="0 0 26 24" fill="none" xmlns="http://www.w3.org/2000/svg">
<path d="M22.59 13.41L15.42 20.58C15.2343 20.766 15.0137 20.9135 14.7709 21.0141C14.5281 21.1148 14.2678 21.1666 14.005 21.1666C13.7422 21.1666 13.4819 21.1148 13.2391 21.0141C12.9963 20.9135 12.7757 20.766 12.59 20.58L4 12V2H14L22.59 10.59C22.9625 10.9647 23.1716 11.4716 23.1716 12C23.1716 12.5284 22.9625 13.0353 22.59 13.41V13.41Z" stroke="#AFC3EC" stroke-width="2" stroke-linecap="round" stroke-linejoin="round"/>
<path d="M9 7H9.01" stroke="#AFC3EC" stroke-width="2" stroke-linecap="round" stroke-linejoin="round"/>
<path d="M20.59 13.41L13.42 20.58C13.2343 20.766 13.0137 20.9135 12.7709 21.0141C12.5281 21.1148 12.2678 21.1666 12.005 21.1666C11.7422 21.1666 11.4819 21.1148 11.2391 21.0141C10.9963 20.9135 10.7757 20.766 10.59 20.58L2 12V2H12L20.59 10.59C20.9625 10.9647 21.1716 11.4716 21.1716 12C21.1716 12.5284 20.9625 13.0353 20.59 13.41V13.41Z" stroke="#0D51D9" stroke-width="2" stroke-linecap="round" stroke-linejoin="round"/>
<path d="M7 7H7.01" stroke="#0D51D9" stroke-width="2" stroke-linecap="round" stroke-linejoin="round"/>
</svg>
