<svg width="26" height="24" viewBox="0 0 26 24" fill="none" xmlns="http://www.w3.org/2000/svg">
<path d="M5 18V12C5 9.61305 5.94821 7.32387 7.63604 5.63604C9.32387 3.94821 11.6131 3 14 3C16.3869 3 18.6761 3.94821 20.364 5.63604C22.0518 7.32387 23 9.61305 23 12V18" stroke="#AFC3EC" stroke-width="2" stroke-linecap="round" stroke-linejoin="round"/>
<path d="M23 19C23 19.5304 22.7893 20.0391 22.4142 20.4142C22.0391 20.7893 21.5304 21 21 21H20C19.4696 21 18.9609 20.7893 18.5858 20.4142C18.2107 20.0391 18 19.5304 18 19V16C18 15.4696 18.2107 14.9609 18.5858 14.5858C18.9609 14.2107 19.4696 14 20 14H23V19ZM5 19C5 19.5304 5.21071 20.0391 5.58579 20.4142C5.96086 20.7893 6.46957 21 7 21H8C8.53043 21 9.03914 20.7893 9.41421 20.4142C9.78929 20.0391 10 19.5304 10 19V16C10 15.4696 9.78929 14.9609 9.41421 14.5858C9.03914 14.2107 8.53043 14 8 14H5V19Z" stroke="#AFC3EC" stroke-width="2" stroke-linecap="round" stroke-linejoin="round"/>
<path d="M3 18V12C3 9.61305 3.94821 7.32387 5.63604 5.63604C7.32387 3.94821 9.61305 3 12 3C14.3869 3 16.6761 3.94821 18.364 5.63604C20.0518 7.32387 21 9.61305 21 12V18" stroke="#0D51D9" stroke-width="2" stroke-linecap="round" stroke-linejoin="round"/>
<path d="M21 19C21 19.5304 20.7893 20.0391 20.4142 20.4142C20.0391 20.7893 19.5304 21 19 21H18C17.4696 21 16.9609 20.7893 16.5858 20.4142C16.2107 20.0391 16 19.5304 16 19V16C16 15.4696 16.2107 14.9609 16.5858 14.5858C16.9609 14.2107 17.4696 14 18 14H21V19ZM3 19C3 19.5304 3.21071 20.0391 3.58579 20.4142C3.96086 20.7893 4.46957 21 5 21H6C6.53043 21 7.03914 20.7893 7.41421 20.4142C7.78929 20.0391 8 19.5304 8 19V16C8 15.4696 7.78929 14.9609 7.41421 14.5858C7.03914 14.2107 6.53043 14 6 14H3V19Z" stroke="#0D51D9" stroke-width="2" stroke-linecap="round" stroke-linejoin="round"/>
</svg>
