<?xml version="1.0" encoding="utf-8"?>
<!-- Generator: Adobe Illustrator 25.2.1, SVG Export Plug-In . SVG Version: 6.00 Build 0)  -->
<svg version="1.1" id="Layer_1" xmlns="http://www.w3.org/2000/svg" xmlns:xlink="http://www.w3.org/1999/xlink" x="0px" y="0px"
	 width="78px" height="78px" viewBox="0 0 78 78" style="enable-background:new 0 0 78 78;" xml:space="preserve">
<style type="text/css">
	.st0{fill:#F5F5F5;stroke:#E4E4E4;}
	.st1{fill-rule:evenodd;clip-rule:evenodd;fill:#BBC9E3;}
	.st2{fill-rule:evenodd;clip-rule:evenodd;fill:#0D51D9;}
</style>
<circle class="st0" cx="39" cy="39" r="38.5"/>
<g>
	<path class="st1" d="M48,42c-1.7,0-3-1.3-3-3s1.3-3,3-3s3,1.3,3,3S49.7,42,48,42z M27,39c0-1.7,1.3-3,3-3c1.7,0,3,1.3,3,3
		s-1.3,3-3,3C28.4,42,27,40.7,27,39z M48,33c-3.3,0-6,2.7-6,6c0,1.1,0.3,2.1,0.8,3h-7.7c0.5-0.9,0.8-1.9,0.8-3c0-3.3-2.7-6-6-6
		s-6,2.7-6,6s2.7,6,6,6h18c3.3,0,6-2.7,6-6S51.3,33,48,33z"/>
</g>
<path class="st2" d="M48,42c-1.7,0-3-1.3-3-3s1.3-3,3-3s3,1.3,3,3S49.7,42,48,42z M27,39c0-1.7,1.3-3,3-3c1.7,0,3,1.3,3,3
	s-1.3,3-3,3C28.4,42,27,40.7,27,39z M48,33c-3.3,0-6,2.7-6,6c0,1.1,0.3,2.1,0.8,3h-7.7c0.5-0.9,0.8-1.9,0.8-3c0-3.3-2.7-6-6-6
	s-6,2.7-6,6s2.7,6,6,6h18c3.3,0,6-2.7,6-6S51.3,33,48,33z"/>
</svg>
