<?xml version="1.0" encoding="utf-8"?>
<!-- Generator: Adobe Illustrator 25.2.1, SVG Export Plug-In . SVG Version: 6.00 Build 0)  -->
<svg version="1.1" id="Layer_1" xmlns="http://www.w3.org/2000/svg" xmlns:xlink="http://www.w3.org/1999/xlink" x="0px" y="0px"
	 width="78px" height="78px" viewBox="0 0 78 78" style="enable-background:new 0 0 78 78;" xml:space="preserve">
<style type="text/css">
	.st0{fill:#F5F5F5;stroke:#E4E4E4;}
	.st1{fill:none;stroke:#BBC9E3;stroke-width:2.6634;stroke-linecap:round;stroke-miterlimit:10;}
	.st2{fill:none;stroke:#0D51D9;stroke-width:2.3971;stroke-linecap:round;stroke-miterlimit:10;}
</style>
<g>
	<circle class="st0" cx="39" cy="39" r="38.5"/>
</g>
<g>
	<g>
		<path class="st1" d="M28,45.8V33.4c0-0.8,0.7-1.5,1.5-1.5h21c0.8,0,1.5,0.7,1.5,1.5v12.4c0,0.8-0.7,1.5-1.5,1.5h-21
			C28.7,47.2,28,46.6,28,45.8z"/>
		<line class="st1" x1="40" y1="47.2" x2="40" y2="50.8"/>
		<line class="st1" x1="34.2" y1="50.8" x2="45.8" y2="50.8"/>
	</g>
	<g>
		<path class="st2" d="M26,45.8V33.4c0-0.8,0.7-1.5,1.5-1.5h21c0.8,0,1.5,0.7,1.5,1.5v12.4c0,0.8-0.7,1.5-1.5,1.5h-21
			C26.7,47.2,26,46.6,26,45.8z"/>
		<line class="st2" x1="38" y1="47.2" x2="38" y2="50.8"/>
		<line class="st2" x1="32.2" y1="50.8" x2="43.8" y2="50.8"/>
	</g>
</g>
</svg>
