<?xml version="1.0" encoding="utf-8"?>
<!-- Generator: Adobe Illustrator 25.2.1, SVG Export Plug-In . SVG Version: 6.00 Build 0)  -->
<svg version="1.1" id="Layer_1" xmlns="http://www.w3.org/2000/svg" xmlns:xlink="http://www.w3.org/1999/xlink" x="0px" y="0px"
	 width="78px" height="78px" viewBox="0 0 78 78" style="enable-background:new 0 0 78 78;" xml:space="preserve">
<style type="text/css">
	.st0{fill:#F5F5F5;stroke:#E4E4E4;}
	.st1{display:none;}
	.st2{display:inline;fill-rule:evenodd;clip-rule:evenodd;fill:#FFFFFF;}
	.st3{display:inline;fill-rule:evenodd;clip-rule:evenodd;fill:#231F20;}
	.st4{display:inline;fill-rule:evenodd;clip-rule:evenodd;fill:#FFFFFF;filter:url(#Adobe_OpacityMaskFilter);}
	.st5{display:inline;mask:url(#mask0_1893_43375_1_);}
	.st6{fill:#BBC9E3;}
	.st7{display:inline;fill-rule:evenodd;clip-rule:evenodd;fill:#FFFFFF;filter:url(#Adobe_OpacityMaskFilter_1_);}
	.st8{display:inline;mask:url(#mask1_1893_43375_1_);}
	.st9{fill:#0D51D9;}
	.st10{display:inline;fill:none;stroke:#BBC9E3;stroke-width:3;stroke-linecap:round;stroke-linejoin:round;}
	.st11{display:inline;fill:none;stroke:#0D51D9;stroke-width:3;stroke-linecap:round;stroke-linejoin:round;}
	.st12{display:inline;}
	.st13{clip-path:url(#SVGID_2_);}
	.st14{fill:none;stroke:#BBC9E3;stroke-width:3;stroke-linecap:round;stroke-linejoin:round;}
	.st15{fill:none;stroke:#0D51D9;stroke-width:3;stroke-linecap:round;stroke-linejoin:round;}
	.st16{clip-path:url(#SVGID_4_);}
	.st17{fill:none;stroke:#BBC9E3;stroke-width:2;stroke-linecap:round;stroke-linejoin:round;}
	.st18{fill:none;stroke:#BBC9E3;stroke-width:2.5;stroke-linecap:round;stroke-linejoin:round;}
	.st19{fill:none;stroke:#0D51D9;stroke-width:2;stroke-linecap:round;stroke-linejoin:round;}
	.st20{fill:none;stroke:#0D51D9;stroke-width:2.5;stroke-linecap:round;stroke-linejoin:round;}
</style>
<g>
	<circle class="st0" cx="39" cy="39" r="38.5"/>
</g>
<g class="st1">
	<path class="st2" d="M38,29.9c-0.8,0-1.5-0.7-1.5-1.5c0-0.8,0.7-1.5,1.5-1.5s1.5,0.7,1.5,1.5C39.5,29.2,38.8,29.9,38,29.9z
		 M42.5,28.3c0-2.5-2-4.6-4.5-4.6s-4.5,2.1-4.5,4.6c0,2,1.3,3.7,3,4.3v20.1c0,0.8,0.7,1.5,1.5,1.5c0.8,0,1.5-0.7,1.5-1.5V32.6
		C41.2,32,42.5,30.3,42.5,28.3z M29,48.1c-0.8,0-1.5-0.7-1.5-1.5c0-0.8,0.7-1.5,1.5-1.5s1.5,0.7,1.5,1.5
		C30.5,47.5,29.8,48.1,29,48.1z M30.5,42.3V25.3c0-0.8-0.7-1.5-1.5-1.5s-1.5,0.7-1.5,1.5v17.1c-1.7,0.6-3,2.3-3,4.3
		c0,2,1.3,3.7,3,4.3v1.8c0,0.8,0.7,1.5,1.5,1.5s1.5-0.7,1.5-1.5v-1.8c1.7-0.6,3-2.3,3-4.3C33.5,44.6,32.2,43,30.5,42.3z M47,42
		c-0.8,0-1.5-0.7-1.5-1.5S46.2,39,47,39s1.5,0.7,1.5,1.5S47.8,42,47,42z M51.5,40.5c0-2-1.3-3.7-3-4.3v-11c0-0.8-0.7-1.5-1.5-1.5
		s-1.5,0.7-1.5,1.5v11c-1.7,0.6-3,2.3-3,4.3s1.3,3.7,3,4.3v7.9c0,0.8,0.7,1.5,1.5,1.5s1.5-0.7,1.5-1.5v-7.9
		C50.2,44.2,51.5,42.5,51.5,40.5z"/>
	<path class="st2" d="M40,29.9c-0.8,0-1.5-0.7-1.5-1.5c0-0.8,0.7-1.5,1.5-1.5s1.5,0.7,1.5,1.5C41.5,29.2,40.8,29.9,40,29.9z
		 M44.5,28.3c0-2.5-2-4.6-4.5-4.6c-2.5,0-4.5,2.1-4.5,4.6c0,2,1.3,3.7,3,4.3v20.1c0,0.8,0.7,1.5,1.5,1.5c0.8,0,1.5-0.7,1.5-1.5V32.6
		C43.2,32,44.5,30.3,44.5,28.3z M31,48.1c-0.8,0-1.5-0.7-1.5-1.5c0-0.8,0.7-1.5,1.5-1.5s1.5,0.7,1.5,1.5
		C32.5,47.5,31.8,48.1,31,48.1z M32.5,42.3V25.3c0-0.8-0.7-1.5-1.5-1.5s-1.5,0.7-1.5,1.5v17.1c-1.7,0.6-3,2.3-3,4.3
		c0,2,1.3,3.7,3,4.3v1.8c0,0.8,0.7,1.5,1.5,1.5s1.5-0.7,1.5-1.5v-1.8c1.7-0.6,3-2.3,3-4.3C35.5,44.6,34.2,43,32.5,42.3z M49,42
		c-0.8,0-1.5-0.7-1.5-1.5S48.2,39,49,39s1.5,0.7,1.5,1.5S49.8,42,49,42z M53.5,40.5c0-2-1.3-3.7-3-4.3v-11c0-0.8-0.7-1.5-1.5-1.5
		s-1.5,0.7-1.5,1.5v11c-1.7,0.6-3,2.3-3,4.3s1.3,3.7,3,4.3v7.9c0,0.8,0.7,1.5,1.5,1.5s1.5-0.7,1.5-1.5v-7.9
		C52.2,44.2,53.5,42.5,53.5,40.5z"/>
	<path class="st3" d="M40,29.9c-0.8,0-1.5-0.7-1.5-1.5c0-0.8,0.7-1.5,1.5-1.5s1.5,0.7,1.5,1.5C41.5,29.2,40.8,29.9,40,29.9z
		 M44.5,28.3c0-2.5-2-4.6-4.5-4.6c-2.5,0-4.5,2.1-4.5,4.6c0,2,1.3,3.7,3,4.3v20.1c0,0.8,0.7,1.5,1.5,1.5c0.8,0,1.5-0.7,1.5-1.5V32.6
		C43.2,32,44.5,30.3,44.5,28.3z M31,48.1c-0.8,0-1.5-0.7-1.5-1.5c0-0.8,0.7-1.5,1.5-1.5s1.5,0.7,1.5,1.5
		C32.5,47.5,31.8,48.1,31,48.1z M32.5,42.3V25.3c0-0.8-0.7-1.5-1.5-1.5s-1.5,0.7-1.5,1.5v17.1c-1.7,0.6-3,2.3-3,4.3
		c0,2,1.3,3.7,3,4.3v1.8c0,0.8,0.7,1.5,1.5,1.5s1.5-0.7,1.5-1.5v-1.8c1.7-0.6,3-2.3,3-4.3C35.5,44.6,34.2,43,32.5,42.3z M49,42
		c-0.8,0-1.5-0.7-1.5-1.5S48.2,39,49,39s1.5,0.7,1.5,1.5S49.8,42,49,42z M53.5,40.5c0-2-1.3-3.7-3-4.3v-11c0-0.8-0.7-1.5-1.5-1.5
		s-1.5,0.7-1.5,1.5v11c-1.7,0.6-3,2.3-3,4.3s1.3,3.7,3,4.3v7.9c0,0.8,0.7,1.5,1.5,1.5s1.5-0.7,1.5-1.5v-7.9
		C52.2,44.2,53.5,42.5,53.5,40.5z"/>
	<defs>
		<filter id="Adobe_OpacityMaskFilter" filterUnits="userSpaceOnUse" x="22" y="20.7" width="36" height="36.6">
			<feColorMatrix  type="matrix" values="1 0 0 0 0  0 1 0 0 0  0 0 1 0 0  0 0 0 1 0"/>
		</filter>
	</defs>
	<mask maskUnits="userSpaceOnUse" x="22" y="20.7" width="36" height="36.6" id="mask0_1893_43375_1_" class="st12">
		<path style="fill-rule:evenodd;clip-rule:evenodd;fill:#FFFFFF;filter:url(#Adobe_OpacityMaskFilter);" d="M40,29.9
			c-0.8,0-1.5-0.7-1.5-1.5c0-0.8,0.7-1.5,1.5-1.5s1.5,0.7,1.5,1.5C41.5,29.2,40.8,29.9,40,29.9z M44.5,28.3c0-2.5-2-4.6-4.5-4.6
			c-2.5,0-4.5,2.1-4.5,4.6c0,2,1.3,3.7,3,4.3v20.1c0,0.8,0.7,1.5,1.5,1.5c0.8,0,1.5-0.7,1.5-1.5V32.6C43.2,32,44.5,30.3,44.5,28.3z
			 M31,48.1c-0.8,0-1.5-0.7-1.5-1.5c0-0.8,0.7-1.5,1.5-1.5s1.5,0.7,1.5,1.5C32.5,47.5,31.8,48.1,31,48.1z M32.5,42.3V25.3
			c0-0.8-0.7-1.5-1.5-1.5s-1.5,0.7-1.5,1.5v17.1c-1.7,0.6-3,2.3-3,4.3c0,2,1.3,3.7,3,4.3v1.8c0,0.8,0.7,1.5,1.5,1.5s1.5-0.7,1.5-1.5
			v-1.8c1.7-0.6,3-2.3,3-4.3C35.5,44.6,34.2,43,32.5,42.3z M49,42c-0.8,0-1.5-0.7-1.5-1.5S48.2,39,49,39s1.5,0.7,1.5,1.5
			S49.8,42,49,42z M53.5,40.5c0-2-1.3-3.7-3-4.3v-11c0-0.8-0.7-1.5-1.5-1.5s-1.5,0.7-1.5,1.5v11c-1.7,0.6-3,2.3-3,4.3s1.3,3.7,3,4.3
			v7.9c0,0.8,0.7,1.5,1.5,1.5s1.5-0.7,1.5-1.5v-7.9C52.2,44.2,53.5,42.5,53.5,40.5z"/>
	</mask>
	<g class="st5">
		<rect x="22" y="20.7" class="st6" width="36" height="36.6"/>
	</g>
	<path class="st3" d="M38,29.9c-0.8,0-1.5-0.7-1.5-1.5c0-0.8,0.7-1.5,1.5-1.5s1.5,0.7,1.5,1.5C39.5,29.2,38.8,29.9,38,29.9z
		 M42.5,28.3c0-2.5-2-4.6-4.5-4.6s-4.5,2.1-4.5,4.6c0,2,1.3,3.7,3,4.3v20.1c0,0.8,0.7,1.5,1.5,1.5c0.8,0,1.5-0.7,1.5-1.5V32.6
		C41.2,32,42.5,30.3,42.5,28.3z M29,48.1c-0.8,0-1.5-0.7-1.5-1.5c0-0.8,0.7-1.5,1.5-1.5s1.5,0.7,1.5,1.5
		C30.5,47.5,29.8,48.1,29,48.1z M30.5,42.3V25.3c0-0.8-0.7-1.5-1.5-1.5s-1.5,0.7-1.5,1.5v17.1c-1.7,0.6-3,2.3-3,4.3
		c0,2,1.3,3.7,3,4.3v1.8c0,0.8,0.7,1.5,1.5,1.5s1.5-0.7,1.5-1.5v-1.8c1.7-0.6,3-2.3,3-4.3C33.5,44.6,32.2,43,30.5,42.3z M47,42
		c-0.8,0-1.5-0.7-1.5-1.5S46.2,39,47,39s1.5,0.7,1.5,1.5S47.8,42,47,42z M51.5,40.5c0-2-1.3-3.7-3-4.3v-11c0-0.8-0.7-1.5-1.5-1.5
		s-1.5,0.7-1.5,1.5v11c-1.7,0.6-3,2.3-3,4.3s1.3,3.7,3,4.3v7.9c0,0.8,0.7,1.5,1.5,1.5s1.5-0.7,1.5-1.5v-7.9
		C50.2,44.2,51.5,42.5,51.5,40.5z"/>
	<defs>
		<filter id="Adobe_OpacityMaskFilter_1_" filterUnits="userSpaceOnUse" x="20" y="20.7" width="36" height="36.6">
			<feColorMatrix  type="matrix" values="1 0 0 0 0  0 1 0 0 0  0 0 1 0 0  0 0 0 1 0"/>
		</filter>
	</defs>
	<mask maskUnits="userSpaceOnUse" x="20" y="20.7" width="36" height="36.6" id="mask1_1893_43375_1_" class="st12">
		<path style="fill-rule:evenodd;clip-rule:evenodd;fill:#FFFFFF;filter:url(#Adobe_OpacityMaskFilter_1_);" d="M38,29.9
			c-0.8,0-1.5-0.7-1.5-1.5c0-0.8,0.7-1.5,1.5-1.5s1.5,0.7,1.5,1.5C39.5,29.2,38.8,29.9,38,29.9z M42.5,28.3c0-2.5-2-4.6-4.5-4.6
			s-4.5,2.1-4.5,4.6c0,2,1.3,3.7,3,4.3v20.1c0,0.8,0.7,1.5,1.5,1.5c0.8,0,1.5-0.7,1.5-1.5V32.6C41.2,32,42.5,30.3,42.5,28.3z
			 M29,48.1c-0.8,0-1.5-0.7-1.5-1.5c0-0.8,0.7-1.5,1.5-1.5s1.5,0.7,1.5,1.5C30.5,47.5,29.8,48.1,29,48.1z M30.5,42.3V25.3
			c0-0.8-0.7-1.5-1.5-1.5s-1.5,0.7-1.5,1.5v17.1c-1.7,0.6-3,2.3-3,4.3c0,2,1.3,3.7,3,4.3v1.8c0,0.8,0.7,1.5,1.5,1.5s1.5-0.7,1.5-1.5
			v-1.8c1.7-0.6,3-2.3,3-4.3C33.5,44.6,32.2,43,30.5,42.3z M47,42c-0.8,0-1.5-0.7-1.5-1.5S46.2,39,47,39s1.5,0.7,1.5,1.5
			S47.8,42,47,42z M51.5,40.5c0-2-1.3-3.7-3-4.3v-11c0-0.8-0.7-1.5-1.5-1.5s-1.5,0.7-1.5,1.5v11c-1.7,0.6-3,2.3-3,4.3s1.3,3.7,3,4.3
			v7.9c0,0.8,0.7,1.5,1.5,1.5s1.5-0.7,1.5-1.5v-7.9C50.2,44.2,51.5,42.5,51.5,40.5z"/>
	</mask>
	<g class="st8">
		<rect x="20" y="20.7" class="st9" width="36" height="36.6"/>
	</g>
</g>
<g class="st1">
	<path class="st10" d="M25,53v-3.2c0-1.4,0.5-2.8,1.3-3.9c0.8-1.1,2-1.9,3.4-2.3"/>
	<path class="st10" d="M32.3,25c-1.3,0.4-2.5,1.2-3.4,2.3c-0.8,1.1-1.3,2.5-1.3,3.9s0.5,2.8,1.3,3.9c0.8,1.1,2,1.9,3.4,2.3"/>
	<path class="st10" d="M49.9,53v-3.1c0-1.7-0.5-3.2-1.5-4.4c-0.9-1.2-2.2-1.8-3.6-1.8H34.7c-1.3,0-2.6,0.7-3.6,1.8
		c-0.9,1.2-1.5,2.7-1.5,4.4V53"/>
	<path class="st10" d="M39.8,37.4c3.4,0,6.2-2.8,6.2-6.2c0-3.4-2.8-6.2-6.2-6.2c-3.4,0-6.2,2.8-6.2,6.2
		C33.6,34.7,36.3,37.4,39.8,37.4z"/>
	<path class="st10" d="M55.3,53v-3.1c0-1.4-0.5-2.7-1.3-3.8c-0.8-1.1-2-1.9-3.4-2.2"/>
	<path class="st10" d="M46.7,25.2c1.3,0.3,2.5,1.1,3.4,2.2c0.8,1.1,1.3,2.4,1.3,3.8c0,1.4-0.5,2.7-1.3,3.8c-0.8,1.1-2,1.9-3.4,2.2"
		/>
	<path class="st11" d="M22.7,53v-3.2c0-1.4,0.5-2.8,1.3-3.9c0.8-1.1,2-1.9,3.4-2.3"/>
	<path class="st11" d="M30.3,25c-1.3,0.4-2.5,1.2-3.4,2.3c-0.8,1.1-1.3,2.5-1.3,3.9s0.5,2.8,1.3,3.9c0.8,1.1,2,1.9,3.4,2.3"/>
	<path class="st11" d="M47.6,53v-3.1c0-1.7-0.5-3.2-1.5-4.4c-0.9-1.2-2.2-1.8-3.6-1.8H32.4c-1.3,0-2.6,0.7-3.6,1.8
		c-0.9,1.2-1.5,2.7-1.5,4.4V53"/>
	<path class="st11" d="M37.4,37.4c3.4,0,6.2-2.8,6.2-6.2c0-3.4-2.8-6.2-6.2-6.2c-3.4,0-6.2,2.8-6.2,6.2C31.2,34.7,34,37.4,37.4,37.4
		z"/>
	<path class="st11" d="M53,53v-3.1c0-1.4-0.5-2.7-1.3-3.8c-0.8-1.1-2-1.9-3.4-2.2"/>
	<path class="st11" d="M44.7,25.2c1.3,0.3,2.5,1.1,3.4,2.2c0.8,1.1,1.3,2.4,1.3,3.8c0,1.4-0.5,2.7-1.3,3.8c-0.8,1.1-2,1.9-3.4,2.2"
		/>
</g>
<g class="st1">
	<path class="st10" d="M26.5,48v-9c0-3.6,1.4-7,4-9.5c2.5-2.5,6-4,9.5-4c3.6,0,7,1.4,9.5,4c2.5,2.5,4,6,4,9.5v9"/>
	<path class="st10" d="M53.5,49.5c0,0.8-0.3,1.6-0.9,2.1s-1.3,0.9-2.1,0.9H49c-0.8,0-1.6-0.3-2.1-0.9S46,50.3,46,49.5V45
		c0-0.8,0.3-1.6,0.9-2.1S48.2,42,49,42h4.5V49.5z M26.5,49.5c0,0.8,0.3,1.6,0.9,2.1c0.6,0.6,1.3,0.9,2.1,0.9H31
		c0.8,0,1.6-0.3,2.1-0.9s0.9-1.3,0.9-2.1V45c0-0.8-0.3-1.6-0.9-2.1S31.8,42,31,42h-4.5V49.5z"/>
	<path class="st11" d="M24.5,48v-9c0-3.6,1.4-7,4-9.5s6-4,9.5-4c3.6,0,7,1.4,9.5,4c2.5,2.5,4,6,4,9.5v9"/>
	<path class="st11" d="M51.5,49.5c0,0.8-0.3,1.6-0.9,2.1s-1.3,0.9-2.1,0.9H47c-0.8,0-1.6-0.3-2.1-0.9S44,50.3,44,49.5V45
		c0-0.8,0.3-1.6,0.9-2.1S46.2,42,47,42h4.5V49.5z M24.5,49.5c0,0.8,0.3,1.6,0.9,2.1c0.6,0.6,1.3,0.9,2.1,0.9H29
		c0.8,0,1.6-0.3,2.1-0.9c0.6-0.6,0.9-1.3,0.9-2.1V45c0-0.8-0.3-1.6-0.9-2.1C30.6,42.3,29.8,42,29,42h-4.5V49.5z"/>
</g>
<g class="st1">
	<g class="st12">
		<defs>
			<rect id="SVGID_1_" x="21" y="21" width="36" height="36"/>
		</defs>
		<clipPath id="SVGID_2_">
			<use xlink:href="#SVGID_1_"  style="overflow:visible;"/>
		</clipPath>
		<g class="st13">
			<path class="st14" d="M39,33c7.5,0,13.5-2,13.5-4.5S46.5,24,39,24s-13.5,2-13.5,4.5S31.5,33,39,33z"/>
			<path class="st14" d="M52.5,39c0,2.5-6,4.5-13.5,4.5s-13.5-2-13.5-4.5"/>
			<path class="st14" d="M25.5,28.5v21c0,2.5,6,4.5,13.5,4.5s13.5-2,13.5-4.5v-21"/>
			<path class="st15" d="M37,33c7.5,0,13.5-2,13.5-4.5S44.5,24,37,24c-7.5,0-13.5,2-13.5,4.5S29.5,33,37,33z"/>
			<path class="st15" d="M50.5,39c0,2.5-6,4.5-13.5,4.5s-13.5-2-13.5-4.5"/>
			<path class="st15" d="M23.5,28.5v21c0,2.5,6,4.5,13.5,4.5s13.5-2,13.5-4.5v-21"/>
		</g>
	</g>
</g>
<g>
	<g>
		<defs>
			<rect id="SVGID_3_" x="21" y="21" width="36" height="36"/>
		</defs>
		<clipPath id="SVGID_4_">
			<use xlink:href="#SVGID_3_"  style="overflow:visible;"/>
		</clipPath>
		<g class="st16">
			<path class="st17" d="M22.5,27v9h9"/>
			<path class="st18" d="M26.3,43.5c1,2.8,2.8,5.1,5.3,6.8c2.4,1.6,5.3,2.4,8.3,2.2c2.9-0.2,5.7-1.3,7.9-3.2
				c2.2-1.9,3.8-4.5,4.4-7.3c0.6-2.9,0.4-5.8-0.8-8.5c-1.2-2.7-3.2-4.9-5.8-6.3c-2.6-1.4-5.5-2-8.4-1.6c-2.9,0.4-5.6,1.7-7.7,3.8
				l-7,6.5"/>
			<path class="st19" d="M20.5,27v9h9"/>
			<path class="st20" d="M24.3,43.5c1,2.8,2.8,5.1,5.3,6.8c2.4,1.6,5.3,2.4,8.3,2.2c2.9-0.2,5.7-1.3,7.9-3.2
				c2.2-1.9,3.8-4.5,4.4-7.3c0.6-2.9,0.4-5.8-0.8-8.5c-1.2-2.7-3.2-4.9-5.8-6.3c-2.6-1.4-5.5-2-8.4-1.6c-2.9,0.4-5.6,1.7-7.7,3.8
				l-7,6.5"/>
		</g>
	</g>
</g>
</svg>
