<?xml version="1.0" encoding="utf-8"?>
<!-- Generator: Adobe Illustrator 25.2.1, SVG Export Plug-In . SVG Version: 6.00 Build 0)  -->
<svg version="1.1" id="Layer_1" xmlns="http://www.w3.org/2000/svg" xmlns:xlink="http://www.w3.org/1999/xlink" x="0px" y="0px"
	 width="78px" height="78px" viewBox="0 0 78 78" style="enable-background:new 0 0 78 78;" xml:space="preserve">
<style type="text/css">
	.st0{fill:#F5F5F5;stroke:#E4E4E4;}
	.st1{fill:none;stroke:#BBC9E3;stroke-width:2.3971;stroke-linecap:round;stroke-miterlimit:10;}
	.st2{fill:none;stroke:#0D51D9;stroke-width:2.3971;stroke-linecap:round;stroke-miterlimit:10;}
</style>
<g>
	<circle class="st0" cx="39" cy="39" r="38.5"/>
</g>
<g>
	<path class="st1" d="M29,35c1.3,6.3,6.1,12.1,11.4,16.4c5.3-4.3,10.3-10.2,11.4-16.4c0.1-0.4-0.2-0.9-0.6-1.1
		c-3.6-1.6-7-3.5-9.9-6.1c-0.5-0.5-1.3-0.5-1.8,0c-2.9,2.7-6.3,4.6-9.9,6.1C29.2,34.1,28.9,34.6,29,35z"/>
	<path class="st2" d="M26.2,35c1.3,6.3,6.1,12.1,11.4,16.4C42.9,47.1,47.9,41.2,49,35c0.1-0.4-0.2-0.9-0.6-1.1
		c-3.6-1.6-7-3.5-9.9-6.1c-0.5-0.5-1.3-0.5-1.8,0c-2.9,2.7-6.3,4.6-9.9,6.1C26.3,34.1,26.1,34.6,26.2,35z"/>
</g>
</svg>
