<?xml version="1.0" encoding="utf-8"?>
<!-- Generator: Adobe Illustrator 25.2.1, SVG Export Plug-In . SVG Version: 6.00 Build 0)  -->
<svg version="1.1" id="Layer_1" xmlns="http://www.w3.org/2000/svg" xmlns:xlink="http://www.w3.org/1999/xlink" x="0px" y="0px"
	 width="78px" height="78px" viewBox="0 0 78 78" style="enable-background:new 0 0 78 78;" xml:space="preserve">
<style type="text/css">
	.st0{fill:#F5F5F5;stroke:#E4E4E4;}
	.st1{fill:none;}
	.st2{clip-path:url(#SVGID_2_);}
	.st3{fill:#36C5F0;}
	.st4{fill:#2EB67D;}
	.st5{fill:#ECB22E;}
	.st6{fill:#E01E5A;}
</style>
<circle class="st0" cx="39" cy="39" r="38.5"/>
<g>
	<g>
		<defs>
			<rect id="SVGID_1_" x="21" y="21" width="36" height="36"/>
		</defs>
		<clipPath id="SVGID_2_">
			<use xlink:href="#SVGID_1_"  style="overflow:visible;"/>
		</clipPath>
		<g class="st2">
			<path class="st3" d="M34.2,21c-2,0-3.6,1.6-3.6,3.6c0,0.5,0.1,0.9,0.3,1.4c0.2,0.4,0.4,0.8,0.8,1.2s0.7,0.6,1.2,0.8
				c0.4,0.2,0.9,0.3,1.4,0.3h3.6v-3.6c0-1-0.4-1.9-1.1-2.5C36.1,21.4,35.2,21,34.2,21z M34.2,30.6h-9.6c-2,0-3.6,1.6-3.6,3.6
				c0,2,1.6,3.6,3.6,3.6h9.6c2,0,3.6-1.6,3.6-3.6C37.8,32.2,36.2,30.6,34.2,30.6z"/>
			<path class="st4" d="M57,34.2c0-2-1.6-3.6-3.6-3.6c-2,0-3.6,1.6-3.6,3.6v3.6h3.6c1,0,1.9-0.4,2.5-1.1C56.6,36.1,57,35.2,57,34.2z
				 M47.4,34.2v-9.6c0-1-0.4-1.9-1.1-2.5c-0.7-0.7-1.6-1.1-2.5-1.1c-2,0-3.6,1.6-3.6,3.6v9.6c0,2,1.6,3.6,3.6,3.6
				c1,0,1.9-0.4,2.5-1.1S47.4,35.2,47.4,34.2"/>
			<path class="st5" d="M43.8,57c1,0,1.9-0.4,2.5-1.1c0.7-0.7,1.1-1.6,1.1-2.5c0-1-0.4-1.9-1.1-2.5c-0.7-0.7-1.6-1.1-2.5-1.1h-3.6
				v3.6C40.2,55.4,41.8,57,43.8,57z M43.8,47.4h9.6c2,0,3.6-1.6,3.6-3.6c0-1-0.4-1.9-1.1-2.5c-0.7-0.7-1.6-1.1-2.5-1.1h-9.6
				c-2,0-3.6,1.6-3.6,3.6c0,0.5,0.1,0.9,0.3,1.4c0.2,0.4,0.4,0.8,0.8,1.2c0.3,0.3,0.7,0.6,1.2,0.8C42.9,47.3,43.3,47.4,43.8,47.4"/>
			<path class="st6" d="M21,43.8c0,0.5,0.1,0.9,0.3,1.4c0.2,0.4,0.4,0.8,0.8,1.2c0.3,0.3,0.7,0.6,1.2,0.8c0.4,0.2,0.9,0.3,1.4,0.3
				c1,0,1.9-0.4,2.5-1.1c0.7-0.7,1.1-1.6,1.1-2.5v-3.6h-3.6C22.6,40.2,21,41.8,21,43.8z M30.6,43.8v9.6c0,2,1.6,3.6,3.6,3.6
				c1,0,1.9-0.4,2.5-1.1c0.7-0.7,1.1-1.6,1.1-2.5v-9.6c0-0.5-0.1-0.9-0.3-1.4c-0.2-0.4-0.4-0.8-0.8-1.2c-0.3-0.3-0.7-0.6-1.2-0.8
				c-0.4-0.2-0.9-0.3-1.4-0.3C32.2,40.2,30.6,41.8,30.6,43.8z"/>
		</g>
	</g>
</g>
</svg>
