<?xml version="1.0" encoding="utf-8"?>
<!-- Generator: Adobe Illustrator 25.2.1, SVG Export Plug-In . SVG Version: 6.00 Build 0)  -->
<svg version="1.1" id="Layer_1" xmlns="http://www.w3.org/2000/svg" xmlns:xlink="http://www.w3.org/1999/xlink" x="0px" y="0px"
	 width="396.5px" height="421px" viewBox="0 0 396.5 421" style="enable-background:new 0 0 396.5 421;" xml:space="preserve">
<style type="text/css">
	.st0{fill:none;stroke:#AFC3EC;stroke-linecap:round;}
	.st1{fill:none;stroke:#0D51D9;stroke-width:18;}
	.st2{fill:none;stroke:#0D51D9;stroke-width:3;}
	.st3{fill:#B6C9CF;stroke:#FFFFFF;stroke-width:3;}
</style>
<g>
	<path class="st0" d="M581,367.9c79.8-46.1,107-148.4,60.7-228.6C595.4,59.1,493.1,31.4,413.3,77.5c-79.8,46.1-107,148.4-60.7,228.6
		"/>
	<path class="st1" d="M399.5,367.6c12.5-7.2,28.3-3,35.4,9.2c7,12.2,2.8,28-9.7,35.2c-12.5,7.2-28.3,3-35.4-9.2
		C382.8,390.7,387,374.9,399.5,367.6z"/>
	<ellipse transform="matrix(0.866 -0.5 0.5 0.866 -48.7831 174.1181)" class="st2" cx="300.5" cy="178.1" rx="7.9" ry="7.9"/>
</g>
<g>
	<path class="st3" d="M276,414.5v6.5h-5.7v-6.5c0-3.2-2.8-5.5-5.9-5.5h-52.3c-3.1,0-5.9,2.3-5.9,5.5v6.5h-5.7v-6.5
		c0-5.7,5.1-10.5,11.6-10.5H234h1.5v-1.5v-14.7h5.7v14.7v1.5h1.5h21.8C271,404,276,408.8,276,414.5z"/>
	<path class="st3" d="M273.7,347.9h1.2l0.3-1.2c1.9-8.3,10-14.7,19.9-14.7h2.8v5H295c-7.9,0-14.6,5.9-14.6,13.5v5.5
		c0,11.5-9.5,20.8-21.2,20.8h-41.7c-11.7,0-21.2-9.4-21.2-20.8v-5.5V349h-0.1c-0.8-6.8-7.1-12-14.5-12h-2.8v-5h2.8
		c9.8,0,18,6.4,19.9,14.7l0.3,1.2h1.2h4.8h1.5v-1.5v-41.2c0-15.2,11-27.5,24.8-29l1.3-0.1v-1.4v-4.2v-1.5H234h-4.4
		c-6.5,0-11.6-4.8-11.6-10.5c0-5.7,5.1-10.5,11.6-10.5H247c6.5,0,11.6,4.8,11.6,10.5c0,5.7-5.1,10.5-11.6,10.5h-4.4h-1.5v1.5v4.2
		v1.4l1.3,0.1c13.8,1.4,24.8,13.8,24.8,29v41.2v1.5h1.5H273.7z M260.1,347.9h1.5v-1.5v-41.2c0-13.1-9.6-24.1-21.8-24.1h-3
		c-12.2,0-21.8,11-21.8,24.1v41.2v1.5h1.5H260.1z M203.5,352.9H202v1.5v1.6c0,8.7,6.9,15.8,15.5,15.8h41.7c8.6,0,15.5-7.1,15.5-15.8
		v-1.6v-1.5h-1.5H203.5z M223.7,258.6c0,3.2,2.8,5.5,5.9,5.5H247c3.1,0,5.9-2.3,5.9-5.5c0-3.2-2.8-5.5-5.9-5.5h-17.4
		C226.5,253.1,223.7,255.4,223.7,258.6z"/>
</g>
</svg>
