<?xml version="1.0" encoding="utf-8"?>
<!-- Generator: Adobe Illustrator 25.2.1, SVG Export Plug-In . SVG Version: 6.00 Build 0)  -->
<svg version="1.1" id="Layer_1" xmlns="http://www.w3.org/2000/svg" xmlns:xlink="http://www.w3.org/1999/xlink" x="0px" y="0px"
	 width="461px" height="470px" viewBox="0 0 461 470" style="enable-background:new 0 0 461 470;" xml:space="preserve">
<style type="text/css">
	.st0{fill:none;stroke:#AFC3EC;stroke-linecap:round;}
	.st1{fill:none;stroke:#0D51D9;stroke-width:18;}
	.st2{fill:none;stroke:#0D51D9;stroke-width:3;stroke-miterlimit:4.0001;}
	.st3{clip-path:url(#SVGID_2_);}
	.st4{opacity:0.6;fill:#EBF3FA;enable-background:new    ;}
	.st5{fill:#C0D8FB;}
	.st6{fill:#DFEBFD;}
	.st7{fill:#B7D3F3;}
	.st8{fill:#122544;}
	.st9{fill:#D2E3FC;}
	.st10{fill:#A8D29F;}
	.st11{fill:#82B378;}
	.st12{fill:#0D51D9;}
	.st13{fill:#EA9E6A;}
	.st14{fill:#D88D59;}
	.st15{fill:#8E342E;}
	.st16{fill:#233862;}
	.st17{fill:#052361;}
	.st18{fill:#F9DDBF;}
	.st19{fill:#2B478B;}
	.st20{fill:#2E3552;}
</style>
<path class="st0" d="M551.6,318.7c91.8,7.9,172.7-60.4,180.7-152.7S672.3-7.5,580.5-15.4S407.8,45,399.8,137.3"/>
<path class="st1" d="M403,214.5c14.4,1.2,24.9,13.8,23.7,27.8c-1.2,14-13.7,24.5-28.1,23.3s-24.9-13.8-23.7-27.8
	C376.1,223.8,388.6,213.3,403,214.5z"/>
<ellipse class="st2" cx="430.5" cy="2.5" rx="7.9" ry="7.9"/>
<g>
	<g>
		<defs>
			<rect id="SVGID_1_" x="60.5" y="244" width="385" height="226"/>
		</defs>
		<clipPath id="SVGID_2_">
			<use xlink:href="#SVGID_1_"  style="overflow:visible;"/>
		</clipPath>
		<g class="st3">
			<path class="st4" d="M712.3,429c0,12.6-0.7,25.3-2.3,38c-0.4,2.9-30.4-0.5-30.8,2.4L491.7,470H72.8v-0.2l418.9-1.4l187.5-0.7
				c0.4-2.8,30.5,0.5,30.8-2.4C711.5,453.2,712.3,441.1,712.3,429z"/>
			<path class="st5" d="M282,298.5h-48.1c-2.2,0-4-1.8-4-4V248c0-2.2,1.8-4,4-4H282c2.2,0,4,1.8,4,4v46.5
				C286,296.7,284.2,298.5,282,298.5z"/>
			<path class="st6" d="M279.9,296.2h-43.9c-2,0-3.7-1.7-3.7-3.7V250c0-2,1.7-3.7,3.7-3.7h43.9c2,0,3.7,1.7,3.7,3.7v42.5
				C283.5,294.5,281.9,296.2,279.9,296.2z"/>
			<path class="st7" d="M257.9,252.5c0.6,0,1.2-0.5,1.2-1.2s-0.5-1.2-1.2-1.2s-1.2,0.5-1.2,1.2S257.3,252.5,257.9,252.5z"/>
			<path class="st7" d="M266.1,253c0.3-0.6,1-0.8,1.6-0.5s0.8,1,0.5,1.6c-0.3,0.6-1,0.8-1.6,0.5C266,254.3,265.8,253.6,266.1,253z"
				/>
			<path class="st7" d="M274.2,259.4c0.5-0.3,1.3-0.2,1.6,0.3c0.3,0.5,0.2,1.3-0.3,1.6c-0.5,0.3-1.3,0.2-1.6-0.3
				C273.5,260.5,273.6,259.7,274.2,259.4z"/>
			<path class="st7" d="M279.2,270.9c0.2-0.6,0-1.3-0.6-1.5c-0.6-0.2-1.3,0-1.5,0.6c-0.2,0.6,0,1.3,0.6,1.5
				C278.3,271.8,279,271.5,279.2,270.9z"/>
			<path class="st7" d="M276.1,280.8c0.5,0.5,0.5,1.2,0,1.6s-1.2,0.5-1.6,0c-0.5-0.5-0.5-1.2,0-1.6
				C274.9,280.3,275.7,280.3,276.1,280.8z"/>
			<path class="st7" d="M268,290.1c0.6,0,1.2-0.5,1.2-1.2c0-0.6-0.5-1.2-1.2-1.2c-0.6,0-1.2,0.5-1.2,1.2
				C266.8,289.6,267.4,290.1,268,290.1z"/>
			<path class="st7" d="M257.9,293c0.6,0,1.2-0.5,1.2-1.2c0-0.6-0.5-1.2-1.2-1.2s-1.2,0.5-1.2,1.2C256.7,292.5,257.3,293,257.9,293z
				"/>
			<path class="st7" d="M249.7,253c-0.3-0.6-1-0.8-1.6-0.5c-0.6,0.3-0.8,1-0.5,1.6c0.3,0.6,1,0.8,1.6,0.5
				C249.8,254.3,250,253.6,249.7,253z"/>
			<path class="st7" d="M241.6,259.4c-0.5-0.3-1.3-0.2-1.6,0.3c-0.3,0.5-0.2,1.3,0.3,1.6s1.3,0.2,1.6-0.3
				C242.3,260.5,242.2,259.7,241.6,259.4z"/>
			<path class="st7" d="M237.6,271.6c0.6,0,1.2-0.5,1.2-1.2c0-0.6-0.5-1.2-1.2-1.2c-0.6,0-1.2,0.5-1.2,1.2
				C236.5,271.1,237,271.6,237.6,271.6z"/>
			<path class="st7" d="M239.7,280.8c-0.5,0.5-0.5,1.2,0,1.6c0.5,0.5,1.2,0.5,1.6,0c0.5-0.5,0.5-1.2,0-1.6
				C240.9,280.3,240.1,280.3,239.7,280.8z"/>
			<path class="st7" d="M247.8,290.1c0.6,0,1.2-0.5,1.2-1.2c0-0.6-0.5-1.2-1.2-1.2c-0.6,0-1.2,0.5-1.2,1.2
				C246.6,289.6,247.1,290.1,247.8,290.1z"/>
			<path class="st7" d="M258.8,271.6c0.6,0,1.2-0.5,1.2-1.2c0-0.6-0.5-1.2-1.2-1.2s-1.2,0.5-1.2,1.2
				C257.6,271.1,258.1,271.6,258.8,271.6z"/>
			<path class="st7" d="M258.9,255.9h-0.3v14.6h0.3V255.9z"/>
			<path class="st7" d="M266,264l-7.7,6.1l0.6,0.8l7.7-6.1L266,264z"/>
			<path class="st7" d="M115.3,386.1h-5.2l6.3,80.3h12.6L115.3,386.1z"/>
			<path class="st8" d="M218.1,362.7L217,363c-4.9,1-9.8-2.2-10.8-7.2l-1.2-5.8c-1-5,2.2-9.8,7.2-10.8l1.1-0.2
				c4.9-1,9.8,2.2,10.8,7.2l1.2,5.8C226.3,356.9,223.1,361.7,218.1,362.7z"/>
			<path class="st7" d="M110.2,386.1c0,0,28.2-13.3,66.9-4.4l-61.7,4.4H110.2z"/>
			<path class="st9" d="M129.1,467.2l-13.7-81c0,0,43.3-14.6,76.8,0l20,80.5L129.1,467.2z"/>
			<path class="st10" d="M330.7,437.4c0,0,15.8-8.8,8.4-20.8c0,0-5.9-7.4-12.2-9.3c0,0,3.4,17.9,0,18.3c-3.4,0.4-2.3-20.2-2.3-20.2
				s-16.6-8-23.1-7.4c0,0,10.3,17.5,6.9,17.1c-3.4-0.4-14.9-18.1-14.9-18.1s-17-3.2-19.8,6.9c-2.7,10.1,1.7,15.2,4.2,15.8
				c2.5,0.6,18.7,0.4,18.3,2.5c-0.4,2.1-11.4,5.5-17.4,3.6c0,0,6.7,16.6,15.6,15.8c8.8-0.8,11.6-6.3,17-6.7s9.5,1.1,6.7,2.5
				c-2.7,1.5-12,0.5-16.4,4.2c-4.4,3.8-8,6.1,0.2,7.8c8.2,1.7,22.9,0.6,25.9-5.7C330.7,437.4,330.7,437.4,330.7,437.4z"/>
			<path class="st11" d="M281.5,407.1c0,0,44.1,14.3,49.2,30.3c0,0-0.2,7.2,4.2,15.4v3.2c0,0-4.6-10.7-7.1-12.2
				C327.8,443.8,337.7,429.9,281.5,407.1z"/>
			<path class="st11" d="M339,466.4l-2.5,0c-0.1-3.7-0.5-7.8-1.7-10.9c0,0,0,0,0,0c-0.2-0.4-0.3-0.8-0.5-1.1c0,0,0,0,0,0
				c-0.5-1-0.9-1.8-1.1-2.3l0,0c-1.3-3.2,1.8,0.7,1.8,0.7S338.6,458.4,339,466.4z"/>
			<path class="st12" d="M252.3,466.7h-79c-1.2-2.8-2.2-5.9-3.1-9c-2.3-7.9-3.7-16.6-4.6-25.1c0-0.1,0-0.2,0-0.3
				c-1.6-14.8-1.6-29-1.4-37.5c0.1-4.9,0.3-8,0.3-8.1v0c0.2-0.1,0.3-0.1,0.5-0.2c4.2-1.8,8.2-3.3,12.1-4.6c0,0,0,0,0,0
				c3.2-1.1,6.4-2.1,9.4-2.9c5.3-1.5,10.2-2.5,14.7-3.2c5.3-0.8,10.2-1.3,14.5-1.3c0.2,0,0.4,0,0.6,0c1.1,0,2.3,0,3.3,0
				c10.8,0.2,18,2.4,21.7,3.8c0.5,0.2,0.9,0.4,1.3,0.6c0,0,0.1,0,0.1,0.1c0.4,0.2,0.7,0.3,1,0.5c0,0,0.1,0,0.1,0
				c0.1,0.1,0.2,0.1,0.3,0.2l5.7,60L252.3,466.7z"/>
			<path class="st12" d="M331.1,453.7c-7.9,3.7-55,6.8-59.5,5.5c-2.3-0.7-12-9.2-21.8-19.8c0,0,0,0,0,0c-9.2-10-18.6-21.7-21.7-30.1
				c-6.5-17.4-0.9-32.8-0.9-32.8s12-0.1,16.9,2.9c4.9,3,32.9,54.6,36.7,56c3.7,1.4,48.1,3.9,53.2,6.3
				C333.9,441.7,339,450,331.1,453.7z"/>
			<path class="st13" d="M216.3,376.4l0,2.9c0,0,0.8,9.1-10.4,10.5c-11.2,1.4-19.7-3.5-19.5-10.6c1-5.5,2.1-9.2,2.2-13.7
				c0-1.7-0.1-3.5-0.4-5.5l21.8-0.5l6.4,1L216.3,376.4z"/>
			<path class="st14" d="M216.3,360.5l-0.1,15.8c-2.3,1.1-4.9,1.7-7.8,1.7c-10,0-20-16.1-20.3-18.1L216.3,360.5z"/>
			<path class="st13" d="M217.6,368.2c0,0-27.9,5.7-31.1-11.8c-3.3-17.4-9.1-28.4,8.6-32.8c17.7-4.4,22.4,1.6,24.9,7.2
				C222.4,336.4,224.8,366.3,217.6,368.2z"/>
			<path class="st15" d="M225.3,317.9c0,0-7.8-0.6-16.9-4.6c-7.4-3.2-16.8,0.4-19.9,2c0.1-0.5,0.3-1.2,0.7-1.8c0,0-1.4,1-1.6,2.3
				c-0.1,0.1-0.2,0.2-0.2,0.2c0,0-1.6-0.3-2.5,0.2c0,0,0.7-0.1,0.9,0.3c0,0,0.1,0.1,0.1,0.1c-11.6,5.6-12.6,24-8.9,28.3
				c4.5,5.1,9.9,16.6,9.9,16.6s2-2.7,1.1-7.2c-0.8-4.5,3.1-4.5,8-6.6c4.9-2.1,0.8-7.8,5.1-11.3c4.3-3.5,20-1.5,19.8-4.1
				C226.9,330.2,225.3,318.5,225.3,317.9z"/>
			<path class="st16" d="M173.3,466.7c-1.2-2.8-2.2-5.9-3.1-9c-2.3-7.9-3.7-16.6-4.6-25.1c0-0.1,0-0.2,0-0.3c0.1,0,0.2,0.2,0.2,0.1
				c3.1-3.7,11.5-7.8,21.7,7.1c2,3,10.9,23.8,12.4,27.3L173.3,466.7L173.3,466.7z"/>
			<path class="st13" d="M181.6,466.7c-0.2-1.3,0-3,1.1-5.2c0,0,1.3-0.8,3-1.8c2.6-1.5,6.1-3.2,7.7-2.9c0.3,0.1,0.7,0.1,1.1,0.2
				c3.8,0.9,12.6,3.6,14,5.2c1.1,1.3,2.6,3,3.6,4.4H181.6z"/>
			<path class="st12" d="M187.4,466.7h-74.5c-0.2-1-0.2-1.8,0.1-2.5c2.2-5.6,6.6-14.9,11.5-24.8c3.7-7.3,7.7-15,11.5-21.8
				c5.3-9.5,10.1-17.5,13-20.8c2.2-2.6,5.1-4.7,8-6.5c2.5-1.5,5.1-2.7,7.5-3.7v0c0.2-0.1,0.3-0.1,0.5-0.2c5.2-2.1,9.3-3,9.3-3
				s0.1,2.4,0.1,6c0,10.5-0.4,31.7-3.7,36.9c-0.9,1.4-2.7,3.6-4.8,6.2c-0.1,0.1-0.1,0.1-0.2,0.2c-1.2,1.4-2.5,2.9-3.8,4.4
				c-7.8,8.7-17.6,19-18.8,20.2c-0.1,0.1-0.1,0.1-0.1,0.1h0.1l20.9,0.3l6.4,0.1l13.3,0.2c0.9,0.4,1.6,1,2.2,1.9
				C187,461.6,187.4,464.3,187.4,466.7z"/>
			<path class="st16" d="M331.1,453.7c-7.9,3.7-55,6.8-59.5,5.5c-2.3-0.7-12-9.2-21.8-19.8c0.5,0.1,5-7.4,25.3,10.5
				c0,0,5.3,2.4,19.9,1C309.5,449.5,328.1,449.1,331.1,453.7z"/>
			<path class="st17" d="M284.8,466.5H231c0-2.4,1.9-4.3,4.3-4.3h49.6V466.5z"/>
			<path class="st17" d="M284.7,407.8h83.3l-20,58.7h-83.8L284.7,407.8z"/>
			<path class="st12" d="M369.2,407.8l-20,58.7h-83.8l20.5-58.7H369.2z"/>
			<path class="st18" d="M324.3,436.6c-0.5,2.2-2.8,4.1-5,4.1c-2.2,0-3.6-1.8-3.1-4.1c0.5-2.2,2.8-4.1,5-4.1
				C323.4,432.5,324.8,434.4,324.3,436.6z"/>
			<path class="st12" d="M369.2,407.8l-20,58.7h-39l46.7-58.7H369.2z"/>
			<path class="st8" d="M194.6,362.7l-1.1,0.2c-4.9,1-9.8-2.2-10.8-7.2l-1.2-5.8c-1-5,2.2-9.8,7.2-10.8l1.1-0.2
				c4.9-1,9.8,2.2,10.8,7.2l1.2,5.8C202.7,356.9,199.5,361.7,194.6,362.7z"/>
			<path class="st8" d="M185.9,341.8c-0.7-1.3-1.8-12.2,1.1-20.8c1.4-4.2,3.8-6.5,6.7-8.1c1.1-0.6,2.2-0.9,3.4-0.9l2.9,0
				c-9.6,4.1-11.9,25.9-11.1,28.3c0-0.1-0.1-0.1-0.1-0.2L185.9,341.8z"/>
			<path class="st8" d="M214,364.5c-16.2,0-24.2-12.8-24.3-12.9l1.4-0.9l-0.7,0.4l0.7-0.4c0.1,0.1,7.6,12.1,22.8,12.1
				c0.1,0,0.2,0,0.3,0l0,1.7C214.2,364.5,214.1,364.5,214,364.5z"/>
			<path class="st19" d="M192,357l-0.6,0.1c-2.5,0.5-4.9-1.1-5.4-3.6l-0.6-2.9c-0.5-2.5,1.1-4.9,3.6-5.4l0.6-0.1
				c2.5-0.5,4.9,1.1,5.4,3.6l0.6,2.9C196,354.1,194.4,356.5,192,357z"/>
			<path class="st8" d="M216,365.1h-1.5c-0.8,0-1.4-0.6-1.4-1.4c0-0.8,0.6-1.4,1.4-1.4h1.5c0.8,0,1.4,0.6,1.4,1.4
				C217.5,364.5,216.8,365.1,216,365.1z"/>
			<path class="st20" d="M437.6,469.8H61.9c-0.8,0-1.4-0.6-1.4-1.4c0-0.8,0.6-1.4,1.4-1.4h375.7c0.8,0,1.4,0.6,1.4,1.4
				C439,469.1,438.4,469.8,437.6,469.8z"/>
		</g>
	</g>
</g>
</svg>
