<?xml version="1.0" encoding="utf-8"?>
<!-- Generator: Adobe Illustrator 25.2.1, SVG Export Plug-In . SVG Version: 6.00 Build 0)  -->
<svg version="1.1" id="Layer_1" xmlns="http://www.w3.org/2000/svg" xmlns:xlink="http://www.w3.org/1999/xlink" x="0px" y="0px"
	 width="461px" height="470px" viewBox="0 0 461 470" style="enable-background:new 0 0 461 470;" xml:space="preserve">
<style type="text/css">
	.st0{fill:none;stroke:#AFC3EC;stroke-linecap:round;}
	.st1{fill:none;stroke:#0D51D9;stroke-width:18;}
	.st2{fill:none;stroke:#0D51D9;stroke-width:3;stroke-miterlimit:4.0001;}
	.st3{fill:url(#SVGID_1_);}
	.st4{fill:#91B3FA;}
	.st5{fill:url(#SVGID_2_);}
	.st6{fill:#BDD0FB;}
	.st7{fill:url(#SVGID_3_);}
	.st8{opacity:0.3;}
	.st9{opacity:0.3;fill:#91B3FA;enable-background:new    ;}
	.st10{fill:url(#SVGID_4_);}
	.st11{fill:url(#SVGID_5_);}
	.st12{fill:#7D97F4;}
	.st13{opacity:0.67;fill:#FFFFFF;enable-background:new    ;}
	.st14{fill:url(#SVGID_6_);}
	.st15{fill:url(#SVGID_7_);}
	.st16{fill:url(#SVGID_8_);}
	.st17{fill:url(#SVGID_9_);}
	.st18{fill:url(#SVGID_10_);}
	.st19{fill:url(#SVGID_11_);}
	.st20{fill:url(#SVGID_12_);}
	.st21{fill:url(#SVGID_13_);}
	.st22{fill:url(#SVGID_14_);}
	.st23{fill:url(#SVGID_15_);}
	.st24{fill:url(#SVGID_16_);}
	.st25{fill:url(#SVGID_17_);}
	.st26{fill:url(#SVGID_18_);}
	.st27{fill:url(#SVGID_19_);}
	.st28{fill:url(#SVGID_20_);}
	.st29{fill:url(#SVGID_21_);}
	.st30{fill:url(#SVGID_22_);}
	.st31{fill:url(#SVGID_23_);}
	.st32{fill:url(#SVGID_24_);}
	.st33{fill:url(#SVGID_25_);}
	.st34{fill:url(#SVGID_26_);}
	.st35{fill:url(#SVGID_27_);}
	.st36{fill:url(#SVGID_28_);}
	.st37{fill:url(#SVGID_29_);}
	.st38{fill:#FFFFFF;}
</style>
<path class="st0" d="M551.6,318.7c91.8,7.9,172.7-60.4,180.7-152.7S672.3-7.5,580.5-15.4C488.7-23.3,407.8,45,399.8,137.3"/>
<path class="st1" d="M403,214.5c14.4,1.2,24.9,13.8,23.7,27.8c-1.2,14-13.7,24.5-28.1,23.3s-24.9-13.8-23.7-27.8
	C376.1,223.8,388.6,213.3,403,214.5z"/>
<ellipse class="st2" cx="430.5" cy="2.5" rx="7.9" ry="7.9"/>
<g>
	
		<linearGradient id="SVGID_1_" gradientUnits="userSpaceOnUse" x1="495.5185" y1="-222.3045" x2="300.0024" y2="23.6969" gradientTransform="matrix(1 0 0 -1 -75.5 309)">
		<stop  offset="0" style="stop-color:#DAE3FE"/>
		<stop  offset="1" style="stop-color:#E9EFFD"/>
	</linearGradient>
	<path class="st3" d="M419.5,384.2c-32.7,63.1-119.1,90.2-186.8,85.6c-18.5-1.3-55.7-3.8-84.7-26.4c-55.7-43.5-47.2-134.4,6.2-187.9
		c6.9-6.9,54.4-53.1,128.6-52.4c54.3,0.5,92.4,25.7,97,28.9c5.9,4,18.8,13.4,30.4,28.4C437.5,295.6,439.9,344.8,419.5,384.2z"/>
	<path class="st4" d="M115,276.1c0.5-0.6,1.3-1.4,1.8-1c8.7,6.4,29.8,25.7,27.9,60.9c-2.4,44.2,9.4,59.8,23.1,69.1
		c-2.9,0.3-8.3,0.6-14.5-1C105.3,391.8,103.3,288,115,276.1z"/>
	
		<linearGradient id="SVGID_2_" gradientUnits="userSpaceOnUse" x1="4876.3799" y1="-36.6832" x2="18787.6992" y2="-36.6832" gradientTransform="matrix(1 0 0 -1 -75.5 309)">
		<stop  offset="0" style="stop-color:#DAE3FE"/>
		<stop  offset="1" style="stop-color:#E9EFFD"/>
	</linearGradient>
	<path class="st5" d="M122.3,289.6c1.4,4.9,2.7,9.7,3.9,14.6c1.1,4.9,2.1,9.8,2.9,14.8c0.8,4.9,1.5,9.9,1.9,14.8
		c0.5,5,0.7,9.9,0.9,14.9c0.2,5,0.4,10,1.2,15c0.8,5,2.2,10.1,4.7,14.7c0.6,1.2,1.3,2.3,2,3.5c0.7,1.1,1.4,2.2,2.2,3.3
		c1.6,2.2,3.3,4.3,5.1,6.3c3.8,4,8.2,7.4,13,10.3c0.2,0.1,0.5,0.2,0.8,0.2c0.3,0,0.5-0.2,0.7-0.4c0.1-0.1,0.1-0.2,0.2-0.3
		c0-0.1,0-0.3,0-0.4c0-0.1-0.1-0.2-0.2-0.3c-0.1-0.1-0.2-0.2-0.3-0.3c-1.1-0.7-2.3-1.5-3.4-2.3c-0.6-0.4-1.1-0.8-1.6-1.2
		c-0.5-0.4-1.1-0.8-1.6-1.2c-2.1-1.7-4-3.5-5.8-5.4c-3.6-3.8-6.6-8.1-8.9-12.6c-1.1-2.2-2.1-4.6-2.9-6.9c-0.8-2.4-1.3-4.8-1.7-7.2
		c-0.8-4.9-1-9.8-1.3-14.8c-0.3-5-0.6-10-1.1-15c-0.3-2.5-0.6-5-1-7.5c-0.2-1.2-0.4-2.5-0.6-3.7c-0.2-1.2-0.4-2.5-0.7-3.7
		c-0.9-5-2.1-9.9-3.4-14.8c-1.3-4.9-2.8-9.8-4.4-14.6c0-0.1-0.1-0.1-0.1-0.2c-0.1,0-0.1,0-0.2,0c-0.1,0-0.1,0.1-0.2,0.1
		C122.3,289.5,122.2,289.5,122.3,289.6z"/>
	<path class="st6" d="M190.5,418c1.8,1.4,4.5,0.2,4.4-2c-0.8-23.8-6-118.2-36.4-176c-2.2-4.1-8.4-4.4-10.9-0.4
		C131.8,264.6,95.9,341.8,190.5,418z"/>
	
		<linearGradient id="SVGID_3_" gradientUnits="userSpaceOnUse" x1="15854.7998" y1="-33.9495" x2="29281.0996" y2="-33.9495" gradientTransform="matrix(1 0 0 -1 -75.5 309)">
		<stop  offset="0" style="stop-color:#DAE3FE"/>
		<stop  offset="1" style="stop-color:#E9EFFD"/>
	</linearGradient>
	<path class="st7" d="M154.6,270c-0.4,3.1-0.5,6.2-0.5,9.4s0,6.3,0.1,9.4c0.2,6.3,0.8,12.5,1.6,18.7c0.8,6.2,1.8,12.4,3,18.6
		c1.2,6.2,2.7,12.3,4.3,18.4l1.2,4.6l1.3,4.5l0.7,2.3l0.7,2.3l1.4,4.5c2,6,4.1,12,6.4,17.9c4.6,11.8,9.7,23.4,15.4,34.8
		c0.2,0.3,0.4,0.5,0.8,0.6c0.3,0.1,0.7,0.1,1,0s0.6-0.4,0.7-0.7c0.1-0.3,0.1-0.7,0-1l0,0c-5.8-11.2-11.1-22.7-15.9-34.4
		c-2.4-5.8-4.6-11.7-6.6-17.7l-1.5-4.5l-0.7-2.2l-0.7-2.2l-1.4-4.5l-1.3-4.5c-1.7-6-3.2-12.1-4.6-18.2c-1.3-6.1-2.4-12.3-3.3-18.5
		c-0.9-6.2-1.6-12.4-1.9-18.7c-0.2-3.1-0.3-6.2-0.3-9.4s0.1-6.3,0.4-9.4c0,0,0,0,0,0c0,0,0,0,0,0c0,0,0,0,0,0
		C154.7,269.9,154.7,269.9,154.6,270C154.7,269.9,154.6,269.9,154.6,270C154.6,269.9,154.6,270,154.6,270z"/>
	<g class="st8">
		<path class="st9" d="M303.2,276.6c-0.3-0.1-0.6-0.2-0.8-0.4c-0.2-0.2-0.3-0.5-0.3-0.8c0.1-1.3,0.3-2.7,0.6-4
			c0-0.2,0.1-0.3,0.2-0.4c0.1-0.1,0.2-0.2,0.3-0.3c0.1-0.1,0.3-0.2,0.5-0.2c0.2,0,0.3,0,0.5,0h0c0.3,0.1,0.6,0.2,0.8,0.5
			c0.2,0.3,0.3,0.6,0.2,0.9c-0.2,1.3-0.4,2.5-0.5,3.8c0,0.2-0.1,0.3-0.1,0.4c-0.1,0.1-0.2,0.3-0.3,0.4c-0.1,0.1-0.3,0.2-0.4,0.2
			c-0.2,0-0.3,0.1-0.5,0.1C303.3,276.6,303.3,276.6,303.2,276.6z M305.4,266.5c-0.1,0-0.1,0-0.1,0c-0.2,0-0.3-0.1-0.4-0.2
			c-0.1-0.1-0.2-0.2-0.3-0.4c-0.1-0.1-0.1-0.3-0.1-0.4c0-0.2,0-0.3,0.1-0.5c0.4-1.3,0.9-2.5,1.5-3.8c0.1-0.3,0.4-0.5,0.7-0.6
			c0.3-0.1,0.7-0.1,1,0c0.3,0.1,0.6,0.3,0.7,0.6c0.1,0.3,0.1,0.6,0,0.9c-0.5,1.2-1,2.4-1.4,3.6c-0.1,0.3-0.3,0.5-0.6,0.7
			C306,266.5,305.7,266.5,305.4,266.5z M309.9,257.1c-0.2,0-0.4-0.1-0.5-0.2c-0.2-0.1-0.3-0.3-0.4-0.4c-0.1-0.2-0.1-0.4-0.1-0.5
			c0-0.2,0.1-0.4,0.2-0.5c0.7-1.2,1.5-2.3,2.4-3.4c0.2-0.2,0.5-0.4,0.8-0.5c0.3,0,0.7,0,0.9,0.2c0.3,0.2,0.5,0.4,0.5,0.8
			c0.1,0.3,0,0.6-0.2,0.9c-0.8,1-1.6,2.1-2.2,3.2c-0.1,0.2-0.3,0.4-0.6,0.5C310.5,257.1,310.2,257.1,309.9,257.1z M316.6,248.9
			c-0.2,0-0.4-0.1-0.6-0.3c-0.2-0.1-0.3-0.3-0.4-0.5c-0.1-0.2-0.1-0.4,0-0.6c0.1-0.2,0.2-0.4,0.3-0.5c1-1,2-1.9,3.1-2.8
			c0.1-0.1,0.3-0.2,0.4-0.3c0.2-0.1,0.3-0.1,0.5-0.1c0.2,0,0.3,0,0.5,0.1c0.2,0.1,0.3,0.2,0.4,0.3c0.1,0.1,0.2,0.3,0.3,0.4
			c0.1,0.2,0.1,0.3,0.1,0.5c0,0.2-0.1,0.3-0.1,0.5c-0.1,0.1-0.2,0.3-0.3,0.4c-1,0.8-2,1.7-3,2.7c-0.1,0.1-0.3,0.3-0.5,0.3
			C317,248.9,316.8,248.9,316.6,248.9L316.6,248.9z M325.1,242.3c-0.2,0-0.5-0.2-0.7-0.3c-0.2-0.2-0.3-0.4-0.4-0.6
			c-0.1-0.2,0-0.5,0.1-0.7c0.1-0.2,0.3-0.4,0.5-0.5c1.2-0.7,2.5-1.4,3.7-2.1c0.1-0.1,0.3-0.1,0.5-0.2c0.2,0,0.3,0,0.5,0
			c0.2,0,0.3,0.1,0.5,0.2c0.1,0.1,0.2,0.2,0.3,0.4c0.1,0.1,0.1,0.3,0.2,0.4c0,0.2,0,0.3-0.1,0.5c0,0.2-0.1,0.3-0.2,0.4
			c-0.1,0.1-0.2,0.2-0.4,0.3c-1.2,0.6-2.4,1.3-3.5,2C325.8,242.2,325.4,242.3,325.1,242.3L325.1,242.3z M335,237.5
			c-0.3,0-0.5-0.2-0.7-0.4c-0.2-0.2-0.3-0.4-0.3-0.7c0-0.3,0-0.5,0.2-0.7s0.4-0.4,0.6-0.5c1.3-0.5,2.7-0.9,4.1-1.3
			c0.2,0,0.3-0.1,0.5,0c0.2,0,0.3,0.1,0.5,0.1c0.1,0.1,0.3,0.2,0.4,0.3c0.1,0.1,0.2,0.3,0.2,0.4c0,0.1,0.1,0.3,0,0.5
			c0,0.2-0.1,0.3-0.2,0.4c-0.1,0.1-0.2,0.3-0.3,0.4c-0.1,0.1-0.3,0.2-0.4,0.2c-1.3,0.4-2.6,0.8-3.9,1.2
			C335.5,237.6,335.2,237.6,335,237.5L335,237.5z M381.5,243c-0.2,0-0.3-0.1-0.5-0.2c-1.1-0.7-2.3-1.4-3.5-2.1
			c-0.1-0.1-0.3-0.2-0.4-0.3c-0.1-0.1-0.2-0.3-0.2-0.4c0-0.1-0.1-0.3,0-0.5s0.1-0.3,0.2-0.4c0.1-0.1,0.2-0.3,0.3-0.3
			c0.1-0.1,0.3-0.2,0.4-0.2c0.2,0,0.3,0,0.5,0c0.2,0,0.3,0.1,0.5,0.2c1.2,0.7,2.5,1.4,3.7,2.2c0.2,0.2,0.4,0.4,0.5,0.6
			c0.1,0.3,0.1,0.5-0.1,0.8c-0.1,0.2-0.3,0.5-0.6,0.6C382.1,243,381.8,243,381.5,243z M345.7,234.9c-0.3-0.1-0.6-0.2-0.8-0.4
			c-0.2-0.2-0.3-0.5-0.3-0.8c0-0.3,0.1-0.5,0.3-0.8c0.2-0.2,0.5-0.3,0.8-0.4c1.4-0.2,2.9-0.3,4.3-0.4c0.2,0,0.3,0,0.5,0.1
			c0.2,0,0.3,0.1,0.4,0.2c0.1,0.1,0.2,0.2,0.3,0.4c0.1,0.1,0.1,0.3,0.1,0.5c0,0.2,0,0.3-0.1,0.5c-0.1,0.1-0.1,0.3-0.3,0.4
			c-0.1,0.1-0.3,0.2-0.4,0.3c-0.2,0.1-0.3,0.1-0.5,0.1c-1.4,0.1-2.8,0.2-4.1,0.4C346,235,345.9,235,345.7,234.9L345.7,234.9z
			 M371.7,238c-0.1,0-0.2,0-0.2-0.1c-1.3-0.5-2.6-0.9-3.9-1.3c-0.3-0.1-0.6-0.3-0.7-0.6c-0.2-0.3-0.2-0.6-0.1-0.9
			c0.1-0.3,0.3-0.5,0.6-0.7c0.3-0.1,0.7-0.2,1-0.1c1.4,0.4,2.8,0.9,4.1,1.4c0.3,0.1,0.5,0.3,0.7,0.6c0.1,0.3,0.2,0.6,0.1,0.8
			c-0.1,0.3-0.3,0.5-0.6,0.7C372.4,238,372.1,238,371.7,238z M356.9,234.7c-0.3-0.1-0.6-0.2-0.8-0.5c-0.2-0.2-0.3-0.5-0.2-0.8
			c0-0.3,0.2-0.6,0.5-0.8c0.3-0.2,0.6-0.3,0.9-0.3c1.4,0.1,2.9,0.3,4.3,0.5h0c0.3,0.1,0.6,0.2,0.8,0.5c0.2,0.3,0.3,0.6,0.2,0.9
			s-0.3,0.6-0.5,0.8c-0.3,0.2-0.6,0.2-1,0.2c-1.4-0.2-2.7-0.4-4.1-0.5C356.9,234.7,356.9,234.7,356.9,234.7L356.9,234.7z"/>
		<path class="st9" d="M388.3,248.3c-0.3,0-0.5-0.2-0.7-0.3c-0.5-0.4-0.9-0.9-1.4-1.3c-0.2-0.2-0.4-0.5-0.4-0.8
			c0-0.3,0.1-0.6,0.3-0.8c0.2-0.2,0.6-0.4,0.9-0.4c0.3,0,0.7,0.1,0.9,0.3c0.5,0.4,1,0.9,1.5,1.4c0.2,0.2,0.3,0.4,0.4,0.7
			c0,0.2,0,0.5-0.1,0.7c-0.1,0.2-0.3,0.4-0.6,0.5C388.8,248.4,388.6,248.4,388.3,248.3L388.3,248.3z"/>
	</g>
	<g class="st8">
		<path class="st9" d="M402.4,281.9c-0.3-0.1-0.6-0.2-0.8-0.4c-0.2-0.2-0.3-0.5-0.3-0.8c0-0.6,0-1.2,0-1.8c0-0.3,0.1-0.6,0.4-0.8
			c0.2-0.2,0.6-0.3,0.9-0.3c0.3,0,0.7,0.1,0.9,0.3c0.2,0.2,0.4,0.5,0.4,0.8c0,0.6,0,1.3,0,1.9c0,0.3-0.2,0.6-0.4,0.8
			c-0.2,0.2-0.6,0.3-0.9,0.3C402.5,281.9,402.5,281.9,402.4,281.9z"/>
		<path class="st9" d="M343.4,325.6c-0.6-0.1-1.2-0.2-1.7-0.3c-0.3-0.1-0.6-0.3-0.8-0.5c-0.2-0.3-0.2-0.6-0.2-0.9
			c0.1-0.3,0.3-0.6,0.6-0.7c0.3-0.2,0.6-0.2,0.9-0.2c1.3,0.3,2.7,0.5,4,0.7c0.3,0,0.6,0.2,0.8,0.5c0.2,0.2,0.3,0.6,0.2,0.9
			c0,0.3-0.2,0.6-0.5,0.8c-0.3,0.2-0.6,0.3-0.9,0.2C345,325.9,344.2,325.7,343.4,325.6z M335.2,323.5c-0.1,0-0.1,0-0.2-0.1
			c-1.3-0.5-2.7-1-3.9-1.5c-0.3-0.1-0.5-0.4-0.7-0.7c-0.1-0.3-0.1-0.6,0.1-0.9c0.1-0.3,0.4-0.5,0.7-0.6c0.3-0.1,0.7-0.1,1,0
			c1.2,0.5,2.5,1,3.7,1.5c0.3,0.1,0.5,0.3,0.7,0.6c0.1,0.3,0.2,0.6,0.1,0.9c-0.1,0.3-0.3,0.5-0.6,0.7
			C335.8,323.5,335.5,323.5,335.2,323.5L335.2,323.5z M352.5,326.4c-0.3-0.1-0.6-0.2-0.8-0.5c-0.2-0.2-0.3-0.5-0.2-0.8
			c0-0.3,0.2-0.6,0.4-0.8c0.2-0.2,0.5-0.3,0.9-0.3c1.3,0,2.7,0,4.1-0.1c0.2,0,0.3,0,0.5,0c0.2,0,0.3,0.1,0.4,0.2
			c0.1,0.1,0.2,0.2,0.3,0.4c0.1,0.1,0.1,0.3,0.1,0.4c0,0.2,0,0.3-0.1,0.5c-0.1,0.1-0.1,0.3-0.2,0.4c-0.1,0.1-0.2,0.2-0.4,0.3
			c-0.2,0.1-0.3,0.1-0.5,0.1c-1.4,0.1-2.9,0.2-4.3,0.1C352.7,326.5,352.6,326.4,352.5,326.4z M325.4,318.9c-0.2,0-0.3-0.1-0.5-0.2
			c-1.2-0.7-2.4-1.5-3.5-2.3c-0.3-0.2-0.4-0.5-0.5-0.8c0-0.3,0.1-0.6,0.3-0.9c0.2-0.2,0.5-0.4,0.9-0.4c0.3,0,0.7,0.1,0.9,0.2
			c1.1,0.8,2.2,1.5,3.3,2.2c0.2,0.1,0.4,0.4,0.5,0.6c0.1,0.3,0.1,0.5,0,0.8s-0.3,0.5-0.6,0.6C326,318.9,325.7,318.9,325.4,318.9
			L325.4,318.9z M363.4,325.4c-0.3-0.1-0.5-0.2-0.7-0.4c-0.2-0.2-0.3-0.5-0.3-0.7c0-0.3,0.1-0.5,0.3-0.7c0.2-0.2,0.4-0.4,0.7-0.4
			c1.3-0.3,2.6-0.6,3.9-1c0.3-0.1,0.7,0,1,0.1c0.3,0.1,0.5,0.4,0.6,0.7c0.1,0.3,0.1,0.6-0.1,0.9c-0.2,0.3-0.4,0.5-0.7,0.6
			c-1.4,0.4-2.8,0.7-4.1,1C363.8,325.4,363.6,325.4,363.4,325.4z M373.8,322.1c-0.3,0-0.5-0.2-0.7-0.4c-0.2-0.2-0.3-0.4-0.3-0.7
			c0-0.2,0-0.5,0.1-0.7s0.3-0.4,0.6-0.5c1.2-0.5,2.4-1.1,3.6-1.7c0.3-0.1,0.6-0.2,1-0.1c0.3,0.1,0.6,0.3,0.8,0.5
			c0.2,0.3,0.2,0.6,0.1,0.9c-0.1,0.3-0.3,0.6-0.6,0.7c-1.2,0.7-2.5,1.3-3.8,1.8C374.3,322.1,374,322.1,373.8,322.1z M383.1,316.8
			c-0.2,0-0.5-0.1-0.6-0.3c-0.2-0.2-0.3-0.4-0.4-0.6s0-0.5,0-0.7c0.1-0.2,0.2-0.4,0.4-0.5c1.1-0.8,2.1-1.6,3.1-2.4
			c0.1-0.1,0.3-0.2,0.4-0.2c0.2-0.1,0.3-0.1,0.5-0.1c0.2,0,0.3,0,0.5,0.1c0.2,0.1,0.3,0.2,0.4,0.3c0.1,0.1,0.2,0.2,0.3,0.4
			c0.1,0.1,0.1,0.3,0.1,0.5c0,0.2,0,0.3-0.1,0.4c-0.1,0.1-0.2,0.3-0.3,0.4c-1,0.9-2.1,1.7-3.3,2.5c-0.1,0.1-0.3,0.2-0.5,0.2
			C383.5,316.9,383.3,316.9,383.1,316.8L383.1,316.8z M391,309.8c-0.2,0-0.4-0.1-0.6-0.3c-0.2-0.1-0.3-0.3-0.4-0.5
			c-0.1-0.2-0.1-0.4-0.1-0.6c0-0.2,0.1-0.4,0.3-0.5c0.9-1,1.7-2,2.5-3c0.2-0.3,0.5-0.4,0.8-0.5s0.7,0,1,0.2c0.3,0.2,0.5,0.5,0.5,0.8
			c0.1,0.3,0,0.6-0.2,0.9c-0.8,1.1-1.7,2.1-2.6,3.2c-0.1,0.2-0.3,0.3-0.6,0.4C391.4,309.8,391.2,309.8,391,309.8L391,309.8z
			 M397,301.4c-0.1,0-0.2-0.1-0.3-0.1c-0.3-0.1-0.5-0.4-0.6-0.7c-0.1-0.3-0.1-0.6,0.1-0.9c0.6-1.1,1.2-2.3,1.7-3.4
			c0.1-0.3,0.4-0.5,0.7-0.6c0.3-0.1,0.7-0.1,1,0c0.3,0.1,0.6,0.3,0.7,0.6c0.1,0.3,0.1,0.6,0,0.9c-0.5,1.2-1.1,2.4-1.8,3.6
			c-0.1,0.2-0.3,0.4-0.6,0.5C397.6,301.4,397.3,301.4,397,301.4L397,301.4z M400.9,291.9L400.9,291.9c-0.4-0.1-0.7-0.3-0.9-0.6
			c-0.2-0.3-0.2-0.6-0.1-0.9c0.2-0.9,0.5-1.8,0.7-2.7c0.1-0.3,0.1-0.7,0.2-1c0.1-0.3,0.2-0.6,0.5-0.8c0.3-0.2,0.6-0.3,1-0.2
			c0.2,0,0.3,0.1,0.5,0.2c0.1,0.1,0.3,0.2,0.4,0.3c0.1,0.1,0.2,0.3,0.2,0.4c0,0.2,0,0.3,0,0.5c-0.1,0.3-0.1,0.7-0.2,1
			c-0.2,0.9-0.4,1.9-0.7,2.8c-0.1,0.3-0.3,0.5-0.6,0.7C401.5,291.9,401.2,291.9,400.9,291.9L400.9,291.9z"/>
		<path class="st9" d="M317,312.4c-0.3,0-0.5-0.2-0.7-0.3c-0.5-0.5-1-0.9-1.4-1.4c-0.1-0.1-0.2-0.3-0.3-0.4
			c-0.1-0.1-0.1-0.3-0.1-0.5c0-0.2,0-0.3,0.1-0.5c0.1-0.1,0.2-0.3,0.3-0.4c0.1-0.1,0.3-0.2,0.4-0.2c0.2,0,0.3-0.1,0.5-0.1
			c0.2,0,0.3,0.1,0.5,0.1c0.2,0.1,0.3,0.2,0.4,0.3c0.4,0.5,0.9,0.9,1.4,1.3c0.2,0.2,0.3,0.4,0.3,0.7c0,0.2,0,0.5-0.1,0.7
			s-0.3,0.4-0.6,0.5C317.5,312.4,317.3,312.5,317,312.4z"/>
	</g>
	<path class="st4" d="M321.5,299.3c0.1,0.1,0.1,0.2,0.3,0.2c0.1,0.1,0.2,0.1,0.4,0.1l7.2-1.1c2.3,2.4,5,4.4,7.9,6l0.3,6.7
		c0,0.1,0,0.2,0.1,0.3c0.1,0.1,0.2,0.2,0.3,0.2l8.3,2.3c0.1,0,0.2,0,0.4,0c0.1,0,0.2-0.1,0.3-0.2l4.2-5.4c3.4,0.2,6.9-0.1,10.2-1
		l5.3,4.5c0.1,0.1,0.2,0.1,0.3,0.1c0.1,0,0.2,0,0.4-0.1l7.7-3.8c0.1-0.1,0.2-0.1,0.3-0.2c0.1-0.1,0.1-0.2,0.1-0.3l-1.2-6.6
		c2.6-2.1,4.8-4.6,6.5-7.3l7.2-0.3c0.1,0,0.2,0,0.3-0.1c0.1-0.1,0.2-0.2,0.2-0.3l2.5-7.7c0-0.1,0-0.2,0-0.3c0-0.1-0.1-0.2-0.2-0.3
		l-5.9-3.9c0.2-3.2-0.1-6.4-1-9.4l4.9-4.9c0.1-0.1,0.1-0.2,0.2-0.3c0-0.1,0-0.2-0.1-0.3l-4.1-7.1c-0.1-0.1-0.1-0.2-0.3-0.2
		c-0.1-0.1-0.2-0.1-0.4,0l-7.2,1.1c-2.3-2.4-5-4.4-7.9-6l-0.3-6.7c0-0.1,0-0.2-0.1-0.3c-0.1-0.1-0.2-0.2-0.3-0.2l-8.3-2.3
		c-0.1,0-0.2,0-0.4,0c-0.1,0-0.2,0.1-0.3,0.2l-4.2,5.4c-3.4-0.2-6.9,0.1-10.2,1l-5.3-4.6c-0.1-0.1-0.2-0.1-0.3-0.1
		c-0.1,0-0.2,0-0.4,0.1l-7.7,3.8c-0.1,0.1-0.2,0.1-0.3,0.2s-0.1,0.2-0.1,0.3l1.2,6.6c-2.6,2.1-4.8,4.6-6.5,7.3l-7.2,0.3
		c-0.1,0-0.2,0-0.3,0.1c-0.1,0.1-0.2,0.2-0.2,0.3l-2.5,7.7c0,0.1,0,0.2,0,0.3c0,0.1,0.1,0.2,0.2,0.3l5.9,3.9c-0.2,3.2,0.1,6.4,1,9.4
		l-4.9,4.9c-0.1,0.1-0.1,0.2-0.2,0.3c0,0.1,0,0.2,0.1,0.3L321.5,299.3z"/>
	<path class="st6" d="M351.4,286.9c-2.2-0.4-4.2-1.6-5.5-3.3c-1.3-1.7-1.8-3.8-1.5-5.9c0.3-2.1,1.6-3.9,3.4-5.2
		c1.8-1.3,4.1-1.8,6.3-1.6c2.2,0.2,4.3,1.3,5.7,2.9c1.4,1.6,2.1,3.7,2,5.8c-0.2,2.1-1.2,4-2.9,5.4c-1.7,1.4-3.9,2.1-6.2,2
		C352.3,287,351.8,287,351.4,286.9z M354.4,272.9c-1.3-0.2-2.7-0.1-4,0.4c-1.3,0.5-2.3,1.4-3,2.4c-0.7,1.1-1.1,2.3-1,3.6
		c0.1,1.3,0.6,2.5,1.4,3.5c0.8,1,2,1.7,3.3,2.1s2.7,0.4,4,0c1.3-0.4,2.4-1.1,3.3-2.1c0.8-1,1.3-2.2,1.4-3.5c0.1-1.5-0.4-2.9-1.4-4.1
		C357.4,273.9,355.9,273.1,354.4,272.9z"/>
	<path class="st6" d="M349.2,298.4c-0.7-0.1-1.4-0.3-2.1-0.5c-0.2-0.1-0.4-0.1-0.7-0.2c-1.1-0.3-2.2-0.8-3.2-1.2l0,0l-0.1-0.1
		c-0.1,0-0.2-0.1-0.2-0.1c-0.1,0-0.2-0.1-0.2-0.2c0-0.1-0.1-0.2,0-0.3c0,0,0-0.1,0.1-0.1c0.1-0.1,0.2-0.2,0.3-0.2c0.1,0,0.3,0,0.4,0
		c3.7,1.9,7.9,2.7,12,2.2c4.2-0.4,8.1-2,11.3-4.5c2.9-2.4,5.1-5.4,6.2-8.9c0.2-0.6,0.4-1.3,0.5-1.9c0.9-4.6,0-9.4-2.6-13.4
		c-2.6-4-6.8-7-11.6-8.3c-10.8-3-22.3,2.7-25.5,12.7c-1.1,3.3-1.1,6.8-0.2,10.1c0,0.1,0,0.1,0,0.2c0,0.1-0.1,0.2-0.2,0.3
		c-0.1,0.1-0.2,0.1-0.3,0.1c-0.1,0-0.2,0-0.3-0.1c-0.1-0.1-0.2-0.2-0.2-0.3c-0.8-2.8-0.9-5.8-0.3-8.6c0.1-0.7,0.3-1.3,0.5-2
		c3.4-10.5,15.4-16.5,26.8-13.3c5.1,1.4,9.5,4.5,12.2,8.7s3.7,9.2,2.7,14.1c-0.1,0.7-0.3,1.3-0.5,2c-1.5,4.7-4.9,8.7-9.4,11.3
		C359.8,298.4,354.4,299.3,349.2,298.4L349.2,298.4z"/>
	<g class="st8">
		<path class="st9" d="M254.1,299.5c-0.2,0-0.3-0.1-0.4-0.2c-0.1-0.1-0.2-0.3-0.2-0.4c-0.1-0.6-0.1-1.2-0.1-1.9c0-0.1,0-0.2,0.1-0.3
			c0-0.1,0.1-0.2,0.2-0.2c0.1-0.1,0.2-0.1,0.2-0.2c0.1,0,0.2-0.1,0.3-0.1c0.1,0,0.2,0,0.3,0c0.1,0,0.2,0.1,0.3,0.1
			c0.1,0.1,0.1,0.1,0.2,0.2s0.1,0.2,0.1,0.3c0,0.6,0.1,1.2,0.1,1.8c0,0.1,0,0.2,0,0.3c0,0.1-0.1,0.2-0.2,0.3
			c-0.1,0.1-0.2,0.1-0.3,0.2C254.3,299.5,254.2,299.5,254.1,299.5L254.1,299.5z"/>
		<path class="st9" d="M254.1,293.9c-0.2,0-0.4-0.1-0.5-0.3c-0.1-0.1-0.2-0.3-0.2-0.5c0.1-1.1,0.3-2.1,0.5-3.2
			c0-0.2,0.1-0.4,0.1-0.7c0-0.2,0.2-0.3,0.3-0.5c0.2-0.1,0.4-0.1,0.6-0.1c0.2,0,0.4,0.2,0.5,0.3c0.1,0.2,0.2,0.4,0.1,0.5
			c0,0.2-0.1,0.4-0.1,0.6c-0.2,1-0.4,2-0.5,3c0,0.2-0.1,0.4-0.3,0.5C254.6,293.8,254.4,293.9,254.1,293.9
			C254.1,293.9,254.1,293.9,254.1,293.9z M255.8,286.5c0,0-0.1,0-0.1,0c-0.1,0-0.2-0.1-0.3-0.1c-0.1-0.1-0.1-0.1-0.2-0.2
			c0-0.1-0.1-0.2-0.1-0.3c0-0.1,0-0.2,0-0.3c0.5-1.2,1-2.4,1.6-3.6c0-0.1,0.1-0.2,0.2-0.2c0.1-0.1,0.2-0.1,0.3-0.1s0.2,0,0.3,0
			s0.2,0,0.3,0.1c0.1,0,0.2,0.1,0.2,0.2c0.1,0.1,0.1,0.2,0.2,0.3c0,0.1,0,0.2,0,0.3s0,0.2-0.1,0.3c-0.6,1.1-1.1,2.2-1.5,3.4
			c-0.1,0.2-0.2,0.3-0.3,0.4C256.2,286.5,256,286.5,255.8,286.5z M259.4,279.7c-0.1,0-0.2-0.1-0.3-0.1c-0.1-0.1-0.2-0.2-0.2-0.3
			c0-0.1-0.1-0.2-0.1-0.3c0-0.1,0.1-0.2,0.1-0.3c0.8-1.1,1.6-2.1,2.5-3.1c0.1-0.1,0.1-0.1,0.2-0.2c0.1,0,0.2-0.1,0.3-0.1
			c0.1,0,0.2,0,0.3,0c0.1,0,0.2,0.1,0.3,0.1c0.1,0.1,0.1,0.1,0.2,0.2c0,0.1,0.1,0.2,0.1,0.3c0,0.1,0,0.2,0,0.3
			c0,0.1-0.1,0.2-0.2,0.2c-0.9,0.9-1.7,1.9-2.4,3c-0.1,0.1-0.2,0.2-0.4,0.3C259.7,279.7,259.5,279.7,259.4,279.7L259.4,279.7z
			 M264.7,273.9c-0.1,0-0.3-0.1-0.4-0.2s-0.2-0.2-0.2-0.3c0-0.1,0-0.3,0-0.4c0-0.1,0.1-0.2,0.2-0.3c1-0.9,2.1-1.7,3.3-2.4
			c0.2-0.1,0.4-0.1,0.6-0.1c0.2,0,0.4,0.1,0.5,0.3c0.1,0.2,0.2,0.3,0.1,0.5c0,0.2-0.1,0.4-0.3,0.5c-1.1,0.7-2.1,1.5-3.1,2.3
			c-0.1,0.1-0.2,0.1-0.3,0.2C264.9,273.9,264.8,273.9,264.7,273.9z M271.4,269.5c-0.2,0-0.3-0.1-0.4-0.2c-0.1-0.1-0.2-0.2-0.2-0.4
			c0-0.1,0-0.3,0.1-0.4c0.1-0.1,0.2-0.2,0.3-0.3c1.2-0.6,2.5-1.2,3.8-1.6c0.1,0,0.2-0.1,0.3-0.1c0.1,0,0.2,0,0.3,0.1
			c0.1,0,0.2,0.1,0.3,0.2c0.1,0.1,0.1,0.2,0.2,0.2c0,0.1,0.1,0.2,0.1,0.3c0,0.1,0,0.2-0.1,0.3c0,0.1-0.1,0.2-0.2,0.2
			c-0.1,0.1-0.2,0.1-0.3,0.2c-1.2,0.5-2.5,1-3.6,1.6C271.7,269.5,271.5,269.5,271.4,269.5z M279,266.8c-0.2,0-0.3-0.1-0.5-0.2
			c-0.1-0.1-0.2-0.3-0.2-0.5c0-0.2,0.1-0.3,0.2-0.5c0.1-0.1,0.3-0.2,0.4-0.3c1.4-0.3,2.7-0.6,4.1-0.7c0.2,0,0.4,0,0.6,0.2
			c0.2,0.1,0.3,0.3,0.3,0.5c0,0.2,0,0.4-0.2,0.5c-0.1,0.2-0.3,0.3-0.5,0.3c-1.3,0.2-2.6,0.4-3.9,0.7
			C279.2,266.8,279.1,266.8,279,266.8z M287.1,265.8c-0.2,0-0.4-0.1-0.5-0.3c-0.1-0.1-0.2-0.3-0.2-0.5c0-0.2,0.1-0.4,0.3-0.5
			c0.1-0.1,0.3-0.2,0.5-0.2c1.4,0,2.8,0.1,4.2,0.2c0.2,0,0.4,0.1,0.5,0.3c0.1,0.2,0.2,0.3,0.2,0.5c0,0.2-0.1,0.4-0.3,0.5
			c-0.2,0.1-0.4,0.2-0.6,0.2c-1.3-0.1-2.7-0.2-4-0.2C287.2,265.8,287.1,265.8,287.1,265.8z M299.1,267.9c0,0-0.1,0-0.1,0
			c-1.1-0.4-2.2-0.7-3.3-1c-0.2,0-0.3-0.1-0.5-0.1c-0.2,0-0.4-0.2-0.5-0.3c-0.1-0.2-0.1-0.4-0.1-0.6c0-0.2,0.2-0.3,0.4-0.4
			c0.2-0.1,0.4-0.1,0.6-0.1c0.2,0,0.4,0.1,0.5,0.1c1.2,0.3,2.3,0.6,3.5,1c0.2,0.1,0.3,0.2,0.4,0.4c0.1,0.2,0.1,0.3,0.1,0.5
			c-0.1,0.2-0.2,0.3-0.3,0.4C299.5,267.8,299.3,267.9,299.1,267.9L299.1,267.9z"/>
	</g>
	<g class="st8">
		<path class="st9" d="M281.4,326.8c-0.2,0-0.4-0.1-0.5-0.3c-0.1-0.2-0.2-0.4-0.1-0.5c0-0.2,0.2-0.4,0.3-0.5
			c0.2-0.1,0.4-0.2,0.6-0.1c1.3,0.2,2.6,0.4,3.9,0.4c0.1,0,0.2,0,0.3,0.1c0.1,0,0.2,0.1,0.3,0.2c0.1,0.1,0.1,0.2,0.2,0.2
			c0,0.1,0.1,0.2,0,0.3c0,0.1,0,0.2-0.1,0.3c0,0.1-0.1,0.2-0.2,0.2c-0.1,0.1-0.2,0.1-0.3,0.1c-0.1,0-0.2,0-0.3,0
			C284.1,327.2,282.7,327.1,281.4,326.8L281.4,326.8z M277.4,326C277.4,326,277.4,325.9,277.4,326c-1.4-0.4-2.7-0.8-3.9-1.4
			c-0.2-0.1-0.3-0.2-0.4-0.4c-0.1-0.2-0.1-0.4,0-0.6c0.1-0.2,0.2-0.3,0.4-0.4c0.2-0.1,0.4-0.1,0.6,0c1.2,0.5,2.4,0.9,3.7,1.3
			c0.2,0.1,0.4,0.2,0.5,0.3c0.1,0.2,0.1,0.4,0.1,0.5c0,0.2-0.2,0.3-0.3,0.4C277.8,326,277.6,326,277.4,326L277.4,326z M289.4,327.3
			c-0.2,0-0.4-0.1-0.5-0.3c-0.1-0.1-0.2-0.3-0.2-0.5c0-0.2,0.1-0.3,0.2-0.5c0.1-0.1,0.3-0.2,0.5-0.2c1.3-0.1,2.6-0.2,3.9-0.5
			c0.2,0,0.4,0,0.6,0.1c0.2,0.1,0.3,0.3,0.3,0.5c0,0.2,0,0.4-0.1,0.5c-0.1,0.2-0.3,0.3-0.5,0.3c-1.4,0.2-2.7,0.4-4.1,0.5
			C289.5,327.3,289.5,327.3,289.4,327.3L289.4,327.3z M270.1,322.9c-0.1,0-0.2,0-0.3-0.1c-1.2-0.7-2.3-1.4-3.4-2.2
			c-0.1-0.1-0.1-0.1-0.2-0.2c-0.1-0.1-0.1-0.2-0.1-0.3c0-0.1,0-0.2,0-0.3c0-0.1,0.1-0.2,0.1-0.3c0.1-0.1,0.1-0.1,0.2-0.2
			c0.1,0,0.2-0.1,0.3-0.1c0.1,0,0.2,0,0.3,0c0.1,0,0.2,0.1,0.3,0.1c1,0.7,2.1,1.4,3.2,2.1c0.2,0.1,0.3,0.2,0.3,0.4
			c0.1,0.2,0.1,0.3,0,0.5c-0.1,0.2-0.2,0.3-0.4,0.4C270.4,322.9,270.3,323,270.1,322.9L270.1,322.9z M297.3,325.9
			c-0.2,0-0.3-0.1-0.4-0.2c-0.1-0.1-0.2-0.3-0.2-0.4c0-0.2,0-0.3,0.1-0.5c0.1-0.1,0.2-0.2,0.4-0.3c1.3-0.4,2.5-0.8,3.7-1.3
			c0.2-0.1,0.4-0.1,0.6,0c0.2,0.1,0.4,0.2,0.4,0.4c0.1,0.2,0.1,0.4,0,0.6c-0.1,0.2-0.2,0.3-0.4,0.4c-1.3,0.5-2.5,1-3.8,1.4
			C297.6,325.9,297.4,325.9,297.3,325.9L297.3,325.9z M304.6,322.8c-0.2,0-0.3-0.1-0.4-0.2c-0.1-0.1-0.2-0.2-0.2-0.4
			c0-0.1,0-0.3,0.1-0.4c0.1-0.1,0.2-0.2,0.3-0.3c1.1-0.6,2.2-1.3,3.2-2.1c0.2-0.1,0.4-0.2,0.6-0.2c0.2,0,0.4,0.1,0.5,0.3
			c0.1,0.1,0.2,0.3,0.2,0.5c0,0.2-0.1,0.4-0.3,0.5c-1.1,0.8-2.2,1.5-3.4,2.2C305,322.8,304.8,322.8,304.6,322.8L304.6,322.8z
			 M310.9,318.1c-0.2,0-0.3-0.1-0.4-0.2c-0.1-0.1-0.1-0.1-0.2-0.2c0-0.1-0.1-0.2-0.1-0.3c0-0.1,0-0.2,0.1-0.3c0-0.1,0.1-0.2,0.2-0.2
			c0.9-0.9,1.8-1.8,2.6-2.7c0.1-0.2,0.3-0.3,0.5-0.3c0.2,0,0.4,0,0.6,0.1c0.2,0.1,0.3,0.3,0.3,0.5c0,0.2,0,0.4-0.2,0.5
			c-0.8,1-1.7,2-2.7,2.9c-0.1,0.1-0.2,0.1-0.3,0.2C311.2,318.1,311,318.1,310.9,318.1L310.9,318.1z"/>
		<path class="st9" d="M263.7,318.3c-0.2,0-0.3-0.1-0.4-0.2c-0.5-0.4-0.9-0.9-1.4-1.4c-0.1-0.1-0.1-0.2-0.2-0.2c0-0.1-0.1-0.2,0-0.3
			c0-0.1,0-0.2,0.1-0.3c0-0.1,0.1-0.2,0.2-0.2c0.1-0.1,0.2-0.1,0.3-0.1s0.2,0,0.3,0c0.1,0,0.2,0,0.3,0.1c0.1,0,0.2,0.1,0.2,0.2
			c0.4,0.4,0.9,0.9,1.3,1.3c0.1,0.1,0.2,0.3,0.2,0.4c0,0.2,0,0.3-0.1,0.5c-0.1,0.1-0.2,0.2-0.4,0.3
			C264,318.3,263.9,318.4,263.7,318.3z"/>
	</g>
	<path class="st4" d="M266.3,309.2c0,0.1,0.1,0.1,0.2,0.2c0.1,0,0.2,0,0.2,0l4.8-0.7c1.5,1.6,3.3,2.9,5.3,4l0.2,4.5
		c0,0.1,0,0.1,0.1,0.2s0.1,0.1,0.2,0.1l5.6,1.5c0.1,0,0.2,0,0.2,0c0.1,0,0.1-0.1,0.2-0.1l2.8-3.6c2.3,0.1,4.6-0.1,6.8-0.6l3.6,3
		c0.1,0.1,0.1,0.1,0.2,0.1c0.1,0,0.2,0,0.2,0l5.1-2.6c0.1,0,0.1-0.1,0.2-0.2c0-0.1,0-0.1,0-0.2l-0.8-4.4c1.7-1.4,3.2-3.1,4.3-4.9
		l4.9-0.2c0.1,0,0.2,0,0.2-0.1s0.1-0.1,0.1-0.2l1.7-5.2c0-0.1,0-0.2,0-0.2c0-0.1-0.1-0.1-0.1-0.2l-4-2.6c0.1-2.1-0.1-4.3-0.7-6.3
		l3.3-3.3c0.1-0.1,0.1-0.1,0.1-0.2c0-0.1,0-0.2,0-0.2l-2.8-4.7c0-0.1-0.1-0.1-0.2-0.2c-0.1,0-0.2,0-0.2,0l-4.8,0.7
		c-1.5-1.6-3.3-2.9-5.3-4l-0.2-4.5c0-0.1,0-0.2-0.1-0.2s-0.1-0.1-0.2-0.1l-5.6-1.5c-0.1,0-0.2,0-0.2,0c-0.1,0-0.1,0.1-0.2,0.1
		l-2.8,3.6c-2.3-0.1-4.6,0.1-6.8,0.6l-3.6-3c-0.1-0.1-0.1-0.1-0.2-0.1c-0.1,0-0.2,0-0.2,0l-5.1,2.6c-0.1,0-0.1,0.1-0.2,0.2
		c0,0.1,0,0.1,0,0.2l0.8,4.4c-1.7,1.4-3.2,3.1-4.3,4.9l-4.9,0.2c-0.1,0-0.2,0-0.2,0.1c-0.1,0-0.1,0.1-0.1,0.2l-1.7,5.2
		c0,0.1,0,0.2,0,0.2c0,0.1,0.1,0.1,0.1,0.2l3.9,2.6c-0.1,2.1,0.1,4.3,0.7,6.3l-3.3,3.3c-0.1,0.1-0.1,0.1-0.1,0.2c0,0.1,0,0.2,0,0.2
		L266.3,309.2z"/>
	<path class="st6" d="M286.3,301c-1.5-0.3-2.9-1.1-3.8-2.2c-0.9-1.2-1.3-2.6-1-4c0.2-1.4,1.1-2.7,2.3-3.6c1.2-0.9,2.8-1.3,4.3-1.1
		c1.5,0.2,2.9,0.9,3.9,2c1,1.1,1.5,2.5,1.3,4c-0.1,1.4-0.8,2.8-2,3.7c-1.2,0.9-2.7,1.4-4.2,1.4C286.9,301.1,286.6,301.1,286.3,301z
		 M288.2,291.6c-0.2,0-0.4-0.1-0.6-0.1c-1.2,0-2.3,0.3-3.2,1.1c-0.9,0.7-1.4,1.7-1.4,2.8c-0.1,1.1,0.4,2.1,1.1,2.9
		c0.8,0.8,1.9,1.3,3,1.3c1.1,0,2.2-0.3,3-1c0.8-0.7,1.4-1.6,1.5-2.6c0.1-1-0.2-2-0.8-2.9C290.3,292.4,289.3,291.8,288.2,291.6z"/>
	<path class="st6" d="M284.7,309c-0.5-0.1-1-0.2-1.5-0.3c-1-0.3-1.9-0.6-2.8-1.1l-0.1-0.1c-0.1-0.1-0.3-0.2-0.3-0.3
		c-0.1-0.1-0.1-0.3-0.1-0.4c0-0.1,0-0.1,0.1-0.2c0.1-0.2,0.3-0.3,0.5-0.3c0.2-0.1,0.4,0,0.6,0.1c0.8,0.4,1.7,0.8,2.6,1l0.1,0
		c2.1,0.6,4.3,0.6,6.5,0.2c1.2-0.2,2.3-0.6,3.4-1.1l0,0l0.1,0c1.5-0.8,2.9-1.8,4-3c1.1-1.2,1.9-2.7,2.4-4.2c0.1-0.4,0.2-0.8,0.3-1.2
		c0.6-3.1,0-6.3-1.9-8.9c-1.8-2.6-4.7-4.5-8-5.3c-3.3-0.7-6.8-0.3-9.7,1.3c-3,1.6-5.1,4.1-6.1,7.1c-0.1,0.4-0.2,0.8-0.3,1.2
		c-0.4,1.8-0.3,3.6,0.2,5.3c0,0.2,0,0.4-0.1,0.5c-0.1,0.2-0.3,0.3-0.5,0.3s-0.4,0-0.6-0.1c-0.2-0.1-0.3-0.2-0.4-0.4
		c-0.5-1.9-0.6-4-0.2-6c0.1-0.5,0.2-0.9,0.4-1.4c1.1-3.4,3.5-6.2,6.9-8c3.3-1.7,7.2-2.3,10.9-1.4c3.7,0.8,6.9,3,9,5.9
		c2.1,3,2.8,6.5,2.1,10c-0.1,0.5-0.2,0.9-0.4,1.4C299.5,306.3,292.1,310.4,284.7,309z"/>
	
		<linearGradient id="SVGID_4_" gradientUnits="userSpaceOnUse" x1="349.9133" y1="16.32" x2="345.8023" y2="-188.5402" gradientTransform="matrix(1 0 0 -1 -75.5 309)">
		<stop  offset="0" style="stop-color:#09005D"/>
		<stop  offset="1" style="stop-color:#1A0F91"/>
	</linearGradient>
	<path class="st10" d="M132,451.9c0,1.2,0.5,2.4,1.5,3.3c1,0.9,2.2,1.4,3.6,1.4h275c1.3,0,2.6-0.5,3.6-1.4c1-0.9,1.5-2.1,1.5-3.3
		l2.3-146.2c0-2.6-3.3-7.6-9.3-7.3L141.4,292c-1.7,0-3.5,0.2-5.1,0.8c-1.6,0.6-3.1,1.5-4.3,2.6c-1.2,1.1-2.2,2.5-2.8,4
		c-0.6,1.5-1,3.1-0.9,4.7L132,451.9z"/>
	<path class="st4" d="M137,447.4c0,1.2,0.5,2.3,1.4,3.1c0.9,0.8,2.1,1.3,3.4,1.3h263.6c1.3,0,2.5-0.5,3.4-1.3c0.9-0.8,1.4-2,1.4-3.1
		l2.2-132.7c-0.3-8-7.8-10.9-12.4-10.7l-257.6-6.4c-1.2,0-2.4,0.2-3.6,0.6c-1.1,0.4-2.2,1-3,1.8s-1.5,1.7-2,2.8
		c-0.5,1-0.7,2.2-0.6,3.3L137,447.4z"/>
	
		<linearGradient id="SVGID_5_" gradientUnits="userSpaceOnUse" x1="386.6153" y1="-12911.6406" x2="456.6149" y2="-35632.2422" gradientTransform="matrix(1 0 0 -1 -75.5 309)">
		<stop  offset="0" style="stop-color:#09005D"/>
		<stop  offset="1" style="stop-color:#1A0F91"/>
	</linearGradient>
	<path class="st11" d="M110.3,468.7h323c0.3,0,0.6-0.3,0.6-0.6v-11.7c0-0.3-0.3-0.6-0.6-0.6h-323c-0.3,0-0.6,0.3-0.6,0.6v11.7
		C109.7,468.4,110,468.7,110.3,468.7z"/>
	<path class="st12" d="M412.2,328l0.2-13.3c-0.3-8-7.8-10.9-12.4-10.7l-257.6-6.4c-1.2,0-2.4,0.2-3.6,0.6c-1.1,0.4-2.2,1-3,1.8
		c-0.9,0.8-1.5,1.8-2,2.8c-0.5,1.1-0.7,2.2-0.6,3.3l0.6,21.8H412.2z"/>
	<path class="st6" d="M297.9,334.5H149.2c-2.4,0-4.4,1.8-4.4,4v53c0,2.2,2,4,4.4,4h148.7c2.4,0,4.4-1.8,4.4-4v-53
		C302.3,336.3,300.3,334.5,297.9,334.5z"/>
	<path class="st6" d="M401.5,334.5h-87.9c-1.7,0-3.1,1.3-3.1,2.9v55.3c0,1.6,1.4,2.9,3.1,2.9h87.9c1.7,0,3.1-1.3,3.1-2.9v-55.3
		C404.6,335.8,403.2,334.5,401.5,334.5z"/>
	<path class="st6" d="M400.7,404.5h-252c-2.1,0-3.8,1.6-3.8,3.6v34.4c0,2,1.7,3.6,3.8,3.6h252c2.1,0,3.8-1.6,3.8-3.6v-34.4
		C404.6,406.1,402.9,404.5,400.7,404.5z"/>
	<path class="st6" d="M146.9,315.4c1.8,0,3.3-1.4,3.3-3.1s-1.5-3.1-3.3-3.1s-3.3,1.4-3.3,3.1S145.1,315.4,146.9,315.4z"/>
	<path class="st6" d="M157.9,315.7c1.8,0,3.3-1.4,3.3-3.1s-1.5-3.1-3.3-3.1s-3.3,1.4-3.3,3.1S156.1,315.7,157.9,315.7z"/>
	<path class="st6" d="M170.6,315.4c1.3-1.2,1.3-3.1,0-4.3c-1.3-1.2-3.4-1.2-4.7,0c-1.3,1.2-1.3,3.1,0,4.3
		C167.2,316.6,169.3,316.6,170.6,315.4z"/>
	<path class="st13" d="M251.1,384.7c6.8-6.3,6.8-16.5,0-22.8c-6.8-6.3-17.8-6.3-24.6,0c-6.8,6.3-6.8,16.5,0,22.8
		C233.3,391,244.3,391,251.1,384.7z"/>
	<path class="st13" d="M247,380.7c4.4-4.1,4.4-10.7,0-14.8c-4.4-4.1-11.6-4.1-16,0c-4.4,4.1-4.4,10.7,0,14.8
		C235.4,384.8,242.6,384.8,247,380.7z"/>
	
		<linearGradient id="SVGID_6_" gradientUnits="userSpaceOnUse" x1="261.6263" y1="-153.8092" x2="258.6932" y2="-160.7714" gradientTransform="matrix(1 0 0 -1 -75.5 309)">
		<stop  offset="0" style="stop-color:#09005D"/>
		<stop  offset="1" style="stop-color:#1A0F91"/>
	</linearGradient>
	<path class="st14" d="M176.9,459.6c0,0-0.6,2.9-0.9,5.7c0,0.3,0,0.5,0.1,0.8c0.1,0.3,0.2,0.5,0.4,0.7c0.2,0.2,0.4,0.4,0.7,0.5
		c0.3,0.1,0.5,0.2,0.8,0.2c4.1,0.2,12.9,0.6,16,0.5c0.1,0,0.2,0,0.3-0.1c0.1-0.1,0.2-0.1,0.2-0.2c0.1-0.1,0.1-0.2,0.1-0.3
		c0-0.1,0-0.2,0-0.3c-0.1-0.3-0.4-0.6-0.8-0.8l-14.4-6.3L176.9,459.6z"/>
	
		<linearGradient id="SVGID_7_" gradientUnits="userSpaceOnUse" x1="251.938" y1="-150.5845" x2="256.6446" y2="-150.6325" gradientTransform="matrix(1 0 0 -1 -75.5 309)">
		<stop  offset="0" style="stop-color:#FEBBBA"/>
		<stop  offset="1" style="stop-color:#FF928E"/>
	</linearGradient>
	<path class="st15" d="M176.5,457.9l0.4,3.4c0,0,2.5,1.1,4.3-0.1l-1-3.8L176.5,457.9z"/>
	
		<linearGradient id="SVGID_8_" gradientUnits="userSpaceOnUse" x1="271.6581" y1="-84.8078" x2="230.4397" y2="-144.0319" gradientTransform="matrix(1 0 0 -1 -75.5 309)">
		<stop  offset="0" style="stop-color:#090056"/>
		<stop  offset="1" style="stop-color:#020039"/>
	</linearGradient>
	<path class="st16" d="M177.5,393.3c-0.2,0.9-1.5,44.8,3.4,64.5c0,0.2,0,0.3-0.1,0.5c-0.1,0.1-0.2,0.3-0.4,0.3
		c-1.3,0.5-2.7,0.7-4.1,0.7c-0.3,0-0.5-0.1-0.8-0.2c-0.2-0.2-0.4-0.4-0.5-0.6c-1.4-4.6-8.1-27.5-8.8-49.4c-0.8-24.4,0-0.8,0-0.8
		l0.7-15.1L177.5,393.3z"/>
	
		<linearGradient id="SVGID_9_" gradientUnits="userSpaceOnUse" x1="240.2717" y1="-153.2429" x2="235.1696" y2="-159.0719" gradientTransform="matrix(1 0 0 -1 -75.5 309)">
		<stop  offset="0" style="stop-color:#09005D"/>
		<stop  offset="1" style="stop-color:#1A0F91"/>
	</linearGradient>
	<path class="st17" d="M160.3,461c0,0-0.9,1.4-1.8,5.3c0,0.2,0,0.3,0,0.5c0,0.2,0.1,0.3,0.2,0.5c0.1,0.1,0.2,0.3,0.4,0.3
		c0.2,0.1,0.3,0.1,0.5,0.2c1.4,0.1,3.4,0.3,5.1,0.3c0.2,0,0.4,0,0.5-0.1c0.2-0.1,0.3-0.2,0.4-0.3c0.1-0.1,0.2-0.3,0.3-0.4
		c0.1-0.2,0.1-0.3,0.1-0.5c-0.2-1.4-0.7-3.7-2.5-5.5L160.3,461z"/>
	
		<linearGradient id="SVGID_10_" gradientUnits="userSpaceOnUse" x1="235.0518" y1="-150.2497" x2="239.0603" y2="-150.2497" gradientTransform="matrix(1 0 0 -1 -75.5 309)">
		<stop  offset="0" style="stop-color:#FEBBBA"/>
		<stop  offset="1" style="stop-color:#FF928E"/>
	</linearGradient>
	<path class="st18" d="M159.6,456.5l1,5.2c0,0,1,0.7,3,0.2l-0.4-5.6L159.6,456.5z"/>
	
		<linearGradient id="SVGID_11_" gradientUnits="userSpaceOnUse" x1="263.4373" y1="-105.3933" x2="223.1726" y2="-123.5665" gradientTransform="matrix(1 0 0 -1 -75.5 309)">
		<stop  offset="0" style="stop-color:#090056"/>
		<stop  offset="1" style="stop-color:#020039"/>
	</linearGradient>
	<path class="st19" d="M157.4,394.5c-4.4,23.1,0.3,57.2,1.9,63.9c0,0.2,0.2,0.4,0.3,0.5c0.2,0.1,0.4,0.2,0.6,0.3
		c0.8,0.1,2,0.2,3.2-0.1c0.2-0.1,0.4-0.2,0.5-0.3c0.1-0.2,0.2-0.3,0.2-0.5c0.3-5.4,0.2-38.5,4.2-51.6c0.2-0.7,0.6-1.2,1.3-1.6
		l7.6-4.9l0.7-8L157.4,394.5z"/>
	
		<linearGradient id="SVGID_12_" gradientUnits="userSpaceOnUse" x1="-1401.5964" y1="1519.1812" x2="-1335.0164" y2="1455.4612" gradientTransform="matrix(1 0 0 -1 -75.5 309)">
		<stop  offset="0" style="stop-color:#4F52FF"/>
		<stop  offset="1" style="stop-color:#4042E2"/>
	</linearGradient>
	<path class="st20" d="M184.3,350.8c-12.4-0.3-26.2,2.8-26.2,2.8c-3.9,20-1.1,43.1-1.1,43.1c9.6,2.4,20.5-1.2,20.5-1.2
		c1.7-8.3,9.4-31.8,9.4-31.8c6.1-0.6,11.1-2.2,15.2-4.3c-3.1-3.4-4.5-7.7-5.2-10.2C192.6,350.3,188.1,350.9,184.3,350.8z"/>
	
		<linearGradient id="SVGID_13_" gradientUnits="userSpaceOnUse" x1="272.4912" y1="-37.3086" x2="296.696" y2="-37.3086" gradientTransform="matrix(1 0 0 -1 -75.5 309)">
		<stop  offset="0" style="stop-color:#FEBBBA"/>
		<stop  offset="1" style="stop-color:#FF928E"/>
	</linearGradient>
	<path class="st21" d="M221.2,334.2c-1.2-1.4-2.8-0.7-2.8-0.7c-1.9,7.1-11.6,12.8-21.4,15.6c0.6,2.5,2.1,6.8,5.2,10.2
		C218.6,350.9,221.2,334.2,221.2,334.2z"/>
	
		<linearGradient id="SVGID_14_" gradientUnits="userSpaceOnUse" x1="2354.3618" y1="2929.6785" x2="8.6625" y2="-435.3217" gradientTransform="matrix(1 0 0 -1 -75.5 309)">
		<stop  offset="0" style="stop-color:#FEBBBA"/>
		<stop  offset="1" style="stop-color:#FF928E"/>
	</linearGradient>
	<path class="st22" d="M220.9,334.6c0.1,0.4-1.4,0.9-2.2-0.6c0-0.7-0.5-3.9,0-4.5c2.6-3.2,7.5-7.1,7.5-7.1c0.8,0.8,0.1,1.5,0.1,1.5
		l-2.4,2.3c0.5,0.8,1.1,1.6,1.4,2.6c0.2,0.8,0.1,1.6-0.4,2.3c-0.4,0.7-1,1.6-1.6,2.3C222.4,334.6,220.9,334.6,220.9,334.6z"/>
	
		<linearGradient id="SVGID_15_" gradientUnits="userSpaceOnUse" x1="296.1914" y1="-22.6918" x2="299.4381" y2="-19.5725" gradientTransform="matrix(1 0 0 -1 -75.5 309)">
		<stop  offset="0" style="stop-color:#FEBBBA"/>
		<stop  offset="1" style="stop-color:#FF928E"/>
	</linearGradient>
	<path class="st23" d="M222.9,327.6l-2.2,1.7L220,331l1.9,2c0,0,0.7-3.4,1.2-4.1C223.6,328.1,223.3,327.8,222.9,327.6z"/>
	
		<linearGradient id="SVGID_16_" gradientUnits="userSpaceOnUse" x1="237.4235" y1="-49.0736" x2="221.3886" y2="-62.764" gradientTransform="matrix(1 0 0 -1 -75.5 309)">
		<stop  offset="0" style="stop-color:#4F52FF"/>
		<stop  offset="1" style="stop-color:#4042E2"/>
	</linearGradient>
	<path class="st24" d="M162.8,364.8l-4.7-11.2c0,0-11.7,7.2-13.7,16.4c2.2,0.2,6.2,0.7,10.1,2.6
		C155.4,368.3,162.8,364.8,162.8,364.8z"/>
	
		<linearGradient id="SVGID_17_" gradientUnits="userSpaceOnUse" x1="219.6284" y1="-68.2823" x2="250.0034" y2="-68.2823" gradientTransform="matrix(1 0 0 -1 -75.5 309)">
		<stop  offset="0" style="stop-color:#FEBBBA"/>
		<stop  offset="1" style="stop-color:#FF928E"/>
	</linearGradient>
	<path class="st25" d="M172.8,375.4c0,0-13.1,6.7-17.4,0.8c-0.9-1.2-1.1-2.4-0.9-3.6c-3.9-1.9-7.9-2.4-10.1-2.6
		c-0.6,2.8-0.3,5.8,1.4,8.8c7.6,13.1,28.7-0.5,28.7-0.5L172.8,375.4z"/>
	
		<linearGradient id="SVGID_18_" gradientUnits="userSpaceOnUse" x1="243.2094" y1="-38.38" x2="255.3512" y2="-38.38" gradientTransform="matrix(1 0 0 -1 -75.5 309)">
		<stop  offset="0" style="stop-color:#FEBBBA"/>
		<stop  offset="1" style="stop-color:#FF928E"/>
	</linearGradient>
	<path class="st26" d="M171.8,341.4l-4.1,10.5c0,0.1,0,0.2,0,0.3c0,0.1,0.1,0.2,0.2,0.2c1.1,0.6,4.9,2.2,9.7-0.5
		c0.2-0.1,0.5-0.3,0.6-0.5c0.2-0.2,0.3-0.5,0.3-0.7l1.4-9.1L171.8,341.4z"/>
	
		<linearGradient id="SVGID_19_" gradientUnits="userSpaceOnUse" x1="260.0334" y1="-33.1357" x2="246.6414" y2="-24.1733" gradientTransform="matrix(1 0 0 -1 -75.5 309)">
		<stop  offset="0" style="stop-color:#FEBBBA"/>
		<stop  offset="1" style="stop-color:#FF928E"/>
	</linearGradient>
	<path class="st27" d="M180.5,331.7c0,0,4.3,7.6,3.7,10.7c-0.6,3.1-6,2.8-10.6,0.3l-3.2-8.2L180.5,331.7z"/>
	
		<linearGradient id="SVGID_20_" gradientUnits="userSpaceOnUse" x1="243.737" y1="-19.4298" x2="254.2108" y2="-28.5523" gradientTransform="matrix(1 0 0 -1 -75.5 309)">
		<stop  offset="0" style="stop-color:#09005D"/>
		<stop  offset="1" style="stop-color:#1A0F91"/>
	</linearGradient>
	<path class="st28" d="M173.8,338.6c0,0,0.1,0,0.1-0.1c0,0,0.1-0.1,0.1-0.1c0,0,0-0.1,0-0.1c0,0,0-0.1-0.1-0.1
		c-0.3-0.5-1-1.5-1.2-2.4c0,0-0.8-0.5,2-1.1c2.8-0.6,6.9-1.5,7.8-3.7c0.9-2.1-1.3-7.5-4.9-3.3c0,0-0.1,0.1-0.1,0.1c0,0-0.1,0-0.1,0
		c-0.1,0-0.1,0-0.1,0c0,0-0.1-0.1-0.1-0.1c-0.6-0.7-2.1-2.2-4.2-1.3c-2,0.8-2.2,2.2-2.2,2.8c0,0,0,0.1,0,0.1c0,0-0.1,0.1-0.1,0.1
		c0,0-0.1,0.1-0.1,0.1c0,0-0.1,0-0.1,0c-1-0.2-3.4-0.4-4.6,1.9c-0.9,1.9-0.4,2.9,0.2,3.5c0,0,0.1,0.1,0.1,0.1s0,0.1,0,0.2
		c0,0.1,0,0.1-0.1,0.1c0,0-0.1,0.1-0.1,0.1c-0.7,0.2-1.5,0.7-1.5,2.1c0.1,2,2.5,1.8,3.2,1.7c0.1,0,0.1,0,0.2,0c0.1,0,0.1,0,0.1,0.1
		c0.6,0.6,3.2,3.2,6,3.5c0.1,0,0.1,0,0.2,0c0.1,0,0.1-0.1,0.1-0.1s0.1-0.1,0.1-0.1c0-0.1,0-0.1,0-0.2l-1.2-3.3c0-0.1,0-0.2,0-0.2
		c0-0.1,0.1-0.1,0.2-0.2L173.8,338.6z"/>
	
		<linearGradient id="SVGID_21_" gradientUnits="userSpaceOnUse" x1="250.2925" y1="-32.035" x2="246.7458" y2="-29.1407" gradientTransform="matrix(1 0 0 -1 -75.5 309)">
		<stop  offset="0" style="stop-color:#FEBBBA"/>
		<stop  offset="1" style="stop-color:#FF928E"/>
	</linearGradient>
	<path class="st29" d="M174.3,339c0,0-3.1-2-3.3-0.3c-0.2,1.7,2.8,2.4,4.3,1.8L174.3,339z"/>
	
		<linearGradient id="SVGID_22_" gradientUnits="userSpaceOnUse" x1="259.5351" y1="-52.2209" x2="264.3888" y2="-77.6792" gradientTransform="matrix(1 0 0 -1 -75.5 309)">
		<stop  offset="0" style="stop-color:#09005D"/>
		<stop  offset="1" style="stop-color:#1A0F91"/>
	</linearGradient>
	<path class="st30" d="M170.1,385.9l7.1-23.1c0-0.1,0.1-0.2,0.2-0.3s0.2-0.1,0.4-0.2c1.3-0.1,5-0.5,9.4-0.9
		c5.2-0.4,11.3-0.7,14.9-0.5c0.1,0,0.2,0,0.3,0.1c0.1,0.1,0.2,0.1,0.2,0.2c0.1,0.1,0.1,0.2,0.1,0.3c0,0.1,0,0.2-0.1,0.3
		c-2.1,3.9-10.5,19.5-14.8,24.6c-0.1,0.1-0.2,0.2-0.3,0.2c-0.1,0-0.2,0.1-0.3,0.1l-16.6-0.1c-0.1,0-0.2,0-0.3-0.1
		c-0.1,0-0.2-0.1-0.3-0.2s-0.1-0.2-0.1-0.3C170.1,386.2,170.1,386,170.1,385.9z"/>
	
		<linearGradient id="SVGID_23_" gradientUnits="userSpaceOnUse" x1="246.6655" y1="-67.4625" x2="256.1796" y2="-67.4625" gradientTransform="matrix(1 0 0 -1 -75.5 309)">
		<stop  offset="0" style="stop-color:#FEBBBA"/>
		<stop  offset="1" style="stop-color:#FF928E"/>
	</linearGradient>
	<path class="st31" d="M171.9,380.4c0,0-1-3.8-0.6-5.1c0.4-1.3,1.2-3.1,3.8-2.7c2.6,0.4,5.6,1.4,5.6,1.4s-0.2,1.7-2.1,1.2l1.2,0.9
		c0,0-0.2,1.4-1.8,0.7l1.1,1.2c0,0-0.7,1.1-1.9,0.4C175.9,377.5,175.3,380.8,171.9,380.4z"/>
	<path class="st4" d="M186.8,368.4c0,0.4,0.1,0.8,0.4,1.1c0.2,0.3,0.6,0.6,0.9,0.7c0.4,0.1,0.8,0.2,1.2,0.1c0.4-0.1,0.8-0.3,1.1-0.5
		c0.3-0.3,0.5-0.6,0.6-1c0.1-0.4,0-0.8-0.1-1.1c-0.2-0.4-0.4-0.7-0.8-0.9c-0.3-0.2-0.8-0.3-1.2-0.3c-0.3,0-0.5,0.1-0.8,0.1
		c-0.3,0.1-0.5,0.2-0.7,0.4c-0.2,0.2-0.3,0.4-0.5,0.6C186.8,367.9,186.8,368.2,186.8,368.4z"/>
	<path class="st6" d="M178.1,369.7l1.5-4.6c0.1-0.3,0.2-0.5,0.5-0.7c0.2-0.2,0.5-0.3,0.8-0.4c4.6-0.9,17-1.1,17.2-1.1l0-0.5
		c-0.5,0-12.7,0.2-17.3,1.1c-0.4,0.1-0.8,0.3-1.1,0.5c-0.3,0.3-0.5,0.6-0.6,0.9l-1.5,4.6L178.1,369.7z"/>
	
		<linearGradient id="SVGID_24_" gradientUnits="userSpaceOnUse" x1="2567.5374" y1="1873.5503" x2="31255.1328" y2="26792.3477" gradientTransform="matrix(1 0 0 -1 -75.5 309)">
		<stop  offset="0" style="stop-color:#4F52FF"/>
		<stop  offset="1" style="stop-color:#4042E2"/>
	</linearGradient>
	<path class="st32" d="M274.2,371.8l-21.6,1.4c-0.2,0-0.4,0-0.6-0.1c-0.2-0.1-0.3-0.3-0.4-0.5c-0.1-0.2-0.1-0.4-0.1-0.6
		c0-0.2,0.2-0.4,0.3-0.5l20.7-14.2L274.2,371.8z"/>
	
		<linearGradient id="SVGID_25_" gradientUnits="userSpaceOnUse" x1="9408.1846" y1="11020.7266" x2="125345.1797" y2="153422.2344" gradientTransform="matrix(1 0 0 -1 -75.5 309)">
		<stop  offset="0" style="stop-color:#4F52FF"/>
		<stop  offset="1" style="stop-color:#4042E2"/>
	</linearGradient>
	<path class="st33" d="M397.5,308L276,307.3c-2.8,0-5,1.9-5,4.2l0.5,56.6c0,2.4,2.3,4.2,5.1,4.2l120.2-3c2.7-0.1,4.8-1.9,4.8-4.1
		l0.8-52.8C402.5,309.9,400.2,308,397.5,308z"/>
	<path class="st4" d="M280.2,368c-1.4,0-2.7-0.5-3.7-1.3c-0.4-0.3-0.7-0.7-0.9-1.1c-0.2-0.4-0.3-0.9-0.3-1.4l-0.5-49.3
		c0-0.5,0.1-0.9,0.3-1.4c0.2-0.4,0.5-0.8,0.9-1.1c0.9-0.9,2.3-1.4,3.8-1.4l114.3,0.6c1.4,0,2.8,0.5,3.7,1.4c0.4,0.3,0.6,0.7,0.8,1.1
		c0.2,0.4,0.3,0.9,0.3,1.4l-0.8,46.1c0,2.1-2.1,3.7-4.7,3.8l-113,2.7L280.2,368z M279.8,311.3c-1.3,0-2.6,0.5-3.4,1.3
		c-0.3,0.3-0.6,0.6-0.8,1c-0.2,0.4-0.3,0.8-0.3,1.2l0.5,49.3c0,0.4,0.1,0.8,0.3,1.2c0.2,0.4,0.5,0.7,0.8,1c0.9,0.8,2.2,1.2,3.5,1.2
		l113-2.7c2.4-0.1,4.3-1.6,4.4-3.4l0.8-46.1c0-0.4-0.1-0.8-0.3-1.2c-0.2-0.4-0.4-0.7-0.8-1c-0.9-0.8-2.1-1.3-3.4-1.3L279.8,311.3
		L279.8,311.3z"/>
	
		<linearGradient id="SVGID_26_" gradientUnits="userSpaceOnUse" x1="272.7112" y1="-36.0113" x2="420.5161" y2="-158.4023" gradientTransform="matrix(1 0 0 -1 -75.5 309)">
		<stop  offset="0" style="stop-color:#E1473D"/>
		<stop  offset="1" style="stop-color:#E9605A"/>
	</linearGradient>
	<path class="st34" d="M272.3,403.7c-4.8,4.8-4.2,14.2,1.2,21.6c0.2,0.3,0.5,0.6,0.7,0.9c4.5,5.3,9.1,10.5,13.6,15.8
		c5.2,6,8.5,12.8,13.6,18.8c0.4,0.5,2.9,0,3.6,0c0.3,0,0.7,0,1-0.2c0.3-0.1,0.6-0.3,0.8-0.5c9.3-9.3,18.5-18.5,27.7-27.7
		c0.2-0.2,0.4-0.5,0.5-0.8c0.1-0.3,0.1-0.6,0.1-0.9c0-0.3-0.1-0.6-0.3-0.9c-0.2-0.3-0.4-0.5-0.7-0.7c-5.3-3.4-10.6-6.9-15.8-10.3
		c-7.5-4.9-14.9-9.8-22.4-14.7c-0.3-0.2-0.6-0.4-1-0.6C287,399,277.1,398.9,272.3,403.7z"/>
	
		<linearGradient id="SVGID_27_" gradientUnits="userSpaceOnUse" x1="64622.4883" y1="-54931.9609" x2="148038.4844" y2="-126098.5625" gradientTransform="matrix(1 0 0 -1 -75.5 309)">
		<stop  offset="0" style="stop-color:#E1473D"/>
		<stop  offset="1" style="stop-color:#E9605A"/>
	</linearGradient>
	<path class="st35" d="M242.2,378.7c-0.6,0.6,1.7,1.9,2,2.6l15.5,52.3c0.3,0.8,2.6,0.2,3.4,0.4c0.4,0.1,0.8,0.1,1.2,0
		c0.4-0.1,0.8-0.3,1-0.6l38.2-38.4c0.3-0.3,0.5-0.6,0.6-1c0.1-0.4,0.1-0.8,0-1.1c-0.1-0.4-0.3-0.7-0.6-1c-0.3-0.3-0.7-0.5-1.1-0.5
		l-55.4-12.8C246.2,378.3,242.8,378.1,242.2,378.7z"/>
	
		<linearGradient id="SVGID_28_" gradientUnits="userSpaceOnUse" x1="318.7254" y1="-65.4979" x2="402.1454" y2="-146.2559" gradientTransform="matrix(1 0 0 -1 -75.5 309)">
		<stop  offset="0" style="stop-color:#FF928E"/>
		<stop  offset="1" style="stop-color:#FE7062"/>
	</linearGradient>
	<path class="st36" d="M269.1,403.7c-4.8,4.8-4.2,14.2,1.2,21.6c0.2,0.3,0.5,0.6,0.7,0.9c4.5,5.3,9.1,10.5,13.6,15.8
		c5.2,6,10.3,12,15.5,18c0.2,0.2,0.5,0.5,0.8,0.6c0.3,0.1,0.6,0.2,1,0.2c0.3,0,0.7,0,1-0.2c0.3-0.1,0.6-0.3,0.8-0.5
		c9.3-9.3,18.5-18.5,27.7-27.7c0.2-0.2,0.4-0.5,0.5-0.8c0.1-0.3,0.1-0.6,0.1-0.9c0-0.3-0.1-0.6-0.3-0.9c-0.2-0.3-0.4-0.5-0.7-0.7
		c-5.3-3.4-10.6-6.9-15.8-10.3c-7.5-4.9-14.9-9.8-22.4-14.7c-0.3-0.2-0.6-0.4-1-0.6C283.7,399,273.9,398.9,269.1,403.7z"/>
	
		<linearGradient id="SVGID_29_" gradientUnits="userSpaceOnUse" x1="83749.5859" y1="-80835.9766" x2="128653.8828" y2="-124306.7734" gradientTransform="matrix(1 0 0 -1 -75.5 309)">
		<stop  offset="0" style="stop-color:#FF928E"/>
		<stop  offset="1" style="stop-color:#FE7062"/>
	</linearGradient>
	<path class="st37" d="M241.5,379.1c-0.3,0.3-0.5,0.6-0.6,1c-0.1,0.4-0.1,0.8,0,1.2l17.1,51.2c0.1,0.4,0.4,0.7,0.7,1
		c0.3,0.3,0.7,0.4,1.1,0.5s0.8,0.1,1.2,0c0.4-0.1,0.8-0.3,1-0.6l38.2-38.4c0.3-0.3,0.5-0.6,0.6-1c0.1-0.4,0.1-0.8,0-1.1
		c-0.1-0.4-0.3-0.7-0.6-1c-0.3-0.3-0.7-0.5-1.1-0.5l-55.4-12.8c-0.4-0.1-0.8-0.1-1.2,0C242.2,378.7,241.8,378.9,241.5,379.1z"/>
	<path class="st38" d="M308.4,341.9h-7.2l-1.4,3.8h-4.3l7.4-18.4h3.8l7.4,18.4h-4.3L308.4,341.9z M302.3,338.9h5l-2.5-6.9
		L302.3,338.9z"/>
	<path class="st38" d="M323.7,341.9c0-0.4-0.2-0.8-0.7-1c-0.5-0.3-1.2-0.5-2.3-0.7c-3.5-0.7-5.3-2.1-5.3-4.1c0-1.2,0.5-2.2,1.6-3
		c1.1-0.8,2.5-1.2,4.3-1.2c1.9,0,3.4,0.4,4.5,1.2c1.1,0.8,1.7,1.9,1.7,3.2h-3.9c0-0.5-0.2-0.9-0.5-1.3c-0.4-0.3-0.9-0.5-1.7-0.5
		c-0.7,0-1.2,0.1-1.5,0.4c-0.4,0.3-0.5,0.6-0.5,1.1c0,0.4,0.2,0.7,0.6,1c0.4,0.2,1.1,0.5,2.1,0.6c1,0.2,1.8,0.4,2.5,0.6
		c2.1,0.7,3.1,1.9,3.1,3.7c0,1.2-0.6,2.3-1.7,3c-1.2,0.8-2.6,1.1-4.5,1.1c-1.2,0-2.3-0.2-3.3-0.6c-1-0.4-1.7-1-2.2-1.7
		c-0.5-0.7-0.8-1.5-0.8-2.3h3.7c0,0.6,0.3,1.1,0.8,1.5c0.5,0.3,1.1,0.5,1.9,0.5c0.8,0,1.3-0.1,1.7-0.4
		C323.5,342.7,323.7,342.4,323.7,341.9z"/>
	<path class="st38" d="M338,341.9c0-0.4-0.2-0.8-0.7-1c-0.5-0.3-1.2-0.5-2.3-0.7c-3.5-0.7-5.3-2.1-5.3-4.1c0-1.2,0.5-2.2,1.6-3
		c1.1-0.8,2.5-1.2,4.3-1.2c1.9,0,3.4,0.4,4.5,1.2c1.1,0.8,1.7,1.9,1.7,3.2h-3.9c0-0.5-0.2-0.9-0.5-1.3c-0.4-0.3-0.9-0.5-1.7-0.5
		c-0.7,0-1.2,0.1-1.5,0.4c-0.4,0.3-0.5,0.6-0.5,1.1c0,0.4,0.2,0.7,0.6,1c0.4,0.2,1.1,0.5,2.1,0.6c1,0.2,1.8,0.4,2.5,0.6
		c2.1,0.7,3.1,1.9,3.1,3.7c0,1.2-0.6,2.3-1.7,3c-1.2,0.8-2.6,1.1-4.5,1.1c-1.2,0-2.3-0.2-3.3-0.6c-1-0.4-1.7-1-2.2-1.7
		c-0.5-0.7-0.8-1.5-0.8-2.3h3.7c0,0.6,0.3,1.1,0.8,1.5c0.5,0.3,1.1,0.5,1.9,0.5c0.8,0,1.3-0.1,1.7-0.4
		C337.8,342.7,338,342.4,338,341.9z"/>
	<path class="st38" d="M351.2,346c-2.2,0-3.9-0.6-5.3-1.8c-1.4-1.2-2-2.9-2-4.9v-0.4c0-1.4,0.3-2.6,0.9-3.7c0.6-1.1,1.4-1.9,2.4-2.5
		c1.1-0.6,2.3-0.9,3.6-0.9c2,0,3.6,0.6,4.8,1.8c1.2,1.2,1.7,2.8,1.7,5v1.5h-9.4c0.1,0.9,0.5,1.6,1.1,2.1c0.6,0.5,1.5,0.8,2.4,0.8
		c1.5,0,2.7-0.5,3.6-1.5l1.9,2c-0.6,0.8-1.4,1.4-2.4,1.8C353.5,345.7,352.4,346,351.2,346z M350.7,334.8c-0.8,0-1.4,0.2-1.9,0.7
		c-0.5,0.5-0.8,1.2-0.9,2.1h5.5v-0.3c0-0.8-0.3-1.4-0.7-1.9C352.2,335,351.6,334.8,350.7,334.8z"/>
	<path class="st38" d="M364.2,328.7v3.4h2.5v2.7h-2.5v6.8c0,0.5,0.1,0.9,0.3,1.1c0.2,0.2,0.6,0.3,1.2,0.3c0.4,0,0.8,0,1.2-0.1v2.8
		c-0.8,0.2-1.6,0.3-2.4,0.3c-2.8,0-4.2-1.3-4.2-3.9v-7.3h-2.2v-2.7h2.2v-3.4H364.2z"/>
	<path class="st38" d="M376.9,341.9c0-0.4-0.2-0.8-0.7-1c-0.5-0.3-1.2-0.5-2.3-0.7c-3.5-0.7-5.3-2.1-5.3-4.1c0-1.2,0.5-2.2,1.6-3
		c1.1-0.8,2.5-1.2,4.3-1.2c1.9,0,3.4,0.4,4.5,1.2c1.1,0.8,1.7,1.9,1.7,3.2h-3.9c0-0.5-0.2-0.9-0.5-1.3c-0.4-0.3-0.9-0.5-1.7-0.5
		c-0.7,0-1.2,0.1-1.5,0.4c-0.4,0.3-0.5,0.6-0.5,1.1c0,0.4,0.2,0.7,0.6,1c0.4,0.2,1.1,0.5,2.1,0.6c1,0.2,1.8,0.4,2.5,0.6
		c2.1,0.7,3.1,1.9,3.1,3.7c0,1.2-0.6,2.3-1.7,3c-1.2,0.8-2.6,1.1-4.5,1.1c-1.2,0-2.3-0.2-3.3-0.6c-1-0.4-1.7-1-2.2-1.7
		c-0.5-0.7-0.8-1.5-0.8-2.3h3.7c0,0.6,0.3,1.1,0.8,1.5c0.5,0.3,1.1,0.5,1.9,0.5c0.8,0,1.3-0.1,1.7-0.4
		C376.7,342.7,376.9,342.4,376.9,341.9z"/>
</g>
</svg>
