<?xml version="1.0" encoding="utf-8"?>
<!-- Generator: Adobe Illustrator 25.2.1, SVG Export Plug-In . SVG Version: 6.00 Build 0)  -->
<svg version="1.1" id="Layer_1" xmlns="http://www.w3.org/2000/svg" xmlns:xlink="http://www.w3.org/1999/xlink" x="0px" y="0px"
	 width="461px" height="470px" viewBox="0 0 461 470" style="enable-background:new 0 0 461 470;" xml:space="preserve">
<style type="text/css">
	.st0{fill:none;stroke:#AFC3EC;stroke-linecap:round;}
	.st1{fill:none;stroke:#0D51D9;stroke-width:18;}
	.st2{fill:none;stroke:#0D51D9;stroke-width:3;stroke-miterlimit:4.0001;}
	.st3{clip-path:url(#SVGID_2_);}
	.st4{fill:none;stroke:#B6C9CF;stroke-width:3;stroke-linecap:round;stroke-linejoin:round;}
	.st5{fill:#B6C9CF;stroke:#F5F5F5;stroke-width:3;}
	.st6{fill:#B6C9CF;stroke:#F5F5F5;stroke-width:2.7294;}
</style>
<path class="st0" d="M551.6,318.7c91.8,7.9,172.7-60.4,180.7-152.7S672.3-7.5,580.5-15.4S407.8,45,399.8,137.3"/>
<path class="st1" d="M403,214.5c14.4,1.2,24.9,13.8,23.7,27.8c-1.2,14-13.7,24.5-28.1,23.3s-24.9-13.8-23.7-27.8
	C376.1,223.8,388.6,213.3,403,214.5z"/>
<ellipse class="st2" cx="430.5" cy="2.5" rx="7.9" ry="7.9"/>
<g>
	<g>
		<g>
			<g>
				<g>
					<defs>
						
							<rect id="SVGID_1_" x="422.5" y="327.3" transform="matrix(0.5 -0.866 0.866 0.5 -86.3172 582.1118)" width="77" height="77"/>
					</defs>
					<clipPath id="SVGID_2_">
						<use xlink:href="#SVGID_1_"  style="overflow:visible;"/>
					</clipPath>
					<g class="st3">
						<path class="st4" d="M494.9,352L456,329.5c-3.1-1.8-7-0.7-8.8,2.3l-22.5,38.9c-1.8,3.1-0.7,7,2.3,8.8l39,22.5
							c3.1,1.8,7,0.7,8.8-2.3l22.5-38.9C499,357.7,498,353.8,494.9,352z"/>
						<path class="st4" d="M440.8,343l50,28.9"/>
						<path class="st4" d="M438.2,386l19.2-33.3"/>
					</g>
				</g>
			</g>
		</g>
	</g>
</g>
<g>
	<path class="st5" d="M281.7,443.5v5.5H276v-5.5c0-3.1-3-5-5.9-5h-52.3c-2.9,0-5.9,1.9-5.9,5v5.5h-5.7v-5.5c0-4.7,4.9-9,11.6-9h21.8
		h1.5V433v-12.6h5.7V433v1.5h1.5h21.8C276.9,434.6,281.7,438.9,281.7,443.5z"/>
	<path class="st6" d="M279.3,384.5h1.2l0.3-1.1c1.9-7.1,9.9-11.8,19.9-11.8h2.8v5h-2.9c-7.7,0-14.6,4.1-14.6,11v4.8
		c0,9.7-9.3,18-21.2,18h-41.7c-11.9,0-21.2-8.3-21.2-18v-4.8v-1.5h-0.2c-0.9-6.1-7.3-9.5-14.5-9.5h-2.8v-5h2.8
		c10,0,18,4.7,19.9,11.8l0.3,1.1h1.2h4.8h1.5V383v-35.1c0-13,10.8-23.9,24.8-25.1l1.4-0.1v-1.4v-3.6v-1.5h-1.5h-4.4
		c-6.7,0-11.6-4.3-11.6-9s4.9-9,11.6-9h17.4c6.7,0,11.6,4.3,11.6,9s-4.9,9-11.6,9h-4.4h-1.5v1.5v3.6v1.4l1.4,0.1
		c14,1.3,24.8,12.2,24.8,25.1V383v1.5h1.5H279.3z M265.8,384.9h1.5v-1.4v-35.1c0-11.1-9.8-20.1-21.8-20.1h-3c-12,0-21.8,9-21.8,20.1
		v35.1v1.4h1.5H265.8z M209.2,391h-1.5v1.2v1.2c0,6.5,7.1,11.6,15.5,11.6h41.7c8.4,0,15.5-5,15.5-11.6v-1.2V391h-1.5H209.2z
		 M229.4,307.2c0,2.5,3,4,5.9,4h17.4c2.9,0,5.9-1.5,5.9-4s-3-4-5.9-4h-17.4C232.4,303.2,229.4,304.8,229.4,307.2z"/>
</g>
</svg>
