<?xml version="1.0" encoding="utf-8"?>
<!-- Generator: Adobe Illustrator 25.2.1, SVG Export Plug-In . SVG Version: 6.00 Build 0)  -->
<svg version="1.1" id="Layer_1" xmlns="http://www.w3.org/2000/svg" xmlns:xlink="http://www.w3.org/1999/xlink" x="0px" y="0px"
	 width="361.2px" height="509px" viewBox="0 0 361.2 509" style="enable-background:new 0 0 361.2 509;" xml:space="preserve">
<style type="text/css">
	.st0{fill:#E3EBFA;}
	.st1{fill:#F5F5F5;}
	.st2{fill:#0D51D9;}
	.st3{opacity:0.8;fill:#FFFFFF;enable-background:new    ;}
	.st4{fill:#FFFFFF;}
	.st5{opacity:0.3;fill:#0D51D9;enable-background:new    ;}
	.st6{opacity:0.4;fill:#0D51D9;enable-background:new    ;}
	.st7{opacity:0.1;fill:#0D51D9;enable-background:new    ;}
	.st8{opacity:0.6;fill:#FFFFFF;enable-background:new    ;}
	.st9{fill:#263238;}
	.st10{fill:#FF8B7B;}
	.st11{opacity:0.2;enable-background:new    ;}
	.st12{fill:#FF5652;}
	.st13{opacity:0.2;}
	.st14{opacity:0.5;fill:#0D51D9;enable-background:new    ;}
</style>
<g>
	<path class="st0" d="M163.6,325.7c-54.8-1-106.9-18.4-128.1,40.1c-25.3,69.9,31.3,106.9,99,100.8c36.6-3.3,92.3-43.8,105.8-78
		c6.8-17.3,11.3-55.6-3.9-67.6C212.7,302.1,190.7,326.2,163.6,325.7z"/>
	<path class="st1" d="M165.3,506.4c77.7,0,140.8-3.7,140.8-8.2s-63-8.2-140.8-8.2c-77.7,0-140.8,3.7-140.8,8.2
		S87.6,506.4,165.3,506.4z"/>
	<path class="st2" d="M261.2,414.1H91.1c-1,0-2-0.2-2.9-0.6s-1.8-1-2.5-1.7c-0.7-0.7-1.2-1.6-1.6-2.6c-0.3-0.9-0.5-2-0.4-3
		l6.4-131.7c0.1-2.1,1-4.1,2.6-5.5c1.5-1.5,3.5-2.3,5.6-2.3h170.1c1,0,2,0.2,2.9,0.6c0.9,0.4,1.8,1,2.5,1.7c0.7,0.7,1.2,1.6,1.6,2.6
		c0.3,0.9,0.5,2,0.4,3l-6.4,131.7c-0.1,2.1-1,4.1-2.6,5.5C265.3,413.2,263.3,414.1,261.2,414.1z"/>
	<path class="st3" d="M261.2,414.1H91.1c-1,0-2-0.2-2.9-0.6s-1.8-1-2.5-1.7c-0.7-0.7-1.2-1.6-1.6-2.6c-0.3-0.9-0.5-2-0.4-3
		l6.4-131.7c0.1-2.1,1-4.1,2.6-5.5c1.5-1.5,3.5-2.3,5.6-2.3h170.1c1,0,2,0.2,2.9,0.6c0.9,0.4,1.8,1,2.5,1.7c0.7,0.7,1.2,1.6,1.6,2.6
		c0.3,0.9,0.5,2,0.4,3l-6.4,131.7c-0.1,2.1-1,4.1-2.6,5.5C265.3,413.2,263.3,414.1,261.2,414.1z"/>
	<path class="st2" d="M143.4,264.5h-3.5v0.7h3.5V264.5z"/>
	<path class="st2" d="M136,264.5h-14.2v0.7H136V264.5z"/>
	<path class="st2" d="M268.4,266.8H98.3c-2.1,0-4.1,0.8-5.6,2.3c-1.5,1.5-2.4,3.4-2.6,5.5h185.9c0.1-1-0.1-2-0.4-3
		c-0.4-1-0.9-1.8-1.6-2.6c-0.7-0.7-1.6-1.3-2.5-1.7C270.4,267,269.4,266.8,268.4,266.8z"/>
	<path class="st4" d="M266.6,288.3H98c-0.3,0-0.5,0-0.8-0.2c-0.3-0.1-0.5-0.3-0.7-0.5c-0.2-0.2-0.3-0.4-0.4-0.7
		c-0.1-0.3-0.1-0.5-0.1-0.8l0.2-4.3c0-0.6,0.3-1.1,0.7-1.5c0.4-0.4,0.9-0.6,1.5-0.6H267c0.3,0,0.5,0.1,0.8,0.2s0.5,0.3,0.7,0.5
		c0.2,0.2,0.3,0.4,0.4,0.7c0.1,0.3,0.1,0.5,0.1,0.8l-0.2,4.3c0,0.6-0.3,1.1-0.7,1.5C267.7,288.1,267.2,288.3,266.6,288.3z"/>
	<path class="st5" d="M147.3,286.3h-45.7c-0.1,0-0.3,0-0.4-0.1c-0.1-0.1-0.2-0.1-0.3-0.2c-0.1-0.1-0.2-0.2-0.2-0.4
		c0-0.1-0.1-0.3-0.1-0.4l0.1-2.2c0-0.3,0.1-0.6,0.4-0.8c0.2-0.2,0.5-0.3,0.8-0.3h45.7c0.1,0,0.3,0,0.4,0.1c0.1,0.1,0.2,0.1,0.3,0.2
		s0.2,0.2,0.2,0.4c0,0.1,0.1,0.3,0.1,0.4l-0.1,2.2c0,0.3-0.1,0.6-0.4,0.8C147.9,286.1,147.6,286.3,147.3,286.3z"/>
	<path class="st4" d="M265.9,301.4H97.4c-0.3,0-0.5-0.1-0.8-0.2c-0.2-0.1-0.5-0.3-0.7-0.5c-0.2-0.2-0.3-0.4-0.4-0.7
		c-0.1-0.3-0.1-0.5-0.1-0.8l0.2-4.3c0-0.6,0.3-1.1,0.7-1.5s0.9-0.6,1.5-0.6h168.6c0.3,0,0.5,0.1,0.8,0.2c0.3,0.1,0.5,0.3,0.7,0.5
		c0.2,0.2,0.3,0.4,0.4,0.7c0.1,0.3,0.1,0.5,0.1,0.8l-0.2,4.3c0,0.6-0.3,1.1-0.7,1.5C267,301.2,266.5,301.4,265.9,301.4z"/>
	<path class="st5" d="M154.1,299.4H101c-0.1,0-0.3,0-0.4-0.1c-0.1-0.1-0.2-0.1-0.3-0.2c-0.1-0.1-0.2-0.2-0.2-0.4
		c0-0.1-0.1-0.3-0.1-0.4l0.1-2.2c0-0.3,0.1-0.6,0.4-0.8c0.2-0.2,0.5-0.3,0.8-0.3h53.1c0.1,0,0.3,0,0.4,0.1c0.1,0.1,0.2,0.1,0.3,0.2
		c0.1,0.1,0.2,0.2,0.2,0.4c0,0.1,0.1,0.3,0.1,0.4l-0.1,2.2c0,0.3-0.1,0.6-0.4,0.8C154.7,299.2,154.4,299.4,154.1,299.4z"/>
	<path class="st4" d="M263.3,401.4H94.7c-0.3,0-0.5,0-0.8-0.2c-0.3-0.1-0.5-0.3-0.7-0.5c-0.2-0.2-0.3-0.4-0.4-0.7
		c-0.1-0.3-0.1-0.5-0.1-0.8l4.4-89.8c0-0.6,0.3-1.1,0.7-1.5c0.4-0.4,0.9-0.6,1.5-0.6h168.6c0.3,0,0.5,0.1,0.8,0.2
		c0.3,0.1,0.5,0.3,0.7,0.5c0.2,0.2,0.3,0.4,0.4,0.7c0.1,0.3,0.1,0.5,0.1,0.8l-4.4,89.8c0,0.6-0.3,1.1-0.7,1.5
		C264.4,401.2,263.9,401.4,263.3,401.4z"/>
	<path class="st5" d="M130.2,314.2h-29.8c-0.1,0-0.3,0-0.4-0.1c-0.1-0.1-0.2-0.1-0.3-0.2s-0.2-0.2-0.2-0.4c0-0.1-0.1-0.3-0.1-0.4
		l0.1-2.2c0-0.3,0.1-0.6,0.4-0.8c0.2-0.2,0.5-0.3,0.8-0.3h29.8c0.1,0,0.3,0,0.4,0.1c0.1,0.1,0.2,0.1,0.3,0.2
		c0.1,0.1,0.2,0.2,0.2,0.4c0,0.1,0.1,0.3,0.1,0.4l-0.1,2.2c0,0.3-0.1,0.6-0.4,0.8C130.8,314,130.5,314.2,130.2,314.2z"/>
	<path class="st5" d="M186.7,323.2H99.9c-0.1,0-0.3,0-0.4-0.1c-0.1-0.1-0.2-0.1-0.3-0.2c-0.1-0.1-0.2-0.2-0.2-0.4
		c0-0.1-0.1-0.3-0.1-0.4l0.1-2.2c0-0.3,0.1-0.6,0.4-0.8c0.2-0.2,0.5-0.3,0.8-0.3h86.8c0.1,0,0.3,0,0.4,0.1c0.1,0.1,0.2,0.1,0.3,0.2
		c0.1,0.1,0.2,0.2,0.2,0.4c0,0.1,0.1,0.3,0.1,0.4l-0.1,2.2c0,0.3-0.1,0.6-0.4,0.8C187.2,323.1,187,323.2,186.7,323.2z"/>
	<path class="st5" d="M170.5,329.9h-71c-0.1,0-0.3,0-0.4-0.1c-0.1-0.1-0.2-0.1-0.3-0.2c-0.1-0.1-0.2-0.2-0.2-0.4
		c0-0.1-0.1-0.3-0.1-0.4l0.1-2.2c0-0.3,0.1-0.6,0.4-0.8c0.2-0.2,0.5-0.3,0.8-0.3h71c0.1,0,0.3,0,0.4,0.1c0.1,0.1,0.2,0.1,0.3,0.2
		c0.1,0.1,0.2,0.2,0.2,0.4c0,0.1,0.1,0.3,0.1,0.4l-0.1,2.2c0,0.3-0.1,0.6-0.4,0.8C171.1,329.8,170.8,329.9,170.5,329.9z"/>
	<path class="st2" d="M247.7,409.2h12.5c0.7,0,1.4-0.3,1.9-0.8c0.5-0.5,0.8-1.1,0.9-1.8c0-0.3,0-0.7-0.1-1c-0.1-0.3-0.3-0.6-0.5-0.9
		c-0.2-0.2-0.5-0.4-0.8-0.6c-0.3-0.1-0.6-0.2-1-0.2h-12.5c-0.7,0-1.4,0.3-1.9,0.8c-0.5,0.5-0.8,1.1-0.9,1.8c0,0.3,0,0.7,0.1,1
		c0.1,0.3,0.3,0.6,0.5,0.8c0.2,0.2,0.5,0.4,0.8,0.6C247,409.1,247.3,409.2,247.7,409.2z"/>
	<path class="st6" d="M233.6,406.6c0,0.3,0,0.5,0.1,0.7c0.1,0.2,0.2,0.5,0.4,0.6c0.2,0.2,0.4,0.3,0.6,0.4c0.2,0.1,0.5,0.1,0.7,0.1
		c0.5,0,1-0.2,1.4-0.6c0.4-0.4,0.6-0.9,0.6-1.4c0-0.3,0-0.5-0.1-0.7c-0.1-0.2-0.2-0.5-0.4-0.6c-0.2-0.2-0.4-0.3-0.6-0.4
		c-0.2-0.1-0.5-0.1-0.7-0.1c-0.5,0-1,0.2-1.4,0.6C233.9,405.6,233.7,406.1,233.6,406.6z"/>
	<path class="st6" d="M224.4,406.6c0,0.3,0,0.5,0.1,0.7c0.1,0.2,0.2,0.5,0.4,0.6c0.2,0.2,0.4,0.3,0.6,0.4c0.2,0.1,0.5,0.1,0.7,0.1
		c0.5,0,1-0.2,1.4-0.6c0.4-0.4,0.6-0.9,0.6-1.4c0-0.3,0-0.5-0.1-0.7c-0.1-0.2-0.2-0.5-0.4-0.6c-0.2-0.2-0.4-0.3-0.6-0.4
		c-0.2-0.1-0.5-0.1-0.7-0.1c-0.5,0-1,0.2-1.4,0.6C224.7,405.6,224.4,406.1,224.4,406.6z"/>
	<path class="st6" d="M215.2,406.6c0,0.3,0,0.5,0.1,0.7c0.1,0.2,0.2,0.5,0.4,0.6c0.2,0.2,0.4,0.3,0.6,0.4c0.2,0.1,0.5,0.1,0.7,0.1
		c0.5,0,1-0.2,1.4-0.6c0.4-0.4,0.6-0.9,0.6-1.4c0-0.3,0-0.5-0.1-0.7c-0.1-0.2-0.2-0.5-0.4-0.6c-0.2-0.2-0.4-0.3-0.6-0.4
		c-0.2-0.1-0.5-0.1-0.7-0.1c-0.5,0-1,0.2-1.4,0.6C215.4,405.6,215.2,406.1,215.2,406.6z"/>
	<path class="st7" d="M177.7,393.4v-0.4l0.1-1.6c0-1.1,0-2.1,0-3.2c0-2.1-0.2-4.3-0.4-6.4c-0.2-2.1-0.6-4.2-1-6.2
		c-0.1-0.5-0.2-1-0.4-1.6l1.8-1.5c0,0-2.9-10-5.8-10.7h-0.1c-0.2,0-0.4-0.1-0.6-0.1c-3.9-0.5-7.8-0.8-11.8-0.8
		c-2.3-2.2-1.9-6.6-1.1-10.5c0.1-0.2,0.3-0.5,0.4-0.7c3.3-2.2,5.8-5.4,7-9.2c1.8,0.4,4.5,0.4,7.8-1.6c-1.2,0.3-2.4,0.3-3.6,0.2
		c1.4-0.6,2.7-1.6,3.5-2.9c0.9-1.3,1.3-2.8,1.3-4.4c0-0.8-0.2-1.6-0.5-2.4c-0.3-0.7-0.9-1.4-1.5-1.9c-0.6-0.5-1.4-0.9-2.2-1.1
		c-0.8-0.2-1.6-0.2-2.4-0.1c-1.8,0.3-3.5,1.4-4.6,2.9h-0.3c-1.1-0.8-2.5-1.3-3.9-1.2c-3.5-4.5-18.7-3.2-21.1,2.7
		c-1.3,3.2-0.4,5.1,1,6.2c-0.3,1.1-0.4,2.2-0.4,3.4c-0.2,0.2-0.4,0.3-0.5,0.5c0,0-0.1,0.1-0.1,0.1c0,0,0,0.1,0,0.1c0,0,0,0.1,0,0.1
		c0,0,0,0.1,0.1,0.1c0,0,0.1,0.1,0.2,0.1c0.1,0,0.1,0,0.2,0c0.1,0,0.1-0.1,0.2-0.1l0.1-0.1c0.1,1.2,0.3,2.3,0.7,3.4
		c0,2.5,0.5,5,1.3,7.3c1.5,4.1,5.5,5.7,9.4,4.8c0,0.3,0,0.6,0,0.9c0,1.9-1,3.3-4.6,4.4c-2,0.3-4,0.7-5.9,1.1
		c-2.3,0.5-4.3,1.8-5.7,3.7c-2.8,3-6.2,12.4-6.2,12.4l2.3,1.2c-0.2,1-0.5,1.9-0.7,2.9c0,0,0,0.1,0,0.1h-16.3c-0.5,0-1.1,0.1-1.5,0.3
		c-0.5,0.2-0.9,0.5-1.3,0.9c-0.4,0.4-0.6,0.8-0.8,1.3c-0.2,0.5-0.3,1-0.2,1.6l0.4,7.4c-0.1,0-0.1,0.1-0.2,0.1l-1.4,1.3l0.3,6.5
		c0.5,0.4,1.1,0.7,1.7,0.9l0.2,3.6c0,0.5,0.1,0.9,0.3,1.3c-8,0.7-12.4,2.8-13.5,5.6h65.8c0.3-2.2,0.5-4.3,0.5-6.5l0.6,0
		c0.3,0,0.6-0.2,0.5-0.4l-0.6-2.6c-0.1-0.1-0.1-0.1-0.2-0.2c-0.1,0-0.2,0-0.3,0h0c0-0.8,0.1-1.6,0.1-2.3c1.9,0,3.8-0.1,5.6-0.5
		c1.4-0.3,2.8-0.8,4.1-1.5c0.8-0.5,1.5-1.1,2.2-1.8c0.7-0.8,1.3-1.7,1.6-2.7c0.2-0.5,0.3-1,0.3-1.5
		C177.7,393.8,177.7,393.6,177.7,393.4z M170.9,394.3c-0.1,0.1-0.2,0.2-0.3,0.3c-0.6,0.4-1.3,0.7-2,0.9c-1.5,0.4-2.9,0.7-4.5,0.8
		c0.4-4.5,1.2-9,2.2-13.4c0.1-0.4,0.2-0.9,0.3-1.3c0-0.2,0.1-0.4,0.1-0.6c0-0.2,0.1-0.5,0.2-0.7c0.3,0.4,0.5,0.7,0.5,0.7l1.9-1.5
		c0.3,1.4,0.5,2.7,0.7,4.1c0.3,1.9,0.5,3.8,0.6,5.7c0,1,0.1,1.9,0.2,2.9L170.9,394.3C170.9,394.2,170.9,394.2,170.9,394.3
		L170.9,394.3z"/>
	<path class="st2" d="M175.5,436.9h-71.4c-0.2,0-0.3,0-0.5-0.1c-0.1-0.1-0.3-0.2-0.4-0.3s-0.2-0.3-0.2-0.4c0-0.2,0-0.3,0-0.5v-0.1
		c1.4-5.1,6.7-9.1,11.7-9.1h63c0.2,0,0.3,0,0.4,0.1c0.1,0.1,0.3,0.2,0.4,0.3c0.1,0.1,0.2,0.3,0.2,0.4c0,0.2,0,0.3,0,0.5l-2.4,8.5
		c-0.1,0.2-0.2,0.4-0.3,0.5C176,436.9,175.7,436.9,175.5,436.9z"/>
	<path class="st2" d="M176.9,498.2h2.8l-10.6-61.3h-2.8L176.9,498.2z"/>
	<path class="st8" d="M176.9,498.2h2.8l-10.6-61.3h-2.8L176.9,498.2z"/>
	<path class="st2" d="M160.9,498.2h2.8l-5.3-61.3h-2.8L160.9,498.2z"/>
	<path class="st8" d="M160.9,498.2h2.8l-5.3-61.3h-2.8L160.9,498.2z"/>
	<path class="st2" d="M104.2,498.2h-2.8l10.6-61.3h2.8L104.2,498.2z"/>
	<path class="st8" d="M104.2,498.2h-2.8l10.6-61.3h2.8L104.2,498.2z"/>
	<path class="st2" d="M120.2,498.2h-2.8l5.3-61.3h2.8L120.2,498.2z"/>
	<path class="st8" d="M120.2,498.2h-2.8l5.3-61.3h2.8L120.2,498.2z"/>
	<path class="st9" d="M155.1,339.4c3.4-0.6,5.7-4,5.1-7.6c-0.6-3.6-3.9-6.1-7.3-5.6c-3.4,0.6-5.7,4-5.1,7.6
		C148.4,337.5,151.6,340,155.1,339.4z"/>
	<path class="st9" d="M149.7,339.4c0,0,4.5,3.2,10.2-0.6c-3,0.8-6.3-0.5-6.3-0.5L149.7,339.4z"/>
	<path class="st2" d="M153.7,334c0.5,3.2-1.3,6.1-4.2,6.6c-2.8,0.5-5.5-1.7-6.1-4.9c-0.5-3.2,1.3-6.1,4.2-6.6
		C150.5,328.6,153.2,330.9,153.7,334z"/>
	<path class="st9" d="M143.6,351.1c5.6-1.5,12.5-10.9,6.4-20.2c-2.3,0-8.6,2.1-8.6,2.1L143.6,351.1z"/>
	<path class="st9" d="M128.9,329.5c-4.4,3.9-6.4,14.4,3.4,20.9c2.1-1,6.7-5.8,6.7-5.8L128.9,329.5z"/>
	<path class="st10" d="M130.2,372.7c0,1.1-0.1,2-0.2,2.9c-0.1,1-0.2,1.9-0.3,2.9c-0.2,1.9-0.5,3.8-0.8,5.7
		c-0.6,3.8-1.4,7.5-2.4,11.1l-0.8,2.7l-0.9,2.7c-0.4,1.4-1.2,2.7-2.3,3.7c-1.1,1-2.4,1.7-3.8,2c-2.2,0.4-4.6,0.3-6.8-0.3
		c-1-0.3-2-0.6-2.9-1c-0.9-0.4-1.8-0.8-2.7-1.3l1.5-3.4c0.8,0.2,1.7,0.3,2.5,0.5c0.8,0.1,1.7,0.2,2.5,0.2c1.4,0.1,2.9,0,4.2-0.5
		c0.4-0.1,0.7-0.4,1-0.7c0.1-0.1,0.2-0.3,0.2-0.4c0-0.1,0.1-0.2,0.1-0.3c0-0.1,0-0.1,0-0.2l0.1-0.2l0.7-2.6l0.6-2.6
		c0.8-3.5,1.4-7,1.9-10.6c0.3-1.8,0.5-3.5,0.7-5.3c0.1-0.9,0.2-1.8,0.3-2.7c0.1-0.9,0.2-1.8,0.2-2.6L130.2,372.7z"/>
	<path class="st2" d="M124.9,365.8c-2.7,1.6-5.4,13.2-5.4,13.2l11.4,5.8c0,0,4.9-12.4,2.6-15.8C131.2,365.5,128.8,363.4,124.9,365.8
		z"/>
	<path class="st11" d="M122.7,374.5c-0.5,2-0.5,4.1,0,6.1l8.2,4.2c0,0,2.8-7.3,3.2-12.2C131.2,369.7,124.6,369.3,122.7,374.5z"/>
	<path class="st10" d="M109.3,400.9l-7.4-4.8l1.2,6.5c0,0,2.7,1.7,4.4,1.3L109.3,400.9z"/>
	<path class="st2" d="M123.1,371.2c0.4,6.4,1.8,17.9,6,36.8l29.5-1.7c-1.2-12-1.7-19.4,2.6-44.4c-4.2-0.6-8.4-0.9-12.6-0.9
		c-4.5-0.1-9,0.2-13.4,0.8c-1.9,0.3-3.9,0.7-5.8,1.1c-1.9,0.4-3.6,1.5-4.7,3C123.5,367.3,122.9,369.2,123.1,371.2z"/>
	<path class="st11" d="M137.3,367.3c0,0,2.9,3.7,6.9,4.9c3.9,1.2,5.1-6.9,4.5-11.3C144.9,360,137.3,367.3,137.3,367.3z"/>
	<path class="st4" d="M137.3,367.3c0,0,3.3,3.3,7.3,4.5c4,1.2,4.7-6.5,4.1-10.9C144.9,360,137.3,367.3,137.3,367.3z"/>
	<path class="st11" d="M137.3,367.3c-1.2,2.1-3.1,3.7-5.4,4.5c-3.9,1.5,0.3-8.5,3.3-10.1C138.8,360.8,137.3,367.3,137.3,367.3z"/>
	<path class="st4" d="M137.3,367.3c-1.3,1.9-3.3,3.4-5.6,4c-3.9,1.2,0.5-8,3.5-9.6C138.8,360.8,137.3,367.3,137.3,367.3z"/>
	<path class="st4" d="M158.9,404.5l0.9,2.6c0.1,0.2-0.1,0.4-0.5,0.4l-30.4,1.8c-0.3,0-0.5-0.1-0.5-0.3l-0.4-2.6
		c0-0.2,0.2-0.3,0.5-0.4l29.9-1.8c0.1,0,0.2,0,0.3,0C158.8,404.3,158.9,404.4,158.9,404.5z"/>
	<path class="st9" d="M155,408l0.8,0c0.2,0,0.3-0.1,0.3-0.2l-0.6-3.4c0-0.1-0.2-0.2-0.3-0.2l-0.8,0c-0.2,0-0.3,0.1-0.3,0.2l0.6,3.4
		C154.7,408,154.8,408.1,155,408z"/>
	<path class="st9" d="M131.2,409.5l0.8-0.1c0.2,0,0.3-0.1,0.3-0.2l-0.6-3.4c0-0.1-0.2-0.2-0.3-0.2l-0.8,0.1c-0.2,0-0.3,0.1-0.3,0.2
		l0.6,3.4C130.9,409.4,131.1,409.5,131.2,409.5z"/>
	<path class="st9" d="M143.1,408.7l0.8-0.1c0.2,0,0.3-0.1,0.3-0.2l-0.6-3.4c0-0.1-0.2-0.2-0.3-0.2l-0.8,0.1c-0.2,0-0.3,0.1-0.3,0.2
		l0.6,3.4C142.8,408.7,142.9,408.7,143.1,408.7z"/>
	<path class="st11" d="M160.6,365.7c-2.6,1.2-4.6,3.3-5.7,5.9c-1.3,3.3,2.5,9.9,3.4,11.4C158.7,378.3,159.4,372.8,160.6,365.7z"/>
	<path class="st10" d="M146.4,347.5c-0.6,4.4-1.1,10.7,2.1,13.4c-4.4,2.9-8.2,6.6-11.3,10.9c-5.1-6.8-2.1-10.1-2.1-10.1
		c4.7-1.5,4.5-3.4,3.5-6.7L146.4,347.5z"/>
	<path class="st11" d="M143.3,350.6l-4.6,4.4c0.3,0.8,0.4,1.6,0.6,2.4c1.8-0.4,4.6-2.1,4.9-4.1C144.2,352.3,143.4,351,143.3,350.6z"
		/>
	<path class="st10" d="M146.3,337.3c1.1,7.1,1.8,10.1-1,14.5c-4.1,6.6-13.1,6.5-16.4-0.2c-2.9-6-4.3-16.7,1.9-21
		c1.4-1,3-1.6,4.7-1.7c1.7-0.2,3.4,0.1,4.9,0.8c1.5,0.7,2.9,1.7,3.9,3.1C145.4,334.1,146.1,335.6,146.3,337.3z"/>
	<path class="st9" d="M144.3,327.8c-7.3-5.2-25.2-3-22.4,3c3.3,7.3,9,7.4,9,7.4s-2.3-1.1-2.2-2.5c5.3-1.7,9.4,1.7,11.7-0.5
		c-1,4.1,5.6,8,5.6,8c1.8-1.6,3.3-3.6,4.4-5.8C151.9,333.9,150.7,328,144.3,327.8z"/>
	<path class="st9" d="M135.5,341.7c0.1,0.6-0.1,1.1-0.5,1.2c-0.4,0.1-0.8-0.3-0.9-0.9c-0.1-0.6,0.1-1.1,0.4-1.2
		C134.9,340.7,135.4,341.1,135.5,341.7z"/>
	<path class="st9" d="M129,343.1c0.1,0.6-0.1,1.1-0.4,1.2c-0.4,0.1-0.8-0.3-0.9-0.9c-0.1-0.6,0.1-1.1,0.4-1.2
		C128.5,342.2,128.9,342.6,129,343.1z"/>
	<path class="st9" d="M128.3,342.2l-1.5-0.1C126.8,342.2,127.8,343.1,128.3,342.2z"/>
	<path class="st12" d="M131.2,343.7c-0.2,1.4-0.6,2.8-1.2,4.1c0.3,0.1,0.7,0.2,1.1,0.2c0.4,0,0.7-0.1,1.1-0.3L131.2,343.7z"/>
	<path class="st9" d="M135.8,349.3c-0.3,0.1-0.5,0.2-0.8,0.3c0,0,0,0-0.1,0c0,0,0,0-0.1,0c0,0,0,0-0.1,0c0,0,0,0,0-0.1
		c0,0,0,0,0-0.1c0,0,0,0,0-0.1c0,0,0,0,0-0.1c0,0,0,0,0.1,0c0.7-0.1,1.4-0.5,2-0.9c0.6-0.5,1-1,1.3-1.7c0,0,0,0,0-0.1c0,0,0,0,0.1,0
		c0,0,0,0,0.1,0s0,0,0.1,0c0,0,0,0,0.1,0c0,0,0,0,0,0.1c0,0,0,0,0,0.1c0,0,0,0,0,0.1c-0.3,0.6-0.6,1.1-1.1,1.6
		C136.9,348.7,136.4,349.1,135.8,349.3z"/>
	<path class="st10" d="M149.1,342.8c-0.2,1.4-1,2.6-2.1,3.4c-1.5,1.1-2.9-0.1-3-1.9c-0.1-1.6,0.6-4,2.3-4.4c0.4-0.1,0.8-0.1,1.2,0.1
		c0.4,0.1,0.7,0.3,1,0.6c0.3,0.3,0.5,0.6,0.6,1C149.1,342,149.1,342.4,149.1,342.8z"/>
	<path class="st9" d="M136.5,338.6c-0.1,0-0.1,0-0.2,0c-0.1,0-0.1-0.1-0.2-0.1c-0.9-1.3-2.9-1.5-2.9-1.5c0,0-0.1,0-0.1,0
		c0,0-0.1,0-0.1-0.1s-0.1-0.1-0.1-0.1c0,0,0-0.1,0-0.1c0,0,0-0.1,0-0.1c0,0,0-0.1,0.1-0.1c0,0,0.1-0.1,0.1-0.1c0,0,0.1,0,0.1,0
		c0.1,0,2.4,0.1,3.5,1.8c0,0,0,0.1,0,0.1c0,0,0,0.1,0,0.1c0,0,0,0.1-0.1,0.1c0,0-0.1,0.1-0.1,0.1
		C136.6,338.6,136.5,338.6,136.5,338.6z"/>
	<path class="st9" d="M125.3,341.1c-0.1,0-0.1,0-0.2,0c-0.1,0-0.1-0.1-0.2-0.1c0-0.1-0.1-0.1-0.1-0.2c0-0.1,0-0.2,0.1-0.2
		c0.3-0.4,0.8-0.8,1.2-1c0.5-0.2,1-0.4,1.6-0.3c0,0,0.1,0,0.1,0c0,0,0.1,0,0.1,0.1c0,0,0.1,0.1,0.1,0.1c0,0,0,0.1,0,0.1
		c0,0.1-0.1,0.2-0.1,0.2c-0.1,0.1-0.2,0.1-0.2,0.1c-0.4,0-0.9,0.1-1.3,0.3c-0.4,0.2-0.7,0.5-1,0.8
		C125.4,341,125.4,341.1,125.3,341.1z"/>
	<path class="st10" d="M92.2,491.8l-6.4-2.8l6.2-16.4l6.4,2.8L92.2,491.8z"/>
	<path class="st9" d="M85.5,487.6l7.8,2.6c0.1,0,0.2,0.1,0.3,0.3c0.1,0.1,0.1,0.3,0.1,0.4l-1.2,6.4c0,0.2-0.1,0.3-0.2,0.4
		c-0.1,0.1-0.2,0.2-0.4,0.3c-0.1,0.1-0.3,0.1-0.5,0.1c-0.2,0-0.3,0-0.5-0.1c-2.7-1-3.9-1.6-7.3-2.7c-2.1-0.7-6.5-1.5-9.4-2.4
		c-2.9-1-2.1-3.9-0.8-3.7c5.8,0.7,8.5-0.7,10.9-1.6C84.6,487.5,85.1,487.4,85.5,487.6z"/>
	<g class="st13">
		<path class="st11" d="M98.4,475.4l-6.4-2.8l-3.7,9.8l6.8,2L98.4,475.4z"/>
	</g>
	<path class="st9" d="M143.2,407.1c0,0-39.6,2.8-41.2,16.3c-2.7,22.9-13.8,54.5-13.8,54.5l8.9,3.8c0,0,16.5-30.4,21.1-50.3
		c7.7-4.4,45.9,11.2,40.3-25.2L143.2,407.1z"/>
	<path class="st2" d="M98.1,483l-11.8-3.6l0.8-4.3l13.1,3.9L98.1,483z"/>
	<path class="st2" d="M81.6,487.2L81.6,487.2c-0.1-0.2-0.2-0.4-0.2-0.6s0-0.3,0.1-0.5c0-0.1,0.1-0.2,0.2-0.2
		c0.1-0.1,0.2-0.1,0.3-0.1c0.9-0.1,2.6,2,2.7,2.2c0,0,0,0.1,0,0.1c0,0,0,0.1,0,0.1c0,0,0,0.1-0.1,0.1c0,0-0.1,0-0.1,0
		C83.7,488.3,82.1,488,81.6,487.2z M84.3,488c-0.7-0.8-1.7-1.8-2.2-1.8c0,0-0.1,0-0.1,0c0,0-0.1,0.1-0.1,0.1
		c-0.1,0.1-0.1,0.2-0.1,0.3s0,0.2,0.1,0.3C82.1,487.4,83,487.8,84.3,488L84.3,488z"/>
	<path class="st2" d="M84.4,488.1c-0.5-0.7-1.1-2.4-0.7-3c0.1-0.1,0.2-0.2,0.3-0.3c0.1,0,0.3-0.1,0.4,0c0.1,0,0.3,0.1,0.4,0.2
		c0.1,0.1,0.2,0.2,0.3,0.3c0.5,0.9-0.1,2.9-0.2,3c0,0,0,0.1-0.1,0.1c0,0-0.1,0-0.1,0c0,0-0.1,0-0.1,0s-0.1,0-0.1,0
		C84.5,488.2,84.4,488.1,84.4,488.1z M84.7,485.4c0-0.1-0.1-0.1-0.2-0.2c-0.1,0-0.1-0.1-0.2-0.1c-0.2,0-0.3,0-0.3,0.1
		c-0.3,0.4,0.2,1.8,0.6,2.6C84.8,487.1,85,486,84.7,485.4L84.7,485.4z"/>
	<path class="st10" d="M110.9,471.2l-6,3.6L95,460.3l6-3.6L110.9,471.2z"/>
	<path class="st9" d="M103.6,474.2l6.6-4.8c0.1-0.1,0.2-0.1,0.4-0.1c0.1,0,0.3,0.1,0.4,0.2l4.6,4.7c0.1,0.1,0.2,0.3,0.2,0.4
		c0.1,0.2,0.1,0.3,0.1,0.5c0,0.2-0.1,0.3-0.2,0.5c-0.1,0.1-0.2,0.3-0.3,0.4c-2.3,1.6-3.5,2.3-6.4,4.4c-1.8,1.3-5,4.5-7.4,6.3
		c-2.5,1.8-4.4-0.5-3.5-1.5c3.9-4.4,4.3-7.4,4.9-9.8C103,474.9,103.2,474.5,103.6,474.2z"/>
	<g class="st13">
		<path class="st11" d="M101.1,456.7l-6,3.6l5.9,8.7l5.5-4.4L101.1,456.7z"/>
	</g>
	<path class="st9" d="M125.4,408c0,0-41.9-1.9-44.3,11.4C77,442,97.2,466.5,97.2,466.5l8.2-5.1c0,0-6.2-17.4-8.6-33
		c7.9-3.8,50.6,15.4,47.4-21.2L125.4,408z"/>
	<path class="st11" d="M111.5,414c-0.7,0-1.3,0.2-1.9,0.4c-4.8,2.3-8.4,5.2-9,9c-0.2,1.5-0.5,2.9-0.8,4.4c0.5,0,1,0,1.5,0
		c0.2-1.5,0.4-3,0.6-4.4C102.4,419.4,106.3,416.3,111.5,414L111.5,414z"/>
	<path class="st2" d="M107.1,461.3l-9.7,7.6l-3.1-3.2l10.7-8.5L107.1,461.3z"/>
	<path class="st2" d="M101.1,477.3L101.1,477.3c-0.3,0-0.4-0.1-0.5-0.2c-0.1-0.1-0.2-0.2-0.3-0.4c-0.1-0.1-0.1-0.2-0.1-0.3
		c0-0.1,0-0.2,0.1-0.3c0.5-0.8,3.1-1,3.4-1c0,0,0.1,0,0.1,0c0,0,0.1,0,0.1,0.1c0,0,0,0.1,0,0.1c0,0,0,0.1,0,0.1
		C103.1,476.1,102,477.3,101.1,477.3z M103.2,475.5c-1.1,0.1-2.4,0.3-2.7,0.8c0,0,0,0.1,0,0.1c0,0,0,0.1,0,0.1
		c0,0.1,0.1,0.2,0.2,0.3c0.1,0.1,0.2,0.1,0.3,0.1C101.5,477,102.3,476.4,103.2,475.5L103.2,475.5z"/>
	<path class="st2" d="M103.3,475.5c-0.9,0-2.6-0.5-2.9-1.2c-0.1-0.1-0.1-0.3,0-0.4c0-0.1,0.1-0.2,0.2-0.3c0.1-0.1,0.2-0.2,0.3-0.2
		c0.1,0,0.3-0.1,0.4,0c1.1,0.1,2.3,1.8,2.4,1.9c0,0,0,0.1,0,0.1s0,0.1,0,0.1s0,0-0.1,0.1s-0.1,0-0.1,0
		C103.5,475.5,103.4,475.5,103.3,475.5z M101.3,473.7c-0.1,0-0.1,0-0.2,0c-0.1,0-0.1,0.1-0.2,0.1c-0.2,0.2-0.1,0.3-0.1,0.3
		c0.2,0.5,1.6,0.9,2.5,1C102.8,474.6,102,473.7,101.3,473.7L101.3,473.7z"/>
	<path class="st9" d="M134.8,340.8l-1.5-0.1C133.3,340.7,134.2,341.6,134.8,340.8z"/>
	<path class="st10" d="M148.4,397.2l-7-3.6l1.7,7.2c0,0,4.5,1.3,6.6-0.9L148.4,397.2z"/>
	<path class="st10" d="M164.8,369.3c0.3,0.6,0.5,1.1,0.7,1.6c0.2,0.5,0.4,1,0.6,1.5c0.4,1,0.8,2,1.1,3.1c0.7,2.1,1.3,4.1,1.8,6.2
		c0.5,2.1,0.9,4.2,1.2,6.4c0.1,1.1,0.3,2.1,0.4,3.2l0.1,1.6l0,0.4c0,0.2,0,0.4,0,0.7c0,0.5-0.1,1-0.2,1.5c-0.2,1-0.6,1.9-1.3,2.7
		c-0.6,0.7-1.2,1.3-2,1.8c-1.2,0.7-2.5,1.2-3.9,1.5c-2.3,0.4-4.6,0.6-6.8,0.5c-4.3-0.2-8.5-0.8-12.6-1.9l0.6-3.6c4,0.3,8,0.3,12,0
		c1.8-0.1,3.6-0.4,5.4-0.9c0.7-0.2,1.3-0.5,1.8-0.9c0.1-0.1,0.2-0.2,0.3-0.3c0-0.1,0,0,0-0.1l-0.3-2c-0.2-1-0.4-1.9-0.5-2.9
		c-0.4-1.9-0.9-3.8-1.4-5.7c-0.5-1.9-1.1-3.8-1.8-5.6c-0.3-0.9-0.7-1.8-1-2.7l-0.5-1.3c-0.2-0.4-0.4-0.9-0.5-1.2L164.8,369.3z"/>
	<path class="st2" d="M161.2,361.8c3,0.7,7.2,10.7,7.2,10.7l-9.3,8.5c0,0-6.4-7.8-5.4-11.7C154.8,365.2,157.8,361,161.2,361.8z"/>
	<path class="st10" d="M135.4,394.8l1.7,6l6,0.1l-1.7-7.2L135.4,394.8z"/>
	<path class="st4" d="M140.9,411.2h-30.5c-1.1,0-2.2-0.5-3.1-1.2c-0.9-0.7-1.5-1.8-1.7-2.9l-3.6-19.9c-0.1-0.5-0.1-1,0-1.5
		c0.1-0.5,0.3-1,0.7-1.4c0.3-0.4,0.7-0.7,1.2-0.9c0.5-0.2,1-0.3,1.5-0.3h30.5c1.1,0,2.2,0.5,3.1,1.2c0.9,0.7,1.5,1.8,1.7,2.9
		l3.6,19.9c0.1,0.5,0.1,1,0,1.5c-0.1,0.5-0.3,1-0.7,1.4c-0.3,0.4-0.7,0.7-1.2,0.9C141.9,411.2,141.4,411.2,140.9,411.2z"/>
	<path class="st14" d="M140.4,411.2h-30c-1.1,0-2.2-0.5-3.1-1.2c-0.9-0.7-1.5-1.8-1.7-2.9l-3.6-19.9c-0.1-0.5-0.1-1,0-1.5
		c0.1-0.5,0.3-1,0.7-1.4c0.3-0.4,0.7-0.7,1.2-0.9c0.5-0.2,1-0.3,1.5-0.3h30c1.1,0,2.2,0.5,3.1,1.2c0.9,0.7,1.5,1.8,1.7,2.9l3.6,19.9
		c0.1,0.5,0.1,1,0,1.5c-0.1,0.5-0.3,1-0.7,1.4c-0.3,0.4-0.7,0.7-1.2,0.9C141.4,411.1,140.9,411.2,140.4,411.2z"/>
	<path class="st10" d="M101.9,396.1l1.2,6.5l2.5-2.4l-0.7-4.8c0-0.2-0.1-0.4-0.2-0.5c-0.1-0.1-0.3-0.3-0.5-0.3
		c-0.2-0.1-0.4-0.1-0.6,0c-0.2,0-0.4,0.2-0.5,0.3L101.9,396.1z"/>
</g>
</svg>
