<?xml version="1.0" encoding="utf-8"?>
<!-- Generator: Adobe Illustrator 25.2.1, SVG Export Plug-In . SVG Version: 6.00 Build 0)  -->
<svg version="1.1" id="Layer_1" xmlns="http://www.w3.org/2000/svg" xmlns:xlink="http://www.w3.org/1999/xlink" x="0px" y="0px"
	 width="361.2px" height="509px" viewBox="0 0 361.2 509" style="enable-background:new 0 0 361.2 509;" xml:space="preserve">
<style type="text/css">
	.st0{fill:#BACCD1;stroke:#FFFFFF;stroke-width:1.2;}
	.st1{fill:#BACCD1;}
	.st2{fill:none;stroke:#BACCD1;stroke-width:2.8744;stroke-linecap:round;stroke-miterlimit:10;}
	.st3{fill:#FFFFFF;}
	.st4{fill:#FFFFFF;filter:url(#Adobe_OpacityMaskFilter);}
	.st5{mask:url(#path-1-inside-1_2729_54677_1_);fill:#BACCD1;stroke:#FFFFFF;stroke-width:3;}
</style>
<g>
	<path class="st0" d="M78.6,160L78.6,160c11.5,3.1,18.3,14.8,15.1,26.2l0,0L82,230.1c-3,11.4-14.8,18.2-26.2,15.1L-14,226.5
		c-11.4-3-18.2-14.8-15.1-26.2l11.8-43.9c3-11.4,14.8-18.2,26.2-15.1l9.3,2.5l0.6,0.2l0.2-0.6l2.3-8.6c3.7-13.8,18-22.1,31.8-18.4
		c11.8,3.2,19.6,14.1,19.2,25.8c-0.1,2-1.1,4-2.7,5.1l0,0c-1.6,1.2-3.6,1.6-5.6,1c-2.9-0.8-4.9-3.4-4.9-6.4c0.2-6-3.9-11.5-9.7-12.9
		c-6.8-1.7-13.8,2.5-15.6,9.4l-2.2,8.3l-0.2,0.6l0.6,0.2L78.6,160z M62.9,141.8L62.9,141.8L62.9,141.8c0,1.3,0.9,2.3,1.9,2.6
		c1,0.3,1.7-0.1,2.1-0.3l0,0c0.7-0.4,1.1-1.3,1.1-2c0.4-10.3-6.4-19.2-16.2-21.8c-11.5-3.1-23.4,3.6-26.8,15l-0.3-0.1l-0.2,0.6
		l-2.2,8.3l-0.2,0.6l0.6,0.2l3.8,1l0.6,0.2l0.2-0.6l2.2-8.3c2.4-9,11.7-14.4,20.5-12.2c3.8,1,7.1,3.2,9.4,6.3
		C61.9,134.3,62.9,138.1,62.9,141.8z M56.8,241.4c9.3,2.5,18.8-3,21.3-12.3l11.8-43.9c2.5-9.3-3-18.8-12.3-21.3L7.8,145.1
		c-9.3-2.5-18.8,3-21.3,12.3l-11.8,43.9c-2.5,9.3,3,18.8,12.3,21.3L56.8,241.4z"/>
	<path class="st0" d="M34.5,192.8l-0.1,0.2l0.1,0.2l7.7,13.7h0l0,0c0.5,0.9,0.2,2.1-0.7,2.7h0c-0.9,0.5-2.1,0.2-2.7-0.7l-8.5-14.6
		l0,0c-0.2-0.4-0.3-0.9-0.1-1.5l2.9-10.7c0.3-1.1,1.5-1.7,2.5-1.4c1.1,0.3,1.7,1.5,1.4,2.5L34.5,192.8z"/>
	<g>
		<path class="st1" d="M32.3,163.1c-16.6,0-30.1,13.5-30.1,30.1c0,16.6,13.5,30.1,30.1,30.1c16.6,0,30.1-13.5,30.1-30.1
			C62.5,176.6,49,163.1,32.3,163.1z M32.3,221C17,221,4.6,208.6,4.6,193.3s12.4-27.8,27.8-27.8s27.8,12.4,27.8,27.8
			S47.7,221,32.3,221z"/>
		<line class="st2" x1="27.6" y1="210.9" x2="24.9" y2="221"/>
		<line class="st2" x1="39.5" y1="166" x2="37.1" y2="175"/>
		<line class="st2" x1="5.4" y1="185.6" x2="14.4" y2="188"/>
		<line class="st2" x1="59.2" y1="200.3" x2="50.2" y2="197.8"/>
		<polyline class="st2" points="34.8,182.6 32.3,193.3 40.3,207.7 		"/>
	</g>
</g>
<g>
	<path class="st3" d="M97.1,387.8c-5.4-1.4-11.1,1.1-13.6,5.8l-14.8-4c-1.5-4.2-4.8-7.6-9.4-8.9c0.1-1.6,0-3.4-0.3-5l20.9-12.1
		c1.4,1.5,3.4,2.7,5.5,3.3c6.4,1.7,13.1-2.1,14.8-8.5c1.7-6.4-2.1-13.1-8.5-14.8c-6.4-1.7-13.1,2.1-14.8,8.5
		c-0.6,2.3-0.4,4.5,0.1,6.4l-20.1,11.8c-2-3.8-5.3-6.9-9.4-8.6l5.7-21.3c5.5,0.1,10.4-3.5,11.8-8.9c1.7-6.4-2.1-13.1-8.5-14.8
		c-6.4-1.7-13,2-14.8,8.4c-1.4,5.4,1.1,11.1,5.8,13.6l-5.7,21.3c-4.4-0.6-8.7,0.4-12.3,2.7l-11.8-20.2c1.6-1.4,2.7-3.4,3.3-5.5
		c1.7-6.4-2.1-13.1-8.5-14.8c-6.4-1.7-13.1,2.1-14.8,8.5c-1.7,6.4,2.1,13.1,8.5,14.8c2.3,0.6,4.5,0.4,6.4-0.1l12.2,21.1
		c-0.5,0.6-1.1,1.2-1.6,1.9c-5.5-1.2-10.9,0.7-14.5,4.7l-14.5-3.9c0.1-5.5-3.5-10.4-8.9-11.8c-6.4-1.7-13.1,2.1-14.8,8.5
		c-1.7,6.4,2.2,12.9,8.6,14.7c5.4,1.4,11.1-1.1,13.6-5.8l12.9,3.5c-0.2,0.6-0.4,1-0.6,1.5c-1.7,6.3,0.7,12.7,5.7,16.5l-14.4,8.3
		c-1.4-1.5-3.4-2.7-5.5-3.3c-6.4-1.7-13.1,2.1-14.8,8.5c-1.7,6.4,2.1,13.1,8.5,14.8c6.4,1.7,13.1-2.1,14.8-8.5
		c0.6-2.3,0.4-4.5-0.1-6.4l17.9-10.3l12.7,3.4l-6.8,25.5c-5.5-0.1-10.4,3.5-11.8,8.9c-1.7,6.4,2.1,13.1,8.5,14.8
		c6.4,1.7,13.1-2.1,14.8-8.5c1.4-5.4-1.1-11.1-5.8-13.6l6.9-25.6l12.4,3.3l10.6,18.4c-1.5,1.4-2.7,3.4-3.3,5.5
		c-1.7,6.4,2.1,13.1,8.5,14.8c6.4,1.7,13.1-2.1,14.8-8.5c1.7-6.4-2.1-13.1-8.5-14.8c-2.1-0.6-4.5-0.4-6.4,0.1l-8.1-14.1
		c6.3,0,12-4.3,13.7-10.7c0.2-0.9,0.3-1.6,0.5-2.3l12.5,3.4c-0.1,5.5,3.5,10.4,8.9,11.8c6.4,1.7,13.1-2.1,14.8-8.5
		C107.5,396.1,103.5,389.5,97.1,387.8L97.1,387.8z M90,349.3c3.4,0.9,5.4,4.3,4.5,7.8c-0.9,3.4-4.3,5.4-7.8,4.5
		c-3.4-0.9-5.4-4.3-4.5-7.8C83.1,350.4,86.7,348.5,90,349.3z M7.7,340.1c-3.4-0.9-5.4-4.3-4.5-7.8c0.9-3.4,4.3-5.4,7.8-4.5
		c3.4,0.9,5.4,4.3,4.5,7.8C14.5,339,11.1,341,7.7,340.1z M-19.4,375.1c-3.4-0.9-5.4-4.3-4.5-7.8c0.9-3.4,4.3-5.4,7.8-4.5
		c3.4,0.9,5.4,4.3,4.5,7.8C-12.6,374-16,376-19.4,375.1z M-13.8,419c-3.4-0.9-5.4-4.3-4.5-7.8c0.9-3.4,4.3-5.4,7.8-4.5
		c3.4,0.9,5.4,4.3,4.5,7.8C-6.9,417.9-10.5,419.9-13.8,419z M28.9,441.7c-0.9,3.4-4.3,5.4-7.8,4.5c-3.4-0.9-5.4-4.3-4.5-7.8
		c0.9-3.4,4.3-5.4,7.8-4.5C27.9,434.9,29.8,438.3,28.9,441.7z M68.4,428.3c3.4,0.9,5.4,4.3,4.5,7.8c-0.9,3.4-4.3,5.4-7.8,4.5
		c-3.4-0.9-5.4-4.3-4.5-7.8C61.5,429.5,65.1,427.5,68.4,428.3z M47.2,326.7c0.9-3.4,4.3-5.4,7.8-4.5c3.4,0.9,5.4,4.3,4.5,7.8
		c-0.9,3.4-4.3,5.4-7.8,4.5C48.3,333.6,46.4,330,47.2,326.7z M52.9,402.8l-35.1-9.4c-5.3-1.4-8.4-6.8-7-12.1c1.4-5.3,6.8-8.4,12.1-7
		l0.9,0.2c1.4,0.5,2.9,0,3.6-1.3c3.1-5.7,9.6-8.6,15.9-6.9c7.1,1.9,11.5,9,10.1,16.3c-0.2,0.9,0,1.7,0.5,2.3c0.5,0.6,1.2,1.1,2,1.1
		c0.6,0,1.2,0.2,1.6,0.3c4.6,1.2,7.3,5.9,6,10.5C62.2,401.4,57.5,404.1,52.9,402.8L52.9,402.8z M92.3,405.6
		c-3.4-0.9-5.4-4.3-4.5-7.8c0.9-3.4,4.3-5.4,7.8-4.5c3.4,0.9,5.4,4.3,4.5,7.8C99.1,404.6,95.7,406.5,92.3,405.6z"/>
	<defs>
		<filter id="Adobe_OpacityMaskFilter" filterUnits="userSpaceOnUse" x="-31.4" y="314.9" width="139.1" height="138.9">
			<feColorMatrix  type="matrix" values="1 0 0 0 0  0 1 0 0 0  0 0 1 0 0  0 0 0 1 0"/>
		</filter>
	</defs>
	<mask maskUnits="userSpaceOnUse" x="-31.4" y="314.9" width="139.1" height="138.9" id="path-1-inside-1_2729_54677_1_">
		<path class="st4" d="M97.1,387.8c-5.4-1.4-11.1,1.1-13.6,5.8l-14.8-4c-1.5-4.2-4.8-7.6-9.4-8.9c0.1-1.6,0-3.4-0.3-5l20.9-12.1
			c1.4,1.5,3.4,2.7,5.5,3.3c6.4,1.7,13.1-2.1,14.8-8.5c1.7-6.4-2.1-13.1-8.5-14.8c-6.4-1.7-13.1,2.1-14.8,8.5
			c-0.6,2.3-0.4,4.5,0.1,6.4l-20.1,11.8c-2-3.8-5.3-6.9-9.4-8.6l5.7-21.3c5.5,0.1,10.4-3.5,11.8-8.9c1.7-6.4-2.1-13.1-8.5-14.8
			c-6.4-1.7-13,2-14.8,8.4c-1.4,5.4,1.1,11.1,5.8,13.6l-5.7,21.3c-4.4-0.6-8.7,0.4-12.3,2.7l-11.8-20.2c1.6-1.4,2.7-3.4,3.3-5.5
			c1.7-6.4-2.1-13.1-8.5-14.8c-6.4-1.7-13.1,2.1-14.8,8.5c-1.7,6.4,2.1,13.1,8.5,14.8c2.3,0.6,4.5,0.4,6.4-0.1l12.2,21.1
			c-0.5,0.6-1.1,1.2-1.6,1.9c-5.5-1.2-10.9,0.7-14.5,4.7l-14.5-3.9c0.1-5.5-3.5-10.4-8.9-11.8c-6.4-1.7-13.1,2.1-14.8,8.5
			c-1.7,6.4,2.2,12.9,8.6,14.7c5.4,1.4,11.1-1.1,13.6-5.8l12.9,3.5c-0.2,0.6-0.4,1-0.6,1.5c-1.7,6.3,0.7,12.7,5.7,16.5l-14.4,8.3
			c-1.4-1.5-3.4-2.7-5.5-3.3c-6.4-1.7-13.1,2.1-14.8,8.5c-1.7,6.4,2.1,13.1,8.5,14.8c6.4,1.7,13.1-2.1,14.8-8.5
			c0.6-2.3,0.4-4.5-0.1-6.4l17.9-10.3l12.7,3.4l-6.8,25.5c-5.5-0.1-10.4,3.5-11.8,8.9c-1.7,6.4,2.1,13.1,8.5,14.8
			c6.4,1.7,13.1-2.1,14.8-8.5c1.4-5.4-1.1-11.1-5.8-13.6l6.9-25.6l12.4,3.3l10.6,18.4c-1.5,1.4-2.7,3.4-3.3,5.5
			c-1.7,6.4,2.1,13.1,8.5,14.8c6.4,1.7,13.1-2.1,14.8-8.5c1.7-6.4-2.1-13.1-8.5-14.8c-2.1-0.6-4.5-0.4-6.4,0.1l-8.1-14.1
			c6.3,0,12-4.3,13.7-10.7c0.2-0.9,0.3-1.6,0.5-2.3l12.5,3.4c-0.1,5.5,3.5,10.4,8.9,11.8c6.4,1.7,13.1-2.1,14.8-8.5
			C107.5,396.1,103.5,389.5,97.1,387.8L97.1,387.8z M90,349.3c3.4,0.9,5.4,4.3,4.5,7.8c-0.9,3.4-4.3,5.4-7.8,4.5
			c-3.4-0.9-5.4-4.3-4.5-7.8C83.1,350.4,86.7,348.5,90,349.3z M7.7,340.1c-3.4-0.9-5.4-4.3-4.5-7.8c0.9-3.4,4.3-5.4,7.8-4.5
			c3.4,0.9,5.4,4.3,4.5,7.8C14.5,339,11.1,341,7.7,340.1z M-19.4,375.1c-3.4-0.9-5.4-4.3-4.5-7.8c0.9-3.4,4.3-5.4,7.8-4.5
			c3.4,0.9,5.4,4.3,4.5,7.8C-12.6,374-16,376-19.4,375.1z M-13.8,419c-3.4-0.9-5.4-4.3-4.5-7.8c0.9-3.4,4.3-5.4,7.8-4.5
			c3.4,0.9,5.4,4.3,4.5,7.8C-6.9,417.9-10.5,419.9-13.8,419z M28.9,441.7c-0.9,3.4-4.3,5.4-7.8,4.5c-3.4-0.9-5.4-4.3-4.5-7.8
			c0.9-3.4,4.3-5.4,7.8-4.5C27.9,434.9,29.8,438.3,28.9,441.7z M68.4,428.3c3.4,0.9,5.4,4.3,4.5,7.8c-0.9,3.4-4.3,5.4-7.8,4.5
			c-3.4-0.9-5.4-4.3-4.5-7.8C61.5,429.5,65.1,427.5,68.4,428.3z M47.2,326.7c0.9-3.4,4.3-5.4,7.8-4.5c3.4,0.9,5.4,4.3,4.5,7.8
			c-0.9,3.4-4.3,5.4-7.8,4.5C48.3,333.6,46.4,330,47.2,326.7z M52.9,402.8l-35.1-9.4c-5.3-1.4-8.4-6.8-7-12.1
			c1.4-5.3,6.8-8.4,12.1-7l0.9,0.2c1.4,0.5,2.9,0,3.6-1.3c3.1-5.7,9.6-8.6,15.9-6.9c7.1,1.9,11.5,9,10.1,16.3
			c-0.2,0.9,0,1.7,0.5,2.3c0.5,0.6,1.2,1.1,2,1.1c0.6,0,1.2,0.2,1.6,0.3c4.6,1.2,7.3,5.9,6,10.5C62.2,401.4,57.5,404.1,52.9,402.8
			L52.9,402.8z M92.3,405.6c-3.4-0.9-5.4-4.3-4.5-7.8c0.9-3.4,4.3-5.4,7.8-4.5c3.4,0.9,5.4,4.3,4.5,7.8
			C99.1,404.6,95.7,406.5,92.3,405.6z"/>
	</mask>
	<path class="st5" d="M97.1,387.8c-5.4-1.4-11.1,1.1-13.6,5.8l-14.8-4c-1.5-4.2-4.8-7.6-9.4-8.9c0.1-1.6,0-3.4-0.3-5l20.9-12.1
		c1.4,1.5,3.4,2.7,5.5,3.3c6.4,1.7,13.1-2.1,14.8-8.5c1.7-6.4-2.1-13.1-8.5-14.8c-6.4-1.7-13.1,2.1-14.8,8.5
		c-0.6,2.3-0.4,4.5,0.1,6.4l-20.1,11.8c-2-3.8-5.3-6.9-9.4-8.6l5.7-21.3c5.5,0.1,10.4-3.5,11.8-8.9c1.7-6.4-2.1-13.1-8.5-14.8
		c-6.4-1.7-13,2-14.8,8.4c-1.4,5.4,1.1,11.1,5.8,13.6l-5.7,21.3c-4.4-0.6-8.7,0.4-12.3,2.7l-11.8-20.2c1.6-1.4,2.7-3.4,3.3-5.5
		c1.7-6.4-2.1-13.1-8.5-14.8c-6.4-1.7-13.1,2.1-14.8,8.5c-1.7,6.4,2.1,13.1,8.5,14.8c2.3,0.6,4.5,0.4,6.4-0.1l12.2,21.1
		c-0.5,0.6-1.1,1.2-1.6,1.9c-5.5-1.2-10.9,0.7-14.5,4.7l-14.5-3.9c0.1-5.5-3.5-10.4-8.9-11.8c-6.4-1.7-13.1,2.1-14.8,8.5
		c-1.7,6.4,2.2,12.9,8.6,14.7c5.4,1.4,11.1-1.1,13.6-5.8l12.9,3.5c-0.2,0.6-0.4,1-0.6,1.5c-1.7,6.3,0.7,12.7,5.7,16.5l-14.4,8.3
		c-1.4-1.5-3.4-2.7-5.5-3.3c-6.4-1.7-13.1,2.1-14.8,8.5c-1.7,6.4,2.1,13.1,8.5,14.8c6.4,1.7,13.1-2.1,14.8-8.5
		c0.6-2.3,0.4-4.5-0.1-6.4l17.9-10.3l12.7,3.4l-6.8,25.5c-5.5-0.1-10.4,3.5-11.8,8.9c-1.7,6.4,2.1,13.1,8.5,14.8
		c6.4,1.7,13.1-2.1,14.8-8.5c1.4-5.4-1.1-11.1-5.8-13.6l6.9-25.6l12.4,3.3l10.6,18.4c-1.5,1.4-2.7,3.4-3.3,5.5
		c-1.7,6.4,2.1,13.1,8.5,14.8c6.4,1.7,13.1-2.1,14.8-8.5c1.7-6.4-2.1-13.1-8.5-14.8c-2.1-0.6-4.5-0.4-6.4,0.1l-8.1-14.1
		c6.3,0,12-4.3,13.7-10.7c0.2-0.9,0.3-1.6,0.5-2.3l12.5,3.4c-0.1,5.5,3.5,10.4,8.9,11.8c6.4,1.7,13.1-2.1,14.8-8.5
		C107.5,396.1,103.5,389.5,97.1,387.8L97.1,387.8z M90,349.3c3.4,0.9,5.4,4.3,4.5,7.8c-0.9,3.4-4.3,5.4-7.8,4.5
		c-3.4-0.9-5.4-4.3-4.5-7.8C83.1,350.4,86.7,348.5,90,349.3z M7.7,340.1c-3.4-0.9-5.4-4.3-4.5-7.8c0.9-3.4,4.3-5.4,7.8-4.5
		c3.4,0.9,5.4,4.3,4.5,7.8C14.5,339,11.1,341,7.7,340.1z M-19.4,375.1c-3.4-0.9-5.4-4.3-4.5-7.8c0.9-3.4,4.3-5.4,7.8-4.5
		c3.4,0.9,5.4,4.3,4.5,7.8C-12.6,374-16,376-19.4,375.1z M-13.8,419c-3.4-0.9-5.4-4.3-4.5-7.8c0.9-3.4,4.3-5.4,7.8-4.5
		c3.4,0.9,5.4,4.3,4.5,7.8C-6.9,417.9-10.5,419.9-13.8,419z M28.9,441.7c-0.9,3.4-4.3,5.4-7.8,4.5c-3.4-0.9-5.4-4.3-4.5-7.8
		c0.9-3.4,4.3-5.4,7.8-4.5C27.9,434.9,29.8,438.3,28.9,441.7z M68.4,428.3c3.4,0.9,5.4,4.3,4.5,7.8c-0.9,3.4-4.3,5.4-7.8,4.5
		c-3.4-0.9-5.4-4.3-4.5-7.8C61.5,429.5,65.1,427.5,68.4,428.3z M47.2,326.7c0.9-3.4,4.3-5.4,7.8-4.5c3.4,0.9,5.4,4.3,4.5,7.8
		c-0.9,3.4-4.3,5.4-7.8,4.5C48.3,333.6,46.4,330,47.2,326.7z M52.9,402.8l-35.1-9.4c-5.3-1.4-8.4-6.8-7-12.1c1.4-5.3,6.8-8.4,12.1-7
		l0.9,0.2c1.4,0.5,2.9,0,3.6-1.3c3.1-5.7,9.6-8.6,15.9-6.9c7.1,1.9,11.5,9,10.1,16.3c-0.2,0.9,0,1.7,0.5,2.3c0.5,0.6,1.2,1.1,2,1.1
		c0.6,0,1.2,0.2,1.6,0.3c4.6,1.2,7.3,5.9,6,10.5C62.2,401.4,57.5,404.1,52.9,402.8L52.9,402.8z M92.3,405.6
		c-3.4-0.9-5.4-4.3-4.5-7.8c0.9-3.4,4.3-5.4,7.8-4.5c3.4,0.9,5.4,4.3,4.5,7.8C99.1,404.6,95.7,406.5,92.3,405.6z"/>
</g>
</svg>
