<?xml version="1.0" encoding="utf-8"?>
<!-- Generator: Adobe Illustrator 25.2.1, SVG Export Plug-In . SVG Version: 6.00 Build 0)  -->
<svg version="1.1" id="Layer_1" xmlns="http://www.w3.org/2000/svg" xmlns:xlink="http://www.w3.org/1999/xlink" x="0px" y="0px"
	 width="497.6px" height="509px" viewBox="0 0 497.6 509" style="enable-background:new 0 0 497.6 509;" xml:space="preserve">
<style type="text/css">
	.st0{fill:#BACCD1;stroke:#FFFFFF;stroke-width:2.5;}
	.st1{fill:#BACCD1;stroke:#FFFFFF;stroke-width:0.5;}
	.st2{fill:#407BFF;}
	.st3{opacity:0.9;fill:#E3EBFA;enable-background:new    ;}
	.st4{fill:#F5F5F5;}
	.st5{fill:#0D51D9;}
	.st6{opacity:0.2;enable-background:new    ;}
	.st7{fill:#FFFFFF;}
	.st8{opacity:0.3;fill:#407BFF;enable-background:new    ;}
	.st9{opacity:0.6;fill:#407BFF;enable-background:new    ;}
	.st10{fill:#CE7A63;}
	.st11{fill:#263238;}
	.st12{opacity:0.1;enable-background:new    ;}
	.st13{opacity:0.4;enable-background:new    ;}
	.st14{opacity:0.3;enable-background:new    ;}
	.st15{fill:#BA4D3C;}
</style>
<g>
	<path class="st2" d="M276.7,302.7c-8.1,30-5.1,61.5,34.9,70.6c30.1,6.8,44.9-29.6,73.2-1.6c50,49.5-24.8,114.7-89.5,103.7
		c-64.7-11-125-75-110.8-150c4.6-24.5,19.5-54.6,45.8-61.4C253.1,258.1,283.9,276,276.7,302.7z"/>
	<path class="st3" d="M276.7,302.7c-8.1,30-5.1,61.5,34.9,70.6c30.1,6.8,44.9-29.6,73.2-1.6c50,49.5-24.8,114.7-89.5,103.7
		c-64.7-11-125-75-110.8-150c4.6-24.5,19.5-54.6,45.8-61.4C253.1,258.1,283.9,276,276.7,302.7z"/>
	<path class="st4" d="M303.3,503.7c69.8,0,126.4-3.3,126.4-7.4c0-4.1-56.6-7.4-126.4-7.4c-69.8,0-126.4,3.3-126.4,7.4
		C176.9,500.3,233.5,503.7,303.3,503.7z"/>
	<path class="st5" d="M271.7,335.3h-62.8c-5.3,0-9.5,4.3-9.5,9.5v141.6c0,5.3,4.3,9.5,9.5,9.5h62.8c5.3,0,9.5-4.3,9.5-9.5V344.8
		C281.2,339.5,276.9,335.3,271.7,335.3z"/>
	<path class="st2" d="M254.6,335.3h-62.8c-5.3,0-9.5,4.3-9.5,9.5v141.6c0,5.3,4.3,9.5,9.5,9.5h62.8c5.3,0,9.5-4.3,9.5-9.5V344.8
		C264.1,339.5,259.8,335.3,254.6,335.3z"/>
	<path class="st6" d="M260.9,486.4V344.8c0-3.5-2.8-6.3-6.3-6.3h-62.8c-3.5,0-6.3,2.8-6.3,6.3v141.6c0,3.5,2.8,6.3,6.3,6.3h62.8
		C258.1,492.7,260.9,489.9,260.9,486.4z"/>
	<path class="st7" d="M260.9,486.4V344.8c0-3.5-2.8-6.3-6.3-6.3h-59.8c-3.5,0-6.3,2.8-6.3,6.3v141.6c0,3.5,2.8,6.3,6.3,6.3h59.8
		C258.1,492.7,260.9,489.9,260.9,486.4z"/>
	<path class="st8" d="M251,357h-52.8c-1.3,0-2.6-0.5-3.5-1.5c-0.9-0.9-1.4-2.2-1.5-3.5c0-1.3,0.5-2.6,1.5-3.5
		c0.9-0.9,2.2-1.5,3.5-1.5H251c1.3,0,2.6,0.5,3.5,1.5c0.9,0.9,1.4,2.2,1.5,3.5c0,1.3-0.5,2.6-1.5,3.5C253.6,356.5,252.3,357,251,357
		z"/>
	<path class="st7" d="M233.6,353.2h-36.2c-0.1,0-0.3,0-0.4-0.1c-0.1-0.1-0.3-0.1-0.4-0.2c-0.1-0.1-0.2-0.2-0.2-0.4
		c-0.1-0.1-0.1-0.3-0.1-0.4c0-0.3,0.1-0.6,0.3-0.8c0.2-0.2,0.5-0.3,0.8-0.3h36.2c0.1,0,0.3,0,0.4,0.1c0.1,0.1,0.2,0.1,0.3,0.2
		c0.1,0.1,0.2,0.2,0.2,0.4c0.1,0.1,0.1,0.3,0.1,0.4c0,0.3-0.1,0.6-0.3,0.8C234.2,353.1,233.9,353.2,233.6,353.2z"/>
	<path class="st2" d="M246.7,353.2c0.6,0,1.1-0.5,1.1-1.1c0-0.6-0.5-1.1-1.1-1.1s-1.1,0.5-1.1,1.1
		C245.6,352.7,246.1,353.2,246.7,353.2z"/>
	<path class="st2" d="M251.5,353.2c0.6,0,1.1-0.5,1.1-1.1c0-0.6-0.5-1.1-1.1-1.1s-1.1,0.5-1.1,1.1
		C250.4,352.7,250.9,353.2,251.5,353.2z"/>
	<path class="st2" d="M241.9,353.2c0.6,0,1.1-0.5,1.1-1.1c0-0.6-0.5-1.1-1.1-1.1s-1.1,0.5-1.1,1.1
		C240.9,352.7,241.3,353.2,241.9,353.2z"/>
	<path class="st8" d="M251,372.9h-52.8c-1.3,0-2.6-0.5-3.5-1.5c-0.9-0.9-1.4-2.2-1.5-3.5c0-1.3,0.5-2.6,1.5-3.5
		c0.9-0.9,2.2-1.4,3.5-1.5H251c1.3,0,2.6,0.5,3.5,1.5c0.9,0.9,1.4,2.2,1.5,3.5c0,1.3-0.5,2.6-1.5,3.5
		C253.6,372.4,252.3,372.9,251,372.9z"/>
	<path class="st7" d="M233.6,369h-36.2c-0.3,0-0.6-0.1-0.8-0.3c-0.2-0.2-0.3-0.5-0.3-0.8c0-0.3,0.1-0.6,0.3-0.8
		c0.2-0.2,0.5-0.3,0.8-0.3h36.2c0.3,0,0.6,0.1,0.8,0.3c0.2,0.2,0.3,0.5,0.3,0.8s-0.1,0.6-0.3,0.8C234.2,368.9,233.9,369,233.6,369z"
		/>
	<path class="st2" d="M246.7,369c0.6,0,1.1-0.5,1.1-1.1c0-0.6-0.5-1.1-1.1-1.1s-1.1,0.5-1.1,1.1C245.6,368.6,246.1,369,246.7,369z"
		/>
	<path class="st2" d="M251.5,369c0.6,0,1.1-0.5,1.1-1.1c0-0.6-0.5-1.1-1.1-1.1s-1.1,0.5-1.1,1.1C250.4,368.6,250.9,369,251.5,369z"
		/>
	<path class="st8" d="M241.9,369c0.6,0,1.1-0.5,1.1-1.1c0-0.6-0.5-1.1-1.1-1.1s-1.1,0.5-1.1,1.1C240.9,368.6,241.3,369,241.9,369z"
		/>
	<path class="st8" d="M251,388.8h-52.8c-1.3,0-2.6-0.5-3.5-1.5c-0.9-0.9-1.4-2.2-1.5-3.5c0-1.3,0.5-2.6,1.5-3.5
		c0.9-0.9,2.2-1.4,3.5-1.5H251c1.3,0,2.6,0.5,3.5,1.5c0.9,0.9,1.4,2.2,1.5,3.5c0,1.3-0.5,2.6-1.5,3.5
		C253.6,388.3,252.3,388.8,251,388.8z"/>
	<path class="st7" d="M233.6,384.9h-36.2c-0.1,0-0.3,0-0.4-0.1s-0.3-0.1-0.4-0.2c-0.1-0.1-0.2-0.2-0.2-0.4c-0.1-0.1-0.1-0.3-0.1-0.4
		c0-0.3,0.1-0.6,0.3-0.8c0.2-0.2,0.5-0.3,0.8-0.3h36.2c0.1,0,0.3,0,0.4,0.1c0.1,0.1,0.2,0.1,0.3,0.2c0.1,0.1,0.2,0.2,0.2,0.4
		c0.1,0.1,0.1,0.3,0.1,0.4c0,0.3-0.1,0.6-0.3,0.8C234.2,384.8,233.9,384.9,233.6,384.9z"/>
	<path class="st2" d="M246.7,384.9c0.6,0,1.1-0.5,1.1-1.1c0-0.6-0.5-1.1-1.1-1.1s-1.1,0.5-1.1,1.1
		C245.6,384.4,246.1,384.9,246.7,384.9z"/>
	<path class="st2" d="M251.5,384.9c0.6,0,1.1-0.5,1.1-1.1c0-0.6-0.5-1.1-1.1-1.1s-1.1,0.5-1.1,1.1
		C250.4,384.4,250.9,384.9,251.5,384.9z"/>
	<path class="st9" d="M241.9,384.9c0.6,0,1.1-0.5,1.1-1.1c0-0.6-0.5-1.1-1.1-1.1s-1.1,0.5-1.1,1.1
		C240.9,384.4,241.3,384.9,241.9,384.9z"/>
	<path class="st8" d="M251,394.8h-52.8c-2.7,0-4.9,2.2-4.9,4.9c0,2.7,2.2,4.9,4.9,4.9H251c2.7,0,4.9-2.2,4.9-4.9
		C256,397,253.8,394.8,251,394.8z"/>
	<path class="st7" d="M233.6,400.8h-36.2c-0.3,0-0.6-0.1-0.8-0.3c-0.2-0.2-0.3-0.5-0.3-0.8c0-0.3,0.1-0.6,0.3-0.8
		c0.2-0.2,0.5-0.3,0.8-0.3h36.2c0.3,0,0.6,0.1,0.8,0.3c0.2,0.2,0.3,0.5,0.3,0.8c0,0.3-0.1,0.6-0.3,0.8
		C234.2,400.7,233.9,400.8,233.6,400.8z"/>
	<path class="st2" d="M246.7,400.8c0.6,0,1.1-0.5,1.1-1.1c0-0.6-0.5-1.1-1.1-1.1s-1.1,0.5-1.1,1.1
		C245.6,400.3,246.1,400.8,246.7,400.8z"/>
	<path class="st8" d="M251.5,400.8c0.6,0,1.1-0.5,1.1-1.1c0-0.6-0.5-1.1-1.1-1.1s-1.1,0.5-1.1,1.1
		C250.4,400.3,250.9,400.8,251.5,400.8z"/>
	<path class="st9" d="M241.9,400.8c0.6,0,1.1-0.5,1.1-1.1c0-0.6-0.5-1.1-1.1-1.1s-1.1,0.5-1.1,1.1
		C240.9,400.3,241.3,400.8,241.9,400.8z"/>
	<path class="st8" d="M251,420.5h-52.8c-1.3,0-2.6-0.5-3.5-1.5c-0.9-0.9-1.4-2.2-1.5-3.5c0-1.3,0.5-2.6,1.5-3.5
		c0.9-0.9,2.2-1.4,3.5-1.5H251c1.3,0,2.6,0.5,3.5,1.5c0.9,0.9,1.4,2.2,1.5,3.5c0,1.3-0.5,2.6-1.5,3.5
		C253.6,420,252.3,420.5,251,420.5z"/>
	<path class="st7" d="M233.6,416.7h-36.2c-0.1,0-0.3,0-0.4-0.1c-0.1-0.1-0.3-0.1-0.4-0.2c-0.1-0.1-0.2-0.2-0.2-0.3
		c-0.1-0.1-0.1-0.3-0.1-0.4s0-0.3,0.1-0.4c0.1-0.1,0.1-0.2,0.2-0.4c0.1-0.1,0.2-0.2,0.4-0.2c0.1-0.1,0.3-0.1,0.4-0.1h36.2
		c0.1,0,0.3,0,0.4,0.1c0.1,0.1,0.2,0.1,0.3,0.2c0.1,0.1,0.2,0.2,0.2,0.4c0.1,0.1,0.1,0.3,0.1,0.4c0,0.3-0.1,0.6-0.3,0.8
		C234.2,416.6,233.9,416.7,233.6,416.7z"/>
	<path class="st2" d="M246.7,416.7c0.6,0,1.1-0.5,1.1-1.1c0-0.6-0.5-1.1-1.1-1.1s-1.1,0.5-1.1,1.1
		C245.6,416.2,246.1,416.7,246.7,416.7z"/>
	<path class="st9" d="M251.5,416.7c0.6,0,1.1-0.5,1.1-1.1c0-0.6-0.5-1.1-1.1-1.1s-1.1,0.5-1.1,1.1
		C250.4,416.2,250.9,416.7,251.5,416.7z"/>
	<path class="st2" d="M241.9,416.7c0.6,0,1.1-0.5,1.1-1.1c0-0.6-0.5-1.1-1.1-1.1s-1.1,0.5-1.1,1.1
		C240.9,416.2,241.3,416.7,241.9,416.7z"/>
	<path class="st8" d="M251,436.4h-52.8c-1.3,0-2.6-0.5-3.5-1.4c-0.9-0.9-1.4-2.2-1.5-3.5c0-1.3,0.5-2.6,1.5-3.5
		c0.9-0.9,2.2-1.4,3.5-1.5H251c1.3,0,2.6,0.5,3.5,1.4s1.5,2.2,1.5,3.5c0,1.3-0.5,2.6-1.5,3.5C253.6,435.9,252.4,436.4,251,436.4z"/>
	<path class="st7" d="M233.6,432.6h-36.2c-0.3,0-0.6-0.1-0.8-0.3c-0.2-0.2-0.3-0.5-0.3-0.8c0-0.1,0-0.3,0.1-0.4
		c0.1-0.1,0.1-0.2,0.2-0.4c0.1-0.1,0.2-0.2,0.4-0.2c0.1-0.1,0.3-0.1,0.4-0.1h36.2c0.3,0,0.6,0.1,0.8,0.3c0.2,0.2,0.3,0.5,0.3,0.8
		c0,0.3-0.1,0.6-0.3,0.8C234.2,432.4,233.9,432.5,233.6,432.6z"/>
	<path class="st8" d="M246.7,432.6c0.6,0,1.1-0.5,1.1-1.1c0-0.6-0.5-1.1-1.1-1.1s-1.1,0.5-1.1,1.1
		C245.6,432.1,246.1,432.6,246.7,432.6z"/>
	<path class="st2" d="M251.5,432.6c0.6,0,1.1-0.5,1.1-1.1c0-0.6-0.5-1.1-1.1-1.1s-1.1,0.5-1.1,1.1
		C250.4,432.1,250.9,432.6,251.5,432.6z"/>
	<path class="st2" d="M241.9,432.6c0.6,0,1.1-0.5,1.1-1.1c0-0.6-0.5-1.1-1.1-1.1s-1.1,0.5-1.1,1.1
		C240.9,432.1,241.3,432.6,241.9,432.6z"/>
	<path class="st8" d="M251,452.3h-52.8c-1.3,0-2.6-0.5-3.5-1.5c-0.9-0.9-1.4-2.2-1.5-3.5c0-1.3,0.5-2.6,1.5-3.5
		c0.9-0.9,2.2-1.4,3.5-1.5H251c1.3,0,2.6,0.5,3.5,1.5c0.9,0.9,1.4,2.2,1.5,3.5c0,1.3-0.5,2.6-1.5,3.5
		C253.6,451.8,252.3,452.3,251,452.3z"/>
	<path class="st7" d="M233.6,448.4h-36.2c-0.3,0-0.6-0.1-0.8-0.3c-0.2-0.2-0.3-0.5-0.3-0.8c0-0.3,0.1-0.6,0.3-0.8
		c0.2-0.2,0.5-0.3,0.8-0.3h36.2c0.1,0,0.3,0,0.4,0.1c0.1,0.1,0.2,0.1,0.3,0.2c0.1,0.1,0.2,0.2,0.2,0.3c0.1,0.1,0.1,0.3,0.1,0.4
		c0,0.3-0.1,0.6-0.3,0.8C234.2,448.3,233.9,448.4,233.6,448.4z"/>
	<path class="st8" d="M246.7,448.4c0.6,0,1.1-0.5,1.1-1.1c0-0.6-0.5-1.1-1.1-1.1s-1.1,0.5-1.1,1.1
		C245.6,447.9,246.1,448.4,246.7,448.4z"/>
	<path class="st2" d="M251.5,448.4c0.6,0,1.1-0.5,1.1-1.1c0-0.6-0.5-1.1-1.1-1.1s-1.1,0.5-1.1,1.1
		C250.4,447.9,250.9,448.4,251.5,448.4z"/>
	<path class="st8" d="M241.9,448.4c0.6,0,1.1-0.5,1.1-1.1c0-0.6-0.5-1.1-1.1-1.1s-1.1,0.5-1.1,1.1
		C240.9,447.9,241.3,448.4,241.9,448.4z"/>
	<path class="st8" d="M251,458.3h-52.8c-2.7,0-4.9,2.2-4.9,4.9s2.2,4.9,4.9,4.9H251c2.7,0,4.9-2.2,4.9-4.9S253.8,458.3,251,458.3z"
		/>
	<path class="st7" d="M233.6,464.3h-36.2c-0.1,0-0.3,0-0.4-0.1c-0.1-0.1-0.3-0.1-0.4-0.2c-0.1-0.1-0.2-0.2-0.2-0.4
		c-0.1-0.1-0.1-0.3-0.1-0.4c0-0.3,0.1-0.6,0.3-0.8c0.2-0.2,0.5-0.3,0.8-0.3h36.2c0.3,0,0.6,0.1,0.8,0.3c0.2,0.2,0.3,0.5,0.3,0.8
		s-0.1,0.6-0.3,0.8C234.2,464.2,233.9,464.3,233.6,464.3z"/>
	<path class="st2" d="M246.7,464.3c0.6,0,1.1-0.5,1.1-1.1c0-0.6-0.5-1.1-1.1-1.1s-1.1,0.5-1.1,1.1
		C245.6,463.8,246.1,464.3,246.7,464.3z"/>
	<path class="st2" d="M251.5,464.3c0.6,0,1.1-0.5,1.1-1.1c0-0.6-0.5-1.1-1.1-1.1s-1.1,0.5-1.1,1.1
		C250.4,463.8,250.9,464.3,251.5,464.3z"/>
	<path class="st2" d="M241.9,464.3c0.6,0,1.1-0.5,1.1-1.1c0-0.6-0.5-1.1-1.1-1.1s-1.1,0.5-1.1,1.1
		C240.9,463.8,241.3,464.3,241.9,464.3z"/>
	<path class="st8" d="M251,484h-52.8c-1.3,0-2.6-0.5-3.5-1.5c-0.9-0.9-1.4-2.2-1.5-3.5c0-1.3,0.5-2.6,1.5-3.5
		c0.9-0.9,2.2-1.4,3.5-1.5H251c1.3,0,2.6,0.5,3.5,1.5c0.9,0.9,1.4,2.2,1.5,3.5c0,1.3-0.5,2.6-1.5,3.5C253.6,483.5,252.3,484,251,484
		z"/>
	<path class="st7" d="M233.6,480.2h-36.2c-0.3,0-0.6-0.1-0.8-0.3c-0.2-0.2-0.3-0.5-0.3-0.8c0-0.3,0.1-0.6,0.3-0.8
		c0.2-0.2,0.5-0.3,0.8-0.3h36.2c0.1,0,0.3,0,0.4,0.1c0.1,0.1,0.2,0.1,0.3,0.2c0.1,0.1,0.2,0.2,0.2,0.4c0.1,0.1,0.1,0.3,0.1,0.4
		c0,0.3-0.1,0.6-0.3,0.8C234.2,480.1,233.9,480.2,233.6,480.2z"/>
	<path class="st2" d="M246.7,480.2c0.6,0,1.1-0.5,1.1-1.1c0-0.6-0.5-1.1-1.1-1.1s-1.1,0.5-1.1,1.1
		C245.6,479.7,246.1,480.2,246.7,480.2z"/>
	<path class="st2" d="M251.5,480.2c0.6,0,1.1-0.5,1.1-1.1c0-0.6-0.5-1.1-1.1-1.1s-1.1,0.5-1.1,1.1
		C250.4,479.7,250.9,480.2,251.5,480.2z"/>
	<path class="st9" d="M241.9,480.2c0.6,0,1.1-0.5,1.1-1.1c0-0.6-0.5-1.1-1.1-1.1s-1.1,0.5-1.1,1.1
		C240.9,479.7,241.3,480.2,241.9,480.2z"/>
	<path class="st6" d="M276.3,368.4H269c-1.2,0-2.2,1-2.2,2.2v9.1c0,1.2,1,2.2,2.2,2.2h7.4c1.2,0,2.2-1,2.2-2.2v-9.1
		C278.5,369.4,277.5,368.4,276.3,368.4z"/>
	<path class="st6" d="M332.2,438.4v48c0,2.5,1,4.9,2.8,6.7c1.8,1.8,4.2,2.8,6.7,2.8h11.7l-4.2-53L332.2,438.4z"/>
	<path class="st2" d="M314.8,438.8l-4.7,5.8c-0.4,0.5-0.9,0.9-1.5,1.2s-1.2,0.4-1.9,0.5h-42.2c-1.1,0-2.2,0.4-3,1.2
		c-0.8,0.7-1.3,1.8-1.4,2.9l-3.7,44.9c-0.1,0.5,0,1,0.2,1.5c0.2,0.5,0.4,1,0.8,1.3c0.4,0.4,0.8,0.7,1.3,0.9c0.5,0.2,1,0.3,1.5,0.3
		h82.5c1.1,0,2.2-0.4,3-1.2c0.8-0.7,1.3-1.8,1.4-2.9l4.5-54.1c0.1-0.5,0-1-0.2-1.5c-0.2-0.5-0.4-0.9-0.8-1.3
		c-0.4-0.4-0.8-0.7-1.3-0.9c-0.5-0.2-1-0.3-1.5-0.3h-29.6c-0.7,0-1.3,0.2-1.9,0.4C315.7,437.8,315.2,438.2,314.8,438.8z"/>
	<path class="st5" d="M298.1,442l-3.8,5.5c-0.4,0.5-0.8,0.9-1.4,1.2c-0.6,0.3-1.2,0.4-1.8,0.4h-34.7c-0.5,0-1,0.1-1.5,0.3
		c-0.5,0.2-0.9,0.5-1.2,0.8c-0.4,0.4-0.6,0.8-0.8,1.3c-0.2,0.5-0.3,1-0.2,1.5l3.1,42.5c0.1,1.1,0.6,2,1.4,2.8
		c0.8,0.7,1.8,1.1,2.9,1.1h82.5c0.5,0,1-0.1,1.5-0.3c0.5-0.2,0.9-0.5,1.2-0.8c0.4-0.4,0.6-0.8,0.8-1.3c0.2-0.5,0.3-1,0.2-1.5
		l-3.7-51.2c-0.1-1.1-0.6-2-1.4-2.7c-0.8-0.7-1.8-1.1-2.9-1.1h-37.1c-0.6,0-1.2,0.1-1.8,0.4C298.9,441,298.5,441.4,298.1,442z"/>
	<path class="st10" d="M253.5,457.4l8.3,3.6l-4.7,5.5l-6.9-3L253.5,457.4z"/>
	<path class="st6" d="M253.5,457.4l8.3,3.6l-2.7,3.1l-7.5-3.3L253.5,457.4z"/>
	<path class="st11" d="M258.1,469.5l-0.9-0.2c-0.3-0.1-0.5-0.2-0.7-0.4c-0.2-0.2-0.4-0.4-0.5-0.7l-0.6,0.3c-0.4,0.1-0.7,0.2-1.1,0.1
		l-12.6-3.4c0.2-0.9,0.6-1.7,1.1-2.4c0,0,5.6,1.2,7.3-0.1c0.1-0.1,0.1-0.1,0.2-0.1c0.1,0,0.2,0,0.2,0c1,0.5,5,2.4,7.6,2.3
		c0.1,0,0.2,0,0.2,0c0.1,0,0.1,0.1,0.2,0.1c0.1,0.1,0.1,0.1,0.1,0.2c0,0.1,0,0.2,0,0.2C258.4,466.8,258.2,468.1,258.1,469.5z"/>
	<path class="st11" d="M327.7,431.4l-3.5,7.4c-5.2,11-18.1,16.4-28.4,12.1c-6-2.5-12.5-7.8-17-10.3c-3.8,8.3-11,17.6-16.4,24
		l-11-5.6c4.1-9.5,10.5-24.3,14.6-33.8c0.7-1.7,1.9-3.2,3.4-4.2c1.5-1.1,3.3-1.7,5.2-1.7C293,418.8,327.7,431.4,327.7,431.4z"/>
	<path class="st10" d="M274.5,481.6l7.9-0.4L281,490l-6.6,0.3L274.5,481.6z"/>
	<path class="st6" d="M274.6,481.7l7.9-0.4l-0.6,3.6l-7.4,0.5L274.6,481.7z"/>
	<path class="st11" d="M284.1,490.4l-0.9,0.3c-0.3,0.1-0.6,0.1-0.8,0c-0.3-0.1-0.5-0.2-0.8-0.3l-0.4,0.5c-0.2,0.3-0.5,0.5-0.9,0.7
		l-12.5,3.9c-0.3-0.8-0.4-1.7-0.3-2.6c0,0,5.4-2,6.1-4c0-0.1,0.1-0.1,0.1-0.2c0.1,0,0.1-0.1,0.2-0.1c1.1-0.1,5.5-0.6,7.6-2.2
		c0.1,0,0.1-0.1,0.2-0.1c0.1,0,0.2,0,0.2,0c0.1,0,0.1,0.1,0.2,0.1s0.1,0.1,0.1,0.2C282.9,488,283.4,489.2,284.1,490.4z"/>
	<path class="st11" d="M332.9,428.5l-0.1,7.8c-0.1,11.5-9.9,21.9-21.6,22.7c-6.8,0.5-16.1,0.7-21.4,0.6c-0.8,8.1-3.3,17.6-5.8,24.5
		l-11.5-0.8c-0.3-9.8-0.7-23.7-1.1-32.9c0-1.8,0.5-3.6,1.5-5.2c1-1.6,2.4-2.8,4-3.6C294.2,433.1,332.9,428.5,332.9,428.5z"/>
	<path class="st12" d="M281.6,484.2L281.6,484.2c-0.1,0-0.2-0.1-0.2-0.1c0-0.1,0-0.1,0-0.2c1.7-5.7,4.9-23.5,5-31.7c0,0,0-0.1,0-0.1
		c0,0,0-0.1,0.1-0.1c0,0,0.1,0,0.1-0.1c0,0,0.1,0,0.1,0c16.8,2.2,28.2,1.5,32.9-2.2c8.3-6.4,8.2-16.9,6.1-22.3c0,0,0-0.1,0-0.1
		c0,0,0-0.1,0-0.1c0,0,0-0.1,0.1-0.1c0,0,0.1,0,0.1-0.1c0,0,0.1,0,0.1,0c0,0,0.1,0,0.1,0c0,0,0.1,0,0.1,0.1c0,0,0,0.1,0.1,0.1
		c2.2,5.6,2.3,16.3-6.2,22.9c-4.9,3.8-16,4.6-33,2.3c-0.2,8.3-3.3,25.9-5,31.6c0,0.1-0.1,0.1-0.1,0.1
		C281.7,484.2,281.7,484.2,281.6,484.2z"/>
	<path class="st6" d="M278.4,441.7c-2,3.9-4.3,7.7-6.8,11.3c0.1,1.6,0.1,3.3,0.2,5.1C275.8,451.7,278.4,441.7,278.4,441.7
		L278.4,441.7z"/>
	<path class="st10" d="M308.1,391.6c-0.3,1.1-0.6,2.1-0.9,3.1c-0.3,1-0.7,2-1,3.1c-0.7,2-1.5,4-2.4,6c-0.9,2-1.8,4-2.9,5.9
		c-1.1,2.1-2.4,4.1-3.8,5.9l-0.5,0.6c-0.3,0.4-0.7,0.7-1.1,0.9c-0.8,0.4-1.6,0.7-2.5,1c-0.8,0.3-1.7,0.5-2.5,0.6
		c-0.9,0.2-1.7,0.2-2.6,0.3c-0.4,0-0.9,0-1.3,0l-0.7-0.1c-0.2,0-0.4-0.1-0.7-0.1c-0.7,0-1.3-0.3-1.8-0.9c-0.5-0.5-0.7-1.2-0.6-1.8
		c0-0.2,0.1-0.5,0.1-0.7l1-2.7c0.1-0.1,0.2-0.2,0.3-0.4l0.4-0.4l0.7-0.7c0.5-0.5,1-0.9,1.5-1.3c0.5-0.4,0.9-0.9,1.4-1.3
		c0.4-0.4,0.9-0.8,1.3-1.2l-1.6,1.5c0.9-1.5,1.7-3.1,2.4-4.8l0.6-1.3l0.5-1.3c0.4-0.9,0.7-1.8,1-2.7c0.7-1.8,1.3-3.7,2-5.5l1.9-5.5
		l0-0.1c0.5-1.5,1.6-2.8,3.1-3.5c1.4-0.7,3.1-0.9,4.7-0.4c1.5,0.5,2.9,1.5,3.6,2.9C308.3,388.4,308.5,390,308.1,391.6L308.1,391.6z"
		/>
	<path class="st5" d="M302.1,381.4c-3.3,1-7.8,4.6-9.4,13c2.2,3.5,12.7,0.8,12.7,0.8L302.1,381.4z"/>
	<path class="st10" d="M286.4,413l0.3,3.6c-1,3.7-5.5,1.6-5.5,1.6l-2.6-0.1c-0.5-0.1-0.9-0.3-1.2-0.6c-0.3-0.3-0.5-0.8-0.5-1.2
		l-0.3-2.5c-0.1-0.5,0-1,0.3-1.5c0.3-0.4,0.8-0.7,1.3-0.8l2.2-0.2c0.6-0.1,1.3,0,1.9,0.3L286.4,413z"/>
	<path class="st5" d="M303.7,380.9c5.5-1.2,11.1-1.9,16.7-2.3c1.5-0.1,2.9,0.1,4.3,0.6c1.4,0.5,2.6,1.3,3.7,2.3c1,1,1.9,2.2,2.4,3.6
		c0.5,1.3,0.8,2.8,0.8,4.3c-0.5,18.4,2.1,37.7,1.8,41.3c0,0-38.8,5.6-44.7-5.9c-2.5-16.4,5.6-14.3,6.2-33.1
		C294.9,386.8,298.9,381.9,303.7,380.9z"/>
	<path class="st7" d="M300.6,397.5l0.1,0v-0.1c0.1-0.6,0.4-1.1,0.8-1.5c0.4-0.4,1-0.6,1.6-0.7h0.1l0.1-0.1c0.2-0.6,0.6-1.1,1-1.4
		c0.5-0.4,1.1-0.6,1.7-0.6c0.7,0.1,1.3,0.3,1.8,0.7c0.5,0.4,0.9,0.9,1.2,1.5l0.1,0.2l0.2-0.1c0.2-0.1,0.5-0.1,0.7-0.1h0.1
		c0.7,0.1,1.4,0.4,1.9,0.9c0.5,0.5,0.8,1.2,0.8,2c0,0.4,0,0.7-0.1,1.1c-0.1,0.3-0.3,0.7-0.5,0.9s-0.5,0.5-0.9,0.6
		c-0.3,0.1-0.7,0.2-1,0.2l-9.2-0.2c-0.4,0-0.9-0.2-1.2-0.5c-0.3-0.3-0.5-0.7-0.5-1.2c0-0.4,0.1-0.7,0.3-1
		C300,397.8,300.3,397.6,300.6,397.5z"/>
	<path class="st10" d="M331.1,384.8l0.4,0.8l0.3,0.7c0.2,0.5,0.4,1,0.6,1.5c0.4,1,0.7,1.9,1,2.9c0.6,1.9,1.1,3.9,1.5,5.9
		c0.2,1,0.4,2,0.5,3.1c0.2,1,0.2,2.1,0.3,3.2c0.2,2.2,0.1,4.5-0.2,6.7l-0.1,0.5c-0.1,0.7-0.3,1.4-0.7,1.9c-0.7,1-1.5,2-2.4,2.8
		c-0.8,0.7-1.6,1.3-2.4,1.9c-1.5,1.1-3.2,2-4.8,2.8c-1.6,0.8-3.3,1.5-4.9,2.1c-1.7,0.6-3.4,1.1-5.1,1.5c-0.7,0.2-1.4,0.1-2.1-0.2
		c-0.6-0.3-1.2-0.8-1.5-1.5c-0.3-0.6-0.4-1.4-0.2-2.1c0.2-0.7,0.6-1.3,1.1-1.8l0.1-0.1c1.2-1,2.5-2,3.8-2.9c1.2-1,2.5-2,3.7-2.9
		c1.2-1,2.3-2,3.2-2.9c0.4-0.4,0.8-0.9,1.2-1.4c0.3-0.3,0.5-0.7,0.6-1.1l-0.8,2.5c0-1.5-0.2-3-0.4-4.4c-0.3-1.5-0.6-3.1-1.1-4.7
		c-0.4-1.6-0.9-3.2-1.5-4.8c-0.3-0.8-0.6-1.6-0.8-2.4l-0.8-2.2l-0.1-0.3c-0.6-1.5-0.6-3.2,0.1-4.7c0.6-1.5,1.9-2.7,3.4-3.3
		c1.5-0.6,3.2-0.6,4.7,0c1.5,0.6,2.7,1.8,3.4,3.3V384.8z"/>
	<path class="st5" d="M322.4,378.7c2.7,0.3,8.4,2.3,12.1,10c-3.7,7.2-13.2,10-13.2,10S314.6,382.5,322.4,378.7z"/>
	<path class="st2" d="M300.5,430.6H269c-1.4,0-1.7-0.3-0.6-0.7l14.4-5.5c1.4-0.5,2.9-0.7,4.3-0.7h31.5c1.4,0,1.7,0.3,0.6,0.7
		l-14.4,5.5C303.4,430.4,302,430.6,300.5,430.6z"/>
	<path class="st13" d="M300.5,430.6H269c-1.4,0-1.7-0.3-0.6-0.7l14.4-5.5c1.4-0.5,2.9-0.7,4.3-0.7h31.5c1.4,0,1.7,0.3,0.6,0.7
		l-14.4,5.5C303.4,430.4,302,430.6,300.5,430.6z"/>
	<path class="st2" d="M300.5,429.3H269c-0.7,0-1.4-0.3-1.9-0.7c-0.5-0.5-0.9-1.1-1.1-1.8l-3.6-19.4c-0.1-0.3-0.1-0.6,0-0.9
		c0.1-0.3,0.2-0.6,0.4-0.8c0.2-0.2,0.4-0.4,0.7-0.6c0.3-0.1,0.6-0.2,0.9-0.2H296c0.7,0,1.4,0.3,1.9,0.8c0.5,0.5,0.9,1.1,1,1.7
		l3.6,19.4c0.1,0.3,0.1,0.6,0,0.9c-0.1,0.3-0.2,0.6-0.4,0.8c-0.2,0.2-0.4,0.4-0.7,0.6C301.1,429.2,300.8,429.3,300.5,429.3z"/>
	<path class="st14" d="M300.5,429.3H269c-0.7,0-1.4-0.3-1.9-0.7c-0.5-0.5-0.9-1.1-1.1-1.8l-3.6-19.4c-0.1-0.3-0.1-0.6,0-0.9
		c0.1-0.3,0.2-0.6,0.4-0.8c0.2-0.2,0.4-0.4,0.7-0.6c0.3-0.1,0.6-0.2,0.9-0.2H296c0.7,0,1.4,0.3,1.9,0.8c0.5,0.5,0.9,1.1,1,1.7
		l3.6,19.4c0.1,0.3,0.1,0.6,0,0.9c-0.1,0.3-0.2,0.6-0.4,0.8c-0.2,0.2-0.4,0.4-0.7,0.6C301.1,429.2,300.8,429.3,300.5,429.3z"/>
	<path class="st8" d="M299.8,429.3H269c-0.7,0-1.4-0.3-1.9-0.7c-0.5-0.5-0.9-1.1-1.1-1.8l-3.6-19.4c-0.1-0.3-0.1-0.6,0-0.9
		c0.1-0.3,0.2-0.6,0.4-0.8c0.2-0.2,0.4-0.4,0.7-0.6c0.3-0.1,0.6-0.2,0.9-0.2h30.8c0.7,0,1.4,0.3,1.9,0.8c0.5,0.5,0.9,1.1,1,1.7
		l3.6,19.4c0.1,0.3,0.1,0.6,0,0.9c-0.1,0.3-0.2,0.6-0.4,0.8c-0.2,0.2-0.4,0.4-0.7,0.6C300.4,429.2,300.1,429.3,299.8,429.3z"/>
	<path class="st10" d="M314.1,418.7l1.6,1.7c1.5,3.5-3.4,4.6-3.4,4.6l-2.1,1.5c-0.4,0.2-0.9,0.3-1.3,0.3c-0.5-0.1-0.9-0.3-1.2-0.6
		l-1.8-1.8c-0.4-0.4-0.6-0.8-0.6-1.4c0-0.5,0.1-1,0.5-1.4l1.6-1.6c0.5-0.5,1-0.8,1.7-1l2.8-0.8c0.4-0.1,0.8-0.1,1.2,0
		C313.5,418.2,313.8,418.4,314.1,418.7z"/>
	<path class="st10" d="M305.8,382.8c0.3-1.1,1-2,1.9-2.7c0.2-1.1,0-2.2-0.5-3.1l8.7-7.3c0.5,3.7,1.8,8.5,3.6,10.1
		c-2,1.8-5.7,5.2-10.2,5.9C304.7,386.4,305.4,384.5,305.8,382.8z"/>
	<path class="st6" d="M307.4,377.3l7.4-3.1c-0.9,3.8-5.1,6.9-7,5.4C307.9,378.8,307.7,378,307.4,377.3z"/>
	<path class="st11" d="M306.9,365.6c0,1-0.3,1.9-0.8,2.7c-0.5,0.8-1.3,1.4-2.2,1.8c-0.9,0.4-1.9,0.5-2.8,0.3
		c-0.9-0.2-1.8-0.6-2.5-1.3c-0.7-0.7-1.1-1.5-1.3-2.5c-0.2-0.9-0.1-1.9,0.3-2.8c0.4-0.9,1-1.6,1.8-2.2c0.8-0.5,1.7-0.8,2.7-0.8
		c1.3,0,2.5,0.5,3.4,1.4C306.4,363.1,306.9,364.3,306.9,365.6z"/>
	<path class="st10" d="M315.3,362.9c1.1,5.5,1.8,9.3-0.7,12.5c-5,6.3-9.6,4.3-12.4-0.8c-2.5-4.6-4-12.9,0.8-16.4
		c1.1-0.8,2.3-1.3,3.6-1.5c1.3-0.2,2.6,0,3.9,0.4c1.2,0.5,2.3,1.3,3.2,2.3C314.4,360.4,315,361.6,315.3,362.9z"/>
	<path class="st11" d="M304.4,361.4c-1.1,1.3-4.1,4-8.4,1.5c-4.3-2.4-2.5-8.2,0-10c1.1-0.8,2.3-1.3,3.6-1.4c1.3-0.2,2.6,0,3.9,0.5
		c0,0-0.4-3.1,4-3.2s4.1,2.9,4.1,2.9s5.6-2.3,8.3,2c2.5,4-1.2,7.1-1.2,7.1s3.9,1.7,2.6,5.7c-0.3,0.9-0.8,1.8-1.6,2.4
		c-0.8,0.6-1.7,1-2.7,1c0,0-4.1,0.3-4.8-2.7c-0.4-1.8-0.2-3.6,0.6-5.3C312.8,361.9,306.2,364.5,304.4,361.4z"/>
	<path class="st11" d="M310.8,367.9l-1-0.1c0,0,0,0-0.1,0c0,0,0,0-0.1,0c0,0,0,0,0-0.1c0,0,0,0,0-0.1c0,0,0,0,0-0.1c0,0,0,0,0-0.1
		c0,0,0,0,0.1,0c0,0,0,0,0.1,0l1,0.1l5.2-1.2c0,0,0,0,0.1,0c0,0,0,0,0.1,0c0,0,0,0,0.1,0c0,0,0,0,0,0.1c0,0,0,0.1,0,0.1
		c0,0-0.1,0.1-0.1,0.1L310.8,367.9L310.8,367.9z"/>
	<path class="st11" d="M318.2,361.3c-0.2,0-0.3,0-0.5,0c0,0-0.1,0-0.1,0c0,0-0.1-0.1-0.1-0.1c0,0-0.1-0.1-0.1-0.1c0,0,0-0.1,0-0.1
		c0,0,0-0.1,0-0.1c0,0,0.1-0.1,0.1-0.1c0,0,0.1-0.1,0.1-0.1c0,0,0.1,0,0.1,0c0.5,0.1,1,0.1,1.4-0.1c0.5-0.2,0.9-0.5,1.2-0.8
		c0.2-0.3,0.3-0.6,0.3-0.9c0-0.3,0-0.7-0.2-0.9c0,0,0-0.1,0-0.1c0,0,0-0.1,0-0.1c0,0,0-0.1,0.1-0.1s0.1-0.1,0.1-0.1
		c0.1,0,0.2-0.1,0.3,0c0.1,0,0.2,0.1,0.2,0.2c0.2,0.4,0.3,0.9,0.3,1.3c0,0.5-0.2,0.9-0.4,1.3c-0.3,0.4-0.7,0.8-1.2,1
		C319.3,361.3,318.7,361.4,318.2,361.3z"/>
	<path class="st11" d="M298.1,364.9c-0.7,0-1.5-0.1-2.2-0.3c-1-0.2-1.8-0.7-2.5-1.5c-0.7-0.7-1.1-1.7-1.2-2.7
		c-0.2-2.1,0.8-4.4,2.5-5.3c0,0,0.1,0,0.1-0.1c0.1,0,0.1,0,0.1,0c0,0,0.1,0,0.1,0.1c0,0,0.1,0.1,0.1,0.1c0,0,0,0.1,0,0.1
		c0,0,0,0.1,0,0.1c0,0,0,0.1-0.1,0.1c0,0-0.1,0.1-0.1,0.1c-1.4,0.7-2.3,2.7-2.1,4.6c0.1,0.8,0.4,1.6,1,2.3c0.6,0.6,1.3,1.1,2.1,1.2
		c4.3,1.2,6.4-1.6,7.3-3.3c0-0.1,0.1-0.1,0.2-0.2c0.1,0,0.2,0,0.3,0c0.1,0,0.1,0.1,0.2,0.2c0,0.1,0,0.2,0,0.3
		C303.2,362.5,301.5,364.9,298.1,364.9z"/>
	<path class="st11" d="M306.2,373.3c-0.3,0.1-0.5,0.2-0.8,0.3c0,0-0.1,0-0.1,0c0,0-0.1-0.1-0.1-0.1c0,0,0-0.1,0-0.1
		c0,0,0.1-0.1,0.1-0.1c0.6-0.1,1.2-0.4,1.7-0.8c0.5-0.4,0.9-0.9,1.2-1.5c0,0,0,0,0,0c0,0,0,0,0,0c0,0,0,0,0.1,0c0,0,0,0,0.1,0
		c0,0,0,0,0,0c0,0,0,0,0,0c0,0,0,0,0,0.1c0,0,0,0,0,0.1C308.1,372,307.3,372.8,306.2,373.3z"/>
	<path class="st6" d="M308.4,365.9c0.5-0.4,1.2-0.7,1.9-0.6C309.7,365.6,309.1,365.8,308.4,365.9z"/>
	<path class="st6" d="M308.6,366.3c0.3-0.1,0.6-0.2,0.9-0.2c0.3,0,0.6,0,0.9,0.1C309.8,366.4,309.2,366.4,308.6,366.3z"/>
	<path class="st6" d="M300.9,368c0,0-0.6-0.4-0.8,0.1c0.1,0,0.3,0.1,0.4,0.1C300.7,368.1,300.8,368,300.9,368z"/>
	<path class="st6" d="M301,368.4c0,0-0.5-0.3-0.6,0.2c0.1,0,0.2,0,0.3,0C300.8,368.6,300.9,368.5,301,368.4z"/>
	<path class="st10" d="M318.7,368.9c-0.2,0.7-0.6,1.3-1,1.8c-0.5,0.5-1,1-1.6,1.3c-1.7,0.9-2.9-0.6-2.8-2.3c0.1-1.6,1.2-4,3-4.1
		c0.4,0,0.8,0.1,1.2,0.2c0.4,0.2,0.7,0.4,0.9,0.8c0.2,0.3,0.4,0.7,0.4,1.1C318.9,368.1,318.8,368.5,318.7,368.9z"/>
	<path class="st11" d="M307,366.5c0.1,0.4,0,0.9-0.3,0.9c-0.3,0.1-0.6-0.2-0.7-0.7c-0.1-0.4,0-0.9,0.3-0.9
		C306.6,365.8,306.9,366.1,307,366.5z"/>
	<path class="st11" d="M302.4,367.9c0.1,0.4,0,0.9-0.3,0.9c-0.3,0.1-0.6-0.2-0.7-0.7c-0.1-0.4,0-0.9,0.3-0.9
		S302.2,367.4,302.4,367.9z"/>
	<path class="st11" d="M299.7,371.2c-0.1,0-0.3,0-0.4-0.1c-0.1-0.1-0.2-0.2-0.3-0.3l-0.7-1.3c0-0.1-0.1-0.2-0.1-0.2
		c0-0.1,0-0.2,0-0.3c0-0.1,0.1-0.1,0.2-0.2c0.1,0,0.1-0.1,0.2-0.1l3.8-0.8c0.2,0,0.3,0,0.5,0.1c0.2,0.1,0.3,0.2,0.4,0.3l0.7,1.3
		c0,0.1,0.1,0.2,0.1,0.2c0,0.1,0,0.2,0,0.3c0,0.1-0.1,0.1-0.2,0.2c-0.1,0-0.1,0.1-0.2,0.1l-3.8,0.8L299.7,371.2z M302.5,368.2
		L302.5,368.2l-3.9,0.8c0,0,0,0-0.1,0c0,0,0,0,0,0.1c0,0,0,0.1,0,0.1c0,0,0,0.1,0,0.1l0.7,1.3c0,0.1,0.1,0.1,0.2,0.2
		c0.1,0,0.2,0.1,0.3,0l3.8-0.8c0,0,0,0,0.1,0c0,0,0,0,0-0.1c0,0,0-0.1,0-0.1c0,0,0-0.1,0-0.1l-0.7-1.3c0-0.1-0.1-0.1-0.2-0.2
		C302.6,368.2,302.5,368.2,302.5,368.2z"/>
	<path class="st15" d="M303.9,367.9l1.6,3.5c-0.6,0.5-1.5,0.7-2.3,0.7C303.1,370.7,303.3,369.2,303.9,367.9z"/>
	<path class="st11" d="M306,369.8c-0.1,0-0.3,0-0.4-0.1s-0.2-0.2-0.3-0.3l-0.7-1.3c0-0.1-0.1-0.2-0.1-0.2s0-0.2,0-0.3
		c0-0.1,0.1-0.1,0.2-0.2c0.1,0,0.1-0.1,0.2-0.1l3.8-0.8c0.2,0,0.3,0,0.5,0.1c0.2,0.1,0.3,0.2,0.4,0.3l0.7,1.3c0,0.1,0.1,0.2,0.1,0.2
		c0,0.1,0,0.2,0,0.3c0,0.1-0.1,0.1-0.1,0.2c-0.1,0-0.1,0.1-0.2,0.1l-3.8,0.8L306,369.8z M308.8,366.8L308.8,366.8l-3.9,0.8
		c0,0,0,0-0.1,0c0,0,0,0-0.1,0.1c0,0,0,0.1,0,0.1s0,0.1,0,0.1l0.7,1.3c0,0.1,0.1,0.1,0.2,0.2c0.1,0,0.2,0.1,0.3,0l3.8-0.8
		c0,0,0,0,0.1,0c0,0,0,0,0.1-0.1c0,0,0-0.1,0-0.1s0-0.1,0-0.1l-0.7-1.3c0-0.1-0.1-0.1-0.2-0.2C308.9,366.8,308.8,366.8,308.8,366.8z
		"/>
	<path class="st11" d="M303.3,369L303.3,369c-0.1,0-0.1,0-0.1,0c0,0,0,0,0-0.1c0,0,0,0,0-0.1c0,0,0,0,0-0.1c0,0,0.3-0.8,1.8-0.5
		c0,0,0,0,0.1,0c0,0,0,0,0,0c0,0,0,0,0,0.1s0,0,0,0.1c0,0,0,0,0,0.1c0,0,0,0,0,0.1c0,0,0,0-0.1,0c0,0,0,0-0.1,0
		c-1.2-0.2-1.4,0.2-1.4,0.2c0,0,0,0.1-0.1,0.1C303.4,369,303.4,369,303.3,369z"/>
	<path class="st11" d="M308.1,364.9c0,0,0.1,0,0.1-0.1c0-0.1,0.1-0.1,0.1-0.2c0-0.1,0-0.1-0.1-0.2c-0.3-0.3-0.7-0.5-1.1-0.6
		c-0.4-0.1-0.9-0.1-1.3,0c0,0-0.1,0-0.1,0.1c0,0-0.1,0.1-0.1,0.1c0,0,0,0.1,0,0.1c0,0,0,0.1,0,0.1c0,0.1,0.1,0.1,0.1,0.2
		c0.1,0,0.1,0,0.2,0c0.3-0.1,0.7-0.1,1,0c0.3,0.1,0.6,0.2,0.9,0.4c0,0,0.1,0,0.1,0.1C308,365,308.1,365,308.1,364.9z"/>
	<path class="st11" d="M299.4,367.2c0,0,0.1,0,0.1-0.1c0,0,0.1-0.1,0.1-0.1c0.1-0.3,0.3-0.6,0.5-0.9c0.2-0.3,0.5-0.4,0.8-0.6
		c0,0,0.1,0,0.1,0c0,0,0.1,0,0.1-0.1c0,0,0-0.1,0-0.1c0,0,0-0.1,0-0.1c0-0.1-0.1-0.1-0.1-0.2c-0.1,0-0.1,0-0.2,0
		c-0.4,0.1-0.8,0.4-1.1,0.7c-0.3,0.3-0.5,0.7-0.6,1.1c0,0,0,0.1,0,0.1c0,0,0,0.1,0,0.1s0,0.1,0.1,0.1c0,0,0.1,0,0.1,0
		C299.3,367.2,299.4,367.2,299.4,367.2z"/>
</g>
</svg>
