<?xml version="1.0" encoding="utf-8"?>
<!-- Generator: Adobe Illustrator 25.2.1, SVG Export Plug-In . SVG Version: 6.00 Build 0)  -->
<svg version="1.1" id="Layer_1" xmlns="http://www.w3.org/2000/svg" xmlns:xlink="http://www.w3.org/1999/xlink" x="0px" y="0px"
	 width="361.2px" height="509px" viewBox="0 0 361.2 509" style="enable-background:new 0 0 361.2 509;" xml:space="preserve">
<style type="text/css">
	.st0{fill:#407BFF;}
	.st1{opacity:0.9;fill:#E3EBFA;enable-background:new    ;}
	.st2{fill:#F5F5F5;}
	.st3{opacity:0.2;enable-background:new    ;}
	.st4{opacity:0.5;fill:#407BFF;enable-background:new    ;}
	.st5{fill:#FFFFFF;}
	.st6{fill:#0D51D9;}
	.st7{opacity:0.5;fill:#FFFFFF;enable-background:new    ;}
	.st8{opacity:0.3;fill:#407BFF;enable-background:new    ;}
	.st9{opacity:0.6;fill:#407BFF;enable-background:new    ;}
	.st10{fill:#CE7A63;}
	.st11{fill:#263238;}
	.st12{opacity:0.1;enable-background:new    ;}
	.st13{opacity:0.4;enable-background:new    ;}
	.st14{opacity:0.3;enable-background:new    ;}
	.st15{fill:#BA4D3C;}
</style>
<g>
	<path class="st0" d="M182,302.2c-8.2,30.5-5.2,62.7,35.5,72c30.6,7,45.7-30.1,74.5-1.6c50.9,50.4-25.3,116.8-91.2,105.6
		C134.9,467,73.5,401.8,88,325.4c4.7-24.9,19.8-55.6,46.7-62.6C158,256.8,189.4,275,182,302.2z"/>
	<path class="st1" d="M182,302.2c-8.2,30.5-5.2,62.7,35.5,72c30.6,7,45.7-30.1,74.5-1.6c50.9,50.4-25.3,116.8-91.2,105.6
		C134.9,467,73.5,401.8,88,325.4c4.7-24.9,19.8-55.6,46.7-62.6C158,256.8,189.4,275,182,302.2z"/>
	<path class="st2" d="M199.4,504c69.8,0,126.4-3.3,126.4-7.4c0-4.1-56.6-7.4-126.4-7.4c-69.8,0-126.4,3.3-126.4,7.4
		C73,500.7,129.6,504,199.4,504z"/>
	<path class="st3" d="M281,353.2h-56c-4.7,0-8.5,3.8-8.5,8.5v126.4c0,4.7,3.8,8.5,8.5,8.5h56c4.7,0,8.5-3.8,8.5-8.5V361.7
		C289.5,357.1,285.7,353.2,281,353.2z"/>
	<path class="st0" d="M167.8,288.8h-12c-7.6,0-14.9,2.2-21.2,6.4c-6.3,4.2-11.2,10.1-14.1,17.1h-9.5c-4.4-0.1-8.7,0.7-12.7,2.4
		c-4,1.6-7.7,4-10.8,7.1c-3.1,3.1-5.6,6.7-7.3,10.7s-2.5,8.3-2.5,12.7c0,4.4,0.9,8.7,2.5,12.7s4.1,7.7,7.3,10.7s6.8,5.5,10.8,7.1
		c4,1.6,8.4,2.4,12.7,2.4h56.9V288.8z"/>
	<path class="st0" d="M139.4,290.6l-0.3-0.6c1.5-0.7,3-1.3,4.6-1.7l0.2,0.7C142.4,289.4,140.9,290,139.4,290.6z"/>
	<path class="st0" d="M124.5,302.1l-0.5-0.4c3-3.7,6.6-6.9,10.7-9.4l0.3,0.6C131.1,295.3,127.5,298.4,124.5,302.1z"/>
	<path class="st3" d="M167.8,288.8h-12c-7.6,0-14.9,2.2-21.2,6.4c-6.3,4.2-11.2,10.1-14.1,17.1h-9.5c-4.4-0.1-8.7,0.7-12.7,2.4
		c-4,1.6-7.7,4-10.8,7.1c-3.1,3.1-5.6,6.7-7.3,10.7s-2.5,8.3-2.5,12.7c0,4.4,0.9,8.7,2.5,12.7s4.1,7.7,7.3,10.7s6.8,5.5,10.8,7.1
		c4,1.6,8.4,2.4,12.7,2.4h56.9V288.8z"/>
	<path class="st4" d="M122.7,307.7h17.2l12.7-11.3h-19.8C128.7,299.5,125.3,303.3,122.7,307.7z"/>
	<path class="st4" d="M83.6,326.7c-2.3,3.4-4,7.3-4.9,11.3h19.6v-11.3H83.6z"/>
	<path class="st4" d="M164.1,291.4h-22.3c-2.4,0.9-4.7,2.1-6.8,3.5h16.4L164.1,291.4z"/>
	<path class="st0" d="M233.2,337.5c-1.6-6.9-5.4-13-10.9-17.6c-5.4-4.5-12.1-7.2-19.2-7.6c-3-7.1-8-13.1-14.4-17.3
		c-6.4-4.2-14-6.4-21.6-6.2c-7.7,0.1-15.1,2.6-21.4,7c-6.3,4.4-11.1,10.6-13.8,17.8c-4.5-1.3-9.3-1.6-13.9-0.9
		c-4.6,0.7-9.1,2.4-13,5c-3.9,2.6-7.3,5.9-9.8,9.9c-2.5,4-4.2,8.4-4.8,13.1c-0.7,4.7-0.3,9.4,1,13.9c1.3,4.5,3.6,8.7,6.7,12.2
		c3.1,3.5,6.9,6.4,11.2,8.3c4.3,2,8.9,3,13.6,3h104.8c5,0,9.8-1.8,13.5-5.1c3.8-3.3,6.2-7.8,6.9-12.7c0.7-4.9-0.4-9.9-3.2-14.1
		C242.1,341.9,238,338.9,233.2,337.5z"/>
	<path class="st3" d="M232.5,340l-1.5-0.4l-0.4-1.5c-1.5-6.3-5-12-10-16.2c-5-4.2-11.2-6.7-17.7-7.1l-1.6-0.1l-0.7-1.5
		c-2.7-6.5-7.3-12.1-13.2-16c-5.9-3.9-12.8-6-19.8-6c-0.5,0-0.9,0-1.4,0c6.8,0.3,13.4,2.5,19,6.3c5.6,3.9,10,9.3,12.6,15.6l0.7,1.5
		l1.6,0.1c6.5,0.4,12.7,2.9,17.7,7.1c5,4.2,8.5,9.8,10,16.2l0.4,1.5l1.5,0.4c4.2,1.2,7.8,3.8,10.2,7.5c2.4,3.6,3.4,8,2.8,12.4
		c-0.6,4.3-2.7,8.3-6,11.1c-3.3,2.9-7.5,4.4-11.9,4.4h2.8c4.3,0,8.5-1.6,11.8-4.4c3.3-2.9,5.4-6.8,6-11.1c0.6-4.3-0.4-8.7-2.8-12.3
		C240.3,343.9,236.7,341.2,232.5,340L232.5,340z"/>
	<path class="st5" d="M229.7,340l-1.5-0.4l-0.4-1.5c-1.5-6.3-5-12-10-16.2c-5-4.2-11.2-6.7-17.7-7.1l-1.6-0.1l-0.7-1.5
		c-2.6-6.3-7-11.7-12.6-15.6c-5.6-3.9-12.2-6.1-19-6.3h0c-7,0.3-13.8,2.6-19.4,6.7c-5.7,4.1-10.1,9.8-12.6,16.3l-0.8,2.2l-2.3-0.7
		l-0.2-0.1c-2.6-0.7-5.4-1.1-8.1-1.1c-0.5,0-0.9,0-1.4,0c-7.9,0.4-15.3,3.9-20.7,9.6c-5.4,5.8-8.3,13.4-8.1,21.3
		c0.2,7.9,3.4,15.4,9.1,20.9c5.6,5.5,13.2,8.6,21.1,8.7h102c4.3,0,8.5-1.6,11.8-4.4c3.3-2.9,5.4-6.8,6-11.1
		c0.6-4.3-0.4-8.7-2.8-12.3C237.6,343.9,233.9,341.2,229.7,340L229.7,340z"/>
	<path class="st6" d="M154.7,336.6v25.9h26.1v-25.9h8.2l-21.3-23.9l-21.3,23.9H154.7z"/>
	<path class="st0" d="M146,395.6h8.1V409c0,0.9-0.4,1.8-1,2.4c-0.6,0.6-1.5,1-2.4,1h-1.3c-0.9,0-1.8-0.4-2.4-1c-0.6-0.6-1-1.5-1-2.4
		L146,395.6L146,395.6z"/>
	<path class="st3" d="M146,395.6h8.1V409c0,0.9-0.4,1.8-1,2.4c-0.6,0.6-1.5,1-2.4,1h-1.3c-0.9,0-1.8-0.4-2.4-1c-0.6-0.6-1-1.5-1-2.4
		L146,395.6L146,395.6z"/>
	<path class="st0" d="M142.4,378h15.4v15.4c0,1.7-0.7,3.3-1.9,4.5c-1.2,1.2-2.8,1.9-4.5,1.9h-2.5c-1.7,0-3.3-0.7-4.5-1.9
		c-1.2-1.2-1.9-2.8-1.9-4.5V378z"/>
	<path class="st3" d="M157.8,381.9l-15.4,2.3V378h15.4V381.9z"/>
	<path class="st5" d="M154.5,391.6c1.1,0,2-0.9,2-2c0-1.1-0.9-2-2-2s-2,0.9-2,2C152.5,390.7,153.4,391.6,154.5,391.6z"/>
	<path class="st7" d="M149.1,391.6c1.1,0,2-0.9,2-2c0-1.1-0.9-2-2-2c-1.1,0-2,0.9-2,2C147.1,390.7,148,391.6,149.1,391.6z"/>
	<path class="st0" d="M201.2,435H167c-4.9,0-9.6-2-13.1-5.5c-3.5-3.5-5.4-8.2-5.4-13.1v-4h3.3v4c0,4.1,1.6,8,4.5,10.8
		c2.9,2.9,6.8,4.5,10.8,4.5h34.2V435z"/>
	<path class="st6" d="M281,353.3h-56c-4.7,0-8.5,3.8-8.5,8.5v126.4c0,4.7,3.8,8.5,8.5,8.5h56c4.7,0,8.5-3.8,8.5-8.5V361.8
		C289.5,357.1,285.7,353.3,281,353.3z"/>
	<path class="st0" d="M265.8,353.3h-56c-4.7,0-8.5,3.8-8.5,8.5v126.4c0,4.7,3.8,8.5,8.5,8.5h56c4.7,0,8.5-3.8,8.5-8.5V361.8
		C274.3,357.1,270.5,353.3,265.8,353.3z"/>
	<path class="st3" d="M271.4,488.1V361.8c0-3.1-2.5-5.7-5.7-5.7h-56c-3.1,0-5.7,2.5-5.7,5.7v126.4c0,3.1,2.5,5.7,5.7,5.7h56
		C268.9,493.8,271.4,491.3,271.4,488.1z"/>
	<path class="st5" d="M271.4,488.1V361.8c0-3.1-2.5-5.7-5.7-5.7h-53.4c-3.1,0-5.7,2.5-5.7,5.7v126.4c0,3.1,2.5,5.7,5.7,5.7h53.4
		C268.9,493.8,271.4,491.3,271.4,488.1z"/>
	<path class="st8" d="M262.6,372.7h-47.1c-1.2,0-2.3-0.5-3.1-1.3c-0.8-0.8-1.3-1.9-1.3-3.1c0-1.2,0.5-2.3,1.3-3.1
		c0.8-0.8,1.9-1.3,3.1-1.3h47.1c1.2,0,2.3,0.5,3.1,1.3c0.8,0.8,1.3,1.9,1.3,3.1c0,1.2-0.5,2.3-1.3,3.1
		C264.9,372.2,263.8,372.7,262.6,372.7z"/>
	<path class="st5" d="M247.1,369.2h-32.3c-0.1,0-0.3,0-0.4-0.1c-0.1,0-0.2-0.1-0.3-0.2c-0.1-0.1-0.2-0.2-0.2-0.3
		c0-0.1-0.1-0.2-0.1-0.4c0-0.3,0.1-0.5,0.3-0.7s0.4-0.3,0.7-0.3h32.3c0.1,0,0.3,0,0.4,0.1c0.1,0,0.2,0.1,0.3,0.2
		c0.1,0.1,0.2,0.2,0.2,0.3c0,0.1,0.1,0.2,0.1,0.4c0,0.3-0.1,0.5-0.3,0.7C247.6,369.1,247.3,369.2,247.1,369.2z"/>
	<path class="st0" d="M258.7,369.2c0.5,0,1-0.4,1-1s-0.4-1-1-1s-1,0.4-1,1S258.2,369.2,258.7,369.2z"/>
	<path class="st0" d="M263,369.2c0.5,0,1-0.4,1-1s-0.4-1-1-1c-0.5,0-1,0.4-1,1S262.5,369.2,263,369.2z"/>
	<path class="st0" d="M254.5,369.2c0.5,0,1-0.4,1-1s-0.4-1-1-1c-0.5,0-1,0.4-1,1S254,369.2,254.5,369.2z"/>
	<path class="st8" d="M262.6,386.8h-47.1c-1.2,0-2.3-0.5-3.1-1.3c-0.8-0.8-1.3-1.9-1.3-3.1c0-1.2,0.5-2.3,1.3-3.1
		c0.8-0.8,1.9-1.3,3.1-1.3h47.1c1.2,0,2.3,0.5,3.1,1.3c0.8,0.8,1.3,1.9,1.3,3.1c0,1.2-0.5,2.3-1.3,3.1
		C264.9,386.4,263.8,386.8,262.6,386.8z"/>
	<path class="st5" d="M247.1,383.4h-32.3c-0.3,0-0.5-0.1-0.7-0.3s-0.3-0.4-0.3-0.7s0.1-0.5,0.3-0.7s0.4-0.3,0.7-0.3h32.3
		c0.3,0,0.5,0.1,0.7,0.3c0.2,0.2,0.3,0.4,0.3,0.7s-0.1,0.5-0.3,0.7C247.6,383.3,247.3,383.4,247.1,383.4z"/>
	<path class="st0" d="M258.7,383.4c0.5,0,1-0.4,1-1s-0.4-1-1-1s-1,0.4-1,1S258.2,383.4,258.7,383.4z"/>
	<path class="st0" d="M263,383.4c0.5,0,1-0.4,1-1s-0.4-1-1-1c-0.5,0-1,0.4-1,1S262.5,383.4,263,383.4z"/>
	<path class="st8" d="M254.5,383.4c0.5,0,1-0.4,1-1s-0.4-1-1-1c-0.5,0-1,0.4-1,1S254,383.4,254.5,383.4z"/>
	<path class="st8" d="M262.6,401h-47.1c-1.2,0-2.3-0.5-3.1-1.3c-0.8-0.8-1.3-1.9-1.3-3.1c0-1.2,0.5-2.3,1.3-3.1
		c0.8-0.8,1.9-1.3,3.1-1.3h47.1c1.2,0,2.3,0.5,3.1,1.3c0.8,0.8,1.3,1.9,1.3,3.1c0,1.2-0.5,2.3-1.3,3.1
		C264.9,400.5,263.8,401,262.6,401z"/>
	<path class="st5" d="M247.1,397.6h-32.3c-0.1,0-0.3,0-0.4-0.1c-0.1,0-0.2-0.1-0.3-0.2c-0.1-0.1-0.2-0.2-0.2-0.3
		c0-0.1-0.1-0.2-0.1-0.4c0-0.3,0.1-0.5,0.3-0.7s0.4-0.3,0.7-0.3h32.3c0.1,0,0.3,0,0.4,0.1c0.1,0,0.2,0.1,0.3,0.2
		c0.1,0.1,0.2,0.2,0.2,0.3c0,0.1,0.1,0.2,0.1,0.4c0,0.3-0.1,0.5-0.3,0.7C247.6,397.5,247.3,397.6,247.1,397.6z"/>
	<path class="st0" d="M258.7,397.6c0.5,0,1-0.4,1-1c0-0.5-0.4-1-1-1s-1,0.4-1,1C257.8,397.1,258.2,397.6,258.7,397.6z"/>
	<path class="st0" d="M263,397.6c0.5,0,1-0.4,1-1c0-0.5-0.4-1-1-1c-0.5,0-1,0.4-1,1C262,397.1,262.5,397.6,263,397.6z"/>
	<path class="st9" d="M254.5,397.6c0.5,0,1-0.4,1-1c0-0.5-0.4-1-1-1c-0.5,0-1,0.4-1,1C253.5,397.1,254,397.6,254.5,397.6z"/>
	<path class="st8" d="M262.6,406.4h-47.1c-2.4,0-4.4,2-4.4,4.4c0,2.4,2,4.4,4.4,4.4h47.1c2.4,0,4.4-2,4.4-4.4
		C267,408.3,265,406.4,262.6,406.4z"/>
	<path class="st5" d="M247.1,411.7h-32.3c-0.3,0-0.5-0.1-0.7-0.3s-0.3-0.4-0.3-0.7c0-0.3,0.1-0.5,0.3-0.7s0.4-0.3,0.7-0.3h32.3
		c0.3,0,0.5,0.1,0.7,0.3c0.2,0.2,0.3,0.4,0.3,0.7s-0.1,0.5-0.3,0.7C247.6,411.6,247.3,411.7,247.1,411.7z"/>
	<path class="st0" d="M258.7,411.7c0.5,0,1-0.4,1-1c0-0.5-0.4-1-1-1s-1,0.4-1,1C257.8,411.3,258.2,411.7,258.7,411.7z"/>
	<path class="st8" d="M263,411.7c0.5,0,1-0.4,1-1c0-0.5-0.4-1-1-1c-0.5,0-1,0.4-1,1C262,411.3,262.5,411.7,263,411.7z"/>
	<path class="st9" d="M254.5,411.7c0.5,0,1-0.4,1-1c0-0.5-0.4-1-1-1c-0.5,0-1,0.4-1,1C253.5,411.3,254,411.7,254.5,411.7z"/>
	<path class="st8" d="M262.6,429.4h-47.1c-1.2,0-2.3-0.5-3.1-1.3c-0.8-0.8-1.3-1.9-1.3-3.1c0-1.2,0.5-2.3,1.3-3.1
		c0.8-0.8,1.9-1.3,3.1-1.3h47.1c1.2,0,2.3,0.5,3.1,1.3c0.8,0.8,1.3,1.9,1.3,3.1c0,1.2-0.5,2.3-1.3,3.1
		C264.9,428.9,263.8,429.4,262.6,429.4z"/>
	<path class="st5" d="M247.1,425.9h-32.3c-0.1,0-0.3,0-0.4-0.1c-0.1,0-0.2-0.1-0.3-0.2c-0.1-0.1-0.2-0.2-0.2-0.3
		c0-0.1-0.1-0.2-0.1-0.4c0-0.1,0-0.3,0.1-0.4c0-0.1,0.1-0.2,0.2-0.3c0.1-0.1,0.2-0.2,0.3-0.2c0.1,0,0.2-0.1,0.4-0.1h32.3
		c0.1,0,0.3,0,0.4,0.1c0.1,0,0.2,0.1,0.3,0.2c0.1,0.1,0.2,0.2,0.2,0.3c0,0.1,0.1,0.2,0.1,0.4c0,0.3-0.1,0.5-0.3,0.7
		C247.6,425.8,247.3,425.9,247.1,425.9z"/>
	<path class="st0" d="M258.7,425.9c0.5,0,1-0.4,1-1s-0.4-1-1-1s-1,0.4-1,1S258.2,425.9,258.7,425.9z"/>
	<path class="st9" d="M263,425.9c0.5,0,1-0.4,1-1s-0.4-1-1-1c-0.5,0-1,0.4-1,1S262.5,425.9,263,425.9z"/>
	<path class="st0" d="M254.5,425.9c0.5,0,1-0.4,1-1s-0.4-1-1-1c-0.5,0-1,0.4-1,1S254,425.9,254.5,425.9z"/>
	<path class="st8" d="M262.6,443.5h-47.1c-1.2,0-2.3-0.5-3.1-1.3s-1.3-1.9-1.3-3.1c0-1.2,0.5-2.3,1.3-3.1c0.8-0.8,1.9-1.3,3.1-1.3
		h47.1c1.2,0,2.3,0.5,3.1,1.3c0.8,0.8,1.3,1.9,1.3,3.1c0,1.2-0.5,2.3-1.3,3.1C264.9,443.1,263.8,443.5,262.6,443.5z"/>
	<path class="st5" d="M247.1,440.1h-32.3c-0.3,0-0.5-0.1-0.7-0.3s-0.3-0.4-0.3-0.7c0-0.1,0-0.3,0.1-0.4c0-0.1,0.1-0.2,0.2-0.3
		c0.1-0.1,0.2-0.2,0.3-0.2c0.1,0,0.2-0.1,0.4-0.1h32.3c0.3,0,0.5,0.1,0.7,0.3c0.2,0.2,0.3,0.4,0.3,0.7s-0.1,0.5-0.3,0.7
		C247.6,440,247.3,440.1,247.1,440.1z"/>
	<path class="st8" d="M258.7,440.1c0.5,0,1-0.4,1-1s-0.4-1-1-1s-1,0.4-1,1S258.2,440.1,258.7,440.1z"/>
	<path class="st0" d="M263,440.1c0.5,0,1-0.4,1-1s-0.4-1-1-1c-0.5,0-1,0.4-1,1S262.5,440.1,263,440.1z"/>
	<path class="st0" d="M254.5,440.1c0.5,0,1-0.4,1-1s-0.4-1-1-1c-0.5,0-1,0.4-1,1S254,440.1,254.5,440.1z"/>
	<path class="st8" d="M262.6,457.7h-47.1c-1.2,0-2.3-0.5-3.1-1.3c-0.8-0.8-1.3-1.9-1.3-3.1c0-1.2,0.5-2.3,1.3-3.1
		c0.8-0.8,1.9-1.3,3.1-1.3h47.1c1.2,0,2.3,0.5,3.1,1.3c0.8,0.8,1.3,1.9,1.3,3.1c0,1.2-0.5,2.3-1.3,3.1
		C264.9,457.2,263.8,457.7,262.6,457.7z"/>
	<path class="st5" d="M247.1,454.3h-32.3c-0.3,0-0.5-0.1-0.7-0.3s-0.3-0.4-0.3-0.7c0-0.3,0.1-0.5,0.3-0.7s0.4-0.3,0.7-0.3h32.3
		c0.1,0,0.3,0,0.4,0.1c0.1,0,0.2,0.1,0.3,0.2c0.1,0.1,0.2,0.2,0.2,0.3c0,0.1,0.1,0.2,0.1,0.4c0,0.3-0.1,0.5-0.3,0.7
		C247.6,454.1,247.3,454.3,247.1,454.3z"/>
	<path class="st8" d="M258.7,454.3c0.5,0,1-0.4,1-1c0-0.5-0.4-1-1-1s-1,0.4-1,1C257.8,453.8,258.2,454.3,258.7,454.3z"/>
	<path class="st0" d="M263,454.3c0.5,0,1-0.4,1-1c0-0.5-0.4-1-1-1c-0.5,0-1,0.4-1,1C262,453.8,262.5,454.3,263,454.3z"/>
	<path class="st8" d="M254.5,454.3c0.5,0,1-0.4,1-1c0-0.5-0.4-1-1-1c-0.5,0-1,0.4-1,1C253.5,453.8,254,454.3,254.5,454.3z"/>
	<path class="st8" d="M262.6,463h-47.1c-2.4,0-4.4,2-4.4,4.4c0,2.4,2,4.4,4.4,4.4h47.1c2.4,0,4.4-2,4.4-4.4
		C267,465,265,463,262.6,463z"/>
	<path class="st5" d="M247.1,468.4h-32.3c-0.1,0-0.3,0-0.4-0.1c-0.1,0-0.2-0.1-0.3-0.2c-0.1-0.1-0.2-0.2-0.2-0.3
		c0-0.1-0.1-0.2-0.1-0.4c0-0.3,0.1-0.5,0.3-0.7s0.4-0.3,0.7-0.3h32.3c0.3,0,0.5,0.1,0.7,0.3c0.2,0.2,0.3,0.4,0.3,0.7
		s-0.1,0.5-0.3,0.7C247.6,468.3,247.3,468.4,247.1,468.4z"/>
	<path class="st0" d="M258.7,468.4c0.5,0,1-0.4,1-1c0-0.5-0.4-1-1-1s-1,0.4-1,1C257.8,468,258.2,468.4,258.7,468.4z"/>
	<path class="st0" d="M263,468.4c0.5,0,1-0.4,1-1c0-0.5-0.4-1-1-1c-0.5,0-1,0.4-1,1C262,468,262.5,468.4,263,468.4z"/>
	<path class="st0" d="M254.5,468.4c0.5,0,1-0.4,1-1c0-0.5-0.4-1-1-1c-0.5,0-1,0.4-1,1C253.5,468,254,468.4,254.5,468.4z"/>
	<path class="st8" d="M262.6,486h-47.1c-1.2,0-2.3-0.5-3.1-1.3c-0.8-0.8-1.3-1.9-1.3-3.1c0-1.2,0.5-2.3,1.3-3.1
		c0.8-0.8,1.9-1.3,3.1-1.3h47.1c1.2,0,2.3,0.5,3.1,1.3c0.8,0.8,1.3,1.9,1.3,3.1c0,1.2-0.5,2.3-1.3,3.1
		C264.9,485.6,263.8,486,262.6,486z"/>
	<path class="st5" d="M247.1,482.6h-32.3c-0.3,0-0.5-0.1-0.7-0.3s-0.3-0.4-0.3-0.7c0-0.3,0.1-0.5,0.3-0.7c0.2-0.2,0.4-0.3,0.7-0.3
		h32.3c0.1,0,0.3,0,0.4,0.1c0.1,0,0.2,0.1,0.3,0.2c0.1,0.1,0.2,0.2,0.2,0.3c0,0.1,0.1,0.2,0.1,0.4c0,0.3-0.1,0.5-0.3,0.7
		C247.6,482.5,247.3,482.6,247.1,482.6z"/>
	<path class="st0" d="M258.7,482.6c0.5,0,1-0.4,1-1c0-0.5-0.4-1-1-1s-1,0.4-1,1C257.8,482.2,258.2,482.6,258.7,482.6z"/>
	<path class="st0" d="M263,482.6c0.5,0,1-0.4,1-1c0-0.5-0.4-1-1-1c-0.5,0-1,0.4-1,1C262,482.2,262.5,482.6,263,482.6z"/>
	<path class="st9" d="M254.5,482.6c0.5,0,1-0.4,1-1c0-0.5-0.4-1-1-1c-0.5,0-1,0.4-1,1C253.5,482.2,254,482.6,254.5,482.6z"/>
	<path class="st3" d="M285.2,382.9h-6.6c-1.1,0-1.9,0.9-1.9,1.9v8.1c0,1.1,0.9,1.9,1.9,1.9h6.6c1.1,0,1.9-0.9,1.9-1.9v-8.1
		C287.1,383.7,286.3,382.9,285.2,382.9z"/>
	<path class="st10" d="M207.8,352.5l7.4,3.2l-4.2,4.9l-6.2-2.7L207.8,352.5z"/>
	<path class="st3" d="M207.8,352.5l7.4,3.2l-2.4,2.8l-6.7-2.9L207.8,352.5z"/>
	<path class="st11" d="M211.9,363.3l-0.8-0.2c-0.2-0.1-0.5-0.2-0.6-0.4c-0.2-0.2-0.3-0.4-0.4-0.6l-0.5,0.2c-0.3,0.1-0.7,0.2-1,0.1
		l-11.3-3c0.1-0.8,0.5-1.5,1-2.1c0,0,5,1.1,6.5-0.1c0.1,0,0.1-0.1,0.2-0.1c0.1,0,0.1,0,0.2,0c0.9,0.5,4.5,2.2,6.8,2
		c0.1,0,0.1,0,0.2,0c0.1,0,0.1,0.1,0.2,0.1s0.1,0.1,0.1,0.2c0,0.1,0,0.1,0,0.2C212.2,360.9,212,362.1,211.9,363.3z"/>
	<path class="st11" d="M274.1,329.3l-3.2,6.6c-4.7,9.8-16.1,14.7-25.3,10.8c-5.4-2.2-11.2-7-15.2-9.2c-3.4,7.5-9.8,15.7-14.7,21.4
		l-9.9-5c3.7-8.5,9.4-21.6,13-30.2c0.6-1.5,1.7-2.8,3.1-3.8c1.4-0.9,3-1.5,4.6-1.6C243,318,274.1,329.3,274.1,329.3z"/>
	<path class="st10" d="M226.6,374.1l7.1-0.3l-1.3,7.8l-5.9,0.3L226.6,374.1z"/>
	<path class="st3" d="M226.6,374.1l7.1-0.3l-0.5,3.2l-6.6,0.4L226.6,374.1z"/>
	<path class="st11" d="M235.1,382l-0.8,0.3c-0.2,0.1-0.5,0.1-0.7,0c-0.2,0-0.5-0.2-0.7-0.3l-0.3,0.5c-0.2,0.3-0.5,0.5-0.8,0.6
		l-11.1,3.5c-0.3-0.7-0.4-1.5-0.3-2.3c0,0,4.8-1.8,5.5-3.6c0-0.1,0.1-0.1,0.1-0.2c0.1,0,0.1-0.1,0.2-0.1c1-0.1,4.9-0.6,6.8-1.9
		c0.1,0,0.1-0.1,0.2-0.1c0.1,0,0.1,0,0.2,0s0.1,0.1,0.2,0.1c0.1,0.1,0.1,0.1,0.1,0.2C234,379.8,234.5,380.9,235.1,382z"/>
	<path class="st11" d="M278.7,326.7l-0.1,7c-0.1,10.3-8.8,19.5-19.3,20.3c-6.1,0.5-14.3,0.6-19.1,0.5c-0.7,7.2-2.9,15.7-5.2,21.9
		l-10.3-0.7c-0.3-8.8-0.7-21.2-1-29.4c0-1.6,0.4-3.3,1.3-4.6c0.9-1.4,2.1-2.5,3.6-3.2C244.1,330.8,278.7,326.7,278.7,326.7z"/>
	<path class="st12" d="M232.9,376.4L232.9,376.4c-0.1,0-0.2-0.1-0.2-0.1s0-0.1,0-0.2c1.6-5.1,4.3-21,4.5-28.3c0,0,0-0.1,0-0.1
		c0,0,0-0.1,0.1-0.1c0,0,0.1,0,0.1,0c0,0,0.1,0,0.1,0c15,2,25.1,1.3,29.3-2c7.4-5.8,7.3-15.1,5.4-19.9c0,0,0-0.1,0-0.1
		c0,0,0-0.1,0-0.1c0,0,0-0.1,0.1-0.1c0,0,0.1,0,0.1,0c0,0,0.1,0,0.1,0c0,0,0.1,0,0.1,0c0,0,0.1,0,0.1,0.1c0,0,0,0,0.1,0.1
		c2,5,2,14.6-5.6,20.5c-4.4,3.4-14.3,4.1-29.4,2.1c-0.2,7.5-2.9,23.1-4.5,28.2c0,0,0,0.1-0.1,0.1C233,376.4,233,376.4,232.9,376.4z"
		/>
	<path class="st3" d="M230.1,338.5c-1.8,3.5-3.8,6.9-6.1,10.1c0.1,1.4,0.1,3,0.2,4.6C227.8,347.4,230.1,338.4,230.1,338.5
		L230.1,338.5z"/>
	<path class="st10" d="M256.6,293.8c-0.3,1-0.5,1.9-0.8,2.8s-0.6,1.8-0.9,2.7c-0.7,1.8-1.3,3.6-2.1,5.4c-0.8,1.8-1.6,3.5-2.6,5.3
		c-1,1.8-2.1,3.6-3.4,5.3l-0.4,0.6c-0.3,0.3-0.6,0.6-1,0.8c-0.7,0.3-1.5,0.6-2.2,0.9c-0.7,0.2-1.5,0.4-2.3,0.6
		c-0.8,0.1-1.5,0.2-2.3,0.2c-0.4,0-0.8,0-1.2,0l-0.6,0c-0.2,0-0.4-0.1-0.7-0.1c-0.6,0-1.2-0.3-1.6-0.8c-0.4-0.5-0.6-1-0.6-1.6
		c0-0.2,0.1-0.4,0.1-0.7l0.9-2.4c0.1-0.1,0.2-0.2,0.3-0.3l0.3-0.3l0.7-0.6c0.4-0.4,0.9-0.8,1.3-1.2c0.4-0.4,0.8-0.8,1.2-1.1
		c0.4-0.4,0.8-0.7,1.1-1.1l-1.4,1.4c0.8-1.4,1.5-2.8,2.1-4.3l0.5-1.2l0.5-1.2c0.3-0.8,0.7-1.6,0.9-2.4c0.6-1.6,1.2-3.3,1.8-4.9
		l1.7-4.9l0-0.1c0.5-1.4,1.5-2.5,2.8-3.1c1.3-0.7,2.8-0.8,4.2-0.4c1.4,0.4,2.5,1.4,3.3,2.6C256.7,290.9,256.9,292.4,256.6,293.8
		L256.6,293.8z"/>
	<path class="st6" d="M251.2,284.6c-3,0.9-7,4.1-8.4,11.6c2,3.1,11.4,0.7,11.4,0.7L251.2,284.6z"/>
	<path class="st10" d="M237.2,312.8l0.3,3.2c-0.9,3.3-4.9,1.4-4.9,1.4l-2.3-0.1c-0.4,0-0.8-0.2-1.1-0.5c-0.3-0.3-0.4-0.7-0.5-1.1
		l-0.2-2.2c-0.1-0.5,0-0.9,0.3-1.3c0.3-0.4,0.7-0.6,1.1-0.7l2-0.2c0.6-0.1,1.2,0,1.7,0.2L237.2,312.8z"/>
	<path class="st6" d="M252.6,284.2c4.9-1,9.9-1.7,14.9-2c1.3-0.1,2.6,0.1,3.8,0.6c1.2,0.5,2.3,1.2,3.3,2.1s1.7,2,2.2,3.2
		c0.5,1.2,0.7,2.5,0.7,3.8c-0.4,16.4,1.9,33.7,1.6,36.9c0,0-34.6,5-39.9-5.3c-2.2-14.6,5-12.7,5.6-29.5
		C244.8,289.4,248.3,285.1,252.6,284.2z"/>
	<path class="st5" d="M249.9,299l0.1,0v-0.1c0.1-0.5,0.3-1,0.7-1.4c0.4-0.4,0.9-0.6,1.4-0.6h0.1l0-0.1c0.2-0.5,0.5-1,0.9-1.3
		c0.4-0.3,1-0.5,1.5-0.5c0.6,0,1.1,0.3,1.6,0.6c0.5,0.3,0.8,0.8,1.1,1.4l0.1,0.2l0.2-0.1c0.2-0.1,0.4-0.1,0.7-0.1h0.1
		c0.7,0.1,1.3,0.4,1.7,0.8c0.5,0.5,0.7,1.1,0.8,1.8c0,0.3,0,0.6-0.1,0.9c-0.1,0.3-0.3,0.6-0.5,0.8c-0.2,0.2-0.5,0.4-0.8,0.6
		c-0.3,0.1-0.6,0.2-0.9,0.2l-8.2-0.1c-0.4,0-0.8-0.2-1.1-0.5c-0.3-0.3-0.5-0.7-0.5-1.1c0-0.3,0.1-0.6,0.3-0.9
		C249.4,299.3,249.6,299.1,249.9,299z"/>
	<path class="st10" d="M277.1,287.7l0.3,0.7l0.3,0.7c0.2,0.4,0.3,0.8,0.5,1.3c0.3,0.8,0.6,1.7,0.9,2.6c0.6,1.7,1,3.5,1.4,5.3
		c0.2,0.9,0.3,1.8,0.5,2.7c0.1,0.9,0.2,1.9,0.3,2.8c0.1,2,0.1,4-0.2,6l-0.1,0.5c-0.1,0.6-0.3,1.2-0.7,1.7c-0.6,0.9-1.4,1.8-2.2,2.5
		c-0.7,0.6-1.4,1.2-2.2,1.7c-1.4,0.9-2.8,1.8-4.3,2.5c-1.5,0.7-2.9,1.3-4.4,1.8c-1.5,0.5-3,1-4.5,1.3c-0.6,0.1-1.3,0.1-1.9-0.2
		c-0.6-0.3-1-0.7-1.3-1.3c-0.3-0.6-0.4-1.2-0.2-1.9c0.1-0.6,0.5-1.2,1-1.6l0.1-0.1c1.1-0.9,2.3-1.7,3.4-2.6c1.1-0.9,2.2-1.7,3.3-2.6
		c1-0.9,2-1.8,2.9-2.6c0.4-0.4,0.8-0.8,1.1-1.3c0.2-0.3,0.4-0.6,0.6-1l-0.7,2.2c0-1.3-0.2-2.6-0.4-4c-0.2-1.4-0.6-2.8-0.9-4.2
		c-0.4-1.4-0.8-2.9-1.3-4.3c-0.2-0.7-0.5-1.4-0.7-2.1l-0.7-2l-0.1-0.3c-0.5-1.4-0.5-2.9,0.1-4.2c0.6-1.3,1.7-2.4,3-3
		c1.4-0.6,2.9-0.6,4.2,0C275.4,285.4,276.5,286.5,277.1,287.7L277.1,287.7z"/>
	<path class="st6" d="M269.3,282.2c2.4,0.3,7.5,2.1,10.8,8.9c-3.3,6.5-11.8,8.9-11.8,8.9S262.4,285.7,269.3,282.2z"/>
	<path class="st0" d="M249.8,328.6h-28.1c-1.2,0-1.5-0.3-0.6-0.7l12.8-4.9c1.3-0.4,2.6-0.6,3.9-0.7h28.1c1.2,0,1.5,0.3,0.6,0.7
		l-12.8,4.9C252.4,328.3,251.1,328.6,249.8,328.6z"/>
	<path class="st13" d="M249.8,328.6h-28.1c-1.2,0-1.5-0.3-0.6-0.7l12.8-4.9c1.3-0.4,2.6-0.6,3.9-0.7h28.1c1.2,0,1.5,0.3,0.6,0.7
		l-12.8,4.9C252.4,328.3,251.1,328.6,249.8,328.6z"/>
	<path class="st0" d="M249.8,327.4h-28.1c-0.6,0-1.2-0.3-1.7-0.7c-0.5-0.4-0.8-1-0.9-1.6l-3.2-17.3c-0.1-0.3-0.1-0.6,0-0.8
		c0.1-0.3,0.2-0.5,0.4-0.7c0.2-0.2,0.4-0.4,0.7-0.5c0.3-0.1,0.5-0.2,0.8-0.2h28.1c0.6,0,1.2,0.3,1.7,0.7c0.5,0.4,0.8,1,0.9,1.6
		l3.2,17.3c0.1,0.3,0.1,0.5,0,0.8c-0.1,0.3-0.2,0.5-0.4,0.7c-0.2,0.2-0.4,0.4-0.6,0.5C250.3,327.4,250.1,327.4,249.8,327.4z"/>
	<path class="st14" d="M249.8,327.4h-28.1c-0.6,0-1.2-0.3-1.7-0.7c-0.5-0.4-0.8-1-0.9-1.6l-3.2-17.3c-0.1-0.3-0.1-0.6,0-0.8
		c0.1-0.3,0.2-0.5,0.4-0.7c0.2-0.2,0.4-0.4,0.7-0.5c0.3-0.1,0.5-0.2,0.8-0.2h28.1c0.6,0,1.2,0.3,1.7,0.7c0.5,0.4,0.8,1,0.9,1.6
		l3.2,17.3c0.1,0.3,0.1,0.5,0,0.8c-0.1,0.3-0.2,0.5-0.4,0.7c-0.2,0.2-0.4,0.4-0.6,0.5C250.3,327.4,250.1,327.4,249.8,327.4z"/>
	<path class="st8" d="M249.1,327.4h-27.5c-0.6,0-1.2-0.3-1.7-0.7c-0.5-0.4-0.8-1-0.9-1.6l-3.2-17.3c-0.1-0.3-0.1-0.6,0-0.8
		c0.1-0.3,0.2-0.5,0.4-0.7c0.2-0.2,0.4-0.4,0.7-0.5c0.3-0.1,0.5-0.2,0.8-0.2h27.5c0.6,0,1.2,0.3,1.7,0.7c0.5,0.4,0.8,1,0.9,1.6
		l3.2,17.3c0.1,0.3,0.1,0.5,0,0.8c-0.1,0.3-0.2,0.5-0.4,0.7c-0.2,0.2-0.4,0.4-0.6,0.5C249.7,327.4,249.4,327.4,249.1,327.4z"/>
	<path class="st10" d="M261.9,318l1.4,1.5c1.3,3.1-3,4.1-3,4.1l-1.9,1.3c-0.3,0.2-0.8,0.3-1.2,0.2c-0.4-0.1-0.8-0.3-1-0.6l-1.6-1.6
		c-0.3-0.3-0.6-0.8-0.6-1.2c0-0.5,0.1-0.9,0.4-1.3l1.4-1.4c0.4-0.4,0.9-0.7,1.5-0.9l2.5-0.7c0.3-0.1,0.7-0.1,1.1,0
		C261.3,317.5,261.7,317.7,261.9,318z"/>
	<path class="st10" d="M254.5,285.9c0.3-1,0.9-1.8,1.7-2.4c0.2-1,0-1.9-0.5-2.8l7.8-6.5c0.5,3.3,1.6,7.6,3.2,9
		c-1.8,1.6-5.1,4.6-9.1,5.3C253.6,289.1,254.2,287.4,254.5,285.9z"/>
	<path class="st3" d="M255.9,281l6.6-2.8c-0.8,3.4-4.6,6.2-6.2,4.8C256.4,282.3,256.2,281.6,255.9,281z"/>
	<path class="st11" d="M255.5,270.5c0,0.9-0.3,1.7-0.7,2.4c-0.5,0.7-1.2,1.3-1.9,1.6c-0.8,0.3-1.7,0.4-2.5,0.2
		c-0.8-0.2-1.6-0.6-2.2-1.2c-0.6-0.6-1-1.4-1.2-2.2c-0.2-0.8-0.1-1.7,0.2-2.5c0.3-0.8,0.9-1.5,1.6-1.9c0.7-0.5,1.6-0.7,2.4-0.7
		c1.1,0,2.2,0.5,3.1,1.3C255.1,268.3,255.5,269.4,255.5,270.5z"/>
	<path class="st10" d="M263,268.1c1,4.9,1.6,8.3-0.7,11.1c-4.5,5.6-8.6,3.9-11.1-0.7c-2.2-4.1-3.5-11.5,0.7-14.7
		c0.9-0.7,2-1.2,3.2-1.3c1.2-0.2,2.4,0,3.5,0.4c1.1,0.4,2.1,1.1,2.8,2S262.7,267,263,268.1z"/>
	<path class="st11" d="M253.3,266.8c-1,1.1-3.6,3.5-7.5,1.4c-3.8-2.2-2.3-7.3,0-9c1-0.7,2.1-1.1,3.2-1.3c1.2-0.2,2.4,0,3.5,0.4
		c0,0-0.3-2.7,3.5-2.9c3.9-0.1,3.7,2.6,3.7,2.6s5-2.1,7.4,1.8c2.2,3.6-1.1,6.4-1.1,6.4s3.5,1.5,2.3,5.1c-0.2,0.8-0.7,1.6-1.4,2.1
		c-0.7,0.6-1.5,0.9-2.4,0.9c0,0-3.7,0.3-4.3-2.4c-0.4-1.6-0.2-3.2,0.5-4.7C260.8,267.2,254.8,269.6,253.3,266.8z"/>
	<path class="st11" d="M258.9,272.6l-0.9-0.1c0,0,0,0-0.1,0c0,0,0,0-0.1,0c0,0,0,0,0-0.1c0,0,0,0,0-0.1c0,0,0,0,0-0.1c0,0,0,0,0,0
		c0,0,0,0,0.1,0c0,0,0,0,0.1,0l0.9,0.1l4.6-1.1c0,0,0,0,0.1,0c0,0,0,0,0.1,0c0,0,0,0,0,0c0,0,0,0,0,0.1c0,0,0,0.1,0,0.1
		c0,0-0.1,0.1-0.1,0.1L258.9,272.6L258.9,272.6z"/>
	<path class="st11" d="M265.6,266.7c-0.1,0-0.3,0-0.5,0c0,0-0.1,0-0.1,0c0,0-0.1,0-0.1-0.1s0-0.1-0.1-0.1c0,0,0-0.1,0-0.1
		c0,0,0-0.1,0-0.1c0,0,0-0.1,0.1-0.1c0,0,0.1,0,0.1-0.1c0,0,0.1,0,0.1,0c0.4,0.1,0.9,0,1.3-0.1c0.4-0.1,0.8-0.4,1-0.7
		c0.2-0.2,0.3-0.5,0.3-0.8c0-0.3,0-0.6-0.2-0.8c0,0,0-0.1,0-0.1c0,0,0-0.1,0-0.1c0,0,0-0.1,0.1-0.1c0,0,0.1-0.1,0.1-0.1
		c0.1,0,0.2,0,0.2,0s0.2,0.1,0.2,0.2c0.2,0.4,0.3,0.8,0.2,1.2c0,0.4-0.2,0.8-0.4,1.1c-0.3,0.4-0.7,0.7-1.1,0.9
		C266.5,266.7,266,266.8,265.6,266.7z"/>
	<path class="st11" d="M247.7,269.9c-0.7,0-1.3-0.1-2-0.3c-0.9-0.2-1.6-0.6-2.2-1.3c-0.6-0.7-0.9-1.5-1-2.4
		c-0.2-1.9,0.7-3.9,2.2-4.7c0,0,0.1,0,0.1,0c0,0,0.1,0,0.1,0c0,0,0.1,0,0.1,0.1c0,0,0.1,0.1,0.1,0.1c0,0,0,0.1,0,0.1
		c0,0,0,0.1,0,0.1c0,0,0,0.1-0.1,0.1c0,0-0.1,0.1-0.1,0.1c-1.2,0.7-2,2.4-1.9,4.1c0.1,0.7,0.4,1.5,0.9,2c0.5,0.6,1.2,1,1.9,1.1
		c3.8,1,5.8-1.4,6.6-3c0-0.1,0.1-0.1,0.2-0.2c0.1,0,0.2,0,0.2,0c0.1,0,0.1,0.1,0.2,0.2c0,0.1,0,0.2,0,0.2
		C252.2,267.8,250.6,269.9,247.7,269.9z"/>
	<path class="st11" d="M254.9,277.4c-0.2,0.1-0.5,0.2-0.7,0.2c0,0-0.1,0-0.1,0c0,0,0,0-0.1-0.1c0,0,0-0.1,0-0.1c0,0,0-0.1,0.1-0.1
		c0.6-0.1,1.1-0.4,1.5-0.7c0.5-0.4,0.8-0.8,1.1-1.3c0,0,0,0,0,0c0,0,0,0,0,0c0,0,0,0,0.1,0c0,0,0,0,0.1,0c0,0,0,0,0,0c0,0,0,0,0,0
		c0,0,0,0,0,0.1c0,0,0,0,0,0.1C256.6,276.3,255.8,277,254.9,277.4z"/>
	<path class="st3" d="M256.8,270.8c0.5-0.4,1.1-0.6,1.7-0.5C258,270.5,257.4,270.7,256.8,270.8z"/>
	<path class="st3" d="M257,271.2c0.2-0.1,0.5-0.2,0.8-0.2c0.3,0,0.6,0,0.8,0.1C258.1,271.2,257.5,271.3,257,271.2z"/>
	<path class="st3" d="M250.2,272.7c0,0-0.6-0.3-0.8,0c0.1,0,0.3,0.1,0.4,0.1C249.9,272.8,250,272.7,250.2,272.7z"/>
	<path class="st3" d="M250.2,273.1c0,0-0.5-0.3-0.5,0.2c0.1,0,0.2,0,0.3,0C250.1,273.2,250.2,273.1,250.2,273.1z"/>
	<path class="st10" d="M266,273.5c-0.2,0.6-0.5,1.2-0.9,1.6c-0.4,0.5-0.9,0.9-1.5,1.2c-1.5,0.8-2.6-0.5-2.5-2.1
		c0.1-1.4,1-3.5,2.7-3.6c0.4,0,0.7,0.1,1,0.2c0.3,0.2,0.6,0.4,0.8,0.7c0.2,0.3,0.3,0.6,0.4,1C266.2,272.8,266.2,273.2,266,273.5z"/>
	<path class="st11" d="M255.6,271.4c0.1,0.4,0,0.8-0.3,0.8c-0.3,0.1-0.6-0.2-0.7-0.6c-0.1-0.4,0-0.8,0.3-0.8
		C255.2,270.7,255.5,271,255.6,271.4z"/>
	<path class="st11" d="M251.4,272.6c0.1,0.4,0,0.8-0.3,0.8c-0.3,0.1-0.6-0.2-0.7-0.6c-0.1-0.4,0-0.8,0.3-0.8
		C251.1,271.9,251.3,272.2,251.4,272.6z"/>
	<path class="st11" d="M249,275.5c-0.1,0-0.3,0-0.4-0.1c-0.1-0.1-0.2-0.2-0.3-0.3l-0.7-1.2c0-0.1-0.1-0.1-0.1-0.2c0-0.1,0-0.2,0-0.2
		c0-0.1,0.1-0.1,0.1-0.2c0.1,0,0.1-0.1,0.2-0.1l3.4-0.7c0.2,0,0.3,0,0.4,0.1c0.1,0.1,0.3,0.2,0.3,0.3l0.7,1.2c0,0.1,0.1,0.1,0.1,0.2
		c0,0.1,0,0.2,0,0.2c0,0.1-0.1,0.1-0.1,0.2c-0.1,0-0.1,0.1-0.2,0.1l-3.4,0.8L249,275.5z M251.5,272.8L251.5,272.8l-3.5,0.8
		c0,0,0,0-0.1,0c0,0,0,0,0,0c0,0,0,0,0,0.1c0,0,0,0.1,0,0.1l0.7,1.2c0,0.1,0.1,0.1,0.2,0.2c0.1,0,0.2,0,0.2,0l3.4-0.7c0,0,0,0,0.1,0
		c0,0,0,0,0,0c0,0,0,0,0-0.1c0,0,0-0.1,0-0.1l-0.7-1.2c0-0.1-0.1-0.1-0.2-0.2C251.7,272.9,251.6,272.8,251.5,272.8z"/>
	<path class="st15" d="M252.8,272.6l1.4,3.1c-0.6,0.4-1.3,0.7-2,0.6C252.1,275.1,252.3,273.8,252.8,272.6z"/>
	<path class="st11" d="M254.6,274.3c-0.1,0-0.3,0-0.4-0.1c-0.1-0.1-0.2-0.2-0.3-0.3l-0.7-1.2c0-0.1-0.1-0.1-0.1-0.2
		c0-0.1,0-0.2,0-0.2c0-0.1,0.1-0.1,0.1-0.2c0.1,0,0.1-0.1,0.2-0.1l3.4-0.8c0.2,0,0.3,0,0.4,0.1c0.1,0.1,0.3,0.2,0.3,0.3l0.7,1.2
		c0,0.1,0.1,0.1,0.1,0.2c0,0.1,0,0.2,0,0.2c0,0.1-0.1,0.1-0.1,0.2c-0.1,0-0.1,0.1-0.2,0.1l-3.4,0.8L254.6,274.3z M257.2,271.6
		L257.2,271.6l-3.4,0.7c0,0,0,0-0.1,0s0,0,0,0c0,0,0,0,0,0.1c0,0,0,0.1,0,0.1l0.7,1.2c0,0.1,0.1,0.1,0.2,0.2c0.1,0,0.2,0.1,0.2,0
		l3.4-0.8c0,0,0,0,0.1,0c0,0,0,0,0,0c0,0,0,0,0-0.1c0,0,0-0.1,0-0.1l-0.7-1.2c0-0.1-0.1-0.1-0.2-0.1
		C257.3,271.6,257.2,271.6,257.2,271.6z"/>
	<path class="st11" d="M252.3,273.6L252.3,273.6c-0.1,0-0.1,0-0.1,0c0,0,0,0,0,0c0,0,0,0,0-0.1c0,0,0,0,0-0.1c0,0,0.2-0.7,1.6-0.4
		c0,0,0,0,0.1,0c0,0,0,0,0,0c0,0,0,0,0,0.1c0,0,0,0,0,0.1c0,0,0,0,0,0.1c0,0,0,0,0,0c0,0,0,0-0.1,0c0,0,0,0-0.1,0
		c-1.1-0.2-1.2,0.2-1.3,0.2C252.4,273.6,252.4,273.6,252.3,273.6C252.4,273.6,252.3,273.6,252.3,273.6z"/>
	<path class="st11" d="M256.6,270C256.6,269.9,256.6,269.9,256.6,270c0.1-0.1,0.2-0.2,0.1-0.3c0-0.1,0-0.1-0.1-0.2
		c-0.3-0.2-0.6-0.4-1-0.5c-0.4-0.1-0.8-0.1-1.1,0c0,0-0.1,0-0.1,0c0,0,0,0-0.1,0.1c0,0,0,0.1,0,0.1c0,0,0,0.1,0,0.1
		c0,0.1,0.1,0.1,0.1,0.1c0.1,0,0.1,0,0.2,0c0.3-0.1,0.6-0.1,0.9,0c0.3,0.1,0.6,0.2,0.8,0.4c0,0,0.1,0,0.1,0
		C256.5,270,256.5,270,256.6,270z"/>
	<path class="st11" d="M248.8,272c0,0,0.1,0,0.1-0.1c0,0,0.1-0.1,0.1-0.1c0.1-0.3,0.2-0.6,0.4-0.8c0.2-0.2,0.5-0.4,0.8-0.5
		c0,0,0.1,0,0.1,0c0,0,0,0,0.1-0.1c0,0,0-0.1,0-0.1c0,0,0-0.1,0-0.1c0-0.1-0.1-0.1-0.1-0.1c-0.1,0-0.1,0-0.2,0
		c-0.4,0.1-0.7,0.3-1,0.6c-0.3,0.3-0.5,0.6-0.6,1c0,0,0,0.1,0,0.1c0,0,0,0.1,0,0.1c0,0,0,0.1,0.1,0.1c0,0,0.1,0,0.1,0
		C248.7,272,248.8,272,248.8,272z"/>
	<path class="st3" d="M201.2,445.3v42.9c0,2.2,0.9,4.4,2.5,6c1.6,1.6,3.7,2.5,6,2.5h10.4l-3.7-47.3L201.2,445.3z"/>
	<path class="st0" d="M185.7,445.6l-4.2,5.2c-0.4,0.5-0.8,0.8-1.4,1.1c-0.5,0.3-1.1,0.4-1.7,0.4h-37.6c-1,0-1.9,0.4-2.6,1.1
		c-0.7,0.7-1.2,1.6-1.3,2.5l-3.3,40.1c-0.1,0.5,0,0.9,0.1,1.4c0.1,0.4,0.4,0.8,0.7,1.2c0.3,0.3,0.7,0.6,1.1,0.8
		c0.4,0.2,0.9,0.3,1.4,0.3h73.7c1,0,1.9-0.4,2.6-1.1c0.7-0.7,1.2-1.6,1.3-2.6l4-48.2c0.1-0.5,0-0.9-0.1-1.4
		c-0.1-0.4-0.4-0.8-0.7-1.2c-0.3-0.3-0.7-0.6-1.1-0.8c-0.4-0.2-0.9-0.3-1.4-0.3h-26.4c-0.6,0-1.2,0.1-1.7,0.4
		C186.5,444.8,186.1,445.2,185.7,445.6z"/>
	<path class="st6" d="M170.8,448.5l-3.4,4.9c-0.3,0.4-0.7,0.8-1.2,1.1c-0.5,0.2-1,0.4-1.6,0.4h-31c-0.5,0-0.9,0.1-1.3,0.2
		c-0.4,0.2-0.8,0.4-1.1,0.7c-0.3,0.3-0.6,0.7-0.7,1.1c-0.2,0.4-0.2,0.9-0.2,1.3l2.8,37.9c0.1,0.9,0.6,1.8,1.3,2.5
		c0.7,0.6,1.6,1,2.6,1h73.7c0.5,0,0.9-0.1,1.3-0.2c0.4-0.2,0.8-0.4,1.1-0.7c0.3-0.3,0.6-0.7,0.7-1.1c0.2-0.4,0.2-0.9,0.2-1.3
		l-3.3-45.7c-0.1-0.9-0.6-1.8-1.3-2.5c-0.7-0.6-1.6-1-2.6-1h-33.1c-0.6,0-1.1,0.1-1.6,0.4C171.6,447.7,171.1,448,170.8,448.5z"/>
</g>
</svg>
