<?xml version="1.0" encoding="utf-8"?>
<!-- Generator: Adobe Illustrator 25.2.1, SVG Export Plug-In . SVG Version: 6.00 Build 0)  -->
<svg version="1.1" id="Layer_1" xmlns="http://www.w3.org/2000/svg" xmlns:xlink="http://www.w3.org/1999/xlink" x="0px" y="0px"
	 width="590.2px" height="509px" viewBox="0 0 590.2 509" style="enable-background:new 0 0 590.2 509;" xml:space="preserve">
<style type="text/css">
	.st0{clip-path:url(#SVGID_2_);}
	.st1{fill:none;stroke:#B6C9CF;stroke-width:2;stroke-linecap:round;stroke-linejoin:round;}
	.st2{clip-path:url(#SVGID_4_);}
	.st3{fill:none;stroke:#B6C9CF;stroke-width:3;stroke-linecap:round;stroke-linejoin:round;}
</style>
<g>
	<g>
		<defs>
			
				<rect id="SVGID_1_" x="393.4" y="384.4" transform="matrix(0.9659 -0.2588 0.2588 0.9659 -97.2098 129.4132)" width="99" height="99"/>
		</defs>
		<clipPath id="SVGID_2_">
			<use xlink:href="#SVGID_1_"  style="overflow:visible;"/>
		</clipPath>
		<g class="st0">
			<path class="st1" d="M440.2,391.9l-31.9,8.5c-2.1,0.6-3.9,1.9-5,3.8c-1.1,1.9-1.4,4.1-0.8,6.3l17.1,63.7c0.6,2.1,1.9,3.9,3.8,5
				c1.9,1.1,4.1,1.4,6.3,0.8l47.8-12.8c2.1-0.6,3.9-1.9,5-3.8c1.1-1.9,1.4-4.1,0.8-6.3l-12.8-47.8L440.2,391.9z"/>
			<path class="st1" d="M440.2,391.9l6.4,23.9l23.9-6.4"/>
			<path class="st1" d="M459.9,433.6l-31.9,8.5"/>
			<path class="st1" d="M464.2,449.5l-31.9,8.5"/>
			<path class="st1" d="M431.7,424.1l-4,1.1l-4,1.1"/>
		</g>
	</g>
</g>
<g>
	<g>
		<defs>
			
				<rect id="SVGID_3_" x="482.1" y="112.1" transform="matrix(0.5 -0.866 0.866 0.5 119.0631 566.6349)" width="136.2" height="136.2"/>
		</defs>
		<clipPath id="SVGID_4_">
			<use xlink:href="#SVGID_3_"  style="overflow:visible;"/>
		</clipPath>
		<g class="st2">
			<path class="st3" d="M610.2,155.8l-68.8-39.7c-5.4-3.1-12.4-1.3-15.5,4.2l-39.7,68.8c-3.1,5.4-1.3,12.4,4.2,15.5l68.8,39.7
				c5.4,3.1,12.4,1.3,15.5-4.2l39.7-68.8C617.5,165.9,615.6,159,610.2,155.8z"/>
			<path class="st3" d="M514.5,139.9L603,191"/>
			<path class="st3" d="M510,215.9l34.1-59"/>
		</g>
	</g>
</g>
<g>
	<path class="st1" d="M359.7,173.8c1.4,1.9,3.2,3.4,5.2,4.5c2,1.1,4.3,1.8,6.6,1.9c2.3,0.2,4.7-0.2,6.8-1c2.2-0.8,4.2-2.1,5.8-3.7
		l9.7-9.8c3-3.1,4.6-7.2,4.6-11.4c0-4.3-1.7-8.3-4.8-11.3c-3-3-7.1-4.7-11.3-4.8c-4.3,0-8.4,1.6-11.4,4.6l-5.6,5.6"/>
	<path class="st1" d="M372.7,167.3c-1.4-1.9-3.2-3.4-5.2-4.5c-2-1.1-4.3-1.8-6.6-1.9c-2.3-0.2-4.7,0.2-6.8,1
		c-2.2,0.8-4.2,2.1-5.8,3.7l-9.8,9.8c-3,3.1-4.6,7.2-4.6,11.4s1.7,8.3,4.8,11.3c3,3,7.1,4.7,11.3,4.8c4.3,0,8.4-1.6,11.4-4.6
		l5.6-5.6"/>
</g>
</svg>
