<?xml version="1.0" encoding="utf-8"?>
<!-- Generator: Adobe Illustrator 25.2.1, SVG Export Plug-In . SVG Version: 6.00 Build 0)  -->
<svg version="1.1" id="Layer_1" xmlns="http://www.w3.org/2000/svg" xmlns:xlink="http://www.w3.org/1999/xlink" x="0px" y="0px"
	 width="158.2px" height="509px" viewBox="0 0 158.2 509" style="enable-background:new 0 0 158.2 509;" xml:space="preserve">
<style type="text/css">
	.st0{clip-path:url(#SVGID_2_);}
	.st1{fill:none;stroke:#B6C9CF;stroke-width:3;stroke-linecap:round;stroke-linejoin:round;}
</style>
<g>
	<g>
		<g>
			<defs>
				
					<rect id="SVGID_1_" x="-17.7" y="51.5" transform="matrix(0.866 -0.5 0.5 0.866 -49.7298 35.4808)" width="118.1" height="118.1"/>
			</defs>
			<clipPath id="SVGID_2_">
				<use xlink:href="#SVGID_1_"  style="overflow:visible;"/>
			</clipPath>
			<g class="st0">
				<path class="st1" d="M51.5,59.2L-8.2,93.7c-4.7,2.7-6.3,8.7-3.6,13.4l34.5,59.7c2.7,4.7,8.7,6.3,13.4,3.6L95.8,136
					c4.7-2.7,6.3-8.7,3.6-13.4L64.9,62.8C62.2,58.1,56.2,56.5,51.5,59.2z"/>
				<path class="st1" d="M33.8,58.1l9.8,17"/>
				<path class="st1" d="M-0.3,77.8l9.8,17"/>
				<path class="st1" d="M-2,124.2l76.7-44.3"/>
			</g>
		</g>
	</g>
</g>
<g>
	<path class="st1" d="M28.6,453c20.5,0,37.1-16.2,37.1-36.2s-16.6-36.2-37.1-36.2c-20.5,0-37.1,16.2-37.1,36.2S8.1,453,28.6,453z"/>
	<path class="st1" d="M28.6,395v21.8l14.8,7.2"/>
</g>
</svg>
