<?xml version="1.0" encoding="utf-8"?>
<!-- Generator: Adobe Illustrator 25.2.1, SVG Export Plug-In . SVG Version: 6.00 Build 0)  -->
<svg version="1.1" id="Layer_1" xmlns="http://www.w3.org/2000/svg" xmlns:xlink="http://www.w3.org/1999/xlink" x="0px" y="0px"
	 width="327.9px" height="436px" viewBox="0 0 327.9 436" style="enable-background:new 0 0 327.9 436;" xml:space="preserve">
<style type="text/css">
	.st0{fill:#497FEA;}
	.st1{fill:#59C3FF;}
	.st2{fill:#E0E0E0;}
	.st3{fill:#263238;}
	.st4{fill:#37474F;}
	.st5{fill:#455A64;}
	.st6{fill:#778FD9;}
	.st7{fill:#27DEBF;}
	.st8{fill:#0D51D9;}
	.st9{opacity:0.2;fill:#778FD9;enable-background:new    ;}
	.st10{opacity:0.3;fill:#356EFF;enable-background:new    ;}
	.st11{fill:#FAFAFA;}
	.st12{fill:#F0F0F0;}
	.st13{fill:#88A9FF;}
	.st14{opacity:0.4;}
	.st15{opacity:0.4;fill:#FFFFFF;enable-background:new    ;}
	.st16{opacity:0.15;enable-background:new    ;}
	.st17{fill:#EBEBEB;}
	.st18{fill:#F5F5F5;}
	.st19{opacity:0.8;fill:#FFFFFF;enable-background:new    ;}
	.st20{opacity:0.3;fill:#0D51D9;enable-background:new    ;}
	.st21{opacity:0.4;fill:#0D51D9;enable-background:new    ;}
	.st22{opacity:0.5;fill:#0D51D9;enable-background:new    ;}
	.st23{opacity:0.6;fill:#59C3FF;enable-background:new    ;}
	.st24{fill:#FAFAFA;stroke:#E0E0E0;stroke-width:69.9939;stroke-miterlimit:10;}
	.st25{fill:none;stroke:#59C3FF;stroke-width:52.4955;stroke-linecap:round;stroke-linejoin:round;stroke-miterlimit:10;}
	.st26{opacity:0.3;fill:#FFFFFF;enable-background:new    ;}
	.st27{opacity:0.1;enable-background:new    ;}
	.st28{opacity:0.88;fill:#FFFFFF;enable-background:new    ;}
	.st29{opacity:0.75;fill:#FFFFFF;enable-background:new    ;}
	.st30{opacity:0.6;fill:#FFFFFF;enable-background:new    ;}
	.st31{opacity:0.3;enable-background:new    ;}
	.st32{opacity:0.4;enable-background:new    ;}
	.st33{opacity:0.55;enable-background:new    ;}
	.st34{fill:#44566A;}
	.st35{fill:#FFA8A7;}
	.st36{fill:#F28F8F;}
	.st37{opacity:0.5;enable-background:new    ;}
</style>
<g>
	<path class="st1" d="M152.1,426.7c84,0,152.1-35.5,152.1-79.2c0-43.7-68.1-79.2-152.1-79.2C68.1,268.2,0,303.7,0,347.5
		C0,391.2,68.1,426.7,152.1,426.7z"/>
	<path class="st2" d="M235.4,398.4c16.8,0,30.5-7.1,30.5-15.9s-13.6-15.9-30.5-15.9c-16.8,0-30.5,7.1-30.5,15.9
		S218.6,398.4,235.4,398.4z"/>
	<path class="st2" d="M37.4,375.4l-25-13c-1.4-0.7-1.4-1.9,0-2.7L157.7,284c1.4-0.7,3.7-0.7,5.1,0l25,13c1.4,0.7,1.4,1.9,0,2.7
		L42.4,375.4C41,376.2,38.7,376.2,37.4,375.4z"/>
	<path class="st1" d="M54.1,182.9l-5.6,3c0-0.2,0.1-0.5,0.1-0.7v-1.5c0-2.6-2-3.7-4.6-2.4c-1,0.5-2,1.4-2.7,2.3
		c-0.4-3.3-3.3-4.6-6.8-2.7c-3.8,1.9-6.8,6.7-6.8,10.7v2.2c0,1,0.2,1.9,0.6,2.6l-4.7,2.5c-1.4,0.7-2.5,2.5-2.5,3.9
		c0,1.5,1.1,2.1,2.5,1.3l30.5-15.9c1.4-0.7,2.5-2.5,2.5-3.9C56.6,182.8,55.5,182.3,54.1,182.9z"/>
	<path class="st1" d="M83.4,195.2l-4.2,2.2c0-0.2,0.1-0.3,0.1-0.5v-1.1c0-2-1.5-2.8-3.5-1.8c-0.8,0.4-1.5,1-2.1,1.8
		c-0.3-2.5-2.5-3.4-5.1-2.1c-2.8,1.5-5.2,5.1-5.2,8v1.7c0,0.7,0.1,1.4,0.4,1.9l-3.5,1.8c-1.1,0.6-1.9,1.9-1.9,3c0,1.1,0.9,1.5,1.9,1
		l23.1-12c1.1-0.6,1.9-1.9,1.9-3C85.3,195.1,84.4,194.6,83.4,195.2z"/>
	<path class="st3" d="M127.2,352.2l21.5-11.2c2.2-1.1,3.3-2.7,3.3-4.2c0-1.5,0-2.7,0-2.7l-22.3-11.3c-1.2-0.6-2.1-2.1-2.1-3.4v-23.9
		L90,315.2v23.9c0,1.3,0.9,2.7,2.1,3.4l19,9.9C115.5,354.6,122.7,354.6,127.2,352.2z"/>
	<path d="M99,343.3v2.7l-6.9-3.6c-1.2-0.6-2.1-2.1-2.1-3.4v-23.9l7.1-3.7c0.1,1.7,0.3,3.3,0.4,5l-5,2.6v18.6c0,1.3,0.9,2.7,2.1,3.4
		L99,343.3z"/>
	<path class="st4" d="M92.6,337.7c0,1.3,0.9,2.7,2.1,3.4l16.4,8.5c4.4,2.3,11.6,2.3,16.1,0l21.5-11.2c4.4-2.3,4.4-6,0-8.3l-16.4-8.5
		c-1.2-0.6-2.1-2.1-2.1-3.4v-18.6l-37.5,19.6V337.7z"/>
	<path class="st3" d="M136.6,323.8l-4.4-2.3c-1.2-0.6-2.1-2.1-2.1-3.4v-18.6l-37.5,19.6v18.6c0,1.3,0.9,2.7,2.1,3.4l4.3,2.2
		L136.6,323.8z"/>
	<path class="st5" d="M151.9,334.2c0,0,0,1.2,0,2.7c0,1.5-1.1,3-3.3,4.2l-21.5,11.2c-2.1,1.1-4.9,1.7-7.6,1.7v-2.7
		c2.8-0.1,5.6-0.6,7.6-1.7l21.5-11.2C150.8,337.2,151.9,335.7,151.9,334.2z"/>
	<path class="st6" d="M32.4,360.9c1.4,0.7,3.7,0.7,5.2-0.1c18.5-9.6,126.7-65.9,145.1-75.5c1.5-0.7,2.7-2.6,2.7-4.2V174.8
		c0-1.5-1.1-3.4-2.5-4.1c-1.4-0.7-3.7-0.7-5.2,0.1L32.6,246.4c-1.5,0.7-2.7,2.6-2.7,4.2v106.2C29.8,358.4,31,360.2,32.4,360.9z"/>
	<path class="st7" d="M37.5,360.9l145.1-75.6c1.5-0.7,2.7-2.6,2.7-4.2V174.8c0-1.5-1.2-2.2-2.7-1.4L37.5,249
		c-1.5,0.7-2.7,2.6-2.7,4.2v106.2C34.9,361,36.1,361.6,37.5,360.9z"/>
	<path class="st8" d="M37.5,360.9l145.1-75.6c1.5-0.7,2.7-2.6,2.7-4.2V174.8c0-1.5-1.2-2.2-2.7-1.4L37.5,249
		c-1.5,0.7-2.7,2.6-2.7,4.2v106.2C34.9,361,36.1,361.6,37.5,360.9z"/>
	<path class="st6" d="M37.2,363.6c-1.5,0.6-3.5,0.6-4.8-0.1c-1.4-0.7-2.5-2.6-2.5-4.1v-9.6l5,2.6v9.6
		C34.9,363.4,35.8,364,37.2,363.6z"/>
	<path class="st4" d="M34.9,352.4v9.6c0,1.5,1.2,2.2,2.7,1.4l145.1-75.6c1.5-0.7,2.7-2.6,2.7-4.2V274L34.9,352.4z"/>
	<path class="st9" d="M34.9,352.4v9.6c0,1.5,1.2,2.2,2.7,1.4l145.1-75.6c1.5-0.7,2.7-2.6,2.7-4.2V274L34.9,352.4z"/>
	<path class="st7" d="M39.9,340.3v-85.6c0-0.9,0.7-2.1,1.6-2.5l137.2-71.5c0.9-0.5,1.6-0.1,1.6,0.9v85.6c0,0.9-0.7,2.1-1.6,2.5
		L41.5,341.1C40.6,341.6,39.9,341.2,39.9,340.3z"/>
	<path class="st10" d="M39.9,340.3v-85.6c0-0.9,0.7-2.1,1.6-2.5l137.2-71.5c0.9-0.5,1.6-0.1,1.6,0.9v85.6c0,0.9-0.7,2.1-1.6,2.5
		L41.5,341.1C40.6,341.6,39.9,341.2,39.9,340.3z"/>
	<path class="st5" d="M110.1,316.3c-1.4,0.7-2.5,2.5-2.5,3.9c0,1.4,1.1,2.1,2.5,1.3c1.4-0.7,2.5-2.5,2.5-3.9
		C112.6,316.1,111.5,315.5,110.1,316.3z"/>
	<path class="st6" d="M35.6,250.9c-0.5,0.7-0.8,1.6-0.8,2.4v99.2l-5-2.6v-99.2c0-0.7,0.3-1.7,0.8-2.4L35.6,250.9z"/>
	<path class="st7" d="M205.5,174.3c-0.4-0.2-0.8-0.2-1.4,0.1L59.5,249.8c-1,0.5-1.9,1.8-1.9,2.9v87.9c0,0.7,0.3,1.3,0.8,1.5
		c0.3,0.2,1.9,1,2.4,1.2c0.3,0.2,0.7,0.2,1.1-0.1l144.6-75.4c1-0.5,1.9-1.8,1.9-2.9v-88.4c0-0.6-0.3-1-0.6-1.1
		C207.5,175.4,205.9,174.6,205.5,174.3z"/>
	<path class="st11" d="M61.3,343.2c-0.5,0-0.9-0.6-0.9-1.3v-87.9c0-1,0.8-2.2,1.7-2.7l144.6-75.3c0.3-0.1,0.5-0.2,0.7-0.2
		c0.4,0,0.7,0.3,0.7,0.9v88.4c0,1-0.8,2.2-1.7,2.7L61.8,343.1C61.6,343.2,61.4,343.2,61.3,343.2z"/>
	<path class="st2" d="M207.4,176c0.4,0,0.4,0.4,0.4,0.6V265c0,0.9-0.7,2-1.6,2.5L61.6,342.8c-0.1,0.1-0.2,0.1-0.3,0.1
		c-0.3,0-0.6-0.5-0.6-1v-88c0-0.9,0.7-2,1.6-2.5l144.6-75.3C207.1,176,207.3,176,207.4,176z M207.4,175.4c-0.3,0-0.5,0.1-0.8,0.2
		L61.9,251c-1,0.5-1.9,1.8-1.9,2.9v87.9c0,0.9,0.5,1.6,1.3,1.6c0.2,0,0.4-0.1,0.6-0.2l144.6-75.4c1-0.5,1.9-1.8,1.9-2.9v-88.4
		C208.4,175.9,208,175.4,207.4,175.4z"/>
	<path class="st12" d="M58.5,342.1c0.2,0.1,1.6,0.9,2.3,1.2c-0.4-0.3-0.6-0.7-0.7-1.4v-82.5l-2.4-1.3v82.5
		C57.6,341.3,58,341.9,58.5,342.1z"/>
	<path class="st13" d="M208.4,176.6c0-1.1-0.8-1.5-1.9-1L61.9,251c-1,0.5-1.9,1.8-1.9,2.9v5.5l148.3-77.3V176.6z"/>
	<g class="st14">
		<path class="st15" d="M206.6,175.7L61.9,251c-0.5,0.3-1,0.7-1.3,1.3l-2.4-1.3c0.3-0.5,0.8-1,1.3-1.3l144.6-75.3
			c0.5-0.3,1-0.3,1.4-0.1c0.3,0.2,1.9,1,2.3,1.2C207.4,175.4,207,175.4,206.6,175.7z"/>
	</g>
	<path class="st16" d="M57.6,258.2v-5.5c0-0.6,0.3-1.1,0.6-1.7l2.4,1.3c-0.3,0.5-0.6,1.1-0.6,1.7v5.5L57.6,258.2z"/>
	<path class="st17" d="M60,259.5v10l148.3-77.3v-10L60,259.5z"/>
	<path class="st2" d="M66.2,258.7l9.6-5v5l-9.6,5V258.7z"/>
	<path class="st2" d="M78.2,252.5v1.9L83,252v-2L78.2,252.5z"/>
	<path class="st2" d="M78.2,255.5v1.9L83,255v-2L78.2,255.5z"/>
	<path class="st2" d="M85.4,248.7v2l4.8-2.5v-1.9L85.4,248.7z"/>
	<path class="st2" d="M85.4,251.8v2l4.8-2.5v-1.9L85.4,251.8z"/>
	<path class="st2" d="M92.5,245v1.9l4.8-2.5v-1.9L92.5,245z"/>
	<path class="st2" d="M92.5,248.1v1.9l4.8-2.5v-1.9L92.5,248.1z"/>
	<path class="st2" d="M114.1,233.8v1.9l4.8-2.5v-2L114.1,233.8z"/>
	<path class="st2" d="M114.1,236.8v2l4.8-2.5v-2L114.1,236.8z"/>
	<path class="st2" d="M121.3,230v2l4.7-2.5v-1.9L121.3,230z"/>
	<path class="st2" d="M121.3,233.1v1.9l4.7-2.5v-1.9L121.3,233.1z"/>
	<path class="st2" d="M128.4,226.3v1.9l4.8-2.5v-2L128.4,226.3z"/>
	<path class="st2" d="M128.4,229.4v1.9l4.8-2.5v-2L128.4,229.4z"/>
	<path class="st2" d="M99.7,241.3l11.9-6.2v5l-11.9,6.3V241.3z"/>
	<path class="st2" d="M135.6,222.6l9.6-5v5l-9.6,5V222.6z"/>
	<path class="st2" d="M147.6,216.4v1.9l4.8-2.5v-2L147.6,216.4z"/>
	<path class="st2" d="M147.6,219.4v2l4.8-2.5v-2L147.6,219.4z"/>
	<path class="st2" d="M154.8,212.6v2l4.7-2.5v-1.9L154.8,212.6z"/>
	<path class="st2" d="M154.8,215.7v1.9l4.7-2.5v-1.9L154.8,215.7z"/>
	<path class="st2" d="M161.9,208.9v1.9l4.8-2.5v-2L161.9,208.9z"/>
	<path class="st2" d="M161.9,211.9v1.9l4.8-2.5v-2L161.9,211.9z"/>
	<path class="st2" d="M183.5,197.6v2l4.8-2.5v-2L183.5,197.6z"/>
	<path class="st2" d="M183.5,200.7v2l4.8-2.5v-1.9L183.5,200.7z"/>
	<path class="st2" d="M190.7,193.9v1.9l4.7-2.5v-1.9L190.7,193.9z"/>
	<path class="st2" d="M190.7,197v1.9l4.7-2.5v-1.9L190.7,197z"/>
	<path class="st2" d="M197.8,190.2v1.9l4.8-2.5v-2L197.8,190.2z"/>
	<path class="st2" d="M197.8,193.2v1.9l4.8-2.5v-2L197.8,193.2z"/>
	<path class="st2" d="M169.1,205.1l11.9-6.2v5l-11.9,6.3V205.1z"/>
	<path class="st2" d="M60,259.5l-2.4-1.3v10l2.4,1.3V259.5z"/>
	<path class="st18" d="M170.2,198.2v0.3c0,0.6,0.4,0.8,1,0.5l29.1-15.1c0.6-0.3,1-1,1-1.6V182c0-0.6-0.4-0.8-1-0.5l-29.1,15.2
		C170.6,196.9,170.2,197.6,170.2,198.2z"/>
	<path class="st5" d="M201.2,182.4V182c0-0.6-0.4-0.8-1-0.5l-3.8,1.9v2.5l3.8-1.9C200.8,183.7,201.2,182.9,201.2,182.4z"/>
	<path class="st12" d="M62.4,270.6l143.6-74.8v5L74.4,269.4v64.8l-11.9,6.2V270.6z"/>
	<path class="st1" d="M74.4,269.4l11.9-6.3v5l-11.9,6.2V269.4z"/>
	<path class="st1" d="M74.4,309.3l11.9-6.2v5l-11.9,6.2V309.3z"/>
	<path class="st7" d="M74.4,314.3l11.9-6.2v5l-11.9,6.3V314.3z"/>
	<path class="st19" d="M74.4,314.3l11.9-6.2v5l-11.9,6.3V314.3z"/>
	<path class="st8" d="M146.2,271.9l11.9-6.2v5l-11.9,6.3V271.9z"/>
	<path class="st20" d="M146.2,271.9l11.9-6.2v5l-11.9,6.3V271.9z"/>
	<path class="st8" d="M146.2,276.9l11.9-6.2v5l-11.9,6.2V276.9z"/>
	<path class="st21" d="M146.2,276.9l11.9-6.2v5l-11.9,6.2V276.9z"/>
	<path class="st8" d="M146.2,281.9l11.9-6.2v5l-11.9,6.3V281.9z"/>
	<path class="st22" d="M146.2,281.9l11.9-6.2v5l-11.9,6.3V281.9z"/>
	<path class="st8" d="M146.2,286.9l11.9-6.3v5l-11.9,6.2V286.9z"/>
	<path class="st20" d="M146.2,286.9l11.9-6.3v5l-11.9,6.2V286.9z"/>
	<path class="st1" d="M134.3,238.2l11.9-6.2V257l-11.9,6.2V238.2z"/>
	<path class="st1" d="M134.3,268.2l11.9-6.2v34.9l-11.9,6.2V268.2z"/>
	<path class="st8" d="M86.3,293.1l12-6.2v5l-12,6.2V293.1z"/>
	<path class="st20" d="M86.3,293.1l12-6.2v5l-12,6.2V293.1z"/>
	<path class="st1" d="M110.3,255.7l11.9-6.2v5l-11.9,6.3V255.7z"/>
	<path class="st23" d="M110.3,255.7l11.9-6.2v5l-11.9,6.3V255.7z"/>
	<path class="st7" d="M170.2,254.4l11.9-6.2v5l-11.9,6.3V254.4z"/>
	<path class="st19" d="M170.2,254.4l11.9-6.2v5l-11.9,6.3V254.4z"/>
	<path class="st1" d="M170.2,264.4l11.9-6.2v5l-11.9,6.3V264.4z"/>
	<path class="st2" d="M62.3,270.4l-0.1,0.1v70.4l144-75l0.1-0.1v-70.4L62.3,270.4z M205.7,260.5l-11.4,5.9v-4.4l11.4-5.9V260.5z
		 M62.8,275.8l11.4-5.9v4.4l-11.4,5.9V275.8z M133.9,268.6v4.4l-11.4,5.9v-4.4L133.9,268.6z M122.6,273.9v-4.4l11.4-5.9v4.4
		L122.6,273.9z M134.5,268.4l11.4-5.9v4.4l-11.4,5.9V268.4z M134.5,267.7v-4.4l11.4-5.9v4.4L134.5,267.7z M134.5,262.7v-4.3
		l11.4-5.9v4.4L134.5,262.7z M134.5,257.8v-4.4l11.4-5.9v4.4L134.5,257.8z M133.9,258l-11.4,5.9v-4.4l11.4-5.9V258z M133.9,258.7
		v4.4l-11.4,5.9v-4.4L133.9,258.7z M122,269.3l-11.4,5.9v-4.4l11.4-5.9V269.3z M122,269.9v4.4l-11.4,5.9v-4.4L122,269.9z M122,274.9
		v4.4l-11.4,5.9v-4.4L122,274.9z M122,279.9v4.4l-11.4,5.9v-4.4L122,279.9z M122.6,279.5l11.4-5.9v4.4l-11.4,5.9V279.5z
		 M133.9,278.6v4.4l-11.4,5.9v-4.4L133.9,278.6z M134.5,278.3l11.4-5.9v4.4l-11.4,5.9V278.3z M134.5,277.7v-4.4l11.4-5.9v4.4
		L134.5,277.7z M146.5,267.1l11.4-5.9v4.4l-11.4,5.9V267.1z M146.5,266.5v-4.4l11.4-5.9v4.4L146.5,266.5z M146.5,261.5v-4.4
		l11.4-5.9v4.4L146.5,261.5z M146.5,256.5v-4.4l11.4-5.9v4.4L146.5,256.5z M146.5,251.5v-4.4l11.4-5.9v4.4L146.5,251.5z
		 M146.5,246.5v-4.4l11.4-5.9v4.4L146.5,246.5z M145.9,246.9l-11.4,5.9v-4.4l11.4-5.9V246.9z M133.9,253.1l-11.4,5.9v-4.4l11.4-5.9
		V253.1z M122,259.3l-11.4,5.9v-4.4l11.4-5.9V259.3z M122,259.9v4.4l-11.4,5.9v-4.4L122,259.9z M110,270.5l-11.4,5.9v-4.4l11.4-5.9
		V270.5z M110,271.2v4.4l-11.4,5.9v-4.4L110,271.2z M110,276.1v4.4l-11.4,5.9V282L110,276.1z M110,281.1v4.4l-11.4,5.9v-4.4
		L110,281.1z M110,286.1v4.4l-11.4,5.9V292L110,286.1z M110,291.1v4.4l-11.4,5.9V297L110,291.1z M110.6,290.8l11.4-5.9v4.4
		l-11.4,5.9V290.8z M122,289.9v4.4l-11.4,5.9v-4.4L122,289.9z M122.6,289.5l11.4-5.9v4.4l-11.4,5.9V289.5z M134.5,283.3l11.4-5.9
		v4.4l-11.4,5.9V283.3z M146.5,277.1l11.4-5.9v4.4l-11.4,5.9V277.1z M146.5,276.5v-4.4l11.4-5.9v4.4L146.5,276.5z M158.5,265.8
		l11.4-5.9v4.4l-11.4,5.9V265.8z M158.5,265.2v-4.4l11.4-5.9v4.4L158.5,265.2z M158.5,260.3v-4.4l11.4-5.9v4.4L158.5,260.3z
		 M158.5,255.2v-4.4l11.4-5.9v4.4L158.5,255.2z M158.5,250.3v-4.4l11.4-5.9v4.4L158.5,250.3z M158.5,245.3v-4.4l11.4-5.9v4.4
		L158.5,245.3z M158.5,240.3v-4.4l11.4-5.9v4.4L158.5,240.3z M158.5,235.3v-4.4l11.4-5.9v4.4L158.5,235.3z M157.9,235.6l-11.4,5.9
		v-4.4l11.4-5.9V235.6z M145.9,241.8l-11.4,5.9v-4.4l11.4-5.9V241.8z M133.9,248.1l-11.4,5.9v-4.4l11.4-5.9V248.1z M122,254.3
		l-11.4,5.9v-4.4l11.4-5.9V254.3z M110,260.5l-11.4,5.9v-4.4l11.4-5.9V260.5z M110,261.2v4.4l-11.4,5.9v-4.4L110,261.2z M98,271.8
		l-11.4,5.9v-4.4l11.4-5.9V271.8z M98,272.3v4.4l-11.4,5.9v-4.4L98,272.3z M98,277.4v4.4l-11.4,5.9v-4.4L98,277.4z M98,282.3v4.4
		l-11.4,5.9v-4.4L98,282.3z M98,287.3v4.4l-11.4,5.9v-4.4L98,287.3z M98,292.3v4.4l-11.4,5.9v-4.4L98,292.3z M98,297.3v4.4
		l-11.4,5.9v-4.4L98,297.3z M98,302.3v4.4l-11.4,5.9v-4.4L98,302.3z M98.7,302l11.4-5.9v4.4l-11.4,5.9V302z M110,301v4.4l-11.4,5.9
		V307L110,301z M110.6,300.7l11.4-5.9v4.4l-11.4,5.9V300.7z M122.6,294.5l11.4-5.9v4.4l-11.4,5.9V294.5z M134.5,288.3l11.4-5.9v4.4
		l-11.4,5.9V288.3z M146.5,282l11.4-5.9v4.4l-11.4,5.9V282z M158.5,275.8l11.4-5.9v4.4l-11.4,5.9V275.8z M158.5,275.2v-4.4l11.4-5.9
		v4.4L158.5,275.2z M170.4,264.6l11.4-5.9v4.4l-11.4,5.9V264.6z M170.4,264v-4.4l11.4-5.9v4.4L170.4,264z M170.4,259v-4.4l11.4-5.9
		v4.4L170.4,259z M170.4,254v-4.4l11.4-5.9v4.4L170.4,254z M170.4,249v-4.4l11.4-5.9v4.4L170.4,249z M170.4,244.1v-4.4l11.4-5.9v4.4
		L170.4,244.1z M170.4,239v-4.4l11.4-5.9v4.4L170.4,239z M170.4,234.1v-4.4l11.4-5.9v4.4L170.4,234.1z M170.4,229.1v-4.4l11.4-5.9
		v4.4L170.4,229.1z M170.4,224.1v-4.4l11.4-5.9v4.4L170.4,224.1z M169.8,224.4l-11.4,5.9v-4.4l11.4-5.9V224.4z M157.9,230.6
		l-11.4,5.9v-4.4l11.4-5.9V230.6z M145.9,236.9l-11.4,5.9v-4.4l11.4-5.9V236.9z M133.9,243.1l-11.4,5.9v-4.4l11.4-5.9V243.1z
		 M122,249.3l-11.4,5.9v-4.4l11.4-5.9V249.3z M110,255.6l-11.4,5.9v-4.4l11.4-5.9V255.6z M98,261.8l-11.4,5.9v-4.4l11.4-5.9V261.8z
		 M98,262.4v4.4l-11.4,5.9v-4.4L98,262.4z M86.1,273L74.7,279v-4.4l11.4-5.9V273z M86.1,273.6v4.4l-11.4,5.9v-4.4L86.1,273.6z
		 M86.1,278.6v4.4l-11.4,5.9v-4.4L86.1,278.6z M86.1,283.6v4.4l-11.4,5.9v-4.4L86.1,283.6z M86.1,288.6v4.4l-11.4,5.9v-4.4
		L86.1,288.6z M86.1,293.6v4.4l-11.4,5.9v-4.4L86.1,293.6z M86.1,298.6v4.4l-11.4,5.9v-4.4L86.1,298.6z M86.1,303.5v4.4l-11.4,5.9
		v-4.4L86.1,303.5z M86.1,308.5v4.4l-11.4,5.9v-4.4L86.1,308.5z M86.1,313.5v4.4l-11.4,5.9v-4.4L86.1,313.5z M86.7,313.2l11.4-5.9
		v4.4l-11.4,5.9V313.2z M98,312.3v4.4l-11.4,5.9v-4.4L98,312.3z M98.7,312l11.4-5.9v4.4l-11.4,5.9V312z M110.6,305.7l11.4-5.9v4.4
		l-11.4,5.9V305.7z M122.6,299.5l11.4-5.9v4.4l-11.4,5.9V299.5z M134.5,293.3l11.4-5.9v4.4l-11.4,5.9V293.3z M146.5,287.1l11.4-5.9
		v4.4l-11.4,5.9V287.1z M158.5,280.8l11.4-5.9v4.4l-11.4,5.9V280.8z M170.4,274.6l11.4-5.9v4.4l-11.4,5.9V274.6z M170.4,273.9v-4.4
		l11.4-5.9v4.4L170.4,273.9z M182.4,263.3l11.4-5.9v4.4l-11.4,5.9V263.3z M182.4,262.7v-4.3l11.4-5.9v4.4L182.4,262.7z M182.4,257.8
		v-4.4l11.4-5.9v4.4L182.4,257.8z M182.4,252.8v-4.4l11.4-5.9v4.4L182.4,252.8z M182.4,247.8v-4.4l11.4-5.9v4.4L182.4,247.8z
		 M182.4,242.8v-4.4l11.4-5.9v4.4L182.4,242.8z M182.4,237.8v-4.4l11.4-5.9v4.4L182.4,237.8z M182.4,232.8v-4.4l11.4-5.9v4.4
		L182.4,232.8z M182.4,227.8v-4.4l11.4-5.9v4.4L182.4,227.8z M182.4,222.9v-4.4l11.4-5.9v4.4L182.4,222.9z M182.4,217.8v-4.4
		l11.4-5.9v4.4L182.4,217.8z M182.4,212.9v-4.4l11.4-5.9v4.4L182.4,212.9z M181.8,213.2l-11.4,5.9v-4.4l11.4-5.9V213.2z
		 M169.8,219.4l-11.4,5.9V221l11.4-5.9V219.4z M157.9,225.6l-11.4,5.9v-4.4l11.4-5.9V225.6z M145.9,231.9l-11.4,5.9v-4.4l11.4-5.9
		V231.9z M133.9,238.1l-11.4,5.9v-4.4l11.4-5.9V238.1z M122,244.4l-11.4,5.9v-4.4L122,240V244.4z M110,250.6l-11.4,5.9v-4.4
		l11.4-5.9V250.6z M98,256.8l-11.4,5.9v-4.3l11.4-5.9V256.8z M86.1,263.1L74.7,269v-4.4l11.4-5.9V263.1z M86.1,263.6v4.4l-11.4,5.9
		v-4.4L86.1,263.6z M62.8,280.8l11.4-5.9v4.4l-11.4,5.9V280.8z M62.8,285.8l11.4-5.9v4.4l-11.4,5.9V285.8z M62.8,290.8l11.4-5.9v4.4
		l-11.4,5.9V290.8z M62.8,295.7l11.4-5.9v4.4l-11.4,5.9V295.7z M62.8,300.7l11.4-5.9v4.4l-11.4,5.9V300.7z M62.8,305.7l11.4-5.9v4.4
		l-11.4,5.9V305.7z M62.8,310.7l11.4-5.9v4.4l-11.4,5.9V310.7z M62.8,315.7l11.4-5.9v4.4l-11.4,5.9V315.7z M62.8,320.7l11.4-5.9v4.4
		l-11.4,5.9V320.7z M62.8,325.7l11.4-5.9v4.4l-11.4,5.9V325.7z M62.8,330.7l11.4-5.9v4.4l-11.4,5.9V330.7z M74.7,324.4l11.4-5.9v4.4
		l-11.4,5.9V324.4z M86.1,323.5v4.3l-11.4,5.9v-4.3L86.1,323.5z M86.7,323.2l11.4-5.9v4.3l-11.4,5.9V323.2z M98.7,316.9L110,311v4.3
		l-11.4,5.9V316.9z M110.6,310.7l11.4-5.9v4.3l-11.4,5.9V310.7z M122.6,304.5l11.4-5.9v4.3l-11.4,5.9V304.5z M134.5,298.2l11.4-5.9
		v4.3l-11.4,5.9V298.2z M146.5,292l11.4-5.9v4.3l-11.4,5.9V292z M158.5,285.8l11.4-5.9v4.3l-11.4,5.9V285.8z M170.4,279.5l11.4-5.9
		v4.3l-11.4,5.9V279.5z M182.4,273.3l11.4-5.9v4.3l-11.4,5.9V273.3z M182.4,272.7v-4.4l11.4-5.9v4.4L182.4,272.7z M205.7,255.6
		l-11.4,5.9v-4.4l11.4-5.9V255.6z M205.7,250.6l-11.4,5.9v-4.4l11.4-5.9V250.6z M205.7,245.6l-11.4,5.9v-4.4l11.4-5.9V245.6z
		 M205.7,240.6l-11.4,5.9v-4.4l11.4-5.9V240.6z M205.7,235.6l-11.4,5.9v-4.4l11.4-5.9V235.6z M205.7,230.7l-11.4,5.9v-4.4l11.4-5.9
		V230.7z M205.7,225.6l-11.4,5.9v-4.4l11.4-5.9V225.6z M205.7,220.7l-11.4,5.9v-4.4l11.4-5.9V220.7z M205.7,215.7l-11.4,5.9v-4.4
		l11.4-5.9V215.7z M205.7,210.7l-11.4,5.9v-4.4l11.4-5.9V210.7z M205.7,205.7l-11.4,5.9v-4.4l11.4-5.9V205.7z M205.7,200.7
		l-11.4,5.9v-4.4l11.4-5.9V200.7z M74.1,264.9v4.4l-11.4,5.9v-4.4L74.1,264.9z M62.8,335.6l11.4-5.9v4.3L62.8,340V335.6z
		 M194.4,271.4v-4.3l11.4-5.9v4.3L194.4,271.4z"/>
	<path class="st24" d="M158.1,225.8l47.9-24.9v24.9l-47.9,24.9V225.8z"/>
	<path class="st25" d="M160.5,244.5l6.5-16l7.1,3.9l7.2-6.6l7.1,4.3l7.2-16l7.1,3.3"/>
	<path class="st7" d="M167.1,227.8c-0.4,0.2-0.7,0.7-0.7,1.1c0,0.4,0.3,0.6,0.7,0.4c0.4-0.2,0.7-0.7,0.7-1.1
		C167.7,227.8,167.4,227.6,167.1,227.8z"/>
	<path class="st7" d="M174.2,231.6c-0.4,0.2-0.7,0.7-0.7,1.1c0,0.4,0.3,0.6,0.7,0.4c0.4-0.2,0.7-0.7,0.7-1.1
		C175,231.6,174.6,231.5,174.2,231.6z"/>
	<path class="st7" d="M181.4,225.1c-0.4,0.2-0.7,0.7-0.7,1.1c0,0.4,0.3,0.6,0.7,0.4c0.4-0.2,0.7-0.7,0.7-1.1
		C182.1,225,181.8,224.8,181.4,225.1z"/>
	<path class="st7" d="M188.5,229.3c-0.4,0.2-0.7,0.7-0.7,1.1s0.3,0.6,0.7,0.4c0.4-0.2,0.7-0.7,0.7-1.1
		C189.3,229.3,189,229.1,188.5,229.3z"/>
	<path class="st7" d="M195.7,213.4c-0.4,0.2-0.7,0.7-0.7,1.1c0,0.4,0.3,0.6,0.7,0.4c0.4-0.2,0.7-0.7,0.7-1.1
		C196.4,213.3,196.1,213.2,195.7,213.4z"/>
	<path class="st7" d="M202.9,216.7c-0.4,0.2-0.7,0.7-0.7,1.1c0,0.4,0.3,0.6,0.7,0.4c0.4-0.2,0.7-0.7,0.7-1.1
		C203.7,216.6,203.3,216.5,202.9,216.7z"/>
	<path class="st5" d="M226,292.7l-12.8,6.6L226,306l12.7-6.7L226,292.7z"/>
	<path class="st4" d="M238.7,299.3v26.4l-12.7,6.6V306L238.7,299.3z"/>
	<path class="st3" d="M226,306v26.3l-12.8-6.6v-26.4L226,306z"/>
	<path class="st7" d="M209.2,312.9l-12.8,6.6l12.8,6.6l12.7-6.6L209.2,312.9z"/>
	<path class="st26" d="M209.2,312.9l-12.8,6.6l12.8,6.6l12.7-6.6L209.2,312.9z"/>
	<path class="st7" d="M221.9,319.5v14.9l-12.7,6.6v-14.9L221.9,319.5z"/>
	<path class="st7" d="M209.2,326.1v14.9l-12.8-6.6v-14.9L209.2,326.1z"/>
	<path class="st27" d="M209.2,326.1v14.9l-12.8-6.6v-14.9L209.2,326.1z"/>
	<path class="st7" d="M192.5,315.4l-12.8,6.6l12.8,6.6l12.7-6.6L192.5,315.4z"/>
	<path class="st28" d="M192.5,315.4l-12.8,6.6l12.8,6.6l12.7-6.6L192.5,315.4z"/>
	<path class="st7" d="M205.2,322v21.2l-12.7,6.6v-21.2L205.2,322z"/>
	<path class="st29" d="M205.2,322v21.2l-12.7,6.6v-21.2L205.2,322z"/>
	<path class="st7" d="M192.5,328.6v21.2l-12.8-6.6V322L192.5,328.6z"/>
	<path class="st30" d="M192.5,328.6v21.2l-12.8-6.6V322L192.5,328.6z"/>
	<path class="st7" d="M175.7,337.8l-12.8,6.7l12.8,6.6l12.7-6.6L175.7,337.8z"/>
	<path class="st31" d="M175.7,337.8l-12.8,6.7l12.8,6.6l12.7-6.6L175.7,337.8z"/>
	<path class="st7" d="M188.4,344.4v7.5l-12.7,6.6V351L188.4,344.4z"/>
	<path class="st32" d="M188.4,344.4v7.5l-12.7,6.6V351L188.4,344.4z"/>
	<path class="st7" d="M175.7,351v7.5l-12.8-6.7v-7.4L175.7,351z"/>
	<path class="st33" d="M175.7,351v7.5l-12.8-6.7v-7.4L175.7,351z"/>
	<path class="st3" d="M106.4,384.2v4.3l-4.7-11.7v-4.3L106.4,384.2z"/>
	<path class="st4" d="M106.4,384.2v4.3l19.6-6.1V378L106.4,384.2z"/>
	<path class="st34" d="M101.6,372.5l4.7,11.7L126,378C120.6,373.8,111.2,371.7,101.6,372.5z"/>
	<path class="st7" d="M104.4,389.6l-2.9,12.4c-11.9-1-20.5-6.5-20.4-12.7v-4.2c0,6.2,8.6,11.5,20.4,12.6l2-8.5L104.4,389.6z"/>
	<path class="st32" d="M104.4,389.6l-2.9,12.4c-11.9-1-20.5-6.5-20.4-12.7v-4.2c0,6.2,8.6,11.5,20.4,12.6l2-8.5L104.4,389.6z"/>
	<path class="st7" d="M103.7,397.9v4.3c5.2,0.2,9.9-0.3,14.5-1.8c5.6-1.8,9.5-4.6,11.2-7.9c0.5-1,0.7-2,0.8-3c0-0.4,0-4.5,0-4.5
		s-1.4-0.1-3-1.7l-3.7,1.1l-16.8,5.2L103.7,397.9z"/>
	<path class="st30" d="M103.7,397.9v4.3c5.2,0.2,9.9-0.3,14.5-1.8c5.6-1.8,9.5-4.6,11.2-7.9c0.5-1,0.7-2,0.8-3c0-0.4,0-4.5,0-4.5
		s-1.4-0.1-3-1.7l-3.7,1.1l-16.8,5.2L103.7,397.9z"/>
	<path class="st7" d="M89.1,380l14.6,7.6v-4.4l-14.6-7.6V380z"/>
	<path class="st27" d="M89.1,380l14.6,7.6v-4.4l-14.6-7.6V380z"/>
	<path class="st7" d="M81.3,383.5c-1.6,6.8,7.4,13,20.2,14.1l2.9-12.4l-16.9-8.8C83.9,378.5,81.9,380.8,81.3,383.5z"/>
	<path class="st20" d="M81.3,383.5c-1.6,6.8,7.4,13,20.2,14.1l2.9-12.4l-16.9-8.8C83.9,378.5,81.9,380.8,81.3,383.5z"/>
	<path class="st7" d="M103.8,397.5l-0.1,0.3c5.2,0.2,9.9-0.3,14.5-1.8c5.6-1.8,9.5-4.6,11.2-7.9c1.5-3.1,0.7-6.3-2.2-9.2l-3.7,1.1
		l-16.8,5.2L103.8,397.5z"/>
	<path class="st29" d="M103.8,397.5l-0.1,0.3c5.2,0.2,9.9-0.3,14.5-1.8c5.6-1.8,9.5-4.6,11.2-7.9c1.5-3.1,0.7-6.3-2.2-9.2l-3.7,1.1
		l-16.8,5.2L103.8,397.5z"/>
	<path class="st7" d="M89.1,375.7l14.6,7.6l-4.3-10.5C95.3,373.3,92.2,374.2,89.1,375.7z"/>
	<path class="st7" d="M104.4,389.6v-4.3l-3,12.4v4.3L104.4,389.6z"/>
	<path class="st33" d="M104.4,389.6v-4.3l-3,12.4v4.3L104.4,389.6z"/>
	<path class="st7" d="M123.1,366l-3.2,1.7l3.2,1.7l3.2-1.7L123.1,366z"/>
	<path class="st31" d="M123.1,366l-3.2,1.7l3.2,1.7l3.2-1.7L123.1,366z"/>
	<path class="st7" d="M126.2,367.6v1.7l-3.2,1.7v-1.7L126.2,367.6z"/>
	<path class="st32" d="M126.2,367.6v1.7l-3.2,1.7v-1.7L126.2,367.6z"/>
	<path class="st7" d="M123.1,369.3v1.7l-3.2-1.7v-1.7L123.1,369.3z"/>
	<path class="st33" d="M123.1,369.3v1.7l-3.2-1.7v-1.7L123.1,369.3z"/>
	<path class="st2" d="M127.9,364.7l11.8-6.2c0.7-0.3,1.8-0.4,2.5-0.1c0.6,0.3,0.6,0.9-0.1,1.3l-11.8,6.2c-0.7,0.3-1.8,0.4-2.5,0.1
		C127.2,365.6,127.2,365.1,127.9,364.7z"/>
	<path class="st7" d="M130.2,369.7l-3.2,1.7l3.2,1.7l3.2-1.7L130.2,369.7z"/>
	<path class="st28" d="M130.2,369.7l-3.2,1.7l3.2,1.7l3.2-1.7L130.2,369.7z"/>
	<path class="st7" d="M133.4,371.4v1.7l-3.2,1.7v-1.7L133.4,371.4z"/>
	<path class="st29" d="M133.4,371.4v1.7l-3.2,1.7v-1.7L133.4,371.4z"/>
	<path class="st7" d="M130.2,373.1v1.7l-3.2-1.7v-1.7L130.2,373.1z"/>
	<path class="st30" d="M130.2,373.1v1.7l-3.2-1.7v-1.7L130.2,373.1z"/>
	<path class="st2" d="M135.1,368.4l11.8-6.2c0.7-0.3,1.8-0.4,2.5-0.1c0.6,0.3,0.6,0.9-0.1,1.3l-11.8,6.2c-0.7,0.3-1.8,0.4-2.5,0.1
		C134.4,369.4,134.4,368.8,135.1,368.4z"/>
	<path class="st7" d="M137.4,373.5l-3.2,1.7l3.2,1.7l3.2-1.7L137.4,373.5z"/>
	<path class="st26" d="M137.4,373.5l-3.2,1.7l3.2,1.7l3.2-1.7L137.4,373.5z"/>
	<path class="st7" d="M140.6,375.1v1.7l-3.2,1.7v-1.7L140.6,375.1z"/>
	<path class="st7" d="M137.4,376.8v1.7l-3.2-1.7v-1.7L137.4,376.8z"/>
	<path class="st27" d="M137.4,376.8v1.7l-3.2-1.7v-1.7L137.4,376.8z"/>
	<path class="st2" d="M142.3,372.2l11.8-6.2c0.7-0.3,1.8-0.4,2.5-0.1c0.6,0.3,0.6,0.9-0.1,1.3l-11.8,6.2c-0.7,0.3-1.8,0.4-2.5,0.1
		C141.5,373.1,141.6,372.5,142.3,372.2z"/>
	<path class="st5" d="M144.6,377.2l-3.2,1.7l3.2,1.7l3.2-1.7L144.6,377.2z"/>
	<path class="st4" d="M147.8,378.9v1.7l-3.2,1.7v-1.7L147.8,378.9z"/>
	<path class="st3" d="M144.6,380.5v1.7l-3.2-1.7v-1.7L144.6,380.5z"/>
	<path class="st2" d="M149.5,375.9l11.8-6.2c0.7-0.3,1.8-0.4,2.5-0.1c0.6,0.3,0.6,0.9-0.1,1.3l-11.8,6.2c-0.7,0.3-1.8,0.4-2.5,0.1
		C148.7,376.9,148.7,376.3,149.5,375.9z"/>
	<path class="st35" d="M244.5,287.2c4.4,0,6.4,1.1,8,4.9c1.6,3.8,5.8,12.4,5.8,15.1c0.1,2.7-9.5,10.8-9.1,10.7
		c0.1-0.1-2.9-4.9-2.9-4.9l5.4-5.9l-3.1-8L244.5,287.2z"/>
	<path class="st3" d="M249.9,375.8c0.3,0.2,0.3,0.5,0.3,1.3c0,0.9,0.4,1.8-0.1,2.6c-0.4,0.6-2.2,1-3.1,0.6c-0.8-0.3-1.5-1.2-2.1-1.8
		c-0.6-0.6-1.2-1.1-1.9-1.7c-0.8-0.5-1.7-0.9-2.5-1.4c-1.3-0.7-2.1-2.1-2.3-3.4c-0.1-0.4,0.1-1,0.3-1.3c0.3-0.5,1.1-0.6,1.6-0.5
		c0.9,0.1,3.9,1.7,4.6,2.1C245.6,372.9,249.7,375.5,249.9,375.8z"/>
	<path class="st35" d="M245.5,372.3c0,0.6-2.8-0.8-4-0.7c0,0,0,0-0.1,0c-1.1,0.5-0.2,1.8,0.8,2.5c1,0.7,4.3,2.9,4.3,2.9l0.7-3.5
		L245.5,372.3z"/>
	<path class="st3" d="M233.2,382.1c0.5,0,0.8,1.5,0.9,2.7c0.1,0.9,0.4,2.5,0.1,3.1c-0.4,0.7-1.8,1.1-3.9,1.1c-1.4,0-3.5,0.8-5.1,1.5
		c-1.5,0.7-3.2,0.7-4.8,0.6c-1.9-0.2-3.9-1.3-4.1-1.9c-0.3-0.7,0.1-1,4.6-2.7c0.1,0,4.7-1.9,7-4L233.2,382.1z"/>
	<path class="st35" d="M221,386.5c-0.6,0.2-1.1,0.5-1.6,0.6c-0.1,0.4,0.1,1,2,1.3c3,0.5,11.9-5.6,11.9-5.6s-1.3,0.3-1.5-0.3h-3.9
		C225.7,384.6,221,386.4,221,386.5z"/>
	<path class="st35" d="M251.8,355.9c0-4.9-0.9-7.9-0.9-7.9s0.5-10.2,0.6-16.6c0.1-12.7-0.1-14.5-3.2-20c0,0-18.1-1.9-18.9,6
		c-0.9,9.9-2.1,26.5-2,31.2c0,3.5,0.4,7.4,0.7,15.3c0.1,5.1,0.8,12.3-0.1,18.4c1,1.5,3.8,1.5,5.4,0.3c0.4-5.9,3.7-17.3,4.2-21.2
		c0.5-4.1-0.4-8.6-0.4-8.6s2.4-16.9,2.8-19.4c0,0,1.1,4.7,1.1,8.3c0,1.1,0.4,4.9,1.1,11.2c0.4,3.9,3.5,18.9,4.1,23.8
		c1.5,1.3,3.5,0.4,3.5-0.2C250.3,370.7,251.8,359.6,251.8,355.9z"/>
	<path class="st16" d="M239.9,333.5l1.6-8.2c0,0,3.7-0.3,7.1-3.4c0,0-0.9,3.3-5.7,4.4l-1.9,7.4l-0.3,6.8L239.9,333.5z"/>
	<path class="st35" d="M235.4,284.4l0.8,7.5l7.2-0.4l-0.5-8.3L235.4,284.4z"/>
	<path class="st7" d="M249.9,313.5c-0.7-1.6-1.1-2.6-3.2-5.6c3.1-9,4.1-12,3.5-15.9c-0.4-2.5-2.5-4.9-5.2-4.8c0,0-1.5,0-2,0
		c-0.1,1.7-5.4,1.8-7.3,0.6l-1.8,0.1c-1.3,0.4-5.7,6.3-6.2,10.1c-0.4,3.1,2.3,5.9,2.3,5.9c0.1,1.3-0.3,4-0.3,4s0,7.6,0,11.4
		c0,0,1,2.9,11.6,2c9.5-0.8,9.7-3.7,9.7-3.7S250.8,315.5,249.9,313.5z"/>
	<path class="st3" d="M236.5,267c0,0-3.4-0.5-5.8,1.9c-3.7,3.8,0.4,6.6,0.4,6.6L236.5,267z"/>
	<path class="st36" d="M230,276.2c0,0-1.6,2.2-1.4,2.4c0.2,0.2,1.2,0.5,1.2,0.5L230,276.2z"/>
	<path class="st35" d="M234.9,269.3c-1.6,0.7-4.2,2.1-5,7.2c-0.7,5.3,0.6,7.2,1.4,7.9c0.6,0.5,3.3,0.6,4.8,0.2
		c1.8-0.5,5.8-2.3,7.6-5c2.2-3.3,2.7-7.5,0.1-9.2C240.4,268.1,236.3,268.7,234.9,269.3z"/>
	<path class="st3" d="M234.2,275.4c-3.3-1.5-2.4-5.4-2.4-5.4s4.7-6,13.3-2.1c3,1.4,4.7,4.4,4.7,8c0,4.7-4.2,8.4-9.4,8.4
		c-3,0-5.4-2.2-5.4-4.9v-0.3l0.3,0.1c0.4,0.1,1.5,0.2,2.5-0.6c1.5-1.1,1.6-3.3-0.2-3.8c-1.8-0.6-2.8,1.4-2.8,1.4l-0.7,1.7
		c-0.7-0.2-1.1-1-0.8-1.6C233.4,275.8,233.7,275.5,234.2,275.4z"/>
	<path class="st7" d="M214.4,276.6l-15.5,7l7.3,19l14.5-7L214.4,276.6z"/>
	<path class="st18" d="M213.7,278.5l-13.1,5.9l6.5,16.3l12.1-5.9L213.7,278.5z"/>
	<path class="st16" d="M210.9,280.2c0,0-0.1-0.3-0.3-0.6c-0.1-0.3-1.2-0.2-2.4,0.4l-2.3,1c-1.2,0.5-2.1,1.3-2,1.5l0.3,0.6
		L210.9,280.2z"/>
	<path class="st4" d="M210.7,277.9c-0.1-0.2-0.6-0.2-1.1,0.1l-0.9,0.4c0,0-0.5-1.3-2.6-0.4c-2.1,0.9-1.6,2.3-1.6,2.3
		s-0.4,0.2-0.9,0.5c-0.5,0.2-0.9,0.6-0.8,0.8l0.1,0.3l8-3.6C210.9,278.2,210.8,278.1,210.7,277.9z"/>
	<path class="st3" d="M209.8,278.7c-0.8,0.3-1,0.5-0.8,1c0.3,0.6,0.4,1,0.4,1l-3.5,1.6c0,0-0.3-0.7-0.4-1c-0.1-0.3-0.4-0.4-0.9-0.2
		l-0.2-0.2l5.6-2.5L209.8,278.7z"/>
	<path class="st4" d="M211,280.2c0,0-0.1-0.3-0.3-0.6c-0.1-0.3-1.2-0.2-2.4,0.4l-2.3,1c-1.2,0.5-2.1,1.3-2,1.5l0.3,0.6L211,280.2z"
		/>
	<path class="st35" d="M233.9,287.8c-2.5-0.1-3.9,0.2-7.3,4.6c-3.3,4.4-9.5,12.7-10.2,13.7c-1,1.5-1.3,3.8-0.4,5.1
		c0.8,1.3,2.1,1.8,5.9-1.9c2.8-2.7,8.8-10,8.8-10S235.4,291.6,233.9,287.8z"/>
	<path class="st35" d="M217.4,312.3c-2,0.6-9.4-7.4-11.4-9.8c-2.3-2.6-4.1-4.2-5.8-5.3c-2.8-1.9-2.4-4.9-1.1-7.6
		c0.4-0.9,1.9-0.3,1.9-0.3l0.5,1.3l0.9,2.2c0.6,0.5,0.9,0.7,1,0.5c0.1-0.3-0.4-1.5-0.4-2.7c0.1-1.5,1.2-0.5,1.5,0.1
		c0.3,0.5,0.8,1.4,1.2,2.5c0.6,1.4,0.3,2.7,1,3.6c0.7,0.9,10.7,8.4,10.7,8.4v7H217.4z"/>
	<path class="st7" d="M246.8,307.8c0,0-7.1,3.8-17,0c0,0-1.4,7-1.8,14.2c-0.4,6-1.1,19-1.1,19s2.9,3.1,13.4,2.5
		c10-0.6,11.8-3,11.8-3s0-11.7,0.1-16.8C252.2,317.2,251.2,313.7,246.8,307.8z"/>
	<path class="st37" d="M246.8,307.8c0,0-7.1,3.8-17,0c0,0-1.4,7-1.8,14.2c-0.4,6-1.1,19-1.1,19s2.9,3.1,13.4,2.5
		c10-0.6,11.8-3,11.8-3s0-11.7,0.1-16.8C252.2,317.2,251.2,313.7,246.8,307.8z"/>
	<path class="st3" d="M250,273.4l1.6-1.4c-0.6-0.5-1.5-0.6-2-0.1c-0.4,0.3-0.6,0.9-0.4,1.4c-0.2,0-0.4,0-0.6,0v12
		c0,3.4,3.1,6.3,7,6.3v-12.1C255.5,276.5,253.2,273.9,250,273.4z"/>
</g>
</svg>
