<?xml version="1.0" encoding="utf-8"?>
<!-- Generator: Adobe Illustrator 25.2.1, SVG Export Plug-In . SVG Version: 6.00 Build 0)  -->
<svg version="1.1" id="Layer_1" xmlns="http://www.w3.org/2000/svg" xmlns:xlink="http://www.w3.org/1999/xlink" x="0px" y="0px"
	 width="165.5px" height="436px" viewBox="0 0 165.5 436" style="enable-background:new 0 0 165.5 436;" xml:space="preserve">
<style type="text/css">
	.st0{fill:#497FEA;}
	.st1{fill:#6691E7;}
	.st2{fill:#239D4C;}
	.st3{fill:#FFA982;}
	.st4{fill:#ECF2FF;}
	.st5{fill:#FFFFFF;}
	.st6{fill:#F9AA4B;}
	.st7{fill:#020202;}
	.st8{fill:#65B5B7;}
	.st9{fill:#DEEBE9;}
	.st10{fill:#F18C7E;}
	.st11{fill:#060633;}
	.st12{fill:#FF6757;}
	.st13{opacity:0.3;}
	.st14{opacity:0.3;fill:#FFFFFF;enable-background:new    ;}
	.st15{fill:#FFFFFF;filter:url(#Adobe_OpacityMaskFilter);}
	.st16{mask:url(#path-1-inside-1_2541_48891_1_);fill:#497FEA;}
</style>
<g>
	<path class="st0" d="M68.9,172.2L68.9,172.2c8.7,5,11.7,16.2,6.7,24.9c-5,8.7-16.2,11.7-24.9,6.7c-8.7-5-11.7-16.2-6.7-24.9
		c2.3-4.1,6-6.8,10.1-8.2l0.2-0.1l-0.1-0.2l-6.5-22.3l-0.1-0.3l-0.3,0.1c-7.2,3.5-16,3.4-23.4-0.9c-4-2.3-7-5.5-9.2-9.2l-0.1-0.2
		l-0.2,0.1l-19.4,10l-0.2,0.1l0.1,0.2c3.2,6.7,3.2,14.9-0.8,21.8c-6.4,11.1-20.7,14.9-31.8,8.5c-11.1-6.4-14.9-20.7-8.5-31.8
		c6.4-11.1,20.7-14.9,31.8-8.5c3.2,1.9,5.8,4.4,7.7,7.3l0.1,0.2l0.2-0.1l19.5-10.1l0.2-0.1l-0.1-0.2c-2.9-7-2.7-15.2,1.4-22.2
		c3.6-6.2,9.4-10.2,15.8-11.8l0.2-0.1l0-0.2l-5.6-31.3l0-0.2l-0.2,0c-2.3-0.2-4.5-0.9-6.6-2.1C10.6,62.7,8,52.9,12.4,45.2
		c4.4-7.7,14.3-10.3,21.9-5.9c7.7,4.4,10.3,14.3,5.9,21.9c-2.6,4.6-7.2,7.4-12.1,7.9l-0.3,0l0,0.3l5.5,30.8l0,0.2l0.2,0
		c5.2-0.6,10.5,0.4,15.4,3.2c4.9,2.8,8.4,7,10.5,11.9l0.1,0.2l0.2-0.1l23.1-5.6l0.2-0.1l0-0.2c-0.7-3.4-0.2-7.1,1.7-10.4
		c4.1-7.2,13.4-9.6,20.5-5.5c7.2,4.1,9.6,13.4,5.5,20.5c-4.1,7.2-13.4,9.6-20.5,5.5c-2.9-1.7-5.1-4.2-6.3-7.1l-0.1-0.2l-0.2,0.1
		l-22.9,5.6l-0.3,0.1l0.1,0.2c1.8,6.3,1.1,13.3-2.4,19.4c-2,3.5-4.8,6.3-8,8.4l-0.2,0.1l0.1,0.2l6.8,23.2L57,170l0.2,0
		C61.1,169.4,65.2,170.1,68.9,172.2z M108.4,113c3.4-5.9,1.4-13.4-4.5-16.8c-5.9-3.4-13.4-1.4-16.8,4.5c-3.4,5.9-1.4,13.4,4.5,16.8
		C97.5,120.9,105,118.9,108.4,113z M32.9,41.7c-6.4-3.7-14.5-1.5-18.2,4.9c-3.7,6.4-1.5,14.5,4.9,18.2c6.4,3.7,14.5,1.5,18.2-4.9
		C41.5,53.6,39.3,45.4,32.9,41.7z M-36.3,176.1c9.8,5.7,22.4,2.3,28.1-7.5c5.7-9.8,2.3-22.4-7.5-28.1c-9.8-5.7-22.4-2.3-28.1,7.5
		C-49.5,157.8-46.1,170.4-36.3,176.1z M17.1,114.1c-6.2,10.7-2.5,24.4,8.2,30.6c10.7,6.2,24.4,2.5,30.6-8.2
		c6.2-10.7,2.5-24.4-8.2-30.6C37,99.8,23.3,103.5,17.1,114.1z M46.3,180.2c-4.3,7.4-1.7,16.9,5.7,21.2c7.4,4.3,16.9,1.7,21.2-5.7
		c4.3-7.4,1.7-16.9-5.7-21.2C60.1,170.3,50.6,172.8,46.3,180.2z"/>
</g>
<g>
	<path class="st5" d="M157.2,310.5l-20.5-3.3c-1.2-4.2-2.9-8.3-5-12.2l12.2-16.8c0.7-1,0.6-2.3-0.3-3.2L129,260.6
		c-0.9-0.9-2.2-1-3.2-0.3L109,272.5c-3.9-2.1-7.9-3.8-12.2-5l-3.3-20.5c-0.2-1.2-1.2-2.1-2.4-2.1H70.6c-1.2,0-2.2,0.9-2.4,2.1
		l-3.3,20.5c-4.2,1.2-8.3,2.9-12.2,5l-16.8-12.2c-1-0.7-2.3-0.6-3.2,0.3l-14.5,14.5c-0.9,0.9-1,2.2-0.3,3.2l12.2,16.8
		c-2.1,3.9-3.8,7.9-5,12.2l-20.5,3.3c-1.2,0.2-2.1,1.2-2.1,2.4v20.5c0,1.2,0.9,2.2,2.1,2.4l20.5,3.3c1.2,4.2,2.9,8.3,5,12.2
		L18,368.2c-0.7,1-0.6,2.3,0.3,3.2l14.5,14.5c0.9,0.9,2.2,1,3.2,0.3l16.8-12.2c3.9,2.1,7.9,3.8,12.2,5l3.3,20.5
		c0.2,1.2,1.2,2.1,2.4,2.1h20.5c1.2,0,2.2-0.9,2.4-2.1l3.3-20.5c4.2-1.2,8.3-2.9,12.2-5l16.8,12.2c1,0.7,2.3,0.6,3.2-0.3l14.5-14.5
		c0.9-0.9,1-2.2,0.3-3.2l-12.2-16.8c2.1-3.9,3.8-7.9,5-12.2l20.5-3.3c1.2-0.2,2.1-1.2,2.1-2.4l0-20.5
		C159.2,311.8,158.3,310.7,157.2,310.5L157.2,310.5z M154.3,331.4l-20,3.2c-1,0.2-1.7,0.9-2,1.8c-1.2,4.9-3.2,9.5-5.7,13.8
		c-0.5,0.8-0.4,1.9,0.1,2.7l11.9,16.4L127,380.9L110.6,369c-0.8-0.6-1.8-0.6-2.7-0.1c-4.3,2.6-9,4.5-13.8,5.7c-0.9,0.2-1.7,1-1.8,2
		l-3.2,20H72.7l-3.2-20c-0.2-1-0.9-1.7-1.8-2c-4.9-1.2-9.5-3.2-13.8-5.7c-0.8-0.5-1.9-0.4-2.7,0.1l-16.4,11.9l-11.6-11.6l11.9-16.4
		c0.6-0.8,0.6-1.8,0.1-2.7c-2.6-4.3-4.5-9-5.7-13.8c-0.2-0.9-1-1.7-2-1.8l-20-3.2V315l20-3.2c1-0.2,1.7-0.9,2-1.8
		c1.2-4.9,3.2-9.5,5.7-13.8c0.5-0.8,0.4-1.9-0.1-2.7l-11.9-16.4l11.6-11.6l16.4,11.9c0.8,0.6,1.8,0.6,2.7,0.1
		c4.3-2.6,9-4.5,13.8-5.7c0.9-0.2,1.7-1,1.8-2l3.2-20H89l3.2,20c0.2,1,0.9,1.7,1.8,2c4.9,1.2,9.5,3.2,13.8,5.7
		c0.8,0.5,1.9,0.4,2.7-0.1l16.4-11.9l11.6,11.6l-11.9,16.4c-0.6,0.8-0.6,1.8-0.1,2.7c2.6,4.3,4.5,9,5.7,13.8c0.2,0.9,1,1.7,2,1.8
		l20,3.2L154.3,331.4L154.3,331.4z M97.2,304.2l-22.4,22.6l-10.2-10.2c-2.8-2.8-7.4-2.8-10.3,0c-1.4,1.4-2.1,3.2-2.1,5.1
		c0,1.9,0.8,3.8,2.1,5.1l15.3,15.3c1.4,1.4,3.2,2.1,5.1,2.1c1.9,0,3.8-0.8,5.1-2.1c6-6,12-12.1,17.8-18c3.2-3.3,6.5-6.6,9.7-9.8
		c2.8-2.8,2.8-7.4,0-10.2C104.6,301.4,100,301.4,97.2,304.2L97.2,304.2z M104,311c-3.2,3.3-6.5,6.5-9.7,9.8
		c-5.8,5.9-11.9,12-17.8,18c-0.4,0.4-1,0.7-1.7,0.7s-1.2-0.2-1.7-0.7l-15.3-15.3c-0.4-0.4-0.7-1-0.7-1.7c0-0.6,0.2-1.2,0.7-1.7
		c0.4-0.4,1-0.7,1.7-0.7c0.6,0,1.2,0.2,1.7,0.7L73,332c0.5,0.5,1.1,0.7,1.7,0.7h0c0.7,0,1.3-0.3,1.7-0.7l24.1-24.4
		c0.9-0.9,2.4-0.9,3.3,0C104.9,308.6,104.9,310.1,104,311L104,311z M80.9,278.7c-24.5,0-44.5,20-44.5,44.5c0,24.5,20,44.5,44.5,44.5
		c24.5,0,44.5-20,44.5-44.5C125.4,298.7,105.4,278.7,80.9,278.7z M80.9,362.8c-21.8,0-39.6-17.8-39.6-39.6
		c0-21.8,17.8-39.6,39.6-39.6c21.8,0,39.6,17.8,39.6,39.6C120.5,345.1,102.7,362.8,80.9,362.8z"/>
	<defs>
		<filter id="Adobe_OpacityMaskFilter" filterUnits="userSpaceOnUse" x="2.5" y="244.9" width="156.7" height="156.7">
			<feColorMatrix  type="matrix" values="1 0 0 0 0  0 1 0 0 0  0 0 1 0 0  0 0 0 1 0"/>
		</filter>
	</defs>
	<mask maskUnits="userSpaceOnUse" x="2.5" y="244.9" width="156.7" height="156.7" id="path-1-inside-1_2541_48891_1_">
		<path class="st15" d="M157.2,310.5l-20.5-3.3c-1.2-4.2-2.9-8.3-5-12.2l12.2-16.8c0.7-1,0.6-2.3-0.3-3.2L129,260.6
			c-0.9-0.9-2.2-1-3.2-0.3L109,272.5c-3.9-2.1-7.9-3.8-12.2-5l-3.3-20.5c-0.2-1.2-1.2-2.1-2.4-2.1H70.6c-1.2,0-2.2,0.9-2.4,2.1
			l-3.3,20.5c-4.2,1.2-8.3,2.9-12.2,5l-16.8-12.2c-1-0.7-2.3-0.6-3.2,0.3l-14.5,14.5c-0.9,0.9-1,2.2-0.3,3.2l12.2,16.8
			c-2.1,3.9-3.8,7.9-5,12.2l-20.5,3.3c-1.2,0.2-2.1,1.2-2.1,2.4v20.5c0,1.2,0.9,2.2,2.1,2.4l20.5,3.3c1.2,4.2,2.9,8.3,5,12.2
			L18,368.2c-0.7,1-0.6,2.3,0.3,3.2l14.5,14.5c0.9,0.9,2.2,1,3.2,0.3l16.8-12.2c3.9,2.1,7.9,3.8,12.2,5l3.3,20.5
			c0.2,1.2,1.2,2.1,2.4,2.1h20.5c1.2,0,2.2-0.9,2.4-2.1l3.3-20.5c4.2-1.2,8.3-2.9,12.2-5l16.8,12.2c1,0.7,2.3,0.6,3.2-0.3l14.5-14.5
			c0.9-0.9,1-2.2,0.3-3.2l-12.2-16.8c2.1-3.9,3.8-7.9,5-12.2l20.5-3.3c1.2-0.2,2.1-1.2,2.1-2.4l0-20.5
			C159.2,311.8,158.3,310.7,157.2,310.5L157.2,310.5z M154.3,331.4l-20,3.2c-1,0.2-1.7,0.9-2,1.8c-1.2,4.9-3.2,9.5-5.7,13.8
			c-0.5,0.8-0.4,1.9,0.1,2.7l11.9,16.4L127,380.9L110.6,369c-0.8-0.6-1.8-0.6-2.7-0.1c-4.3,2.6-9,4.5-13.8,5.7c-0.9,0.2-1.7,1-1.8,2
			l-3.2,20H72.7l-3.2-20c-0.2-1-0.9-1.7-1.8-2c-4.9-1.2-9.5-3.2-13.8-5.7c-0.8-0.5-1.9-0.4-2.7,0.1l-16.4,11.9l-11.6-11.6l11.9-16.4
			c0.6-0.8,0.6-1.8,0.1-2.7c-2.6-4.3-4.5-9-5.7-13.8c-0.2-0.9-1-1.7-2-1.8l-20-3.2V315l20-3.2c1-0.2,1.7-0.9,2-1.8
			c1.2-4.9,3.2-9.5,5.7-13.8c0.5-0.8,0.4-1.9-0.1-2.7l-11.9-16.4l11.6-11.6l16.4,11.9c0.8,0.6,1.8,0.6,2.7,0.1
			c4.3-2.6,9-4.5,13.8-5.7c0.9-0.2,1.7-1,1.8-2l3.2-20H89l3.2,20c0.2,1,0.9,1.7,1.8,2c4.9,1.2,9.5,3.2,13.8,5.7
			c0.8,0.5,1.9,0.4,2.7-0.1l16.4-11.9l11.6,11.6l-11.9,16.4c-0.6,0.8-0.6,1.8-0.1,2.7c2.6,4.3,4.5,9,5.7,13.8c0.2,0.9,1,1.7,2,1.8
			l20,3.2L154.3,331.4L154.3,331.4z M97.2,304.2l-22.4,22.6l-10.2-10.2c-2.8-2.8-7.4-2.8-10.3,0c-1.4,1.4-2.1,3.2-2.1,5.1
			c0,1.9,0.8,3.8,2.1,5.1l15.3,15.3c1.4,1.4,3.2,2.1,5.1,2.1c1.9,0,3.8-0.8,5.1-2.1c6-6,12-12.1,17.8-18c3.2-3.3,6.5-6.6,9.7-9.8
			c2.8-2.8,2.8-7.4,0-10.2C104.6,301.4,100,301.4,97.2,304.2L97.2,304.2z M104,311c-3.2,3.3-6.5,6.5-9.7,9.8
			c-5.8,5.9-11.9,12-17.8,18c-0.4,0.4-1,0.7-1.7,0.7s-1.2-0.2-1.7-0.7l-15.3-15.3c-0.4-0.4-0.7-1-0.7-1.7c0-0.6,0.2-1.2,0.7-1.7
			c0.4-0.4,1-0.7,1.7-0.7c0.6,0,1.2,0.2,1.7,0.7L73,332c0.5,0.5,1.1,0.7,1.7,0.7h0c0.7,0,1.3-0.3,1.7-0.7l24.1-24.4
			c0.9-0.9,2.4-0.9,3.3,0C104.9,308.6,104.9,310.1,104,311L104,311z M80.9,278.7c-24.5,0-44.5,20-44.5,44.5
			c0,24.5,20,44.5,44.5,44.5c24.5,0,44.5-20,44.5-44.5C125.4,298.7,105.4,278.7,80.9,278.7z M80.9,362.8
			c-21.8,0-39.6-17.8-39.6-39.6c0-21.8,17.8-39.6,39.6-39.6c21.8,0,39.6,17.8,39.6,39.6C120.5,345.1,102.7,362.8,80.9,362.8z"/>
	</mask>
	<path class="st16" d="M157.2,310.5l-20.5-3.3c-1.2-4.2-2.9-8.3-5-12.2l12.2-16.8c0.7-1,0.6-2.3-0.3-3.2L129,260.6
		c-0.9-0.9-2.2-1-3.2-0.3L109,272.5c-3.9-2.1-7.9-3.8-12.2-5l-3.3-20.5c-0.2-1.2-1.2-2.1-2.4-2.1H70.6c-1.2,0-2.2,0.9-2.4,2.1
		l-3.3,20.5c-4.2,1.2-8.3,2.9-12.2,5l-16.8-12.2c-1-0.7-2.3-0.6-3.2,0.3l-14.5,14.5c-0.9,0.9-1,2.2-0.3,3.2l12.2,16.8
		c-2.1,3.9-3.8,7.9-5,12.2l-20.5,3.3c-1.2,0.2-2.1,1.2-2.1,2.4v20.5c0,1.2,0.9,2.2,2.1,2.4l20.5,3.3c1.2,4.2,2.9,8.3,5,12.2
		L18,368.2c-0.7,1-0.6,2.3,0.3,3.2l14.5,14.5c0.9,0.9,2.2,1,3.2,0.3l16.8-12.2c3.9,2.1,7.9,3.8,12.2,5l3.3,20.5
		c0.2,1.2,1.2,2.1,2.4,2.1h20.5c1.2,0,2.2-0.9,2.4-2.1l3.3-20.5c4.2-1.2,8.3-2.9,12.2-5l16.8,12.2c1,0.7,2.3,0.6,3.2-0.3l14.5-14.5
		c0.9-0.9,1-2.2,0.3-3.2l-12.2-16.8c2.1-3.9,3.8-7.9,5-12.2l20.5-3.3c1.2-0.2,2.1-1.2,2.1-2.4l0-20.5
		C159.2,311.8,158.3,310.7,157.2,310.5L157.2,310.5z M154.3,331.4l-20,3.2c-1,0.2-1.7,0.9-2,1.8c-1.2,4.9-3.2,9.5-5.7,13.8
		c-0.5,0.8-0.4,1.9,0.1,2.7l11.9,16.4L127,380.9L110.6,369c-0.8-0.6-1.8-0.6-2.7-0.1c-4.3,2.6-9,4.5-13.8,5.7c-0.9,0.2-1.7,1-1.8,2
		l-3.2,20H72.7l-3.2-20c-0.2-1-0.9-1.7-1.8-2c-4.9-1.2-9.5-3.2-13.8-5.7c-0.8-0.5-1.9-0.4-2.7,0.1l-16.4,11.9l-11.6-11.6l11.9-16.4
		c0.6-0.8,0.6-1.8,0.1-2.7c-2.6-4.3-4.5-9-5.7-13.8c-0.2-0.9-1-1.7-2-1.8l-20-3.2V315l20-3.2c1-0.2,1.7-0.9,2-1.8
		c1.2-4.9,3.2-9.5,5.7-13.8c0.5-0.8,0.4-1.9-0.1-2.7l-11.9-16.4l11.6-11.6l16.4,11.9c0.8,0.6,1.8,0.6,2.7,0.1
		c4.3-2.6,9-4.5,13.8-5.7c0.9-0.2,1.7-1,1.8-2l3.2-20H89l3.2,20c0.2,1,0.9,1.7,1.8,2c4.9,1.2,9.5,3.2,13.8,5.7
		c0.8,0.5,1.9,0.4,2.7-0.1l16.4-11.9l11.6,11.6l-11.9,16.4c-0.6,0.8-0.6,1.8-0.1,2.7c2.6,4.3,4.5,9,5.7,13.8c0.2,0.9,1,1.7,2,1.8
		l20,3.2L154.3,331.4L154.3,331.4z M97.2,304.2l-22.4,22.6l-10.2-10.2c-2.8-2.8-7.4-2.8-10.3,0c-1.4,1.4-2.1,3.2-2.1,5.1
		c0,1.9,0.8,3.8,2.1,5.1l15.3,15.3c1.4,1.4,3.2,2.1,5.1,2.1c1.9,0,3.8-0.8,5.1-2.1c6-6,12-12.1,17.8-18c3.2-3.3,6.5-6.6,9.7-9.8
		c2.8-2.8,2.8-7.4,0-10.2C104.6,301.4,100,301.4,97.2,304.2L97.2,304.2z M104,311c-3.2,3.3-6.5,6.5-9.7,9.8
		c-5.8,5.9-11.9,12-17.8,18c-0.4,0.4-1,0.7-1.7,0.7s-1.2-0.2-1.7-0.7l-15.3-15.3c-0.4-0.4-0.7-1-0.7-1.7c0-0.6,0.2-1.2,0.7-1.7
		c0.4-0.4,1-0.7,1.7-0.7c0.6,0,1.2,0.2,1.7,0.7L73,332c0.5,0.5,1.1,0.7,1.7,0.7h0c0.7,0,1.3-0.3,1.7-0.7l24.1-24.4
		c0.9-0.9,2.4-0.9,3.3,0C104.9,308.6,104.9,310.1,104,311L104,311z M80.9,278.7c-24.5,0-44.5,20-44.5,44.5c0,24.5,20,44.5,44.5,44.5
		c24.5,0,44.5-20,44.5-44.5C125.4,298.7,105.4,278.7,80.9,278.7z M80.9,362.8c-21.8,0-39.6-17.8-39.6-39.6
		c0-21.8,17.8-39.6,39.6-39.6c21.8,0,39.6,17.8,39.6,39.6C120.5,345.1,102.7,362.8,80.9,362.8z"/>
</g>
</svg>
