<?xml version="1.0" encoding="utf-8"?>
<!-- Generator: Adobe Illustrator 25.2.1, SVG Export Plug-In . SVG Version: 6.00 Build 0)  -->
<svg version="1.1" id="Layer_1" xmlns="http://www.w3.org/2000/svg" xmlns:xlink="http://www.w3.org/1999/xlink" x="0px" y="0px"
	 width="304.7px" height="509.7px" viewBox="0 0 304.7 509.7" style="enable-background:new 0 0 304.7 509.7;" xml:space="preserve"
	>
<style type="text/css">
	.st0{fill:#CACACA;}
	.st1{fill:#F2F2F2;}
	.st2{fill:#E6E6E6;}
	.st3{fill:#2F2E41;}
	.st4{fill:#FFB8B8;}
	.st5{fill:#6C63FF;}
	.st6{fill:#0D51D9;}
	.st7{fill:#3F3D56;}
	.st8{opacity:0.5;clip-path:url(#SVGID_2_);}
	.st9{fill:#09121F;}
	.st10{opacity:0.5;}
	.st11{fill-rule:evenodd;clip-rule:evenodd;fill:#231F20;}
	.st12{fill-rule:evenodd;clip-rule:evenodd;fill:#FFFFFF;filter:url(#Adobe_OpacityMaskFilter);}
	.st13{mask:url(#mask0_1726_14644_2_);}
	.st14{fill:#0D1C2E;}
	.st15{fill-rule:evenodd;clip-rule:evenodd;fill:#FFFFFF;filter:url(#Adobe_OpacityMaskFilter_1_);}
	.st16{mask:url(#mask0_1726_14647_2_);}
	.st17{fill-rule:evenodd;clip-rule:evenodd;fill:#FFFFFF;filter:url(#Adobe_OpacityMaskFilter_2_);}
	.st18{mask:url(#mask0_1726_14648_2_);}
	.st19{opacity:0.1;}
</style>
<path class="st0" d="M246.5,470.5c-0.8-5.5-1-11.1-0.6-16.6l0.6-9.2C242.9,451.7,243.7,461,246.5,470.5L246.5,470.5z"/>
<path class="st0" d="M249.3,472c-0.4-3.3-0.5-6.6-0.3-9.9l0.3-5.5C247.5,460.8,247.9,466.4,249.3,472z"/>
<path class="st1" d="M261.6,478.8v3.1c0,0.2-0.1,0.5-0.3,0.7s-0.4,0.3-0.7,0.3h-1.5c0,0-0.1,0-0.1,0c0,0-0.1,0-0.1,0.1
	c0,0-0.1,0.1-0.1,0.1c0,0,0,0.1,0,0.1v25.2c0,0.2-0.1,0.5-0.3,0.7c-0.2,0.2-0.4,0.3-0.7,0.3h-18.8c-0.2,0-0.5-0.1-0.7-0.3
	c-0.2-0.2-0.3-0.4-0.3-0.7v-25.2c0-0.1,0-0.2-0.1-0.2c-0.1-0.1-0.1-0.1-0.2-0.1H236c-0.2,0-0.5-0.1-0.7-0.3
	c-0.2-0.2-0.3-0.4-0.3-0.7v-3.1c0-0.1,0-0.2,0.1-0.4c0-0.1,0.1-0.2,0.2-0.3c0.1-0.1,0.2-0.2,0.3-0.2c0.1,0,0.2-0.1,0.4-0.1h24.6
	c0.2,0,0.5,0.1,0.7,0.3C261.5,478.3,261.6,478.5,261.6,478.8z"/>
<path class="st2" d="M258.8,483.4h-20.6v0.9h20.6V483.4z"/>
<path class="st2" d="M258.8,497c-6.9,2.9-13.9,2.9-20.9,0v-6.5c6.8-2.3,14.1-2.3,20.9,0V497z"/>
<path class="st3" d="M159.7,393.5c6.2,0,11.2-5,11.2-11.2c0-6.2-5-11.2-11.2-11.2c-6.2,0-11.2,5-11.2,11.2
	C148.5,388.5,153.5,393.5,159.7,393.5z"/>
<path class="st3" d="M162.9,371.5c1.9,0,3.8,0.5,5.5,1.5c1.7,1,3.1,2.3,4.1,4c1,1.7,1.5,3.6,1.6,5.5c0,1.9-0.4,3.9-1.3,5.6
	c1-1.2,1.7-2.6,2.1-4.1c0.4-1.5,0.5-3.1,0.2-4.6c-0.2-1.5-0.8-3-1.6-4.3c-0.8-1.3-1.9-2.4-3.2-3.3c-1.3-0.9-2.8-1.4-4.3-1.7
	c-1.5-0.3-3.1-0.2-4.6,0.2c-1.5,0.4-2.9,1.1-4.1,2c-1.2,1-2.2,2.2-3,3.5c1-1.3,2.4-2.4,3.9-3.1C159.5,371.8,161.2,371.5,162.9,371.5
	z"/>
<path class="st3" d="M138.8,382.3c18.2,0,32.9-14.7,32.9-32.9s-14.7-32.9-32.9-32.9c-18.2,0-32.9,14.7-32.9,32.9
	S120.6,382.3,138.8,382.3z"/>
<path class="st3" d="M113,329c5.7-6.4,13.6-10.3,22.1-10.9c8.5-0.6,16.9,2,23.5,7.5c-0.3-0.3-0.5-0.5-0.8-0.8
	c-6.5-5.8-15.1-8.8-23.8-8.2c-8.7,0.5-16.9,4.5-22.6,11c-5.8,6.5-8.8,15.1-8.3,23.8c0.5,8.7,4.5,16.9,11,22.7
	c0.3,0.2,0.6,0.5,0.9,0.7c-6.2-5.9-9.8-13.9-10.2-22.4C104.4,343.7,107.3,335.4,113,329z"/>
<path class="st4" d="M138.5,382c11.7,0,21.2-9.5,21.2-21.2c0-11.7-9.5-21.2-21.2-21.2s-21.2,9.5-21.2,21.2
	C117.3,372.6,126.8,382,138.5,382z"/>
<path class="st0" d="M149.4,387.8l-22.7,1c0,0,1.9,11.7-10.4,12.8c-12.3,1.1-23.4-2.2-27.9,6.1c-4.5,8.4-2.5,38.1-2.5,38.1
	s8.4,30.1,15.1,34.6c6.7,4.5,65.2-1.7,65.2-1.7l24.5-30.9l-0.8-23.9c-0.4-12.5-11.8-21.8-24.1-19.5c-0.2,0-0.5,0.1-0.7,0.1
	c0,0-2.7-2-10.1-5.7C150.5,396.7,149.4,387.8,149.4,387.8z"/>
<path class="st3" d="M100.1,401.1c0,0,5.4,9.8,3.2,23.7c-2.2,13.9,7.1,43.4,7.1,43.4l6.7-1.7c0,0-4.5-29-3.3-35.7
	c1.1-6.7,1.4-26.4-4.2-29.8C104,397.7,100.1,401.1,100.1,401.1z"/>
<path class="st3" d="M164.7,406.2l2.3,61.7l4.5,2.8c0,0,6.4-67.7,3.1-67.7h-6.8c-0.4,0-0.8,0.1-1.2,0.2c-0.4,0.2-0.7,0.4-1,0.7
	c-0.3,0.3-0.5,0.6-0.7,1c-0.2,0.4-0.2,0.8-0.2,1.2C164.7,406.1,164.7,406.2,164.7,406.2z"/>
<path class="st5" d="M113.5,466.8c1.5,0,2.8-1.2,2.8-2.8c0-1.5-1.2-2.8-2.8-2.8c-1.5,0-2.8,1.2-2.8,2.8
	C110.7,465.6,112,466.8,113.5,466.8z"/>
<path class="st5" d="M169.2,469.6c1.5,0,2.8-1.2,2.8-2.8c0-1.5-1.2-2.8-2.8-2.8c-1.5,0-2.8,1.2-2.8,2.8
	C166.5,468.4,167.7,469.6,169.2,469.6z"/>
<path class="st3" d="M120.4,334.4v21.2h4.9l6.2-6.7l-0.8,6.7h21.7l-1.3-6.7l2.7,6.7h3.5v-21.2H120.4z"/>
<path class="st4" d="M117.1,359.5c0.9,0,1.7-1.4,1.7-3.1c0-1.7-0.7-3.1-1.7-3.1c-0.9,0-1.7,1.4-1.7,3.1
	C115.4,358.1,116.1,359.5,117.1,359.5z"/>
<path class="st4" d="M160,359.5c0.9,0,1.7-1.4,1.7-3.1c0-1.7-0.7-3.1-1.7-3.1c-0.9,0-1.7,1.4-1.7,3.1
	C158.3,358.1,159.1,359.5,160,359.5z"/>
<path class="st6" d="M206.4,503.7v1.9c0,0.5-0.1,1-0.3,1.5c-0.1,0.2-0.2,0.4-0.3,0.6c-0.4,0.6-0.9,1.1-1.5,1.5
	c-0.6,0.4-1.3,0.5-2,0.5H64.9c-0.7,0-1.4-0.2-2-0.5c-0.6-0.4-1.1-0.9-1.5-1.5c-0.1-0.2-0.2-0.4-0.3-0.6c-0.2-0.5-0.3-1-0.3-1.5v-1.9
	c0-0.5,0.1-1.1,0.3-1.6c0.2-0.5,0.5-1,0.9-1.3s0.8-0.7,1.3-0.9c0.5-0.2,1-0.3,1.6-0.3h7.9v-0.9c0,0,0,0,0-0.1c0,0,0,0,0-0.1
	c0,0,0,0,0.1,0c0,0,0,0,0.1,0h4.1c0,0,0.1,0,0.1,0.1c0,0,0.1,0.1,0.1,0.1v0.9h2.6v-0.9c0,0,0,0,0-0.1s0,0,0-0.1s0,0,0.1,0
	c0,0,0,0,0.1,0h4.1c0,0,0.1,0,0.1,0.1c0,0,0.1,0.1,0.1,0.1v0.9h2.6v-0.9c0,0,0,0,0-0.1s0,0,0-0.1c0,0,0,0,0.1,0c0,0,0,0,0.1,0h4.1
	c0,0,0.1,0,0.1,0.1c0,0,0.1,0.1,0.1,0.1v0.9H94v-0.9c0,0,0,0,0-0.1c0,0,0,0,0-0.1c0,0,0,0,0.1,0c0,0,0,0,0.1,0h4.1
	c0,0,0.1,0,0.1,0.1c0,0,0.1,0.1,0.1,0.1v0.9h2.6v-0.9c0,0,0,0,0-0.1c0,0,0,0,0-0.1c0,0,0,0,0.1,0c0,0,0,0,0.1,0h4.1
	c0,0,0.1,0,0.1,0.1c0,0,0.1,0.1,0.1,0.1v0.9h2.6v-0.9c0,0,0,0,0-0.1c0,0,0,0,0-0.1c0,0,0,0,0.1,0c0,0,0,0,0.1,0h4.1
	c0,0,0.1,0,0.1,0.1c0,0,0.1,0.1,0.1,0.1v0.9h2.6v-0.9c0,0,0,0,0-0.1s0,0,0-0.1c0,0,0,0,0.1,0c0,0,0,0,0.1,0h32.4c0,0,0,0,0.1,0
	c0,0,0,0,0.1,0c0,0,0,0,0,0.1c0,0,0,0,0,0.1v0.9h2.6v-0.9c0,0,0,0,0-0.1s0,0,0-0.1c0,0,0,0,0.1,0c0,0,0,0,0.1,0h4.1
	c0,0,0.1,0,0.1,0.1c0,0,0.1,0.1,0.1,0.1v0.9h2.6v-0.9c0,0,0,0,0-0.1c0,0,0,0,0-0.1c0,0,0,0,0.1,0c0,0,0,0,0.1,0h4.1c0,0,0,0,0.1,0
	c0,0,0,0,0.1,0c0,0,0,0,0,0.1c0,0,0,0,0,0.1v0.9h2.6v-0.9c0,0,0,0,0-0.1c0,0,0,0,0-0.1c0,0,0,0,0.1,0c0,0,0,0,0.1,0h4.1
	c0,0,0,0,0.1,0c0,0,0,0,0.1,0s0,0,0,0.1c0,0,0,0,0,0.1v0.9h2.6v-0.9c0,0,0,0,0-0.1c0,0,0,0,0-0.1c0,0,0,0,0.1,0c0,0,0,0,0.1,0h4.1
	c0,0,0.1,0,0.1,0.1c0,0,0,0.1,0,0.1v0.9h2.6v-0.9c0,0,0,0,0-0.1c0,0,0,0,0-0.1c0,0,0,0,0.1,0c0,0,0,0,0.1,0h4.1c0,0,0,0,0.1,0
	c0,0,0,0,0.1,0c0,0,0,0,0,0.1c0,0,0,0,0,0.1v0.9h2.6v-0.9c0,0,0,0,0-0.1s0,0,0-0.1c0,0,0,0,0.1,0c0,0,0,0,0.1,0h4.1c0,0,0,0,0.1,0
	c0,0,0,0,0.1,0c0,0,0,0,0,0.1c0,0,0,0,0,0.1v0.9h12.1c1.1,0,2.1,0.4,2.9,1.2C206,501.5,206.4,502.6,206.4,503.7L206.4,503.7z"/>
<path class="st7" d="M319.6,509.2H20.8v0.6h298.7V509.2z"/>
<path class="st6" d="M195.3,425.1H69.5c-0.5,0-0.9,0.1-1.3,0.3c-0.4,0.2-0.8,0.4-1.1,0.8c-0.3,0.3-0.6,0.7-0.8,1.1
	c-0.2,0.4-0.3,0.9-0.3,1.3v70.1c0,0.9,0.4,1.8,1,2.4c0.6,0.7,1.5,1,2.4,1h125.8c0.9,0,1.8-0.4,2.4-1c0.6-0.6,1-1.5,1-2.4v-70.1
	c0-0.9-0.4-1.8-1-2.4C197.1,425.4,196.2,425.1,195.3,425.1z"/>
<path class="st5" d="M132.5,457.2c4.2,0,7.7-3.4,7.7-7.7c0-4.2-3.4-7.7-7.7-7.7c-4.2,0-7.7,3.4-7.7,7.7
	C124.8,453.8,128.3,457.2,132.5,457.2z"/>
<path class="st7" d="M180.1,398.7l38.8-39.1h18.3V359h-18.6l-0.1,0.1l-38.9,39.2L180.1,398.7z"/>
<path class="st5" d="M304.7,343.5h-45v4h45V343.5z"/>
<path class="st7" d="M254.2,350.1h-9.5v-9.5h9.5V350.1z M245.3,349.4h8.3v-8.3h-8.3V349.4z"/>
<path class="st5" d="M304.7,356.9h-45v4h45V356.9z"/>
<path class="st7" d="M254.2,363.4h-9.5v-9.5h9.5V363.4z M245.3,362.8h8.3v-8.3h-8.3V362.8z"/>
<path class="st5" d="M304.7,370.2h-45v4h45V370.2z"/>
<path class="st7" d="M254.2,376.8h-9.5v-9.5h9.5V376.8z M245.3,376.2h8.3v-8.3h-8.3V376.2z"/>
<g>
	<defs>
		
			<rect id="SVGID_1_" x="207.7" y="388.4" transform="matrix(0.5583 -0.8296 0.8296 0.5583 -239.7793 374.3725)" width="48" height="48"/>
	</defs>
	<clipPath id="SVGID_2_">
		<use xlink:href="#SVGID_1_"  style="overflow:visible;"/>
	</clipPath>
	<g class="st8">
		<path class="st9" d="M225.4,414.6l0.1-0.1c2.8-4.2,8.5-5.4,13.7-3.4c2-4.2,0-10.1-5-13.5c-5.5-3.7-12.3-2.9-15.1,1.3
			c-1.1,1.6-1.5,3.6-1.3,5.6c0,0.1,0,0.2,0.1,0.4c0.3,1.7,0,3.4-0.8,4.8c1.6,0.1,3.2,0.8,4.4,1.9c0.2,0.2,0.4,0.4,0.6,0.6
			C223,413.2,224.2,414,225.4,414.6L225.4,414.6z M224,418.3c-1.7-0.8-3.2-1.8-4.6-3c-0.2-0.2-0.5-0.4-0.7-0.6
			c-0.6-0.5-1.3-0.8-2-0.9l-4.4-0.2c-0.3,0-0.7-0.1-0.9-0.4c-0.2-0.1-0.3-0.3-0.4-0.5c-0.1-0.2-0.2-0.4-0.2-0.6c0-0.2,0-0.4,0-0.6
			c0.1-0.2,0.2-0.4,0.3-0.6l2.2-2.8c0.3-0.3,0.5-0.8,0.6-1.2c0.1-0.4,0.1-0.9,0-1.3c0-0.2-0.1-0.5-0.1-0.7c-0.3-2.9,0.3-5.8,1.9-8.3
			c4.2-6.2,13.4-7.3,20.7-2.4c6.7,4.5,9.4,12.6,6.3,18.7c5.4,4,7.2,10.9,4,15.7c-1.3,2-3.3,3.3-5.6,3.9c-0.2,0-0.3,0.1-0.6,0.1
			c-0.4,0.1-0.7,0.2-1,0.4c-0.3,0.2-0.5,0.5-0.7,0.8l-1.4,2.5c-0.1,0.1-0.2,0.3-0.3,0.4s-0.3,0.2-0.4,0.2c-0.2,0-0.3,0.1-0.5,0
			c-0.2,0-0.3-0.1-0.5-0.2c-0.2-0.1-0.4-0.3-0.6-0.6l-1.5-3.2c-0.3-0.6-0.7-1-1.3-1.3c-0.3-0.1-0.5-0.2-0.7-0.3
			c-0.6-0.3-1.1-0.6-1.7-1C225.6,427.6,223.3,422.7,224,418.3z M234.1,428.3c1,0.5,1.9,1.2,2.6,2.2c0.9-0.8,1.9-1.3,3.1-1.6
			c0.1,0,0.2-0.1,0.3-0.1c1.4-0.4,2.6-1.2,3.3-2.3c2-3,0.7-7.8-3.5-10.6c-4.1-2.8-9.1-2.2-11.1,0.8c-2,3-0.7,7.8,3.5,10.6
			c0.4,0.3,0.8,0.5,1.2,0.7C233.6,428.1,233.8,428.2,234.1,428.3L234.1,428.3z"/>
	</g>
</g>
<g class="st10">
	<path class="st11" d="M202.5,290.3c8.2,2.2,15.2,7.4,19.5,14.7c0.7,1.1,0.3,2.5-0.8,3.2c-0.6,0.3-1.2,0.4-1.8,0.3
		c-0.6-0.2-1.1-0.5-1.4-1.1c-3.8-6.3-9.7-10.7-16.8-12.6c-7-1.9-14.4-1-20.8,2.6c-1.1,0.6-2.5,0.2-3.2-0.9c-0.6-1.1-0.2-2.5,0.9-3.2
		C185.7,289.2,194.3,288.1,202.5,290.3z M199.5,301.6c-5.5-1.5-11.4-0.6-16.3,2.3c-1.1,0.7-1.5,2.1-0.8,3.2c0.7,1.1,2.1,1.5,3.2,0.8
		c3.8-2.3,8.4-2.9,12.6-1.8c4.3,1.1,7.9,4,10.1,7.9c0.3,0.6,0.8,1,1.4,1.1c0.6,0.2,1.2,0.1,1.7-0.2c1.1-0.6,1.5-2,0.9-3.2
		C209.7,306.8,205,303.1,199.5,301.6z M187.8,313.9c2.7-1.5,5.7-1.9,8.7-1.1c2.9,0.8,5.4,2.7,7,5.3c0.7,1.1,0.3,2.5-0.8,3.2
		c-0.6,0.3-1.2,0.4-1.8,0.3c-0.6-0.2-1.1-0.5-1.4-1.1c-1.9-3.1-6.2-4.3-9.4-2.5c-1.1,0.6-2.5,0.2-3.2-0.9
		C186.3,316,186.7,314.6,187.8,313.9z M191.2,323.5c0.3-1.2,1.6-2,2.9-1.6c1.2,0.3,2,1.6,1.6,2.9c-0.3,1.2-1.6,2-2.9,1.6
		C191.6,326.1,190.9,324.8,191.2,323.5z"/>
	<defs>
		<filter id="Adobe_OpacityMaskFilter" filterUnits="userSpaceOnUse" x="163.4" y="274.1" width="68.6" height="68.6">
			<feColorMatrix  type="matrix" values="1 0 0 0 0  0 1 0 0 0  0 0 1 0 0  0 0 0 1 0"/>
		</filter>
	</defs>
	<mask maskUnits="userSpaceOnUse" x="163.4" y="274.1" width="68.6" height="68.6" id="mask0_1726_14644_2_">
		<path class="st12" d="M202.5,290.3c8.2,2.2,15.2,7.4,19.5,14.7c0.7,1.1,0.3,2.5-0.8,3.2c-0.6,0.3-1.2,0.4-1.8,0.3
			c-0.6-0.2-1.1-0.5-1.4-1.1c-3.8-6.3-9.7-10.7-16.8-12.6c-7-1.9-14.4-1-20.8,2.6c-1.1,0.6-2.5,0.2-3.2-0.9
			c-0.6-1.1-0.2-2.5,0.9-3.2C185.7,289.2,194.3,288.1,202.5,290.3z M199.5,301.6c-5.5-1.5-11.4-0.6-16.3,2.3
			c-1.1,0.7-1.5,2.1-0.8,3.2c0.7,1.1,2.1,1.5,3.2,0.8c3.8-2.3,8.4-2.9,12.6-1.8c4.3,1.1,7.9,4,10.1,7.9c0.3,0.6,0.8,1,1.4,1.1
			c0.6,0.2,1.2,0.1,1.7-0.2c1.1-0.6,1.5-2,0.9-3.2C209.7,306.8,205,303.1,199.5,301.6z M187.8,313.9c2.7-1.5,5.7-1.9,8.7-1.1
			c2.9,0.8,5.4,2.7,7,5.3c0.7,1.1,0.3,2.5-0.8,3.2c-0.6,0.3-1.2,0.4-1.8,0.3c-0.6-0.2-1.1-0.5-1.4-1.1c-1.9-3.1-6.2-4.3-9.4-2.5
			c-1.1,0.6-2.5,0.2-3.2-0.9C186.3,316,186.7,314.6,187.8,313.9z M191.2,323.5c0.3-1.2,1.6-2,2.9-1.6c1.2,0.3,2,1.6,1.6,2.9
			c-0.3,1.2-1.6,2-2.9,1.6C191.6,326.1,190.9,324.8,191.2,323.5z"/>
	</mask>
	<g class="st13">
		
			<rect x="169.7" y="280.4" transform="matrix(0.2588 -0.9659 0.9659 0.2588 -151.3346 419.5226)" class="st14" width="56" height="56"/>
	</g>
</g>
<g class="st10">
	<path class="st11" d="M47.4,390.3l-29.7,13.5c-1.2,0.5-2.6,0-3.1-1.2L5.1,382l21.1,4.6c0.5,0.1,1,0,1.5-0.2c0.4-0.2,0.8-0.5,1.1-1
		l10.4-18.9l9.4,20.7C49.1,388.4,48.5,389.8,47.4,390.3z M34.3,365.5l-8.9,16.2l-18-4L34.3,365.5z M33.8,360.6L4.1,374.1
		c-3.5,1.6-5.1,5.8-3.5,9.3l9.7,21.2c1.6,3.5,5.8,5.1,9.3,3.5l29.7-13.5c3.5-1.6,5.1-5.8,3.5-9.3l-9.7-21.2
		C41.5,360.6,37.3,359,33.8,360.6z"/>
	<defs>
		<filter id="Adobe_OpacityMaskFilter_1_" filterUnits="userSpaceOnUse" x="-10.4" y="347.3" width="74.2" height="74.2">
			<feColorMatrix  type="matrix" values="1 0 0 0 0  0 1 0 0 0  0 0 1 0 0  0 0 0 1 0"/>
		</filter>
	</defs>
	<mask maskUnits="userSpaceOnUse" x="-10.4" y="347.3" width="74.2" height="74.2" id="mask0_1726_14647_2_">
		<path class="st15" d="M47.4,390.3l-29.7,13.5c-1.2,0.5-2.6,0-3.1-1.2L5.1,382l21.1,4.6c0.5,0.1,1,0,1.5-0.2c0.4-0.2,0.8-0.5,1.1-1
			l10.4-18.9l9.4,20.7C49.1,388.4,48.5,389.8,47.4,390.3z M34.3,365.5l-8.9,16.2l-18-4L34.3,365.5z M33.8,360.6L4.1,374.1
			c-3.5,1.6-5.1,5.8-3.5,9.3l9.7,21.2c1.6,3.5,5.8,5.1,9.3,3.5l29.7-13.5c3.5-1.6,5.1-5.8,3.5-9.3l-9.7-21.2
			C41.5,360.6,37.3,359,33.8,360.6z"/>
	</mask>
	<g class="st16">
		
			<rect x="-1.3" y="356.4" transform="matrix(0.9102 -0.4142 0.4142 0.9102 -156.8262 45.5899)" class="st14" width="56" height="56"/>
	</g>
</g>
<g class="st10">
	<path class="st11" d="M90.1,296.7c-16.9,0-30.7-13.8-30.7-30.7c0-3.3,2.7-6,6-6c0.2,0,0.5,0,0.7,0l2.4,10.6
		c-0.3,0.2-0.6,0.3-0.9,0.5l-0.3,0.2c-2,1-3.5,1.8-2.7,3.6c2.7,7.7,8.9,13.9,16.5,16.5c1.9,0.8,2.7-0.7,3.7-2.6l0,0
		c0.1-0.2,0.2-0.5,0.4-0.7l0,0c0.1-0.2,0.2-0.4,0.3-0.6L96,290c0,0.2,0.1,0.5,0.1,0.8C96,294,93.4,296.7,90.1,296.7z M100,287.3
		c-0.3-0.7-0.9-1.3-1.7-1.5l-13.7-3.1c-0.8-0.2-1.5,0-2.1,0.6c-0.3,0.3-0.3,0.3-1.8,3.2c-4.9-2.2-8.9-6.2-11.2-11.2
		c2.8-1.5,2.8-1.5,3.2-1.8c0.5-0.6,0.8-1.3,0.6-2.1l-3.1-13.7c-0.2-0.8-0.7-1.4-1.5-1.7c-0.5-0.2-1.1-0.3-1.7-0.4
		c-0.6-0.1-1.2-0.1-1.8-0.1c-5.8,0-10.5,4.7-10.5,10.5c0,19.5,15.8,35.3,35.3,35.3c5.8,0,10.5-4.7,10.5-10.5c0-0.6-0.1-1.2-0.1-1.7
		C100.4,288.4,100.2,287.9,100,287.3z M80,269.2c3.8,0,6.9,3.1,6.9,6.9c0,1.3,1,2.3,2.3,2.3c1.3,0,2.3-1,2.3-2.3
		c0-6.3-5.1-11.5-11.5-11.5c-1.3,0-2.3,1-2.3,2.3S78.7,269.2,80,269.2z M96,276.1c0-8.8-7.2-16-16-16c-1.3,0-2.3-1-2.3-2.3
		c0-1.3,1-2.3,2.3-2.3c11.4,0,20.6,9.3,20.6,20.6c0,1.3-1,2.3-2.3,2.3C97.1,278.4,96,277.3,96,276.1z"/>
	<defs>
		<filter id="Adobe_OpacityMaskFilter_2_" filterUnits="userSpaceOnUse" x="50.2" y="250.9" width="55" height="55">
			<feColorMatrix  type="matrix" values="1 0 0 0 0  0 1 0 0 0  0 0 1 0 0  0 0 0 1 0"/>
		</filter>
	</defs>
	<mask maskUnits="userSpaceOnUse" x="50.2" y="250.9" width="55" height="55" id="mask0_1726_14648_2_">
		<path class="st17" d="M90.1,296.7c-16.9,0-30.7-13.8-30.7-30.7c0-3.3,2.7-6,6-6c0.2,0,0.5,0,0.7,0l2.4,10.6
			c-0.3,0.2-0.6,0.3-0.9,0.5l-0.3,0.2c-2,1-3.5,1.8-2.7,3.6c2.7,7.7,8.9,13.9,16.5,16.5c1.9,0.8,2.7-0.7,3.7-2.6l0,0
			c0.1-0.2,0.2-0.5,0.4-0.7l0,0c0.1-0.2,0.2-0.4,0.3-0.6L96,290c0,0.2,0.1,0.5,0.1,0.8C96,294,93.4,296.7,90.1,296.7z M100,287.3
			c-0.3-0.7-0.9-1.3-1.7-1.5l-13.7-3.1c-0.8-0.2-1.5,0-2.1,0.6c-0.3,0.3-0.3,0.3-1.8,3.2c-4.9-2.2-8.9-6.2-11.2-11.2
			c2.8-1.5,2.8-1.5,3.2-1.8c0.5-0.6,0.8-1.3,0.6-2.1l-3.1-13.7c-0.2-0.8-0.7-1.4-1.5-1.7c-0.5-0.2-1.1-0.3-1.7-0.4
			c-0.6-0.1-1.2-0.1-1.8-0.1c-5.8,0-10.5,4.7-10.5,10.5c0,19.5,15.8,35.3,35.3,35.3c5.8,0,10.5-4.7,10.5-10.5c0-0.6-0.1-1.2-0.1-1.7
			C100.4,288.4,100.2,287.9,100,287.3z M80,269.2c3.8,0,6.9,3.1,6.9,6.9c0,1.3,1,2.3,2.3,2.3c1.3,0,2.3-1,2.3-2.3
			c0-6.3-5.1-11.5-11.5-11.5c-1.3,0-2.3,1-2.3,2.3S78.7,269.2,80,269.2z M96,276.1c0-8.8-7.2-16-16-16c-1.3,0-2.3-1-2.3-2.3
			c0-1.3,1-2.3,2.3-2.3c11.4,0,20.6,9.3,20.6,20.6c0,1.3-1,2.3-2.3,2.3C97.1,278.4,96,277.3,96,276.1z"/>
	</mask>
	<g class="st18">
		<rect x="50.2" y="250.9" class="st14" width="55" height="55"/>
	</g>
</g>
<g class="st19">
	<path class="st9" d="M254.3,124.3v-0.4c0-16.3,13.1-30,30.9-34c-2.4-15-18.2-27.2-38-27.2c-21.6,0-38.3,14.4-38.3,31.1
		c0,6.3,2.3,12.4,6.8,17.5c0.2,0.2,0.5,0.6,1,1.1c3.8,3.9,6.1,9.1,6.5,14.5c4.6-2.7,10.1-3.7,15.4-2.9c1.1,0.2,2,0.3,2.6,0.4
		C245.5,125.1,250,125,254.3,124.3L254.3,124.3z M257.3,137c-5.9,1-11.9,1.1-17.9,0.4c-1-0.1-2-0.3-3-0.4c-2.4-0.4-4.9,0.1-7,1.4
		l-12.4,7.5c-1,0.6-2.1,0.9-3.2,0.8c-0.7-0.1-1.3-0.2-1.9-0.5c-0.6-0.3-1.1-0.7-1.6-1.2c-0.4-0.5-0.8-1.1-1-1.8s-0.3-1.3-0.2-2
		l1-11.6c0.1-1.5-0.1-2.9-0.6-4.3c-0.5-1.4-1.3-2.6-2.3-3.7c-0.5-0.6-1.1-1.1-1.6-1.7c-6.2-7.3-9.9-16.3-9.9-26
		c0-24.3,23-44.1,51.3-44.1c26.4,0,48.1,17.1,51,39.1c21.9,1,39.3,16.3,39.3,35.1c0,7.8-3,14.9-8,20.7c-0.3,0.4-0.8,0.8-1.3,1.4
		c-0.8,0.8-1.5,1.8-1.9,2.9c-0.4,1.1-0.6,2.3-0.5,3.4l0.8,9.2c0,0.5,0,1.1-0.2,1.6c-0.2,0.5-0.4,1-0.8,1.4c-0.4,0.4-0.8,0.7-1.3,1
		c-0.5,0.2-1,0.4-1.6,0.4c-0.9,0.1-1.8-0.1-2.6-0.6l-10-6c-1.7-1-3.7-1.4-5.7-1.1c-1,0.1-1.8,0.3-2.4,0.3c-2.1,0.3-4.2,0.4-6.3,0.4
		C278.4,159.1,263.4,150,257.3,137L257.3,137z M302.7,145.5c3.7-0.6,7.4-0.2,10.9,1.1c0.9-3.7,2.8-7.1,5.5-9.8
		c0.3-0.3,0.6-0.6,0.7-0.7c3.2-3.7,4.8-7.9,4.8-12.2c0-11.7-12.4-22.2-28.6-22.2c-16.2,0-28.6,10.5-28.6,22.2
		c0,11.7,12.4,22.2,28.6,22.2c1.6,0,3.1-0.1,4.6-0.3C301.1,145.8,301.8,145.7,302.7,145.5L302.7,145.5z"/>
</g>
</svg>
