<?xml version="1.0" encoding="utf-8"?>
<!-- Generator: Adobe Illustrator 25.2.1, SVG Export Plug-In . SVG Version: 6.00 Build 0)  -->
<svg version="1.1" id="Layer_1" xmlns="http://www.w3.org/2000/svg" xmlns:xlink="http://www.w3.org/1999/xlink" x="0px" y="0px"
	 width="475.2px" height="491px" viewBox="0 0 475.2 491" style="enable-background:new 0 0 475.2 491;" xml:space="preserve">
<style type="text/css">
	.st0{fill:#F5F5F5;}
	.st1{fill:#E0E0E0;}
	.st2{fill:#FFFFFF;}
	.st3{fill:#263238;}
	.st4{fill:#455A64;}
	.st5{fill:#FFBF9D;}
	.st6{fill:#FF9A6C;}
	.st7{fill:#0D51D9;}
</style>
<g>
	<path class="st0" d="M355.9,447.7v24.3h-4.1v2.6h4.1V491h76v-14.8h-5.6v-3.2h5.6v-4.9h2.5v-2.2h-3v-18.2H355.9z"/>
	<path class="st1" d="M411.7,447.8v42.9h20.2v-14.8h-5.6v-3l5.6,0.1v-4.8l2.5,0l0-2.5l-3-0.1v-17.9L411.7,447.8z"/>
	<path class="st1" d="M413.1,474.4c0,0.2-13.7,0.3-30.7,0.3c-17,0-30.7-0.1-30.7-0.3s13.7-0.3,30.7-0.3
		C399.4,474.1,413.1,474.2,413.1,474.4z"/>
	<path class="st1" d="M413.1,471.9c0,0.1-13.7,0.3-30.7,0.3c-17,0-30.7-0.1-30.7-0.3c0-0.1,13.7-0.3,30.7-0.3
		C399.4,471.6,413.1,471.7,413.1,471.9z"/>
	<path class="st1" d="M417.1,465.2c0,0.1-13.7,0.3-30.7,0.3s-30.7-0.1-30.7-0.3c0-0.1,13.7-0.3,30.7-0.3
		C403.3,465,417.1,465.1,417.1,465.2z"/>
	<path class="st1" d="M417.4,483.4c0,0.1-13.7,0.3-30.7,0.3s-30.7-0.1-30.7-0.3c0-0.1,13.7-0.3,30.7-0.3
		C403.7,483.1,417.4,483.2,417.4,483.4z"/>
	<path class="st2" d="M320.6,319.4h109c0.8,0,1.7,0.2,2.5,0.5c0.8,0.3,1.5,0.8,2.1,1.4c0.6,0.6,1.1,1.3,1.4,2.1
		c0.3,0.8,0.5,1.6,0.5,2.5v79.1c0,1.3-0.3,2.6-0.8,3.9s-1.3,2.3-2.2,3.3c-0.9,0.9-2.1,1.7-3.3,2.2c-1.2,0.5-2.5,0.8-3.9,0.8H322.9
		c-2.7,0-5.3-1.1-7.2-3c-1.9-1.9-3-4.5-3-7.2v-77.6c0-2.1,0.8-4.1,2.3-5.6C316.5,320.2,318.5,319.4,320.6,319.4z"/>
	<path class="st2" d="M321.5,326.3c0,0.3-0.1,0.7-0.3,1c-0.2,0.3-0.5,0.5-0.8,0.6c-0.3,0.1-0.7,0.2-1,0.1c-0.3-0.1-0.6-0.2-0.9-0.5
		c-0.2-0.2-0.4-0.6-0.5-0.9c-0.1-0.3,0-0.7,0.1-1c0.1-0.3,0.4-0.6,0.6-0.8c0.3-0.2,0.6-0.3,1-0.3c0.5,0,0.9,0.2,1.2,0.5
		C321.3,325.4,321.5,325.8,321.5,326.3z"/>
	<path class="st2" d="M327.2,326.3c0,0.3-0.1,0.7-0.3,1c-0.2,0.3-0.5,0.5-0.8,0.6c-0.3,0.1-0.7,0.2-1,0.1c-0.3-0.1-0.6-0.2-0.9-0.5
		c-0.2-0.2-0.4-0.6-0.5-0.9c-0.1-0.3,0-0.7,0.1-1c0.1-0.3,0.4-0.6,0.6-0.8c0.3-0.2,0.6-0.3,1-0.3c0.2,0,0.5,0,0.7,0.1
		c0.2,0.1,0.4,0.2,0.6,0.4c0.2,0.2,0.3,0.4,0.4,0.6C327.2,325.8,327.2,326,327.2,326.3z"/>
	<path class="st2" d="M333,326.3c0,0.3-0.1,0.7-0.3,1c-0.2,0.3-0.5,0.5-0.8,0.6c-0.3,0.1-0.7,0.2-1,0.1c-0.3-0.1-0.6-0.2-0.9-0.5
		c-0.2-0.2-0.4-0.6-0.5-0.9c-0.1-0.3,0-0.7,0.1-1c0.1-0.3,0.4-0.6,0.6-0.8c0.3-0.2,0.6-0.3,1-0.3c0.5,0,0.9,0.2,1.2,0.5
		C332.8,325.4,333,325.8,333,326.3z"/>
	<path class="st0" d="M262.8,312.6c8.9-3.8,13.1-14.1,9.3-23.1c-3.8-8.9-14.1-13.1-23.1-9.3c-8.9,3.8-13.1,14.1-9.3,23.1
		C243.5,312.3,253.8,316.4,262.8,312.6z"/>
	<path class="st1" d="M261.4,309.7c7.3-3,10.8-11.3,7.8-18.7c-3-7.3-11.3-10.8-18.7-7.9s-10.8,11.3-7.8,18.7
		C245.7,309.1,254.1,312.7,261.4,309.7z"/>
	<path class="st3" d="M260,305.9c5.2-2.2,7.7-8.2,5.5-13.4c-2.2-5.2-8.2-7.7-13.4-5.5c-5.2,2.2-7.7,8.2-5.5,13.4
		C248.8,305.6,254.8,308,260,305.9z"/>
	<path class="st1" d="M259.9,297c0.3-2.1-1.1-4.2-3.2-4.5c-2.1-0.3-4.2,1.1-4.5,3.2c-0.3,2.1,1.1,4.2,3.2,4.5
		C257.5,300.6,259.5,299.2,259.9,297z"/>
	<path class="st0" d="M358.4,287.7c3.8-13.7-4.2-27.9-17.9-31.7c-13.7-3.8-27.9,4.2-31.7,17.9c-3.8,13.7,4.2,27.9,17.9,31.7
		C340.4,309.4,354.6,301.4,358.4,287.7z"/>
	<path class="st4" d="M347.7,293.6l-3.8-4.4v-10.5c0-2.4-0.9-4.8-2.5-6.7c-1.6-1.9-3.8-3.1-6.2-3.5v-4.4h-2.8v4.3
		c-2.5,0.3-4.8,1.5-6.5,3.4c-1.7,1.9-2.6,4.3-2.6,6.8v10l-3.8,4.9H330c0.2,0.7,0.7,1.2,1.2,1.7c0.5,0.5,1.2,0.8,1.9,1
		c0.7,0.2,1.4,0.2,2.1,0c0.7-0.2,1.3-0.5,1.8-1c0.5-0.5,0.9-1,1.1-1.7L347.7,293.6z"/>
	<path class="st3" d="M195.6,299.6c-6.6-1.1-12.4,1.4-17.9,5.1c-5.5,3.7-9.7,9.3-12.2,15.6c-2.5,6.6-3.2,14-1.2,20.7
		c2,6.8,6.6,12.8,12.9,16c8.6,4.4,19.5,2.8,27.2-3c7.7-5.8,12.1-15.4,12.4-25c0.3-6.6-1.3-13.4-5-18.9
		C208,304.7,202.1,300.6,195.6,299.6"/>
	<path class="st3" d="M176.8,322.1c1-2.5,0.6-5.3,1-8c0.8-5.9,5.6-10.6,11.1-12.9c5.1-2.2,11.3-1.7,17.5,0.3c4.2,1.4,8.2,3.7,11,7.2
		c1.8,2.3,3.1,5,3.7,7.9c0.6,2.9,0.5,5.9-0.3,8.7l-30.1-4.4c-2.8,2.3-5.7,4.7-9.1,6c-1,0.4-2.1,0.6-3.1,0.5c-0.5-0.1-1-0.3-1.5-0.6
		c-0.4-0.3-0.7-0.8-0.9-1.3C175.7,324.3,176.4,323.1,176.8,322.1z"/>
	<path class="st5" d="M207,309.8l-26.3,5.6c-1.2,0.1-2.4,0.6-3.2,1.5s-1.3,2.1-1.4,3.3l0.3,56.9c0,3.9,1.3,7.7,3.7,10.7l2.5,3.2
		c5.7,7.4,17.3,6.6,21.7-1.6c0.3-0.5,0.5-1,0.6-1.5c0.1-0.4,0.2-0.9,0.2-1.3l0.5-5.5c0.3-5.1,0.3-10.2,0.3-10.2
		c0,0,10.8-1.4,13.5-15.2c1.4-6.9,1.5-18.3,1.2-27.6C220.5,319.7,215.4,309.2,207,309.8z"/>
	<path class="st3" d="M216.7,338.8c0,0.5-0.2,0.9-0.5,1.2c-0.3,0.3-0.8,0.5-1.2,0.5c-0.2,0-0.5,0-0.7-0.1c-0.2-0.1-0.4-0.2-0.6-0.4
		c-0.2-0.2-0.3-0.3-0.4-0.6c-0.1-0.2-0.1-0.4-0.1-0.7c0-0.5,0.2-0.9,0.5-1.2c0.3-0.3,0.8-0.5,1.3-0.5c0.2,0,0.5,0,0.7,0.1
		c0.2,0.1,0.4,0.2,0.6,0.4s0.3,0.3,0.4,0.6C216.7,338.3,216.7,338.5,216.7,338.8z"/>
	<path class="st3" d="M218,333.9c-0.2,0.2-1.5-0.8-3.5-0.9c-1.9-0.1-3.4,0.8-3.6,0.6c-0.1-0.1,0.1-0.5,0.8-0.9
		c0.9-0.5,1.9-0.8,2.9-0.8c1,0,2,0.4,2.7,1C217.9,333.4,218.1,333.8,218,333.9z"/>
	<path class="st3" d="M199.5,338.3c0,0.5-0.2,0.9-0.5,1.2c-0.3,0.3-0.8,0.5-1.3,0.5c-0.2,0-0.5,0-0.7-0.1c-0.2-0.1-0.4-0.2-0.6-0.4
		s-0.3-0.3-0.4-0.6c-0.1-0.2-0.1-0.4-0.1-0.7c0-0.5,0.2-0.9,0.5-1.2c0.3-0.3,0.8-0.5,1.3-0.5c0.2,0,0.5,0,0.7,0.1
		c0.2,0.1,0.4,0.2,0.6,0.4c0.2,0.2,0.3,0.3,0.4,0.6C199.4,337.9,199.5,338.1,199.5,338.3z"/>
	<path class="st3" d="M199.7,333.4c-0.2,0.2-1.6-0.8-3.5-0.9c-1.9-0.1-3.4,0.8-3.6,0.6c-0.1-0.1,0.1-0.5,0.8-0.9
		c0.9-0.5,1.9-0.8,2.9-0.8c1,0,2,0.4,2.8,1C199.6,332.9,199.8,333.3,199.7,333.4z"/>
	<path class="st3" d="M205.5,348.1c0-0.1,1.2-0.3,3.1-0.4c0.5,0,1-0.1,1.1-0.4c0.1-0.5,0-1-0.3-1.5c-0.4-1.2-0.9-2.5-1.3-3.8
		c-1.8-5.4-3.1-9.8-2.9-9.9c0.2-0.1,1.9,4.3,3.7,9.7c0.4,1.3,0.9,2.6,1.2,3.8c0.2,0.5,0.5,1.2,0.2,1.9c-0.1,0.2-0.2,0.3-0.3,0.4
		c-0.1,0.1-0.3,0.2-0.5,0.2c-0.3,0.1-0.6,0.1-0.8,0.1C206.7,348.2,205.5,348.2,205.5,348.1z"/>
	<path class="st6" d="M206,370.9c-6.6-0.2-13-2.1-18.5-5.7c0,0,4.3,9.8,18.3,9.1L206,370.9z"/>
	<path class="st6" d="M204.5,352.7c-0.3-0.5-0.8-0.9-1.3-1.1c-0.5-0.2-1.1-0.4-1.7-0.3c-0.4,0-0.8,0.1-1.2,0.3
		c-0.4,0.2-0.7,0.4-1,0.8c-0.3,0.3-0.4,0.7-0.5,1.1c0,0.4,0,0.8,0.2,1.2c0.5,0.8,1.6,1,2.5,0.7c0.9-0.3,1.8-0.8,2.5-1.4
		c0.2-0.1,0.4-0.3,0.6-0.5c0.1-0.1,0.1-0.2,0.1-0.4C204.7,353,204.6,352.9,204.5,352.7"/>
	<path class="st3" d="M199.8,349.2c0.3,0,0.2,2.1,2,3.6c1.7,1.5,4,1.4,4,1.7c0,0.1-0.5,0.4-1.5,0.4c-1.2,0-2.4-0.5-3.3-1.3
		c-0.9-0.8-1.4-1.9-1.5-3C199.4,349.7,199.6,349.2,199.8,349.2z"/>
	<path class="st3" d="M199.6,327.7c-0.2,0.5-2.1,0.2-4.4,0.4s-4.1,0.7-4.4,0.2c-0.1-0.2,0.2-0.7,1-1.2c1-0.6,2.1-0.9,3.3-1
		c1.2-0.1,2.3,0.1,3.4,0.5C199.3,327.1,199.7,327.5,199.6,327.7z"/>
	<path class="st3" d="M217.8,325.5c-0.4,0.4-1.7-0.1-3.2-0.2c-1.6-0.1-3,0.2-3.2-0.3c-0.1-0.2,0.1-0.7,0.7-1
		c0.8-0.5,1.7-0.7,2.7-0.6c0.9,0.1,1.8,0.4,2.6,1C217.8,324.8,217.9,325.3,217.8,325.5z"/>
	<path class="st3" d="M172,318c2.7-8,14.6-18.9,23-18.2l13.3,8.3c-0.5,2.3-1.6,4.4-3.2,6.1c-1.6,1.7-3.6,3-5.8,3.6
		c-2.4,0.7-5.3,0.8-6.7,2.9c-1.5,2-0.7,5.1-2.1,7.3c-1.9,3-7,2.7-8.5,5.9c-0.6,1.4-0.4,3.1-1,4.5c-0.9,1.9-5.7,4.1-7.6,3.5
		c-1.9-0.7-1.9-4-2.5-5.7c-1-3-0.5-4.5-0.2-6.2C171.7,326,170.7,321.8,172,318z"/>
	<path class="st5" d="M179.2,343.7c0-1-1.1-3.5-2.1-3.7c-2.7-0.5-7.7-0.5-8,6.5c-0.4,9.5,9.2,8,9.2,7.7
		C178.3,353.9,179,347.2,179.2,343.7z"/>
	<path class="st6" d="M175.6,350.4c0,0-0.2,0.1-0.5,0.2c-0.4,0.2-0.8,0.1-1.2,0c-1-0.4-1.8-2-1.7-3.8c0-0.8,0.2-1.6,0.6-2.4
		c0.1-0.3,0.3-0.6,0.5-0.8c0.2-0.2,0.5-0.4,0.8-0.4c0.2,0,0.4,0,0.6,0.1s0.3,0.2,0.4,0.4c0.1,0.3,0,0.5,0.1,0.5c0,0,0.2-0.1,0.2-0.5
		c0-0.2-0.2-0.5-0.4-0.6c-0.3-0.2-0.6-0.3-0.9-0.3c-0.4,0.1-0.8,0.2-1.1,0.5s-0.6,0.6-0.7,0.9c-0.4,0.8-0.7,1.7-0.7,2.6
		c0,1.9,0.9,3.8,2.2,4.2c0.3,0.1,0.5,0.1,0.8,0.1c0.3,0,0.5-0.1,0.7-0.3C175.6,350.6,175.6,350.4,175.6,350.4z"/>
	<path class="st3" d="M205.6,305.3c0.9,3.9,6.8,8.8,9.3,11.9c4.9,5.7,5.9,7.7,5.8,20.5c2.3-4.4,4.1-8.8,3.9-13.8
		c-0.2-5-2-10-5.5-13.6C215.7,306.6,210.6,304.6,205.6,305.3"/>
	<path class="st3" d="M181.8,294.5c-2.2-2-5.2-3-8.3-3.4c-4.3-0.6-8.8,0.3-12.5,2.5c-3.6,2.3-6.2,6-6.5,10.1c-0.2,2.1,0.3,4.1,1.2,6
		c0.9,1.8,2.4,3.4,4.1,4.5c-1.9,2.4-4.4,4.2-7.2,5.4c0.5,0.5,1.1,1,1.8,1.3c0.7,0.3,1.4,0.5,2.2,0.5c1.5,0,3-0.2,4.5-0.5
		c-0.8,1.6-2.3,2.9-4,3.6c2.5,0.3,5-0.1,7.3-1.1c2.2-1,4.4-2.2,6.3-3.7c6.7-5,10.3-9.1,14.4-16.1C185.4,300.6,184,296.4,181.8,294.5
		z"/>
	<path class="st4" d="M175.6,359.6c2.3,0,4.1-1.9,4.1-4.1c0-2.3-1.9-4.1-4.1-4.1c-2.3,0-4.1,1.9-4.1,4.1
		C171.5,357.8,173.3,359.6,175.6,359.6z"/>
	<path class="st3" d="M168.5,316c4.4-8.3,10.7-13.2,16.6-15.2L168.5,316z"/>
	<path class="st4" d="M185.1,300.8c-0.3,0.1-0.5,0.3-0.8,0.4c-0.5,0.2-1.3,0.5-2.2,1c-2.4,1.3-4.6,2.8-6.6,4.7c-2,1.9-3.7,4-5.2,6.2
		c-0.5,0.9-1,1.6-1.3,2.1c-0.1,0.3-0.3,0.5-0.5,0.8c0.1-0.3,0.3-0.6,0.4-0.8c0.3-0.5,0.7-1.3,1.2-2.2c1.5-2.3,3.2-4.4,5.2-6.3
		c2-1.9,4.2-3.5,6.7-4.7c0.7-0.4,1.5-0.7,2.3-1C184.5,300.9,184.8,300.8,185.1,300.8z"/>
	<path class="st4" d="M162.9,323.3c0,0,0,0,0.1,0l0.4,0.1c0.3,0.1,0.8,0.2,1.4,0.4c1.7,0.4,3.4,0.5,5.2,0.5c2.6-0.1,5.1-0.5,7.6-1.3
		c3-1,5.9-2.3,8.7-3.8c3-1.6,5.7-3.2,8.2-4.8c2.2-1.4,4.3-2.9,6.2-4.6c1.3-1.1,2.5-2.4,3.7-3.7c0.4-0.5,0.7-0.9,0.9-1.1l0.2-0.3
		c0,0,0.1-0.1,0.1-0.1c0,0,0,0.1-0.1,0.1l-0.2,0.3c-0.2,0.3-0.5,0.7-0.9,1.1c-1.1,1.4-2.3,2.6-3.6,3.8c-1.9,1.7-4,3.3-6.2,4.7
		c-2.5,1.6-5.2,3.2-8.2,4.9c-2.8,1.6-5.7,2.8-8.7,3.8c-2.5,0.8-5.1,1.2-7.7,1.3c-1.8,0-3.5-0.1-5.2-0.5c-0.5-0.1-0.9-0.2-1.4-0.4
		l-0.4-0.1C163,323.3,162.9,323.3,162.9,323.3z"/>
	<path class="st5" d="M243.7,410.5l15.9,29.1l23.3-13l11.3,3.7c0,0-28.6,31-33.2,32.6c-4.6,1.6-13.4,1.9-18.4-4.4
		c-4.6-5.7-17.9-35.8-17.9-35.8L243.7,410.5z"/>
	<path class="st4" d="M309.2,391.6c-0.2-0.3-0.5-0.4-0.8-0.6c-0.3-0.1-0.6-0.2-0.9-0.1l-11.1,1.5c-0.5,0.1-0.9,0.2-1.3,0.5
		c-0.4,0.3-0.8,0.6-1,1l-23,35.4l1.8,1l12.2-0.4l24.5-37.9L309.2,391.6z"/>
	<path class="st2" d="M301.4,396.2c0.1,0.1,0.2,0.2,0.4,0.3c0.2,0.1,0.3,0.1,0.5,0c0.2,0,0.3-0.1,0.4-0.3c0.1-0.1,0.2-0.3,0.2-0.4
		c0-0.2,0-0.3-0.1-0.5c-0.1-0.1-0.2-0.3-0.4-0.3s-0.3-0.1-0.5,0c-0.2,0-0.3,0.1-0.4,0.2c-0.1,0.1-0.2,0.3-0.2,0.5
		S301.3,396,301.4,396.2z"/>
	<path class="st3" d="M309.6,392c-0.7,0.2-1.4,0.3-2.2,0.4l-5.9,0.9l-4.1,0.6c-0.3,0-0.7,0.1-1,0.3c-0.3,0.2-0.5,0.4-0.7,0.7l-1.3,2
		l-5.9,9.1c-4.2,6.4-8,12.2-10.8,16.4l-3.3,4.9c-0.4,0.6-0.8,1.2-1.3,1.8c0.3-0.7,0.7-1.3,1.1-1.9c0.8-1.3,1.9-3,3.2-5
		c2.7-4.2,6.5-10.1,10.6-16.5c2.1-3.2,4.1-6.2,5.9-9l1.3-2c0.2-0.3,0.6-0.6,0.9-0.8c0.4-0.2,0.8-0.3,1.2-0.4l4.1-0.5l5.9-0.7
		C308.1,392.1,308.8,392,309.6,392z"/>
	<path class="st5" d="M297.3,404.7c0,0-1-0.2-1.5,2.5c-0.5,2.7-2.3,10.5-2.3,10.5l-5.2-2.8l-6.5,0.8c0,0-1.4,1.3-0.4,2
		c1,0.7,5.1,1.4,5.1,1.4l3,4.3l-8.7-4.2c0,0-2.9,0.8-2,2.5c0.8,1.8,6.7,7.3,6.7,7.3l-4.3-0.3l-5.2-3.1c0,0-1.6,0.1-1,1.4
		c0.6,1.3,5.9,6.2,5.9,6.2l6.5,3.2c0,0,3.6-0.3,3.9-1.3c0.2-0.8,0.4-1.7,0.4-2.5c0,0,1.9-0.5,2.2-1.4c0.2-0.8,0.2-1.6,0.1-2.4
		c0,0,3,0.5,3.3-1.1c0.4-1.7,0.1-4.9-0.2-6.2c-0.3-1.3,1.3-13.1,1.1-13.4C298.3,407.8,299.1,403.9,297.3,404.7z"/>
	<path class="st6" d="M291.7,435.2c0,0.1-0.6,0.4-1.7,0.5c-2.9,0.4-5.8-0.3-8.2-2c-0.9-0.6-1.3-1.2-1.3-1.2c0.1-0.2,2.2,1.6,5.3,2.3
		C289,435.6,291.6,435,291.7,435.2z"/>
	<path class="st6" d="M290.1,432.8c-0.1,0.2-1.3-0.5-2.5-1.5c-1.2-1-2-2-1.9-2.2c0.1-0.1,1.1,0.6,2.3,1.6
		C289.3,431.8,290.2,432.7,290.1,432.8z"/>
	<path class="st6" d="M293.5,427.2c-0.1,0.2-1.2-0.4-2.4-1.5c-1.2-1.1-1.8-2.2-1.7-2.3c0.1-0.1,1,0.8,2.2,1.8
		C292.7,426.3,293.6,427.1,293.5,427.2z"/>
	<path class="st6" d="M297.1,422.7c-0.2,0.1-0.8-1.1-1.9-2.5c-1-1.3-2-2.3-1.9-2.4c0.1-0.2,1.4,0.6,2.4,2
		C296.9,421.2,297.3,422.6,297.1,422.7z"/>
	<path class="st7" d="M245.9,411.1c0,0-10.2-17.1-13.1-20.5c-2.3-2.7-5.2-4.8-8.4-6.2c-1.3-0.6-2.6-0.9-4-1.2l-14.7-3.3
		c0,0-0.1,6.7-10.7,7.1c-12.1,0.4-19.3-10.5-19.3-10.5s-17,2.6-21.1,4.7c-4.1,2.1-10.5,4.8-14,22.4l-2.5,17.3l29.3,2.7l2.8,43.6
		l14.6,10.1c0,0,40.4,10.5,42.9,11.2c2.6,0.7,3.4-65,3.4-65S241.6,417,245.9,411.1z"/>
	<path class="st3" d="M167.4,403.9c0.1,0,0.2,5.1,0.4,11.5c0.1,6.3,0.2,11.5,0.1,11.5s-0.2-5.1-0.4-11.5
		C167.3,409.1,167.3,403.9,167.4,403.9z"/>
	<path class="st3" d="M226.3,403.8c0.1,0.1,0.1,0.2,0.2,0.3l0.4,0.8c0.2,0.3,0.4,0.7,0.6,1.2c0.2,0.5,0.5,1,0.8,1.7
		c0.6,1.5,1.2,3,1.6,4.5c0.5,1.9,0.9,3.8,1.2,5.8c0.4,3.5,0.6,7.1,0.3,10.6c-0.1,1.4-0.2,2.5-0.3,3.2c0,0.4-0.1,0.6-0.1,0.9
		c0,0.1,0,0.2-0.1,0.3c0-0.1,0-0.2,0-0.3l0.1-0.9c0.1-0.8,0.1-1.9,0.2-3.2c0.2-3.5,0.1-7.1-0.4-10.6c-0.3-1.9-0.7-3.8-1.2-5.7
		c-0.4-1.5-1-3-1.6-4.5c-0.2-0.6-0.5-1.2-0.7-1.7c-0.2-0.5-0.4-0.9-0.6-1.2c-0.2-0.3-0.3-0.6-0.4-0.8
		C226.4,403.9,226.3,403.9,226.3,403.8z"/>
	<path class="st3" d="M209.4,380.8c0,0.6,0,1.2-0.2,1.9c-0.4,1.7-1.2,3.2-2.4,4.4c-1.8,1.8-4.1,3-6.6,3.5c-3,0.6-6.2,0.6-9.2-0.1
		c-3-0.7-5.9-1.8-8.5-3.4c-2.2-1.3-4.2-2.8-6-4.5c-1.2-1.2-2.3-2.5-3.3-3.8c-0.3-0.5-0.6-0.9-0.7-1.2c-0.1-0.1-0.2-0.3-0.2-0.4
		c0.1,0.1,0.2,0.2,0.3,0.4c0.2,0.3,0.4,0.6,0.8,1.1c1,1.3,2.1,2.6,3.4,3.7c1.8,1.7,3.8,3.2,6,4.4c2.6,1.5,5.5,2.7,8.5,3.3
		c3,0.7,6.1,0.7,9.1,0.1c2.5-0.5,4.7-1.6,6.5-3.4c1.2-1.2,2-2.7,2.4-4.3c0.1-0.4,0.2-0.9,0.2-1.3
		C209.3,380.9,209.4,380.8,209.4,380.8z"/>
	<path class="st5" d="M225.3,475.3l-55.3-12l-2.6-39.5l-24.6-2.3c0,0,0.9,27,1.9,35.1c1.4,11.6,8.2,27.3,12.2,30.5
		c4,3.2,70.8,1.7,70.8,1.7L225.3,475.3z"/>
	<path class="st5" d="M256.7,482.4c-0.2,0.4-0.5,0.7-0.8,0.9c-0.4,0.2-0.8,0.3-1.2,0.3c-0.2,0-0.4-0.1-0.5-0.1
		c-1.2-0.4-1.1-2.9-1.1-2.9l-5.9-1c0,0-7.6,4.9-10.3,8.2c-2.7,3.3-9.6,0.6-9.6,0.6l-2.4-12.5l10.8-9.8c0,0-0.7,0.6,0.1-1.2
		c0.7-1.8,4.1-1.1,4.1-1.1c0.5-0.9,2.7-1.2,2.7-1.2l9.5,1.1c1,0.1,1.9,0.4,2.7,0.9c0.8,0.5,1.5,1.2,2,2l4,6.3c0,0,2.1,4.6,1.8,5.6
		c-0.1,0.4-0.5,0.8-0.9,1c-0.4,0.2-0.9,0.3-1.3,0.2c0,0-0.5,3-1.3,3.1C258.3,483.1,256.7,482.4,256.7,482.4L256.7,482.4z"/>
	<path class="st6" d="M236.6,473.5c0,0.1,1.3,0,3.3,0.1c2.6,0.1,5.2,0.6,7.7,1.4c1.4,0.5,2.7,1,4,1.7c1.1,0.6,2.3,1.2,2.7,2
		c0.1,0.2,0.1,0.4,0.1,0.6c0,0.2-0.1,0.4-0.2,0.5c-0.2,0.3-0.4,0.5-0.7,0.6c-0.3,0.1-0.5,0.1-0.8,0.1c0,0,0.3,0.3,0.9,0.1
		c0.4-0.1,0.7-0.3,0.9-0.6c0.2-0.2,0.3-0.5,0.3-0.7c0-0.3,0-0.5-0.1-0.8c-0.2-0.5-0.7-1-1.2-1.3c-0.5-0.3-1.1-0.7-1.7-1
		c-3.7-2-7.8-3.1-12-3.1C237.8,473.1,236.6,473.4,236.6,473.5z"/>
	<path class="st6" d="M235.9,479.5c0,0.2,3.9,0,8.6,0.3c4.7,0.3,8.5,0.9,8.6,0.7c0-0.1-0.9-0.3-2.5-0.6c-2-0.3-4-0.6-6.1-0.7
		c-2-0.1-4.1-0.1-6.1,0C236.9,479.3,235.9,479.4,235.9,479.5z"/>
	<path class="st6" d="M256.7,482.2c0.1-0.3,0.1-0.7,0.1-1c0.1-0.9,0.1-1.8,0-2.8c0-0.6-0.1-1.3-0.3-1.9c-0.2-0.7-0.5-1.4-0.9-2.1
		c-0.9-1.4-2.1-2.7-3.5-3.6c-1.4-1-2.9-1.7-4.5-2.3c-1.3-0.4-2.7-0.6-4.1-0.6c-1.2,0-2.1,0-2.8,0c-0.3,0-0.7,0-1,0.1
		c0,0.1,1.4,0.1,3.7,0.3c1.3,0.1,2.7,0.3,3.9,0.7c1.5,0.6,3,1.3,4.4,2.3c1.3,0.9,2.5,2.1,3.4,3.4c0.9,1.2,1.1,2.6,1.2,3.7
		C256.6,480.7,256.5,482.2,256.7,482.2z"/>
	<path class="st6" d="M243,465c0,0.1,1.4,0.1,3.7,0.4c2.2,0.3,5.7,0.5,7.6,3.5c2.2,2.7,4,5.3,4.8,7.4c0.8,2.1,0.8,3.5,0.9,3.5
		c0.1-0.3,0.1-0.7,0-1c0-0.9-0.2-1.8-0.5-2.7c-0.7-2.2-2.5-4.9-4.7-7.6c-0.5-0.7-1.1-1.3-1.8-1.9c-0.7-0.5-1.4-0.8-2.2-1
		c-1.3-0.3-2.7-0.6-4-0.6C244.4,464.8,243,464.9,243,465z"/>
	<path class="st6" d="M238.9,485.8c0.2-0.1,0.4-0.3,0.5-0.4l1.6-1.3c2-1.5,4.1-3,6.2-4.3l-0.1,0l5.9,1l-0.2-0.2c0,0.5,0,1,0.1,1.4
		c0.1,0.5,0.3,1,0.7,1.4c0.2,0.2,0.5,0.3,0.8,0.4c0.3,0.1,0.5,0.1,0.8,0c0.6-0.1,1.1-0.4,1.5-0.8c0.1-0.1,0.2-0.2,0.3-0.4l0.1-0.1
		l0,0c0.1,0-0.7,0.2-0.3,0.1l0.2,0.1c0.2,0.1,0.5,0.2,0.8,0.3c0.3,0.1,0.5,0.1,0.8,0.2c0.1,0,0.3,0,0.4,0c0.2,0,0.4,0,0.5-0.1
		c0.3-0.2,0.5-0.5,0.6-0.8c0.1-0.3,0.2-0.5,0.3-0.8c0.2-0.5,0.3-1.1,0.4-1.7l-0.3,0.2c0.4,0.1,0.8,0.1,1.2-0.1s0.7-0.4,1-0.7
		c0.3-0.3,0.4-0.8,0.4-1.2c0-0.4-0.1-0.8-0.2-1.1c-0.4-1.4-1-2.8-1.6-4.2l-2.2-3.4l-1.4-2.2c-0.4-0.7-0.9-1.4-1.5-2.1
		c-0.6-0.6-1.3-1.1-2.1-1.4c-0.8-0.3-1.6-0.5-2.4-0.5l-8.9-1h-0.1c-0.5,0.1-1.1,0.2-1.6,0.4c-0.5,0.2-1,0.5-1.4,0.9l0.3-0.1
		c-0.5-0.2-1-0.3-1.5-0.3c-0.5,0-1,0.2-1.5,0.5c-0.8,0.6-1.3,1.4-1.5,2.4l0.1-0.1l-7.4,6.7l-2,1.8c-0.2,0.2-0.5,0.4-0.7,0.7
		c0.3-0.2,0.5-0.4,0.8-0.6l2.1-1.8l7.5-6.5l0.1,0v-0.1c0.2-0.8,0.6-1.6,1.3-2.1c0.4-0.2,0.8-0.4,1.3-0.4c0.4,0,0.9,0.1,1.3,0.3
		l0.2,0.1l0.1-0.2c0.3-0.3,0.7-0.6,1.1-0.7c0.5-0.2,1-0.3,1.5-0.4h-0.1l8.9,1.1c0.8,0,1.5,0.2,2.3,0.5c0.7,0.3,1.4,0.7,1.9,1.3
		c0.5,0.6,1,1.3,1.4,2l1.4,2.2l2.2,3.4v0c0.6,1.3,1.2,2.7,1.6,4.1c0.1,0.3,0.2,0.7,0.2,1c0,0.3-0.1,0.6-0.3,0.8
		c-0.2,0.2-0.4,0.4-0.7,0.5s-0.6,0.1-0.9,0l-0.3,0l0,0.3c-0.1,0.5-0.2,1.1-0.4,1.6c-0.1,0.5-0.3,0.9-0.6,1.3c-0.1,0-0.2,0-0.2,0
		c-0.1,0-0.2,0-0.4,0c-0.2,0-0.5-0.1-0.7-0.2c-0.2-0.1-0.5-0.2-0.7-0.2l-0.2-0.1l-0.3,0.1v0l0,0.1c-0.1,0.1-0.1,0.2-0.2,0.3
		c-0.3,0.3-0.7,0.6-1.1,0.6c-0.2,0-0.4,0-0.6,0c-0.2,0-0.4-0.1-0.5-0.2c-0.5-0.6-0.6-1.6-0.6-2.4v-0.2H253l-5.9-0.9h-0.1l-0.1,0
		c-2.1,1.3-4.2,2.8-6.1,4.5c-0.7,0.6-1.2,1-1.5,1.4C239.2,485.5,239,485.6,238.9,485.8z"/>
	<path class="st1" d="M336.8,427.7l-72.8,0.6c-2.4,0-4.6,1.1-5,3.5l-8,53.1h-37.5c-0.6,0-1.1,0.3-1.5,0.7c-0.4,0.4-0.6,0.9-0.6,1.5
		c0,0.6,0.2,1.1,0.6,1.5c0.4,0.4,0.9,0.6,1.5,0.7h119.8l8.2-56c0.1-0.7,0.1-1.4-0.1-2c-0.2-0.7-0.5-1.3-1-1.8
		c-0.4-0.5-1-0.9-1.6-1.2C338.1,427.8,337.5,427.7,336.8,427.7z"/>
	<path class="st3" d="M336.8,427.7c0.4,0,0.8,0,1.1,0.1c1,0.2,1.8,0.8,2.5,1.5c0.7,0.7,1.1,1.7,1.2,2.7c0.1,0.9-0.2,1.9-0.3,3
		c-0.3,2.2-0.7,4.6-1,7.4c-1.6,11.1-3.9,27.2-6.8,46.9v0.2h-0.2l-116.2,0.1H214c-0.6,0.1-1.1-0.1-1.6-0.3c-0.5-0.3-0.9-0.8-1.1-1.3
		c-0.2-0.6-0.2-1.2,0-1.7c0.2-0.6,0.6-1,1.1-1.3c0.5-0.3,1.1-0.4,1.6-0.3h13.7h23.3l-0.3,0.2c2.9-19,5.5-36.7,7.9-52.6
		c0.1-1.1,0.6-2.1,1.3-2.8c0.8-0.7,1.8-1.1,2.8-1.2c1-0.1,2-0.1,2.9-0.1h2.9l11-0.1l19.5-0.1l27.7-0.1h7.4h1.9
		C336.6,427.6,336.8,427.6,336.8,427.7c0,0-0.2,0-0.6,0l-1.9,0l-7.4,0.1l-27.7,0.3l-19.5,0.2l-11,0.1l-2.9,0c-1,0-1.9,0-2.9,0.1
		c-0.9,0.1-1.8,0.5-2.5,1.1c-0.7,0.6-1.1,1.5-1.2,2.5c-2.4,15.9-5,33.6-7.9,52.7l0,0.2H214c-0.5-0.1-0.9,0-1.4,0.2
		c-0.3,0.2-0.5,0.4-0.7,0.7c-0.2,0.3-0.3,0.6-0.3,1c0,0.3,0.1,0.7,0.3,1c0.2,0.3,0.4,0.5,0.7,0.7c0.4,0.2,0.9,0.3,1.4,0.2h3.1
		l116.2,0.1l-0.2,0.2c2.9-19.7,5.3-35.7,6.9-46.9c0.4-2.8,0.8-5.2,1.1-7.4c0.1-1.1,0.4-2.1,0.3-2.9c-0.1-0.8-0.4-1.6-0.8-2.3
		c-0.7-0.9-1.6-1.6-2.7-1.9C337.5,427.7,337.1,427.7,336.8,427.7z"/>
	<path class="st2" d="M297.3,462.3c2.5,0,4.6-2,4.6-4.6s-2-4.6-4.6-4.6c-2.5,0-4.6,2-4.6,4.6S294.8,462.3,297.3,462.3z"/>
	<path class="st3" d="M254,488.7c0.1,0,2.4-13.5,5.2-30.2c2.8-16.7,4.9-30.2,4.8-30.2c-0.1,0-2.4,13.5-5.2,30.2
		C256,475.1,253.9,488.7,254,488.7z"/>
</g>
</svg>
