<?xml version="1.0" encoding="utf-8"?>
<!-- Generator: Adobe Illustrator 25.2.1, SVG Export Plug-In . SVG Version: 6.00 Build 0)  -->
<svg version="1.1" id="Layer_1" xmlns="http://www.w3.org/2000/svg" xmlns:xlink="http://www.w3.org/1999/xlink" x="0px" y="0px"
	 width="461px" height="470px" viewBox="0 0 461 470" style="enable-background:new 0 0 461 470;" xml:space="preserve">
<style type="text/css">
	.st0{fill:none;stroke:#AFC3EC;stroke-linecap:round;}
	.st1{fill:none;stroke:#0D51D9;stroke-width:18;}
	.st2{fill:none;stroke:#0D51D9;stroke-width:3;stroke-miterlimit:4.0001;}
	.st3{clip-path:url(#SVGID_2_);}
	.st4{fill:none;stroke:#B6C9CF;stroke-width:3;stroke-linecap:round;stroke-linejoin:round;}
	.st5{fill:#EBF3FA;}
	.st6{opacity:0.8;}
	.st7{opacity:0.8;fill:#D7E5FF;enable-background:new    ;}
	.st8{opacity:0.8;fill:#AEC3FF;enable-background:new    ;}
	.st9{fill:#A8D29F;}
	.st10{fill:#FFB27D;}
	.st11{fill:#739AF0;}
	.st12{fill:#1C3154;}
	.st13{fill:#2A4E96;}
	.st14{fill:#233862;}
	.st15{fill:#6385DB;}
	.st16{fill:#ED985F;}
	.st17{fill:#2C3A64;}
	.st18{fill:#AEC3FF;}
	.st19{fill:#0D51D9;}
	.st20{fill:#ED7D2B;}
	.st21{fill:#7599EA;}
	.st22{fill:#90AFF4;}
	.st23{fill:#5888DD;}
	.st24{opacity:0.4;fill:#5888DD;enable-background:new    ;}
	.st25{fill:#607CF4;}
	.st26{fill:#E9F3FE;}
	.st27{fill:#E6EFFF;}
	.st28{fill:#113C68;}
	.st29{fill:#15447C;}
	.st30{fill:#FCA56B;}
	.st31{fill:#163560;}
	.st32{fill:#1F4D84;}
	.st33{opacity:0.5;}
	.st34{opacity:0.5;fill:#B3CFF9;enable-background:new    ;}
	.st35{fill:#ED975D;}
	.st36{fill:#FFFFFF;}
	.st37{fill:#1F447F;}
	.st38{fill:#B5453C;}
	.st39{fill:#E8945B;}
</style>
<path class="st0" d="M551.6,318.7c91.8,7.9,172.7-60.4,180.7-152.7S672.3-7.5,580.5-15.4C488.7-23.3,407.8,45,399.8,137.3"/>
<path class="st1" d="M403,214.5c14.4,1.2,24.9,13.8,23.7,27.8c-1.2,14-13.7,24.5-28.1,23.3s-24.9-13.8-23.7-27.8
	C376.1,223.8,388.6,213.3,403,214.5z"/>
<ellipse class="st2" cx="430.5" cy="2.5" rx="7.9" ry="7.9"/>
<g>
	<g>
		<g>
			<defs>
				<rect id="SVGID_1_" x="422.5" y="327.3" transform="matrix(0.5 -0.866 0.866 0.5 -86.2861 582.1421)" width="77" height="77"/>
			</defs>
			<clipPath id="SVGID_2_">
				<use xlink:href="#SVGID_1_"  style="overflow:visible;"/>
			</clipPath>
			<g class="st3">
				<path class="st4" d="M494.9,352L456,329.5c-3.1-1.8-7-0.7-8.8,2.3l-22.5,38.9c-1.8,3.1-0.7,7,2.3,8.8l39,22.5
					c3.1,1.8,7,0.7,8.8-2.3l22.5-38.9C499,357.7,498,353.8,494.9,352z"/>
				<path class="st4" d="M440.8,343l50,28.9"/>
				<path class="st4" d="M438.2,386l19.2-33.3"/>
			</g>
		</g>
	</g>
</g>
<g>
	<path class="st5" d="M369.2,468.7c-20.6,0-298.8-0.6-298.8-0.6c-0.1-0.3-35.3-43.4,9-88.5c22-22.4-20.2-51.3,0-76.2
		c34.6-42.6,68.7-18.6,97.2-30.6c5-2.1,10.1-5.5,15.1-10.7c2.8-2.9,6-5.5,9.3-7.7c0.5-0.3,1-0.7,1.6-1c2-1.2,4.1-2.4,6.2-3.4
		c1.4-0.7,2.9-1.3,4.4-1.9c2.4-0.9,4.8-1.7,7.3-2.4c3.5-0.9,7.1-1.7,10.8-2.1c1.6-0.2,3.2-0.4,4.9-0.5c31.8-2.4,67.6,11.1,86.1,30.7
		c3.7,4,20.6,24.5,7.3,52.6c-8.4,17.8,26.9,34.8,39.4,55.1C400.8,433.2,369.5,468,369.2,468.7z"/>
	<g class="st6">
		<path class="st7" d="M297.2,348.7c-0.8,2.3-1.9,4.6-3.1,6.6c-2.9,5-6.8,9.2-11.3,12.4c-10.5,7.5-24.4,9.9-37.4,5.2
			c-15.5-5.6-25.5-19.8-26.6-35.3c-0.1-2-0.1-4.1,0.1-6.2c0.3-3.5,1.1-7,2.3-10.4c1-2.8,2.3-5.4,3.8-7.8c0,0,0-0.1,0.1-0.1
			c4.2-6.6,10.2-11.7,17-15c1.9-0.9,4-1.7,6-2.3c1-0.3,2-0.5,3-0.7c7.1-1.5,14.6-1,21.9,1.6c1,0.3,1.9,0.7,2.8,1.2
			c1.3,0.6,2.6,1.2,3.8,1.9c5.1,3,9.4,7,12.6,11.6c2,2.9,3.7,6,4.9,9.3c0.6,1.7,1.2,3.5,1.6,5.3c0.2,1.1,0.4,2.3,0.6,3.4
			c0.4,2.8,0.4,5.6,0.2,8.4C299.2,341.6,298.4,345.2,297.2,348.7z"/>
		<g class="st6">
			<path class="st8" d="M252.4,313.1c-2.4,1.8-1.7,6.8-5.9,4c-4.1-2.8-6.7-4.3-7.9-1.9c-1.2,2.4,2.5,3.8,1.5,6.4
				c-1,2.7-2.9,2.9-5,0.8c-2.1-2.2-2.1-4.3-5.5-4.2c-3.3,0.1-4.8-1.3-4.6-3.8c0-0.4,0-0.8-0.1-1.2c0,0,0-0.1,0.1-0.1
				c4.2-6.6,10.2-11.7,17-15c1.9-0.9,4-1.7,6-2.3c1-0.3,2-0.5,3-0.7c1.2,0.5,2.4,1.4,3.1,3.4c1.5,4.2,3.8,3.2,1.8,6.8
				c-2,3.6-1.2,4.4,1,5.1c2.2,0.7,4.7,1.6,4.4,3.3C261,315.5,254.8,311.3,252.4,313.1z"/>
			<path class="st8" d="M297.2,348.7c-0.8,2.3-1.9,4.6-3.1,6.6c-2.9,5-6.8,9.2-11.3,12.4c-1.1,0-2.2-0.4-3-1.2
				c-4.1-3.6,1.3-7.5,4.1-9.3c2.8-1.9-2.4-2.5-5.1-6.1c-2.7-3.7,3.6-8.6-0.4-8.8s-8.8-0.5-9.6-4.8c-0.8-4.3,3.4-3.4,2.6-7
				c-0.7-3.6,2.7-4.3,6.4-3.2c3.7,1,4.2-1.7,8.8-0.5c4.6,1.2,2.4,6.9,7.5,8.3c5.1,1.4,4.4,2.5,4.4,2.5c0.4,0.1,0.7,0.3,0.9,0.6
				C299.2,341.6,298.4,345.2,297.2,348.7z"/>
			<path class="st8" d="M299.3,329.6c-4.8,0.5-4.5-5.5-8.6-5.2c-4.1,0.4-2.4-2.6-4.4-5.6c-2-3-8.9-1.4-7.5-4.5
				c1.4-3.1,5.2-0.7,7.1-2.9c1.8-2.2,5.6-0.1,5.6-0.1c0.3,0,0.5,0,0.8,0.1c2,2.9,3.7,6,4.9,9.3c0.6,1.7,1.2,3.5,1.6,5.3
				C298.9,327.3,299.1,328.5,299.3,329.6z"/>
			<path class="st8" d="M268.7,306.2c0,0,3.3-2.3,0.2-4.5c-3.1-2.2-3.5-0.9-6-2.2c-2.6-1.2-4.3,0.4-3.2,3.4c1.2,3,1.2,7.9,3.9,6.2
				C266.2,307.5,266.5,305.6,268.7,306.2z"/>
		</g>
	</g>
	<path class="st9" d="M79.6,468.2h14.1c0.7-0.6-0.5-2.1-1.9-2.2c-0.6,0-1.3,0.1-2.2,0.2c-0.2-2.6-1.3-14.2-5.5-13.7
		c-4.7,0.5,0,5.1,1.3,7.8c1,2,2,4.9,2.5,6.2c-0.4,0.1-0.8,0.2-1.2,0.2c-0.6-1.9-2.9-8.3-5.9-8c-3.5,0.4-2.1,3,0.4,4.6
		c1.8,1.1,4,2.7,5.1,3.5c-0.9,0.1-1.8,0.2-2.8,0.2C81.2,467.1,80,467.8,79.6,468.2z"/>
	<path class="st9" d="M304.1,468.2H291c-0.7-0.6,0.5-1.9,1.7-2c0.5,0,1.2,0.1,2,0.2c0.2-2.4,1.2-13.2,5.1-12.7
		c4.4,0.5,0,4.7-1.2,7.3c-0.9,1.9-1.9,4.5-2.3,5.8c0.4,0.1,0.7,0.2,1.1,0.2c0.6-1.8,2.7-7.7,5.5-7.4c3.2,0.4,1.9,2.8-0.4,4.2
		c-1.7,1-3.7,2.5-4.7,3.2c0.8,0.1,1.7,0.2,2.6,0.2C302.6,467.2,303.7,467.8,304.1,468.2z"/>
	<path class="st10" d="M313.5,382.3c0,0,0.3-3.1-1.3-3c-1.6,0.1-2.1,0.8-1.9,1.4c0.2,0.6,1.8,2.6,1.8,2.6L313.5,382.3z"/>
	<path class="st11" d="M338.7,388.5c0,0-1.8,2.1-5.7,4.5c-0.4,0.2-0.8,0.5-1.2,0.7c-1.5,0.9-3.3,1.8-5.3,2.6
		c-0.2,0.1-0.5,0.2-0.8,0.3c-2.3,0.8-6.6,2-9.2,2.1c-0.2,0-0.4,0-0.7,0c-4-0.2-4.5-15.7-4.5-15.7s0.4-1.6,2.5-1.2
		c0,0,3.1,8.8,4.3,9.5c1,0.6,6.7-8.1,11.7-8.7C333.2,382.3,338.7,388.5,338.7,388.5z"/>
	<path class="st12" d="M327.9,464.5c0,0,0.3,3.4-0.4,3.8l-9.3,0c0,0,0-1.1,1.5-1.3c1.5-0.2,4.1-1.1,4.6-3.1
		C324.7,462,327.9,464.5,327.9,464.5z"/>
	<path class="st13" d="M321.1,423c0,2.2,0.2,4.6,0.4,6.6c1,9.9,1.4,21.8,1.5,24.1c0.2,4,1,10.4,1,10.4s1.6,1.5,4.6,0.8
		c0,0,2.5-9.2,3.1-18.9c0-0.2,0-0.3,0-0.5c0.1-1.3,0.1-2.7,0.2-4.3c0.5-10.6,1-26.2,1-26.2l-11.7-2.7
		C321.3,412.3,321,417.4,321.1,423z"/>
	<path class="st14" d="M321.1,423c3,5.1,8.6,14.5,10.8,18.2c0.5-10.6,1-26.2,1-26.2l-11.7-2.7C321.3,412.3,321,417.4,321.1,423z"/>
	<path class="st15" d="M325.9,396.7c-2.3,0.8-6.6,2-9.2,2.1c0.4-0.1,3.3-0.7,4.4-2c1.2-1.4,3.1-5.2,4.7-3.7
		C326.5,393.9,326.3,395.3,325.9,396.7z"/>
	<path class="st10" d="M345.4,421.3c0,0,0.7,2.8,0.6,3.5c-0.1,0.6-0.8,2.8-1.3,3.3c-0.4,0.5-0.5-2.3-0.8-2.8
		c-0.3-0.4-0.1,1.1-0.4,1.2c-0.2,0.1-0.6-1.1-0.8-1.6c-0.2-0.4,0.6-2,0.7-3.1C343.6,420.7,345.4,421.3,345.4,421.3z"/>
	<path class="st12" d="M351.1,460.6c0,0,1.7,1.5,1.3,2.6c-0.3,1.1-1.8,1.8-2,3.1c-0.2,1.3-1,2-1.7,2c-0.7,0-3.5,0-3.5,0
		s-0.5-0.9,0.8-1.2c1.3-0.3,1.8-1.8,1.7-3.2c-0.1-1.4,0.1-3.3,0.1-3.3l2.7-0.6L351.1,460.6z"/>
	<path class="st13" d="M323.1,415.2c0,0,10.9,23.3,16.7,33.6c5.8,10.2,7.6,13.1,7.6,13.1s3.3-1.3,3.6-2.2c0,0-2.2-19.8-6.1-24.6
		c-2.2-2.7-4.8-10.9-4.9-13.7s-2.7-9.7-2.7-9.7L323.1,415.2z"/>
	<path class="st11" d="M321.1,414c0,0,3.6,3.8,9.6,5c2.7,0.5,8,1,9.4-0.9c0.3-0.4,0.3-1.1,0.2-2.1c-0.2-2.7-0.8-7.8,2.2-18.1
		c0.3-1,0.5-1.9,0.6-2.8c0.7-5.3,0.6-9.3-4-11.4c-6.9-3.2-9.7-0.6-9.7-0.6s-3.7,1.7-5.3,6.7C320.7,399.7,321.1,414,321.1,414z"/>
	<path class="st10" d="M334.9,382.8c-1.2,0.8-3.2,1.3-5.1,0.3c-0.2-0.1-0.1-1.1-0.1-2.1c0-1,0.1-2,0.1-2l2.4-1.6l2.3-1.5
		C334.3,381.2,335.4,382.4,334.9,382.8z"/>
	<path class="st16" d="M334.2,378.1c0,0-1.6,2.4-4.5,2.9c0-1,0.1-2.1,0.1-2.1l2.4-1.5L334.2,378.1z"/>
	<path class="st10" d="M327.6,378.4c0,0,5.9,2.2,7.2-1.4c1.3-3.6,3-5.8-0.8-7.4c-3.7-1.6-5-0.4-5.7,0.7
		C327.7,371.4,326.1,377.8,327.6,378.4z"/>
	<path class="st17" d="M338.5,370c0.1-0.1,0.2-0.1,0.5,0c0,0-0.2-0.2-0.5-0.2c0-0.4-0.1-1.2-0.7-1.5c0,0,0.3,0.3,0.3,0.7
		c-0.6-1-2.2-1.9-7-2.4c-6.3-0.7-5,3.6-4.3,4.2s3-0.3,4.4,0.2c1.5,0.4,1.3,2.6,1.8,3c0.4,0.4,0.3-0.2,1.1-0.3c0.8-0.2,0.6,1,0.2,1.7
		c-0.3,0.7,0.4,1.9,0.4,1.9s0,0,1.2-0.8c1.2-0.8,2.9-5,2.7-6C338.6,370.2,338.6,370.1,338.5,370z"/>
	<path class="st15" d="M340.3,416c-0.2-2.7-0.8-7.8,2.2-18.1c0.3-1,0.5-1.9,0.6-2.8c-2.2-0.7-6.3,0.9-6.3,0.9S335.7,409.6,340.3,416
		z"/>
	<path class="st11" d="M340.3,384.4c0,0,2.8,1,4.5,8.3c1.2,4.8,3.3,11.9,3.5,14.2c0.2,2.2-2.4,15.3-2.4,15.3s-0.4,0.3-1.3,0.1
		c-0.9-0.2-1.3-0.8-1.3-0.8s-0.6-8.7-0.5-12.8c0.1-1.7-7.9-12.5-12.2-13.9C328.9,394.2,340.3,384.4,340.3,384.4z"/>
	<path class="st18" d="M301.6,374.9c0,0,8-0.2,17.2,1.5l1-2.4l1.1-2.7c0,0-9.2-4-14.8-9.5L301.6,374.9z"/>
	<path class="st19" d="M306.2,361.6l-4.6,13.5c-0.7-0.2-1-0.9-0.8-1.6l4-11.4C305,361.7,305.6,361.4,306.2,361.6z"/>
	<path class="st19" d="M310.5,385c0.9,0.2,1.8-0.4,1.9-1.3l1.6-7.9c0.2-0.9-0.4-1.8-1.3-1.9c-0.9-0.2-1.8,0.4-1.9,1.3l-1.6,7.9
		C309.1,383.9,309.7,384.8,310.5,385z"/>
	<path class="st11" d="M301.6,374.9c0,0,8-0.2,17.2,1.5l1-2.4C311.1,372.2,301.6,374.9,301.6,374.9z"/>
	<path class="st19" d="M316.3,375.9l2.5,0.4c0,0,2.3,0.5,3.1-1.6c0.1-0.1,0.1-0.3,0.2-0.4c0.6-2.6-0.8-3.1-0.8-3.1l-3.2-1.2l-1,3.6
		c0,0,0,0,0,0L316.3,375.9z"/>
	<path class="st20" d="M316.3,375.9l2.5,0.4c0,0,2.3,0.5,3.1-1.6c-1.4-1-4.9-1.2-4.9-1.2s0,0,0,0L316.3,375.9z"/>
	<path class="st10" d="M310.8,377.3c0,0,1.2,0.5,1,1c-0.2,0.5-1.8,1.3-2,0.8C309.5,378.8,310,376.9,310.8,377.3z"/>
	<path class="st10" d="M313.5,381.8c0,0,0.2-1.2,0.2-1.8c0-0.6,0.1-1-0.1-1.1c-0.1,0-0.2,0.1-0.3,0.3c-0.1,0.2-0.3,1.3-0.3,1.3
		l0.1,1.1L313.5,381.8z"/>
	<path class="st21" d="M192.8,381l-6.9,82.2c0,0-0.7,5,3,5c6.1,0,30.3,0,30.3,0s-4.6-1-4.5-3.4c0.1-2.8,8.1-84.6,8.1-84.6L192.8,381
		z"/>
	<path class="st22" d="M221.5,466.7c-1.2,0-24.7,0-30.6,0c-2.6,0-3-2.3-3.1-3.8c0-0.7,0.1-1.2,0.1-1.2l0.2-2.1l0.5-5.4l0.4-4.8
		l0.5-6.2l0.4-5.2l4.9-58.4l29.9-0.8c0,0-3.4,34.2-5.8,59.2c-0.3,2.8-0.5,5.4-0.7,7.9c-0.1,0.8-0.2,1.6-0.2,2.3
		c-0.2,2.4-0.4,4.5-0.6,6.4c-0.1,1-0.2,1.9-0.2,2.8c-0.3,3.4-0.5,5.5-0.5,5.9c0,0.2,0,0.5,0.1,0.7
		C217.2,466.6,221,466.7,221.5,466.7z"/>
	<path class="st18" d="M120.1,336.3l16.8,67.6l2.3,9.3l7.8,31.5h145.7l-28.9-108.4H120.1z"/>
	<path class="st22" d="M120.1,336.3l-2.3,0.8L144,447l3.1-2.4L120.1,336.3z"/>
	<path class="st21" d="M144,447h144.8l4-2.4H147.1L144,447z"/>
	<path class="st18" d="M194.8,468.2h31.3v-1.5h-31.3V468.2z"/>
	<path class="st23" d="M218.2,447l-0.2,1.1l-29.5,6l0.4-4.8l0.2-2.3H218.2z"/>
	<path class="st24" d="M221.5,466.7c-1.2,0-24.7,0-30.6,0c-2.6,0-3-2.3-3.1-3.8l29.3-5.5c-0.3,3.4-0.5,5.5-0.5,5.9
		c0,0.2,0,0.5,0.1,0.7C217.2,466.6,221,466.7,221.5,466.7z"/>
	<path class="st18" d="M120.1,336.3h143.8l23.3,87.1H141.8L120.1,336.3z"/>
	<path class="st11" d="M280.4,419.6H145.8l-4.8-19.2l-1.9-7.4l-0.8-3l-4.9-19.7l-0.2-1l-2.6-10.4l-1.2-4.7l-1-4l-2.3-9.3h132.7
		l2.6,9.3l1.1,4l1.3,4.7l8.5,30.7l0.7,2.6l0.3,1.2l5.8,21.2L280.4,419.6z"/>
	<path class="st25" d="M261.3,350.2H128.4l-2.3-9.3h132.7L261.3,350.2z"/>
	<path class="st26" d="M131.5,345.1c-0.2-0.6,0.2-1.2,0.9-1.2c0.6,0,1.3,0.5,1.5,1.2c0.2,0.6-0.2,1.2-0.9,1.2
		C132.3,346.3,131.7,345.8,131.5,345.1z"/>
	<path class="st26" d="M135.4,345.1c-0.2-0.6,0.2-1.2,0.9-1.2c0.6,0,1.3,0.5,1.5,1.2c0.2,0.6-0.2,1.2-0.9,1.2
		C136.2,346.3,135.6,345.8,135.4,345.1z"/>
	<path class="st26" d="M139.6,345.1c-0.2-0.6,0.2-1.2,0.9-1.2s1.3,0.5,1.5,1.2c0.2,0.6-0.2,1.2-0.9,1.2
		C140.4,346.3,139.7,345.8,139.6,345.1z"/>
	<path class="st19" d="M232.3,286.8c5.4-6.4,13.8-19.2,19.5-25.8c1.2-1.3,0.2-3.4-1.6-3.4h-10.3l9.7-21.9c0.4-0.9-0.9-1.7-1.5-0.9
		l-23.5,31.4c-0.7,0.9,0.1,2.2,1.2,2.1l11.6-1.4l-6.9,19C230.2,286.8,231.6,287.6,232.3,286.8z"/>
	<path class="st18" d="M183.9,325.7c1.2-6.3,2-17.9,3.3-24.4c0.3-1.3-1.2-2.4-2.3-1.7l-6.8,3.8l-1.8-18.2c-0.1-0.8-1.2-0.8-1.3,0
		l-3.8,29.6c-0.1,0.9,0.9,1.4,1.6,0.9l7.2-5.3l2.5,15.2C182.6,326.5,183.8,326.5,183.9,325.7z"/>
	<path class="st27" d="M286.3,421.5l-117,9.9c-8.9,0.7-15.3-8.3-11.7-16.4L207.2,304c3.7-8.4,15.3-9.4,20.4-1.7l67.4,101
		C300,410.7,295.2,420.7,286.3,421.5z"/>
	<path class="st19" d="M286.6,425.9l-117,9.9c-5.8,0.5-11.2-2-14.5-6.7c-3.3-4.7-3.9-10.7-1.6-15.9l49.6-110.9
		c2.4-5.4,7.4-9,13.4-9.5c5.9-0.5,11.5,2.2,14.8,7.1l67.4,101c3.2,4.8,3.6,10.8,1.1,16C297.3,422,292.4,425.4,286.6,425.9z
		 M217.3,301.5c-2.7,0.2-4.9,1.8-6,4.3l-49.6,110.9c-1.1,2.4-0.8,5.1,0.7,7.2c1.5,2.1,3.9,3.2,6.5,3l117-9.9
		c2.6-0.2,4.8-1.8,5.9-4.1c1.1-2.3,0.9-5-0.5-7.2l-67.4-101C222.4,302.5,220,301.3,217.3,301.5z"/>
	<path class="st19" d="M214.5,404.5c-0.1-1.5,0-2.9,0.5-4.2c0.4-1.3,1.1-2.5,2-3.5c0.9-1,2-1.8,3.4-2.5c1.3-0.6,2.9-1,4.6-1.2
		c1.7-0.1,3.3,0,4.8,0.4c1.4,0.4,2.7,1,3.8,1.9c1.1,0.8,1.9,1.9,2.6,3.1c0.6,1.2,1,2.6,1.2,4.1c0.1,1.5,0,2.9-0.5,4.2
		c-0.4,1.3-1.1,2.5-2,3.5c-0.9,1-2,1.8-3.4,2.5c-1.4,0.6-2.9,1-4.6,1.2c-1.7,0.2-3.3,0-4.7-0.4c-1.4-0.4-2.7-1-3.7-1.9
		c-1.1-0.8-1.9-1.9-2.6-3.1C215,407.4,214.7,406,214.5,404.5z M232.6,383.3l-16.8,1.4l-7.2-57.4l21.6-1.8L232.6,383.3z"/>
	<path class="st10" d="M141.9,386.9c0,0,0.4-0.8,0.6-1.2c0.2-0.4,1.2-1.5,1.4-1.3c0.2,0.3,0.9,2,0.5,2.5s0,1.3-1.8,1.8L141.9,386.9z
		"/>
	<path class="st20" d="M121.6,381.6c0,0,9.3,7.8,13,7.1c2.8-0.6,7.4-2,7.4-2s1.2,1.1,0.8,2.5c0,0-5.7,5.4-9.8,5.4
		c-6.4,0.1-9.4-3.2-9.4-3.2L121.6,381.6z"/>
	<path class="st28" d="M105.2,463.9c0,0,0.3,4.4,1.1,4.4c0.1,0,4.3,0,4.3,0l5.3,0c0,0,0-1.3-1.6-1.6c-1.6-0.3-4.2-1.4-5.1-3.4
		C108.3,461.2,105.2,463.9,105.2,463.9z"/>
	<path class="st13" d="M104.9,464.2c0,0,1.6,0.5,2.9,0.5c1.4,0,2.7-0.4,2.7-0.4s0.3-3,2-9.5c0.9-3.4,2.1-7.8,3.9-13.2
		c5-15.1,6.5-23.9,6.6-24.7c0,0,0-0.1,0-0.1l0,0l-15.2-6.7c0,0,1.9,20.8-0.5,28.7c-0.3,1.1-0.6,2.4-0.9,3.8
		C104.9,451.4,104.9,464.2,104.9,464.2z"/>
	<path class="st14" d="M112.5,454.9c0.9-3.4,2.1-7.8,3.9-13.2c5-15.1,6.5-23.9,6.6-24.7c0,0,0,0,0-0.1l-15.2-6.7
		c0,0,1.9,20.8-0.5,28.7C106.9,440,112.5,454.9,112.5,454.9z"/>
	<path class="st29" d="M117.1,463.9c0,0,0.3,4.4,1.1,4.4c0.1,0,4.3,0,4.3,0l5.3,0c0,0,0-1.3-1.6-1.6c-1.6-0.3-4.2-1.4-5.1-3.4
		C120.2,461.2,117.1,463.9,117.1,463.9z"/>
	<path class="st13" d="M125.7,410.7c0,0,0.2,13.5-2.1,30c-2.3,16.5-1.5,23.5-1.5,23.5s-1.6,0.5-2.2,0.6c-1.6,0.1-3.3-0.4-3.3-0.4
		s-3.3-16.5-2.4-24.8c1-8.3-4.6-28.4-4.6-28.4L125.7,410.7z"/>
	<path class="st10" d="M115,379.2l3,1.9l2.7-0.8c0.5-0.7,0.6-2.1,0.6-3.2c0-1.2-0.1-2.2-0.1-2.2l-4-1.8l-1.5-0.7
		c0,0,0.1,1.2,0.1,1.4C116.1,377.1,115,379.2,115,379.2z"/>
	<path class="st19" d="M125.8,414.4c-3.7,3.6-17.7,3-18.6-1c-0.9-3.9,0.9-33.5,7.3-35.3c1.3-0.4,8.3,1.9,8.3,1.9s1.1,2.9,1.8,6.5
		c0.1,0.7,0.5,8.3,0.9,15.3c0.1,3.3,0.3,6.5,0.3,8.8C125.9,412.9,125.9,414.4,125.8,414.4z"/>
	<path class="st30" d="M116.1,374c0.8,1.4,3.7,2.6,5.2,3.1c0-1.2-0.1-2.2-0.1-2.2l-4-1.8C116.3,373.2,115.7,373.4,116.1,374z"/>
	<path class="st10" d="M122.7,374.7c0,0-6.5,2-7.7-2c-1.2-4-2.8-6.5,1.2-8c4.1-1.5,5.3-0.2,6.1,1.1
		C123.1,367.1,124.3,374.1,122.7,374.7z"/>
	<path class="st31" d="M122.1,365.5c0,0-0.4,4.7-1.4,4.5c-1-0.2-2-0.6-1.9,0.8c0.1,1.4-0.9,3.8-2.3,3.8c-3,0-6.3-7.7-5.5-9.2
		C113.4,361.2,125.5,360.3,122.1,365.5z"/>
	<path class="st20" d="M121.1,378.2c-0.1,0-4.8-2.2-5.4-2c-0.6,0.2-1.2,1.9-1.2,1.9l8.3,1.9C122.8,380,122.2,378.7,121.1,378.2z"/>
	<path class="st32" d="M150.5,401.1L124.1,426c-0.5,0.5-1.2,0.6-1.5,0.3l-0.9-0.9c-0.3-0.3-0.1-0.9,0.4-1.4l26.5-24.9
		c0.5-0.5,1.2-0.6,1.5-0.3l0.9,0.9C151.2,400,151.1,400.6,150.5,401.1z"/>
	<path class="st11" d="M135.7,415.1L124.1,426c-0.5,0.5-1.2,0.6-1.5,0.3l-0.9-0.9c-0.3-0.3-0.1-0.9,0.4-1.4l11.6-10.9L135.7,415.1z"
		/>
	<path class="st32" d="M144.5,391.7c1,3.3,2.9,6.5,5.6,9.1c8.3,7.9,21.5,7.5,29.3-0.9c7.7-8.2,7.5-21.1-0.6-29
		c-0.1-0.1-0.2-0.2-0.3-0.3c-8.3-7.9-21.5-7.5-29.3,0.9C143.9,377,142.4,384.8,144.5,391.7z M150.4,372.5c4.6-4.9,11.1-6.8,17.2-5.7
		c3.6,0.6,7,2.2,9.8,4.9c7.7,7.2,8.1,19.3,0.8,27c-2.7,2.8-6,4.7-9.5,5.5c-6,1.4-12.7-0.1-17.5-4.7
		C143.5,392.3,143.1,380.2,150.4,372.5z"/>
	<g class="st33">
		<path class="st34" d="M178.2,398.7c-2.7,2.8-6,4.7-9.5,5.5c-6,1.4-12.7-0.1-17.5-4.7c-7.7-7.2-8.1-19.3-0.8-27
			c4.6-4.9,11.1-6.8,17.2-5.7c3.6,0.6,7,2.2,9.8,4.9C185.1,378.9,185.5,391,178.2,398.7z"/>
	</g>
	<path class="st20" d="M125.8,410.7c-14.6-10.4-13.4-24.3-13.4-24.3c5.3,3,10.6,9.7,13.1,15.4C125.6,405.2,125.8,408.4,125.8,410.7z
		"/>
	<path class="st10" d="M140.2,406c1-0.2,1.7-1,1.9-1.2c0,0,0.4,0-0.1,1c0,0.1-0.1,0.3-0.2,0.4c0,0.1,0,0.1,0.1,0.1
		c0.6,0,1.2-0.2,2.3,0.1c0.2,0,0.2,0.4,0.2,0.6c0,0.3,0,0.6-0.3,1c-0.2,0.2-0.7,0.5-1.8,1c-0.4,0.2-1.7,0-2.8-0.4l-0.9-0.4l0.3-1.7
		l0.2,0.1C139.4,406.5,139.9,406.1,140.2,406z"/>
	<path class="st19" d="M117,380c0,0-13.1,2.5,3.9,21.5c2.7,3,17.4,7,17.4,7s1.5-1.3,0.7-2.3c0,0-10.1-7.3-12.3-8.5
		c-1-0.5-3.9-11.7-5.5-14.4C119.5,380.6,117,380,117,380z"/>
	<path class="st10" d="M142.3,387.1c0,0,0.4-0.8,0.5-1.2c0.1-0.4,0.6-1.7,0.8-1.9c0.1-0.1,0.4,0,0.4,0.4c0,0.2-0.1,0.5-0.2,0.8
		c-0.2,0.6-0.2,1.4-0.3,1.7C143.3,387.5,142.3,387.1,142.3,387.1z"/>
	<path class="st10" d="M147.5,354.5c-0.2,0.2-0.2,0.5-0.1,0.8c0.2,0.6,0.9,1.2,1.7,1.8c0.1,0.1,0.2,0.2,0.3,0.2c0,0,0,0,0.1,0.1
		c0,0,0,0,0,0c0.7,0.7,0.5,0.8,1.8,2.2c1.5,1.6,2.5,1.6,2.8,1.4c0.2-0.1-0.2-0.9-0.8-1.9c0,0-0.1-0.1-0.1-0.1
		c-0.1-0.1-0.2-0.2-0.2-0.4c-0.7-1.1-0.5-1.6-0.3-3.3c0.1-1.3,2.1-7.5,2.1-7.5l-2.9-0.5c0,0-0.9,4.9-1.8,5.7
		c-0.5,0.4-1.1,0.4-1.6,0.7c0,0-0.1,0-0.1,0.1C148,354.1,147.7,354.3,147.5,354.5z"/>
	<path class="st14" d="M147.5,354.5c-0.2,0.2-0.2,0.5-0.1,0.8c0.2,0.6,0.9,1.2,1.7,1.8c0.1,0.1,0.2,0.2,0.3,0.2c0,0,0,0,0.1,0.1
		c0,0,0,0,0,0c0.7,0.7,0.5,0.8,1.8,2.2c1.5,1.6,2.5,1.6,2.8,1.4c0.2-0.1-0.2-0.9-0.8-1.9c-0.3-0.1-1.6-0.7-2.7-2
		c-0.9-1.1-1.5-2.5-2-3.4c-0.1,0-0.1,0-0.2,0C148,354.1,147.7,354.3,147.5,354.5z"/>
	<path class="st10" d="M170.6,352.8c0.2,0.9,1.4,0.7,2.8,0.4c1.4-0.3,1.1,0.1,3.1-0.2c2-0.2,2.6-1,2.7-1.3c0.1-0.3-0.9-0.4-2-0.5
		c-0.1,0-0.3,0-0.4,0c-1.2-0.2-2.1-0.9-3.2-1.6c-1-0.6-2.6-3.1-2.6-3.1l-2.8,0.2c0,0,1.4,2.2,2,3.2c0.3,0.6,0.3,1.3,0.3,1.9
		C170.5,352.1,170.5,352.5,170.6,352.8z"/>
	<path class="st14" d="M173.4,353.1c1.4-0.3,1.1,0.1,3.1-0.2c2-0.2,2.6-1,2.7-1.3c0.1-0.3-0.9-0.4-2-0.5l0,0c0,0-1.2,0.8-2.9,0.9
		c-1.4,0-2.8-0.4-3.7-0.3c0,0.3,0,0.6,0,0.9C170.8,353.6,172,353.5,173.4,353.1z"/>
	<path class="st14" d="M160.1,335.2l-2.6,6.9l-3.4,9c0,0-0.9,0.1-1.8-0.2c-0.8-0.2-1.7-0.8-1.7-0.8s0.9-9.7,2.7-15.3
		c0.4-1.4,0.9-2.6,1.5-3.2C157.5,328.4,160.1,335.2,160.1,335.2z"/>
	<path class="st13" d="M157.5,324.2c-1.5-0.5-5.3,0-9.4,0.7c-1.1,0.2-2.3-0.3-2.9-1.3l-10.4-0.8c0,0-3.4,7.6-1.6,12.5
		c0.3,0.7,0.9,1.2,1.8,1.2c0,0,6.3,0,8.3,0c5.2,0,11-3.6,11.7-3.7c1.2-0.2,1.7,2.2,2.9,4.8c1.2,2.6,11.5,11.4,11.5,11.4
		s1.6,0,2.2-0.2c0.7-0.3,1-0.6,1-0.6S161.2,325.4,157.5,324.2z"/>
	<path class="st14" d="M144,293c-0.8-0.5-1.5-0.5-2-0.5c-0.3,0-0.6,0-1-0.1c-4-0.6-6.4,5.2-6.5,6.9c-0.3,3.2-2,3.7-4.3,5.7
		c-4.8,4-3.4,8.7-0.8,10.4c1.6,1,4.3,0,4.3,0c0,0,7.6-4.2,11.3-6.2C150.6,308.5,146.3,294.3,144,293z"/>
	<path class="st10" d="M142,307.5c0,0-1.8,0.6-3.1,0.1c-1.2-0.5-2-2.4-2-2.4c0.5,0,1.1-0.5,1.6-3.5l0.2,0.1l3.8,1.4
		c0,0-0.3,1.2-0.4,2.4C141.8,306.4,141.7,307.4,142,307.5z"/>
	<path class="st35" d="M142.4,303.1c0,0-0.2,0.7-0.4,1.9c-2.2-0.4-3.1-2.1-3.4-3.2L142.4,303.1z"/>
	<path class="st10" d="M143,304.3c0,0-5.2-0.7-4.7-3.9c0.5-3.2,0.1-5.5,3.5-5.2c3.3,0.3,3.8,1.6,3.9,2.7
		C145.7,299.1,144.4,304.4,143,304.3z"/>
	<path class="st14" d="M145.5,296.2c0,0-3.3,2.8-5.6,3.1c-2.2,0.2-3.1-0.5-3.1-0.5s1.3-1.1,2.1-2.9c0.2-0.5,0.7-0.9,1.3-0.9
		C141.8,294.9,144.9,294.8,145.5,296.2z"/>
	<path class="st14" d="M143.4,296c0,0,1.1,1.1,1.5,1.9c0.3,0.8,0.4,2.6,0.2,3.3c0,0,1.7-3.3,0.7-5C144.7,294.5,143.4,296,143.4,296z
		"/>
	<path class="st19" d="M146.3,315.1c-0.2,10.5,0,8.3-1.2,9.3c-0.3,0.2-1.1,0.4-2.1,0.4c-3.2,0.2-8.8-0.3-9.1-0.9
		c-0.7-2.1-0.2-2.7-0.8-5.8c-0.1-0.3-0.1-0.7-0.2-1.1c-0.5-2.2-1-2.9,0.8-6.3c1.7-3.1,3.4-5.7,3.5-5.6c4.4,2.6,4.7,0.4,4.7,0.4
		S146.4,310,146.3,315.1z"/>
	<path class="st13" d="M157.5,342.1l-3.4,9c0,0-0.9,0.1-1.8-0.2c-0.8-0.2-1.7-0.8-1.7-0.8s0.9-9.7,2.7-15.3L157.5,342.1z"/>
	<path class="st19" d="M142,305.5c0,0,4.5,0.8,5,2.7c0.5,1.9,2.3,13.7,2.3,13.7s-1.3,1.2-2.3,0.2c-1.1-1.1-3.3-11-3.3-11L142,305.5z
		"/>
	<path class="st20" d="M143.1,324.8c-3.2,0.2-8.8-0.3-9.1-0.9c-0.7-2.1-0.2-2.7-0.8-5.8l1.5-4.4c0,0-0.3,4.8,1.2,6.1
		c1.4,1.3,5.9,2.5,6.6,3.5C142.8,323.9,143,324.4,143.1,324.8z"/>
	<path class="st10" d="M139.4,322.8c0,0,3.2-0.7,3.7-0.4c0.5,0.3,1.8,1.3,1.9,1.7c0.2,0.4-1.1-0.3-1.6-0.4c-0.3-0.1-1,0.2-1.3,0.3
		c-1.5,0.5-2.4,0.2-2.4,0.2L139.4,322.8z"/>
	<path class="st19" d="M137.3,305.1c0,0-4.2,0.3-5.7,2.3c-2.1,2.9-6.2,15.2-3.8,16.8c2.7,1.8,12.1,0.5,12.1,0.5s0.3-1.5-0.1-2.2
		c-0.4-0.7-7.5-1.9-7.8-2.2c-0.3-0.3,4.1-6.4,4.1-7.3C135.9,312,137.3,305.1,137.3,305.1z"/>
	<path class="st10" d="M143.2,323.2c0,0,0.7,0.9,0.9,1c0.2,0.1,0.4,0.1,0.4,0.1l-0.4-0.8L143.2,323.2z"/>
	<path class="st10" d="M143.1,322.4l1.9,0.9c0,0-0.1,0.1-0.3,0.1c-0.2,0-0.8-0.2-0.8-0.2L143.1,322.4z"/>
	<path class="st14" d="M159.5,324.6l-20.1,0v0.4l20,0L159.5,324.6z"/>
	<path class="st14" d="M144.1,325l15.2,0l4.6-11.4l-15.2,0L144.1,325z"/>
	<path class="st36" d="M155.5,319.3c0.1-0.4-0.1-0.7-0.5-0.7c-0.4,0-0.8,0.3-0.9,0.7c-0.1,0.4,0.1,0.7,0.5,0.7
		C154.9,320,155.4,319.7,155.5,319.3z"/>
	<path class="st31" d="M258.6,368c-2.1-0.7-3.5,0.2-3.5,0.2c-5.9,0.2-6.1,6.3-5.4,8.6c1,3.2-2.5,5.7,1.3,6.9
		c4.4,1.5,8.2-0.3,7.9,0.5C273,385.3,263.3,369.6,258.6,368z"/>
	<path class="st19" d="M252.5,397.5c0,0-0.6,1.1-1.6,2.4c-1.2,1.5-7.7-2.1-7.1-2.4c0.6-0.3,3.8-9.6,4.6-10.8
		c0.8-1.2,3.4-1.8,3.4-1.8L252.5,397.5z"/>
	<path class="st37" d="M274.3,460.4c0,0,1.8,1.6,1.4,2.8c-0.3,1.2-2,1.9-2.2,3.3c-0.2,1.4-1.1,2.2-1.9,2.2c-0.8,0-3.7,0-3.7,0
		s-0.6-1,0.8-1.3c1.4-0.3,1.9-2,1.8-3.5c-0.1-1.5,0.1-3.6,0.1-3.6l2.9-0.7L274.3,460.4z"/>
	<path class="st12" d="M259.2,461.1c0,0,0.6,6.9-0.1,7.3l-10,0c0,0,0-1.2,1.6-1.4c1.6-0.2,4.4-1.2,4.9-3.3
		C256,461.6,259.2,461.1,259.2,461.1z"/>
	<path class="st19" d="M266.9,392.9c0,0,0.2,2.1,0,4.6c-0.1,1.7-1.8,3.9-2,4.5c-0.6,1.4-1.3,1.6-1.3,1.6l-5.2,1.3l-1.8,0.5l-5.8-1.7
		c0,0-2.7-7.4-1.6-11.6c1.1-4.2,2.7-7.1,2.7-7.1s4-0.9,10.9-0.4L266.9,392.9z"/>
	<path class="st20" d="M267.4,397.5c-0.1,1.7-2.3,3.8-2.5,4.4c-0.6,1.4-1.3,1.6-1.3,1.6l-5.2,1.3l-0.9-2.7c0,0,7.7-2,6.4-9.1
		L267.4,397.5z"/>
	<path class="st14" d="M251,404.7c0,0-2.9,9-3.1,12c-0.2,3.1,5.5,43.4,5.7,44.8c0.2,1.3,1.9,2.2,1.9,2.2s0.8,0.4,1.8,0.1
		c1.5-0.4,2-0.9,2-0.9s2.2-28.8,0.9-39c-1.4-10.3-1.4-19.2-1.4-19.2H251z"/>
	<path class="st13" d="M263.2,404.4c0,0,4.4,5.9,4.8,9.9c0.4,4,0.6,18,1.5,21.9c0.9,3.9,4.1,11.4,4.1,23.5c0,0-0.3,0.7-1.4,1.1
		c-0.3,0.1-0.8,0.2-1.2,0.3c-0.8,0.2-1.7-0.2-2.1-1c-2.2-4.4-9.1-18.5-9.4-21.4c-0.2-2.1-2.4-15.8-7.2-23.8
		c-1.1-1.9,0.7-9.6,0.7-9.6L263.2,404.4z"/>
	<path class="st14" d="M250.6,403.3c0,0,1.2,0.9,3.5,1c2.8,0.1,9.6-0.7,9.6-0.7s0.3,0.8,0.3,1.7c0,0-8.3,2.1-13.1,0.3
		C250.7,405.6,250.1,404.4,250.6,403.3z"/>
	<path class="st36" d="M253.4,406.6c-0.7,0-1.2-0.6-1.2-1.4c0-0.8,0.6-1.4,1.2-1.4c0.7,0,1.2,0.6,1.2,1.4
		C254.6,406,254.1,406.6,253.4,406.6z M253.4,404.2c-0.5,0-0.8,0.4-0.8,1c0,0.6,0.4,1,0.8,1c0.5,0,0.8-0.4,0.8-1
		C254.2,404.6,253.8,404.2,253.4,404.2z"/>
	<path class="st38" d="M259.4,409.2l-12.5,0.1l-6.2-14.4l12.5-0.1L259.4,409.2z"/>
	<path class="st10" d="M257.7,402.7l-0.9-1.1c0,0-0.6-0.6-1.1-0.7c-0.4-0.1-1.4-0.6-1.5-0.5c-0.1,0.2,0.7,1.2,0.7,1.2h0
		c-0.9,0.7-3.3,0.1-3.6,0.4c-0.4,0.3,0.5,1.1,0.9,1.5c0.5,0.4,1.8,1.1,2.8,0.8c0.7-0.2,1.9-0.5,1.9-0.5L257.7,402.7z"/>
	<path class="st10" d="M241.7,397.4c0,0,0.8-0.9,1.3-0.5c0.5,0.4-0.1,2.5-0.6,2.3C241.9,399.1,241.4,397.7,241.7,397.4z"/>
	<path class="st19" d="M262.7,384.5c0,0,3.6,0.4,6.1,5.1c2,3.7,5.5,10.5,4.2,12.4c-0.6,0.8-6.1,3.8-16.7,2.1c0,0,0.2-1.3,1-2
		c0,0,8.9-2.9,8.9-3.4c0-1.1-1.2-2-6.2-7C258.7,390.3,262.7,384.5,262.7,384.5z"/>
	<path class="st10" d="M259.9,384.7c0.1-0.2,0-0.7-0.2-1.7c-0.2-0.9-0.5-2.2-0.5-3.8l-0.3,0l-4.4,0.8c0,0,0.1,1.2,0.1,2.3
		c0,0,0,0,0,0c0,1-0.3,2.4,0.1,2.6C256.4,386,259.5,385.4,259.9,384.7z"/>
	<path class="st39" d="M254.6,380c0,0,0.1,1.7,0.1,2.8c2.5-0.1,3.8-2.5,4.3-3.5L254.6,380z"/>
	<path class="st10" d="M254.3,382c0,0,5.8-0.8,5.2-4.4c-0.6-3.6-0.2-6.2-3.9-5.8c-3.7,0.4-4.2,1.9-4.3,3.1
		C251.1,376.2,252.8,382.2,254.3,382z"/>
	<path class="st31" d="M252.9,372.2c0,0,2.3,4,4.8,4.2c2.5,0.2,3.5-0.6,3.5-0.6s-2.1-1.2-2.9-3.7C258.3,372.1,253.8,370,252.9,372.2
		z"/>
	<path class="st31" d="M253.4,372.4c0,0-1.1,0.6-1.5,1.6c-0.3,0.9-0.6,2.1-0.2,3.4c0,0-1.7-2.7-0.6-4.5
		C252.2,371,253.4,372.4,253.4,372.4z"/>
	<path class="st14" d="M381.3,469.2h-322c-0.2,0-0.4-0.2-0.4-0.4v-0.2c0-0.2,0.2-0.4,0.4-0.4h322c0.2,0,0.4,0.2,0.4,0.4v0.2
		C381.7,469.1,381.6,469.2,381.3,469.2z"/>
</g>
</svg>
