<?xml version="1.0" encoding="utf-8"?>
<!-- Generator: Adobe Illustrator 25.2.1, SVG Export Plug-In . SVG Version: 6.00 Build 0)  -->
<svg version="1.1" id="Layer_1" xmlns="http://www.w3.org/2000/svg" xmlns:xlink="http://www.w3.org/1999/xlink" x="0px" y="0px"
	 width="461px" height="470px" viewBox="0 0 461 470" style="enable-background:new 0 0 461 470;" xml:space="preserve">
<style type="text/css">
	.st0{fill:none;stroke:#AFC3EC;stroke-linecap:round;}
	.st1{fill:none;stroke:#0D51D9;stroke-width:18;}
	.st2{fill:none;stroke:#0D51D9;stroke-width:3;stroke-miterlimit:4.0001;}
	.st3{fill:#F0F6FF;}
	.st4{fill:#0053CC;}
	.st5{opacity:0.2;}
	.st6{opacity:0.2;fill:#0F264C;enable-background:new    ;}
	.st7{fill:#0050AF;}
	.st8{fill:#4EA4F9;}
	.st9{fill:#0D6AB7;}
	.st10{fill:#81C0FF;}
	.st11{opacity:0.6;fill:#0D6AB7;enable-background:new    ;}
	.st12{fill:#0D51D9;}
	.st13{opacity:0.2;fill:#FFFFFF;enable-background:new    ;}
	.st14{fill:#64B9FF;}
	.st15{fill:#FF8B7B;}
	.st16{fill:#14365B;}
	.st17{fill:#EA7063;}
	.st18{fill:#9FC6FF;}
	.st19{fill:#77B3FC;}
	.st20{fill:#0F264C;}
	.st21{fill:#407BFF;}
	.st22{fill:#004DAA;}
	.st23{fill:#FF5652;}
	.st24{fill:#318FFF;}
</style>
<path class="st0" d="M551.6,318.7c91.8,7.9,172.7-60.4,180.7-152.7S672.3-7.5,580.5-15.4S407.8,45,399.8,137.3"/>
<path class="st1" d="M403,214.5c14.4,1.2,24.9,13.8,23.7,27.8c-1.2,14-13.7,24.5-28.1,23.3s-24.9-13.8-23.7-27.8
	C376.1,223.8,388.6,213.3,403,214.5z"/>
<ellipse class="st2" cx="430.5" cy="2.5" rx="7.9" ry="7.9"/>
<g>
	<path class="st3" d="M227.3,467.6c76.9,0,139.3-3.6,139.3-8.1s-62.4-8.1-139.3-8.1c-76.9,0-139.3,3.6-139.3,8.1
		S150.4,467.6,227.3,467.6z"/>
	<path class="st4" d="M217.1,450.5h-84v9.6h84V450.5z"/>
	<g class="st5">
		<path class="st6" d="M137.4,451.9h-2.1v6.9h2.1V451.9z"/>
		<path class="st6" d="M141.1,451.9H139v6.9h2.1V451.9z"/>
		<path class="st6" d="M144.8,451.9h-2.1v6.9h2.1V451.9z"/>
		<path class="st6" d="M148.5,451.9h-2.1v6.9h2.1V451.9z"/>
		<path class="st6" d="M152.2,451.9h-2.1v6.9h2.1V451.9z"/>
		<path class="st6" d="M155.9,451.9h-2.1v6.9h2.1V451.9z"/>
		<path class="st6" d="M159.6,451.9h-2.1v6.9h2.1V451.9z"/>
		<path class="st6" d="M163.3,451.9h-2.1v6.9h2.1V451.9z"/>
		<path class="st6" d="M167,451.9h-2.1v6.9h2.1V451.9z"/>
		<path class="st6" d="M170.6,451.9h-2.1v6.9h2.1V451.9z"/>
		<path class="st6" d="M174.3,451.9h-2.1v6.9h2.1V451.9z"/>
		<path class="st6" d="M178,451.9h-2.1v6.9h2.1V451.9z"/>
		<path class="st6" d="M181.7,451.9h-2.1v6.9h2.1V451.9z"/>
		<path class="st6" d="M185.4,451.9h-2.1v6.9h2.1V451.9z"/>
		<path class="st6" d="M189.1,451.9H187v6.9h2.1V451.9z"/>
		<path class="st6" d="M192.8,451.9h-2.1v6.9h2.1V451.9z"/>
		<path class="st6" d="M196.5,451.9h-2.1v6.9h2.1V451.9z"/>
		<path class="st6" d="M200.2,451.9h-2.1v6.9h2.1V451.9z"/>
		<path class="st6" d="M203.9,451.9h-2.1v6.9h2.1V451.9z"/>
		<path class="st6" d="M207.6,451.9h-2.1v6.9h2.1V451.9z"/>
		<path class="st6" d="M211.3,451.9h-2.1v6.9h2.1V451.9z"/>
		<path class="st6" d="M215,451.9h-2.1v6.9h2.1V451.9z"/>
	</g>
	<path class="st7" d="M217.1,460.1h13.1v-9.6h-13.1V460.1z"/>
	<path class="st8" d="M217.1,281.1h-88.4v169.4h88.4V281.1z"/>
	<path class="st9" d="M228.8,279.7h-94.3v1.5h94.3V279.7z"/>
	<path class="st10" d="M125.9,360.1h-0.7v7.1h0.7V360.1z"/>
	<path class="st10" d="M125.9,369.6h-0.7v18.6h0.7V369.6z"/>
	<path class="st10" d="M217.1,450.5h17.5V281.1h-17.5V450.5z"/>
	<path class="st11" d="M212.7,342.8h-79.6c-1.3,0-2.3-1-2.3-2.4v-12.1c0-1.3,1-2.4,2.3-2.4h79.6c1.3,0,2.3,1,2.3,2.4v12.1
		C215.1,341.7,214,342.8,212.7,342.8z"/>
	<path class="st10" d="M208,332.1l-3.4-7v18.6h3.5h1h6v-9.3h-3.5C210,334.3,208.6,333.5,208,332.1z"/>
	<path class="st12" d="M215.1,283.2h-84.3v18.6h84.3V283.2z"/>
	<path class="st12" d="M215.1,429.8h-84.3v18.6h84.3V429.8z"/>
	<path class="st12" d="M215.1,408.9h-84.3v18.6h84.3V408.9z"/>
	<path class="st12" d="M215.1,387.9h-84.3v18.6h84.3V387.9z"/>
	<path class="st12" d="M215.1,367h-84.3v18.6h84.3V367z"/>
	<path class="st12" d="M215.1,346h-84.3v18.6h84.3V346z"/>
	<path class="st12" d="M204.6,325.1h-84.3v18.6h84.3V325.1z"/>
	<path class="st12" d="M215.1,304.1h-84.3v18.6h84.3V304.1z"/>
	<path class="st10" d="M209.8,299.1h-32c-1.5,0-2.7-1.2-2.7-2.7v-7.8c0-1.5,1.2-2.7,2.7-2.7h32c1.5,0,2.7,1.2,2.7,2.7v7.8
		C212.5,297.9,211.3,299.1,209.8,299.1z"/>
	<path class="st13" d="M194.9,293v-1.1c0-0.6,0.5-1.1,1.2-1.1h10.4c0.6,0,1.1,0.5,1.1,1.1v1.1c0,0.6-0.5,1.1-1.1,1.1h-10.4
		C195.4,294.1,194.9,293.6,194.9,293z"/>
	<path class="st10" d="M209.8,320h-32c-1.5,0-2.7-1.2-2.7-2.7v-7.8c0-1.5,1.2-2.7,2.7-2.7h32c1.5,0,2.7,1.2,2.7,2.7v7.8
		C212.5,318.8,211.3,320,209.8,320z"/>
	<path class="st13" d="M194.9,313.9v-1.1c0-0.6,0.5-1.1,1.2-1.1h10.4c0.6,0,1.1,0.5,1.1,1.1v1.1c0,0.6-0.5,1.1-1.1,1.1h-10.4
		C195.4,315.1,194.9,314.6,194.9,313.9z"/>
	<path class="st10" d="M199.3,341h-32c-1.5,0-2.7-1.2-2.7-2.7v-7.8c0-1.5,1.2-2.7,2.7-2.7h32c1.5,0,2.7,1.2,2.7,2.7v7.8
		C202,339.8,200.8,341,199.3,341z"/>
	<path class="st13" d="M184.4,334.9v-1.1c0-0.6,0.5-1.2,1.1-1.2H196c0.6,0,1.2,0.5,1.2,1.2v1.1c0,0.6-0.5,1.1-1.2,1.1h-10.4
		C184.9,336,184.4,335.5,184.4,334.9z"/>
	<path class="st10" d="M209.8,361.9h-32c-1.5,0-2.7-1.2-2.7-2.7v-7.8c0-1.5,1.2-2.7,2.7-2.7h32c1.5,0,2.7,1.2,2.7,2.7v7.8
		C212.5,360.7,211.3,361.9,209.8,361.9z"/>
	<path class="st13" d="M194.9,355.8v-1.1c0-0.6,0.5-1.1,1.2-1.1h10.4c0.6,0,1.1,0.5,1.1,1.1v1.1c0,0.6-0.5,1.1-1.1,1.1h-10.4
		C195.4,357,194.9,356.5,194.9,355.8z"/>
	<path class="st10" d="M209.8,382.9h-32c-1.5,0-2.7-1.2-2.7-2.7v-7.8c0-1.5,1.2-2.7,2.7-2.7h32c1.5,0,2.7,1.2,2.7,2.7v7.8
		C212.5,381.7,211.3,382.9,209.8,382.9z"/>
	<path class="st13" d="M194.9,376.8v-1.1c0-0.6,0.5-1.1,1.2-1.1h10.4c0.6,0,1.1,0.5,1.1,1.1v1.1c0,0.6-0.5,1.1-1.1,1.1h-10.4
		C195.4,377.9,194.9,377.4,194.9,376.8z"/>
	<path class="st10" d="M209.8,403.8h-32c-1.5,0-2.7-1.2-2.7-2.7v-7.8c0-1.5,1.2-2.7,2.7-2.7h32c1.5,0,2.7,1.2,2.7,2.7v7.8
		C212.5,402.6,211.3,403.8,209.8,403.8z"/>
	<path class="st13" d="M194.9,397.7v-1.1c0-0.6,0.5-1.1,1.2-1.1h10.4c0.6,0,1.1,0.5,1.1,1.1v1.1c0,0.6-0.5,1.1-1.1,1.1h-10.4
		C195.4,398.9,194.9,398.4,194.9,397.7z"/>
	<path class="st10" d="M209.8,424.8h-32c-1.5,0-2.7-1.2-2.7-2.7v-7.8c0-1.5,1.2-2.7,2.7-2.7h32c1.5,0,2.7,1.2,2.7,2.7v7.8
		C212.5,423.6,211.3,424.8,209.8,424.8z"/>
	<path class="st13" d="M194.9,418.7v-1.1c0-0.6,0.5-1.1,1.2-1.1h10.4c0.6,0,1.1,0.5,1.1,1.1v1.1c0,0.6-0.5,1.1-1.1,1.1h-10.4
		C195.4,419.8,194.9,419.3,194.9,418.7z"/>
	<path class="st10" d="M209.8,445.7h-32c-1.5,0-2.7-1.2-2.7-2.7v-7.8c0-1.5,1.2-2.7,2.7-2.7h32c1.5,0,2.7,1.2,2.7,2.7v7.8
		C212.5,444.5,211.3,445.7,209.8,445.7z"/>
	<path class="st13" d="M194.9,439.7v-1.1c0-0.6,0.5-1.2,1.2-1.2h10.4c0.6,0,1.1,0.5,1.1,1.2v1.1c0,0.6-0.5,1.1-1.1,1.1h-10.4
		C195.4,440.8,194.9,440.3,194.9,439.7z"/>
	<path class="st10" d="M168.6,294.6c1.2,0,2.1-1,2.1-2.1c0-1.2-1-2.1-2.1-2.1c-1.2,0-2.1,1-2.1,2.1
		C166.4,293.6,167.4,294.6,168.6,294.6z"/>
	<path class="st10" d="M162.4,294.6c1.2,0,2.1-1,2.1-2.1c0-1.2-1-2.1-2.1-2.1c-1.2,0-2.1,1-2.1,2.1
		C160.3,293.6,161.3,294.6,162.4,294.6z"/>
	<path class="st14" d="M156.3,294.6c1.2,0,2.1-1,2.1-2.1c0-1.2-1-2.1-2.1-2.1s-2.1,1-2.1,2.1C154.2,293.6,155.1,294.6,156.3,294.6z"
		/>
	<path class="st10" d="M152.3,292.4c0,1.2-1,2.1-2.1,2.1c-1.2,0-2.1-1-2.1-2.1c0-1.2,1-2.1,2.1-2.1
		C151.4,290.3,152.3,291.3,152.3,292.4z"/>
	<path class="st10" d="M168.6,315.5c1.2,0,2.1-1,2.1-2.1s-1-2.1-2.1-2.1c-1.2,0-2.1,1-2.1,2.1S167.4,315.5,168.6,315.5z"/>
	<path class="st10" d="M162.4,315.5c1.2,0,2.1-1,2.1-2.1s-1-2.1-2.1-2.1c-1.2,0-2.1,1-2.1,2.1S161.3,315.5,162.4,315.5z"/>
	<path class="st10" d="M156.3,315.5c1.2,0,2.1-1,2.1-2.1s-1-2.1-2.1-2.1s-2.1,1-2.1,2.1S155.1,315.5,156.3,315.5z"/>
	<path class="st14" d="M152.3,313.4c0,1.2-1,2.1-2.1,2.1c-1.2,0-2.1-1-2.1-2.1c0-1.2,1-2.1,2.1-2.1
		C151.4,311.3,152.3,312.2,152.3,313.4z"/>
	<path class="st14" d="M158.1,336.5c1.2,0,2.1-1,2.1-2.1c0-1.2-1-2.1-2.1-2.1s-2.1,1-2.1,2.1C155.9,335.5,156.9,336.5,158.1,336.5z"
		/>
	<path class="st10" d="M151.9,336.5c1.2,0,2.1-1,2.1-2.1c0-1.2-1-2.1-2.1-2.1c-1.2,0-2.1,1-2.1,2.1
		C149.8,335.5,150.8,336.5,151.9,336.5z"/>
	<path class="st14" d="M145.8,336.5c1.2,0,2.1-1,2.1-2.1c0-1.2-1-2.1-2.1-2.1s-2.1,1-2.1,2.1C143.7,335.5,144.6,336.5,145.8,336.5z"
		/>
	<path class="st10" d="M139.7,336.5c1.2,0,2.1-1,2.1-2.1c0-1.2-1-2.1-2.1-2.1s-2.1,1-2.1,2.1C137.6,335.5,138.5,336.5,139.7,336.5z"
		/>
	<path class="st14" d="M168.6,357.4c1.2,0,2.1-1,2.1-2.1c0-1.2-1-2.1-2.1-2.1c-1.2,0-2.1,1-2.1,2.1
		C166.4,356.5,167.4,357.4,168.6,357.4z"/>
	<path class="st14" d="M162.4,357.4c1.2,0,2.1-1,2.1-2.1c0-1.2-1-2.1-2.1-2.1c-1.2,0-2.1,1-2.1,2.1
		C160.3,356.5,161.3,357.4,162.4,357.4z"/>
	<path class="st10" d="M156.3,357.4c1.2,0,2.1-1,2.1-2.1c0-1.2-1-2.1-2.1-2.1s-2.1,1-2.1,2.1C154.2,356.5,155.1,357.4,156.3,357.4z"
		/>
	<path class="st10" d="M152.3,355.3c0,1.2-1,2.1-2.1,2.1c-1.2,0-2.1-1-2.1-2.1c0-1.2,1-2.1,2.1-2.1
		C151.4,353.2,152.3,354.1,152.3,355.3z"/>
	<path class="st10" d="M168.6,378.4c1.2,0,2.1-1,2.1-2.1c0-1.2-1-2.1-2.1-2.1c-1.2,0-2.1,1-2.1,2.1
		C166.4,377.4,167.4,378.4,168.6,378.4z"/>
	<path class="st14" d="M162.4,378.4c1.2,0,2.1-1,2.1-2.1c0-1.2-1-2.1-2.1-2.1c-1.2,0-2.1,1-2.1,2.1
		C160.3,377.4,161.3,378.4,162.4,378.4z"/>
	<path class="st10" d="M156.3,378.4c1.2,0,2.1-1,2.1-2.1c0-1.2-1-2.1-2.1-2.1s-2.1,1-2.1,2.1C154.2,377.4,155.1,378.4,156.3,378.4z"
		/>
	<path class="st10" d="M152.3,376.2c0,1.2-1,2.1-2.1,2.1c-1.2,0-2.1-1-2.1-2.1c0-1.2,1-2.1,2.1-2.1
		C151.4,374.1,152.3,375.1,152.3,376.2z"/>
	<path class="st10" d="M168.6,399.3c1.2,0,2.1-1,2.1-2.1c0-1.2-1-2.1-2.1-2.1c-1.2,0-2.1,1-2.1,2.1
		C166.4,398.4,167.4,399.3,168.6,399.3z"/>
	<path class="st10" d="M162.4,399.3c1.2,0,2.1-1,2.1-2.1c0-1.2-1-2.1-2.1-2.1c-1.2,0-2.1,1-2.1,2.1
		C160.3,398.4,161.3,399.3,162.4,399.3z"/>
	<path class="st14" d="M156.3,399.3c1.2,0,2.1-1,2.1-2.1c0-1.2-1-2.1-2.1-2.1s-2.1,1-2.1,2.1C154.2,398.4,155.1,399.3,156.3,399.3z"
		/>
	<path class="st14" d="M152.3,397.2c0,1.2-1,2.1-2.1,2.1c-1.2,0-2.1-1-2.1-2.1c0-1.2,1-2.1,2.1-2.1
		C151.4,395.1,152.3,396,152.3,397.2z"/>
	<path class="st14" d="M170.7,418.2c0,1.2-1,2.1-2.1,2.1c-1.2,0-2.1-1-2.1-2.1c0-1.2,1-2.1,2.1-2.1C169.7,416,170.7,417,170.7,418.2
		z"/>
	<path class="st10" d="M164.6,418.2c0,1.2-1,2.1-2.1,2.1s-2.1-1-2.1-2.1c0-1.2,1-2.1,2.1-2.1C163.6,416,164.6,417,164.6,418.2z"/>
	<path class="st10" d="M158.5,418.2c0,1.2-1,2.1-2.1,2.1c-1.2,0-2.1-1-2.1-2.1c0-1.2,1-2.1,2.1-2.1C157.5,416,158.5,417,158.5,418.2
		z"/>
	<path class="st10" d="M152.3,418.2c0,1.2-1,2.1-2.1,2.1c-1.2,0-2.1-1-2.1-2.1c0-1.2,1-2.1,2.1-2.1C151.4,416,152.3,417,152.3,418.2
		z"/>
	<path class="st10" d="M168.6,441.3c1.2,0,2.1-1,2.1-2.1c0-1.2-1-2.1-2.1-2.1c-1.2,0-2.1,1-2.1,2.1
		C166.4,440.3,167.4,441.3,168.6,441.3z"/>
	<path class="st10" d="M162.4,441.3c1.2,0,2.1-1,2.1-2.1c0-1.2-1-2.1-2.1-2.1c-1.2,0-2.1,1-2.1,2.1
		C160.3,440.3,161.3,441.3,162.4,441.3z"/>
	<path class="st14" d="M156.3,441.3c1.2,0,2.1-1,2.1-2.1c0-1.2-1-2.1-2.1-2.1s-2.1,1-2.1,2.1C154.2,440.3,155.1,441.3,156.3,441.3z"
		/>
	<path class="st10" d="M152.3,439.1c0,1.2-1,2.1-2.1,2.1c-1.2,0-2.1-1-2.1-2.1c0-1.2,1-2.1,2.1-2.1
		C151.4,437,152.3,437.9,152.3,439.1z"/>
	<path class="st13" d="M143.8,292.4c0,2.6-2.1,4.6-4.6,4.6c-2.6,0-4.6-2.1-4.6-4.6c0-2.6,2.1-4.6,4.6-4.6
		C141.7,287.8,143.8,289.9,143.8,292.4z"/>
	<path class="st13" d="M143.8,313.4c0,2.6-2.1,4.6-4.6,4.6c-2.6,0-4.6-2.1-4.6-4.6c0-2.6,2.1-4.6,4.6-4.6
		C141.7,308.8,143.8,310.8,143.8,313.4z"/>
	<path class="st13" d="M133.3,334.3c0,2.6-2.1,4.6-4.6,4.6c-2.6,0-4.6-2.1-4.6-4.6s2.1-4.6,4.6-4.6
		C131.2,329.7,133.3,331.8,133.3,334.3z"/>
	<path class="st13" d="M143.8,355.3c0,2.6-2.1,4.6-4.6,4.6c-2.6,0-4.6-2.1-4.6-4.6c0-2.6,2.1-4.6,4.6-4.6
		C141.7,350.7,143.8,352.7,143.8,355.3z"/>
	<path class="st13" d="M143.8,376.2c0,2.6-2.1,4.6-4.6,4.6c-2.6,0-4.6-2.1-4.6-4.6c0-2.6,2.1-4.6,4.6-4.6
		C141.7,371.6,143.8,373.7,143.8,376.2z"/>
	<path class="st13" d="M143.8,397.2c0,2.6-2.1,4.6-4.6,4.6c-2.6,0-4.6-2.1-4.6-4.6s2.1-4.6,4.6-4.6
		C141.7,392.6,143.8,394.6,143.8,397.2z"/>
	<path class="st13" d="M143.8,418.2c0,2.6-2.1,4.6-4.6,4.6c-2.6,0-4.6-2.1-4.6-4.6s2.1-4.6,4.6-4.6
		C141.7,413.5,143.8,415.6,143.8,418.2z"/>
	<path class="st13" d="M143.8,439.1c0,2.6-2.1,4.6-4.6,4.6c-2.6,0-4.6-2.1-4.6-4.6s2.1-4.6,4.6-4.6
		C141.7,434.5,143.8,436.5,143.8,439.1z"/>
	<path class="st10" d="M207.6,264.9c-0.6-3.6-2.8-6.6-5.9-8.3c0,0,0,0,0,0c0-0.1,0-0.2,0-0.3c0-6.6-5.4-12-12-12h-4.6v0.9
		c-3.1,1.3-5.5,3.8-6.6,6.9c-0.4-0.1-0.8-0.1-1.2-0.1c-3,0-5.6,1.9-6.7,4.5c-1.5-0.4-3.2-0.3-4.9,0.4c-3.2,1.3-5.5,4.3-5.6,7.8
		c-0.1,4.8,3.8,8.8,8.6,8.8h0h16.9h15.5c3.6,0,6.6-2.8,6.6-6.4c0,0,0-0.1,0-0.1C207.8,266.3,207.7,265.6,207.6,264.9z"/>
	<path class="st8" d="M203,264.9c-0.6-3.6-2.8-6.6-5.9-8.3h0c0-0.1,0-0.2,0-0.3c0-6.6-5.4-12-12-12c-5.2,0-9.5,3.3-11.2,7.8
		c-0.4-0.1-0.8-0.1-1.2-0.1c-3,0-5.6,1.9-6.7,4.5c-1.5-0.4-3.2-0.3-4.9,0.4c-3.2,1.3-5.5,4.3-5.6,7.8c-0.1,4.8,3.8,8.8,8.6,8.8h0
		h16.9h15.5c3.6,0,6.6-2.8,6.6-6.4c0,0,0-0.1,0-0.1C203.2,266.3,203.1,265.6,203,264.9z"/>
	<path class="st4" d="M186,236.8h-0.6v1.8h0.6V236.8z"/>
	<path class="st4" d="M301.6,277.7H301v-3.6h0.6V277.7z M301.6,270.6H301V267h0.6V270.6z M301.6,263.4H301v-3.6h0.6V263.4z
		 M301.6,256.2H301v-3.6h0.6V256.2z M301.6,249H301v-3.6h0.6V249z M301.6,241.9H301v-3.6h0.6V241.9z M301.6,234.7H301v-3.6h0.6
		V234.7z M186,233.2h-0.6v-2.5c0-0.4,0-0.8,0.1-1.1l0.6,0.1c0,0.4-0.1,0.7-0.1,1.1L186,233.2L186,233.2z M300.5,227.7
		c-0.4-1.1-1-2.1-1.8-3l0.5-0.4c0.8,0.9,1.5,2,1.9,3.2L300.5,227.7z M187.1,226.4l-0.5-0.3c0.6-1.1,1.4-2,2.3-2.8l0.4,0.5
		C188.4,224.4,187.7,225.3,187.1,226.4z M296,222.6c-1-0.5-2.2-0.8-3.3-0.9l0.1-0.6c1.2,0.1,2.4,0.4,3.5,1L296,222.6z M192.3,222
		l-0.2-0.6c0.9-0.3,1.9-0.5,3-0.5h0.7v0.6h-0.7C194.2,221.6,193.2,221.8,192.3,222z M289.1,221.6h-3.6V221h3.6V221.6z M281.9,221.6
		h-3.6V221h3.6V221.6z M274.8,221.6h-3.6V221h3.6V221.6z M267.6,221.6H264V221h3.6V221.6z M260.4,221.6h-3.6V221h3.6V221.6z
		 M253.2,221.6h-3.6V221h3.6V221.6z M246,221.6h-3.6V221h3.6V221.6z M238.9,221.6h-3.6V221h3.6V221.6z M231.7,221.6h-3.6V221h3.6
		V221.6z M224.5,221.6h-3.6V221h3.6V221.6z M217.3,221.6h-3.6V221h3.6V221.6z M210.1,221.6h-3.6V221h3.6V221.6z M203,221.6h-3.6V221
		h3.6V221.6z"/>
	<path class="st4" d="M301.6,281.4H301v1.8h0.6V281.4z"/>
	<path class="st15" d="M253.3,454.7h5.3l0.6-12.2h-5.3L253.3,454.7z"/>
	<path class="st16" d="M258.8,454.1H253c-0.2,0-0.4,0.2-0.4,0.4l-0.9,4.7c-0.1,0.5,0.3,0.9,0.8,0.9c2.1,0,5.1-0.2,7.7-0.2
		c3.1,0,3.5,0.2,7.1,0.2c2.2,0,2.7-2.2,1.8-2.4c-4.2-0.9-5.3-1-9-3.2C259.7,454.3,259.2,454.1,258.8,454.1z"/>
	<path class="st17" d="M259.2,442.5l-0.3,6.3h-5.3l0.3-6.3H259.2z"/>
	<path class="st15" d="M288.7,279c-0.1,1.7-0.2,3.5-0.3,5.2c0,1.8-0.1,3.5-0.1,5.2c0,1.7,0.1,3.4,0.2,5.1c0.1,1.7,0.4,3.3,0.8,4.6
		c0.2,0.7,0.4,1.3,0.6,1.7c0,0.1,0.2,0.3,0.3,0.5l0.3,0.5c0.2,0.4,0.5,0.7,0.7,1c0.9,1.4,2,2.8,3.1,4.2c2.2,2.8,4.5,5.6,6.8,8.3
		l-2.8,3.2c-3.2-2.1-6.2-4.4-9-7c-1.4-1.3-2.8-2.7-4.1-4.2c-0.3-0.4-0.7-0.7-1-1.1l-0.5-0.6c-0.2-0.2-0.3-0.4-0.5-0.7
		c-0.8-1.1-1.3-2.3-1.6-3.3c-0.8-2.1-1.1-4.1-1.4-6.1c-0.3-2-0.4-3.9-0.5-5.9c-0.1-1.9-0.1-3.8,0-5.7c0.1-1.9,0.2-3.8,0.4-5.8
		L288.7,279z"/>
	<path class="st18" d="M290.6,289.8l-2.2,0.9l-3.8,1.5l-6.7,2.7c0,0-3.1-15.9-1.4-20.7c1.8-5.3,8.2-5.2,11.7,0.9
		C291.5,281,290.6,289.8,290.6,289.8z"/>
	<path class="st19" d="M288,290.9l-3.4,1.4c-0.6-2.5-1.1-6.7,0.6-9.8C287.5,284.4,287.8,288.3,288,290.9z"/>
	<path class="st18" d="M284.6,312.9h-28.9c-0.2-2.6,0.4-9.6,0-19.2c-0.1-2.2-0.3-4.5-0.5-7c-0.5-5.1-1.3-10.7-2.7-16.5
		c0,0,4.9-1,9.6-1.2c3.7-0.2,9-0.3,12.3,0c4.3,0.4,8.4,1.5,8.4,1.5S289.5,282.6,284.6,312.9z"/>
	<path class="st19" d="M255.7,293.8c-0.1-2.2-0.3-4.5-0.5-7c0.9-0.6,2.2-0.6,2.4,2.8C257.8,292.7,256.7,293.6,255.7,293.8z"/>
	<path class="st15" d="M309.3,319.3l-4.2,2.6l-5.1-1.1l4.1-5.1L309.3,319.3z"/>
	<path class="st15" d="M299.3,314.9l4.8,0.8l-4.1,5.1c0,0-2.6-0.3-3.3-3.7L299.3,314.9z"/>
	<path class="st15" d="M262.8,255.2c0.9,4,1.9,11.2-0.7,13.8c0,0,1.3,2.7,8.7,2.7c6.7,0,3.6-2.7,3.6-2.7c-4.4-1-4.4-4.3-3.8-7.4
		L262.8,255.2z"/>
	<path class="st17" d="M266,257.8l4.6,3.8c-0.2,0.7-0.3,1.5-0.3,2.2c-1.4,1.4-4.1-2.1-4.3-3.9C265.8,259.1,265.9,258.2,266,257.8z"
		/>
	<path class="st20" d="M278.5,245.1c1.8,2.3-0.3,9.5-4.1,9.3C270.6,254.3,275,240.8,278.5,245.1z"/>
	<path class="st15" d="M263.6,248.6c-0.4,5.3-0.9,8.4,1.4,11.6c3.5,4.8,10.3,3.5,12.3-1.5c1.8-4.5,2.2-12.5-2.7-15.5
		C269.8,240.2,264,243.3,263.6,248.6z"/>
	<path class="st20" d="M261.7,241.9l5.8,2c-2.5,3.4,1.1,11.3-3.3,9.8C262.1,253.1,255.4,245.8,261.7,241.9z"/>
	<path class="st20" d="M264.5,243.3c2.2,1.6,11,3.5,16.1,0.7c-1.3-0.3-3-1.1-3-1.1s3.8-0.2,5.5-3c-3.6,0.5-6-0.5-6.9-0.9
		c1.6-0.4,3.4-2.1,3.9-3.3c-7,0.1-22,1.5-19.4,6.4C263.1,247,264.5,243.3,264.5,243.3z"/>
	<path class="st20" d="M261.4,242.6c0,0-1.7-0.8-2.8-2C258.3,241.4,258.3,243.7,261.4,242.6z"/>
	<path class="st15" d="M260.4,254c0.6,1.3,1.7,2.3,2.8,2.8c1.7,0.7,2.7-0.7,2.3-2.4c-0.3-1.5-1.6-3.7-3.3-3.6
		C260.5,250.8,259.7,252.5,260.4,254z"/>
	<path class="st15" d="M269.5,454.7h5.3l1.1-12.2h-5.3L269.5,454.7z"/>
	<path class="st16" d="M275,454.1h-5.8c-0.2,0-0.4,0.2-0.4,0.4l-0.9,4.7c-0.1,0.5,0.3,0.9,0.8,0.9c2.1,0,5.1-0.2,7.7-0.2
		c3.1,0,5.7,0.2,9.3,0.2c2.2,0,2.7-2.2,1.8-2.4c-4.2-0.9-7.5-1-11.2-3.2C275.9,454.3,275.5,454.1,275,454.1z"/>
	<path class="st17" d="M275.9,442.5l-0.6,6.3h-5.3l0.6-6.3H275.9z"/>
	<path class="st21" d="M277.2,454.9c0.4,0.1,0.8,0.1,1.1-0.1c0.2-0.1,0.3-0.3,0.3-0.6c0-0.2-0.1-0.3-0.2-0.4
		c-0.6-0.4-2.4,0.4-2.6,0.5c0,0-0.1,0.1-0.1,0.1c0,0.1,0,0.1,0.1,0.1C276.2,454.7,276.8,454.8,277.2,454.9z M278.2,453.9
		c0.1,0,0.1,0,0.2,0.1c0,0,0.1,0.1,0.1,0.2c0,0.2-0.1,0.3-0.2,0.4c-0.3,0.2-1,0.1-1.9-0.2C276.9,454.1,277.8,453.9,278.2,453.9z"/>
	<path class="st21" d="M275.9,454.5C275.9,454.5,275.9,454.5,275.9,454.5c0.7-0.2,1.9-1.2,1.8-1.8c0-0.1-0.1-0.3-0.4-0.4
		c-0.2-0.1-0.4,0-0.6,0.1c-0.7,0.4-1,1.9-1,2C275.8,454.4,275.8,454.5,275.9,454.5C275.8,454.5,275.9,454.5,275.9,454.5z
		 M277.2,452.5C277.3,452.5,277.3,452.5,277.2,452.5c0.2,0.1,0.2,0.1,0.2,0.2c0,0.4-0.8,1.1-1.4,1.5c0.1-0.4,0.4-1.3,0.8-1.6
		C277,452.5,277.1,452.5,277.2,452.5z"/>
	<path class="st12" d="M268.1,447.3h8.6c0,0,13.2-50.5,13-67.7c-0.2-16.5-5-66.7-5-66.7h-19c0,0,1.5,11.2,3.2,24.9
		c1.5,12.2,3.2,26.4,4.1,36.7c0.3,3.1,0.5,5.8,0.6,8C274.5,399.5,268.1,447.3,268.1,447.3z"/>
	<path class="st22" d="M268.7,337.9c1.5,12.2,3.2,26.4,4.1,36.7c2-9,6.9-35.3-0.4-48.6C270.6,328.7,269.4,333.2,268.7,337.9z"/>
	<path class="st12" d="M274.3,312.9c0,0-0.7,48.4-3.5,63.9c-3.1,16.9-9.2,70.5-9.2,70.5h-9.9c0,0,1.4-52.2,2.9-68.9
		c1.6-18.2,1-65.4,1-65.4H274.3z"/>
	<path class="st20" d="M251.3,447.5H262l0.8-4l-11.8-0.3L251.3,447.5z"/>
	<path class="st20" d="M267.6,447.5h10.7l0.8-4l-11.8,0.2L267.6,447.5z"/>
	<path class="st18" d="M255.5,441.4C255.5,441.4,255.5,441.4,255.5,441.4c-0.1,0-0.1-0.1-0.1-0.1c0.1-0.5,0.8-47.3,2.1-62.4
		c1.5-16.3,0.5-59.7,0.6-60.1c0-0.1,0.1-0.1,0.1-0.1s0.1,0.1,0.1,0.1c0,0.4,0.9,43.7-0.6,60.1C256.4,394.1,255.7,440.9,255.5,441.4
		C255.6,441.4,255.5,441.4,255.5,441.4z"/>
	<path class="st20" d="M271.4,251.6c-0.1,0.4,0.1,0.8,0.4,0.9c0.3,0.1,0.6-0.3,0.6-0.7c0.1-0.4-0.1-0.8-0.4-0.9
		C271.8,250.8,271.5,251.1,271.4,251.6z"/>
	<path class="st20" d="M276.4,252.1c-0.1,0.4,0.1,0.8,0.4,0.9c0.3,0.1,0.6-0.3,0.6-0.7c0.1-0.4-0.1-0.8-0.4-0.9
		C276.8,251.4,276.5,251.7,276.4,252.1z"/>
	<path class="st23" d="M274.7,252.3c0,0,0.6,2.6,1.6,4c-0.9,0.6-2.1,0-2.1,0L274.7,252.3z"/>
	<path class="st20" d="M273.3,258.1c0.1,0,0.1,0,0.1-0.1c0-0.1,0-0.1-0.1-0.1c-1.9-0.3-2.7-1.7-2.7-1.7c0-0.1-0.1-0.1-0.2-0.1
		c-0.1,0-0.1,0.1-0.1,0.2C270.4,256.3,271.2,257.8,273.3,258.1z"/>
	<path class="st20" d="M270.1,248.4c0.1,0,0.2,0,0.2,0c0.9-0.7,1.8-0.4,1.8-0.4c0.1,0.1,0.3,0,0.3-0.2c0-0.1,0-0.3-0.2-0.3
		c0,0-1.2-0.4-2.3,0.5c-0.1,0.1-0.1,0.2,0,0.4C270,248.4,270.1,248.4,270.1,248.4z"/>
	<path class="st24" d="M256.7,269.3l1.4-0.1c0.1,0,0.3,0.1,0.3,0.2c4.5,20.4,3.2,42,3.2,42H260c0.4-22.5-3-39.5-3.5-41.8
		C256.4,269.4,256.6,269.3,256.7,269.3z"/>
	<path class="st20" d="M260.3,311.9h1c0.3,0,0.5-0.2,0.5-0.5c0-0.3-0.2-0.5-0.5-0.5h-1c-0.3,0-0.5,0.2-0.5,0.5
		C259.8,311.6,260,311.9,260.3,311.9z"/>
	<path class="st20" d="M261.5,313.1l0-1.4c0-0.4-0.3-0.6-0.7-0.6c-0.4,0-0.6,0.3-0.6,0.6l0,1.4c0,0.4,0.3,0.6,0.7,0.6
		C261.3,313.8,261.5,313.5,261.5,313.1z"/>
	<path class="st20" d="M278.7,249.6c0,0,0.1,0,0.1,0c0.1,0,0.2-0.2,0.2-0.3c-0.4-1.4-1.6-1.7-1.6-1.7c-0.1,0-0.3,0-0.3,0.2
		c0,0.1,0,0.3,0.2,0.3c0,0,0.9,0.3,1.3,1.4C278.5,249.5,278.6,249.5,278.7,249.6z"/>
	<path class="st15" d="M255.7,278.8c-0.8,3.4-1.7,6.9-2.4,10.3c-0.4,1.7-0.7,3.4-1,5.1c-0.3,1.7-0.5,3.3-0.5,4.7c0,2.8,1,5.5,2.9,8
		c0.9,1.2,2,2.4,3.3,3.5c0.6,0.5,1.3,1.1,1.9,1.6c0.3,0.2,0.7,0.5,1,0.7c0.3,0.2,0.7,0.5,1,0.7l-1.6,3.9c-0.6-0.2-1-0.3-1.5-0.5
		c-0.5-0.2-0.9-0.4-1.4-0.6c-0.9-0.4-1.8-0.9-2.7-1.4c-1.7-1-3.4-2.2-4.9-3.7c-1.5-1.5-2.8-3.2-3.9-5.2c-1-2-1.7-4.2-1.9-6.5
		c-0.2-2.3-0.1-4.3,0-6.2c0.2-1.9,0.4-3.8,0.7-5.7c0.6-3.8,1.4-7.4,2.4-11L255.7,278.8z"/>
	<path class="st18" d="M252.5,270.2c-5.7,1-8.9,16.3-8.9,16.3l14.1,5.1c0,0,1.1-5,0-11.6C256.6,273.5,257.9,269.3,252.5,270.2z"/>
	<path class="st24" d="M279.6,269.5l1.4,0.3c0.1,0,0.2,0.1,0.2,0.2c3.6,20.4,1.2,41.4,1.2,41.4h-1.5c1.5-22.2-1.1-38.9-1.6-41.6
		C279.3,269.7,279.4,269.5,279.6,269.5z"/>
	<path class="st20" d="M281.1,311.9h1c0.3,0,0.5-0.2,0.5-0.5c0-0.3-0.2-0.5-0.5-0.5h-1c-0.3,0-0.5,0.2-0.5,0.5
		C280.7,311.6,280.9,311.9,281.1,311.9z"/>
	<path class="st20" d="M282.3,313.1l0-1.4c0-0.4-0.3-0.6-0.6-0.6s-0.6,0.3-0.6,0.6l0,1.4c0,0.4,0.3,0.6,0.6,0.6
		C282,313.8,282.3,313.5,282.3,313.1z"/>
	<path class="st21" d="M261,454.9c0.4,0.1,0.8,0.1,1.1-0.1c0.2-0.1,0.3-0.3,0.3-0.6c0-0.2-0.1-0.3-0.2-0.4c-0.6-0.4-2.4,0.4-2.6,0.5
		c0,0-0.1,0.1-0.1,0.1c0,0.1,0,0.1,0.1,0.1C260,454.7,260.5,454.8,261,454.9z M261.9,453.9c0.1,0,0.1,0,0.2,0.1c0,0,0.1,0.1,0.1,0.2
		c0,0.2-0.1,0.3-0.2,0.4c-0.3,0.2-1,0.1-1.9-0.2C260.7,454.1,261.5,453.9,261.9,453.9z"/>
	<path class="st21" d="M259.6,454.5C259.7,454.5,259.7,454.5,259.6,454.5c0.7-0.2,1.9-1.2,1.8-1.8c0-0.1-0.1-0.3-0.4-0.4
		c-0.2-0.1-0.4,0-0.6,0.1c-0.7,0.4-1,1.9-1,2C259.5,454.4,259.5,454.5,259.6,454.5C259.6,454.5,259.6,454.5,259.6,454.5z M261,452.5
		C261,452.5,261,452.5,261,452.5c0.2,0.1,0.2,0.1,0.2,0.2c0,0.4-0.8,1.1-1.4,1.5c0.1-0.4,0.4-1.3,0.8-1.6
		C260.8,452.5,260.9,452.5,261,452.5z"/>
	<path class="st15" d="M257.8,316.3l1.7-3l4.5,0.2l3.5,1.5l2.4,3.5l-6.2-0.4C263.8,318.1,260,319.1,257.8,316.3z"/>
	<path class="st19" d="M270.3,271.7l-1.1-0.8l-2.2,2.2L270.3,271.7z"/>
	<path class="st24" d="M269.2,270.9c0,0-1.8,2.6-2.1,4.5c-2.2-0.9-6.5-3.2-7.2-6.5c0.9-0.2,2.2-1.1,2.2-1.1S264.6,269.7,269.2,270.9
		z"/>
	<path class="st19" d="M270.3,271.7l0.4-0.9l3,2.3L270.3,271.7z"/>
	<path class="st24" d="M270.7,270.8c0,0,1.9,1.7,2.3,4.1c2.2-0.9,2.9-3.9,2.3-5.9c-1.2-0.6-2.7-0.9-2.7-0.9S273,270.1,270.7,270.8z"
		/>
	<path class="st24" d="M322.5,292.2l-45.2-1.6l-6.5,26.4l45.2,1.6L322.5,292.2z"/>
	<path class="st20" d="M323.9,292.2l-45.2-1.6l-6.5,26.4l45.2,1.6L323.9,292.2z"/>
	<path class="st20" d="M317.3,318.7l-0.2,1.5l-45.2-1.6l0.2-1.5L317.3,318.7z"/>
	<path class="st24" d="M272.1,317.1l-0.2,1.5l-17.8-0.6l0.2-1.5L272.1,317.1z"/>
</g>
</svg>
