<?xml version="1.0" encoding="utf-8"?>
<!-- Generator: Adobe Illustrator 25.2.1, SVG Export Plug-In . SVG Version: 6.00 Build 0)  -->
<svg version="1.1" id="Layer_1" xmlns="http://www.w3.org/2000/svg" xmlns:xlink="http://www.w3.org/1999/xlink" x="0px" y="0px"
	 width="497.6px" height="509px" viewBox="0 0 497.6 509" style="enable-background:new 0 0 497.6 509;" xml:space="preserve">
<style type="text/css">
	.st0{fill:#B55B52;}
	.st1{fill:#263238;}
	.st2{fill:#B65B52;}
	.st3{fill:#407BFF;}
	.st4{opacity:0.2;enable-background:new    ;}
	.st5{fill:#FFFFFF;}
	.st6{fill:#A02724;}
	.st7{opacity:0.9;fill:#E3EBFA;enable-background:new    ;}
	.st8{fill:#F5F5F5;}
	.st9{fill:#BACCD1;stroke:#FFFFFF;}
	.st10{fill:#BACCD1;}
	.st11{fill:#FFFFFF;filter:url(#Adobe_OpacityMaskFilter);}
	.st12{mask:url(#path-4-inside-1_2862_52388_1_);fill:#FFFFFF;}
	.st13{fill:#BACCD1;stroke:#FFFFFF;stroke-width:3;}
	.st14{fill:#BACCD1;stroke:#FFFFFF;stroke-width:2.5;}
	.st15{opacity:0.2;fill:#407BFF;enable-background:new    ;}
	.st16{opacity:0.5;fill:#FFFFFF;enable-background:new    ;}
	.st17{opacity:0.4;fill:#407BFF;enable-background:new    ;}
	.st18{opacity:0.8;fill:#FFFFFF;enable-background:new    ;}
	.st19{opacity:0.5;fill:#407BFF;enable-background:new    ;}
	.st20{opacity:0.8;}
	.st21{opacity:0.3;fill:#407BFF;enable-background:new    ;}
	.st22{opacity:0.8;fill-rule:evenodd;clip-rule:evenodd;fill:#FFFFFF;enable-background:new    ;}
</style>
<g>
	<path class="st13" d="M77,106.3L77,106.3c-0.1-0.1-0.2-0.1-0.2-0.2c-0.3-0.2-0.6-0.3-0.9-0.4c0,0,0,0,0,0L27.4,94.2c0,0,0,0,0,0
		c-0.3-0.1-0.7-0.1-1,0c-0.1,0-0.2,0-0.2,0.1l0,0l0,0c-0.2,0.1-0.4,0.1-0.7,0.2c-0.1,0-0.1,0.1-0.2,0.1c0,0-0.1,0-0.1,0.1
		l-29.8,18.5c-2.6,1.6-4.5,4.3-5.2,7.3c0,0,0,0,0,0 M77,106.3l-87,14.1 M77,106.3L77,106.3c0.2,0.2,0.4,0.4,0.5,0.6
		c0.1,0.1,0.1,0.2,0.2,0.2c0,0,0,0,0,0l32.4,52.3c1.6,2.6,2.2,5.8,1.4,8.8c-0.7,3-2.6,5.6-5.2,7.3l-52.4,32.4
		c-2.6,1.6-5.8,2.2-8.8,1.4c-3-0.7-5.6-2.6-7.3-5.2l-46.3-74.9c-1.6-2.6-2.2-5.8-1.4-8.8 M77,106.3l-87,14.1 M64.6,111.6l3.1-1.9
		l-3.5-0.8l-27.8-6.5l-3.5-0.8l1.9,3.1l10.6,17.2l0.8,1.3l1.3-0.8L64.6,111.6z M26.6,102.3l-0.8-1.3l-1.3,0.8l-26.2,16.2
		c-1.3,0.8-2.3,2.1-2.6,3.7c-0.4,1.5-0.1,3.1,0.7,4.5l46.3,74.9c0.8,1.3,2.1,2.3,3.7,2.6c1.5,0.4,3.1,0.1,4.5-0.7l52.4-32.4
		c1.3-0.8,2.3-2.1,2.6-3.7c0.4-1.5,0.1-3.1-0.7-4.5l-30.1-48.7l-0.8-1.3l-1.3,0.8l-26.2,16.2c-0.7,0.4-1.4,0.5-2.2,0.4
		s-1.4-0.6-1.8-1.3L26.6,102.3z"/>
	<path class="st13" d="M85.8,167.5l-30,18.5c-0.9,0.5-2,0.6-2.9,0.1c-0.9-0.5-1.5-1.4-1.5-2.5c0-1,0.5-2,1.4-2.6l30-18.5
		c0.9-0.5,2-0.6,2.9-0.1c0.9,0.5,1.5,1.4,1.5,2.5C87.2,166,86.7,166.9,85.8,167.5z"/>
	<path class="st13" d="M76.5,152.5l-30,18.5c-0.9,0.5-2,0.6-2.9,0.1c-0.9-0.5-1.5-1.4-1.5-2.5c0-1,0.5-2,1.4-2.6l30-18.5
		c0.9-0.5,2-0.6,2.9-0.1c0.9,0.5,1.5,1.4,1.5,2.5C77.9,151,77.4,152,76.5,152.5z"/>
	<path class="st13" d="M67.3,137.5l-30,18.5c-0.9,0.5-2,0.6-2.9,0.1c-0.9-0.5-1.5-1.4-1.5-2.5c0-1,0.5-2,1.4-2.6l30-18.5
		c0.9-0.5,2-0.6,2.9-0.1c0.9,0.5,1.5,1.4,1.5,2.5C68.7,136,68.2,137,67.3,137.5z"/>
</g>
<g>
	<path class="st14" d="M56.3,301.5c4.6,2.7,6.2,8.6,3.6,13.3l-14.6,25.3c-2.7,4.6-8.6,6.2-13.3,3.6L6.6,329.1
		c-4.6-2.7-6.2-8.6-3.6-13.3l14.6-25.3c2.7-4.6,8.6-6.2,13.3-3.6L56.3,301.5z M41,337.7l14.6-25.3c1.4-2.3,0.5-5.4-1.8-6.7
		l-25.3-14.6c-2.3-1.4-5.4-0.5-6.7,1.8L7.2,318.2c-1.4,2.3-0.5,5.4,1.8,6.7l25.3,14.6C36.7,340.9,39.7,340.1,41,337.7z"/>
	<path class="st14" d="M27,352.2c4.6,2.7,6.2,8.6,3.6,13.3l-14.6,25.3c-2.7,4.6-8.6,6.2-13.3,3.6l-25.3-14.6
		c-4.6-2.7-6.2-8.6-3.6-13.3l14.6-25.3c2.7-4.6,8.6-6.2,13.3-3.6L27,352.2z M11.8,388.4l14.6-25.3c1.4-2.3,0.5-5.4-1.8-6.7
		l-25.3-14.6c-2.3-1.4-5.4-0.5-6.7,1.8l-14.6,25.3c-1.4,2.3-0.5,5.4,1.8,6.7l25.3,14.6C7.4,391.6,10.4,390.8,11.8,388.4z"/>
	<path class="st14" d="M107,330.8c4.6,2.7,6.2,8.6,3.6,13.3l-14.6,25.3c-2.7,4.6-8.6,6.2-13.3,3.6l-25.3-14.6
		c-4.6-2.7-6.2-8.6-3.6-13.3l14.6-25.3c2.7-4.6,8.6-6.2,13.3-3.6L107,330.8z M91.7,367l14.6-25.3c1.4-2.3,0.5-5.4-1.8-6.7
		l-25.3-14.6c-2.3-1.4-5.4-0.5-6.7,1.8l-14.6,25.3c-1.4,2.3-0.5,5.4,1.8,6.7L85,368.8C87.4,370.2,90.4,369.4,91.7,367z"/>
	<path class="st14" d="M77.7,381.5c4.6,2.7,6.2,8.6,3.6,13.3l-14.6,25.3c-2.7,4.6-8.6,6.2-13.3,3.6L28,409
		c-4.6-2.7-6.2-8.6-3.6-13.3l14.6-25.3c2.7-4.6,8.6-6.2,13.3-3.6L77.7,381.5z M62.5,417.7l14.6-25.3c1.4-2.3,0.5-5.4-1.8-6.7L50,371
		c-2.3-1.4-5.4-0.5-6.7,1.8l-14.6,25.3c-1.4,2.3-0.5,5.4,1.8,6.7l25.3,14.6C58.1,420.9,61.1,420,62.5,417.7z"/>
</g>
<path class="st5" d="M25.2,101.1L1.2,115l4.9,16.5c0,0,26.9-5.5,28-6.4c1-0.9-1.9-13.6-1.9-13.6L25.2,101.1z"/>
<polygon class="st5" points="33.5,101.5 41.1,114.9 58.1,108.2 "/>
<polygon class="st10" points="31.5,107.3 39.1,119.6 41.2,117.7 35.5,108.6 "/>
<path class="st10" d="M59.8,103.4l15.1,3.5c0,0,1.1,0.2,1.5,0.9c0.5,0.7-2.8,1.7-2.8,1.7l-2.2-0.5l-13.4-3.1L59.8,103.4z"/>
</svg>
