<?xml version="1.0" encoding="utf-8"?>
<!-- Generator: Adobe Illustrator 25.2.1, SVG Export Plug-In . SVG Version: 6.00 Build 0)  -->
<svg version="1.1" id="Layer_1" xmlns="http://www.w3.org/2000/svg" xmlns:xlink="http://www.w3.org/1999/xlink" x="0px" y="0px"
	 width="497.6px" height="509px" viewBox="0 0 497.6 509" style="enable-background:new 0 0 497.6 509;" xml:space="preserve">
<style type="text/css">
	.st0{fill:#BACCD1;stroke:#FFFFFF;stroke-width:2.5;}
	.st1{fill:#BACCD1;stroke:#FFFFFF;stroke-width:0.5;}
</style>
<g>
	<path class="st0" d="M11.3,447.7l-0.3-1.2l-1.2,0.3l-3.8,1c-0.7,0.2-1.4,0.1-2-0.3c-0.6-0.4-1.1-0.9-1.2-1.6l-32.4-121.1
		c-0.4-1.4,0.5-2.9,1.9-3.3l174-46.6l0,0c0.7-0.2,1.4-0.1,2,0.3l0.6-1.1l-0.6,1.1c0.6,0.4,1.1,0.9,1.2,1.6l32.4,121.1
		c0.2,0.7,0.1,1.4-0.3,2c-0.4,0.6-0.9,1.1-1.6,1.2l-3.8,1l-1.2,0.3l0.3,1.2c0.2,0.7,0.1,1.4-0.3,2c-0.4,0.6-0.9,1.1-1.6,1.2
		l-15.1,4.1c-0.7,0.2-1.4,0.1-2-0.3c-0.6-0.4-1.1-0.9-1.2-1.6l-0.3-1.2l-1.2,0.3L32.5,440.7l-1.2,0.3l0.3,1.2c0.2,0.7,0.1,1.4-0.3,2
		c-0.4,0.6-0.9,1.1-1.6,1.2l-15.1,4.1c-0.7,0.2-1.4,0.1-2-0.3C11.9,449,11.5,448.4,11.3,447.7z M174.9,397.1l1.2-0.3l-0.3-1.2
		L145.3,282l-0.3-1.2l-1.2,0.3l-166.5,44.6l-1.2,0.3l0.3,1.2L6.9,440.8l0.3,1.2l1.2-0.3L174.9,397.1z"/>
	<path class="st0" d="M-7.2,337.8l-1.2,0.3l0.3,1.2L0,369.6l0.3,1.2l1.2-0.3L145.3,332l1.2-0.3l-0.3-1.2l-8.1-30.3l-0.3-1.2
		l-1.2,0.3L-7.2,337.8z M140.9,293.4l0.6-1.1L140.9,293.4c0.6,0.4,1.1,0.9,1.2,1.6l10.1,37.8c0.2,0.7,0.1,1.4-0.3,2l1.1,0.6
		l-1.1-0.6c-0.4,0.6-0.9,1.1-1.6,1.2L-0.9,376.7c-0.7,0.2-1.4,0.1-2-0.3l-0.6,1.1l0.6-1.1c-0.6-0.4-1.1-0.9-1.2-1.6L-14.3,337
		c-0.4-1.4,0.5-2.9,1.9-3.3l151.3-40.5C139.6,293,140.3,293.1,140.9,293.4z"/>
	<path class="st0" d="M79.7,329.3l1.2-0.3l-0.3-1.2l-0.7-2.6l5.2-1.4l3.4,12.7l-5.2,1.4l-0.7-2.6l-0.3-1.2l-1.2,0.3l-22.7,6.1
		l-1.2,0.3l0.3,1.2l0.7,2.6L53,346l-3.4-12.7l5.2-1.4l0.7,2.6l0.3,1.2l1.2-0.3L79.7,329.3z"/>
	<path class="st0" d="M93.9,382.3l1.2-0.3l-0.3-1.2l-0.7-2.6l5.2-1.4l3.4,12.7l-5.2,1.4l-0.7-2.6l-0.3-1.2l-1.2,0.3l-22.7,6.1
		l-1.2,0.3l0.3,1.2l0.7,2.6l-5.2,1.4l-3.4-12.7l5.2-1.4l0.7,2.6l0.3,1.2l1.2-0.3L93.9,382.3z"/>
	<path class="st0" d="M6.6,390.8l-1.2,0.3l0.3,1.2l8.1,30.3l0.3,1.2l1.2-0.3L159.1,385l1.2-0.3l-0.3-1.2l-8.1-30.3l-0.3-1.2
		l-1.2,0.3L6.6,390.8z M154.8,346.4l0.6-1.1L154.8,346.4c0.6,0.4,1.1,0.9,1.2,1.6l10.1,37.8c0.2,0.7,0.1,1.4-0.3,2l1.1,0.6l-1.1-0.6
		c-0.4,0.6-0.9,1.1-1.6,1.2L12.9,429.6c-0.7,0.2-1.4,0.1-2-0.3l-0.6,1.1l0.6-1.1c-0.6-0.4-1.1-0.9-1.2-1.6l-10.1-37.8
		c-0.4-1.4,0.5-2.9,1.9-3.3l151.3-40.5C153.4,345.9,154.2,346,154.8,346.4z"/>
</g>
<g>
	<path class="st1" d="M77.8,213.3L77.8,213.3c8.7,5,11.7,16.2,6.7,24.9c-5,8.7-16.2,11.7-24.9,6.7c-8.7-5-11.7-16.2-6.7-24.9
		c2.3-4.1,6-6.8,10.1-8.2l0.2-0.1l-0.1-0.2l-6.5-22.3l-0.1-0.3l-0.3,0.1c-7.2,3.5-16,3.4-23.4-0.9c-4-2.3-7-5.5-9.2-9.2l-0.1-0.2
		l-0.2,0.1L4,188.9L3.8,189l0.1,0.2c3.2,6.7,3.2,14.9-0.8,21.8c-6.4,11.1-20.7,14.9-31.8,8.5c-11.1-6.4-14.9-20.7-8.5-31.8
		c6.4-11.1,20.7-14.9,31.8-8.5c3.2,1.9,5.8,4.4,7.7,7.3l0.1,0.2l0.2-0.1l19.5-10.1l0.2-0.1l-0.1-0.2c-2.9-7-2.7-15.2,1.4-22.2
		c3.6-6.2,9.4-10.2,15.8-11.8l0.2-0.1l0-0.2L34,110.5l0-0.2l-0.2,0c-2.3-0.2-4.5-0.9-6.6-2.1c-7.7-4.4-10.3-14.3-5.9-21.9
		c4.4-7.7,14.3-10.3,21.9-5.9c7.7,4.4,10.3,14.3,5.9,21.9c-2.6,4.6-7.2,7.4-12.1,7.9l-0.3,0l0,0.3l5.5,30.8l0,0.2l0.2,0
		c5.2-0.6,10.5,0.4,15.4,3.2c4.9,2.8,8.4,7,10.5,11.9l0.1,0.2l0.2-0.1l23.1-5.6L92,151l0-0.2c-0.7-3.4-0.2-7.1,1.7-10.4
		c4.1-7.2,13.4-9.6,20.5-5.5c7.2,4.1,9.6,13.4,5.5,20.5c-4.1,7.2-13.4,9.6-20.5,5.5c-2.9-1.7-5.1-4.2-6.3-7.1l-0.1-0.2l-0.2,0.1
		l-22.9,5.6l-0.3,0.1l0.1,0.2c1.8,6.3,1.1,13.3-2.4,19.4c-2,3.5-4.8,6.3-8,8.4l-0.2,0.1l0.1,0.2l6.8,23.2l0.1,0.2l0.2,0
		C70,210.5,74.2,211.2,77.8,213.3z M117.4,154.1c3.4-5.9,1.4-13.4-4.5-16.8c-5.9-3.4-13.4-1.4-16.8,4.5c-3.4,5.9-1.4,13.4,4.5,16.8
		C106.5,162,114,160,117.4,154.1z M41.9,82.8c-6.4-3.7-14.5-1.5-18.2,4.9c-3.7,6.4-1.5,14.5,4.9,18.2c6.4,3.7,14.5,1.5,18.2-4.9
		C50.5,94.7,48.3,86.5,41.9,82.8z M-27.3,217.2c9.8,5.7,22.4,2.3,28.1-7.5c5.7-9.8,2.3-22.4-7.5-28.1c-9.8-5.7-22.4-2.3-28.1,7.5
		C-40.5,198.9-37.1,211.5-27.3,217.2z M26.1,155.2c-6.2,10.7-2.5,24.4,8.2,30.6c10.7,6.2,24.4,2.5,30.6-8.2
		c6.2-10.7,2.5-24.4-8.2-30.6C45.9,140.9,32.2,144.6,26.1,155.2z M55.3,221.3c-4.3,7.4-1.7,16.9,5.7,21.2c7.4,4.3,16.9,1.7,21.2-5.7
		c4.3-7.4,1.7-16.9-5.7-21.2C69.1,211.4,59.5,213.9,55.3,221.3z"/>
</g>
</svg>
