<?xml version="1.0" encoding="utf-8"?>
<!-- Generator: Adobe Illustrator 25.2.1, SVG Export Plug-In . SVG Version: 6.00 Build 0)  -->
<svg version="1.1" id="Layer_1" xmlns="http://www.w3.org/2000/svg" xmlns:xlink="http://www.w3.org/1999/xlink" x="0px" y="0px"
	 width="497.6px" height="509px" viewBox="0 0 497.6 509" style="enable-background:new 0 0 497.6 509;" xml:space="preserve">
<style type="text/css">
	.st0{fill:none;stroke:#B6C9CF;stroke-width:2;stroke-linecap:round;stroke-linejoin:round;}
	.st1{fill:#D3E0FB;}
	.st2{fill:#97A6B7;}
	.st3{fill:url(#SVGID_1_);}
	.st4{fill:url(#SVGID_2_);}
	.st5{fill:url(#SVGID_3_);}
	.st6{opacity:0.3;fill:#D8DEE8;enable-background:new    ;}
	.st7{fill:#0D51D9;}
	.st8{fill:#F4F7FA;}
	.st9{opacity:0.7;}
	.st10{opacity:0.7;fill:#F4F7FA;enable-background:new    ;}
	.st11{fill:url(#SVGID_4_);}
	.st12{fill:#85ADFF;}
	.st13{fill:#FFFFFF;}
	.st14{fill:url(#SVGID_5_);}
	.st15{fill:url(#SVGID_6_);}
	.st16{fill:url(#SVGID_7_);}
	.st17{fill:url(#SVGID_8_);}
	.st18{fill:url(#SVGID_9_);}
	.st19{opacity:0.25;fill:url(#SVGID_10_);enable-background:new    ;}
	.st20{fill:url(#SVGID_11_);}
	.st21{fill:url(#SVGID_12_);}
	.st22{fill:url(#SVGID_13_);}
	.st23{fill:url(#SVGID_14_);}
	.st24{opacity:0.3;fill:url(#SVGID_15_);enable-background:new    ;}
	.st25{fill:url(#SVGID_16_);}
	.st26{opacity:0.3;fill:url(#SVGID_17_);enable-background:new    ;}
	.st27{fill:url(#SVGID_18_);}
	.st28{fill:url(#SVGID_19_);}
	.st29{opacity:0.56;fill:#FFFFFF;enable-background:new    ;}
	.st30{fill:url(#SVGID_20_);}
	.st31{fill:url(#SVGID_21_);}
	.st32{clip-path:url(#SVGID_23_);}
	.st33{clip-path:url(#SVGID_25_);}
	.st34{fill:none;stroke:#B6C9CF;stroke-width:6;stroke-linecap:round;stroke-linejoin:round;}
</style>
<g>
	<path class="st0" d="M434.7,146v-22.5c0-9,3.6-17.5,9.9-23.9c6.3-6.3,14.9-9.9,23.9-9.9c9,0,17.5,3.6,23.9,9.9
		c6.3,6.3,9.9,14.9,9.9,23.9V146"/>
	<path class="st0" d="M502.2,149.8c0,2-0.8,3.9-2.2,5.3s-3.3,2.2-5.3,2.2H491c-2,0-3.9-0.8-5.3-2.2s-2.2-3.3-2.2-5.3v-11.2
		c0-2,0.8-3.9,2.2-5.3c1.4-1.4,3.3-2.2,5.3-2.2h11.2V149.8z M434.7,149.8c0,2,0.8,3.9,2.2,5.3s3.3,2.2,5.3,2.2h3.8
		c2,0,3.9-0.8,5.3-2.2s2.2-3.3,2.2-5.3v-11.2c0-2-0.8-3.9-2.2-5.3c-1.4-1.4-3.3-2.2-5.3-2.2h-11.2V149.8z"/>
</g>
<g>
	<path class="st1" d="M404.8,469.4c-6.9,7.1-13,11.2-17.7,14.3c-45.8,30.6-98.1,21.8-114.3,18.7c-26.1-4.9-48.1-8.3-67.1-25.4
		c-43-38.9-40.9-119.9-8.1-170.1c3.9-6,36.7-54.6,89.2-61.5c1.3-0.2,2.2-0.3,3.1-0.3c8.1-0.9,58.4-5.4,99.4,29
		c5.9,4.9,15.3,13.8,24.1,27.3C445.5,350.9,445.6,427.5,404.8,469.4z"/>
	<path class="st2" d="M341.7,473c-3.7-1.2-6.5-4.4-7.3-8.3l-5.4-26.9l-46.5,1.6l-5.7,28c-0.8,3.9,2.4,7.9,6.1,9.3l19.5,7.6
		c3.6,1.4,7.5,2,11.4,1.7l41.1-3.5c1.2-0.1,2.2-1,2.3-2.3c0.1-1.2,1-2.6-0.2-3L341.7,473z"/>
	
		<linearGradient id="SVGID_1_" gradientUnits="userSpaceOnUse" x1="492.5741" y1="-155.9867" x2="498.373" y2="-99.9267" gradientTransform="matrix(1 0 0 -1 -179.95 367.5)">
		<stop  offset="0" style="stop-color:#444B8C"/>
		<stop  offset="0.9964" style="stop-color:#26264F"/>
	</linearGradient>
	<path class="st3" d="M342.2,471.4c-3.7-1.2-6.5-4.4-7.3-8.2l-5.4-26.6l-45.4,1.6l-5.7,27.7c-0.8,3.9,1.3,7.8,5,9.2l19.4,7.5
		c3.6,1.4,7.5,2,11.4,1.6l41.1-3.5c1.2-0.1,2.2-1,2.3-2.2c0.1-1.2-0.6-2.3-1.7-2.7L342.2,471.4z"/>
	
		<linearGradient id="SVGID_2_" gradientUnits="userSpaceOnUse" x1="452.3237" y1="0.4308" x2="391.1077" y2="-6.6572" gradientTransform="matrix(1 0 0 -1 -179.95 367.5)">
		<stop  offset="0" style="stop-color:#444B8C"/>
		<stop  offset="0.3946" style="stop-color:#383C74"/>
		<stop  offset="0.9964" style="stop-color:#26264F"/>
	</linearGradient>
	<path class="st4" d="M187.4,455.7c-5,0.3-9.2-3-9.2-7.3V292.6c0-4.3,4.1-7.7,9.2-7.4l233.2,10.1c3.7,0.2,6.7,3.3,6.7,7v132.5
		c0,3.7-3,6.9-6.7,7.1L187.4,455.7z"/>
	
		<linearGradient id="SVGID_3_" gradientUnits="userSpaceOnUse" x1="556.5138" y1="112.8474" x2="392.1976" y2="-137.1707" gradientTransform="matrix(1 0 0 -1 -179.95 367.5)">
		<stop  offset="0" style="stop-color:#444B8C"/>
		<stop  offset="0.9964" style="stop-color:#26264F"/>
	</linearGradient>
	<path class="st5" d="M189.5,455.7c-5,0.3-9.2-3-9.2-7.3V292.6c0-4.3,4.1-7.7,9.2-7.4l233.2,10.1c3.7,0.2,6.7,3.3,6.7,7v132.5
		c0,3.7-3,6.9-6.7,7.1L189.5,455.7z"/>
	<path class="st6" d="M422.8,298.3l-233.2-9.6c-2.7-0.1-4.9,1.7-4.9,4v121.2v34.2c0,2.3,2.2,4.1,4.9,3.9l233.2-13.4
		c2-0.1,3.6-1.8,3.6-3.8v-30.3V302.1C426.4,300.1,424.7,298.4,422.8,298.3z"/>
	<path class="st7" d="M189.5,438.8c-1,0.1-1.9-0.6-1.9-1.5V292.8c0-0.9,0.9-1.6,1.9-1.5l233.2,9.2c0.8,0,1.4,0.7,1.4,1.4v123.9
		c0,0.8-0.6,1.4-1.4,1.5L189.5,438.8z"/>
	<path class="st8" d="M202.5,427.1l56.1-2.3v-29.4l-56.1,1.4V427.1z"/>
	<g class="st9">
		<path class="st10" d="M352.9,376.4l8.5-0.1v-62.4l-8.5-0.2V376.4z"/>
		<path class="st10" d="M337.5,376.6l8.7-0.1V345l-8.7,0V376.6z"/>
		<path class="st10" d="M321.8,376.8l8.9-0.1v-69.6l-8.9-0.3V376.8z"/>
		<path class="st10" d="M305.8,377l9-0.1V317l-9-0.2V377z"/>
		<path class="st10" d="M289.4,377.2l9.2-0.1v-16.2l-9.2,0V377.2z"/>
		<path class="st10" d="M272.8,377.5l9.4-0.1v-38.5l-9.4-0.1V377.5z"/>
		<path class="st10" d="M255.8,377.7l9.6-0.1v-56l-9.6-0.2V377.7z"/>
		<path class="st10" d="M238.5,378l9.8-0.1v-41.3l-9.8-0.1V378z"/>
		<path class="st10" d="M220.8,378.2l10-0.1v-64.7l-10-0.2V378.2z"/>
		<path class="st10" d="M202.7,378.4l10.2-0.1v-72.6l-10.2-0.3V378.4z"/>
	</g>
	<path class="st8" d="M369.2,420.1l42-1.8v-4.2l-42,1.6V420.1z"/>
	<path class="st8" d="M369.2,363.8l42-0.2v-4.2l-42,0.1V363.8z"/>
	<path class="st8" d="M369.2,356.3l42-0.1V352l-42-0.1V356.3z"/>
	<path class="st8" d="M369.2,414.1l6.8-0.3v-6.7l-6.8,0.2V414.1z"/>
	<path class="st8" d="M217.9,408.5c3.6,0.1,4.1-1.9,7.6-2.1c6-0.3,7.4,5.5,13.2,5.4c4.7-0.1,5.9-4,10.5-3.5c3.4,0.3,4.1,2.6,7.5,2.9
		c0.7,0.1,1.3,0,2-0.1v13.6l-56.1,2.3V403c3,0.2,5.2,0.9,6.8,1.6C213,406.2,214.3,408.4,217.9,408.5z"/>
	<path class="st8" d="M369.2,346l42,0.2v-36.8l-42-1.2V346z"/>
	<path class="st8" d="M202.7,393.3l158.7-3.5v-6.6L202.7,386V393.3z"/>
	<path class="st8" d="M265.4,424.4l96-4v-28.1l-96,2.3V424.4z"/>
	
		<linearGradient id="SVGID_4_" gradientUnits="userSpaceOnUse" x1="535.6801" y1="113.8318" x2="510.0681" y2="3.1658" gradientTransform="matrix(1 0 0 -1 -179.95 367.5)">
		<stop  offset="0" style="stop-color:#D8DEE8"/>
		<stop  offset="1" style="stop-color:#FFFFFF"/>
	</linearGradient>
	<path class="st11" d="M282.7,263.4V326c0,2.1,1.7,3.8,3.8,3.8h119.9c1.8,0,3.3-1.6,3.3-3.5V268L282.7,263.4z"/>
	<path class="st12" d="M406.4,260.5l-119.9-4.9c-2.1-0.1-3.8,1.5-3.8,3.6v6.4l126.9,4.5v-6C409.6,262.2,408.2,260.5,406.4,260.5z"/>
	<path class="st13" d="M291.3,260.7c0,0.9-0.7,1.6-1.7,1.6c-0.9,0-1.7-0.8-1.7-1.7s0.7-1.6,1.7-1.6
		C290.6,259.1,291.3,259.8,291.3,260.7z"/>
	<path class="st13" d="M308.5,321.6l-9.4,0V275l9.4,0.3V321.6z"/>
	<path class="st7" d="M308.5,321.6l-9.4,0v-22.1l9.4,0.2V321.6z"/>
	<path class="st13" d="M321.4,321.7l-9.3,0v-46.2l9.3,0.3V321.7z"/>
	<path class="st7" d="M321.4,321.7l-9.3,0v-11l9.3,0.1V321.7z"/>
	<path class="st13" d="M334.1,321.8l-9.1,0v-45.9l9.1,0.3V321.8z"/>
	<path class="st7" d="M334.1,321.8l-9.1,0V316l9.1,0.1V321.8z"/>
	<path class="st13" d="M346.7,321.8l-9,0v-45.6l9,0.3V321.8z"/>
	<path class="st7" d="M346.7,321.8l-9,0v-35.7l9,0.2V321.8z"/>
	<path class="st13" d="M359.1,321.9l-8.9,0v-45.3l8.9,0.3V321.9z"/>
	<path class="st7" d="M359.1,321.9l-8.9,0v-31.4l8.9,0.2V321.9z"/>
	<path class="st13" d="M371.3,321.9l-8.8,0v-45l8.8,0.3V321.9z"/>
	<path class="st7" d="M371.3,321.9l-8.8,0v-38.4l8.8,0.2V321.9z"/>
	<path class="st13" d="M383.3,322l-8.6,0v-44.6l8.6,0.3V322z"/>
	<path class="st7" d="M383.3,322l-8.6,0v-27.4l8.6,0.2V322z"/>
	<path class="st13" d="M395.2,322l-8.5,0v-44.3l8.5,0.3V322z"/>
	<path class="st7" d="M395.2,322l-8.5,0v-15.4l8.5,0.1V322z"/>
	
		<linearGradient id="SVGID_5_" gradientUnits="userSpaceOnUse" x1="455.9602" y1="-117.1249" x2="453.3732" y2="-149.0699" gradientTransform="matrix(1 0 0 -1 -179.95 367.5)">
		<stop  offset="0" style="stop-color:#311944"/>
		<stop  offset="1" style="stop-color:#A03976"/>
	</linearGradient>
	<path class="st14" d="M271.1,500.5c0,0,10.1,4.6,10.3,5.3c0.2,0.7-6.5-0.3-9.2-0.2c-2.7,0.1-5-0.7-4.7-1.9c0.2-1.2,1.2-4,1.2-4
		L271.1,500.5z"/>
	
		<linearGradient id="SVGID_6_" gradientUnits="userSpaceOnUse" x1="449.4352" y1="-134.8978" x2="449.9711" y2="-101.8077" gradientTransform="matrix(1 0 0 -1 -179.95 367.5)">
		<stop  offset="0" style="stop-color:#FFC444"/>
		<stop  offset="0.9964" style="stop-color:#F36F56"/>
	</linearGradient>
	<path class="st15" d="M271.5,496.8l-0.6,4.5c0,0-1.6,0.6-2.7-0.1l-0.4-5L271.5,496.8z"/>
	
		<linearGradient id="SVGID_7_" gradientUnits="userSpaceOnUse" x1="408.5223" y1="-113.2833" x2="405.9353" y2="-145.2273" gradientTransform="matrix(1 0 0 -1 -179.95 367.5)">
		<stop  offset="0" style="stop-color:#311944"/>
		<stop  offset="1" style="stop-color:#A03976"/>
	</linearGradient>
	<path class="st16" d="M223.9,496.8l-1.2,1.9c-0.3,0.5-0.4,1.2-0.3,1.8c0.4,1.6,1.2,4.6,1.6,5.4c0.5,1.1,7,1.8,7,1.8
		s0.6-0.8-0.8-1.8c-1.4-1-2.2-1.2-2.7-2.6c-0.5-1.5-0.8-5.6-0.8-5.6L223.9,496.8z"/>
	
		<linearGradient id="SVGID_8_" gradientUnits="userSpaceOnUse" x1="405.9569" y1="-134.1937" x2="406.4927" y2="-101.1027" gradientTransform="matrix(1 0 0 -1 -179.95 367.5)">
		<stop  offset="0" style="stop-color:#FFC444"/>
		<stop  offset="0.9964" style="stop-color:#F36F56"/>
	</linearGradient>
	<path class="st17" d="M228.8,492c-0.4,0.3-2.5,6.7-2.5,6.7s-0.7,0.9-2-0.4c-1.3-1.3-0.6-0.6-0.6-0.6l0.3-6.3L228.8,492z"/>
	
		<linearGradient id="SVGID_9_" gradientUnits="userSpaceOnUse" x1="421.5707" y1="11.8984" x2="456.6898" y2="-98.2906" gradientTransform="matrix(1 0 0 -1 -179.95 367.5)">
		<stop  offset="0" style="stop-color:#311944"/>
		<stop  offset="1" style="stop-color:#A03976"/>
	</linearGradient>
	<path class="st18" d="M277.2,405.4c0.5,13.6,0.5,28.3-0.3,44.1c-0.9,17.7-2.7,34.1-5,49c-0.8,0-1.7,0-2.6,0c-0.6,0-1.2,0-1.8-0.1
		c-1.1-3.1-2.5-7.1-3.7-12c-1.3-5.1-2-9.7-2.6-14c-1.9-15.4,0.4-16.7-1.2-28.1c-1.4-10.1-3.4-10.5-5.7-24.8
		c-2.5-15.6-0.6-17.9,0.3-18.7C258.6,397.2,267.8,399.6,277.2,405.4z"/>
	
		<linearGradient id="SVGID_10_" gradientUnits="userSpaceOnUse" x1="457.4619" y1="-81.3425" x2="432.995" y2="-81.2835" gradientTransform="matrix(1 0 0 -1 -179.95 367.5)">
		<stop  offset="0" style="stop-color:#444B8C"/>
		<stop  offset="0.9964" style="stop-color:#26264F"/>
	</linearGradient>
	<path class="st19" d="M254.7,400.7c3.7-3.4,12.2-1.3,21.2,3.9c-10.4,11.2-11.5,18.4-10.3,23.1c1.4,5.3,5.6,6.9,5.6,12.7
		c0,7.1-6.5,9-6.4,16.6c0.1,5,2.9,5,3.6,11.1c0.8,7.3-2.9,9.8-1.8,15.2c0.5,2.3,2,5.4,6.2,8.5c-0.3,2.2-0.6,4.4-1,6.6
		c-0.8,0-1.7,0-2.6,0c-0.6,0-1.2,0-1.8-0.1c-1.1-3.1-2.5-7.1-3.7-12c-1.3-5.1-2-9.7-2.6-14c-1.9-15.4,0.4-16.7-1.2-28.1
		c-1.4-10.1-3.4-10.5-5.7-24.8C251.9,403.9,253.8,401.6,254.7,400.7z"/>
	
		<linearGradient id="SVGID_11_" gradientUnits="userSpaceOnUse" x1="379.8683" y1="-48.8641" x2="423.364" y2="-79.4721" gradientTransform="matrix(1 0 0 -1 -179.95 367.5)">
		<stop  offset="0" style="stop-color:#311944"/>
		<stop  offset="1" style="stop-color:#A03976"/>
	</linearGradient>
	<path class="st20" d="M270.8,405.2c-8.9,13-18.6,29.2-27.2,48.6c-6.5,14.7-11.3,28.4-14.8,40.7c-0.5,0.2-1.6,0.6-3,0.5
		c-1.9-0.3-3.1-1.5-3.4-1.8c-1.4-8.8-1.2-16.3-0.7-21.6c0.3-3.4,0.9-9.2,3.1-16.3c2.5-7.9,4.2-8.4,7.4-16.8
		c3.3-8.7,2.5-10.9,5.8-21.8c1.3-4.5,3.5-11.1,7.2-19.1C253.7,400.1,262.3,402.6,270.8,405.2z"/>
	
		<linearGradient id="SVGID_12_" gradientUnits="userSpaceOnUse" x1="409.6911" y1="32.5004" x2="465.1863" y2="-58.6116" gradientTransform="matrix(1 0 0 -1 -179.95 367.5)">
		<stop  offset="0" style="stop-color:#AA80F9"/>
		<stop  offset="0.9964" style="stop-color:#6165D7"/>
	</linearGradient>
	<path class="st21" d="M307.1,386.8c-0.1,3.2-5.3,6-9.5,6.8c-9.8,2-21.2-5.1-26.6-13c-1.1-1.5-2.2-3.4-2.5-3.3
		c-0.6,0.3,5.3,10,7.8,21c1.3,5.6,1,8.3,3.4,12c0.6,0.9,1.2,1.7,1,2.7c-0.6,2.5-6.4,3.2-10.3,3.6c-4.2,0.5-8.1,0.4-12,0.4
		c-6.2-0.1-6.7-0.4-8.1,0.3c-4.3,2.1-4,7.2-7.3,7.9c-2.7,0.6-5.5-2.5-6.4-3.4c-4.6-5-4.3-11.1-5.1-17.2
		c-1.9-14.2-9.6-29.8-17.2-39.7c-2.3-3-3.9-4.6-4-7.3c-0.3-8.2,12.6-17.2,23.4-18.2c3-0.3,8.2-0.2,13.2,0.3c2,0.2,4.1,0.5,6.4,0.9
		c5.5,1,9.3,1.6,13.2,3.4c15.7,7.2,12.3,23.2,29.3,34.3C301.6,382,307.2,383.5,307.1,386.8z"/>
	
		<linearGradient id="SVGID_13_" gradientUnits="userSpaceOnUse" x1="424.8574" y1="52.858" x2="421.6355" y2="21.6054" gradientTransform="matrix(1 0 0 -1 -179.95 367.5)">
		<stop  offset="0" style="stop-color:#D8DEE8"/>
		<stop  offset="0.5599" style="stop-color:#EEF0F5"/>
		<stop  offset="1" style="stop-color:#FFFFFF"/>
	</linearGradient>
	<path class="st22" d="M242.7,330.9c0,0-0.7,3.8-2.2,6.4c-1.4,2.4-7.2,3.3-8.4,3.7c-1.2,0.4,1.8,2.5,5.1,3.3
		c3.2,0.8,12.7,1.3,14.5,0.2c1.9-1-1.2-1.3-3.4-2.5c-2.2-1.2-3-5.9-2.3-7.9C246.6,332.2,242.7,330.9,242.7,330.9z"/>
	
		<linearGradient id="SVGID_14_" gradientUnits="userSpaceOnUse" x1="419.5349" y1="22.9104" x2="426.9077" y2="44.6071" gradientTransform="matrix(1 0 0 -1 -179.95 367.5)">
		<stop  offset="0" style="stop-color:#444B8C"/>
		<stop  offset="0.9964" style="stop-color:#3E4177"/>
	</linearGradient>
	<path class="st23" d="M248.9,329.8c2.3-1.7,3-6.2,1.7-7.2c-0.4-0.3-0.7-0.2-6,2c-2.6,1.1-3.9,1.6-4.3,2.8c-0.3,0.7-0.2,1.7,0.1,2.4
		c0.1,0.4,0.4,0.9,1.1,1.8c0.6,0.8,0.5,0.8,0.7,1c0.4,0.6,1.2,1.5,2.7,2.6c0.1-0.4,0.2-0.9,0.4-1.5c0.1-0.2,0.4-1.1,1-1.8
		C247.1,330.7,248.1,330.4,248.9,329.8z"/>
	<path class="st13" d="M242.9,334.1c0,0,1.5,2.3,4.4,2c2.5-0.3,2.7-6,1-7.2c-0.6-0.4-1.7-0.5-2.5-0.2c-0.5,0.2-0.7,0.4-1.5,0.7
		c-0.8,0.2-1,0.2-1.2,0.4c-0.3,0.3-0.5,0.9,0.1,2.5c-0.5-0.5-1.1-0.6-1.5-0.4c-0.1,0-0.2,0.2-0.3,0.3
		C240.9,332.9,241.5,333.7,242.9,334.1z"/>
	
		<linearGradient id="SVGID_15_" gradientUnits="userSpaceOnUse" x1="485.5643" y1="-14.5579" x2="445.93" y2="-14.5579" gradientTransform="matrix(1 0 0 -1 -179.95 367.5)">
		<stop  offset="0" style="stop-color:#AA80F9"/>
		<stop  offset="0.9964" style="stop-color:#6165D7"/>
	</linearGradient>
	<path class="st24" d="M293.4,386.3c-7.1-1.6-9.9-1.6-13.5-4.4c-5.9-4.7-6.7-11.9-10.1-11.8c-1.6,0-2.9,1.7-3.8,3.3
		c0.9,1.3,1.7,2.7,2.6,4c0-0.1,0-0.1,0-0.1c0.3-0.1,1.5,1.7,2.5,3.3c5.4,7.9,16.8,15,26.6,13c2.8-0.6,6.1-2,7.9-3.9
		C300.8,388.1,296.6,387.1,293.4,386.3z"/>
	
		<linearGradient id="SVGID_16_" gradientUnits="userSpaceOnUse" x1="379.6712" y1="14.2152" x2="435.1666" y2="-76.8968" gradientTransform="matrix(1 0 0 -1 -179.95 367.5)">
		<stop  offset="0" style="stop-color:#AA80F9"/>
		<stop  offset="0.9964" style="stop-color:#6165D7"/>
	</linearGradient>
	<path class="st25" d="M218.6,413.6c-4.3,0.4-14,0.6-20.8-5.8c-11.4-10.6-5.7-30.6-1.8-39.3c4.5-9.9,11.8-15.5,16.2-18.8
		c5.5-4.2,8.8-6.7,12.8-6.2c10.4,1.5,17.6,22.7,11.9,28.8c-1.9,2-3.7,0.9-9.1,2.6c-1.8,0.6-14.9,4.7-17.2,14.4
		c-1.6,6.8,2.5,14.7,9.7,20C219.8,410.8,219.2,412.2,218.6,413.6z"/>
	
		<linearGradient id="SVGID_17_" gradientUnits="userSpaceOnUse" x1="460.3493" y1="-27.1283" x2="379.0569" y2="-27.1283" gradientTransform="matrix(1 0 0 -1 -179.95 367.5)">
		<stop  offset="0" style="stop-color:#AA80F9"/>
		<stop  offset="0.9964" style="stop-color:#6165D7"/>
	</linearGradient>
	<path class="st26" d="M266.9,410.1c-4.9-3.1-5.6-6.2-11.1-8.3c-7.1-2.7-10.5,0.7-14-2.1c-4.2-3.3-0.5-9.2-3.6-19.3
		c-0.5-1.7-4.6-14.7-13.8-16.4c-4.3-0.8-10,0.9-12.2,4.5c-1.7,2.9-0.1,5-2.2,8.2c-2.1,3.2-4.6,2.4-7.3,5c-4.2,4.2-4.9,13-1.1,18
		c1.8,2.3,4.1,3.2,8.4,5c2.7,1.1,5.1,1.7,7.3,2.1c-5.3-5.1-8.1-11.7-6.7-17.5c1.4-6,7.1-9.9,11.5-12.1c4.5,8.4,8.1,18.2,9.3,27.3
		c0.8,6.1,0.6,12.2,5.1,17.2c0.9,1,3.6,4,6.4,3.4c3.3-0.7,3-5.8,7.3-7.9c1.4-0.7,1.9-0.4,8.1-0.3c3.9,0.1,7.8,0.1,12-0.4
		c3.5-0.4,8.5-1,10-2.9C274,413.7,269.7,411.9,266.9,410.1z"/>
	
		<linearGradient id="SVGID_18_" gradientUnits="userSpaceOnUse" x1="501.5783" y1="-33.0996" x2="400.6624" y2="-33.0996" gradientTransform="matrix(1 0 0 -1 -179.95 367.5)">
		<stop  offset="0" style="stop-color:#444B8C"/>
		<stop  offset="0.9964" style="stop-color:#26264F"/>
	</linearGradient>
	<path class="st27" d="M221.5,417l-0.5-1.5c-0.8-2.3,0.5-4.9,2.9-5.6l94.9-28.9l2.9,9.8l-94.4,29.1
		C224.8,420.7,222.2,419.4,221.5,417z"/>
	
		<linearGradient id="SVGID_19_" gradientUnits="userSpaceOnUse" x1="594.6547" y1="-1.2463" x2="490.5257" y2="-1.2463" gradientTransform="matrix(1 0 0 -1 -179.95 367.5)">
		<stop  offset="0" style="stop-color:#444B8C"/>
		<stop  offset="0.9964" style="stop-color:#26264F"/>
	</linearGradient>
	<path class="st28" d="M377.7,420.3c-27.2,8.8-56.3-6.6-64.8-35.1c-8.7-29.2,7.7-60.2,36.3-68.5c28.1-8.1,56.5,9.2,63.8,37.8
		C420.1,382.5,404.4,411.7,377.7,420.3z M375.5,412.3c22.6-7.2,35.8-31.8,29.7-55.4c-6.2-24.1-30.1-38.4-53.6-31.6
		c-23.9,7-37.6,32.9-30.4,57.3C328.2,406.6,352.6,419.7,375.5,412.3z"/>
	<path class="st6" d="M318.7,381.1l-12.1,3.7c-0.8,3.9-2.4,6.1-4.1,7.4c-6.1,5.1-14.3-0.5-25.7,5.5c-5.7,3-4.6,4.9-10,7
		c-8.8,3.4-12.9-1.3-20.7,1.8c-7.9,3.2-8.7,10-13.2,9.8c-1.9-0.1-4.4-1.5-7.2-6.8l-2,0.6c-2.4,0.7-3.7,3.2-2.9,5.6l0.5,1.5
		c0.8,2.3,3.4,3.6,5.8,2.9l94.4-29.1L318.7,381.1z"/>
	<path class="st29" d="M377.7,416.3c-23.7,7.6-48.9-5.9-56.3-30.7c-7.5-25.3,6.7-52.2,31.5-59.4c24.4-7.1,49.1,7.8,55.5,32.7
		C414.7,383.3,401.1,408.8,377.7,416.3z"/>
	
		<linearGradient id="SVGID_20_" gradientUnits="userSpaceOnUse" x1="556.6495" y1="-59.7678" x2="539.9025" y2="17.1392" gradientTransform="matrix(1 0 0 -1 -179.95 367.5)">
		<stop  offset="0" style="stop-color:#444B8C"/>
		<stop  offset="0.9964" style="stop-color:#26264F"/>
	</linearGradient>
	<path class="st30" d="M379.5,422.8c-27.2,8.8-56.3-6.6-64.8-35.1c-8.7-29.2,7.7-60.2,36.3-68.5c28.1-8.1,56.5,9.2,63.8,37.8
		C421.9,385,406.2,414.1,379.5,422.8z M377.3,414.8c22.5-7.2,35.8-31.8,29.7-55.4c-6.2-24.1-30.1-38.4-53.6-31.6
		c-23.9,7-37.6,32.9-30.4,57.3C330,409.1,354.5,422.1,377.3,414.8z"/>
	
		<linearGradient id="SVGID_21_" gradientUnits="userSpaceOnUse" x1="531.7351" y1="52.7747" x2="555.1061" y2="-50.3654" gradientTransform="matrix(1 0 0 -1 -179.95 367.5)">
		<stop  offset="0" style="stop-color:#444B8C"/>
		<stop  offset="0.9964" style="stop-color:#26264F"/>
	</linearGradient>
	<path class="st31" d="M378.8,420c-25.7,8.3-53.1-6.3-61.1-33.2c-8.2-27.5,7.3-56.7,34.2-64.5c26.5-7.7,53.3,8.6,60.2,35.6
		C418.8,384.3,404,411.8,378.8,420z M377.3,414.8c22.5-7.2,35.8-31.8,29.7-55.4c-6.2-24.1-30.1-38.4-53.6-31.6
		c-23.9,7-37.6,32.9-30.4,57.3C330,409.1,354.5,422.1,377.3,414.8z"/>
	<path class="st13" d="M219,412.7l1-2.4c0,0,1.6,0.1,2.9-0.8c0.7-0.5,1.9-0.7,2.3-0.6c0.4,0.1,1.7,0,0.2,0.8
		c-1.5,0.7-1.5,1.3-0.9,1.9c0.7,0.6,3.1,1.9,4,2c0.9,0.1-0.7,1.4-1.6,1.6c-0.9,0.2-2.4,0.4-4.2-0.7C221.9,414.2,219,412.7,219,412.7
		z"/>
	<path class="st13" d="M305,392.4c0,0,4-0.4,6.4-1.4c2.4-1,3.9,0.4,3.7,1.5c-0.2,1-4.2,2.4-5.7,2.5C307.8,395,305,392.4,305,392.4z"
		/>
</g>
</svg>
