<?xml version="1.0" encoding="utf-8"?>
<!-- Generator: Adobe Illustrator 25.2.1, SVG Export Plug-In . SVG Version: 6.00 Build 0)  -->
<svg version="1.1" id="Layer_1" xmlns="http://www.w3.org/2000/svg" xmlns:xlink="http://www.w3.org/1999/xlink" x="0px" y="0px"
	 width="579.7px" height="436px" viewBox="0 0 579.7 436" style="enable-background:new 0 0 579.7 436;" xml:space="preserve">
<style type="text/css">
	.st0{fill:#497FEA;}
	.st1{clip-path:url(#SVGID_2_);}
	.st2{fill:#6691E7;}
	.st3{fill:#FFFFFF;}
	.st4{fill:#5184CE;}
	.st5{fill:#8A8A8A;}
	.st6{opacity:0.3;fill:#184655;enable-background:new    ;}
	.st7{fill:#DBDBDB;}
	.st8{fill:#184655;}
	.st9{fill:#CCE6FF;}
	.st10{fill:#E9FFFF;}
	.st11{opacity:0.6;fill:#9BC1F9;enable-background:new    ;}
	.st12{opacity:0.3;fill:#9BC1F9;enable-background:new    ;}
	.st13{fill:#13375B;}
	.st14{fill:#355389;}
	.st15{fill:#9BC1F9;}
	.st16{fill:#F47458;}
	.st17{fill:#5076C1;}
	.st18{fill:#F7A491;}
	.st19{fill:#E0973F;}
	.st20{fill:#DD513A;}
	.st21{fill:#F7CC7F;}
	.st22{fill:#0E2E35;}
	.st23{fill:#F38B80;}
	.st24{opacity:0.5;fill:#F47458;enable-background:new    ;}
	.st25{fill:#F48C7F;}
	.st26{fill:#50BFA5;}
	.st27{fill:#96D9C9;}
	.st28{opacity:0.6;fill:#C5DDF9;enable-background:new    ;}
	.st29{opacity:0.5;fill:#50BFA5;enable-background:new    ;}
	.st30{fill:#F8A492;}
	.st31{fill:none;stroke:#497FEA;stroke-width:3;stroke-miterlimit:10;}
</style>
<g>
	<g>
		<defs>
			<rect id="SVGID_1_" x="223.9" y="214" width="332" height="234"/>
		</defs>
		<clipPath id="SVGID_2_">
			<use xlink:href="#SVGID_1_"  style="overflow:visible;"/>
		</clipPath>
		<g class="st1">
			<path class="st2" d="M464.3,271.2c-4.5,17.7,6.2,35.8,24,40.4c17.7,4.5,35.8-6.3,40.3-24c4.5-17.7-6.2-35.8-24-40.4
				C486.9,242.7,468.8,253.4,464.3,271.2z M472.5,272.1c4-13.2,17.9-20.8,31.1-16.8c13.2,4,20.7,18,16.7,31.2
				c-4,13.2-17.9,20.8-31.1,16.8C476,299.4,468.5,285.4,472.5,272.1z"/>
			<path class="st2" d="M441.4,271.2c0.2,0.8,0.9,1.1,2.6,1.8c3.2,1.3,6.3,2.5,9.4,3.9c0.5,0.2,1,1,1,1.5c0.4,3.3,0.5,6.7,0.9,10
				c0.1,1,0,1.6-0.9,2.2c-3.7,2.3-7.3,4.7-10.9,7.1c0.9,3.9,5.4,12.6,7.9,15c3.8-1.6,7.7-3.2,11.6-4.9c1.2-0.5,1.8-0.4,2.8,0.5
				c2.3,2.2,4.8,4.2,7.4,6.2c1,0.8,1.6,1.4,1.2,2.8c-0.9,3.7-1.5,7.4-2.3,11.2c-0.2,1,0,1.6,1,1.9c4.6,1.4,9.2,2.9,13.9,4.3
				c1.1,0.4,1.3-0.6,1.6-1.3c1.4-3.4,2.9-6.8,4.2-10.2c0.5-1.3,1.2-1.7,2.6-1.8c3.7-0.1,7.4-0.5,11.4-0.8c2.4,3.6,5,7.5,7.6,11.6
				c5.4-1.8,10.2-4.5,14.8-8c-1.8-4.4-3.6-8.7-5.2-12.6c2.7-3.5,5.4-6.7,7.8-10c0.7-1,1.2-1.1,2.3-0.9c3.7,0.8,7.3,1.5,11,2.3
				c0.8,0.2,1.4,0.2,1.8-0.7c2-4.4,3.7-8.9,4.4-13.7c0.2-1.1-0.2-1.5-1.1-1.9c-3.6-1.5-7.1-3-10.7-4.5c-0.9-0.4-1.2-0.7-1.3-1.8
				c-0.3-3.7-0.7-7.3-1.2-10.9c-0.1-0.9,0.2-1.3,0.8-1.7c3.6-2.4,7.2-4.8,11-7.3c-1.9-5.3-4.3-10.2-7.7-14.7
				c-4.4,1.9-8.9,3.7-13.1,5.5c-3.6-3-7-5.8-10.7-8.9c0.7-3.3,1.4-7,2.1-10.8c0.6-3.1,1-2.7-2.1-4c-0.3-0.1-0.5-0.4-0.8-0.5
				c-2.8-0.8-5.6-1.7-8.3-2.5c-0.7-0.1-1.3,0-1.9-0.2c-1.6-0.5-2.5-0.1-3.1,1.6c-1.3,3.6-2.9,7-4.4,10.5c-0.2,0.5-0.9,0.9-1.4,1
				c-3.2,0.4-6.6,0.5-9.8,1.1c-1.6,0.3-2.2-0.2-3-1.4c-2.2-3.5-4.6-6.9-7.1-10.7c-5,2.6-9.8,5.2-14.8,7.8c0.4,1,0.6,1.5,0.8,2.1
				c1.4,3.5,2.8,6.9,4.3,10.4c0.4,1,0.2,1.5-0.5,2.3c-2.3,2.7-4.4,5.6-6.7,8.3c-0.4,0.4-1.2,0.7-1.8,0.6c-3-0.5-6-1.2-9-1.8
				c-2.4-0.5-3.3-0.6-4.1,0.2L441.4,271.2z M463.2,270.9c2.3-8.9,7.8-16.4,15.7-21.1c7.9-4.7,17.1-6,26-3.8
				c8.9,2.3,16.4,7.9,21,15.7c4.7,7.9,6,17.1,3.8,26c-2.3,8.9-7.8,16.4-15.7,21.1c-7.9,4.7-17.1,6-26,3.8c-8.9-2.3-16.4-7.9-21-15.7
				C462.3,289,460.9,279.8,463.2,270.9z"/>
			<path class="st2" d="M254.1,317.2c0.5,0.4,1.1,0.2,2.5-0.3c2.6-0.9,5.2-1.8,7.8-2.6c0.4-0.1,1.1,0.1,1.4,0.4
				c2,1.8,3.8,3.8,5.8,5.6c0.6,0.6,0.8,0.9,0.6,1.8c-1,3.3-2,6.7-2.9,10.1c2.6,1.9,9.9,4.8,12.6,5c1.5-3,3-6,4.5-9.1
				c0.4-1,0.9-1.2,2-1.2c2.6,0.1,5.2,0,7.8-0.1c1-0.1,1.7,0,2.3,1.1c1.4,2.7,3,5.3,4.4,8c0.4,0.7,0.8,1,1.6,0.7
				c3.6-1.6,7.1-3.1,10.7-4.7c0.9-0.4,0.5-1,0.3-1.6c-0.9-2.8-1.8-5.6-2.8-8.4c-0.4-1-0.2-1.6,0.6-2.4c2.2-2,4.3-4.2,6.5-6.5
				c3.3,0.9,7,2,10.7,3c2.3-3.9,3.9-8.1,4.8-12.6c-3.4-1.7-6.8-3.4-9.8-4.9c-0.2-3.6-0.2-6.9-0.5-10.2c-0.1-0.9,0.2-1.3,0.9-1.8
				c2.6-1.4,5.2-2.9,7.9-4.4c0.6-0.3,0.9-0.6,0.7-1.3c-1.1-3.7-2.4-7.3-4.5-10.6c-0.5-0.7-0.9-0.8-1.7-0.5c-2.9,1-5.9,1.9-8.8,2.9
				c-0.7,0.2-1.1,0.2-1.7-0.4c-2.1-2.1-4.3-4.1-6.5-6c-0.6-0.5-0.6-0.9-0.4-1.5c0.9-3.4,1.9-6.7,2.8-10.2c-3.9-2.2-8-3.9-12.4-4.9
				c-1.7,3.5-3.4,6.9-5.1,10.2c-3.7,0.1-7.3,0.2-11.2,0.2c-1.3-2.3-2.8-5-4.4-7.7c-1.3-2.2-0.8-2.2-3.4-1.3
				c-0.2,0.1-0.5,0.1-0.8,0.1c-2.1,1-4.3,1.9-6.4,2.9c-0.4,0.3-0.8,0.7-1.3,0.9c-1.2,0.5-1.6,1.2-1.1,2.6c1.1,2.9,2,5.8,2.8,8.7
				c0.1,0.4,0,1-0.3,1.3c-1.8,2-3.7,3.8-5.3,5.8c-0.8,1-1.4,1.1-2.6,0.7c-3.2-1-6.4-1.8-9.9-2.7c-1.6,4.2-3.3,8.3-4.9,12.5
				c0.7,0.4,1.2,0.6,1.6,0.8c2.7,1.3,5.4,2.7,8.1,4c0.8,0.4,0.9,0.8,0.9,1.6c0,2.9,0.3,5.7,0.3,8.6c0,0.4-0.4,1.1-0.7,1.3
				c-2.1,1.3-4.3,2.4-6.4,3.7c-1.7,1-2.4,1.4-2.4,2.3L254.1,317.2z M267.2,305.5c-3.3-6.6-3.8-14.1-1.5-21.1c2.3-7,7.2-12.7,13.8-16
				c6.6-3.3,14.1-3.8,21-1.5c7,2.3,12.7,7.2,16,13.8c3.3,6.6,3.8,14.1,1.5,21.1c-2.3,7-7.2,12.7-13.8,16c-6.6,3.3-14.1,3.8-21,1.5
				C276.2,317,270.5,312.1,267.2,305.5z"/>
			<path class="st3" d="M394.7,276.1l-1.2,6.5c0.1,0.3,0.4,0.4,1.2,0.6c1.4,0.4,2.8,0.8,4.2,1.2c0.2,0.1,0.5,0.4,0.5,0.6
				c0.3,1.4,0.5,2.8,0.8,4.2c0.1,0.4,0.1,0.7-0.3,0.9c-1.4,1.1-2.9,2.3-4.3,3.5c0.5,1.6,2.9,5.1,4,6c1.5-0.9,3.1-1.7,4.7-2.6
				c0.5-0.3,0.7-0.3,1.2,0.1c1.1,0.8,2.2,1.6,3.4,2.3c0.5,0.3,0.7,0.5,0.7,1.1c-0.2,1.6-0.3,3.2-0.5,4.8c0,0.4,0.1,0.7,0.5,0.8
				c2,0.4,4,0.8,6,1.2c0.5,0.1,0.5-0.3,0.6-0.6c0.5-1.5,0.9-3,1.3-4.5c0.2-0.6,0.4-0.8,1-0.9c1.6-0.2,3.1-0.5,4.8-0.8
				c1.2,1.4,2.4,3,3.7,4.6c2.2-1,4.1-2.3,5.9-4c-1-1.8-1.9-3.5-2.8-5.1c1-1.6,2-3.1,2.8-4.6c0.3-0.4,0.5-0.5,0.9-0.5
				c1.6,0.2,3.2,0.3,4.7,0.5c0.3,0,0.6,0,0.7-0.4c0.7-1.9,1.2-3.9,1.2-6c0-0.5-0.2-0.6-0.6-0.7c-1.6-0.5-3.1-0.9-4.7-1.4
				c-0.4-0.1-0.5-0.2-0.6-0.7c-0.3-1.5-0.6-3.1-1-4.6c-0.1-0.4,0-0.5,0.3-0.8c1.4-1.2,2.8-2.4,4.3-3.6c-1-2.2-2.3-4.1-3.9-5.9
				c-1.8,1-3.6,2-5.3,2.9c-1.6-1.1-3.2-2.1-4.9-3.3c0.1-1.4,0.3-3,0.4-4.7c0.1-1.3,0.3-1.2-1.1-1.6c-0.1,0-0.2-0.1-0.4-0.2
				c-1.2-0.2-2.4-0.5-3.6-0.7c-0.3,0-0.6,0-0.8,0c-0.7-0.1-1.1,0-1.2,0.8c-0.4,1.6-0.9,3.1-1.4,4.6c-0.1,0.2-0.3,0.4-0.5,0.5
				c-1.4,0.3-2.7,0.5-4.1,0.9c-0.7,0.2-0.9,0-1.3-0.4c-1.1-1.4-2.2-2.7-3.5-4.2c-2,1.3-3.9,2.6-5.9,3.9c0.2,0.4,0.3,0.6,0.4,0.9
				c0.8,1.4,1.5,2.8,2.3,4.2c0.2,0.4,0.2,0.6-0.1,1c-0.8,1.3-1.6,2.6-2.4,3.8c-0.1,0.2-0.5,0.4-0.7,0.3c-1.3-0.1-2.6-0.2-3.9-0.4
				C395.4,275.7,395,275.7,394.7,276.1z M406.7,281.5c1.1-5.8,6.6-9.6,12.4-8.5s9.6,6.6,8.5,12.4c-1.1,5.8-6.6,9.6-12.4,8.5
				C409.4,292.8,405.6,287.3,406.7,281.5z"/>
			<path class="st4" d="M404.2,280.2h-20.6c-2.1,0-3.8,1.7-3.8,3.8v6.8c0,2.1,1.7,3.8,3.8,3.8h20.6c2.1,0,3.8-1.7,3.8-3.8v-6.8
				C408,281.9,406.3,280.2,404.2,280.2z"/>
			<path class="st3" d="M376.9,422.4l-21.8,10.1v2.2h77.7v-2.2l-22-10.1H376.9z"/>
			<path class="st5" d="M410.8,379.1h-33.9v43.2h33.9V379.1z"/>
			<path class="st2" d="M496.4,392.7v-97.5c0-4.6-3.7-8.4-8.4-8.4H299.4c-4.6,0-8.4,3.8-8.4,8.4v97.5L496.4,392.7L496.4,392.7z"/>
			<path class="st6" d="M432.8,432.4h-77.7v2.2h77.7V432.4z"/>
			<path class="st7" d="M410.8,417.3h-33.9v5.1h33.9V417.3z"/>
			<path class="st3" d="M291.1,392.7v15.6c0,3.3,2.1,5.9,4.8,5.9h195.8c2.6,0,4.8-2.6,4.8-5.9v-15.6H291.1z"/>
			<path class="st8" d="M396,284.1c0,1.1-0.9,1.9-1.9,1.9s-1.9-0.9-1.9-1.9c0-1.1,0.9-1.9,1.9-1.9S396,283,396,284.1z"/>
			<path class="st9" d="M491.6,388.5v-93c0-2.4-2-4.4-4.6-4.4H300.4c-2.5,0-4.6,2-4.6,4.4v93H491.6z"/>
			<path class="st10" d="M422.1,298.6H304.5v82.3h117.7V298.6z"/>
			<path class="st4" d="M422.1,298.6H304.5v9.6h117.7V298.6z"/>
			<path class="st11" d="M472,319.2h-8v62.3h8V319.2z"/>
			<path class="st11" d="M460.8,338.2h-8v43.3h8V338.2z"/>
			<path class="st11" d="M483.4,332.7h-8v48.8h8V332.7z"/>
			<path class="st11" d="M449.6,330.7h-8v50.7h8V330.7z"/>
			<path class="st11" d="M438.4,345.8h-8v35.7h8V345.8z"/>
			<path class="st12" d="M472,333.5h-8v47.9h8V333.5z"/>
			<path class="st12" d="M460.8,348.1h-8v33.3h8V348.1z"/>
			<path class="st12" d="M483.4,343.9h-8v37.5h8V343.9z"/>
			<path class="st12" d="M449.6,342.4h-8v39h8V342.4z"/>
			<path class="st12" d="M438.4,354h-8v27.4h8V354z"/>
			<path class="st11" d="M417.1,312.2H308.5v14h108.6V312.2z"/>
			<path class="st11" d="M417.1,330.1h-69.9v3.6h69.9V330.1z"/>
			<path class="st4" d="M342.9,330.1h-34.4v41.3h34.4V330.1z"/>
			<path class="st11" d="M417.1,337.7h-69.9v3.6h69.9V337.7z"/>
			<path class="st11" d="M417.1,360.3h-69.9v3.6h69.9V360.3z"/>
			<path class="st11" d="M417.1,367.8h-69.9v3.6h69.9V367.8z"/>
			<path class="st3" d="M259.4,344.9l65.3-0.1c1,0,1.8,0.8,1.8,1.8l0.2,86.2c0,1-0.8,1.8-1.8,1.8l-65.3,0.1c-1,0-1.8-0.8-1.8-1.8
				l-0.2-86.2C257.7,345.7,258.5,344.9,259.4,344.9z"/>
			<path class="st3" d="M322.9,347.3l-61.7,0.1l0.2,84.2l61.7-0.1L322.9,347.3z"/>
			<path class="st13" d="M305.4,343.7c0-0.4-0.3-0.7-0.7-0.7l-25.9,0c-0.4,0-0.7,0.3-0.7,0.7v2.7l27.3,0V343.7z"/>
			<path class="st13" d="M291.8,339.7c-2.3,0-4.1,1.8-4.1,4.1s1.8,4.1,4.1,4.1c2.3,0,4.1-1.8,4.1-4.1S294.1,339.7,291.8,339.7z
				 M291.8,346.4c-1.4,0-2.6-1.2-2.6-2.6c0-1.5,1.2-2.6,2.6-2.6c1.4,0,2.6,1.2,2.6,2.6C294.4,345.2,293.3,346.4,291.8,346.4z"/>
			<path class="st14" d="M305,343c0.2,0.1,0.4,0.4,0.4,0.6v2.7l-27.3,0c0,1.9,1.5,3.4,3.4,3.4l20.5,0c1.9,0,3.4-1.5,3.4-3.4v-2.7
				C305.4,343.4,305.3,343.1,305,343z"/>
			<path class="st15" d="M278.9,343c-0.2,0-0.4,0.1-0.6,0.3C278.4,343.1,278.6,343,278.9,343z"/>
			<path class="st15" d="M278.2,343.5c0,0,0-0.1,0-0.1C278.2,343.4,278.2,343.5,278.2,343.5z"/>
			<path class="st8" d="M315.8,372.2l-8.8,0l0-8.8l8.8,0L315.8,372.2z M307.4,371.8l8,0l0-8.1l-8,0L307.4,371.8z"/>
			<path class="st8" d="M315.9,386.8l-8.8,0l0-8.8l8.8,0L315.9,386.8z M307.5,386.4l8,0l0-8.1l-8,0L307.5,386.4z"/>
			<path class="st8" d="M315.9,401.4l-8.8,0l0-8.8l8.8,0L315.9,401.4z M307.5,401.1l8,0l0-8.1l-8,0L307.5,401.1z"/>
			<path class="st8" d="M315.9,416l-8.8,0l0-8.8l8.8,0L315.9,416z M307.5,415.7l8,0l0-8.1l-8,0L307.5,415.7z"/>
			<path class="st15" d="M303.4,363.6l-37.5,0.1l0,1.3l37.5-0.1L303.4,363.6z"/>
			<path class="st15" d="M303.4,367.2l-37.5,0.1l0,1.3l37.5-0.1L303.4,367.2z"/>
			<path class="st15" d="M303.4,370.7l-37.5,0.1l0,1.3l37.5-0.1L303.4,370.7z"/>
			<path class="st15" d="M303.4,378.7l-37.5,0.1l0,1.3l37.5-0.1L303.4,378.7z"/>
			<path class="st15" d="M303.4,382.3l-37.5,0.1l0,1.3l37.5-0.1L303.4,382.3z"/>
			<path class="st15" d="M303.4,385.9l-37.5,0.1l0,1.3l37.5-0.1L303.4,385.9z"/>
			<path class="st15" d="M303.4,393l-37.5,0.1l0,1.3l37.5-0.1L303.4,393z"/>
			<path class="st15" d="M303.4,396.6l-37.5,0.1l0,1.3l37.5-0.1L303.4,396.6z"/>
			<path class="st15" d="M303.4,400.2l-37.5,0.1l0,1.3l37.5-0.1L303.4,400.2z"/>
			<path class="st15" d="M303.5,407.3l-37.5,0.1l0,1.3l37.5-0.1L303.5,407.3z"/>
			<path class="st15" d="M303.5,410.9l-37.5,0.1l0,1.3l37.5-0.1L303.5,410.9z"/>
			<path class="st15" d="M303.5,414.5l-37.5,0.1l0,1.3l37.5-0.1L303.5,414.5z"/>
			<path class="st15" d="M309.3,423.8l-43.3,0.1l0,1.3l43.3-0.1L309.3,423.8z"/>
			<path class="st15" d="M317.8,426.8l-51.8,0.1l0,1.3l51.8-0.1L317.8,426.8z"/>
			<path class="st16" d="M311.4,370.7l-2.7-4.7l1-0.6l1.6,2.7l2.6-6.2l1,0.4L311.4,370.7z"/>
			<path class="st16" d="M311.4,385.5l-2.7-4.7l1-0.6l1.6,2.7l2.6-6.2l1,0.4L311.4,385.5z"/>
			<path class="st16" d="M311.5,414.5l-2.7-4.7l1-0.6l1.6,2.7l2.6-6.2l1,0.4L311.5,414.5z"/>
			<path class="st16" d="M314.5,394.8l-0.8-0.8l-2.2,2.2l-2.2-2.2l-0.8,0.8l2.2,2.2l-2.2,2.2l0.8,0.8l2.2-2.2l2.3,2.2l0.8-0.8
				l-2.2-2.2L314.5,394.8z"/>
			<path class="st12" d="M267.6,403.4c-2.2,0-4.3,0.4-6.2,1.3v2.1c1.9-0.9,4-1.5,6.2-1.5c7.9,0,14.3,6.4,14.3,14.3
				c0,5.1-2.6,9.5-6.6,12.1h3.1c0.2-0.2,0.4-0.4,0.7-0.6c3-3.1,4.7-7.1,4.7-11.5c0-4.3-1.7-8.4-4.8-11.4
				C276,405.1,271.9,403.4,267.6,403.4z"/>
			<path class="st12" d="M267.6,407.8c-2.3,0-4.4,0.7-6.2,1.8v1.1c1.8-1.3,3.9-2,6.2-2c6,0,10.8,4.9,10.9,10.8
				c0,6-4.8,10.9-10.8,10.9c-2.3,0-4.5-0.7-6.3-2v1.1c1.8,1.1,4,1.8,6.3,1.8c6.5,0,11.8-5.3,11.8-11.8
				C279.4,413.1,274.1,407.8,267.6,407.8z"/>
			<path class="st17" d="M338.4,253.9c0.2,0,0.9,0.2,1.8,2c1.2,2.3,3,9.2,3,9.2l-5.3,2l-0.7-1.4l-1.1-11.1
				C336.2,254.5,338.4,253.9,338.4,253.9z"/>
			<path class="st2" d="M331.5,252.9c1.5,0,5.2,0.4,6.9,1c0,0,1.3,10.9-1.1,19.2c-0.5,1.9,0.4,7.7,0.4,7.7l-15.6-0.2
				c0,0,1.8-14.1,1.1-16.4c-0.7-2.3-0.7-10.2-0.7-10.2s0.1,0,3.5-0.6C327.7,253.1,329.9,252.9,331.5,252.9z"/>
			<path class="st18" d="M329.7,301c0,0,0.4,4,1,5.1c0.6,1.1,0,3-0.1,3.2c0,0.3-1.3,0.6-3.4,0.4c-2.1-0.2-2-0.7-1.9-1.5
				c0.2-0.8,1.3-1.8,1.3-2.5c0.1-0.7-0.6-3.4-0.6-3.4L329.7,301z"/>
			<path class="st19" d="M336,277.5c0,0,10.8-0.6,13.1,0.9c2.4,1.5-1.7,8.6-1.7,8.6s-7.5-0.4-22.1,0.5c-3.5,0.2-3.8-9.1-3.1-9.8
				C322.8,276.9,336,277.5,336,277.5z"/>
			<path class="st20" d="M326.9,310.1c-2.1-0.2-1.9-1.3-1.7-2.1c0.1-0.5,0.7-1.1,1.1-1.6c0.2,0.2,0.5,0.4,1.4,0.7
				c1,0.3,2.3-0.3,3.1-0.6c0.3,1.1,0.3,2.5,0.3,2.7C331.1,309.5,329,310.3,326.9,310.1z"/>
			<path class="st21" d="M328.1,285.2c0.4,3.3,2.6,19.5,2.6,19.5l-4.9,0.6c0,0-6.1-21.2-5.8-24.4c0.3-3.2,2.6-3.5,2.6-3.5
				S326.9,276.6,328.1,285.2z"/>
			<path class="st18" d="M322.4,255.1c1.5-0.5,2.2,12.6,2.4,18c2.6,0.2,7.1,0,8.2-0.1c0.5,0,1.7-0.5,2.3-0.5c0.5-0.1,1-0.1,1.3-0.1
				c0.1,0,2.8,1.1,3,1.4c0.3,0.3,1.1,1.1,0.9,1.4c-0.1,0.3-1.5-0.9-1.5-0.9l-0.7-0.4c0.8,0.8,2.4,1.9,2.2,2.3
				c-0.2,0.4-1.6-0.7-2.7-1.4c0.9,0.8,1.9,2.2,1.7,2.4c-0.2,0.2-1.4-1.4-2.8-1.9c-0.5-0.2-1,0.3-1.3,0.4c-0.3,0-0.7,0.1-1,0.1
				l-1.4-0.4c-0.5,0-0.5,0.3-1,0.4c-0.6,0.1-1.5,0.2-2.2,0.4c-4.1,1-5.5,1.5-6.8,1.5C319.2,277.6,319,256.4,322.4,255.1z"/>
			<path class="st17" d="M319.7,267.5c-0.3-5.5-0.2-12.4,2.9-13.5c1.2-0.5,3.4,2.3,3,13.7C323.9,267.7,321.4,267.9,319.7,267.5z"/>
			<path class="st18" d="M344.6,304.9c0,0-0.7,1.3-0.2,2.3c0.6,1.1,3.5,2.6,3.8,3.2s0.2,1,0.2,1l-8.7-2.1l0.7-2.6l0.8-1.8
				L344.6,304.9z"/>
			<path class="st20" d="M344.9,307.8c0,0-2.5,0.4-3.4-0.4c-1-0.8-0.9-0.9-1.3-0.8c-0.2,0.1-0.6,1.1-0.8,1.9
				c-0.1,0.4,0.1,0.8,0.5,0.9l9.1,2.3c0.7,0.1,1.1-0.3,0.7-0.9c-0.3-0.4-0.7-0.7-0.9-0.9C348.1,309.3,344.9,307.8,344.9,307.8z"/>
			<path class="st21" d="M343.7,280c0.7-1.5,2.3-3.4,5.1-2.2c2.7,1.1,3.4,3.8,2.5,6.6s-6.3,19-6.5,21.2l-4.4,0c0,0,0.8-12.8,1-15.9
				C341.6,286.7,342.5,282.6,343.7,280z"/>
			<path class="st8" d="M350.9,265.1h-14.7c-0.4,0-0.7,0.2-0.9,0.6l-4.5,11.1h-8.1c-0.2,0-0.4,0.2-0.4,0.4s0.2,0.4,0.4,0.4h23.1
				c0.6,0,1.2-0.4,1.5-1l4.6-10.2C352,265.8,351.6,265.1,350.9,265.1z"/>
			<path class="st3" d="M343,271.6c-0.1,0.5-0.5,0.8-1,0.7c-0.4-0.1-0.7-0.6-0.6-1.1c0.1-0.5,0.5-0.8,1-0.7
				C342.8,270.6,343.1,271.1,343,271.6z"/>
			<path class="st22" d="M335,239.5c-0.4-0.2-0.9-0.3-1.3-0.5c-0.5-0.2-1.1-0.5-1.5-0.6c-0.8-0.1-2.2,0-3,0.8
				c-1,1.1-2.7,0.2-2.3,5.7c0.4,6.2,3.9,5.6,3.9,5.5c0.1-0.1,3.1-4,3.1-4s1.1,2.3,1.1,2.2C334.9,248.6,340.3,241.3,335,239.5z"/>
			<path class="st18" d="M332.3,250.9l0.3,2.2c0,0,0.7,3.2-0.2,3.8c-0.9,0.6-3.7-3.9-3.7-3.9l0.3-5.7L332.3,250.9z"/>
			<path class="st16" d="M329,249.2c0.7,1.9,2.4,3.1,3.6,3.6l-0.3-1.9l-3.3-3.5L329,249.2z"/>
			<path class="st18" d="M332.2,241.2c1.8-0.3,3.5,1.2,3.4,3c0,0.8-0.1,1.8-0.2,2.9c-0.4,2.6-2.1,4.8-3.3,4.6
				c-1.2-0.2-4.1-2.4-3.6-6.1C328.8,243.4,330.2,241.5,332.2,241.2z"/>
			<path class="st18" d="M329.2,246.1c-0.1,0.6-0.5,1-1,0.9c-0.5-0.1-0.8-0.6-0.7-1.2c0.1-0.6,0.5-1,1-0.9
				C329.1,245,329.4,245.5,329.2,246.1z"/>
			<path class="st22" d="M328.6,244.9c0,0,1.4,0.4,1.9-0.5c0.5-0.9,2.4-2.9,4.8-2c2.4,0.8-2.1-2-2.3-2c-0.2,0-2.5,0-2.5,0
				s-1.8,1.4-1.8,1.6c-0.1,0.2-0.6,1.9-0.6,1.9L328.6,244.9z"/>
			<path class="st3" d="M331.2,248.7l2.6,0.5c0,0-0.2,1-1.4,0.8C331,249.7,331.2,248.7,331.2,248.7z"/>
			<path class="st18" d="M360.9,424.8c0,0-0.5,3.3-1.3,4.3c-0.3,0.4-0.8,0.8-1.1,1.4c-0.5,1-0.2,2.5,0.2,3.3c0.2,0.4,0,0.4,0.4,0.5
				c1.3,0.4,2.7-0.3,3.2-1.5c0.3-0.7,0.6-1.6,0.6-2.8c0.1-3,1.1-4.5,1.1-4.5L360.9,424.8z"/>
			<path class="st18" d="M374.9,426.3c0,0,0.3,3.7,0.1,4.9c-0.1,0.6-0.8,2-0.5,2.6c0.3,0.6,0.7,0.7,0.7,0.7l8.3,0.1
				c0.5,0,0.2-0.3-0.2-0.6c-0.6-0.4-1.1-0.7-3-1.7c-0.1-0.1-0.6-0.4-0.7-0.5c-0.4-0.3-0.8-0.7-1.2-1.1c-0.6-0.7-0.7-3.9-0.7-3.9
				L374.9,426.3z"/>
			<path class="st17" d="M381.4,377.4c0,0,1.1,6,0.4,9.9c-0.7,3.9-4,40.3-4,40.3l-3.7,0.2c0,0-0.8-15.2-0.6-17.3
				c0.1-2.1,1.2-5.6,1.2-5.6l-0.4-12.3l4.6-16.1L381.4,377.4z"/>
			<path class="st2" d="M370.7,376.1c0,0-2.9,4.4-3.6,8s0.5,14.7-0.8,19.5c-0.7,2.6-3.4,6.5-3.8,9.9c-0.4,3.3-2,12-2,12l3.7,0.7
				l8.5-21.7l6.7-19.6l1.7-10.1L370.7,376.1z"/>
			<path class="st21" d="M362.5,432.3c-2,0.4-3.3-0.8-4-1.7c-0.5,1-0.8,2.5-0.4,3.3c0.3,0.7,1.3,0.7,2,0.7c0.8,0,1.4-0.4,1.8-1.1
				C362.2,433.2,362.4,432.8,362.5,432.3z"/>
			<path class="st21" d="M379.5,432c-2.2,0.6-3.8,0.2-4.7-0.2c-0.2,0.7-0.5,1.5-0.4,2c0.2,0.6,0.5,0.7,0.7,0.7
				c2,0.1,7.3,0.1,8.9,0.1c0.2,0,0.3-0.2,0.2-0.4C383.9,433.8,379.7,432.1,379.5,432z"/>
			<path class="st23" d="M394.6,367c0.2-0.3-1.5-0.8-1.5-1.1c0-0.4,2.1-0.2,2.2-0.4c0.2-0.5-2.4-0.4-2.3-0.6c0.1-0.3,2.7-0.6,2.5-1
				c-0.2-0.5-2.7,0.6-2.7,0.3c0-0.3,2.4-0.8,2.4-1.5c0-0.4-4,1.4-4.5,1.1c-0.4-0.2,0.7-1.8,0.3-2.1c-0.3-0.3-1.7,3-2,3.1
				c-0.3,0.1-5.8,1.8-7.7,2c-0.2-0.6-1.6-4.2-1.7-4.8c-1.1,0.6-2.5-0.1-3.6,0.4c0.6,2,1.8,8.6,2.4,8.9c1.6,0.9,9.7-3.4,11.1-4.2
				c1.4-0.8,2-0.4,2.9-0.6C393.3,366.5,394.4,367.4,394.6,367z"/>
			<path class="st22" d="M380,347.5c0.4-1.9,0.8-3.8-0.3-5.8c-0.9-1.7-2.4-2.6-4.2-2.8c-5-0.6-3.9,4.1-10.9,5.1
				c-2.2,0.3-4.2,0.6-6,1.7c-3.3,1.9-4.5,5.1-2.3,10.2c5.3,12.4,18,1.6,19.9-0.6C378.2,353,379.7,348.7,380,347.5z"/>
			<path class="st21" d="M372.2,353.4c0,0-2.5,0.3-4,1.9c-1.5,1.6,2.4,14.8,2.7,16.9c0.3,2.1-2.6,7.9-2.6,7.9s9.8,2,12.4,0.3
				c0,0,0.2-16.1,0-17.6c-0.3-1.5-2.6-7.5-3.1-8.1C376.9,354,372.2,353.4,372.2,353.4z"/>
			<path class="st18" d="M373.4,348.4c0,0,0,0.1-0.1,0.3c-0.2,0.9-0.8,3.9-1.3,4.8c-0.5,1,1.8,4.2,4.1,3.8c0.7-0.1-0.6-2.9-0.5-3.3
				c0.1-0.6,0.3-1.4,0.4-2.2c0.1-0.5,0.2-0.9,0.3-1.3c0.2-1.2,0.4-2.2,0.4-2.2L373.4,348.4z"/>
			<path class="st24" d="M373.4,348.7c0-0.2,0.1-0.3,0.1-0.3l3.4-0.1c0,0-0.2,1-0.4,2.2c-0.1,0.4-0.2,0.9-0.3,1.3
				c-0.5-0.1-1.1-0.3-1.6-0.8c-0.6-0.5-1-1.2-1.2-1.8C373.3,349,373.3,348.8,373.4,348.7z"/>
			<path class="st18" d="M375.5,340.3c0,0-1.4,0.2-2.4,1.5c-1,1.3-2.1,5.3,0.4,7.5c2.5,2.2,5-0.3,5.3-2.9
				C379.2,343.7,379.1,340.2,375.5,340.3z"/>
			<path class="st18" d="M379.5,345.7c-0.2,0.6-0.6,1.1-0.9,1c-0.4-0.1-0.5-0.7-0.4-1.3c0.2-0.6,0.6-1.1,0.9-1
				C379.5,344.5,379.7,345.1,379.5,345.7z"/>
			<path class="st22" d="M377,340.3c0,0-3.3,3.7-4.8,3.9c-1.5,0.2-1.7,2.2-1.7,2.2s0.5-4.7,2.1-5.6C374.1,339.9,377,340.3,377,340.3
				z"/>
			<path class="st18" d="M372.7,345.1c0.1,0.7-0.1,1.3-0.6,1.4c-0.4,0.1-0.9-0.4-1-1.1c-0.1-0.7,0.1-1.3,0.6-1.4
				C372.1,343.9,372.6,344.4,372.7,345.1z"/>
			<path class="st8" d="M372.7,364.1l10.5,1.5c0.3,0,0.5,0.3,0.5,0.7l-2.1,14.1c0,0.3-0.3,0.5-0.7,0.5l-10.5-1.5
				c-0.3,0-0.5-0.3-0.5-0.7l2.1-14.1C372.1,364.3,372.4,364.1,372.7,364.1z"/>
			<path class="st13" d="M380.5,364.8c0-0.1,0-0.1-0.1-0.1L376,364c-0.1,0-0.1,0-0.1,0.1l-0.1,0.5l4.6,0.7L380.5,364.8z"/>
			<path class="st13" d="M378.3,363.8c-0.4-0.1-0.7,0.2-0.8,0.6c-0.1,0.4,0.2,0.7,0.6,0.8c0.4,0.1,0.7-0.2,0.8-0.6
				C379,364.2,378.7,363.9,378.3,363.8z M378.2,364.9c-0.2,0-0.4-0.3-0.4-0.5c0-0.2,0.3-0.4,0.5-0.4c0.2,0,0.4,0.3,0.4,0.5
				C378.6,364.8,378.4,365,378.2,364.9z"/>
			<path class="st14" d="M380.5,364.7c0,0,0.1,0.1,0.1,0.1l-0.1,0.5l-4.6-0.7c0,0.3,0.2,0.6,0.5,0.7l3.5,0.5c0.3,0,0.6-0.2,0.7-0.5
				l0.1-0.5C380.5,364.8,380.5,364.7,380.5,364.7z"/>
			<path class="st3" d="M377.3,347.6l-2.4,0c0,0,0,0.9,1.1,0.9C377.3,348.6,377.3,347.6,377.3,347.6z"/>
			<path class="st18" d="M365.3,367.7l3.8,0.4c0,0-0.1,3.2,0,3.6c0,0,6.5,1.8,9.2,2.3c0,0,1.2-0.7,1.7-0.9c0.5-0.2,1.9-0.5,2.1-0.5
				c0.3,0,0.2,0.3-0.1,0.4c-0.3,0.1-0.9,0.4-1.1,0.8c0,0,0.5,0.1,0.8-0.1c0.3-0.1,0.7-0.4,0.7-0.5c0-0.1,0.1-0.5,0.2-0.5
				c0,0,0.1,0.1,0.1,0.2c0,0.1,0.1,0.2,0.1,0.3c0,0.2,0.1,0.5,0.1,0.6c0,0.3-0.1,1.1-0.2,1.4c0,0.5-0.2,0.8-0.5,0.9
				c-0.5,0.2-0.9,0.3-1.6,0.3c-1.3,0.1-2.5-0.2-3-0.3c-0.5-0.1-8.8-0.9-8.8-0.9s-3.3-0.5-3.5-1C365.2,373.8,365.3,367.7,365.3,367.7
				z"/>
			<path class="st21" d="M368.6,354.9c0,0-1.2,0.6-2.3,3c-1,2.4-1.3,14.1-1.3,14.1l4-0.7l2-5.5c1.4-3.3,1.1-7.1-1-10
				C369.5,355.1,368.9,354.7,368.6,354.9z"/>
			<path class="st11" d="M448.5,298.6h-16.9v17h16.9V298.6z"/>
			<path class="st11" d="M484.5,298.6h-33v2.3h33V298.6z"/>
			<path class="st11" d="M473.8,303.5h-22.3v2.3h22.3V303.5z"/>
			<path class="st11" d="M481.2,308.4h-29.7v2.3h29.7V308.4z"/>
			<path class="st18" d="M495.9,354.9c-0.7-0.6-6,1.8-6,2.6c0.1,0.8-3.7,8.8-3.7,8.8l-6.6-5.3c-0.1-0.2-0.7-2.2-0.7-2.6
				c0-0.4-1.1-1.1-1.7-1c-0.5,0.1,0.4,0.7,0.5,0.9c0.2,0.3-0.5,0.4-0.5,0.4s-1.9-0.6-1.9-1.2c0-0.6-1.3,1.1-1.2,1.3s3.2,2.7,3.7,3.2
				c0,0,8.5,9.7,9.1,10c0.5,0.2,2.4-3.1,4.2-5.4C492.9,364.6,498.1,356.7,495.9,354.9z"/>
			<path class="st25" d="M513.1,426.6c0,0,1.2,1.1,1.2,1.6c0,0.4,0.1,4.9-0.4,5.3c-0.5,0.4-1.9,0.7-1.4,1.2c0.3,0.4,3,0.3,4.7,0.2
				c0.5,0,1.1-4.1,1.3-4.7c0.3-0.9,1-2.8,0.7-3.4c-0.1-0.3-0.7-0.9-1.6-1.5c-0.9-0.6-1.8-1.9-1.8-1.9L513.1,426.6z"/>
			<path class="st18" d="M500.9,429.2c0,0,1.1,3,1.1,3c0.1,0.5,0.4,1.6,0.4,2.1c0,1.6-7.2-1.4-5.6-2.1c0.2-0.1,0.6-0.6,0.7-1.1
				c0.1-0.8-0.6-1.9-0.6-1.9L500.9,429.2z"/>
			<path class="st26" d="M489.6,374.1c0,0-0.5,5.3-0.5,5.4c0,8.6-1.7,25.4-1.4,27c0.8,3.9,9.3,24,9.3,24l4.6-0.6l-4.9-24.3l1.1-9.5
				l3.1-19.1L489.6,374.1z"/>
			<path class="st27" d="M505,378.8l0.9,5l2.3,20.7l9,20.2c0,0-1.3,2.9-3.1,3.4l-14.2-20.8l-8.9-26.6l0.3-5.9L505,378.8z"/>
			<path class="st17" d="M487.8,361.5l6.4,0.7c0,0,0.3-5.2,0.3-7.7c0-3-0.3-6.9-0.6-6.8c-1,0.2-2.4,0.8-3.2,1.9
				C487.8,353.4,487.8,361.5,487.8,361.5z"/>
			<path class="st2" d="M490.9,353.9c-0.1,0.9-2.6,26-2.6,26c11.6,5.6,18,1,18,1s-0.4-17.6,0.1-20c0.3-1.6,0.7-12.1-0.3-12.4
				c-1.3-0.4-2.8-0.8-4.5-0.9c-1.4-0.1-6.8-0.2-7.8,0.1C493.8,347.6,491.5,350,490.9,353.9z"/>
			<path class="st16" d="M517.5,425.2c0,0-2.7,7.6-3.7,8c-0.3,0.1-1.6,0.3-1.9,0.9c-0.1,0.2,0,0.8,0,0.8h5.6c0,0,0.7-3.3,1-4.8
				c0,0,1.5-3.6,1.3-3.9C519.7,425.9,517.5,425.2,517.5,425.2z"/>
			<path class="st16" d="M502.8,434.8l-0.8-2.6c0,0-1.7,0.7-2.6,0.6c-0.9-0.1-2.6-0.6-2.6-0.6c-3.5,1.1-6.3,1.7-5.8,2.6H502.8z"/>
			<path class="st18" d="M486.9,372.1c0,0-0.1-0.1-0.2-0.1c0.2-2.5,0.2-4.8-0.6-5.6c0,0,0.2-0.4,0.4-0.8c0.9,0.7,1.3,2.5,1.1,5.5
				c0,0.2-0.1,0.4-0.1,0.6C487.3,372,487,372.2,486.9,372.1z"/>
			<path class="st18" d="M500,342.7l0.7,4.9c0,0-2.7,5.9-4.4,5.4c-1.4-0.4-0.5-5.6-0.5-5.6s0.7-2.8,0.5-4.2
				C496.2,341.8,500,342.7,500,342.7z"/>
			<path class="st16" d="M496.4,343.1c-0.2-1.4,3.6-0.5,3.6-0.5l0.1,0.4c-0.1,0.3-0.2,0.5-0.4,0.7c-0.9,0.9-2.2,1.5-3.4,1.5
				C496.4,344.5,496.5,343.7,496.4,343.1z"/>
			<path class="st18" d="M500.7,335.7c0.1,0,0.9,5.6-0.6,7.2c-1.4,1.6-4.3,2.1-5.3,0.8c-1.1-1.4-1.1-7.4,1.2-9
				C498.2,333.1,500.7,335.7,500.7,335.7z"/>
			<path class="st22" d="M496.9,331.6c1.7,0.4,2.9,1.4,3.3,1.9c0.8,0.1,1.9,0.5,3,2.4c1.4,2.3,0.4,4.8-1.2,6
				c-1.6,1.2-1.6,2.6-1.6,2.6l-0.2-0.7c-0.2-0.5-0.3-1.1-0.2-1.7c0-0.4,0.1-0.7,0.3-1c0.4-0.8-0.8-1.4-1.2-2
				c-0.3-0.5-0.3-1.7-0.7-2.6l-0.5-0.7c0,0-1.1-0.9-2.2-0.6C494.5,335.3,494.6,331.2,496.9,331.6z"/>
			<path class="st18" d="M499,340c0,0.7,0.3,1.3,0.7,1.3c0.4,0,0.7-0.5,0.7-1.2c0-0.7-0.3-1.3-0.7-1.3
				C499.4,338.7,499.1,339.3,499,340z"/>
			<path class="st3" d="M496.7,341.6l-2.2-0.1c0,0,0,0.8,1,0.9C496.6,342.4,496.7,341.6,496.7,341.6z"/>
			<path class="st22" d="M478.9,354.4c0.5-0.5,1-1.1,1.4-1.6l9.5,9.3c0.6,0.6,0.4,1.7-0.4,2.6c-0.8,0.9-2,1.1-2.6,0.5l-9.5-9.3
				C477.9,355.4,478.4,355,478.9,354.4z"/>
			<path class="st28" d="M478.7,354.2c9.2-9.5,9-24.7-0.5-34c-9.5-9.3-24.7-9.2-33.9,0.3c-9.2,9.5-9,24.7,0.5,34
				C454.3,363.8,469.5,363.7,478.7,354.2z"/>
			<path class="st3" d="M478.8,354c-3.9,4.2-9.3,6.9-15.2,7.5L437.6,335c0,0,0-0.1,0-0.2c0.6-6,3.4-11.3,7.5-15.1L478.8,354z"/>
			<path class="st3" d="M461.3,313.3l24,24.4c0,0.7-0.1,1.5-0.1,2.2c-0.4,3.4-1.4,6.6-3,9.4l-32.4-33
				C453.2,314.4,457.1,313.3,461.3,313.3z"/>
			<path class="st8" d="M442.6,356.8c10.8,10.5,27.9,10.4,38.4-0.3c10.4-10.7,10.2-27.9-0.6-38.4c-10.8-10.5-27.9-10.4-38.4,0.3
				C431.6,329.1,431.9,346.3,442.6,356.8z M444.8,354.5c-9.5-9.3-9.7-24.5-0.5-34c9.2-9.5,24.4-9.6,33.9-0.3
				c9.5,9.3,9.7,24.5,0.5,34C469.5,363.7,454.3,363.9,444.8,354.5z"/>
			<path class="st29" d="M443.8,355.6c10.1,9.9,26.2,9.7,36-0.3c9.8-10.1,9.6-26.2-0.5-36.1c-10.1-9.9-26.2-9.7-36,0.3
				C433.4,329.6,433.7,345.7,443.8,355.6z M444.8,354.5c-9.5-9.3-9.7-24.5-0.5-34c9.2-9.5,24.4-9.6,33.9-0.3
				c9.5,9.3,9.7,24.5,0.5,34C469.5,363.7,454.3,363.9,444.8,354.5z"/>
			<path class="st8" d="M519.3,395.2l1.5-1.5c1.5-1.5,1.4-4-0.1-5.4l-27.4-26.6c-1.5-1.5-4-1.4-5.4,0.1l-1.5,1.5
				c-1.5,1.5-1.4,4,0.1,5.4l27.4,26.6C515.4,396.7,517.8,396.7,519.3,395.2z"/>
			<path class="st30" d="M517.8,380.1c0-0.1,0-0.1,0-0.2c-0.2-1.7-1.6-16.3-1.8-16.9c-0.2-0.6-6.7-9.8-6.7-9.8l-3.2,4.3l6.2,8.3
				c0.1,0.5,2.4,10.4,2.4,10.4s0.5,1.8,0.7,2.9c-0.1,0.3-0.2,0.5-0.3,0.7c-0.2,0.4-0.4,0.8-0.7,1.1c-0.3,0.4-0.7,1.2-0.8,1.4
				c-0.1,0.3-0.2,0.8-0.2,1.1c-0.1,0.3-0.2,0.7-0.2,0.9c0,0.1-0.1,0.3-0.2,0.5c-0.1,0.2,0.1,0.5,0.3,0.4c0.2-0.1,0.4-0.4,0.5-0.5
				c0.3-0.5,0.5-1.5,0.5-1.4c0.1,0,0.3,1.6,0.4,1.8c0,0.2,0.4,2,0.5,2.4c0.2,0.3,0.4,0.3,0.5,0.1c0.1-0.2-0.2-2.8-0.2-2.8
				s0-0.3,0.1-0.2c0.1,0.1,0.4,2.4,0.5,2.8c0.1,0.3,0.3,0.5,0.5,0.2c0.2-0.3-0.2-2.8-0.2-2.8s0-0.3,0.1-0.3c0.1,0,0.3,2,0.4,2.2
				c0.1,0.2,0.4,0.2,0.5-0.1c0.2-0.3-0.2-2.6-0.2-2.6s0-0.2,0.1-0.1c0.1,0.1,0.3,1.8,0.5,1.9c0.1,0.1,0.3,0,0.3,0
				c0.3-0.2-0.2-1.8-0.2-2.6c0-0.8-0.4-1.7-0.3-2.7C517.7,380.3,517.8,380.2,517.8,380.1z"/>
			<path class="st2" d="M514.3,359.1l-5.5,3.7c0,0-3.1-4.6-4.8-6.3c-2.1-2.1,0.8-8.4,2.1-8C509.1,349.3,514.3,359.1,514.3,359.1z"/>
			<path class="st22" d="M525.6,434.3h-274v1.6h274V434.3z"/>
			<path d="M271.6,356c0,0.4-0.1,0.8-0.2,1.1c-0.1,0.3-0.3,0.5-0.6,0.7l0.8,0.6l-0.4,0.4l-0.9-0.7c-0.1,0-0.3,0.1-0.4,0.1
				c-0.3,0-0.6-0.1-0.9-0.2c-0.3-0.2-0.5-0.4-0.6-0.7c-0.1-0.3-0.2-0.7-0.2-1.1v-0.3c0-0.4,0.1-0.8,0.2-1.1c0.1-0.3,0.3-0.6,0.6-0.7
				c0.3-0.2,0.6-0.3,0.9-0.3c0.3,0,0.6,0.1,0.9,0.2c0.3,0.2,0.5,0.4,0.6,0.7c0.1,0.3,0.2,0.7,0.2,1.1V356z M271.1,355.7
				c0-0.5-0.1-0.9-0.3-1.2c-0.2-0.3-0.5-0.4-0.9-0.4c-0.4,0-0.6,0.1-0.8,0.4c-0.2,0.3-0.3,0.6-0.3,1.1v0.3c0,0.5,0.1,0.9,0.3,1.2
				c0.2,0.3,0.5,0.4,0.9,0.4c0.4,0,0.6-0.1,0.8-0.4c0.2-0.3,0.3-0.6,0.3-1.1V355.7z"/>
			<path d="M274.4,357.7c-0.2,0.2-0.5,0.4-0.9,0.4c-0.3,0-0.6-0.1-0.8-0.3c-0.2-0.2-0.3-0.5-0.3-0.9v-2.1h0.5v2
				c0,0.5,0.2,0.7,0.6,0.7c0.4,0,0.7-0.2,0.8-0.5v-2.3h0.5v3.2h-0.5L274.4,357.7z"/>
			<path d="M277.7,358c0-0.1-0.1-0.2-0.1-0.3c-0.3,0.3-0.6,0.4-0.9,0.4c-0.3,0-0.6-0.1-0.8-0.3c-0.2-0.2-0.3-0.4-0.3-0.7
				c0-0.3,0.1-0.6,0.4-0.8c0.3-0.2,0.6-0.3,1.1-0.3h0.5v-0.2c0-0.2-0.1-0.3-0.2-0.5c-0.1-0.1-0.3-0.2-0.5-0.2c-0.2,0-0.4,0-0.5,0.1
				c-0.1,0.1-0.2,0.2-0.2,0.4h-0.5c0-0.2,0.1-0.3,0.2-0.5c0.1-0.1,0.3-0.3,0.5-0.4c0.2-0.1,0.4-0.1,0.6-0.1c0.4,0,0.7,0.1,0.9,0.3
				c0.2,0.2,0.3,0.4,0.3,0.8v1.5c0,0.3,0,0.5,0.1,0.7v0H277.7z M276.8,357.6c0.2,0,0.3,0,0.5-0.1c0.2-0.1,0.3-0.2,0.3-0.3v-0.6h-0.4
				c-0.7,0-1,0.2-1,0.6c0,0.2,0.1,0.3,0.2,0.4C276.5,357.5,276.6,357.6,276.8,357.6z"/>
			<path d="M279.6,358H279v-4.5h0.5V358z"/>
			<path d="M281,358h-0.5v-3.2h0.5V358z M280.4,354c0-0.1,0-0.2,0.1-0.2c0.1-0.1,0.1-0.1,0.2-0.1c0.1,0,0.2,0,0.2,0.1
				c0.1,0.1,0.1,0.1,0.1,0.2c0,0.1,0,0.2-0.1,0.2c-0.1,0.1-0.1,0.1-0.2,0.1c-0.1,0-0.2,0-0.2-0.1C280.5,354.1,280.4,354.1,280.4,354
				z"/>
			<path d="M282.6,354.1v0.8h0.6v0.4h-0.6v2c0,0.1,0,0.2,0.1,0.3c0.1,0.1,0.1,0.1,0.3,0.1c0.1,0,0.1,0,0.3,0v0.4
				c-0.1,0-0.3,0.1-0.4,0.1c-0.2,0-0.4-0.1-0.5-0.2c-0.1-0.1-0.2-0.4-0.2-0.6v-2h-0.6v-0.4h0.6v-0.8H282.6z"/>
			<path d="M284.9,357.2l0.7-2.4h0.6l-1.3,3.7c-0.2,0.5-0.5,0.8-0.9,0.8l-0.1,0l-0.2,0v-0.4l0.1,0c0.2,0,0.3,0,0.4-0.1
				c0.1-0.1,0.2-0.2,0.3-0.4l0.1-0.3l-1.1-3.1h0.6L284.9,357.2z"/>
			<path d="M288.1,356.4c0-0.3,0.1-0.6,0.2-0.8c0.1-0.2,0.3-0.4,0.5-0.6c0.2-0.1,0.5-0.2,0.7-0.2c0.4,0,0.8,0.2,1,0.4
				c0.3,0.3,0.4,0.7,0.4,1.2v0c0,0.3-0.1,0.6-0.2,0.8c-0.1,0.2-0.3,0.4-0.5,0.6c-0.2,0.1-0.5,0.2-0.8,0.2c-0.4,0-0.8-0.2-1-0.4
				C288.2,357.3,288.1,356.9,288.1,356.4L288.1,356.4z M288.6,356.5c0,0.4,0.1,0.6,0.2,0.8c0.2,0.2,0.4,0.3,0.7,0.3
				c0.3,0,0.5-0.1,0.7-0.3c0.2-0.2,0.2-0.5,0.2-0.9c0-0.3-0.1-0.6-0.2-0.8c-0.2-0.2-0.4-0.3-0.7-0.3c-0.3,0-0.5,0.1-0.6,0.3
				C288.7,355.7,288.6,356.1,288.6,356.5z"/>
			<path d="M291.9,358v-2.8h-0.5v-0.4h0.5v-0.3c0-0.3,0.1-0.6,0.3-0.8c0.2-0.2,0.4-0.3,0.8-0.3c0.1,0,0.2,0,0.4,0.1l0,0.4
				c-0.1,0-0.2,0-0.3,0c-0.2,0-0.3,0.1-0.4,0.2c-0.1,0.1-0.1,0.2-0.1,0.4v0.3h0.7v0.4h-0.7v2.8H291.9z"/>
			<path d="M297,357.2c0-0.1-0.1-0.3-0.2-0.3c-0.1-0.1-0.3-0.2-0.6-0.2c-0.3-0.1-0.5-0.1-0.7-0.2c-0.2-0.1-0.3-0.2-0.4-0.3
				c-0.1-0.1-0.1-0.2-0.1-0.4c0-0.3,0.1-0.5,0.3-0.7c0.2-0.2,0.5-0.3,0.8-0.3c0.4,0,0.7,0.1,0.9,0.3c0.2,0.2,0.3,0.4,0.3,0.7H297
				c0-0.1-0.1-0.3-0.2-0.4c-0.1-0.1-0.3-0.2-0.5-0.2c-0.2,0-0.4,0-0.5,0.1c-0.1,0.1-0.2,0.2-0.2,0.3c0,0.1,0.1,0.2,0.2,0.3
				c0.1,0.1,0.3,0.1,0.6,0.2c0.3,0.1,0.5,0.1,0.7,0.2c0.2,0.1,0.3,0.2,0.4,0.3c0.1,0.1,0.1,0.3,0.1,0.4c0,0.3-0.1,0.5-0.3,0.7
				c-0.2,0.2-0.5,0.3-0.9,0.3c-0.3,0-0.5,0-0.7-0.1c-0.2-0.1-0.3-0.2-0.5-0.4c-0.1-0.2-0.2-0.3-0.2-0.5h0.5c0,0.2,0.1,0.3,0.2,0.4
				c0.1,0.1,0.3,0.2,0.5,0.2c0.2,0,0.4,0,0.5-0.1C297,357.4,297,357.3,297,357.2z"/>
			<path d="M299.6,358.1c-0.4,0-0.8-0.1-1-0.4c-0.3-0.3-0.4-0.7-0.4-1.1v-0.1c0-0.3,0.1-0.6,0.2-0.8c0.1-0.2,0.3-0.4,0.5-0.6
				c0.2-0.1,0.5-0.2,0.7-0.2c0.4,0,0.7,0.1,1,0.4c0.2,0.3,0.3,0.7,0.3,1.2v0.2h-2.1c0,0.3,0.1,0.6,0.3,0.8c0.2,0.2,0.4,0.3,0.7,0.3
				c0.2,0,0.4,0,0.5-0.1c0.1-0.1,0.2-0.2,0.3-0.3l0.3,0.3C300.5,357.9,300.1,358.1,299.6,358.1z M299.5,355.2
				c-0.2,0-0.4,0.1-0.6,0.2c-0.1,0.2-0.2,0.4-0.3,0.7h1.6v0c0-0.3-0.1-0.5-0.2-0.6C299.9,355.3,299.8,355.2,299.5,355.2z"/>
			<path d="M303,355.3c-0.1,0-0.2,0-0.3,0c-0.4,0-0.6,0.2-0.7,0.5v2.2h-0.5v-3.2h0.5l0,0.4c0.2-0.3,0.4-0.4,0.8-0.4
				c0.1,0,0.2,0,0.2,0V355.3z"/>
			<path d="M304.6,357.3l0.8-2.4h0.6l-1.1,3.2h-0.4l-1.1-3.2h0.6L304.6,357.3z"/>
			<path d="M307,358h-0.5v-3.2h0.5V358z M306.5,354c0-0.1,0-0.2,0.1-0.2c0.1-0.1,0.1-0.1,0.2-0.1c0.1,0,0.2,0,0.2,0.1
				c0.1,0.1,0.1,0.1,0.1,0.2c0,0.1,0,0.2-0.1,0.2c-0.1,0.1-0.1,0.1-0.2,0.1c-0.1,0-0.2,0-0.2-0.1C306.5,354.1,306.5,354.1,306.5,354
				z"/>
			<path d="M309.2,357.6c0.2,0,0.4-0.1,0.5-0.2c0.1-0.1,0.2-0.3,0.2-0.4h0.5c0,0.2-0.1,0.4-0.2,0.5c-0.1,0.2-0.3,0.3-0.5,0.4
				c-0.2,0.1-0.4,0.1-0.6,0.1c-0.4,0-0.8-0.1-1-0.4c-0.3-0.3-0.4-0.7-0.4-1.2v-0.1c0-0.3,0.1-0.6,0.2-0.8c0.1-0.2,0.3-0.4,0.5-0.6
				c0.2-0.1,0.5-0.2,0.8-0.2c0.4,0,0.7,0.1,0.9,0.3c0.2,0.2,0.4,0.5,0.4,0.8h-0.5c0-0.2-0.1-0.4-0.2-0.5c-0.1-0.1-0.3-0.2-0.5-0.2
				c-0.3,0-0.5,0.1-0.6,0.3c-0.2,0.2-0.2,0.5-0.2,0.9v0.1c0,0.4,0.1,0.6,0.2,0.8C308.7,357.5,308.9,357.6,309.2,357.6z"/>
			<path d="M312.4,358.1c-0.4,0-0.8-0.1-1-0.4c-0.3-0.3-0.4-0.7-0.4-1.1v-0.1c0-0.3,0.1-0.6,0.2-0.8c0.1-0.2,0.3-0.4,0.5-0.6
				c0.2-0.1,0.5-0.2,0.7-0.2c0.4,0,0.7,0.1,1,0.4c0.2,0.3,0.3,0.7,0.3,1.2v0.2h-2.1c0,0.3,0.1,0.6,0.3,0.8c0.2,0.2,0.4,0.3,0.7,0.3
				c0.2,0,0.4,0,0.5-0.1c0.1-0.1,0.2-0.2,0.3-0.3l0.3,0.3C313.3,357.9,312.9,358.1,312.4,358.1z M312.3,355.2
				c-0.2,0-0.4,0.1-0.6,0.2c-0.1,0.2-0.2,0.4-0.3,0.7h1.6v0c0-0.3-0.1-0.5-0.2-0.6C312.7,355.3,312.5,355.2,312.3,355.2z"/>
		</g>
	</g>
</g>
</svg>
