<?xml version="1.0" encoding="utf-8"?>
<!-- Generator: Adobe Illustrator 25.2.1, SVG Export Plug-In . SVG Version: 6.00 Build 0)  -->
<svg version="1.1" id="Layer_1" xmlns="http://www.w3.org/2000/svg" xmlns:xlink="http://www.w3.org/1999/xlink" x="0px" y="0px"
	 width="90.1px" height="438px" viewBox="0 0 90.1 438" style="enable-background:new 0 0 90.1 438;" xml:space="preserve">
<style type="text/css">
	.st0{fill:#FFFFFF;}
	.st1{fill:#FFFFFF;filter:url(#Adobe_OpacityMaskFilter);}
	.st2{mask:url(#path-1-inside-1_2281_45883_1_);fill:#BACCD1;stroke:#FFFFFF;stroke-width:0.2;}
	.st3{fill:#BACCD1;stroke:#FFFFFF;stroke-width:0.1;}
	.st4{fill:#BACCD1;stroke:#FFFFFF;stroke-width:1.5;}
</style>
<g>
	<path class="st0" d="M81.9,371.5c0-1.4-0.3-2.7-0.9-3.9l9-38.7c0.3-1.2,0.2-2.4-0.4-3.5c-0.6-1.1-1.6-1.8-2.8-2.2s-2.4-0.2-3.5,0.4
		c-1.1,0.6-1.8,1.6-2.2,2.8l-11.6,38c-1.2,0.7-2.1,1.7-2.7,2.9l-50.4-13.5c0-1.4-0.3-2.7-0.9-3.9l9-38.7c0.3-1.2,0.2-2.4-0.4-3.5
		c-0.6-1.1-1.6-1.8-2.8-2.2s-2.4-0.2-3.5,0.4c-1.1,0.6-1.8,1.6-2.2,2.8L3.9,347c-1.2,0.7-2.1,1.7-2.8,2.9c-1.2-0.3-2.4-0.1-3.4,0.5
		c-1,0.6-1.8,1.6-2.1,2.8l-7.6,28.3c-0.3,1.2-0.2,2.4,0.5,3.5c0.6,1.1,1.6,1.8,2.8,2.2l3,0.8l-0.4,1.5c-0.3,1.2-0.2,2.4,0.5,3.5
		c0.6,1.1,1.6,1.8,2.8,2.2c1.2,0.3,2.4,0.2,3.5-0.5c1.1-0.6,1.8-1.6,2.2-2.8l0.4-1.5l56.6,15.2l-0.4,1.5c-0.3,1.2-0.2,2.4,0.5,3.5
		c0.6,1.1,1.6,1.8,2.8,2.2c1.2,0.3,2.4,0.2,3.5-0.5c1.1-0.6,1.8-1.6,2.2-2.8l0.4-1.5l3,0.8c1.2,0.3,2.4,0.2,3.5-0.5
		c1.1-0.6,1.8-1.6,2.2-2.8l7.6-28.3c0.3-1.2,0.2-2.4-0.4-3.4C84,372.7,83.1,371.9,81.9,371.5z M71.5,366.9c0.7-0.4,1.5-0.5,2.3-0.5
		s1.6,0.2,2.3,0.6c0.7,0.4,1.3,0.9,1.8,1.5c0.5,0.6,0.8,1.4,0.9,2.2l-8.9-2.4C70.3,367.7,70.9,367.2,71.5,366.9z M84,327.4
		c0.1-0.4,0.4-0.7,0.7-0.9c0.2-0.1,0.4-0.2,0.6-0.2c0.2,0,0.4,0,0.6,0c0.2,0.1,0.4,0.1,0.5,0.3s0.3,0.3,0.4,0.5
		c0.1,0.2,0.2,0.4,0.2,0.6c0,0.2,0,0.4,0,0.6l-8.5,36.5c-1.6-1.1-3.5-1.6-5.4-1.4L84,327.4z M6,349.3c0.7-0.4,1.5-0.5,2.3-0.5
		c0.8,0,1.6,0.2,2.3,0.6c0.7,0.4,1.3,0.9,1.8,1.5c0.5,0.6,0.8,1.4,0.9,2.2l-8.9-2.4C4.8,350.1,5.3,349.7,6,349.3z M18.5,309.8
		c0.1-0.4,0.4-0.7,0.7-0.9c0.4-0.2,0.8-0.2,1.2-0.1c0.4,0.1,0.7,0.4,0.9,0.7c0.2,0.4,0.2,0.8,0.1,1.2l-8.5,36.5
		c-1.6-1.1-3.5-1.6-5.4-1.4L18.5,309.8z M-0.1,391.1c-0.1,0.4-0.4,0.7-0.7,0.9c-0.4,0.2-0.8,0.3-1.2,0.2c-0.4-0.1-0.7-0.4-0.9-0.7
		c-0.2-0.4-0.3-0.8-0.2-1.2l0.4-1.5l3,0.8L-0.1,391.1z M65.4,408.6c-0.1,0.4-0.4,0.7-0.7,0.9c-0.4,0.2-0.8,0.3-1.2,0.2
		c-0.4-0.1-0.7-0.4-0.9-0.7c-0.2-0.4-0.3-0.8-0.2-1.2l0.4-1.5l3,0.8L65.4,408.6z M74.5,404.7c-0.1,0.4-0.4,0.7-0.7,0.9
		c-0.4,0.2-0.8,0.3-1.2,0.2l-80.5-21.6c-0.4-0.1-0.7-0.4-0.9-0.7c-0.2-0.4-0.3-0.8-0.2-1.2l7.6-28.3c0.1-0.4,0.4-0.7,0.7-0.9
		c0.4-0.2,0.8-0.3,1.2-0.2L81,374.5c0.4,0.1,0.7,0.4,0.9,0.7c0.2,0.4,0.3,0.8,0.2,1.2L74.5,404.7z"/>
	<defs>
		<filter id="Adobe_OpacityMaskFilter" filterUnits="userSpaceOnUse" x="-12.2" y="305.4" width="102.4" height="107.5">
			<feColorMatrix  type="matrix" values="1 0 0 0 0  0 1 0 0 0  0 0 1 0 0  0 0 0 1 0"/>
		</filter>
	</defs>
	<mask maskUnits="userSpaceOnUse" x="-12.2" y="305.4" width="102.4" height="107.5" id="path-1-inside-1_2281_45883_1_">
		<path class="st1" d="M81.9,371.5c0-1.4-0.3-2.7-0.9-3.9l9-38.7c0.3-1.2,0.2-2.4-0.4-3.5c-0.6-1.1-1.6-1.8-2.8-2.2
			s-2.4-0.2-3.5,0.4c-1.1,0.6-1.8,1.6-2.2,2.8l-11.6,38c-1.2,0.7-2.1,1.7-2.7,2.9l-50.4-13.5c0-1.4-0.3-2.7-0.9-3.9l9-38.7
			c0.3-1.2,0.2-2.4-0.4-3.5c-0.6-1.1-1.6-1.8-2.8-2.2s-2.4-0.2-3.5,0.4c-1.1,0.6-1.8,1.6-2.2,2.8L3.9,347c-1.2,0.7-2.1,1.7-2.8,2.9
			c-1.2-0.3-2.4-0.1-3.4,0.5c-1,0.6-1.8,1.6-2.1,2.8l-7.6,28.3c-0.3,1.2-0.2,2.4,0.5,3.5c0.6,1.1,1.6,1.8,2.8,2.2l3,0.8l-0.4,1.5
			c-0.3,1.2-0.2,2.4,0.5,3.5c0.6,1.1,1.6,1.8,2.8,2.2c1.2,0.3,2.4,0.2,3.5-0.5c1.1-0.6,1.8-1.6,2.2-2.8l0.4-1.5l56.6,15.2l-0.4,1.5
			c-0.3,1.2-0.2,2.4,0.5,3.5c0.6,1.1,1.6,1.8,2.8,2.2c1.2,0.3,2.4,0.2,3.5-0.5c1.1-0.6,1.8-1.6,2.2-2.8l0.4-1.5l3,0.8
			c1.2,0.3,2.4,0.2,3.5-0.5c1.1-0.6,1.8-1.6,2.2-2.8l7.6-28.3c0.3-1.2,0.2-2.4-0.4-3.4C84,372.7,83.1,371.9,81.9,371.5z M71.5,366.9
			c0.7-0.4,1.5-0.5,2.3-0.5s1.6,0.2,2.3,0.6c0.7,0.4,1.3,0.9,1.8,1.5c0.5,0.6,0.8,1.4,0.9,2.2l-8.9-2.4
			C70.3,367.7,70.9,367.2,71.5,366.9z M84,327.4c0.1-0.4,0.4-0.7,0.7-0.9c0.2-0.1,0.4-0.2,0.6-0.2c0.2,0,0.4,0,0.6,0
			c0.2,0.1,0.4,0.1,0.5,0.3s0.3,0.3,0.4,0.5c0.1,0.2,0.2,0.4,0.2,0.6c0,0.2,0,0.4,0,0.6l-8.5,36.5c-1.6-1.1-3.5-1.6-5.4-1.4
			L84,327.4z M6,349.3c0.7-0.4,1.5-0.5,2.3-0.5c0.8,0,1.6,0.2,2.3,0.6c0.7,0.4,1.3,0.9,1.8,1.5c0.5,0.6,0.8,1.4,0.9,2.2l-8.9-2.4
			C4.8,350.1,5.3,349.7,6,349.3z M18.5,309.8c0.1-0.4,0.4-0.7,0.7-0.9c0.4-0.2,0.8-0.2,1.2-0.1c0.4,0.1,0.7,0.4,0.9,0.7
			c0.2,0.4,0.2,0.8,0.1,1.2l-8.5,36.5c-1.6-1.1-3.5-1.6-5.4-1.4L18.5,309.8z M-0.1,391.1c-0.1,0.4-0.4,0.7-0.7,0.9
			c-0.4,0.2-0.8,0.3-1.2,0.2c-0.4-0.1-0.7-0.4-0.9-0.7c-0.2-0.4-0.3-0.8-0.2-1.2l0.4-1.5l3,0.8L-0.1,391.1z M65.4,408.6
			c-0.1,0.4-0.4,0.7-0.7,0.9c-0.4,0.2-0.8,0.3-1.2,0.2c-0.4-0.1-0.7-0.4-0.9-0.7c-0.2-0.4-0.3-0.8-0.2-1.2l0.4-1.5l3,0.8L65.4,408.6
			z M74.5,404.7c-0.1,0.4-0.4,0.7-0.7,0.9c-0.4,0.2-0.8,0.3-1.2,0.2l-80.5-21.6c-0.4-0.1-0.7-0.4-0.9-0.7c-0.2-0.4-0.3-0.8-0.2-1.2
			l7.6-28.3c0.1-0.4,0.4-0.7,0.7-0.9c0.4-0.2,0.8-0.3,1.2-0.2L81,374.5c0.4,0.1,0.7,0.4,0.9,0.7c0.2,0.4,0.3,0.8,0.2,1.2L74.5,404.7
			z"/>
	</mask>
	<path class="st2" d="M81.9,371.5c0-1.4-0.3-2.7-0.9-3.9l9-38.7c0.3-1.2,0.2-2.4-0.4-3.5c-0.6-1.1-1.6-1.8-2.8-2.2s-2.4-0.2-3.5,0.4
		c-1.1,0.6-1.8,1.6-2.2,2.8l-11.6,38c-1.2,0.7-2.1,1.7-2.7,2.9l-50.4-13.5c0-1.4-0.3-2.7-0.9-3.9l9-38.7c0.3-1.2,0.2-2.4-0.4-3.5
		c-0.6-1.1-1.6-1.8-2.8-2.2s-2.4-0.2-3.5,0.4c-1.1,0.6-1.8,1.6-2.2,2.8L3.9,347c-1.2,0.7-2.1,1.7-2.8,2.9c-1.2-0.3-2.4-0.1-3.4,0.5
		c-1,0.6-1.8,1.6-2.1,2.8l-7.6,28.3c-0.3,1.2-0.2,2.4,0.5,3.5c0.6,1.1,1.6,1.8,2.8,2.2l3,0.8l-0.4,1.5c-0.3,1.2-0.2,2.4,0.5,3.5
		c0.6,1.1,1.6,1.8,2.8,2.2c1.2,0.3,2.4,0.2,3.5-0.5c1.1-0.6,1.8-1.6,2.2-2.8l0.4-1.5l56.6,15.2l-0.4,1.5c-0.3,1.2-0.2,2.4,0.5,3.5
		c0.6,1.1,1.6,1.8,2.8,2.2c1.2,0.3,2.4,0.2,3.5-0.5c1.1-0.6,1.8-1.6,2.2-2.8l0.4-1.5l3,0.8c1.2,0.3,2.4,0.2,3.5-0.5
		c1.1-0.6,1.8-1.6,2.2-2.8l7.6-28.3c0.3-1.2,0.2-2.4-0.4-3.4C84,372.7,83.1,371.9,81.9,371.5z M71.5,366.9c0.7-0.4,1.5-0.5,2.3-0.5
		s1.6,0.2,2.3,0.6c0.7,0.4,1.3,0.9,1.8,1.5c0.5,0.6,0.8,1.4,0.9,2.2l-8.9-2.4C70.3,367.7,70.9,367.2,71.5,366.9z M84,327.4
		c0.1-0.4,0.4-0.7,0.7-0.9c0.2-0.1,0.4-0.2,0.6-0.2c0.2,0,0.4,0,0.6,0c0.2,0.1,0.4,0.1,0.5,0.3s0.3,0.3,0.4,0.5
		c0.1,0.2,0.2,0.4,0.2,0.6c0,0.2,0,0.4,0,0.6l-8.5,36.5c-1.6-1.1-3.5-1.6-5.4-1.4L84,327.4z M6,349.3c0.7-0.4,1.5-0.5,2.3-0.5
		c0.8,0,1.6,0.2,2.3,0.6c0.7,0.4,1.3,0.9,1.8,1.5c0.5,0.6,0.8,1.4,0.9,2.2l-8.9-2.4C4.8,350.1,5.3,349.7,6,349.3z M18.5,309.8
		c0.1-0.4,0.4-0.7,0.7-0.9c0.4-0.2,0.8-0.2,1.2-0.1c0.4,0.1,0.7,0.4,0.9,0.7c0.2,0.4,0.2,0.8,0.1,1.2l-8.5,36.5
		c-1.6-1.1-3.5-1.6-5.4-1.4L18.5,309.8z M-0.1,391.1c-0.1,0.4-0.4,0.7-0.7,0.9c-0.4,0.2-0.8,0.3-1.2,0.2c-0.4-0.1-0.7-0.4-0.9-0.7
		c-0.2-0.4-0.3-0.8-0.2-1.2l0.4-1.5l3,0.8L-0.1,391.1z M65.4,408.6c-0.1,0.4-0.4,0.7-0.7,0.9c-0.4,0.2-0.8,0.3-1.2,0.2
		c-0.4-0.1-0.7-0.4-0.9-0.7c-0.2-0.4-0.3-0.8-0.2-1.2l0.4-1.5l3,0.8L65.4,408.6z M74.5,404.7c-0.1,0.4-0.4,0.7-0.7,0.9
		c-0.4,0.2-0.8,0.3-1.2,0.2l-80.5-21.6c-0.4-0.1-0.7-0.4-0.9-0.7c-0.2-0.4-0.3-0.8-0.2-1.2l7.6-28.3c0.1-0.4,0.4-0.7,0.7-0.9
		c0.4-0.2,0.8-0.3,1.2-0.2L81,374.5c0.4,0.1,0.7,0.4,0.9,0.7c0.2,0.4,0.3,0.8,0.2,1.2L74.5,404.7z"/>
	<path class="st3" d="M48.6,385.3L48.6,385.3c0.4,0.1,0.8,0.1,1.2-0.1c0.4-0.2,0.6-0.5,0.7-0.9l0,0l0,0c0.1-0.3,0.1-0.6,0-0.9
		c-0.1-0.3-0.3-0.5-0.5-0.7c-0.2-0.2-0.5-0.3-0.8-0.3s-0.6,0-0.9,0.2c-0.3,0.1-0.5,0.4-0.6,0.6c-0.1,0.3-0.2,0.6-0.2,0.9
		c0,0.3,0.2,0.6,0.4,0.8C48.1,385,48.3,385.2,48.6,385.3z M47.6,379.5c0.8-0.3,1.8-0.3,2.6-0.1c1.2,0.3,2.2,1.1,2.8,2.1
		c0.6,1,0.8,2.3,0.5,3.5c-0.2,0.9-0.7,1.6-1.4,2.2c-0.7,0.6-1.5,1-2.4,1.1c-0.9,0.1-1.8,0-2.6-0.4c-0.8-0.4-1.5-1-1.9-1.8
		c-0.5-0.8-0.7-1.7-0.6-2.6c0.1-0.9,0.4-1.8,0.9-2.5C46,380.3,46.7,379.8,47.6,379.5z"/>
	<path class="st3" d="M36.7,382.1L36.7,382.1c0.4,0.1,0.8,0.1,1.2-0.1c0.4-0.2,0.6-0.5,0.7-0.9l0,0l0,0c0.1-0.3,0.1-0.6,0-0.9
		c-0.1-0.3-0.3-0.5-0.5-0.7c-0.2-0.2-0.5-0.3-0.8-0.3c-0.3,0-0.6,0-0.9,0.2c-0.3,0.2-0.5,0.4-0.6,0.6s-0.2,0.6-0.2,0.9
		c0,0.3,0.2,0.6,0.4,0.8C36.2,381.8,36.4,382,36.7,382.1z M35.7,376.3c0.8-0.3,1.8-0.3,2.6-0.1c1.2,0.3,2.2,1.1,2.8,2.1
		c0.6,1,0.8,2.3,0.5,3.5c-0.2,0.9-0.7,1.6-1.4,2.2c-0.7,0.6-1.5,1-2.4,1.1c-0.9,0.1-1.8,0-2.6-0.4s-1.5-1-1.9-1.8
		c-0.5-0.8-0.7-1.7-0.6-2.6c0.1-0.9,0.4-1.8,0.9-2.5C34.1,377.1,34.8,376.6,35.7,376.3z"/>
	<path class="st3" d="M24.8,378.9L24.8,378.9c0.4,0.1,0.8,0.1,1.2-0.1c0.4-0.2,0.6-0.5,0.7-0.9l0,0l0,0c0.1-0.3,0.1-0.6,0-0.9
		c-0.1-0.3-0.3-0.5-0.5-0.7c-0.2-0.2-0.5-0.3-0.8-0.3c-0.3,0-0.6,0-0.9,0.2c-0.3,0.2-0.5,0.4-0.6,0.6s-0.2,0.6-0.2,0.9
		c0,0.3,0.2,0.6,0.4,0.8C24.2,378.6,24.5,378.8,24.8,378.9z M23.8,373.1c0.8-0.3,1.8-0.3,2.6-0.1c1.2,0.3,2.2,1.1,2.8,2.1
		s0.8,2.3,0.5,3.5c-0.2,0.9-0.7,1.6-1.4,2.2c-0.7,0.6-1.5,1-2.4,1.1c-0.9,0.1-1.8,0-2.6-0.4c-0.8-0.4-1.5-1-1.9-1.8
		c-0.5-0.8-0.7-1.7-0.6-2.6c0.1-0.9,0.4-1.8,0.9-2.5C22.2,373.9,22.9,373.4,23.8,373.1z"/>
	<path class="st3" d="M51.9,369.9l23.8,6.4c0.4,0.1,0.7,0.4,0.9,0.7s0.3,0.8,0.1,1.1c-0.1,0.4-0.4,0.7-0.7,0.9
		c-0.3,0.2-0.8,0.3-1.1,0.1l-23.8-6.4c-0.4-0.1-0.7-0.4-0.9-0.7c-0.2-0.3-0.3-0.8-0.1-1.1c0.1-0.4,0.4-0.7,0.7-0.9
		S51.5,369.8,51.9,369.9z"/>
	<path class="st3" d="M47,370.1c-0.2,0.8-1,1.3-1.8,1.1s-1.3-1-1.1-1.8c0.2-0.8,1-1.3,1.8-1.1C46.7,368.5,47.2,369.3,47,370.1z"/>
</g>
<g>
	<path class="st4" d="M34.3,160.8l0.6,0.4l0.4-0.6l9.9-17.1l0.4-0.6l-0.6-0.4l-62.7-36.2l-0.6-0.4l-0.4,0.6l-9.9,17.1l-0.4,0.6
		l0.6,0.4L34.3,160.8z M47.4,138l0.6,0.4l0.4-0.6l9.9-17.1l0.4-0.6l-0.6-0.4L-4.6,83.4l-0.6-0.4l-0.4,0.6l-9.9,17.1l-0.4,0.6
		l0.6,0.4L47.4,138z M60.6,115.2l0.6,0.4l0.4-0.6l9.9-17.1l0.4-0.6l-0.6-0.4L8.5,60.6l-0.6-0.4l-0.4,0.6L-2.4,78l-0.4,0.6l0.6,0.4
		L60.6,115.2z M8.2,54.6l68.4,39.5c0.6,0.3,1,0.9,1.2,1.5c0.2,0.7,0.1,1.3-0.3,1.9l-39.5,68.4c-0.3,0.6-0.9,1-1.5,1.2
		c-0.7,0.2-1.3,0.1-1.9-0.3l-68.4-39.5c-0.6-0.3-1-0.9-1.2-1.5c-0.2-0.7-0.1-1.3,0.3-1.9L4.8,55.5c0.3-0.6,0.9-1,1.5-1.2
		C7,54.2,7.6,54.3,8.2,54.6z M-12.3,119.5l-0.2-0.7L-12.3,119.5c0.7-0.2,1.3-0.1,1.9,0.3l2.8,1.6c0.6,0.3,1,0.9,1.2,1.5l0.7-0.2
		l-0.7,0.2c0.2,0.7,0.1,1.3-0.3,1.9c-0.3,0.6-0.9,1-1.5,1.2c-0.7,0.2-1.3,0.1-1.9-0.3l-2.8-1.6c-0.6-0.3-1-0.9-1.2-1.5
		c-0.2-0.7-0.1-1.3,0.3-1.9C-13.6,120.1-13,119.7-12.3,119.5z M40.9,91.6c0.3-0.6,0.9-1,1.5-1.2c0.7-0.2,1.3-0.1,1.9,0.3l11.4,6.6
		c0.6,0.3,1,0.9,1.2,1.5c0.2,0.7,0.1,1.3-0.3,1.9c-0.3,0.6-0.9,1-1.5,1.2c-0.7,0.2-1.3,0.1-1.9-0.3l-11.4-6.6
		c-0.6-0.3-1-0.9-1.2-1.5C40.5,92.9,40.6,92.2,40.9,91.6z M27.8,114.4c0.3-0.6,0.9-1,1.5-1.2c0.7-0.2,1.3-0.1,1.9,0.3l11.4,6.6
		c0.6,0.3,1,0.9,1.2,1.5c0.2,0.7,0.1,1.3-0.3,1.9c-0.3,0.6-0.9,1-1.5,1.2s-1.3,0.1-1.9-0.3l-11.4-6.6c-0.6-0.3-1-0.9-1.2-1.5
		C27.3,115.7,27.4,115,27.8,114.4z M14.6,137.2c0.3-0.6,0.9-1,1.5-1.2c0.7-0.2,1.3-0.1,1.9,0.3l11.4,6.6c0.6,0.3,1,0.9,1.2,1.5
		c0.2,0.7,0.1,1.3-0.3,1.9s-0.9,1-1.5,1.2c-0.7,0.2-1.3,0.1-1.9-0.3l-11.4-6.6c-0.6-0.3-1-0.9-1.2-1.5
		C14.2,138.5,14.3,137.8,14.6,137.2z M12.4,75.1c0.3-0.6,0.9-1,1.5-1.2c0.7-0.2,1.3-0.1,1.9,0.3l2.8,1.6c0.6,0.3,1,0.9,1.2,1.5
		c0.2,0.7,0.1,1.3-0.3,1.9c-0.3,0.6-0.9,1-1.5,1.2c-0.7,0.2-1.3,0.1-1.9-0.3l-2.8-1.6c-0.6-0.3-1-0.9-1.2-1.5
		C12,76.4,12.1,75.7,12.4,75.1z M-0.7,97.9c0.3-0.6,0.9-1,1.5-1.2c0.7-0.2,1.3-0.1,1.9,0.3l2.8,1.6c0.6,0.3,1,0.9,1.2,1.5
		c0.2,0.7,0.1,1.3-0.3,1.9c-0.3,0.6-0.9,1-1.5,1.2c-0.7,0.2-1.3,0.1-1.9-0.3l-2.8-1.6c-0.6-0.3-1-0.9-1.2-1.5
		C-1.2,99.2-1.1,98.5-0.7,97.9z"/>
</g>
</svg>
