<?xml version="1.0" encoding="utf-8"?>
<!-- Generator: Adobe Illustrator 25.2.1, SVG Export Plug-In . SVG Version: 6.00 Build 0)  -->
<svg version="1.1" id="Layer_1" xmlns="http://www.w3.org/2000/svg" xmlns:xlink="http://www.w3.org/1999/xlink" x="0px" y="0px"
	 width="295.9px" height="509px" viewBox="0 0 295.9 509" style="enable-background:new 0 0 295.9 509;" xml:space="preserve">
<style type="text/css">
	.st0{clip-path:url(#SVGID_2_);}
	.st1{fill:#FBC343;}
	.st2{fill:#FAFAFA;}
	.st3{fill:#EE6F57;}
	.st4{fill:#E0E0E0;}
	.st5{fill:#5B8920;}
	.st6{fill:#551919;}
	.st7{fill:#EBEBEB;}
	.st8{fill:#F5F5F5;}
	.st9{fill:#263238;}
	.st10{fill:#0D51D9;}
	.st11{opacity:0.24;}
	.st12{opacity:0.24;enable-background:new    ;}
	.st13{fill:#E8505B;}
	.st14{fill:#708CD5;}
	.st15{fill:#FFFFFF;}
	.st16{opacity:0.3;}
	.st17{opacity:0.3;enable-background:new    ;}
	.st18{fill:#1F3C88;}
	.st19{fill:#455A64;}
	.st20{fill:#FFBE9D;}
	.st21{fill:#EB996E;}
	.st22{fill:#BACCD1;stroke:#F5F5F5;stroke-width:3;}
</style>
<g>
	<g>
		<defs>
			<rect id="SVGID_1_" x="-42.8" y="229" width="339" height="280"/>
		</defs>
		<clipPath id="SVGID_2_">
			<use xlink:href="#SVGID_1_"  style="overflow:visible;"/>
		</clipPath>
		<g class="st0">
			<path class="st1" d="M2,470.2v5.9h44.2v-5.9H2z"/>
			<path class="st2" d="M8.1,470.4c0.1,0,0.3,1.2,0.3,2.8c0,1.5-0.1,2.8-0.3,2.8s-0.3-1.2-0.3-2.8S7.9,470.4,8.1,470.4z"/>
			<path class="st2" d="M7.1,470.3c0.2,0,0.3,1.2,0.3,2.8c0,1.5-0.1,2.8-0.3,2.8c-0.2,0-0.3-1.2-0.3-2.8S7,470.3,7.1,470.3z"/>
			<path class="st2" d="M42.9,470.4c0.2,0,0.3,1.2,0.3,2.8c0,1.5-0.1,2.8-0.3,2.8c-0.2,0-0.3-1.2-0.3-2.8S42.7,470.4,42.9,470.4z"/>
			<path class="st2" d="M41.9,470.3c0.1,0,0.3,1.2,0.3,2.8c0,1.5-0.1,2.8-0.3,2.8s-0.3-1.2-0.3-2.8S41.7,470.3,41.9,470.3z"/>
			<path class="st2" d="M36.1,473.3c0,0.1-5.1,0.3-11.3,0.3s-11.3-0.1-11.3-0.3s5.1-0.3,11.3-0.3C31,473,36.1,473.1,36.1,473.3z"/>
			<path class="st1" d="M1.9,496.7v11.8h44.2v-11.8H1.9z"/>
			<path class="st2" d="M46.7,505.2c0,0-0.1,0.1-0.2,0.1c-0.2,0.1-0.4,0.2-0.7,0.3c-1,0.4-2,0.7-3,0.9c-1.7,0.3-3.4,0.1-4.9-0.7
				c-0.9-0.5-1.7-1.2-2.3-2.1c-0.7-1-1-2.2-0.8-3.4c0.1-0.6,0.4-1.3,0.8-1.8c0.2-0.3,0.5-0.5,0.8-0.6c0.3-0.1,0.7-0.2,1-0.2
				c0.4,0,0.7,0.1,1,0.3c0.3,0.2,0.6,0.4,0.8,0.7c0.5,0.6,0.8,1.3,0.9,2c0.1,0.8,0,1.5-0.3,2.3c-0.3,0.7-0.7,1.4-1.2,1.9
				c-1.1,1.2-2.6,1.9-4.3,2.1c-1.7,0.2-3.4,0-4.9-0.6c-1.7-0.5-3.2-1.5-4.3-2.9c-0.6-0.7-0.9-1.6-1-2.5c0-0.5,0-1,0.2-1.4
				c0.2-0.5,0.4-0.9,0.8-1.2c0.4-0.4,0.9-0.6,1.4-0.6c0.5,0,1,0.1,1.4,0.4c0.8,0.5,1.4,1.4,1.6,2.4c0.2,0.9,0.1,1.9-0.2,2.8
				c-0.3,0.9-0.8,1.7-1.6,2.4c-1.4,1.2-3.2,1.9-5,2c-1.7,0.2-3.5,0-5.1-0.5c-1.6-0.5-3-1.6-3.9-3c-0.4-0.7-0.7-1.5-0.8-2.3
				c-0.1-0.8,0-1.6,0.3-2.4c0.1-0.4,0.4-0.7,0.7-1c0.3-0.3,0.7-0.5,1.1-0.5c0.4-0.1,0.8-0.1,1.2,0c0.4,0.1,0.7,0.3,1.1,0.5
				c0.6,0.5,1,1.1,1.2,1.9c0.2,0.7,0.2,1.5-0.1,2.2c-0.4,1.2-1.2,2.3-2.2,3.1c-1.7,1.4-3.8,2.3-6.1,2.4c-1.7,0-3.3-0.3-4.8-1.1
				c-0.9-0.5-1.8-1.1-2.5-1.8c-0.2-0.3-0.4-0.5-0.5-0.6c-0.1-0.1-0.1-0.1-0.2-0.2c0.9,1,2,1.9,3.3,2.5c1.7,0.8,3.6,1.1,5.5,0.9
				c1.9-0.2,3.6-1,5.1-2.3c1-0.8,1.7-1.8,2.1-3c0.2-0.6,0.2-1.3,0.1-1.9c-0.2-0.6-0.5-1.2-1-1.6c-0.3-0.2-0.6-0.3-0.9-0.4
				c-0.3-0.1-0.7-0.1-1,0c-0.3,0.1-0.6,0.2-0.9,0.4c-0.3,0.2-0.4,0.5-0.6,0.8c-0.3,0.7-0.3,1.4-0.3,2.2c0.1,0.7,0.3,1.4,0.7,2.1
				c0.8,1.3,2.1,2.3,3.6,2.8c1.6,0.5,3.3,0.7,4.9,0.5c1.7-0.1,3.4-0.8,4.7-1.9c0.6-0.6,1.1-1.3,1.4-2.1c0.3-0.8,0.3-1.7,0.2-2.5
				c-0.2-0.8-0.7-1.6-1.4-2c-0.3-0.2-0.7-0.3-1.1-0.3c-0.4,0-0.8,0.2-1.1,0.5c-0.3,0.3-0.5,0.6-0.6,1c-0.1,0.4-0.2,0.8-0.1,1.2
				c0.1,0.8,0.4,1.6,0.9,2.3c1.1,1.3,2.5,2.2,4,2.7c1.5,0.5,3.1,0.8,4.7,0.6c1.5-0.1,2.9-0.8,3.9-1.9c0.5-0.5,0.9-1.1,1.1-1.7
				c0.2-0.7,0.3-1.4,0.3-2.1c-0.1-1.3-1.1-2.6-2.3-2.6c-0.3,0-0.6,0-0.9,0.2c-0.3,0.1-0.5,0.3-0.7,0.5c-0.4,0.4-0.6,1-0.7,1.6
				c-0.2,1.1,0.1,2.2,0.7,3.1c0.5,0.8,1.3,1.5,2.2,2c1.5,0.7,3.1,1,4.7,0.7c1-0.1,2-0.4,3-0.7C46.3,505.3,46.6,505.2,46.7,505.2z"/>
			<path class="st3" d="M5.8,476.2v20.5h40.3v-20.5H5.8z"/>
			<path class="st4" d="M12.5,476.9c0.2,0,0.3,4.4,0.3,9.9c0,5.5-0.1,9.9-0.3,9.9c-0.2,0-0.3-4.4-0.3-9.9
				C12.2,481.3,12.3,476.9,12.5,476.9z"/>
			<path class="st4" d="M15.6,476.7c0.1,0,0.3,4.4,0.3,9.8c0,5.4-0.1,9.8-0.3,9.8c-0.1,0-0.3-4.4-0.3-9.8
				C15.3,481,15.4,476.7,15.6,476.7z"/>
			<path class="st4" d="M41.5,476c0.1,0,0.3,4.6,0.3,10.3s-0.1,10.3-0.3,10.3c-0.1,0-0.3-4.6-0.3-10.3S41.4,476,41.5,476z"/>
			<path class="st4" d="M37.9,476.3c0.1,0,0.3,4.5,0.3,10c0,5.5-0.1,10-0.3,10s-0.3-4.5-0.3-10C37.7,480.8,37.8,476.3,37.9,476.3z"
				/>
			<path class="st5" d="M254.8,431.6c4.2-2.1,9.1-2.4,13.7-1.7c2.5,0.4,5.1,1.2,6.8,3c1.7,1.9,2,5.2,0.1,6.8c-1.2,1-2.8,1.1-4.3,1.1
				c-3.6,0-7.7-0.7-10.6,1.5c-1.7,1.2-2.8,3.3-4.7,3.9c-2,0.6-4.1-0.5-5.1-2.3c-0.9-1.8-1.2-3.9-0.6-5.9c0.2-1.4,0.8-2.6,1.6-3.8
				S253.6,432.2,254.8,431.6z"/>
			<path class="st5" d="M245.2,413.2c2.6,3.6,7.5,2.4,9.8,0.2c2.3-2.2,3.3-5.4,4.2-8.5c2-7.1,4.1-14.4,2.6-21.5
				c-0.4-2.2-1.3-4.2-2.8-5.9c-0.7-0.8-1.7-1.4-2.7-1.8c-1-0.3-2.2-0.4-3.2-0.2c-2.5,0.7-4.1,3.1-5.2,5.4c-3.3,6.9-5,14.4-5.1,22
				C242.8,406.5,243.2,410.2,245.2,413.2z"/>
			<path class="st5" d="M238.2,418.4c2.8-3.3,3.3-8.1,2.1-12.2c-1.2-4.1-4-7.6-7.2-10.5c-3.8-3.4-8.2-5.9-12.9-7.6
				c-1.8-0.7-3.8-1.1-5.8-1c-1,0.1-2,0.4-2.8,0.9c-0.9,0.5-1.6,1.2-2.1,2.1c-1.4,2.6-0.1,5.7,1.4,8.3c2.5,4.5,5.3,8.8,8.5,12.9
				c2.6,3.3,5.5,6.5,9.4,8c3.9,1.5,7.9,1.3,10-1.4"/>
			<path class="st4" d="M245.1,468c0.1-0.5,0.2-1.1,0.2-1.7c0.1-1.2,0.3-2.7,0.4-4.5c0.2-2.2,0.6-4.4,1-6.6c0.6-2.7,1.4-5.3,2.4-7.8
				c1-2.5,2.3-4.9,4-7.1c1.3-1.7,3.1-3.1,5-4.1c1.3-0.7,2.8-1.1,4.3-1.3c0.6,0,1.1-0.1,1.6-0.2c-0.6-0.1-1.1-0.1-1.7,0
				c-1.5,0.1-3,0.5-4.4,1.2c-2.1,1-3.9,2.4-5.3,4.2c-1.7,2.2-3.1,4.6-4.1,7.2c-1,2.6-1.8,5.2-2.4,7.9c-0.4,2.2-0.7,4.5-0.9,6.7
				c-0.1,1.9-0.2,3.5-0.2,4.5C245,466.9,245,467.5,245.1,468z"/>
			<path class="st4" d="M245.4,464.6c0-0.3,0.1-0.5,0-0.8c0-0.6,0-1.3,0-2.2c0-1.9,0-4.7,0.1-8.1c0.2-6.8,0.8-14.1,1.9-24.4
				c1.1-9.7,2.5-21,4-28.3c0.3-1.7,0.7-3.2,1-4.5c0.3-1.3,0.5-2.5,0.8-3.4c0.2-0.9,0.4-1.6,0.5-2.1c0.1-0.3,0.1-0.5,0.1-0.8
				c-0.1,0.2-0.2,0.5-0.3,0.7c-0.2,0.5-0.4,1.2-0.6,2.1s-0.6,2-0.9,3.4c-0.3,1.3-0.7,2.8-1.1,4.5c-1.9,8.7-3.3,17.5-4.2,26.3
				c-1.1,10.3-1.6,19.8-1.7,26.6c0,3.4,0,6.2,0.1,8.1c0.1,0.9,0.1,1.6,0.1,2.2C245.3,464,245.3,464.3,245.4,464.6z"/>
			<path class="st4" d="M245.4,446.4c0.1-0.8,0.1-1.5,0-2.3c-0.1-1.5-0.3-3.6-0.7-6.2c-0.5-3.1-1.2-6.1-2-9.1
				c-1-3.7-2.3-7.2-3.8-10.7c-2.6-6.4-6.4-12.3-11.1-17.3c-0.8-0.9-1.7-1.7-2.6-2.4c-0.4-0.3-0.8-0.7-1.1-0.9l-1-0.7
				c-0.6-0.5-1.3-0.9-1.9-1.2c-0.1,0.1,2.7,1.8,6.3,5.6c4.6,5.1,8.2,10.9,10.9,17.2c1.5,3.4,2.8,7,3.8,10.6c1,3.3,1.7,6.4,2.2,9
				c0.5,2.6,0.7,4.7,0.9,6.1C245.2,444.9,245.3,445.6,245.4,446.4z"/>
			<path class="st6" d="M226.6,475.7l1.8,24.9h32.1l1.8-24.9H226.6z"/>
			<path class="st7" d="M266.2,465.9h-42.7v9.8h42.7V465.9z"/>
			<path class="st4" d="M223.5,499.7v2.7h2h40v-2.7H223.5z"/>
			<path class="st4" d="M227.5,506.9l-2-4.8H264l-2.3,4.8H227.5z"/>
			<path class="st8" d="M261.8,483.8c0,0.1-0.1,0.2-0.1,0.2c-0.1,0.2-0.3,0.4-0.5,0.6l-1.9,2.4l-0.1,0.1l-0.1-0.1
				c-1.2-1.6-2.8-3.8-4.6-6.3h0.3l-4.5,6.4l-0.1,0.2l-0.2-0.2l-5.4-6.4h0.3l-0.3,0.4l-4.8,6l-0.2,0.2l-0.1-0.2l-4.5-6.4h0.3
				l-5.6,6.3l-0.1,0.1l-0.1-0.1c-0.7-1.2-1.3-2.2-1.7-2.9c-0.2-0.3-0.3-0.6-0.4-0.8c-0.1-0.1-0.1-0.2-0.1-0.3
				c0.1,0.1,0.1,0.2,0.2,0.2l0.5,0.8l1.8,2.9h-0.2l5.5-6.4l0.1-0.2l0.1,0.2l4.6,6.4h-0.3l4.8-6c0.1-0.1,0.2-0.3,0.3-0.4l0.2-0.2
				l0.2,0.2l5.4,6.4h-0.3c1.6-2.3,3.2-4.4,4.6-6.4l0.1-0.2l0.1,0.2l4.5,6.4h-0.2c0.8-1,1.5-1.8,1.9-2.4l0.5-0.6
				C261.7,483.9,261.8,483.8,261.8,483.8z"/>
			<path class="st8" d="M262.8,475.5c0,0.1-8.1,0.2-18,0.2c-9.9,0-18-0.1-18-0.2c0-0.1,8-0.2,18-0.2
				C254.8,475.3,262.8,475.4,262.8,475.5z"/>
			<path class="st9" d="M296.2,508.2c0,0.1-75.9,0.2-169.5,0.2c-93.6,0-169.5-0.1-169.5-0.2c0-0.1,75.9-0.2,169.5-0.2
				S296.2,508.1,296.2,508.2z"/>
			<path class="st2" d="M49,238.8C36.5,258.6,37.2,286,51,305c9.2,12.7,23,21.2,33.9,32.3c10.9,11.2,19.3,27.7,13.5,42.2
				c-5.9,14.8-23.1,20.8-36,30.2c-14.2,10.3-23.9,25.8-26.9,43c-3.1,17.3,0.7,35.1,10.5,49.6h133.9c0,0,23.5-44.7-6.7-78.8
				c-30.2-34.1-46.5-34.6-45.4-57c1.1-22.3,16.8-29.6,25.8-38c9-8.4,52.6-27.9,26.9-89.8H49z"/>
			<path class="st9" d="M49,238.8h2.3h6.8l26.1,0l96.2-0.1h0.1v0.1c2,4.7,3.6,9.5,5,14.5c1.4,5.1,2.4,10.4,2.8,15.7
				c0.5,5.5,0.2,11.1-0.8,16.6c-1.1,5.7-3.2,11.1-6,16.1c-1.5,2.6-3.2,5-5,7.3c-1.9,2.3-4,4.5-6.2,6.6c-2.2,2.1-4.6,4.1-7,5.9
				c-2.4,1.9-5,3.7-7.5,5.5c-1.2,0.9-2.4,2-3.6,3c-1.2,1-2.4,2-3.7,3c-2.5,2-5,3.9-7.3,6.1c-4.9,4.2-8.7,9.7-11,15.7
				c-1.1,3.1-1.8,6.3-2.1,9.6c-0.1,0.8-0.2,1.6-0.2,2.5c0,0.8-0.1,1.7,0,2.5c0,1.7,0.2,3.3,0.5,5c0.6,3.3,2,6.4,4,9.2
				c2.1,2.7,4.4,5.2,6.9,7.5c5.1,4.6,10.5,9.1,15.6,13.8c5.2,4.8,10.2,9.8,15.1,15c2.5,2.6,4.8,5.4,7,8.3c2.2,2.9,4,6.1,5.6,9.3
				c3.2,6.6,5.1,13.8,5.8,21.2c0.6,7.4,0.2,14.9-1.3,22.3c-0.7,3.7-1.7,7.4-2.9,10.9c-1.2,3.6-2.6,7.1-4.3,10.5l-0.1,0.1H45.9
				l-0.1-0.1c-6.3-9.4-10.1-20.3-11.2-31.5c-1.1-10.8,0.5-21.7,4.6-31.8c3.9-9.6,10-18.2,17.7-25.2c3.7-3.3,7.8-6.2,12.1-8.8
				c4.2-2.6,8.4-5,12.4-7.6c4-2.5,7.7-5.5,10.9-8.8c3.1-3.3,5.4-7.3,6.7-11.7c1.2-4.2,1.3-8.7,0.5-13c-0.8-4.2-2.2-8.2-4.1-12
				c-1.9-3.6-4.1-7-6.7-10.2c-2.5-3-5.2-5.9-8.1-8.5c-5.7-5.2-11.5-9.8-16.7-14.4c-2.6-2.4-5.1-4.7-7.4-7.1
				c-2.2-2.4-4.3-4.9-6.1-7.5c-3.4-4.9-5.9-10.2-7.7-15.8c-1.5-4.9-2.4-9.9-2.6-15c-0.1-1.2-0.1-2.4-0.1-3.4c0-1.1,0-2.2,0.1-3.3
				c0.1-1.1,0.2-2.1,0.2-3.1c0.1-1,0.3-2,0.4-2.9c0.9-5.8,2.6-11.4,5.2-16.6c0.4-0.8,0.8-1.6,1.2-2.4l1-1.6
				C48.8,239.2,49,238.7,49,238.8l-0.8,1.3l-0.9,1.6c-0.4,0.8-0.8,1.5-1.2,2.4c-2.6,5.2-4.3,10.8-5.2,16.6c-0.1,0.9-0.3,1.9-0.4,2.9
				c-0.1,1-0.2,2-0.2,3.1c-0.1,1.1-0.1,2.1-0.1,3.3c0,1.1,0,2.3,0.1,3.4c0.2,5.1,1.1,10.1,2.6,15c1.7,5.6,4.3,10.9,7.7,15.8
				c1.8,2.6,3.9,5.1,6.1,7.5c2.3,2.4,4.7,4.8,7.4,7.1c5.2,4.7,11,9.2,16.7,14.4c2.9,2.6,5.7,5.5,8.2,8.5c2.6,3.2,4.9,6.6,6.8,10.3
				c2,3.8,3.4,7.8,4.2,12c0.8,4.4,0.7,8.9-0.5,13.2c-1.3,4.4-3.7,8.4-6.8,11.8c-3.3,3.4-6.9,6.4-11,8.9c-4,2.6-8.2,5-12.4,7.6
				c-4.3,2.5-8.3,5.5-12,8.8c-7.7,6.9-13.7,15.5-17.6,25.1c-4.1,10-5.7,20.9-4.6,31.7c1.1,11.2,4.9,22,11.2,31.3l-0.2-0.1h133.9
				l-0.2,0.1c1.7-3.4,3.1-6.9,4.2-10.5c1.2-3.6,2.1-7.2,2.9-10.9c1.5-7.3,1.9-14.7,1.3-22.1c-0.6-7.3-2.6-14.4-5.7-21
				c-1.6-3.3-3.4-6.4-5.6-9.3c-2.1-2.9-4.5-5.6-6.9-8.2c-4.8-5.3-9.9-10.3-15.1-15c-5.2-4.8-10.5-9.2-15.6-13.8
				c-2.6-2.3-4.9-4.8-7-7.6c-2-2.8-3.4-5.9-4.1-9.3c-0.3-1.7-0.5-3.3-0.5-5c0-0.8,0-1.7,0-2.5c0-0.8,0.1-1.7,0.2-2.5
				c0.3-3.3,1-6.6,2.1-9.7c2.3-6.1,6.1-11.6,11.1-15.9c2.4-2.2,4.9-4.1,7.4-6.1c1.2-1,2.5-2,3.6-3c1.2-1,2.4-2.1,3.6-3
				c2.5-1.9,5-3.7,7.5-5.5c2.4-1.8,4.8-3.8,7-5.9c2.2-2,4.2-4.2,6.1-6.5c1.9-2.3,3.5-4.7,5-7.3c2.9-5,4.9-10.4,6.1-16.1
				c1-5.4,1.3-11,0.9-16.5c-0.4-5.3-1.4-10.5-2.8-15.7c-1.4-4.9-3-9.7-5-14.4l0.1,0.1l-96.2-0.1H58.2h-6.8L49,238.8z"/>
			<path class="st10" d="M175.1,275.1c19.7,3.2-11.4,38.1-29,51.8c-10.2,8-21.1,16.6-26,28.6c-5.5,13.6-1.4,28.9-4.1,42.5
				c-0.1,0.5-0.3,0.9-0.7,1.2c-0.4,0.3-0.9,0.4-1.3,0.4c-0.5-0.1-0.9-0.3-1.2-0.6c-0.3-0.4-0.5-0.8-0.5-1.3c0.1-9-0.1-17.9-1.6-26.8
				c-2.1-12.5-6.9-24.9-15.7-34.1c-7.2-7.5-16.6-12.5-24.3-19.5c-11.2-10.2-22.7-23.4-23.8-38.5c0,0,21.5-17.2,33.4-15.1
				c13.9,2.5,27.7,24,49.3,21.5C144.6,283.5,152.3,271.3,175.1,275.1z"/>
			<path class="st10" d="M176.9,461.5c-0.5-4.9-1.8-10.5-6.2-12.8c-2.6-1.4-5.9-1.2-8.8-0.5s-5.6,2.1-8.5,2.9
				c-5.7,1.7-11.8,1.5-17.4-0.5c-5.3-2-9.9-5.5-14.9-8.3c-5-2.8-10.8-4.9-16.3-3.5c-9.5,2.4-14.5,13.8-23.9,16.6
				c-4.2,1.2-8.7,0.5-13-0.4c-4.3-1-8.5-2.2-12.9-2c-3.4,0.1-7,1.3-9.4,3.7v0l-0.1,0.1c-0.4,0.4-0.8,0.8-1.1,1.3
				c-2.9,3.9-3.4,9.1-2.5,13.9c1,5.3,3.5,10.2,6.2,14.9c3.1,5.5,6.7,11.1,11.9,14.8c6.4,4.6,14.5,1.4,22.4,2
				c18.3,1.5,38.1,2.4,56.4,1c9.7-0.7,18.8,0.3,26.4-5.6c5.4-4.2,8.9-10.5,10.6-17.1C177.5,475.3,177.6,468.3,176.9,461.5z"/>
			<g class="st11">
				<path class="st12" d="M142.3,452.1c-1,1.6-1.5,3.7-0.5,5.3c1,1.6,2.4,3.1,2.8,4.9c0.7,2.9-1.1,5.7-2.4,8.4
					c-2.4,4.8-3.3,10.2-2.6,15.5c0.7,5.3,3.5,10.1,7.7,13.5c1.9,1.4,4.3,2.5,6.5,1.8c2.1-0.7,3.5-2.8,3.9-5c0.5-2.2,0.1-4.4-0.2-6.6
					c-1.3-10.2-1-20.5,0.8-30.6c0.3-1.7,0.6-3.6-0.5-5c-0.8-0.8-1.7-1.3-2.8-1.6C151,451.4,146.6,452.9,142.3,452.1"/>
			</g>
			<path class="st9" d="M36.2,508.4c0,0-0.4-6.1,7.6-9.5h140.8c0,0,7.3,3.7,8.2,9.4L36.2,508.4z"/>
			<path class="st9" d="M181.7,239.5l-0.2,0.1L49,238.8c0,0-0.5-0.3-1.2-0.9c-0.8-0.6-1.4-1.5-1.7-2.5c-0.3-1-0.3-2.1,0.1-3.1
				s1-1.8,1.9-2.4c0.9-0.6,1.9-0.9,2.9-0.9l128.5,1C184.8,230.1,186.5,237.3,181.7,239.5z"/>
			<g class="st11">
				<path class="st12" d="M160.5,289.9c0.3,0.5-0.7,1.6-2.6,3.3c-1.9,1.7-4.7,4-8.2,6.8c-4.2,3.5-8.7,6.6-13.4,9.4
					c-2.9,1.7-6,3.1-9.1,4.2c-1.7,0.6-3.5,1.1-5.3,1.4c-1.9,0.4-3.8,0.6-5.7,0.7c-3.9,0.2-7.7-0.3-11.4-1.6
					c-3.2-1.2-6.3-2.8-9.2-4.7c-2.6-1.7-4.9-3.5-7.1-5.1c-2.2-1.6-4.1-3.2-5.8-4.7c-7-6-10.6-10.4-9.9-11.3
					c0.7-0.9,5.7,1.9,13.4,6.6l6.3,3.8c2.3,1.4,4.7,2.9,7.1,4.3c2.4,1.4,5,2.6,7.7,3.5c2.8,0.8,5.6,1.2,8.5,1c6-0.3,11.9-2.4,17-4.9
					c5.1-2.4,9.7-5.3,13.6-7.5c3.1-1.8,6.4-3.5,9.8-4.8C158.7,289.6,160.2,289.4,160.5,289.9z"/>
			</g>
			<path class="st13" d="M112.4,414.4c0.6-0.2,1.1-0.1,1.7,0.1c0.5,0.3,0.9,0.7,1.1,1.3c0.2,0.5,0.2,1.1-0.1,1.7
				c-0.3,0.5-0.7,0.9-1.2,1.1c-0.5,0.2-1.1,0.2-1.7-0.1c-0.5-0.2-0.9-0.7-1.1-1.2c-0.2-0.5-0.2-1.1,0.1-1.7c0.2-0.5,0.7-0.9,1.2-1.1
				"/>
			<path class="st9" d="M65.1,311.8c-0.2-0.1-0.3-0.3-0.5-0.5c-0.3-0.4-0.8-0.8-1.3-1.4c-0.5-0.6-1.3-1.3-2-2.3l-2.5-3.1
				c-0.9-1.2-1.8-2.5-2.8-3.9l-1.4-2.3c-0.2-0.4-0.5-0.8-0.7-1.2c-0.2-0.4-0.5-0.8-0.7-1.3c-2.1-3.7-3.7-7.7-4.9-11.8
				c-1.2-4.1-1.8-8.3-1.9-12.5c0-1,0.1-1.9,0.1-2.9c0-0.5,0-0.9,0.1-1.4l0.1-1.3c0.1-0.9,0.2-1.7,0.3-2.5c0.1-0.8,0.3-1.6,0.4-2.3
				c0.2-1.5,0.6-2.7,0.9-3.9c0.1-0.6,0.3-1.1,0.4-1.6l0.4-1.3l0.6-1.8c0.1-0.2,0.1-0.4,0.2-0.6c0,0.2-0.1,0.4-0.2,0.6
				c-0.1,0.4-0.3,1.1-0.5,1.8c-0.1,0.4-0.2,0.8-0.4,1.3c-0.1,0.5-0.2,1-0.4,1.6c-0.3,1.1-0.6,2.4-0.8,3.9c-0.1,0.7-0.3,1.5-0.4,2.3
				c-0.1,0.8-0.2,1.6-0.3,2.5c0,0.4-0.1,0.9-0.1,1.3c0,0.4,0,0.9-0.1,1.4c0,0.9-0.1,1.9-0.1,2.8c0.1,4.2,0.7,8.4,1.9,12.4
				c1.1,4.1,2.8,8,4.8,11.7l0.7,1.3c0.2,0.4,0.5,0.8,0.7,1.2l1.4,2.3c1,1.4,1.9,2.7,2.7,3.9l2.5,3.1c0.7,0.9,1.4,1.7,1.9,2.3
				l1.2,1.4C64.8,311.4,64.9,311.6,65.1,311.8z"/>
			<path class="st9" d="M57.6,428.2c0-0.1,0.1-0.2,0.1-0.3l0.5-0.7L59,426l0.5-0.8c0.2-0.3,0.4-0.5,0.7-0.8c0.5-0.6,1-1.2,1.6-1.9
				s1.3-1.3,2-2.1c1.7-1.6,3.5-3.1,5.4-4.5c4.2-3.1,9.6-6.3,15.4-9.9c3-1.9,6-4,8.8-6.2c3-2.4,5.7-5.2,7.9-8.3
				c4.1-6.3,6.3-13.6,6.4-21c0.1-6.1-0.9-12.1-3-17.9c-1.4-3.9-3.1-7.6-5.2-11.1c-0.7-1.3-1.3-2.2-1.7-2.9l-0.5-0.7
				c-0.1-0.1-0.1-0.2-0.1-0.3c0.1,0.1,0.1,0.2,0.2,0.2l0.5,0.7c0.4,0.6,1.1,1.6,1.8,2.8c2.1,3.5,3.9,7.2,5.3,11.1
				c2.1,5.7,3.2,11.8,3.1,18c0,1.8-0.2,3.5-0.4,5.3c-0.3,1.8-0.6,3.6-1.2,5.4c-1,3.8-2.7,7.3-4.9,10.5c-2.3,3.2-5,6-8,8.4
				c-2.8,2.2-5.8,4.3-8.9,6.2c-5.9,3.6-11.2,6.7-15.4,9.9c-1.9,1.4-3.7,2.9-5.4,4.5c-0.7,0.7-1.4,1.4-2,2l-1.6,1.8
				c-0.2,0.3-0.5,0.5-0.7,0.8l-0.5,0.7l-0.8,1.2l-0.5,0.7L57.6,428.2z"/>
			<path class="st9" d="M50.3,442.1c0,0.1-0.1,0.2-0.2,0.4l-0.6,1c-0.3,0.5-0.6,1-0.9,1.6c-0.3,0.6-0.7,1.3-1,2.2l-0.5,1.3
				c-0.2,0.4-0.3,0.9-0.5,1.4c-0.4,1-0.7,2-1,3.1c-1.4,4.9-1.8,10-1.4,15.1c0.1,1.2,0.2,2.3,0.4,3.3c0.1,0.5,0.2,1,0.3,1.5
				c0.1,0.5,0.2,0.9,0.3,1.4c0.2,0.9,0.4,1.6,0.6,2.3c0.2,0.7,0.4,1.3,0.6,1.7c0.2,0.5,0.3,0.8,0.4,1.1c0.1,0.1,0.1,0.3,0.1,0.4
				c-0.1-0.1-0.1-0.2-0.2-0.4c-0.1-0.3-0.3-0.6-0.4-1.1c-0.2-0.6-0.4-1.1-0.6-1.7c-0.2-0.7-0.5-1.4-0.7-2.3l-0.3-1.4
				c-0.1-0.5-0.2-1-0.3-1.5c-0.2-1-0.3-2.1-0.5-3.3c-0.5-5.1,0-10.3,1.4-15.2c0.4-1.1,0.7-2.2,1.1-3.2c0.2-0.5,0.4-1,0.6-1.4
				c0.2-0.4,0.4-0.9,0.6-1.3c0.3-0.8,0.8-1.5,1.1-2.1c0.3-0.5,0.6-1.1,0.9-1.6l0.6-1C50.2,442.1,50.3,442,50.3,442.1z"/>
			<path class="st9" d="M147.4,460.9c0,0,0,0-0.2,0.1l-0.5,0.3l-1.9,1.1l-1.4,0.9c-0.5,0.3-1.1,0.6-1.7,0.9c-1.2,0.6-2.6,1.4-4.2,2
				l-2.5,1c-0.9,0.3-1.8,0.6-2.8,0.9c-1.9,0.7-4,1.2-6.2,1.8c-9.7,2.3-19.8,2.5-29.6,0.8c-2.2-0.5-4.4-0.8-6.3-1.4
				c-1-0.3-1.9-0.5-2.8-0.8l-2.6-0.9c-1.7-0.5-3.1-1.2-4.3-1.7c-0.6-0.3-1.2-0.5-1.7-0.8l-1.4-0.7l-2-1l-0.5-0.3
				c-0.1,0-0.1-0.1-0.2-0.1l0.2,0.1l0.5,0.3l2,1l1.4,0.7c0.5,0.2,1.1,0.5,1.8,0.7c1.3,0.5,2.7,1.2,4.3,1.7l2.6,0.9
				c0.9,0.3,1.8,0.5,2.8,0.8c1.9,0.6,4.1,1,6.3,1.4c9.8,1.7,19.8,1.4,29.4-0.8c2.2-0.6,4.3-1,6.2-1.7c1-0.3,1.9-0.6,2.8-0.9l2.5-1
				c1.6-0.6,3-1.3,4.2-1.9c0.6-0.3,1.2-0.6,1.7-0.8l1.4-0.8l1.9-1.1l0.5-0.3L147.4,460.9z"/>
			<path class="st9" d="M155.6,295c0,0,0,0.1-0.2,0.2l-0.5,0.4l-2,1.6c-1.7,1.4-4.3,3.4-7.5,5.8c-3.7,2.8-7.6,5.4-11.7,7.7
				c-2.4,1.3-4.9,2.5-7.5,3.5c-2.8,1-5.7,1.7-8.7,2c-5.8,0.3-11.5-0.9-16.7-3.5c-2.2-1.1-4.4-2.4-6.5-3.8c-1.9-1.3-3.7-2.7-5.2-3.9
				c-3.1-2.5-5.5-4.6-7.2-6l-1.9-1.6l-0.5-0.4l-0.2-0.2c0,0,0.1,0,0.2,0.1l0.5,0.4l2,1.6c1.7,1.4,4.2,3.5,7.3,5.9
				c1.6,1.2,3.3,2.5,5.2,3.9c2.1,1.4,4.2,2.7,6.4,3.8c5.1,2.5,10.8,3.7,16.5,3.4c2.9-0.3,5.8-0.9,8.6-1.9c2.6-0.9,5.1-2.1,7.5-3.4
				c4.1-2.3,8-4.8,11.7-7.6c3.2-2.4,5.8-4.3,7.5-5.6l2.1-1.6l0.5-0.4C155.5,295.1,155.6,295.1,155.6,295z"/>
			<g class="st11">
				<path class="st12" d="M84.8,467.5c3.7-2.9,9-2.2,13.6-1.2c4.6,1,9.2,2.5,13.9,1.9c3.5-0.5,6.7-2.2,10.2-3
					c3.5-0.7,7.7-0.2,9.6,2.8C116.6,472.9,100.1,472.7,84.8,467.5"/>
			</g>
			<path class="st14" d="M214.7,446.2l-16.9-18.9l-0.2,23l5.1,14.7l-50.6,8.8l-2.1-39.8l-3.6-30.6c-0.2-1.8,0.2-3.7,1.1-5.2
				c0.9-1.6,2.4-2.8,4.1-3.5l13.9-5.5l19.6,3.6l7.9,3c3.3,1.3,6.3,3.3,8.6,6l23.8,27.1"/>
			<path class="st15" d="M196.6,422.8c1,0,1.9-0.1,2.9-0.2c2.3-0.4,4.4-1.4,6.1-2.9c1.7-1.6,2.9-3.6,3.4-5.8
				c0.2-0.9,0.3-1.9,0.4-2.8c0.1,0.3,0.1,0.5,0.1,0.8c0,0.7-0.1,1.4-0.2,2.1c-0.5,2.3-1.7,4.4-3.4,6.1s-4,2.6-6.3,2.9
				c-0.7,0.1-1.4,0.1-2.1,0C197.1,422.9,196.8,422.9,196.6,422.8z"/>
			<path class="st9" d="M198.1,449.3c0.1,0,0.1-8,0.1-17.8c-0.1-9.8-0.2-17.8-0.4-17.8s-0.1,8-0.1,17.8
				C197.8,441.3,198,449.3,198.1,449.3z"/>
			<path class="st14" d="M196.2,455.1l-30.6-12.3c-1.2-0.5-2.3-1.3-3-2.4c-0.8-1-1.2-2.3-1.3-3.6l-2.2-29.3c0,0,0.3-12.4-7.5-13
				l-4.4,1.7c-5.7,3-7.1,11.3-6.4,17.8c1.1,9.1,1.6,22,2.8,30c1,6.5,4.7,12.2,11.1,13.8l37.7,8.1L196.2,455.1z"/>
			<path class="st9" d="M159.5,412.1c0.1,0.2,0.1,0.4,0.1,0.7c0,0.5,0.1,1.1,0.2,1.9c0.2,1.7,0.4,4.1,0.6,7.1
				c0.3,2.9,0.6,6.6,0.9,10.5c0.1,1,0.2,2,0.3,3c0.1,1.1,0.2,2.1,0.4,3.1c0.2,1,0.7,2,1.5,2.7c0.8,0.7,1.8,1.3,2.8,1.8
				c8.4,3.6,16.2,6.6,21.8,8.7l6.7,2.5l1.8,0.7c0.2,0.1,0.4,0.2,0.6,0.3c-0.2,0-0.4-0.1-0.7-0.2l-1.8-0.6c-1.6-0.5-3.9-1.3-6.7-2.4
				c-5.7-2-13.5-5-21.9-8.6c-1.1-0.4-2.1-1.1-2.9-1.8c-0.8-0.8-1.4-1.8-1.6-2.9c-0.2-1.1-0.3-2.1-0.4-3.2c-0.1-1-0.2-2-0.2-3
				c-0.3-4-0.6-7.5-0.8-10.5c-0.2-3-0.4-5.4-0.5-7.1c-0.1-0.8-0.1-1.5-0.1-1.9C159.5,412.6,159.5,412.4,159.5,412.1z"/>
			<path class="st9" d="M142,428c0,0.1,0.1,0.3,0.1,0.4l0.1,1.1c0.1,1,0.2,2.4,0.4,4.1c0.1,1.7,0.4,3.8,0.7,6.1
				c0.3,2.5,0.8,5,1.4,7.4c0.3,1.3,0.8,2.4,1.5,3.5c0.7,1,1.4,1.9,2.3,2.8c1.4,1.5,3.1,2.7,4.9,3.7c1.7,0.9,3.5,1.4,5.4,1.8
				c-0.1,0-0.3,0-0.4,0c-0.4,0-0.8-0.1-1.1-0.1c-1.4-0.3-2.7-0.7-4-1.3c-1.9-0.9-3.6-2.2-5-3.7c-0.9-0.9-1.7-1.8-2.4-2.8
				c-0.7-1.1-1.3-2.4-1.6-3.7c-0.6-2.5-1.1-5-1.4-7.5c-0.3-2.3-0.5-4.4-0.6-6.2c-0.1-1.8-0.2-3.2-0.2-4.2c0-0.5,0-0.8,0-1.1
				C141.9,428.3,141.9,428.2,142,428z"/>
			<path class="st9" d="M155,448.5c0.1-0.6,0.3-1.1,0.6-1.6c0.6-1.2,1.5-2.4,2.6-3.3s2.3-1.6,3.6-2c0.5-0.2,1.1-0.3,1.7-0.3
				c0,0.1-0.6,0.2-1.6,0.6c-1.3,0.5-2.4,1.2-3.5,2.1c-1,0.9-1.9,1.9-2.6,3.1C155.6,447.5,155.3,448,155,448.5z"/>
			<path class="st15" d="M161.1,426.3l0.2,0.1l0.5,0.3c0.7,0.4,1.4,0.7,2.2,0.9c2.8,1,5.7,1.2,8.6,0.7c4.3-0.8,8.1-3.1,10.7-6.6
				c1.5-2,2.5-4.4,2.8-6.9c0.1-1.3,0-2.7-0.4-3.9c-0.4-1.3-1.2-2.4-2.2-3.4c-1-0.9-2.2-1.5-3.6-1.7c-0.6-0.1-1.3-0.1-1.9,0.1
				c-0.6,0.2-1.2,0.5-1.7,0.9c-0.2,0.2-0.4,0.5-0.5,0.7c-0.1,0.3-0.2,0.6-0.2,0.9c0,0.6,0.2,1.2,0.6,1.7c0.4,0.5,0.9,0.8,1.4,1.1
				c0.5,0.3,1.1,0.4,1.7,0.5c2.3,0.3,4.6,0,6.7-0.9c1.7-0.7,3.2-1.8,4.4-3.1c1.2-1.4,2.1-3,2.7-4.7c0.4-1.2,0.6-2.4,0.6-3.7
				c0-0.8,0-1.6-0.2-2.4c0-0.3-0.1-0.4-0.1-0.6c0-0.2,0-0.2,0-0.2c0.3,1,0.5,2.1,0.5,3.1c0,1.8-0.4,3.6-1.1,5.3
				c-0.7,1.7-1.8,3.2-3.2,4.4c-1.4,1.2-3,2.1-4.8,2.7c-1.8,0.5-3.6,0.7-5.4,0.5c-0.6-0.1-1.3-0.2-1.9-0.5c-0.6-0.3-1.1-0.7-1.5-1.2
				c-0.4-0.5-0.7-1.2-0.7-1.9c0-0.4,0.1-0.7,0.2-1c0.1-0.3,0.3-0.6,0.6-0.9c0.5-0.5,1.2-0.8,1.8-1c0.7-0.2,1.4-0.2,2.1-0.1
				c1.4,0.2,2.8,0.9,3.8,1.8c1.1,1,1.9,2.2,2.3,3.5c0.4,1.3,0.6,2.7,0.4,4.1c-0.3,2.6-1.3,5-2.9,7.1c-2.2,3-5.3,5.1-8.8,6.2
				c-3.5,1-7.3,0.9-10.8-0.4C162.9,427.3,162,426.9,161.1,426.3z"/>
			<path class="st15" d="M141,418.5c0.1-0.2,0.3-0.4,0.5-0.6c0.5-0.5,1.1-1,1.6-1.4c2-1.4,4.3-2.2,6.8-2.4c1.3-0.1,2.7-0.1,4,0.2
				c1.1,0.2,2.1,0.6,3.1,1.1c0.6,0.3,1.3,0.7,1.9,1.1c0.2,0.1,0.4,0.3,0.6,0.5c0,0.1-1-0.6-2.6-1.4c-2.1-1-4.5-1.4-6.9-1.1
				c-2.4,0.2-4.6,1-6.6,2.2C141.8,417.6,141.1,418.5,141,418.5z"/>
			<path class="st15" d="M145.9,397.6c0.8,0.7,1.6,1.3,2.5,1.8c1,0.5,2,0.8,3.1,0.9c1.3,0.1,2.7-0.1,3.9-0.5
				c1.2-0.5,2.3-1.4,3.1-2.4c0.7-0.9,1.2-1.8,1.6-2.9c0.3-1,0.4-2,0.5-3c0.1,0.3,0.1,0.6,0.1,0.8c0,0.8-0.1,1.5-0.3,2.3
				c-0.3,1.1-0.9,2.1-1.6,3c-0.9,1.1-2,2-3.3,2.5c-1.3,0.5-2.7,0.7-4.1,0.5c-1.1-0.1-2.2-0.5-3.2-1c-0.7-0.4-1.3-0.8-1.8-1.4
				C146.2,398,146,397.8,145.9,397.6z"/>
			<path class="st15" d="M172.5,445.6c0-0.2,0-0.4,0.1-0.6c0.1-0.5,0.3-1.1,0.5-1.6c1-1.8,2.6-3.2,4.6-4c2.9-1.1,6.1-1.3,9-0.3
				c1.6,0.5,3.5,1.1,4.7,2.6c0.3,0.4,0.5,0.9,0.6,1.4c0.1,0.5,0,1-0.2,1.5c-0.5,0.9-1.2,1.6-2.2,2.1c-0.9,0.4-1.9,0.7-2.9,0.7
				c-1,0.1-2-0.2-2.8-0.9c-0.4-0.3-0.7-0.7-0.9-1.1c-0.2-0.4-0.3-0.9-0.4-1.4c-0.1-0.9,0.1-1.8,0.4-2.6c1.2-2.9,3.4-5.1,6.3-6.4
				c1.9-0.8,4-1.2,6-1c0.8,0.1,1.5,0.2,2.2,0.5c0,0.1-0.8-0.2-2.2-0.3c-2-0.1-4,0.3-5.9,1.1c-1.3,0.6-2.4,1.4-3.4,2.4
				c-1.2,1.1-2.1,2.4-2.6,3.9c-0.3,0.8-0.4,1.6-0.4,2.5c0,0.4,0.1,0.8,0.3,1.2c0.2,0.4,0.5,0.7,0.8,1c0.7,0.6,1.6,0.8,2.5,0.8
				c0.9,0,1.9-0.3,2.7-0.7c0.9-0.4,1.6-1,2-1.9c0.2-0.4,0.2-0.8,0.2-1.3c-0.1-0.4-0.2-0.8-0.5-1.2c-0.5-0.7-1.2-1.2-2-1.6
				c-0.8-0.4-1.6-0.7-2.4-0.9c-2.9-0.9-6-0.8-8.8,0.2c-1.3,0.4-2.5,1.2-3.5,2.2C173.5,443.1,172.8,444.4,172.5,445.6L172.5,445.6z"
				/>
			<path class="st15" d="M152.2,456.7c0-0.1,1.2-0.2,2.9-0.8c2.3-0.8,4.4-2.2,6-4c1.6-1.8,2.8-4,3.4-6.4c0.5-1.8,0.4-3,0.5-3
				c0.1,0.3,0.1,0.5,0,0.8c0,0.8-0.1,1.5-0.3,2.2c-0.5,2.4-1.7,4.7-3.3,6.6c-1.7,1.9-3.8,3.2-6.2,4c-0.7,0.2-1.5,0.4-2.2,0.5
				C152.8,456.7,152.5,456.7,152.2,456.7z"/>
			<path class="st15" d="M142.3,433.9c0.1-0.1,0.2-0.1,0.4-0.1c0.3-0.1,0.6-0.2,1.1-0.3c1.4-0.4,2.8-0.5,4.2-0.4
				c1,0.1,1.9,0.3,2.8,0.7c1,0.5,2,1.2,2.6,2.1c0.8,1,1.1,2.3,1,3.6c0,0.7-0.3,1.3-0.6,1.9c-0.3,0.6-0.9,1.1-1.6,1.3
				c-0.3,0.1-0.7,0.1-1.1,0.1c-0.4-0.1-0.7-0.2-1-0.5c-0.5-0.5-0.7-1.2-0.7-1.9c0-1.2,0.2-2.5,0.7-3.6c0.4-1,1-1.8,1.8-2.6
				c0.8-0.7,1.7-1.3,2.7-1.7c1.3-0.5,2.8-0.6,4.2-0.4c0.4,0.1,0.7,0.2,1.1,0.3c0.1,0,0.2,0.1,0.4,0.2c0,0-0.5-0.2-1.5-0.3
				c-1.4-0.2-2.8,0-4,0.5c-1.9,0.8-3.4,2.2-4.2,4.1c-0.5,1.1-0.7,2.3-0.7,3.5c0,0.6,0.2,1.2,0.6,1.6c0.2,0.2,0.5,0.3,0.8,0.4
				c0.3,0.1,0.6,0,0.9-0.1c0.6-0.2,1.1-0.6,1.4-1.2c0.3-0.5,0.5-1.1,0.6-1.7c0.1-1.2-0.2-2.3-0.9-3.3c-0.6-0.9-1.5-1.5-2.5-2
				c-0.9-0.4-1.8-0.6-2.7-0.7c-1.4-0.1-2.8,0-4.1,0.3C142.8,433.8,142.3,434,142.3,433.9z"/>
			<g class="st16">
				<path class="st17" d="M187.5,451.7c-3.3-1.8-6.5-3.3-9.9-4.8c-3.4-1.6-6.8-3.5-9-6.5c-4.2-5.7-3.7-13.9-8.1-19.5
					c0.3,3.8,0.6,7.5,0.8,11.3c0.3,3.4-0.3,6.9,2,9.2c1.9,2,5.5,3.5,8.1,4.3C176.6,447.4,182.3,449.9,187.5,451.7z"/>
			</g>
			<path class="st13" d="M240.6,494.7c0,0,25.6,7.1,26.6,7.4c1.6,0.5,1.3,6.2-1.1,6.1c-1.1,0-19.6,0.7-22,0.5
				c-2.4-0.1-9.4-2.9-9.4-2.9L240.6,494.7z"/>
			<path class="st9" d="M251.2,504.4c0.3-0.9,0.7-1.9,1.1-2.7c0.6-0.8,1.2-1.6,1.8-2.4c-1,0.4-1.7,1.2-2.2,2.1
				C251.4,502.3,251.1,503.3,251.2,504.4z"/>
			<path class="st9" d="M248.6,503.2c0.1,0,0.4-1.2,1.1-2.5c0.7-1.3,1.5-2.3,1.4-2.4c-0.7,0.6-1.4,1.3-1.8,2.2
				C248.8,501.3,248.6,502.2,248.6,503.2L248.6,503.2z"/>
			<path class="st9" d="M246.1,502.5c0.1-0.9,0.3-1.8,0.6-2.7c0.4-0.8,0.9-1.6,1.4-2.4c-0.9,0.5-1.5,1.3-1.8,2.2
				C245.8,500.5,245.8,501.6,246.1,502.5z"/>
			<path class="st9" d="M246.5,499.2c0.2-0.6,0.3-1.3,0.3-1.9c0-0.7-0.1-1.4-0.3-2.1c-0.1-0.4-0.2-0.8-0.4-1.2
				c-0.1-0.2-0.2-0.5-0.4-0.6c-0.1-0.1-0.3-0.1-0.4-0.1c-0.2,0-0.3,0.1-0.4,0.2c-0.2,0.2-0.3,0.5-0.3,0.7c0,0.2,0,0.4,0,0.7
				c0,0.4,0.1,0.8,0.2,1.2c0.2,0.7,0.4,1.3,0.8,2c0.3,0.6,0.7,1.1,1.1,1.6c0.1,0-0.4-0.6-0.9-1.7c-0.3-0.6-0.5-1.2-0.7-1.9
				c-0.1-0.4-0.1-0.8-0.1-1.2c0-0.4,0-0.9,0.2-1.1c0,0,0.1-0.1,0.2-0.1c0.1,0,0.1,0,0.2,0.1c0.1,0.1,0.2,0.3,0.3,0.4
				c0.2,0.4,0.3,0.7,0.4,1.1c0.2,0.7,0.3,1.3,0.3,2C246.6,498.5,246.5,499.2,246.5,499.2z"/>
			<path class="st9" d="M246.5,498.9c-0.5-0.2-1.1-0.3-1.7-0.3c-0.6,0-1.2,0.1-1.8,0.2c-0.4,0.1-0.7,0.2-1.1,0.4
				c-0.2,0.1-0.4,0.3-0.5,0.5c-0.1,0.2-0.1,0.4-0.1,0.7c0.1,0.2,0.2,0.4,0.3,0.6c0.2,0.2,0.4,0.3,0.6,0.3c0.4,0.1,0.8,0.1,1.1,0
				c0.6-0.1,1.2-0.4,1.7-0.8c0.5-0.3,0.9-0.7,1.2-1.2c-0.5,0.3-0.9,0.6-1.4,0.9c-0.5,0.3-1,0.6-1.6,0.7c-0.3,0.1-0.6,0.1-1,0
				c-0.1,0-0.3-0.1-0.4-0.2c-0.1-0.1-0.2-0.2-0.2-0.4c0-0.1,0-0.3,0.1-0.4c0.1-0.1,0.2-0.2,0.3-0.3c0.3-0.2,0.6-0.3,0.9-0.4
				c0.6-0.2,1.1-0.3,1.7-0.3C245.8,498.9,246.5,499,246.5,498.9z"/>
			<path class="st9" d="M255.2,504.7c0.1-0.8,0.3-1.6,0.5-2.3c0.4-0.7,0.8-1.4,1.2-2c-0.4,0.2-0.7,0.4-1,0.7
				c-0.3,0.3-0.5,0.7-0.6,1.1c-0.2,0.4-0.3,0.8-0.3,1.2C254.9,503.8,255,504.3,255.2,504.7z"/>
			<path class="st9" d="M237.3,505.8c0.3,0.2,0.6,0.3,1,0.5c0.9,0.4,1.9,0.7,2.8,0.9c3.2,0.7,6.5,1,9.8,0.9c3.8,0,7.3-0.2,9.8-0.3
				l3-0.2c0.4,0,0.7,0,1.1-0.1c-0.4,0-0.7-0.1-1.1,0h-3l-9.8,0.2c-3.3,0.1-6.5-0.2-9.7-0.8C238.8,506.4,237.3,505.7,237.3,505.8z"/>
			<path class="st9" d="M236.6,506.4c0.7-0.3,1.3-0.5,1.9-0.9c1.5-0.7,3.2-1,4.8-0.8c1.6,0.4,3.1,1.2,4.2,2.5c0.5,0.5,0.9,1,1.5,1.5
				c-0.3-0.6-0.8-1.2-1.2-1.7c-0.5-0.6-1.1-1.1-1.7-1.6c-0.8-0.6-1.7-1-2.6-1.1c-1.7-0.2-3.5,0.1-5,1
				C237.7,505.6,237.1,505.9,236.6,506.4z"/>
			<path class="st13" d="M213.4,487.6c0,0-24.2,15.8-25.1,16.5c-1.3,1,0.2,5.7,2.5,4.9c1.1-0.4,21.4-6,23.6-6.9
				c2.2-0.8,8.1-5.6,8.1-5.6L213.4,487.6z"/>
			<path class="st9" d="M206.2,500.1c-0.3-1-0.9-1.9-1.6-2.6c-0.8-0.7-1.7-1.2-2.7-1.4c0.8,0.5,1.7,1.1,2.4,1.7
				C205,498.6,205.6,499.3,206.2,500.1z"/>
			<path class="st9" d="M208.4,498.1c-0.3-0.9-0.8-1.7-1.5-2.4c-0.7-0.7-1.5-1.2-2.4-1.5c-0.1,0.1,1,0.7,2,1.8
				C207.7,497.1,208.3,498.2,208.4,498.1z"/>
			<path class="st9" d="M210.6,496.7c-0.1-1-0.4-1.9-1.1-2.7c-0.6-0.8-1.4-1.3-2.4-1.6c0.7,0.6,1.4,1.2,2.1,1.8
				C209.7,495.1,210.2,495.9,210.6,496.7z"/>
			<path class="st9" d="M209.1,493.7c0.1,0-0.3-0.7-0.5-1.8c-0.2-0.7-0.3-1.3-0.3-2c0-0.4,0-0.8,0-1.2c0-0.2,0-0.4,0.1-0.5
				c0-0.1,0.1-0.1,0.2-0.1c0.1,0,0.1,0,0.2,0c0.3,0.1,0.4,0.6,0.6,0.9c0.1,0.4,0.2,0.8,0.2,1.2c0.1,0.7,0,1.3-0.1,2
				c-0.2,1.2-0.4,1.8-0.3,1.9c0.3-0.6,0.5-1.2,0.6-1.8c0.2-0.7,0.2-1.4,0.2-2.1c0-0.4-0.1-0.8-0.2-1.2c-0.1-0.2-0.1-0.4-0.2-0.6
				c-0.1-0.3-0.3-0.5-0.6-0.6c-0.1-0.1-0.3-0.1-0.5,0c-0.2,0-0.3,0.1-0.4,0.3c-0.1,0.2-0.2,0.5-0.2,0.7c0,0.4,0,0.8,0,1.2
				c0,0.7,0.2,1.4,0.4,2.1C208.4,492.6,208.7,493.2,209.1,493.7z"/>
			<path class="st9" d="M209.1,493.5c0,0.1,0.6-0.2,1.6-0.5c0.6-0.1,1.1-0.2,1.7-0.2c0.3,0,0.7,0,1,0.1c0.1,0,0.3,0.1,0.4,0.2
				c0.1,0.1,0.2,0.2,0.2,0.4c0,0.2,0,0.3-0.1,0.4c-0.1,0.1-0.2,0.3-0.3,0.3c-0.3,0.2-0.6,0.3-0.9,0.3c-0.6,0.1-1.2,0-1.7-0.2
				c-0.5-0.2-1-0.3-1.6-0.5c0.4,0.4,0.9,0.6,1.5,0.8c0.6,0.2,1.2,0.3,1.8,0.3c0.4,0,0.8-0.1,1.1-0.3c0.2-0.1,0.4-0.3,0.5-0.5
				c0.1-0.2,0.2-0.4,0.1-0.7c0-0.2-0.1-0.5-0.3-0.6c-0.2-0.2-0.4-0.3-0.6-0.3c-0.4-0.1-0.7-0.1-1.1,0c-0.6,0-1.2,0.2-1.8,0.3
				C210,492.9,209.5,493.1,209.1,493.5z"/>
			<path class="st9" d="M193.9,508c0,0,0.4-0.2,0.6-0.9c0.2-0.9,0-1.8-0.5-2.6c-0.2-0.4-0.5-0.8-0.8-1.2c-0.2-0.3-0.5-0.6-0.8-0.9
				c-0.2-0.2-0.5-0.3-0.8-0.3c-0.2,0-0.3,0-0.3,0.1c0,0,0.4,0,0.9,0.5c0.3,0.3,0.5,0.6,0.7,0.9c0.3,0.4,0.5,0.8,0.8,1.2
				c0.4,0.7,0.6,1.5,0.5,2.4C194.1,507.4,194,507.7,193.9,508z"/>
			<path class="st9" d="M202.6,501.5c0-0.8-0.3-1.7-0.9-2.3c-0.5-0.6-1.3-1.1-2.1-1.3c0.6,0.5,1.2,1,1.8,1.5
				C201.8,500.2,202.2,500.8,202.6,501.5z"/>
			<path class="st9" d="M219.9,497.3c-0.4,0.2-0.7,0.5-1.1,0.7c-1,0.7-2,1.3-3,1.8c-1.5,0.8-3.1,1.5-4.7,2.1c-1.8,0.7-3.9,1.3-6.1,2
				c-4.4,1.3-8.3,2.4-11.2,3.3l-3.4,1c-0.4,0.1-0.8,0.3-1.2,0.4c0.4-0.1,0.9-0.1,1.3-0.3l3.4-0.9c2.9-0.8,6.8-1.9,11.2-3.1
				c2.2-0.6,4.2-1.3,6.1-2c1.6-0.6,3.2-1.4,4.8-2.2c1-0.6,2-1.2,2.9-2C219.3,497.9,219.6,497.6,219.9,497.3z"/>
			<path class="st9" d="M220.8,497.6c-0.7-0.3-1.3-0.5-2.1-0.5c-1.7-0.3-3.5-0.1-5.1,0.6c-0.9,0.4-1.6,1.1-2.2,1.9
				c-0.5,0.6-0.8,1.3-1.1,2c-0.3,0.6-0.5,1.3-0.7,2c0.4-0.6,0.7-1.2,0.9-1.9c0.7-1.5,1.8-2.8,3.2-3.6c1.5-0.7,3.2-0.9,4.9-0.7
				C220,497.5,220.8,497.7,220.8,497.6z"/>
			<path class="st18" d="M263.7,449c0,0,7.3,2.6,7.3,10.7c0.1,15.6-31.5,32.7-31.5,32.7l-42-27.8l-2.6-1.1
				C194.8,463.6,251.6,442.4,263.7,449z"/>
			<path class="st19" d="M218.8,478.7c0.4-0.2,0.8-0.5,1.1-0.7c0.7-0.5,1.7-1.2,2.9-2.2c2.4-1.9,5.7-4.5,9.2-7.5
				c3.5-3,6.6-5.8,8.8-7.9c1.1-1,2-1.9,2.6-2.5c0.3-0.3,0.6-0.6,0.9-1c-0.4,0.3-0.7,0.5-1,0.8l-2.7,2.4c-2.3,2-5.4,4.8-8.9,7.8
				c-3.5,3-6.8,5.7-9.1,7.6l-2.8,2.3C219.4,478.1,219.1,478.4,218.8,478.7z"/>
			<path class="st19" d="M251.9,454.8c-1.4-0.2-2.8-0.1-4.1,0.4c-1.3,0.3-2.6,1-3.6,1.9c0.1,0.1,1.6-0.9,3.7-1.5
				C250.1,455,251.9,455,251.9,454.8z"/>
			<path class="st19" d="M248.3,452.4c-1,0.3-1.9,1-2.5,1.9c-0.7,0.8-1.2,1.8-1.3,2.8c0.1,0,0.6-1.3,1.6-2.6
				S248.3,452.5,248.3,452.4z"/>
			<path class="st9" d="M266,501.7c0-0.1-0.5-0.1-1.1,0.3c-0.7,0.6-1.1,1.5-1.2,2.4c-0.1,0.9,0,1.8,0.4,2.7c0.3,0.6,0.6,0.9,0.7,0.9
				c-0.1-0.3-0.2-0.7-0.4-1c-0.3-0.8-0.4-1.7-0.2-2.5c0.1-0.8,0.4-1.6,1-2.3C265.4,502,265.7,501.8,266,501.7z"/>
			<path class="st10" d="M254.1,423.6l-15,37.8l-64.5,1l-1.2-3.5l22.6-0.8l10.9-33.6L254.1,423.6z"/>
			<path class="st7" d="M224,440c0.5-0.2,1-0.3,1.6-0.3c0.6,0.1,1.1,0.3,1.5,0.6c0.4,0.3,0.6,0.8,0.7,1.3c0.1,0.5,0.1,1-0.1,1.5
				c-0.2,0.5-0.5,0.9-0.9,1.1c-0.4,0.3-0.9,0.5-1.4,0.5c-0.5,0-1.1-0.1-1.5-0.4c-0.4-0.3-0.8-0.7-1-1.2c-0.2-0.6-0.2-1.2,0-1.7
				C223.1,440.8,223.5,440.3,224,440"/>
			<path class="st18" d="M243.5,494.3c0,0-59.4-38.9-61.8-39.7c-2.4-0.8-8.3-4.7-14.2-3c-5.9,1.6-11.1,6.9-13.8,14.6
				c-1.5,4.4-2.2,11.9-2.6,17.5c-0.5,6.7,1.7,13.4,6.1,18.5c1.9,2.4,4.5,4.2,7.4,5.2c0.6,0.2,1.3,0.4,1.9,0.5
				c11.2,2.4,22.8-2.6,29.1-12.2l1.4-2.1c0,0,38.8,14.2,39.5,14L243.5,494.3z"/>
			<path class="st19" d="M170,483.7l0.3,0.1l1,0.4l3.8,1.5l14,5.2c5.9,2.2,13.1,4.8,21,7.7c8,2.9,16.8,6.1,26.3,9.3l0.2,0.1l0.1-0.2
				c1.5-2.8,3-5.8,4.6-8.8l2.4-4.5l0.1-0.2l-0.2-0.1l-45.3-28.7l-13.6-8.6l-3.7-2.3l-1-0.6c-0.2-0.1-0.3-0.2-0.3-0.2l0.3,0.2
				l0.9,0.6c0.8,0.5,2.1,1.3,3.7,2.4l13.5,8.7l45.2,28.8l-0.1-0.3c-0.7,1.4-1.6,3-2.4,4.5l-4.6,8.8l0.3-0.1
				c-9.4-3.2-18.3-6.3-26.3-9.2l-21.1-7.6l-14-5.1l-3.8-1.4l-1-0.4L170,483.7z"/>
			<path class="st9" d="M176.2,345.7c1-2.7,3.3-3.9,6.1-4.6c1.4-0.3,2.9-0.3,4.3,0.1c1.4,0.4,2.7,1.1,3.8,2c1.4,1.3,2.5,3.1,4.3,3.9
				c2.9,1.3,6.7-0.6,9.4,1c0.8,0.5,1.5,1.2,1.8,2.1c0.3,0.9,0.3,1.9,0,2.8c-0.3,0.9-0.9,1.7-1.8,2.2c-0.8,0.5-1.8,0.7-2.8,0.6
				c1.9,0.9,2.3,3.8,1,5.4c-1.3,1.7-3.7,2.1-5.8,1.5c-2-0.7-3.8-1.9-5.2-3.5c-1.4-1.6-2.7-3.3-4.2-4.7c-1.5-1.5-3.5-2.5-5.6-2.6
				c-2.9-0.1-5.5,1.8-7,4.2c-1.5,2.4-2.1,5.3-2.5,8.1c-0.4,2.8-0.7,5.7-1.8,8.3c-0.1,0.3-0.3,0.7-0.6,0.7c-0.5,0.1-0.8-0.4-1-0.9
				c-2.2-5-3.3-10.4-3.3-15.9c0-3.1,0.3-6.1,2.3-8.6S174.2,343.8,176.2,345.7"/>
			<path class="st20" d="M169.5,358.3l-4.4,31.6c-0.2,1.3-0.1,2.6,0.3,3.8c0.3,1.2,0.9,2.4,1.7,3.4c0.8,1,1.8,1.8,3,2.4
				c1.1,0.6,2.4,1,3.7,1.1c2.4,0.2,4.9-0.5,6.8-2c1.9-1.5,3.2-3.7,3.5-6.1c0.3-2.4,0.6-4.4,0.7-4.6c0,0,8.2,0.3,9.9-7.5
				c0.8-3.8,1.8-11.8,2.7-19c0.4-3.7-0.6-7.5-2.8-10.6c-2.2-3-5.5-5.2-9.2-5.9l-0.8-0.2C176.1,343.6,170.4,350,169.5,358.3z"/>
			<path class="st21" d="M184.7,387.8c-3.7-0.7-7.1-2.4-9.8-5c0,0,1.3,6.2,9.4,7.1L184.7,387.8z"/>
			<path class="st9" d="M193.8,366.2c-0.1,0.3-0.2,0.6-0.5,0.7c-0.2,0.2-0.6,0.2-0.9,0.2c-0.1,0-0.3-0.1-0.4-0.1
				c-0.1-0.1-0.2-0.2-0.3-0.3c-0.1-0.1-0.2-0.2-0.2-0.4c0-0.1,0-0.3,0-0.4c0.1-0.3,0.2-0.6,0.5-0.7c0.2-0.2,0.6-0.2,0.8-0.2
				c0.1,0,0.3,0.1,0.4,0.1c0.1,0.1,0.2,0.2,0.3,0.3c0.1,0.1,0.2,0.2,0.2,0.4C193.8,365.9,193.9,366,193.8,366.2z"/>
			<path class="st9" d="M194.7,364.9c-0.2,0.1-0.9-0.7-2.1-0.9c-1.2-0.2-2.2,0.2-2.4,0c-0.1-0.2,0.1-0.3,0.6-0.5
				c0.6-0.3,1.3-0.3,1.9-0.2c0.6,0.1,1.2,0.4,1.7,0.9C194.7,364.6,194.8,364.8,194.7,364.9z"/>
			<path class="st9" d="M181.8,364.2c-0.1,0.3-0.2,0.6-0.5,0.7c-0.2,0.2-0.6,0.2-0.8,0.2c-0.1,0-0.3-0.1-0.4-0.1
				c-0.1-0.1-0.2-0.2-0.3-0.3c-0.1-0.1-0.2-0.2-0.2-0.4c0-0.1,0-0.3,0-0.4c0.1-0.3,0.2-0.6,0.5-0.7c0.2-0.2,0.5-0.2,0.8-0.2
				c0.1,0,0.3,0.1,0.4,0.1c0.1,0.1,0.2,0.2,0.3,0.3c0.1,0.1,0.2,0.3,0.2,0.4S181.8,364.1,181.8,364.2z"/>
			<path class="st9" d="M182.7,362.7c-0.2,0.1-0.9-0.7-2.1-0.9c-1.2-0.2-2.2,0.2-2.4,0c-0.1-0.2,0.1-0.3,0.6-0.5
				c0.6-0.3,1.3-0.3,1.9-0.2c0.6,0.1,1.2,0.5,1.7,0.9C182.7,362.4,182.8,362.7,182.7,362.7z"/>
			<path class="st9" d="M185.3,372.6c0.7-0.1,1.4-0.1,2.1,0c0.3,0,0.6,0,0.7-0.2c0.1-0.3,0.1-0.6,0-1l-0.4-2.5
				c-0.6-3.6-1-6.6-0.8-6.6c0.1,0,0.8,2.9,1.4,6.5c0.1,0.9,0.3,1.7,0.4,2.6c0.1,0.4,0.1,0.9-0.1,1.2c-0.1,0.1-0.2,0.2-0.3,0.2
				c-0.1,0.1-0.2,0.1-0.3,0.1c-0.2,0-0.4,0-0.5,0C186.7,373,186,372.9,185.3,372.6z"/>
			<path class="st9" d="M181.6,372.8c0.2,0-0.1,1.3,0.9,2.5c1,1.2,2.4,1.3,2.4,1.5c0,0.2-0.4,0.2-1,0.1c-0.8-0.1-1.5-0.6-2-1.2
				c-0.5-0.6-0.7-1.3-0.7-2.1C181.3,373,181.5,372.7,181.6,372.8z"/>
			<path class="st9" d="M184,358c-0.2,0.3-1.4-0.1-2.8-0.2c-1.5-0.1-2.7,0-2.8-0.3c-0.1-0.2,0.2-0.4,0.7-0.7
				c0.7-0.3,1.5-0.4,2.2-0.3c0.8,0.1,1.5,0.3,2.1,0.7C183.8,357.6,184,357.9,184,358z"/>
			<path class="st9" d="M195,361.3c-0.3,0.2-1-0.2-2.1-0.4c-1-0.2-1.9-0.2-2-0.5c-0.1-0.2,0.1-0.4,0.6-0.6c0.6-0.2,1.2-0.2,1.8-0.1
				c0.6,0.1,1.1,0.4,1.5,0.9C195,360.9,195.1,361.2,195,361.3z"/>
			<path class="st20" d="M169,364.3c-0.1-0.1-5.1-2.7-6,2.8c-0.9,5.4,4.8,5.2,4.8,5.1C167.7,372,169,364.3,169,364.3z"/>
			<path class="st21" d="M166.4,369.8c0,0-0.1,0.1-0.3,0.1c-0.1,0-0.2,0-0.4,0c-0.1,0-0.2-0.1-0.3-0.1c-0.3-0.3-0.6-0.6-0.7-1
				s-0.1-0.8-0.1-1.2c0.1-0.5,0.2-0.9,0.5-1.3c0.1-0.2,0.2-0.3,0.3-0.4c0.1-0.1,0.3-0.2,0.5-0.2c0.1,0,0.2,0,0.3,0.1
				c0.1,0.1,0.2,0.2,0.2,0.3c0,0.2,0,0.3,0,0.3c0,0,0.1-0.1,0.1-0.3c0-0.1-0.1-0.3-0.2-0.4c-0.1-0.1-0.3-0.2-0.5-0.2
				c-0.2,0-0.5,0.1-0.7,0.2c-0.2,0.1-0.4,0.3-0.5,0.5c-0.3,0.4-0.5,0.9-0.6,1.5c-0.1,1.1,0.2,2.2,1,2.6c0.1,0.1,0.3,0.1,0.4,0.1
				s0.3,0,0.4-0.1C166.4,369.9,166.4,369.8,166.4,369.8z"/>
			<path class="st9" d="M199.3,360c-1.8,0.1-3.7-0.2-5.4-1c-1.7-0.8-3.2-1.9-4.3-3.3c-1.6-2-2.6-4.7-4.9-5.9
				c-0.8-0.4-1.6-0.6-2.5-0.7c-0.9-0.1-1.7,0.1-2.6,0.4c-1.6,0.6-3.1,1.5-4.4,2.7c0.7,4.3-1.2,8.6-3.1,12.6
				c-0.2,0.5-0.5,0.9-0.9,1.1c-0.7,0.4-1.6-0.2-2.1-0.9c-0.6-1.2-0.9-2.5-0.8-3.8c0-3,0.6-6,1.8-8.8c1.2-2.8,3.2-5.1,5.7-6.8
				c3.2-2,7.1-2.6,10.8-1.8c3.7,0.9,7,2.8,9.5,5.7c1.2,1.3,2.1,2.8,2.6,4.5"/>
		</g>
	</g>
</g>
<g>
	<path class="st22" d="M219.7,102.4L219.7,102.4L219.7,102.4c-1.7,1-2.7,2.8-2.7,4.7c0,1.9,1,3.7,2.6,4.7l0,0l0,0l57.6,33.3l0,0l0,0
		c1.7,0.9,3.7,0.9,5.4,0c1.7-1,2.7-2.7,2.7-4.6v0l0,0l-1.1-64.7l0,0c0-1.9-1.1-3.6-2.7-4.6c-1.6-0.9-3.7-1-5.3-0.1v0l0,0
		L219.7,102.4z M273.9,66.7L273.9,66.7L273.9,66.7C273.9,66.7,273.9,66.7,273.9,66.7c3.2-1.7,7-1.7,10.1,0.1
		c3.1,1.8,5.1,5.1,5.1,8.7c0,0,0,0,0,0l1.1,64.8c0,3.7-1.9,7-5.1,8.9c-3.2,1.8-7,1.9-10.3,0.1L217.1,116c0,0,0,0,0,0
		c-3.1-1.9-5.1-5.3-5-8.9c0-3.6,2-7,5.2-8.9L273.9,66.7z M268.6,88.5c0.7-1.2,2.2-1.6,3.4-0.9c1.2,0.7,1.6,2.2,0.9,3.4l-8,13.9
		c-0.7,1.2-2.2,1.6-3.4,0.9c-1.2-0.7-1.6-2.2-0.9-3.4L268.6,88.5z M252.8,117.3c-0.4-1.3,0.4-2.7,1.8-3.1c1.3-0.4,2.7,0.4,3.1,1.8
		c0.4,1.3-0.4,2.7-1.8,3.1C254.5,119.4,253.2,118.6,252.8,117.3z"/>
</g>
</svg>
